<?xml version="1.0" encoding="utf-8"?>
<!-- Generator: Adobe Illustrator 23.1.1, SVG Export Plug-In . SVG Version: 6.00 Build 0)  -->
<svg version="1.1" id="Layer_1" xmlns="http://www.w3.org/2000/svg" xmlns:xlink="http://www.w3.org/1999/xlink" x="0px" y="0px"
	 viewBox="0 0 382.3 256.9" style="enable-background:new 0 0 382.3 256.9;" xml:space="preserve">
<style type="text/css">
	.st0{fill:#FFFFFF;}
	.st1{font-family:'Roboto';}
	.st2{font-size:40px;}
	.st3{fill:#707589;}
	.st4{fill:none;stroke:#FFFFFF;stroke-width:0.856;stroke-linejoin:round;stroke-miterlimit:10;}
	.st5{font-family:'ArialMT';}
	.st6{font-size:1.9091px;}
</style>
<text transform="matrix(1 0 0 1 4.2337 242)" class="st0 st1 st2">Collective Bargaining</text>
<g id="map">
	<path class="st3" d="M70.5,170c0.6,1.1,0.5,1.8-0.9,2.2c-0.9,0.3-1.7,1-2.5,1.5c-0.5,0.3-1,0.5-1.7,0.8c0.2-2.2,0-4.2,2-5.4
		c-1.3,0.1-1.8,0.6-2.6,2.2c-0.6,1-1.4,2-2.1,3.2c0.2,0.2,0.6,0.4,1.1,0.9c-3.4,3.6-7,6.7-11.4,9.1c-0.5-0.6-1.2-0.4-2.2,0.2
		c-1.2,0.7-2.8,1-4.2,1.4c-0.1-0.2-0.2-0.4-0.3-0.6c0.6-0.4,1.4-0.7,2-1.1c0.6-0.3,1.4-0.6,2.1-1c0.5-0.2,0.8-0.8,1.3-0.8
		c2.3-0.2,3.8-1.8,5.3-3.3c0.8-0.9,1.1-2.1,1.9-3.6c-1.2,0.2-1.8,0.2-2.8,0.3c-1-1.1-1-1.6-3.7-0.5c0-1.3,0-2.5,0-3.8
		c-2.7,0.5-3.4-0.2-3.7-2.9c-0.2-1.1-1.2-2.2-0.2-3.4c0.6-0.7,1-1.7,1.8-2.2c0.4-0.3,1.3-0.2,1.9-0.1c0.9-0.4,2.1-0.6,2.6-1.2
		c0.5-0.6,0.2-1.8,0.2-2.5c-1.3,0-2.7,0-4.2,0c-1.1,0-1.8-0.5-2-1.8c-0.1-0.7-0.6-1.4-1.1-2.2c1.5-0.6,3-1.2,4.8-1.9
		c0.2,1.8,1,2.2,2.6,1.7c-1.3-1.8-2.6-3.6-3.7-5.4c-0.2-0.4-0.6-1-0.4-1.4c0.2-0.4,0.9-0.6,1.4-0.9c0.6-0.2,1.5-0.2,1.7-0.6
		c0.7-1.8,2.1-2.6,3.6-3.3c1-0.5,2.2-0.9,3.7-1.4c1,0.5,2.4,1.5,3.9,1.8c2.2,0.5,4.6,0.7,7,0.6c1.8-0.1,3.2,0.4,3.6,2.2
		c1.5,7.5,3,15,4.6,22.8c0.7-0.2,1.4-0.4,1.9-0.5c1.2,1,2.3,1.8,3.4,2.6c0.7-0.9,1.4-2.3,2-2.3c0.9,0,1.8,1,2.6,1.7
		c0.9,0.6,1.8,1.3,2.5,2.1c1.3,1.4,2.6,2.6,4.6,2.9c1.3,0.2,1.8,2.2,1,3.8c-0.6,0.2-2-1.6-2.1,0.6c0,0-1.4,0.3-1.8,0
		c-1.1-1-2-2.2-3-3.5c-0.2,0.5-0.2,0.7-0.3,1.2c-1-1-1.7-2.1-2.6-2.8c-1.7-1.3-3.4-2.5-5.2-3.6c-2-1.2-4.2-1.1-6.6-1
		c-1.2,0.1-2.5-0.8-3.8-1.3c-0.6-0.2-1.2-0.2-1.8-0.4C70.6,169.7,70.5,169.9,70.5,170z"/>
	<path class="st3" d="M64.7,176.3c0.2,0.2,0.4,0.2,0.5,0.4c0.6,1.1-1.1,4-2.3,4.1c-0.3,0-0.9-0.3-1-0.6s-0.2-1,0-1.3
		c0.7-0.8,1.6-1.5,2.4-2.2C64.3,176.4,64.5,176.4,64.7,176.3z"/>
	<path class="st3" d="M45.4,161.6c-1.5,0.5-3.4-0.6-3.9-2.2C43,160.1,44.1,160.8,45.4,161.6z"/>
	<path class="st3" d="M45.1,169.8c0.7,0.2,1.4,0.2,2.2,0.4c-0.1,0.3-0.2,0.7-0.3,1c-0.6-0.2-1.4-0.4-2-0.6
		C45,170.4,45,170,45.1,169.8z"/>
	<path class="st3" d="M132,186.7c-0.8-0.2-1.8-0.6-1.4-2.3c0.1-0.4-0.1-0.9-0.3-1.3c-0.6-1.2-1-2.2,0.2-3.4c0.5-0.5,0.2-1.6,0.4-2.6
		c3.1,0.9,5.8,2.3,7.3,5.8C136.5,184,134.5,185.2,132,186.7z"/>
	<path class="st3" d="M127.5,174.9c-0.2-0.2-0.5-0.3-0.7-0.6c-0.4-0.4-0.8-0.9-1.2-1.4c-0.2-0.2-0.2-0.6-0.3-1
		c0.3-0.1,0.7-0.2,1-0.2c0.9,0.2,1.8,0.4,2.6,0.7c0.4,0.2,0.6,0.7,1,1c-0.4,0.3-0.8,0.6-1.2,0.9C128.4,174.7,128,174.8,127.5,174.9z
		"/>
	<path class="st3" d="M107.6,163.8c-0.8,0.6-1.4,1.3-1.8,1.2c-0.6-0.1-1.3-0.7-1.9-1.2c0.8-0.5,1.5-1,2.4-1.4
		C106.4,162.4,106.9,163.2,107.6,163.8z"/>
	<path class="st3" d="M116.7,166.4c0.1,1,0.3,1.8,0.2,2.6c0,0.2-1,0.6-1.2,0.5c-0.6-0.5-1-1.1-1.6-1.8
		C115,167.2,115.6,166.9,116.7,166.4z"/>
	<path class="st3" d="M158.5,158.4c0.4-0.3-0.2,1,0.6,0.7c-0.1,0.1-0.1,1.1,0.2,0.2c0.8,1.5,3.1,2.8,4,5.6c0.2,4.4,6.2,7.7,6.2,11.8
		c1.3,4.8,4.8,9.5,11,9.4c0.8,0.1,1.4,1,2.9,1h-0.1c0.8,0.6,1.8-1.5,1.3-0.5c-0.2-0.1-0.1-0.3-0.5,0.1c-0.3-1.9-2.1-4.2-1.4-9.1
		c-1,1-3.1-3.2-0.7-0.4L182,177c0.5-0.2,1.4-1,0.4,0.2c0.7,0.6,1.6-1.5,1.8-2.8c-0.6,0.7-0.4-0.2-0.7-1c-0.1,0.1-0.6,0.3-1-0.3
		c0.9-0.5,4.2,1.9,2-1.4c0.1,0.1,0.8-0.3,0.3-0.6c1,0.9,2.2-1.8,1.8,0.3c1.4,0,0.2-2.4,1-1.8c-1.8-0.9,4.5,0.8,1.4-0.6
		c0.1-0.2-0.2-0.1,0.5-0.4c-0.3-0.6-1,0.2-1-1.3c0.1,0.2,0.5-0.4,0.6,0.4l0.2-0.2c0-0.2,0.2,1,0.4,0.2c-0.1-0.1,0.3,0.3-0.2,0.6
		c0.2,0.2-0.1,0.1,0.6-0.2c0.2,0.2-0.6-0.6-0.1-0.8c-0.1,0.2,0.5,1.3,0.8,0c0,0.1,0,0,0.1,0.3c0.1,0,0.1-0.1,0.4-0.5
		c0,0.2,0-0.1-0.2,0.9c-0.1-0.1,0.9,0.2-0.1,0.2c2.8-0.4,4.2-1.8-0.8,1.4c1-0.6,5.4-2.2,7.8-4.9c-1.6-0.4,2.4,0,1-4.7l-0.1,0.1
		c4.6-1.1-0.7,0.6,3.1,1.4c-4.2,2.5,2.6-1.4,6.1-1.8c1.8-1.2,9,3.7,9.1,0.4c1.2-4.4,5.8,5.8,10,3c-0.2-2.6,3.6,4.3,3.3-2.1
		c1.2-0.2,1,1.6,2.4,1.1c1.9,1.4,3,3.2,3.8,1c0.5-0.9-3.4-0.7-3.7-3.1c1.2-1,2.6-1.8,2.6-3.5c0.3-1.4-5.8,3.2-3.4,0.5
		c0-0.2,0.6-1.4-0.2-0.6c-0.1-0.1-0.1,0-0.1-0.3c-1.4,2.1-8.1-0.2-2-1.1c1,0.6,3.1,1.9,4.5-0.1c2-1.9,8.1,1.7,8.2-3.9
		c2.3,2.2-1.4,6.2,3.6,2.7c-1,1.2,2.4-0.2,1.5-1.6c0.7,0.8,2.9-0.2,0.2,1.5c1.3-0.9,10.1-1.7,4.2-0.8c0.5-0.2,5.6,2.3,4.7,0.9
		c-0.8,0.6-0.6-0.8,0.6-0.1c-0.1,0.2,0.1,0.2-0.2,0.5c-0.6,0.6,1.6-0.3,2.7,3.3c-0.4,0.2-0.4,0-0.5-1.3c-1.2,2.3,2.2,1,3.4,0.4
		c-1,0.8,4.6-1.7,2.7-1.6c0.2-0.2,0.4-0.5,0.9-1c0.8-1.6,11.4,6.3,11.6,9c0.2,1.6-1.9,7.1,0.9,6.9c-1.8-4.6,1,0,0.9-1.3
		c2-1.1-1.8,3.4-0.3,3.5c0.9,0.8,1.4,4.2,3.4,4.1c-1.4-1.3,0.9-1.4,0.3-0.9c0.5,2.5,0.6,2.5,3.7,7c0.1-0.9,9,5.9,3.9,4
		c0.1,2.3,3.6-0.1,5-0.1c0.6-1.4,0.2-3.1,1.2-4.8c1.3-9.4-10.4-23.5-13.8-33.8c0.1,0.3,1-4.8,0.2-2.4c-1.3-1.5,0.8,0.1-0.2-2.2
		c0.6,0,0.5-0.7,1.1-0.7c0.6-0.7-1.1-1.4,0.4-1.3c0.2-0.5,0.1-0.8-0.4-1.2c1.1-1.5,3.1-3,1.6-5.5c1.8,1.7,1.3,0.3,2.2-0.7v0.1
		c0.2-0.3,1.4,0.2,1.3-1c-0.3,0.6,6.1-4,5-6.5c0.6,1.8,0.9-3.3,3.9-4.2c0.6-1.1,3.4,0.3,3.1-2.2c0.2,2.6,2.5-6.7,3-4.6
		c-0.8,1.1,1.9,0.2,0.9-1.1c0.2,0.9,2.7,0,2.4-0.3c0.2-0.4,0.2-0.4,0.8,0.1c0.2-0.2,0.6-0.1,1.6-1.6c0.2-0.2-1.2-1.2-1.1-0.4
		c-1.2-0.3,0.5,0.7-1,0.3c0.1,0,0.5,0.5,0,0.4c-0.3-1-0.2,1.1-2.7-0.9c-0.3-1.7,2.6,3,2.9-1.7c1.4-0.3-1.1-0.8-1.7-0.6
		c-2.8-1.5,1,0.4,1.1-1c-1-0.3,0.2-0.5,0.8-0.6c-1.1,1.5,0.2,0.7,1.3,1.3c1-0.2,1.4-0.6,2-2.3c0.9,0.9,0.4-0.6,0.8-0.8
		c-0.4-0.6,0.2-1.2-1.2-1.8c0.2,0.2-0.3,0.1-0.1,0.5c-1.2-0.5,0.5,2.9-1.3,1.8c0.7,0.2,0.5-1.2,0.2-1.8c-0.6-1.5-4.2,3.8-4.5-2.2
		c0.4-0.1,1,3.9,1.9,1.6c0.9-0.2,0.5-1.1,1.6-0.6c0.6-0.5,0.6-0.4-0.3-1.1c0.6-0.3,1.9,1.3,1.1-0.3c0.6-0.1,0.5,0.9,1.3,1.3
		c0.1-1-3.6-4.1-1.4-2.8c0.1,0-0.8-2.1,0.2-0.5c-1-0.5,5.1,8.2,2.2,3.6c-1.5-1.1-2.2-8.5-5.9-5.2c-0.1-1.5-4.1-1.7-2.8-2.7
		c1,0.4,2.2,2,3.7,1.5c0-0.1,0.2-0.8-0.4-0.5v-0.1l0,0c0.5-0.6-3.4-1.2-3-2.6c2.5,3,1.5-0.2,3.1,0.9c-0.2-2.1-1.7-0.9-4.7-4.4
		c3.1,3.4,6.6,1.4,1.5-0.9c-0.9-0.2-2.1-0.2-2.7-1.6c-0.4-1.2,1.1,0.7,3.6,1.1c1.9,0.8,0.3-0.7-1.5-2.2c3.4,1.6,0.2,0.6,0.2-3.8
		c0.8,0,0.2-0.9-1-1.8c1-0.1,0.7,0.1,1.4-0.7c-0.5-0.8,0.7,0,0.6-0.8c1-0.1-0.2-1.2,1.1-1.5c0.1,0-0.1,0.3,0,0.8
		c0.5-1,1,0.5-0.7,1.3c-0.6,1.9,1.4,2.2-0.2,4.4c0.6-0.4,0.6,0.6,1.3-0.2c0.7,2.1-0.4-0.1-0.6,1.5c1.6-0.4-1.9,0.3,1.6,2
		c0-1.8,0.3,0.9,0.7-0.9c0.4,0.3,0.3,3.1,1.4,2.6c1-0.7-0.2,1.4-0.3,2.6c-0.6,0.5-0.4,6.2,0.6,1.7c0.4-5,4.3-4.6,1.6-9.5
		c0,0,1-0.2,0.2-0.5c0,0,0.2,0,0.2-0.3c2.3,1.5-5.1-4.7-3.6-6.6c-0.2,3.3,4.6,1.8,4.4,4.7c1.4-2.8,3.1-5.1,3-8.9
		c0.2,0.2,0.2,0.7,0.4,1.8c-0.1-1,0.5-3.5-0.6-5c0,0.2-0.1,0.1,0.1,0.5c-0.2-0.2-1,0.2-1.6-0.2c1.4-0.5,0.3-1.9,1.4-3.4l0.2,0.6
		c-0.1-0.1-0.1,0-0.2-0.2l0.6,0.2c-0.4-0.6,0.6-0.6,0.5-1.7c1,0.2,3.2-2.9,3.8-2.5c0.6-0.6,2.6-0.2,2.7-1.2c0.9,0.5,1-0.2,2.7-0.7
		v0.2c0.4-0.2,0.9-0.3,1.8-1.3c0.1,0.9,0.5-3.8,0.7-0.5c0.6,1,0.5-1.2,0.8-0.2c0.1,0,0.2-0.3,0.5-0.7c-0.1,0.1,0.6,0.6,0.5,0
		c0.4,0.3,1.6-4.2,1.8-0.6c1.8-0.4,6.1-4,1.4-4c3.8,0.1-0.9,4.7-2,0.6c-0.3-0.6-0.8-1.2-2-1.6c0.3,1.1-1.5,0-0.7-0.5
		c2.2-4.5,0.3,1,0.2-5.4c1.4-0.5,0.6-5.8,2.6-6.2c0.9-1.1-0.2,2,1.7-1.3c1.2,0.9,0.1-0.7,1.8-1c0,2.8,1.3-7.3,1.4-3.5
		c0.2,0.2,0.3-0.7,0.6,0.1c0.1,0.1-0.8-0.2-0.4,0.3c-0.7,0.1,0.7,0.5,0.9,0.3c0.5,0.2,0.6-0.1,0.1-0.9c0.2-0.2,0.4-0.2,0.5-0.9
		c0.1,0.4,0.7,0.9,0.7-0.3c0.5,0.3,1-0.6,1.5,0.9c0.2-0.2,0.2-0.5,0.2-1.2c0.3,0.6,0.7,0.2,0.6-0.7c0.3-0.2,1.6,0.6,1.3-0.9
		c0,0.1,0.1-0.1,0.4,0.1c-0.1,0.2,0.2-0.9,0.2-0.1c0.4,0.2,0-1.6,0.6-0.5c0.5,0,1-0.8,1.1-1.8c-2,0.5,0.6-1.6-2-2.2
		c-1.3,1.6-0.6-2.5-3.1-2.7c-2.5-1.1-0.3-9-5.4-10.7c-5.9,5.5-4.6-7.2-7.8,8.8c-1.3,4.2,0.6,8.1-4.8,9.9c1.1,6.1-20.6-0.7-22.4,13.9
		l-0.2,0.3c0,1.6,1.8,2.5-3,5.9c-0.2-0.2-2.2-0.3-3,0.7c-1-1-9.9-0.9-7.3,3.3c2.1,0.6-1.4,4.2-5.2,6.9c-0.1,0,0.2-0.1,0.1-0.3
		c-7.4,4.5-7.8,8.3-18,6.1c0.2,0.2,3.1-10.3,3.9-7c1-2.4-0.6-17.4-6.7-6.6c-3.8-2.3,1.9-1.5,1.2-10.7c-8.3-7-9-5.1-11.9,3.1
		c-0.5-0.6,0.1-2,0.1-3.1c-2.2,2.2-4,5.3-4,9.5c-1,4.4,4.7,6.5,0.4,14.6c-7.7,10.1-9.4-13.6-4.6-22.4c0.9-0.4,0.5-3.2-0.2-0.7
		c-0.6-0.1-1,1.3-1.1,2.5c-1.1-1-1.4,1.4-3.2,2.6c-0.8,0.8,5.4-13,4.8-8.9c4-3.8-0.6,2.2,3.1-0.9c1.3-3.2,8.2-1.8,12.5-2.6
		c-2.9-5.4-7.1-0.5-5.9-5c-5.3,0.3-10.3,5.8-14.2,0.8c-1.8-0.6-2.1-1.5-3.8,0.8c-0.2-0.3,0.2-1,0-1.8c1-0.4,1.2-2.6,3.2-3.1
		c-3.5-1.4-9.9,8.1-15.8,6.6c2.8-5.5-3,0.9-6.1-0.8c1.4-1.8,7.7-7.5,13-9.6c-6.2-1-11.4,0.2-16.2-2.6c1-2.7-6.2,1.2-9.9-2.6
		c-0.3-1.1,0.1-4.1-2.3-3.8c-38.1,8.2-91.6-6.2-134.7-16v0.2c-1,0.2,0.7,1.7,0.6,2c0.2,0.2,0.2,2-0.8,1.6c0.2-0.9-1.1,0.3,0.1,0.2
		c0.8,0.8-0.2,2.3,1,3.1c-0.6,0.3-1.1,1.2-1.8,2.2c0.2,0.6-0.1,1.8-0.7,2.9c0,0-0.2-0.1-0.5-0.6c0.2-0.4-0.9,1.4-1.4,0.1l-0.1,0.3
		c-0.1,0.1,0.2-0.2-0.3-0.2c-0.1,0.2,0,0.1-0.2,0.7c-0.4,0.2,0.3-0.6-0.5-0.5c0.1,0,0,0,0.5-0.4c-0.2-0.1-0.1-0.2-0.7,0.2
		c0,0-0.1-0.2,0.5-0.5l-0.5-0.2c0,0.2,0-0.4,0.4-0.2l-0.2,0.2c0.2,0.1,1-0.2,1.4-0.9c0.2,1-1,2,1,0.2c0,0.2-0.8,0.6,0.1,1
		c-0.2-1,1.8-1.3,0.1-2.2c0-0.1-0.2-0.1,0-0.4c0.6,0.6,0.2,0.1,0.5-0.7c0-0.2,0.1,0.7,0.5,0c0.2,0.6,0.8-0.6,0-1.4
		c0,0,0.2,0.1,0.1,0.8c0.6-0.5-5.9,2.8-2.1,2.3c-3,0.9-0.7-1,0.6-2.7L61,9c0-0.1,0.1,0.1,0.2-0.4c0,0.2,0.2,0.2-0.1,0.6
		c0.6-0.3,1.4-0.8,1-2.2L62,7.5l-0.1-0.2l-0.2,0.2c0.1-1,0.3-0.9-0.6,0.1c0,0,0.3-0.4-0.2-0.8c-0.1,0,0.1,0.1-0.2,0.3
		c-0.5-1.4-3.5-1.3-7.5-4.8c-1,3,0.7,6.2-0.1,10.5c0.5-0.5,0.3-0.5,1.6,0.4c0.2,0.2-1.3-0.2-1.4,0.6c-0.2,0,0-0.2-0.3-0.6
		c-0.3,1-0.1,1.3,1,1.8c-0.1-0.2-0.3,0.3-0.8,0.4C53,15,53.6,17,52.4,17c-0.2,0.2,0.5-0.8,0.2-1.9c-0.2,0.2-0.4,1.2-0.6,2.3
		c0.4,0.4,2.8,0.3,3,1.7c-0.5-0.6-1.1,0-2.2-0.6c0,0,0.1,0.1,0.2,0.4c-0.3,0.2-0.2-0.6-1-0.7c0.5,1.5-1.2,2.9-0.9,5.3
		c-2.7,7.1-10.8,17.5-9.1,27l-0.2-0.1c0.2,0.8-0.3,1.1-0.9,2.5l-0.2-0.2c0.3,3.1-5,1.7-1.3,10.7c-2.4,3.7,1.2,9.6,1.4,12.1
		c0.3,0.3-1.3,2.2,0.1,1.1c0,0.4,0.5,0.7,1,1.4c1.4,1.2,1,0.9,1.5-1.1c-0.1,0-0.1,0-0.2-0.2c0.8,0,1.1,0.1,1.8,1.2
		c-0.2-0.1,0-0.1-0.6-0.2h0.1c-1.7-0.1-0.6,2.7,0.3,4.6c-0.4,0.2-2.6-1.8-1.6-2.4c-0.1-0.2,0.2-0.5-0.3-0.7
		c-1.9,2.3-0.9,5.1,1.7,7.8c-4.1,3.1,2.6,9,2.2,12.4c3.7,3-4.6,5.1,5.3,7.9c5.1,4,12.2,9,12.2,16.4c-0.5-0.2-0.2-0.9-0.3,0.6
		c4.3,0.5,9.1,1,14.6,1.6c-3.6,0.6,17.7,15.4,31.8,15.7c5.8,2,10.5-5.2,18.2-0.1c1.4,3.5,5.7,5.8,8.2,9.6c0.9,1.8,0,7,5.9,9.9
		c2.3,0.6,2.3,3.6,5.8,0.5c-0.2-0.6,0.6-1.6,1-2.8l0.2,0.1c1.3-2.5,4.7-1,7.7-0.6C158,158,158.1,158.5,158.5,158.4z"/>
	<path class="st3" d="M332.7,57.9c-0.3,0.1-0.3,0-1-0.1c-0.2-0.8-0.2,0.9-1,0.9C330.5,59.2,332.5,58.6,332.7,57.9z"/>
	<path class="st3" d="M335,58.2c-1.4-0.2-0.2,0.9,0.6-0.2c-0.2-0.4-1-0.8-0.4-0.2C335.2,57.9,335.3,58,335,58.2z"/>
	<polygon class="st3" points="315,66.4 314.9,66.3 315,66.2 314.9,66.2 314.9,66.2 314.8,66.5 314.7,66.8 314.6,67.2 314.7,67.2
		314.8,67.2 314.9,67 314.9,66.9 314.9,66.8 314.9,66.6 315,66.5 	"/>
	<polygon class="st3" points="313.6,69.1 313.8,69 314.1,68.8 314.1,68.6 314.3,68.4 314.5,68.1 314.6,68 314.3,67.6 313.8,68 	"/>
	<path class="st3" d="M322.6,64l0.2,0.2c-0.1,0,0.1,0.2-0.4,0.2c-0.6-0.6,0.1-1.3,1.1-2.5c-1.4,1.7-4.9,2.5-6.3,3.4
		c0-0.3-0.8-0.2-0.7,0.6c-0.4-0.6-0.3,0.9-0.8,0.3c-2.8,3.1,1.8,0.2-0.2,1.8c1-0.4,2.6-1.3,3.8-2.2c1.8-0.4,4.4-2.6-0.1,0.9
		c1.5-0.9,9.7-6.1,4.1-3.9C323,63.2,323.1,63.6,322.6,64z"/>
	<path class="st3" d="M61.4,3.2c0,0,0.1,0.2,0.3,0.5c-0.2,0,0,0.2-0.2,0.6C61,4.4,60.7,2,61.4,3.2z"/>
	<path class="st3" d="M62.1,4.7c0-0.3-0.5-0.5,0.2-1C62.1,4,62.8,4.8,62.1,4.7z"/>
	<path class="st3" d="M62.7,3.3c-0.2,0.1,0.1-0.2-0.3-0.6c0,0.1-0.1,0,0,0.6c-0.2,0.2,0-0.4-0.6-0.2c-0.1-0.2,0.2-0.3,0.6-0.7
		C62.5,2.5,63.5,2.9,62.7,3.3z"/>
	<path class="st3" d="M62.3,6.4c0.1-0.1-0.2,0.2,0.4,0.3c-0.7,1.4,2.6,3.8-0.3-0.6c-0.1-0.2,0.2,0.2,0.4-0.3C62.9,6,62.9,6,63.5,6
		c0.2-0.1-0.3-0.4-0.2-0.7C63.3,5.1,61.9,5.3,62.3,6.4z"/>
</g>
<g id="const">
	<polyline class="st4" points="327.7,51.5 323.8,52.9 320,54.3 316.1,55.6 312.2,57 308.3,58.4 304.4,59.6 300.4,60.9 296.5,62.1
		292.5,63.3 288.5,64.5 284.5,65.6 280.5,66.8 276.5,67.9 272.5,68.9 268.4,70 264.4,70.9 260.3,71.9 256.2,72.8 252.1,73.7
		248,74.6 243.9,75.5 239.8,76.3 235.7,77.1 231.5,77.8 227.4,78.5 223.3,79.2 219.1,79.9 214.9,80.5 210.7,81.2 206.5,81.7
		202.3,82.2 198.1,82.8 193.9,83.2 189.7,83.6 185.5,84 181.3,84.4 177,84.8 172.8,85.1 168.5,85.4 164.2,85.6 160,85.9 155.7,86
		151.4,86.2 147.2,86.3 142.9,86.4 138.6,86.4 134.3,86.4 130.1,86.4 125.7,86.4 121.4,86.4 117.1,86.2 112.9,86.1 108.5,86
		104.2,85.7 99.9,85.5 95.6,85.2 91.3,84.9 86.9,84.6 82.6,84.2 78.3,83.8 74,83.3 69.7,82.8 65.3,82.4 61,81.8 56.7,81.2
		52.4,80.7 48.1,80 43.7,79.3 	"/>
	<polyline class="st4" points="285.8,56.4 281.9,57.6 278,58.8 274.1,60 270.1,61.2 266.2,62.4 262.2,63.5 258.3,64.6 254.3,65.6
		250.3,66.7 246.3,67.6 242.3,68.7 238.2,69.6 234.2,70.5 230.1,71.4 226.1,72.3 222,73.1 217.9,73.9 213.8,74.7 209.7,75.4
		205.6,76.1 201.4,76.8 197.3,77.4 193.2,78 189,78.6 184.8,79.2 180.6,79.7 176.5,80.2 172.3,80.6 168.1,81.1 163.8,81.5
		159.7,81.8 155.4,82.2 151.2,82.4 146.9,82.8 142.7,83 138.5,83.2 134.1,83.3 129.9,83.5 125.7,83.6 121.3,83.6 117.1,83.7
		112.8,83.7 108.5,83.6 104.2,83.6 99.9,83.6 95.6,83.4 91.3,83.2 87,83.1 82.7,82.8 78.4,82.6 74.1,82.3 69.7,82 65.4,81.6
		61.1,81.2 56.8,80.8 52.5,80.4 48.1,79.9 43.7,79.3 	"/>
	<polyline class="st4" points="263.3,63.1 259.3,64.2 255.3,65.3 251.3,66.4 247.2,67.4 243.2,68.4 239.1,69.3 235.1,70.3 231,71.2
		226.9,72 222.8,72.8 218.7,73.6 214.6,74.4 210.5,75.2 206.3,75.9 202.1,76.6 198,77.2 193.8,77.9 189.7,78.4 185.5,79 181.3,79.6
		177.1,80 172.9,80.5 168.6,81 164.5,81.4 160.2,81.7 156,82 151.7,82.4 147.4,82.7 143.2,82.9 138.9,83.1 134.6,83.3 130.3,83.4
		126.1,83.6 121.7,83.6 117.4,83.6 113.2,83.6 108.9,83.6 104.5,83.6 100.2,83.5 95.9,83.4 91.6,83.2 87.2,83.1 82.9,82.8
		78.5,82.6 74.2,82.3 69.8,82 65.5,81.6 61.2,81.2 56.8,80.8 52.5,80.4 48.1,79.9 43.7,79.3 	"/>
	<polyline class="st4" points="51.8,34.3 53.7,30.4 55.5,26.5 57.3,22.7 59.2,18.8 60.9,14.9 62.8,11.1 	"/>
	<polyline class="st4" points="237.1,61 233.2,62.1 229.2,63.2 225.2,64.2 221.2,65.2 217.2,66.2 213.2,67.2 209.1,68.1 205,69
		201,69.8 196.9,70.7 192.9,71.5 188.7,72.2 184.6,73 180.5,73.6 176.4,74.4 172.2,75 168.1,75.6 163.9,76.2 159.7,76.8 155.5,77.2
		151.3,77.7 147.1,78.2 142.9,78.6 138.6,79 134.4,79.4 130.1,79.7 125.9,80 121.7,80.3 117.3,80.5 113.1,80.7 108.8,80.8 104.5,81
		100.2,81.1 95.9,81.2 91.6,81.2 87.3,81.2 82.9,81.2 78.6,81.1 74.3,81 69.9,80.8 65.6,80.7 61.2,80.5 56.9,80.3 52.5,80
		48.1,79.6 43.7,79.3 	"/>
	<polyline class="st4" points="208.5,48.4 204.8,49.7 200.9,51 197.1,52.3 193.3,53.6 189.4,54.8 185.5,56 181.6,57.2 177.7,58.4
		173.7,59.5 169.7,60.6 165.7,61.6 161.7,62.7 157.7,63.7 153.7,64.7 149.7,65.6 145.6,66.6 141.5,67.5 137.4,68.4 133.3,69.2
		129.2,70 125,70.8 120.9,71.5 116.7,72.2 112.5,72.9 108.3,73.6 104.1,74.1 99.9,74.8 95.7,75.3 91.4,75.8 87.1,76.3 82.9,76.8
		78.5,77.2 74.2,77.6 69.9,77.9 65.6,78.2 61.3,78.5 56.9,78.8 52.5,79 48.1,79.2 43.7,79.3 	"/>
	<polyline class="st4" points="319.7,61.4 315.3,61.3 310.9,61.2 306.5,61.1 302.1,60.9 297.7,60.7 293.3,60.4 289,60.1 284.7,59.8
		280.4,59.5 276.1,59.1 271.7,58.7 267.4,58.2 263.1,57.7 258.9,57.2 254.6,56.6 250.4,56 246.1,55.4 241.9,54.8 237.7,54
		233.5,53.3 229.3,52.6 225.1,51.8 220.9,51 216.9,50.1 212.7,49.2 208.5,48.4 	"/>
	<polyline class="st4" points="282.7,75.2 286.6,73.3 290.5,71.5 294.3,69.6 298.1,67.7 301.9,65.7 305.7,63.8 309.4,61.8
		313.1,59.8 316.8,57.7 320.5,55.6 324.1,53.6 327.7,51.5 	"/>
	<line class="st4" x1="327.3" y1="56.4" x2="327.7" y2="51.5"/>
	<polyline class="st4" points="226.4,93.8 222.2,94.1 218.1,94.4 213.9,94.7 209.7,94.9 205.6,95.2 201.4,95.3 197.3,95.4
		193.1,95.6 188.9,95.6 184.8,95.6 180.6,95.7 176.5,95.7 172.2,95.6 168.1,95.6 163.9,95.5 159.7,95.3 155.6,95.2 151.4,95
		147.3,94.8 143.1,94.5 138.9,94.2 134.7,94 130.5,93.6 126.4,93.2 122.2,92.8 118.1,92.4 113.9,91.9 109.7,91.4 105.6,90.8
		101.4,90.4 97.3,89.7 93.2,89.1 89,88.4 84.9,87.8 80.8,87.1 76.6,86.4 72.5,85.6 68.4,84.8 64.2,84 60.1,83.1 56.1,82.2 52,81.2
		47.8,80.4 43.7,79.3 	"/>
	<polyline class="st4" points="64.6,122.4 62.5,118.5 60.5,114.6 58.5,110.7 56.5,106.8 54.6,102.9 52.8,99 50.9,95.1 49,91.2
		47.3,87.2 45.5,83.3 43.7,79.3 	"/>
	<polyline class="st4" points="43.7,79.3 48.1,79.9 52.5,80.4 56.8,80.8 61.2,81.2 65.5,81.6 69.8,82 74.2,82.3 78.5,82.6
		82.9,82.8 87.2,83.1 91.6,83.2 95.9,83.4 100.2,83.5 104.5,83.6 108.9,83.6 113.2,83.6 117.4,83.6 121.7,83.6 126.1,83.6
		130.3,83.4 134.6,83.3 138.9,83.1 143.2,82.9 147.4,82.7 151.7,82.4 156,82 160.2,81.7 164.5,81.4 168.6,81 172.9,80.5 177.1,80
		181.3,79.6 185.5,79 189.7,78.4 193.8,77.9 198,77.2 202.1,76.6 206.3,75.9 210.5,75.2 214.6,74.4 218.7,73.6 222.8,72.8 226.9,72
		231,71.2 235.1,70.3 239.1,69.3 243.2,68.4 247.2,67.4 251.3,66.4 255.3,65.3 259.3,64.2 263.3,63.1 	"/>
	<polyline class="st4" points="43.7,79.3 48.1,80 52.4,80.7 56.7,81.2 61,81.8 65.3,82.4 69.7,82.8 74,83.3 78.3,83.8 82.6,84.2
		86.9,84.6 91.3,84.9 95.6,85.2 99.9,85.5 104.2,85.7 108.5,86 112.9,86.1 117.1,86.2 121.4,86.4 125.7,86.4 130.1,86.4 134.3,86.4
		138.6,86.4 142.9,86.4 147.2,86.3 151.4,86.2 155.7,86 160,85.9 164.2,85.6 168.5,85.4 172.8,85.1 177,84.8 181.3,84.4 185.5,84
		189.7,83.6 193.9,83.2 198.1,82.8 202.3,82.2 206.5,81.7 210.7,81.2 214.9,80.5 219.1,79.9 223.3,79.2 227.4,78.5 231.5,77.8
		235.7,77.1 239.8,76.3 243.9,75.5 248,74.6 252.1,73.7 256.2,72.8 260.3,71.9 264.4,70.9 268.4,70 272.5,68.9 276.5,67.9
		280.5,66.8 284.5,65.6 288.5,64.5 292.5,63.3 296.5,62.1 300.4,60.9 304.4,59.6 308.3,58.4 312.2,57 316.1,55.6 320,54.3
		323.8,52.9 327.7,51.5 	"/>
	<polyline class="st4" points="43.7,79.3 48.1,79.2 52.5,79 56.9,78.8 61.3,78.5 65.6,78.2 69.9,77.9 74.2,77.6 78.5,77.2
		82.9,76.8 87.1,76.3 91.4,75.8 95.7,75.3 99.9,74.8 104.1,74.1 108.3,73.6 112.5,72.9 116.7,72.2 120.9,71.5 125,70.8 129.2,70
		133.3,69.2 137.4,68.4 141.5,67.5 145.6,66.6 149.7,65.6 153.7,64.7 157.7,63.7 161.7,62.7 165.7,61.6 169.7,60.6 173.7,59.5
		177.7,58.4 181.6,57.2 185.5,56 189.4,54.8 193.3,53.6 197.1,52.3 200.9,51 204.8,49.7 208.5,48.4 	"/>
	<polyline class="st4" points="62.8,11.1 61.7,15 60.5,19 59.5,22.9 58.4,26.9 57.3,30.9 56.1,34.9 55,38.9 53.9,43 52.8,47
		51.7,51 50.5,55.1 49.4,59.1 48.3,63.2 47.2,67.2 46.1,71.2 44.9,75.3 43.7,79.3 	"/>
	<text transform="matrix(0.9868 0 0 1 259.2119 59.7985)" class="st0 st5 st6">●</text>
	<ellipse class="st0" cx="263.1" cy="62.9" rx="2.9" ry="2.9"/>
	<ellipse class="st0" cx="259.7" cy="58.7" rx="2.9" ry="2.9"/>
	<ellipse class="st0" cx="237" cy="61.4" rx="2.9" ry="2.9"/>
	<ellipse class="st0" cx="209.2" cy="48" rx="2.9" ry="2.9"/>
	<ellipse class="st0" cx="259.9" cy="83.2" rx="2.9" ry="2.9"/>
	<ellipse class="st0" cx="226.9" cy="93.6" rx="2.9" ry="2.9"/>
	<ellipse class="st0" cx="64.6" cy="122.9" rx="2.9" ry="2.9"/>
	<ellipse class="st0" cx="43.3" cy="79.4" rx="2.9" ry="2.9"/>
	<ellipse class="st0" cx="62.5" cy="11.1" rx="2.9" ry="2.9"/>
	<ellipse class="st0" cx="51.8" cy="34.3" rx="2.9" ry="2.9"/>
	<ellipse class="st0" cx="283" cy="74.7" rx="2.9" ry="2.9"/>
	<ellipse class="st0" cx="286.1" cy="56.7" rx="2.9" ry="2.9"/>
	<ellipse class="st0" cx="327.2" cy="50.8" rx="2.9" ry="2.9"/>
	<ellipse class="st0" cx="319.5" cy="54.2" rx="2.9" ry="2.9"/>
	<ellipse class="st0" cx="326.9" cy="57.9" rx="2.9" ry="2.9"/>
	<ellipse class="st0" cx="319.7" cy="62" rx="2.9" ry="2.9"/>
</g>
</svg>
