<?xml version="1.0" encoding="utf-8"?>
<!-- Generator: Adobe Illustrator 23.1.1, SVG Export Plug-In . SVG Version: 6.00 Build 0)  -->
<svg version="1.1" id="Layer_1" xmlns="http://www.w3.org/2000/svg" xmlns:xlink="http://www.w3.org/1999/xlink" x="0px" y="0px"
	 viewBox="0 0 382.1 257" style="enable-background:new 0 0 382.1 257;" xml:space="preserve">
<style type="text/css">
	.st0{fill:#707589;}
	.st1{fill:none;stroke:#FFFFFF;stroke-width:0.8;stroke-linejoin:round;stroke-miterlimit:10;}
	.st2{fill:#FFFFFF;}
	.st3{font-family:'Roboto';}
	.st4{font-size:40px;}
</style>
<g id="map">
	<path class="st0" d="M70.4,171c0.6,1.1,0.5,1.8-0.9,2.2c-0.9,0.3-1.7,1-2.5,1.5c-0.5,0.3-1,0.5-1.7,0.8c0.2-2.2,0-4.2,2-5.4
		c-1.3,0.1-1.8,0.6-2.6,2.2c-0.6,1-1.4,2-2.1,3.2c0.2,0.2,0.6,0.4,1.1,0.9c-3.4,3.6-7,6.7-11.4,9.1c-0.5-0.6-1.2-0.4-2.2,0.2
		c-1.2,0.7-2.8,1-4.2,1.4c-0.1-0.2-0.2-0.4-0.3-0.6c0.6-0.4,1.4-0.7,2-1.1c0.6-0.3,1.4-0.6,2.1-1c0.5-0.2,0.8-0.8,1.3-0.8
		c2.3-0.2,3.8-1.8,5.3-3.3c0.8-0.9,1.1-2.1,1.9-3.6c-1.2,0.2-1.8,0.2-2.8,0.3c-1-1.1-1-1.6-3.7-0.5c0-1.3,0-2.5,0-3.8
		c-2.7,0.5-3.4-0.2-3.7-2.9c-0.2-1.1-1.2-2.2-0.2-3.4c0.6-0.7,1-1.7,1.8-2.2c0.4-0.3,1.3-0.2,1.9-0.1c0.9-0.4,2.1-0.6,2.6-1.2
		c0.5-0.6,0.2-1.8,0.2-2.5c-1.3,0-2.7,0-4.2,0c-1.1,0-1.8-0.5-2-1.8c-0.1-0.7-0.6-1.4-1.1-2.2c1.5-0.6,3-1.2,4.8-1.9
		c0.2,1.8,1,2.2,2.6,1.7c-1.3-1.8-2.6-3.6-3.7-5.4c-0.2-0.4-0.6-1-0.4-1.4c0.2-0.4,0.9-0.6,1.4-0.9c0.6-0.2,1.5-0.2,1.7-0.6
		c0.7-1.8,2.1-2.6,3.6-3.3c1-0.5,2.2-0.9,3.7-1.4c1,0.5,2.4,1.5,3.9,1.8c2.2,0.5,4.6,0.7,7,0.6c1.8-0.1,3.2,0.4,3.6,2.2
		c1.5,7.5,3,15,4.6,22.8c0.7-0.2,1.4-0.4,1.9-0.5c1.2,1,2.3,1.8,3.4,2.6c0.7-0.9,1.4-2.3,2-2.3c0.9,0,1.8,1,2.6,1.7
		c0.9,0.6,1.8,1.3,2.5,2.1c1.3,1.4,2.6,2.6,4.6,2.9c1.3,0.2,1.8,2.2,1,3.8c-0.6,0.2-2-1.6-2.1,0.6c0,0-1.4,0.3-1.8,0
		c-1.1-1-2-2.2-3-3.5c-0.2,0.5-0.2,0.7-0.3,1.2c-1-1-1.7-2.1-2.6-2.8c-1.7-1.3-3.4-2.5-5.2-3.6c-2-1.2-4.2-1.1-6.6-1
		c-1.2,0.1-2.5-0.8-3.8-1.3c-0.6-0.2-1.2-0.2-1.8-0.4C70.4,170.7,70.4,170.8,70.4,171z"/>
	<path class="st0" d="M64.5,177.3c0.2,0.2,0.4,0.2,0.5,0.4c0.6,1.1-1.1,4-2.3,4.1c-0.3,0-0.9-0.3-1-0.6c-0.2-0.3-0.2-1,0-1.3
		c0.7-0.8,1.6-1.5,2.4-2.2C64.1,177.5,64.3,177.4,64.5,177.3z"/>
	<path class="st0" d="M45.3,162.5c-1.5,0.5-3.4-0.6-3.9-2.2C42.8,161.1,43.9,161.7,45.3,162.5z"/>
	<path class="st0" d="M44.9,170.8c0.7,0.2,1.4,0.2,2.2,0.4c-0.1,0.3-0.2,0.7-0.3,1c-0.6-0.2-1.4-0.4-2-0.6
		C44.8,171.3,44.9,171.1,44.9,170.8z"/>
	<path class="st0" d="M131.8,187.7c-0.8-0.2-1.8-0.6-1.4-2.3c0.1-0.4-0.1-0.9-0.3-1.3c-0.6-1.2-1-2.2,0.2-3.4
		c0.5-0.5,0.2-1.6,0.4-2.6c3.1,0.9,5.8,2.3,7.3,5.8C136.3,185,134.3,186.2,131.8,187.7z"/>
	<path class="st0" d="M127.3,175.9c-0.2-0.2-0.5-0.3-0.7-0.6c-0.4-0.4-0.8-0.9-1.2-1.4c-0.2-0.2-0.2-0.6-0.3-1
		c0.3-0.1,0.7-0.2,1-0.2c0.9,0.2,1.8,0.4,2.6,0.7c0.4,0.2,0.6,0.7,1,1c-0.4,0.3-0.8,0.6-1.2,0.9
		C128.2,175.7,127.9,175.7,127.3,175.9z"/>
	<path class="st0" d="M107.4,164.8c-0.8,0.6-1.4,1.3-1.8,1.2c-0.6-0.1-1.3-0.7-1.9-1.2c0.8-0.5,1.5-1,2.4-1.4
		C106.2,163.5,106.8,164.2,107.4,164.8z"/>
	<path class="st0" d="M116.5,167.4c0.1,1,0.3,1.8,0.2,2.6c0,0.2-1,0.6-1.2,0.5c-0.6-0.5-1-1.1-1.6-1.8
		C114.8,168.2,115.5,167.9,116.5,167.4z"/>
	<path class="st0" d="M158.4,159.3c0.4-0.3-0.2,1,0.6,0.7c-0.1,0.1-0.1,1.1,0.2,0.2c0.8,1.5,3.1,2.8,4,5.6c0.2,4.4,6.2,7.7,6.2,11.8
		c1.3,4.8,4.8,9.5,11,9.4c0.8,0.1,1.4,1,2.9,1h-0.1c0.8,0.6,1.8-1.5,1.3-0.5c-0.2-0.1-0.1-0.3-0.5,0.1c-0.3-1.9-2.1-4.2-1.4-9.1
		c-1,1-3.1-3.2-0.7-0.4l-0.1-0.2c0.5-0.2,1.4-1,0.4,0.2c0.7,0.6,1.6-1.5,1.8-2.9c-0.6,0.7-0.4-0.2-0.7-1c-0.1,0.1-0.6,0.3-1-0.3
		c0.9-0.5,4.2,1.9,2-1.4c0.1,0.1,0.8-0.3,0.3-0.6c1,0.9,2.2-1.8,1.8,0.3c1.4,0,0.2-2.4,1-1.8c-1.8-0.9,4.5,0.8,1.4-0.6
		c0.1-0.2-0.2-0.1,0.5-0.4c-0.3-0.6-1,0.2-1-1.3c0.1,0.2,0.5-0.4,0.6,0.4l0.2-0.1c0-0.2,0.2,1,0.4,0.2c-0.1-0.1,0.3,0.3-0.2,0.6
		c0.2,0.2-0.1,0.1,0.6-0.2c0.2,0.2-0.6-0.6-0.1-0.8c-0.1,0.2,0.5,1.3,0.8,0c0,0.1,0,0,0.1,0.3c0.1,0,0.1-0.1,0.4-0.5
		c0,0.2,0-0.1-0.2,0.9c-0.1-0.1,0.9,0.2-0.1,0.2c2.8-0.4,4.2-1.8-0.8,1.4c1-0.6,5.4-2.2,7.8-4.9c-1.6-0.4,2.4,0,1-4.7l-0.1,0.1
		c4.6-1.1-0.7,0.6,3.1,1.4c-4.2,2.5,2.6-1.4,6.1-1.8c1.8-1.2,9,3.7,9.1,0.4c1.2-4.4,5.8,5.8,10,3c-0.2-2.6,3.6,4.3,3.3-2.1
		c1.2-0.2,1,1.6,2.4,1.1c1.9,1.4,3,3.2,3.8,1c0.5-0.9-3.4-0.7-3.7-3.1c1.2-1,2.6-1.8,2.6-3.5c0.3-1.4-5.8,3.2-3.4,0.5
		c0-0.2,0.6-1.4-0.2-0.6c-0.1-0.1-0.1,0-0.1-0.3c-1.4,2.1-8.1-0.2-2-1.1c1,0.6,3.1,1.9,4.5-0.1c2-1.9,8.1,1.7,8.2-3.9
		c2.3,2.2-1.4,6.2,3.6,2.7c-1,1.2,2.4-0.2,1.5-1.6c0.7,0.8,2.9-0.2,0.2,1.5c1.3-0.9,10.1-1.7,4.2-0.8c0.5-0.2,5.6,2.3,4.7,0.9
		c-0.8,0.6-0.6-0.8,0.6-0.1c-0.1,0.2,0.1,0.2-0.2,0.5c-0.6,0.6,1.6-0.3,2.7,3.3c-0.4,0.2-0.4,0-0.5-1.3c-1.2,2.3,2.2,1,3.4,0.4
		c-1,0.8,4.6-1.7,2.7-1.6c0.2-0.2,0.4-0.5,0.9-1c0.8-1.6,11.4,6.3,11.6,9c0.2,1.6-1.9,7.1,0.9,6.9c-1.8-4.6,1,0,0.9-1.3
		c2-1.1-1.8,3.4-0.3,3.5c0.9,0.8,1.4,4.2,3.4,4.1c-1.4-1.3,0.9-1.4,0.3-0.9c0.5,2.5,0.6,2.5,3.7,7c0.1-0.9,9,5.9,3.9,4
		c0.1,2.3,3.6-0.1,5-0.1c0.6-1.4,0.2-3.1,1.2-4.8c1.3-9.4-10.4-23.5-13.8-33.8c0.1,0.3,1-4.8,0.2-2.4c-1.3-1.5,0.8,0.1-0.2-2.2
		c0.6,0,0.5-0.7,1.1-0.7c0.6-0.7-1.1-1.4,0.4-1.3c0.2-0.5,0.1-0.8-0.4-1.2c1.1-1.5,3.1-3,1.6-5.5c1.8,1.7,1.3,0.3,2.2-0.7v0.1
		c0.2-0.3,1.4,0.2,1.3-1c-0.3,0.6,6.1-4,5-6.5c0.6,1.8,0.9-3.3,3.9-4.2c0.6-1.1,3.4,0.3,3.1-2.2c0.2,2.6,2.5-6.7,3-4.6
		c-0.8,1.1,1.9,0.2,0.9-1.1c0.2,0.9,2.7,0,2.4-0.3c0.2-0.4,0.2-0.4,0.8,0.1c0.2-0.2,0.6-0.1,1.6-1.6c0.2-0.2-1.2-1.2-1.1-0.4
		c-1.2-0.3,0.5,0.7-1,0.3c0.1,0,0.5,0.5,0,0.4c-0.3-1-0.2,1.1-2.7-0.9c-0.3-1.7,2.6,3,2.9-1.7c1.4-0.3-1.1-0.8-1.7-0.6
		c-2.8-1.5,1,0.4,1.1-1c-1-0.3,0.2-0.5,0.8-0.6c-1.1,1.5,0.2,0.7,1.3,1.3c1-0.2,1.4-0.6,2-2.3c0.9,0.9,0.4-0.6,0.8-0.8
		c-0.4-0.6,0.2-1.2-1.2-1.8c0.2,0.2-0.3,0.1-0.1,0.5c-1.2-0.5,0.5,2.9-1.3,1.8c0.7,0.2,0.5-1.2,0.2-1.8c-0.6-1.5-4.2,3.8-4.5-2.2
		c0.4-0.1,1,3.9,1.9,1.6c0.9-0.2,0.5-1.1,1.6-0.6c0.6-0.5,0.6-0.4-0.3-1.1c0.6-0.3,1.9,1.3,1.1-0.3c0.6-0.1,0.5,0.9,1.3,1.3
		c0.1-1-3.6-4.1-1.4-2.8c0.1,0-0.8-2.1,0.2-0.5c-1-0.5,5.1,8.2,2.2,3.6c-1.5-1.1-2.2-8.5-5.9-5.2c-0.1-1.5-4.1-1.7-2.8-2.7
		c1,0.4,2.2,2,3.7,1.5c0-0.1,0.2-0.8-0.4-0.5v-0.1l0,0c0.5-0.6-3.4-1.2-3-2.6c2.5,3,1.5-0.2,3.1,0.9c-0.2-2.1-1.7-0.9-4.7-4.4
		c3.1,3.4,6.6,1.4,1.5-0.9c-0.9-0.2-2.1-0.2-2.7-1.6c-0.4-1.2,1.1,0.7,3.6,1.1c1.9,0.8,0.3-0.7-1.5-2.2c3.4,1.6,0.2,0.6,0.2-3.8
		c0.8,0,0.2-0.9-1-1.8c1-0.1,0.7,0.1,1.4-0.7c-0.5-0.8,0.7,0,0.6-0.8c1-0.1-0.2-1.2,1.1-1.5c0.1,0-0.1,0.3,0,0.8
		c0.5-1,1,0.5-0.7,1.3c-0.6,1.9,1.4,2.2-0.2,4.4c0.6-0.4,0.6,0.6,1.3-0.2c0.7,2.1-0.4-0.1-0.6,1.5c1.6-0.4-1.9,0.3,1.6,2
		c0-1.8,0.3,0.9,0.7-0.9c0.4,0.3,0.3,3.1,1.4,2.6c1-0.7-0.2,1.4-0.3,2.6c-0.6,0.5-0.4,6.2,0.6,1.7c0.4-5,4.3-4.6,1.6-9.5
		c0,0,1-0.2,0.2-0.5c0,0,0.2,0,0.2-0.3c2.3,1.5-5.1-4.7-3.6-6.6c-0.2,3.3,4.6,1.8,4.4,4.7c1.4-2.8,3.1-5.1,3-8.9
		c0.2,0.2,0.2,0.7,0.4,1.8c-0.1-1,0.5-3.5-0.6-5c0,0.2-0.1,0.1,0.1,0.5c-0.2-0.2-1,0.2-1.6-0.2c1.4-0.5,0.3-1.9,1.4-3.4l0.2,0.6
		c-0.1-0.1-0.1,0-0.2-0.2l0.6,0.2c-0.4-0.6,0.6-0.6,0.5-1.7c1,0.2,3.2-2.9,3.8-2.5c0.6-0.6,2.6-0.2,2.7-1.2c0.9,0.5,1-0.2,2.7-0.7
		v0.2c0.4-0.2,0.9-0.3,1.8-1.3c0.1,0.9,0.5-3.8,0.7-0.5c0.6,1,0.5-1.2,0.8-0.2c0.1,0,0.2-0.3,0.5-0.7c-0.1,0.1,0.6,0.6,0.5,0
		c0.4,0.3,1.6-4.2,1.8-0.6c1.8-0.4,6.1-4,1.4-4c3.8,0.1-0.9,4.7-2,0.6c-0.3-0.6-0.8-1.2-2-1.6c0.3,1.1-1.5,0-0.7-0.5
		c2.2-4.5,0.3,1,0.2-5.4c1.4-0.5,0.6-5.8,2.6-6.2c0.9-1.1-0.2,2,1.7-1.3c1.2,0.9,0.1-0.7,1.8-1c0,2.8,1.3-7.3,1.4-3.5
		c0.2,0.2,0.3-0.7,0.6,0.1c0.1,0.1-0.8-0.2-0.4,0.3c-0.7,0.1,0.7,0.5,0.9,0.3c0.5,0.2,0.6-0.1,0.1-0.9c0.2-0.2,0.4-0.2,0.5-0.9
		c0.1,0.4,0.7,0.9,0.7-0.3c0.5,0.3,1-0.6,1.5,0.9c0.2-0.2,0.2-0.5,0.2-1.2c0.3,0.6,0.7,0.2,0.6-0.7c0.3-0.2,1.6,0.6,1.3-0.9
		c0,0.1,0.1-0.1,0.4,0.1c-0.1,0.2,0.2-0.9,0.2-0.1c0.4,0.2,0-1.6,0.6-0.5c0.5,0,1-0.8,1.1-1.8c-2,0.5,0.6-1.6-2-2.2
		c-1.3,1.6-0.6-2.5-3.1-2.7c-2.5-1.1-0.3-9-5.4-10.7c-5.9,5.5-4.6-7.2-7.8,8.8c-1.3,4.2,0.6,8.1-4.8,9.9c1.1,6.1-20.6-0.7-22.4,13.9
		l-0.2,0.3c0,1.6,1.8,2.5-3,5.9c-0.2-0.2-2.2-0.3-3,0.7c-1-1-9.9-0.9-7.3,3.3c2.1,0.6-1.4,4.2-5.2,6.9c-0.1,0,0.2-0.1,0.1-0.3
		c-7.4,4.5-7.8,8.3-18,6.1c0.2,0.2,3.1-10.3,3.9-7c1-2.4-0.6-17.4-6.7-6.6c-3.8-2.3,1.9-1.5,1.2-10.7c-8.3-7-9-5.1-11.9,3.1
		c-0.5-0.6,0.1-2,0.1-3.1c-2.2,2.2-4,5.3-4,9.5c-1,4.4,4.7,6.5,0.4,14.6C237,80,235.2,56.4,240,47.6c0.9-0.4,0.5-3.2-0.2-0.7
		c-0.6-0.1-1,1.3-1.1,2.5c-1.1-1-1.4,1.4-3.2,2.6c-0.8,0.8,5.4-13,4.8-8.9c4-3.8-0.6,2.2,3.1-0.9c1.3-3.2,8.2-1.8,12.5-2.6
		c-2.9-5.4-7.1-0.5-5.9-5c-5.3,0.3-10.3,5.8-14.2,0.8c-1.8-0.6-2.1-1.5-3.8,0.8c-0.2-0.3,0.2-1,0-1.8c1-0.4,1.2-2.6,3.2-3.1
		c-3.5-1.4-9.9,8.1-15.8,6.6c2.8-5.5-3,0.9-6.1-0.8c1.4-1.8,7.7-7.5,13-9.6c-6.2-1-11.4,0.2-16.2-2.6c1-2.7-6.2,1.2-9.9-2.6
		c-0.3-1.1,0.1-4.1-2.3-3.8c-38.1,8.2-91.6-6.2-134.7-16v0.2c-1,0.2,0.7,1.7,0.6,2C64,4.9,64,6.7,63,6.3c0.2-0.9-1.1,0.3,0.1,0.2
		c0.8,0.8-0.2,2.3,1,3.1c-0.6,0.3-1.1,1.2-1.8,2.2c0.2,0.6-0.1,1.8-0.7,2.9c0,0-0.2-0.1-0.5-0.6c-0.1,0.2-1.2,2-1.8,0.6l-0.1,0.3
		c-0.1,0.1,0.2-0.2-0.3-0.2c-0.1,0.2,0,0.1-0.2,0.7c-0.4,0.2,0.3-0.6-0.5-0.5c0.1,0,0,0,0.5-0.4c-0.2-0.1-0.1-0.2-0.7,0.2
		c0,0-0.1-0.2,0.5-0.5L58,14.3c0,0.2,0-0.4,0.4-0.2l0.2-0.4c0.2,0.1,1-0.2,1.4-0.9c0.2,1-1,2,1,0.2c0,0.2-0.8,0.6,0.1,1
		c-0.2-1,1.8-1.3,0.1-2.2c0-0.1-0.2-0.1,0-0.4c0.6,0.6,0.2,0.1,0.5-0.7c0-0.2,0.1,0.7,0.5,0c0.2,0.6,0.8-0.6,0-1.4
		C62,9.3,62.2,9.4,62,10.1c0.6-0.5-5.9,2.8-2.1,2.3c-3,0.9-0.7-1,0.6-2.7l0.2,0.3c0-0.1,0.1,0.1,0.2-0.4c0,0.2,0.2,0.2-0.1,0.6
		c0.6-0.3,1.4-0.8,1-2.2v0.5l-0.1-0.2l-0.2,0.2c0.1-1,0.3-0.9-0.6,0.1c0,0,0.3-0.4-0.2-0.8c-0.1,0,0.1,0.1-0.2,0.3
		C60,6.6,57,6.7,53,3.2c-1,3,0.7,6.2-0.1,10.5c0.5-0.5,0.3-0.5,1.6,0.4c0.2,0.2-1.3-0.2-1.4,0.6c-0.2,0,0-0.2-0.3-0.6
		c-0.3,1-0.1,1.3,1,1.8c-0.1-0.2-0.3,0.3-0.8,0.4C52.9,16,53.5,18,52.3,18c-0.2,0.2,0.5-0.8,0.2-1.9c-0.2,0.2-0.4,1.2-0.6,2.3
		c0.4,0.4,2.8,0.3,3,1.7c-0.5-0.6-1.1,0-2.2-0.6c0,0,0.1,0.1,0.2,0.4c-0.3,0.2-0.2-0.6-1-0.7c0.5,1.5-1.2,2.9-0.9,5.3
		c-2.6,7-10.7,17.4-9,26.9l-0.2-0.1c0.2,0.8-0.3,1.1-0.9,2.5l-0.2-0.2c0.3,3.1-5,1.7-1.3,10.7c-2.4,3.7,1.2,9.6,1.4,12.1
		c0.3,0.3-1.3,2.2,0.1,1.1c0,0.4,0.5,0.7,1,1.4c1.4,1.2,1,0.9,1.5-1.1c-0.1,0-0.1,0-0.2-0.2c0.8,0,1.1,0.1,1.8,1.2
		c-0.2-0.1,0-0.1-0.6-0.2h0.1C43,78.4,44.1,81.2,45,83c-0.4,0.2-2.6-1.8-1.6-2.4c-0.1-0.2,0.2-0.5-0.3-0.7c-1.9,2.3-0.9,5.1,1.7,7.8
		c-4.1,3.1,2.6,9,2.2,12.4c3.7,3-4.6,5.1,5.3,7.9c5.1,4,12.2,9,12.2,16.4c-0.5-0.2-0.2-0.9-0.3,0.6c4.3,0.5,9.1,1,14.6,1.6
		c-3.6,0.6,17.7,15.4,31.8,15.7c5.8,2,10.5-5.2,18.2-0.1c1.4,3.5,5.7,5.8,8.2,9.6c0.9,1.8,0,7,5.9,9.9c2.3,0.6,2.3,3.6,5.8,0.5
		c-0.2-0.6,0.6-1.6,1-2.8l0.2,0.1c1.3-2.5,4.7-1,7.7-0.6C157.9,159,158,159.5,158.4,159.3z"/>
	<path class="st0" d="M332.6,58.8c-0.3,0.1-0.3,0-1-0.1c-0.2-0.8-0.2,0.9-1,0.9C330.4,60.1,332.4,59.6,332.6,58.8z"/>
	<path class="st0" d="M334.9,59.2c-1.4-0.2-0.2,0.9,0.6-0.2c-0.2-0.4-1-0.8-0.4-0.2C335,58.8,335.2,59,334.9,59.2z"/>
	<polygon class="st0" points="314.8,67.4 314.8,67.2 314.8,67.2 314.8,67.2 314.7,67.2 314.6,67.5 314.5,67.7 314.4,68.1
		314.5,68.2 314.6,68.1 314.8,68 314.8,68 314.8,67.8 314.8,67.6 314.8,67.5 	"/>
	<polygon class="st0" points="313.5,70 313.7,70 313.9,69.8 314,69.6 314.2,69.4 314.4,69.1 314.4,68.9 314.2,68.6 313.6,69 	"/>
	<path class="st0" d="M322.4,65l0.2,0.2c-0.1,0,0.1,0.2-0.4,0.2c-0.6-0.6,0.1-1.3,1.1-2.5c-1.4,1.7-4.9,2.5-6.3,3.4
		c0-0.3-0.8-0.2-0.7,0.6c-0.4-0.6-0.3,0.9-0.8,0.3c-2.8,3.1,1.8,0.2-0.2,1.8c1-0.4,2.6-1.3,3.8-2.2c1.8-0.4,4.4-2.6-0.1,0.9
		c1.5-0.9,9.7-6.1,4.1-3.9C322.9,64.1,323,64.6,322.4,65z"/>
	<path class="st0" d="M61.2,4.2c0,0,0.1,0.2,0.3,0.5c-0.2,0,0,0.2-0.2,0.6C60.9,5.3,60.6,3,61.2,4.2z"/>
	<path class="st0" d="M61.9,5.6c0-0.3-0.5-0.5,0.2-1C61.9,4.9,62.6,5.8,61.9,5.6z"/>
	<path class="st0" d="M62.5,4.3c-0.2,0.1,0.1-0.2-0.3-0.6c0,0.1-0.1,0,0,0.6c-0.2,0.2,0-0.4-0.6-0.2c-0.1-0.2,0.2-0.3,0.6-0.7
		C62.3,3.6,63.3,4,62.5,4.3z"/>
	<path class="st0" d="M62.2,7.4c0.1-0.1-0.2,0.2,0.4,0.3c-0.7,1.4,2.6,3.8-0.3-0.6c-0.1-0.2,0.2,0.2,0.4-0.3
		c0.2,0.1,0.2,0.1,0.7,0.1c0.2-0.1-0.3-0.4-0.2-0.7C63.1,6.1,61.8,6.4,62.2,7.4z"/>
</g>
<g>
	<g>
		<polyline class="st1" points="312.4,54 308.9,56 305.4,58 301.9,60 298.3,62 294.8,63.9 291.2,65.8 287.5,67.6 283.9,69.5
			280.2,71.3 276.5,73.2 272.8,74.9 269.1,76.7 265.3,78.4 261.6,80.1 257.8,81.8 254,83.5 250.1,85.1 246.3,86.7 242.4,88.3
			238.5,89.8 234.6,91.3 230.7,92.8 226.8,94.3 222.8,95.7 218.8,97.2 214.8,98.5 210.8,99.9 206.7,101.2 202.6,102.5 198.5,103.8
			194.4,105 190.4,106.3 186.2,107.5 182,108.6 177.9,109.7 173.7,110.8 169.5,111.9 165.3,112.9 161.1,114 156.8,114.9
			152.5,115.9 148.3,116.8 144,117.6 139.6,118.5 135.3,119.3 131,120.1 126.6,120.9 122.3,121.6 117.9,122.4 113.5,123
			109.1,123.6 104.7,124.2 100.2,124.8 95.8,125.3 		"/>
		<polyline class="st1" points="316.9,64.7 313.3,66.5 309.7,68.3 306.1,70 302.5,71.8 298.8,73.6 295.2,75.2 291.5,76.9
			287.8,78.6 284,80.2 280.3,81.8 276.5,83.4 272.8,84.9 269,86.4 265.2,88 261.3,89.4 257.5,90.8 253.6,92.3 249.7,93.6
			245.8,95.1 241.9,96.4 238,97.7 234,99 230,100.3 226,101.5 222,102.7 218,103.9 214,105 210,106.1 205.9,107.2 201.8,108.3
			197.7,109.3 193.6,110.4 189.6,111.3 185.4,112.3 181.2,113.2 177.1,114.1 172.9,114.9 168.8,115.8 164.5,116.6 160.4,117.4
			156.1,118.1 151.9,118.8 147.6,119.5 143.3,120.2 139.1,120.8 134.8,121.4 130.5,122 126.2,122.4 121.9,123 117.6,123.5
			113.2,123.9 108.8,124.3 104.5,124.7 100.1,125 95.8,125.3 		"/>
		<polyline class="st1" points="274.9,93 270.4,93.9 265.8,94.8 261.2,95.6 256.7,96.3 		"/>
		<polyline class="st1" points="256.7,96.3 252.8,97.6 248.9,98.8 245,100 241.1,101.2 237.1,102.4 233.2,103.6 229.2,104.7
			225.2,105.8 221.2,106.8 217.2,107.9 213.2,108.8 209.1,109.9 205.1,110.8 201,111.7 196.9,112.6 192.8,113.5 188.7,114.4
			184.6,115.2 180.4,115.9 176.4,116.7 172.2,117.4 168,118.1 163.8,118.8 159.6,119.4 155.5,120 151.2,120.6 147.1,121.1
			142.8,121.6 138.6,122.1 134.4,122.6 130.1,123 125.8,123.4 121.6,123.8 117.3,124.1 113,124.4 108.7,124.7 104.4,124.9
			100.1,125.2 95.8,125.3 		"/>
		<polyline class="st1" points="228.8,62.8 225.5,64.9 222,67.1 218.7,69.2 215.2,71.3 211.7,73.4 208.2,75.5 204.7,77.6
			201.2,79.6 197.6,81.6 194,83.6 190.3,85.6 186.7,87.6 183,89.5 179.2,91.3 175.5,93.2 171.7,95.1 168,96.9 164.2,98.7
			160.4,100.5 156.4,102.2 152.6,104 148.7,105.6 144.8,107.3 140.8,109 136.8,110.6 132.8,112.2 128.8,113.8 124.8,115.3
			120.7,116.8 116.6,118.3 112.4,119.8 108.3,121.2 104.1,122.6 100,124 95.8,125.3 		"/>
		<polyline class="st1" points="183.9,119.2 179.8,119.8 175.6,120.4 171.5,120.9 167.4,121.4 163.2,121.9 159.1,122.3 154.8,122.7
			150.7,123.1 146.5,123.4 142.3,123.7 138.1,124 133.9,124.3 129.7,124.5 125.5,124.8 121.2,124.9 117,125.1 112.8,125.2
			108.5,125.2 104.3,125.3 100,125.3 95.8,125.3 		"/>
		<polyline class="st1" points="95.8,125.3 100.1,125.2 104.4,124.9 108.7,124.7 113,124.4 117.3,124.1 121.6,123.8 125.8,123.4
			130.1,123 134.4,122.6 138.6,122.1 142.8,121.6 147.1,121.1 151.2,120.6 155.5,120 159.6,119.4 163.8,118.8 168,118.1
			172.2,117.4 176.4,116.7 180.4,115.9 184.6,115.2 188.7,114.4 192.8,113.5 196.9,112.6 201,111.7 205.1,110.8 209.1,109.9
			213.2,108.8 217.2,107.9 221.2,106.8 225.2,105.8 229.2,104.7 233.2,103.6 237.1,102.4 241.1,101.2 245,100 248.9,98.8
			252.8,97.6 256.7,96.3 		"/>
		<polyline class="st1" points="294.9,109 290.5,107.7 286.2,106.4 282,105.1 277.6,103.6 273.4,102.3 269.2,100.8 265,99.3
			260.8,97.8 256.7,96.3 		"/>
		<polyline class="st1" points="319.6,56.1 316.4,59.1 313.1,62 309.8,64.9 306.4,67.8 303.1,70.7 299.7,73.6 296.3,76.4
			292.8,79.2 289.3,82 285.8,84.8 282.2,87.6 278.6,90.3 274.9,93 		"/>
		<polyline class="st1" points="100.6,135.2 98.2,130.3 95.8,125.3 		"/>
		<polyline class="st1" points="193.1,114.4 188.5,116.8 183.9,119.2 		"/>
	</g>
	<ellipse class="st2" cx="96" cy="125.2" rx="2.9" ry="2.9"/>
	<ellipse class="st2" cx="101" cy="135.2" rx="2.9" ry="2.9"/>
	<ellipse class="st2" cx="183.6" cy="118.8" rx="2.9" ry="2.9"/>
	<ellipse class="st2" cx="193" cy="114.1" rx="2.9" ry="2.9"/>
	<ellipse class="st2" cx="295.4" cy="109.3" rx="2.9" ry="2.9"/>
	<ellipse class="st2" cx="316.8" cy="65.1" rx="2.9" ry="2.9"/>
	<ellipse class="st2" cx="319.8" cy="56.5" rx="2.9" ry="2.9"/>
	<ellipse class="st2" cx="312" cy="54.6" rx="2.9" ry="2.9"/>
	<ellipse class="st2" cx="275.3" cy="92.8" rx="2.9" ry="2.9"/>
	<ellipse class="st2" cx="256.8" cy="96.2" rx="2.9" ry="2.9"/>
	<ellipse class="st2" cx="228.4" cy="63" rx="2.9" ry="2.9"/>
</g>
<text transform="matrix(1 0 0 1 102.3978 242)" class="st2 st3 st4">Education</text>
</svg>
