<?xml version="1.0" encoding="utf-8"?>
<!-- Generator: Adobe Illustrator 23.1.1, SVG Export Plug-In . SVG Version: 6.00 Build 0)  -->
<svg version="1.1" id="Layer_1" xmlns="http://www.w3.org/2000/svg" xmlns:xlink="http://www.w3.org/1999/xlink" x="0px" y="0px"
	 viewBox="0 0 643 193.7" style="enable-background:new 0 0 643 193.7;" xml:space="preserve">
<style type="text/css">
	.st0{fill:#707589;}
	.st1{fill:none;stroke:#FFFFFF;stroke-width:0.8;stroke-linejoin:round;stroke-miterlimit:10;}
	.st2{fill:#FFFFFF;}
	.st3{font-family:'Roboto';}
	.st4{font-size:60px;}
</style>
<g id="map">
	<path class="st0" d="M34.9,173.5c0.6,1.1,0.5,1.8-0.9,2.2c-0.9,0.3-1.7,1-2.5,1.5c-0.5,0.3-1,0.5-1.7,0.8c0.2-2.2,0-4.2,2-5.4
		c-1.3,0.1-1.8,0.6-2.6,2.2c-0.6,1-1.4,2-2.1,3.2c0.2,0.2,0.6,0.4,1.1,0.9c-3.4,3.6-7,6.7-11.4,9.1c-0.5-0.6-1.2-0.4-2.2,0.2
		c-1.2,0.7-2.8,1-4.2,1.4c-0.1-0.2-0.2-0.4-0.3-0.6c0.6-0.4,1.4-0.7,2-1.1c0.6-0.3,1.4-0.6,2.1-1c0.5-0.2,0.8-0.8,1.3-0.8
		c2.3-0.2,3.8-1.8,5.3-3.3c0.8-0.9,1.1-2.1,1.9-3.6c-1.2,0.2-1.8,0.2-2.8,0.3c-1-1.1-1-1.6-3.7-0.5c0-1.3,0-2.5,0-3.8
		c-2.7,0.5-3.4-0.2-3.7-2.9c-0.2-1.1-1.2-2.2-0.2-3.4c0.6-0.7,1-1.7,1.8-2.2c0.4-0.3,1.3-0.2,1.9-0.1c0.9-0.4,2.1-0.6,2.6-1.2
		c0.5-0.6,0.2-1.8,0.2-2.5c-1.3,0-2.7,0-4.2,0c-1.1,0-1.8-0.5-2-1.8c-0.1-0.7-0.6-1.4-1.1-2.2c1.5-0.6,3-1.2,4.8-1.9
		c0.2,1.8,1,2.2,2.6,1.7c-1.3-1.8-2.6-3.6-3.7-5.4c-0.2-0.4-0.6-1-0.4-1.4c0.2-0.4,0.9-0.6,1.4-0.9c0.6-0.2,1.5-0.2,1.7-0.6
		c0.7-1.8,2.1-2.6,3.6-3.3c1-0.5,2.2-0.9,3.7-1.4c1,0.5,2.4,1.5,3.9,1.8c2.2,0.5,4.6,0.7,7,0.6c1.8-0.1,3.2,0.4,3.6,2.2
		c1.5,7.5,3,15,4.6,22.8c0.7-0.2,1.4-0.4,1.9-0.5c1.2,1,2.3,1.8,3.4,2.6c0.7-0.9,1.4-2.3,2-2.3c0.9,0,1.8,1,2.6,1.7
		c0.9,0.6,1.8,1.3,2.5,2.1c1.3,1.4,2.6,2.6,4.6,2.9c1.3,0.2,1.8,2.2,1,3.8c-0.6,0.2-2-1.6-2.1,0.6c0,0-1.4,0.3-1.8,0
		c-1.1-1-2-2.2-3-3.5c-0.2,0.5-0.2,0.7-0.3,1.2c-1-1-1.7-2.1-2.6-2.8c-1.7-1.3-3.4-2.5-5.2-3.6c-2-1.2-4.2-1.1-6.6-1
		c-1.2,0.1-2.5-0.8-3.8-1.3c-0.6-0.2-1.2-0.2-1.8-0.4C34.9,173.2,34.9,173.3,34.9,173.5z"/>
	<path class="st0" d="M29,179.8c0.2,0.2,0.4,0.2,0.5,0.4c0.6,1.1-1.1,4-2.3,4.1c-0.3,0-0.9-0.3-1-0.6c-0.2-0.3-0.2-1,0-1.3
		c0.7-0.8,1.6-1.5,2.4-2.2C28.6,180,28.8,179.9,29,179.8z"/>
	<path class="st0" d="M9.8,165c-1.5,0.5-3.4-0.6-3.9-2.2C7.3,163.6,8.4,164.2,9.8,165z"/>
	<path class="st0" d="M9.4,173.3c0.7,0.2,1.4,0.2,2.2,0.4c-0.1,0.3-0.2,0.7-0.3,1c-0.6-0.2-1.4-0.4-2-0.6
		C9.3,173.8,9.4,173.6,9.4,173.3z"/>
	<path class="st0" d="M96.3,190.2c-0.8-0.2-1.8-0.6-1.4-2.3c0.1-0.4-0.1-0.9-0.3-1.3c-0.6-1.2-1-2.2,0.2-3.4
		c0.5-0.5,0.2-1.6,0.4-2.6c3.1,0.9,5.8,2.3,7.3,5.8C100.8,187.5,98.8,188.7,96.3,190.2z"/>
	<path class="st0" d="M91.8,178.4c-0.2-0.2-0.5-0.3-0.7-0.6c-0.4-0.4-0.8-0.9-1.2-1.4c-0.2-0.2-0.2-0.6-0.3-1c0.3-0.1,0.7-0.2,1-0.2
		c0.9,0.2,1.8,0.4,2.6,0.7c0.4,0.2,0.6,0.7,1,1c-0.4,0.3-0.8,0.6-1.2,0.9C92.7,178.2,92.4,178.2,91.8,178.4z"/>
	<path class="st0" d="M71.9,167.3c-0.8,0.6-1.4,1.3-1.8,1.2c-0.6-0.1-1.3-0.7-1.9-1.2c0.8-0.5,1.5-1,2.4-1.4
		C70.7,166,71.3,166.7,71.9,167.3z"/>
	<path class="st0" d="M81,169.9c0.1,1,0.3,1.8,0.2,2.6c0,0.2-1,0.6-1.2,0.5c-0.6-0.5-1-1.1-1.6-1.8C79.3,170.7,80,170.4,81,169.9z"
		/>
	<path class="st0" d="M122.9,161.8c0.4-0.3-0.2,1,0.6,0.7c-0.1,0.1-0.1,1.1,0.2,0.2c0.8,1.5,3.1,2.8,4,5.6c0.2,4.4,6.2,7.7,6.2,11.8
		c1.3,4.8,4.8,9.5,11,9.4c0.8,0.1,1.4,1,2.9,1h-0.1c0.8,0.6,1.8-1.5,1.3-0.5c-0.2-0.1-0.1-0.3-0.5,0.1c-0.3-1.9-2.1-4.2-1.4-9.1
		c-1,1-3.1-3.2-0.7-0.4l-0.1-0.2c0.5-0.2,1.4-1,0.4,0.2c0.7,0.6,1.6-1.5,1.8-2.9c-0.6,0.7-0.4-0.2-0.7-1c-0.1,0.1-0.6,0.3-1-0.3
		c0.9-0.5,4.2,1.9,2-1.4c0.1,0.1,0.8-0.3,0.3-0.6c1,0.9,2.2-1.8,1.8,0.3c1.4,0,0.2-2.4,1-1.8c-1.8-0.9,4.5,0.8,1.4-0.6
		c0.1-0.2-0.2-0.1,0.5-0.4c-0.3-0.6-1,0.2-1-1.3c0.1,0.2,0.5-0.4,0.6,0.4l0.2-0.1c0-0.2,0.2,1,0.4,0.2c-0.1-0.1,0.3,0.3-0.2,0.6
		c0.2,0.2-0.1,0.1,0.6-0.2c0.2,0.2-0.6-0.6-0.1-0.8c-0.1,0.2,0.5,1.3,0.8,0c0,0.1,0,0,0.1,0.3c0.1,0,0.1-0.1,0.4-0.5
		c0,0.2,0-0.1-0.2,0.9c-0.1-0.1,0.9,0.2-0.1,0.2c2.8-0.4,4.2-1.8-0.8,1.4c1-0.6,5.4-2.2,7.8-4.9c-1.6-0.4,2.4,0,1-4.7l-0.1,0.1
		c4.6-1.1-0.7,0.6,3.1,1.4c-4.2,2.5,2.6-1.4,6.1-1.8c1.8-1.2,9,3.7,9.1,0.4c1.2-4.4,5.8,5.8,10,3c-0.2-2.6,3.6,4.3,3.3-2.1
		c1.2-0.2,1,1.6,2.4,1.1c1.9,1.4,3,3.2,3.8,1c0.5-0.9-3.4-0.7-3.7-3.1c1.2-1,2.6-1.8,2.6-3.5c0.3-1.4-5.8,3.2-3.4,0.5
		c0-0.2,0.6-1.4-0.2-0.6c-0.1-0.1-0.1,0-0.1-0.3c-1.4,2.1-8.1-0.2-2-1.1c1,0.6,3.1,1.9,4.5-0.1c2-1.9,8.1,1.7,8.2-3.9
		c2.3,2.2-1.4,6.2,3.6,2.7c-1,1.2,2.4-0.2,1.5-1.6c0.7,0.8,2.9-0.2,0.2,1.5c1.3-0.9,10.1-1.7,4.2-0.8c0.5-0.2,5.6,2.3,4.7,0.9
		c-0.8,0.6-0.6-0.8,0.6-0.1c-0.1,0.2,0.1,0.2-0.2,0.5c-0.6,0.6,1.6-0.3,2.7,3.3c-0.4,0.2-0.4,0-0.5-1.3c-1.2,2.3,2.2,1,3.4,0.4
		c-1,0.8,4.6-1.7,2.7-1.6c0.2-0.2,0.4-0.5,0.9-1c0.8-1.6,11.4,6.3,11.6,9c0.2,1.6-1.9,7.1,0.9,6.9c-1.8-4.6,1,0,0.9-1.3
		c2-1.1-1.8,3.4-0.3,3.5c0.9,0.8,1.4,4.2,3.4,4.1c-1.4-1.3,0.9-1.4,0.3-0.9c0.5,2.5,0.6,2.5,3.7,7c0.1-0.9,9,5.9,3.9,4
		c0.1,2.3,3.6-0.1,5-0.1c0.6-1.4,0.2-3.1,1.2-4.8c1.3-9.4-10.4-23.5-13.8-33.8c0.1,0.3,1-4.8,0.2-2.4c-1.3-1.5,0.8,0.1-0.2-2.2
		c0.6,0,0.5-0.7,1.1-0.7c0.6-0.7-1.1-1.4,0.4-1.3c0.2-0.5,0.1-0.8-0.4-1.2c1.1-1.5,3.1-3,1.6-5.5c1.8,1.7,1.3,0.3,2.2-0.7v0.1
		c0.2-0.3,1.4,0.2,1.3-1c-0.3,0.6,6.1-4,5-6.5c0.6,1.8,0.9-3.3,3.9-4.2c0.6-1.1,3.4,0.3,3.1-2.2c0.2,2.6,2.5-6.7,3-4.6
		c-0.8,1.1,1.9,0.2,0.9-1.1c0.2,0.9,2.7,0,2.4-0.3c0.2-0.4,0.2-0.4,0.8,0.1c0.2-0.2,0.6-0.1,1.6-1.6c0.2-0.2-1.2-1.2-1.1-0.4
		c-1.2-0.3,0.5,0.7-1,0.3c0.1,0,0.5,0.5,0,0.4c-0.3-1-0.2,1.1-2.7-0.9c-0.3-1.7,2.6,3,2.9-1.7c1.4-0.3-1.1-0.8-1.7-0.6
		c-2.8-1.5,1,0.4,1.1-1c-1-0.3,0.2-0.5,0.8-0.6c-1.1,1.5,0.2,0.7,1.3,1.3c1-0.2,1.4-0.6,2-2.3c0.9,0.9,0.4-0.6,0.8-0.8
		c-0.4-0.6,0.2-1.2-1.2-1.8c0.2,0.2-0.3,0.1-0.1,0.5c-1.2-0.5,0.5,2.9-1.3,1.8c0.7,0.2,0.5-1.2,0.2-1.8c-0.6-1.5-4.2,3.8-4.5-2.2
		c0.4-0.1,1,3.9,1.9,1.6c0.9-0.2,0.5-1.1,1.6-0.6c0.6-0.5,0.6-0.4-0.3-1.1c0.6-0.3,1.9,1.3,1.1-0.3c0.6-0.1,0.5,0.9,1.3,1.3
		c0.1-1-3.6-4.1-1.4-2.8c0.1,0-0.8-2.1,0.2-0.5c-1-0.5,5.1,8.2,2.2,3.6c-1.5-1.1-2.2-8.5-5.9-5.2c-0.1-1.5-4.1-1.7-2.8-2.7
		c1,0.4,2.2,2,3.7,1.5c0-0.1,0.2-0.8-0.4-0.5V100l0,0c0.5-0.6-3.4-1.2-3-2.6c2.5,3,1.5-0.2,3.1,0.9c-0.2-2.1-1.7-0.9-4.7-4.4
		c3.1,3.4,6.6,1.4,1.5-0.9c-0.9-0.2-2.1-0.2-2.7-1.6c-0.4-1.2,1.1,0.7,3.6,1.1c1.9,0.8,0.3-0.7-1.5-2.2c3.4,1.6,0.2,0.6,0.2-3.8
		c0.8,0,0.2-0.9-1-1.8c1-0.1,0.7,0.1,1.4-0.7c-0.5-0.8,0.7,0,0.6-0.8c1-0.1-0.2-1.2,1.1-1.5c0.1,0-0.1,0.3,0,0.8
		c0.5-1,1,0.5-0.7,1.3c-0.6,1.9,1.4,2.2-0.2,4.4c0.6-0.4,0.6,0.6,1.3-0.2c0.7,2.1-0.4-0.1-0.6,1.5c1.6-0.4-1.9,0.3,1.6,2
		c0-1.8,0.3,0.9,0.7-0.9c0.4,0.3,0.3,3.1,1.4,2.6c1-0.7-0.2,1.4-0.3,2.6c-0.6,0.5-0.4,6.2,0.6,1.7c0.4-5,4.3-4.6,1.6-9.5
		c0,0,1-0.2,0.2-0.5c0,0,0.2,0,0.2-0.3c2.3,1.5-5.1-4.7-3.6-6.6c-0.2,3.3,4.6,1.8,4.4,4.7c1.4-2.8,3.1-5.1,3-8.9
		c0.2,0.2,0.2,0.7,0.4,1.8c-0.1-1,0.5-3.5-0.6-5c0,0.2-0.1,0.1,0.1,0.5c-0.2-0.2-1,0.2-1.6-0.2c1.4-0.5,0.3-1.9,1.4-3.4l0.2,0.6
		c-0.1-0.1-0.1,0-0.2-0.2l0.6,0.2c-0.4-0.6,0.6-0.6,0.5-1.7c1,0.2,3.2-2.9,3.8-2.5c0.6-0.6,2.6-0.2,2.7-1.2c0.9,0.5,1-0.2,2.7-0.7
		v0.2c0.4-0.2,0.9-0.3,1.8-1.3c0.1,0.9,0.5-3.8,0.7-0.5c0.6,1,0.5-1.2,0.8-0.2c0.1,0,0.2-0.3,0.5-0.7c-0.1,0.1,0.6,0.6,0.5,0
		c0.4,0.3,1.6-4.2,1.8-0.6c1.8-0.4,6.1-4,1.4-4c3.8,0.1-0.9,4.7-2,0.6c-0.3-0.6-0.8-1.2-2-1.6c0.3,1.1-1.5,0-0.7-0.5
		c2.2-4.5,0.3,1,0.2-5.4c1.4-0.5,0.6-5.8,2.6-6.2c0.9-1.1-0.2,2,1.7-1.3c1.2,0.9,0.1-0.7,1.8-1c0,2.8,1.3-7.3,1.4-3.5
		c0.2,0.2,0.3-0.7,0.6,0.1c0.1,0.1-0.8-0.2-0.4,0.3c-0.7,0.1,0.7,0.5,0.9,0.3c0.5,0.2,0.6-0.1,0.1-0.9c0.2-0.2,0.4-0.2,0.5-0.9
		c0.1,0.4,0.7,0.9,0.7-0.3c0.5,0.3,1-0.6,1.5,0.9c0.2-0.2,0.2-0.5,0.2-1.2c0.3,0.6,0.7,0.2,0.6-0.7c0.3-0.2,1.6,0.6,1.3-0.9
		c0,0.1,0.1-0.1,0.4,0.1c-0.1,0.2,0.2-0.9,0.2-0.1c0.4,0.2,0-1.6,0.6-0.5c0.5,0,1-0.8,1.1-1.8c-2,0.5,0.6-1.6-2-2.2
		c-1.3,1.6-0.6-2.5-3.1-2.7c-2.5-1.1-0.3-9-5.4-10.7c-5.9,5.5-4.6-7.2-7.8,8.8c-1.3,4.2,0.6,8.1-4.8,9.9c1.1,6.1-20.6-0.7-22.4,13.9
		l-0.2,0.3c0,1.6,1.8,2.5-3,5.9c-0.2-0.2-2.2-0.3-3,0.7c-1-1-9.9-0.9-7.3,3.3c2.1,0.6-1.4,4.2-5.2,6.9c-0.1,0,0.2-0.1,0.1-0.3
		c-7.4,4.5-7.8,8.3-18,6.1c0.2,0.2,3.1-10.3,3.9-7c1-2.4-0.6-17.4-6.7-6.6c-3.8-2.3,1.9-1.5,1.2-10.7c-8.3-7-9-5.1-11.9,3.1
		c-0.5-0.6,0.1-2,0.1-3.1c-2.2,2.2-4,5.3-4,9.5c-1,4.4,4.7,6.5,0.4,14.6c-7.5,9.8-9.3-13.8-4.5-22.6c0.9-0.4,0.5-3.2-0.2-0.7
		c-0.6-0.1-1,1.3-1.1,2.5c-1.1-1-1.4,1.4-3.2,2.6c-0.8,0.8,5.4-13,4.8-8.9c4-3.8-0.6,2.2,3.1-0.9c1.3-3.2,8.2-1.8,12.5-2.6
		c-2.9-5.4-7.1-0.5-5.9-5c-5.3,0.3-10.3,5.8-14.2,0.8c-1.8-0.6-2.1-1.5-3.8,0.8c-0.2-0.3,0.2-1,0-1.8c1-0.4,1.2-2.6,3.2-3.1
		c-3.5-1.4-9.9,8.1-15.8,6.6c2.8-5.5-3,0.9-6.1-0.8c1.4-1.8,7.7-7.5,13-9.6c-6.2-1-11.4,0.2-16.2-2.6c1-2.7-6.2,1.2-9.9-2.6
		c-0.3-1.1,0.1-4.1-2.3-3.8c-38.1,8.2-91.6-6.2-134.7-16v0.2c-1,0.2,0.7,1.7,0.6,2c0.2,0.2,0.2,2-0.8,1.6c0.2-0.9-1.1,0.3,0.1,0.2
		c0.8,0.8-0.2,2.3,1,3.1c-0.6,0.3-1.1,1.2-1.8,2.2c0.2,0.6-0.1,1.8-0.7,2.9c0,0-0.2-0.1-0.5-0.6c-0.1,0.2-1.2,2-1.8,0.6l-0.1,0.3
		c-0.1,0.1,0.2-0.2-0.3-0.2c-0.1,0.2,0,0.1-0.2,0.7c-0.4,0.2,0.3-0.6-0.5-0.5c0.1,0,0,0,0.5-0.4c-0.2-0.1-0.1-0.2-0.7,0.2
		c0,0-0.1-0.2,0.5-0.5h-0.5c0,0.2,0-0.4,0.4-0.2l0.2-0.4c0.2,0.1,1-0.2,1.4-0.9c0.2,1-1,2,1,0.2c0,0.2-0.8,0.6,0.1,1
		c-0.2-1,1.8-1.3,0.1-2.2c0-0.1-0.2-0.1,0-0.4c0.6,0.6,0.2,0.1,0.5-0.7c0-0.2,0.1,0.7,0.5,0c0.2,0.6,0.8-0.6,0-1.4
		c-0.2,0,0,0.1-0.2,0.8c0.6-0.5-5.9,2.8-2.1,2.3c-3,0.9-0.7-1,0.6-2.7l0.2,0.3c0-0.1,0.1,0.1,0.2-0.4c0,0.2,0.2,0.2-0.1,0.6
		c0.6-0.3,1.4-0.8,1-2.2V11l-0.1-0.2L26,11c0.1-1,0.3-0.9-0.6,0.1c0,0,0.3-0.4-0.2-0.8c-0.1,0,0.1,0.1-0.2,0.3
		c-0.5-1.5-3.5-1.4-7.5-4.9c-1,3,0.7,6.2-0.1,10.5c0.5-0.5,0.3-0.5,1.6,0.4c0.2,0.2-1.3-0.2-1.4,0.6c-0.2,0,0-0.2-0.3-0.6
		c-0.3,1-0.1,1.3,1,1.8c-0.1-0.2-0.3,0.3-0.8,0.4c-0.1-0.3,0.5,1.7-0.7,1.7c-0.2,0.2,0.5-0.8,0.2-1.9c-0.2,0.2-0.4,1.2-0.6,2.3
		c0.4,0.4,2.8,0.3,3,1.7c-0.5-0.6-1.1,0-2.2-0.6c0,0,0.1,0.1,0.2,0.4c-0.3,0.2-0.2-0.6-1-0.7c0.5,1.5-1.2,2.9-0.9,5.3
		c-2.6,7-10.7,17.4-9,26.9l-0.2-0.1c0.2,0.8-0.3,1.1-0.9,2.5l-0.2-0.2c0.3,3.1-5,1.7-1.3,10.7c-2.4,3.7,1.2,9.6,1.4,12.1
		C5.6,79.2,4,81.1,5.4,80c0,0.4,0.5,0.7,1,1.4c1.4,1.2,1,0.9,1.5-1.1c-0.1,0-0.1,0-0.2-0.2c0.8,0,1.1,0.1,1.8,1.2
		c-0.2-0.1,0-0.1-0.6-0.2H9c-1.5-0.2-0.4,2.6,0.5,4.4c-0.4,0.2-2.6-1.8-1.6-2.4c-0.1-0.2,0.2-0.5-0.3-0.7c-1.9,2.3-0.9,5.1,1.7,7.8
		c-4.1,3.1,2.6,9,2.2,12.4c3.7,3-4.6,5.1,5.3,7.9c5.1,4,12.2,9,12.2,16.4c-0.5-0.2-0.2-0.9-0.3,0.6c4.3,0.5,9.1,1,14.6,1.6
		c-3.6,0.6,17.7,15.4,31.8,15.7c5.8,2,10.5-5.2,18.2-0.1c1.4,3.5,5.7,5.8,8.2,9.6c0.9,1.8,0,7,5.9,9.9c2.3,0.6,2.3,3.6,5.8,0.5
		c-0.2-0.6,0.6-1.6,1-2.8l0.2,0.1c1.3-2.5,4.7-1,7.7-0.6C122.4,161.5,122.5,162,122.9,161.8z"/>
	<path class="st0" d="M297.1,61.3c-0.3,0.1-0.3,0-1-0.1c-0.2-0.8-0.2,0.9-1,0.9C294.9,62.6,296.9,62.1,297.1,61.3z"/>
	<path class="st0" d="M299.4,61.7c-1.4-0.2-0.2,0.9,0.6-0.2c-0.2-0.4-1-0.8-0.4-0.2C299.5,61.3,299.7,61.5,299.4,61.7z"/>
	<polygon class="st0" points="279.3,69.9 279.3,69.7 279.3,69.7 279.3,69.7 279.2,69.7 279.1,70 279,70.2 278.9,70.6 279,70.7
		279.1,70.6 279.3,70.5 279.3,70.5 279.3,70.3 279.3,70.1 279.3,70 	"/>
	<polygon class="st0" points="278,72.5 278.2,72.5 278.4,72.3 278.5,72.1 278.7,71.9 278.9,71.6 278.9,71.4 278.7,71.1 278.1,71.5
		"/>
	<path class="st0" d="M286.9,67.5l0.2,0.2c-0.1,0,0.1,0.2-0.4,0.2c-0.6-0.6,0.1-1.3,1.1-2.5c-1.4,1.7-4.9,2.5-6.3,3.4
		c0-0.3-0.8-0.2-0.7,0.6c-0.4-0.6-0.3,0.9-0.8,0.3c-2.8,3.1,1.8,0.2-0.2,1.8c1-0.4,2.6-1.3,3.8-2.2c1.8-0.4,4.4-2.6-0.1,0.9
		c1.5-0.9,9.7-6.1,4.1-3.9C287.4,66.6,287.5,67.1,286.9,67.5z"/>
	<path class="st0" d="M25.7,6.7c0,0,0.1,0.2,0.3,0.5c-0.2,0,0,0.2-0.2,0.6C25.4,7.8,25.1,5.5,25.7,6.7z"/>
	<path class="st0" d="M26.4,8.1c0-0.3-0.5-0.5,0.2-1C26.4,7.4,27.1,8.3,26.4,8.1z"/>
	<path class="st0" d="M27,6.8c-0.2,0.1,0.1-0.2-0.3-0.6c0,0.1-0.1,0,0,0.6c-0.2,0.2,0-0.4-0.6-0.2c-0.1-0.2,0.2-0.3,0.6-0.7
		C26.8,6.1,27.8,6.5,27,6.8z"/>
	<path class="st0" d="M26.7,9.9c0.1-0.1-0.2,0.2,0.4,0.3c-0.7,1.4,2.6,3.8-0.3-0.6c-0.1-0.2,0.2,0.2,0.4-0.3
		c0.2,0.1,0.2,0.1,0.7,0.1c0.2-0.1-0.3-0.4-0.2-0.7C27.6,8.6,26.3,8.9,26.7,9.9z"/>
</g>
<g>
	<g>
		<polyline class="st1" points="276.9,56.5 273.4,58.5 269.9,60.5 266.4,62.5 262.8,64.5 259.3,66.4 255.7,68.3 252,70.1 248.4,72
			244.7,73.8 241,75.7 237.3,77.4 233.6,79.2 229.8,80.9 226.1,82.6 222.3,84.3 218.5,86 214.6,87.6 210.8,89.2 206.9,90.8
			203,92.3 199.1,93.8 195.2,95.3 191.3,96.8 187.3,98.2 183.3,99.7 179.3,101 175.3,102.4 171.2,103.7 167.1,105 163,106.3
			158.9,107.5 154.9,108.8 150.7,110 146.5,111.1 142.4,112.2 138.2,113.3 134,114.4 129.8,115.4 125.6,116.5 121.3,117.4
			117,118.4 112.8,119.3 108.5,120.1 104.1,121 99.8,121.8 95.5,122.6 91.1,123.4 86.8,124.1 82.4,124.9 78,125.5 73.6,126.1
			69.2,126.7 64.7,127.3 60.3,127.8 		"/>
		<polyline class="st1" points="281.4,67.2 277.8,69 274.2,70.8 270.6,72.5 267,74.3 263.3,76.1 259.7,77.7 256,79.4 252.3,81.1
			248.5,82.7 244.8,84.3 241,85.9 237.3,87.4 233.5,88.9 229.7,90.5 225.8,91.9 222,93.3 218.1,94.8 214.2,96.1 210.3,97.6
			206.4,98.9 202.5,100.2 198.5,101.5 194.5,102.8 190.5,104 186.5,105.2 182.5,106.4 178.5,107.5 174.5,108.6 170.4,109.7
			166.3,110.8 162.2,111.8 158.1,112.9 154.1,113.8 149.9,114.8 145.7,115.7 141.6,116.6 137.4,117.4 133.3,118.3 129,119.1
			124.9,119.9 120.6,120.6 116.4,121.3 112.1,122 107.8,122.7 103.6,123.3 99.3,123.9 95,124.5 90.7,124.9 86.4,125.5 82.1,126
			77.7,126.4 73.3,126.8 69,127.2 64.6,127.5 60.3,127.8 		"/>
		<polyline class="st1" points="239.4,95.5 234.9,96.4 230.3,97.3 225.7,98.1 221.2,98.8 		"/>
		<polyline class="st1" points="221.2,98.8 217.3,100.1 213.4,101.3 209.5,102.5 205.6,103.7 201.6,104.9 197.7,106.1 193.7,107.2
			189.7,108.3 185.7,109.3 181.7,110.4 177.7,111.3 173.6,112.4 169.6,113.3 165.5,114.2 161.4,115.1 157.3,116 153.2,116.9
			149.1,117.7 144.9,118.4 140.9,119.2 136.7,119.9 132.5,120.6 128.3,121.3 124.1,121.9 120,122.5 115.7,123.1 111.6,123.6
			107.3,124.1 103.1,124.6 98.9,125.1 94.6,125.5 90.3,125.9 86.1,126.3 81.8,126.6 77.5,126.9 73.2,127.2 68.9,127.4 64.6,127.7
			60.3,127.8 		"/>
		<polyline class="st1" points="193.3,65.3 190,67.4 186.5,69.6 183.2,71.7 179.7,73.8 176.2,75.9 172.7,78 169.2,80.1 165.7,82.1
			162.1,84.1 158.5,86.1 154.8,88.1 151.2,90.1 147.5,92 143.7,93.8 140,95.7 136.2,97.6 132.5,99.4 128.7,101.2 124.9,103
			120.9,104.7 117.1,106.5 113.2,108.1 109.3,109.8 105.3,111.5 101.3,113.1 97.3,114.7 93.3,116.3 89.3,117.8 85.2,119.3
			81.1,120.8 76.9,122.3 72.8,123.7 68.6,125.1 64.5,126.5 60.3,127.8 		"/>
		<polyline class="st1" points="148.4,121.7 144.3,122.3 140.1,122.9 136,123.4 131.9,123.9 127.7,124.4 123.6,124.8 119.3,125.2
			115.2,125.6 111,125.9 106.8,126.2 102.6,126.5 98.4,126.8 94.2,127 90,127.3 85.7,127.4 81.5,127.6 77.3,127.7 73,127.7
			68.8,127.8 64.5,127.8 60.3,127.8 		"/>
		<polyline class="st1" points="60.3,127.8 64.6,127.7 68.9,127.4 73.2,127.2 77.5,126.9 81.8,126.6 86.1,126.3 90.3,125.9
			94.6,125.5 98.9,125.1 103.1,124.6 107.3,124.1 111.6,123.6 115.7,123.1 120,122.5 124.1,121.9 128.3,121.3 132.5,120.6
			136.7,119.9 140.9,119.2 144.9,118.4 149.1,117.7 153.2,116.9 157.3,116 161.4,115.1 165.5,114.2 169.6,113.3 173.6,112.4
			177.7,111.3 181.7,110.4 185.7,109.3 189.7,108.3 193.7,107.2 197.7,106.1 201.6,104.9 205.6,103.7 209.5,102.5 213.4,101.3
			217.3,100.1 221.2,98.8 		"/>
		<polyline class="st1" points="259.4,111.5 255,110.2 250.7,108.9 246.5,107.6 242.1,106.1 237.9,104.8 233.7,103.3 229.5,101.8
			225.3,100.3 221.2,98.8 		"/>
		<polyline class="st1" points="284.1,58.6 280.9,61.6 277.6,64.5 274.3,67.4 270.9,70.3 267.6,73.2 264.2,76.1 260.8,78.9
			257.3,81.7 253.8,84.5 250.3,87.3 246.7,90.1 243.1,92.8 239.4,95.5 		"/>
		<polyline class="st1" points="65.1,137.7 62.7,132.8 60.3,127.8 		"/>
		<polyline class="st1" points="157.6,116.9 153,119.3 148.4,121.7 		"/>
	</g>
	<ellipse class="st2" cx="60.5" cy="127.7" rx="2.9" ry="2.9"/>
	<ellipse class="st2" cx="65.5" cy="137.7" rx="2.9" ry="2.9"/>
	<ellipse class="st2" cx="148.1" cy="121.3" rx="2.9" ry="2.9"/>
	<ellipse class="st2" cx="157.5" cy="116.6" rx="2.9" ry="2.9"/>
	<ellipse class="st2" cx="259.9" cy="111.8" rx="2.9" ry="2.9"/>
	<ellipse class="st2" cx="281.3" cy="67.6" rx="2.9" ry="2.9"/>
	<ellipse class="st2" cx="284.3" cy="59" rx="2.9" ry="2.9"/>
	<ellipse class="st2" cx="276.5" cy="57.1" rx="2.9" ry="2.9"/>
	<ellipse class="st2" cx="239.8" cy="95.3" rx="2.9" ry="2.9"/>
	<ellipse class="st2" cx="221.3" cy="98.7" rx="2.9" ry="2.9"/>
	<ellipse class="st2" cx="192.9" cy="65.5" rx="2.9" ry="2.9"/>
</g>
<text transform="matrix(1 0 0 1 357.042 113.873)" class="st2 st3 st4">Education</text>
</svg>
