<?xml version="1.0" encoding="utf-8"?>
<!-- Generator: Adobe Illustrator 23.1.1, SVG Export Plug-In . SVG Version: 6.00 Build 0)  -->
<svg version="1.1" id="Layer_1" xmlns="http://www.w3.org/2000/svg" xmlns:xlink="http://www.w3.org/1999/xlink" x="0px" y="0px"
	 viewBox="0 0 382.1 257" style="enable-background:new 0 0 382.1 257;" xml:space="preserve">
<style type="text/css">
	.st0{fill:#707589;}
	.st1{fill:none;stroke:#FFFFFF;stroke-width:0.8;stroke-linejoin:round;stroke-miterlimit:10;}
	.st2{fill:#FFFFFF;}
	.st3{font-family:'Roboto';}
	.st4{font-size:40px;}
</style>
<g id="map">
	<path class="st0" d="M70.3,169c0.6,1.1,0.5,1.8-0.9,2.2c-0.9,0.3-1.7,1-2.5,1.5c-0.5,0.3-1,0.5-1.7,0.8c0.2-2.2,0-4.2,2-5.4
		c-1.3,0.1-1.8,0.6-2.6,2.2c-0.6,1-1.4,2-2.1,3.2c0.2,0.2,0.6,0.4,1.1,0.9c-3.4,3.6-7,6.7-11.4,9.1c-0.5-0.6-1.2-0.4-2.2,0.2
		c-1.2,0.7-2.8,1-4.2,1.4c-0.1-0.2-0.2-0.4-0.3-0.6c0.6-0.4,1.4-0.7,2-1.1c0.6-0.3,1.4-0.6,2.1-1c0.5-0.2,0.8-0.8,1.3-0.8
		c2.3-0.2,3.8-1.8,5.3-3.3c0.8-0.9,1.1-2.1,1.9-3.6c-1.2,0.2-1.8,0.2-2.8,0.3c-1-1.1-1-1.6-3.7-0.5c0-1.3,0-2.5,0-3.8
		c-2.7,0.5-3.4-0.2-3.7-2.9c-0.2-1.1-1.2-2.2-0.2-3.4c0.6-0.7,1-1.7,1.8-2.2c0.4-0.3,1.3-0.2,1.9-0.1c0.9-0.4,2.1-0.6,2.6-1.2
		c0.5-0.6,0.2-1.8,0.2-2.5c-1.3,0-2.7,0-4.2,0c-1.1,0-1.8-0.5-2-1.8c-0.1-0.7-0.6-1.4-1.1-2.2c1.5-0.6,3-1.2,4.8-1.9
		c0.2,1.8,1,2.2,2.6,1.7c-1.3-1.8-2.6-3.6-3.7-5.4c-0.2-0.4-0.6-1-0.4-1.4c0.2-0.4,0.9-0.6,1.4-0.9c0.6-0.2,1.5-0.2,1.7-0.6
		c0.7-1.8,2.1-2.6,3.6-3.3c1-0.5,2.2-0.9,3.7-1.4c1,0.5,2.4,1.5,3.9,1.8c2.2,0.5,4.6,0.7,7,0.6c1.8-0.1,3.2,0.4,3.6,2.2
		c1.5,7.5,3,15,4.6,22.8c0.7-0.2,1.4-0.4,1.9-0.5c1.2,1,2.3,1.8,3.4,2.6c0.7-0.9,1.4-2.3,2-2.3c0.9,0,1.8,1,2.6,1.7
		c0.9,0.6,1.8,1.3,2.5,2.1c1.3,1.4,2.6,2.6,4.6,2.9c1.3,0.2,1.8,2.2,1,3.8c-0.6,0.2-2-1.6-2.1,0.6c0,0-1.4,0.3-1.8,0
		c-1.1-1-2-2.2-3-3.5c-0.2,0.5-0.2,0.7-0.3,1.2c-1-1-1.7-2.1-2.6-2.8c-1.7-1.3-3.4-2.5-5.2-3.6c-2-1.2-4.2-1.1-6.6-1
		c-1.2,0.1-2.5-0.8-3.8-1.3c-0.6-0.2-1.2-0.2-1.8-0.4C70.4,168.6,70.4,168.8,70.3,169z"/>
	<path class="st0" d="M64.5,175.2c0.2,0.2,0.4,0.2,0.5,0.4c0.6,1.1-1.1,4-2.3,4.1c-0.3,0-0.9-0.3-1-0.6c-0.2-0.3-0.2-1,0-1.3
		c0.7-0.8,1.6-1.5,2.4-2.2C64.1,175.4,64.3,175.4,64.5,175.2z"/>
	<path class="st0" d="M45.2,160.5c-1.5,0.5-3.4-0.6-3.9-2.2C42.8,159,43.9,159.7,45.2,160.5z"/>
	<path class="st0" d="M44.9,168.7c0.7,0.2,1.4,0.2,2.2,0.4c-0.1,0.3-0.2,0.7-0.3,1c-0.6-0.2-1.4-0.4-2-0.6
		C44.8,169.3,44.8,169,44.9,168.7z"/>
	<path class="st0" d="M131.8,185.6c-0.8-0.2-1.8-0.6-1.4-2.3c0.1-0.4-0.1-0.9-0.3-1.3c-0.6-1.2-1-2.2,0.2-3.4
		c0.5-0.5,0.2-1.6,0.4-2.6c3.1,0.9,5.8,2.3,7.3,5.8C136.3,183,134.3,184.2,131.8,185.6z"/>
	<path class="st0" d="M127.3,173.8c-0.2-0.2-0.5-0.3-0.7-0.6c-0.4-0.4-0.8-0.9-1.2-1.4c-0.2-0.2-0.2-0.6-0.3-1
		c0.3-0.1,0.7-0.2,1-0.2c0.9,0.2,1.8,0.4,2.6,0.7c0.4,0.2,0.6,0.7,1,1c-0.4,0.3-0.8,0.6-1.2,0.9
		C128.2,173.7,127.8,173.7,127.3,173.8z"/>
	<path class="st0" d="M107.3,162.7c-0.8,0.6-1.4,1.3-1.8,1.2c-0.6-0.1-1.3-0.7-1.9-1.2c0.8-0.5,1.5-1,2.4-1.4
		C106.2,161.4,106.7,162.2,107.3,162.7z"/>
	<path class="st0" d="M116.5,165.3c0.1,1,0.3,1.8,0.2,2.6c0,0.2-1,0.6-1.2,0.5c-0.6-0.5-1-1.1-1.6-1.8
		C114.8,166.2,115.4,165.8,116.5,165.3z"/>
	<path class="st0" d="M158.4,157.3c0.4-0.3-0.2,1,0.6,0.7c-0.1,0.1-0.1,1.1,0.2,0.2c0.8,1.5,3.1,2.8,4,5.6c0.2,4.4,6.2,7.7,6.2,11.8
		c1.3,4.8,4.8,9.5,11,9.4c0.8,0.1,1.4,1,2.9,1h-0.1c0.8,0.6,1.8-1.5,1.3-0.5c-0.2-0.1-0.1-0.3-0.5,0.1c-0.3-1.9-2.1-4.2-1.4-9.1
		c-1,1-3.1-3.2-0.7-0.4l-0.1-0.2c0.5-0.2,1.4-1,0.4,0.2c0.7,0.6,1.6-1.5,1.8-2.9c-0.6,0.7-0.4-0.2-0.7-1c-0.1,0.1-0.6,0.3-1-0.3
		c0.9-0.5,4.2,1.9,2-1.4c0.1,0.1,0.8-0.3,0.3-0.6c1,0.9,2.2-1.8,1.8,0.3c1.4,0,0.2-2.4,1-1.8c-1.8-0.9,4.5,0.8,1.4-0.6
		c0.1-0.2-0.2-0.1,0.5-0.4c-0.3-0.6-1,0.2-1-1.3c0.1,0.2,0.5-0.4,0.6,0.4l0.2-0.1c0-0.2,0.2,1,0.4,0.2c-0.1-0.1,0.3,0.3-0.2,0.6
		c0.2,0.2-0.1,0.1,0.6-0.2c0.2,0.2-0.6-0.6-0.1-0.8c-0.1,0.2,0.5,1.3,0.8,0c0,0.1,0,0,0.1,0.3c0.1,0,0.1-0.1,0.4-0.5
		c0,0.2,0-0.1-0.2,0.9c-0.1-0.1,0.9,0.2-0.1,0.2c2.8-0.4,4.2-1.8-0.8,1.4c1-0.6,5.4-2.2,7.8-4.9c-1.6-0.4,2.4,0,1-4.7l-0.1,0.1
		c4.6-1.1-0.7,0.6,3.1,1.4c-4.2,2.5,2.6-1.4,6.1-1.8c1.8-1.2,9,3.7,9.1,0.4c1.2-4.4,5.8,5.8,10,3c-0.2-2.6,3.6,4.3,3.3-2.1
		c1.2-0.2,1,1.6,2.4,1.1c1.9,1.4,3,3.2,3.8,1c0.5-0.9-3.4-0.7-3.7-3.1c1.2-1,2.6-1.8,2.6-3.5c0.3-1.4-5.8,3.2-3.4,0.5
		c0-0.2,0.6-1.4-0.2-0.6c-0.1-0.1-0.1,0-0.1-0.3c-1.4,2.1-8.1-0.2-2-1.1c1,0.6,3.1,1.9,4.5-0.1c2-1.9,8.1,1.7,8.2-3.9
		c2.3,2.2-1.4,6.2,3.6,2.7c-1,1.2,2.4-0.2,1.5-1.6c0.7,0.8,2.9-0.2,0.2,1.5c1.3-0.9,10.1-1.7,4.2-0.8c0.5-0.2,5.6,2.3,4.7,0.9
		c-0.8,0.6-0.6-0.8,0.6-0.1c-0.1,0.2,0.1,0.2-0.2,0.5c-0.6,0.6,1.6-0.3,2.7,3.3c-0.4,0.2-0.4,0-0.5-1.3c-1.2,2.3,2.2,1,3.4,0.4
		c-1,0.8,4.6-1.7,2.7-1.6c0.2-0.2,0.4-0.5,0.9-1c0.8-1.6,11.4,6.3,11.6,9c0.2,1.6-1.9,7.1,0.9,6.9c-1.8-4.6,1,0,0.9-1.3
		c2-1.1-1.8,3.4-0.3,3.5c0.9,0.8,1.4,4.2,3.4,4.1c-1.4-1.3,0.9-1.4,0.3-0.9c0.5,2.5,0.6,2.5,3.7,7c0.1-0.9,9,5.9,3.9,4
		c0.1,2.3,3.6-0.1,5-0.1c0.6-1.4,0.2-3.1,1.2-4.8c1.3-9.4-10.4-23.5-13.8-33.8c0.1,0.3,1-4.8,0.2-2.4c-1.3-1.5,0.8,0.1-0.2-2.2
		c0.6,0,0.5-0.7,1.1-0.7c0.6-0.7-1.1-1.4,0.4-1.3c0.2-0.5,0.1-0.8-0.4-1.2c1.1-1.5,3.1-3,1.6-5.5c1.8,1.7,1.3,0.3,2.2-0.7v0.1
		c0.2-0.3,1.4,0.2,1.3-1c-0.3,0.6,6.1-4,5-6.5c0.6,1.8,0.9-3.3,3.9-4.2c0.6-1.1,3.4,0.3,3.1-2.2c0.2,2.6,2.5-6.7,3-4.6
		c-0.8,1.1,1.9,0.2,0.9-1.1c0.2,0.9,2.7,0,2.4-0.3c0.2-0.4,0.2-0.4,0.8,0.1c0.2-0.2,0.6-0.1,1.6-1.6c0.2-0.2-1.2-1.2-1.1-0.4
		c-1.2-0.3,0.5,0.7-1,0.3c0.1,0,0.5,0.5,0,0.4c-0.3-1-0.2,1.1-2.7-0.9c-0.3-1.7,2.6,3,2.9-1.7c1.4-0.3-1.1-0.8-1.7-0.6
		c-2.8-1.5,1,0.4,1.1-1c-1-0.3,0.2-0.5,0.8-0.6c-1.1,1.5,0.2,0.7,1.3,1.3c1-0.2,1.4-0.6,2-2.3c0.9,0.9,0.4-0.6,0.8-0.8
		c-0.4-0.6,0.2-1.2-1.2-1.8c0.2,0.2-0.3,0.1-0.1,0.5c-1.2-0.5,0.5,2.9-1.3,1.8c0.7,0.2,0.5-1.2,0.2-1.8c-0.6-1.5-4.2,3.8-4.5-2.2
		c0.4-0.1,1,3.9,1.9,1.6c0.9-0.2,0.5-1.1,1.6-0.6c0.6-0.5,0.6-0.4-0.3-1.1c0.6-0.3,1.9,1.3,1.1-0.3c0.6-0.1,0.5,0.9,1.3,1.3
		c0.1-1-3.6-4.1-1.4-2.8c0.1,0-0.8-2.1,0.2-0.5c-1-0.5,5.1,8.2,2.2,3.6c-1.5-1.1-2.2-8.5-5.9-5.2c-0.1-1.5-4.1-1.7-2.8-2.7
		c1,0.4,2.2,2,3.7,1.5c0-0.1,0.2-0.8-0.4-0.5v-0.1l0,0c0.5-0.6-3.4-1.2-3-2.6c2.5,3,1.5-0.2,3.1,0.9c-0.2-2.1-1.7-0.9-4.7-4.4
		c3.1,3.4,6.6,1.4,1.5-0.9c-0.9-0.2-2.1-0.2-2.7-1.6c-0.4-1.2,1.1,0.7,3.6,1.1c1.9,0.8,0.3-0.7-1.5-2.2c3.4,1.6,0.2,0.6,0.2-3.8
		c0.8,0,0.2-0.9-1-1.8c1-0.1,0.7,0.1,1.4-0.7c-0.5-0.8,0.7,0,0.6-0.8c1-0.1-0.2-1.2,1.1-1.5c0.1,0-0.1,0.3,0,0.8
		c0.5-1,1,0.5-0.7,1.3c-0.6,1.9,1.4,2.2-0.2,4.4c0.6-0.4,0.6,0.6,1.3-0.2c0.7,2.1-0.4-0.1-0.6,1.5c1.6-0.4-1.9,0.3,1.6,2
		c0-1.8,0.3,0.9,0.7-0.9c0.4,0.3,0.3,3.1,1.4,2.6c1-0.7-0.2,1.4-0.3,2.6c-0.6,0.5-0.4,6.2,0.6,1.7c0.4-5,4.3-4.6,1.6-9.5
		c0,0,1-0.2,0.2-0.5c0,0,0.2,0,0.2-0.3c2.3,1.5-5.1-4.7-3.6-6.6c-0.2,3.3,4.6,1.8,4.4,4.7c1.4-2.8,3.1-5.1,3-8.9
		c0.2,0.2,0.2,0.7,0.4,1.8c-0.1-1,0.5-3.5-0.6-5c0,0.2-0.1,0.1,0.1,0.5c-0.2-0.2-1,0.2-1.6-0.2c1.4-0.5,0.3-1.9,1.4-3.4l0.2,0.6
		c-0.1-0.1-0.1,0-0.2-0.2l0.6,0.2c-0.4-0.6,0.6-0.6,0.5-1.7c1,0.2,3.2-2.9,3.8-2.5c0.6-0.6,2.6-0.2,2.7-1.2c0.9,0.5,1-0.2,2.7-0.7
		v0.2c0.4-0.2,0.9-0.3,1.8-1.3c0.1,0.9,0.5-3.8,0.7-0.5c0.6,1,0.5-1.2,0.8-0.2c0.1,0,0.2-0.3,0.5-0.7c-0.1,0.1,0.6,0.6,0.5,0
		c0.4,0.3,1.6-4.2,1.8-0.6c1.8-0.4,6.1-4,1.4-4c3.8,0.1-0.9,4.7-2,0.6c-0.3-0.6-0.8-1.2-2-1.6c0.3,1.1-1.5,0-0.7-0.5
		c2.2-4.5,0.3,1,0.2-5.4c1.4-0.5,0.6-5.8,2.6-6.2c0.9-1.1-0.2,2,1.7-1.3c1.2,0.9,0.1-0.7,1.8-1c0,2.8,1.3-7.3,1.4-3.5
		c0.2,0.2,0.3-0.7,0.6,0.1c0.1,0.1-0.8-0.2-0.4,0.3c-0.7,0.1,0.7,0.5,0.9,0.3c0.5,0.2,0.6-0.1,0.1-0.9c0.2-0.2,0.4-0.2,0.5-0.9
		c0.1,0.4,0.7,0.9,0.7-0.3c0.5,0.3,1-0.6,1.5,0.9c0.2-0.2,0.2-0.5,0.2-1.2c0.3,0.6,0.7,0.2,0.6-0.7c0.3-0.2,1.6,0.6,1.3-0.9
		c0,0.1,0.1-0.1,0.4,0.1c-0.1,0.2,0.2-0.9,0.2-0.1c0.4,0.2,0-1.6,0.6-0.5c0.5,0,1-0.8,1.1-1.8c-2,0.5,0.6-1.6-2-2.2
		c-1.3,1.6-0.6-2.5-3.1-2.7c-2.5-1.1-0.3-9-5.4-10.7c-5.9,5.5-4.6-7.2-7.8,8.8c-1.3,4.2,0.6,8.1-4.8,9.9c1.1,6.1-20.6-0.7-22.4,13.9
		l-0.2,0.3c0,1.6,1.8,2.5-3,5.9c-0.2-0.2-2.2-0.3-3,0.7c-1-1-9.9-0.9-7.3,3.3c2.1,0.6-1.4,4.2-5.2,6.9c-0.1,0,0.2-0.1,0.1-0.3
		c-7.4,4.5-7.8,8.3-18,6.1c0.2,0.2,3.1-10.3,3.9-7c1-2.4-0.6-17.4-6.7-6.6c-3.8-2.3,1.9-1.5,1.2-10.7c-8.3-7-9-5.1-11.9,3.1
		c-0.5-0.6,0.1-2,0.1-3.1c-2.2,2.2-4,5.3-4,9.5c-1,4.4,4.7,6.5,0.4,14.6C237,78,235.2,54.3,240,45.5c0.9-0.4,0.5-3.2-0.2-0.7
		c-0.6-0.1-1,1.3-1.1,2.5c-1.1-1-1.4,1.4-3.2,2.6c-0.8,0.8,5.4-13,4.8-8.9c4-3.8-0.6,2.2,3.1-0.9c1.3-3.2,8.2-1.8,12.5-2.6
		c-2.9-5.4-7.1-0.5-5.9-5c-5.3,0.3-10.3,5.8-14.2,0.8c-1.8-0.6-2.1-1.5-3.8,0.8c-0.2-0.3,0.2-1,0-1.8c1-0.4,1.2-2.6,3.2-3.1
		c-3.5-1.4-9.9,8.1-15.8,6.6c2.8-5.5-3,0.9-6.1-0.8c1.4-1.8,7.7-7.5,13-9.6c-6.2-1-11.4,0.2-16.2-2.6c1-2.7-6.2,1.2-9.9-2.6
		c-0.3-1.1,0.1-4.1-2.3-3.8c-38.1,8.2-91.6-6.2-134.7-16v0.2c-1,0.2,0.7,1.7,0.6,2C64,2.9,64,4.6,63,4.2c0.2-0.9-1.1,0.3,0.1,0.2
		c0.8,0.8-0.2,2.3,1,3.1c-0.6,0.3-1.1,1.2-1.8,2.2c0.2,0.6-0.1,1.8-0.7,2.9c0,0-0.2-0.1-0.5-0.6c-0.1,0.2-1.2,2-1.8,0.6l-0.1,0.3
		c-0.1,0.1,0.2-0.2-0.3-0.2c-0.1,0.2,0,0.1-0.2,0.7c-0.4,0.2,0.3-0.6-0.5-0.5c0.1,0,0,0,0.5-0.4c-0.2-0.1-0.1-0.2-0.7,0.2
		c0,0-0.1-0.2,0.5-0.5L58,12.2c0,0.2,0-0.4,0.4-0.2l-0.2,0.2c0.2,0.1,1-0.2,1.4-0.9c0.2,1-1,2,1,0.2c0,0.2-0.8,0.6,0.1,1
		c-0.2-1,1.8-1.3,0.1-2.2c0-0.1-0.2-0.1,0-0.4c0.6,0.6,0.2,0.1,0.5-0.7c0-0.2,0.1,0.7,0.5,0c0.2,0.6,0.8-0.6,0-1.4
		c-0.2,0.1,0.1,0.2-0.1,0.9c0.6-0.5-5.9,2.8-2.1,2.3c-3,0.9-0.7-1,0.6-2.7l0.2,0.3c0-0.1,0.1,0.1,0.2-0.4c0,0.2,0.2,0.2-0.1,0.6
		c0.6-0.3,1.4-0.8,1-2.2L61.3,7l-0.1-0.2L61,7c0.1-1,0.3-0.9-0.6,0.1c0,0,0.3-0.4-0.2-0.8c-0.1,0,0.1,0.1-0.2,0.3
		c-0.5-1.4-3.5-1.3-7.5-4.8c-1,3,0.7,6.2-0.1,10.5c0.5-0.5,0.3-0.5,1.6,0.4c0.2,0.2-1.3-0.2-1.4,0.6c-0.2,0,0-0.2-0.3-0.6
		c-0.3,1-0.1,1.3,1,1.8c-0.1-0.2-0.3,0.3-0.8,0.4c-0.1-0.2,0.5,1.8-0.7,1.8c-0.2,0.2,0.5-0.8,0.2-1.9c-0.2,0.2-0.4,1.2-0.6,2.3
		c0.4,0.4,2.8,0.3,3,1.7c-0.5-0.6-1.1,0-2.2-0.6c0,0,0.1,0.1,0.2,0.4c-0.3,0.2-0.2-0.6-1-0.7c0.5,1.5-1.2,2.9-0.9,5.3
		c-2.7,7.1-10.8,17.5-9.1,27l-0.2-0.1c0.2,0.8-0.3,1.1-0.9,2.5l0.5-0.9c0.3,3.1-5,1.7-1.3,10.7c-2.4,3.7,1.2,9.6,1.4,12.1
		c0.3,0.3-1.3,2.2,0.1,1.1c0,0.4,0.5,0.7,1,1.4c1.4,1.2,1,0.9,1.5-1.1c-0.1,0-0.1,0-0.2-0.2c0.8,0,1.1,0.1,1.8,1.2
		c-0.2-0.1,0-0.1-0.6-0.2h0.1C43,76.4,44.1,79.2,45,81c-0.4,0.2-2.6-1.8-1.6-2.4c-0.1-0.2,0.2-0.5-0.3-0.7c-1.9,2.3-0.9,5.1,1.7,7.8
		c-4.1,3.1,2.6,9,2.2,12.4c3.7,3-4.6,5.1,5.3,7.9c5.1,4,12.2,9,12.2,16.4c-0.5-0.2-0.2-0.9-0.3,0.6c4.3,0.5,9.1,1,14.6,1.6
		c-3.6,0.6,17.7,15.4,31.8,15.7c5.8,2,10.5-5.2,18.2-0.1c1.4,3.5,5.7,5.8,8.2,9.6c0.9,1.8,0,7,5.9,9.9c2.3,0.6,2.3,3.6,5.8,0.5
		c-0.2-0.6,0.6-1.6,1-2.8l0.2,0.1c1.3-2.5,4.7-1,7.7-0.6C157.8,157,157.9,157.4,158.4,157.3z"/>
	<path class="st0" d="M332.5,56.8c-0.3,0.1-0.3,0-1-0.1c-0.2-0.8-0.2,0.9-1,0.9C330.3,58.1,332.4,57.5,332.5,56.8z"/>
	<path class="st0" d="M334.8,57.1c-1.4-0.2-0.2,0.9,0.6-0.2c-0.2-0.4-1-0.8-0.4-0.2C335,56.8,335.2,57,334.8,57.1z"/>
	<polygon class="st0" points="314.8,65.4 314.8,65.2 314.8,65.1 314.8,65.1 314.7,65.1 314.6,65.4 314.5,65.7 314.4,66.1
		314.5,66.2 314.6,66.1 314.7,65.9 314.8,65.8 314.8,65.8 314.8,65.6 314.8,65.4 	"/>
	<polygon class="st0" points="313.4,68 313.6,67.9 313.9,67.8 314,67.6 314.1,67.4 314.4,67 314.4,66.9 314.1,66.6 313.6,66.9 	"/>
	<path class="st0" d="M322.4,63l0.2,0.2c-0.1,0,0.1,0.2-0.4,0.2c-0.6-0.6,0.1-1.3,1.1-2.5c-1.4,1.7-4.9,2.5-6.3,3.4
		c0-0.3-0.8-0.2-0.7,0.6c-0.4-0.6-0.3,0.9-0.8,0.3c-2.8,3.1,1.8,0.2-0.2,1.8c1-0.4,2.6-1.3,3.8-2.2c1.8-0.4,4.4-2.6-0.1,0.9
		c1.5-0.9,9.7-6.1,4.1-3.9C322.8,62.1,322.9,62.5,322.4,63z"/>
	<path class="st0" d="M61.2,2.2c0,0,0.1,0.2,0.3,0.5c-0.2,0,0,0.2-0.2,0.6C60.8,3.3,60.5,1,61.2,2.2z"/>
	<path class="st0" d="M61.8,3.6c0-0.3-0.5-0.5,0.2-1C61.9,2.9,62.5,3.7,61.8,3.6z"/>
	<path class="st0" d="M62.5,2.2c-0.2,0.1,0.1-0.2-0.3-0.6c0,0.1-0.1,0,0,0.6c-0.2,0.2,0-0.4-0.6-0.2c-0.1-0.2,0.2-0.3,0.6-0.7
		C62.3,1.4,63.3,1.8,62.5,2.2z"/>
	<path class="st0" d="M62.1,5.4c0.1-0.1-0.2,0.2,0.4,0.3c-0.7,1.4,2.6,3.8-0.3-0.6c-0.1-0.2,0.2,0.2,0.4-0.3
		c0.2,0.1,0.2,0.1,0.7,0.1c0.2-0.1-0.3-0.4-0.2-0.7C63,4,61.7,4.2,62.1,5.4z"/>
</g>
<g id="constellation">
	<g>
		<polyline class="st1" points="331.3,34.8 326.5,36.3 321.7,37.8 316.9,39.2 		"/>
		<polyline class="st1" points="316.9,39.2 316.8,43.9 316.7,48.6 316.5,53.4 		"/>
		<line class="st1" x1="283.6" y1="97.8" x2="286.3" y2="97"/>
		<line class="st1" x1="313.4" y1="38.3" x2="316.9" y2="39.2"/>
		<polyline class="st1" points="213.7,33.4 218,34.1 222.1,34.6 226.4,35.2 230.6,35.8 234.8,36.3 239.1,36.7 243.3,37.2
			247.6,37.6 251.9,38 256.1,38.3 260.4,38.6 264.8,38.9 269.1,39.1 273.4,39.3 277.7,39.4 282,39.5 286.4,39.6 290.8,39.7
			295.1,39.7 299.5,39.7 303.8,39.6 308.2,39.5 312.6,39.4 316.9,39.2 		"/>
		<polyline class="st1" points="319.6,51 318.3,45.1 316.9,39.2 		"/>
		<polyline class="st1" points="299.7,72.5 301.7,68.8 303.7,65.1 305.7,61.4 307.7,57.7 309.6,54 311.5,50.3 313.3,46.6
			315.2,42.9 316.9,39.2 		"/>
		<polyline class="st1" points="280.4,170.7 282,166.6 283.4,162.6 284.9,158.5 286.4,154.4 287.8,150.3 289.2,146.2 290.5,142.2
			291.9,138.1 293.2,133.9 294.5,129.8 295.8,125.7 297.1,121.6 298.3,117.4 299.5,113.4 300.7,109.2 301.8,105.1 302.9,101
			304,96.8 305.1,92.7 306.2,88.6 307.2,84.4 308.2,80.3 309.2,76.2 310.1,72.1 311.1,67.9 312,63.8 312.8,59.7 313.7,55.6
			314.6,51.5 315.4,47.4 316.2,43.3 316.9,39.2 		"/>
		<polyline class="st1" points="59.2,12.8 63.4,14 67.6,15.1 71.7,16.3 76,17.4 80.1,18.5 84.4,19.5 88.6,20.5 92.8,21.4 97.1,22.4
			101.3,23.3 105.6,24.1 109.9,24.9 114.1,25.7 118.4,26.4 122.8,27.1 127,27.8 131.3,28.4 135.6,29 140,29.6 144.3,30.1
			148.6,30.6 152.9,31 157.2,31.4 161.6,31.8 165.9,32.2 170.3,32.5 174.6,32.7 178.9,33 183.3,33.1 187.6,33.3 192,33.4
			196.4,33.4 200.7,33.5 205.1,33.5 209.4,33.4 213.7,33.4 		"/>
		<polyline class="st1" points="316.5,53.4 312.4,54.5 308.4,55.6 304.3,56.6 300.2,57.7 296.1,58.6 292,59.6 287.9,60.6
			283.8,61.4 279.6,62.3 275.6,63.2 271.4,64 267.2,64.7 263.1,65.5 258.9,66.2 254.8,66.9 250.6,67.5 246.4,68.2 242.2,68.7
			238,69.3 233.8,69.8 229.6,70.2 225.3,70.7 221.2,71.1 216.9,71.5 212.7,71.8 208.4,72.2 204.2,72.5 200,72.7 195.7,73
			191.5,73.1 187.2,73.3 182.9,73.4 178.7,73.5 174.4,73.6 170.1,73.6 165.9,73.6 161.6,73.5 157.3,73.5 153.1,73.4 148.8,73.2
			144.5,73 140.3,72.9 136,72.6 131.7,72.3 127.5,72.1 123.2,71.7 118.9,71.4 114.7,71 110.4,70.5 106.1,70 		"/>
		<line class="st1" x1="286.3" y1="97" x2="283.6" y2="97.8"/>
		<polyline class="st1" points="54.4,27 57.4,29.8 60.4,32.6 63.5,35.4 66.6,38.2 69.7,41 72.8,43.7 76,46.4 79.2,49.1 82.5,51.8
			85.8,54.5 89.1,57.1 92.4,59.8 95.8,62.3 99.2,64.9 102.7,67.5 106.1,70 		"/>
		<polyline class="st1" points="106.1,70 110.4,70.5 114.7,71 118.9,71.4 123.2,71.7 127.5,72.1 131.7,72.3 136,72.6 140.3,72.9
			144.5,73 148.8,73.2 153.1,73.4 157.3,73.5 161.6,73.5 165.9,73.6 170.1,73.6 174.4,73.6 178.7,73.5 182.9,73.4 187.2,73.3
			191.5,73.1 195.7,73 200,72.7 204.2,72.5 208.4,72.2 212.7,71.8 216.9,71.5 221.2,71.1 225.3,70.7 229.6,70.2 233.8,69.8
			238,69.3 242.2,68.7 246.4,68.2 250.6,67.5 254.8,66.9 258.9,66.2 263.1,65.5 267.2,64.7 271.4,64 275.6,63.2 279.6,62.3
			283.8,61.4 287.9,60.6 292,59.6 296.1,58.6 300.2,57.7 304.3,56.6 308.4,55.6 312.4,54.5 316.5,53.4 		"/>
		<polyline class="st1" points="106.1,70 102.7,67.5 99.2,64.9 95.8,62.3 92.4,59.8 89.1,57.1 85.8,54.5 82.5,51.8 79.2,49.1
			76,46.4 72.8,43.7 69.7,41 66.6,38.2 63.5,35.4 60.4,32.6 57.4,29.8 54.4,27 		"/>
		<polyline class="st1" points="51.2,104.6 55,102.4 58.8,100.2 62.7,98.1 66.4,95.8 70.2,93.6 73.9,91.4 77.6,89 81.2,86.7
			84.9,84.4 88.5,82.1 92.1,79.7 95.6,77.3 99.2,74.9 102.7,72.5 106.1,70 		"/>
		<line class="st1" x1="320.1" y1="53.5" x2="316.5" y2="53.4"/>
	</g>
	<ellipse class="st2" cx="106.4" cy="70.2" rx="2.9" ry="2.9"/>
	<ellipse class="st2" cx="213.5" cy="33.4" rx="2.9" ry="2.9"/>
	<ellipse class="st2" cx="282.2" cy="97" rx="2.9" ry="2.9"/>
	<ellipse class="st2" cx="287.6" cy="97" rx="2.9" ry="2.9"/>
	<ellipse class="st2" cx="280.3" cy="170.7" rx="2.9" ry="2.9"/>
	<ellipse class="st2" cx="299.8" cy="72.6" rx="2.9" ry="2.9"/>
	<ellipse class="st2" cx="316.5" cy="53.4" rx="2.9" ry="2.9"/>
	<ellipse class="st2" cx="319.8" cy="53.8" rx="2.9" ry="2.9"/>
	<ellipse class="st2" cx="319.8" cy="51.4" rx="2.9" ry="2.9"/>
	<ellipse class="st2" cx="312.7" cy="38" rx="2.9" ry="2.9"/>
	<ellipse class="st2" cx="316.8" cy="39.4" rx="2.9" ry="2.9"/>
	<ellipse class="st2" cx="331.6" cy="34.6" rx="2.9" ry="2.9"/>
	<ellipse class="st2" cx="53.4" cy="26.9" rx="2.9" ry="2.9"/>
	<ellipse class="st2" cx="59.2" cy="12.6" rx="2.9" ry="2.9"/>
	<ellipse class="st2" cx="51.4" cy="104.2" rx="2.9" ry="2.9"/>
</g>
<text transform="matrix(1 0 0 1 79.3998 242.0179)" class="st2 st3 st4">Environment</text>
</svg>
