<?xml version="1.0" encoding="utf-8"?>
<!-- Generator: Adobe Illustrator 23.1.1, SVG Export Plug-In . SVG Version: 6.00 Build 0)  -->
<svg version="1.1" id="Layer_1" xmlns="http://www.w3.org/2000/svg" xmlns:xlink="http://www.w3.org/1999/xlink" x="0px" y="0px"
	 viewBox="0 0 643 193.7" style="enable-background:new 0 0 643 193.7;" xml:space="preserve">
<style type="text/css">
	.st0{fill:#707589;}
	.st1{fill:none;stroke:#FFFFFF;stroke-width:0.856;stroke-linejoin:round;stroke-miterlimit:10;}
	.st2{fill:#FFFFFF;}
	.st3{font-family:'Roboto';}
	.st4{font-size:60px;}
</style>
<g id="map">
	<path class="st0" d="M34.4,171.2c0.6,1.1,0.5,1.8-0.9,2.2c-0.9,0.3-1.7,1-2.5,1.5c-0.5,0.3-1,0.5-1.7,0.8c0.2-2.2,0-4.2,2-5.4
		c-1.3,0.1-1.8,0.6-2.6,2.2c-0.6,1-1.4,2-2.1,3.2c0.2,0.2,0.6,0.4,1.1,0.9c-3.4,3.6-7,6.7-11.4,9.1c-0.5-0.6-1.2-0.4-2.2,0.2
		c-1.2,0.7-2.8,1-4.2,1.4c-0.1-0.2-0.2-0.4-0.3-0.6c0.6-0.4,1.4-0.7,2-1.1c0.6-0.3,1.4-0.6,2.1-1c0.5-0.2,0.8-0.8,1.3-0.8
		c2.3-0.2,3.8-1.8,5.3-3.3c0.8-0.9,1.1-2.1,1.9-3.6c-1.2,0.2-1.8,0.2-2.8,0.3c-1-1.1-1-1.6-3.7-0.5c0-1.3,0-2.5,0-3.8
		c-2.7,0.5-3.4-0.2-3.7-2.9c-0.2-1.1-1.2-2.2-0.2-3.4c0.6-0.7,1-1.7,1.8-2.2c0.4-0.3,1.3-0.2,1.9-0.1c0.9-0.4,2.1-0.6,2.6-1.2
		c0.5-0.6,0.2-1.8,0.2-2.5c-1.3,0-2.7,0-4.2,0c-1.1,0-1.8-0.5-2-1.8c-0.1-0.7-0.6-1.4-1.1-2.2c1.5-0.6,3-1.2,4.8-1.9
		c0.2,1.8,1,2.2,2.6,1.7c-1.3-1.8-2.6-3.6-3.7-5.4c-0.2-0.4-0.6-1-0.4-1.4c0.2-0.4,0.9-0.6,1.4-0.9c0.6-0.2,1.5-0.2,1.7-0.6
		c0.7-1.8,2.1-2.6,3.6-3.3c1-0.5,2.2-0.9,3.7-1.4c1,0.5,2.4,1.5,3.9,1.8c2.2,0.5,4.6,0.7,7,0.6c1.8-0.1,3.2,0.4,3.6,2.2
		c1.5,7.5,3,15,4.6,22.8c0.7-0.2,1.4-0.4,1.9-0.5c1.2,1,2.3,1.8,3.4,2.6c0.7-0.9,1.4-2.3,2-2.3c0.9,0,1.8,1,2.6,1.7
		c0.9,0.6,1.8,1.3,2.5,2.1c1.3,1.4,2.6,2.6,4.6,2.9c1.3,0.2,1.8,2.2,1,3.8c-0.6,0.2-2-1.6-2.1,0.6c0,0-1.4,0.3-1.8,0
		c-1.1-1-2-2.2-3-3.5c-0.2,0.5-0.2,0.7-0.3,1.2c-1-1-1.7-2.1-2.6-2.8c-1.7-1.3-3.4-2.5-5.2-3.6c-2-1.2-4.2-1.1-6.6-1
		c-1.2,0.1-2.5-0.8-3.8-1.3c-0.6-0.2-1.2-0.2-1.8-0.4C34.5,170.9,34.4,171,34.4,171.2z"/>
	<path class="st0" d="M28.6,177.4c0.2,0.2,0.4,0.2,0.5,0.4c0.6,1.1-1.1,4-2.3,4.1c-0.3,0-0.9-0.3-1-0.6c-0.2-0.3-0.2-1,0-1.3
		c0.7-0.8,1.6-1.5,2.4-2.2C28.2,177.6,28.3,177.6,28.6,177.4z"/>
	<path class="st0" d="M9.3,162.7c-1.5,0.5-3.4-0.6-3.9-2.2C6.9,161.3,7.9,161.8,9.3,162.7z"/>
	<path class="st0" d="M9,170.9c0.7,0.2,1.4,0.2,2.2,0.4c-0.1,0.3-0.2,0.7-0.3,1c-0.6-0.2-1.4-0.4-2-0.6C8.9,171.5,8.9,171.2,9,170.9
		z"/>
	<path class="st0" d="M95.9,187.8c-0.8-0.2-1.8-0.6-1.4-2.3c0.1-0.4-0.1-0.9-0.3-1.3c-0.6-1.2-1-2.2,0.2-3.4
		c0.5-0.5,0.2-1.6,0.4-2.6c3.1,0.9,5.8,2.3,7.3,5.8C100.3,185.1,98.3,186.3,95.9,187.8z"/>
	<path class="st0" d="M91.4,176.1c-0.2-0.2-0.5-0.3-0.7-0.6c-0.4-0.4-0.8-0.9-1.2-1.4c-0.2-0.2-0.2-0.6-0.3-1c0.3-0.1,0.7-0.2,1-0.2
		c0.9,0.2,1.8,0.4,2.6,0.7c0.4,0.2,0.6,0.7,1,1c-0.4,0.3-0.8,0.6-1.2,0.9C92.3,175.8,91.9,175.9,91.4,176.1z"/>
	<path class="st0" d="M71.5,165c-0.8,0.6-1.4,1.3-1.8,1.2c-0.6-0.1-1.3-0.7-1.9-1.2c0.8-0.5,1.5-1,2.4-1.4
		C70.3,163.6,70.8,164.3,71.5,165z"/>
	<path class="st0" d="M80.6,167.5c0.1,1,0.3,1.8,0.2,2.6c0,0.2-1,0.6-1.2,0.5c-0.6-0.5-1-1.1-1.6-1.8
		C78.9,168.3,79.5,168.1,80.6,167.5z"/>
	<path class="st0" d="M122.4,159.5c0.4-0.3-0.2,1,0.6,0.7c-0.1,0.1-0.1,1.1,0.2,0.2c0.8,1.5,3.1,2.8,4,5.6c0.2,4.4,6.2,7.7,6.2,11.8
		c1.3,4.8,4.8,9.5,11,9.4c0.8,0.1,1.4,1,2.9,1h-0.1c0.8,0.6,1.8-1.5,1.3-0.5c-0.2-0.1-0.1-0.3-0.5,0.1c-0.3-1.9-2.1-4.2-1.4-9.1
		c-1,1-3.1-3.2-0.7-0.4l-0.1-0.2c0.5-0.2,1.4-1,0.4,0.2c0.7,0.6,1.6-1.5,1.8-2.8c-0.6,0.7-0.4-0.2-0.7-1c-0.1,0.1-0.6,0.3-1-0.3
		c0.9-0.5,4.2,1.9,2-1.4c0.1,0.1,0.8-0.3,0.3-0.6c1,0.9,2.2-1.8,1.8,0.3c1.4,0,0.2-2.4,1-1.8c-1.8-0.9,4.5,0.8,1.4-0.6
		c0.1-0.2-0.2-0.1,0.5-0.4c-0.3-0.6-1,0.2-1-1.3c0.1,0.2,0.5-0.4,0.6,0.4l0.2-0.1c0-0.2,0.2,1,0.4,0.2c-0.1-0.1,0.3,0.3-0.2,0.6
		c0.2,0.2-0.1,0.1,0.6-0.2c0.2,0.2-0.6-0.6-0.1-0.8c-0.1,0.2,0.5,1.3,0.8,0c0,0.1,0,0,0.1,0.3c0.1,0,0.1-0.1,0.4-0.5
		c0,0.2,0-0.1-0.2,0.9c-0.1-0.1,0.9,0.2-0.1,0.2c2.8-0.4,4.2-1.8-0.8,1.4c1-0.6,5.4-2.2,7.8-4.9c-1.6-0.4,2.4,0,1-4.7l-0.1,0.1
		c4.6-1.1-0.7,0.6,3.1,1.4c-4.2,2.5,2.6-1.4,6.1-1.8c1.8-1.2,9,3.7,9.1,0.4c1.2-4.4,5.8,5.8,10,3c-0.2-2.6,3.6,4.3,3.3-2.1
		c1.2-0.2,1,1.6,2.4,1.1c1.9,1.4,3,3.2,3.8,1c0.5-0.9-3.4-0.7-3.7-3.1c1.2-1,2.6-1.8,2.6-3.5c0.3-1.4-5.8,3.2-3.4,0.5
		c0-0.2,0.6-1.4-0.2-0.6c-0.1-0.1-0.1,0-0.1-0.3c-1.4,2.1-8.1-0.2-2-1.1c1,0.6,3.1,1.9,4.5-0.1c2-1.9,8.1,1.7,8.2-3.9
		c2.3,2.2-1.4,6.2,3.6,2.7c-1,1.2,2.4-0.2,1.5-1.6c0.7,0.8,2.9-0.2,0.2,1.5c1.3-0.9,10.1-1.7,4.2-0.8c0.5-0.2,5.6,2.3,4.7,0.9
		c-0.8,0.6-0.6-0.8,0.6-0.1c-0.1,0.2,0.1,0.2-0.2,0.5c-0.6,0.6,1.6-0.3,2.7,3.3c-0.4,0.2-0.4,0-0.5-1.3c-1.2,2.3,2.2,1,3.4,0.4
		c-1,0.8,4.6-1.7,2.7-1.6c0.2-0.2,0.4-0.5,0.9-1c0.8-1.6,11.4,6.3,11.6,9c0.2,1.6-1.9,7.1,0.9,6.9c-1.8-4.6,1,0,0.9-1.3
		c2-1.1-1.8,3.4-0.3,3.5c0.9,0.8,1.4,4.2,3.4,4.1c-1.4-1.3,0.9-1.4,0.3-0.9c0.5,2.5,0.6,2.5,3.7,7c0.1-0.9,9,5.9,3.9,4
		c0.1,2.3,3.6-0.1,5-0.1c0.6-1.4,0.2-3.1,1.2-4.8c1.3-9.4-10.4-23.5-13.8-33.8c0.1,0.3,1-4.8,0.2-2.4c-1.3-1.5,0.8,0.1-0.2-2.2
		c0.6,0,0.5-0.7,1.1-0.7c0.6-0.7-1.1-1.4,0.4-1.3c0.2-0.5,0.1-0.8-0.4-1.2c1.1-1.5,3.1-3,1.6-5.5c1.8,1.7,1.3,0.3,2.2-0.7v0.1
		c0.2-0.3,1.4,0.2,1.3-1c-0.3,0.6,6.1-4,5-6.5c0.6,1.8,0.9-3.3,3.9-4.2c0.6-1.1,3.4,0.3,3.1-2.2c0.2,2.6,2.5-6.7,3-4.6
		c-0.8,1.1,1.9,0.2,0.9-1.1c0.2,0.9,2.7,0,2.4-0.3c0.2-0.4,0.2-0.4,0.8,0.1c0.2-0.2,0.6-0.1,1.6-1.6c0.2-0.2-1.2-1.2-1.1-0.4
		c-1.2-0.3,0.5,0.7-1,0.3c0.1,0,0.5,0.5,0,0.4c-0.3-1-0.2,1.1-2.7-0.9c-0.3-1.7,2.6,3,2.9-1.7c1.4-0.3-1.1-0.8-1.7-0.6
		c-2.8-1.5,1,0.4,1.1-1c-1-0.3,0.2-0.5,0.8-0.6c-1.1,1.5,0.2,0.7,1.3,1.3c1-0.2,1.4-0.6,2-2.3c0.9,0.9,0.4-0.6,0.8-0.8
		c-0.4-0.6,0.2-1.2-1.2-1.8c0.2,0.2-0.3,0.1-0.1,0.5c-1.2-0.5,0.5,2.9-1.3,1.8c0.7,0.2,0.5-1.2,0.2-1.8c-0.6-1.5-4.2,3.8-4.5-2.2
		c0.4-0.1,1,3.9,1.9,1.6c0.9-0.2,0.5-1.1,1.6-0.6c0.6-0.5,0.6-0.4-0.3-1.1c0.6-0.3,1.9,1.3,1.1-0.3c0.6-0.1,0.5,0.9,1.3,1.3
		c0.1-1-3.6-4.1-1.4-2.8c0.1,0-0.8-2.1,0.2-0.5c-1-0.5,5.1,8.2,2.2,3.6c-1.5-1.1-2.2-8.5-5.9-5.2c-0.1-1.5-4.1-1.7-2.8-2.7
		c1,0.4,2.2,2,3.7,1.5c0-0.1,0.2-0.8-0.4-0.5v-0.1l0,0c0.5-0.6-3.4-1.2-3-2.6c2.5,3,1.5-0.2,3.1,0.9c-0.2-2.1-1.7-0.9-4.7-4.4
		c3.1,3.4,6.6,1.4,1.5-0.9c-0.9-0.2-2.1-0.2-2.7-1.6c-0.4-1.2,1.1,0.7,3.6,1.1c1.9,0.8,0.3-0.7-1.5-2.2c3.4,1.6,0.2,0.6,0.2-3.8
		c0.8,0,0.2-0.9-1-1.8c1-0.1,0.7,0.1,1.4-0.7c-0.5-0.8,0.7,0,0.6-0.8c1-0.1-0.2-1.2,1.1-1.5c0.1,0-0.1,0.3,0,0.8
		c0.5-1,1,0.5-0.7,1.3c-0.6,1.9,1.4,2.2-0.2,4.4c0.6-0.4,0.6,0.6,1.3-0.2c0.7,2.1-0.4-0.1-0.6,1.5c1.6-0.4-1.9,0.3,1.6,2
		c0-1.8,0.3,0.9,0.7-0.9c0.4,0.3,0.3,3.1,1.4,2.6c1-0.7-0.2,1.4-0.3,2.6c-0.6,0.5-0.4,6.2,0.6,1.7c0.4-5,4.3-4.6,1.6-9.5
		c0,0,1-0.2,0.2-0.5c0,0,0.2,0,0.2-0.3c2.3,1.5-5.1-4.7-3.6-6.6c-0.2,3.3,4.6,1.8,4.4,4.7c1.4-2.8,3.1-5.1,3-8.9
		c0.2,0.2,0.2,0.7,0.4,1.8c-0.1-1,0.5-3.5-0.6-5c0,0.2-0.1,0.1,0.1,0.5c-0.2-0.2-1,0.2-1.6-0.2c1.4-0.5,0.3-1.9,1.4-3.4l0.2,0.6
		c-0.1-0.1-0.1,0-0.2-0.2l0.6,0.2c-0.4-0.6,0.6-0.6,0.5-1.7c1,0.2,3.2-2.9,3.8-2.5c0.6-0.6,2.6-0.2,2.7-1.2c0.9,0.5,1-0.2,2.7-0.7
		v-0.3c0.4-0.2,0.9-0.3,1.8-1.3c0.1,0.9,0.5-3.8,0.7-0.5c0.6,1,0.5-1.2,0.8-0.2c0.1,0,0.2-0.3,0.5-0.7c-0.1,0.1,0.6,0.6,0.5,0
		c0.4,0.3,1.6-4.2,1.8-0.6c1.8-0.4,6.1-4,1.4-4c3.8,0.1-0.9,4.7-2,0.6c-0.3-0.6-0.8-1.2-2-1.6c0.3,1.1-1.5,0-0.7-0.5
		c2.2-4.5,0.3,1,0.2-5.4c1.4-0.5,0.6-5.8,2.6-6.2c0.9-1.1-0.2,2,1.7-1.3c1.2,0.9,0.1-0.7,1.8-1c0,2.8,1.3-7.3,1.4-3.5
		c0.2,0.2,0.3-0.7,0.6,0.1c0.1,0.1-0.8-0.2-0.4,0.3c-0.7,0.1,0.7,0.5,0.9,0.3c0.5,0.2,0.6-0.1,0.1-0.9c0.2-0.2,0.4-0.2,0.5-0.9
		c0.1,0.4,0.7,0.9,0.7-0.3c0.5,0.3,1-0.6,1.5,0.9c0.2-0.2,0.2-0.5,0.2-1.2c0.3,0.6,0.7,0.2,0.6-0.7c0.3-0.2,1.6,0.6,1.3-0.9
		c0,0.1,0.1-0.1,0.4,0.1c-0.1,0.2,0.2-0.9,0.2-0.1c0.4,0.2,0-1.6,0.6-0.5c0.5,0,1-0.8,1.1-1.8c-2,0.5,0.6-1.6-2-2.2
		c-1.3,1.6-0.6-2.5-3.1-2.7c-2.5-1.1-0.3-9-5.4-10.7c-5.9,5.5-4.6-7.2-7.8,8.8c-1.3,4.2,0.6,8.1-4.8,9.9c1.1,6.1-20.6-0.7-22.4,13.9
		l-0.2,0.3c0,1.6,1.8,2.5-3,5.9c-0.2-0.2-2.2-0.3-3,0.7c-1-1-9.9-0.9-7.3,3.3c2.1,0.6-1.4,4.2-5.2,6.9c-0.1,0,0.2-0.1,0.1-0.3
		c-7.4,4.5-7.8,8.3-18,6.1c0.2,0.2,3.1-10.3,3.9-7c1-2.4-0.6-17.4-6.7-6.6c-3.8-2.3,1.9-1.5,1.2-10.7c-8.3-7-9-5.1-11.9,3.1
		c-0.5-0.6,0.1-2,0.1-3.1c-2.2,2.2-4,5.3-4,9.5c-1,4.4,4.7,6.5,0.4,14.6c-7.7,10.1-9.4-13.6-4.6-22.4c0.9-0.4,0.5-3.2-0.2-0.7
		c-0.6-0.1-1,1.3-1.1,2.5c-1.1-1-1.4,1.4-3.2,2.6c-0.8,0.8,5.4-13,4.8-8.9c4-3.8-0.6,2.2,3.1-0.9c1.3-3.2,8.2-1.8,12.5-2.6
		c-2.9-5.4-7.1-0.5-5.9-5c-5.3,0.3-10.3,5.8-14.2,0.8c-1.8-0.6-2.1-1.5-3.8,0.8c-0.2-0.3,0.2-1,0-1.8c1-0.4,1.2-2.6,3.2-3.1
		c-3.2-2.2-9.6,7.4-15.4,5.9c2.8-5.5-3,0.9-6.1-0.8c1.4-1.8,7.7-7.5,13-9.6c-6.2-1-11.4,0.2-16.2-2.6c1-2.7-6.2,1.2-9.9-2.6
		c-0.3-1.1,0.1-4.1-2.3-3.8c-38.1,8.2-91.6-6.2-134.7-16V2c-1,0.2,0.7,1.7,0.6,2c0.2,0.2,0.2,2-0.8,1.6c0.2-0.9-1.1,0.3,0.1,0.2
		c0.8,0.8-0.2,2.3,1,3.1c-0.6,0.3-1.1,1.2-1.8,2.2c0.2,0.6-0.1,1.8-0.7,2.9c0,0-0.2-0.1-0.5-0.6c-0.1,0.2-1.2,2-1.8,0.6l-0.1,0.3
		c-0.1,0.1,0.2-0.2-0.3-0.2c-0.1,0.2,0,0.1-0.2,0.7c-0.4,0.2,0.3-0.6-0.5-0.5c0.1,0,0,0,0.5-0.4c-0.2-0.1-0.1-0.2-0.7,0.2
		c0,0-0.1-0.2,0.5-0.5l-0.5-0.2c0,0.2,0-0.4,0.4-0.2l-0.2,0.2c0.2,0.1,1-0.2,1.4-0.9c0.2,1-1,2,1,0.2c0,0.2-0.8,0.6,0.1,1
		c-0.2-1,1.8-1.3,0.1-2.2c0-0.1-0.2-0.1,0-0.4c0.6,0.6,0.2,0.1,0.5-0.7c0-0.2,0.1,0.7,0.5,0c0.2,0.6,0.8-0.6,0-1.4
		c-0.2,0.1,0.1,0.2-0.1,0.9c0.6-0.5-5.9,2.8-2.1,2.3c-3,0.9-0.7-1,0.6-2.7l0.2,0.3c0-0.1,0.1,0.1,0.2-0.4c0,0.2,0.2,0.2-0.1,0.6
		c0.6-0.3,1.4-0.8,1-2.2v0.6l-0.1-0.2l-0.2,0.2c0.1-1,0.3-0.9-0.6,0.1c0,0,0.3-0.4-0.2-0.8c-0.1,0,0.1,0.1-0.2,0.3
		C24,6.6,21,6.7,17,3.2c-1,3,0.7,6.2-0.1,10.5c0.5-0.5,0.3-0.5,1.6,0.4c0.2,0.2-1.3-0.2-1.4,0.6c-0.2,0,0-0.2-0.3-0.6
		c-0.3,1-0.1,1.3,1,1.8c-0.1-0.2-0.3,0.3-0.8,0.4c-0.1-0.2,0.5,1.8-0.7,1.8c-0.2,0.2,0.5-0.8,0.2-1.9c-0.2,0.2-0.4,1.2-0.6,2.3
		c0.4,0.4,2.8,0.3,3,1.7c-0.5-0.6-1.1,0-2.2-0.6c0,0,0.1,0.1,0.2,0.4c-0.3,0.2-0.2-0.6-1-0.7c0.5,1.5-1.2,2.9-0.9,5.3
		c-2.7,7.1-10.8,17.5-9.1,27l-0.2-0.1c0.2,0.8-0.3,1.1-0.9,2.5l-0.2-0.2c0.3,3.1-5,1.7-1.3,10.7c-2.4,3.7,1.2,9.6,1.4,12.1
		c0.3,0.3-1.3,2.2,0.1,1.1c0,0.4,0.5,0.7,1,1.4c1.4,1.2,1,0.9,1.5-1.1c-0.1,0-0.1,0-0.2-0.2c0.8,0,1.1,0.1,1.8,1.2
		c-0.2-0.1,0-0.1-0.6-0.2h0.1c-1.7-0.1-0.6,2.7,0.3,4.6c-0.4,0.2-2.6-1.8-1.6-2.4c-0.1-0.2,0.2-0.5-0.3-0.7
		c-1.9,2.3-0.9,5.1,1.7,7.8c-4.1,3.1,2.6,9,2.2,12.4c3.7,3-4.6,5.1,5.3,7.9c5.1,4,12.2,9,12.2,16.4c-0.5-0.2-0.2-0.9-0.3,0.6
		c4.3,0.5,9.1,1,14.6,1.6c-3.6,0.6,17.7,15.4,31.8,15.7c5.8,2,10.5-5.2,18.2-0.1c1.4,3.5,5.7,5.8,8.2,9.6c0.9,1.8,0,7,5.9,9.9
		c2.3,0.6,2.3,3.6,5.8,0.5c-0.2-0.6,0.6-1.6,1-2.8l0.2,0.1c1.3-2.5,4.7-1,7.7-0.6C121.9,159.1,122,159.7,122.4,159.5z"/>
	<path class="st0" d="M296.6,59c-0.3,0.1-0.3,0-1-0.1c-0.2-0.8-0.2,0.9-1,0.9C294.3,60.3,296.4,59.8,296.6,59z"/>
	<path class="st0" d="M298.9,59.4c-1.4-0.2-0.2,0.9,0.6-0.2c-0.2-0.4-1-0.8-0.4-0.2C299.1,59,299.2,59.2,298.9,59.4z"/>
	<polygon class="st0" points="278.9,67.6 278.8,67.4 278.9,67.4 278.8,67.4 278.7,67.4 278.7,67.7 278.6,67.9 278.5,68.3
		278.6,68.4 278.7,68.3 278.7,68.2 278.8,68.1 278.8,68 278.8,67.8 278.9,67.7 	"/>
	<polygon class="st0" points="277.5,70.2 277.7,70.2 277.9,70 278,69.8 278.2,69.6 278.4,69.3 278.5,69.1 278.2,68.8 277.7,69.1
		"/>
	<path class="st0" d="M286.5,65.2l0.2,0.2c-0.1,0,0.1,0.2-0.4,0.2c-0.6-0.6,0.1-1.3,1.1-2.5c-1.4,1.7-4.9,2.5-6.3,3.4
		c0-0.3-0.8-0.2-0.7,0.6c-0.4-0.6-0.3,0.9-0.8,0.3c-2.8,3.1,1.8,0.2-0.2,1.8c1-0.4,2.6-1.3,3.8-2.2c1.8-0.4,4.4-2.6-0.1,0.9
		c1.5-0.9,9.7-6.1,4.1-3.9C286.9,64.3,287.1,64.7,286.5,65.2z"/>
	<path class="st0" d="M25.3,4.4c0,0,0.1,0.2,0.3,0.5c-0.2,0,0,0.2-0.2,0.6C24.9,5.5,24.6,3.2,25.3,4.4z"/>
	<path class="st0" d="M25.9,5.8c0-0.3-0.5-0.5,0.2-1C25.9,5.1,26.7,5.9,25.9,5.8z"/>
	<path class="st0" d="M26.6,4.5c-0.2,0.1,0.1-0.2-0.3-0.6c0,0.1-0.1,0,0,0.6c-0.2,0.2,0-0.4-0.6-0.2c-0.1-0.1,0.2-0.2,0.6-0.6
		C26.3,3.7,27.4,4.1,26.6,4.5z"/>
	<path class="st0" d="M26.2,7.6c0.1-0.1-0.2,0.2,0.4,0.3c-0.7,1.4,2.6,3.8-0.3-0.6c-0.1-0.2,0.2,0.2,0.4-0.3
		c0.1,0.1,0.1,0.1,0.7,0.1c0.2-0.1-0.3-0.4-0.2-0.7C27.1,6.2,25.8,6.5,26.2,7.6z"/>
</g>
<g id="constellation">
	<g>
		<g>
			<g>
				<polyline class="st1" points="271.1,70.2 276.1,67.3 281.1,64.3 				"/>
			</g>
		</g>
		<g>
			<g>
				<polyline class="st1" points="105.8,82.4 110,82.7 114.3,83 118.6,83.2 122.8,83.4 127.1,83.6 131.4,83.8 135.7,83.8
					139.9,83.9 144.3,84 148.5,84 152.7,84 157.1,83.9 161.3,83.8 165.6,83.7 169.9,83.5 174.1,83.4 178.4,83.1 182.7,82.9
					186.9,82.6 191.1,82.3 195.4,81.9 199.7,81.6 203.9,81.1 208.2,80.7 212.4,80.2 216.6,79.8 220.8,79.2 225.1,78.6 229.3,78
					233.5,77.4 237.7,76.7 241.9,76 246.1,75.3 250.3,74.5 254.4,73.7 258.6,72.9 262.8,72 266.9,71.1 271.1,70.2 				"/>
			</g>
		</g>
		<g>
			<g>
				<polyline class="st1" points="281.1,64.3 276.1,67.3 271.1,70.2 				"/>
			</g>
		</g>
		<g>
			<g>
				<line class="st1" x1="248.8" y1="178" x2="243.9" y2="172.9"/>
			</g>
		</g>
		<g>
			<g>
				<polyline class="st1" points="254.7,131.1 253.7,135.4 252.7,139.5 251.6,143.8 250.7,147.9 249.5,152.1 248.5,156.2
					247.4,160.5 246.3,164.6 245.1,168.7 243.9,172.9 				"/>
			</g>
		</g>
		<g>
			<g>
				<polyline class="st1" points="223.7,84 225.1,88 226.5,92 227.9,96 229.3,100.1 230.7,104.1 232.2,108.1 233.6,112.1
					235.1,116.1 236.6,120.1 238.1,124.1 239.6,128.1 241.1,132.1 242.7,136.1 244.3,140.1 245.8,144.1 247.4,148 249,152
					250.6,155.9 252.2,159.9 253.8,163.8 255.5,167.8 257.1,171.7 258.7,175.6 260.4,179.5 				"/>
			</g>
		</g>
		<g>
			<g>
				<polyline class="st1" points="260.4,179.5 256,178.2 251.7,176.7 247.3,175.3 243,173.8 238.7,172.3 234.3,170.8 230.1,169.2
					225.9,167.6 221.6,166 217.4,164.3 213.2,162.6 209.1,161 204.9,159.2 200.8,157.4 196.7,155.7 192.7,153.8 188.7,152
					184.6,150.2 180.7,148.2 176.7,146.3 172.7,144.4 168.8,142.4 164.9,140.4 161.1,138.4 157.2,136.3 153.4,134.2 149.6,132.2
					145.9,130.1 142.1,127.9 138.4,125.8 134.7,123.5 131.1,121.4 127.5,119.1 123.8,116.9 120.3,114.6 116.7,112.2 113.1,109.9
					109.7,107.6 106.2,105.3 102.7,102.9 99.4,100.5 95.9,98.1 92.6,95.6 89.3,93.1 86,90.6 82.7,88.2 79.5,85.7 76.3,83.1
					73.1,80.6 69.9,78 66.7,75.4 63.7,72.8 60.6,70.2 57.5,67.6 54.5,65 51.5,62.2 48.6,59.6 45.6,56.9 42.7,54.2 39.9,51.4
					37.1,48.7 34.3,46 31.5,43.2 28.7,40.5 25.9,37.7 23.3,34.9 20.6,32.1 17.9,29.3 				"/>
			</g>
		</g>
		<g>
			<g>
				<polyline class="st1" points="260.4,179.5 258.7,175.6 257.1,171.7 255.5,167.8 253.8,163.8 252.2,159.9 250.6,155.9 249,152
					247.4,148 245.8,144.1 244.3,140.1 242.7,136.1 241.1,132.1 239.6,128.1 238.1,124.1 236.6,120.1 235.1,116.1 233.6,112.1
					232.2,108.1 230.7,104.1 229.3,100.1 227.9,96 226.5,92 225.1,88 223.7,84 				"/>
			</g>
		</g>
		<g>
			<g>
				<polyline class="st1" points="260.4,179.5 260.7,175.3 261,171.1 261.2,166.9 261.5,162.6 261.7,158.4 261.9,154.2 262.2,149.9
					262.3,145.7 262.6,141.4 262.7,137.2 262.9,133 263.1,128.7 263.1,124.5 263.3,120.2 263.4,115.9 263.5,111.7 263.6,107.4
					263.7,103.2 263.8,99 263.8,94.7 				"/>
			</g>
		</g>
		<g>
			<g>
				<line class="st1" x1="243.9" y1="172.9" x2="248.8" y2="178"/>
			</g>
		</g>
		<g>
			<g>
				<polyline class="st1" points="157.5,76.5 160,79.6 162.5,82.8 165,85.9 167.5,89 170.2,92.2 172.7,95.3 175.4,98.4 178.1,101.5
					180.7,104.6 183.5,107.7 186.3,110.7 189,113.8 191.9,116.8 194.7,119.8 197.5,122.8 200.4,125.8 203.3,128.8 206.3,131.8
					209.2,134.7 212.3,137.6 215.3,140.6 218.3,143.4 221.4,146.3 224.5,149.2 227.6,152 230.8,154.9 234,157.7 237.2,160.5
					240.4,163.3 243.7,166 247,168.8 250.3,171.5 253.7,174.2 257.1,176.9 260.4,179.5 				"/>
			</g>
		</g>
		<g>
			<g>
				<polyline class="st1" points="24.6,71.8 28.8,72.7 33,73.5 37.2,74.3 41.5,75 45.7,75.8 49.9,76.5 54.1,77.1 58.3,77.7
					62.6,78.3 66.8,78.9 71.1,79.4 75.3,79.8 79.5,80.3 83.8,80.7 88,81.1 92.3,81.4 96.6,81.8 100.8,82.1 105.1,82.3 109.3,82.6
					113.5,82.8 117.9,83 122.1,83 126.3,83.1 130.6,83.2 134.8,83.3 139.1,83.3 143.3,83.2 147.6,83.1 151.9,83 156.1,83
					160.3,82.8 164.6,82.6 168.7,82.3 173,82.1 177.2,81.8 181.5,81.5 185.7,81.1 189.9,80.7 194.1,80.3 198.3,79.8 202.5,79.4
					206.7,78.9 210.9,78.3 215.1,77.8 219.2,77.1 223.5,76.6 227.6,75.8 231.8,75.1 235.9,74.4 240,73.7 244.2,72.9 248.3,72
					252.4,71.2 256.5,70.3 260.7,69.4 264.7,68.4 268.8,67.4 272.9,66.4 277,65.4 281.1,64.3 				"/>
			</g>
		</g>
		<g>
			<g>
				<polyline class="st1" points="263.8,94.7 263.8,99 263.7,103.2 263.6,107.4 263.5,111.7 263.4,115.9 263.3,120.2 263.1,124.5
					263.1,128.7 262.9,133 262.7,137.2 262.6,141.4 262.3,145.7 262.2,149.9 261.9,154.2 261.7,158.4 261.5,162.6 261.2,166.9
					261,171.1 260.7,175.3 260.4,179.5 				"/>
			</g>
		</g>
		<g>
			<g>
				<polyline class="st1" points="17.9,29.3 20.6,32.1 23.3,34.9 25.9,37.7 28.7,40.5 31.5,43.2 34.3,46 37.1,48.7 39.9,51.4
					42.7,54.2 45.6,56.9 48.6,59.6 51.5,62.2 54.5,65 57.5,67.6 60.6,70.2 63.7,72.8 66.7,75.4 69.9,78 73.1,80.6 76.3,83.1
					79.5,85.7 82.7,88.2 86,90.6 89.3,93.1 92.6,95.6 95.9,98.1 99.4,100.5 102.7,102.9 106.2,105.3 109.7,107.6 113.1,109.9
					116.7,112.2 120.3,114.6 123.8,116.9 127.5,119.1 131.1,121.4 134.7,123.5 138.4,125.8 142.1,127.9 145.9,130.1 149.6,132.2
					153.4,134.2 157.2,136.3 161.1,138.4 164.9,140.4 168.8,142.4 172.7,144.4 176.7,146.3 180.7,148.2 184.6,150.2 188.7,152
					192.7,153.8 196.7,155.7 200.8,157.4 204.9,159.2 209.1,161 213.2,162.6 217.4,164.3 221.6,166 225.9,167.6 230.1,169.2
					234.3,170.8 238.7,172.3 243,173.8 247.3,175.3 251.7,176.7 256,178.2 260.4,179.5 				"/>
			</g>
		</g>
		<g>
			<g>
				<polyline class="st1" points="6.6,75.8 9.8,78.1 13.1,80.4 16.3,82.7 19.5,85 22.8,87.2 26.2,89.4 29.5,91.6 32.9,93.8 36.3,96
					39.6,98.1 43.1,100.2 46.5,102.3 50,104.4 53.5,106.5 57.1,108.6 60.6,110.6 64.1,112.6 67.7,114.6 71.3,116.5 74.9,118.4
					78.6,120.3 82.3,122.2 85.9,124.1 89.6,125.9 93.4,127.8 97.1,129.6 100.9,131.4 104.7,133.1 108.5,134.8 112.3,136.6
					116.2,138.2 120,139.8 123.9,141.5 127.9,143.1 131.8,144.6 135.7,146.2 139.7,147.8 143.7,149.3 147.7,150.7 151.7,152.2
					155.8,153.6 159.8,155 163.9,156.4 167.9,157.8 172.1,159 176.2,160.3 180.3,161.6 184.5,162.9 188.7,164.1 192.9,165.3
					197.1,166.4 201.3,167.5 205.5,168.6 209.9,169.7 214.1,170.7 218.4,171.8 222.7,172.7 227.1,173.7 231.4,174.6 235.7,175.5
					240.1,176.3 244.4,177.2 248.8,178 				"/>
			</g>
		</g>
	</g>
	<ellipse class="st2" cx="158.3" cy="76.6" rx="2.9" ry="2.9"/>
	<ellipse class="st2" cx="105.9" cy="82.2" rx="2.9" ry="2.9"/>
	<ellipse class="st2" cx="24.3" cy="71.8" rx="2.9" ry="2.9"/>
	<ellipse class="st2" cx="18" cy="29.4" rx="2.9" ry="2.9"/>
	<ellipse class="st2" cx="6.9" cy="76.6" rx="2.9" ry="2.9"/>
	<ellipse class="st2" cx="223.1" cy="97.1" rx="2.9" ry="2.9"/>
	<ellipse class="st2" cx="263.7" cy="95.2" rx="2.9" ry="2.9"/>
	<ellipse class="st2" cx="280.6" cy="64.7" rx="2.9" ry="2.9"/>
	<ellipse class="st2" cx="271" cy="70.2" rx="2.9" ry="2.9"/>
	<ellipse class="st2" cx="254.2" cy="132.3" rx="2.9" ry="2.9"/>
	<ellipse class="st2" cx="261" cy="179.7" rx="2.9" ry="2.9"/>
	<ellipse class="st2" cx="248.6" cy="177.9" rx="2.9" ry="2.9"/>
	<ellipse class="st2" cx="244.1" cy="173.2" rx="2.9" ry="2.9"/>
	<ellipse class="st2" cx="223.6" cy="84.2" rx="2.9" ry="2.9"/>
</g>
<text transform="matrix(1 0 0 1 421.3196 115.6758)" class="st2 st3 st4">Guns</text>
</svg>
