<?xml version="1.0" encoding="utf-8"?>
<!-- Generator: Adobe Illustrator 23.1.1, SVG Export Plug-In . SVG Version: 6.00 Build 0)  -->
<svg version="1.1" id="Layer_1" xmlns="http://www.w3.org/2000/svg" xmlns:xlink="http://www.w3.org/1999/xlink" x="0px" y="0px"
	 viewBox="0 0 382.3 257" style="enable-background:new 0 0 382.3 257;" xml:space="preserve">
<style type="text/css">
	.st0{fill:#707589;}
	.st1{fill:none;stroke:#FFFFFF;stroke-width:0.856;stroke-linejoin:round;stroke-miterlimit:10;}
	.st2{fill:#FFFFFF;}
	.st3{font-family:'Roboto';}
	.st4{font-size:40px;}
</style>
<g id="map">
	<path class="st0" d="M72.5,171.1c0.6,1.1,0.5,1.8-0.9,2.2c-0.9,0.3-1.7,1-2.5,1.5c-0.5,0.3-1,0.5-1.7,0.8c0.2-2.2,0-4.2,2-5.4
		c-1.3,0.1-1.8,0.6-2.6,2.2c-0.6,1-1.4,2-2.1,3.2c0.2,0.2,0.6,0.4,1.1,0.9c-3.4,3.6-7,6.7-11.4,9.1c-0.5-0.6-1.2-0.4-2.2,0.2
		c-1.2,0.7-2.8,1-4.2,1.4c-0.1-0.2-0.2-0.4-0.3-0.6c0.6-0.4,1.4-0.7,2-1.1c0.6-0.3,1.4-0.6,2.1-1c0.5-0.2,0.8-0.8,1.3-0.8
		c2.3-0.2,3.8-1.8,5.3-3.3c0.8-0.9,1.1-2.1,1.9-3.6c-1.2,0.2-1.8,0.2-2.8,0.3c-1-1.1-1-1.6-3.7-0.5c0-1.3,0-2.5,0-3.8
		c-2.7,0.5-3.4-0.2-3.7-2.9c-0.2-1.1-1.2-2.2-0.2-3.4c0.6-0.7,1-1.7,1.8-2.2c0.4-0.3,1.3-0.2,1.9-0.1c0.9-0.4,2.1-0.6,2.6-1.2
		c0.5-0.6,0.2-1.8,0.2-2.5c-1.3,0-2.7,0-4.2,0c-1.1,0-1.8-0.5-2-1.8c-0.1-0.7-0.6-1.4-1.1-2.2c1.5-0.6,3-1.2,4.8-1.9
		c0.2,1.8,1,2.2,2.6,1.7c-1.3-1.8-2.6-3.6-3.7-5.4c-0.2-0.4-0.6-1-0.4-1.4c0.2-0.4,0.9-0.6,1.4-0.9c0.6-0.2,1.5-0.2,1.7-0.6
		c0.7-1.8,2.1-2.6,3.6-3.3c1-0.5,2.2-0.9,3.7-1.4c1,0.5,2.4,1.5,3.9,1.8c2.2,0.5,4.6,0.7,7,0.6c1.8-0.1,3.2,0.4,3.6,2.2
		c1.5,7.5,3,15,4.6,22.8c0.7-0.2,1.4-0.4,1.9-0.5c1.2,1,2.3,1.8,3.4,2.6c0.7-0.9,1.4-2.3,2-2.3c0.9,0,1.8,1,2.6,1.7
		c0.9,0.6,1.8,1.3,2.5,2.1c1.3,1.4,2.6,2.6,4.6,2.9c1.3,0.2,1.8,2.2,1,3.8c-0.6,0.2-2-1.6-2.1,0.6c0,0-1.4,0.3-1.8,0
		c-1.1-1-2-2.2-3-3.5c-0.2,0.5-0.2,0.7-0.3,1.2c-1-1-1.7-2.1-2.6-2.8c-1.7-1.3-3.4-2.5-5.2-3.6c-2-1.2-4.2-1.1-6.6-1
		c-1.2,0.1-2.5-0.8-3.8-1.3c-0.6-0.2-1.2-0.2-1.8-0.4C72.6,170.8,72.5,170.9,72.5,171.1z"/>
	<path class="st0" d="M66.7,177.3c0.2,0.2,0.4,0.2,0.5,0.4c0.6,1.1-1.1,4-2.3,4.1c-0.3,0-0.9-0.3-1-0.6c-0.2-0.3-0.2-1,0-1.3
		c0.7-0.8,1.6-1.5,2.4-2.2C66.3,177.5,66.4,177.5,66.7,177.3z"/>
	<path class="st0" d="M47.4,162.6c-1.5,0.5-3.4-0.6-3.9-2.2C45,161.2,46,161.7,47.4,162.6z"/>
	<path class="st0" d="M47.1,170.8c0.7,0.2,1.4,0.2,2.2,0.4c-0.1,0.3-0.2,0.7-0.3,1c-0.6-0.2-1.4-0.4-2-0.6
		C47,171.4,47,171.1,47.1,170.8z"/>
	<path class="st0" d="M134,187.7c-0.8-0.2-1.8-0.6-1.4-2.3c0.1-0.4-0.1-0.9-0.3-1.3c-0.6-1.2-1-2.2,0.2-3.4c0.5-0.5,0.2-1.6,0.4-2.6
		c3.1,0.9,5.8,2.3,7.3,5.8C138.4,185,136.4,186.2,134,187.7z"/>
	<path class="st0" d="M129.5,176c-0.2-0.2-0.5-0.3-0.7-0.6c-0.4-0.4-0.8-0.9-1.2-1.4c-0.2-0.2-0.2-0.6-0.3-1c0.3-0.1,0.7-0.2,1-0.2
		c0.9,0.2,1.8,0.4,2.6,0.7c0.4,0.2,0.6,0.7,1,1c-0.4,0.3-0.8,0.6-1.2,0.9C130.4,175.7,130,175.8,129.5,176z"/>
	<path class="st0" d="M109.6,164.9c-0.8,0.6-1.4,1.3-1.8,1.2c-0.6-0.1-1.3-0.7-1.9-1.2c0.8-0.5,1.5-1,2.4-1.4
		C108.4,163.5,108.9,164.2,109.6,164.9z"/>
	<path class="st0" d="M118.7,167.4c0.1,1,0.3,1.8,0.2,2.6c0,0.2-1,0.6-1.2,0.5c-0.6-0.5-1-1.1-1.6-1.8
		C117,168.2,117.6,168,118.7,167.4z"/>
	<path class="st0" d="M160.5,159.4c0.4-0.3-0.2,1,0.6,0.7c-0.1,0.1-0.1,1.1,0.2,0.2c0.8,1.5,3.1,2.8,4,5.6c0.2,4.4,6.2,7.7,6.2,11.8
		c1.3,4.8,4.8,9.5,11,9.4c0.8,0.1,1.4,1,2.9,1h-0.1c0.8,0.6,1.8-1.5,1.3-0.5c-0.2-0.1-0.1-0.3-0.5,0.1c-0.3-1.9-2.1-4.2-1.4-9.1
		c-1,1-3.1-3.2-0.7-0.4l-0.1-0.2c0.5-0.2,1.4-1,0.4,0.2c0.7,0.6,1.6-1.5,1.8-2.8c-0.6,0.7-0.4-0.2-0.7-1c-0.1,0.1-0.6,0.3-1-0.3
		c0.9-0.5,4.2,1.9,2-1.4c0.1,0.1,0.8-0.3,0.3-0.6c1,0.9,2.2-1.8,1.8,0.3c1.4,0,0.2-2.4,1-1.8c-1.8-0.9,4.5,0.8,1.4-0.6
		c0.1-0.2-0.2-0.1,0.5-0.4c-0.3-0.6-1,0.2-1-1.3c0.1,0.2,0.5-0.4,0.6,0.4l0.2-0.1c0-0.2,0.2,1,0.4,0.2c-0.1-0.1,0.3,0.3-0.2,0.6
		c0.2,0.2-0.1,0.1,0.6-0.2c0.2,0.2-0.6-0.6-0.1-0.8c-0.1,0.2,0.5,1.3,0.8,0c0,0.1,0,0,0.1,0.3c0.1,0,0.1-0.1,0.4-0.5
		c0,0.2,0-0.1-0.2,0.9c-0.1-0.1,0.9,0.2-0.1,0.2c2.8-0.4,4.2-1.8-0.8,1.4c1-0.6,5.4-2.2,7.8-4.9c-1.6-0.4,2.4,0,1-4.7l-0.1,0.1
		c4.6-1.1-0.7,0.6,3.1,1.4c-4.2,2.5,2.6-1.4,6.1-1.8c1.8-1.2,9,3.7,9.1,0.4c1.2-4.4,5.8,5.8,10,3c-0.2-2.6,3.6,4.3,3.3-2.1
		c1.2-0.2,1,1.6,2.4,1.1c1.9,1.4,3,3.2,3.8,1c0.5-0.9-3.4-0.7-3.7-3.1c1.2-1,2.6-1.8,2.6-3.5c0.3-1.4-5.8,3.2-3.4,0.5
		c0-0.2,0.6-1.4-0.2-0.6c-0.1-0.1-0.1,0-0.1-0.3c-1.4,2.1-8.1-0.2-2-1.1c1,0.6,3.1,1.9,4.5-0.1c2-1.9,8.1,1.7,8.2-3.9
		c2.3,2.2-1.4,6.2,3.6,2.7c-1,1.2,2.4-0.2,1.5-1.6c0.7,0.8,2.9-0.2,0.2,1.5c1.3-0.9,10.1-1.7,4.2-0.8c0.5-0.2,5.6,2.3,4.7,0.9
		c-0.8,0.6-0.6-0.8,0.6-0.1c-0.1,0.2,0.1,0.2-0.2,0.5c-0.6,0.6,1.6-0.3,2.7,3.3c-0.4,0.2-0.4,0-0.5-1.3c-1.2,2.3,2.2,1,3.4,0.4
		c-1,0.8,4.6-1.7,2.7-1.6c0.2-0.2,0.4-0.5,0.9-1c0.8-1.6,11.4,6.3,11.6,9c0.2,1.6-1.9,7.1,0.9,6.9c-1.8-4.6,1,0,0.9-1.3
		c2-1.1-1.8,3.4-0.3,3.5c0.9,0.8,1.4,4.2,3.4,4.1c-1.4-1.3,0.9-1.4,0.3-0.9c0.5,2.5,0.6,2.5,3.7,7c0.1-0.9,9,5.9,3.9,4
		c0.1,2.3,3.6-0.1,5-0.1c0.6-1.4,0.2-3.1,1.2-4.8c1.3-9.4-10.4-23.5-13.8-33.8c0.1,0.3,1-4.8,0.2-2.4c-1.3-1.5,0.8,0.1-0.2-2.2
		c0.6,0,0.5-0.7,1.1-0.7c0.6-0.7-1.1-1.4,0.4-1.3c0.2-0.5,0.1-0.8-0.4-1.2c1.1-1.5,3.1-3,1.6-5.5c1.8,1.7,1.3,0.3,2.2-0.7v0.1
		c0.2-0.3,1.4,0.2,1.3-1c-0.3,0.6,6.1-4,5-6.5c0.6,1.8,0.9-3.3,3.9-4.2c0.6-1.1,3.4,0.3,3.1-2.2c0.2,2.6,2.5-6.7,3-4.6
		c-0.8,1.1,1.9,0.2,0.9-1.1c0.2,0.9,2.7,0,2.4-0.3c0.2-0.4,0.2-0.4,0.8,0.1c0.2-0.2,0.6-0.1,1.6-1.6c0.2-0.2-1.2-1.2-1.1-0.4
		c-1.2-0.3,0.5,0.7-1,0.3c0.1,0,0.5,0.5,0,0.4c-0.3-1-0.2,1.1-2.7-0.9c-0.3-1.7,2.6,3,2.9-1.7c1.4-0.3-1.1-0.8-1.7-0.6
		c-2.8-1.5,1,0.4,1.1-1c-1-0.3,0.2-0.5,0.8-0.6c-1.1,1.5,0.2,0.7,1.3,1.3c1-0.2,1.4-0.6,2-2.3c0.9,0.9,0.4-0.6,0.8-0.8
		c-0.4-0.6,0.2-1.2-1.2-1.8c0.2,0.2-0.3,0.1-0.1,0.5c-1.2-0.5,0.5,2.9-1.3,1.8c0.7,0.2,0.5-1.2,0.2-1.8c-0.6-1.5-4.2,3.8-4.5-2.2
		c0.4-0.1,1,3.9,1.9,1.6c0.9-0.2,0.5-1.1,1.6-0.6c0.6-0.5,0.6-0.4-0.3-1.1c0.6-0.3,1.9,1.3,1.1-0.3c0.6-0.1,0.5,0.9,1.3,1.3
		c0.1-1-3.6-4.1-1.4-2.8c0.1,0-0.8-2.1,0.2-0.5c-1-0.5,5.1,8.2,2.2,3.6c-1.5-1.1-2.2-8.5-5.9-5.2c-0.1-1.5-4.1-1.7-2.8-2.7
		c1,0.4,2.2,2,3.7,1.5c0-0.1,0.2-0.8-0.4-0.5v-0.1l0,0c0.5-0.6-3.4-1.2-3-2.6c2.5,3,1.5-0.2,3.1,0.9c-0.2-2.1-1.7-0.9-4.7-4.4
		c3.1,3.4,6.6,1.4,1.5-0.9c-0.9-0.2-2.1-0.2-2.7-1.6c-0.4-1.2,1.1,0.7,3.6,1.1c1.9,0.8,0.3-0.7-1.5-2.2c3.4,1.6,0.2,0.6,0.2-3.8
		c0.8,0,0.2-0.9-1-1.8c1-0.1,0.7,0.1,1.4-0.7c-0.5-0.8,0.7,0,0.6-0.8c1-0.1-0.2-1.2,1.1-1.5c0.1,0-0.1,0.3,0,0.8
		c0.5-1,1,0.5-0.7,1.3c-0.6,1.9,1.4,2.2-0.2,4.4c0.6-0.4,0.6,0.6,1.3-0.2c0.7,2.1-0.4-0.1-0.6,1.5c1.6-0.4-1.9,0.3,1.6,2
		c0-1.8,0.3,0.9,0.7-0.9c0.4,0.3,0.3,3.1,1.4,2.6c1-0.7-0.2,1.4-0.3,2.6c-0.6,0.5-0.4,6.2,0.6,1.7c0.4-5,4.3-4.6,1.6-9.5
		c0,0,1-0.2,0.2-0.5c0,0,0.2,0,0.2-0.3c2.3,1.5-5.1-4.7-3.6-6.6c-0.2,3.3,4.6,1.8,4.4,4.7c1.4-2.8,3.1-5.1,3-8.9
		c0.2,0.2,0.2,0.7,0.4,1.8c-0.1-1,0.5-3.5-0.6-5c0,0.2-0.1,0.1,0.1,0.5c-0.2-0.2-1,0.2-1.6-0.2c1.4-0.5,0.3-1.9,1.4-3.4l0.2,0.6
		c-0.1-0.1-0.1,0-0.2-0.2l0.6,0.2c-0.4-0.6,0.6-0.6,0.5-1.7c1,0.2,3.2-2.9,3.8-2.5c0.6-0.6,2.6-0.2,2.7-1.2c0.9,0.5,1-0.2,2.7-0.7
		V62c0.4-0.2,0.9-0.3,1.8-1.3c0.1,0.9,0.5-3.8,0.7-0.5c0.6,1,0.5-1.2,0.8-0.2c0.1,0,0.2-0.3,0.5-0.7c-0.1,0.1,0.6,0.6,0.5,0
		c0.4,0.3,1.6-4.2,1.8-0.6c1.8-0.4,6.1-4,1.4-4c3.8,0.1-0.9,4.7-2,0.6c-0.3-0.6-0.8-1.2-2-1.6c0.3,1.1-1.5,0-0.7-0.5
		c2.2-4.5,0.3,1,0.2-5.4c1.4-0.5,0.6-5.8,2.6-6.2c0.9-1.1-0.2,2,1.7-1.3c1.2,0.9,0.1-0.7,1.8-1c0,2.8,1.3-7.3,1.4-3.5
		c0.2,0.2,0.3-0.7,0.6,0.1c0.1,0.1-0.8-0.2-0.4,0.3c-0.7,0.1,0.7,0.5,0.9,0.3c0.5,0.2,0.6-0.1,0.1-0.9c0.2-0.2,0.4-0.2,0.5-0.9
		c0.1,0.4,0.7,0.9,0.7-0.3c0.5,0.3,1-0.6,1.5,0.9c0.2-0.2,0.2-0.5,0.2-1.2c0.3,0.6,0.7,0.2,0.6-0.7c0.3-0.2,1.6,0.6,1.3-0.9
		c0,0.1,0.1-0.1,0.4,0.1c-0.1,0.2,0.2-0.9,0.2-0.1c0.4,0.2,0-1.6,0.6-0.5c0.5,0,1-0.8,1.1-1.8c-2,0.5,0.6-1.6-2-2.2
		c-1.3,1.6-0.6-2.5-3.1-2.7c-2.5-1.1-0.3-9-5.4-10.7c-5.9,5.5-4.6-7.2-7.8,8.8c-1.3,4.2,0.6,8.1-4.8,9.9c1.1,6.1-20.6-0.7-22.4,13.9
		l-0.2,0.3c0,1.6,1.8,2.5-3,5.9c-0.2-0.2-2.2-0.3-3,0.7c-1-1-9.9-0.9-7.3,3.3c2.1,0.6-1.4,4.2-5.2,6.9c-0.1,0,0.2-0.1,0.1-0.3
		c-7.4,4.5-7.8,8.3-18,6.1c0.2,0.2,3.1-10.3,3.9-7c1-2.4-0.6-17.4-6.7-6.6c-3.8-2.3,1.9-1.5,1.2-10.7c-8.3-7-9-5.1-11.9,3.1
		c-0.5-0.6,0.1-2,0.1-3.1c-2.2,2.2-4,5.3-4,9.5c-1,4.4,4.7,6.5,0.4,14.6c-7.7,10.1-9.4-13.6-4.6-22.4c0.9-0.4,0.5-3.2-0.2-0.7
		c-0.6-0.1-1,1.3-1.1,2.5c-1.1-1-1.4,1.4-3.2,2.6c-0.8,0.8,5.4-13,4.8-8.9c4-3.8-0.6,2.2,3.1-0.9c1.3-3.2,8.2-1.8,12.5-2.6
		c-2.9-5.4-7.1-0.5-5.9-5c-5.3,0.3-10.3,5.8-14.2,0.8c-1.8-0.6-2.1-1.5-3.8,0.8c-0.2-0.3,0.2-1,0-1.8c1-0.4,1.2-2.6,3.2-3.1
		c-3.2-2.2-9.6,7.4-15.4,5.9c2.8-5.5-3,0.9-6.1-0.8c1.4-1.8,7.7-7.5,13-9.6c-6.2-1-11.4,0.2-16.2-2.6c1-2.7-6.2,1.2-9.9-2.6
		c-0.3-1.1,0.1-4.1-2.3-3.8c-38.1,8.2-91.6-6.2-134.7-16v0.2c-1,0.2,0.7,1.7,0.6,2c0.2,0.2,0.2,2-0.8,1.6c0.2-0.9-1.1,0.3,0.1,0.2
		c0.8,0.8-0.2,2.3,1,3.1c-0.6,0.3-1.1,1.2-1.8,2.2c0.2,0.6-0.1,1.8-0.7,2.9c0,0-0.2-0.1-0.5-0.6c-0.1,0.2-1.2,2-1.8,0.6l-0.1,0.3
		c-0.1,0.1,0.2-0.2-0.3-0.2c-0.1,0.2,0,0.1-0.2,0.7c-0.4,0.2,0.3-0.6-0.5-0.5c0.1,0,0,0,0.5-0.4c-0.2-0.1-0.1-0.2-0.7,0.2
		c0,0-0.1-0.2,0.5-0.5l-0.5-0.2c0,0.2,0-0.4,0.4-0.2l-0.2,0.2c0.2,0.1,1-0.2,1.4-0.9c0.2,1-1,2,1,0.2c0,0.2-0.8,0.6,0.1,1
		c-0.2-1,1.8-1.3,0.1-2.2c0-0.1-0.2-0.1,0-0.4c0.6,0.6,0.2,0.1,0.5-0.7c0-0.2,0.1,0.7,0.5,0c0.2,0.6,0.8-0.6,0-1.4
		c-0.2,0.1,0.1,0.2-0.1,0.9c0.6-0.5-5.9,2.8-2.1,2.3c-3,0.9-0.7-1,0.6-2.7l0.2,0.3c0-0.1,0.1,0.1,0.2-0.4c0,0.2,0.2,0.2-0.1,0.6
		c0.6-0.3,1.4-0.8,1-2.2v0.6l-0.1-0.2l-0.2,0.2c0.1-1,0.3-0.9-0.6,0.1c0,0,0.3-0.4-0.2-0.8c-0.1,0,0.1,0.1-0.2,0.3
		c-0.5-1.4-3.5-1.3-7.5-4.8c-1,3,0.7,6.2-0.1,10.5c0.5-0.5,0.3-0.5,1.6,0.4c0.2,0.2-1.3-0.2-1.4,0.6c-0.2,0,0-0.2-0.3-0.6
		c-0.3,1-0.1,1.3,1,1.8c-0.1-0.2-0.3,0.3-0.8,0.4c-0.1-0.2,0.5,1.8-0.7,1.8c-0.2,0.2,0.5-0.8,0.2-1.9c-0.2,0.2-0.4,1.2-0.6,2.3
		c0.4,0.4,2.8,0.3,3,1.7c-0.5-0.6-1.1,0-2.2-0.6c0,0,0.1,0.1,0.2,0.4c-0.3,0.2-0.2-0.6-1-0.7c0.5,1.5-1.2,2.9-0.9,5.3
		c-2.7,7.1-10.8,17.5-9.1,27l-0.2-0.1c0.2,0.8-0.3,1.1-0.9,2.5l-0.2-0.2c0.3,3.1-5,1.7-1.3,10.7c-2.4,3.7,1.2,9.6,1.4,12.1
		c0.3,0.3-1.3,2.2,0.1,1.1c0,0.4,0.5,0.7,1,1.4c1.4,1.2,1,0.9,1.5-1.1c-0.1,0-0.1,0-0.2-0.2c0.8,0,1.1,0.1,1.8,1.2
		c-0.2-0.1,0-0.1-0.6-0.2h0.1c-1.7-0.1-0.6,2.7,0.3,4.6c-0.4,0.2-2.6-1.8-1.6-2.4c-0.1-0.2,0.2-0.5-0.3-0.7
		c-1.9,2.3-0.9,5.1,1.7,7.8c-4.1,3.1,2.6,9,2.2,12.4c3.7,3-4.6,5.1,5.3,7.9c5.1,4,12.2,9,12.2,16.4c-0.5-0.2-0.2-0.9-0.3,0.6
		c4.3,0.5,9.1,1,14.6,1.6c-3.6,0.6,17.7,15.4,31.8,15.7c5.8,2,10.5-5.2,18.2-0.1c1.4,3.5,5.7,5.8,8.2,9.6c0.9,1.8,0,7,5.9,9.9
		c2.3,0.6,2.3,3.6,5.8,0.5c-0.2-0.6,0.6-1.6,1-2.8l0.2,0.1c1.3-2.5,4.7-1,7.7-0.6C160,159,160.1,159.6,160.5,159.4z"/>
	<path class="st0" d="M334.7,58.9c-0.3,0.1-0.3,0-1-0.1c-0.2-0.8-0.2,0.9-1,0.9C332.4,60.2,334.5,59.7,334.7,58.9z"/>
	<path class="st0" d="M337,59.3c-1.4-0.2-0.2,0.9,0.6-0.2c-0.2-0.4-1-0.8-0.4-0.2C337.2,58.9,337.3,59.1,337,59.3z"/>
	<polygon class="st0" points="317,67.5 316.9,67.3 317,67.3 316.9,67.3 316.8,67.3 316.8,67.6 316.7,67.8 316.6,68.2 316.7,68.3
		316.8,68.2 316.8,68.1 316.9,68 316.9,67.9 316.9,67.7 317,67.6 	"/>
	<polygon class="st0" points="315.6,70.1 315.8,70.1 316,69.9 316.1,69.7 316.3,69.5 316.5,69.2 316.6,69 316.3,68.7 315.8,69 	"/>
	<path class="st0" d="M324.6,65.1l0.2,0.2c-0.1,0,0.1,0.2-0.4,0.2c-0.6-0.6,0.1-1.3,1.1-2.5c-1.4,1.7-4.9,2.5-6.3,3.4
		c0-0.3-0.8-0.2-0.7,0.6c-0.4-0.6-0.3,0.9-0.8,0.3c-2.8,3.1,1.8,0.2-0.2,1.8c1-0.4,2.6-1.3,3.8-2.2c1.8-0.4,4.4-2.6-0.1,0.9
		c1.5-0.9,9.7-6.1,4.1-3.9C325,64.2,325.2,64.6,324.6,65.1z"/>
	<path class="st0" d="M63.4,4.3c0,0,0.1,0.2,0.3,0.5c-0.2,0,0,0.2-0.2,0.6C63,5.4,62.7,3.1,63.4,4.3z"/>
	<path class="st0" d="M64,5.7c0-0.3-0.5-0.5,0.2-1C64,5,64.8,5.8,64,5.7z"/>
	<path class="st0" d="M64.7,4.4c-0.2,0.1,0.1-0.2-0.3-0.6c0,0.1-0.1,0,0,0.6c-0.2,0.2,0-0.4-0.6-0.2C63.7,4.1,64,4,64.4,3.6
		C64.4,3.6,65.5,4,64.7,4.4z"/>
	<path class="st0" d="M64.3,7.5c0.1-0.1-0.2,0.2,0.4,0.3c-0.7,1.4,2.6,3.8-0.3-0.6c-0.1-0.2,0.2,0.2,0.4-0.3C64.9,7,64.9,7,65.5,7
		c0.2-0.1-0.3-0.4-0.2-0.7C65.2,6.1,63.9,6.4,64.3,7.5z"/>
</g>
<g id="constellation">
	<g>
		<g>
			<g>
				<polyline class="st1" points="309.2,70.1 314.2,67.2 319.2,64.2 				"/>
			</g>
		</g>
		<g>
			<g>
				<polyline class="st1" points="143.9,82.3 148.1,82.6 152.4,82.9 156.7,83.1 160.9,83.3 165.2,83.5 169.5,83.7 173.8,83.7
					178,83.8 182.4,83.9 186.6,83.9 190.8,83.9 195.2,83.8 199.4,83.7 203.7,83.6 208,83.4 212.2,83.3 216.5,83 220.8,82.8
					225,82.5 229.2,82.2 233.5,81.8 237.8,81.5 242,81 246.3,80.6 250.5,80.1 254.7,79.7 258.9,79.1 263.2,78.5 267.4,77.9
					271.6,77.3 275.8,76.6 280,75.9 284.2,75.2 288.4,74.4 292.5,73.6 296.7,72.8 300.9,71.9 305,71 309.2,70.1 				"/>
			</g>
		</g>
		<g>
			<g>
				<polyline class="st1" points="319.2,64.2 314.2,67.2 309.2,70.1 				"/>
			</g>
		</g>
		<g>
			<g>
				<line class="st1" x1="286.9" y1="177.9" x2="282" y2="172.8"/>
			</g>
		</g>
		<g>
			<g>
				<polyline class="st1" points="292.8,131 291.8,135.3 290.8,139.4 289.7,143.7 288.8,147.8 287.6,152 286.6,156.1 285.5,160.4
					284.4,164.5 283.2,168.6 282,172.8 				"/>
			</g>
		</g>
		<g>
			<g>
				<polyline class="st1" points="261.8,83.9 263.2,87.9 264.6,91.9 266,95.9 267.4,100 268.8,104 270.3,108 271.7,112 273.2,116
					274.7,120 276.2,124 277.7,128 279.2,132 280.8,136 282.4,140 283.9,144 285.5,147.9 287.1,151.9 288.7,155.8 290.3,159.8
					291.9,163.7 293.6,167.7 295.2,171.6 296.8,175.5 298.5,179.4 				"/>
			</g>
		</g>
		<g>
			<g>
				<polyline class="st1" points="298.5,179.4 294.1,178.1 289.8,176.6 285.4,175.2 281.1,173.7 276.8,172.2 272.4,170.7
					268.2,169.1 264,167.5 259.7,165.9 255.5,164.2 251.3,162.5 247.2,160.9 243,159.1 238.9,157.3 234.8,155.6 230.8,153.7
					226.8,151.9 222.7,150.1 218.8,148.1 214.8,146.2 210.8,144.3 206.9,142.3 203,140.3 199.2,138.3 195.3,136.2 191.5,134.1
					187.7,132.1 184,130 180.2,127.8 176.5,125.7 172.8,123.4 169.2,121.3 165.6,119 161.9,116.8 158.4,114.5 154.8,112.1
					151.2,109.8 147.8,107.5 144.3,105.2 140.8,102.8 137.5,100.4 134,98 130.7,95.5 127.4,93 124.1,90.5 120.8,88.1 117.6,85.6
					114.4,83 111.2,80.5 108,77.9 104.8,75.3 101.8,72.7 98.7,70.1 95.6,67.5 92.6,64.9 89.6,62.1 86.7,59.5 83.7,56.8 80.8,54.1
					78,51.3 75.2,48.6 72.4,45.9 69.6,43.1 66.8,40.4 64,37.6 61.4,34.8 58.7,32 56,29.2 				"/>
			</g>
		</g>
		<g>
			<g>
				<polyline class="st1" points="298.5,179.4 296.8,175.5 295.2,171.6 293.6,167.7 291.9,163.7 290.3,159.8 288.7,155.8
					287.1,151.9 285.5,147.9 283.9,144 282.4,140 280.8,136 279.2,132 277.7,128 276.2,124 274.7,120 273.2,116 271.7,112
					270.3,108 268.8,104 267.4,100 266,95.9 264.6,91.9 263.2,87.9 261.8,83.9 				"/>
			</g>
		</g>
		<g>
			<g>
				<polyline class="st1" points="298.5,179.4 298.8,175.2 299.1,171 299.3,166.8 299.6,162.5 299.8,158.3 300,154.1 300.3,149.8
					300.4,145.6 300.7,141.3 300.8,137.1 301,132.9 301.2,128.6 301.2,124.4 301.4,120.1 301.5,115.8 301.6,111.6 301.7,107.3
					301.8,103.1 301.9,98.9 301.9,94.6 				"/>
			</g>
		</g>
		<g>
			<g>
				<line class="st1" x1="282" y1="172.8" x2="286.9" y2="177.9"/>
			</g>
		</g>
		<g>
			<g>
				<polyline class="st1" points="195.6,76.4 198.1,79.5 200.6,82.7 203.1,85.8 205.6,88.9 208.3,92.1 210.8,95.2 213.5,98.3
					216.2,101.4 218.8,104.5 221.6,107.6 224.4,110.6 227.1,113.7 230,116.7 232.8,119.7 235.6,122.7 238.5,125.7 241.4,128.7
					244.4,131.7 247.3,134.6 250.4,137.5 253.4,140.5 256.4,143.3 259.5,146.2 262.6,149.1 265.7,151.9 268.9,154.8 272.1,157.6
					275.3,160.4 278.5,163.2 281.8,165.9 285.1,168.7 288.4,171.4 291.8,174.1 295.2,176.8 298.5,179.4 				"/>
			</g>
		</g>
		<g>
			<g>
				<polyline class="st1" points="62.7,71.7 66.9,72.6 71.1,73.4 75.3,74.2 79.6,74.9 83.8,75.7 88,76.4 92.2,77 96.4,77.6
					100.7,78.2 104.9,78.8 109.2,79.3 113.4,79.7 117.6,80.2 121.9,80.6 126.1,81 130.4,81.3 134.7,81.7 138.9,82 143.2,82.2
					147.4,82.5 151.6,82.7 156,82.9 160.2,82.9 164.4,83 168.7,83.1 172.9,83.2 177.2,83.2 181.4,83.1 185.7,83 190,82.9
					194.2,82.9 198.4,82.7 202.7,82.5 206.8,82.2 211.1,82 215.3,81.7 219.6,81.4 223.8,81 228,80.6 232.2,80.2 236.4,79.7
					240.6,79.3 244.8,78.8 249,78.2 253.2,77.7 257.3,77 261.6,76.5 265.7,75.7 269.9,75 274,74.3 278.1,73.6 282.3,72.8
					286.4,71.9 290.5,71.1 294.6,70.2 298.8,69.3 302.8,68.3 306.9,67.3 311,66.3 315.1,65.3 319.2,64.2 				"/>
			</g>
		</g>
		<g>
			<g>
				<polyline class="st1" points="301.9,94.6 301.9,98.9 301.8,103.1 301.7,107.3 301.6,111.6 301.5,115.8 301.4,120.1 301.2,124.4
					301.2,128.6 301,132.9 300.8,137.1 300.7,141.3 300.4,145.6 300.3,149.8 300,154.1 299.8,158.3 299.6,162.5 299.3,166.8
					299.1,171 298.8,175.2 298.5,179.4 				"/>
			</g>
		</g>
		<g>
			<g>
				<polyline class="st1" points="56,29.2 58.7,32 61.4,34.8 64,37.6 66.8,40.4 69.6,43.1 72.4,45.9 75.2,48.6 78,51.3 80.8,54.1
					83.7,56.8 86.7,59.5 89.6,62.1 92.6,64.9 95.6,67.5 98.7,70.1 101.8,72.7 104.8,75.3 108,77.9 111.2,80.5 114.4,83 117.6,85.6
					120.8,88.1 124.1,90.5 127.4,93 130.7,95.5 134,98 137.5,100.4 140.8,102.8 144.3,105.2 147.8,107.5 151.2,109.8 154.8,112.1
					158.4,114.5 161.9,116.8 165.6,119 169.2,121.3 172.8,123.4 176.5,125.7 180.2,127.8 184,130 187.7,132.1 191.5,134.1
					195.3,136.2 199.2,138.3 203,140.3 206.9,142.3 210.8,144.3 214.8,146.2 218.8,148.1 222.7,150.1 226.8,151.9 230.8,153.7
					234.8,155.6 238.9,157.3 243,159.1 247.2,160.9 251.3,162.5 255.5,164.2 259.7,165.9 264,167.5 268.2,169.1 272.4,170.7
					276.8,172.2 281.1,173.7 285.4,175.2 289.8,176.6 294.1,178.1 298.5,179.4 				"/>
			</g>
		</g>
		<g>
			<g>
				<polyline class="st1" points="44.7,75.7 47.9,78 51.2,80.3 54.4,82.6 57.6,84.9 60.9,87.1 64.3,89.3 67.6,91.5 71,93.7
					74.4,95.9 77.7,98 81.2,100.1 84.6,102.2 88.1,104.3 91.6,106.4 95.2,108.5 98.7,110.5 102.2,112.5 105.8,114.5 109.4,116.4
					113,118.3 116.7,120.2 120.4,122.1 124,124 127.7,125.8 131.5,127.7 135.2,129.5 139,131.3 142.8,133 146.6,134.7 150.4,136.5
					154.3,138.1 158.1,139.7 162,141.4 166,143 169.9,144.5 173.8,146.1 177.8,147.7 181.8,149.2 185.8,150.6 189.8,152.1
					193.9,153.5 197.9,154.9 202,156.3 206,157.7 210.2,158.9 214.3,160.2 218.4,161.5 222.6,162.8 226.8,164 231,165.2
					235.2,166.3 239.4,167.4 243.6,168.5 248,169.6 252.2,170.6 256.5,171.7 260.8,172.6 265.2,173.6 269.5,174.5 273.8,175.4
					278.2,176.2 282.5,177.1 286.9,177.9 				"/>
			</g>
		</g>
	</g>
	<ellipse class="st2" cx="196.4" cy="76.5" rx="2.9" ry="2.9"/>
	<ellipse class="st2" cx="144" cy="82.1" rx="2.9" ry="2.9"/>
	<ellipse class="st2" cx="62.4" cy="71.7" rx="2.9" ry="2.9"/>
	<ellipse class="st2" cx="56.1" cy="29.3" rx="2.9" ry="2.9"/>
	<ellipse class="st2" cx="45" cy="76.5" rx="2.9" ry="2.9"/>
	<ellipse class="st2" cx="261.2" cy="97" rx="2.9" ry="2.9"/>
	<ellipse class="st2" cx="301.8" cy="95.1" rx="2.9" ry="2.9"/>
	<ellipse class="st2" cx="318.7" cy="64.6" rx="2.9" ry="2.9"/>
	<ellipse class="st2" cx="309.1" cy="70.1" rx="2.9" ry="2.9"/>
	<ellipse class="st2" cx="292.3" cy="132.2" rx="2.9" ry="2.9"/>
	<ellipse class="st2" cx="299.1" cy="179.6" rx="2.9" ry="2.9"/>
	<ellipse class="st2" cx="286.7" cy="177.8" rx="2.9" ry="2.9"/>
	<ellipse class="st2" cx="282.2" cy="173.1" rx="2.9" ry="2.9"/>
	<ellipse class="st2" cx="261.7" cy="84.1" rx="2.9" ry="2.9"/>
</g>
<text transform="matrix(1 0 0 1 145.2494 242.0179)" class="st2 st3 st4">Guns</text>
</svg>
