<?xml version="1.0" encoding="utf-8"?>
<!-- Generator: Adobe Illustrator 23.1.1, SVG Export Plug-In . SVG Version: 6.00 Build 0)  -->
<svg version="1.1" id="Layer_1" xmlns="http://www.w3.org/2000/svg" xmlns:xlink="http://www.w3.org/1999/xlink" x="0px" y="0px"
	 viewBox="0 0 382.5 257" style="enable-background:new 0 0 382.5 257;" xml:space="preserve">
<style type="text/css">
	.st0{fill:#707589;}
	.st1{fill:none;stroke:#FFFFFF;stroke-width:0.856;stroke-linejoin:round;stroke-miterlimit:10;}

		.st2{opacity:0.702;fill:none;stroke:#FFFFFF;stroke-width:0.856;stroke-linejoin:round;stroke-miterlimit:10;enable-background:new    ;}
	.st3{fill:#FFFFFF;}
	.st4{font-family:'Roboto';}
	.st5{font-size:40px;}
</style>
<g>
	<path class="st0" d="M70.6,168.9c0.6,1.1,0.5,1.8-0.9,2.2c-0.9,0.3-1.7,1-2.5,1.5c-0.5,0.3-1,0.5-1.7,0.8c0.2-2.2,0-4.2,2-5.4
		c-1.3,0.1-1.8,0.6-2.6,2.2c-0.6,1-1.4,2-2.1,3.2c0.2,0.2,0.6,0.4,1.1,0.9c-3.4,3.6-7,6.7-11.4,9.1c-0.5-0.6-1.2-0.4-2.2,0.2
		c-1.2,0.7-2.8,1-4.2,1.4c-0.1-0.2-0.2-0.4-0.3-0.6c0.6-0.4,1.4-0.7,2-1.1c0.6-0.3,1.4-0.6,2.1-1c0.5-0.2,0.8-0.8,1.3-0.8
		c2.3-0.2,3.8-1.8,5.3-3.3c0.8-0.9,1.1-2.1,1.9-3.6c-1.2,0.2-1.8,0.2-2.8,0.3c-1-1.1-1-1.6-3.7-0.5c0-1.3,0-2.5,0-3.8
		c-2.7,0.5-3.4-0.2-3.7-2.9c-0.2-1.1-1.2-2.2-0.2-3.4c0.6-0.7,1-1.7,1.8-2.2c0.4-0.3,1.3-0.2,1.9-0.1c0.9-0.4,2.1-0.6,2.6-1.2
		c0.5-0.6,0.2-1.8,0.2-2.5c-1.3,0-2.7,0-4.2,0c-1.1,0-1.8-0.5-2-1.8c-0.1-0.7-0.6-1.4-1.1-2.2c1.5-0.6,3-1.2,4.8-1.9
		c0.2,1.8,1,2.2,2.6,1.7c-1.3-1.8-2.6-3.6-3.7-5.4c-0.2-0.4-0.6-1-0.4-1.4c0.2-0.4,0.9-0.6,1.4-0.9c0.6-0.2,1.5-0.2,1.7-0.6
		c0.7-1.8,2.1-2.6,3.6-3.3c1-0.5,2.2-0.9,3.7-1.4c1,0.5,2.4,1.5,3.9,1.8c2.2,0.5,4.6,0.7,7,0.6c1.8-0.1,3.2,0.4,3.6,2.2
		c1.5,7.5,3,15,4.6,22.8c0.7-0.2,1.4-0.4,1.9-0.5c1.2,1,2.3,1.8,3.4,2.6c0.7-0.9,1.4-2.3,2-2.3c0.9,0,1.8,1,2.6,1.7
		c0.9,0.6,1.8,1.3,2.5,2.1c1.3,1.4,2.6,2.6,4.6,2.9c1.3,0.2,1.8,2.2,1,3.8c-0.6,0.2-2-1.6-2.1,0.6c0,0-1.4,0.3-1.8,0
		c-1.1-1-2-2.2-3-3.5c-0.2,0.5-0.2,0.7-0.3,1.2c-1-1-1.7-2.1-2.6-2.8c-1.7-1.3-3.4-2.5-5.2-3.6c-2-1.2-4.2-1.1-6.6-1
		c-1.2,0.1-2.5-0.8-3.8-1.3c-0.6-0.2-1.2-0.2-1.8-0.4C70.8,168.6,70.7,168.8,70.6,168.9z"/>
	<path class="st0" d="M64.9,175.3c0.2,0.2,0.4,0.2,0.5,0.4c0.6,1.1-1.1,4-2.3,4.1c-0.3,0-0.9-0.3-1-0.6c-0.2-0.3-0.2-1,0-1.3
		c0.7-0.8,1.6-1.5,2.4-2.2C64.5,175.4,64.6,175.3,64.9,175.3z"/>
	<path class="st0" d="M45.6,160.5c-1.5,0.5-3.4-0.6-3.9-2.2C43.2,159,44.2,159.7,45.6,160.5z"/>
	<path class="st0" d="M45.3,168.7c0.7,0.2,1.4,0.2,2.2,0.4c-0.1,0.3-0.2,0.7-0.3,1c-0.6-0.2-1.4-0.4-2-0.6
		C45.2,169.3,45.2,168.9,45.3,168.7z"/>
	<path class="st0" d="M132.2,185.7c-0.8-0.2-1.8-0.6-1.4-2.3c0.1-0.4-0.1-0.9-0.3-1.3c-0.6-1.2-1-2.2,0.2-3.4
		c0.5-0.5,0.2-1.6,0.4-2.6c3.1,0.9,5.8,2.3,7.3,5.8C136.6,182.9,134.6,184.1,132.2,185.7z"/>
	<path class="st0" d="M127.7,173.8c-0.2-0.2-0.5-0.3-0.7-0.6c-0.4-0.4-0.8-0.9-1.2-1.4c-0.2-0.2-0.2-0.6-0.3-1
		c0.3-0.1,0.7-0.2,1-0.2c0.9,0.2,1.8,0.4,2.6,0.7c0.4,0.2,0.6,0.7,1,1c-0.4,0.3-0.8,0.6-1.2,0.9
		C128.6,173.7,128.2,173.7,127.7,173.8z"/>
	<path class="st0" d="M107.7,162.8c-0.8,0.6-1.4,1.3-1.8,1.2c-0.6-0.1-1.3-0.7-1.9-1.2c0.8-0.5,1.5-1,2.4-1.4
		C106.6,161.4,107,162.1,107.7,162.8z"/>
	<path class="st0" d="M116.9,165.3c0.1,1,0.3,1.8,0.2,2.6c0,0.2-1,0.6-1.2,0.5c-0.6-0.5-1-1.1-1.6-1.8
		C115.2,166.1,115.8,165.8,116.9,165.3z"/>
	<path class="st0" d="M158.7,157.3c0.4-0.3-0.2,1,0.6,0.7c-0.1,0.1-0.1,1.1,0.2,0.2c0.8,1.5,3.1,2.8,4,5.6c0.2,4.4,6.2,7.7,6.2,11.8
		c1.3,4.8,4.8,9.5,11,9.4c0.8,0.1,1.4,1,2.9,1h-0.1c0.8,0.6,1.8-1.5,1.3-0.5c-0.2-0.1-0.1-0.3-0.5,0.1c-0.3-1.9-2.1-4.2-1.4-9.1
		c-1,1-3.1-3.2-0.7-0.4l-0.1-0.2c0.5-0.2,1.4-1,0.4,0.2c0.7,0.6,1.6-1.5,1.8-2.9c-0.6,0.7-0.4-0.2-0.7-1c-0.1,0.1-0.6,0.3-1-0.3
		c0.9-0.5,4.2,1.9,2-1.4c0.1,0.1,0.8-0.3,0.3-0.6c1,0.9,2.2-1.8,1.8,0.3c1.4,0,0.2-2.4,1-1.8c-1.8-0.9,4.5,0.8,1.4-0.6
		c0.1-0.2-0.2-0.1,0.5-0.4c-0.3-0.6-1,0.2-1-1.3c0.1,0.2,0.5-0.4,0.6,0.4l0.2-0.1c0-0.2,0.2,1,0.4,0.2c-0.1-0.1,0.3,0.3-0.2,0.6
		c0.2,0.2-0.1,0.1,0.6-0.2c0.2,0.2-0.6-0.6-0.1-0.9c-0.1,0.2,0.5,1.3,0.8,0c0,0.1,0,0,0.1,0.3c0.1,0,0.1-0.1,0.4-0.5
		c0,0.2,0-0.1-0.2,0.9c-0.1-0.1,0.9,0.2-0.1,0.2c2.8-0.4,4.2-1.8-0.8,1.4c1-0.6,5.4-2.2,7.8-4.9c-1.6-0.4,2.4,0,1-4.7l-0.1,0.1
		c4.6-1.1-0.7,0.6,3.1,1.4c-4.2,2.5,2.6-1.4,6.1-1.8c1.8-1.2,9,3.7,9.1,0.4c1.2-4.4,5.8,5.8,10,3c-0.2-2.6,3.6,4.3,3.3-2.1
		c1.2-0.2,1,1.6,2.4,1.1c1.9,1.4,3,3.2,3.8,1c0.5-0.9-3.4-0.7-3.7-3.1c1.2-1,2.6-1.8,2.6-3.5c0.3-1.4-5.8,3.2-3.4,0.5
		c0-0.2,0.6-1.4-0.2-0.6c-0.1-0.1-0.1,0-0.1-0.3c-1.4,2.1-8.1-0.2-2-1.1c1,0.6,3.1,1.9,4.5-0.1c2-1.9,8.1,1.7,8.2-3.9
		c2.3,2.2-1.4,6.2,3.6,2.7c-1,1.2,2.4-0.2,1.5-1.6c0.7,0.8,2.9-0.2,0.2,1.5c1.3-0.9,10.1-1.7,4.2-0.8c0.5-0.2,5.6,2.3,4.7,0.9
		c-0.8,0.6-0.6-0.8,0.6-0.1c-0.1,0.2,0.1,0.2-0.2,0.5c-0.6,0.6,1.6-0.3,2.7,3.3c-0.4,0.2-0.4,0-0.5-1.3c-1.2,2.3,2.2,1,3.4,0.4
		c-1,0.8,4.6-1.7,2.7-1.6c0.2-0.2,0.4-0.5,0.9-1c0.8-1.6,11.4,6.3,11.6,9c0.2,1.6-1.9,7.1,0.9,6.9c-1.8-4.6,1,0,0.9-1.3
		c2-1.1-1.8,3.4-0.3,3.5c0.9,0.8,1.4,4.2,3.4,4.1c-1.4-1.3,0.9-1.4,0.3-0.9c0.5,2.5,0.6,2.5,3.7,7c0.1-0.9,9,5.9,3.9,4
		c0.1,2.3,3.6-0.1,5-0.1c0.6-1.4,0.2-3.1,1.2-4.8c1.3-9.4-10.4-23.5-13.8-33.8c0.1,0.3,1-4.8,0.2-2.4c-1.3-1.5,0.8,0.1-0.2-2.2
		c0.6,0,0.5-0.7,1.1-0.7c0.6-0.7-1.1-1.4,0.4-1.3c0.2-0.5,0.1-0.8-0.4-1.2c1.1-1.5,3.1-3,1.6-5.5c1.8,1.7,1.3,0.3,2.2-0.7v0.1
		c0.2-0.3,1.4,0.2,1.3-1c-0.3,0.6,6.1-4,5-6.5c0.6,1.8,0.9-3.3,3.9-4.2c0.6-1.1,3.4,0.3,3.1-2.2c0.2,2.6,2.5-6.7,3-4.6
		c-0.8,1.1,1.9,0.2,0.9-1.1c0.2,0.9,2.7,0,2.4-0.3c0.2-0.4,0.2-0.4,0.8,0.1c0.2-0.2,0.6-0.1,1.6-1.6c0.2-0.2-1.2-1.2-1.1-0.4
		c-1.2-0.3,0.5,0.7-1,0.3c0.1,0,0.5,0.5,0,0.4c-0.3-1-0.2,1.1-2.7-0.9c-0.3-1.7,2.6,3,2.9-1.7c1.4-0.3-1.1-0.8-1.7-0.6
		c-2.8-1.5,1,0.4,1.1-1c-1-0.3,0.2-0.5,0.8-0.6c-1.1,1.5,0.2,0.7,1.3,1.3c1-0.2,1.4-0.6,2-2.3c0.9,0.9,0.4-0.6,0.8-0.8
		c-0.4-0.6,0.2-1.2-1.2-1.8c0.2,0.2-0.3,0.1-0.1,0.5c-1.2-0.5,0.5,2.9-1.3,1.8c0.7,0.2,0.5-1.2,0.2-1.8c-0.6-1.5-4.2,3.8-4.5-2.2
		c0.4-0.1,1,3.9,1.9,1.6c0.9-0.2,0.5-1.1,1.6-0.6c0.6-0.5,0.6-0.4-0.3-1.1c0.6-0.3,1.9,1.3,1.1-0.3c0.6-0.1,0.5,0.9,1.3,1.3
		c0.1-1-3.6-4.1-1.4-2.8c0.1,0-0.8-2.1,0.2-0.5c-1-0.5,5.1,8.2,2.2,3.6c-1.5-1.1-2.2-8.5-5.9-5.2c-0.1-1.5-4.1-1.7-2.8-2.7
		c1,0.4,2.2,2,3.7,1.5c0-0.1,0.2-0.8-0.4-0.5V95l0,0c0.5-0.6-3.4-1.2-3-2.6c2.5,3,1.5-0.2,3.1,0.9c-0.2-2.1-1.7-0.9-4.7-4.4
		c3.1,3.4,6.6,1.4,1.5-0.9c-0.9-0.2-2.1-0.2-2.7-1.6c-0.4-1.2,1.1,0.7,3.6,1.1c1.9,0.8,0.3-0.7-1.5-2.2c3.4,1.6,0.2,0.6,0.2-3.8
		c0.8,0,0.2-0.9-1-1.8c1-0.1,0.7,0.1,1.4-0.7c-0.5-0.8,0.7,0,0.6-0.8c1-0.1-0.2-1.2,1.1-1.5c0.1,0-0.1,0.3,0,0.8
		c0.5-1,1,0.5-0.7,1.3c-0.6,1.9,1.4,2.2-0.2,4.4c0.6-0.4,0.6,0.6,1.3-0.2c0.7,2.1-0.4-0.1-0.6,1.5c1.6-0.4-1.9,0.3,1.6,2
		c0-1.8,0.3,0.9,0.7-0.9c0.4,0.3,0.3,3.1,1.4,2.6c1-0.7-0.2,1.4-0.3,2.6c-0.6,0.5-0.4,6.2,0.6,1.7c0.4-5,4.3-4.6,1.6-9.5
		c0,0,1-0.2,0.2-0.5c0,0,0.2,0,0.2-0.3c2.3,1.5-5.1-4.7-3.6-6.6c-0.2,3.3,4.6,1.8,4.4,4.7c1.4-2.8,3.1-5.1,3-8.9
		c0.2,0.2,0.2,0.7,0.4,1.8c-0.1-1,0.5-3.5-0.6-5c0,0.2-0.1,0.1,0.1,0.5c-0.2-0.2-1,0.2-1.6-0.2c1.4-0.5,0.3-1.9,1.4-3.4l0.2,0.6
		c-0.1-0.1-0.1,0-0.2-0.2l0.6,0.2c-0.4-0.6,0.6-0.6,0.5-1.7c1,0.2,3.2-2.9,3.8-2.5c0.6-0.6,2.6-0.2,2.7-1.2c0.9,0.5,1-0.2,2.7-0.7
		v0.2c0.4-0.2,0.9-0.3,1.8-1.3c0.1,0.9,0.5-3.8,0.7-0.5c0.6,1,0.5-1.2,0.8-0.2c0.1,0,0.2-0.3,0.5-0.7c-0.1,0.1,0.6,0.6,0.5,0
		c0.4,0.3,1.6-4.2,1.8-0.6c1.8-0.4,6.1-4,1.4-4c3.8,0.1-0.9,4.7-2,0.6c-0.3-0.6-0.8-1.2-2-1.6c0.3,1.1-1.5,0-0.7-0.5
		c2.2-4.5,0.3,1,0.2-5.4c1.4-0.5,0.6-5.8,2.6-6.2c0.9-1.1-0.2,2,1.7-1.3c1.2,0.9,0.1-0.7,1.8-1c0,2.8,1.3-7.3,1.4-3.5
		c0.2,0.2,0.3-0.7,0.6,0.1c0.1,0.1-0.8-0.2-0.4,0.3c-0.7,0.1,0.7,0.5,0.9,0.3c0.5,0.2,0.6-0.1,0.1-0.9c0.2-0.2,0.4-0.2,0.5-0.9
		c0.1,0.4,0.7,0.9,0.7-0.3c0.5,0.3,1-0.6,1.5,0.9c0.2-0.2,0.2-0.5,0.2-1.2c0.3,0.6,0.7,0.2,0.6-0.7c0.3-0.2,1.6,0.6,1.3-0.9
		c0,0.1,0.1-0.1,0.4,0.1c-0.1,0.2,0.2-0.9,0.2-0.1c0.4,0.2,0-1.6,0.6-0.5c0.5,0,1-0.8,1.1-1.8c-2,0.5,0.6-1.6-2-2.2
		c-1.3,1.6-0.6-2.5-3.1-2.7c-2.5-1.1-0.3-9-5.4-10.7c-5.9,5.5-4.6-7.2-7.8,8.8c-1.3,4.2,0.6,8.1-4.8,9.9c1.1,6.1-20.6-0.7-22.4,13.9
		l-0.2,0.3c0,1.6,1.8,2.5-3,5.9c-0.2-0.2-2.2-0.3-3,0.7c-1-1-9.9-0.9-7.3,3.3c2.1,0.6-1.4,4.2-5.2,6.9c-0.1,0,0.2-0.1,0.1-0.3
		c-7.4,4.5-7.8,8.3-18,6.1c0.2,0.2,3.1-10.3,3.9-7c1-2.4-0.6-17.4-6.7-6.6c-3.8-2.3,1.9-1.5,1.2-10.7c-8.3-7-9-5.1-11.9,3.1
		c-0.5-0.6,0.1-2,0.1-3.1c-2.2,2.2-4,5.3-4,9.5c-1,4.4,4.7,6.5,0.4,14.6c-7.7,10.1-9.4-13.6-4.6-22.4c0.9-0.4,0.5-3.2-0.2-0.7
		c-0.6-0.1-1,1.3-1.1,2.5c-1.1-1-1.4,1.4-3.2,2.6c-0.8,0.8,5.4-13,4.8-8.9c4-3.8-0.6,2.2,3.1-0.9c1.3-3.2,8.2-1.8,12.5-2.6
		c-2.9-5.4-7.1-0.5-5.9-5c-5.3,0.3-10.3,5.8-14.2,0.8c-1.8-0.6-2.1-1.5-3.8,0.8c-0.2-0.3,0.2-1,0-1.8c1-0.4,1.2-2.6,3.2-3.1
		c-3.5-1.4-9.9,8.1-15.8,6.6c2.8-5.5-3,0.9-6.1-0.8c1.4-1.8,7.7-7.5,13-9.6c-6.2-1-11.4,0.2-16.2-2.6c1-2.7-6.2,1.2-9.9-2.6
		c-0.3-1.1,0.1-4.1-2.3-3.8c-38.1,8.2-91.6-6.2-134.7-16v0.2c-1,0.2,0.7,1.7,0.6,2c0.2,0.2,0.2,2-0.8,1.6c0.2-0.9-1.1,0.3,0.1,0.2
		c0.8,0.8-0.2,2.3,1,3.1c-0.6,0.3-1.1,1.2-1.8,2.2c0.2,0.6-0.1,1.8-0.7,2.9c0,0-0.2-0.1-0.5-0.6c-0.1,0.2-1.2,2-1.8,0.6L59.5,13
		c-0.1,0.1,0.2-0.2-0.3-0.2c-0.1,0.2,0,0.1-0.2,0.7c-0.4,0.2,0.3-0.6-0.5-0.5c0.1,0,0,0,0.5-0.4c-0.2-0.1-0.1-0.2-0.7,0.2
		c0,0-0.1-0.2,0.5-0.5l-0.1-0.6c0,0.2,0-0.4,0.4-0.2L59,11.6c0.2,0.1,1-0.2,1.4-0.9c0.2,1-1,2,1,0.2c0,0.2-0.8,0.6,0.1,1
		c-0.2-1,1.8-1.3,0.1-2.2c0-0.1-0.2-0.1,0-0.4c0.6,0.6,0.2,0.1,0.5-0.7c0-0.2,0.1,0.7,0.5,0c0.2,0.6,0.8-0.6,0-1.4
		c-0.2,0.1,0.1,0.2-0.1,0.9c0.6-0.5-5.9,2.8-2.1,2.3c-3,0.9-0.7-1,0.6-2.7L61,8c0-0.1,0.1,0.1,0.2-0.4c0,0.2,0.2,0.2-0.1,0.6
		c0.6-0.3,1.4-0.8,1-2.2L62,6.5l-0.1-0.2l-0.2,0.2c0.1-1,0.3-0.9-0.6,0.1c0,0,0.3-0.4-0.2-0.8c-0.1,0,0.1,0.1-0.2,0.3
		c-0.5-1.4-3.5-1.3-7.5-4.8c-1,3,0.7,6.2-0.1,10.5c0.5-0.5,0.3-0.5,1.6,0.4c0.2,0.2-1.3-0.2-1.4,0.6c-0.2,0,0-0.2-0.3-0.6
		c-0.3,1-0.1,1.3,1,1.8c-0.1-0.2-0.3,0.3-0.8,0.4C53,14,53.6,16,52.4,16c-0.2,0.2,0.5-0.8,0.2-1.9c-0.2,0.2-0.4,1.2-0.6,2.3
		c0.4,0.4,2.8,0.3,3,1.7c-0.5-0.6-1.1,0-2.2-0.6c0,0,0.1,0.1,0.2,0.4c-0.3,0.2-0.2-0.6-1-0.7c0.5,1.5-1.2,2.9-0.9,5.3
		c-2.7,7.1-10.8,17.5-9.1,27l-0.2-0.1c0.2,0.8-0.3,1.1-0.9,2.5l-0.2-0.2c0.3,3.1-5,1.7-1.3,10.7c-2.4,3.7,1.2,9.6,1.4,12.1
		c0.3,0.3-1.3,2.2,0.1,1.1c0,0.4,0.5,0.7,1,1.4c1.4,1.2,1,0.9,1.5-1.1c-0.1,0-0.1,0-0.2-0.2c0.8,0,1.1,0.1,1.8,1.2
		c-0.2-0.1,0-0.1-0.6-0.2h0.1c-1.7-0.1-0.6,2.7,0.3,4.6c-0.4,0.2-2.6-1.8-1.6-2.4c-0.1-0.2,0.2-0.5-0.3-0.7
		c-1.9,2.3-0.9,5.1,1.7,7.8c-4.1,3.1,2.6,9,2.2,12.4c3.7,3-4.6,5.1,5.3,7.9c5.1,4,12.2,9,12.2,16.4c-0.5-0.2-0.2-0.9-0.3,0.6
		c4.3,0.5,9.1,1,14.6,1.6c-3.6,0.6,17.7,15.4,31.8,15.7c5.8,2,10.5-5.2,18.2-0.1c1.4,3.5,5.7,5.8,8.2,9.6c0.9,1.8,0,7,5.9,9.9
		c2.3,0.6,2.3,3.6,5.8,0.5c-0.2-0.6,0.6-1.6,1-2.8l0.2,0.1c1.3-2.5,4.7-1,7.7-0.6C158.2,156.9,158.2,157.4,158.7,157.3z"/>
	<path class="st0" d="M332.9,56.8c-0.3,0.1-0.3,0-1-0.1c-0.2-0.8-0.2,0.9-1,0.9C330.6,58.1,332.7,57.5,332.9,56.8z"/>
	<path class="st0" d="M335.2,57.1c-1.4-0.2-0.2,0.9,0.6-0.2c-0.2-0.4-1-0.8-0.4-0.2C335.4,56.8,335.5,56.9,335.2,57.1z"/>
	<polygon class="st0" points="315.2,65.3 315.1,65.2 315.1,65.1 315.1,65.1 315,65.2 315,65.4 314.9,65.7 314.8,66.1 314.9,66.1
		315,66.1 315,66 315.1,65.9 315.1,65.7 315.1,65.6 315.2,65.4 	"/>
	<polygon class="st0" points="313.8,68 314,67.9 314.2,67.7 314.3,67.6 314.5,67.3 314.7,67 314.8,66.9 314.5,66.5 314,66.9 	"/>
	<path class="st0" d="M322.8,62.9l0.2,0.2c-0.1,0,0.1,0.2-0.4,0.2c-0.6-0.6,0.1-1.3,1.1-2.5c-1.4,1.7-4.9,2.5-6.3,3.4
		c0-0.3-0.8-0.2-0.7,0.6c-0.4-0.6-0.3,0.9-0.8,0.3c-2.8,3.1,1.8,0.2-0.2,1.8c1-0.4,2.6-1.3,3.8-2.2c1.8-0.4,4.4-2.6-0.1,0.9
		c1.5-0.9,9.7-6.1,4.1-3.9C323.2,62.1,323.3,62.5,322.8,62.9z"/>
	<path class="st0" d="M61.6,2.1c0,0,0.1,0.2,0.3,0.5c-0.2,0,0,0.2-0.2,0.6C61.2,3.3,60.9,0.9,61.6,2.1z"/>
	<path class="st0" d="M62.2,3.6c0-0.3-0.5-0.5,0.2-1C62.2,2.9,62.9,3.7,62.2,3.6z"/>
	<path class="st0" d="M62.9,2.2c-0.2,0.1,0.1-0.2-0.3-0.6c0,0.1-0.1,0,0,0.6c-0.2,0.2,0-0.4-0.6-0.2c-0.1-0.2,0.2-0.3,0.6-0.7
		C62.6,1.5,63.7,1.9,62.9,2.2z"/>
	<path class="st0" d="M62.5,5.3c0.1-0.1-0.2,0.2,0.4,0.3c-0.7,1.4,2.6,3.8-0.3-0.6c-0.1-0.2,0.2,0.2,0.4-0.3
		c0.2,0.1,0.2,0.1,0.7,0.1c0.2-0.1-0.3-0.4-0.2-0.7C63.4,4.1,62.1,4.3,62.5,5.3z"/>
</g>
<g id="constellation">
	<polyline class="st1" points="86.3,45.6 89,49.2 91.7,52.8 94.4,56.3 97.1,59.9 100,63.5 102.8,67 105.7,70.5 	"/>
	<polyline class="st2" points="259.8,82.3 257.2,86.3 254.6,90.2 251.9,94.2 	"/>
	<polyline class="st1" points="253.3,73.3 249.1,73.8 244.9,74.2 240.7,74.6 236.5,75 232.3,75.3 228.1,75.7 223.8,76 219.7,76.2
		215.4,76.4 211.2,76.5 207,76.7 202.7,76.9 198.6,76.9 194.3,76.9 190.1,76.9 185.8,76.9 181.6,76.9 177.4,76.9 173.1,76.7
		169,76.5 164.7,76.4 160.5,76.2 156.2,76 152,75.7 147.8,75.3 143.6,75 139.4,74.7 135.1,74.2 130.9,73.8 126.7,73.3 122.5,72.9
		118.3,72.3 114.1,71.7 109.9,71.2 105.7,70.5 	"/>
	<polyline class="st1" points="299.3,72.9 295.1,73.2 290.9,73.3 286.7,73.4 282.5,73.6 278.3,73.6 274.2,73.7 270,73.7 265.8,73.6
		261.6,73.6 257.4,73.5 253.3,73.3 	"/>
	<line class="st1" x1="303.4" y1="64" x2="253.3" y2="73.3"/>
	<polyline class="st2" points="251.9,94.2 254.6,90.2 257.2,86.3 259.8,82.3 	"/>
	<polyline class="st1" points="105.7,70.5 109.9,71.2 114.1,71.7 118.3,72.3 122.5,72.9 126.7,73.3 130.9,73.8 135.1,74.2
		139.4,74.7 143.6,75 147.8,75.3 152,75.7 156.2,76 160.5,76.2 164.7,76.4 169,76.5 173.1,76.7 177.4,76.9 181.6,76.9 185.8,76.9
		190.1,76.9 194.3,76.9 198.6,76.9 202.7,76.9 207,76.7 211.2,76.5 215.4,76.4 219.7,76.2 223.8,76 228.1,75.7 232.3,75.3 236.5,75
		240.7,74.6 244.9,74.2 249.1,73.8 253.3,73.3 	"/>
	<ellipse class="st3" cx="105.7" cy="70.5" rx="2.9" ry="2.9"/>
	<ellipse class="st3" cx="252.7" cy="73.6" rx="2.9" ry="2.9"/>
	<ellipse class="st3" cx="299.3" cy="72.9" rx="2.9" ry="2.9"/>
	<ellipse class="st3" cx="259.8" cy="82.3" rx="2.9" ry="2.9"/>
	<ellipse class="st3" cx="251.9" cy="94.2" rx="2.9" ry="2.9"/>
	<ellipse class="st3" cx="303.4" cy="64" rx="2.9" ry="2.9"/>
	<ellipse class="st3" cx="86.3" cy="45.6" rx="2.9" ry="2.9"/>
</g>
<text transform="matrix(1 0 0 1 94.3998 242.0179)" class="st3 st4 st5">Healthcare</text>
</svg>
