<?xml version="1.0" encoding="utf-8"?>
<!-- Generator: Adobe Illustrator 23.1.1, SVG Export Plug-In . SVG Version: 6.00 Build 0)  -->
<svg version="1.1" id="Layer_1" xmlns="http://www.w3.org/2000/svg" xmlns:xlink="http://www.w3.org/1999/xlink" x="0px" y="0px"
	 viewBox="0 0 382.2 257" style="enable-background:new 0 0 382.2 257;" xml:space="preserve">
<style type="text/css">
	.st0{fill:#707589;}
	.st1{fill:none;stroke:#FFFFFF;stroke-width:0.856;stroke-linejoin:round;stroke-miterlimit:10;}
	.st2{fill:#FFFFFF;}
	.st3{font-family:'Roboto';}
	.st4{font-size:40px;}
</style>
<g id="map">
	<path class="st0" d="M70.5,169.2c0.6,1.1,0.5,1.8-0.9,2.2c-0.9,0.3-1.7,1-2.5,1.5c-0.5,0.3-1,0.5-1.7,0.8c0.2-2.2,0-4.2,2-5.4
		c-1.3,0.1-1.8,0.6-2.6,2.2c-0.6,1-1.4,2-2.1,3.2c0.2,0.2,0.6,0.4,1.1,0.9c-3.4,3.6-7,6.7-11.4,9.1c-0.5-0.6-1.2-0.4-2.2,0.2
		c-1.2,0.7-2.8,1-4.2,1.4c-0.1-0.2-0.2-0.4-0.3-0.6c0.6-0.4,1.4-0.7,2-1.1c0.6-0.3,1.4-0.6,2.1-1c0.5-0.2,0.8-0.8,1.3-0.8
		c2.3-0.2,3.8-1.8,5.3-3.3c0.8-0.9,1.1-2.1,1.9-3.6c-1.2,0.2-1.8,0.2-2.8,0.3c-1-1.1-1-1.6-3.7-0.5c0-1.3,0-2.5,0-3.8
		c-2.7,0.5-3.4-0.2-3.7-2.9c-0.2-1.1-1.2-2.2-0.2-3.4c0.6-0.7,1-1.7,1.8-2.2c0.4-0.3,1.3-0.2,1.9-0.1c0.9-0.4,2.1-0.6,2.6-1.2
		c0.5-0.6,0.2-1.8,0.2-2.5c-1.3,0-2.7,0-4.2,0c-1.1,0-1.8-0.5-2-1.8c-0.1-0.7-0.6-1.4-1.1-2.2c1.5-0.6,3-1.2,4.8-1.9
		c0.2,1.8,1,2.2,2.6,1.7c-1.3-1.8-2.6-3.6-3.7-5.4c-0.2-0.4-0.6-1-0.4-1.4c0.2-0.4,0.9-0.6,1.4-0.9c0.6-0.2,1.5-0.2,1.7-0.6
		c0.7-1.8,2.1-2.6,3.6-3.3c1-0.5,2.2-0.9,3.7-1.4c1,0.5,2.4,1.5,3.9,1.8c2.2,0.5,4.6,0.7,7,0.6c1.8-0.1,3.2,0.4,3.6,2.2
		c1.5,7.5,3,15,4.6,22.8c0.7-0.2,1.4-0.4,1.9-0.5c1.2,1,2.3,1.8,3.4,2.6c0.7-0.9,1.4-2.3,2-2.3c0.9,0,1.8,1,2.6,1.7
		c0.9,0.6,1.8,1.3,2.5,2.1c1.3,1.4,2.6,2.6,4.6,2.9c1.3,0.2,1.8,2.2,1,3.8c-0.6,0.2-2-1.6-2.1,0.6c0,0-1.4,0.3-1.8,0
		c-1.1-1-2-2.2-3-3.5c-0.2,0.5-0.2,0.7-0.3,1.2c-1-1-1.7-2.1-2.6-2.8c-1.7-1.3-3.4-2.5-5.2-3.6c-2-1.2-4.2-1.1-6.6-1
		c-1.2,0.1-2.5-0.8-3.8-1.3c-0.6-0.2-1.2-0.2-1.8-0.4C70.5,168.9,70.5,169.1,70.5,169.2z"/>
	<path class="st0" d="M64.6,175.5c0.2,0.2,0.4,0.2,0.5,0.4c0.6,1.1-1.1,4-2.3,4.1c-0.3,0-0.9-0.3-1-0.6c-0.2-0.3-0.2-1,0-1.3
		c0.7-0.8,1.6-1.5,2.4-2.2C64.2,175.6,64.4,175.6,64.6,175.5z"/>
	<path class="st0" d="M45.3,160.8c-1.5,0.5-3.4-0.6-3.9-2.2C42.9,159.3,44,159.9,45.3,160.8z"/>
	<path class="st0" d="M45,168.9c0.7,0.2,1.4,0.2,2.2,0.4c-0.1,0.3-0.2,0.7-0.3,1c-0.6-0.2-1.4-0.4-2-0.6
		C44.9,169.6,44.9,169.2,45,168.9z"/>
	<path class="st0" d="M131.9,185.9c-0.8-0.2-1.8-0.6-1.4-2.3c0.1-0.4-0.1-0.9-0.3-1.3c-0.6-1.2-1-2.2,0.2-3.4
		c0.5-0.5,0.2-1.6,0.4-2.6c3.1,0.9,5.8,2.3,7.3,5.8C136.4,183.2,134.4,184.4,131.9,185.9z"/>
	<path class="st0" d="M127.4,174.1c-0.2-0.2-0.5-0.3-0.7-0.6c-0.4-0.4-0.8-0.9-1.2-1.4c-0.2-0.2-0.2-0.6-0.3-1
		c0.3-0.1,0.7-0.2,1-0.2c0.9,0.2,1.8,0.4,2.6,0.7c0.4,0.2,0.6,0.7,1,1c-0.4,0.3-0.8,0.6-1.2,0.9C128.3,173.9,128,174,127.4,174.1z"
		/>
	<path class="st0" d="M107.5,163c-0.8,0.6-1.4,1.3-1.8,1.2c-0.6-0.1-1.3-0.7-1.9-1.2c0.8-0.5,1.5-1,2.4-1.4
		C106.3,161.6,106.9,162.4,107.5,163z"/>
	<path class="st0" d="M116.6,165.6c0.1,1,0.3,1.8,0.2,2.6c0,0.2-1,0.6-1.2,0.5c-0.6-0.5-1-1.1-1.6-1.8
		C114.9,166.4,115.6,166.1,116.6,165.6z"/>
	<path class="st0" d="M158.5,157.6c0.4-0.3-0.2,1,0.6,0.7c-0.1,0.1-0.1,1.1,0.2,0.2c0.8,1.5,3.1,2.8,4,5.6c0.2,4.4,6.2,7.7,6.2,11.8
		c1.3,4.8,4.8,9.5,11,9.4c0.8,0.1,1.4,1,2.9,1h-0.1c0.8,0.6,1.8-1.5,1.3-0.5c-0.2-0.1-0.1-0.3-0.5,0.1c-0.3-1.9-2.1-4.2-1.4-9.1
		c-1,1-3.1-3.2-0.7-0.4l-0.1-0.2c0.5-0.2,1.4-1,0.4,0.2c0.7,0.6,1.6-1.5,1.8-2.9c-0.6,0.7-0.4-0.2-0.7-1c-0.1,0.1-0.6,0.3-1-0.3
		c0.9-0.5,4.2,1.9,2-1.4c0.1,0.1,0.8-0.3,0.3-0.6c1,0.9,2.2-1.8,1.8,0.3c1.4,0,0.2-2.4,1-1.8c-1.8-0.9,4.5,0.8,1.4-0.6
		c0.1-0.2-0.2-0.1,0.5-0.4c-0.3-0.6-1,0.2-1-1.3c0.1,0.2,0.5-0.4,0.6,0.4l0.2-0.1c0-0.2,0.2,1,0.4,0.2c-0.1-0.1,0.3,0.3-0.2,0.6
		c0.2,0.2-0.1,0.1,0.6-0.2c0.2,0.2-0.6-0.6-0.1-0.8c-0.1,0.2,0.5,1.3,0.8,0c0,0.1,0,0,0.1,0.3c0.1,0,0.1-0.1,0.4-0.5
		c0,0.2,0-0.1-0.2,0.9c-0.1-0.1,0.9,0.2-0.1,0.2c2.8-0.4,4.2-1.8-0.8,1.4c1-0.6,5.4-2.2,7.8-4.9c-1.6-0.4,2.4,0,1-4.7l-0.1,0.1
		c4.6-1.1-0.7,0.6,3.1,1.4c-4.2,2.5,2.6-1.4,6.1-1.8c1.8-1.2,9,3.7,9.1,0.4c1.2-4.4,5.8,5.8,10,3c-0.2-2.6,3.6,4.3,3.3-2.1
		c1.2-0.2,1,1.6,2.4,1.1c1.9,1.4,3,3.2,3.8,1c0.5-0.9-3.4-0.7-3.7-3.1c1.2-1,2.6-1.8,2.6-3.5c0.3-1.4-5.8,3.2-3.4,0.5
		c0-0.2,0.6-1.4-0.2-0.6c-0.1-0.1-0.1,0-0.1-0.3c-1.4,2.1-8.1-0.2-2-1.1c1,0.6,3.1,1.9,4.5-0.1c2-1.9,8.1,1.7,8.2-3.9
		c2.3,2.2-1.4,6.2,3.6,2.7c-1,1.2,2.4-0.2,1.5-1.6c0.7,0.8,2.9-0.2,0.2,1.5c1.3-0.9,10.1-1.7,4.2-0.8c0.5-0.2,5.6,2.3,4.7,0.9
		c-0.8,0.6-0.6-0.8,0.6-0.1c-0.1,0.2,0.1,0.2-0.2,0.5c-0.6,0.6,1.6-0.3,2.7,3.3c-0.4,0.2-0.4,0-0.5-1.3c-1.2,2.3,2.2,1,3.4,0.4
		c-1,0.8,4.6-1.7,2.7-1.6c0.2-0.2,0.4-0.5,0.9-1c0.8-1.6,11.4,6.3,11.6,9c0.2,1.6-1.9,7.1,0.9,6.9c-1.8-4.6,1,0,0.9-1.3
		c2-1.1-1.8,3.4-0.3,3.5c0.9,0.8,1.4,4.2,3.4,4.1c-1.4-1.3,0.9-1.4,0.3-0.9c0.5,2.5,0.6,2.5,3.7,7c0.1-0.9,9,5.9,3.9,4
		c0.1,2.3,3.6-0.1,5-0.1c0.6-1.4,0.2-3.1,1.2-4.8c1.3-9.4-10.4-23.5-13.8-33.8c0.1,0.3,1-4.8,0.2-2.4c-1.3-1.5,0.8,0.1-0.2-2.2
		c0.6,0,0.5-0.7,1.1-0.7c0.6-0.7-1.1-1.4,0.4-1.3c0.2-0.5,0.1-0.8-0.4-1.2c1.1-1.5,3.1-3,1.6-5.5c1.8,1.7,1.3,0.3,2.2-0.7v0.1
		c0.2-0.3,1.4,0.2,1.3-1c-0.3,0.6,6.1-4,5-6.5c0.6,1.8,0.9-3.3,3.9-4.2c0.6-1.1,3.4,0.3,3.1-2.2c0.2,2.6,2.5-6.7,3-4.6
		c-0.8,1.1,1.9,0.2,0.9-1.1c0.2,0.9,2.7,0,2.4-0.3c0.2-0.4,0.2-0.4,0.8,0.1c0.2-0.2,0.6-0.1,1.6-1.6c0.2-0.2-1.2-1.2-1.1-0.4
		c-1.2-0.3,0.5,0.7-1,0.3c0.1,0,0.5,0.5,0,0.4c-0.3-1-0.2,1.1-2.7-0.9c-0.3-1.7,2.6,3,2.9-1.7c1.4-0.3-1.1-0.8-1.7-0.6
		c-2.8-1.5,1,0.4,1.1-1c-1-0.3,0.2-0.5,0.8-0.6c-1.1,1.5,0.2,0.7,1.3,1.3c1-0.2,1.4-0.6,2-2.3c0.9,0.9,0.4-0.6,0.8-0.8
		c-0.4-0.6,0.2-1.2-1.2-1.8c0.2,0.2-0.3,0.1-0.1,0.5c-1.2-0.5,0.5,2.9-1.3,1.8c0.7,0.2,0.5-1.2,0.2-1.8c-0.6-1.5-4.2,3.8-4.5-2.2
		c0.4-0.1,1,3.9,1.9,1.6c0.9-0.2,0.5-1.1,1.6-0.6c0.6-0.5,0.6-0.4-0.3-1.1c0.6-0.3,1.9,1.3,1.1-0.3c0.6-0.1,0.5,0.9,1.3,1.3
		c0.1-1-3.6-4.1-1.4-2.8c0.1,0-0.8-2.1,0.2-0.5c-1-0.5,5.1,8.2,2.2,3.6c-1.5-1.1-2.2-8.5-5.9-5.2c-0.1-1.5-4.1-1.7-2.8-2.7
		c1,0.4,2.2,2,3.7,1.5c0-0.1,0.2-0.8-0.4-0.5v-0.1l0,0c0.5-0.6-3.4-1.2-3-2.6c2.5,3,1.5-0.2,3.1,0.9c-0.2-2.1-1.7-0.9-4.7-4.4
		c3.1,3.4,6.6,1.4,1.5-0.8c-0.9-0.2-2.1-0.2-2.7-1.6c-0.4-1.2,1.1,0.7,3.6,1.1c1.9,0.8,0.3-0.7-1.5-2.2c3.4,1.6,0.2,0.6,0.2-3.8
		c0.8,0,0.2-0.9-1-1.8c1-0.1,0.7,0.1,1.4-0.7c-0.5-0.8,0.7,0,0.6-0.8c1-0.1-0.2-1.2,1.1-1.5c0.1,0-0.1,0.3,0,0.8
		c0.5-1,1,0.5-0.7,1.3c-0.6,1.9,1.4,2.2-0.2,4.4c0.6-0.4,0.6,0.6,1.3-0.2c0.7,2.1-0.4-0.1-0.6,1.5c1.6-0.4-1.9,0.3,1.6,2
		c0-1.8,0.3,0.9,0.7-0.9c0.4,0.3,0.3,3.1,1.4,2.6c1-0.7-0.2,1.4-0.3,2.6c-0.6,0.5-0.4,6.2,0.6,1.7c0.4-5,4.3-4.6,1.6-9.5
		c0,0,1-0.2,0.2-0.5c0,0,0.2,0,0.2-0.3c2.3,1.5-5.1-4.7-3.6-6.6c-0.2,3.3,4.6,1.8,4.4,4.7c1.4-2.8,3.1-5.1,3-8.9
		c0.2,0.2,0.2,0.7,0.4,1.8c-0.1-1,0.5-3.5-0.6-5c0,0.2-0.1,0.1,0.1,0.5c-0.2-0.2-1,0.2-1.6-0.2c1.4-0.5,0.3-1.9,1.4-3.4l0.2,0.6
		c-0.1-0.1-0.1,0-0.2-0.2l0.6,0.2c-0.4-0.6,0.6-0.6,0.5-1.7c1,0.2,3.2-2.9,3.8-2.5c0.6-0.6,2.6-0.2,2.7-1.2c0.9,0.5,1-0.2,2.7-0.7
		v0.2c0.4-0.2,0.9-0.3,1.8-1.3c0.1,0.9,0.5-3.8,0.7-0.5c0.6,1,0.5-1.2,0.8-0.2c0.1,0,0.2-0.3,0.5-0.7c-0.1,0.1,0.6,0.6,0.5,0
		c0.4,0.3,1.6-4.2,1.8-0.6c1.8-0.4,6.1-4,1.4-4c3.8,0.1-0.9,4.7-2,0.6c-0.3-0.6-0.8-1.2-2-1.6c0.3,1.1-1.5,0-0.7-0.5
		c2.2-4.5,0.3,1,0.2-5.4c1.4-0.5,0.6-5.8,2.6-6.2c0.9-1.1-0.2,2,1.7-1.3c1.2,0.9,0.1-0.7,1.8-1c0,2.8,1.3-7.3,1.4-3.5
		c0.2,0.2,0.3-0.7,0.6,0.1c0.1,0.1-0.8-0.2-0.4,0.3c-0.7,0.1,0.7,0.5,0.9,0.3c0.5,0.2,0.6-0.1,0.1-0.9c0.2-0.2,0.4-0.2,0.5-0.9
		c0.1,0.4,0.7,0.9,0.7-0.3c0.5,0.3,1-0.6,1.5,0.9c0.2-0.2,0.2-0.5,0.2-1.2c0.3,0.6,0.7,0.2,0.6-0.7c0.3-0.2,1.6,0.6,1.3-0.9
		c0,0.1,0.1-0.1,0.4,0.1c-0.1,0.2,0.2-0.9,0.2-0.1c0.4,0.2,0-1.6,0.6-0.5c0.5,0,1-0.8,1.1-1.8c-2,0.5,0.6-1.6-2-2.2
		c-1.3,1.6-0.6-2.5-3.1-2.7c-2.5-1.1-0.3-9-5.4-10.7c-5.9,5.5-4.6-7.2-7.8,8.8c-1.3,4.2,0.6,8.1-4.8,9.9c1.1,6.1-20.6-0.7-22.4,13.9
		l-0.2,0.3c0,1.6,1.8,2.5-3,5.9c-0.2-0.2-2.2-0.3-3,0.7c-1-1-9.9-0.9-7.3,3.3c2.1,0.6-1.4,4.2-5.2,6.9c-0.1,0,0.2-0.1,0.1-0.3
		c-7.4,4.5-7.8,8.3-18,6.1c0.2,0.2,3.1-10.3,3.9-7c1-2.4-0.6-17.4-6.7-6.6c-3.8-2.3,1.9-1.5,1.2-10.7c-8.3-7-9-5.1-11.9,3.1
		c-0.5-0.6,0.1-2,0.1-3.1c-2.2,2.2-4,5.3-4,9.5c-1,4.4,4.7,6.5,0.4,14.6c-7.7,10.1-9.4-13.6-4.6-22.4c0.9-0.4,0.5-3.2-0.2-0.7
		c-0.6-0.1-1,1.3-1.1,2.5c-1.1-1-1.4,1.4-3.2,2.6c-0.8,0.8,5.4-13,4.8-8.9c4-3.8-0.6,2.2,3.1-0.9c1.3-3.2,8.2-1.8,12.5-2.6
		c-2.9-5.4-7.1-0.5-5.9-5c-5.3,0.3-10.3,5.8-14.2,0.8c-1.8-0.6-2.1-1.5-3.8,0.8c-0.2-0.3,0.2-1,0-1.8c1-0.4,1.2-2.6,3.2-3.1
		c-3.5-1.4-9.9,8.1-15.8,6.6c2.8-5.5-3,0.9-6.1-0.8c1.4-1.8,7.7-7.5,13-9.6c-6.2-1-11.4,0.2-16.2-2.6c1-2.7-6.2,1.2-9.9-2.6
		c-0.3-1.1,0.1-4.1-2.3-3.8c-38.1,8.2-91.6-6.2-134.7-16V1c-1,0.2,0.7,1.7,0.6,2c0.2,0.2,0.2,2-0.8,1.6c0.2-0.9-1.1,0.3,0.1,0.2
		C64,5.6,63,7.2,64.1,8c-0.6,0.3-1.1,1.2-1.8,2.2c0.2,0.6-0.1,1.8-0.7,2.9c0,0-0.2-0.1-0.5-0.6c-0.1,0.2-1.2,2-1.8,0.6l-0.1,0.3
		c-0.1,0.1,0.2-0.2-0.3-0.2c-0.1,0.2,0,0.1-0.2,0.7c-0.4,0.2,0.3-0.6-0.5-0.5c0.1,0,0,0,0.5-0.4c-0.2-0.1-0.1-0.2-0.7,0.2
		c0,0-0.1-0.2,0.5-0.5l-0.5-0.2c0,0.2,0-0.4,0.4-0.2l-0.2,0.2c0.2,0.1,1-0.2,1.4-0.9c0.2,1-1,2,1,0.2c0,0.2-0.8,0.6,0.1,1
		c-0.2-1,1.8-1.3,0.1-2.2c0-0.1-0.2-0.1,0-0.4c0.6,0.6,0.2,0.1,0.5-0.7c0-0.2,0.1,0.7,0.5,0c0.2,0.6,0.8-0.6,0-1.4
		c-0.2,0.1,0.1,0.2-0.1,0.9c0.6-0.5-5.9,2.8-2.1,2.3c-3,0.9-0.7-1,0.6-2.7l0.2,0.3c0-0.1,0.1,0.1,0.2-0.4c0,0.2,0.2,0.2-0.1,0.6
		c0.6-0.3,1.4-0.8,1-2.2l-0.2,0.6l-0.1-0.2l0.2-0.6c0.1-1,0.3-0.9-0.6,0.1c0,0,0.3-0.4-0.2-0.8c-0.1,0,0.1,0.1-0.2,0.3
		C60.1,4.8,57,4.9,53,1.4c-1,3,0.7,6.2-0.1,10.5c0.5-0.5,0.3-0.5,1.6,0.4c0.2,0.2-1.3-0.2-1.4,0.6c-0.2,0,0-0.2-0.3-0.6
		c-0.3,1-0.1,1.3,1,1.8c-0.1-0.2-0.3,0.3-0.8,0.4c0-0.2,0.5,1.8-0.6,1.8c-0.2,0.2,0.5-0.8,0.2-1.9c-0.2,0.2-0.4,1.2-0.6,2.3
		c0.4,0.4,2.8,0.3,3,1.7c-0.5-0.6-1.1,0-2.2-0.6c0,0,0.1,0.1,0.2,0.4c-0.3,0.2-0.2-0.6-1-0.7c0.5,1.5-1.2,2.9-0.9,5.3
		c-2.7,7.1-10.8,17.5-9.1,27l-0.2-0.2c0.2,0.8-0.3,1.1-0.9,2.5l-0.2-0.2c0.3,3.1-5,1.7-1.3,10.7c-2.4,3.7,1.2,9.6,1.4,12.1
		c0.3,0.3-1.3,2.2,0.1,1.1c0,0.4,0.5,0.7,1,1.4c1.4,1.2,1,0.9,1.5-1.1c-0.1,0-0.1,0-0.2-0.2c0.8,0,1.1,0.1,1.8,1.2
		c-0.2-0.1,0-0.1-0.6-0.2h0.1c-1.7-0.1-0.6,2.7,0.3,4.6c-0.4,0.2-2.6-1.8-1.6-2.4c-0.1-0.2,0.2-0.5-0.3-0.7
		c-1.9,2.3-0.9,5.1,1.7,7.8c-4.1,3.1,2.6,9,2.2,12.4c3.7,3-4.6,5.1,5.3,7.9c5.1,4,12.2,9,12.2,16.4c-0.5-0.2-0.2-0.9-0.3,0.6
		c4.3,0.5,9.1,1,14.6,1.6c-3.6,0.6,17.7,15.4,31.8,15.7c5.8,2,10.5-5.2,18.2-0.1c1.4,3.5,5.7,5.8,8.2,9.6c0.9,1.8,0,7,5.9,9.9
		c2.3,0.6,2.3,3.6,5.8,0.5c-0.2-0.6,0.6-1.6,1-2.8l0.2,0.1c1.3-2.5,4.7-1,7.7-0.6C157.9,157.2,158.1,157.7,158.5,157.6z"/>
	<path class="st0" d="M332.7,57c-0.3,0.1-0.3,0-1-0.1c-0.2-0.8-0.2,0.9-1,0.9C330.5,58.4,332.5,57.8,332.7,57z"/>
	<path class="st0" d="M334.9,57.4c-1.4-0.2-0.2,0.9,0.6-0.2c-0.2-0.4-1-0.8-0.4-0.2C335.1,57.1,335.3,57.2,334.9,57.4z"/>
	<polygon class="st0" points="314.9,65.6 314.9,65.5 314.9,65.4 314.9,65.3 314.8,65.4 314.7,65.7 314.6,66 314.5,66.3 314.6,66.4
		314.7,66.4 314.9,66.2 314.9,66.1 314.9,66 314.9,65.8 314.9,65.7 	"/>
	<polygon class="st0" points="313.5,68.3 313.7,68.2 314,68 314.1,67.8 314.2,67.6 314.5,67.3 314.5,67.2 314.3,66.8 313.7,67.2
		"/>
	<path class="st0" d="M322.5,63.2l0.2,0.2c-0.1,0,0.1,0.2-0.4,0.2c-0.6-0.6,0.1-1.3,1.1-2.5c-1.4,1.7-4.9,2.5-6.3,3.4
		c0-0.3-0.8-0.2-0.7,0.6c-0.4-0.6-0.3,0.9-0.8,0.3c-2.8,3.1,1.8,0.2-0.2,1.8c1-0.4,2.6-1.3,3.8-2.2c1.8-0.4,4.4-2.6-0.1,0.9
		c1.5-0.9,9.7-6.1,4.1-3.9C323,62.4,323.1,62.8,322.5,63.2z"/>
	<path class="st0" d="M61.3,2.4c0,0,0.1,0.2,0.3,0.5c-0.2,0,0,0.2-0.2,0.6C60.9,3.6,60.7,1.2,61.3,2.4z"/>
	<path class="st0" d="M62,3.9c0-0.3-0.5-0.5,0.2-1C62,3.2,62.7,4,62,3.9z"/>
	<path class="st0" d="M62.6,2.5c-0.2,0.1,0.1-0.2-0.3-0.6c0,0.1-0.1,0,0,0.6c-0.2,0.2,0-0.4-0.6-0.2c-0.1-0.2,0.2-0.3,0.6-0.7
		C62.4,1.7,63.4,2.1,62.6,2.5z"/>
	<path class="st0" d="M62.2,5.6c0.1-0.1-0.2,0.2,0.4,0.3c-0.7,1.4,2.6,3.8-0.3-0.6c-0.1-0.2,0.2,0.2,0.4-0.3
		c0.2,0.1,0.2,0.1,0.7,0.1c0.2-0.1-0.3-0.4-0.2-0.7C63.2,4.3,61.8,4.5,62.2,5.6z"/>
</g>
<g>
	<g>
		<polyline class="st1" points="129.7,114.9 125.4,115.5 121.1,116.1 116.8,116.6 112.5,117.2 108.1,117.6 103.8,118.1 99.5,118.5
			95.1,118.9 90.7,119.3 86.3,119.6 82,120 77.5,120.2 73.1,120.4 68.7,120.6 64.3,120.8 		"/>
		<polyline class="st1" points="272.3,111.1 275.6,108.1 278.9,105.1 282.1,102.1 285.4,99 288.5,96 291.7,92.9 294.9,89.8
			297.9,86.7 300.9,83.6 304,80.4 306.9,77.3 309.9,74.1 312.9,70.9 315.7,67.7 318.5,64.5 321.3,61.3 324.1,58 326.9,54.8 		"/>
		<polyline class="st1" points="181.5,154 177.3,153.3 173.1,152.5 168.9,151.6 164.7,150.8 160.5,150 156.5,149 152.3,148.1
			148.1,147.2 144.1,146.1 140,145.1 135.8,144 131.7,143 127.7,141.9 123.7,140.8 119.6,139.6 115.6,138.4 111.5,137.2 107.5,136
			103.5,134.8 99.5,133.5 95.6,132.2 91.6,130.8 87.7,129.5 83.7,128.1 79.8,126.7 75.9,125.2 72,123.8 68.1,122.3 64.3,120.8 		"/>
		<polyline class="st1" points="181.5,154 177.3,153.1 173.1,152.1 168.9,151.1 164.8,150 160.7,149 156.5,147.9 152.5,146.8
			148.4,145.6 144.3,144.4 140.2,143.2 136.1,142 132.1,140.8 128.1,139.5 		"/>
		<polyline class="st1" points="332.7,53.6 328.1,53.6 323.7,53.6 319.1,53.5 314.5,53.4 310.1,53.2 305.6,53 301.1,52.8
			296.6,52.5 292.1,52.2 		"/>
		<polyline class="st1" points="312.9,37.9 309.5,40 306.1,42.1 302.7,44.2 299.3,46.3 295.7,48.3 292.3,50.4 288.8,52.4
			285.3,54.3 281.7,56.3 278.1,58.2 274.5,60 270.9,62 267.3,63.8 263.6,65.6 259.8,67.5 256.1,69.2 252.4,71 248.6,72.8
			244.9,74.4 241,76.1 237.3,77.8 233.3,79.4 229.5,81 225.6,82.6 221.7,84.1 217.7,85.6 213.8,87.2 209.8,88.6 205.9,90.1
			201.8,91.5 197.8,92.9 193.7,94.3 189.7,95.6 185.6,96.8 181.5,98.1 177.3,99.4 173.3,100.6 169.1,101.8 164.9,102.9 160.7,104
			156.5,105.2 152.2,106.2 148,107.2 143.7,108.3 139.4,109.2 135.1,110.2 130.8,111.1 126.5,112 122.1,112.8 117.7,113.6
			113.4,114.4 109,115.2 104.6,115.9 100.1,116.5 95.7,117.2 91.3,117.8 86.8,118.4 82.3,118.9 77.8,119.5 73.3,120 68.8,120.4
			64.3,120.8 		"/>
		<polyline class="st1" points="128.1,139.5 124.1,138.5 120,137.6 115.9,136.5 111.9,135.5 107.9,134.4 103.8,133.3 99.8,132.1
			95.8,131 91.8,129.8 87.9,128.6 83.9,127.4 80,126.1 76,124.8 72.1,123.5 68.1,122.2 64.3,120.8 		"/>
		<polyline class="st1" points="128.1,139.5 132.1,140.8 136.1,142 140.2,143.2 144.3,144.4 148.4,145.6 152.5,146.8 156.5,147.9
			160.7,149 164.8,150 168.9,151.1 173.1,152.1 177.3,153.1 181.5,154 		"/>
		<polyline class="st1" points="128.1,139.5 125.3,136 122.6,132.5 119.9,129 117.3,125.4 114.6,121.9 112.1,118.4 109.5,114.8
			107,111.2 104.5,107.6 102.1,104 99.7,100.4 97.3,96.8 94.9,93.1 92.5,89.5 90.3,85.8 88.1,82.2 85.8,78.5 83.7,74.8 81.5,71.2
			79.3,67.5 77.3,63.8 75.3,60.1 73.3,56.4 71.3,52.8 69.3,49 67.4,45.3 65.5,41.6 63.7,38 61.9,34.2 60.1,30.5 58.3,26.8
			56.6,23.1 		"/>
		<polyline class="st1" points="248.5,59.2 244.9,61.2 241.4,63.1 237.8,65 234.2,66.8 230.6,68.7 227,70.4 223.3,72.2 219.7,74
			215.9,75.7 212.2,77.4 208.5,79.2 204.7,80.8 200.9,82.4 197,84 193.2,85.6 189.3,87.2 185.4,88.7 181.6,90.2 177.6,91.7
			173.7,93.2 169.7,94.6 165.7,96 161.7,97.3 157.7,98.7 153.6,100 149.6,101.3 145.4,102.6 141.3,103.8 137.2,105 133.1,106.2
			128.9,107.3 124.7,108.4 120.5,109.5 116.3,110.6 112.1,111.6 107.8,112.6 103.5,113.6 99.2,114.5 94.9,115.4 90.5,116.3
			86.2,117.1 81.9,117.9 77.5,118.7 73.1,119.4 68.7,120.1 64.3,120.8 		"/>
		<polyline class="st1" points="320.1,56.7 316.5,58.5 312.9,60.4 309.3,62.2 305.7,64 302.1,65.7 298.5,67.5 294.8,69.2
			291.1,70.8 287.3,72.5 283.7,74.1 279.9,75.7 276.1,77.3 272.4,78.9 268.5,80.4 264.8,82 260.9,83.4 257.1,84.8 253.2,86.3
			249.3,87.7 245.4,89.1 241.5,90.4 237.6,91.7 233.6,93.1 229.7,94.3 225.7,95.6 221.7,96.8 217.7,98 213.6,99.1 209.6,100.2
			205.5,101.3 201.4,102.4 197.3,103.5 193.2,104.4 189.1,105.5 184.9,106.4 180.8,107.3 176.6,108.2 172.5,109.1 168.3,110
			164.1,110.8 159.8,111.6 155.7,112.3 151.3,113 147.1,113.7 142.9,114.4 138.6,115 134.3,115.6 130,116.1 125.7,116.7
			121.3,117.2 117,117.6 112.7,118.1 108.3,118.5 104,118.8 99.6,119.2 95.2,119.6 90.8,119.8 86.4,120 82,120.3 77.6,120.4
			73.2,120.6 68.7,120.7 64.3,120.8 		"/>
		<line class="st1" x1="126.5" y1="135.2" x2="128.1" y2="139.5"/>
		<polyline class="st1" points="177.3,183.5 174.1,180.4 170.9,177.4 167.7,174.4 164.5,171.2 161.4,168.1 158.3,165 155.3,161.9
			152.2,158.7 149.2,155.6 146.2,152.4 143.3,149.2 140.4,145.9 137.5,142.7 134.6,139.4 131.8,136.2 129,132.9 126.3,129.6
			123.5,126.3 120.9,123 118.2,119.6 115.6,116.3 112.9,112.9 110.4,109.6 107.9,106.2 105.3,102.8 102.9,99.5 100.5,96 98.1,92.6
			95.7,89.2 93.3,85.8 91,82.4 88.8,78.9 86.5,75.5 84.3,72 82.1,68.5 80,65.1 77.8,61.6 75.7,58.1 73.7,54.6 71.7,51.2 69.7,47.6
			67.7,44.1 65.8,40.6 63.9,37.2 62.1,33.6 60.2,30.1 58.4,26.6 56.6,23.1 		"/>
		<polyline class="st1" points="236.7,59.5 233.8,62.2 230.9,65 227.8,67.7 224.9,70.4 221.7,73.2 218.7,75.9 215.6,78.6
			212.5,81.2 209.3,83.9 206.1,86.5 202.8,89.2 199.6,91.7 196.2,94.3 192.9,96.8 189.6,99.4 186.2,102 182.8,104.4 179.3,106.9
			175.8,109.4 172.4,111.9 168.9,114.3 165.3,116.7 161.7,119.1 158.1,121.5 154.4,123.8 150.7,126.1 147,128.4 143.3,130.7
			139.6,132.9 135.7,135.2 132,137.3 128.1,139.5 		"/>
		<polyline class="st1" points="55,107.7 54.9,103.5 54.9,99.2 54.9,94.9 54.9,90.7 54.9,86.4 54.9,82.1 54.9,77.9 55,73.6
			55.1,69.4 55.1,65.2 55.3,60.9 55.3,56.7 55.4,52.4 55.6,48.2 55.7,44 55.9,39.8 56.1,35.6 56.2,31.5 56.4,27.2 56.6,23.1 		"/>
		<polyline class="st1" points="56.6,23.1 58.3,26.8 60.1,30.5 61.9,34.2 63.7,38 65.5,41.6 67.4,45.3 69.3,49 71.3,52.8 73.3,56.4
			75.3,60.1 77.3,63.8 79.3,67.5 81.5,71.2 83.7,74.8 85.8,78.5 88.1,82.2 90.3,85.8 92.5,89.5 94.9,93.1 97.3,96.8 99.7,100.4
			102.1,104 104.5,107.6 107,111.2 109.5,114.8 112.1,118.4 114.6,121.9 117.3,125.4 119.9,129 122.6,132.5 125.3,136 128.1,139.5
					"/>
		<polyline class="st1" points="326.9,54.8 323,56.2 319.1,57.6 315.3,58.9 311.3,60.3 307.4,61.6 303.5,62.8 299.6,64 295.7,65.2
			291.7,66.4 287.7,67.6 283.7,68.7 279.7,69.7 275.7,70.8 271.7,71.8 267.7,72.8 263.7,73.8 259.6,74.8 255.6,75.6 251.5,76.5
			247.4,77.3 243.3,78.2 239.2,79 235.1,79.7 231,80.4 226.9,81.2 222.7,81.8 218.6,82.4 214.5,83.1 210.3,83.6 206.1,84.2
			201.9,84.7 197.7,85.2 193.6,85.6 189.3,86 185.2,86.4 180.9,86.8 176.8,87.2 172.5,87.4 168.3,87.7 164.1,88 159.8,88.1
			155.6,88.3 151.3,88.4 147.1,88.5 142.9,88.6 138.6,88.7 134.3,88.7 130.1,88.7 125.8,88.6 121.5,88.5 117.3,88.4 112.9,88.2
			108.7,88 104.4,87.8 100.1,87.6 95.8,87.3 91.6,87 87.3,86.7 83,86.3 78.7,85.9 74.4,85.4 70.1,84.9 65.8,84.4 61.6,83.9
			57.3,83.3 52.9,82.8 48.7,82.1 44.4,81.4 		"/>
		<polyline class="st1" points="294.9,106 290.9,107 286.9,108 282.9,109.1 278.8,110 274.7,110.9 270.6,111.9 266.5,112.8
			262.5,113.6 258.4,114.4 254.3,115.2 250.2,116 246.1,116.8 242,117.5 237.8,118.1 233.7,118.8 229.5,119.4 225.3,120
			221.2,120.6 217,121.1 212.9,121.6 208.7,122.1 204.5,122.6 200.3,123 196.1,123.4 191.9,123.7 187.7,124 183.5,124.4
			179.3,124.7 175,124.9 170.8,125.2 166.5,125.3 162.3,125.5 158.1,125.6 153.8,125.7 149.6,125.8 145.3,125.8 141.1,125.8
			136.9,125.8 132.5,125.7 128.3,125.6 124.1,125.6 119.8,125.4 115.5,125.2 111.3,125 107,124.8 102.7,124.5 98.5,124.2
			94.1,123.9 89.9,123.6 85.7,123.2 81.3,122.8 77.1,122.3 72.8,121.8 68.5,121.3 64.3,120.8 		"/>
		<polyline class="st1" points="292.1,52.2 287.8,52.6 283.5,53 279.2,53.3 274.9,53.6 270.5,54 266.2,54.2 261.8,54.4 257.5,54.6
			253.2,54.8 248.9,54.8 244.6,54.9 240.3,55 236,55 231.7,54.9 227.3,54.9 223,54.8 218.7,54.7 214.5,54.4 210.1,54.3 205.8,54
			201.6,53.8 197.3,53.5 193,53.1 188.8,52.8 184.5,52.4 180.2,51.9 176,51.4 171.7,50.9 167.5,50.4 163.3,49.8 159,49.2
			154.9,48.5 150.6,47.8 146.5,47.1 142.2,46.4 138.1,45.6 133.9,44.8 129.7,43.9 125.6,43 121.4,42.1 117.3,41.2 113.2,40.2
			109,39.2 104.9,38.1 100.9,37.1 96.8,36 92.7,34.8 88.6,33.6 84.6,32.4 80.5,31.2 76.5,30 72.5,28.6 68.5,27.3 64.5,26 60.5,24.5
			56.6,23.1 		"/>
		<polyline class="st1" points="64.3,120.8 68.1,122.2 72.1,123.5 76,124.8 80,126.1 83.9,127.4 87.9,128.6 91.8,129.8 95.8,131
			99.8,132.1 103.8,133.3 107.9,134.4 111.9,135.5 115.9,136.5 120,137.6 124.1,138.5 128.1,139.5 		"/>
		<polyline class="st1" points="64.3,120.8 68.1,122.3 72,123.8 75.9,125.2 79.8,126.7 83.7,128.1 87.7,129.5 91.6,130.8
			95.6,132.2 99.5,133.5 103.5,134.8 107.5,136 111.5,137.2 115.6,138.4 119.6,139.6 123.7,140.8 127.7,141.9 131.7,143 135.8,144
			140,145.1 144.1,146.1 148.1,147.2 152.3,148.1 156.5,149 160.5,150 164.7,150.8 168.9,151.6 173.1,152.5 177.3,153.3 181.5,154
					"/>
		<polyline class="st1" points="44.4,81.4 46.2,85.4 48.1,89.3 50,93.3 51.9,97.2 53.9,101.2 55.9,105.1 58,109.1 60,113
			62.1,116.9 64.3,120.8 		"/>
		<polyline class="st1" points="50.6,104.1 50.9,99.8 51,95.6 51.3,91.2 51.6,86.9 51.8,82.6 52.1,78.4 52.4,74 52.6,69.8
			52.9,65.5 53.3,61.2 53.6,56.9 54,52.7 54.3,48.4 54.7,44.2 55,40 55.4,35.7 55.8,31.5 56.2,27.3 56.6,23.1 		"/>
		<polyline class="st1" points="100.6,132.1 96.5,131 92.5,129.8 88.5,128.6 84.4,127.4 80.3,126.1 76.3,124.8 72.3,123.5
			68.3,122.2 64.3,120.8 		"/>
	</g>
	<ellipse class="st2" cx="177.3" cy="184" rx="2.9" ry="2.9"/>
	<ellipse class="st2" cx="181.7" cy="154.4" rx="2.9" ry="2.9"/>
	<ellipse class="st2" cx="236.9" cy="59.6" rx="2.9" ry="2.9"/>
	<ellipse class="st2" cx="248.9" cy="59.1" rx="2.9" ry="2.9"/>
	<ellipse class="st2" cx="292" cy="52" rx="2.9" ry="2.9"/>
	<ellipse class="st2" cx="319.9" cy="56.8" rx="2.9" ry="2.9"/>
	<ellipse class="st2" cx="295.1" cy="106.3" rx="2.9" ry="2.9"/>
	<ellipse class="st2" cx="272.4" cy="111" rx="2.9" ry="2.9"/>
	<ellipse class="st2" cx="327.1" cy="55.2" rx="2.9" ry="2.9"/>
	<ellipse class="st2" cx="332.7" cy="53.3" rx="2.9" ry="2.9"/>
	<ellipse class="st2" cx="312.8" cy="38" rx="2.9" ry="2.9"/>
	<ellipse class="st2" cx="127.8" cy="139.5" rx="2.9" ry="2.9"/>
	<ellipse class="st2" cx="126.3" cy="134.7" rx="2.9" ry="2.9"/>
	<ellipse class="st2" cx="129.7" cy="115.1" rx="2.9" ry="2.9"/>
	<ellipse class="st2" cx="100.8" cy="132" rx="2.9" ry="2.9"/>
	<ellipse class="st2" cx="64.1" cy="120.6" rx="2.9" ry="2.9"/>
	<ellipse class="st2" cx="54.9" cy="107.6" rx="2.9" ry="2.9"/>
	<ellipse class="st2" cx="50.5" cy="104" rx="2.9" ry="2.9"/>
	<ellipse class="st2" cx="44.4" cy="81.2" rx="2.9" ry="2.9"/>
	<ellipse class="st2" cx="56.9" cy="22.8" rx="2.9" ry="2.9"/>
</g>
<text transform="matrix(1 0 0 1 83.1986 242.0179)" class="st2 st3 st4">Immigration</text>
</svg>
