<?xml version="1.0" encoding="utf-8"?>
<!-- Generator: Adobe Illustrator 23.1.1, SVG Export Plug-In . SVG Version: 6.00 Build 0)  -->
<svg version="1.1" xmlns="http://www.w3.org/2000/svg" xmlns:xlink="http://www.w3.org/1999/xlink" x="0px" y="0px"
	 viewBox="0 0 400.4 266.7" style="enable-background:new 0 0 400.4 266.7;" xml:space="preserve">
<style type="text/css">
	.st0{fill:#707589;}
	
		.st1{clip-path:url(#SVGID_2_);fill:none;stroke:#FFFFFF;stroke-width:1.07;stroke-linecap:round;stroke-linejoin:round;stroke-miterlimit:10;}
	.st2{opacity:0.549;fill:none;stroke:#FFFFFF;stroke-width:1.07;stroke-linejoin:round;stroke-miterlimit:10;}
	.st3{opacity:0.357;fill:none;stroke:#FFFFFF;stroke-width:1.07;stroke-linejoin:round;stroke-miterlimit:10;}
	.st4{opacity:0.937;fill:none;stroke:#FFFFFF;stroke-width:1.07;stroke-linejoin:round;stroke-miterlimit:10;}
	.st5{opacity:0.871;fill:none;stroke:#FFFFFF;stroke-width:1.07;stroke-linejoin:round;stroke-miterlimit:10;}
	.st6{opacity:0.102;fill:none;stroke:#FFFFFF;stroke-width:1.07;stroke-linejoin:round;stroke-miterlimit:10;}
	.st7{opacity:0.486;fill:none;stroke:#FFFFFF;stroke-width:1.07;stroke-linejoin:round;stroke-miterlimit:10;}
	.st8{fill:none;stroke:#FFFFFF;stroke-width:1.07;stroke-linejoin:round;stroke-miterlimit:10;}
	.st9{opacity:0.616;fill:none;stroke:#FFFFFF;stroke-width:1.07;stroke-linejoin:round;stroke-miterlimit:10;}
	.st10{opacity:0.678;fill:none;stroke:#FFFFFF;stroke-width:1.07;stroke-linejoin:round;stroke-miterlimit:10;}
	.st11{opacity:0.808;fill:none;stroke:#FFFFFF;stroke-width:1.07;stroke-linejoin:round;stroke-miterlimit:10;}
	.st12{fill:#FFFFFF;}
</style>
<g id="map">
	<path class="st0" d="M50.8,229.3c0.8,1.4,0.6,2.2-1.1,2.8c-1.1,0.4-2.1,1.3-3.1,1.9c-0.6,0.4-1.3,0.6-2.1,1c0.3-2.7,0-5.2,2.5-6.8
		c-1.6,0.1-2.3,0.8-3.3,2.7c-0.7,1.3-1.7,2.5-2.6,4c0.2,0.2,0.7,0.5,1.4,1.1c-4.2,4.5-8.7,8.4-14.2,11.4c-0.6-0.7-1.5-0.5-2.8,0.2
		c-1.5,0.9-3.5,1.2-5.2,1.7c-0.1-0.3-0.3-0.5-0.4-0.8c0.8-0.5,1.7-0.9,2.5-1.4c0.8-0.4,1.7-0.8,2.6-1.2c0.6-0.3,1-1,1.6-1
		c2.9-0.3,4.8-2.2,6.6-4.1c1-1.1,1.4-2.6,2.4-4.5c-1.5,0.2-2.3,0.3-3.5,0.4c-1.2-1.4-1.3-2-4.6-0.6c0-1.6,0-3.1,0-4.7
		c-3.4,0.6-4.2-0.2-4.6-3.6c-0.2-1.4-1.5-2.7-0.2-4.3c0.8-0.9,1.3-2.1,2.2-2.8c0.5-0.4,1.6-0.3,2.4-0.1c1.1-0.5,2.6-0.7,3.2-1.5
		c0.6-0.7,0.2-2.2,0.3-3.1c-1.6,0-3.4,0-5.2,0c-1.4,0-2.3-0.6-2.5-2.2c-0.1-0.9-0.8-1.7-1.4-2.8c1.9-0.7,3.8-1.5,6-2.4
		c0.2,2.3,1.3,2.8,3.3,2.1c-1.6-2.3-3.2-4.5-4.6-6.7c-0.3-0.5-0.7-1.3-0.5-1.7c0.3-0.5,1.1-0.8,1.7-1.1c0.7-0.3,1.9-0.3,2.1-0.7
		c0.9-2.2,2.6-3.2,4.5-4.1c1.3-0.6,2.7-1.1,4.6-1.8c1.3,0.6,3,1.9,4.9,2.3c2.8,0.6,5.8,0.9,8.7,0.7c2.2-0.1,4,0.5,4.5,2.8
		c1.9,9.4,3.8,18.8,5.7,28.5c0.9-0.2,1.8-0.5,2.4-0.6c1.5,1.2,2.9,2.3,4.3,3.3c0.9-1.1,1.7-2.9,2.5-2.9c1.1,0,2.2,1.3,3.2,2.1
		c1.1,0.8,2.2,1.6,3.1,2.6c1.6,1.7,3.2,3.3,5.8,3.6c1.6,0.2,2.2,2.7,1.3,4.8c-0.8,0.2-2.5-2-2.6,0.8c0,0-1.8,0.4-2.3,0
		c-1.4-1.3-2.5-2.8-3.8-4.4c-0.2,0.6-0.3,0.9-0.4,1.5c-1.2-1.3-2.1-2.6-3.3-3.5c-2.1-1.6-4.3-3.1-6.5-4.5c-2.5-1.5-5.3-1.4-8.2-1.2
		c-1.5,0.1-3.1-1-4.7-1.6c-0.7-0.2-1.5-0.3-2.3-0.5C50.9,228.9,50.8,229.1,50.8,229.3z"/>
	<path class="st0" d="M43.5,237.1c0.2,0.2,0.5,0.3,0.6,0.5c0.7,1.4-1.4,5-2.9,5.1c-0.4,0-1.1-0.4-1.3-0.8c-0.2-0.4-0.2-1.2,0-1.6
		c0.9-1,2-1.9,3-2.8C43,237.3,43.2,237.3,43.5,237.1z"/>
	<path class="st0" d="M19.4,218.7c-1.9,0.6-4.2-0.7-4.9-2.8C16.4,216.9,17.7,217.6,19.4,218.7z"/>
	<path class="st0" d="M19,228.9c0.9,0.2,1.8,0.3,2.7,0.5c-0.1,0.4-0.2,0.9-0.4,1.3c-0.8-0.2-1.7-0.5-2.5-0.7
		C18.9,229.7,18.9,229.3,19,228.9z"/>
	<path class="st0" d="M127.6,250.1c-1-0.2-2.3-0.7-1.7-2.9c0.1-0.5-0.1-1.1-0.4-1.6c-0.7-1.5-1.3-2.8,0.2-4.3c0.6-0.6,0.3-2,0.5-3.2
		c3.9,1.1,7.2,2.9,9.1,7.2C133.2,246.7,130.7,248.2,127.6,250.1z"/>
	<path class="st0" d="M122,235.4c-0.2-0.2-0.6-0.4-0.9-0.7c-0.5-0.5-1-1.1-1.5-1.7c-0.2-0.3-0.3-0.8-0.4-1.2
		c0.4-0.1,0.9-0.3,1.3-0.2c1.1,0.2,2.2,0.5,3.2,0.9c0.5,0.2,0.8,0.9,1.2,1.3c-0.5,0.4-1,0.8-1.5,1.1
		C123.1,235.1,122.7,235.2,122,235.4z"/>
	<path class="st0" d="M97.1,221.5c-1,0.7-1.7,1.6-2.3,1.5c-0.8-0.1-1.6-0.9-2.4-1.5c1-0.6,1.9-1.3,3-1.7
		C95.6,219.8,96.3,220.7,97.1,221.5z"/>
	<path class="st0" d="M108.5,224.7c0.1,1.3,0.4,2.3,0.2,3.2c0,0.3-1.3,0.8-1.5,0.6c-0.7-0.6-1.3-1.4-2-2.3
		C106.4,225.7,107.2,225.4,108.5,224.7z"/>
	<path class="st0" d="M160.8,214.7c0.5-0.4-0.2,1.2,0.8,0.9c-0.1,0.1-0.1,1.4,0.3,0.3c1,1.9,3.9,3.5,5,7c0.2,5.5,7.8,9.6,7.7,14.8
		c1.6,6,6,11.9,13.8,11.8c1,0.1,1.7,1.3,3.6,1.2l-0.1,0c1,0.7,2.2-1.9,1.6-0.6c-0.2-0.1-0.1-0.4-0.6,0.1c-0.4-2.4-2.6-5.3-1.8-11.4
		c-1.2,1.3-3.9-4-0.9-0.5l-0.1-0.3c0.6-0.2,1.7-1.3,0.5,0.2c0.9,0.7,2-1.9,2.2-3.6c-0.8,0.9-0.5-0.2-0.9-1.3
		c-0.1,0.1-0.7,0.4-1.2-0.4c1.1-0.6,5.2,2.4,2.5-1.8c0.1,0.1,1-0.4,0.4-0.8c1.3,1.1,2.8-2.3,2.2,0.4c1.7,0,0.3-3,1.2-2.3
		c-2.2-1.1,5.6,1,1.7-0.8c0.1-0.2-0.2-0.1,0.6-0.5c-0.4-0.8-1.2,0.2-1.2-1.6c0.1,0.3,0.6-0.5,0.7,0.5l0.3-0.1c0-0.2,0.2,1.3,0.5,0.2
		c-0.1-0.1,0.4,0.4-0.2,0.7c0.3,0.2-0.1,0.1,0.8-0.3c0.3,0.2-0.8-0.7-0.1-1c-0.1,0.3,0.6,1.6,1,0c0,0.1,0,0,0.1,0.4
		c0.1,0,0.1-0.1,0.5-0.6c0,0.2,0-0.1-0.2,1.1c-0.1-0.1,1.1,0.2-0.1,0.2c3.5-0.5,5.2-2.3-1,1.8c1.3-0.8,6.7-2.8,9.8-6.1
		c-2-0.5,3,0,1.3-5.9l-0.1,0.1c5.8-1.4-0.9,0.8,3.9,1.7c-5.2,3.1,3.3-1.8,7.6-2.2c2.3-1.5,11.2,4.6,11.4,0.5
		c1.5-5.5,7.3,7.2,12.5,3.8c-0.3-3.2,4.5,5.4,4.1-2.6c1.5-0.2,1.3,2,3,1.4c2.4,1.7,3.7,4,4.8,1.2c0.6-1.1-4.3-0.9-4.6-3.9
		c1.5-1.2,3.2-2.2,3.2-4.4c0.4-1.8-7.2,4-4.2,0.6c0-0.3,0.7-1.8-0.2-0.7c-0.1-0.1-0.1,0-0.1-0.4c-1.7,2.6-10.1-0.2-2.5-1.4
		c1.3,0.7,3.9,2.4,5.6-0.1c2.5-2.4,10.1,2.1,10.2-4.9c2.9,2.8-1.7,7.8,4.5,3.4c-1.3,1.5,3-0.2,1.9-2c0.9,1,3.6-0.3,0.3,1.9
		c1.6-1.1,12.6-2.1,5.2-1c0.6-0.2,7,2.9,5.9,1.1c-1,0.7-0.8-1,0.8-0.1c-0.1,0.2,0.1,0.2-0.3,0.6c-0.7,0.8,2-0.4,3.4,4.1
		c-0.5,0.2-0.5,0-0.6-1.6c-1.5,2.9,2.7,1.3,4.2,0.5c-1.3,1,5.7-2.1,3.4-2c0.3-0.3,0.5-0.6,1.1-1.3c1-2,14.2,7.9,14.5,11.3
		c0.3,2-2.4,8.9,1.1,8.6c-2.3-5.7,1.2,0,1.1-1.6c2.5-1.4-2.2,4.3-0.4,4.4c1.1,1,1.7,5.3,4.3,5.1c-1.7-1.6,1.1-1.7,0.4-1.1
		c0.6,3.1,0.8,3.1,4.6,8.7c0.1-1.1,11.2,7.4,4.9,5c0.1,2.9,4.5-0.1,6.2-0.1c0.8-1.7,0.2-3.9,1.5-6c1.6-11.8-13-29.4-17.3-42.2
		c0.1,0.4,1.2-6,0.3-3c-1.6-1.9,1,0.1-0.2-2.7c0.8,0,0.6-0.9,1.4-0.9c0.8-0.9-1.4-1.7,0.5-1.6c0.3-0.6,0.1-1-0.5-1.5
		c1.4-1.9,3.9-3.7,2-6.9c2.2,2.1,1.6,0.4,2.8-0.9l0,0.1c0.3-0.4,1.8,0.2,1.6-1.2c-0.4,0.7,7.6-5,6.2-8.1c0.8,2.2,1.1-4.1,4.9-5.3
		c0.8-1.4,4.2,0.4,3.9-2.7c0.3,3.3,3.1-8.4,3.7-5.8c-1,1.4,2.4,0.2,1.1-1.4c0.2,1.1,3.4,0,3-0.4c0.2-0.5,0.3-0.5,1,0.1
		c0.2-0.3,0.8-0.1,2-2c0.3-0.2-1.5-1.5-1.4-0.5c-1.5-0.4,0.6,0.9-1.2,0.4c0.1,0,0.6,0.6,0,0.5c-0.4-1.2-0.2,1.4-3.4-1.1
		c-0.4-2.1,3.3,3.7,3.6-2.1c1.7-0.4-1.4-1-2.1-0.8c-3.5-1.9,1.2,0.5,1.4-1.3c-1.2-0.4,0.2-0.6,1-0.8c-1.4,1.9,0.2,0.9,1.6,1.6
		c1.3-0.3,1.7-0.8,2.5-2.9c1.1,1.1,0.5-0.8,1-1c-0.5-0.7,0.2-1.5-1.5-2.2c0.2,0.2-0.4,0.1-0.1,0.6c-1.5-0.6,0.6,3.6-1.6,2.2
		c0.9,0.3,0.6-1.5,0.2-2.3c-0.8-1.9-5.3,4.7-5.6-2.7c0.5-0.1,1.2,4.9,2.4,2c1.1-0.3,0.6-1.4,2-0.7c0.8-0.6,0.8-0.5-0.4-1.4
		c0.8-0.4,2.4,1.6,1.4-0.4c0.7-0.1,0.6,1.1,1.6,1.6c0.1-1.2-4.5-5.1-1.7-3.5c0.1,0-1-2.6,0.2-0.6c-1.2-0.6,6.4,10.3,2.7,4.5
		c-1.9-1.4-2.8-10.6-7.4-6.5c-0.1-1.9-5.1-2.1-3.5-3.4c1.3,0.5,2.7,2.5,4.6,1.9c0-0.1,0.2-1-0.5-0.6l0-0.1l0,0
		c0.6-0.7-4.2-1.5-3.8-3.2c3.1,3.7,1.9-0.2,3.9,1.1c-0.2-2.6-2.1-1.1-5.9-5.5c3.9,4.3,8.3,1.8,1.9-1c-1.1-0.2-2.6-0.3-3.4-2
		c-0.5-1.5,1.4,0.9,4.5,1.4c2.4,1,0.4-0.9-1.9-2.8c4.3,2,0.3,0.8,0.3-4.8c1,0,0.3-1.1-1.2-2.2c1.3-0.1,0.9,0.1,1.8-0.9
		c-0.6-1,0.9,0,0.8-1c1.2-0.1-0.3-1.5,1.4-1.9c0.1,0-0.1,0.4,0,1c0.6-1.2,1.2,0.6-0.9,1.6c-0.7,2.4,1.7,2.8-0.2,5.5
		c0.7-0.5,0.8,0.7,1.6-0.3c0.9,2.6-0.5-0.1-0.7,1.9c2-0.5-2.4,0.4,2,2.5c0-2.3,0.4,1.1,0.9-1.1c0.5,0.4,0.4,3.9,1.8,3.2
		c1.3-0.9-0.3,1.8-0.4,3.2c-0.7,0.6-0.5,7.8,0.8,2.1c0.5-6.2,5.4-5.7,2-11.9c0,0,1.3-0.2,0.3-0.6c0,0,0.3,0,0.2-0.4
		c2.9,1.9-6.4-5.9-4.5-8.3c-0.2,4.1,5.8,2.2,5.5,5.9c1.7-3.5,3.9-6.4,3.7-11.1c0.3,0.2,0.2,0.9,0.5,2.3c-0.1-1.2,0.6-4.4-0.8-6.3
		c0,0.2-0.1,0.1,0.1,0.6c-0.3-0.2-1.2,0.2-2-0.3c1.7-0.6,0.4-2.4,1.7-4.2l0.3,0.8c-0.1-0.1-0.1,0-0.2-0.3l0.7,0.2
		c-0.5-0.7,0.7-0.8,0.6-2.1c1.3,0.3,4-3.6,4.8-3.1c0.8-0.7,3.2-0.2,3.4-1.5c1.1,0.6,1.3-0.3,3.4-0.9l0,0.3c0.5-0.3,1.1-0.4,2.2-1.6
		c0.1,1.1,0.6-4.7,0.9-0.6c0.7,1.2,0.6-1.5,1-0.3c0.1,0,0.3-0.4,0.6-0.9c-0.1,0.1,0.7,0.7,0.6,0c0.5,0.4,2-5.2,2.2-0.7
		c2.3-0.5,7.6-5,1.8-5c4.7,0.1-1.1,5.9-2.5,0.8c-0.4-0.7-1-1.5-2.5-2c0.4,1.4-1.9,0-0.9-0.6c2.7-5.6,0.4,1.2,0.2-6.7
		c1.7-0.6,0.8-7.3,3.3-7.7c1.1-1.4-0.2,2.5,2.1-1.6c1.5,1.1,0.1-0.9,2.2-1.2c0,3.5,1.6-9.1,1.8-4.4c0.2,0.2,0.4-0.9,0.8,0.1
		c0.1,0.1-1-0.3-0.5,0.4c-0.9,0.1,0.9,0.6,1.1,0.4c0.6,0.2,0.8-0.1,0.1-1.1c0.3-0.2,0.5-0.3,0.6-1.1c0.1,0.5,0.9,1.1,0.9-0.4
		c0.6,0.4,1.2-0.8,1.9,1.1c0.2-0.3,0.3-0.6,0.2-1.5c0.4,0.8,0.9,0.3,0.7-0.9c0.4-0.2,2,0.7,1.6-1.1c0,0.1,0.1-0.1,0.5,0.1
		c-0.1,0.2,0.3-1.1,0.3-0.1c0.5,0.3,0-2,0.8-0.6c0.6,0,1.2-1,1.4-2.2c-2.5,0.6,0.8-2-2.5-2.7c-1.6,2-0.7-3.1-3.9-3.4
		c-3.1-1.4-0.4-11.3-6.8-13.4c-7.4,6.9-5.7-9-9.7,11c-1.6,5.3,0.7,10.1-6,12.4c1.4,7.6-25.8-0.9-28,17.4l-0.3,0.4
		c0,2,2.2,3.1-3.8,7.4c-0.2-0.2-2.8-0.4-3.7,0.9c-1.3-1.2-12.4-1.1-9.1,4.1c2.6,0.7-1.8,5.3-6.5,8.6c-0.1,0,0.2-0.1,0.1-0.4
		c-9.3,5.6-9.7,10.4-22.5,7.6c0.2,0.3,3.9-12.9,4.9-8.8c1.3-3-0.8-21.7-8.4-8.3c-4.8-2.9,2.4-1.9,1.5-13.4
		c-10.4-8.8-11.3-6.4-14.9,3.9c-0.6-0.8,0.1-2.5,0.1-3.9c-2.7,2.7-5,6.6-5,11.9c-1.2,5.5,5.9,8.1,0.5,18.3c-9.6,12.6-11.8-17-5.8-28
		c1.1-0.5,0.6-4-0.3-0.9c-0.8-0.1-1.2,1.6-1.4,3.1c-1.4-1.2-1.8,1.7-4,3.2c-1,1,6.7-16.2,6-11.1c5-4.8-0.8,2.8,3.9-1.1
		c1.6-4,10.3-2.2,15.6-3.2c-3.6-6.8-8.9-0.6-7.4-6.3c-6.6,0.4-12.9,7.3-17.7,1c-2.3-0.7-2.6-1.9-4.7,1c-0.3-0.4,0.3-1.2,0-2.2
		c1.2-0.5,1.5-3.2,4-3.9c-4.4-1.7-12.4,10.1-19.7,8.3c3.5-6.9-3.8,1.1-7.6-1c1.8-2.3,9.6-9.4,16.2-12c-7.8-1.2-14.2,0.2-20.2-3.2
		c1.3-3.4-7.7,1.5-12.4-3.3c-0.4-1.4,0.1-5.1-2.9-4.7c-47.6,10.3-114.5-7.7-168.4-20l0,0.2c-1.2,0.3,0.9,2.1,0.7,2.5
		c0.2,0.3,0.2,2.5-1,2c0.2-1.1-1.4,0.4,0.1,0.3c1,1-0.2,2.9,1.2,3.9c-0.8,0.4-1.4,1.5-2.2,2.8c0.2,0.8-0.1,2.2-0.9,3.6
		c0,0-0.2-0.1-0.6-0.7c-0.1,0.2-1.5,2.5-2.2,0.8l-0.1,0.4c-0.1,0.1,0.2-0.2-0.4-0.3c-0.1,0.3,0,0.1-0.2,0.9
		c-0.5,0.2,0.4-0.8-0.6-0.6c0.1,0,0,0,0.6-0.5c-0.2-0.1-0.1-0.2-0.9,0.2c0,0-0.1-0.3,0.6-0.6l-0.6-0.2c0,0.2,0-0.5,0.5-0.3l-0.2,0.2
		c0.2,0.1,1.2-0.2,1.7-1.1c0.3,1.3-1.3,2.5,1.2,0.3c0,0.3-1,0.7,0.1,1.2c-0.3-1.3,2.3-1.6,0.1-2.8c0-0.1-0.2-0.1,0-0.5
		c0.7,0.8,0.3,0.1,0.6-0.9c0-0.2,0.1,0.9,0.6,0c0.3,0.7,1-0.7,0-1.7c-0.2,0.1,0.1,0.2-0.1,1.1c0.8-0.6-7.4,3.5-2.6,2.9
		c-3.7,1.1-0.9-1.2,0.8-3.4l0.2,0.4c0-0.1,0.1,0.1,0.2-0.5c0,0.2,0.3,0.2-0.1,0.7c0.7-0.4,1.7-1,1.3-2.8l-0.2,0.7l-0.1-0.3L39.7,26
		c0.1-1.2,0.4-1.1-0.7,0.1c0,0,0.4-0.5-0.3-1c-0.1,0,0.1,0.1-0.3,0.4c-0.6-1.7-4.4-1.6-9.4-6c-1.2,3.7,0.9,7.8-0.1,13.1
		c0.6-0.6,0.4-0.6,2,0.5c0.2,0.3-1.6-0.3-1.7,0.7c-0.2,0,0-0.3-0.4-0.7c-0.4,1.3-0.1,1.6,1.2,2.2c-0.1-0.2-0.4,0.4-1,0.5
		C29,35.5,29.6,38,28.2,38c-0.3,0.3,0.6-1,0.3-2.4c-0.2,0.2-0.5,1.5-0.8,2.9c0.5,0.5,3.5,0.4,3.7,2.1c-0.6-0.8-1.4,0-2.7-0.8
		c0,0,0.1,0.1,0.2,0.5c-0.4,0.3-0.3-0.8-1.2-0.9c0.6,1.9-1.5,3.6-1.1,6.6c-3.4,8.9-13.5,21.9-11.4,33.7L15,79.5
		c0.2,1-0.4,1.4-1.1,3.1l-0.2-0.3c0.4,3.9-6.2,2.1-1.6,13.4c-3,4.6,1.5,12,1.8,15.1c0.4,0.4-1.6,2.8,0.1,1.4c0,0.5,0.6,0.9,1.2,1.8
		c1.7,1.5,1.3,1.1,1.9-1.4c-0.1,0-0.1,0-0.2-0.2c1,0,1.4,0.1,2.3,1.5c-0.2-0.1,0-0.1-0.7-0.3l0.1,0c-2.1-0.1-0.7,3.4,0.4,5.7
		c-0.5,0.2-3.3-2.3-2-3c-0.1-0.2,0.2-0.6-0.4-0.9c-2.4,2.9-1.1,6.4,2.1,9.8c-5.1,3.9,3.2,11.2,2.8,15.5c4.6,3.8-5.7,6.4,6.6,9.9
		c6.4,5,15.2,11.2,15.3,20.5c-0.6-0.3-0.2-1.1-0.4,0.8c5.4,0.6,11.4,1.3,18.2,2c-4.5,0.7,22.1,19.3,39.7,19.6
		c7.3,2.5,13.1-6.5,22.7-0.1c1.7,4.4,7.1,7.3,10.3,12c1.1,2.2,0,8.8,7.4,12.4c2.9,0.7,2.9,4.5,7.2,0.6c-0.3-0.8,0.8-2,1.2-3.5
		l0.2,0.1c1.6-3.1,5.9-1.2,9.6-0.8C160.1,214.2,160.3,214.9,160.8,214.7z"/>
	<path class="st0" d="M378.6,89c-0.4,0.1-0.4,0-1.2-0.1c-0.2-1-0.3,1.1-1.2,1.1C375.8,90.7,378.3,90,378.6,89z"/>
	<path class="st0" d="M381.4,89.5c-1.8-0.2-0.3,1.1,0.7-0.2c-0.3-0.5-1.3-1-0.5-0.3C381.6,89.1,381.8,89.3,381.4,89.5z"/>
	<polygon class="st0" points="356.4,99.7 356.3,99.6 356.4,99.5 356.3,99.4 356.2,99.5 356.1,99.9 356,100.2 355.9,100.6 356,100.7 
		356.1,100.7 356.3,100.5 356.3,100.4 356.3,100.3 356.3,100 356.4,99.9 	"/>
	<polygon class="st0" points="354.6,103.1 354.9,103 355.2,102.8 355.3,102.5 355.5,102.3 355.8,101.9 355.9,101.7 355.6,101.3 
		354.9,101.7 	"/>
	<path class="st0" d="M365.9,96.8l0.2,0.2c-0.1,0,0.1,0.2-0.5,0.3c-0.7-0.8,0.1-1.6,1.4-3.1c-1.8,2.1-6.1,3.1-7.9,4.3
		c0-0.4-1-0.3-0.9,0.7c-0.5-0.8-0.4,1.1-1,0.4c-3.5,3.9,2.3,0.2-0.2,2.3c1.3-0.5,3.3-1.6,4.8-2.7c2.2-0.5,5.5-3.3-0.1,1.1
		c1.9-1.1,12.1-7.6,5.1-4.9C366.5,95.7,366.6,96.2,365.9,96.8z"/>
	<path class="st0" d="M39.4,20.8c0,0,0.1,0.2,0.4,0.6c-0.2,0,0,0.2-0.3,0.7C38.9,22.2,38.6,19.2,39.4,20.8z"/>
	<path class="st0" d="M40.2,22.6c0-0.4-0.6-0.6,0.3-1.2C40.2,21.7,41.1,22.7,40.2,22.6z"/>
	<path class="st0" d="M41,20.9c-0.3,0.1,0.1-0.2-0.4-0.7c0,0.1-0.1,0,0,0.8c-0.3,0.2,0-0.5-0.7-0.2c-0.1-0.3,0.3-0.4,0.7-0.9
		C40.7,19.9,42,20.4,41,20.9z"/>
	<path class="st0" d="M40.5,24.8c0.1-0.1-0.2,0.3,0.5,0.4c-0.9,1.8,3.3,4.8-0.4-0.7c-0.1-0.2,0.3,0.2,0.5-0.4
		c0.2,0.1,0.2,0.1,0.9,0.1c0.2-0.1-0.4-0.5-0.3-0.9C41.7,23.1,40,23.4,40.5,24.8z"/>
</g>
<g id="Layer_1">
	<g>
		<defs>
			<line id="SVGID_1_" x1="-71.7" y1="-34.7" x2="-71.7" y2="277.9"/>
		</defs>
		<clipPath id="SVGID_2_">
			<use xlink:href="#SVGID_1_"  style="overflow:visible;"/>
		</clipPath>
		<line class="st1" x1="-71.7" y1="-34.7" x2="-71.7" y2="277.9"/>
	</g>
	<g>
		<polyline class="st2" points="124.9,161.4 119.5,162.1 114.1,162.9 108.7,163.5 103.3,164.2 97.9,164.8 92.5,165.4 87.1,165.9 
			81.6,166.4 76.1,166.9 70.6,167.3 65.2,167.7 59.6,168 54.1,168.3 48.6,168.5 43.1,168.7 		"/>
		<polyline class="st3" points="303.1,156.6 307.2,152.9 311.4,149.1 315.4,145.4 319.5,141.5 323.4,137.7 327.4,133.9 331.3,130 
			335.1,126.1 338.9,122.2 342.7,118.3 346.4,114.4 350.1,110.4 353.8,106.4 357.4,102.4 360.9,98.4 364.4,94.4 367.9,90.3 
			371.3,86.3 		"/>
		<polyline class="st4" points="189.6,210.3 184.3,209.4 179.1,208.4 173.9,207.3 168.6,206.3 163.4,205.2 158.3,204 153.1,202.9 
			147.9,201.7 142.8,200.4 137.7,199.1 132.5,197.8 127.4,196.5 122.3,195.1 117.3,193.7 112.2,192.3 107.2,190.8 102.1,189.3 
			97.1,187.8 92.1,186.2 87.1,184.6 82.2,183 77.2,181.3 72.3,179.6 67.4,177.9 62.5,176.1 57.6,174.3 52.7,172.5 47.9,170.6 
			43.1,168.7 		"/>
		<polyline class="st5" points="189.6,210.3 184.3,209.1 179.1,207.9 173.9,206.6 168.7,205.3 163.6,204 158.4,202.6 153.3,201.2 
			148.2,199.8 143.1,198.3 138,196.8 132.9,195.3 127.9,193.7 122.9,192.1 		"/>
		<polyline class="st6" points="378.6,84.8 372.9,84.8 367.3,84.7 361.6,84.6 355.9,84.5 350.3,84.3 344.7,84 339.1,83.7 
			333.5,83.4 327.9,83 		"/>
		<polyline class="st7" points="353.8,65.1 349.6,67.8 345.4,70.4 341.1,73 336.8,75.6 332.4,78.1 328.1,80.7 323.7,83.2 
			319.3,85.6 314.8,88.1 310.4,90.5 305.9,92.8 301.3,95.2 296.8,97.5 292.2,99.8 287.5,102.1 282.9,104.3 278.2,106.5 273.5,108.7 
			268.8,110.8 264,112.9 259.3,115 254.4,117 249.6,119 244.7,121 239.9,122.9 234.9,124.8 230,126.7 225,128.5 220.1,130.4 
			215,132.1 210,133.9 204.9,135.6 199.9,137.2 194.7,138.8 189.6,140.4 184.4,142 179.3,143.5 174.1,145 168.8,146.4 163.6,147.8 
			158.3,149.2 153,150.5 147.7,151.8 142.4,153.1 137,154.3 131.6,155.5 126.2,156.6 120.8,157.7 115.4,158.7 109.9,159.8 
			104.5,160.7 99,161.7 93.5,162.6 87.9,163.4 82.4,164.2 76.8,165 71.2,165.7 65.6,166.4 60,167.1 54.4,167.7 48.7,168.2 
			43.1,168.7 		"/>
		<polyline class="st8" points="122.9,192.1 117.8,190.9 112.7,189.7 107.6,188.4 102.6,187.1 97.6,185.7 92.5,184.4 87.5,182.9 
			82.5,181.5 77.5,180 72.6,178.5 67.6,177 62.7,175.4 57.7,173.8 52.8,172.1 47.9,170.5 43.1,168.7 		"/>
		<polyline class="st5" points="122.9,192.1 127.9,193.7 132.9,195.3 138,196.8 143.1,198.3 148.2,199.8 153.3,201.2 158.4,202.6 
			163.6,204 168.7,205.3 173.9,206.6 179.1,207.9 184.3,209.1 189.6,210.3 		"/>
		<polyline class="st4" points="122.9,192.1 119.4,187.8 116,183.4 112.6,179 109.3,174.5 106,170.1 102.8,165.7 99.6,161.2 
			96.5,156.7 93.3,152.2 90.3,147.7 87.3,143.2 84.3,138.7 81.3,134.1 78.4,129.6 75.6,125 72.8,120.5 70,115.9 67.3,111.3 
			64.6,106.7 61.9,102.1 59.3,97.5 56.8,92.9 54.3,88.3 51.8,83.7 49.4,79 47,74.4 44.6,69.8 42.3,65.2 40.1,60.5 37.8,55.9 
			35.6,51.3 33.5,46.6 		"/>
		<polyline class="st9" points="273.3,91.8 268.9,94.2 264.5,96.6 260,99 255.5,101.3 251,103.6 246.5,105.8 241.9,108 237.3,110.2 
			232.6,112.4 228,114.5 223.3,116.7 218.6,118.7 213.8,120.8 209,122.8 204.2,124.8 199.4,126.7 194.5,128.6 189.7,130.5 
			184.7,132.4 179.8,134.2 174.8,136 169.9,137.7 164.8,139.4 159.8,141.1 154.7,142.8 149.7,144.4 144.5,146 139.4,147.5 
			134.2,149 129.1,150.5 123.8,151.9 118.6,153.3 113.4,154.6 108.1,156 102.8,157.2 97.5,158.5 92.1,159.7 86.7,160.9 81.4,162 
			75.9,163.1 70.5,164.1 65.1,165.1 59.6,166.1 54.1,167 48.6,167.9 43.1,168.7 		"/>
		<polyline class="st7" points="362.8,88.6 358.3,90.9 353.9,93.2 349.4,95.5 344.9,97.7 340.3,99.9 335.8,102.1 331.2,104.2 
			326.6,106.3 321.9,108.4 317.3,110.4 312.6,112.4 307.9,114.4 303.2,116.4 298.4,118.3 293.7,120.2 288.9,122 284.1,123.8 
			279.2,125.6 274.4,127.4 269.5,129.1 264.6,130.8 259.7,132.4 254.7,134.1 249.8,135.6 244.8,137.2 239.8,138.7 234.8,140.2 
			229.7,141.6 224.7,143 219.6,144.4 214.5,145.8 209.4,147.1 204.2,148.3 199.1,149.6 193.9,150.8 188.7,151.9 183.5,153 
			178.3,154.1 173.1,155.2 167.8,156.2 162.5,157.2 157.3,158.1 151.9,159 146.6,159.9 141.3,160.7 136,161.5 130.6,162.2 
			125.2,162.9 119.8,163.6 114.4,164.2 109,164.8 103.6,165.4 98.1,165.9 92.7,166.3 87.2,166.8 81.7,167.2 76.2,167.5 70.7,167.8 
			65.2,168.1 59.7,168.3 54.2,168.5 48.6,168.6 43.1,168.7 		"/>
		<line class="st2" x1="120.9" y1="186.8" x2="122.9" y2="192.1"/>
		<polyline class="st3" points="184.4,247.1 180.4,243.3 176.3,239.5 172.4,235.7 168.4,231.8 164.5,227.9 160.6,224 156.8,220.1 
			153,216.1 149.2,212.2 145.5,208.2 141.8,204.2 138.2,200.1 134.6,196.1 131,192 127.5,188 124,183.9 120.6,179.7 117.1,175.6 
			113.8,171.5 110.5,167.3 107.2,163.1 103.9,158.9 100.7,154.7 97.6,150.5 94.4,146.3 91.3,142.1 88.3,137.8 85.3,133.5 
			82.3,129.3 79.4,125 76.5,120.7 73.7,116.4 70.9,112.1 68.1,107.7 65.4,103.4 62.7,99.1 60,94.7 57.4,90.4 54.9,86 52.3,81.7 
			49.8,77.3 47.4,72.9 45,68.5 42.6,64.2 40.3,59.8 38,55.4 35.7,51 33.5,46.6 		"/>
		<polyline class="st2" points="258.6,92.1 255,95.5 251.3,99 247.5,102.4 243.8,105.8 239.9,109.2 236.1,112.6 232.2,116 
			228.3,119.3 224.3,122.6 220.3,125.9 216.2,129.2 212.2,132.4 208,135.6 203.9,138.8 199.7,142 195.5,145.2 191.2,148.3 
			186.9,151.4 182.5,154.5 178.2,157.6 173.8,160.6 169.3,163.6 164.8,166.6 160.3,169.6 155.7,172.5 151.1,175.4 146.5,178.2 
			141.9,181.1 137.2,183.9 132.4,186.7 127.7,189.4 122.9,192.1 		"/>
		<polyline class="st7" points="31.5,152.4 31.4,147.1 31.4,141.8 31.4,136.4 31.3,131.1 31.4,125.8 31.4,120.4 31.4,115.1 
			31.5,109.8 31.6,104.5 31.6,99.2 31.8,93.9 31.9,88.6 32,83.3 32.2,78 32.4,72.8 32.6,67.5 32.8,62.3 33,57.1 33.2,51.8 
			33.5,46.6 		"/>
		<polyline class="st4" points="33.5,46.6 35.6,51.3 37.8,55.9 40.1,60.5 42.3,65.2 44.6,69.8 47,74.4 49.4,79 51.8,83.7 54.3,88.3 
			56.8,92.9 59.3,97.5 61.9,102.1 64.6,106.7 67.3,111.3 70,115.9 72.8,120.5 75.6,125 78.4,129.6 81.3,134.1 84.3,138.7 
			87.3,143.2 90.3,147.7 93.3,152.2 96.5,156.7 99.6,161.2 102.8,165.7 106,170.1 109.3,174.5 112.6,179 116,183.4 119.4,187.8 
			122.9,192.1 		"/>
		<polyline class="st9" points="371.3,86.3 366.5,88 361.6,89.8 356.8,91.4 351.9,93.1 347,94.7 342.1,96.2 337.2,97.8 332.3,99.3 
			327.3,100.7 322.4,102.2 317.4,103.6 312.4,104.9 307.4,106.2 302.4,107.5 297.3,108.8 292.3,110 287.2,111.2 282.2,112.3 
			277.1,113.4 272,114.4 266.9,115.5 261.7,116.5 256.6,117.4 251.5,118.3 246.3,119.2 241.1,120 236,120.8 230.8,121.6 
			225.6,122.3 220.4,123 215.1,123.6 209.9,124.2 204.7,124.8 199.4,125.3 194.2,125.8 188.9,126.3 183.7,126.7 178.4,127 
			173.1,127.4 167.8,127.7 162.5,127.9 157.2,128.1 151.9,128.3 146.6,128.4 141.3,128.5 136,128.6 130.6,128.6 125.3,128.6 
			120,128.5 114.6,128.4 109.3,128.2 103.9,128 98.6,127.8 93.2,127.5 87.9,127.2 82.5,126.9 77.2,126.5 71.8,126.1 66.5,125.6 
			61.1,125.1 55.7,124.5 50.4,123.9 45,123.3 39.7,122.6 34.3,121.9 28.9,121.2 23.6,120.4 18.2,119.5 		"/>
		<polyline class="st10" points="331.4,150.2 326.3,151.5 321.3,152.8 316.3,154.1 311.2,155.3 306.1,156.4 301,157.6 295.9,158.7 
			290.8,159.8 285.7,160.8 280.6,161.8 275.5,162.7 270.3,163.7 265.2,164.6 260,165.4 254.8,166.2 249.6,167 244.4,167.8 
			239.2,168.5 234,169.1 228.8,169.8 223.6,170.4 218.3,171 213.1,171.5 207.8,172 202.6,172.4 197.3,172.8 192.1,173.2 
			186.8,173.6 181.5,173.9 176.2,174.2 170.9,174.4 165.6,174.6 160.3,174.7 155,174.9 149.7,175 144.4,175 139.1,175 133.8,175 
			128.4,174.9 123.1,174.8 117.8,174.7 112.5,174.5 107.1,174.3 101.8,174 96.5,173.7 91.1,173.4 85.8,173 80.4,172.6 75.1,172.2 
			69.8,171.7 64.4,171.2 59.1,170.6 53.7,170 48.4,169.4 43.1,168.7 		"/>
		<polyline class="st7" points="327.9,83 322.5,83.5 317.1,84 311.7,84.4 306.3,84.8 300.9,85.2 295.5,85.5 290,85.8 284.6,86 
			279.2,86.2 273.8,86.3 268.5,86.4 263.1,86.5 257.7,86.5 252.3,86.4 246.9,86.4 241.5,86.2 236.1,86.1 230.8,85.8 225.4,85.6 
			220,85.3 214.7,85 209.3,84.6 204,84.1 198.7,83.7 193.3,83.2 188,82.6 182.7,82 177.4,81.4 172.1,80.7 166.8,80 161.5,79.2 
			156.3,78.4 151,77.5 145.8,76.6 140.5,75.7 135.3,74.7 130.1,73.7 124.9,72.6 119.7,71.5 114.5,70.4 109.3,69.2 104.2,68 99,66.7 
			93.9,65.4 88.8,64.1 83.7,62.7 78.6,61.3 73.5,59.8 68.5,58.3 63.4,56.7 58.4,55.2 53.4,53.5 48.4,51.9 43.4,50.2 38.4,48.4 
			33.5,46.6 		"/>
		<polyline class="st8" points="43.1,168.7 47.9,170.5 52.8,172.1 57.7,173.8 62.7,175.4 67.6,177 72.6,178.5 77.5,180 82.5,181.5 
			87.5,182.9 92.5,184.4 97.6,185.7 102.6,187.1 107.6,188.4 112.7,189.7 117.8,190.9 122.9,192.1 		"/>
		<polyline class="st4" points="43.1,168.7 47.9,170.6 52.7,172.5 57.6,174.3 62.5,176.1 67.4,177.9 72.3,179.6 77.2,181.3 
			82.2,183 87.1,184.6 92.1,186.2 97.1,187.8 102.1,189.3 107.2,190.8 112.2,192.3 117.3,193.7 122.3,195.1 127.4,196.5 
			132.5,197.8 137.7,199.1 142.8,200.4 147.9,201.7 153.1,202.9 158.3,204 163.4,205.2 168.6,206.3 173.9,207.3 179.1,208.4 
			184.3,209.4 189.6,210.3 		"/>
		<polyline class="st11" points="18.2,119.5 20.5,124.5 22.9,129.4 25.2,134.4 27.6,139.3 30.1,144.2 32.6,149.1 35.2,154.1 
			37.7,159 40.4,163.9 43.1,168.7 		"/>
		<polyline class="st9" points="26,147.9 26.3,142.5 26.5,137.2 26.8,131.8 27.2,126.4 27.5,121 27.8,115.7 28.2,110.3 28.5,105 
			28.9,99.6 29.3,94.3 29.7,88.9 30.2,83.6 30.6,78.3 31.1,73 31.5,67.7 32,62.4 32.5,57.1 33,51.9 33.5,46.6 		"/>
		<polyline class="st9" points="88.5,182.9 83.4,181.5 78.3,180 73.3,178.5 68.2,177 63.1,175.4 58.1,173.8 53.1,172.1 48.1,170.5 
			43.1,168.7 		"/>
	</g>
	<circle class="st12" cx="184.3" cy="247.7" r="2.4"/>
	<circle class="st12" cx="189.9" cy="210.8" r="2.4"/>
	<circle class="st12" cx="258.8" cy="92.3" r="2.4"/>
	<circle class="st12" cx="273.8" cy="91.6" r="2.4"/>
	<circle class="st12" cx="327.7" cy="82.8" r="2.4"/>
	<circle class="st12" cx="362.6" cy="88.7" r="2.4"/>
	<circle class="st12" cx="331.6" cy="150.6" r="2.4"/>
	<circle class="st12" cx="303.2" cy="156.5" r="2.4"/>
	<circle class="st12" cx="371.6" cy="86.8" r="2.4"/>
	<circle class="st12" cx="378.6" cy="84.4" r="2.4"/>
	<circle class="st12" cx="353.7" cy="65.3" r="2.4"/>
	<circle class="st12" cx="122.5" cy="192.1" r="2.4"/>
	<circle class="st12" cx="120.6" cy="186.1" r="2.4"/>
	<circle class="st12" cx="124.8" cy="161.6" r="2.4"/>
	<circle class="st12" cx="88.7" cy="182.8" r="2.4"/>
	<circle class="st12" cx="42.9" cy="168.5" r="2.4"/>
	<circle class="st12" cx="31.4" cy="152.2" r="2.4"/>
	<circle class="st12" cx="25.9" cy="147.8" r="2.4"/>
	<circle class="st12" cx="18.2" cy="119.2" r="2.4"/>
	<circle class="st12" cx="33.9" cy="46.3" r="2.4"/>
</g>
</svg>
