<?xml version="1.0" encoding="utf-8"?>
<!-- Generator: Adobe Illustrator 23.1.1, SVG Export Plug-In . SVG Version: 6.00 Build 0)  -->
<svg version="1.1" xmlns="http://www.w3.org/2000/svg" xmlns:xlink="http://www.w3.org/1999/xlink" x="0px" y="0px"
	 viewBox="0 0 437.4 342" style="enable-background:new 0 0 437.4 342;" xml:space="preserve">
<style type="text/css">
	.st0{fill:#707589;}
	
		.st1{clip-path:url(#SVGID_2_);fill:none;stroke:#FFFFFF;stroke-width:1.07;stroke-linecap:round;stroke-linejoin:round;stroke-miterlimit:10;}
	.st2{opacity:0.102;fill:none;stroke:#FFFFFF;stroke-width:1.07;stroke-linejoin:round;stroke-miterlimit:10;}
	.st3{opacity:0.2;fill:none;stroke:#FFFFFF;stroke-width:1.07;stroke-linejoin:round;stroke-miterlimit:10;}
	.st4{fill:none;stroke:#FFFFFF;stroke-width:1.07;stroke-linejoin:round;stroke-miterlimit:10;}
	.st5{opacity:0.302;fill:none;stroke:#FFFFFF;stroke-width:1.07;stroke-linejoin:round;stroke-miterlimit:10;}
	.st6{opacity:0.6;fill:none;stroke:#FFFFFF;stroke-width:1.07;stroke-linejoin:round;stroke-miterlimit:10;}
	.st7{opacity:0.4;fill:none;stroke:#FFFFFF;stroke-width:1.07;stroke-linejoin:round;stroke-miterlimit:10;}
	.st8{fill:#FFFFFF;}
	.st9{font-family:'MyriadPro-Regular';}
	.st10{font-size:1.57px;}
	.st11{fill:none;stroke:#FFFFFF;stroke-width:0.71;stroke-linecap:round;stroke-linejoin:round;stroke-miterlimit:10;}
</style>
<g id="map">
	<path class="st0" d="M77.9,277.7c0.8,1.4,0.6,2.2-1.1,2.8c-1.1,0.4-2.1,1.3-3.1,1.9c-0.6,0.4-1.3,0.6-2.1,1c0.3-2.7,0-5.2,2.5-6.8
		c-1.6,0.1-2.3,0.8-3.3,2.7c-0.7,1.3-1.7,2.5-2.6,4c0.2,0.2,0.7,0.5,1.4,1.1c-4.2,4.5-8.7,8.4-14.2,11.4c-0.6-0.7-1.5-0.5-2.8,0.2
		c-1.5,0.9-3.5,1.2-5.2,1.7c-0.1-0.3-0.3-0.5-0.4-0.8c0.8-0.5,1.7-0.9,2.5-1.4c0.8-0.4,1.7-0.8,2.6-1.2c0.6-0.3,1-1,1.6-1
		c2.9-0.3,4.8-2.2,6.6-4.1c1-1.1,1.4-2.6,2.4-4.5c-1.5,0.2-2.3,0.3-3.5,0.4c-1.2-1.4-1.3-2-4.6-0.6c0-1.6,0-3.1,0-4.7
		c-3.4,0.6-4.2-0.2-4.6-3.6c-0.2-1.4-1.5-2.7-0.2-4.3c0.8-0.9,1.3-2.1,2.2-2.8c0.5-0.4,1.6-0.3,2.4-0.1c1.1-0.5,2.6-0.7,3.2-1.5
		c0.6-0.7,0.2-2.2,0.3-3.1c-1.6,0-3.4,0-5.2,0c-1.4,0-2.3-0.6-2.5-2.2c-0.1-0.9-0.8-1.7-1.4-2.8c1.9-0.7,3.8-1.5,6-2.4
		c0.2,2.3,1.3,2.8,3.3,2.1c-1.6-2.3-3.2-4.5-4.6-6.7c-0.3-0.5-0.7-1.3-0.5-1.7c0.3-0.5,1.1-0.8,1.7-1.1c0.7-0.3,1.9-0.3,2.1-0.7
		c0.9-2.2,2.6-3.2,4.5-4.1c1.3-0.6,2.7-1.1,4.6-1.8c1.3,0.6,3,1.9,4.9,2.3c2.8,0.6,5.8,0.9,8.7,0.7c2.2-0.1,4,0.5,4.5,2.8
		c1.9,9.4,3.8,18.8,5.7,28.5c0.9-0.2,1.8-0.5,2.4-0.6c1.5,1.2,2.9,2.3,4.3,3.3c0.9-1.1,1.7-2.9,2.5-2.9c1.1,0,2.2,1.3,3.2,2.1
		c1.1,0.8,2.2,1.6,3.1,2.6c1.6,1.7,3.2,3.3,5.8,3.6c1.6,0.2,2.2,2.7,1.3,4.8c-0.8,0.2-2.5-2-2.6,0.8c0,0-1.8,0.4-2.3,0
		c-1.4-1.3-2.5-2.8-3.8-4.4c-0.2,0.6-0.3,0.9-0.4,1.5c-1.2-1.3-2.1-2.6-3.3-3.5c-2.1-1.6-4.3-3.1-6.5-4.5c-2.5-1.5-5.3-1.4-8.2-1.2
		c-1.5,0.1-3.1-1-4.7-1.6c-0.7-0.2-1.5-0.3-2.3-0.5C78,277.2,77.9,277.4,77.9,277.7z"/>
	<path class="st0" d="M70.6,285.5c0.2,0.2,0.5,0.3,0.6,0.5c0.7,1.4-1.4,5-2.9,5.1c-0.4,0-1.1-0.4-1.3-0.8c-0.2-0.4-0.2-1.2,0-1.6
		c0.9-1,2-1.9,3-2.8C70.1,285.7,70.3,285.6,70.6,285.5z"/>
	<path class="st0" d="M46.5,267c-1.9,0.6-4.2-0.7-4.9-2.8C43.5,265.2,44.8,266,46.5,267z"/>
	<path class="st0" d="M46.1,277.3c0.9,0.2,1.8,0.3,2.7,0.5c-0.1,0.4-0.2,0.9-0.4,1.3c-0.8-0.2-1.7-0.5-2.5-0.7
		C46,278,46,277.7,46.1,277.3z"/>
	<path class="st0" d="M154.7,298.5c-1-0.2-2.3-0.7-1.7-2.9c0.1-0.5-0.1-1.1-0.4-1.6c-0.7-1.5-1.3-2.8,0.2-4.3c0.6-0.6,0.3-2,0.5-3.2
		c3.9,1.1,7.2,2.9,9.1,7.2C160.3,295.1,157.8,296.6,154.7,298.5z"/>
	<path class="st0" d="M149.1,283.7c-0.2-0.2-0.6-0.4-0.9-0.7c-0.5-0.5-1-1.1-1.5-1.7c-0.2-0.3-0.3-0.8-0.4-1.2
		c0.4-0.1,0.9-0.3,1.3-0.2c1.1,0.2,2.2,0.5,3.2,0.9c0.5,0.2,0.8,0.9,1.2,1.3c-0.5,0.4-1,0.8-1.5,1.1
		C150.2,283.5,149.8,283.5,149.1,283.7z"/>
	<path class="st0" d="M124.2,269.9c-1,0.7-1.7,1.6-2.3,1.5c-0.8-0.1-1.6-0.9-2.4-1.5c1-0.6,1.9-1.3,3-1.7
		C122.7,268.2,123.4,269.1,124.2,269.9z"/>
	<path class="st0" d="M135.6,273.1c0.1,1.3,0.4,2.3,0.2,3.2c0,0.3-1.3,0.8-1.5,0.6c-0.7-0.6-1.3-1.4-2-2.3
		C133.5,274.1,134.3,273.7,135.6,273.1z"/>
	<path class="st0" d="M187.9,263c0.5-0.4-0.2,1.2,0.8,0.9c-0.1,0.1-0.1,1.4,0.3,0.3c1,1.9,3.9,3.5,5,7c0.2,5.5,7.8,9.6,7.7,14.8
		c1.6,6,6,11.9,13.8,11.8c1,0.1,1.7,1.3,3.6,1.2l-0.1,0c1,0.7,2.2-1.9,1.6-0.6c-0.2-0.1-0.1-0.4-0.6,0.1c-0.4-2.4-2.6-5.3-1.8-11.4
		c-1.2,1.3-3.9-4-0.9-0.5l-0.1-0.3c0.6-0.2,1.7-1.3,0.5,0.2c0.9,0.7,2-1.9,2.2-3.5c-0.8,0.9-0.5-0.2-0.9-1.3
		c-0.1,0.1-0.7,0.4-1.2-0.4c1.1-0.6,5.2,2.4,2.5-1.8c0.1,0.1,1-0.4,0.4-0.8c1.3,1.1,2.8-2.3,2.2,0.4c1.7,0,0.3-3,1.2-2.3
		c-2.2-1.1,5.6,1,1.7-0.8c0.1-0.2-0.2-0.1,0.6-0.5c-0.4-0.8-1.2,0.2-1.2-1.6c0.1,0.3,0.6-0.5,0.7,0.5l0.3-0.1c0-0.2,0.2,1.3,0.5,0.2
		c-0.1-0.1,0.4,0.4-0.2,0.7c0.3,0.2-0.1,0.1,0.8-0.3c0.3,0.2-0.8-0.7-0.1-1c-0.1,0.3,0.6,1.6,1,0c0,0.1,0,0,0.1,0.4
		c0.1,0,0.1-0.1,0.5-0.6c0,0.2,0-0.1-0.2,1.1c-0.1-0.1,1.1,0.2-0.1,0.2c3.5-0.5,5.2-2.3-1,1.8c1.3-0.8,6.7-2.8,9.8-6.1
		c-2-0.5,3,0,1.3-5.9l-0.1,0.1c5.8-1.4-0.9,0.8,3.9,1.7c-5.2,3.1,3.3-1.8,7.6-2.2c2.3-1.5,11.2,4.6,11.4,0.5
		c1.5-5.5,7.3,7.2,12.5,3.8c-0.3-3.2,4.5,5.4,4.1-2.6c1.5-0.2,1.3,2,3,1.4c2.4,1.7,3.7,4,4.8,1.2c0.6-1.1-4.3-0.9-4.6-3.9
		c1.5-1.2,3.2-2.2,3.2-4.4c0.4-1.8-7.2,4-4.2,0.6c0-0.3,0.7-1.8-0.2-0.7c-0.1-0.1-0.1,0-0.1-0.4c-1.7,2.6-10.1-0.2-2.5-1.4
		c1.3,0.7,3.9,2.4,5.6-0.1c2.5-2.4,10.1,2.1,10.2-4.9c2.9,2.8-1.7,7.8,4.5,3.4c-1.3,1.5,3-0.2,1.9-2c0.9,1,3.6-0.3,0.3,1.9
		c1.6-1.1,12.6-2.1,5.2-1c0.6-0.2,7,2.9,5.9,1.1c-1,0.7-0.8-1,0.8-0.1c-0.1,0.2,0.1,0.2-0.3,0.6c-0.7,0.8,2-0.4,3.4,4.1
		c-0.5,0.2-0.5,0-0.6-1.6c-1.5,2.9,2.7,1.3,4.2,0.5c-1.3,1,5.7-2.1,3.4-2c0.3-0.3,0.5-0.6,1.1-1.3c1-2,14.2,7.9,14.5,11.3
		c0.3,2-2.4,8.9,1.1,8.6c-2.3-5.7,1.2,0,1.1-1.6c2.5-1.4-2.2,4.3-0.4,4.4c1.1,1,1.7,5.3,4.3,5.1c-1.7-1.6,1.1-1.7,0.4-1.1
		c0.6,3.1,0.8,3.1,4.6,8.7c0.1-1.1,11.2,7.4,4.9,5c0.1,2.9,4.5-0.1,6.2-0.1c0.8-1.7,0.2-3.9,1.5-6c1.6-11.8-13-29.4-17.3-42.2
		c0.1,0.4,1.2-6,0.3-2.9c-1.6-1.9,1,0.1-0.2-2.7c0.8,0,0.6-0.9,1.4-0.9c0.8-0.9-1.4-1.7,0.5-1.6c0.3-0.6,0.1-1-0.5-1.5
		c1.4-1.9,3.9-3.7,2-6.9c2.2,2.1,1.6,0.4,2.8-0.9l0,0.1c0.3-0.4,1.8,0.2,1.6-1.2c-0.4,0.7,7.6-5,6.2-8.1c0.8,2.2,1.1-4.1,4.9-5.3
		c0.8-1.4,4.2,0.4,3.9-2.7c0.3,3.3,3.1-8.4,3.7-5.8c-1,1.4,2.4,0.2,1.1-1.4c0.2,1.1,3.4,0,3-0.4c0.2-0.5,0.3-0.5,1,0.1
		c0.2-0.3,0.8-0.1,2-2c0.3-0.2-1.5-1.5-1.4-0.5c-1.5-0.4,0.6,0.9-1.2,0.4c0.1,0,0.6,0.6,0,0.5c-0.4-1.2-0.2,1.4-3.4-1.1
		c-0.4-2.1,3.3,3.7,3.6-2.1c1.7-0.4-1.4-1-2.1-0.8c-3.5-1.9,1.2,0.5,1.4-1.3c-1.2-0.4,0.2-0.6,1-0.8c-1.4,1.9,0.2,0.9,1.6,1.6
		c1.3-0.3,1.7-0.8,2.5-2.9c1.1,1.1,0.5-0.8,1-1c-0.5-0.7,0.2-1.5-1.5-2.2c0.2,0.2-0.4,0.1-0.1,0.6c-1.5-0.6,0.6,3.6-1.6,2.2
		c0.9,0.3,0.6-1.5,0.2-2.3c-0.8-1.9-5.3,4.7-5.6-2.7c0.5-0.1,1.2,4.9,2.4,2c1.1-0.3,0.6-1.4,2-0.7c0.8-0.6,0.8-0.5-0.4-1.4
		c0.8-0.4,2.4,1.6,1.4-0.4c0.7-0.1,0.6,1.1,1.6,1.6c0.1-1.2-4.5-5.1-1.7-3.5c0.1,0-1-2.6,0.2-0.6c-1.2-0.6,6.4,10.3,2.7,4.5
		c-1.9-1.4-2.8-10.6-7.4-6.5c-0.1-1.9-5.1-2.1-3.5-3.4c1.3,0.5,2.7,2.5,4.6,1.9c0-0.1,0.2-1-0.5-0.6l0-0.1l0,0
		c0.6-0.7-4.2-1.5-3.8-3.2c3.1,3.7,1.9-0.2,3.9,1.1c-0.2-2.6-2.1-1.1-5.9-5.5c3.9,4.3,8.3,1.8,1.9-1.1c-1.1-0.2-2.6-0.3-3.4-2
		c-0.5-1.5,1.4,0.9,4.5,1.4c2.4,1,0.4-0.9-1.9-2.8c4.3,2,0.3,0.8,0.3-4.8c1,0,0.3-1.1-1.2-2.2c1.3-0.1,0.9,0.1,1.8-0.9
		c-0.6-1,0.9,0,0.8-1c1.2-0.1-0.3-1.5,1.4-1.9c0.1,0-0.1,0.4,0,1c0.6-1.2,1.2,0.6-0.9,1.6c-0.7,2.4,1.7,2.8-0.2,5.5
		c0.7-0.5,0.8,0.7,1.6-0.3c0.9,2.6-0.5-0.1-0.7,1.9c2-0.5-2.4,0.4,2,2.5c0-2.3,0.4,1.1,0.9-1.1c0.5,0.4,0.4,3.9,1.8,3.2
		c1.3-0.9-0.3,1.8-0.4,3.2c-0.7,0.6-0.5,7.8,0.8,2.1c0.5-6.2,5.4-5.7,2-11.9c0,0,1.3-0.2,0.3-0.6c0,0,0.3,0,0.2-0.4
		c2.9,1.9-6.4-5.9-4.5-8.3c-0.2,4.1,5.8,2.2,5.5,5.9c1.7-3.5,3.9-6.4,3.7-11.1c0.3,0.2,0.2,0.9,0.5,2.3c-0.1-1.2,0.6-4.4-0.8-6.3
		c0,0.2-0.1,0.1,0.1,0.6c-0.3-0.2-1.2,0.2-2-0.3c1.7-0.6,0.4-2.4,1.7-4.2l0.3,0.8c-0.1-0.1-0.1,0-0.2-0.3l0.7,0.2
		c-0.5-0.7,0.7-0.8,0.6-2.1c1.3,0.3,4-3.6,4.8-3.1c0.8-0.7,3.2-0.2,3.4-1.5c1.1,0.6,1.3-0.3,3.4-0.9l0,0.3c0.5-0.3,1.1-0.4,2.2-1.6
		c0.1,1.1,0.6-4.7,0.9-0.6c0.7,1.2,0.6-1.5,1-0.3c0.1,0,0.3-0.4,0.6-0.9c-0.1,0.1,0.7,0.7,0.6,0c0.5,0.4,2-5.2,2.2-0.7
		c2.3-0.5,7.6-5,1.8-5c4.7,0.1-1.1,5.9-2.5,0.8c-0.4-0.7-1-1.5-2.5-2c0.4,1.4-1.9,0-0.9-0.6c2.7-5.6,0.4,1.2,0.2-6.7
		c1.7-0.6,0.8-7.3,3.3-7.7c1.1-1.4-0.2,2.5,2.1-1.6c1.5,1.1,0.1-0.9,2.2-1.2c0,3.5,1.6-9.1,1.8-4.4c0.2,0.2,0.4-0.9,0.8,0.1
		c0.1,0.1-1-0.3-0.5,0.4c-0.9,0.1,0.9,0.6,1.1,0.4c0.6,0.2,0.8-0.1,0.1-1.1c0.3-0.2,0.5-0.3,0.6-1.1c0.1,0.5,0.9,1.1,0.9-0.4
		c0.6,0.4,1.2-0.8,1.9,1.1c0.2-0.3,0.3-0.6,0.2-1.5c0.4,0.8,0.9,0.3,0.7-0.9c0.4-0.2,2,0.7,1.6-1.1c0,0.1,0.1-0.1,0.5,0.1
		c-0.1,0.2,0.3-1.1,0.3-0.1c0.5,0.3,0-2,0.8-0.6c0.6,0,1.2-1,1.4-2.2c-2.5,0.6,0.8-2-2.5-2.7c-1.6,2-0.7-3.1-3.9-3.4
		c-3.1-1.4-0.4-11.3-6.8-13.4c-7.4,6.9-5.7-9-9.7,11c-1.6,5.3,0.7,10.1-6,12.4c1.4,7.6-25.8-0.9-28,17.4l-0.3,0.4
		c0,2,2.2,3.1-3.8,7.4c-0.2-0.2-2.8-0.4-3.7,0.9c-1.3-1.2-12.4-1.1-9.1,4.1c2.6,0.7-1.8,5.3-6.5,8.6c-0.1,0,0.2-0.1,0.1-0.4
		c-9.3,5.6-9.7,10.4-22.5,7.6c0.2,0.3,3.9-12.9,4.9-8.8c1.3-3-0.8-21.7-8.4-8.3c-4.8-2.9,2.4-1.9,1.5-13.4
		c-10.4-8.8-11.3-6.4-14.9,3.9c-0.6-0.8,0.1-2.5,0.1-3.9c-2.7,2.7-5,6.6-5,11.9c-1.2,5.5,5.9,8.1,0.5,18.3c-9.6,12.6-11.8-17-5.8-28
		c1.1-0.5,0.6-4-0.3-0.9c-0.8-0.1-1.2,1.6-1.4,3.1c-1.4-1.2-1.8,1.7-4,3.2c-1,1,6.7-16.2,6-11.1c5-4.8-0.8,2.8,3.9-1.1
		c1.6-4,10.3-2.2,15.6-3.2c-3.6-6.8-8.9-0.6-7.4-6.3c-6.6,0.4-12.9,7.3-17.7,1c-2.3-0.7-2.6-1.9-4.7,1c-0.3-0.4,0.3-1.2,0-2.2
		c1.2-0.5,1.5-3.2,4-3.9c-4.4-1.7-12.4,10.1-19.7,8.3c3.5-6.9-3.8,1.1-7.6-1c1.8-2.3,9.6-9.4,16.2-12c-7.8-1.2-14.2,0.2-20.2-3.2
		c1.3-3.4-7.7,1.5-12.4-3.3c-0.4-1.4,0.1-5.1-2.9-4.7c-47.6,10.3-114.5-7.7-168.4-20l0,0.2c-1.2,0.3,0.9,2.1,0.7,2.5
		c0.2,0.3,0.2,2.5-1,2c0.2-1.1-1.4,0.4,0.1,0.3c1,1-0.2,2.9,1.2,3.9c-0.8,0.4-1.4,1.5-2.2,2.8c0.2,0.8-0.1,2.2-0.9,3.6
		c0,0-0.2-0.1-0.6-0.7c-0.1,0.2-1.5,2.5-2.2,0.8l-0.1,0.4c-0.1,0.1,0.2-0.2-0.4-0.3c-0.1,0.3,0,0.1-0.2,0.9
		c-0.5,0.2,0.4-0.8-0.6-0.6c0.1,0,0,0,0.6-0.5c-0.2-0.1-0.1-0.2-0.9,0.2c0,0-0.1-0.3,0.6-0.6L63,81c0,0.2,0-0.5,0.5-0.3l-0.2,0.2
		c0.2,0.1,1.2-0.2,1.7-1.1c0.3,1.3-1.3,2.5,1.2,0.3c0,0.3-1,0.7,0.1,1.2c-0.3-1.3,2.3-1.6,0.1-2.8c0-0.1-0.2-0.1,0-0.5
		c0.7,0.8,0.3,0.1,0.6-0.9c0-0.2,0.1,0.9,0.6,0c0.3,0.7,1-0.7,0-1.7c-0.2,0.1,0.1,0.2-0.1,1.1c0.8-0.6-7.4,3.5-2.6,2.9
		c-3.7,1.1-0.9-1.2,0.8-3.4l0.2,0.4c0-0.1,0.1,0.1,0.2-0.5c0,0.2,0.3,0.2-0.1,0.7c0.7-0.4,1.7-1,1.3-2.8l-0.2,0.7l-0.1-0.3l-0.3,0.2
		c0.1-1.2,0.4-1.1-0.7,0.1c0,0,0.4-0.5-0.3-1c-0.1,0,0.1,0.1-0.3,0.4c-0.6-1.7-4.4-1.6-9.5-6c-1.2,3.7,0.9,7.8-0.1,13.1
		c0.6-0.6,0.4-0.6,2,0.5c0.2,0.3-1.6-0.3-1.7,0.7c-0.2,0,0-0.3-0.4-0.7c-0.4,1.3-0.1,1.6,1.2,2.2c-0.1-0.2-0.4,0.4-1,0.5
		c-0.1-0.3,0.6,2.2-0.9,2.2c-0.3,0.3,0.6-1,0.3-2.4c-0.2,0.2-0.5,1.5-0.8,2.9c0.5,0.5,3.5,0.4,3.7,2.1c-0.6-0.8-1.4,0-2.7-0.8
		c0,0,0.1,0.1,0.2,0.5c-0.4,0.3-0.3-0.8-1.2-0.9c0.6,1.9-1.5,3.6-1.1,6.6c-3.4,8.9-13.5,21.9-11.4,33.7l-0.2-0.1
		c0.2,1-0.4,1.4-1.1,3.1l-0.2-0.3c0.4,3.9-6.2,2.1-1.6,13.4c-3,4.6,1.5,12,1.8,15.1c0.4,0.4-1.6,2.8,0.1,1.4c0,0.5,0.6,0.9,1.2,1.8
		c1.7,1.5,1.3,1.1,1.9-1.4c-0.1,0-0.1,0-0.2-0.2c1,0,1.4,0.1,2.3,1.5c-0.2-0.1,0-0.1-0.7-0.3l0.1,0c-2.1-0.1-0.7,3.4,0.4,5.7
		c-0.5,0.2-3.3-2.3-2-3c-0.1-0.2,0.2-0.6-0.4-0.9c-2.4,2.9-1.1,6.4,2.1,9.8c-5.1,3.9,3.2,11.2,2.8,15.5c4.6,3.8-5.7,6.4,6.6,9.9
		c6.4,5,15.2,11.2,15.3,20.5c-0.6-0.3-0.2-1.1-0.4,0.8c5.4,0.6,11.4,1.3,18.2,2c-4.5,0.7,22.1,19.3,39.7,19.6
		c7.3,2.5,13.1-6.5,22.7-0.1c1.7,4.4,7.1,7.3,10.3,12c1.1,2.2,0,8.8,7.4,12.4c2.9,0.7,2.9,4.5,7.2,0.6c-0.3-0.8,0.8-2,1.2-3.5
		l0.2,0.1c1.6-3.1,5.9-1.2,9.6-0.8C187.2,262.6,187.4,263.2,187.9,263z"/>
	<path class="st0" d="M405.7,137.4c-0.4,0.1-0.4,0-1.2-0.1c-0.2-1-0.3,1.1-1.2,1.1C402.9,139,405.4,138.3,405.7,137.4z"/>
	<path class="st0" d="M408.5,137.9c-1.8-0.2-0.3,1.1,0.7-0.2c-0.3-0.5-1.3-1-0.5-0.3C408.7,137.4,408.9,137.7,408.5,137.9z"/>
	<polygon class="st0" points="383.5,148.1 383.4,147.9 383.5,147.8 383.4,147.8 383.3,147.9 383.2,148.3 383.1,148.6 383,149 
		383.1,149.1 383.2,149 383.4,148.9 383.4,148.8 383.4,148.6 383.4,148.4 383.5,148.3 	"/>
	<polygon class="st0" points="381.7,151.5 382,151.3 382.3,151.1 382.4,150.9 382.6,150.6 382.9,150.3 383,150 382.7,149.6 
		382,150.1 	"/>
	<path class="st0" d="M393,145.1l0.2,0.2c-0.1,0,0.1,0.2-0.5,0.3c-0.7-0.8,0.1-1.6,1.4-3.1c-1.8,2.1-6.1,3.1-7.9,4.3
		c0-0.4-1-0.3-0.9,0.7c-0.5-0.8-0.4,1.1-1,0.4c-3.5,3.9,2.3,0.2-0.2,2.3c1.3-0.5,3.3-1.6,4.8-2.7c2.2-0.5,5.5-3.3-0.1,1.1
		c1.9-1.1,12.1-7.6,5.1-4.9C393.5,144.1,393.7,144.6,393,145.1z"/>
	<path class="st0" d="M66.5,69.2c0,0,0.1,0.2,0.4,0.6c-0.2,0,0,0.2-0.3,0.7C66,70.6,65.6,67.6,66.5,69.2z"/>
	<path class="st0" d="M67.3,70.9c0-0.4-0.6-0.6,0.3-1.2C67.3,70,68.2,71.1,67.3,70.9z"/>
	<path class="st0" d="M68.1,69.2c-0.3,0.1,0.1-0.2-0.4-0.7c0,0.1-0.1,0,0,0.8c-0.3,0.2,0-0.5-0.7-0.2c-0.1-0.3,0.3-0.4,0.7-0.9
		C67.8,68.3,69.1,68.8,68.1,69.2z"/>
	<path class="st0" d="M67.6,73.1c0.1-0.1-0.2,0.3,0.5,0.4c-0.9,1.8,3.3,4.8-0.4-0.7c-0.1-0.2,0.3,0.2,0.5-0.4
		c0.2,0.1,0.2,0.1,0.9,0.1c0.2-0.1-0.4-0.5-0.3-0.9C68.8,71.5,67.1,71.8,67.6,73.1z"/>
</g>
<g id="constellation">
	<g>
		<defs>
			<line id="SVGID_1_" x1="-44.5" y1="14.2" x2="-44.5" y2="326.8"/>
		</defs>
		<clipPath id="SVGID_2_">
			<use xlink:href="#SVGID_1_"  style="overflow:visible;"/>
		</clipPath>
		<polyline class="st1" points="603.5,14.2 -44.5,14.2 -44.5,326.8 		"/>
	</g>
	<g>
		<polyline class="st2" points="380.5,130.4 379.5,135.7 378.6,141.1 377.6,146.4 376.6,151.8 375.6,157.2 		"/>
		<polyline class="st3" points="312.5,173.9 308.1,170.8 303.7,167.7 299.3,164.6 295,161.4 290.7,158.2 286.5,155 282.3,151.8 
			278.2,148.5 274.1,145.2 270,141.9 265.9,138.6 262,135.2 258,131.9 254.1,128.5 250.2,125.1 		"/>
		<polyline class="st2" points="343.9,252.5 340.3,248.4 336.7,244.4 333.2,240.3 329.7,236.2 326.2,232.1 322.7,227.9 319.3,223.8 
			315.9,219.6 312.6,215.4 309.3,211.3 306,207.1 302.8,202.8 299.6,198.6 296.4,194.3 293.2,190.1 290.1,185.8 287.1,181.5 
			284,177.2 281,172.9 278,168.6 275.1,164.3 272.2,159.9 269.3,155.6 266.5,151.3 263.7,146.9 260.9,142.6 258.2,138.2 
			255.5,133.8 252.8,129.4 250.2,125.1 		"/>
		<polyline class="st4" points="250.2,125.1 255.1,126.9 260.1,128.6 265.1,130.3 270.1,132 275.2,133.6 280.2,135.2 285.3,136.8 
			290.4,138.3 295.6,139.8 300.8,141.2 306,142.6 311.2,144 316.4,145.3 321.7,146.6 327,147.8 332.3,149 337.6,150.2 343,151.3 
			348.4,152.4 353.8,153.4 359.2,154.4 364.6,155.4 370.1,156.3 375.6,157.2 		"/>
		<polyline class="st4" points="375.6,157.2 370.1,156.3 364.6,155.4 359.2,154.4 353.8,153.4 348.4,152.4 343,151.3 337.6,150.2 
			332.3,149 327,147.8 321.7,146.6 316.4,145.3 311.2,144 306,142.6 300.8,141.2 295.6,139.8 290.4,138.3 285.3,136.8 280.2,135.2 
			275.2,133.6 270.1,132 265.1,130.3 260.1,128.6 255.1,126.9 250.2,125.1 		"/>
		<polyline class="st5" points="109.7,219.5 105.3,216.2 101,212.9 96.7,209.5 92.4,206.1 88.2,202.7 84,199.3 79.8,195.9 
			75.7,192.4 71.7,188.9 67.6,185.4 63.6,181.8 59.7,178.3 55.7,174.7 51.8,171.1 48,167.5 44.2,163.8 		"/>
		<polyline class="st5" points="342.9,158.6 348.3,158.5 353.8,158.3 359.2,158.1 364.7,157.8 370.1,157.5 375.6,157.2 		"/>
		<polyline class="st3" points="52.2,158.3 57.7,158.2 63.2,158 68.7,157.8 74.2,157.6 79.6,157.3 85,156.9 90.5,156.6 95.9,156.1 
			101.3,155.7 106.7,155.2 112,154.6 117.4,154.1 122.7,153.4 128.1,152.8 133.4,152.1 138.7,151.3 143.9,150.5 149.2,149.7 
			154.4,148.8 159.6,147.9 164.8,147 170,146 175.2,144.9 180.3,143.9 185.5,142.8 190.6,141.6 195.6,140.5 200.7,139.2 205.8,138 
			210.8,136.7 215.8,135.4 220.8,134 225.7,132.6 230.7,131.2 235.6,129.7 240.5,128.2 245.4,126.6 250.2,125.1 		"/>
		<polyline class="st6" points="272.4,181.9 277.7,181 283,180.1 288.2,179.2 293.5,178.2 298.7,177.1 303.9,176.1 309.1,175 
			314.3,173.8 319.5,172.6 324.7,171.4 329.9,170.2 335,168.9 340.1,167.6 345.2,166.2 350.3,164.8 355.4,163.3 360.5,161.9 
			365.5,160.3 370.6,158.8 375.6,157.2 		"/>
		<polyline class="st7" points="44.2,163.8 49.5,164.9 54.7,166 60,167.1 65.3,168.1 70.6,169.1 75.9,170 81.2,170.9 86.5,171.7 
			91.8,172.5 97.1,173.3 102.4,174 107.7,174.7 113,175.3 118.3,175.9 123.6,176.5 129,177 134.3,177.5 139.6,178 144.9,178.4 
			150.3,178.7 155.6,179.1 160.9,179.3 166.2,179.6 171.6,179.8 176.9,180 182.2,180.1 187.5,180.2 192.9,180.2 198.2,180.2 
			203.5,180.2 208.8,180.1 214.1,180 219.4,179.9 224.7,179.7 230,179.4 235.3,179.2 240.6,178.9 245.9,178.5 251.2,178.1 
			256.4,177.7 261.7,177.2 267,176.7 272.2,176.2 277.5,175.6 282.7,175 288,174.3 293.2,173.6 298.4,172.9 303.6,172.1 
			308.8,171.3 314,170.4 319.2,169.5 324.4,168.6 329.6,167.6 334.7,166.6 339.9,165.6 345,164.5 350.1,163.4 355.2,162.2 
			360.4,161 365.5,159.8 370.5,158.5 375.6,157.2 		"/>
		<text transform="matrix(1 0 0 1 343.263 253.0303)" class="st8 st9 st10">●</text>
		<text transform="matrix(1 0 0 1 343.263 253.0303)" class="st11 st9 st10">●</text>
	</g>
	<circle class="st8" cx="272" cy="182" r="2.4"/>
	<circle class="st8" cx="109.7" cy="219.5" r="2.4"/>
	<circle class="st8" cx="44.2" cy="163.8" r="2.4"/>
	<circle class="st8" cx="52.2" cy="158.3" r="2.4"/>
	<circle class="st8" cx="250.2" cy="125.7" r="2.4"/>
	<circle class="st8" cx="312.5" cy="173.9" r="2.4"/>
	<circle class="st8" cx="343.3" cy="158.6" r="2.4"/>
	<circle class="st8" cx="375.6" cy="157.2" r="2.4"/>
	<circle class="st8" cx="380.5" cy="131.4" r="2.4"/>
</g>
</svg>
