<?xml version="1.0" encoding="utf-8"?>
<!-- Generator: Adobe Illustrator 23.1.1, SVG Export Plug-In . SVG Version: 6.00 Build 0)  -->
<svg version="1.1" xmlns="http://www.w3.org/2000/svg" xmlns:xlink="http://www.w3.org/1999/xlink" x="0px" y="0px"
	 viewBox="0 0 422.7 278.9" style="enable-background:new 0 0 422.7 278.9;" xml:space="preserve">
<style type="text/css">
	.st0{fill:#707589;}
	.st1{opacity:0.4;fill:none;stroke:#FFFFFF;stroke-width:1.07;stroke-linejoin:round;stroke-miterlimit:10;}
	.st2{opacity:0.102;fill:none;stroke:#FFFFFF;stroke-width:1.07;stroke-linejoin:round;stroke-miterlimit:10;}
	.st3{opacity:0.6;fill:none;stroke:#FFFFFF;stroke-width:1.07;stroke-linejoin:round;stroke-miterlimit:10;}
	.st4{opacity:0.702;fill:none;stroke:#FFFFFF;stroke-width:1.07;stroke-linejoin:round;stroke-miterlimit:10;}
	.st5{opacity:0.2;fill:none;stroke:#FFFFFF;stroke-width:1.07;stroke-linejoin:round;stroke-miterlimit:10;}
	.st6{opacity:0.8;fill:none;stroke:#FFFFFF;stroke-width:1.07;stroke-linejoin:round;stroke-miterlimit:10;}
	.st7{fill:none;stroke:#FFFFFF;stroke-width:1.07;stroke-linejoin:round;stroke-miterlimit:10;}
	.st8{opacity:0.302;fill:none;stroke:#FFFFFF;stroke-width:1.07;stroke-linejoin:round;stroke-miterlimit:10;}
	.st9{opacity:0.898;fill:none;stroke:#FFFFFF;stroke-width:1.07;stroke-linejoin:round;stroke-miterlimit:10;}
	.st10{fill:#FFFFFF;}
	.st11{font-family:'MyriadPro-Regular';}
	.st12{font-size:3.18px;}
	.st13{fill:none;stroke:#FFFFFF;stroke-width:0.71;stroke-linecap:round;stroke-linejoin:round;stroke-miterlimit:10;}
</style>
<g id="map">
	<path class="st0" d="M62,232.8c0.8,1.4,0.6,2.2-1.1,2.8c-1.1,0.4-2.1,1.3-3.1,1.9c-0.6,0.4-1.3,0.6-2.1,1c0.3-2.7,0-5.2,2.5-6.8
		c-1.6,0.1-2.3,0.8-3.3,2.7c-0.7,1.3-1.7,2.5-2.6,4c0.2,0.2,0.7,0.5,1.4,1.1c-4.2,4.5-8.7,8.4-14.2,11.4c-0.6-0.7-1.5-0.5-2.8,0.2
		c-1.5,0.9-3.5,1.2-5.2,1.7c-0.1-0.3-0.3-0.5-0.4-0.8c0.8-0.5,1.7-0.9,2.5-1.4c0.8-0.4,1.7-0.8,2.6-1.2c0.6-0.3,1-1,1.6-1
		c2.9-0.3,4.8-2.2,6.6-4.1c1-1.1,1.4-2.6,2.4-4.5c-1.5,0.2-2.3,0.3-3.5,0.4c-1.2-1.4-1.3-2-4.6-0.6c0-1.6,0-3.1,0-4.7
		c-3.4,0.6-4.2-0.2-4.6-3.6c-0.2-1.4-1.5-2.7-0.2-4.3c0.8-0.9,1.3-2.1,2.2-2.8c0.5-0.4,1.6-0.3,2.4-0.1c1.1-0.5,2.6-0.7,3.2-1.5
		c0.6-0.7,0.2-2.2,0.3-3.1c-1.6,0-3.4,0-5.2,0c-1.4,0-2.3-0.6-2.5-2.2c-0.1-0.9-0.8-1.7-1.4-2.8c1.9-0.7,3.8-1.5,6-2.4
		c0.2,2.3,1.3,2.8,3.3,2.1c-1.6-2.3-3.2-4.5-4.6-6.7c-0.3-0.5-0.7-1.3-0.5-1.7c0.3-0.5,1.1-0.8,1.7-1.1c0.7-0.3,1.9-0.3,2.1-0.7
		c0.9-2.2,2.6-3.2,4.5-4.1c1.3-0.6,2.7-1.1,4.6-1.8c1.3,0.6,3,1.9,4.9,2.3c2.8,0.6,5.8,0.9,8.7,0.7c2.2-0.1,4,0.5,4.5,2.8
		c1.9,9.4,3.8,18.8,5.7,28.5c0.9-0.2,1.8-0.5,2.4-0.6c1.5,1.2,2.9,2.3,4.3,3.3c0.9-1.1,1.7-2.9,2.5-2.9c1.1,0,2.2,1.3,3.2,2.1
		c1.1,0.8,2.2,1.6,3.1,2.6c1.6,1.7,3.2,3.3,5.8,3.6c1.6,0.2,2.2,2.7,1.3,4.8c-0.8,0.2-2.5-2-2.6,0.8c0,0-1.8,0.4-2.3,0
		c-1.4-1.3-2.5-2.8-3.8-4.4c-0.2,0.6-0.3,0.9-0.4,1.5c-1.2-1.3-2.1-2.6-3.3-3.5c-2.1-1.6-4.3-3.1-6.5-4.5c-2.5-1.5-5.3-1.4-8.2-1.2
		c-1.5,0.1-3.1-1-4.7-1.6c-0.7-0.2-1.5-0.3-2.3-0.5C62.1,232.3,62.1,232.6,62,232.8z"/>
	<path class="st0" d="M54.7,240.6c0.2,0.2,0.5,0.3,0.6,0.5c0.7,1.4-1.4,5-2.9,5.1c-0.4,0-1.1-0.4-1.3-0.8c-0.2-0.4-0.2-1.2,0-1.6
		c0.9-1,2-1.9,3-2.8C54.2,240.8,54.5,240.8,54.7,240.6z"/>
	<path class="st0" d="M30.7,222.1c-1.9,0.6-4.2-0.7-4.9-2.8C27.6,220.4,29,221.1,30.7,222.1z"/>
	<path class="st0" d="M30.2,232.4c0.9,0.2,1.8,0.3,2.7,0.5c-0.1,0.4-0.2,0.9-0.4,1.3c-0.8-0.2-1.7-0.5-2.5-0.7
		C30.1,233.2,30.2,232.8,30.2,232.4z"/>
	<path class="st0" d="M138.8,253.6c-1-0.2-2.3-0.7-1.7-2.9c0.1-0.5-0.1-1.1-0.4-1.6c-0.7-1.5-1.3-2.8,0.2-4.3c0.6-0.6,0.3-2,0.5-3.2
		c3.9,1.1,7.2,2.9,9.1,7.2C144.4,250.2,142,251.7,138.8,253.6z"/>
	<path class="st0" d="M133.3,238.9c-0.2-0.2-0.6-0.4-0.9-0.7c-0.5-0.5-1-1.1-1.5-1.7c-0.2-0.3-0.3-0.8-0.4-1.2
		c0.4-0.1,0.9-0.3,1.3-0.2c1.1,0.2,2.2,0.5,3.2,0.9c0.5,0.2,0.8,0.9,1.2,1.3c-0.5,0.4-1,0.8-1.5,1.1
		C134.3,238.6,133.9,238.7,133.3,238.9z"/>
	<path class="st0" d="M108.3,225c-1,0.7-1.7,1.6-2.3,1.5c-0.8-0.1-1.6-0.9-2.4-1.5c1-0.6,1.9-1.3,3-1.7
		C106.9,223.3,107.5,224.2,108.3,225z"/>
	<path class="st0" d="M119.7,228.2c0.1,1.3,0.4,2.3,0.2,3.2c0,0.3-1.3,0.8-1.5,0.6c-0.7-0.6-1.3-1.4-2-2.3
		C117.6,229.2,118.4,228.9,119.7,228.2z"/>
	<path class="st0" d="M172,218.2c0.5-0.4-0.2,1.2,0.8,0.9c-0.1,0.1-0.1,1.4,0.3,0.3c1,1.9,3.9,3.5,5,7c0.2,5.5,7.8,9.6,7.7,14.8
		c1.6,6,6,11.9,13.8,11.8c1,0.1,1.7,1.3,3.6,1.2l-0.1,0c1,0.7,2.2-1.9,1.6-0.6c-0.2-0.1-0.1-0.4-0.6,0.1c-0.4-2.4-2.6-5.3-1.8-11.4
		c-1.2,1.3-3.9-4-0.9-0.5l-0.1-0.3c0.6-0.2,1.7-1.3,0.5,0.2c0.9,0.7,2-1.9,2.2-3.6c-0.8,0.9-0.5-0.2-0.9-1.3
		c-0.1,0.1-0.7,0.4-1.2-0.4c1.1-0.6,5.2,2.4,2.5-1.8c0.1,0.1,1-0.4,0.4-0.8c1.3,1.1,2.8-2.3,2.2,0.4c1.7,0,0.3-3,1.2-2.3
		c-2.2-1.1,5.6,1,1.7-0.8c0.1-0.2-0.2-0.1,0.6-0.5c-0.4-0.8-1.2,0.2-1.2-1.6c0.1,0.3,0.6-0.5,0.7,0.5l0.3-0.2c0-0.2,0.2,1.3,0.5,0.2
		c-0.1-0.1,0.4,0.4-0.2,0.7c0.3,0.2-0.1,0.1,0.8-0.3c0.3,0.2-0.8-0.7-0.1-1.1c-0.1,0.3,0.6,1.6,1,0c0,0.1,0,0,0.1,0.4
		c0.1,0,0.1-0.1,0.5-0.6c0,0.2,0-0.1-0.2,1.1c-0.1-0.1,1.1,0.2-0.1,0.2c3.5-0.5,5.2-2.3-1,1.8c1.3-0.8,6.7-2.8,9.8-6.1
		c-2-0.5,3,0,1.3-5.9l-0.1,0.1c5.8-1.4-0.9,0.8,3.9,1.7c-5.2,3.1,3.3-1.8,7.6-2.2c2.3-1.5,11.2,4.6,11.4,0.5
		c1.5-5.5,7.3,7.2,12.5,3.8c-0.3-3.2,4.5,5.4,4.1-2.6c1.5-0.2,1.3,2,3,1.4c2.4,1.7,3.7,4,4.8,1.2c0.6-1.1-4.3-0.9-4.6-3.9
		c1.5-1.2,3.2-2.2,3.2-4.4c0.4-1.8-7.2,4-4.2,0.6c0-0.3,0.7-1.8-0.2-0.7c-0.1-0.1-0.1,0-0.1-0.4c-1.7,2.6-10.1-0.2-2.5-1.4
		c1.3,0.7,3.9,2.4,5.6-0.1c2.5-2.4,10.1,2.1,10.2-4.9c2.9,2.8-1.7,7.8,4.5,3.4c-1.3,1.5,3-0.2,1.9-2c0.9,1,3.6-0.3,0.3,1.9
		c1.6-1.1,12.6-2.1,5.2-1c0.6-0.2,7,2.9,5.9,1.1c-1,0.7-0.8-1,0.8-0.1c-0.1,0.2,0.1,0.2-0.3,0.6c-0.7,0.8,2-0.4,3.4,4.1
		c-0.5,0.2-0.5,0-0.6-1.6c-1.5,2.9,2.7,1.3,4.2,0.5c-1.3,1,5.7-2.1,3.4-2c0.3-0.3,0.5-0.6,1.1-1.3c1-2,14.2,7.9,14.5,11.3
		c0.3,2-2.4,8.9,1.1,8.6c-2.3-5.7,1.2,0,1.1-1.6c2.5-1.4-2.2,4.3-0.4,4.4c1.1,1,1.7,5.3,4.3,5.1c-1.7-1.6,1.1-1.7,0.4-1.1
		c0.6,3.1,0.8,3.1,4.6,8.7c0.1-1.1,11.2,7.4,4.9,5c0.1,2.9,4.5-0.1,6.2-0.1c0.8-1.7,0.2-3.9,1.5-6c1.6-11.8-13-29.4-17.3-42.2
		c0.1,0.4,1.2-6,0.3-2.9c-1.6-1.9,1,0.1-0.2-2.7c0.8,0,0.6-0.9,1.4-0.9c0.8-0.9-1.4-1.7,0.5-1.6c0.3-0.6,0.1-1-0.5-1.5
		c1.4-1.9,3.9-3.7,2-6.9c2.2,2.1,1.6,0.4,2.8-0.9l0,0.1c0.3-0.4,1.8,0.2,1.6-1.2c-0.4,0.7,7.6-5,6.2-8.1c0.8,2.2,1.1-4.1,4.9-5.3
		c0.8-1.4,4.2,0.4,3.9-2.7c0.3,3.3,3.1-8.4,3.7-5.8c-1,1.4,2.4,0.2,1.1-1.4c0.2,1.1,3.4,0,3-0.4c0.2-0.5,0.3-0.5,1,0.1
		c0.2-0.3,0.8-0.1,2-2c0.3-0.2-1.5-1.5-1.4-0.5c-1.5-0.4,0.6,0.9-1.2,0.4c0.1,0,0.6,0.6,0,0.5c-0.4-1.2-0.2,1.4-3.4-1.1
		c-0.4-2.1,3.3,3.7,3.6-2.1c1.7-0.4-1.4-1-2.1-0.8c-3.5-1.9,1.2,0.5,1.4-1.3c-1.2-0.4,0.2-0.6,1-0.8c-1.4,1.9,0.2,0.9,1.6,1.6
		c1.3-0.3,1.7-0.8,2.5-2.9c1.1,1.1,0.5-0.8,1-1c-0.5-0.7,0.2-1.5-1.5-2.2c0.2,0.2-0.4,0.1-0.1,0.6c-1.5-0.6,0.6,3.6-1.6,2.2
		c0.9,0.3,0.6-1.5,0.2-2.3c-0.8-1.9-5.3,4.7-5.6-2.7c0.5-0.1,1.2,4.9,2.4,2c1.1-0.3,0.6-1.4,2-0.7c0.8-0.6,0.8-0.5-0.4-1.4
		c0.8-0.4,2.4,1.6,1.4-0.4c0.7-0.1,0.6,1.1,1.6,1.6c0.1-1.2-4.5-5.1-1.7-3.5c0.1,0-1-2.6,0.2-0.6c-1.2-0.6,6.4,10.3,2.7,4.5
		c-1.9-1.4-2.8-10.6-7.4-6.5c-0.1-1.9-5.1-2.1-3.5-3.4c1.3,0.5,2.7,2.5,4.6,1.9c0-0.1,0.2-1-0.5-0.6l0-0.1l0,0
		c0.6-0.7-4.2-1.5-3.8-3.2c3.1,3.7,1.9-0.2,3.9,1.1c-0.2-2.6-2.1-1.1-5.9-5.5c3.9,4.3,8.3,1.8,1.9-1.1c-1.1-0.2-2.6-0.3-3.4-2
		c-0.5-1.5,1.4,0.9,4.5,1.4c2.4,1,0.4-0.9-1.9-2.8c4.3,2,0.3,0.8,0.3-4.8c1,0,0.3-1.1-1.2-2.2c1.3-0.1,0.9,0.1,1.8-0.9
		c-0.6-1,0.9,0,0.8-1c1.2-0.1-0.3-1.5,1.4-1.9c0.1,0-0.1,0.4,0,1c0.6-1.2,1.2,0.6-0.9,1.6c-0.7,2.4,1.7,2.8-0.2,5.5
		c0.7-0.5,0.8,0.7,1.6-0.3c0.9,2.6-0.5-0.1-0.7,1.9c2-0.5-2.4,0.4,2,2.5c0-2.3,0.4,1.1,0.9-1.1c0.5,0.4,0.4,3.9,1.8,3.2
		c1.3-0.9-0.3,1.8-0.4,3.2c-0.7,0.6-0.5,7.8,0.8,2.1c0.5-6.2,5.4-5.7,2-11.9c0,0,1.3-0.2,0.3-0.6c0,0,0.3,0,0.2-0.4
		c2.9,1.9-6.4-5.9-4.5-8.3c-0.2,4.1,5.8,2.2,5.5,5.9c1.7-3.5,3.9-6.4,3.7-11.1c0.3,0.2,0.2,0.9,0.5,2.3c-0.1-1.2,0.6-4.4-0.8-6.3
		c0,0.2-0.1,0.1,0.1,0.6c-0.3-0.2-1.2,0.2-2-0.3c1.7-0.6,0.4-2.4,1.7-4.2l0.3,0.8c-0.1-0.1-0.1,0-0.2-0.3l0.7,0.2
		c-0.5-0.7,0.7-0.8,0.6-2.1c1.3,0.3,4-3.6,4.8-3.1c0.8-0.7,3.2-0.2,3.4-1.5c1.1,0.6,1.3-0.3,3.4-0.9l0,0.3c0.5-0.3,1.1-0.4,2.2-1.6
		c0.1,1.1,0.6-4.7,0.9-0.6c0.7,1.2,0.6-1.5,1-0.3c0.1,0,0.3-0.4,0.6-0.9c-0.1,0.1,0.7,0.7,0.6,0c0.5,0.4,2-5.2,2.2-0.7
		c2.3-0.5,7.6-5,1.8-5c4.7,0.1-1.1,5.9-2.5,0.8c-0.4-0.7-1-1.5-2.5-2c0.4,1.4-1.9,0-0.9-0.6c2.7-5.6,0.4,1.2,0.2-6.7
		c1.7-0.6,0.8-7.3,3.3-7.7c1.1-1.4-0.2,2.5,2.1-1.6c1.5,1.1,0.1-0.9,2.2-1.2c0,3.5,1.6-9.1,1.8-4.4c0.2,0.2,0.4-0.9,0.8,0.1
		c0.1,0.1-1-0.3-0.5,0.4c-0.9,0.1,0.9,0.6,1.1,0.4c0.6,0.2,0.8-0.1,0.1-1.1c0.3-0.2,0.5-0.3,0.6-1.1c0.1,0.5,0.9,1.1,0.9-0.4
		c0.6,0.4,1.2-0.8,1.9,1.1c0.2-0.3,0.3-0.6,0.2-1.5c0.4,0.8,0.9,0.3,0.7-0.9c0.4-0.2,2,0.7,1.6-1.1c0,0.1,0.1-0.1,0.5,0.1
		c-0.1,0.2,0.3-1.1,0.3-0.1c0.5,0.3,0-2,0.8-0.6c0.6,0,1.2-1,1.4-2.2c-2.5,0.6,0.8-2-2.5-2.7c-1.6,2-0.7-3.1-3.9-3.4
		c-3.1-1.4-0.4-11.3-6.8-13.4c-7.4,6.9-5.7-9-9.7,11c-1.6,5.3,0.7,10.1-6,12.4c1.4,7.6-25.8-0.9-28,17.4l-0.3,0.4
		c0,2,2.2,3.1-3.8,7.4c-0.2-0.2-2.8-0.4-3.7,0.9c-1.3-1.2-12.4-1.1-9.1,4.1c2.6,0.7-1.8,5.3-6.5,8.6c-0.1,0,0.2-0.1,0.1-0.4
		c-9.3,5.6-9.7,10.4-22.5,7.6c0.2,0.3,3.9-12.9,4.9-8.8c1.3-3-0.8-21.7-8.4-8.3c-4.8-2.9,2.4-1.9,1.5-13.4
		c-10.4-8.8-11.3-6.4-14.9,3.9c-0.6-0.8,0.1-2.5,0.1-3.9c-2.7,2.7-5,6.6-5,11.9c-1.2,5.5,5.9,8.1,0.5,18.3c-9.6,12.6-11.8-17-5.8-28
		c1.1-0.5,0.6-4-0.3-0.9c-0.8-0.1-1.2,1.6-1.4,3.1c-1.4-1.2-1.8,1.7-4,3.2c-1,1,6.7-16.2,6-11.1c5-4.8-0.8,2.8,3.9-1.1
		c1.6-4,10.3-2.2,15.6-3.2c-3.6-6.8-8.9-0.6-7.4-6.3c-6.6,0.4-12.9,7.3-17.7,1c-2.3-0.7-2.6-1.9-4.7,1c-0.3-0.4,0.3-1.2,0-2.2
		c1.2-0.5,1.5-3.2,4-3.9c-4.4-1.7-12.4,10.1-19.7,8.3c3.5-6.9-3.8,1.1-7.6-1c1.8-2.3,9.6-9.4,16.2-12c-7.8-1.2-14.2,0.2-20.2-3.2
		c1.3-3.4-7.7,1.5-12.4-3.3c-0.4-1.4,0.1-5.1-2.9-4.7c-47.6,10.3-114.5-7.7-168.4-20l0,0.2c-1.2,0.3,0.9,2.1,0.7,2.5
		c0.2,0.3,0.2,2.5-1,2c0.2-1.1-1.4,0.4,0.1,0.3c1,1-0.2,2.9,1.2,3.9c-0.8,0.4-1.4,1.5-2.2,2.8c0.2,0.8-0.1,2.2-0.9,3.6
		c0,0-0.2-0.1-0.6-0.7c-0.1,0.2-1.5,2.5-2.2,0.8l-0.1,0.4c-0.1,0.1,0.2-0.2-0.4-0.3c-0.1,0.3,0,0.1-0.2,0.9
		c-0.5,0.2,0.4-0.8-0.6-0.6c0.1,0,0,0,0.6-0.5c-0.2-0.1-0.1-0.2-0.9,0.2c0,0-0.1-0.3,0.6-0.6l-0.6-0.2c0,0.2,0-0.5,0.5-0.3L47.4,36
		c0.2,0.1,1.2-0.2,1.7-1.1c0.3,1.3-1.3,2.5,1.2,0.3c0,0.3-1,0.7,0.1,1.2c-0.3-1.3,2.3-1.6,0.1-2.8c0-0.1-0.2-0.1,0-0.5
		c0.7,0.8,0.3,0.1,0.6-0.9c0-0.2,0.1,0.9,0.6,0c0.3,0.7,1-0.7,0-1.7c-0.2,0.1,0.1,0.2-0.1,1.1c0.8-0.6-7.4,3.5-2.6,2.9
		c-3.7,1.1-0.9-1.2,0.8-3.4l0.2,0.4c0-0.1,0.1,0.1,0.2-0.5c0,0.2,0.3,0.2-0.1,0.7c0.7-0.4,1.7-1,1.3-2.8l-0.2,0.7l-0.1-0.3L51,29.5
		c0.1-1.2,0.4-1.1-0.7,0.1c0,0,0.4-0.5-0.3-1c-0.1,0,0.1,0.1-0.3,0.4c-0.6-1.7-4.4-1.6-9.4-6c-1.2,3.7,0.9,7.8-0.1,13.1
		c0.6-0.6,0.4-0.6,2,0.5c0.2,0.3-1.6-0.3-1.7,0.7c-0.2,0,0-0.3-0.4-0.7c-0.4,1.3-0.1,1.6,1.2,2.2c-0.1-0.2-0.4,0.4-1,0.5
		c-0.1-0.3,0.6,2.2-0.9,2.2c-0.3,0.3,0.6-1,0.3-2.4c-0.2,0.2-0.5,1.5-0.8,2.9c0.5,0.5,3.5,0.4,3.7,2.1c-0.6-0.8-1.4,0-2.7-0.8
		c0,0,0.1,0.1,0.2,0.5c-0.4,0.3-0.3-0.8-1.2-0.9c0.6,1.9-1.5,3.6-1.1,6.6c-3.4,8.9-13.5,21.9-11.4,33.7L26.3,83
		c0.2,1-0.4,1.4-1.1,3.1L25,85.9c0.4,3.9-6.2,2.1-1.6,13.4c-3,4.6,1.5,12,1.8,15.1c0.4,0.4-1.6,2.8,0.1,1.4c0,0.5,0.6,0.9,1.2,1.8
		c1.7,1.5,1.3,1.1,1.9-1.4c-0.1,0-0.1,0-0.2-0.2c1,0,1.4,0.1,2.3,1.5c-0.2-0.1,0-0.1-0.7-0.3l0.1,0c-2.1-0.1-0.7,3.4,0.4,5.7
		c-0.5,0.2-3.3-2.3-2-3c-0.1-0.2,0.2-0.6-0.4-0.9c-2.4,2.9-1.1,6.4,2.1,9.8c-5.1,3.9,3.2,11.2,2.8,15.5c4.6,3.8-5.7,6.4,6.6,9.9
		c6.4,5,15.2,11.2,15.3,20.5c-0.6-0.3-0.2-1.1-0.4,0.8c5.4,0.6,11.4,1.3,18.2,2c-4.5,0.7,22.1,19.3,39.7,19.6
		c7.3,2.5,13.1-6.5,22.7-0.1c1.7,4.4,7.1,7.3,10.3,12c1.1,2.2,0,8.8,7.4,12.4c2.9,0.7,2.9,4.5,7.2,0.6c-0.3-0.8,0.8-2,1.2-3.5
		l0.2,0.1c1.6-3.1,5.9-1.2,9.6-0.8C171.4,217.7,171.5,218.4,172,218.2z"/>
	<path class="st0" d="M389.8,92.5c-0.4,0.1-0.4,0-1.2-0.1c-0.2-1-0.3,1.1-1.2,1.1C387,94.2,389.6,93.4,389.8,92.5z"/>
	<path class="st0" d="M392.7,93c-1.8-0.2-0.3,1.1,0.7-0.2c-0.3-0.5-1.3-1-0.5-0.3C392.8,92.6,393,92.8,392.7,93z"/>
	<polygon class="st0" points="367.7,103.2 367.6,103.1 367.6,103 367.6,102.9 367.4,103 367.4,103.4 367.2,103.7 367.2,104.1 
		367.2,104.2 367.3,104.2 367.5,104 367.5,103.9 367.5,103.8 367.6,103.5 367.6,103.4 	"/>
	<polygon class="st0" points="365.9,106.6 366.2,106.5 366.5,106.3 366.6,106 366.8,105.8 367,105.4 367.1,105.2 366.8,104.8 
		366.1,105.2 	"/>
	<path class="st0" d="M377.2,100.3l0.2,0.2c-0.1,0,0.1,0.2-0.5,0.3c-0.7-0.8,0.1-1.6,1.4-3.1c-1.8,2.1-6.1,3.1-7.9,4.3
		c0-0.4-1-0.3-0.9,0.7c-0.5-0.8-0.4,1.1-1,0.4c-3.5,3.9,2.3,0.2-0.2,2.3c1.3-0.5,3.3-1.6,4.8-2.7c2.2-0.5,5.5-3.3-0.1,1.1
		c1.9-1.1,12.1-7.6,5.1-4.9C377.7,99.2,377.8,99.7,377.2,100.3z"/>
	<path class="st0" d="M50.6,24.3c0,0,0.1,0.2,0.4,0.6c-0.2,0,0,0.2-0.3,0.7C50.2,25.7,49.8,22.7,50.6,24.3z"/>
	<path class="st0" d="M51.4,26.1c0-0.4-0.6-0.6,0.3-1.2C51.5,25.2,52.3,26.2,51.4,26.1z"/>
	<path class="st0" d="M52.2,24.4c-0.3,0.1,0.1-0.2-0.4-0.7c0,0.1-0.1,0,0,0.8c-0.3,0.2,0-0.5-0.7-0.2c-0.1-0.3,0.3-0.4,0.7-0.9
		C52,23.4,53.2,23.9,52.2,24.4z"/>
	<path class="st0" d="M51.8,28.3c0.1-0.1-0.2,0.3,0.5,0.4c-0.9,1.8,3.3,4.8-0.4-0.7c-0.1-0.2,0.3,0.2,0.5-0.4
		c0.2,0.1,0.2,0.1,0.9,0.1c0.2-0.1-0.4-0.5-0.3-0.9C52.9,26.6,51.3,26.9,51.8,28.3z"/>
</g>
<g id="constellation">
	<g>
		<polyline class="st1" points="299.6,101.5 294.7,102.8 289.7,104.1 284.8,105.4 279.8,106.6 274.8,107.8 269.8,108.9 264.8,110 
			259.8,111.1 254.7,112.1 249.7,113.1 244.6,114.1 239.5,115 234.4,115.9 229.3,116.8 224.2,117.6 219.1,118.3 213.9,119.1 
			208.8,119.8 203.6,120.4 198.4,121.1 193.2,121.6 188,122.2 182.8,122.7 177.6,123.1 172.4,123.6 167.2,124 161.9,124.3 
			156.7,124.6 151.4,124.9 146.1,125.1 140.9,125.3 135.6,125.5 130.3,125.6 125,125.7 119.7,125.7 114.4,125.7 109.1,125.6 
			103.8,125.5 98.4,125.4 93.1,125.2 87.8,125 82.5,124.8 77.1,124.5 71.8,124.2 66.4,123.8 61.1,123.4 55.7,122.9 50.4,122.4 
			45,121.9 39.7,121.3 34.3,120.7 29,120.1 		"/>
		<polyline class="st2" points="365.8,70.2 361.1,72.2 356.4,74.1 351.7,76 347,77.9 342.2,79.7 337.4,81.5 332.6,83.3 327.8,85 
			323,86.7 318.1,88.3 313.2,90 308.3,91.5 303.4,93.1 298.5,94.6 293.5,96.1 288.6,97.5 283.6,98.9 278.6,100.3 273.5,101.6 
			268.5,102.9 263.4,104.2 258.4,105.4 253.3,106.6 248.2,107.7 243.1,108.8 237.9,109.9 232.8,110.9 227.6,111.9 222.4,112.8 
			217.2,113.8 212,114.6 206.8,115.5 201.6,116.3 196.3,117 191.1,117.7 185.8,118.4 180.5,119 175.2,119.6 169.9,120.2 
			164.6,120.7 159.3,121.2 153.9,121.6 148.6,122 143.2,122.3 137.8,122.7 132.5,122.9 127.1,123.2 121.7,123.3 116.3,123.5 
			110.9,123.6 105.5,123.6 100,123.7 94.6,123.6 89.2,123.6 83.7,123.5 78.3,123.3 72.8,123.1 67.3,122.9 61.9,122.6 56.4,122.3 
			50.9,121.9 45.4,121.5 39.9,121.1 34.5,120.6 29,120.1 		"/>
		<polyline class="st3" points="341.2,134.9 345.1,130.6 349,126.3 352.9,122 356.6,117.7 360.4,113.4 		"/>
		<polyline class="st4" points="340.5,154.3 343.5,148.8 346.4,143.4 349.3,137.9 		"/>
		<polyline class="st4" points="340.5,154.3 335.7,151.6 330.9,148.8 326.1,146 321.4,143.2 316.7,140.3 312.1,137.5 307.5,134.6 
			302.9,131.6 298.4,128.7 293.9,125.7 289.4,122.7 285,119.6 280.6,116.6 276.3,113.5 272,110.3 267.7,107.2 263.5,104 
			259.3,100.9 255.1,97.7 251,94.4 247,91.2 242.9,87.9 238.9,84.6 235,81.3 		"/>
		<polyline class="st5" points="374.8,93.7 372.4,98.4 370,103.1 367.5,107.8 365,112.5 362.4,117.1 359.8,121.8 357.2,126.5 
			354.5,131.1 351.8,135.8 349.1,140.4 346.3,145.1 343.4,149.7 340.5,154.3 		"/>
		<polyline class="st6" points="328.7,208.7 330.6,203.7 332.5,198.7 334.4,193.8 336.3,188.8 338.1,183.8 339.9,178.8 341.7,173.7 
			343.4,168.7 345.1,163.7 346.8,158.7 348.4,153.7 350,148.6 351.6,143.6 353.1,138.6 354.7,133.5 356.1,128.5 357.6,123.5 
			359,118.4 360.4,113.4 		"/>
		<polyline class="st5" points="260,170.2 254.7,169.8 249.4,169.2 244.1,168.7 238.7,168.1 233.5,167.5 228.2,166.8 222.9,166.1 
			217.6,165.3 212.4,164.5 207.1,163.7 201.9,162.9 196.6,162 191.4,161 186.2,160.1 181,159.1 175.9,158 170.7,156.9 165.5,155.8 
			160.4,154.7 155.3,153.5 150.2,152.3 145.1,151 140,149.7 134.9,148.4 129.9,147 124.8,145.6 119.8,144.2 114.8,142.7 
			109.8,141.2 104.8,139.6 99.9,138.1 94.9,136.5 90,134.8 85.1,133.1 80.2,131.4 75.3,129.7 70.5,127.9 65.6,126.1 60.8,124.3 
			56,122.4 51.2,120.5 46.4,118.5 41.7,116.5 37,114.5 		"/>
		<polyline class="st7" points="235,81.3 239.9,83.1 244.9,84.8 249.9,86.5 254.9,88.2 259.9,89.8 265,91.4 270.1,93 275.2,94.5 
			280.4,96 285.5,97.4 290.7,98.8 295.9,100.2 301.2,101.5 306.5,102.8 311.7,104 317.1,105.3 322.4,106.4 327.8,107.5 333.1,108.6 
			338.5,109.7 344,110.7 349.4,111.6 354.9,112.5 360.4,113.4 		"/>
		<polyline class="st4" points="235,81.3 238.9,84.6 242.9,87.9 247,91.2 251,94.4 255.1,97.7 259.3,100.9 263.5,104 267.7,107.2 
			272,110.3 276.3,113.5 280.6,116.6 285,119.6 289.4,122.7 293.9,125.7 298.4,128.7 302.9,131.6 307.5,134.6 312.1,137.5 
			316.7,140.3 321.4,143.2 326.1,146 330.9,148.8 335.7,151.6 340.5,154.3 		"/>
		<polyline class="st8" points="283.6,159.8 287.2,163.9 290.8,168.1 294.4,172.2 298.1,176.4 301.8,180.5 305.5,184.6 309.3,188.7 
			313.1,192.7 316.9,196.7 320.8,200.7 324.7,204.7 328.7,208.7 		"/>
		<polyline class="st5" points="373.9,97.6 370.4,101.8 366.9,106 363.4,110.2 359.8,114.3 356.2,118.5 352.5,122.6 348.8,126.7 
			345,130.8 341.2,134.9 		"/>
		<polyline class="st2" points="262,217.3 260.8,212.1 259.6,206.8 258.5,201.6 257.3,196.4 256.1,191.1 255,185.9 253.9,180.7 
			252.8,175.4 251.7,170.2 250.6,164.9 249.5,159.7 248.5,154.4 247.4,149.2 246.4,144 245.4,138.7 244.4,133.5 243.4,128.2 
			242.4,123 241.4,117.8 240.5,112.5 239.5,107.3 238.6,102.1 237.7,96.9 236.8,91.7 235.9,86.5 235,81.3 		"/>
		<polyline class="st7" points="360.4,113.4 354.9,112.5 349.4,111.6 344,110.7 338.5,109.7 333.1,108.6 327.8,107.5 322.4,106.4 
			317.1,105.3 311.7,104 306.5,102.8 301.2,101.5 295.9,100.2 290.7,98.8 285.5,97.4 280.4,96 275.2,94.5 270.1,93 265,91.4 
			259.9,89.8 254.9,88.2 249.9,86.5 244.9,84.8 239.9,83.1 235,81.3 		"/>
		<polyline class="st6" points="360.4,113.4 359,118.4 357.6,123.5 356.1,128.5 354.7,133.5 353.1,138.6 351.6,143.6 350,148.6 
			348.4,153.7 346.8,158.7 345.1,163.7 343.4,168.7 341.7,173.7 339.9,178.8 338.1,183.8 336.3,188.8 334.4,193.8 332.5,198.7 
			330.6,203.7 328.7,208.7 		"/>
		<polyline class="st9" points="360.4,113.4 355.3,114.7 350.2,116 345.1,117.2 340,118.4 334.9,119.6 329.8,120.7 324.6,121.8 
			319.5,122.8 314.3,123.8 309.2,124.8 304,125.7 298.8,126.6 293.6,127.5 288.4,128.3 283.2,129.1 278,129.8 272.7,130.5 
			267.5,131.2 262.2,131.8 257,132.4 251.7,132.9 246.5,133.4 241.2,133.9 235.9,134.3 230.7,134.7 225.4,135.1 220.1,135.4 
			214.8,135.7 209.5,135.9 204.2,136.1 198.9,136.2 193.6,136.3 188.3,136.4 182.9,136.4 177.6,136.4 172.3,136.4 167,136.3 
			161.7,136.2 156.3,136 151,135.8 145.7,135.6 140.4,135.3 135,135 129.7,134.6 124.4,134.2 119.1,133.7 113.7,133.3 108.4,132.7 
			103.1,132.2 97.8,131.6 92.5,130.9 87.1,130.2 81.8,129.5 76.5,128.7 71.2,127.9 65.9,127.1 60.6,126.2 55.3,125.3 50.1,124.3 
			44.8,123.3 39.5,122.3 34.2,121.2 29,120.1 		"/>
		<polyline class="st1" points="327.7,114.8 333.1,114.7 338.6,114.5 344,114.3 349.5,114.1 354.9,113.8 360.4,113.4 		"/>
		<polyline class="st3" points="45.5,51.7 50.6,53.3 55.7,54.8 60.8,56.3 65.9,57.7 71.1,59.1 76.2,60.5 81.4,61.8 86.6,63.1 
			91.8,64.3 97,65.5 102.2,66.6 107.4,67.7 112.7,68.8 117.9,69.8 123.2,70.8 128.4,71.7 133.7,72.6 139,73.5 144.2,74.3 149.5,75 
			154.8,75.7 160.2,76.4 165.5,77.1 170.8,77.6 176.1,78.2 181.4,78.7 186.8,79.1 192.1,79.6 197.5,79.9 202.8,80.3 208.2,80.5 
			213.5,80.8 218.9,81 224.2,81.1 229.6,81.2 235,81.3 		"/>
		<polyline class="st4" points="349.3,137.9 346.4,143.4 343.5,148.8 340.5,154.3 		"/>
		<line class="st3" x1="37" y1="114.5" x2="29" y2="120.1"/>
		<polyline class="st3" points="257.2,138.1 252,138.5 246.8,138.9 241.6,139.2 236.4,139.5 231.2,139.8 226,140 220.8,140.2 
			215.6,140.3 210.4,140.4 205.2,140.5 200,140.5 194.8,140.5 189.6,140.4 184.4,140.3 179.2,140.2 173.9,140.1 168.7,139.9 
			163.5,139.6 158.3,139.3 153.1,139 147.9,138.7 142.7,138.3 137.4,137.8 132.2,137.4 127,136.9 121.8,136.3 116.6,135.7 
			111.4,135.1 106.3,134.5 101.1,133.8 95.9,133 90.7,132.3 85.5,131.5 80.3,130.6 75.2,129.7 70,128.8 64.9,127.8 59.7,126.8 
			54.6,125.8 49.4,124.7 44.3,123.6 39.2,122.5 34.1,121.3 29,120.1 		"/>
		<polyline class="st9" points="29,120.1 34.2,121.2 39.5,122.3 44.8,123.3 50.1,124.3 55.3,125.3 60.6,126.2 65.9,127.1 
			71.2,127.9 76.5,128.7 81.8,129.5 87.1,130.2 92.5,130.9 97.8,131.6 103.1,132.2 108.4,132.7 113.7,133.3 119.1,133.7 
			124.4,134.2 129.7,134.6 135,135 140.4,135.3 145.7,135.6 151,135.8 156.3,136 161.7,136.2 167,136.3 172.3,136.4 177.6,136.4 
			182.9,136.4 188.3,136.4 193.6,136.3 198.9,136.2 204.2,136.1 209.5,135.9 214.8,135.7 220.1,135.4 225.4,135.1 230.7,134.7 
			235.9,134.3 241.2,133.9 246.5,133.4 251.7,132.9 257,132.4 262.2,131.8 267.5,131.2 272.7,130.5 278,129.8 283.2,129.1 
			288.4,128.3 293.6,127.5 298.8,126.6 304,125.7 309.2,124.8 314.3,123.8 319.5,122.8 324.6,121.8 329.8,120.7 334.9,119.6 
			340,118.4 345.1,117.2 350.2,116 355.3,114.7 360.4,113.4 		"/>
		<text transform="matrix(1 0 0 1 298.3533 102.6104)" class="st10 st11 st12">●</text>
		<text transform="matrix(1 0 0 1 298.3533 102.6104)" class="st13 st11 st12">●</text>
	</g>
	<circle class="st10" cx="28.4" cy="120.7" r="2.4"/>
	<circle class="st10" cx="36.9" cy="114.1" r="2.4"/>
	<circle class="st10" cx="45.7" cy="51.6" r="2.4"/>
	<circle class="st10" cx="39.3" cy="64" r="2.4"/>
	<circle class="st10" cx="234.8" cy="81.3" r="2.4"/>
	<circle class="st10" cx="257.7" cy="138.2" r="2.4"/>
	<circle class="st10" cx="260.2" cy="170.4" r="2.4"/>
	<circle class="st10" cx="283.8" cy="159.2" r="2.4"/>
	<circle class="st10" cx="328" cy="208" r="2.4"/>
	<circle class="st10" cx="261.6" cy="218.4" r="2.4"/>
	<circle class="st10" cx="340.5" cy="154.3" r="2.4"/>
	<circle class="st10" cx="349.1" cy="138.2" r="2.4"/>
	<circle class="st10" cx="341.3" cy="135.1" r="2.4"/>
	<circle class="st10" cx="373.4" cy="99" r="2.4"/>
	<circle class="st10" cx="374.4" cy="93.2" r="2.4"/>
	<circle class="st10" cx="359.8" cy="113.6" r="2.4"/>
	<circle class="st10" cx="365.7" cy="70.9" r="2.4"/>
	<circle class="st10" cx="327" cy="114.9" r="2.4"/>
</g>
</svg>
