<?xml version="1.0" encoding="utf-8"?>
<!-- Generator: Adobe Illustrator 23.1.1, SVG Export Plug-In . SVG Version: 6.00 Build 0)  -->
<svg version="1.1" id="Layer_1" xmlns="http://www.w3.org/2000/svg" xmlns:xlink="http://www.w3.org/1999/xlink" x="0px" y="0px"
	 viewBox="0 0 382.1 257" style="enable-background:new 0 0 382.1 257;" xml:space="preserve">
<style type="text/css">
	.st0{fill:#707589;}
	.st1{fill:none;stroke:#FFFFFF;stroke-width:0.8;stroke-linejoin:round;stroke-miterlimit:10;}
	.st2{fill:#FFFFFF;}
	.st3{font-family:'ArialMT';}
	.st4{font-size:3.8669px;}
	.st5{fill:none;stroke:#FFFFFF;stroke-width:0.8;stroke-linecap:round;stroke-linejoin:round;stroke-miterlimit:10;}
	.st6{font-size:2.544px;}
	.st7{font-family:'Roboto';}
	.st8{font-size:40px;}
</style>
<g id="map">
	<path class="st0" d="M70.4,170c0.6,1.1,0.5,1.8-0.9,2.2c-0.9,0.3-1.7,1-2.5,1.5c-0.5,0.3-1,0.5-1.7,0.8c0.2-2.2,0-4.2,2-5.4
		c-1.3,0.1-1.8,0.6-2.6,2.2c-0.6,1-1.4,2-2.1,3.2c0.2,0.2,0.6,0.4,1.1,0.9c-3.4,3.6-7,6.7-11.4,9.1c-0.5-0.6-1.2-0.4-2.2,0.2
		c-1.2,0.7-2.8,1-4.2,1.4c-0.1-0.2-0.2-0.4-0.3-0.6c0.6-0.4,1.4-0.7,2-1.1c0.6-0.3,1.4-0.6,2.1-1c0.5-0.2,0.8-0.8,1.3-0.8
		c2.3-0.2,3.8-1.8,5.3-3.3c0.8-0.9,1.1-2.1,1.9-3.6c-1.2,0.2-1.8,0.2-2.8,0.3c-1-1.1-1-1.6-3.7-0.5c0-1.3,0-2.5,0-3.8
		c-2.7,0.5-3.4-0.2-3.7-2.9c-0.2-1.1-1.2-2.2-0.2-3.4c0.6-0.7,1-1.7,1.8-2.2c0.4-0.3,1.3-0.2,1.9-0.1c0.9-0.4,2.1-0.6,2.6-1.2
		c0.5-0.6,0.2-1.8,0.2-2.5c-1.3,0-2.7,0-4.2,0c-1.1,0-1.8-0.5-2-1.8c-0.1-0.7-0.6-1.4-1.1-2.2c1.5-0.6,3-1.2,4.8-1.9
		c0.2,1.8,1,2.2,2.6,1.7c-1.3-1.8-2.6-3.6-3.7-5.4c-0.2-0.4-0.6-1-0.4-1.4c0.2-0.4,0.9-0.6,1.4-0.9c0.6-0.2,1.5-0.2,1.7-0.6
		c0.7-1.8,2.1-2.6,3.6-3.3c1-0.5,2.2-0.9,3.7-1.4c1,0.5,2.4,1.5,3.9,1.8c2.2,0.5,4.6,0.7,7,0.6c1.8-0.1,3.2,0.4,3.6,2.2
		c1.5,7.5,3,15,4.6,22.8c0.7-0.2,1.4-0.4,1.9-0.5c1.2,1,2.3,1.8,3.4,2.6c0.7-0.9,1.4-2.3,2-2.3c0.9,0,1.8,1,2.6,1.7
		c0.9,0.6,1.8,1.3,2.5,2.1c1.3,1.4,2.6,2.6,4.6,2.9c1.3,0.2,1.8,2.2,1,3.8c-0.6,0.2-2-1.6-2.1,0.6c0,0-1.4,0.3-1.8,0
		c-1.1-1-2-2.2-3-3.5c-0.2,0.5-0.2,0.7-0.3,1.2c-1-1-1.7-2.1-2.6-2.8c-1.7-1.3-3.4-2.5-5.2-3.6c-2-1.2-4.2-1.1-6.6-1
		c-1.2,0.1-2.5-0.8-3.8-1.3c-0.6-0.2-1.2-0.2-1.8-0.4C70.4,169.6,70.4,169.8,70.4,170z"/>
	<path class="st0" d="M64.5,176.2c0.2,0.2,0.4,0.2,0.5,0.4c0.6,1.1-1.1,4-2.3,4.1c-0.3,0-0.9-0.3-1-0.6c-0.2-0.3-0.2-1,0-1.3
		c0.7-0.8,1.6-1.5,2.4-2.2C64.1,176.4,64.4,176.4,64.5,176.2z"/>
	<path class="st0" d="M45.3,161.4c-1.5,0.5-3.4-0.6-3.9-2.2C42.8,160,44,160.6,45.3,161.4z"/>
	<path class="st0" d="M44.9,169.6c0.7,0.2,1.4,0.2,2.2,0.4c-0.1,0.3-0.2,0.7-0.3,1c-0.6-0.2-1.4-0.4-2-0.6
		C44.8,170.3,44.9,170,44.9,169.6z"/>
	<path class="st0" d="M131.8,186.6c-0.8-0.2-1.8-0.6-1.4-2.3c0.1-0.4-0.1-0.9-0.3-1.3c-0.6-1.2-1-2.2,0.2-3.4
		c0.5-0.5,0.2-1.6,0.4-2.6c3.1,0.9,5.8,2.3,7.3,5.8C136.3,183.9,134.4,185.1,131.8,186.6z"/>
	<path class="st0" d="M127.4,174.8c-0.2-0.2-0.5-0.3-0.7-0.6c-0.4-0.4-0.8-0.9-1.2-1.4c-0.2-0.2-0.2-0.6-0.3-1
		c0.3-0.1,0.7-0.2,1-0.2c0.9,0.2,1.8,0.4,2.6,0.7c0.4,0.2,0.6,0.7,1,1c-0.4,0.3-0.8,0.6-1.2,0.9
		C128.2,174.6,127.9,174.7,127.4,174.8z"/>
	<path class="st0" d="M107.4,163.7c-0.8,0.6-1.4,1.3-1.8,1.2c-0.6-0.1-1.3-0.7-1.9-1.2c0.8-0.5,1.5-1,2.4-1.4
		C106.3,162.4,106.8,163.1,107.4,163.7z"/>
	<path class="st0" d="M116.5,166.3c0.1,1,0.3,1.8,0.2,2.6c0,0.2-1,0.6-1.2,0.5c-0.6-0.5-1-1.1-1.6-1.8
		C114.8,167.1,115.5,166.8,116.5,166.3z"/>
	<path class="st0" d="M158.4,158.3c0.4-0.3-0.2,1,0.6,0.7c-0.1,0.1-0.1,1.1,0.2,0.2c0.8,1.5,3.1,2.8,4,5.6c0.2,4.4,6.2,7.7,6.2,11.8
		c1.3,4.8,4.8,9.5,11,9.4c0.8,0.1,1.4,1,2.9,1h-0.1c0.8,0.6,1.8-1.5,1.3-0.5c-0.2-0.1-0.1-0.3-0.5,0.1c-0.3-1.9-2.1-4.2-1.4-9.1
		c-1,1-3.1-3.2-0.7-0.4l-0.1-0.2c0.5-0.2,1.4-1,0.4,0.2c0.7,0.6,1.6-1.5,1.8-2.9c-0.6,0.7-0.4-0.2-0.7-1c-0.1,0.1-0.6,0.3-1-0.3
		c0.9-0.5,4.2,1.9,2-1.4c0.1,0.1,0.8-0.3,0.3-0.6c1,0.9,2.2-1.8,1.8,0.3c1.4,0,0.2-2.4,1-1.8c-1.8-0.9,4.5,0.8,1.4-0.6
		c0.1-0.2-0.2-0.1,0.5-0.4c-0.3-0.6-1,0.2-1-1.3c0.1,0.2,0.5-0.4,0.6,0.4l0.2-0.2c0-0.2,0.2,1,0.4,0.2c-0.1-0.1,0.3,0.3-0.2,0.6
		c0.2,0.2-0.1,0.1,0.6-0.2c0.2,0.2-0.6-0.6-0.1-0.9c-0.1,0.2,0.5,1.3,0.8,0c0,0.1,0,0,0.1,0.3c0.1,0,0.1-0.1,0.4-0.5
		c0,0.2,0-0.1-0.2,0.9c-0.1-0.1,0.9,0.2-0.1,0.2c2.8-0.4,4.2-1.8-0.8,1.4c1-0.6,5.4-2.2,7.8-4.9c-1.6-0.4,2.4,0,1-4.7l-0.1,0.1
		c4.6-1.1-0.7,0.6,3.1,1.4c-4.2,2.5,2.6-1.4,6.1-1.8c1.8-1.2,9,3.7,9.1,0.4c1.2-4.4,5.8,5.8,10,3c-0.2-2.6,3.6,4.3,3.3-2.1
		c1.2-0.2,1,1.6,2.4,1.1c1.9,1.4,3,3.2,3.8,1c0.5-0.9-3.4-0.7-3.7-3.1c1.2-1,2.6-1.8,2.6-3.5c0.3-1.4-5.8,3.2-3.4,0.5
		c0-0.2,0.6-1.4-0.2-0.6c-0.1-0.1-0.1,0-0.1-0.3c-1.4,2.1-8.1-0.2-2-1.1c1,0.6,3.1,1.9,4.5-0.1c2-1.9,8.1,1.7,8.2-3.9
		c2.3,2.2-1.4,6.2,3.6,2.7c-1,1.2,2.4-0.2,1.5-1.6c0.7,0.8,2.9-0.2,0.2,1.5c1.3-0.9,10.1-1.7,4.2-0.8c0.5-0.2,5.6,2.3,4.7,0.9
		c-0.8,0.6-0.6-0.8,0.6-0.1c-0.1,0.2,0.1,0.2-0.2,0.5c-0.6,0.6,1.6-0.3,2.7,3.3c-0.4,0.2-0.4,0-0.5-1.3c-1.2,2.3,2.2,1,3.4,0.4
		c-1,0.8,4.6-1.7,2.7-1.6c0.2-0.2,0.4-0.5,0.9-1c0.8-1.6,11.4,6.3,11.6,9c0.2,1.6-1.9,7.1,0.9,6.9c-1.8-4.6,1,0,0.9-1.3
		c2-1.1-1.8,3.4-0.3,3.5c0.9,0.8,1.4,4.2,3.4,4.1c-1.4-1.3,0.9-1.4,0.3-0.9c0.5,2.5,0.6,2.5,3.7,7c0.1-0.9,9,5.9,3.9,4
		c0.1,2.3,3.6-0.1,5-0.1c0.6-1.4,0.2-3.1,1.2-4.8c1.3-9.4-10.4-23.5-13.8-33.8c0.1,0.3,1-4.8,0.2-2.3c-1.3-1.5,0.8,0.1-0.2-2.2
		c0.6,0,0.5-0.7,1.1-0.7c0.6-0.7-1.1-1.4,0.4-1.3c0.2-0.5,0.1-0.8-0.4-1.2c1.1-1.5,3.1-3,1.6-5.5c1.8,1.7,1.3,0.3,2.2-0.7v0.1
		c0.2-0.3,1.4,0.2,1.3-1c-0.3,0.6,6.1-4,5-6.5c0.6,1.8,0.9-3.3,3.9-4.2c0.6-1.1,3.4,0.3,3.1-2.2c0.2,2.6,2.5-6.7,3-4.6
		c-0.8,1.1,1.9,0.2,0.9-1.1c0.2,0.9,2.7,0,2.4-0.3c0.2-0.4,0.2-0.4,0.8,0.1c0.2-0.2,0.6-0.1,1.6-1.6c0.2-0.2-1.2-1.2-1.1-0.4
		c-1.2-0.3,0.5,0.7-1,0.3c0.1,0,0.5,0.5,0,0.4c-0.3-1-0.2,1.1-2.7-0.9c-0.3-1.7,2.6,3,2.9-1.7c1.4-0.3-1.1-0.8-1.7-0.6
		c-2.8-1.5,1,0.4,1.1-1c-1-0.3,0.2-0.5,0.8-0.6c-1.1,1.5,0.2,0.7,1.3,1.3c1-0.2,1.4-0.6,2-2.3c0.9,0.9,0.4-0.6,0.8-0.8
		c-0.4-0.6,0.2-1.2-1.2-1.8c0.2,0.2-0.3,0.1-0.1,0.5c-1.2-0.5,0.5,2.9-1.3,1.8c0.7,0.2,0.5-1.2,0.2-1.8c-0.6-1.5-4.2,3.8-4.5-2.2
		c0.4-0.1,1,3.9,1.9,1.6c0.9-0.2,0.5-1.1,1.6-0.6c0.6-0.5,0.6-0.4-0.3-1.1c0.6-0.3,1.9,1.3,1.1-0.3c0.6-0.1,0.5,0.9,1.3,1.3
		c0.1-1-3.6-4.1-1.4-2.8c0.1,0-0.8-2.1,0.2-0.5c-1-0.5,5.1,8.2,2.2,3.6c-1.5-1.1-2.2-8.5-5.9-5.2c-0.1-1.5-4.1-1.7-2.8-2.7
		c1,0.4,2.2,2,3.7,1.5c0-0.1,0.2-0.8-0.4-0.5V96l0,0c0.5-0.6-3.4-1.2-3-2.6c2.5,3,1.5-0.2,3.1,0.9c-0.2-2.1-1.7-0.9-4.7-4.4
		c3.1,3.4,6.6,1.4,1.5-0.9c-0.9-0.2-2.1-0.2-2.7-1.6c-0.4-1.2,1.1,0.7,3.6,1.1c1.9,0.8,0.3-0.7-1.5-2.2c3.4,1.6,0.2,0.6,0.2-3.8
		c0.8,0,0.2-0.9-1-1.8c1-0.1,0.7,0.1,1.4-0.7c-0.5-0.8,0.7,0,0.6-0.8c1-0.1-0.2-1.2,1.1-1.5c0.1,0-0.1,0.3,0,0.8
		c0.5-1,1,0.5-0.7,1.3c-0.6,1.9,1.4,2.2-0.2,4.4c0.6-0.4,0.6,0.6,1.3-0.2c0.7,2.1-0.4-0.1-0.6,1.5c1.6-0.4-1.9,0.3,1.6,2
		c0-1.8,0.3,0.9,0.7-0.9c0.4,0.3,0.3,3.1,1.4,2.6c1-0.7-0.2,1.4-0.3,2.6c-0.6,0.5-0.4,6.2,0.6,1.7c0.4-5,4.3-4.6,1.6-9.5
		c0,0,1-0.2,0.2-0.5c0,0,0.2,0,0.2-0.3c2.3,1.5-5.1-4.7-3.6-6.6c-0.2,3.3,4.6,1.8,4.4,4.7c1.4-2.8,3.1-5.1,3-8.9
		c0.2,0.2,0.2,0.7,0.4,1.8c-0.1-1,0.5-3.5-0.6-5c0,0.2-0.1,0.1,0.1,0.5c-0.2-0.2-1,0.2-1.6-0.2c1.4-0.5,0.3-1.9,1.4-3.4l0.2,0.6
		c-0.1-0.1-0.1,0-0.2-0.2l0.6,0.2c-0.4-0.6,0.6-0.6,0.5-1.7c1,0.2,3.2-2.9,3.8-2.5c0.6-0.6,2.6-0.2,2.7-1.2c0.9,0.5,1-0.2,2.7-0.7
		v0.2c0.4-0.2,0.9-0.3,1.8-1.3c0.1,0.9,0.5-3.8,0.7-0.5c0.6,1,0.5-1.2,0.8-0.2c0.1,0,0.2-0.3,0.5-0.7c-0.1,0.1,0.6,0.6,0.5,0
		c0.4,0.3,1.6-4.2,1.8-0.6c1.8-0.4,6.1-4,1.4-4c3.8,0.1-0.9,4.7-2,0.6c-0.3-0.6-0.8-1.2-2-1.6c0.3,1.1-1.5,0-0.7-0.5
		c2.2-4.5,0.3,1,0.2-5.4c1.4-0.5,0.6-5.8,2.6-6.2c0.9-1.1-0.2,2,1.7-1.3c1.2,0.9,0.1-0.7,1.8-1c0,2.8,1.3-7.3,1.4-3.5
		c0.2,0.2,0.3-0.7,0.6,0.1c0.1,0.1-0.8-0.2-0.4,0.3c-0.7,0.1,0.7,0.5,0.9,0.3c0.5,0.2,0.6-0.1,0.1-0.9c0.2-0.2,0.4-0.2,0.5-0.9
		c0.1,0.4,0.7,0.9,0.7-0.3c0.5,0.3,1-0.6,1.5,0.9c0.2-0.2,0.2-0.5,0.2-1.2c0.3,0.6,0.7,0.2,0.6-0.7c0.3-0.2,1.6,0.6,1.3-0.9
		c0,0.1,0.1-0.1,0.4,0.1c-0.1,0.2,0.2-0.9,0.2-0.1c0.4,0.2,0-1.6,0.6-0.5c0.5,0,1-0.8,1.1-1.8c-2,0.5,0.6-1.6-2-2.2
		c-1.3,1.6-0.6-2.5-3.1-2.7c-2.5-1.1-0.3-9-5.4-10.7c-5.9,5.5-4.6-7.2-7.8,8.8c-1.3,4.2,0.6,8.1-4.8,9.9c1.1,6.1-20.6-0.7-22.4,13.9
		l-0.2,0.3c0,1.6,1.8,2.5-3,5.9c-0.2-0.2-2.2-0.3-3,0.7c-1-1-9.9-0.9-7.3,3.3c2.1,0.6-1.4,4.2-5.2,6.9c-0.1,0,0.2-0.1,0.1-0.3
		c-7.4,4.5-7.8,8.3-18,6.1c0.2,0.2,3.1-10.3,3.9-7c1-2.4-0.6-17.4-6.7-6.6c-3.8-2.3,1.9-1.5,1.2-10.7c-8.3-7-9-5.1-11.9,3.1
		c-0.5-0.6,0.1-2,0.1-3.1c-2.2,2.2-4,5.3-4,9.5c-1,4.4,4.7,6.5,0.4,14.6c-7.7,10.1-9.4-13.6-4.6-22.4c0.9-0.4,0.5-3.2-0.2-0.7
		c-0.6-0.1-1,1.3-1.1,2.5c-1.1-1-1.4,1.4-3.2,2.6c-0.8,0.8,5.4-13,4.8-8.9c4-3.8-0.6,2.2,3.1-0.9c1.3-3.2,8.2-1.8,12.5-2.6
		c-2.9-5.4-7.1-0.5-5.9-5c-5.3,0.3-10.3,5.8-14.2,0.8c-1.8-0.6-2.1-1.5-3.8,0.8c-0.2-0.3,0.2-1,0-1.8c1-0.4,1.2-2.6,3.2-3.1
		c-3.5-1.4-9.9,8.1-15.8,6.6c2.8-5.5-3,0.9-6.1-0.8c1.4-1.8,7.7-7.5,13-9.6c-6.2-1-11.4,0.2-16.2-2.6c1-2.7-6.2,1.2-9.9-2.6
		c-0.3-1.1,0.1-4.1-2.3-3.8c-38.1,8.2-91.6-6.2-134.7-16v0.2c-1,0.2,0.7,1.7,0.6,2C64,3.8,64,5.6,63,5.2c0.2-0.9-1.1,0.3,0.1,0.2
		c0.8,0.8-0.2,2.3,1,3.1c-0.6,0.3-1.1,1.2-1.8,2.2c0.2,0.6-0.1,1.8-0.7,2.9c0,0-0.2-0.1-0.5-0.6c-0.1,0.2-1.2,2-1.8,0.6L59.2,14
		c-0.1,0.1,0.2-0.2-0.3-0.2c-0.1,0.2,0,0.1-0.2,0.7c-0.4,0.2,0.3-0.6-0.5-0.5c0.1,0,0,0,0.5-0.4c-0.2-0.1-0.1-0.2-0.7,0.2
		c0,0-0.1-0.2,0.5-0.5L58,13.2c0,0.2,0-0.4,0.4-0.2l0.2-0.4c0.2,0.1,1-0.2,1.4-0.9c0.2,1-1,2,1,0.2c0,0.2-0.8,0.6,0.1,1
		c-0.2-1,1.8-1.3,0.1-2.2c0-0.1-0.2-0.1,0-0.4c0.6,0.6,0.2,0.1,0.5-0.7c0-0.2,0.1,0.7,0.5,0c0.2,0.6,0.8-0.6,0-1.4
		C62,8.2,62.2,8.3,62,9c0.6-0.5-5.9,2.8-2.1,2.3c-3,0.9-0.7-1,0.6-2.7l0.2,0.3c0-0.1,0.1,0.1,0.2-0.4c0,0.2,0.2,0.2-0.1,0.6
		c0.6-0.3,1.4-0.8,1-2.2l-0.2,0.6l-0.1-0.2l-0.1,0.2c0.1-1,0.3-0.9-0.6,0.1c0,0,0.3-0.4-0.2-0.8c-0.1,0,0.1,0.1-0.2,0.3
		C60,5.6,57,5.6,53,2.1c-1,3,0.7,6.2-0.1,10.5c0.5-0.5,0.3-0.5,1.6,0.4c0.2,0.2-1.3-0.2-1.4,0.6c-0.2,0,0-0.2-0.3-0.6
		c-0.3,1-0.1,1.3,1,1.8c-0.1-0.2-0.3,0.3-0.8,0.4c-0.1-0.2,0.5,1.8-0.7,1.8c-0.2,0.2,0.5-0.8,0.2-1.9c-0.2,0.2-0.4,1.2-0.6,2.3
		c0.4,0.4,2.8,0.3,3,1.7c-0.5-0.6-1.1,0-2.2-0.6c0,0,0.1,0.1,0.2,0.4c-0.3,0.2-0.2-0.6-1-0.7c0.5,1.5-1.2,2.9-0.9,5.3
		c-2.7,7.1-10.8,17.5-9.1,27l-0.1-0.2c0.2,0.8-0.3,1.1-0.9,2.5l-0.2-0.2c0.3,3.1-5,1.7-1.3,10.7c-2.4,3.7,1.2,9.6,1.4,12.1
		c0.3,0.3-1.3,2.2,0.1,1.1c0,0.4,0.5,0.7,1,1.4c1.4,1.2,1,0.9,1.5-1.1c-0.1,0-0.1,0-0.2-0.2c0.8,0,1.1,0.1,1.8,1.2
		c-0.2-0.1,0-0.1-0.6-0.2h0.1C43,77.4,44.1,80.2,45,82c-0.4,0.2-2.6-1.8-1.6-2.4c-0.1-0.2,0.2-0.5-0.3-0.7c-1.9,2.3-0.9,5.1,1.7,7.8
		c-4.1,3.1,2.6,9,2.2,12.4c3.7,3-4.6,5.1,5.3,7.9c5.1,4,12.2,9,12.2,16.4c-0.5-0.2-0.2-0.9-0.3,0.6c4.3,0.5,9.1,1,14.6,1.6
		c-3.6,0.6,17.7,15.4,31.8,15.7c5.8,2,10.5-5.2,18.2-0.1c1.4,3.5,5.7,5.8,8.2,9.6c0.9,1.8,0,7,5.9,9.9c2.3,0.6,2.3,3.6,5.8,0.5
		c-0.2-0.6,0.6-1.6,1-2.8l0.2,0.1c1.3-2.5,4.7-1,7.7-0.6C157.9,157.9,158,158.4,158.4,158.3z"/>
	<path class="st0" d="M332.6,57.7c-0.3,0.1-0.3,0-1-0.1c-0.2-0.8-0.2,0.9-1,0.9C330.4,59.1,332.4,58.4,332.6,57.7z"/>
	<path class="st0" d="M334.9,58.1c-1.4-0.2-0.2,0.9,0.6-0.2c-0.2-0.4-1-0.8-0.4-0.2C335,57.8,335.2,58,334.9,58.1z"/>
	<polygon class="st0" points="314.9,66.3 314.8,66.2 314.8,66.1 314.8,66 314.7,66.1 314.7,66.4 314.5,66.7 314.5,67 314.5,67.1
		314.6,67.1 314.8,66.9 314.8,66.8 314.8,66.8 314.8,66.5 314.8,66.4 	"/>
	<polygon class="st0" points="313.5,69 313.7,68.9 314,68.8 314,68.5 314.2,68.4 314.4,68 314.4,67.9 314.2,67.6 313.6,67.9 	"/>
	<path class="st0" d="M322.5,64l0.2,0.2c-0.1,0,0.1,0.2-0.4,0.2c-0.6-0.6,0.1-1.3,1.1-2.5c-1.4,1.7-4.9,2.5-6.3,3.4
		c0-0.3-0.8-0.2-0.7,0.6c-0.4-0.6-0.3,0.9-0.8,0.3c-2.8,3.1,1.8,0.2-0.2,1.8c1-0.4,2.6-1.3,3.8-2.2c1.8-0.4,4.4-2.6-0.1,0.9
		c1.5-0.9,9.7-6.1,4.1-3.9C322.9,63.1,323,63.5,322.5,64z"/>
	<path class="st0" d="M61.2,3.2c0,0,0.1,0.2,0.3,0.5c-0.2,0,0,0.2-0.2,0.6C60.9,4.3,60.6,1.9,61.2,3.2z"/>
	<path class="st0" d="M61.9,4.6c0-0.3-0.5-0.5,0.2-1C62,3.9,62.6,4.7,61.9,4.6z"/>
	<path class="st0" d="M62.5,3.2c-0.2,0.1,0.1-0.2-0.3-0.6c0,0.1-0.1,0,0,0.6c-0.2,0.2,0-0.4-0.6-0.2c-0.1-0.2,0.2-0.3,0.6-0.7
		C62.4,2.4,63.3,2.8,62.5,3.2z"/>
	<path class="st0" d="M62.2,6.4c0.1-0.1-0.2,0.2,0.4,0.3c-0.7,1.4,2.6,3.8-0.3-0.6c-0.1-0.2,0.2,0.2,0.4-0.3
		c0.2,0.1,0.2,0.1,0.7,0.1c0.2-0.1-0.3-0.4-0.2-0.7C63.1,5,61.8,5.2,62.2,6.4z"/>
</g>
<g id="constellation">
	<g>
		<polyline class="st1" points="260.4,64.9 256.5,66 252.5,67 248.6,68 244.6,69 240.6,70 236.6,70.8 232.6,71.7 228.6,72.6
			224.5,73.4 220.5,74.2 216.4,75 212.4,75.7 208.3,76.4 204.2,77.2 200.1,77.8 196,78.4 191.9,79 187.8,79.6 183.6,80 179.5,80.6
			175.3,81 171.2,81.5 167,81.9 162.8,82.2 158.7,82.6 154.5,82.9 150.3,83.2 146.1,83.4 141.9,83.6 137.6,83.8 133.5,84
			129.2,84.1 125,84.2 120.8,84.3 116.5,84.3 112.3,84.3 108,84.2 103.8,84.1 99.5,84 95.2,83.9 91,83.7 86.8,83.6 82.4,83.3
			78.2,83.1 73.9,82.8 69.6,82.4 65.3,82 61.1,81.6 56.8,81.2 52.5,80.8 48.2,80.3 44,79.8 		"/>
		<polyline class="st1" points="313.4,39.9 309.6,41.5 305.9,43 302.1,44.5 298.4,46 294.5,47.5 290.7,48.9 286.8,50.4 283,51.7
			279.2,53.1 275.2,54.4 271.3,55.7 267.4,56.9 263.5,58.2 259.6,59.4 255.6,60.6 251.6,61.7 247.6,62.8 243.6,64 239.6,65
			235.6,66 231.5,67.1 227.5,68 223.4,69 219.3,69.9 215.2,70.8 211.1,71.6 207,72.4 202.8,73.2 198.7,74 194.5,74.8 190.4,75.4
			186.2,76.1 182,76.8 177.8,77.3 173.6,77.9 169.4,78.4 165.2,78.9 160.9,79.4 156.7,79.9 152.4,80.3 148.2,80.7 143.9,81
			139.6,81.3 135.3,81.6 131,81.9 126.8,82 122.4,82.3 118.1,82.4 113.8,82.5 109.5,82.6 105.2,82.6 100.8,82.7 96.4,82.6
			92.1,82.6 87.7,82.5 83.4,82.4 79,82.2 74.6,82 70.3,81.8 65.9,81.6 61.5,81.2 57.1,80.9 52.7,80.6 48.4,80.2 44,79.8 		"/>
		<polyline class="st1" points="293.7,91.6 296.8,88.2 300,84.8 303.1,81.3 306,77.9 309.1,74.4 		"/>
		<polyline class="st1" points="293.2,107.2 295.6,102.8 297.9,98.4 300.2,94 		"/>
		<polyline class="st1" points="293.2,107.2 289.3,105 285.5,102.8 281.6,100.5 277.9,98.3 274.1,96 270.4,93.7 266.8,91.4
			263.1,89 259.5,86.7 255.9,84.3 252.3,81.9 248.8,79.4 245.2,77 241.8,74.5 238.4,72 234.9,69.5 231.6,66.9 228.2,64.4
			224.8,61.9 221.6,59.2 218.4,56.7 215.1,54 211.9,51.4 208.8,48.8 		"/>
		<polyline class="st1" points="320.6,58.7 318.7,62.4 316.8,66.2 314.8,70 312.8,73.7 310.7,77.4 308.6,81.2 306.5,84.9
			304.4,88.6 302.2,92.4 300,96 297.8,99.8 295.5,103.5 293.2,107.2 		"/>
		<polyline class="st1" points="283.7,150.7 285.2,146.7 286.8,142.7 288.3,138.8 289.8,134.8 291.2,130.8 292.7,126.8 294.1,122.7
			295.5,118.7 296.8,114.7 298.2,110.7 299.5,106.7 300.8,102.6 302,98.6 303.2,94.6 304.5,90.5 305.6,86.5 306.8,82.5 308,78.4
			309.1,74.4 		"/>
		<polyline class="st1" points="228.8,119.9 224.5,119.6 220.3,119.1 216,118.7 211.7,118.2 207.6,117.7 203.3,117.2 199.1,116.6
			194.8,116 190.7,115.3 186.4,114.7 182.3,114 178,113.3 173.9,112.5 169.7,111.8 165.6,111 161.5,110.1 157.3,109.2 153.2,108.4
			149.1,107.5 145,106.5 140.9,105.6 136.8,104.5 132.8,103.5 128.7,102.4 124.7,101.3 120.6,100.2 116.6,99.1 112.6,97.9
			108.6,96.7 104.6,95.4 100.7,94.2 96.7,92.9 92.8,91.6 88.8,90.2 84.9,88.8 81,87.5 77.2,86 73.2,84.6 69.4,83.2 65.6,81.6
			61.7,80.1 57.9,78.5 54.1,76.9 50.4,75.3 		"/>
		<polyline class="st1" points="208.8,48.8 212.7,50.2 216.7,51.6 220.7,52.9 224.7,54.3 228.7,55.6 232.8,56.8 236.8,58.1
			240.9,59.3 245.1,60.5 249.2,61.6 253.3,62.8 257.5,63.9 261.7,64.9 266,66 270.1,66.9 274.4,68 278.7,68.8 283,69.7 287.2,70.6
			291.6,71.5 296,72.3 300.3,73 304.7,73.7 309.1,74.4 		"/>
		<polyline class="st1" points="208.8,48.8 211.9,51.4 215.1,54 218.4,56.7 221.6,59.2 224.8,61.9 228.2,64.4 231.6,66.9
			234.9,69.5 238.4,72 241.8,74.5 245.2,77 248.8,79.4 252.3,81.9 255.9,84.3 259.5,86.7 263.1,89 266.8,91.4 270.4,93.7 274.1,96
			277.9,98.3 281.6,100.5 285.5,102.8 289.3,105 293.2,107.2 		"/>
		<polyline class="st1" points="247.6,111.6 250.5,114.8 253.4,118.2 256.3,121.5 259.2,124.8 262.2,128.1 265.2,131.4 268.2,134.7
			271.2,137.9 274.3,141.1 277.4,144.3 280.5,147.5 283.7,150.7 		"/>
		<polyline class="st1" points="319.9,61.8 317.1,65.2 314.3,68.5 311.5,71.9 308.6,75.2 305.7,78.5 302.8,81.8 299.8,85.1
			296.8,88.4 293.7,91.6 		"/>
		<polyline class="st1" points="230.4,157.6 229.4,153.4 228.4,149.2 227.6,145 226.6,140.8 225.6,136.6 224.8,132.4 223.9,128.3
			223,124 222.1,119.9 221.2,115.6 220.4,111.5 219.6,107.2 218.7,103.1 217.9,98.9 217.1,94.7 216.3,90.5 215.5,86.3 214.7,82.1
			213.9,78 213.2,73.7 212.4,69.6 211.6,65.4 210.9,61.2 210.2,57.1 209.5,52.9 208.8,48.8 		"/>
		<polyline class="st1" points="309.1,74.4 304.7,73.7 300.3,73 296,72.3 291.6,71.5 287.2,70.6 283,69.7 278.7,68.8 274.4,68
			270.1,66.9 266,66 261.7,64.9 257.5,63.9 253.3,62.8 249.2,61.6 245.1,60.5 240.9,59.3 236.8,58.1 232.8,56.8 228.7,55.6
			224.7,54.3 220.7,52.9 216.7,51.6 212.7,50.2 208.8,48.8 		"/>
		<polyline class="st1" points="309.1,74.4 308,78.4 306.8,82.5 305.6,86.5 304.5,90.5 303.2,94.6 302,98.6 300.8,102.6
			299.5,106.7 298.2,110.7 296.8,114.7 295.5,118.7 294.1,122.7 292.7,126.8 291.2,130.8 289.8,134.8 288.3,138.8 286.8,142.7
			285.2,146.7 283.7,150.7 		"/>
		<polyline class="st1" points="309.1,74.4 305,75.5 300.9,76.5 296.8,77.5 292.8,78.4 288.7,79.4 284.6,80.3 280.4,81.2 276.4,82
			272.2,82.8 268.1,83.6 264,84.3 259.8,85 255.6,85.7 251.5,86.4 247.3,87 243.2,87.6 238.9,88.1 234.8,88.7 230.5,89.2
			226.4,89.6 222.1,90 218,90.4 213.7,90.8 209.5,91.2 205.3,91.5 201.1,91.8 196.8,92 192.6,92.3 188.4,92.4 184.1,92.6
			179.9,92.7 175.6,92.8 171.4,92.8 167.1,92.8 162.8,92.8 158.6,92.8 154.4,92.8 150.1,92.7 145.8,92.5 141.6,92.4 137.3,92.2
			133.1,92 128.8,91.7 124.5,91.4 120.3,91.1 116,90.7 111.7,90.4 107.5,89.9 103.2,89.5 99,89 94.8,88.4 90.4,87.9 86.2,87.3
			82,86.7 77.7,86 73.5,85.4 69.2,84.7 65,84 60.8,83.2 56.6,82.4 52.4,81.6 48.1,80.7 44,79.8 		"/>
		<polyline class="st1" points="282.9,75.6 287.2,75.5 291.6,75.3 296,75.2 300.4,75 304.7,74.8 309.1,74.4 		"/>
		<polyline class="st1" points="57.2,25.1 61.2,26.4 65.3,27.6 69.4,28.8 73.5,29.9 77.6,31 81.7,32.1 85.9,33.2 90,34.2 94.2,35.2
			98.4,36.1 102.5,37 106.7,37.9 110.9,38.8 115.1,39.6 119.3,40.4 123.5,41.1 127.7,41.8 132,42.5 136.1,43.2 140.4,43.7
			144.6,44.3 148.9,44.8 153.2,45.4 157.4,45.8 161.6,46.3 165.9,46.7 170.2,47 174.4,47.4 178.8,47.6 183,48 187.3,48.1
			191.6,48.4 195.9,48.5 200.1,48.6 204.4,48.7 208.8,48.8 		"/>
		<polyline class="st1" points="300.2,94 297.9,98.4 295.6,102.8 293.2,107.2 		"/>
		<line class="st1" x1="50.4" y1="75.3" x2="44" y2="79.8"/>
		<polyline class="st1" points="226.5,94.2 222.4,94.5 218.2,94.8 214,95.1 209.9,95.3 205.7,95.6 201.6,95.7 197.4,95.9 193.2,96
			189.1,96 184.9,96.1 180.8,96.1 176.6,96.1 172.4,96 168.3,96 164.1,95.9 159.9,95.8 155.7,95.6 151.6,95.4 147.4,95.2
			143.2,94.9 139.1,94.7 134.9,94.4 130.7,94 126.5,93.6 122.4,93.2 118.2,92.8 114,92.3 109.9,91.8 105.8,91.3 101.6,90.8
			97.5,90.1 93.3,89.6 89.2,88.9 85,88.2 80.9,87.5 76.8,86.8 72.7,86 68.5,85.2 64.4,84.4 60.3,83.5 56.2,82.6 52.1,81.7 48,80.8
			44,79.8 		"/>
		<polyline class="st1" points="44,79.8 48.1,80.7 52.4,81.6 56.6,82.4 60.8,83.2 65,84 69.2,84.7 73.5,85.4 77.7,86 82,86.7
			86.2,87.3 90.4,87.9 94.8,88.4 99,89 103.2,89.5 107.5,89.9 111.7,90.4 116,90.7 120.3,91.1 124.5,91.4 128.8,91.7 133.1,92
			137.3,92.2 141.6,92.4 145.8,92.5 150.1,92.7 154.4,92.8 158.6,92.8 162.8,92.8 167.1,92.8 171.4,92.8 175.6,92.8 179.9,92.7
			184.1,92.6 188.4,92.4 192.6,92.3 196.8,92 201.1,91.8 205.3,91.5 209.5,91.2 213.7,90.8 218,90.4 222.1,90 226.4,89.6
			230.5,89.2 234.8,88.7 238.9,88.1 243.2,87.6 247.3,87 251.5,86.4 255.6,85.7 259.8,85 264,84.3 268.1,83.6 272.2,82.8 276.4,82
			280.4,81.2 284.6,80.3 288.7,79.4 292.8,78.4 296.8,77.5 300.9,76.5 305,75.5 309.1,74.4 		"/>
		<text transform="matrix(0.9868 0 0 1 259.0938 66.1546)" class="st2 st3 st4">●</text>
		<text transform="matrix(1 0 0 1 259.4785 65.8016)" class="st5 st3 st6">●</text>
	</g>
	<ellipse class="st2" cx="43.5" cy="80.3" rx="2.9" ry="2.9"/>
	<ellipse class="st2" cx="50.3" cy="75" rx="2.9" ry="2.9"/>
	<ellipse class="st2" cx="57.3" cy="25" rx="2.9" ry="2.9"/>
	<ellipse class="st2" cx="52.2" cy="34.9" rx="2.9" ry="2.9"/>
	<ellipse class="st2" cx="208.6" cy="48.8" rx="2.9" ry="2.9"/>
	<ellipse class="st2" cx="226.9" cy="94.3" rx="2.9" ry="2.9"/>
	<ellipse class="st2" cx="228.9" cy="120" rx="2.9" ry="2.9"/>
	<ellipse class="st2" cx="247.8" cy="111.1" rx="2.9" ry="2.9"/>
	<ellipse class="st2" cx="283.2" cy="150.1" rx="2.9" ry="2.9"/>
	<ellipse class="st2" cx="230" cy="158.4" rx="2.9" ry="2.9"/>
	<ellipse class="st2" cx="293.2" cy="107.2" rx="2.9" ry="2.9"/>
	<ellipse class="st2" cx="300" cy="94.3" rx="2.9" ry="2.9"/>
	<ellipse class="st2" cx="293.8" cy="91.8" rx="2.9" ry="2.9"/>
	<ellipse class="st2" cx="319.5" cy="62.9" rx="2.9" ry="2.9"/>
	<ellipse class="st2" cx="320.3" cy="58.3" rx="2.9" ry="2.9"/>
	<ellipse class="st2" cx="308.6" cy="74.6" rx="2.9" ry="2.9"/>
	<ellipse class="st2" cx="313.3" cy="40.4" rx="2.9" ry="2.9"/>
	<ellipse class="st2" cx="282.4" cy="75.6" rx="2.9" ry="2.9"/>
</g>
<text transform="matrix(1 0 0 1 67.222 242.0179)" class="st2 st7 st8">Racial Justice</text>
</svg>
