<?xml version="1.0" encoding="utf-8"?>
<!-- Generator: Adobe Illustrator 23.1.1, SVG Export Plug-In . SVG Version: 6.00 Build 0)  -->
<svg version="1.1" id="Layer_1" xmlns="http://www.w3.org/2000/svg" xmlns:xlink="http://www.w3.org/1999/xlink" x="0px" y="0px"
	 viewBox="0 0 645.1 193.7" style="enable-background:new 0 0 645.1 193.7;" xml:space="preserve">
<style type="text/css">
	.st0{fill:#707589;}

		.st1{opacity:0.549;fill:none;stroke:#FFFFFF;stroke-width:0.8;stroke-linejoin:round;stroke-miterlimit:10;enable-background:new    ;}
	.st2{fill:none;stroke:#FFFFFF;stroke-width:0.8;stroke-linejoin:round;stroke-miterlimit:10;}

		.st3{opacity:0.102;fill:none;stroke:#FFFFFF;stroke-width:0.8;stroke-linejoin:round;stroke-miterlimit:10;enable-background:new    ;}
	.st4{fill:#FFFFFF;}
	.st5{enable-background:new    ;}
	.st6{font-family:'Roboto';}
	.st7{font-size:60px;}
</style>
<g id="map">
	<path class="st0" d="M32.4,172.7c0.6,1.1,0.5,1.8-0.9,2.2c-0.9,0.3-1.7,1-2.5,1.5c-0.5,0.3-1,0.5-1.7,0.8c0.2-2.2,0-4.2,2-5.4
		c-1.3,0.1-1.8,0.6-2.6,2.2c-0.6,1-1.4,2-2.1,3.2c0.2,0.2,0.6,0.4,1.1,0.9c-3.4,3.6-7,6.7-11.4,9.1c-0.5-0.6-1.2-0.4-2.2,0.2
		c-1.2,0.7-2.8,1-4.2,1.4c-0.1-0.2-0.2-0.4-0.3-0.6c0.6-0.4,1.4-0.7,2-1.1c0.6-0.3,1.4-0.6,2.1-1c0.5-0.2,0.8-0.8,1.3-0.8
		c2.3-0.2,3.8-1.8,5.3-3.3c0.8-0.9,1.1-2.1,1.9-3.6c-1.2,0.2-1.8,0.2-2.8,0.3c-1-1.1-1-1.6-3.7-0.5c0-1.3,0-2.5,0-3.8
		c-2.7,0.5-3.4-0.2-3.7-2.9c-0.2-1.1-1.2-2.2-0.2-3.4c0.6-0.7,1-1.7,1.8-2.2c0.4-0.3,1.3-0.2,1.9-0.1c0.9-0.4,2.1-0.6,2.6-1.2
		c0.5-0.6,0.2-1.8,0.2-2.5c-1.3,0-2.7,0-4.2,0c-1.1,0-1.8-0.5-2-1.8c-0.1-0.7-0.6-1.4-1.1-2.2c1.5-0.6,3-1.2,4.8-1.9
		c0.2,1.8,1,2.2,2.6,1.7c-1.3-1.8-2.6-3.6-3.7-5.4c-0.2-0.4-0.6-1-0.4-1.4c0.2-0.4,0.9-0.6,1.4-0.9c0.6-0.2,1.5-0.2,1.7-0.6
		c0.7-1.8,2.1-2.6,3.6-3.3c1-0.5,2.2-0.9,3.7-1.4c1,0.5,2.4,1.5,3.9,1.8c2.2,0.5,4.6,0.7,7,0.6c1.8-0.1,3.2,0.4,3.6,2.2
		c1.5,7.5,3,15,4.6,22.8c0.7-0.2,1.4-0.4,1.9-0.5c1.2,1,2.3,1.8,3.4,2.6c0.7-0.9,1.4-2.3,2-2.3c0.9,0,1.8,1,2.6,1.7
		c0.9,0.6,1.8,1.3,2.5,2.1c1.3,1.4,2.6,2.6,4.6,2.9c1.3,0.2,1.8,2.2,1,3.8c-0.6,0.2-2-1.6-2.1,0.6c0,0-1.4,0.3-1.8,0
		c-1.1-1-2-2.2-3-3.5c-0.2,0.5-0.2,0.7-0.3,1.2c-1-1-1.7-2.1-2.6-2.8c-1.7-1.3-3.4-2.5-5.2-3.6c-2-1.2-4.2-1.1-6.6-1
		c-1.2,0.1-2.5-0.8-3.8-1.3c-0.6-0.2-1.2-0.2-1.8-0.4C32.4,172.4,32.4,172.5,32.4,172.7z"/>
	<path class="st0" d="M26.5,178.9c0.2,0.2,0.4,0.2,0.5,0.4c0.6,1.1-1.1,4-2.3,4.1c-0.3,0-0.9-0.3-1-0.6c-0.2-0.3-0.2-1,0-1.3
		c0.7-0.8,1.6-1.5,2.4-2.2C26.1,179.1,26.3,179.1,26.5,178.9z"/>
	<path class="st0" d="M7.3,164.1c-1.5,0.5-3.4-0.6-3.9-2.2C4.8,162.8,5.9,163.3,7.3,164.1z"/>
	<path class="st0" d="M6.9,172.4c0.7,0.2,1.4,0.2,2.2,0.4c-0.1,0.3-0.2,0.7-0.3,1c-0.6-0.2-1.4-0.4-2-0.6
		C6.8,173,6.9,172.7,6.9,172.4z"/>
	<path class="st0" d="M93.8,189.3c-0.8-0.2-1.8-0.6-1.4-2.3c0.1-0.4-0.1-0.9-0.3-1.3c-0.6-1.2-1-2.2,0.2-3.4
		c0.5-0.5,0.2-1.6,0.4-2.6c3.1,0.9,5.8,2.3,7.3,5.8C98.3,186.6,96.3,187.8,93.8,189.3z"/>
	<path class="st0" d="M89.3,177.6c-0.2-0.2-0.5-0.3-0.7-0.6c-0.4-0.4-0.8-0.9-1.2-1.4c-0.2-0.2-0.2-0.6-0.3-1c0.3-0.1,0.7-0.2,1-0.2
		c0.9,0.2,1.8,0.4,2.6,0.7c0.4,0.2,0.6,0.7,1,1c-0.4,0.3-0.8,0.6-1.2,0.9C90.2,177.3,89.9,177.4,89.3,177.6z"/>
	<path class="st0" d="M69.4,166.4c-0.8,0.6-1.4,1.3-1.8,1.2c-0.6-0.1-1.3-0.7-1.9-1.2c0.8-0.5,1.5-1,2.4-1.4
		C68.2,165.1,68.8,165.8,69.4,166.4z"/>
	<path class="st0" d="M78.5,169c0.1,1,0.3,1.8,0.2,2.6c0,0.2-1,0.6-1.2,0.5c-0.6-0.5-1-1.1-1.6-1.8C76.8,169.8,77.5,169.6,78.5,169z
		"/>
	<path class="st0" d="M120.4,161c0.4-0.3-0.2,1,0.6,0.7c-0.1,0.1-0.1,1.1,0.2,0.2c0.8,1.5,3.1,2.8,4,5.6c0.2,4.4,6.2,7.7,6.2,11.8
		c1.3,4.8,4.8,9.5,11,9.4c0.8,0.1,1.4,1,2.9,1h-0.1c0.8,0.6,1.8-1.5,1.3-0.5c-0.2-0.1-0.1-0.3-0.5,0.1c-0.3-1.9-2.1-4.2-1.4-9.1
		c-1,1-3.1-3.2-0.7-0.4l-0.1-0.2c0.5-0.2,1.4-1,0.4,0.2c0.7,0.6,1.6-1.5,1.8-2.8c-0.6,0.7-0.4-0.2-0.7-1c-0.1,0.1-0.6,0.3-1-0.3
		c0.9-0.5,4.2,1.9,2-1.4c0.1,0.1,0.8-0.3,0.3-0.6c1,0.9,2.2-1.8,1.8,0.3c1.4,0,0.2-2.4,1-1.8c-1.8-0.9,4.5,0.8,1.4-0.6
		c0.1-0.2-0.2-0.1,0.5-0.4c-0.3-0.6-1,0.2-1-1.3c0.1,0.2,0.5-0.4,0.6,0.4l0.2-0.1c0-0.2,0.2,1,0.4,0.2c-0.1-0.1,0.3,0.3-0.2,0.6
		c0.2,0.2-0.1,0.1,0.6-0.2c0.2,0.2-0.6-0.6-0.1-0.8c-0.1,0.2,0.5,1.3,0.8,0c0,0.1,0,0,0.1,0.3c0.1,0,0.1-0.1,0.4-0.5
		c0,0.2,0-0.1-0.2,0.9c-0.1-0.1,0.9,0.2-0.1,0.2c2.8-0.4,4.2-1.8-0.8,1.4c1-0.6,5.4-2.2,7.8-4.9c-1.6-0.4,2.4,0,1-4.7l-0.1,0.1
		c4.6-1.1-0.7,0.6,3.1,1.4c-4.2,2.5,2.6-1.4,6.1-1.8c1.8-1.2,9,3.7,9.1,0.4c1.2-4.4,5.8,5.8,10,3c-0.2-2.6,3.6,4.3,3.3-2.1
		c1.2-0.2,1,1.6,2.4,1.1c1.9,1.4,3,3.2,3.8,1c0.5-0.9-3.4-0.7-3.7-3.1c1.2-1,2.6-1.8,2.6-3.5c0.3-1.4-5.8,3.2-3.4,0.5
		c0-0.2,0.6-1.4-0.2-0.6c-0.1-0.1-0.1,0-0.1-0.3c-1.4,2.1-8.1-0.2-2-1.1c1,0.6,3.1,1.9,4.5-0.1c2-1.9,8.1,1.7,8.2-3.9
		c2.3,2.2-1.4,6.2,3.6,2.7c-1,1.2,2.4-0.2,1.5-1.6c0.7,0.8,2.9-0.2,0.2,1.5c1.3-0.9,10.1-1.7,4.2-0.8c0.5-0.2,5.6,2.3,4.7,0.9
		c-0.8,0.6-0.6-0.8,0.6-0.1c-0.1,0.2,0.1,0.2-0.2,0.5c-0.6,0.6,1.6-0.3,2.7,3.3c-0.4,0.2-0.4,0-0.5-1.3c-1.2,2.3,2.2,1,3.4,0.4
		c-1,0.8,4.6-1.7,2.7-1.6c0.2-0.2,0.4-0.5,0.9-1c0.8-1.6,11.4,6.3,11.6,9c0.2,1.6-1.9,7.1,0.9,6.9c-1.8-4.6,1,0,0.9-1.3
		c2-1.1-1.8,3.4-0.3,3.5c0.9,0.8,1.4,4.2,3.4,4.1c-1.4-1.3,0.9-1.4,0.3-0.9c0.5,2.5,0.6,2.5,3.7,7c0.1-0.9,9,5.9,3.9,4
		c0.1,2.3,3.6-0.1,5-0.1c0.6-1.4,0.2-3.1,1.2-4.8c1.3-9.4-10.4-23.5-13.8-33.8c0.1,0.3,1-4.8,0.2-2.4c-1.3-1.5,0.8,0.1-0.2-2.2
		c0.6,0,0.5-0.7,1.1-0.7c0.6-0.7-1.1-1.4,0.4-1.3c0.2-0.5,0.1-0.8-0.4-1.2c1.1-1.5,3.1-3,1.6-5.5c1.8,1.7,1.3,0.3,2.2-0.7v0.1
		c0.2-0.3,1.4,0.2,1.3-1c-0.3,0.6,6.1-4,5-6.5c0.6,1.8,0.9-3.3,3.9-4.2c0.6-1.1,3.4,0.3,3.1-2.2c0.2,2.6,2.5-6.7,3-4.6
		c-0.8,1.1,1.9,0.2,0.9-1.1c0.2,0.9,2.7,0,2.4-0.3c0.2-0.4,0.2-0.4,0.8,0.1c0.2-0.2,0.6-0.1,1.6-1.6c0.2-0.2-1.2-1.2-1.1-0.4
		c-1.2-0.3,0.5,0.7-1,0.3c0.1,0,0.5,0.5,0,0.4c-0.3-1-0.2,1.1-2.7-0.9c-0.3-1.7,2.6,3,2.9-1.7c1.4-0.3-1.1-0.8-1.7-0.6
		c-2.8-1.5,1,0.4,1.1-1c-1-0.3,0.2-0.5,0.8-0.6c-1.1,1.5,0.2,0.7,1.3,1.3c1-0.2,1.4-0.6,2-2.3c0.9,0.9,0.4-0.6,0.8-0.8
		c-0.4-0.6,0.2-1.2-1.2-1.8c0.2,0.2-0.3,0.1-0.1,0.5c-1.2-0.5,0.5,2.9-1.3,1.8c0.7,0.2,0.5-1.2,0.2-1.8c-0.6-1.5-4.2,3.8-4.5-2.2
		c0.4-0.1,1,3.9,1.9,1.6c0.9-0.2,0.5-1.1,1.6-0.6c0.6-0.5,0.6-0.4-0.3-1.1c0.6-0.3,1.9,1.3,1.1-0.3c0.6-0.1,0.5,0.9,1.3,1.3
		c0.1-1-3.6-4.1-1.4-2.8c0.1,0-0.8-2.1,0.2-0.5c-1-0.5,5.1,8.2,2.2,3.6c-1.5-1.1-2.2-8.5-5.9-5.2c-0.1-1.5-4.1-1.7-2.8-2.7
		c1,0.4,2.2,2,3.7,1.5c0-0.1,0.2-0.8-0.4-0.5v-0.1l0,0c0.5-0.6-3.4-1.2-3-2.6c2.5,3,1.5-0.2,3.1,0.9c-0.2-2.1-1.7-0.9-4.7-4.4
		c3.1,3.4,6.6,1.4,1.5-0.9c-0.9-0.2-2.1-0.2-2.7-1.6c-0.4-1.2,1.1,0.7,3.6,1.1c1.9,0.8,0.3-0.7-1.5-2.2c3.4,1.6,0.2,0.6,0.2-3.8
		c0.8,0,0.2-0.9-1-1.8c1-0.1,0.7,0.1,1.4-0.7c-0.5-0.8,0.7,0,0.6-0.8c1-0.1-0.2-1.2,1.1-1.5c0.1,0-0.1,0.3,0,0.8
		c0.5-1,1,0.5-0.7,1.3c-0.6,1.9,1.4,2.2-0.2,4.4c0.6-0.4,0.6,0.6,1.3-0.2c0.7,2.1-0.4-0.1-0.6,1.5c1.6-0.4-1.9,0.3,1.6,2
		c0-1.8,0.3,0.9,0.7-0.9c0.4,0.3,0.3,3.1,1.4,2.6c1-0.7-0.2,1.4-0.3,2.6c-0.6,0.5-0.4,6.2,0.6,1.7c0.4-5,4.3-4.6,1.6-9.5
		c0,0,1-0.2,0.2-0.5c0,0,0.2,0,0.2-0.3c2.3,1.5-5.1-4.7-3.6-6.6c-0.2,3.3,4.6,1.8,4.4,4.7c1.4-2.8,3.1-5.1,3-8.9
		c0.2,0.2,0.2,0.7,0.4,1.8c-0.1-1,0.5-3.5-0.6-5c0,0.2-0.1,0.1,0.1,0.5c-0.2-0.2-1,0.2-1.6-0.2c1.4-0.5,0.3-1.9,1.4-3.4l0.5,0.1
		c-0.1-0.1-0.1,0-0.2-0.2l0.6,0.2c-0.4-0.6,0.6-0.6,0.5-1.7c1,0.2,3.2-2.9,3.8-2.5c0.6-0.6,2.6-0.2,2.7-1.2c0.9,0.5,1-0.2,2.7-0.7
		v0.2c0.4-0.2,0.9-0.3,1.8-1.3c0.1,0.9,0.5-3.8,0.7-0.5c0.6,1,0.5-1.2,0.8-0.2c0.1,0,0.2-0.3,0.5-0.7c-0.1,0.1,0.6,0.6,0.5,0
		c0.4,0.3,1.6-4.2,1.8-0.6c1.8-0.4,6.1-4,1.4-4c3.8,0.1-0.9,4.7-2,0.6c-0.3-0.6-0.8-1.2-2-1.6c0.3,1.1-1.5,0-0.7-0.5
		c2.2-4.5,0.3,1,0.2-5.4c1.4-0.5,0.6-5.8,2.6-6.2c0.9-1.1-0.2,2,1.7-1.3c1.2,0.9,0.1-0.7,1.8-1c0,2.8,1.3-7.3,1.4-3.5
		c0.2,0.2,0.3-0.7,0.6,0.1c0.1,0.1-0.8-0.2-0.4,0.3c-0.7,0.1,0.7,0.5,0.9,0.3c0.5,0.2,0.6-0.1,0.1-0.9c0.2-0.2,0.4-0.2,0.5-0.9
		c0.1,0.4,0.7,0.9,0.7-0.3c0.5,0.3,1-0.6,1.5,0.9c0.2-0.2,0.2-0.5,0.2-1.2c0.3,0.6,0.7,0.2,0.6-0.7c0.3-0.2,1.6,0.6,1.3-0.9
		c0,0.1,0.1-0.1,0.4,0.1c-0.1,0.2,0.2-0.9,0.2-0.1c0.4,0.2,0-1.6,0.6-0.5c0.5,0,1-0.8,1.1-1.8c-2,0.5,0.6-1.6-2-2.2
		c-1.3,1.6-0.6-2.5-3.1-2.7c-2.5-1.1-0.3-9-5.4-10.7c-5.9,5.5-4.6-7.2-7.8,8.8c-1.3,4.2,0.6,8.1-4.8,9.9c1.1,6.1-20.6-0.7-22.4,13.9
		l-0.2,0.3c0,1.6,1.8,2.5-3,5.9c-0.2-0.2-2.2-0.3-3,0.7c-1-1-9.9-0.9-7.3,3.3c2.1,0.6-1.4,4.2-5.2,6.9c-0.1,0,0.2-0.1,0.1-0.3
		c-7.4,4.5-7.8,8.3-18,6.1c0.2,0.2,3.1-10.3,3.9-7c1-2.4-0.6-17.4-6.7-6.6c-3.8-2.3,1.9-1.5,1.2-10.7c-8.3-7-9-5.1-11.9,3.1
		c-0.5-0.6,0.1-2,0.1-3.1c-2.2,2.2-4,5.3-4,9.5c-1,4.4,4.7,6.5,0.4,14.6c-7.7,10.1-9.4-13.6-4.6-22.4c0.9-0.4,0.5-3.2-0.2-0.7
		c-0.6-0.1-1,1.3-1.1,2.5c-1.1-1-1.4,1.4-3.2,2.6c-0.8,0.8,5.4-13,4.8-8.9c4-3.8-0.6,2.2,3.1-0.9c1.3-3.2,8.2-1.8,12.5-2.6
		c-2.9-5.4-7.1-0.5-5.9-5c-5.3,0.3-10.3,5.8-14.2,0.8c-1.8-0.6-2.1-1.5-3.8,0.8c-0.2-0.3,0.2-1,0-1.8c1-0.4,1.2-2.6,3.2-3.1
		c-3.5-1.4-9.9,8.1-15.8,6.6c2.8-5.5-3,0.9-6.1-0.8c1.4-1.8,7.7-7.5,13-9.6c-6.2-1-11.4,0.2-16.2-2.6c1-2.7-6.2,1.2-9.9-2.6
		c-0.3-1.1,0.1-4.1-2.3-3.8C122,28.2,68.5,13.8,25.4,4v0.2c-1,0.2,0.7,1.7,0.6,2c0,0.5,0,2.2-1,1.8c0.2-0.9-1.1,0.3,0.1,0.2
		c0.8,0.8-0.2,2.3,1,3.1c-0.6,0.3-1.1,1.2-1.8,2.2c0.2,0.6-0.1,1.8-0.7,2.9c0,0-0.2-0.1-0.5-0.6c-0.1,0.2-1.2,2-1.8,0.6l0.2-0.3
		c-0.1,0.1,0.2-0.2-0.3-0.2c-0.1,0.2,0,0.1-0.2,0.7c-0.4,0.2,0.3-0.6-0.5-0.5c0.1,0,0,0,0.5-0.4c-0.2-0.1-0.1-0.2-0.7,0.2
		c0,0-0.1-0.2,0.5-0.5l-0.4-0.2c0,0.2,0-0.4,0.4-0.2l-0.2,0.2c0.2,0.1,1-0.2,1.4-0.9c0.2,1-1,2,1,0.2c0,0.2-0.8,0.6,0.1,1
		c-0.2-1,1.8-1.3,0.1-2.2c0-0.1-0.2-0.1,0-0.4c0.6,0.6,0.2,0.1,0.5-0.7c0-0.2,0.1,0.7,0.5,0c0.2,0.6,0.8-0.6,0-1.4
		c-0.2,0.1,0,0.2-0.2,0.9c0.6-0.5-5.9,2.8-2.1,2.3c-3,0.9-0.7-1,0.6-2.7l0.2,0.3c0-0.1,0.1,0.1,0.2-0.4c0,0.2,0.2,0.2-0.1,0.6
		c0.6-0.3,1.4-0.8,1-2.2l-0.2,0.6L23.5,10l-0.2,0.2c0.1-1,0.3-0.9-0.6,0.1c0,0,0.3-0.4-0.2-0.8c-0.1,0,0.1,0.1-0.2,0.3
		c-0.5-1.4-3.5-1.3-7.5-4.8c-1,3,0.7,6.2-0.1,10.5c0.5-0.5,0.3-0.5,1.6,0.4c0.2,0.2-1.3-0.2-1.4,0.6c-0.2,0,0-0.2-0.3-0.6
		c-0.3,1-0.1,1.3,1,1.8c-0.1-0.2-0.3,0.3-0.8,0.4c-0.1-0.2,0.5,1.8-0.7,1.8c-0.2,0.2,0.5-0.8,0.2-1.9c-0.2,0.2-0.4,1.2-0.6,2.3
		c0.4,0.4,2.8,0.3,3,1.7c-0.5-0.6-1.1,0-2.2-0.6c0,0,0.1,0.1,0.2,0.4c-0.3,0.2-0.2-0.6-1-0.7c0.5,1.5-1.2,2.9-0.9,5.3
		c-2.5,7-10.6,17.4-8.9,26.9l-0.2-0.1c0.2,0.8-0.3,1.1-0.9,2.5l-0.2-0.2c0.3,3.1-5,1.7-1.3,10.7c-2.4,3.7,1.2,9.6,1.4,12.1
		c0.3,0.3-1.3,2.2,0.1,1.1c0,0.4,0.5,0.7,1,1.4c1.4,1.2,1,0.9,1.5-1.1c-0.1,0-0.1,0-0.2-0.2c0.8,0,1.1,0.1,1.8,1.2
		c-0.2-0.1,0-0.1-0.6-0.2h0.1c-1.7-0.1-0.6,2.7,0.3,4.6c-0.4,0.2-2.6-1.8-1.6-2.4C5,82.5,5.3,82.2,4.8,82c-1.9,2.3-0.9,5.1,1.7,7.8
		c-4.1,3.1,2.6,9,2.2,12.4c3.7,3-4.6,5.1,5.3,7.9c5.1,4,12.2,9,12.2,16.4c-0.5-0.2-0.2-0.9-0.3,0.6c4.3,0.5,9.1,1,14.6,1.6
		c-3.6,0.6,17.7,15.4,31.8,15.7c5.8,2,10.5-5.2,18.2-0.1c1.4,3.5,5.7,5.8,8.2,9.6c0.9,1.8,0,7,5.9,9.9c2.3,0.6,2.3,3.6,5.8,0.5
		c-0.2-0.6,0.6-1.6,1-2.8l0.2,0.1c1.3-2.5,4.7-1,7.7-0.6C119.9,160.6,120,161.2,120.4,161z"/>
	<path class="st0" d="M294.6,60.4c-0.3,0.1-0.3,0-1-0.1c-0.2-0.8-0.2,0.9-1,0.9C292.4,61.8,294.4,61.2,294.6,60.4z"/>
	<path class="st0" d="M296.9,60.8c-1.4-0.2-0.2,0.9,0.6-0.2c-0.2-0.4-1-0.8-0.4-0.2C297,60.5,297.2,60.7,296.9,60.8z"/>
	<polygon class="st0" points="276.8,69 276.8,68.9 276.8,68.8 276.8,68.8 276.7,68.8 276.6,69.2 276.5,69.4 276.4,69.7 276.5,69.8
		276.6,69.8 276.8,69.6 276.8,69.6 276.8,69.5 276.8,69.2 276.8,69.2 	"/>
	<polygon class="st0" points="275.5,71.7 275.7,71.6 275.9,71.5 276,71.2 276.2,71.1 276.4,70.8 276.4,70.6 276.2,70.3 275.6,70.6
		"/>
	<path class="st0" d="M284.4,66.7l0.2,0.2c-0.1,0,0.1,0.2-0.4,0.2c-0.6-0.6,0.1-1.3,1.1-2.5c-1.4,1.7-4.9,2.5-6.3,3.4
		c0-0.3-0.8-0.2-0.7,0.6c-0.4-0.6-0.3,0.9-0.8,0.3c-2.8,3.1,1.8,0.2-0.2,1.8c1-0.4,2.6-1.3,3.8-2.2c1.8-0.4,4.4-2.6-0.1,0.9
		c1.5-0.9,9.7-6.1,4.1-3.9C284.9,65.8,285,66.2,284.4,66.7z"/>
	<path class="st0" d="M23.2,5.9c0,0,0.1,0.2,0.3,0.5c-0.2,0,0,0.2-0.2,0.6C22.9,7,22.6,4.6,23.2,5.9z"/>
	<path class="st0" d="M23.9,7.3c0-0.3-0.5-0.5,0.2-1C23.9,6.6,24.6,7.4,23.9,7.3z"/>
	<path class="st0" d="M24.5,6c-0.2,0.1,0.1-0.2-0.3-0.6c0,0.1-0.1,0,0,0.6c-0.2,0.2,0-0.4-0.6-0.2c-0.1-0.2,0.2-0.3,0.6-0.7
		C24.3,5.2,25.3,5.6,24.5,6z"/>
	<path class="st0" d="M24.2,9.1C24.3,9,24,9.3,24.6,9.4c-0.7,1.4,2.6,3.8-0.3-0.6c-0.1-0.2,0.2,0.2,0.4-0.3c0.2,0.1,0.2,0.1,0.7,0.1
		c0.2-0.1-0.3-0.4-0.2-0.7C25.1,7.7,23.8,8,24.2,9.1z"/>
</g>
<g id="constellation">
	<g>
		<polyline class="st1" points="296.9,33.8 294.1,38.9 291.2,44 		"/>
		<polyline class="st1" points="274.8,41.6 280.3,42.5 285.8,43.3 291.2,44 		"/>
		<polyline class="st2" points="291.2,44 289,47.6 286.7,51.1 284.4,54.5 282,58 279.6,61.5 277.2,65 274.8,68.4 272.2,71.9
			269.7,75.3 267.1,78.8 264.5,82.2 261.9,85.6 		"/>
		<polyline class="st2" points="67.6,73.4 71.6,74.4 75.7,75.2 79.9,76.2 84,77.1 88.1,78 92.2,78.8 96.4,79.6 100.5,80.3 104.7,81
			108.8,81.7 113,82.4 117.2,83 121.4,83.6 125.6,84.2 129.8,84.8 134,85.2 138.2,85.7 142.4,86.2 146.7,86.6 150.8,87 155.1,87.3
			159.3,87.6 163.6,88 167.8,88.2 172.1,88.4 176.4,88.6 180.6,88.8 184.8,88.8 189.2,89 193.4,89 197.6,89.1 202,89.1 206.2,89
			210.5,88.9 214.8,88.8 219.1,88.7 223.3,88.5 227.6,88.4 231.9,88.1 236.2,87.9 240.4,87.6 244.8,87.2 249,86.8 253.3,86.4
			257.6,86 261.9,85.6 		"/>
		<polyline class="st2" points="261.9,85.6 264.5,82.2 267.1,78.8 269.7,75.3 272.2,71.9 274.8,68.4 277.2,65 279.6,61.5 282,58
			284.4,54.5 286.7,51.1 289,47.6 291.2,44 		"/>
		<polyline class="st2" points="261.9,85.6 257.6,86 253.3,86.4 249,86.8 244.8,87.2 240.4,87.6 236.2,87.9 231.9,88.1 227.6,88.4
			223.3,88.5 219.1,88.7 214.8,88.8 210.5,88.9 206.2,89 202,89.1 197.6,89.1 193.4,89 189.2,89 184.8,88.8 180.6,88.8 176.4,88.6
			172.1,88.4 167.8,88.2 163.6,88 159.3,87.6 155.1,87.3 150.8,87 146.7,86.6 142.4,86.2 138.2,85.7 134,85.2 129.8,84.8
			125.6,84.2 121.4,83.6 117.2,83 113,82.4 108.8,81.7 104.7,81 100.5,80.3 96.4,79.6 92.2,78.8 88.1,78 84,77.1 79.9,76.2
			75.7,75.2 71.6,74.4 67.6,73.4 		"/>
		<line class="st3" x1="255.6" y1="84.8" x2="261.9" y2="85.6"/>
	</g>
	<ellipse class="st4" cx="68" cy="73.2" rx="2.9" ry="2.9"/>
	<ellipse class="st4" cx="27.1" cy="170.6" rx="2.9" ry="2.9"/>
	<ellipse class="st4" cx="262.4" cy="85.3" rx="2.9" ry="2.9"/>
	<ellipse class="st4" cx="274.7" cy="41.9" rx="2.9" ry="2.9"/>
	<ellipse class="st4" cx="290.8" cy="43.9" rx="2.9" ry="2.9"/>
	<ellipse class="st4" cx="296.6" cy="33.9" rx="2.9" ry="2.9"/>
	<ellipse class="st4" cx="255.2" cy="84.9" rx="2.9" ry="2.9"/>
	<line class="st2" x1="262.4" y1="85.3" x2="27.1" y2="170.9"/>
</g>
<text transform="matrix(1 0 0 1 373.0739 84.5295)" class="st5"><tspan x="0" y="0" class="st4 st6 st7">Supreme</tspan><tspan x="46.3" y="72" class="st4 st6 st7">Court</tspan></text>
</svg>
