<?xml version="1.0" encoding="utf-8"?>
<!-- Generator: Adobe Illustrator 23.1.1, SVG Export Plug-In . SVG Version: 6.00 Build 0)  -->
<svg version="1.1" id="Layer_1" xmlns="http://www.w3.org/2000/svg" xmlns:xlink="http://www.w3.org/1999/xlink" x="0px" y="0px"
	 viewBox="0 0 382.1 257" style="enable-background:new 0 0 382.1 257;" xml:space="preserve">
<style type="text/css">
	.st0{fill:#707589;}
	.st1{fill:none;stroke:#FFFFFF;stroke-width:0.8;stroke-linejoin:round;stroke-miterlimit:10;}
	.st2{fill:#FFFFFF;}
	.st3{font-family:'Roboto';}
	.st4{font-size:40px;}
</style>
<g id="map">
	<path class="st0" d="M70.3,170.2c0.6,1.1,0.5,1.8-0.9,2.2c-0.9,0.3-1.7,1-2.5,1.5c-0.5,0.3-1,0.5-1.7,0.8c0.2-2.2,0-4.2,2-5.4
		c-1.3,0.1-1.8,0.6-2.6,2.2c-0.6,1-1.4,2-2.1,3.2c0.2,0.2,0.6,0.4,1.1,0.9c-3.4,3.6-7,6.7-11.4,9.1c-0.5-0.6-1.2-0.4-2.2,0.2
		c-1.2,0.7-2.8,1-4.2,1.4c-0.1-0.2-0.2-0.4-0.3-0.6c0.6-0.4,1.4-0.7,2-1.1c0.6-0.3,1.4-0.6,2.1-1c0.5-0.2,0.8-0.8,1.3-0.8
		c2.3-0.2,3.8-1.8,5.3-3.3c0.8-0.9,1.1-2.1,1.9-3.6c-1.2,0.2-1.8,0.2-2.8,0.3c-1-1.1-1-1.6-3.7-0.5c0-1.3,0-2.5,0-3.8
		c-2.7,0.5-3.4-0.2-3.7-2.9c-0.2-1.1-1.2-2.2-0.2-3.4c0.6-0.7,1-1.7,1.8-2.2c0.4-0.3,1.3-0.2,1.9-0.1c0.9-0.4,2.1-0.6,2.6-1.2
		c0.5-0.6,0.2-1.8,0.2-2.5c-1.3,0-2.7,0-4.2,0c-1.1,0-1.8-0.5-2-1.8c-0.1-0.7-0.6-1.4-1.1-2.2c1.5-0.6,3-1.2,4.8-1.9
		c0.2,1.8,1,2.2,2.6,1.7c-1.3-1.8-2.6-3.6-3.7-5.4c-0.2-0.4-0.6-1-0.4-1.4c0.2-0.4,0.9-0.6,1.4-0.9c0.6-0.2,1.5-0.2,1.7-0.6
		c0.7-1.8,2.1-2.6,3.6-3.3c1-0.5,2.2-0.9,3.7-1.4c1,0.5,2.4,1.5,3.9,1.8c2.2,0.5,4.6,0.7,7,0.6c1.8-0.1,3.2,0.4,3.6,2.2
		c1.5,7.5,3,15,4.6,22.8c0.7-0.2,1.4-0.4,1.9-0.5c1.2,1,2.3,1.8,3.4,2.6c0.7-0.9,1.4-2.3,2-2.3c0.9,0,1.8,1,2.6,1.7
		c0.9,0.6,1.8,1.3,2.5,2.1c1.3,1.4,2.6,2.6,4.6,2.9c1.3,0.2,1.8,2.2,1,3.8c-0.6,0.2-2-1.6-2.1,0.6c0,0-1.4,0.3-1.8,0
		c-1.1-1-2-2.2-3-3.5c-0.2,0.5-0.2,0.7-0.3,1.2c-1-1-1.7-2.1-2.6-2.8c-1.7-1.3-3.4-2.5-5.2-3.6c-2-1.2-4.2-1.1-6.6-1
		c-1.2,0.1-2.5-0.8-3.8-1.3c-0.6-0.2-1.2-0.2-1.8-0.4C70.4,169.8,70.4,170,70.3,170.2z"/>
	<path class="st0" d="M64.5,176.4c0.2,0.2,0.4,0.2,0.5,0.4c0.6,1.1-1.1,4-2.3,4.1c-0.3,0-0.9-0.3-1-0.6c-0.2-0.3-0.2-1,0-1.3
		c0.7-0.8,1.6-1.5,2.4-2.2C64.1,176.6,64.3,176.6,64.5,176.4z"/>
	<path class="st0" d="M45.2,161.7c-1.5,0.5-3.4-0.6-3.9-2.2C42.8,160.2,43.9,160.9,45.2,161.7z"/>
	<path class="st0" d="M44.9,169.9c0.7,0.2,1.4,0.2,2.2,0.4c-0.1,0.3-0.2,0.7-0.3,1c-0.6-0.2-1.4-0.4-2-0.6
		C44.8,170.5,44.8,170.2,44.9,169.9z"/>
	<path class="st0" d="M131.8,186.9c-0.8-0.2-1.8-0.6-1.4-2.3c0.1-0.4-0.1-0.9-0.3-1.3c-0.6-1.2-1-2.2,0.2-3.4
		c0.5-0.5,0.2-1.6,0.4-2.6c3.1,0.9,5.8,2.3,7.3,5.8C136.3,184.2,134.3,185.4,131.8,186.9z"/>
	<path class="st0" d="M127.3,175c-0.2-0.2-0.5-0.3-0.7-0.6c-0.4-0.4-0.8-0.9-1.2-1.4c-0.2-0.2-0.2-0.6-0.3-1c0.3-0.1,0.7-0.2,1-0.2
		c0.9,0.2,1.8,0.4,2.6,0.7c0.4,0.2,0.6,0.7,1,1c-0.4,0.3-0.8,0.6-1.2,0.9C128.2,174.9,127.8,174.9,127.3,175z"/>
	<path class="st0" d="M107.3,163.9c-0.8,0.6-1.4,1.3-1.8,1.2c-0.6-0.1-1.3-0.7-1.9-1.2c0.8-0.5,1.5-1,2.4-1.4
		C106.2,162.6,106.7,163.4,107.3,163.9z"/>
	<path class="st0" d="M116.5,166.6c0.1,1,0.3,1.8,0.2,2.6c0,0.2-1,0.6-1.2,0.5c-0.6-0.5-1-1.1-1.6-1.8
		C114.8,167.4,115.4,167,116.5,166.6z"/>
	<path class="st0" d="M158.4,158.5c0.4-0.3-0.2,1,0.6,0.7c-0.1,0.1-0.1,1.1,0.2,0.2c0.8,1.5,3.1,2.8,4,5.6c0.2,4.4,6.2,7.7,6.2,11.8
		c1.3,4.8,4.8,9.5,11,9.4c0.8,0.1,1.4,1,2.9,1h-0.1c0.8,0.6,1.8-1.5,1.3-0.5c-0.2-0.1-0.1-0.3-0.5,0.1c-0.3-1.9-2.1-4.2-1.4-9.1
		c-1,1-3.1-3.2-0.7-0.4l-0.1-0.2c0.5-0.2,1.4-1,0.4,0.2c0.7,0.6,1.6-1.5,1.8-2.9c-0.6,0.7-0.4-0.2-0.7-1c-0.1,0.1-0.6,0.3-1-0.3
		c0.9-0.5,4.2,1.9,2-1.4c0.1,0.1,0.8-0.3,0.3-0.6c1,0.9,2.2-1.8,1.8,0.3c1.4,0,0.2-2.4,1-1.8c-1.8-0.9,4.5,0.8,1.4-0.6
		c0.1-0.2-0.2-0.1,0.5-0.4c-0.3-0.6-1,0.2-1-1.3c0.1,0.2,0.5-0.4,0.6,0.4l0.2-0.1c0-0.2,0.2,1,0.4,0.2c-0.1-0.1,0.3,0.3-0.2,0.6
		c0.2,0.2-0.1,0.1,0.6-0.2c0.2,0.2-0.6-0.6-0.1-0.8c-0.1,0.2,0.5,1.3,0.8,0c0,0.1,0,0,0.1,0.3c0.1,0,0.1-0.1,0.4-0.5
		c0,0.2,0-0.1-0.2,0.9c-0.1-0.1,0.9,0.2-0.1,0.2c2.8-0.4,4.2-1.8-0.8,1.4c1-0.6,5.4-2.2,7.8-4.9c-1.6-0.4,2.4,0,1-4.7l-0.1,0.1
		c4.6-1.1-0.7,0.6,3.1,1.4c-4.2,2.5,2.6-1.4,6.1-1.8c1.8-1.2,9,3.7,9.1,0.4c1.2-4.4,5.8,5.8,10,3c-0.2-2.6,3.6,4.3,3.3-2.1
		c1.2-0.2,1,1.6,2.4,1.1c1.9,1.4,3,3.2,3.8,1c0.5-0.9-3.4-0.7-3.7-3.1c1.2-1,2.6-1.8,2.6-3.5c0.3-1.4-5.8,3.2-3.4,0.5
		c0-0.2,0.6-1.4-0.2-0.6c-0.1-0.1-0.1,0-0.1-0.3c-1.4,2.1-8.1-0.2-2-1.1c1,0.6,3.1,1.9,4.5-0.1c2-1.9,8.1,1.7,8.2-3.9
		c2.3,2.2-1.4,6.2,3.6,2.7c-1,1.2,2.4-0.2,1.5-1.6c0.7,0.8,2.9-0.2,0.2,1.5c1.3-0.9,10.1-1.7,4.2-0.8c0.5-0.2,5.6,2.3,4.7,0.9
		c-0.8,0.6-0.6-0.8,0.6-0.1c-0.1,0.2,0.1,0.2-0.2,0.5c-0.6,0.6,1.6-0.3,2.7,3.3c-0.4,0.2-0.4,0-0.5-1.3c-1.2,2.3,2.2,1,3.4,0.4
		c-1,0.8,4.6-1.7,2.7-1.6c0.2-0.2,0.4-0.5,0.9-1c0.8-1.6,11.4,6.3,11.6,9c0.2,1.6-1.9,7.1,0.9,6.9c-1.8-4.6,1,0,0.9-1.3
		c2-1.1-1.8,3.4-0.3,3.5c0.9,0.8,1.4,4.2,3.4,4.1c-1.4-1.3,0.9-1.4,0.3-0.9c0.5,2.5,0.6,2.5,3.7,7c0.1-0.9,9,5.9,3.9,4
		c0.1,2.3,3.6-0.1,5-0.1c0.6-1.4,0.2-3.1,1.2-4.8c1.3-9.4-10.4-23.5-13.8-33.8c0.1,0.3,1-4.8,0.2-2.4c-1.3-1.5,0.8,0.1-0.2-2.2
		c0.6,0,0.5-0.7,1.1-0.7c0.6-0.7-1.1-1.4,0.4-1.3c0.2-0.5,0.1-0.8-0.4-1.2c1.1-1.5,3.1-3,1.6-5.5c1.8,1.7,1.3,0.3,2.2-0.7v0.1
		c0.2-0.3,1.4,0.2,1.3-1c-0.3,0.6,6.1-4,5-6.5c0.6,1.8,0.9-3.3,3.9-4.2c0.6-1.1,3.4,0.3,3.1-2.2c0.2,2.6,2.5-6.7,3-4.6
		c-0.8,1.1,1.9,0.2,0.9-1.1c0.2,0.9,2.7,0,2.4-0.3c0.2-0.4,0.2-0.4,0.8,0.1c0.2-0.2,0.6-0.1,1.6-1.6c0.2-0.2-1.2-1.2-1.1-0.4
		c-1.2-0.3,0.5,0.7-1,0.3c0.1,0,0.5,0.5,0,0.4c-0.3-1-0.2,1.1-2.7-0.9c-0.3-1.7,2.6,3,2.9-1.7c1.4-0.3-1.1-0.8-1.7-0.6
		c-2.8-1.5,1,0.4,1.1-1c-1-0.3,0.2-0.5,0.8-0.6c-1.1,1.5,0.2,0.7,1.3,1.3c1-0.2,1.4-0.6,2-2.3c0.9,0.9,0.4-0.6,0.8-0.8
		c-0.4-0.6,0.2-1.2-1.2-1.8c0.2,0.2-0.3,0.1-0.1,0.5c-1.2-0.5,0.5,2.9-1.3,1.8c0.7,0.2,0.5-1.2,0.2-1.8c-0.6-1.5-4.2,3.8-4.5-2.2
		c0.4-0.1,1,3.9,1.9,1.6c0.9-0.2,0.5-1.1,1.6-0.6c0.6-0.5,0.6-0.4-0.3-1.1c0.6-0.3,1.9,1.3,1.1-0.3c0.6-0.1,0.5,0.9,1.3,1.3
		c0.1-1-3.6-4.1-1.4-2.8c0.1,0-0.8-2.1,0.2-0.5c-1-0.5,5.1,8.2,2.2,3.6c-1.5-1.1-2.2-8.5-5.9-5.2c-0.1-1.5-4.1-1.7-2.8-2.7
		c1,0.4,2.2,2,3.7,1.5c0-0.1,0.2-0.8-0.4-0.5v-0.1l0,0c0.5-0.6-3.4-1.2-3-2.6c2.5,3,1.5-0.2,3.1,0.9c-0.2-2.1-1.7-0.9-4.7-4.4
		c3.1,3.4,6.6,1.4,1.5-0.9c-0.9-0.2-2.1-0.2-2.7-1.6c-0.4-1.2,1.1,0.7,3.6,1.1c1.9,0.8,0.3-0.7-1.5-2.2c3.4,1.6,0.2,0.6,0.2-3.8
		c0.8,0,0.2-0.9-1-1.8c1-0.1,0.7,0.1,1.4-0.7c-0.5-0.8,0.7,0,0.6-0.8c1-0.1-0.2-1.2,1.1-1.5c0.1,0-0.1,0.3,0,0.8
		c0.5-1,1,0.5-0.7,1.3c-0.6,1.9,1.4,2.2-0.2,4.4c0.6-0.4,0.6,0.6,1.3-0.2c0.7,2.1-0.4-0.1-0.6,1.5c1.6-0.4-1.9,0.3,1.6,2
		c0-1.8,0.3,0.9,0.7-0.9c0.4,0.3,0.3,3.1,1.4,2.6c1-0.7-0.2,1.4-0.3,2.6c-0.6,0.5-0.4,6.2,0.6,1.7c0.4-5,4.3-4.6,1.6-9.5
		c0,0,1-0.2,0.2-0.5c0,0,0.2,0,0.2-0.3c2.3,1.5-5.1-4.7-3.6-6.6c-0.2,3.3,4.6,1.8,4.4,4.7c1.4-2.8,3.1-5.1,3-8.9
		c0.2,0.2,0.2,0.7,0.4,1.8c-0.1-1,0.5-3.5-0.6-5c0,0.2-0.1,0.1,0.1,0.5c-0.2-0.2-1,0.2-1.6-0.2c1.4-0.5,0.3-1.9,1.4-3.4l0.2,0.6
		c-0.1-0.1-0.1,0-0.2-0.2l0.6,0.2c-0.4-0.6,0.6-0.6,0.5-1.7c1,0.2,3.2-2.9,3.8-2.5c0.6-0.6,2.6-0.2,2.7-1.2c0.9,0.5,1-0.2,2.7-0.7
		V61c0.4-0.2,0.9-0.3,1.8-1.3c0.1,0.9,0.5-3.8,0.7-0.5c0.6,1,0.5-1.2,0.8-0.2c0.1,0,0.2-0.3,0.5-0.7c-0.1,0.1,0.6,0.6,0.5,0
		c0.4,0.3,1.6-4.2,1.8-0.6c1.8-0.4,6.1-4,1.4-4c3.8,0.1-0.9,4.7-2,0.6c-0.3-0.6-0.8-1.2-2-1.6c0.3,1.1-1.5,0-0.7-0.5
		c2.2-4.5,0.3,1,0.2-5.4c1.4-0.5,0.6-5.8,2.6-6.2c0.9-1.1-0.2,2,1.7-1.3c1.2,0.9,0.1-0.7,1.8-1c0,2.8,1.3-7.3,1.4-3.5
		c0.2,0.2,0.3-0.7,0.6,0.1c0.1,0.1-0.8-0.2-0.4,0.3c-0.7,0.1,0.7,0.5,0.9,0.3c0.5,0.2,0.6-0.1,0.1-0.9c0.2-0.2,0.4-0.2,0.5-0.9
		c0.1,0.4,0.7,0.9,0.7-0.3c0.5,0.3,1-0.6,1.5,0.9c0.2-0.2,0.2-0.5,0.2-1.2c0.3,0.6,0.7,0.2,0.6-0.7c0.3-0.2,1.6,0.6,1.3-0.9
		c0,0.1,0.1-0.1,0.4,0.1c-0.1,0.2,0.2-0.9,0.2-0.1c0.4,0.2,0-1.6,0.6-0.5c0.5,0,1-0.8,1.1-1.8c-2,0.5,0.6-1.6-2-2.2
		c-1.3,1.6-0.6-2.5-3.1-2.7c-2.5-1.1-0.3-9-5.4-10.7c-5.9,5.5-4.6-7.2-7.8,8.8c-1.3,4.2,0.6,8.1-4.8,9.9c1.1,6.1-20.6-0.7-22.4,13.9
		l-0.2,0.3c0,1.6,1.8,2.5-3,5.9c-0.2-0.2-2.2-0.3-3,0.7c-1-1-9.9-0.9-7.3,3.3c2.1,0.6-1.4,4.2-5.2,6.9c-0.1,0,0.2-0.1,0.1-0.3
		c-7.4,4.5-7.8,8.3-18,6.1c0.2,0.2,3.1-10.3,3.9-7c1-2.4-0.6-17.4-6.7-6.6c-3.8-2.3,1.9-1.5,1.2-10.7c-8.3-7-9-5.1-11.9,3.1
		c-0.5-0.6,0.1-2,0.1-3.1c-2.2,2.2-4,5.3-4,9.5c-1,4.4,4.7,6.5,0.4,14.6c-7.7,10.1-9.4-13.6-4.6-22.4c0.9-0.4,0.5-3.2-0.2-0.7
		c-0.6-0.1-1,1.3-1.1,2.5c-1.1-1-1.4,1.4-3.2,2.6c-0.8,0.8,5.4-13,4.8-8.9c4-3.8-0.6,2.2,3.1-0.9c1.3-3.2,8.2-1.8,12.5-2.6
		c-2.9-5.4-7.1-0.5-5.9-5c-5.3,0.3-10.3,5.8-14.2,0.8c-1.8-0.6-2.1-1.5-3.8,0.8c-0.2-0.3,0.2-1,0-1.8c1-0.4,1.2-2.6,3.2-3.1
		c-3.5-1.4-9.9,8.1-15.8,6.6c2.8-5.5-3,0.9-6.1-0.8c1.4-1.8,7.7-7.5,13-9.6c-6.2-1-11.4,0.2-16.2-2.6c1-2.7-6.2,1.2-9.9-2.6
		c-0.3-1.1,0.1-4.1-2.3-3.8c-38.1,8.2-91.6-6.2-134.7-16v0.2c-1,0.2,0.7,1.7,0.6,2C64,4.1,64,5.8,63,5.4c0.2-0.9-1.1,0.3,0.1,0.2
		c0.8,0.8-0.2,2.3,1,3.1c-0.6,0.3-1.1,1.2-1.8,2.2c0.2,0.6-0.1,1.8-0.7,2.9c0,0-0.2-0.1-0.5-0.6c-0.1,0.2-1.2,2-1.8,0.6l-0.1,0.3
		c-0.1,0.1,0.2-0.2-0.3-0.2c-0.1,0.2,0,0.1-0.2,0.7c-0.4,0.2,0.3-0.6-0.5-0.5c0.1,0,0,0,0.5-0.4c-0.2-0.1-0.1-0.2-0.7,0.2
		c0,0-0.1-0.2,0.5-0.5l-0.2-0.7c0,0.2,0-0.4,0.4-0.2l-0.2,0.2c0.2,0.1,1-0.2,1.4-0.9c0.2,1-1,2,1,0.2c0,0.2-0.8,0.6,0.1,1
		c-0.2-1,1.8-1.3,0.1-2.2c0-0.1-0.2-0.1,0-0.4c0.6,0.6,0.2,0.1,0.5-0.7c0-0.2,0.1,0.7,0.5,0c0.2,0.6,0.8-0.6,0-1.4
		c-0.2,0.1,0.1,0.2-0.1,0.9c0.6-0.5-5.9,2.8-2.1,2.3c-3,0.9-0.7-1,0.6-2.7l0.2,0.3c0-0.1,0.1,0.1,0.2-0.4c0,0.2,0.2,0.2-0.1,0.6
		c0.6-0.3,1.4-0.8,1-2.2v0.5l-0.1-0.2l-0.2,0.2c0.1-1,0.3-0.9-0.6,0.1c0,0,0.3-0.4-0.2-0.8c-0.1,0,0.1,0.1-0.2,0.3
		c-0.5-1.4-3.5-1.3-7.5-4.8c-1,3,0.7,6.2-0.1,10.5c0.5-0.5,0.3-0.5,1.6,0.4c0.2,0.2-1.3-0.2-1.4,0.6c-0.2,0,0-0.2-0.3-0.6
		c-0.3,1-0.1,1.3,1,1.8c-0.1-0.2-0.3,0.3-0.8,0.4c-0.1-0.2,0.5,1.8-0.7,1.8c-0.2,0.2,0.5-0.8,0.2-1.9c-0.2,0.2-0.4,1.2-0.6,2.3
		c0.4,0.4,2.8,0.3,3,1.7c-0.5-0.6-1.1,0-2.2-0.6c0,0,0.1,0.1,0.2,0.4c-0.3,0.2-0.2-0.6-1-0.7c0.5,1.5-1.2,2.9-0.9,5.3
		c-2.7,7.1-10.8,17.5-9.1,27l-0.2-0.1c0.2,0.8-0.3,1.1-0.9,2.5v-0.2c0.3,3.1-5,1.7-1.3,10.7c-2.4,3.7,1.2,9.6,1.4,12.1
		c0.3,0.3-1.3,2.2,0.1,1.1c0,0.4,0.5,0.7,1,1.4c1.4,1.2,1,0.9,1.5-1.1c-0.1,0-0.1,0-0.2-0.2c0.8,0,1.1,0.1,1.8,1.2
		c-0.2-0.1,0-0.1-0.6-0.2h0.1c-1.7-0.1-0.6,2.7,0.3,4.6c-0.4,0.2-2.6-1.8-1.6-2.4c-0.1-0.2,0.2-0.5-0.3-0.7
		c-1.9,2.3-0.9,5.1,1.7,7.8c-4.1,3.1,2.6,9,2.2,12.4c3.7,3-4.6,5.1,5.3,7.9c5.1,4,12.2,9,12.2,16.4c-0.5-0.2-0.2-0.9-0.3,0.6
		c4.3,0.5,9.1,1,14.6,1.6c-3.6,0.6,17.7,15.4,31.8,15.7c5.8,2,10.5-5.2,18.2-0.1c1.4,3.5,5.7,5.8,8.2,9.6c0.9,1.8,0,7,5.9,9.9
		c2.3,0.6,2.3,3.6,5.8,0.5c-0.2-0.6,0.6-1.6,1-2.8l0.2,0.1c1.3-2.5,4.7-1,7.7-0.6C157.8,158.2,157.9,158.6,158.4,158.5z"/>
	<path class="st0" d="M332.5,58c-0.3,0.1-0.3,0-1-0.1c-0.2-0.8-0.2,0.9-1,0.9C330.3,59.3,332.4,58.7,332.5,58z"/>
	<path class="st0" d="M334.8,58.3c-1.4-0.2-0.2,0.9,0.6-0.2c-0.2-0.4-1-0.8-0.4-0.2C335,58,335.2,58.2,334.8,58.3z"/>
	<polygon class="st0" points="314.8,66.6 314.8,66.4 314.8,66.3 314.8,66.3 314.7,66.3 314.6,66.6 314.5,66.9 314.4,67.3
		314.5,67.4 314.6,67.3 314.7,67.2 314.8,67 314.8,67 314.8,66.8 314.8,66.6 	"/>
	<polygon class="st0" points="313.4,69.2 313.6,69.1 313.9,69 314,68.8 314.1,68.6 314.4,68.2 314.4,68.1 314.1,67.8 313.6,68.2
		"/>
	<path class="st0" d="M322.4,64.2l0.2,0.2c-0.1,0,0.1,0.2-0.4,0.2c-0.6-0.6,0.1-1.3,1.1-2.5c-1.4,1.7-4.9,2.5-6.3,3.4
		c0-0.3-0.8-0.2-0.7,0.6c-0.4-0.6-0.3,0.9-0.8,0.3c-2.8,3.1,1.8,0.2-0.2,1.8c1-0.4,2.6-1.3,3.8-2.2c1.8-0.4,4.4-2.6-0.1,0.9
		c1.5-0.9,9.7-6.1,4.1-3.9C322.8,63.3,322.9,63.8,322.4,64.2z"/>
	<path class="st0" d="M61.2,3.4c0,0,0.1,0.2,0.3,0.5c-0.2,0,0,0.2-0.2,0.6C60.8,4.5,60.5,2.2,61.2,3.4z"/>
	<path class="st0" d="M61.8,4.8c0-0.3-0.5-0.5,0.2-1C61.9,4.1,62.5,5,61.8,4.8z"/>
	<path class="st0" d="M62.5,3.4c-0.2,0.1,0.1-0.2-0.3-0.6c0,0.1-0.1,0,0,0.6c-0.2,0.2,0-0.4-0.6-0.2c-0.1-0.2,0.2-0.3,0.6-0.7
		C62.3,2.7,63.3,3.1,62.5,3.4z"/>
	<path class="st0" d="M62.1,6.6c0.1-0.1-0.2,0.2,0.4,0.3c-0.7,1.4,2.6,3.8-0.3-0.6c-0.1-0.2,0.2,0.2,0.4-0.3
		c0.2,0.1,0.2,0.1,0.7,0.1C63.5,6,63,5.7,63.1,5.4C63,5.3,61.7,5.4,62.1,6.6z"/>
</g>
<g>
	<g>
		<polyline class="st1" points="260.8,64.4 256.4,64.6 252.1,64.7 247.9,64.9 243.6,65 239.3,65 235,65.1 230.8,65.1 226.4,65.1
			222.2,65 218,65 213.6,64.8 209.4,64.6 205.2,64.4 200.8,64.2 196.6,63.9 192.4,63.7 188.1,63.3 183.9,63 179.6,62.6 175.4,62.2
			171.2,61.7 167,61.2 162.8,60.6 158.5,60.1 154.4,59.5 150.2,58.9 146,58.2 141.8,57.5 137.6,56.8 133.5,56 129.3,55.2
			125.2,54.4 121,53.5 116.9,52.6 112.8,51.8 108.7,50.8 104.5,49.8 100.4,48.8 96.4,47.8 92.3,46.6 88.3,45.5 84.2,44.4 80.2,43.3
			76.1,42 72.1,40.8 68.1,39.5 64.1,38.2 60.1,36.9 56.2,35.5 52.2,34.2 		"/>
		<polyline class="st1" points="317.2,40.2 313.3,42.2 309.4,44 305.5,45.8 301.5,47.7 297.6,49.5 293.6,51.3 289.5,53 285.5,54.7
			281.4,56.4 277.3,58.1 273.2,59.7 269.1,61.3 264.9,62.8 260.8,64.4 		"/>
		<polyline class="st1" points="52.2,34.2 56.2,35.5 60.1,36.9 64.1,38.2 68.1,39.5 72.1,40.8 76.1,42 80.2,43.3 84.2,44.4
			88.3,45.5 92.3,46.6 96.4,47.8 100.4,48.8 104.5,49.8 108.7,50.8 112.8,51.8 116.9,52.6 121,53.5 125.2,54.4 129.3,55.2 133.5,56
			137.6,56.8 141.8,57.5 146,58.2 150.2,58.9 154.4,59.5 158.5,60.1 162.8,60.6 167,61.2 171.2,61.7 175.4,62.2 179.6,62.6
			183.9,63 188.1,63.3 192.4,63.7 196.6,63.9 200.8,64.2 205.2,64.4 209.4,64.6 213.6,64.8 218,65 222.2,65 226.4,65.1 230.8,65.1
			235,65.1 239.3,65 243.6,65 247.9,64.9 252.1,64.7 256.4,64.6 260.8,64.4 		"/>
		<polyline class="st1" points="256,61.5 252.3,63.1 248.6,64.6 244.8,66.2 241.1,67.7 237.3,69.1 233.6,70.6 229.7,71.9
			225.9,73.4 222,74.7 218.2,76 214.4,77.4 210.4,78.6 206.5,79.8 202.6,81.1 198.7,82.3 194.7,83.4 190.7,84.6 186.7,85.8
			182.7,86.8 178.7,87.8 174.6,88.9 170.5,89.9 166.5,90.9 162.4,91.8 158.3,92.7 154.2,93.6 150,94.5 145.9,95.3 141.7,96.1
			137.6,96.9 133.3,97.6 129.2,98.3 124.9,99 120.7,99.6 116.4,100.2 112.2,100.8 108,101.4 103.6,101.8 99.3,102.3 95.1,102.8
			90.8,103.2 86.4,103.6 82,104 77.7,104.3 73.3,104.6 69,104.9 64.6,105 60.2,105.3 55.8,105.4 51.4,105.6 		"/>
		<polyline class="st1" points="190.3,78.3 194.6,77.5 198.8,76.7 203.2,75.9 207.4,75 211.7,74.2 216,73.3 220.2,72.3 224.4,71.4
			228.6,70.3 232.8,69.3 237,68.2 241.2,67.1 245.3,65.9 249.5,64.8 253.6,63.6 257.6,62.3 261.7,61 265.8,59.8 269.9,58.5
			274,57.1 278,55.7 282,54.3 286,52.8 289.9,51.4 293.9,49.8 297.8,48.3 301.7,46.7 305.6,45.1 309.5,43.5 313.4,41.9 317.2,40.2
					"/>
		<polyline class="st1" points="59.5,13.8 59,17.8 58.5,22 58.1,26.1 57.6,30.2 57.2,34.3 56.8,38.5 56.4,42.6 56,46.8 55.6,51
			55.2,55.1 54.8,59.3 54.5,63.4 54.1,67.7 53.8,71.8 53.5,76.1 53.2,80.2 52.8,84.5 52.5,88.7 52.2,92.9 52,97.1 51.6,101.4
			51.4,105.6 		"/>
		<polyline class="st1" points="51.4,105.6 55.8,105.4 60.2,105.3 64.6,105 69,104.9 73.3,104.6 77.7,104.3 82,104 86.4,103.6
			90.8,103.2 95.1,102.8 99.3,102.3 103.6,101.8 108,101.4 112.2,100.8 116.4,100.2 120.7,99.6 124.9,99 129.2,98.3 133.3,97.6
			137.6,96.9 141.7,96.1 145.9,95.3 150,94.5 154.2,93.6 158.3,92.7 162.4,91.8 166.5,90.9 170.5,89.9 174.6,88.9 178.7,87.8
			182.7,86.8 186.7,85.8 190.7,84.6 194.7,83.4 198.7,82.3 202.6,81.1 206.5,79.8 210.4,78.6 214.4,77.4 218.2,76 222,74.7
			225.9,73.4 229.7,71.9 233.6,70.6 237.3,69.1 241.1,67.7 244.8,66.2 248.6,64.6 252.3,63.1 256,61.5 		"/>
		<polyline class="st1" points="229.6,85.1 225.2,84.1 220.8,83 216.5,82 212.2,80.9 207.9,79.7 203.6,78.6 199.2,77.3 195,76.1
			190.8,74.8 186.5,73.4 182.4,72.2 178.1,70.7 174,69.4 169.8,67.9 165.7,66.4 161.6,65 157.6,63.4 153.5,61.8 149.4,60.2
			145.4,58.6 141.4,57 137.4,55.3 133.5,53.6 129.6,51.8 125.6,50.1 121.8,48.3 117.9,46.5 114,44.6 110.3,42.7 106.4,40.9
			102.7,38.9 99,37 95.2,35 91.6,33 87.9,31 84.3,28.9 80.6,26.8 77,24.7 73.5,22.6 70,20.4 66.4,18.2 62.9,16 59.5,13.8 		"/>
		<polyline class="st1" points="209.5,104.7 206.6,101 203.8,97.2 201,93.4 198.3,89.7 195.6,85.9 192.9,82.1 190.3,78.3 		"/>
	</g>
	<ellipse class="st2" cx="209.8" cy="104.8" rx="2.9" ry="2.9"/>
	<ellipse class="st2" cx="190.3" cy="78.5" rx="2.9" ry="2.9"/>
	<ellipse class="st2" cx="52.4" cy="34.5" rx="2.9" ry="2.9"/>
	<ellipse class="st2" cx="52.4" cy="104.8" rx="2.9" ry="2.9"/>
	<ellipse class="st2" cx="65.1" cy="168.1" rx="2.9" ry="2.9"/>
	<ellipse class="st2" cx="59.4" cy="13.9" rx="2.9" ry="2.9"/>
	<ellipse class="st2" cx="229.7" cy="85" rx="2.9" ry="2.9"/>
	<ellipse class="st2" cx="260.8" cy="64.4" rx="2.9" ry="2.9"/>
	<ellipse class="st2" cx="317.3" cy="40.2" rx="2.9" ry="2.9"/>
	<ellipse class="st2" cx="256" cy="61.1" rx="2.9" ry="2.9"/>
	<line class="st1" x1="261" y1="64.4" x2="65.1" y2="168.1"/>
</g>
<text transform="matrix(1 0 0 1 47.4271 242.0179)" class="st2 st3 st4">Women’s Rights</text>
</svg>
