<?xml version="1.0" encoding="utf-8"?>
<!-- Generator: Adobe Illustrator 23.1.1, SVG Export Plug-In . SVG Version: 6.00 Build 0)  -->
<svg version="1.1" id="Layer_1" xmlns="http://www.w3.org/2000/svg" xmlns:xlink="http://www.w3.org/1999/xlink" x="0px" y="0px"
	 viewBox="0 0 491.6 42.9" style="enable-background:new 0 0 491.6 42.9;" xml:space="preserve">
<style type="text/css">
	.st0{fill:#244D4E;}
	.st1{fill:#42A3C2;}
	.st2{fill:#318EA4;}
	.st3{fill:#5E9A63;}
	.st4{fill:none;}
	.st5{fill:#FFFFFF;}
	.st6{font-family:'Roboto-Regular';}
	.st7{font-size:7px;}
	.st8{fill:#B8C3E4;}
	.st9{fill:#231F20;}
	.st10{fill:#467BBE;}
	.st11{fill:#6C429A;}
	.st12{fill:#5C3D5E;}
	.st13{fill:#AF5DA3;}
	.st14{fill:#E386B7;}
	.st15{fill:#010101;}
	.st16{fill:#B21F71;}
	.st17{fill:#707589;}
</style>
<rect id="women-legend" x="409.7" class="st0" width="40.9" height="42.9"/>
<rect id="police-legend" x="368.8" class="st1" width="40.9" height="42.9"/>
<rect id="education-legend" x="327.8" class="st2" width="40.9" height="42.9"/>
<rect id="supreme-court-legend" x="450.7" class="st3" width="40.9" height="42.9"/>
<g>
	<rect x="371.4" y="17.3" class="st4" width="35.9" height="8.4"/>
	<text transform="matrix(1 0 0 1 379.7284 22.5187)" class="st5 st6 st7">Police</text>
</g>
<g>
	<rect x="331.5" y="17.3" class="st4" width="35.9" height="8.4"/>
	<text transform="matrix(1 0 0 1 333.9412 22.5187)" class="st5 st6 st7">Education</text>
</g>
<rect id="executive-legend" x="286.9" class="st8" width="40.9" height="42.9"/>
<g>
	<rect x="290.6" y="17.3" class="st4" width="35.9" height="8.4"/>
	<text transform="matrix(1 0 0 1 293.6707 22.5187)" class="st9 st6 st7">Executive</text>
</g>
<rect id="immigration-legend" x="245.9" class="st10" width="40.9" height="42.9"/>
<g>
	<rect x="249.6" y="13.1" class="st4" width="35.9" height="16.8"/>
	<text transform="matrix(1 0 0 1 253.661 18.3085)" class="st5 st6 st7">Immigra</text>
	<text transform="matrix(1 0 0 1 279.641 18.3085)" class="st5 st6 st7">-</text>
	<text transform="matrix(1 0 0 1 261.691 26.7085)" class="st5 st6 st7">tion</text>
</g>
<rect id="guns-legend" x="205.1" class="st11" width="40.9" height="42.9"/>
<rect id="environment-legend" x="82.1" class="st12" width="40.9" height="42.9"/>
<rect id="healthcare-legend" x="41" class="st13" width="40.9" height="42.9"/>
<g>
	<rect x="208.8" y="17.6" class="st4" width="35.9" height="7.8"/>
	<text transform="matrix(1 0 0 1 218.7376 22.8441)" class="st5 st6 st7">Guns</text>
</g>
<rect id="race-confed-legend" x="164.1" class="st14" width="40.9" height="42.9"/>
<g>
	<rect x="413.4" y="13.4" class="st4" width="34.6" height="16.1"/>
	<text transform="matrix(1 0 0 1 416.1717 18.6899)" class="st5 st6 st7">Women’s </text>
	<text transform="matrix(1 0 0 1 421.7617 27.0899)" class="st5 st6 st7">rights</text>
</g>
<g>
	<rect x="454.3" y="13.4" class="st4" width="35.8" height="16.1"/>
	<text transform="matrix(1 0 0 1 458.2909 18.6899)" class="st5 st6 st7">Supreme </text>
	<text transform="matrix(1 0 0 1 463.6909 27.0899)" class="st5 st6 st7">Court</text>
</g>
<rect x="166.7" y="4.8" class="st4" width="36.5" height="33.4"/>
<text transform="matrix(1 0 0 1 175.2484 9.8154)" class="st15 st6 st7">Racial </text>
<text transform="matrix(1 0 0 1 170.9684 18.2154)" class="st15 st6 st7">justice or </text>
<text transform="matrix(1 0 0 1 176.8084 26.6154)" class="st15 st6 st7">white </text>
<text transform="matrix(1 0 0 1 167.8584 35.0154)" class="st15 st6 st7">supremacy</text>
<rect id="collective-bargaining-legend" x="123" class="st16" width="40.9" height="42.9"/>
<rect x="125.7" y="13.1" class="st4" width="36.5" height="16.7"/>
<text transform="matrix(1 0 0 1 128.7264 18.3809)" class="st5 st6 st7">Collective </text>
<text transform="matrix(1 0 0 1 127.4864 26.7809)" class="st5 st6 st7">bargaining</text>
<rect x="83.7" y="13.9" class="st4" width="36.5" height="15.1"/>
<text transform="matrix(1 0 0 1 89.4637 19.1975)" class="st5 st6 st7">Environ</text>
<text transform="matrix(1 0 0 1 112.6137 19.1975)" class="st5 st6 st7">-</text>
<text transform="matrix(1 0 0 1 94.0137 27.5975)" class="st5 st6 st7">ment</text>
<rect x="42.7" y="17.5" class="st4" width="36.5" height="7.9"/>
<text transform="matrix(1 0 0 1 44.0116 22.7689)" class="st5 st6 st7">Healthcare</text>
<rect id="other-legend" class="st17" width="40.9" height="42.9"/>
<rect x="1.6" y="16.2" class="st4" width="36.5" height="10.6"/>
<text transform="matrix(1 0 0 1 11.3973 21.4293)" class="st5 st6 st7">Other</text>
<rect x="2.2" y="-17.9" class="st4" width="71.9" height="12.3"/>
</svg>
