<?xml version="1.0" encoding="utf-8"?>
<!-- Generator: Adobe Illustrator 23.1.1, SVG Export Plug-In . SVG Version: 6.00 Build 0)  -->
<svg version="1.1" id="Layer_1" xmlns="http://www.w3.org/2000/svg" xmlns:xlink="http://www.w3.org/1999/xlink" x="0px" y="0px"
	 viewBox="0 0 642.8 194" style="enable-background:new 0 0 642.8 194;" xml:space="preserve">
<style type="text/css">
	.st0{fill:#707589;}
	.st1{fill:none;stroke:#FFFFFF;stroke-width:0.856;stroke-linejoin:round;stroke-miterlimit:10;}
	.st2{fill:#FFFFFF;}
	.st3{font-family:'ArialMT';}
	.st4{font-size:1.9091px;}
	.st5{fill:none;}
	.st6{font-family:'Roboto';}
	.st7{font-size:60px;}
</style>
<g id="map">
	<path class="st0" d="M32.4,171.2c0.6,1.1,0.5,1.8-0.9,2.2c-0.9,0.3-1.7,1-2.5,1.5c-0.5,0.3-1,0.5-1.7,0.8c0.2-2.2,0-4.2,2-5.4
		c-1.3,0.1-1.8,0.6-2.6,2.2c-0.6,1-1.4,2-2.1,3.2c0.2,0.2,0.6,0.4,1.1,0.9c-3.4,3.6-7,6.7-11.4,9.1c-0.5-0.6-1.2-0.4-2.2,0.2
		c-1.2,0.7-2.8,1-4.2,1.4c-0.1-0.2-0.2-0.4-0.3-0.6c0.6-0.4,1.4-0.7,2-1.1c0.6-0.3,1.4-0.6,2.1-1c0.5-0.2,0.8-0.8,1.3-0.8
		c2.3-0.2,3.8-1.8,5.3-3.3c0.8-0.9,1.1-2.1,1.9-3.6c-1.2,0.2-1.8,0.2-2.8,0.3c-1-1.1-1-1.6-3.7-0.5c0-1.3,0-2.5,0-3.8
		c-2.7,0.5-3.4-0.2-3.7-2.9c-0.2-1.1-1.2-2.2-0.2-3.4c0.6-0.7,1-1.7,1.8-2.2c0.4-0.3,1.3-0.2,1.9-0.1c0.9-0.4,2.1-0.6,2.6-1.2
		c0.5-0.6,0.2-1.8,0.2-2.5c-1.3,0-2.7,0-4.2,0c-1.1,0-1.8-0.5-2-1.8c-0.1-0.7-0.6-1.4-1.1-2.2c1.5-0.6,3-1.2,4.8-1.9
		c0.2,1.8,1,2.2,2.6,1.7c-1.3-1.8-2.6-3.6-3.7-5.4c-0.2-0.4-0.6-1-0.4-1.4c0.2-0.4,0.9-0.6,1.4-0.9c0.6-0.2,1.5-0.2,1.7-0.6
		c0.7-1.8,2.1-2.6,3.6-3.3c1-0.5,2.2-0.9,3.7-1.4c1,0.5,2.4,1.5,3.9,1.8c2.2,0.5,4.6,0.7,7,0.6c1.8-0.1,3.2,0.4,3.6,2.2
		c1.5,7.5,3,15,4.6,22.8c0.7-0.2,1.4-0.4,1.9-0.5c1.2,1,2.3,1.8,3.4,2.6c0.7-0.9,1.4-2.3,2-2.3c0.9,0,1.8,1,2.6,1.7
		c0.9,0.6,1.8,1.3,2.5,2.1c1.3,1.4,2.6,2.6,4.6,2.9c1.3,0.2,1.8,2.2,1,3.8c-0.6,0.2-2-1.6-2.1,0.6c0,0-1.4,0.3-1.8,0
		c-1.1-1-2-2.2-3-3.5c-0.2,0.5-0.2,0.7-0.3,1.2c-1-1-1.7-2.1-2.6-2.8c-1.7-1.3-3.4-2.5-5.2-3.6c-2-1.2-4.2-1.1-6.6-1
		c-1.2,0.1-2.5-0.8-3.8-1.3c-0.6-0.2-1.2-0.2-1.8-0.4C32.5,170.9,32.4,171.1,32.4,171.2z"/>
	<path class="st0" d="M26.6,177.5c0.2,0.2,0.4,0.2,0.5,0.4c0.6,1.1-1.1,4-2.3,4.1c-0.3,0-0.9-0.3-1-0.6s-0.2-1,0-1.3
		c0.7-0.8,1.6-1.5,2.4-2.2C26.2,177.6,26.4,177.6,26.6,177.5z"/>
	<path class="st0" d="M7.3,162.8c-1.5,0.5-3.4-0.6-3.9-2.2C4.9,161.3,6,162,7.3,162.8z"/>
	<path class="st0" d="M7,171c0.7,0.2,1.4,0.2,2.2,0.4c-0.1,0.3-0.2,0.7-0.3,1c-0.6-0.2-1.4-0.4-2-0.6C6.9,171.6,6.9,171.2,7,171z"/>
	<path class="st0" d="M93.9,187.9c-0.8-0.2-1.8-0.6-1.4-2.3c0.1-0.4-0.1-0.9-0.3-1.3c-0.6-1.2-1-2.2,0.2-3.4
		c0.5-0.5,0.2-1.6,0.4-2.6c3.1,0.9,5.8,2.3,7.3,5.8C98.4,185.2,96.4,186.4,93.9,187.9z"/>
	<path class="st0" d="M89.4,176.1c-0.2-0.2-0.5-0.3-0.7-0.6c-0.4-0.4-0.8-0.9-1.2-1.4c-0.2-0.2-0.2-0.6-0.3-1c0.3-0.1,0.7-0.2,1-0.2
		c0.9,0.2,1.8,0.4,2.6,0.7c0.4,0.2,0.6,0.7,1,1c-0.4,0.3-0.8,0.6-1.2,0.9C90.3,175.9,89.9,176,89.4,176.1z"/>
	<path class="st0" d="M69.5,165c-0.8,0.6-1.4,1.3-1.8,1.2c-0.6-0.1-1.3-0.7-1.9-1.2c0.8-0.5,1.5-1,2.4-1.4
		C68.3,163.6,68.8,164.4,69.5,165z"/>
	<path class="st0" d="M78.6,167.6c0.1,1,0.3,1.8,0.2,2.6c0,0.2-1,0.6-1.2,0.5c-0.6-0.5-1-1.1-1.6-1.8
		C76.9,168.4,77.5,168.1,78.6,167.6z"/>
	<path class="st0" d="M120.4,159.6c0.4-0.3-0.2,1,0.6,0.7c-0.1,0.1-0.1,1.1,0.2,0.2c0.8,1.5,3.1,2.8,4,5.6c0.2,4.4,6.2,7.7,6.2,11.8
		c1.3,4.8,4.8,9.5,11,9.4c0.8,0.1,1.4,1,2.9,1h-0.1c0.8,0.6,1.8-1.5,1.3-0.5c-0.2-0.1-0.1-0.3-0.5,0.1c-0.3-1.9-2.1-4.2-1.4-9.1
		c-1,1-3.1-3.2-0.7-0.4v-0.2c0.5-0.2,1.4-1,0.4,0.2c0.7,0.6,1.6-1.5,1.8-2.8c-0.6,0.7-0.4-0.2-0.7-1c-0.1,0.1-0.6,0.3-1-0.3
		c0.9-0.5,4.2,1.9,2-1.4c0.1,0.1,0.8-0.3,0.3-0.6c1,0.9,2.2-1.8,1.8,0.3c1.4,0,0.2-2.4,1-1.8c-1.8-0.9,4.5,0.8,1.4-0.6
		c0.1-0.2-0.2-0.1,0.5-0.4c-0.3-0.6-1,0.2-1-1.3c0.1,0.2,0.5-0.4,0.6,0.4l0.2-0.2c0-0.2,0.2,1,0.4,0.2c-0.1-0.1,0.3,0.3-0.2,0.6
		c0.2,0.2-0.1,0.1,0.6-0.2c0.2,0.2-0.6-0.6-0.1-0.8c-0.1,0.2,0.5,1.3,0.8,0c0,0.1,0,0,0.1,0.3c0.1,0,0.1-0.1,0.4-0.5
		c0,0.2,0-0.1-0.2,0.9c-0.1-0.1,0.9,0.2-0.1,0.2c2.8-0.4,4.2-1.8-0.8,1.4c1-0.6,5.4-2.2,7.8-4.9c-1.6-0.4,2.4,0,1-4.7l-0.1,0.1
		c4.6-1.1-0.7,0.6,3.1,1.4c-4.2,2.5,2.6-1.4,6.1-1.8c1.8-1.2,9,3.7,9.1,0.4c1.2-4.4,5.8,5.8,10,3c-0.2-2.6,3.6,4.3,3.3-2.1
		c1.2-0.2,1,1.6,2.4,1.1c1.9,1.4,3,3.2,3.8,1c0.5-0.9-3.4-0.7-3.7-3.1c1.2-1,2.6-1.8,2.6-3.5c0.3-1.4-5.8,3.2-3.4,0.5
		c0-0.2,0.6-1.4-0.2-0.6c-0.1-0.1-0.1,0-0.1-0.3c-1.4,2.1-8.1-0.2-2-1.1c1,0.6,3.1,1.9,4.5-0.1c2-1.9,8.1,1.7,8.2-3.9
		c2.3,2.2-1.4,6.2,3.6,2.7c-1,1.2,2.4-0.2,1.5-1.6c0.7,0.8,2.9-0.2,0.2,1.5c1.3-0.9,10.1-1.7,4.2-0.8c0.5-0.2,5.6,2.3,4.7,0.9
		c-0.8,0.6-0.6-0.8,0.6-0.1c-0.1,0.2,0.1,0.2-0.2,0.5c-0.6,0.6,1.6-0.3,2.7,3.3c-0.4,0.2-0.4,0-0.5-1.3c-1.2,2.3,2.2,1,3.4,0.4
		c-1,0.8,4.6-1.7,2.7-1.6c0.2-0.2,0.4-0.5,0.9-1c0.8-1.6,11.4,6.3,11.6,9c0.2,1.6-1.9,7.1,0.9,6.9c-1.8-4.6,1,0,0.9-1.3
		c2-1.1-1.8,3.4-0.3,3.5c0.9,0.8,1.4,4.2,3.4,4.1c-1.4-1.3,0.9-1.4,0.3-0.9c0.5,2.5,0.6,2.5,3.7,7c0.1-0.9,9,5.9,3.9,4
		c0.1,2.3,3.6-0.1,5-0.1c0.6-1.4,0.2-3.1,1.2-4.8c1.3-9.4-10.4-23.5-13.8-33.8c0.1,0.3,1-4.8,0.2-2.4c-1.3-1.5,0.8,0.1-0.2-2.2
		c0.6,0,0.5-0.7,1.1-0.7c0.6-0.7-1.1-1.4,0.4-1.3c0.2-0.5,0.1-0.8-0.4-1.2c1.1-1.5,3.1-3,1.6-5.5c1.8,1.7,1.3,0.3,2.2-0.7v0.1
		c0.2-0.3,1.4,0.2,1.3-1c-0.3,0.6,6.1-4,5-6.5c0.6,1.8,0.9-3.3,3.9-4.2c0.6-1.1,3.4,0.3,3.1-2.2c0.2,2.6,2.5-6.7,3-4.6
		c-0.8,1.1,1.9,0.2,0.9-1.1c0.2,0.9,2.7,0,2.4-0.3c0.2-0.4,0.2-0.4,0.8,0.1c0.2-0.2,0.6-0.1,1.6-1.6c0.2-0.2-1.2-1.2-1.1-0.4
		c-1.2-0.3,0.5,0.7-1,0.3c0.1,0,0.5,0.5,0,0.4c-0.3-1-0.2,1.1-2.7-0.9c-0.3-1.7,2.6,3,2.9-1.7c1.4-0.3-1.1-0.8-1.7-0.6
		c-2.8-1.5,1,0.4,1.1-1c-1-0.3,0.2-0.5,0.8-0.6c-1.1,1.5,0.2,0.7,1.3,1.3c1-0.2,1.4-0.6,2-2.3c0.9,0.9,0.4-0.6,0.8-0.8
		c-0.4-0.6,0.2-1.2-1.2-1.8c0.2,0.2-0.3,0.1-0.1,0.5c-1.2-0.5,0.5,2.9-1.3,1.8c0.7,0.2,0.5-1.2,0.2-1.8c-0.6-1.5-4.2,3.8-4.5-2.2
		c0.4-0.1,1,3.9,1.9,1.6c0.9-0.2,0.5-1.1,1.6-0.6c0.6-0.5,0.6-0.4-0.3-1.1c0.6-0.3,1.9,1.3,1.1-0.3c0.6-0.1,0.5,0.9,1.3,1.3
		c0.1-1-3.6-4.1-1.4-2.8c0.1,0-0.8-2.1,0.2-0.5c-1-0.5,5.1,8.2,2.2,3.6c-1.5-1.1-2.2-8.5-5.9-5.2c-0.1-1.5-4.1-1.7-2.8-2.7
		c1,0.4,2.2,2,3.7,1.5c0-0.1,0.2-0.8-0.4-0.5v-0.1l0,0c0.5-0.6-3.4-1.2-3-2.6c2.5,3,1.5-0.2,3.1,0.9c-0.2-2.1-1.7-0.9-4.7-4.4
		c3.1,3.4,6.6,1.4,1.5-0.9c-0.9-0.2-2.1-0.2-2.7-1.6c-0.4-1.2,1.1,0.7,3.6,1.1c1.9,0.8,0.3-0.7-1.5-2.2c3.4,1.6,0.2,0.6,0.2-3.8
		c0.8,0,0.2-0.9-1-1.8c1-0.1,0.7,0.1,1.4-0.7c-0.5-0.8,0.7,0,0.6-0.8c1-0.1-0.2-1.2,1.1-1.5c0.1,0-0.1,0.3,0,0.8
		c0.5-1,1,0.5-0.7,1.3c-0.6,1.9,1.4,2.2-0.2,4.4c0.6-0.4,0.6,0.6,1.3-0.2c0.7,2.1-0.4-0.1-0.6,1.5c1.6-0.4-1.9,0.3,1.6,2
		c0-1.8,0.3,0.9,0.7-0.9c0.4,0.3,0.3,3.1,1.4,2.6c1-0.7-0.2,1.4-0.3,2.6c-0.6,0.5-0.4,6.2,0.6,1.7c0.4-5,4.3-4.6,1.6-9.5
		c0,0,1-0.2,0.2-0.5c0,0,0.2,0,0.2-0.3c2.3,1.5-5.1-4.7-3.6-6.6c-0.2,3.3,4.6,1.8,4.4,4.7c1.4-2.8,3.1-5.1,3-8.9
		c0.2,0.2,0.2,0.7,0.4,1.8c-0.1-1,0.5-3.5-0.6-5c0,0.2-0.1,0.1,0.1,0.5c-0.2-0.2-1,0.2-1.6-0.2c1.4-0.5,0.3-1.9,1.4-3.4l0.2,0.6
		c-0.1-0.1-0.1,0-0.2-0.2l0.6,0.2c-0.4-0.6,0.6-0.6,0.5-1.7c1,0.2,3.2-2.9,3.8-2.5c0.6-0.6,2.6-0.2,2.7-1.2c0.9,0.5,1-0.2,2.7-0.7
		v0.2c0.4-0.2,0.9-0.3,1.8-1.3c0.1,0.9,0.5-3.8,0.7-0.5c0.6,1,0.5-1.2,0.8-0.2c0.1,0,0.2-0.3,0.5-0.7c-0.1,0.1,0.6,0.6,0.5,0
		c0.4,0.3,1.6-4.2,1.8-0.6c1.8-0.4,6.1-4,1.4-4c3.8,0.1-0.9,4.7-2,0.6c-0.3-0.6-0.8-1.2-2-1.6c0.3,1.1-1.5,0-0.7-0.5
		c2.2-4.5,0.3,1,0.2-5.4c1.4-0.5,0.6-5.8,2.6-6.2c0.9-1.1-0.2,2,1.7-1.3c1.2,0.9,0.1-0.7,1.8-1c0,2.8,1.3-7.3,1.4-3.5
		c0.2,0.2,0.3-0.7,0.6,0.1c0.1,0.1-0.8-0.2-0.4,0.3c-0.7,0.1,0.7,0.5,0.9,0.3c0.5,0.2,0.6-0.1,0.1-0.9c0.2-0.2,0.4-0.2,0.5-0.9
		c0.1,0.4,0.7,0.9,0.7-0.3c0.5,0.3,1-0.6,1.5,0.9c0.2-0.2,0.2-0.5,0.2-1.2c0.3,0.6,0.7,0.2,0.6-0.7c0.3-0.2,1.6,0.6,1.3-0.9
		c0,0.1,0.1-0.1,0.4,0.1c-0.1,0.2,0.2-0.9,0.2-0.1c0.4,0.2,0-1.6,0.6-0.5c0.5,0,1-0.8,1.1-1.8c-2,0.5,0.6-1.6-2-2.2
		c-1.3,1.6-0.6-2.5-3.1-2.7c-2.5-1.1-0.3-9-5.4-10.7c-5.9,5.5-4.6-7.2-7.8,8.8c-1.3,4.2,0.6,8.1-4.8,9.9c1.1,6.1-20.6-0.7-22.4,13.9
		l-0.2,0.3c0,1.6,1.8,2.5-3,5.9c-0.2-0.2-2.2-0.3-3,0.7c-1-1-9.9-0.9-7.3,3.3c2.1,0.6-1.4,4.2-5.2,6.9c-0.1,0,0.2-0.1,0.1-0.3
		c-7.4,4.5-7.8,8.3-18,6.1c0.2,0.2,3.1-10.3,3.9-7c1-2.4-0.6-17.4-6.7-6.6c-3.8-2.3,1.9-1.5,1.2-10.7c-8.3-7-9-5.1-11.9,3.1
		c-0.5-0.6,0.1-2,0.1-3.1c-2.2,2.2-4,5.3-4,9.5c-1,4.4,4.7,6.5,0.4,14.6c-7.7,10.1-9.4-13.6-4.6-22.4c0.9-0.4,0.5-3.2-0.2-0.7
		c-0.6-0.1-1,1.3-1.1,2.5c-1.1-1-1.4,1.4-3.2,2.6c-0.8,0.8,5.4-13,4.8-8.9c4-3.8-0.6,2.2,3.1-0.9c1.3-3.2,8.2-1.8,12.5-2.6
		c-2.9-5.4-7.1-0.5-5.9-5c-5.3,0.3-10.3,5.8-14.2,0.8c-1.8-0.6-2.1-1.5-3.8,0.8c-0.2-0.3,0.2-1,0-1.8c1-0.4,1.2-2.6,3.2-3.1
		c-3.5-1.4-9.9,8.1-15.8,6.6c2.8-5.5-3,0.9-6.1-0.8c1.4-1.8,7.7-7.5,13-9.6c-6.2-1-11.4,0.2-16.2-2.6c1-2.7-6.2,1.2-9.9-2.6
		c-0.3-1.1,0.1-4.1-2.3-3.8c-38.1,8.2-91.6-6.2-134.7-16v0.2c-1,0.2,0.7,1.7,0.6,2C26,5.4,26,7.2,25,6.8c0.2-0.9-1.1,0.3,0.1,0.2
		c0.8,0.8-0.2,2.3,1,3.1c-0.6,0.3-1.1,1.2-1.8,2.2c0.2,0.6-0.1,1.8-0.7,2.9c0,0-0.2-0.1-0.5-0.6c0.2-0.4-0.9,1.4-1.4,0.1L21.6,15
		c-0.1,0.1,0.2-0.2-0.3-0.2c-0.1,0.2,0,0.1-0.2,0.7c-0.4,0.2,0.3-0.6-0.5-0.5c0.1,0,0,0,0.5-0.4c-0.2-0.1-0.1-0.2-0.7,0.2
		c0,0-0.1-0.2,0.5-0.5l-0.5-0.2c0,0.2,0-0.4,0.4-0.2l-0.2,0.2c0.2,0.1,1-0.2,1.4-0.9c0.2,1-1,2,1,0.2c0,0.2-0.8,0.6,0.1,1
		c-0.2-1,1.8-1.3,0.1-2.2c0-0.1-0.2-0.1,0-0.4c0.6,0.6,0.2,0.1,0.5-0.7c0-0.2,0.1,0.7,0.5,0c0.2,0.6,0.8-0.6,0-1.4
		c0,0,0.2,0.1,0.1,0.8c0.6-0.5-5.9,2.8-2.1,2.3c-3,0.9-0.7-1,0.6-2.7l0.1,0.1c0-0.1,0.1,0.1,0.2-0.4c0,0.2,0.2,0.2-0.1,0.6
		c0.6-0.3,1.4-0.8,1-2.2l-0.1,0.5l-0.1-0.2l-0.2,0.2c0.1-1,0.3-0.9-0.6,0.1c0,0,0.3-0.4-0.2-0.8c-0.1,0,0.1,0.1-0.2,0.3
		c-0.5-1.4-3.5-1.3-7.5-4.8c-1,3,0.7,6.2-0.1,10.5c0.5-0.5,0.3-0.5,1.6,0.4c0.2,0.2-1.3-0.2-1.4,0.6c-0.2,0,0-0.2-0.3-0.6
		c-0.3,1-0.1,1.3,1,1.8c-0.1-0.2-0.3,0.3-0.8,0.4c-0.2-0.4,0.4,1.6-0.8,1.6c-0.2,0.2,0.5-0.8,0.2-1.9c-0.2,0.2-0.4,1.2-0.6,2.3
		c0.4,0.4,2.8,0.3,3,1.7c-0.5-0.6-1.1,0-2.2-0.6c0,0,0.1,0.1,0.2,0.4c-0.3,0.2-0.2-0.6-1-0.7c0.5,1.5-1.2,2.9-0.9,5.3
		c-2.7,7.1-10.8,17.5-9.1,27l-0.2-0.1c0.2,0.8-0.3,1.1-0.9,2.5l-0.2-0.2c0.3,3.1-5,1.7-1.3,10.7c-2.4,3.7,1.2,9.6,1.4,12.1
		C3,77,1.4,78.9,2.8,77.8c0,0.4,0.5,0.7,1,1.4c1.4,1.2,1,0.9,1.5-1.1c-0.1,0-0.1,0-0.2-0.2c0.8,0,1.1,0.1,1.8,1.2
		c-0.2-0.1,0-0.1-0.6-0.2h0.1c-1.7-0.1-0.6,2.7,0.3,4.6c-0.4,0.2-2.6-1.8-1.6-2.4c-0.1-0.2,0.2-0.5-0.3-0.7
		c-1.9,2.3-0.9,5.1,1.7,7.8c-4.1,3.1,2.6,9,2.2,12.4c3.7,3-4.6,5.1,5.3,7.9c5.1,4,12.2,9,12.2,16.4c-0.5-0.2-0.2-0.9-0.3,0.6
		c4.3,0.5,9.1,1,14.6,1.6c-3.6,0.6,17.7,15.4,31.8,15.7c5.8,2,10.5-5.2,18.2-0.1c1.4,3.5,5.7,5.8,8.2,9.6c0.9,1.8,0,7,5.9,9.9
		c2.3,0.6,2.3,3.6,5.8,0.5c-0.2-0.6,0.6-1.6,1-2.8l0.2,0.1c1.3-2.5,4.7-1,7.7-0.6C119.9,159.2,120,159.7,120.4,159.6z"/>
	<path class="st0" d="M294.6,59.1c-0.3,0.1-0.3,0-1-0.1c-0.2-0.8-0.2,0.9-1,0.9C292.4,60.4,294.4,59.8,294.6,59.1z"/>
	<path class="st0" d="M296.9,59.4c-1.4-0.2-0.2,0.9,0.6-0.2c-0.2-0.4-1-0.8-0.4-0.2C297.1,59.1,297.2,59.2,296.9,59.4z"/>
	<polygon class="st0" points="276.9,67.6 276.8,67.5 276.9,67.4 276.8,67.4 276.8,67.4 276.7,67.7 276.6,68 276.5,68.4 276.6,68.4
		276.7,68.4 276.8,68.2 276.8,68.1 276.8,68 276.8,67.8 276.9,67.7 	"/>
	<polygon class="st0" points="275.5,70.3 275.7,70.2 276,70 276,69.8 276.2,69.6 276.4,69.3 276.5,69.2 276.2,68.8 275.7,69.2 	"/>
	<path class="st0" d="M284.5,65.2l0.2,0.2c-0.1,0,0.1,0.2-0.4,0.2c-0.6-0.6,0.1-1.3,1.1-2.5c-1.4,1.7-4.9,2.5-6.3,3.4
		c0-0.3-0.8-0.2-0.7,0.6c-0.4-0.6-0.3,0.9-0.8,0.3c-2.8,3.1,1.8,0.2-0.2,1.8c1-0.4,2.6-1.3,3.8-2.2c1.8-0.4,4.4-2.6-0.1,0.9
		c1.5-0.9,9.7-6.1,4.1-3.9C284.9,64.4,285,64.8,284.5,65.2z"/>
	<path class="st0" d="M23.3,4.4c0,0,0.1,0.2,0.3,0.5c-0.2,0,0,0.2-0.2,0.6C22.9,5.6,22.6,3.2,23.3,4.4z"/>
	<path class="st0" d="M24,5.9c0-0.3-0.5-0.5,0.2-1C24,5.2,24.7,6,24,5.9z"/>
	<path class="st0" d="M24.6,4.5c-0.2,0.1,0.1-0.2-0.3-0.6c0,0.1-0.1,0,0,0.6c-0.2,0.2,0-0.4-0.6-0.2c-0.1-0.2,0.2-0.3,0.6-0.7
		C24.4,3.7,25.4,4.1,24.6,4.5z"/>
	<path class="st0" d="M24.2,7.6c0.1-0.1-0.2,0.2,0.4,0.3c-0.7,1.4,2.6,3.8-0.3-0.6c-0.1-0.2,0.2,0.2,0.4-0.3
		c0.1,0.2,0.1,0.2,0.7,0.2c0.2-0.1-0.3-0.4-0.2-0.7C25.2,6.3,23.8,6.5,24.2,7.6z"/>
</g>
<g id="const">
	<polyline class="st1" points="289.6,52.7 285.7,54.1 281.9,55.5 278,56.8 274.1,58.2 270.2,59.6 266.3,60.8 262.3,62.1 258.4,63.3
		254.4,64.5 250.4,65.7 246.4,66.8 242.4,68 238.4,69.1 234.4,70.1 230.3,71.2 226.3,72.1 222.2,73.1 218.1,74 214,74.9 209.9,75.8
		205.8,76.7 201.7,77.5 197.6,78.3 193.4,79 189.3,79.7 185.2,80.4 181,81.1 176.8,81.7 172.6,82.4 168.4,82.9 164.2,83.4 160,84
		155.8,84.4 151.6,84.8 147.4,85.2 143.2,85.6 138.9,86 134.7,86.3 130.4,86.6 126.1,86.8 121.9,87.1 117.6,87.2 113.3,87.4
		109.1,87.5 104.8,87.6 100.5,87.6 96.2,87.6 92,87.6 87.6,87.6 83.3,87.6 79,87.4 74.8,87.3 70.4,87.2 66.1,86.9 61.8,86.7
		57.5,86.4 53.2,86.1 48.8,85.8 44.5,85.4 40.2,85 35.9,84.5 31.6,84 27.2,83.6 22.9,83 18.6,82.4 14.3,81.9 10,81.2 5.6,80.5 	"/>
	<polyline class="st1" points="247.7,57.6 243.8,58.8 239.9,60 236,61.2 232,62.4 228.1,63.6 224.1,64.7 220.2,65.8 216.2,66.8
		212.2,67.9 208.2,68.8 204.2,69.9 200.1,70.8 196.1,71.7 192,72.6 188,73.5 183.9,74.3 179.8,75.1 175.7,75.9 171.6,76.6
		167.5,77.3 163.3,78 159.2,78.6 155.1,79.2 150.9,79.8 146.7,80.4 142.5,80.9 138.4,81.4 134.2,81.8 130,82.3 125.7,82.7 121.6,83
		117.3,83.4 113.1,83.6 108.8,84 104.6,84.2 100.4,84.4 96,84.5 91.8,84.7 87.6,84.8 83.2,84.8 79,84.9 74.7,84.9 70.4,84.8
		66.1,84.8 61.8,84.8 57.5,84.6 53.2,84.4 48.9,84.3 44.6,84 40.3,83.8 36,83.5 31.6,83.2 27.3,82.8 23,82.4 18.7,82 14.4,81.6
		10,81.1 5.6,80.5 	"/>
	<polyline class="st1" points="225.2,64.3 221.2,65.4 217.2,66.5 213.2,67.6 209.1,68.6 205.1,69.6 201,70.5 197,71.5 192.9,72.4
		188.8,73.2 184.7,74 180.6,74.8 176.5,75.6 172.4,76.4 168.2,77.1 164,77.8 159.9,78.4 155.7,79.1 151.6,79.6 147.4,80.2
		143.2,80.8 139,81.2 134.8,81.7 130.5,82.2 126.4,82.6 122.1,82.9 117.9,83.2 113.6,83.6 109.3,83.9 105.1,84.1 100.8,84.3
		96.5,84.5 92.2,84.6 88,84.8 83.6,84.8 79.3,84.8 75.1,84.8 70.8,84.8 66.4,84.8 62.1,84.7 57.8,84.6 53.5,84.4 49.1,84.3 44.8,84
		40.4,83.8 36.1,83.5 31.7,83.2 27.4,82.8 23.1,82.4 18.7,82 14.4,81.6 10,81.1 5.6,80.5 	"/>
	<polyline class="st1" points="13.7,35.5 15.6,31.6 17.4,27.7 19.2,23.9 21.1,20 22.8,16.1 24.7,12.3 	"/>
	<polyline class="st1" points="199,62.2 195.1,63.3 191.1,64.4 187.1,65.4 183.1,66.4 179.1,67.4 175.1,68.4 171,69.3 166.9,70.2
		162.9,71 158.8,71.9 154.8,72.7 150.6,73.4 146.5,74.2 142.4,74.8 138.3,75.6 134.1,76.2 130,76.8 125.8,77.4 121.6,78 117.4,78.4
		113.2,78.9 109,79.4 104.8,79.8 100.5,80.2 96.3,80.6 92,80.9 87.8,81.2 83.6,81.5 79.2,81.7 75,81.9 70.7,82 66.4,82.2 62.1,82.3
		57.8,82.4 53.5,82.4 49.2,82.4 44.8,82.4 40.5,82.3 36.2,82.2 31.8,82 27.5,81.9 23.1,81.7 18.8,81.5 14.4,81.2 10,80.8 5.6,80.5
		"/>
	<polyline class="st1" points="170.4,49.6 166.7,50.9 162.8,52.2 159,53.5 155.2,54.8 151.3,56 147.4,57.2 143.5,58.4 139.6,59.6
		135.6,60.7 131.6,61.8 127.6,62.8 123.6,63.9 119.6,64.9 115.6,65.9 111.6,66.8 107.5,67.8 103.4,68.7 99.3,69.6 95.2,70.4
		91.1,71.2 86.9,72 82.8,72.7 78.6,73.4 74.4,74.1 70.2,74.8 66,75.3 61.8,76 57.6,76.5 53.3,77 49,77.5 44.8,78 40.4,78.4
		36.1,78.8 31.8,79.1 27.5,79.4 23.2,79.7 18.8,80 14.4,80.2 10,80.4 5.6,80.5 	"/>
	<polyline class="st1" points="281.6,62.6 277.2,62.5 272.8,62.4 268.4,62.3 264,62.1 259.6,61.9 255.2,61.6 250.9,61.3 246.6,61
		242.3,60.7 238,60.3 233.6,59.9 229.3,59.4 225,58.9 220.8,58.4 216.5,57.8 212.3,57.2 208,56.6 203.8,56 199.6,55.2 195.4,54.5
		191.2,53.8 187,53 182.8,52.2 178.8,51.3 174.6,50.4 170.4,49.6 	"/>
	<polyline class="st1" points="244.6,76.4 248.5,74.5 252.4,72.7 256.2,70.8 260,68.9 263.8,66.9 267.6,65 271.3,63 275,61
		278.7,58.9 282.4,56.8 286,54.8 289.6,52.7 	"/>
	<line class="st1" x1="289.2" y1="57.6" x2="289.6" y2="52.7"/>
	<polyline class="st1" points="188.3,95 184.1,95.3 180,95.6 175.8,95.9 171.6,96.1 167.5,96.4 163.3,96.5 159.2,96.6 155,96.8
		150.8,96.8 146.7,96.8 142.5,96.9 138.4,96.9 134.1,96.8 130,96.8 125.8,96.7 121.6,96.5 117.5,96.4 113.3,96.2 109.2,96 105,95.7
		100.8,95.4 96.6,95.2 92.4,94.8 88.3,94.4 84.1,94 80,93.6 75.8,93.1 71.6,92.6 67.5,92 63.3,91.6 59.2,90.9 55.1,90.3 50.9,89.6
		46.8,89 42.7,88.3 38.5,87.6 34.4,86.8 30.3,86 26.1,85.2 22,84.3 18,83.4 13.9,82.4 9.7,81.6 5.6,80.5 	"/>
	<polyline class="st1" points="26.5,123.6 24.4,119.7 22.4,115.8 20.4,111.9 18.4,108 16.5,104.1 14.7,100.2 12.8,96.3 10.9,92.4
		9.2,88.4 7.4,84.5 5.6,80.5 	"/>
	<polyline class="st1" points="5.6,80.5 10,81.1 14.4,81.6 18.7,82 23.1,82.4 27.4,82.8 31.7,83.2 36.1,83.5 40.4,83.8 44.8,84
		49.1,84.3 53.5,84.4 57.8,84.6 62.1,84.7 66.4,84.8 70.8,84.8 75.1,84.8 79.3,84.8 83.6,84.8 88,84.8 92.2,84.6 96.5,84.5
		100.8,84.3 105.1,84.1 109.3,83.9 113.6,83.6 117.9,83.2 122.1,82.9 126.4,82.6 130.5,82.2 134.8,81.7 139,81.2 143.2,80.8
		147.4,80.2 151.6,79.6 155.7,79.1 159.9,78.4 164,77.8 168.2,77.1 172.4,76.4 176.5,75.6 180.6,74.8 184.7,74 188.8,73.2
		192.9,72.4 197,71.5 201,70.5 205.1,69.6 209.1,68.6 213.2,67.6 217.2,66.5 221.2,65.4 225.2,64.3 	"/>
	<polyline class="st1" points="5.6,80.5 10,81.2 14.3,81.9 18.6,82.4 22.9,83 27.2,83.6 31.6,84 35.9,84.5 40.2,85 44.5,85.4
		48.8,85.8 53.2,86.1 57.5,86.4 61.8,86.7 66.1,86.9 70.4,87.2 74.8,87.3 79,87.4 83.3,87.6 87.6,87.6 92,87.6 96.2,87.6
		100.5,87.6 104.8,87.6 109.1,87.5 113.3,87.4 117.6,87.2 121.9,87.1 126.1,86.8 130.4,86.6 134.7,86.3 138.9,86 143.2,85.6
		147.4,85.2 151.6,84.8 155.8,84.4 160,84 164.2,83.4 168.4,82.9 172.6,82.4 176.8,81.7 181,81.1 185.2,80.4 189.3,79.7 193.4,79
		197.6,78.3 201.7,77.5 205.8,76.7 209.9,75.8 214,74.9 218.1,74 222.2,73.1 226.3,72.1 230.3,71.2 234.4,70.1 238.4,69.1 242.4,68
		246.4,66.8 250.4,65.7 254.4,64.5 258.4,63.3 262.3,62.1 266.3,60.8 270.2,59.6 274.1,58.2 278,56.8 281.9,55.5 285.7,54.1
		289.6,52.7 	"/>
	<polyline class="st1" points="5.6,80.5 10,80.4 14.4,80.2 18.8,80 23.2,79.7 27.5,79.4 31.8,79.1 36.1,78.8 40.4,78.4 44.8,78
		49,77.5 53.3,77 57.6,76.5 61.8,76 66,75.3 70.2,74.8 74.4,74.1 78.6,73.4 82.8,72.7 86.9,72 91.1,71.2 95.2,70.4 99.3,69.6
		103.4,68.7 107.5,67.8 111.6,66.8 115.6,65.9 119.6,64.9 123.6,63.9 127.6,62.8 131.6,61.8 135.6,60.7 139.6,59.6 143.5,58.4
		147.4,57.2 151.3,56 155.2,54.8 159,53.5 162.8,52.2 166.7,50.9 170.4,49.6 	"/>
	<polyline class="st1" points="24.7,12.3 23.6,16.2 22.4,20.2 21.4,24.1 20.3,28.1 19.2,32.1 18,36.1 16.9,40.1 15.8,44.2
		14.7,48.2 13.6,52.2 12.4,56.3 11.3,60.3 10.2,64.4 9.1,68.4 8,72.4 6.8,76.5 5.6,80.5 	"/>
	<text transform="matrix(0.9868 0 0 1 221.1294 60.9932)" class="st2 st3 st4">●</text>
	<ellipse class="st2" cx="225" cy="64.1" rx="2.9" ry="2.9"/>
	<ellipse class="st2" cx="221.6" cy="59.9" rx="2.9" ry="2.9"/>
	<ellipse class="st2" cx="198.9" cy="62.6" rx="2.9" ry="2.9"/>
	<ellipse class="st2" cx="171.1" cy="49.2" rx="2.9" ry="2.9"/>
	<ellipse class="st2" cx="221.8" cy="84.4" rx="2.9" ry="2.9"/>
	<ellipse class="st2" cx="188.8" cy="94.8" rx="2.9" ry="2.9"/>
	<ellipse class="st2" cx="26.5" cy="124.1" rx="2.9" ry="2.9"/>
	<ellipse class="st2" cx="5.2" cy="80.6" rx="2.9" ry="2.9"/>
	<ellipse class="st2" cx="24.4" cy="12.3" rx="2.9" ry="2.9"/>
	<ellipse class="st2" cx="13.7" cy="35.5" rx="2.9" ry="2.9"/>
	<ellipse class="st2" cx="244.9" cy="75.9" rx="2.9" ry="2.9"/>
	<ellipse class="st2" cx="248" cy="57.9" rx="2.9" ry="2.9"/>
	<ellipse class="st2" cx="289.1" cy="52" rx="2.9" ry="2.9"/>
	<ellipse class="st2" cx="281.4" cy="55.4" rx="2.9" ry="2.9"/>
	<ellipse class="st2" cx="288.8" cy="59.1" rx="2.9" ry="2.9"/>
	<ellipse class="st2" cx="281.6" cy="63.2" rx="2.9" ry="2.9"/>
</g>
<rect x="344.1" y="30.6" class="st5" width="294.8" height="131.7"/>
<text transform="matrix(1 0 0 1 361.1692 75.6189)" class="st2 st6 st7">Collective </text>
<text transform="matrix(1 0 0 1 348.6692 147.6189)" class="st2 st6 st7">Bargaining</text>
</svg>
