<?xml version="1.0" encoding="utf-8"?>
<!-- Generator: Adobe Illustrator 23.1.1, SVG Export Plug-In . SVG Version: 6.00 Build 0)  -->
<svg version="1.1" id="Layer_1" xmlns="http://www.w3.org/2000/svg" xmlns:xlink="http://www.w3.org/1999/xlink" x="0px" y="0px"
	 viewBox="0 0 643 193.7" style="enable-background:new 0 0 643 193.7;" xml:space="preserve">
<style type="text/css">
	.st0{fill:#707589;}
	.st1{fill:none;stroke:#FFFFFF;stroke-width:0.8;stroke-linejoin:round;stroke-miterlimit:10;}
	.st2{fill:#FFFFFF;}
	.st3{font-family:'Roboto';}
	.st4{font-size:60px;}
</style>
<g id="map">
	<path class="st0" d="M35.7,172.6c0.6,1.1,0.5,1.8-0.9,2.2c-0.9,0.3-1.7,1-2.5,1.5c-0.5,0.3-1,0.5-1.7,0.8c0.2-2.2,0-4.2,2-5.4
		c-1.3,0.1-1.8,0.6-2.6,2.2c-0.6,1-1.4,2-2.1,3.2c0.2,0.2,0.6,0.4,1.1,0.9c-3.4,3.6-7,6.7-11.4,9.1c-0.5-0.6-1.2-0.4-2.2,0.2
		c-1.2,0.7-2.8,1-4.2,1.4c-0.1-0.2-0.2-0.4-0.3-0.6c0.6-0.4,1.4-0.7,2-1.1c0.6-0.3,1.4-0.6,2.1-1c0.5-0.2,0.8-0.8,1.3-0.8
		c2.3-0.2,3.8-1.8,5.3-3.3c0.8-0.9,1.1-2.1,1.9-3.6c-1.2,0.2-1.8,0.2-2.8,0.3c-1-1.1-1-1.6-3.7-0.5c0-1.3,0-2.5,0-3.8
		c-2.7,0.5-3.4-0.2-3.7-2.9c-0.2-1.1-1.2-2.2-0.2-3.4c0.6-0.7,1-1.7,1.8-2.2c0.4-0.3,1.3-0.2,1.9-0.1c0.9-0.4,2.1-0.6,2.6-1.2
		c0.5-0.6,0.2-1.8,0.2-2.5c-1.3,0-2.7,0-4.2,0c-1.1,0-1.8-0.5-2-1.8c-0.1-0.7-0.6-1.4-1.1-2.2c1.5-0.6,3-1.2,4.8-1.9
		c0.2,1.8,1,2.2,2.6,1.7c-1.3-1.8-2.6-3.6-3.7-5.4c-0.2-0.4-0.6-1-0.4-1.4c0.2-0.4,0.9-0.6,1.4-0.9c0.6-0.2,1.5-0.2,1.7-0.6
		c0.7-1.8,2.1-2.6,3.6-3.3c1-0.5,2.2-0.9,3.7-1.4c1,0.5,2.4,1.5,3.9,1.8c2.2,0.5,4.6,0.7,7,0.6c1.8-0.1,3.2,0.4,3.6,2.2
		c1.5,7.5,3,15,4.6,22.8c0.7-0.2,1.4-0.4,1.9-0.5c1.2,1,2.3,1.8,3.4,2.6c0.7-0.9,1.4-2.3,2-2.3c0.9,0,1.8,1,2.6,1.7
		c0.9,0.6,1.8,1.3,2.5,2.1c1.3,1.4,2.6,2.6,4.6,2.9c1.3,0.2,1.8,2.2,1,3.8c-0.6,0.2-2-1.6-2.1,0.6c0,0-1.4,0.3-1.8,0
		c-1.1-1-2-2.2-3-3.5c-0.2,0.5-0.2,0.7-0.3,1.2c-1-1-1.7-2.1-2.6-2.8c-1.7-1.3-3.4-2.5-5.2-3.6c-2-1.2-4.2-1.1-6.6-1
		c-1.2,0.1-2.5-0.8-3.8-1.3c-0.6-0.2-1.2-0.2-1.8-0.4C35.8,172.2,35.8,172.4,35.7,172.6z"/>
	<path class="st0" d="M29.9,178.8c0.2,0.2,0.4,0.2,0.5,0.4c0.6,1.1-1.1,4-2.3,4.1c-0.3,0-0.9-0.3-1-0.6c-0.2-0.3-0.2-1,0-1.3
		c0.7-0.8,1.6-1.5,2.4-2.2C29.5,179,29.7,179,29.9,178.8z"/>
	<path class="st0" d="M10.6,164.1c-1.5,0.5-3.4-0.6-3.9-2.2C8.2,162.6,9.3,163.3,10.6,164.1z"/>
	<path class="st0" d="M10.3,172.3c0.7,0.2,1.4,0.2,2.2,0.4c-0.1,0.3-0.2,0.7-0.3,1c-0.6-0.2-1.4-0.4-2-0.6
		C10.2,172.9,10.2,172.6,10.3,172.3z"/>
	<path class="st0" d="M97.2,189.2c-0.8-0.2-1.8-0.6-1.4-2.3c0.1-0.4-0.1-0.9-0.3-1.3c-0.6-1.2-1-2.2,0.2-3.4
		c0.5-0.5,0.2-1.6,0.4-2.6c3.1,0.9,5.8,2.3,7.3,5.8C101.7,186.6,99.7,187.8,97.2,189.2z"/>
	<path class="st0" d="M92.7,177.4c-0.2-0.2-0.5-0.3-0.7-0.6c-0.4-0.4-0.8-0.9-1.2-1.4c-0.2-0.2-0.2-0.6-0.3-1c0.3-0.1,0.7-0.2,1-0.2
		c0.9,0.2,1.8,0.4,2.6,0.7c0.4,0.2,0.6,0.7,1,1c-0.4,0.3-0.8,0.6-1.2,0.9C93.6,177.3,93.2,177.3,92.7,177.4z"/>
	<path class="st0" d="M72.7,166.3c-0.8,0.6-1.4,1.3-1.8,1.2c-0.6-0.1-1.3-0.7-1.9-1.2c0.8-0.5,1.5-1,2.4-1.4
		C71.6,165,72.1,165.8,72.7,166.3z"/>
	<path class="st0" d="M81.9,168.9c0.1,1,0.3,1.8,0.2,2.6c0,0.2-1,0.6-1.2,0.5c-0.6-0.5-1-1.1-1.6-1.8
		C80.2,169.8,80.8,169.4,81.9,168.9z"/>
	<path class="st0" d="M123.8,160.9c0.4-0.3-0.2,1,0.6,0.7c-0.1,0.1-0.1,1.1,0.2,0.2c0.8,1.5,3.1,2.8,4,5.6c0.2,4.4,6.2,7.7,6.2,11.8
		c1.3,4.8,4.8,9.5,11,9.4c0.8,0.1,1.4,1,2.9,1h-0.1c0.8,0.6,1.8-1.5,1.3-0.5c-0.2-0.1-0.1-0.3-0.5,0.1c-0.3-1.9-2.1-4.2-1.4-9.1
		c-1,1-3.1-3.2-0.7-0.4l-0.1-0.2c0.5-0.2,1.4-1,0.4,0.2c0.7,0.6,1.6-1.5,1.8-2.9c-0.6,0.7-0.4-0.2-0.7-1c-0.1,0.1-0.6,0.3-1-0.3
		c0.9-0.5,4.2,1.9,2-1.4c0.1,0.1,0.8-0.3,0.3-0.6c1,0.9,2.2-1.8,1.8,0.3c1.4,0,0.2-2.4,1-1.8c-1.8-0.9,4.5,0.8,1.4-0.6
		c0.1-0.2-0.2-0.1,0.5-0.4c-0.3-0.6-1,0.2-1-1.3c0.1,0.2,0.5-0.4,0.6,0.4l0.2-0.1c0-0.2,0.2,1,0.4,0.2c-0.1-0.1,0.3,0.3-0.2,0.6
		c0.2,0.2-0.1,0.1,0.6-0.2c0.2,0.2-0.6-0.6-0.1-0.8c-0.1,0.2,0.5,1.3,0.8,0c0,0.1,0,0,0.1,0.3c0.1,0,0.1-0.1,0.4-0.5
		c0,0.2,0-0.1-0.2,0.9c-0.1-0.1,0.9,0.2-0.1,0.2c2.8-0.4,4.2-1.8-0.8,1.4c1-0.6,5.4-2.2,7.8-4.9c-1.6-0.4,2.4,0,1-4.7l-0.1,0.1
		c4.6-1.1-0.7,0.6,3.1,1.4c-4.2,2.5,2.6-1.4,6.1-1.8c1.8-1.2,9,3.7,9.1,0.4c1.2-4.4,5.8,5.8,10,3c-0.2-2.6,3.6,4.3,3.3-2.1
		c1.2-0.2,1,1.6,2.4,1.1c1.9,1.4,3,3.2,3.8,1c0.5-0.9-3.4-0.7-3.7-3.1c1.2-1,2.6-1.8,2.6-3.5c0.3-1.4-5.8,3.2-3.4,0.5
		c0-0.2,0.6-1.4-0.2-0.6c-0.1-0.1-0.1,0-0.1-0.3c-1.4,2.1-8.1-0.2-2-1.1c1,0.6,3.1,1.9,4.5-0.1c2-1.9,8.1,1.7,8.2-3.9
		c2.3,2.2-1.4,6.2,3.6,2.7c-1,1.2,2.4-0.2,1.5-1.6c0.7,0.8,2.9-0.2,0.2,1.5c1.3-0.9,10.1-1.7,4.2-0.8c0.5-0.2,5.6,2.3,4.7,0.9
		c-0.8,0.6-0.6-0.8,0.6-0.1c-0.1,0.2,0.1,0.2-0.2,0.5c-0.6,0.6,1.6-0.3,2.7,3.3c-0.4,0.2-0.4,0-0.5-1.3c-1.2,2.3,2.2,1,3.4,0.4
		c-1,0.8,4.6-1.7,2.7-1.6c0.2-0.2,0.4-0.5,0.9-1c0.8-1.6,11.4,6.3,11.6,9c0.2,1.6-1.9,7.1,0.9,6.9c-1.8-4.6,1,0,0.9-1.3
		c2-1.1-1.8,3.4-0.3,3.5c0.9,0.8,1.4,4.2,3.4,4.1c-1.4-1.3,0.9-1.4,0.3-0.9c0.5,2.5,0.6,2.5,3.7,7c0.1-0.9,9,5.9,3.9,4
		c0.1,2.3,3.6-0.1,5-0.1c0.6-1.4,0.2-3.1,1.2-4.8c1.3-9.4-10.4-23.5-13.8-33.8c0.1,0.3,1-4.8,0.2-2.4c-1.3-1.5,0.8,0.1-0.2-2.2
		c0.6,0,0.5-0.7,1.1-0.7c0.6-0.7-1.1-1.4,0.4-1.3c0.2-0.5,0.1-0.8-0.4-1.2c1.1-1.5,3.1-3,1.6-5.5c1.8,1.7,1.3,0.3,2.2-0.7v0.1
		c0.2-0.3,1.4,0.2,1.3-1c-0.3,0.6,6.1-4,5-6.5c0.6,1.8,0.9-3.3,3.9-4.2c0.6-1.1,3.4,0.3,3.1-2.2c0.2,2.6,2.5-6.7,3-4.6
		c-0.8,1.1,1.9,0.2,0.9-1.1c0.2,0.9,2.7,0,2.4-0.3c0.2-0.4,0.2-0.4,0.8,0.1c0.2-0.2,0.6-0.1,1.6-1.6c0.2-0.2-1.2-1.2-1.1-0.4
		c-1.2-0.3,0.5,0.7-1,0.3c0.1,0,0.5,0.5,0,0.4c-0.3-1-0.2,1.1-2.7-0.9c-0.3-1.7,2.6,3,2.9-1.7c1.4-0.3-1.1-0.8-1.7-0.6
		c-2.8-1.5,1,0.4,1.1-1c-1-0.3,0.2-0.5,0.8-0.6c-1.1,1.5,0.2,0.7,1.3,1.3c1-0.2,1.4-0.6,2-2.3c0.9,0.9,0.4-0.6,0.8-0.8
		c-0.4-0.6,0.2-1.2-1.2-1.8c0.2,0.2-0.3,0.1-0.1,0.5c-1.2-0.5,0.5,2.9-1.3,1.8c0.7,0.2,0.5-1.2,0.2-1.8c-0.6-1.5-4.2,3.8-4.5-2.2
		c0.4-0.1,1,3.9,1.9,1.6c0.9-0.2,0.5-1.1,1.6-0.6c0.6-0.5,0.6-0.4-0.3-1.1c0.6-0.3,1.9,1.3,1.1-0.3c0.6-0.1,0.5,0.9,1.3,1.3
		c0.1-1-3.6-4.1-1.4-2.8c0.1,0-0.8-2.1,0.2-0.5c-1-0.5,5.1,8.2,2.2,3.6c-1.5-1.1-2.2-8.5-5.9-5.2c-0.1-1.5-4.1-1.7-2.8-2.7
		c1,0.4,2.2,2,3.7,1.5c0-0.1,0.2-0.8-0.4-0.5v-0.1l0,0c0.5-0.6-3.4-1.2-3-2.6c2.5,3,1.5-0.2,3.1,0.9c-0.2-2.1-1.7-0.9-4.7-4.4
		c3.1,3.4,6.6,1.4,1.5-0.9c-0.9-0.2-2.1-0.2-2.7-1.6c-0.4-1.2,1.1,0.7,3.6,1.1c1.9,0.8,0.3-0.7-1.5-2.2c3.4,1.6,0.2,0.6,0.2-3.8
		c0.8,0,0.2-0.9-1-1.8c1-0.1,0.7,0.1,1.4-0.7c-0.5-0.8,0.7,0,0.6-0.8c1-0.1-0.2-1.2,1.1-1.5c0.1,0-0.1,0.3,0,0.8
		c0.5-1,1,0.5-0.7,1.3c-0.6,1.9,1.4,2.2-0.2,4.4c0.6-0.4,0.6,0.6,1.3-0.2c0.7,2.1-0.4-0.1-0.6,1.5c1.6-0.4-1.9,0.3,1.6,2
		c0-1.8,0.3,0.9,0.7-0.9c0.4,0.3,0.3,3.1,1.4,2.6c1-0.7-0.2,1.4-0.3,2.6c-0.6,0.5-0.4,6.2,0.6,1.7c0.4-5,4.3-4.6,1.6-9.5
		c0,0,1-0.2,0.2-0.5c0,0,0.2,0,0.2-0.3c2.3,1.5-5.1-4.7-3.6-6.6c-0.2,3.3,4.6,1.8,4.4,4.7c1.4-2.8,3.1-5.1,3-8.9
		c0.2,0.2,0.2,0.7,0.4,1.8c-0.1-1,0.5-3.5-0.6-5c0,0.2-0.1,0.1,0.1,0.5c-0.2-0.2-1,0.2-1.6-0.2c1.4-0.5,0.3-1.9,1.4-3.4l0.2,0.6
		c-0.1-0.1-0.1,0-0.2-0.2l0.6,0.2c-0.4-0.6,0.6-0.6,0.5-1.7c1,0.2,3.2-2.9,3.8-2.5c0.6-0.6,2.6-0.2,2.7-1.2c0.9,0.5,1-0.2,2.7-0.7
		v0.2c0.4-0.2,0.9-0.3,1.8-1.3c0.1,0.9,0.5-3.8,0.7-0.5c0.6,1,0.5-1.2,0.8-0.2c0.1,0,0.2-0.3,0.5-0.7c-0.1,0.1,0.6,0.6,0.5,0
		c0.4,0.3,1.6-4.2,1.8-0.6c1.8-0.4,6.1-4,1.4-4c3.8,0.1-0.9,4.7-2,0.6c-0.3-0.6-0.8-1.2-2-1.6c0.3,1.1-1.5,0-0.7-0.5
		c2.2-4.5,0.3,1,0.2-5.4c1.4-0.5,0.6-5.8,2.6-6.2c0.9-1.1-0.2,2,1.7-1.3c1.2,0.9,0.1-0.7,1.8-1c0,2.8,1.3-7.3,1.4-3.5
		c0.2,0.2,0.3-0.7,0.6,0.1c0.1,0.1-0.8-0.2-0.4,0.3c-0.7,0.1,0.7,0.5,0.9,0.3c0.5,0.2,0.6-0.1,0.1-0.9c0.2-0.2,0.4-0.2,0.5-0.9
		c0.1,0.4,0.7,0.9,0.7-0.3c0.5,0.3,1-0.6,1.5,0.9c0.2-0.2,0.2-0.5,0.2-1.2c0.3,0.6,0.7,0.2,0.6-0.7c0.3-0.2,1.6,0.6,1.3-0.9
		c0,0.1,0.1-0.1,0.4,0.1c-0.1,0.2,0.2-0.9,0.2-0.1c0.4,0.2,0-1.6,0.6-0.5c0.5,0,1-0.8,1.1-1.8c-2,0.5,0.6-1.6-2-2.2
		c-1.3,1.6-0.6-2.5-3.1-2.7c-2.5-1.1-0.3-9-5.4-10.7c-5.9,5.5-4.6-7.2-7.8,8.8c-1.3,4.2,0.6,8.1-4.8,9.9c1.1,6.1-20.6-0.7-22.4,13.9
		l-0.2,0.3c0,1.6,1.8,2.5-3,5.9c-0.2-0.2-2.2-0.3-3,0.7c-1-1-9.9-0.9-7.3,3.3c2.1,0.6-1.4,4.2-5.2,6.9c-0.1,0,0.2-0.1,0.1-0.3
		c-7.4,4.5-7.8,8.3-18,6.1c0.2,0.2,3.1-10.3,3.9-7c1-2.4-0.6-17.4-6.7-6.6c-3.8-2.3,1.9-1.5,1.2-10.7c-8.3-7-9-5.1-11.9,3.1
		c-0.5-0.6,0.1-2,0.1-3.1c-2.2,2.2-4,5.3-4,9.5c-1,4.4,4.7,6.5,0.4,14.6c-7.5,9.8-9.3-13.9-4.5-22.7c0.9-0.4,0.5-3.2-0.2-0.7
		c-0.6-0.1-1,1.3-1.1,2.5c-1.1-1-1.4,1.4-3.2,2.6c-0.8,0.8,5.4-13,4.8-8.9c4-3.8-0.6,2.2,3.1-0.9c1.3-3.2,8.2-1.8,12.5-2.6
		c-2.9-5.4-7.1-0.5-5.9-5c-5.3,0.3-10.3,5.8-14.2,0.8c-1.8-0.6-2.1-1.5-3.8,0.8c-0.2-0.3,0.2-1,0-1.8c1-0.4,1.2-2.6,3.2-3.1
		c-3.5-1.4-9.9,8.1-15.8,6.6c2.8-5.5-3,0.9-6.1-0.8c1.4-1.8,7.7-7.5,13-9.6c-6.2-1-11.4,0.2-16.2-2.6c1-2.7-6.2,1.2-9.9-2.6
		c-0.3-1.1,0.1-4.1-2.3-3.8c-38.1,8.2-91.6-6.2-134.7-16v0.2c-1,0.2,0.7,1.7,0.6,2c0.2,0.3,0.2,2-0.8,1.6c0.2-0.9-1.1,0.3,0.1,0.2
		c0.8,0.8-0.2,2.3,1,3.1c-0.6,0.3-1.1,1.2-1.8,2.2c0.2,0.6-0.1,1.8-0.7,2.9c0,0-0.2-0.1-0.5-0.6c-0.1,0.2-1.2,2-1.8,0.6l-0.1,0.3
		c-0.1,0.1,0.2-0.2-0.3-0.2c-0.1,0.2,0,0.1-0.2,0.7c-0.4,0.2,0.3-0.6-0.5-0.5c0.1,0,0,0,0.5-0.4c-0.2-0.1-0.1-0.2-0.7,0.2
		c0,0-0.1-0.2,0.5-0.5l-0.5,0c0,0.2,0-0.4,0.4-0.2l-0.2,0.2c0.2,0.1,1-0.2,1.4-0.9c0.2,1-1,2,1,0.2c0,0.2-0.8,0.6,0.1,1
		c-0.2-1,1.8-1.3,0.1-2.2c0-0.1-0.2-0.1,0-0.4c0.6,0.6,0.2,0.1,0.5-0.7c0-0.2,0.1,0.7,0.5,0c0.2,0.6,0.8-0.6,0-1.4
		c-0.2,0.1,0.1,0.2-0.1,0.9c0.6-0.5-5.9,2.8-2.1,2.3c-3,0.9-0.7-1,0.6-2.7l0.2,0.3c0-0.1,0.1,0.1,0.2-0.4c0,0.2,0.2,0.2-0.1,0.6
		c0.6-0.3,1.4-0.8,1-2.2l-0.2,0.4l-0.1-0.2l-0.2,0.2c0.1-1,0.3-0.9-0.6,0.1c0,0,0.3-0.4-0.2-0.8c-0.1,0,0.1,0.1-0.2,0.3
		c-0.5-1.4-3.5-1.3-7.5-4.8c-1,3,0.7,6.2-0.1,10.5c0.5-0.5,0.3-0.5,1.6,0.4c0.2,0.2-1.3-0.2-1.4,0.6c-0.2,0,0-0.2-0.3-0.6
		c-0.3,1-0.1,1.3,1,1.8c-0.1-0.2-0.3,0.3-0.8,0.4c-0.1-0.2,0.5,1.8-0.7,1.8c-0.2,0.2,0.5-0.8,0.2-1.9c-0.2,0.2-0.4,1.2-0.6,2.3
		c0.4,0.4,2.8,0.3,3,1.7c-0.5-0.6-1.1,0-2.2-0.6c0,0,0.1,0.1,0.2,0.4c-0.3,0.2-0.2-0.6-1-0.7c0.5,1.5-1.2,2.9-0.9,5.3
		c-2.7,7.1-10.8,17.5-9.1,27l-0.2-0.1c0.2,0.8-0.3,1.1-0.9,2.5l0.5-0.9c0.3,3.1-5,1.7-1.3,10.7c-2.4,3.7,1.2,9.6,1.4,12.1
		c0.3,0.3-1.3,2.2,0.1,1.1c0,0.4,0.5,0.7,1,1.4c1.4,1.2,1,0.9,1.5-1.1c-0.1,0-0.1,0-0.2-0.2c0.8,0,1.1,0.1,1.8,1.2
		c-0.2-0.1,0-0.1-0.6-0.2H10c-1.6-0.3-0.5,2.5,0.4,4.3c-0.4,0.2-2.6-1.8-1.6-2.4C8.7,82,9,81.7,8.5,81.5c-1.9,2.3-0.9,5.1,1.7,7.8
		c-4.1,3.1,2.6,9,2.2,12.4c3.7,3-4.6,5.1,5.3,7.9c5.1,4,12.2,9,12.2,16.4c-0.5-0.2-0.2-0.9-0.3,0.6c4.3,0.5,9.1,1,14.6,1.6
		c-3.6,0.6,17.7,15.4,31.8,15.7c5.8,2,10.5-5.2,18.2-0.1c1.4,3.5,5.7,5.8,8.2,9.6c0.9,1.8,0,7,5.9,9.9c2.3,0.6,2.3,3.6,5.8,0.5
		c-0.2-0.6,0.6-1.6,1-2.8l0.2,0.1c1.3-2.5,4.7-1,7.7-0.6C123.2,160.6,123.3,161,123.8,160.9z"/>
	<path class="st0" d="M297.9,60.4c-0.3,0.1-0.3,0-1-0.1c-0.2-0.8-0.2,0.9-1,0.9C295.7,61.7,297.8,61.1,297.9,60.4z"/>
	<path class="st0" d="M300.2,60.7c-1.4-0.2-0.2,0.9,0.6-0.2c-0.2-0.4-1-0.8-0.4-0.2C300.4,60.4,300.6,60.6,300.2,60.7z"/>
	<polygon class="st0" points="280.2,69 280.2,68.8 280.2,68.7 280.2,68.7 280.1,68.7 280,69 279.9,69.3 279.8,69.7 279.9,69.8
		280,69.7 280.1,69.5 280.2,69.4 280.2,69.4 280.2,69.2 	"/>
	<polygon class="st0" points="278.8,71.6 279,71.5 279.3,71.4 279.4,71.2 279.5,71 279.8,70.6 279.8,70.5 279.5,70.2 279,70.5 	"/>
	<path class="st0" d="M287.8,66.6l0.2,0.2c-0.1,0,0.1,0.2-0.4,0.2c-0.6-0.6,0.1-1.3,1.1-2.5c-1.4,1.7-4.9,2.5-6.3,3.4
		c0-0.3-0.8-0.2-0.7,0.6c-0.4-0.6-0.3,0.9-0.8,0.3c-2.8,3.1,1.8,0.2-0.2,1.8c1-0.4,2.6-1.3,3.8-2.2c1.8-0.4,4.4-2.6-0.1,0.9
		c1.5-0.9,9.7-6.1,4.1-3.9C288.2,65.7,288.3,66.1,287.8,66.6z"/>
	<path class="st0" d="M26.6,5.8c0,0,0.1,0.2,0.3,0.5c-0.2,0,0,0.2-0.2,0.6C26.2,6.9,25.9,4.6,26.6,5.8z"/>
	<path class="st0" d="M27.2,7.2c0-0.3-0.5-0.5,0.2-1C27.3,6.5,27.9,7.3,27.2,7.2z"/>
	<path class="st0" d="M27.9,5.8c-0.2,0.1,0.1-0.2-0.3-0.6c0,0.1-0.1,0,0,0.6c-0.2,0.2,0-0.4-0.6-0.2c-0.1-0.2,0.2-0.3,0.6-0.7
		C27.7,5,28.7,5.4,27.9,5.8z"/>
	<path class="st0" d="M27.5,9c0.1-0.1-0.2,0.2,0.4,0.3c-0.7,1.4,2.6,3.8-0.3-0.6c-0.1-0.2,0.2,0.2,0.4-0.3c0.2,0.1,0.2,0.1,0.7,0.1
		c0.2-0.1-0.3-0.4-0.2-0.7C28.4,7.6,27.1,7.8,27.5,9z"/>
</g>
<g id="constellation">
	<g>
		<polyline class="st1" points="296.7,38.4 291.9,39.9 287.1,41.4 282.3,42.8 		"/>
		<polyline class="st1" points="282.3,42.8 282.2,47.5 282.1,52.2 281.9,57 		"/>
		<line class="st1" x1="249" y1="101.4" x2="251.7" y2="100.6"/>
		<line class="st1" x1="278.8" y1="41.9" x2="282.3" y2="42.8"/>
		<polyline class="st1" points="179.1,37 183.4,37.7 187.5,38.2 191.8,38.8 196,39.4 200.2,39.9 204.5,40.3 208.7,40.8 213,41.2
			217.3,41.6 221.5,41.9 225.8,42.2 230.2,42.5 234.5,42.7 238.8,42.9 243.1,43 247.4,43.1 251.8,43.2 256.2,43.3 260.5,43.3
			264.9,43.3 269.2,43.2 273.6,43.1 278,43 282.3,42.8 		"/>
		<polyline class="st1" points="285,54.6 283.7,48.7 282.3,42.8 		"/>
		<polyline class="st1" points="265.1,76.1 267.1,72.4 269.1,68.7 271.1,65 273.1,61.3 275,57.6 276.9,53.9 278.7,50.2 280.6,46.5
			282.3,42.8 		"/>
		<polyline class="st1" points="245.8,174.3 247.4,170.2 248.8,166.2 250.3,162.1 251.8,158 253.2,153.9 254.6,149.8 255.9,145.8
			257.3,141.7 258.6,137.5 259.9,133.4 261.2,129.3 262.5,125.2 263.7,121 264.9,117 266.1,112.8 267.2,108.7 268.3,104.6
			269.4,100.4 270.5,96.3 271.6,92.2 272.6,88 273.6,83.9 274.6,79.8 275.5,75.7 276.5,71.5 277.4,67.4 278.2,63.3 279.1,59.2
			280,55.1 280.8,51 281.6,46.9 282.3,42.8 		"/>
		<polyline class="st1" points="24.6,16.4 28.8,17.6 33,18.7 37.1,19.9 41.4,21 45.5,22.1 49.8,23.1 54,24.1 58.2,25 62.5,26
			66.7,26.9 71,27.7 75.3,28.5 79.5,29.3 83.8,30 88.2,30.7 92.4,31.4 96.7,32 101,32.6 105.4,33.2 109.7,33.7 114,34.2 118.3,34.6
			122.6,35 127,35.4 131.3,35.8 135.7,36.1 140,36.3 144.3,36.6 148.7,36.7 153,36.9 157.4,37 161.8,37 166.1,37.1 170.5,37.1
			174.8,37 179.1,37 		"/>
		<polyline class="st1" points="281.9,57 277.8,58.1 273.8,59.2 269.7,60.2 265.6,61.3 261.5,62.2 257.4,63.2 253.3,64.2 249.2,65
			245,65.9 241,66.8 236.8,67.6 232.6,68.3 228.5,69.1 224.3,69.8 220.2,70.5 216,71.1 211.8,71.8 207.6,72.3 203.4,72.9
			199.2,73.4 195,73.8 190.7,74.3 186.6,74.7 182.3,75.1 178.1,75.4 173.8,75.8 169.6,76.1 165.4,76.3 161.1,76.6 156.9,76.7
			152.6,76.9 148.3,77 144.1,77.1 139.8,77.2 135.5,77.2 131.3,77.2 127,77.1 122.7,77.1 118.5,77 114.2,76.8 109.9,76.6
			105.7,76.5 101.4,76.2 97.1,75.9 92.9,75.7 88.6,75.3 84.3,75 80.1,74.6 75.8,74.1 71.5,73.6 		"/>
		<line class="st1" x1="251.7" y1="100.6" x2="249" y2="101.4"/>
		<polyline class="st1" points="19.8,30.6 22.8,33.4 25.8,36.2 28.9,39 32,41.8 35.1,44.6 38.2,47.3 41.4,50 44.6,52.7 47.9,55.4
			51.2,58.1 54.5,60.7 57.8,63.4 61.2,65.9 64.6,68.5 68.1,71.1 71.5,73.6 		"/>
		<polyline class="st1" points="71.5,73.6 75.8,74.1 80.1,74.6 84.3,75 88.6,75.3 92.9,75.7 97.1,75.9 101.4,76.2 105.7,76.5
			109.9,76.6 114.2,76.8 118.5,77 122.7,77.1 127,77.1 131.3,77.2 135.5,77.2 139.8,77.2 144.1,77.1 148.3,77 152.6,76.9
			156.9,76.7 161.1,76.6 165.4,76.3 169.6,76.1 173.8,75.8 178.1,75.4 182.3,75.1 186.6,74.7 190.7,74.3 195,73.8 199.2,73.4
			203.4,72.9 207.6,72.3 211.8,71.8 216,71.1 220.2,70.5 224.3,69.8 228.5,69.1 232.6,68.3 236.8,67.6 241,66.8 245,65.9 249.2,65
			253.3,64.2 257.4,63.2 261.5,62.2 265.6,61.3 269.7,60.2 273.8,59.2 277.8,58.1 281.9,57 		"/>
		<polyline class="st1" points="71.5,73.6 68.1,71.1 64.6,68.5 61.2,65.9 57.8,63.4 54.5,60.7 51.2,58.1 47.9,55.4 44.6,52.7
			41.4,50 38.2,47.3 35.1,44.6 32,41.8 28.9,39 25.8,36.2 22.8,33.4 19.8,30.6 		"/>
		<polyline class="st1" points="16.6,108.2 20.4,106 24.2,103.8 28.1,101.7 31.8,99.4 35.6,97.2 39.3,95 43,92.6 46.6,90.3 50.3,88
			53.9,85.7 57.5,83.3 61,80.9 64.6,78.5 68.1,76.1 71.5,73.6 		"/>
		<line class="st1" x1="285.5" y1="57.1" x2="281.9" y2="57"/>
	</g>
	<ellipse class="st2" cx="71.8" cy="73.8" rx="2.9" ry="2.9"/>
	<ellipse class="st2" cx="178.9" cy="37" rx="2.9" ry="2.9"/>
	<ellipse class="st2" cx="247.6" cy="100.6" rx="2.9" ry="2.9"/>
	<ellipse class="st2" cx="253" cy="100.6" rx="2.9" ry="2.9"/>
	<ellipse class="st2" cx="245.7" cy="174.3" rx="2.9" ry="2.9"/>
	<ellipse class="st2" cx="265.2" cy="76.2" rx="2.9" ry="2.9"/>
	<ellipse class="st2" cx="281.9" cy="57" rx="2.9" ry="2.9"/>
	<ellipse class="st2" cx="285.2" cy="57.4" rx="2.9" ry="2.9"/>
	<ellipse class="st2" cx="285.2" cy="55" rx="2.9" ry="2.9"/>
	<ellipse class="st2" cx="278.1" cy="41.6" rx="2.9" ry="2.9"/>
	<ellipse class="st2" cx="282.2" cy="43" rx="2.9" ry="2.9"/>
	<ellipse class="st2" cx="297" cy="38.2" rx="2.9" ry="2.9"/>
	<ellipse class="st2" cx="18.8" cy="30.5" rx="2.9" ry="2.9"/>
	<ellipse class="st2" cx="24.6" cy="16.2" rx="2.9" ry="2.9"/>
	<ellipse class="st2" cx="16.8" cy="107.8" rx="2.9" ry="2.9"/>
</g>
<text transform="matrix(1 0 0 1 306.13 112.1782)" class="st2 st3 st4">Environment</text>
</svg>
