<?xml version="1.0" encoding="utf-8"?>
<!-- Generator: Adobe Illustrator 23.1.1, SVG Export Plug-In . SVG Version: 6.00 Build 0)  -->
<svg version="1.1" id="Layer_1" xmlns="http://www.w3.org/2000/svg" xmlns:xlink="http://www.w3.org/1999/xlink" x="0px" y="0px"
	 viewBox="0 0 643 193.7" style="enable-background:new 0 0 643 193.7;" xml:space="preserve">
<style type="text/css">
	.st0{fill:#707589;}
	.st1{fill:none;stroke:#FFFFFF;stroke-width:0.856;stroke-linejoin:round;stroke-miterlimit:10;}
	.st2{fill:#FFFFFF;}
	.st3{font-family:'Roboto';}
	.st4{font-size:60px;}
</style>
<g id="map">
	<path class="st0" d="M36.8,170c0.6,1.1,0.5,1.8-0.9,2.2c-0.9,0.3-1.7,1-2.5,1.5c-0.5,0.3-1,0.5-1.7,0.8c0.2-2.2,0-4.2,2-5.4
		c-1.3,0.1-1.8,0.6-2.6,2.2c-0.6,1-1.4,2-2.1,3.2c0.2,0.2,0.6,0.4,1.1,0.9c-3.4,3.6-7,6.7-11.4,9.1c-0.5-0.6-1.2-0.4-2.2,0.2
		c-1.2,0.7-2.8,1-4.2,1.4c-0.1-0.2-0.2-0.4-0.3-0.6c0.6-0.4,1.4-0.7,2-1.1c0.6-0.3,1.4-0.6,2.1-1c0.5-0.2,0.8-0.8,1.3-0.8
		c2.3-0.2,3.8-1.8,5.3-3.3c0.8-0.9,1.1-2.1,1.9-3.6c-1.2,0.2-1.8,0.2-2.8,0.3c-1-1.1-1-1.6-3.7-0.5c0-1.3,0-2.5,0-3.8
		c-2.7,0.5-3.4-0.2-3.7-2.9c-0.2-1.1-1.2-2.2-0.2-3.4c0.6-0.7,1-1.7,1.8-2.2c0.4-0.3,1.3-0.2,1.9-0.1c0.9-0.4,2.1-0.6,2.6-1.2
		c0.5-0.6,0.2-1.8,0.2-2.5c-1.3,0-2.7,0-4.2,0c-1.1,0-1.8-0.5-2-1.8c-0.1-0.7-0.6-1.4-1.1-2.2c1.5-0.6,3-1.2,4.8-1.9
		c0.2,1.8,1,2.2,2.6,1.7c-1.3-1.8-2.6-3.6-3.7-5.4c-0.2-0.4-0.6-1-0.4-1.4c0.2-0.4,0.9-0.6,1.4-0.9c0.6-0.2,1.5-0.2,1.7-0.6
		c0.7-1.8,2.1-2.6,3.6-3.3c1-0.5,2.2-0.9,3.7-1.4c1,0.5,2.4,1.5,3.9,1.8c2.2,0.5,4.6,0.7,7,0.6c1.8-0.1,3.2,0.4,3.6,2.2
		c1.5,7.5,3,15,4.6,22.8c0.7-0.2,1.4-0.4,1.9-0.5c1.2,1,2.3,1.8,3.4,2.6c0.7-0.9,1.4-2.3,2-2.3c0.9,0,1.8,1,2.6,1.7
		c0.9,0.6,1.8,1.3,2.5,2.1c1.3,1.4,2.6,2.6,4.6,2.9c1.3,0.2,1.8,2.2,1,3.8c-0.6,0.2-2-1.6-2.1,0.6c0,0-1.4,0.3-1.8,0
		c-1.1-1-2-2.2-3-3.5c-0.2,0.5-0.2,0.7-0.3,1.2c-1-1-1.7-2.1-2.6-2.8c-1.7-1.3-3.4-2.5-5.2-3.6c-2-1.2-4.2-1.1-6.6-1
		c-1.2,0.1-2.5-0.8-3.8-1.3c-0.6-0.2-1.2-0.2-1.8-0.4C36.8,169.7,36.8,169.9,36.8,170z"/>
	<path class="st0" d="M30.9,176.3c0.2,0.2,0.4,0.2,0.5,0.4c0.6,1.1-1.1,4-2.3,4.1c-0.3,0-0.9-0.3-1-0.6c-0.2-0.3-0.2-1,0-1.3
		c0.7-0.8,1.6-1.5,2.4-2.2C30.5,176.4,30.7,176.4,30.9,176.3z"/>
	<path class="st0" d="M11.6,161.6c-1.5,0.5-3.4-0.6-3.9-2.2C9.2,160.1,10.3,160.7,11.6,161.6z"/>
	<path class="st0" d="M11.3,169.7c0.7,0.2,1.4,0.2,2.2,0.4c-0.1,0.3-0.2,0.7-0.3,1c-0.6-0.2-1.4-0.4-2-0.6
		C11.2,170.4,11.2,170,11.3,169.7z"/>
	<path class="st0" d="M98.2,186.7c-0.8-0.2-1.8-0.6-1.4-2.3c0.1-0.4-0.1-0.9-0.3-1.3c-0.6-1.2-1-2.2,0.2-3.4
		c0.5-0.5,0.2-1.6,0.4-2.6c3.1,0.9,5.8,2.3,7.3,5.8C102.7,184,100.7,185.2,98.2,186.7z"/>
	<path class="st0" d="M93.7,174.9c-0.2-0.2-0.5-0.3-0.7-0.6c-0.4-0.4-0.8-0.9-1.2-1.4c-0.2-0.2-0.2-0.6-0.3-1c0.3-0.1,0.7-0.2,1-0.2
		c0.9,0.2,1.8,0.4,2.6,0.7c0.4,0.2,0.6,0.7,1,1c-0.4,0.3-0.8,0.6-1.2,0.9C94.6,174.7,94.3,174.8,93.7,174.9z"/>
	<path class="st0" d="M73.8,163.8c-0.8,0.6-1.4,1.3-1.8,1.2c-0.6-0.1-1.3-0.7-1.9-1.2c0.8-0.5,1.5-1,2.4-1.4
		C72.6,162.4,73.2,163.2,73.8,163.8z"/>
	<path class="st0" d="M82.9,166.4c0.1,1,0.3,1.8,0.2,2.6c0,0.2-1,0.6-1.2,0.5c-0.6-0.5-1-1.1-1.6-1.8
		C81.2,167.2,81.9,166.9,82.9,166.4z"/>
	<path class="st0" d="M124.8,158.4c0.4-0.3-0.2,1,0.6,0.7c-0.1,0.1-0.1,1.1,0.2,0.2c0.8,1.5,3.1,2.8,4,5.6c0.2,4.4,6.2,7.7,6.2,11.8
		c1.3,4.8,4.8,9.5,11,9.4c0.8,0.1,1.4,1,2.9,1h-0.1c0.8,0.6,1.8-1.5,1.3-0.5c-0.2-0.1-0.1-0.3-0.5,0.1c-0.3-1.9-2.1-4.2-1.4-9.1
		c-1,1-3.1-3.2-0.7-0.4l-0.1-0.2c0.5-0.2,1.4-1,0.4,0.2c0.7,0.6,1.6-1.5,1.8-2.9c-0.6,0.7-0.4-0.2-0.7-1c-0.1,0.1-0.6,0.3-1-0.3
		c0.9-0.5,4.2,1.9,2-1.4c0.1,0.1,0.8-0.3,0.3-0.6c1,0.9,2.2-1.8,1.8,0.3c1.4,0,0.2-2.4,1-1.8c-1.8-0.9,4.5,0.8,1.4-0.6
		c0.1-0.2-0.2-0.1,0.5-0.4c-0.3-0.6-1,0.2-1-1.3c0.1,0.2,0.5-0.4,0.6,0.4l0.2-0.1c0-0.2,0.2,1,0.4,0.2c-0.1-0.1,0.3,0.3-0.2,0.6
		c0.2,0.2-0.1,0.1,0.6-0.2c0.2,0.2-0.6-0.6-0.1-0.8c-0.1,0.2,0.5,1.3,0.8,0c0,0.1,0,0,0.1,0.3c0.1,0,0.1-0.1,0.4-0.5
		c0,0.2,0-0.1-0.2,0.9c-0.1-0.1,0.9,0.2-0.1,0.2c2.8-0.4,4.2-1.8-0.8,1.4c1-0.6,5.4-2.2,7.8-4.9c-1.6-0.4,2.4,0,1-4.7l-0.1,0.1
		c4.6-1.1-0.7,0.6,3.1,1.4c-4.2,2.5,2.6-1.4,6.1-1.8c1.8-1.2,9,3.7,9.1,0.4c1.2-4.4,5.8,5.8,10,3c-0.2-2.6,3.6,4.3,3.3-2.1
		c1.2-0.2,1,1.6,2.4,1.1c1.9,1.4,3,3.2,3.8,1c0.5-0.9-3.4-0.7-3.7-3.1c1.2-1,2.6-1.8,2.6-3.5c0.3-1.4-5.8,3.2-3.4,0.5
		c0-0.2,0.6-1.4-0.2-0.6c-0.1-0.1-0.1,0-0.1-0.3c-1.4,2.1-8.1-0.2-2-1.1c1,0.6,3.1,1.9,4.5-0.1c2-1.9,8.1,1.7,8.2-3.9
		c2.3,2.2-1.4,6.2,3.6,2.7c-1,1.2,2.4-0.2,1.5-1.6c0.7,0.8,2.9-0.2,0.2,1.5c1.3-0.9,10.1-1.7,4.2-0.8c0.5-0.2,5.6,2.3,4.7,0.9
		c-0.8,0.6-0.6-0.8,0.6-0.1c-0.1,0.2,0.1,0.2-0.2,0.5c-0.6,0.6,1.6-0.3,2.7,3.3c-0.4,0.2-0.4,0-0.5-1.3c-1.2,2.3,2.2,1,3.4,0.4
		c-1,0.8,4.6-1.7,2.7-1.6c0.2-0.2,0.4-0.5,0.9-1c0.8-1.6,11.4,6.3,11.6,9c0.2,1.6-1.9,7.1,0.9,6.9c-1.8-4.6,1,0,0.9-1.3
		c2-1.1-1.8,3.4-0.3,3.5c0.9,0.8,1.4,4.2,3.4,4.1c-1.4-1.3,0.9-1.4,0.3-0.9c0.5,2.5,0.6,2.5,3.7,7c0.1-0.9,9,5.9,3.9,4
		c0.1,2.3,3.6-0.1,5-0.1c0.6-1.4,0.2-3.1,1.2-4.8c1.3-9.4-10.4-23.5-13.8-33.8c0.1,0.3,1-4.8,0.2-2.4c-1.3-1.5,0.8,0.1-0.2-2.2
		c0.6,0,0.5-0.7,1.1-0.7c0.6-0.7-1.1-1.4,0.4-1.3c0.2-0.5,0.1-0.8-0.4-1.2c1.1-1.5,3.1-3,1.6-5.5c1.8,1.7,1.3,0.3,2.2-0.7v0.1
		c0.2-0.3,1.4,0.2,1.3-1c-0.3,0.6,6.1-4,5-6.5c0.6,1.8,0.9-3.3,3.9-4.2c0.6-1.1,3.4,0.3,3.1-2.2c0.2,2.6,2.5-6.7,3-4.6
		c-0.8,1.1,1.9,0.2,0.9-1.1c0.2,0.9,2.7,0,2.4-0.3c0.2-0.4,0.2-0.4,0.8,0.1c0.2-0.2,0.6-0.1,1.6-1.6c0.2-0.2-1.2-1.2-1.1-0.4
		c-1.2-0.3,0.5,0.7-1,0.3c0.1,0,0.5,0.5,0,0.4c-0.3-1-0.2,1.1-2.7-0.9c-0.3-1.7,2.6,3,2.9-1.7c1.4-0.3-1.1-0.8-1.7-0.6
		c-2.8-1.5,1,0.4,1.1-1c-1-0.3,0.2-0.5,0.8-0.6c-1.1,1.5,0.2,0.7,1.3,1.3c1-0.2,1.4-0.6,2-2.3c0.9,0.9,0.4-0.6,0.8-0.8
		c-0.4-0.6,0.2-1.2-1.2-1.8c0.2,0.2-0.3,0.1-0.1,0.5c-1.2-0.5,0.5,2.9-1.3,1.8c0.7,0.2,0.5-1.2,0.2-1.8c-0.6-1.5-4.2,3.8-4.5-2.2
		c0.4-0.1,1,3.9,1.9,1.6c0.9-0.2,0.5-1.1,1.6-0.6c0.6-0.5,0.6-0.4-0.3-1.1c0.6-0.3,1.9,1.3,1.1-0.3c0.6-0.1,0.5,0.9,1.3,1.3
		c0.1-1-3.6-4.1-1.4-2.8c0.1,0-0.8-2.1,0.2-0.5c-1-0.5,5.1,8.2,2.2,3.6c-1.5-1.1-2.2-8.5-5.9-5.2c-0.1-1.5-4.1-1.7-2.8-2.7
		c1,0.4,2.2,2,3.7,1.5c0-0.1,0.2-0.8-0.4-0.5v-0.1l0,0c0.5-0.6-3.4-1.2-3-2.6c2.5,3,1.5-0.2,3.1,0.9c-0.2-2.1-1.7-0.9-4.7-4.4
		c3.1,3.4,6.6,1.4,1.5-0.8c-0.9-0.2-2.1-0.2-2.7-1.6c-0.4-1.2,1.1,0.7,3.6,1.1c1.9,0.8,0.3-0.7-1.5-2.2c3.4,1.6,0.2,0.6,0.2-3.8
		c0.8,0,0.2-0.9-1-1.8c1-0.1,0.7,0.1,1.4-0.7c-0.5-0.8,0.7,0,0.6-0.8c1-0.1-0.2-1.2,1.1-1.5c0.1,0-0.1,0.3,0,0.8
		c0.5-1,1,0.5-0.7,1.3c-0.6,1.9,1.4,2.2-0.2,4.4c0.6-0.4,0.6,0.6,1.3-0.2c0.7,2.1-0.4-0.1-0.6,1.5c1.6-0.4-1.9,0.3,1.6,2
		c0-1.8,0.3,0.9,0.7-0.9c0.4,0.3,0.3,3.1,1.4,2.6c1-0.7-0.2,1.4-0.3,2.6c-0.6,0.5-0.4,6.2,0.6,1.7c0.4-5,4.3-4.6,1.6-9.5
		c0,0,1-0.2,0.2-0.5c0,0,0.2,0,0.2-0.3c2.3,1.5-5.1-4.7-3.6-6.6c-0.2,3.3,4.6,1.8,4.4,4.7c1.4-2.8,3.1-5.1,3-8.9
		c0.2,0.2,0.2,0.7,0.4,1.8c-0.1-1,0.5-3.5-0.6-5c0,0.2-0.1,0.1,0.1,0.5c-0.2-0.2-1,0.2-1.6-0.2c1.4-0.5,0.3-1.9,1.4-3.4l0.2,0.6
		c-0.1-0.1-0.1,0-0.2-0.2l0.6,0.2c-0.4-0.6,0.6-0.6,0.5-1.7c1,0.2,3.2-2.9,3.8-2.5c0.6-0.6,2.6-0.2,2.7-1.2c0.9,0.5,1-0.2,2.7-0.7
		v0.2c0.4-0.2,0.9-0.3,1.8-1.3c0.1,0.9,0.5-3.8,0.7-0.5c0.6,1,0.5-1.2,0.8-0.2c0.1,0,0.2-0.3,0.5-0.7c-0.1,0.1,0.6,0.6,0.5,0
		c0.4,0.3,1.6-4.2,1.8-0.6c1.8-0.4,6.1-4,1.4-4c3.8,0.1-0.9,4.7-2,0.6c-0.3-0.6-0.8-1.2-2-1.6c0.3,1.1-1.5,0-0.7-0.5
		c2.2-4.5,0.3,1,0.2-5.4c1.4-0.5,0.6-5.8,2.6-6.2c0.9-1.1-0.2,2,1.7-1.3c1.2,0.9,0.1-0.7,1.8-1c0,2.8,1.3-7.3,1.4-3.5
		c0.2,0.2,0.3-0.7,0.6,0.1c0.1,0.1-0.8-0.2-0.4,0.3c-0.7,0.1,0.7,0.5,0.9,0.3c0.5,0.2,0.6-0.1,0.1-0.9c0.2-0.2,0.4-0.2,0.5-0.9
		c0.1,0.4,0.7,0.9,0.7-0.3c0.5,0.3,1-0.6,1.5,0.9c0.2-0.2,0.2-0.5,0.2-1.2c0.3,0.6,0.7,0.2,0.6-0.7c0.3-0.2,1.6,0.6,1.3-0.9
		c0,0.1,0.1-0.1,0.4,0.1c-0.1,0.2,0.2-0.9,0.2-0.1c0.4,0.2,0-1.6,0.6-0.5c0.5,0,1-0.8,1.1-1.8c-2,0.5,0.6-1.6-2-2.2
		c-1.3,1.6-0.6-2.5-3.1-2.7c-2.5-1.1-0.3-9-5.4-10.7c-5.9,5.5-4.6-7.2-7.8,8.8c-1.3,4.2,0.6,8.1-4.8,9.9c1.1,6.1-20.6-0.7-22.4,13.9
		l-0.2,0.3c0,1.6,1.8,2.5-3,5.9c-0.2-0.2-2.2-0.3-3,0.7c-1-1-9.9-0.9-7.3,3.3c2.1,0.6-1.4,4.2-5.2,6.9c-0.1,0,0.2-0.1,0.1-0.3
		c-7.4,4.5-7.8,8.3-18,6.1c0.2,0.2,3.1-10.3,3.9-7c1-2.4-0.6-17.4-6.7-6.6c-3.8-2.3,1.9-1.5,1.2-10.7c-8.3-7-9-5.1-11.9,3.1
		c-0.5-0.6,0.1-2,0.1-3.1c-2.2,2.2-4,5.3-4,9.5c-1,4.4,4.7,6.5,0.4,14.6c-7.7,10.1-9.4-13.6-4.6-22.4c0.9-0.4,0.5-3.2-0.2-0.7
		c-0.6-0.1-1,1.3-1.1,2.5c-1.1-1-1.4,1.4-3.2,2.6c-0.8,0.8,5.4-13,4.8-8.9c4-3.8-0.6,2.2,3.1-0.9c1.3-3.2,8.2-1.8,12.5-2.6
		c-2.9-5.4-7.1-0.5-5.9-5c-5.3,0.3-10.3,5.8-14.2,0.8c-1.8-0.6-2.1-1.5-3.8,0.8c-0.2-0.3,0.2-1,0-1.8c1-0.4,1.2-2.6,3.2-3.1
		c-3.5-1.4-9.9,8.1-15.8,6.6c2.8-5.5-3,0.9-6.1-0.8c1.4-1.8,7.7-7.5,13-9.6c-6.2-1-11.4,0.2-16.2-2.6c1-2.7-6.2,1.2-9.9-2.6
		c-0.3-1.1,0.1-4.1-2.3-3.8c-38.1,8.2-91.6-6.2-134.7-16V1.8c-1,0.2,0.7,1.7,0.6,2c0.2,0.2,0.2,2-0.8,1.6c0.2-0.9-1.1,0.3,0.1,0.2
		c0.9,0.8-0.1,2.4,1,3.2c-0.6,0.3-1.1,1.2-1.8,2.2c0.2,0.6-0.1,1.8-0.7,2.9c0,0-0.2-0.1-0.5-0.6c-0.1,0.2-1.2,2-1.8,0.6l-0.1,0.3
		c-0.1,0.1,0.2-0.2-0.3-0.2c-0.1,0.2,0,0.1-0.2,0.7c-0.4,0.2,0.3-0.6-0.5-0.5c0.1,0,0,0,0.5-0.4c-0.2-0.1-0.1-0.2-0.7,0.2
		c0,0-0.1-0.2,0.5-0.5l-0.5-0.2c0,0.2,0-0.4,0.4-0.2l-0.2,0.2c0.2,0.1,1-0.2,1.4-0.9c0.2,1-1,2,1,0.2c0,0.2-0.8,0.6,0.1,1
		c-0.2-1,1.8-1.3,0.1-2.2c0-0.1-0.2-0.1,0-0.4c0.6,0.6,0.2,0.1,0.5-0.7c0-0.2,0.1,0.7,0.5,0c0.2,0.6,0.8-0.6,0-1.4
		C27.9,9,28.2,9.1,28,9.8c0.6-0.5-5.9,2.8-2.1,2.3c-3,0.9-0.7-1,0.6-2.7l0.2,0.3c0-0.1,0.1,0.1,0.2-0.4c0,0.2,0.2,0.2-0.1,0.6
		c0.6-0.3,1.4-0.8,1-2.2l-0.2,0.6l-0.1-0.2l0.2-0.6c0.1-1,0.3-0.9-0.6,0.1c0,0,0.3-0.4-0.2-0.8c-0.1,0,0.1,0.1-0.2,0.3
		c-0.3-1.5-3.4-1.4-7.4-4.9c-1,3,0.7,6.2-0.1,10.5c0.5-0.5,0.3-0.5,1.6,0.4c0.2,0.2-1.3-0.2-1.4,0.6c-0.2,0,0-0.2-0.3-0.6
		c-0.3,1-0.1,1.3,1,1.8c-0.1-0.2-0.3,0.3-0.8,0.4c0-0.2,0.5,1.8-0.6,1.8c-0.2,0.2,0.5-0.8,0.2-1.9c-0.2,0.2-0.4,1.2-0.6,2.3
		c0.4,0.4,2.8,0.3,3,1.7c-0.5-0.6-1.1,0-2.2-0.6c0,0,0.1,0.1,0.2,0.4c-0.3,0.2-0.2-0.6-1-0.7c0.5,1.5-1.2,2.9-0.9,5.3
		c-2.7,7.1-10.8,17.5-9.1,27l-0.2-0.2c0.2,0.8-0.3,1.1-0.9,2.5L7,52.7c0.3,3.1-5,1.7-1.3,10.7C3.3,67.1,6.9,73,7.1,75.5
		c0.3,0.3-1.3,2.2,0.1,1.1c0,0.4,0.5,0.7,1,1.4c1.4,1.2,1,0.9,1.5-1.1c-0.1,0-0.1,0-0.2-0.2c0.8,0,1.1,0.1,1.8,1.2
		c-0.2-0.1,0-0.1-0.6-0.2h0.1c-1.7-0.1-0.6,2.7,0.3,4.6c-0.4,0.2-2.6-1.8-1.6-2.4c-0.1-0.2,0.2-0.5-0.3-0.7
		c-1.9,2.3-0.9,5.1,1.7,7.8c-4.1,3.1,2.6,9,2.2,12.4c3.7,3-4.6,5.1,5.3,7.9c5.1,4,12.2,9,12.2,16.4c-0.5-0.2-0.2-0.9-0.3,0.6
		c4.3,0.5,9.1,1,14.6,1.6c-3.6,0.6,17.7,15.4,31.8,15.7c5.8,2,10.5-5.2,18.2-0.1c1.4,3.5,5.7,5.8,8.2,9.6c0.9,1.8,0,7,5.9,9.9
		c2.3,0.6,2.3,3.6,5.8,0.5c-0.2-0.6,0.6-1.6,1-2.8l0.2,0.1c1.3-2.5,4.7-1,7.7-0.6C124.2,158,124.4,158.5,124.8,158.4z"/>
	<path class="st0" d="M299,57.8c-0.3,0.1-0.3,0-1-0.1c-0.2-0.8-0.2,0.9-1,0.9C296.8,59.2,298.8,58.6,299,57.8z"/>
	<path class="st0" d="M301.2,58.2c-1.4-0.2-0.2,0.9,0.6-0.2c-0.2-0.4-1-0.8-0.4-0.2C301.4,57.9,301.6,58,301.2,58.2z"/>
	<polygon class="st0" points="281.2,66.4 281.2,66.3 281.2,66.2 281.2,66.1 281.1,66.2 281,66.5 280.9,66.8 280.8,67.1 280.9,67.2
		281,67.2 281.2,67 281.2,66.9 281.2,66.8 281.2,66.6 281.2,66.5 	"/>
	<polygon class="st0" points="279.8,69.1 280,69 280.3,68.8 280.4,68.6 280.5,68.4 280.8,68.1 280.8,68 280.6,67.6 280,68 	"/>
	<path class="st0" d="M288.8,64l0.2,0.2c-0.1,0,0.1,0.2-0.4,0.2c-0.6-0.6,0.1-1.3,1.1-2.5c-1.4,1.7-4.9,2.5-6.3,3.4
		c0-0.3-0.8-0.2-0.7,0.6c-0.4-0.6-0.3,0.9-0.8,0.3c-2.8,3.1,1.8,0.2-0.2,1.8c1-0.4,2.6-1.3,3.8-2.2c1.8-0.4,4.4-2.6-0.1,0.9
		c1.5-0.9,9.7-6.1,4.1-3.9C289.3,63.2,289.4,63.6,288.8,64z"/>
	<path class="st0" d="M27.6,3.2c0,0,0.1,0.2,0.3,0.5c-0.2,0,0,0.2-0.2,0.6C27.2,4.4,27,2,27.6,3.2z"/>
	<path class="st0" d="M28.3,4.7c0-0.3-0.5-0.5,0.2-1C28.3,4,29,4.8,28.3,4.7z"/>
	<path class="st0" d="M28.9,3.3c-0.2,0.1,0.1-0.2-0.3-0.6c0,0.1-0.1,0,0,0.6c-0.2,0.2,0-0.4-0.6-0.2c-0.1-0.2,0.2-0.3,0.6-0.7
		C28.7,2.5,29.7,2.9,28.9,3.3z"/>
	<path class="st0" d="M28.5,6.4c0.1-0.1-0.2,0.2,0.4,0.3c-0.7,1.4,2.6,3.8-0.3-0.6c-0.1-0.2,0.2,0.2,0.4-0.3
		c0.2,0.1,0.2,0.1,0.7,0.1c0.2-0.1-0.3-0.4-0.2-0.7C29.5,5.1,28.1,5.3,28.5,6.4z"/>
</g>
<g>
	<g>
		<polyline class="st1" points="96,115.7 91.7,116.3 87.4,116.9 83.1,117.4 78.8,118 74.4,118.4 70.1,118.9 65.8,119.3 61.4,119.7
			57,120.1 52.6,120.4 48.3,120.8 43.8,121 39.4,121.2 35,121.4 30.6,121.6 		"/>
		<polyline class="st1" points="238.6,111.9 241.9,108.9 245.2,105.9 248.4,102.9 251.7,99.8 254.8,96.8 258,93.7 261.2,90.6
			264.2,87.5 267.2,84.4 270.3,81.2 273.2,78.1 276.2,74.9 279.2,71.7 282,68.5 284.8,65.3 287.6,62.1 290.4,58.8 293.2,55.6 		"/>
		<polyline class="st1" points="147.8,154.8 143.6,154.1 139.4,153.3 135.2,152.4 131,151.6 126.8,150.8 122.8,149.8 118.6,148.9
			114.4,148 110.4,146.9 106.3,145.9 102.1,144.8 98,143.8 94,142.7 90,141.6 85.9,140.4 81.9,139.2 77.8,138 73.8,136.8
			69.8,135.6 65.8,134.3 61.9,133 57.9,131.6 54,130.3 50,128.9 46.1,127.5 42.2,126 38.3,124.6 34.4,123.1 30.6,121.6 		"/>
		<polyline class="st1" points="147.8,154.8 143.6,153.9 139.4,152.9 135.2,151.9 131.1,150.8 127,149.8 122.8,148.7 118.8,147.6
			114.7,146.4 110.6,145.2 106.5,144 102.4,142.8 98.4,141.6 94.4,140.3 		"/>
		<polyline class="st1" points="299,54.4 294.4,54.4 290,54.4 285.4,54.3 280.8,54.2 276.4,54 271.9,53.8 267.4,53.6 262.9,53.3
			258.4,53 		"/>
		<polyline class="st1" points="279.2,38.7 275.8,40.8 272.4,42.9 269,45 265.6,47.1 262,49.1 258.6,51.2 255.1,53.2 251.6,55.1
			248,57.1 244.4,59 240.8,60.8 237.2,62.8 233.6,64.6 229.9,66.4 226.1,68.3 222.4,70 218.7,71.8 214.9,73.6 211.2,75.2
			207.3,76.9 203.6,78.6 199.6,80.2 195.8,81.8 191.9,83.4 188,84.9 184,86.4 180.1,88 176.1,89.4 172.2,90.9 168.1,92.3
			164.1,93.7 160,95.1 156,96.4 151.9,97.6 147.8,98.9 143.6,100.2 139.6,101.4 135.4,102.6 131.2,103.7 127,104.8 122.8,106
			118.5,107 114.3,108 110,109.1 105.7,110 101.4,111 97.1,111.9 92.8,112.8 88.4,113.6 84,114.4 79.7,115.2 75.3,116 70.9,116.7
			66.4,117.3 62,118 57.6,118.6 53.1,119.2 48.6,119.7 44.1,120.3 39.6,120.8 35.1,121.2 30.6,121.6 		"/>
		<polyline class="st1" points="94.4,140.3 90.4,139.3 86.3,138.4 82.2,137.3 78.2,136.3 74.2,135.2 70.1,134.1 66.1,132.9
			62.1,131.8 58.1,130.6 54.2,129.4 50.2,128.2 46.3,126.9 42.3,125.6 38.4,124.3 34.4,123 30.6,121.6 		"/>
		<polyline class="st1" points="94.4,140.3 98.4,141.6 102.4,142.8 106.5,144 110.6,145.2 114.7,146.4 118.8,147.6 122.8,148.7
			127,149.8 131.1,150.8 135.2,151.9 139.4,152.9 143.6,153.9 147.8,154.8 		"/>
		<polyline class="st1" points="94.4,140.3 91.6,136.8 88.9,133.3 86.2,129.8 83.6,126.2 80.9,122.7 78.4,119.2 75.8,115.6
			73.3,112 70.8,108.4 68.4,104.8 66,101.2 63.6,97.6 61.2,93.9 58.8,90.3 56.6,86.6 54.4,83 52.1,79.3 50,75.6 47.8,72 45.6,68.3
			43.6,64.6 41.6,60.9 39.6,57.2 37.6,53.6 35.6,49.8 33.7,46.1 31.8,42.4 30,38.8 28.2,35 26.4,31.3 24.6,27.6 22.9,23.9 		"/>
		<polyline class="st1" points="214.8,60 211.2,62 207.7,63.9 204.1,65.8 200.5,67.6 196.9,69.5 193.3,71.2 189.6,73 186,74.8
			182.2,76.5 178.5,78.2 174.8,80 171,81.6 167.2,83.2 163.3,84.8 159.5,86.4 155.6,88 151.7,89.5 147.9,91 143.9,92.5 140,94
			136,95.4 132,96.8 128,98.1 124,99.5 119.9,100.8 115.9,102.1 111.7,103.4 107.6,104.6 103.5,105.8 99.4,107 95.2,108.1 91,109.2
			86.8,110.3 82.6,111.4 78.4,112.4 74.1,113.4 69.8,114.4 65.5,115.3 61.2,116.2 56.8,117.1 52.5,117.9 48.2,118.7 43.8,119.5
			39.4,120.2 35,120.9 30.6,121.6 		"/>
		<polyline class="st1" points="286.4,57.5 282.8,59.3 279.2,61.2 275.6,63 272,64.8 268.4,66.5 264.8,68.3 261.1,70 257.4,71.6
			253.6,73.3 250,74.9 246.2,76.5 242.4,78.1 238.7,79.7 234.8,81.2 231.1,82.8 227.2,84.2 223.4,85.6 219.5,87.1 215.6,88.5
			211.7,89.9 207.8,91.2 203.9,92.5 199.9,93.9 196,95.1 192,96.4 188,97.6 184,98.8 179.9,99.9 175.9,101 171.8,102.1 167.7,103.2
			163.6,104.3 159.5,105.2 155.4,106.3 151.2,107.2 147.1,108.1 142.9,109 138.8,109.9 134.6,110.8 130.4,111.6 126.1,112.4
			122,113.1 117.6,113.8 113.4,114.5 109.2,115.2 104.9,115.8 100.6,116.4 96.3,116.9 92,117.5 87.6,118 83.3,118.4 79,118.9
			74.6,119.3 70.3,119.6 65.9,120 61.5,120.4 57.1,120.6 52.7,120.8 48.3,121.1 43.9,121.2 39.5,121.4 35,121.5 30.6,121.6 		"/>
		<line class="st1" x1="92.8" y1="136" x2="94.4" y2="140.3"/>
		<polyline class="st1" points="143.6,184.3 140.4,181.2 137.2,178.2 134,175.2 130.8,172 127.7,168.9 124.6,165.8 121.6,162.7
			118.5,159.5 115.5,156.4 112.5,153.2 109.6,150 106.7,146.7 103.8,143.5 100.9,140.2 98.1,137 95.3,133.7 92.6,130.4 89.8,127.1
			87.2,123.8 84.5,120.4 81.9,117.1 79.2,113.7 76.7,110.4 74.2,107 71.6,103.6 69.2,100.3 66.8,96.8 64.4,93.4 62,90 59.6,86.6
			57.3,83.2 55.1,79.7 52.8,76.3 50.6,72.8 48.4,69.3 46.3,65.9 44.1,62.4 42,58.9 40,55.4 38,52 36,48.4 34,44.9 32.1,41.4
			30.2,38 28.4,34.4 26.5,30.9 24.7,27.4 22.9,23.9 		"/>
		<polyline class="st1" points="203,60.3 200.1,63 197.2,65.8 194.1,68.5 191.2,71.2 188,74 185,76.7 181.9,79.4 178.8,82
			175.6,84.7 172.4,87.3 169.1,90 165.9,92.5 162.5,95.1 159.2,97.6 155.9,100.2 152.5,102.8 149.1,105.2 145.6,107.7 142.1,110.2
			138.7,112.7 135.2,115.1 131.6,117.5 128,119.9 124.4,122.3 120.7,124.6 117,126.9 113.3,129.2 109.6,131.5 105.9,133.7 102,136
			98.3,138.1 94.4,140.3 		"/>
		<polyline class="st1" points="21.3,108.5 21.2,104.3 21.2,100 21.2,95.7 21.2,91.5 21.2,87.2 21.2,82.9 21.2,78.7 21.3,74.4
			21.4,70.2 21.4,66 21.6,61.7 21.6,57.5 21.7,53.2 21.9,49 22,44.8 22.2,40.6 22.4,36.4 22.5,32.3 22.7,28 22.9,23.9 		"/>
		<polyline class="st1" points="22.9,23.9 24.6,27.6 26.4,31.3 28.2,35 30,38.8 31.8,42.4 33.7,46.1 35.6,49.8 37.6,53.6 39.6,57.2
			41.6,60.9 43.6,64.6 45.6,68.3 47.8,72 50,75.6 52.1,79.3 54.4,83 56.6,86.6 58.8,90.3 61.2,93.9 63.6,97.6 66,101.2 68.4,104.8
			70.8,108.4 73.3,112 75.8,115.6 78.4,119.2 80.9,122.7 83.6,126.2 86.2,129.8 88.9,133.3 91.6,136.8 94.4,140.3 		"/>
		<polyline class="st1" points="293.2,55.6 289.3,57 285.4,58.4 281.6,59.7 277.6,61.1 273.7,62.4 269.8,63.6 265.9,64.8 262,66
			258,67.2 254,68.4 250,69.5 246,70.5 242,71.6 238,72.6 234,73.6 230,74.6 225.9,75.6 221.9,76.4 217.8,77.3 213.7,78.1 209.6,79
			205.5,79.8 201.4,80.5 197.3,81.2 193.2,82 189,82.6 184.9,83.2 180.8,83.9 176.6,84.4 172.4,85 168.2,85.5 164,86 159.9,86.4
			155.6,86.8 151.5,87.2 147.2,87.6 143.1,88 138.8,88.2 134.6,88.5 130.4,88.8 126.1,88.9 121.9,89.1 117.6,89.2 113.4,89.3
			109.2,89.4 104.9,89.5 100.6,89.5 96.4,89.5 92.1,89.4 87.8,89.3 83.6,89.2 79.2,89 75,88.8 70.7,88.6 66.4,88.4 62.1,88.1
			57.9,87.8 53.6,87.5 49.3,87.1 45,86.7 40.7,86.2 36.4,85.7 32.1,85.2 27.9,84.7 23.6,84.1 19.2,83.6 15,82.9 10.7,82.2 		"/>
		<polyline class="st1" points="261.2,106.8 257.2,107.8 253.2,108.8 249.2,109.9 245.1,110.8 241,111.7 236.9,112.7 232.8,113.6
			228.8,114.4 224.7,115.2 220.6,116 216.5,116.8 212.4,117.6 208.3,118.3 204.1,118.9 200,119.6 195.8,120.2 191.6,120.8
			187.5,121.4 183.3,121.9 179.2,122.4 175,122.9 170.8,123.4 166.6,123.8 162.4,124.2 158.2,124.5 154,124.8 149.8,125.2
			145.6,125.5 141.3,125.7 137.1,126 132.8,126.1 128.6,126.3 124.4,126.4 120.1,126.5 115.9,126.6 111.6,126.6 107.4,126.6
			103.2,126.6 98.8,126.5 94.6,126.4 90.4,126.4 86.1,126.2 81.8,126 77.6,125.8 73.3,125.6 69,125.3 64.8,125 60.4,124.7
			56.2,124.4 52,124 47.6,123.6 43.4,123.1 39.1,122.6 34.8,122.1 30.6,121.6 		"/>
		<polyline class="st1" points="258.4,53 254.1,53.4 249.8,53.8 245.5,54.1 241.2,54.4 236.8,54.8 232.5,55 228.1,55.2 223.8,55.4
			219.5,55.6 215.2,55.6 210.9,55.7 206.6,55.8 202.3,55.8 198,55.7 193.6,55.7 189.3,55.6 185,55.5 180.8,55.2 176.4,55.1
			172.1,54.8 167.9,54.6 163.6,54.3 159.3,53.9 155.1,53.6 150.8,53.2 146.5,52.7 142.3,52.2 138,51.7 133.8,51.2 129.6,50.6
			125.3,50 121.2,49.3 116.9,48.6 112.8,47.9 108.5,47.2 104.4,46.4 100.2,45.6 96,44.7 91.9,43.8 87.7,42.9 83.6,42 79.5,41
			75.3,40 71.2,38.9 67.2,37.9 63.1,36.8 59,35.6 54.9,34.4 50.9,33.2 46.8,32 42.8,30.8 38.8,29.4 34.8,28.1 30.8,26.8 26.8,25.3
			22.9,23.9 		"/>
		<polyline class="st1" points="30.6,121.6 34.4,123 38.4,124.3 42.3,125.6 46.3,126.9 50.2,128.2 54.2,129.4 58.1,130.6
			62.1,131.8 66.1,132.9 70.1,134.1 74.2,135.2 78.2,136.3 82.2,137.3 86.3,138.4 90.4,139.3 94.4,140.3 		"/>
		<polyline class="st1" points="30.6,121.6 34.4,123.1 38.3,124.6 42.2,126 46.1,127.5 50,128.9 54,130.3 57.9,131.6 61.9,133
			65.8,134.3 69.8,135.6 73.8,136.8 77.8,138 81.9,139.2 85.9,140.4 90,141.6 94,142.7 98,143.8 102.1,144.8 106.3,145.9
			110.4,146.9 114.4,148 118.6,148.9 122.8,149.8 126.8,150.8 131,151.6 135.2,152.4 139.4,153.3 143.6,154.1 147.8,154.8 		"/>
		<polyline class="st1" points="10.7,82.2 12.5,86.2 14.4,90.1 16.3,94.1 18.2,98 20.2,102 22.2,105.9 24.3,109.9 26.3,113.8
			28.4,117.7 30.6,121.6 		"/>
		<polyline class="st1" points="16.9,104.9 17.2,100.6 17.3,96.4 17.6,92 17.9,87.7 18.1,83.4 18.4,79.2 18.7,74.8 18.9,70.6
			19.2,66.3 19.6,62 19.9,57.7 20.3,53.5 20.6,49.2 21,45 21.3,40.8 21.7,36.5 22.1,32.3 22.5,28.1 22.9,23.9 		"/>
		<polyline class="st1" points="66.9,132.9 62.8,131.8 58.8,130.6 54.8,129.4 50.7,128.2 46.6,126.9 42.6,125.6 38.6,124.3
			34.6,123 30.6,121.6 		"/>
	</g>
	<ellipse class="st2" cx="143.6" cy="184.8" rx="2.9" ry="2.9"/>
	<ellipse class="st2" cx="148" cy="155.2" rx="2.9" ry="2.9"/>
	<ellipse class="st2" cx="203.2" cy="60.4" rx="2.9" ry="2.9"/>
	<ellipse class="st2" cx="215.2" cy="59.9" rx="2.9" ry="2.9"/>
	<ellipse class="st2" cx="258.3" cy="52.8" rx="2.9" ry="2.9"/>
	<ellipse class="st2" cx="286.2" cy="57.6" rx="2.9" ry="2.9"/>
	<ellipse class="st2" cx="261.4" cy="107.1" rx="2.9" ry="2.9"/>
	<ellipse class="st2" cx="238.7" cy="111.8" rx="2.9" ry="2.9"/>
	<ellipse class="st2" cx="293.4" cy="56" rx="2.9" ry="2.9"/>
	<ellipse class="st2" cx="299" cy="54.1" rx="2.9" ry="2.9"/>
	<ellipse class="st2" cx="279.1" cy="38.8" rx="2.9" ry="2.9"/>
	<ellipse class="st2" cx="94.1" cy="140.3" rx="2.9" ry="2.9"/>
	<ellipse class="st2" cx="92.6" cy="135.5" rx="2.9" ry="2.9"/>
	<ellipse class="st2" cx="96" cy="115.9" rx="2.9" ry="2.9"/>
	<ellipse class="st2" cx="67.1" cy="132.8" rx="2.9" ry="2.9"/>
	<ellipse class="st2" cx="30.4" cy="121.4" rx="2.9" ry="2.9"/>
	<ellipse class="st2" cx="21.2" cy="108.4" rx="2.9" ry="2.9"/>
	<ellipse class="st2" cx="16.8" cy="104.8" rx="2.9" ry="2.9"/>
	<ellipse class="st2" cx="10.7" cy="82" rx="2.9" ry="2.9"/>
	<ellipse class="st2" cx="23.2" cy="23.6" rx="2.9" ry="2.9"/>
</g>
<text transform="matrix(1 0 0 1 318.8294 111.6281)" class="st2 st3 st4">Immigration</text>
</svg>
