<?xml version="1.0" encoding="utf-8"?>
<!-- Generator: Adobe Illustrator 23.1.1, SVG Export Plug-In . SVG Version: 6.00 Build 0)  -->
<svg version="1.1" id="Layer_1" xmlns="http://www.w3.org/2000/svg" xmlns:xlink="http://www.w3.org/1999/xlink" x="0px" y="0px"
	 viewBox="0 0 643 193.7" style="enable-background:new 0 0 643 193.7;" xml:space="preserve">
<style type="text/css">
	.st0{fill:#707589;}
	.st1{fill:none;stroke:#FFFFFF;stroke-width:0.8;stroke-linejoin:round;stroke-miterlimit:10;}
	.st2{fill:#FFFFFF;}
	.st3{font-family:'ArialMT';}
	.st4{font-size:3.8669px;}
	.st5{fill:none;stroke:#FFFFFF;stroke-width:0.8;stroke-linecap:round;stroke-linejoin:round;stroke-miterlimit:10;}
	.st6{font-size:2.544px;}
	.st7{enable-background:new    ;}
	.st8{font-family:'Roboto';}
	.st9{font-size:60px;}
</style>
<g id="map">
	<path class="st0" d="M35.9,172c0.6,1.1,0.5,1.8-0.9,2.2c-0.9,0.3-1.7,1-2.5,1.5c-0.5,0.3-1,0.5-1.7,0.8c0.2-2.2,0-4.2,2-5.4
		c-1.3,0.1-1.8,0.6-2.6,2.2c-0.6,1-1.4,2-2.1,3.2c0.2,0.2,0.6,0.4,1.1,0.9c-3.4,3.6-7,6.7-11.4,9.1c-0.5-0.6-1.2-0.4-2.2,0.2
		c-1.2,0.7-2.8,1-4.2,1.4c-0.1-0.2-0.2-0.4-0.3-0.6c0.6-0.4,1.4-0.7,2-1.1c0.6-0.3,1.4-0.6,2.1-1c0.5-0.2,0.8-0.8,1.3-0.8
		c2.3-0.2,3.8-1.8,5.3-3.3c0.8-0.9,1.1-2.1,1.9-3.6c-1.2,0.2-1.8,0.2-2.8,0.3c-1-1.1-1-1.6-3.7-0.5c0-1.3,0-2.5,0-3.8
		c-2.7,0.5-3.4-0.2-3.7-2.9c-0.2-1.1-1.2-2.2-0.2-3.4c0.6-0.7,1-1.7,1.8-2.2c0.4-0.3,1.3-0.2,1.9-0.1c0.9-0.4,2.1-0.6,2.6-1.2
		c0.5-0.6,0.2-1.8,0.2-2.5c-1.3,0-2.7,0-4.2,0c-1.1,0-1.8-0.5-2-1.8c-0.1-0.7-0.6-1.4-1.1-2.2c1.5-0.6,3-1.2,4.8-1.9
		c0.2,1.8,1,2.2,2.6,1.7c-1.3-1.8-2.6-3.6-3.7-5.4c-0.2-0.4-0.6-1-0.4-1.4c0.2-0.4,0.9-0.6,1.4-0.9c0.6-0.2,1.5-0.2,1.7-0.6
		c0.7-1.8,2.1-2.6,3.6-3.3c1-0.5,2.2-0.9,3.7-1.4c1,0.5,2.4,1.5,3.9,1.8c2.2,0.5,4.6,0.7,7,0.6c1.8-0.1,3.2,0.4,3.6,2.2
		c1.5,7.5,3,15,4.6,22.8c0.7-0.2,1.4-0.4,1.9-0.5c1.2,1,2.3,1.8,3.4,2.6c0.7-0.9,1.4-2.3,2-2.3c0.9,0,1.8,1,2.6,1.7
		c0.9,0.6,1.8,1.3,2.5,2.1c1.3,1.4,2.6,2.6,4.6,2.9c1.3,0.2,1.8,2.2,1,3.8c-0.6,0.2-2-1.6-2.1,0.6c0,0-1.4,0.3-1.8,0
		c-1.1-1-2-2.2-3-3.5c-0.2,0.5-0.2,0.7-0.3,1.2c-1-1-1.7-2.1-2.6-2.8c-1.7-1.3-3.4-2.5-5.2-3.6c-2-1.2-4.2-1.1-6.6-1
		c-1.2,0.1-2.5-0.8-3.8-1.3c-0.6-0.2-1.2-0.2-1.8-0.4C35.9,171.6,35.9,171.8,35.9,172z"/>
	<path class="st0" d="M30,178.2c0.2,0.2,0.4,0.2,0.5,0.4c0.6,1.1-1.1,4-2.3,4.1c-0.3,0-0.9-0.3-1-0.6c-0.2-0.3-0.2-1,0-1.3
		c0.7-0.8,1.6-1.5,2.4-2.2C29.6,178.4,29.9,178.4,30,178.2z"/>
	<path class="st0" d="M10.8,163.4c-1.5,0.5-3.4-0.6-3.9-2.2C8.3,162,9.5,162.6,10.8,163.4z"/>
	<path class="st0" d="M10.4,171.6c0.7,0.2,1.4,0.2,2.2,0.4c-0.1,0.3-0.2,0.7-0.3,1c-0.6-0.2-1.4-0.4-2-0.6
		C10.3,172.3,10.4,172,10.4,171.6z"/>
	<path class="st0" d="M97.3,188.6c-0.8-0.2-1.8-0.6-1.4-2.3c0.1-0.4-0.1-0.9-0.3-1.3c-0.6-1.2-1-2.2,0.2-3.4
		c0.5-0.5,0.2-1.6,0.4-2.6c3.1,0.9,5.8,2.3,7.3,5.8C101.8,185.9,99.9,187.1,97.3,188.6z"/>
	<path class="st0" d="M92.9,176.8c-0.2-0.2-0.5-0.3-0.7-0.6c-0.4-0.4-0.8-0.9-1.2-1.4c-0.2-0.2-0.2-0.6-0.3-1c0.3-0.1,0.7-0.2,1-0.2
		c0.9,0.2,1.8,0.4,2.6,0.7c0.4,0.2,0.6,0.7,1,1c-0.4,0.3-0.8,0.6-1.2,0.9C93.7,176.6,93.4,176.7,92.9,176.8z"/>
	<path class="st0" d="M72.9,165.7c-0.8,0.6-1.4,1.3-1.8,1.2c-0.6-0.1-1.3-0.7-1.9-1.2c0.8-0.5,1.5-1,2.4-1.4
		C71.8,164.4,72.3,165.1,72.9,165.7z"/>
	<path class="st0" d="M82,168.3c0.1,1,0.3,1.8,0.2,2.6c0,0.2-1,0.6-1.2,0.5c-0.6-0.5-1-1.1-1.6-1.8C80.3,169.1,81,168.8,82,168.3z"
		/>
	<path class="st0" d="M123.9,160.3c0.4-0.3-0.2,1,0.6,0.7c-0.1,0.1-0.1,1.1,0.2,0.2c0.8,1.5,3.1,2.8,4,5.6c0.2,4.4,6.2,7.7,6.2,11.8
		c1.3,4.8,4.8,9.5,11,9.4c0.8,0.1,1.4,1,2.9,1h-0.1c0.8,0.6,1.8-1.5,1.3-0.5c-0.2-0.1-0.1-0.3-0.5,0.1c-0.3-1.9-2.1-4.2-1.4-9.1
		c-1,1-3.1-3.2-0.7-0.4l-0.1-0.2c0.5-0.2,1.4-1,0.4,0.2c0.7,0.6,1.6-1.5,1.8-2.9c-0.6,0.7-0.4-0.2-0.7-1c-0.1,0.1-0.6,0.3-1-0.3
		c0.9-0.5,4.2,1.9,2-1.4c0.1,0.1,0.8-0.3,0.3-0.6c1,0.9,2.2-1.8,1.8,0.3c1.4,0,0.2-2.4,1-1.8c-1.8-0.9,4.5,0.8,1.4-0.6
		c0.1-0.2-0.2-0.1,0.5-0.4c-0.3-0.6-1,0.2-1-1.3c0.1,0.2,0.5-0.4,0.6,0.4l0.2-0.2c0-0.2,0.2,1,0.4,0.2c-0.1-0.1,0.3,0.3-0.2,0.6
		c0.2,0.2-0.1,0.1,0.6-0.2c0.2,0.2-0.6-0.6-0.1-0.9c-0.1,0.2,0.5,1.3,0.8,0c0,0.1,0,0,0.1,0.3c0.1,0,0.1-0.1,0.4-0.5
		c0,0.2,0-0.1-0.2,0.9c-0.1-0.1,0.9,0.2-0.1,0.2c2.8-0.4,4.2-1.8-0.8,1.4c1-0.6,5.4-2.2,7.8-4.9c-1.6-0.4,2.4,0,1-4.7l-0.1,0.1
		c4.6-1.1-0.7,0.6,3.1,1.4c-4.2,2.5,2.6-1.4,6.1-1.8c1.8-1.2,9,3.7,9.1,0.4c1.2-4.4,5.8,5.8,10,3c-0.2-2.6,3.6,4.3,3.3-2.1
		c1.2-0.2,1,1.6,2.4,1.1c1.9,1.4,3,3.2,3.8,1c0.5-0.9-3.4-0.7-3.7-3.1c1.2-1,2.6-1.8,2.6-3.5c0.3-1.4-5.8,3.2-3.4,0.5
		c0-0.2,0.6-1.4-0.2-0.6c-0.1-0.1-0.1,0-0.1-0.3c-1.4,2.1-8.1-0.2-2-1.1c1,0.6,3.1,1.9,4.5-0.1c2-1.9,8.1,1.7,8.2-3.9
		c2.3,2.2-1.4,6.2,3.6,2.7c-1,1.2,2.4-0.2,1.5-1.6c0.7,0.8,2.9-0.2,0.2,1.5c1.3-0.9,10.1-1.7,4.2-0.8c0.5-0.2,5.6,2.3,4.7,0.9
		c-0.8,0.6-0.6-0.8,0.6-0.1c-0.1,0.2,0.1,0.2-0.2,0.5c-0.6,0.6,1.6-0.3,2.7,3.3c-0.4,0.2-0.4,0-0.5-1.3c-1.2,2.3,2.2,1,3.4,0.4
		c-1,0.8,4.6-1.7,2.7-1.6c0.2-0.2,0.4-0.5,0.9-1c0.8-1.6,11.4,6.3,11.6,9c0.2,1.6-1.9,7.1,0.9,6.9c-1.8-4.6,1,0,0.9-1.3
		c2-1.1-1.8,3.4-0.3,3.5c0.9,0.8,1.4,4.2,3.4,4.1c-1.4-1.3,0.9-1.4,0.3-0.9c0.5,2.5,0.6,2.5,3.7,7c0.1-0.9,9,5.9,3.9,4
		c0.1,2.3,3.6-0.1,5-0.1c0.6-1.4,0.2-3.1,1.2-4.8c1.3-9.4-10.4-23.5-13.8-33.8c0.1,0.3,1-4.8,0.2-2.3c-1.3-1.5,0.8,0.1-0.2-2.2
		c0.6,0,0.5-0.7,1.1-0.7c0.6-0.7-1.1-1.4,0.4-1.3c0.2-0.5,0.1-0.8-0.4-1.2c1.1-1.5,3.1-3,1.6-5.5c1.8,1.7,1.3,0.3,2.2-0.7v0.1
		c0.2-0.3,1.4,0.2,1.3-1c-0.3,0.6,6.1-4,5-6.5c0.6,1.8,0.9-3.3,3.9-4.2c0.6-1.1,3.4,0.3,3.1-2.2c0.2,2.6,2.5-6.7,3-4.6
		c-0.8,1.1,1.9,0.2,0.9-1.1c0.2,0.9,2.7,0,2.4-0.3c0.2-0.4,0.2-0.4,0.8,0.1c0.2-0.2,0.6-0.1,1.6-1.6c0.2-0.2-1.2-1.2-1.1-0.4
		c-1.2-0.3,0.5,0.7-1,0.3c0.1,0,0.5,0.5,0,0.4c-0.3-1-0.2,1.1-2.7-0.9c-0.3-1.7,2.6,3,2.9-1.7c1.4-0.3-1.1-0.8-1.7-0.6
		c-2.8-1.5,1,0.4,1.1-1c-1-0.3,0.2-0.5,0.8-0.6c-1.1,1.5,0.2,0.7,1.3,1.3c1-0.2,1.4-0.6,2-2.3c0.9,0.9,0.4-0.6,0.8-0.8
		c-0.4-0.6,0.2-1.2-1.2-1.8c0.2,0.2-0.3,0.1-0.1,0.5c-1.2-0.5,0.5,2.9-1.3,1.8c0.7,0.2,0.5-1.2,0.2-1.8c-0.6-1.5-4.2,3.8-4.5-2.2
		c0.4-0.1,1,3.9,1.9,1.6c0.9-0.2,0.5-1.1,1.6-0.6c0.6-0.5,0.6-0.4-0.3-1.1c0.6-0.3,1.9,1.3,1.1-0.3c0.6-0.1,0.5,0.9,1.3,1.3
		c0.1-1-3.6-4.1-1.4-2.8c0.1,0-0.8-2.1,0.2-0.5c-1-0.5,5.1,8.2,2.2,3.6c-1.5-1.1-2.2-8.5-5.9-5.2c-0.1-1.5-4.1-1.7-2.8-2.7
		c1,0.4,2.2,2,3.7,1.5c0-0.1,0.2-0.8-0.4-0.5V98l0,0c0.5-0.6-3.4-1.2-3-2.6c2.5,3,1.5-0.2,3.1,0.9c-0.2-2.1-1.7-0.9-4.7-4.4
		c3.1,3.4,6.6,1.4,1.5-0.9c-0.9-0.2-2.1-0.2-2.7-1.6c-0.4-1.2,1.1,0.7,3.6,1.1c1.9,0.8,0.3-0.7-1.5-2.2c3.4,1.6,0.2,0.6,0.2-3.8
		c0.8,0,0.2-0.9-1-1.8c1-0.1,0.7,0.1,1.4-0.7c-0.5-0.8,0.7,0,0.6-0.8c1-0.1-0.2-1.2,1.1-1.5c0.1,0-0.1,0.3,0,0.8
		c0.5-1,1,0.5-0.7,1.3c-0.6,1.9,1.4,2.2-0.2,4.4c0.6-0.4,0.6,0.6,1.3-0.2c0.7,2.1-0.4-0.1-0.6,1.5c1.6-0.4-1.9,0.3,1.6,2
		c0-1.8,0.3,0.9,0.7-0.9c0.4,0.3,0.3,3.1,1.4,2.6c1-0.7-0.2,1.4-0.3,2.6c-0.6,0.5-0.4,6.2,0.6,1.7c0.4-5,4.3-4.6,1.6-9.5
		c0,0,1-0.2,0.2-0.5c0,0,0.2,0,0.2-0.3c2.3,1.5-5.1-4.7-3.6-6.6c-0.2,3.3,4.6,1.8,4.4,4.7c1.4-2.8,3.1-5.1,3-8.9
		c0.2,0.2,0.2,0.7,0.4,1.8c-0.1-1,0.5-3.5-0.6-5c0,0.2-0.1,0.1,0.1,0.5c-0.2-0.2-1,0.2-1.6-0.2c1.4-0.5,0.3-1.9,1.4-3.4l0.2,0.6
		c-0.1-0.1-0.1,0-0.2-0.2l0.6,0.2c-0.4-0.6,0.6-0.6,0.5-1.7c1,0.2,3.2-2.9,3.8-2.5c0.6-0.6,2.6-0.2,2.7-1.2c0.9,0.5,1-0.2,2.7-0.7
		v0.2c0.4-0.2,0.9-0.3,1.8-1.3c0.1,0.9,0.5-3.8,0.7-0.5c0.6,1,0.5-1.2,0.8-0.2c0.1,0,0.2-0.3,0.5-0.7c-0.1,0.1,0.6,0.6,0.5,0
		c0.4,0.3,1.6-4.2,1.8-0.6c1.8-0.4,6.1-4,1.4-4c3.8,0.1-0.9,4.7-2,0.6c-0.3-0.6-0.8-1.2-2-1.6c0.3,1.1-1.5,0-0.7-0.5
		c2.2-4.5,0.3,1,0.2-5.4c1.4-0.5,0.6-5.8,2.6-6.2c0.9-1.1-0.2,2,1.7-1.3c1.2,0.9,0.1-0.7,1.8-1c0,2.8,1.3-7.3,1.4-3.5
		c0.2,0.2,0.3-0.7,0.6,0.1c0.1,0.1-0.8-0.2-0.4,0.3c-0.7,0.1,0.7,0.5,0.9,0.3c0.5,0.2,0.6-0.1,0.1-0.9c0.2-0.2,0.4-0.2,0.5-0.9
		c0.1,0.4,0.7,0.9,0.7-0.3c0.5,0.3,1-0.6,1.5,0.9c0.2-0.2,0.2-0.5,0.2-1.2c0.3,0.6,0.7,0.2,0.6-0.7c0.3-0.2,1.6,0.6,1.3-0.9
		c0,0.1,0.1-0.1,0.4,0.1c-0.1,0.2,0.2-0.9,0.2-0.1c0.4,0.2,0-1.6,0.6-0.5c0.5,0,1-0.8,1.1-1.8c-2,0.5,0.6-1.6-2-2.2
		c-1.3,1.6-0.6-2.5-3.1-2.7c-2.5-1.1-0.3-9-5.4-10.7c-5.9,5.5-4.6-7.2-7.8,8.8c-1.3,4.2,0.6,8.1-4.8,9.9c1.1,6.1-20.6-0.7-22.4,13.9
		l-0.2,0.3c0,1.6,1.8,2.5-3,5.9c-0.2-0.2-2.2-0.3-3,0.7c-1-1-9.9-0.9-7.3,3.3c2.1,0.6-1.4,4.2-5.2,6.9c-0.1,0,0.2-0.1,0.1-0.3
		c-7.4,4.5-7.8,8.3-18,6.1c0.2,0.2,3.1-10.3,3.9-7c1-2.4-0.6-17.4-6.7-6.6c-3.8-2.3,1.9-1.5,1.2-10.7c-8.3-7-9-5.1-11.9,3.1
		c-0.5-0.6,0.1-2,0.1-3.1c-2.2,2.2-4,5.3-4,9.5c-1,4.4,4.7,6.5,0.4,14.6c-7.7,10.1-9.4-13.6-4.6-22.4c0.9-0.4,0.5-3.2-0.2-0.7
		c-0.6-0.1-1,1.3-1.1,2.5c-1.1-1-1.4,1.4-3.2,2.6c-0.8,0.8,5.4-13,4.8-8.9c4-3.8-0.6,2.2,3.1-0.9c1.3-3.2,8.2-1.8,12.5-2.6
		c-2.9-5.4-7.1-0.5-5.9-5c-5.3,0.3-10.3,5.8-14.2,0.8c-1.8-0.6-2.1-1.5-3.8,0.8c-0.2-0.3,0.2-1,0-1.8c1-0.4,1.2-2.6,3.2-3.1
		c-3.5-1.4-9.9,8.1-15.8,6.6c2.8-5.5-3,0.9-6.1-0.8c1.4-1.8,7.7-7.5,13-9.6c-6.2-1-11.4,0.2-16.2-2.6c1-2.7-6.2,1.2-9.9-2.6
		c-0.3-1.1,0.1-4.1-2.3-3.8c-38.1,8.2-91.6-6.2-134.7-16v0.2c-1,0.2,0.7,1.7,0.6,2c0.3,0.4,0.3,2.2-0.7,1.8c0.2-0.9-1.1,0.3,0.1,0.2
		c0.8,0.8-0.2,2.3,1,3.1c-0.6,0.3-1.1,1.2-1.8,2.2c0.2,0.6-0.1,1.8-0.7,2.9c0,0-0.2-0.1-0.5-0.6c-0.1,0.2-1.2,2-1.8,0.6L24.7,16
		c-0.1,0.1,0.2-0.2-0.3-0.2c-0.1,0.2,0,0.1-0.2,0.7c-0.4,0.2,0.3-0.6-0.5-0.5c0.1,0,0,0,0.5-0.4c-0.2-0.1-0.1-0.2-0.7,0.2
		c0,0-0.1-0.2,0.5-0.5l-0.5-0.1c0,0.2,0-0.4,0.4-0.2l0.2-0.4c0.2,0.1,1-0.2,1.4-0.9c0.2,1-1,2,1,0.2c0,0.2-0.8,0.6,0.1,1
		c-0.2-1,1.8-1.3,0.1-2.2c0-0.1-0.2-0.1,0-0.4c0.6,0.6,0.2,0.1,0.5-0.7c0-0.2,0.1,0.7,0.5,0c0.2,0.6,0.8-0.6,0-1.4
		c-0.2,0,0,0.1-0.2,0.8c0.6-0.5-5.9,2.8-2.1,2.3c-3,0.9-0.7-1,0.6-2.7l0.2,0.3c0-0.1,0.1,0.1,0.2-0.4c0,0.2,0.2,0.2-0.1,0.6
		c0.6-0.3,1.4-0.8,1-2.2l-0.2,0.6L27,9.3l-0.1,0.2c0.1-1,0.3-0.9-0.6,0.1c0,0,0.3-0.4-0.2-0.8c-0.1,0,0.1,0.1-0.2,0.3
		c-0.4-1.5-3.4-1.5-7.4-5c-1,3,0.7,6.2-0.1,10.5c0.5-0.5,0.3-0.5,1.6,0.4c0.2,0.2-1.3-0.2-1.4,0.6c-0.2,0,0-0.2-0.3-0.6
		c-0.3,1-0.1,1.3,1,1.8c-0.1-0.2-0.3,0.3-0.8,0.4C18.4,17,19,19,17.8,19c-0.2,0.2,0.5-0.8,0.2-1.9c-0.2,0.2-0.4,1.2-0.6,2.3
		c0.4,0.4,2.8,0.3,3,1.7c-0.5-0.6-1.1,0-2.2-0.6c0,0,0.1,0.1,0.2,0.4c-0.3,0.2-0.2-0.6-1-0.7c0.5,1.5-1.2,2.9-0.9,5.3
		c-2.7,7.1-10.8,17.5-9.1,27l-0.1-0.2c0.2,0.8-0.3,1.1-0.9,2.5l-0.2-0.2c0.3,3.1-5,1.7-1.3,10.7C2.5,69,6.1,74.9,6.3,77.4
		c0.3,0.3-1.3,2.2,0.1,1.1c0,0.4,0.5,0.7,1,1.4c1.4,1.2,1,0.9,1.5-1.1c-0.1,0-0.1,0-0.2-0.2c0.8,0,1.1,0.1,1.8,1.2
		c-0.2-0.1,0-0.1-0.6-0.2H10c-1.5-0.2-0.4,2.6,0.5,4.4c-0.4,0.2-2.6-1.8-1.6-2.4c-0.1-0.2,0.2-0.5-0.3-0.7c-1.9,2.3-0.9,5.1,1.7,7.8
		c-4.1,3.1,2.6,9,2.2,12.4c3.7,3-4.6,5.1,5.3,7.9c5.1,4,12.2,9,12.2,16.4c-0.5-0.2-0.2-0.9-0.3,0.6c4.3,0.5,9.1,1,14.6,1.6
		c-3.6,0.6,17.7,15.4,31.8,15.7c5.8,2,10.5-5.2,18.2-0.1c1.4,3.5,5.7,5.8,8.2,9.6c0.9,1.8,0,7,5.9,9.9c2.3,0.6,2.3,3.6,5.8,0.5
		c-0.2-0.6,0.6-1.6,1-2.8l0.2,0.1c1.3-2.5,4.7-1,7.7-0.6C123.4,159.9,123.5,160.4,123.9,160.3z"/>
	<path class="st0" d="M298.1,59.7c-0.3,0.1-0.3,0-1-0.1c-0.2-0.8-0.2,0.9-1,0.9C295.9,61.1,297.9,60.4,298.1,59.7z"/>
	<path class="st0" d="M300.4,60.1c-1.4-0.2-0.2,0.9,0.6-0.2c-0.2-0.4-1-0.8-0.4-0.2C300.5,59.8,300.7,60,300.4,60.1z"/>
	<polygon class="st0" points="280.4,68.3 280.3,68.2 280.3,68.1 280.3,68 280.2,68.1 280.2,68.4 280,68.7 280,69 280,69.1
		280.1,69.1 280.3,68.9 280.3,68.8 280.3,68.8 280.3,68.5 280.3,68.4 	"/>
	<polygon class="st0" points="279,71 279.2,70.9 279.5,70.8 279.5,70.5 279.7,70.4 279.9,70 279.9,69.9 279.7,69.6 279.1,69.9 	"/>
	<path class="st0" d="M288,66l0.2,0.2c-0.1,0,0.1,0.2-0.4,0.2c-0.6-0.6,0.1-1.3,1.1-2.5c-1.4,1.7-4.9,2.5-6.3,3.4
		c0-0.3-0.8-0.2-0.7,0.6c-0.4-0.6-0.3,0.9-0.8,0.3c-2.8,3.1,1.8,0.2-0.2,1.8c1-0.4,2.6-1.3,3.8-2.2c1.8-0.4,4.4-2.6-0.1,0.9
		c1.5-0.9,9.7-6.1,4.1-3.9C288.4,65.1,288.5,65.5,288,66z"/>
	<path class="st0" d="M26.7,5.2c0,0,0.1,0.2,0.3,0.5c-0.2,0,0,0.2-0.2,0.6C26.4,6.3,26.1,3.9,26.7,5.2z"/>
	<path class="st0" d="M27.4,6.6c0-0.3-0.5-0.5,0.2-1C27.5,5.9,28.1,6.7,27.4,6.6z"/>
	<path class="st0" d="M28,5.2c-0.2,0.1,0.1-0.2-0.3-0.6c0,0.1-0.1,0,0,0.6c-0.2,0.2,0-0.4-0.6-0.2c-0.1-0.2,0.2-0.3,0.6-0.7
		C27.9,4.4,28.8,4.8,28,5.2z"/>
	<path class="st0" d="M27.7,8.4c0.1-0.1-0.2,0.2,0.4,0.3c-0.7,1.4,2.6,3.8-0.3-0.6c-0.1-0.2,0.2,0.2,0.4-0.3
		c0.2,0.1,0.2,0.1,0.7,0.1c0.2-0.1-0.3-0.4-0.2-0.7C28.6,7,27.3,7.2,27.7,8.4z"/>
</g>
<g id="constellation">
	<g>
		<polyline class="st1" points="225.9,66.9 222,68 218,69 214.1,70 210.1,71 206.1,72 202.1,72.8 198.1,73.7 194.1,74.6 190,75.4
			186,76.2 181.9,77 177.9,77.7 173.8,78.4 169.7,79.2 165.6,79.8 161.5,80.4 157.4,81 153.3,81.6 149.1,82 145,82.6 140.8,83
			136.7,83.5 132.5,83.9 128.3,84.2 124.2,84.6 120,84.9 115.8,85.2 111.6,85.4 107.4,85.6 103.1,85.8 99,86 94.7,86.1 90.5,86.2
			86.3,86.3 82,86.3 77.8,86.3 73.5,86.2 69.3,86.1 65,86 60.7,85.9 56.5,85.7 52.3,85.6 47.9,85.3 43.7,85.1 39.4,84.8 35.1,84.4
			30.8,84 26.6,83.6 22.3,83.2 18,82.8 13.7,82.3 9.5,81.8 		"/>
		<polyline class="st1" points="278.9,41.9 275.1,43.5 271.4,45 267.6,46.5 263.9,48 260,49.5 256.2,50.9 252.3,52.4 248.5,53.7
			244.7,55.1 240.7,56.4 236.8,57.7 232.9,58.9 229,60.2 225.1,61.4 221.1,62.6 217.1,63.7 213.1,64.8 209.1,66 205.1,67 201.1,68
			197,69.1 193,70 188.9,71 184.8,71.9 180.7,72.8 176.6,73.6 172.5,74.4 168.3,75.2 164.2,76 160,76.8 155.9,77.4 151.7,78.1
			147.5,78.8 143.3,79.3 139.1,79.9 134.9,80.4 130.7,80.9 126.4,81.4 122.2,81.9 117.9,82.3 113.7,82.7 109.4,83 105.1,83.3
			100.8,83.6 96.5,83.9 92.3,84 87.9,84.3 83.6,84.4 79.3,84.5 75,84.6 70.7,84.6 66.3,84.7 61.9,84.6 57.6,84.6 53.2,84.5
			48.9,84.4 44.5,84.2 40.1,84 35.8,83.8 31.4,83.6 27,83.2 22.6,82.9 18.2,82.6 13.9,82.2 9.5,81.8 		"/>
		<polyline class="st1" points="259.2,93.6 262.3,90.2 265.5,86.8 268.6,83.3 271.5,79.9 274.6,76.4 		"/>
		<polyline class="st1" points="258.7,109.2 261.1,104.8 263.4,100.4 265.7,96 		"/>
		<polyline class="st1" points="258.7,109.2 254.8,107 251,104.8 247.1,102.5 243.4,100.3 239.6,98 235.9,95.7 232.3,93.4 228.6,91
			225,88.7 221.4,86.3 217.8,83.9 214.3,81.4 210.7,79 207.3,76.5 203.9,74 200.4,71.5 197.1,68.9 193.7,66.4 190.3,63.9
			187.1,61.2 183.9,58.7 180.6,56 177.4,53.4 174.3,50.8 		"/>
		<polyline class="st1" points="286.1,60.7 284.2,64.4 282.3,68.2 280.3,72 278.3,75.7 276.2,79.4 274.1,83.2 272,86.9 269.9,90.6
			267.7,94.4 265.5,98 263.3,101.8 261,105.5 258.7,109.2 		"/>
		<polyline class="st1" points="249.2,152.7 250.7,148.7 252.3,144.7 253.8,140.8 255.3,136.8 256.7,132.8 258.2,128.8 259.6,124.7
			261,120.7 262.3,116.7 263.7,112.7 265,108.7 266.3,104.6 267.5,100.6 268.7,96.6 270,92.5 271.1,88.5 272.3,84.5 273.5,80.4
			274.6,76.4 		"/>
		<polyline class="st1" points="194.3,121.9 190,121.6 185.8,121.1 181.5,120.7 177.2,120.2 173.1,119.7 168.8,119.2 164.6,118.6
			160.3,118 156.2,117.3 151.9,116.7 147.8,116 143.5,115.3 139.4,114.5 135.2,113.8 131.1,113 127,112.1 122.8,111.2 118.7,110.4
			114.6,109.5 110.5,108.5 106.4,107.6 102.3,106.5 98.3,105.5 94.2,104.4 90.2,103.3 86.1,102.2 82.1,101.1 78.1,99.9 74.1,98.7
			70.1,97.4 66.2,96.2 62.2,94.9 58.3,93.6 54.3,92.2 50.4,90.8 46.5,89.5 42.7,88 38.7,86.6 34.9,85.2 31.1,83.6 27.2,82.1
			23.4,80.5 19.6,78.9 15.9,77.3 		"/>
		<polyline class="st1" points="174.3,50.8 178.2,52.2 182.2,53.6 186.2,54.9 190.2,56.3 194.2,57.6 198.3,58.8 202.3,60.1
			206.4,61.3 210.6,62.5 214.7,63.6 218.8,64.8 223,65.9 227.2,66.9 231.5,68 235.6,68.9 239.9,70 244.2,70.8 248.5,71.7
			252.7,72.6 257.1,73.5 261.5,74.3 265.8,75 270.2,75.7 274.6,76.4 		"/>
		<polyline class="st1" points="174.3,50.8 177.4,53.4 180.6,56 183.9,58.7 187.1,61.2 190.3,63.9 193.7,66.4 197.1,68.9
			200.4,71.5 203.9,74 207.3,76.5 210.7,79 214.3,81.4 217.8,83.9 221.4,86.3 225,88.7 228.6,91 232.3,93.4 235.9,95.7 239.6,98
			243.4,100.3 247.1,102.5 251,104.8 254.8,107 258.7,109.2 		"/>
		<polyline class="st1" points="213.1,113.6 216,116.8 218.9,120.2 221.8,123.5 224.7,126.8 227.7,130.1 230.7,133.4 233.7,136.7
			236.7,139.9 239.8,143.1 242.9,146.3 246,149.5 249.2,152.7 		"/>
		<polyline class="st1" points="285.4,63.8 282.6,67.2 279.8,70.5 277,73.9 274.1,77.2 271.2,80.5 268.3,83.8 265.3,87.1
			262.3,90.4 259.2,93.6 		"/>
		<polyline class="st1" points="195.9,159.6 194.9,155.4 193.9,151.2 193.1,147 192.1,142.8 191.1,138.6 190.3,134.4 189.4,130.3
			188.5,126 187.6,121.9 186.7,117.6 185.9,113.5 185.1,109.2 184.2,105.1 183.4,100.9 182.6,96.7 181.8,92.5 181,88.3 180.2,84.1
			179.4,80 178.7,75.7 177.9,71.6 177.1,67.4 176.4,63.2 175.7,59.1 175,54.9 174.3,50.8 		"/>
		<polyline class="st1" points="274.6,76.4 270.2,75.7 265.8,75 261.5,74.3 257.1,73.5 252.7,72.6 248.5,71.7 244.2,70.8 239.9,70
			235.6,68.9 231.5,68 227.2,66.9 223,65.9 218.8,64.8 214.7,63.6 210.6,62.5 206.4,61.3 202.3,60.1 198.3,58.8 194.2,57.6
			190.2,56.3 186.2,54.9 182.2,53.6 178.2,52.2 174.3,50.8 		"/>
		<polyline class="st1" points="274.6,76.4 273.5,80.4 272.3,84.5 271.1,88.5 270,92.5 268.7,96.6 267.5,100.6 266.3,104.6
			265,108.7 263.7,112.7 262.3,116.7 261,120.7 259.6,124.7 258.2,128.8 256.7,132.8 255.3,136.8 253.8,140.8 252.3,144.7
			250.7,148.7 249.2,152.7 		"/>
		<polyline class="st1" points="274.6,76.4 270.5,77.5 266.4,78.5 262.3,79.5 258.3,80.4 254.2,81.4 250.1,82.3 245.9,83.2
			241.9,84 237.7,84.8 233.6,85.6 229.5,86.3 225.3,87 221.1,87.7 217,88.4 212.8,89 208.7,89.6 204.4,90.1 200.3,90.7 196,91.2
			191.9,91.6 187.6,92 183.5,92.4 179.2,92.8 175,93.2 170.8,93.5 166.6,93.8 162.3,94 158.1,94.3 153.9,94.4 149.6,94.6
			145.4,94.7 141.1,94.8 136.9,94.8 132.6,94.8 128.3,94.8 124.1,94.8 119.9,94.8 115.6,94.7 111.3,94.5 107.1,94.4 102.8,94.2
			98.6,94 94.3,93.7 90,93.4 85.8,93.1 81.5,92.7 77.2,92.4 73,91.9 68.7,91.5 64.5,91 60.3,90.4 55.9,89.9 51.7,89.3 47.5,88.7
			43.2,88 39,87.4 34.7,86.7 30.5,86 26.3,85.2 22.1,84.4 17.9,83.6 13.6,82.7 9.5,81.8 		"/>
		<polyline class="st1" points="248.4,77.6 252.7,77.5 257.1,77.3 261.5,77.2 265.9,77 270.2,76.8 274.6,76.4 		"/>
		<polyline class="st1" points="22.7,27.1 26.7,28.4 30.8,29.6 34.9,30.8 39,31.9 43.1,33 47.2,34.1 51.4,35.2 55.5,36.2 59.7,37.2
			63.9,38.1 68,39 72.2,39.9 76.4,40.8 80.6,41.6 84.8,42.4 89,43.1 93.2,43.8 97.5,44.5 101.6,45.2 105.9,45.7 110.1,46.3
			114.4,46.8 118.7,47.4 122.9,47.8 127.1,48.3 131.4,48.7 135.7,49 139.9,49.4 144.3,49.6 148.5,50 152.8,50.1 157.1,50.4
			161.4,50.5 165.6,50.6 169.9,50.7 174.3,50.8 		"/>
		<polyline class="st1" points="265.7,96 263.4,100.4 261.1,104.8 258.7,109.2 		"/>
		<line class="st1" x1="15.9" y1="77.3" x2="9.5" y2="81.8"/>
		<polyline class="st1" points="192,96.2 187.9,96.5 183.7,96.8 179.5,97.1 175.4,97.3 171.2,97.6 167.1,97.7 162.9,97.9 158.7,98
			154.6,98 150.4,98.1 146.3,98.1 142.1,98.1 137.9,98 133.8,98 129.6,97.9 125.4,97.8 121.2,97.6 117.1,97.4 112.9,97.2
			108.7,96.9 104.6,96.7 100.4,96.4 96.2,96 92,95.6 87.9,95.2 83.7,94.8 79.5,94.3 75.4,93.8 71.3,93.3 67.1,92.8 63,92.1
			58.8,91.6 54.7,90.9 50.5,90.2 46.4,89.5 42.3,88.8 38.2,88 34,87.2 29.9,86.4 25.8,85.5 21.7,84.6 17.6,83.7 13.5,82.8 9.5,81.8
					"/>
		<polyline class="st1" points="9.5,81.8 13.6,82.7 17.9,83.6 22.1,84.4 26.3,85.2 30.5,86 34.7,86.7 39,87.4 43.2,88 47.5,88.7
			51.7,89.3 55.9,89.9 60.3,90.4 64.5,91 68.7,91.5 73,91.9 77.2,92.4 81.5,92.7 85.8,93.1 90,93.4 94.3,93.7 98.6,94 102.8,94.2
			107.1,94.4 111.3,94.5 115.6,94.7 119.9,94.8 124.1,94.8 128.3,94.8 132.6,94.8 136.9,94.8 141.1,94.8 145.4,94.7 149.6,94.6
			153.9,94.4 158.1,94.3 162.3,94 166.6,93.8 170.8,93.5 175,93.2 179.2,92.8 183.5,92.4 187.6,92 191.9,91.6 196,91.2 200.3,90.7
			204.4,90.1 208.7,89.6 212.8,89 217,88.4 221.1,87.7 225.3,87 229.5,86.3 233.6,85.6 237.7,84.8 241.9,84 245.9,83.2 250.1,82.3
			254.2,81.4 258.3,80.4 262.3,79.5 266.4,78.5 270.5,77.5 274.6,76.4 		"/>
		<text transform="matrix(0.9868 0 0 1 224.6237 68.1948)" class="st2 st3 st4">●</text>
		<text transform="matrix(1 0 0 1 225.0084 67.8416)" class="st5 st3 st6">●</text>
	</g>
	<ellipse class="st2" cx="9" cy="82.3" rx="2.9" ry="2.9"/>
	<ellipse class="st2" cx="15.8" cy="77" rx="2.9" ry="2.9"/>
	<ellipse class="st2" cx="22.8" cy="27" rx="2.9" ry="2.9"/>
	<ellipse class="st2" cx="17.7" cy="36.9" rx="2.9" ry="2.9"/>
	<ellipse class="st2" cx="174.1" cy="50.8" rx="2.9" ry="2.9"/>
	<ellipse class="st2" cx="192.4" cy="96.3" rx="2.9" ry="2.9"/>
	<ellipse class="st2" cx="194.4" cy="122" rx="2.9" ry="2.9"/>
	<ellipse class="st2" cx="213.3" cy="113.1" rx="2.9" ry="2.9"/>
	<ellipse class="st2" cx="248.7" cy="152.1" rx="2.9" ry="2.9"/>
	<ellipse class="st2" cx="195.5" cy="160.4" rx="2.9" ry="2.9"/>
	<ellipse class="st2" cx="258.7" cy="109.2" rx="2.9" ry="2.9"/>
	<ellipse class="st2" cx="265.5" cy="96.3" rx="2.9" ry="2.9"/>
	<ellipse class="st2" cx="259.3" cy="93.8" rx="2.9" ry="2.9"/>
	<ellipse class="st2" cx="285" cy="64.9" rx="2.9" ry="2.9"/>
	<ellipse class="st2" cx="285.8" cy="60.3" rx="2.9" ry="2.9"/>
	<ellipse class="st2" cx="274.1" cy="76.6" rx="2.9" ry="2.9"/>
	<ellipse class="st2" cx="278.8" cy="42.4" rx="2.9" ry="2.9"/>
	<ellipse class="st2" cx="247.9" cy="77.6" rx="2.9" ry="2.9"/>
</g>
<text transform="matrix(1 0 0 1 393.0767 78.2743)" class="st7"><tspan x="0" y="0" class="st2 st8 st9">Racial </tspan><tspan x="0" y="72" class="st2 st8 st9">Justice</tspan></text>
</svg>
