<?xml version="1.0" encoding="utf-8"?>
<!-- Generator: Adobe Illustrator 23.1.1, SVG Export Plug-In . SVG Version: 6.00 Build 0)  -->
<svg version="1.1" id="Layer_1" xmlns="http://www.w3.org/2000/svg" xmlns:xlink="http://www.w3.org/1999/xlink" x="0px" y="0px"
	 viewBox="0 0 643 193.7" style="enable-background:new 0 0 643 193.7;" xml:space="preserve">
<style type="text/css">
	.st0{fill:#707589;}
	.st1{fill:none;stroke:#FFFFFF;stroke-width:0.8;stroke-linejoin:round;stroke-miterlimit:10;}
	.st2{fill:#FFFFFF;}
	.st3{enable-background:new    ;}
	.st4{font-family:'Roboto';}
	.st5{font-size:60px;}
</style>
<g id="map">
	<path class="st0" d="M33.1,172.7c0.6,1.1,0.5,1.8-0.9,2.2c-0.9,0.3-1.7,1-2.5,1.5c-0.5,0.3-1,0.5-1.7,0.8c0.2-2.2,0-4.2,2-5.4
		c-1.3,0.1-1.8,0.6-2.6,2.2c-0.6,1-1.4,2-2.1,3.2c0.2,0.2,0.6,0.4,1.1,0.9c-3.4,3.6-7,6.7-11.4,9.1c-0.5-0.6-1.2-0.4-2.2,0.2
		c-1.2,0.7-2.8,1-4.2,1.4c-0.1-0.2-0.2-0.4-0.3-0.6c0.6-0.4,1.4-0.7,2-1.1c0.6-0.3,1.4-0.6,2.1-1c0.5-0.2,0.8-0.8,1.3-0.8
		c2.3-0.2,3.8-1.8,5.3-3.3c0.8-0.9,1.1-2.1,1.9-3.6c-1.2,0.2-1.8,0.2-2.8,0.3c-1-1.1-1-1.6-3.7-0.5c0-1.3,0-2.5,0-3.8
		c-2.7,0.5-3.4-0.2-3.7-2.9c-0.2-1.1-1.2-2.2-0.2-3.4c0.6-0.7,1-1.7,1.8-2.2c0.4-0.3,1.3-0.2,1.9-0.1c0.9-0.4,2.1-0.6,2.6-1.2
		c0.5-0.6,0.2-1.8,0.2-2.5c-1.3,0-2.7,0-4.2,0c-1.1,0-1.8-0.5-2-1.8c-0.1-0.7-0.6-1.4-1.1-2.2c1.5-0.6,3-1.2,4.8-1.9
		c0.2,1.8,1,2.2,2.6,1.7c-1.3-1.8-2.6-3.6-3.7-5.4c-0.2-0.4-0.6-1-0.4-1.4c0.2-0.4,0.9-0.6,1.4-0.9c0.6-0.2,1.5-0.2,1.7-0.6
		c0.7-1.8,2.1-2.6,3.6-3.3c1-0.5,2.2-0.9,3.7-1.4c1,0.5,2.4,1.5,3.9,1.8c2.2,0.5,4.6,0.7,7,0.6c1.8-0.1,3.2,0.4,3.6,2.2
		c1.5,7.5,3,15,4.6,22.8c0.7-0.2,1.4-0.4,1.9-0.5c1.2,1,2.3,1.8,3.4,2.6c0.7-0.9,1.4-2.3,2-2.3c0.9,0,1.8,1,2.6,1.7
		c0.9,0.6,1.8,1.3,2.5,2.1c1.3,1.4,2.6,2.6,4.6,2.9c1.3,0.2,1.8,2.2,1,3.8c-0.6,0.2-2-1.6-2.1,0.6c0,0-1.4,0.3-1.8,0
		c-1.1-1-2-2.2-3-3.5c-0.2,0.5-0.2,0.7-0.3,1.2c-1-1-1.7-2.1-2.6-2.8c-1.7-1.3-3.4-2.5-5.2-3.6c-2-1.2-4.2-1.1-6.6-1
		c-1.2,0.1-2.5-0.8-3.8-1.3c-0.6-0.2-1.2-0.2-1.8-0.4C33.2,172.3,33.2,172.5,33.1,172.7z"/>
	<path class="st0" d="M27.3,178.9c0.2,0.2,0.4,0.2,0.5,0.4c0.6,1.1-1.1,4-2.3,4.1c-0.3,0-0.9-0.3-1-0.6c-0.2-0.3-0.2-1,0-1.3
		c0.7-0.8,1.6-1.5,2.4-2.2C26.9,179.1,27.1,179.1,27.3,178.9z"/>
	<path class="st0" d="M8,164.2c-1.5,0.5-3.4-0.6-3.9-2.2C5.6,162.7,6.7,163.4,8,164.2z"/>
	<path class="st0" d="M7.7,172.4c0.7,0.2,1.4,0.2,2.2,0.4c-0.1,0.3-0.2,0.7-0.3,1c-0.6-0.2-1.4-0.4-2-0.6
		C7.6,173,7.6,172.7,7.7,172.4z"/>
	<path class="st0" d="M94.6,189.4c-0.8-0.2-1.8-0.6-1.4-2.3c0.1-0.4-0.1-0.9-0.3-1.3c-0.6-1.2-1-2.2,0.2-3.4
		c0.5-0.5,0.2-1.6,0.4-2.6c3.1,0.9,5.8,2.3,7.3,5.8C99.1,186.7,97.1,187.9,94.6,189.4z"/>
	<path class="st0" d="M90.1,177.5c-0.2-0.2-0.5-0.3-0.7-0.6c-0.4-0.4-0.8-0.9-1.2-1.4c-0.2-0.2-0.2-0.6-0.3-1c0.3-0.1,0.7-0.2,1-0.2
		c0.9,0.2,1.8,0.4,2.6,0.7c0.4,0.2,0.6,0.7,1,1c-0.4,0.3-0.8,0.6-1.2,0.9C91,177.4,90.6,177.4,90.1,177.5z"/>
	<path class="st0" d="M70.1,166.4c-0.8,0.6-1.4,1.3-1.8,1.2c-0.6-0.1-1.3-0.7-1.9-1.2c0.8-0.5,1.5-1,2.4-1.4
		C69,165.1,69.5,165.9,70.1,166.4z"/>
	<path class="st0" d="M79.3,169.1c0.1,1,0.3,1.8,0.2,2.6c0,0.2-1,0.6-1.2,0.5c-0.6-0.5-1-1.1-1.6-1.8
		C77.6,169.9,78.2,169.5,79.3,169.1z"/>
	<path class="st0" d="M121.2,161c0.4-0.3-0.2,1,0.6,0.7c-0.1,0.1-0.1,1.1,0.2,0.2c0.8,1.5,3.1,2.8,4,5.6c0.2,4.4,6.2,7.7,6.2,11.8
		c1.3,4.8,4.8,9.5,11,9.4c0.8,0.1,1.4,1,2.9,1H146c0.8,0.6,1.8-1.5,1.3-0.5c-0.2-0.1-0.1-0.3-0.5,0.1c-0.3-1.9-2.1-4.2-1.4-9.1
		c-1,1-3.1-3.2-0.7-0.4l-0.1-0.2c0.5-0.2,1.4-1,0.4,0.2c0.7,0.6,1.6-1.5,1.8-2.9c-0.6,0.7-0.4-0.2-0.7-1c-0.1,0.1-0.6,0.3-1-0.3
		c0.9-0.5,4.2,1.9,2-1.4c0.1,0.1,0.8-0.3,0.3-0.6c1,0.9,2.2-1.8,1.8,0.3c1.4,0,0.2-2.4,1-1.8c-1.8-0.9,4.5,0.8,1.4-0.6
		c0.1-0.2-0.2-0.1,0.5-0.4c-0.3-0.6-1,0.2-1-1.3c0.1,0.2,0.5-0.4,0.6,0.4l0.2-0.1c0-0.2,0.2,1,0.4,0.2c-0.1-0.1,0.3,0.3-0.2,0.6
		c0.2,0.2-0.1,0.1,0.6-0.2c0.2,0.2-0.6-0.6-0.1-0.8c-0.1,0.2,0.5,1.3,0.8,0c0,0.1,0,0,0.1,0.3c0.1,0,0.1-0.1,0.4-0.5
		c0,0.2,0-0.1-0.2,0.9c-0.1-0.1,0.9,0.2-0.1,0.2c2.8-0.4,4.2-1.8-0.8,1.4c1-0.6,5.4-2.2,7.8-4.9c-1.6-0.4,2.4,0,1-4.7l-0.1,0.1
		c4.6-1.1-0.7,0.6,3.1,1.4c-4.2,2.5,2.6-1.4,6.1-1.8c1.8-1.2,9,3.7,9.1,0.4c1.2-4.4,5.8,5.8,10,3c-0.2-2.6,3.6,4.3,3.3-2.1
		c1.2-0.2,1,1.6,2.4,1.1c1.9,1.4,3,3.2,3.8,1c0.5-0.9-3.4-0.7-3.7-3.1c1.2-1,2.6-1.8,2.6-3.5c0.3-1.4-5.8,3.2-3.4,0.5
		c0-0.2,0.6-1.4-0.2-0.6c-0.1-0.1-0.1,0-0.1-0.3c-1.4,2.1-8.1-0.2-2-1.1c1,0.6,3.1,1.9,4.5-0.1c2-1.9,8.1,1.7,8.2-3.9
		c2.3,2.2-1.4,6.2,3.6,2.7c-1,1.2,2.4-0.2,1.5-1.6c0.7,0.8,2.9-0.2,0.2,1.5c1.3-0.9,10.1-1.7,4.2-0.8c0.5-0.2,5.6,2.3,4.7,0.9
		c-0.8,0.6-0.6-0.8,0.6-0.1c-0.1,0.2,0.1,0.2-0.2,0.5c-0.6,0.6,1.6-0.3,2.7,3.3c-0.4,0.2-0.4,0-0.5-1.3c-1.2,2.3,2.2,1,3.4,0.4
		c-1,0.8,4.6-1.7,2.7-1.6c0.2-0.2,0.4-0.5,0.9-1c0.8-1.6,11.4,6.3,11.6,9c0.2,1.6-1.9,7.1,0.9,6.9c-1.8-4.6,1,0,0.9-1.3
		c2-1.1-1.8,3.4-0.3,3.5c0.9,0.8,1.4,4.2,3.4,4.1c-1.4-1.3,0.9-1.4,0.3-0.9c0.5,2.5,0.6,2.5,3.7,7c0.1-0.9,9,5.9,3.9,4
		c0.1,2.3,3.6-0.1,5-0.1c0.6-1.4,0.2-3.1,1.2-4.8c1.3-9.4-10.4-23.5-13.8-33.8c0.1,0.3,1-4.8,0.2-2.4c-1.3-1.5,0.8,0.1-0.2-2.2
		c0.6,0,0.5-0.7,1.1-0.7c0.6-0.7-1.1-1.4,0.4-1.3c0.2-0.5,0.1-0.8-0.4-1.2c1.1-1.5,3.1-3,1.6-5.5c1.8,1.7,1.3,0.3,2.2-0.7v0.1
		c0.2-0.3,1.4,0.2,1.3-1c-0.3,0.6,6.1-4,5-6.5c0.6,1.8,0.9-3.3,3.9-4.2c0.6-1.1,3.4,0.3,3.1-2.2c0.2,2.6,2.5-6.7,3-4.6
		c-0.8,1.1,1.9,0.2,0.9-1.1c0.2,0.9,2.7,0,2.4-0.3c0.2-0.4,0.2-0.4,0.8,0.1c0.2-0.2,0.6-0.1,1.6-1.6c0.2-0.2-1.2-1.2-1.1-0.4
		c-1.2-0.3,0.5,0.7-1,0.3c0.1,0,0.5,0.5,0,0.4c-0.3-1-0.2,1.1-2.7-0.9c-0.3-1.7,2.6,3,2.9-1.7c1.4-0.3-1.1-0.8-1.7-0.6
		c-2.8-1.5,1,0.4,1.1-1c-1-0.3,0.2-0.5,0.8-0.6c-1.1,1.5,0.2,0.7,1.3,1.3c1-0.2,1.4-0.6,2-2.3c0.9,0.9,0.4-0.6,0.8-0.8
		c-0.4-0.6,0.2-1.2-1.2-1.8c0.2,0.2-0.3,0.1-0.1,0.5c-1.2-0.5,0.5,2.9-1.3,1.8c0.7,0.2,0.5-1.2,0.2-1.8c-0.6-1.5-4.2,3.8-4.5-2.2
		c0.4-0.1,1,3.9,1.9,1.6c0.9-0.2,0.5-1.1,1.6-0.6c0.6-0.5,0.6-0.4-0.3-1.1c0.6-0.3,1.9,1.3,1.1-0.3c0.6-0.1,0.5,0.9,1.3,1.3
		c0.1-1-3.6-4.1-1.4-2.8c0.1,0-0.8-2.1,0.2-0.5c-1-0.5,5.1,8.2,2.2,3.6c-1.5-1.1-2.2-8.5-5.9-5.2c-0.1-1.5-4.1-1.7-2.8-2.7
		c1,0.4,2.2,2,3.7,1.5c0-0.1,0.2-0.8-0.4-0.5v-0.1l0,0c0.5-0.6-3.4-1.2-3-2.6c2.5,3,1.5-0.2,3.1,0.9c-0.2-2.1-1.7-0.9-4.7-4.4
		c3.1,3.4,6.6,1.4,1.5-0.9c-0.9-0.2-2.1-0.2-2.7-1.6c-0.4-1.2,1.1,0.7,3.6,1.1c1.9,0.8,0.3-0.7-1.5-2.2c3.4,1.6,0.2,0.6,0.2-3.8
		c0.8,0,0.2-0.9-1-1.8c1-0.1,0.7,0.1,1.4-0.7c-0.5-0.8,0.7,0,0.6-0.8c1-0.1-0.2-1.2,1.1-1.5c0.1,0-0.1,0.3,0,0.8
		c0.5-1,1,0.5-0.7,1.3c-0.6,1.9,1.4,2.2-0.2,4.4c0.6-0.4,0.6,0.6,1.3-0.2c0.7,2.1-0.4-0.1-0.6,1.5c1.6-0.4-1.9,0.3,1.6,2
		c0-1.8,0.3,0.9,0.7-0.9c0.4,0.3,0.3,3.1,1.4,2.6c1-0.7-0.2,1.4-0.3,2.6c-0.6,0.5-0.4,6.2,0.6,1.7c0.4-5,4.3-4.6,1.6-9.5
		c0,0,1-0.2,0.2-0.5c0,0,0.2,0,0.2-0.3c2.3,1.5-5.1-4.7-3.6-6.6c-0.2,3.3,4.6,1.8,4.4,4.7c1.4-2.8,3.1-5.1,3-8.9
		c0.2,0.2,0.2,0.7,0.4,1.8c-0.1-1,0.5-3.5-0.6-5c0,0.2-0.1,0.1,0.1,0.5c-0.2-0.2-1,0.2-1.6-0.2c1.4-0.5,0.3-1.9,1.4-3.4l0.2,0.6
		c-0.1-0.1-0.1,0-0.2-0.2l0.6,0.2c-0.4-0.6,0.6-0.6,0.5-1.7c1,0.2,3.2-2.9,3.8-2.5c0.6-0.6,2.6-0.2,2.7-1.2c0.9,0.5,1-0.2,2.7-0.7
		v-0.3c0.4-0.2,0.9-0.3,1.8-1.3c0.1,0.9,0.5-3.8,0.7-0.5c0.6,1,0.5-1.2,0.8-0.2c0.1,0,0.2-0.3,0.5-0.7c-0.1,0.1,0.6,0.6,0.5,0
		c0.4,0.3,1.6-4.2,1.8-0.6c1.8-0.4,6.1-4,1.4-4c3.8,0.1-0.9,4.7-2,0.6c-0.3-0.6-0.8-1.2-2-1.6c0.3,1.1-1.5,0-0.7-0.5
		c2.2-4.5,0.3,1,0.2-5.4c1.4-0.5,0.6-5.8,2.6-6.2c0.9-1.1-0.2,2,1.7-1.3c1.2,0.9,0.1-0.7,1.8-1c0,2.8,1.3-7.3,1.4-3.5
		c0.2,0.2,0.3-0.7,0.6,0.1c0.1,0.1-0.8-0.2-0.4,0.3c-0.7,0.1,0.7,0.5,0.9,0.3c0.5,0.2,0.6-0.1,0.1-0.9c0.2-0.2,0.4-0.2,0.5-0.9
		c0.1,0.4,0.7,0.9,0.7-0.3c0.5,0.3,1-0.6,1.5,0.9c0.2-0.2,0.2-0.5,0.2-1.2c0.3,0.6,0.7,0.2,0.6-0.7c0.3-0.2,1.6,0.6,1.3-0.9
		c0,0.1,0.1-0.1,0.4,0.1c-0.1,0.2,0.2-0.9,0.2-0.1c0.4,0.2,0-1.6,0.6-0.5c0.5,0,1-0.8,1.1-1.8c-2,0.5,0.6-1.6-2-2.2
		c-1.3,1.6-0.6-2.5-3.1-2.7c-2.5-1.1-0.3-9-5.4-10.7c-5.9,5.5-4.6-7.2-7.8,8.8c-1.3,4.2,0.6,8.1-4.8,9.9c1.1,6.1-20.6-0.7-22.4,13.9
		l-0.2,0.3c0,1.6,1.8,2.5-3,5.9c-0.2-0.2-2.2-0.3-3,0.7c-1-1-9.9-0.9-7.3,3.3c2.1,0.6-1.4,4.2-5.2,6.9c-0.1,0,0.2-0.1,0.1-0.3
		c-7.4,4.5-7.8,8.3-18,6.1c0.2,0.2,3.1-10.3,3.9-7c1-2.4-0.6-17.4-6.7-6.6c-3.8-2.3,1.9-1.5,1.2-10.7c-8.3-7-9-5.1-11.9,3.1
		c-0.5-0.6,0.1-2,0.1-3.1c-2.2,2.2-4,5.3-4,9.5c-1,4.4,4.7,6.5,0.4,14.6c-7.7,10.1-9.4-13.6-4.6-22.4c0.9-0.4,0.5-3.2-0.2-0.7
		c-0.6-0.1-1,1.3-1.1,2.5c-1.1-1-1.4,1.4-3.2,2.6c-0.8,0.8,5.4-13,4.8-8.9c4-3.8-0.6,2.2,3.1-0.9c1.3-3.2,8.2-1.8,12.5-2.6
		c-2.9-5.4-7.1-0.5-5.9-5c-5.3,0.3-10.3,5.8-14.2,0.8c-1.8-0.6-2.1-1.5-3.8,0.8c-0.2-0.3,0.2-1,0-1.8c1-0.4,1.2-2.6,3.2-3.1
		c-3.5-1.4-9.9,8.1-15.8,6.6c2.8-5.5-3,0.9-6.1-0.8c1.4-1.8,7.7-7.5,13-9.6c-6.2-1-11.4,0.2-16.2-2.6c1-2.7-6.2,1.2-9.9-2.6
		c-0.3-1.1,0.1-4.1-2.3-3.8c-38.1,8.2-91.6-6.2-134.7-16v0.2c-1,0.2,0.7,1.7,0.6,2c0.3,0.5,0.3,2.2-0.7,1.8C26,7,24.7,8.2,25.9,8.1
		c0.8,0.8-0.2,2.3,1,3.1c-0.6,0.3-1.1,1.2-1.8,2.2c0.2,0.6-0.1,1.8-0.7,2.9c0,0-0.2-0.1-0.5-0.6c-0.1,0.2-1.2,2-1.8,0.6L22,16.6
		c-0.1,0.1,0.2-0.2-0.3-0.2c-0.1,0.2,0,0.1-0.2,0.7c-0.4,0.2,0.3-0.6-0.5-0.5c0.1,0,0,0,0.5-0.4c-0.2-0.1-0.1-0.2-0.7,0.2
		c0,0-0.1-0.2,0.5-0.5l-0.2-0.7c0,0.2,0-0.4,0.4-0.2l-0.2,0.2c0.2,0.1,1-0.2,1.4-0.9c0.2,1-1,2,1,0.2c0,0.2-0.8,0.6,0.1,1
		c-0.2-1,1.8-1.3,0.1-2.2c0-0.1-0.2-0.1,0-0.4c0.6,0.6,0.2,0.1,0.5-0.7c0-0.2,0.1,0.7,0.5,0c0.2,0.6,0.8-0.6,0-1.4
		c-0.2,0.1,0.1,0.2-0.1,0.9c0.6-0.5-5.9,2.8-2.1,2.3c-3,0.9-0.7-1,0.6-2.7l0.2,0.3c0-0.1,0.1,0.1,0.2-0.4c0,0.2,0.2,0.2-0.1,0.6
		c0.6-0.3,1.4-0.8,1-2.2v0.5l-0.1-0.2l-0.2,0.2c0.1-1,0.3-0.9-0.6,0.1c0,0,0.3-0.4-0.2-0.8c-0.1,0,0.1,0.1-0.2,0.3
		c-0.5-1.4-3.5-1.3-7.5-4.8c-1,3,0.7,6.2-0.1,10.5c0.5-0.5,0.3-0.5,1.6,0.4c0.2,0.2-1.3-0.2-1.4,0.6c-0.2,0,0-0.2-0.3-0.6
		c-0.3,1-0.1,1.3,1,1.8c-0.1-0.2-0.3,0.3-0.8,0.4c-0.1-0.2,0.5,1.8-0.7,1.8c-0.2,0.2,0.5-0.8,0.2-1.9c-0.2,0.2-0.4,1.2-0.6,2.3
		c0.4,0.4,2.8,0.3,3,1.7c-0.5-0.6-1.1,0-2.2-0.6c0,0,0.1,0.1,0.2,0.4c-0.3,0.2-0.2-0.6-1-0.7c0.5,1.5-1.2,2.9-0.9,5.3
		c-2.7,7.1-10.8,17.5-9.1,27l-0.2-0.1c0.2,0.8-0.3,1.1-0.9,2.5v-0.2c0.3,3.1-5,1.7-1.3,10.7c-2.4,3.7,1.2,9.6,1.4,12.1
		c0.3,0.3-1.3,2.2,0.1,1.1c0,0.4,0.5,0.7,1,1.4c1.4,1.2,1,0.9,1.5-1.1c-0.1,0-0.1,0-0.2-0.2c0.8,0,1.1,0.1,1.8,1.2
		c-0.2-0.1,0-0.1-0.6-0.2h0.1c-1.7-0.1-0.6,2.7,0.3,4.6c-0.4,0.2-2.6-1.8-1.6-2.4C6,82.5,6.3,82.2,5.8,82c-1.9,2.3-0.9,5.1,1.7,7.8
		c-4.1,3.1,2.6,9,2.2,12.4c3.7,3-4.6,5.1,5.3,7.9c5.1,4,12.2,9,12.2,16.4c-0.5-0.2-0.2-0.9-0.3,0.6c4.3,0.5,9.1,1,14.6,1.6
		c-3.6,0.6,17.7,15.4,31.8,15.7c5.8,2,10.5-5.2,18.2-0.1c1.4,3.5,5.7,5.8,8.2,9.6c0.9,1.8,0,7,5.9,9.9c2.3,0.6,2.3,3.6,5.8,0.5
		c-0.2-0.6,0.6-1.6,1-2.8l0.2,0.1c1.3-2.5,4.7-1,7.7-0.6C120.6,160.7,120.7,161.1,121.2,161z"/>
	<path class="st0" d="M295.3,60.5c-0.3,0.1-0.3,0-1-0.1c-0.2-0.8-0.2,0.9-1,0.9C293.1,61.8,295.2,61.2,295.3,60.5z"/>
	<path class="st0" d="M297.6,60.8c-1.4-0.2-0.2,0.9,0.6-0.2c-0.2-0.4-1-0.8-0.4-0.2C297.8,60.5,298,60.7,297.6,60.8z"/>
	<polygon class="st0" points="277.6,69.1 277.6,68.9 277.6,68.8 277.6,68.8 277.5,68.8 277.4,69.1 277.3,69.4 277.2,69.8
		277.3,69.9 277.4,69.8 277.5,69.7 277.6,69.5 277.6,69.5 277.6,69.3 	"/>
	<polygon class="st0" points="276.2,71.7 276.4,71.6 276.7,71.5 276.8,71.3 276.9,71.1 277.2,70.7 277.2,70.6 276.9,70.3
		276.4,70.7 	"/>
	<path class="st0" d="M285.2,66.7l0.2,0.2c-0.1,0,0.1,0.2-0.4,0.2c-0.6-0.6,0.1-1.3,1.1-2.5c-1.4,1.7-4.9,2.5-6.3,3.4
		c0-0.3-0.8-0.2-0.7,0.6c-0.4-0.6-0.3,0.9-0.8,0.3c-2.8,3.1,1.8,0.2-0.2,1.8c1-0.4,2.6-1.3,3.8-2.2c1.8-0.4,4.4-2.6-0.1,0.9
		c1.5-0.9,9.7-6.1,4.1-3.9C285.6,65.8,285.7,66.3,285.2,66.7z"/>
	<path class="st0" d="M24,5.9c0,0,0.1,0.2,0.3,0.5c-0.2,0,0,0.2-0.2,0.6C23.6,7,23.3,4.7,24,5.9z"/>
	<path class="st0" d="M24.6,7.3c0-0.3-0.5-0.5,0.2-1C24.7,6.6,25.3,7.5,24.6,7.3z"/>
	<path class="st0" d="M25.3,5.9C25.1,6,25.4,5.7,25,5.3c0,0.1-0.1,0,0,0.6c-0.2,0.2,0-0.4-0.6-0.2C24.3,5.5,24.6,5.4,25,5
		C25.1,5.2,26.1,5.6,25.3,5.9z"/>
	<path class="st0" d="M24.9,9.1C25,9,24.7,9.3,25.3,9.4c-0.7,1.4,2.6,3.8-0.3-0.6c-0.1-0.2,0.2,0.2,0.4-0.3c0.2,0.1,0.2,0.1,0.7,0.1
		c0.2-0.1-0.3-0.4-0.2-0.7C25.8,7.8,24.5,7.9,24.9,9.1z"/>
</g>
<g>
	<g>
		<polyline class="st1" points="223.6,66.9 219.2,67.1 214.9,67.2 210.7,67.4 206.4,67.5 202.1,67.5 197.8,67.6 193.6,67.6
			189.2,67.6 185,67.5 180.8,67.5 176.4,67.3 172.2,67.1 168,66.9 163.6,66.7 159.4,66.4 155.2,66.2 150.9,65.8 146.7,65.5
			142.4,65.1 138.2,64.7 134,64.2 129.8,63.7 125.6,63.1 121.3,62.6 117.2,62 113,61.4 108.8,60.7 104.6,60 100.4,59.3 96.3,58.5
			92.1,57.7 88,56.9 83.8,56 79.7,55.1 75.6,54.3 71.5,53.3 67.3,52.3 63.2,51.3 59.2,50.3 55.1,49.1 51.1,48 47,46.9 43,45.8
			38.9,44.5 34.9,43.3 30.9,42 26.9,40.7 22.9,39.4 19,38 15,36.7 		"/>
		<polyline class="st1" points="280,42.7 276.1,44.7 272.2,46.5 268.3,48.3 264.3,50.2 260.4,52 256.4,53.8 252.3,55.5 248.3,57.2
			244.2,58.9 240.1,60.6 236,62.2 231.9,63.8 227.7,65.3 223.6,66.9 		"/>
		<polyline class="st1" points="15,36.7 19,38 22.9,39.4 26.9,40.7 30.9,42 34.9,43.3 38.9,44.5 43,45.8 47,46.9 51.1,48 55.1,49.1
			59.2,50.3 63.2,51.3 67.3,52.3 71.5,53.3 75.6,54.3 79.7,55.1 83.8,56 88,56.9 92.1,57.7 96.3,58.5 100.4,59.3 104.6,60
			108.8,60.7 113,61.4 117.2,62 121.3,62.6 125.6,63.1 129.8,63.7 134,64.2 138.2,64.7 142.4,65.1 146.7,65.5 150.9,65.8
			155.2,66.2 159.4,66.4 163.6,66.7 168,66.9 172.2,67.1 176.4,67.3 180.8,67.5 185,67.5 189.2,67.6 193.6,67.6 197.8,67.6
			202.1,67.5 206.4,67.5 210.7,67.4 214.9,67.2 219.2,67.1 223.6,66.9 		"/>
		<polyline class="st1" points="218.8,64 215.1,65.6 211.4,67.1 207.6,68.7 203.9,70.2 200.1,71.6 196.4,73.1 192.5,74.4
			188.7,75.9 184.8,77.2 181,78.5 177.2,79.9 173.2,81.1 169.3,82.3 165.4,83.6 161.5,84.8 157.5,85.9 153.5,87.1 149.5,88.3
			145.5,89.3 141.5,90.3 137.4,91.4 133.3,92.4 129.3,93.4 125.2,94.3 121.1,95.2 117,96.1 112.8,97 108.7,97.8 104.5,98.6
			100.4,99.4 96.1,100.1 92,100.8 87.7,101.5 83.5,102.1 79.2,102.7 75,103.3 70.8,103.9 66.4,104.3 62.1,104.8 57.9,105.3
			53.6,105.7 49.2,106.1 44.8,106.5 40.5,106.8 36.1,107.1 31.8,107.4 27.4,107.5 23,107.8 18.6,107.9 14.2,108.1 		"/>
		<polyline class="st1" points="153.1,80.8 157.4,80 161.6,79.2 166,78.4 170.2,77.5 174.5,76.7 178.8,75.8 183,74.8 187.2,73.9
			191.4,72.8 195.6,71.8 199.8,70.7 204,69.6 208.1,68.4 212.3,67.3 216.4,66.1 220.4,64.8 224.5,63.5 228.6,62.3 232.7,61
			236.8,59.6 240.8,58.2 244.8,56.8 248.8,55.3 252.7,53.9 256.7,52.3 260.6,50.8 264.5,49.2 268.4,47.6 272.3,46 276.2,44.4
			280,42.7 		"/>
		<polyline class="st1" points="22.3,16.3 21.8,20.3 21.3,24.5 20.9,28.6 20.4,32.7 20,36.8 19.6,41 19.2,45.1 18.8,49.3 18.4,53.5
			18,57.6 17.6,61.8 17.3,65.9 16.9,70.2 16.6,74.3 16.3,78.6 16,82.7 15.6,87 15.3,91.2 15,95.4 14.8,99.6 14.4,103.9 14.2,108.1
					"/>
		<polyline class="st1" points="14.2,108.1 18.6,107.9 23,107.8 27.4,107.5 31.8,107.4 36.1,107.1 40.5,106.8 44.8,106.5
			49.2,106.1 53.6,105.7 57.9,105.3 62.1,104.8 66.4,104.3 70.8,103.9 75,103.3 79.2,102.7 83.5,102.1 87.7,101.5 92,100.8
			96.1,100.1 100.4,99.4 104.5,98.6 108.7,97.8 112.8,97 117,96.1 121.1,95.2 125.2,94.3 129.3,93.4 133.3,92.4 137.4,91.4
			141.5,90.3 145.5,89.3 149.5,88.3 153.5,87.1 157.5,85.9 161.5,84.8 165.4,83.6 169.3,82.3 173.2,81.1 177.2,79.9 181,78.5
			184.8,77.2 188.7,75.9 192.5,74.4 196.4,73.1 200.1,71.6 203.9,70.2 207.6,68.7 211.4,67.1 215.1,65.6 218.8,64 		"/>
		<polyline class="st1" points="192.4,87.6 188,86.6 183.6,85.5 179.3,84.5 175,83.4 170.7,82.2 166.4,81.1 162,79.8 157.8,78.6
			153.6,77.3 149.3,75.9 145.2,74.7 140.9,73.2 136.8,71.9 132.6,70.4 128.5,68.9 124.4,67.5 120.4,65.9 116.3,64.3 112.2,62.7
			108.2,61.1 104.2,59.5 100.2,57.8 96.3,56.1 92.4,54.3 88.4,52.6 84.6,50.8 80.7,49 76.8,47.1 73.1,45.2 69.2,43.4 65.5,41.4
			61.8,39.5 58,37.5 54.4,35.5 50.7,33.5 47.1,31.4 43.4,29.3 39.8,27.2 36.3,25.1 32.8,22.9 29.2,20.7 25.7,18.5 22.3,16.3 		"/>
		<polyline class="st1" points="172.3,107.2 169.4,103.5 166.6,99.7 163.8,95.9 161.1,92.2 158.4,88.4 155.7,84.6 153.1,80.8 		"/>
	</g>
	<ellipse class="st2" cx="172.6" cy="107.3" rx="2.9" ry="2.9"/>
	<ellipse class="st2" cx="153.1" cy="81" rx="2.9" ry="2.9"/>
	<ellipse class="st2" cx="15.2" cy="37" rx="2.9" ry="2.9"/>
	<ellipse class="st2" cx="15.2" cy="107.3" rx="2.9" ry="2.9"/>
	<ellipse class="st2" cx="27.9" cy="170.6" rx="2.9" ry="2.9"/>
	<ellipse class="st2" cx="22.2" cy="16.4" rx="2.9" ry="2.9"/>
	<ellipse class="st2" cx="192.5" cy="87.5" rx="2.9" ry="2.9"/>
	<ellipse class="st2" cx="223.6" cy="66.9" rx="2.9" ry="2.9"/>
	<ellipse class="st2" cx="280.1" cy="42.7" rx="2.9" ry="2.9"/>
	<ellipse class="st2" cx="218.8" cy="63.6" rx="2.9" ry="2.9"/>
	<line class="st1" x1="223.8" y1="66.9" x2="27.9" y2="170.6"/>
</g>
<text transform="matrix(1 0 0 1 359.5529 84.9711)" class="st3"><tspan x="0" y="0" class="st2 st4 st5">Women’s </tspan><tspan x="47" y="72" class="st2 st4 st5">Rights</tspan></text>
</svg>
