<?xml version="1.0" encoding="utf-8"?>
<!-- Generator: Adobe Illustrator 23.1.1, SVG Export Plug-In . SVG Version: 6.00 Build 0)  -->
<svg version="1.1" id="Layer_1" xmlns="http://www.w3.org/2000/svg" xmlns:xlink="http://www.w3.org/1999/xlink" x="0px" y="0px"
	 viewBox="0 0 382.3 231.5" style="enable-background:new 0 0 382.3 231.5;" xml:space="preserve">
<style type="text/css">
	.st0{fill:#707589;}
	.st1{fill:none;stroke:#FFFFFF;stroke-width:1.07;stroke-linejoin:round;stroke-miterlimit:10;}
	.st2{fill:none;stroke:#FFFFFF;stroke-width:1.07;stroke-linejoin:round;stroke-miterlimit:10;enable-background:new    ;}
	.st3{fill:#FFFFFF;}
	.st4{font-family:'ArialMT';}
	.st5{font-size:2.3864px;}
</style>
<g id="map">
	<path class="st0" d="M40.4,210.6c0.8,1.4,0.6,2.2-1.1,2.8c-1.1,0.4-2.1,1.3-3.1,1.9c-0.6,0.4-1.3,0.6-2.1,1c0.3-2.7,0-5.2,2.5-6.8
		c-1.6,0.1-2.3,0.8-3.3,2.7c-0.7,1.3-1.7,2.5-2.6,4c0.2,0.2,0.7,0.5,1.4,1.1c-4.2,4.5-8.7,8.4-14.2,11.4c-0.6-0.7-1.5-0.5-2.8,0.2
		c-1.5,0.9-3.5,1.2-5.2,1.7c-0.1-0.3-0.3-0.5-0.4-0.8c0.8-0.5,1.7-0.9,2.5-1.4c0.8-0.4,1.7-0.8,2.6-1.2c0.6-0.3,1-1,1.6-1
		c2.9-0.3,4.8-2.2,6.6-4.1c1-1.1,1.4-2.6,2.4-4.5c-1.5,0.2-2.3,0.3-3.5,0.4c-1.2-1.4-1.3-2-4.6-0.6c0-1.6,0-3.1,0-4.7
		c-3.4,0.6-4.2-0.2-4.6-3.6c-0.2-1.4-1.5-2.7-0.2-4.3c0.8-0.9,1.3-2.1,2.2-2.8c0.5-0.4,1.6-0.3,2.4-0.1c1.1-0.5,2.6-0.7,3.2-1.5
		c0.6-0.7,0.2-2.2,0.3-3.1c-1.6,0-3.4,0-5.2,0c-1.4,0-2.3-0.6-2.5-2.2c-0.1-0.9-0.8-1.7-1.4-2.8c1.9-0.7,3.8-1.5,6-2.4
		c0.2,2.3,1.3,2.8,3.3,2.1c-1.6-2.3-3.2-4.5-4.6-6.7c-0.3-0.5-0.7-1.3-0.5-1.7c0.3-0.5,1.1-0.8,1.7-1.1c0.7-0.3,1.9-0.3,2.1-0.7
		c0.9-2.2,2.6-3.2,4.5-4.1c1.3-0.6,2.7-1.1,4.6-1.8c1.3,0.6,3,1.9,4.9,2.3c2.8,0.6,5.8,0.9,8.7,0.7c2.2-0.1,4,0.5,4.5,2.8
		c1.9,9.4,3.8,18.8,5.7,28.5c0.9-0.2,1.8-0.5,2.4-0.6c1.5,1.2,2.9,2.3,4.3,3.3c0.9-1.1,1.7-2.9,2.5-2.9c1.1,0,2.2,1.3,3.2,2.1
		c1.1,0.8,2.2,1.6,3.1,2.6c1.6,1.7,3.2,3.3,5.8,3.6c1.6,0.2,2.2,2.7,1.3,4.8c-0.8,0.2-2.5-2-2.6,0.8c0,0-1.8,0.4-2.3,0
		c-1.4-1.3-2.5-2.8-3.8-4.4c-0.2,0.6-0.3,0.9-0.4,1.5c-1.2-1.3-2.1-2.6-3.3-3.5c-2.1-1.6-4.3-3.1-6.5-4.5c-2.5-1.5-5.3-1.4-8.2-1.2
		c-1.5,0.1-3.1-1-4.7-1.6c-0.7-0.2-1.5-0.3-2.3-0.5C40.5,210.2,40.4,210.4,40.4,210.6z"/>
	<path class="st0" d="M33.1,218.4c0.2,0.2,0.5,0.3,0.6,0.5c0.7,1.4-1.4,5-2.9,5.1c-0.4,0-1.1-0.4-1.3-0.8s-0.2-1.2,0-1.6
		c0.9-1,2-1.9,3-2.8C32.6,218.6,32.8,218.6,33.1,218.4z"/>
	<path class="st0" d="M9,200c-1.9,0.6-4.2-0.7-4.9-2.8C6,198.2,7.3,199,9,200z"/>
	<path class="st0" d="M8.6,210.3c0.9,0.2,1.8,0.3,2.7,0.5c-0.1,0.4-0.2,0.9-0.4,1.3c-0.8-0.2-1.7-0.5-2.5-0.7
		C8.5,211,8.5,210.6,8.6,210.3z"/>
	<path class="st0" d="M117.2,231.4c-1-0.2-2.3-0.7-1.7-2.9c0.1-0.5-0.1-1.1-0.4-1.6c-0.7-1.5-1.3-2.8,0.2-4.3c0.6-0.6,0.3-2,0.5-3.2
		c3.9,1.1,7.2,2.9,9.1,7.2C122.8,228.1,120.3,229.5,117.2,231.4z"/>
	<path class="st0" d="M111.6,216.7c-0.2-0.2-0.6-0.4-0.9-0.7c-0.5-0.5-1-1.1-1.5-1.7c-0.2-0.3-0.3-0.8-0.4-1.2
		c0.4-0.1,0.9-0.3,1.3-0.2c1.1,0.2,2.2,0.5,3.2,0.9c0.5,0.2,0.8,0.9,1.2,1.3c-0.5,0.4-1,0.8-1.5,1.1
		C112.7,216.4,112.2,216.5,111.6,216.7z"/>
	<path class="st0" d="M86.7,202.8c-1,0.7-1.7,1.6-2.3,1.5c-0.8-0.1-1.6-0.9-2.4-1.5c1-0.6,1.9-1.3,3-1.7
		C85.2,201.1,85.8,202.1,86.7,202.8z"/>
	<path class="st0" d="M98.1,206c0.1,1.3,0.4,2.3,0.2,3.2c0,0.3-1.3,0.8-1.5,0.6c-0.7-0.6-1.3-1.4-2-2.3C96,207,96.7,206.7,98.1,206z
		"/>
	<path class="st0" d="M150.4,196c0.5-0.4-0.2,1.2,0.8,0.9c-0.1,0.1-0.1,1.4,0.3,0.3c1,1.9,3.9,3.5,5,7c0.2,5.5,7.8,9.6,7.7,14.8
		c1.6,6,6,11.9,13.8,11.8c1,0.1,1.7,1.3,3.6,1.2h-0.1c1,0.7,2.2-1.9,1.6-0.6c-0.2-0.1-0.1-0.4-0.6,0.1c-0.4-2.4-2.6-5.3-1.8-11.4
		c-1.2,1.3-3.9-4-0.9-0.5l-0.1-0.3c0.6-0.2,1.7-1.3,0.5,0.2c0.9,0.7,2-1.9,2.2-3.5c-0.8,0.9-0.5-0.2-0.9-1.3
		c-0.1,0.1-0.7,0.4-1.2-0.4c1.1-0.6,5.2,2.4,2.5-1.8c0.1,0.1,1-0.4,0.4-0.8c1.3,1.1,2.8-2.3,2.2,0.4c1.7,0,0.3-3,1.2-2.3
		c-2.2-1.1,5.6,1,1.7-0.8c0.1-0.2-0.2-0.1,0.6-0.5c-0.4-0.8-1.2,0.2-1.2-1.6c0.1,0.3,0.6-0.5,0.7,0.5l0.3-0.2c0-0.2,0.2,1.3,0.5,0.2
		c-0.1-0.1,0.4,0.4-0.2,0.7c0.3,0.2-0.1,0.1,0.8-0.3c0.3,0.2-0.8-0.7-0.1-1c-0.1,0.3,0.6,1.6,1,0c0,0.1,0,0,0.1,0.4
		c0.1,0,0.1-0.1,0.5-0.6c0,0.2,0-0.1-0.2,1.1c-0.1-0.1,1.1,0.2-0.1,0.2c3.5-0.5,5.2-2.3-1,1.8c1.3-0.8,6.7-2.8,9.8-6.1
		c-2-0.5,3,0,1.3-5.9l-0.1,0.1c5.8-1.4-0.9,0.8,3.9,1.7c-5.2,3.1,3.3-1.8,7.6-2.2c2.3-1.5,11.2,4.6,11.4,0.5
		c1.5-5.5,7.3,7.2,12.5,3.8c-0.3-3.2,4.5,5.4,4.1-2.6c1.5-0.2,1.3,2,3,1.4c2.4,1.7,3.7,4,4.8,1.2c0.6-1.1-4.3-0.9-4.6-3.9
		c1.5-1.2,3.2-2.2,3.2-4.4c0.4-1.8-7.2,4-4.2,0.6c0-0.3,0.7-1.8-0.2-0.7c-0.1-0.1-0.1,0-0.1-0.4c-1.7,2.6-10.1-0.2-2.5-1.4
		c1.3,0.7,3.9,2.4,5.6-0.1c2.5-2.4,10.1,2.1,10.2-4.9c2.9,2.8-1.7,7.8,4.5,3.4c-1.3,1.5,3-0.2,1.9-2c0.9,1,3.6-0.3,0.3,1.9
		c1.6-1.1,12.6-2.1,5.2-1c0.6-0.2,7,2.9,5.9,1.1c-1,0.7-0.8-1,0.8-0.1c-0.1,0.2,0.1,0.2-0.3,0.6c-0.7,0.8,2-0.4,3.4,4.1
		c-0.5,0.2-0.5,0-0.6-1.6c-1.5,2.9,2.7,1.3,4.2,0.5c-1.3,1,5.7-2.1,3.4-2c0.3-0.3,0.5-0.6,1.1-1.3c1-2,14.2,7.9,14.5,11.3
		c0.3,2-2.4,8.9,1.1,8.6c-2.3-5.7,1.2,0,1.1-1.6c2.5-1.4-2.2,4.3-0.4,4.4c1.1,1,1.7,5.3,4.3,5.1c-1.7-1.6,1.1-1.7,0.4-1.1
		c0.6,3.1,0.8,3.1,4.6,8.7c0.1-1.1,11.2,7.4,4.9,5c0.1,2.9,4.5-0.1,6.2-0.1c0.8-1.7,0.2-3.9,1.5-6c1.6-11.8-13-29.4-17.3-42.2
		c0.1,0.4,1.2-6,0.3-3c-1.6-1.9,1,0.1-0.2-2.7c0.8,0,0.6-0.9,1.4-0.9c0.8-0.9-1.4-1.7,0.5-1.6c0.3-0.6,0.1-1-0.5-1.5
		c1.4-1.9,3.9-3.7,2-6.9c2.2,2.1,1.6,0.4,2.8-0.9v0.1c0.3-0.4,1.8,0.2,1.6-1.2c-0.4,0.7,7.6-5,6.2-8.1c0.8,2.2,1.1-4.1,4.9-5.3
		c0.8-1.4,4.2,0.4,3.9-2.7c0.3,3.3,3.1-8.4,3.7-5.8c-1,1.4,2.4,0.2,1.1-1.4c0.2,1.1,3.4,0,3-0.4c0.2-0.5,0.3-0.5,1,0.1
		c0.2-0.3,0.8-0.1,2-2c0.3-0.2-1.5-1.5-1.4-0.5c-1.5-0.4,0.6,0.9-1.2,0.4c0.1,0,0.6,0.6,0,0.5c-0.4-1.2-0.2,1.4-3.4-1.1
		c-0.4-2.1,3.3,3.7,3.6-2.1c1.7-0.4-1.4-1-2.1-0.8c-3.5-1.9,1.2,0.5,1.4-1.3c-1.2-0.4,0.2-0.6,1-0.8c-1.4,1.9,0.2,0.9,1.6,1.6
		c1.3-0.3,1.7-0.8,2.5-2.9c1.1,1.1,0.5-0.8,1-1c-0.5-0.7,0.2-1.5-1.5-2.2c0.2,0.2-0.4,0.1-0.1,0.6c-1.5-0.6,0.6,3.6-1.6,2.2
		c0.9,0.3,0.6-1.5,0.2-2.3c-0.8-1.9-5.3,4.7-5.6-2.7c0.5-0.1,1.2,4.9,2.4,2c1.1-0.3,0.6-1.4,2-0.7c0.8-0.6,0.8-0.5-0.4-1.4
		c0.8-0.4,2.4,1.6,1.4-0.4c0.7-0.1,0.6,1.1,1.6,1.6c0.1-1.2-4.5-5.1-1.7-3.5c0.1,0-1-2.6,0.2-0.6c-1.2-0.6,6.4,10.3,2.7,4.5
		c-1.9-1.4-2.8-10.6-7.4-6.5c-0.1-1.9-5.1-2.1-3.5-3.4c1.3,0.5,2.7,2.5,4.6,1.9c0-0.1,0.2-1-0.5-0.6v-0.1l0,0
		c0.6-0.7-4.2-1.5-3.8-3.2c3.1,3.7,1.9-0.2,3.9,1.1c-0.2-2.6-2.1-1.1-5.9-5.5c3.9,4.3,8.3,1.8,1.9-1.1c-1.1-0.2-2.6-0.3-3.4-2
		c-0.5-1.5,1.4,0.9,4.5,1.4c2.4,1,0.4-0.9-1.9-2.8c4.3,2,0.3,0.8,0.3-4.8c1,0,0.3-1.1-1.2-2.2c1.3-0.1,0.9,0.1,1.8-0.9
		c-0.6-1,0.9,0,0.8-1c1.2-0.1-0.3-1.5,1.4-1.9c0.1,0-0.1,0.4,0,1c0.6-1.2,1.2,0.6-0.9,1.6c-0.7,2.4,1.7,2.8-0.2,5.5
		c0.7-0.5,0.8,0.7,1.6-0.3c0.9,2.6-0.5-0.1-0.7,1.9c2-0.5-2.4,0.4,2,2.5c0-2.3,0.4,1.1,0.9-1.1c0.5,0.4,0.4,3.9,1.8,3.2
		c1.3-0.9-0.3,1.8-0.4,3.2c-0.7,0.6-0.5,7.8,0.8,2.1c0.5-6.2,5.4-5.7,2-11.9c0,0,1.3-0.2,0.3-0.6c0,0,0.3,0,0.2-0.4
		c2.9,1.9-6.4-5.9-4.5-8.3c-0.2,4.1,5.8,2.2,5.5,5.9c1.7-3.5,3.9-6.4,3.7-11.1c0.3,0.2,0.2,0.9,0.5,2.3c-0.1-1.2,0.6-4.4-0.8-6.3
		c0,0.2-0.1,0.1,0.1,0.6c-0.3-0.2-1.2,0.2-2-0.3c1.7-0.6,0.4-2.4,1.7-4.2l0.3,0.8c-0.1-0.1-0.1,0-0.2-0.3l0.7,0.2
		c-0.5-0.7,0.7-0.8,0.6-2.1c1.3,0.3,4-3.6,4.8-3.1c0.8-0.7,3.2-0.2,3.4-1.5c1.1,0.6,1.3-0.3,3.4-0.9v0.3c0.5-0.3,1.1-0.4,2.2-1.6
		c0.1,1.1,0.6-4.7,0.9-0.6c0.7,1.2,0.6-1.5,1-0.3c0.1,0,0.3-0.4,0.6-0.9c-0.1,0.1,0.7,0.7,0.6,0c0.5,0.4,2-5.2,2.2-0.7
		c2.3-0.5,7.6-5,1.8-5c4.7,0.1-1.1,5.9-2.5,0.8c-0.4-0.7-1-1.5-2.5-2c0.4,1.4-1.9,0-0.9-0.6c2.7-5.6,0.4,1.2,0.2-6.7
		c1.7-0.6,0.8-7.3,3.3-7.7c1.1-1.4-0.2,2.5,2.1-1.6c1.5,1.1,0.1-0.9,2.2-1.2c0,3.5,1.6-9.1,1.8-4.4c0.2,0.2,0.4-0.9,0.8,0.1
		c0.1,0.1-1-0.3-0.5,0.4c-0.9,0.1,0.9,0.6,1.1,0.4c0.6,0.2,0.8-0.1,0.1-1.1c0.3-0.2,0.5-0.3,0.6-1.1c0.1,0.5,0.9,1.1,0.9-0.4
		c0.6,0.4,1.2-0.8,1.9,1.1c0.2-0.3,0.3-0.6,0.2-1.5c0.4,0.8,0.9,0.3,0.7-0.9c0.4-0.2,2,0.7,1.6-1.1c0,0.1,0.1-0.1,0.5,0.1
		c-0.1,0.2,0.3-1.1,0.3-0.1c0.5,0.3,0-2,0.8-0.6c0.6,0,1.2-1,1.4-2.2c-2.5,0.6,0.8-2-2.5-2.7c-1.6,2-0.7-3.1-3.9-3.4
		c-3.1-1.4-0.4-11.3-6.8-13.4c-7.4,6.9-5.7-9-9.7,11c-1.6,5.3,0.7,10.1-6,12.4c1.4,7.6-25.8-0.9-28,17.4l-0.3,0.4
		c0,2,2.2,3.1-3.8,7.4c-0.2-0.2-2.8-0.4-3.7,0.9c-1.3-1.2-12.4-1.1-9.1,4.1c2.6,0.7-1.8,5.3-6.5,8.6c-0.1,0,0.2-0.1,0.1-0.4
		c-9.3,5.6-9.7,10.4-22.5,7.6c0.2,0.3,3.9-12.9,4.9-8.8c1.3-3-0.8-21.7-8.4-8.3c-4.8-2.9,2.4-1.9,1.5-13.4
		c-10.4-8.8-11.3-6.4-14.9,3.9c-0.6-0.8,0.1-2.5,0.1-3.9c-2.7,2.7-5,6.6-5,11.9c-1.2,5.5,5.9,8.1,0.5,18.3c-9.6,12.6-11.8-17-5.8-28
		c1.1-0.5,0.6-4-0.3-0.9c-0.8-0.1-1.2,1.6-1.4,3.1c-1.4-1.2-1.8,1.7-4,3.2c-1,1,6.7-16.2,6-11.1c5-4.8-0.8,2.8,3.9-1.1
		c1.6-4,10.3-2.2,15.6-3.2c-3.6-6.8-8.9-0.6-7.4-6.3c-6.6,0.4-12.9,7.3-17.7,1c-2.3-0.7-2.6-1.9-4.7,1c-0.3-0.4,0.3-1.2,0-2.2
		c1.2-0.5,1.5-3.2,4-3.9c-4.4-1.7-12.4,10.1-19.7,8.3c3.5-6.9-3.8,1.1-7.6-1c1.8-2.3,9.6-9.4,16.2-12c-7.8-1.2-14.2,0.2-20.2-3.2
		c1.3-3.4-7.7,1.5-12.4-3.3c-0.4-1.4,0.1-5.1-2.9-4.7C152.3,30.3,85.4,12.3,31.5,0v0.2c-1.2,0.3,0.9,2.1,0.7,2.5
		c0.2,0.3,0.2,2.5-1,2c0.2-1.1-1.4,0.4,0.1,0.3c1,1-0.2,2.9,1.2,3.9c-0.8,0.4-1.4,1.5-2.2,2.8c0.2,0.8-0.1,2.2-0.9,3.6
		c0,0-0.2-0.1-0.6-0.7c0.2-0.5-1.1,1.8-1.8,0.1l-0.1,0.4c-0.1,0.1,0.2-0.2-0.4-0.3c-0.1,0.3,0,0.1-0.2,0.9c-0.5,0.2,0.4-0.8-0.6-0.6
		c0.1,0,0,0,0.6-0.5c-0.2-0.1-0.1-0.2-0.9,0.2c0,0-0.1-0.3,0.6-0.6L25.4,14c0,0.2,0-0.5,0.5-0.3l-0.2,0.2c0.2,0.1,1.2-0.2,1.7-1.1
		c0.3,1.3-1.3,2.5,1.2,0.3c0,0.3-1,0.7,0.1,1.2c-0.3-1.3,2.3-1.6,0.1-2.8c0-0.1-0.2-0.1,0-0.5c0.7,0.8,0.3,0.1,0.6-0.9
		c0-0.2,0.1,0.9,0.6,0c0.3,0.7,1-0.7,0-1.7c0,0,0.2,0.1,0.1,1c0.8-0.6-7.4,3.5-2.6,2.9c-3.7,1.1-0.9-1.2,0.8-3.4l0.2,0.4
		c0-0.1,0.1,0.1,0.2-0.5C28.7,9,29,9,28.6,9.5c0.7-0.4,1.7-1,1.3-2.8l-0.2,0.7l-0.1-0.3l-0.3,0.2c0.1-1.2,0.4-1.1-0.7,0.1
		c0,0,0.4-0.5-0.3-1c-0.1,0,0.1,0.1-0.3,0.4c-0.6-1.7-4.4-1.6-9.4-6c-1.2,3.7,0.9,7.8-0.1,13.1c0.6-0.6,0.4-0.6,2,0.5
		c0.2,0.3-1.6-0.3-1.7,0.7c-0.2,0,0-0.3-0.4-0.7c-0.4,1.3-0.1,1.6,1.2,2.2c-0.1-0.2-0.4,0.4-1,0.5c-0.1-0.3,0.6,2.2-0.9,2.2
		c-0.3,0.3,0.6-1,0.3-2.4c-0.2,0.2-0.5,1.5-0.8,2.9c0.5,0.5,3.5,0.4,3.7,2.1c-0.6-0.8-1.4,0-2.7-0.8c0,0,0.1,0.1,0.2,0.5
		c-0.4,0.3-0.3-0.8-1.2-0.9c0.6,1.9-1.5,3.6-1.1,6.6C12.7,36.2,2.6,49.2,4.7,61l-0.2-0.1c0.2,1-0.4,1.4-1.1,3.1l-0.2-0.3
		c0.4,3.9-6.2,2.1-1.6,13.4c-3,4.6,1.5,12,1.8,15.1c0.4,0.4-1.6,2.8,0.1,1.4c0,0.5,0.6,0.9,1.2,1.8C6.4,96.9,6,96.5,6.6,94
		c-0.1,0-0.1,0-0.2-0.2c1,0,1.4,0.1,2.3,1.5c-0.2-0.1,0-0.1-0.7-0.3h0.1c-2.1-0.1-0.7,3.4,0.4,5.7c-0.5,0.2-3.3-2.3-2-3
		c-0.1-0.2,0.2-0.6-0.4-0.9c-2.4,2.9-1.1,6.4,2.1,9.8c-5.1,3.9,3.2,11.2,2.8,15.5c4.6,3.8-5.7,6.4,6.6,9.9
		c6.4,5,15.2,11.2,15.3,20.5c-0.6-0.3-0.2-1.1-0.4,0.8c5.4,0.6,11.4,1.3,18.2,2c-4.5,0.7,22.1,19.3,39.7,19.6
		c7.3,2.5,13.1-6.5,22.7-0.1c1.7,4.4,7.1,7.3,10.3,12c1.1,2.2,0,8.8,7.4,12.4c2.9,0.7,2.9,4.5,7.2,0.6c-0.3-0.8,0.8-2,1.2-3.5
		l0.2,0.1c1.6-3.1,5.9-1.2,9.6-0.8C149.7,195.6,149.8,196.2,150.4,196z"/>
	<path class="st0" d="M368.1,70.4c-0.4,0.1-0.4,0-1.2-0.1c-0.2-1-0.3,1.1-1.2,1.1C365.3,72,367.9,71.3,368.1,70.4z"/>
	<path class="st0" d="M371,70.8c-1.8-0.2-0.3,1.1,0.7-0.2c-0.3-0.5-1.3-1-0.5-0.3C371.2,70.4,371.4,70.6,371,70.8z"/>
	<polygon class="st0" points="346,81.1 345.9,80.9 346,80.8 345.9,80.8 345.8,80.8 345.7,81.2 345.6,81.5 345.5,82 345.6,82.1 
		345.7,82 345.8,81.8 345.9,81.7 345.9,81.6 345.9,81.3 346,81.2 	"/>
	<polygon class="st0" points="344.2,84.4 344.5,84.3 344.8,84.1 344.9,83.8 345.1,83.6 345.4,83.2 345.5,83 345.1,82.6 344.5,83 	
		"/>
	<path class="st0" d="M355.5,78.1l0.2,0.2c-0.1,0,0.1,0.2-0.5,0.3c-0.7-0.8,0.1-1.6,1.4-3.1c-1.8,2.1-6.1,3.1-7.9,4.3
		c0-0.4-1-0.3-0.9,0.7c-0.5-0.8-0.4,1.1-1,0.4c-3.5,3.9,2.3,0.2-0.2,2.3c1.3-0.5,3.3-1.6,4.8-2.7c2.2-0.5,5.5-3.3-0.1,1.1
		c1.9-1.1,12.1-7.6,5.1-4.9C356,77,356.1,77.5,355.5,78.1z"/>
	<path class="st0" d="M29,2.1c0,0,0.1,0.2,0.4,0.6c-0.2,0,0,0.2-0.3,0.7C28.5,3.5,28.1,0.6,29,2.1z"/>
	<path class="st0" d="M29.8,3.9c0-0.4-0.6-0.6,0.3-1.2C29.8,3,30.7,4,29.8,3.9z"/>
	<path class="st0" d="M30.6,2.2c-0.3,0.1,0.1-0.2-0.4-0.7c0,0.1-0.1,0,0,0.8c-0.3,0.2,0-0.5-0.7-0.2c-0.1-0.3,0.3-0.4,0.7-0.9
		C30.3,1.2,31.6,1.7,30.6,2.2z"/>
	<path class="st0" d="M30.1,6.1c0.1-0.1-0.2,0.3,0.5,0.4c-0.9,1.8,3.3,4.8-0.4-0.7c-0.1-0.2,0.3,0.2,0.5-0.4
		c0.2,0.1,0.2,0.1,0.9,0.1c0.2-0.1-0.4-0.5-0.3-0.9C31.3,4.4,29.6,4.7,30.1,6.1z"/>
</g>
<g id="const">
	<polyline class="st1" points="361.9,62.4 357,64.2 352.2,65.9 347.3,67.6 342.5,69.3 337.6,71 332.7,72.6 327.7,74.2 322.8,75.7 
		317.8,77.2 312.8,78.7 307.8,80.1 302.8,81.5 297.8,82.9 292.8,84.2 287.7,85.5 282.7,86.7 277.6,87.9 272.5,89.1 267.4,90.2 
		262.2,91.3 257.1,92.4 252,93.4 246.8,94.4 241.6,95.3 236.5,96.2 231.3,97.1 226.1,97.9 220.8,98.7 215.6,99.5 210.4,100.2 
		205.1,100.8 199.9,101.5 194.6,102.1 189.4,102.6 184.1,103.1 178.8,103.6 173.5,104 168.2,104.4 162.9,104.8 157.5,105.1 
		152.2,105.4 146.9,105.6 141.5,105.8 136.2,105.9 130.8,106 125.5,106.1 120.1,106.1 114.8,106.1 109.4,106.1 104,106 98.6,105.8 
		93.3,105.7 87.9,105.5 82.5,105.2 77.1,104.9 71.7,104.6 66.3,104.2 60.9,103.8 55.5,103.3 50.1,102.8 44.7,102.2 39.3,101.6 
		33.9,101 28.5,100.3 23.1,99.6 17.7,98.9 12.3,98.1 6.9,97.2 	"/>
	<polyline class="st2" points="309.5,68.5 304.6,70 299.7,71.6 294.8,73.1 289.9,74.6 285,76 280,77.4 275.1,78.8 270.1,80.1 
		265.1,81.4 260.1,82.6 255.1,83.9 250,85.1 245,86.2 239.9,87.3 234.8,88.4 229.7,89.4 224.6,90.4 219.5,91.4 214.3,92.3 
		209.2,93.2 204,94 198.8,94.8 193.7,95.6 188.5,96.3 183.2,97 178,97.7 172.8,98.3 167.6,98.8 162.3,99.4 157,99.9 151.8,100.3 
		146.5,100.8 141.2,101.1 135.9,101.5 130.6,101.8 125.3,102 119.9,102.2 114.6,102.4 109.3,102.5 103.9,102.6 98.6,102.7 
		93.2,102.7 87.9,102.6 82.5,102.6 77.1,102.5 71.7,102.3 66.4,102.1 61,101.9 55.6,101.6 50.2,101.3 44.8,100.9 39.4,100.5 
		34,100.1 28.6,99.6 23.2,99.1 17.8,98.5 12.3,97.9 6.9,97.2 	"/>
	<polyline class="st1" points="281.3,76.9 276.3,78.3 271.3,79.7 266.3,81 261.2,82.3 256.2,83.5 251.1,84.7 246.1,85.9 241,87 
		235.9,88.1 230.7,89.1 225.6,90.1 220.5,91.1 215.3,92 210.1,92.9 204.9,93.8 199.7,94.6 194.5,95.4 189.3,96.1 184.1,96.8 
		178.8,97.5 173.6,98.1 168.3,98.7 163,99.3 157.8,99.8 152.5,100.2 147.2,100.6 141.8,101 136.5,101.4 131.2,101.7 125.8,101.9 
		120.5,102.2 115.1,102.3 109.8,102.5 104.4,102.6 99,102.6 93.7,102.6 88.3,102.6 82.9,102.5 77.5,102.4 72.1,102.3 66.7,102.1 
		61.2,101.9 55.8,101.6 50.4,101.3 45,100.9 39.5,100.5 34.1,100.1 28.7,99.6 23.2,99.1 17.8,98.5 12.4,97.9 6.9,97.2 	"/>
	<polyline class="st2" points="17,40.9 19.3,36.1 21.6,31.2 23.9,26.4 26.2,21.5 28.4,16.7 30.7,11.9 	"/>
	<polyline class="st2" points="248.6,74.3 243.7,75.7 238.7,77 233.7,78.3 228.7,79.6 223.7,80.8 218.7,82 213.6,83.2 208.5,84.3 
		203.5,85.3 198.4,86.4 193.3,87.4 188.1,88.3 183,89.3 177.8,90.1 172.7,91 167.5,91.8 162.3,92.5 157.1,93.3 151.8,94 146.6,94.6 
		141.3,95.2 136.1,95.8 130.8,96.3 125.5,96.8 120.2,97.3 114.9,97.7 109.6,98 104.3,98.4 98.9,98.7 93.6,98.9 88.2,99.1 82.9,99.3 
		77.5,99.4 72.1,99.5 66.7,99.5 61.3,99.5 55.9,99.5 50.5,99.4 45.1,99.3 39.6,99.1 34.2,98.9 28.7,98.7 23.3,98.4 17.8,98 
		12.4,97.6 6.9,97.2 	"/>
	<polyline class="st2" points="212.9,58.5 208.2,60.2 203.4,61.8 198.6,63.4 193.8,65 189,66.6 184.1,68.1 179.2,69.6 174.3,71 
		169.4,72.4 164.4,73.8 159.4,75.1 154.4,76.4 149.4,77.7 144.4,78.9 139.3,80.1 134.2,81.3 129.1,82.4 124,83.5 118.9,84.5 
		113.7,85.5 108.5,86.5 103.3,87.4 98.1,88.3 92.9,89.2 87.6,90 82.4,90.7 77.1,91.5 71.8,92.2 66.5,92.8 61.1,93.4 55.8,94 
		50.4,94.5 45,95 39.6,95.4 34.2,95.8 28.8,96.2 23.3,96.5 17.9,96.8 12.4,97 6.9,97.2 	"/>
	<polyline class="st2" points="351.8,74.8 346.3,74.7 340.8,74.6 335.3,74.4 329.9,74.2 324.4,73.9 318.9,73.6 313.5,73.2 
		308.1,72.8 302.7,72.4 297.3,71.9 291.9,71.4 286.5,70.8 281.1,70.2 275.8,69.5 270.5,68.8 265.2,68.1 259.9,67.3 254.6,66.5 
		249.3,65.6 244.1,64.7 238.8,63.8 233.6,62.8 228.4,61.8 223.3,60.7 218.1,59.6 212.9,58.5 	"/>
	<polyline class="st2" points="305.6,92 310.5,89.7 315.3,87.4 320.1,85 324.8,82.7 329.6,80.2 334.3,77.8 339,75.3 343.6,72.8 
		348.2,70.2 352.8,67.6 357.4,65 361.9,62.4 	"/>
	<line class="st2" x1="361.3" y1="68.6" x2="361.9" y2="62.4"/>
	<polyline class="st2" points="235.2,115.3 230,115.7 224.8,116.1 219.6,116.4 214.4,116.7 209.2,117 204,117.2 198.8,117.3 
		193.6,117.5 188.4,117.6 183.2,117.6 178,117.7 172.8,117.7 167.5,117.6 162.3,117.5 157.1,117.4 151.9,117.2 146.7,117 
		141.5,116.8 136.3,116.5 131.1,116.2 125.8,115.8 120.6,115.5 115.4,115 110.2,114.5 105,114 99.8,113.5 94.6,112.9 89.4,112.3 
		84.2,111.6 79,111 73.8,110.2 68.7,109.4 63.5,108.6 58.3,107.8 53.2,106.9 48,106 42.8,105 37.7,104 32.5,103 27.4,101.9 
		22.3,100.8 17.2,99.6 12,98.5 6.9,97.2 	"/>
	<polyline class="st2" points="33,151 30.4,146.2 27.9,141.3 25.4,136.4 22.9,131.5 20.5,126.7 18.2,121.8 15.8,116.9 13.5,112 
		11.3,107.1 9.1,102.2 6.9,97.2 	"/>
	<polyline class="st1" points="6.9,97.2 12.4,97.9 17.8,98.5 23.2,99.1 28.7,99.6 34.1,100.1 39.5,100.5 45,100.9 50.4,101.3 
		55.8,101.6 61.2,101.9 66.7,102.1 72.1,102.3 77.5,102.4 82.9,102.5 88.3,102.6 93.7,102.6 99,102.6 104.4,102.6 109.8,102.5 
		115.1,102.3 120.5,102.2 125.8,101.9 131.2,101.7 136.5,101.4 141.8,101 147.2,100.6 152.5,100.2 157.8,99.8 163,99.3 168.3,98.7 
		173.6,98.1 178.8,97.5 184.1,96.8 189.3,96.1 194.5,95.4 199.7,94.6 204.9,93.8 210.1,92.9 215.3,92 220.5,91.1 225.6,90.1 
		230.7,89.1 235.9,88.1 241,87 246.1,85.9 251.1,84.7 256.2,83.5 261.2,82.3 266.3,81 271.3,79.7 276.3,78.3 281.3,76.9 	"/>
	<polyline class="st1" points="6.9,97.2 12.3,98.1 17.7,98.9 23.1,99.6 28.5,100.3 33.9,101 39.3,101.6 44.7,102.2 50.1,102.8 
		55.5,103.3 60.9,103.8 66.3,104.2 71.7,104.6 77.1,104.9 82.5,105.2 87.9,105.5 93.3,105.7 98.6,105.8 104,106 109.4,106.1 
		114.8,106.1 120.1,106.1 125.5,106.1 130.8,106 136.2,105.9 141.5,105.8 146.9,105.6 152.2,105.4 157.5,105.1 162.9,104.8 
		168.2,104.4 173.5,104 178.8,103.6 184.1,103.1 189.4,102.6 194.6,102.1 199.9,101.5 205.1,100.8 210.4,100.2 215.6,99.5 
		220.8,98.7 226.1,97.9 231.3,97.1 236.5,96.2 241.6,95.3 246.8,94.4 252,93.4 257.1,92.4 262.2,91.3 267.4,90.2 272.5,89.1 
		277.6,87.9 282.7,86.7 287.7,85.5 292.8,84.2 297.8,82.9 302.8,81.5 307.8,80.1 312.8,78.7 317.8,77.2 322.8,75.7 327.7,74.2 
		332.7,72.6 337.6,71 342.5,69.3 347.3,67.6 352.2,65.9 357,64.2 361.9,62.4 	"/>
	<polyline class="st2" points="6.9,97.2 12.4,97 17.9,96.8 23.3,96.5 28.8,96.2 34.2,95.8 39.6,95.4 45,95 50.4,94.5 55.8,94 
		61.1,93.4 66.5,92.8 71.8,92.2 77.1,91.5 82.4,90.7 87.6,90 92.9,89.2 98.1,88.3 103.3,87.4 108.5,86.5 113.7,85.5 118.9,84.5 
		124,83.5 129.1,82.4 134.2,81.3 139.3,80.1 144.4,78.9 149.4,77.7 154.4,76.4 159.4,75.1 164.4,73.8 169.4,72.4 174.3,71 
		179.2,69.6 184.1,68.1 189,66.6 193.8,65 198.6,63.4 203.4,61.8 208.2,60.2 212.9,58.5 	"/>
	<polyline class="st2" points="30.7,11.9 29.3,16.8 27.9,21.8 26.6,26.7 25.2,31.7 23.8,36.7 22.4,41.7 21,46.7 19.6,51.8 
		18.2,56.8 16.8,61.8 15.4,66.9 14,71.9 12.6,77 11.2,82 9.8,87.1 8.3,92.2 6.9,97.2 	"/>
	<text transform="matrix(0.9868 0 0 1 276.2318 72.8071)" class="st3 st4 st5">●</text>
	<ellipse class="st3" cx="281.1" cy="76.7" rx="3.6" ry="3.6"/>
	<ellipse class="st3" cx="276.8" cy="71.4" rx="3.6" ry="3.6"/>
	<ellipse class="st3" cx="248.5" cy="74.8" rx="3.6" ry="3.6"/>
	<ellipse class="st3" cx="213.7" cy="58.1" rx="3.6" ry="3.6"/>
	<ellipse class="st3" cx="277.1" cy="102" rx="3.6" ry="3.6"/>
	<ellipse class="st3" cx="235.9" cy="115" rx="3.6" ry="3.6"/>
	<ellipse class="st3" cx="33" cy="151.7" rx="3.6" ry="3.6"/>
	<ellipse class="st3" cx="6.4" cy="97.3" rx="3.6" ry="3.6"/>
	<ellipse class="st3" cx="30.3" cy="11.9" rx="3.6" ry="3.6"/>
	<ellipse class="st3" cx="17" cy="40.9" rx="3.6" ry="3.6"/>
	<ellipse class="st3" cx="306" cy="91.4" rx="3.6" ry="3.6"/>
	<ellipse class="st3" cx="309.8" cy="68.9" rx="3.6" ry="3.6"/>
	<ellipse class="st3" cx="361.2" cy="61.6" rx="3.6" ry="3.6"/>
	<ellipse class="st3" cx="351.6" cy="65.8" rx="3.6" ry="3.6"/>
	<ellipse class="st3" cx="360.8" cy="70.4" rx="3.6" ry="3.6"/>
	<ellipse class="st3" cx="351.8" cy="75.6" rx="3.6" ry="3.6"/>
</g>
</svg>
