<?xml version="1.0" encoding="utf-8"?>
<!-- Generator: Adobe Illustrator 23.1.1, SVG Export Plug-In . SVG Version: 6.00 Build 0)  -->
<svg version="1.1" id="Layer_1" xmlns="http://www.w3.org/2000/svg" xmlns:xlink="http://www.w3.org/1999/xlink" x="0px" y="0px"
	 viewBox="0 0 382.1 232.1" style="enable-background:new 0 0 382.1 232.1;" xml:space="preserve">
<style type="text/css">
	.st0{fill:#707589;}
	.st1{fill:none;stroke:#FFFFFF;stroke-linejoin:round;stroke-miterlimit:10;enable-background:new    ;}
	.st2{fill:none;stroke:#FFFFFF;stroke-linejoin:round;stroke-miterlimit:10;}
	.st3{fill:#FFFFFF;}
</style>
<g id="map">
	<path class="st0" d="M40.2,210.6c0.8,1.4,0.6,2.2-1.1,2.8c-1.1,0.4-2.1,1.3-3.1,1.9c-0.6,0.4-1.3,0.6-2.1,1c0.3-2.7,0-5.2,2.5-6.8
		c-1.6,0.1-2.3,0.8-3.3,2.7c-0.7,1.3-1.7,2.5-2.6,4c0.2,0.2,0.7,0.5,1.4,1.1c-4.2,4.5-8.7,8.4-14.2,11.4c-0.6-0.7-1.5-0.5-2.8,0.2
		c-1.5,0.9-3.5,1.2-5.2,1.7c-0.1-0.3-0.3-0.5-0.4-0.8c0.8-0.5,1.7-0.9,2.5-1.4c0.8-0.4,1.7-0.8,2.6-1.2c0.6-0.3,1-1,1.6-1
		c2.9-0.3,4.8-2.2,6.6-4.1c1-1.1,1.4-2.6,2.4-4.5c-1.5,0.2-2.3,0.3-3.5,0.4c-1.2-1.4-1.3-2-4.6-0.6c0-1.6,0-3.1,0-4.7
		c-3.4,0.6-4.2-0.2-4.6-3.6c-0.2-1.4-1.5-2.7-0.2-4.3c0.8-0.9,1.3-2.1,2.2-2.8c0.5-0.4,1.6-0.3,2.4-0.1c1.1-0.5,2.6-0.7,3.2-1.5
		c0.6-0.7,0.2-2.2,0.3-3.1c-1.6,0-3.4,0-5.2,0c-1.4,0-2.3-0.6-2.5-2.2c-0.1-0.9-0.8-1.7-1.4-2.8c1.9-0.7,3.8-1.5,6-2.4
		c0.2,2.3,1.3,2.8,3.3,2.1c-1.6-2.3-3.2-4.5-4.6-6.7c-0.3-0.5-0.7-1.3-0.5-1.7c0.3-0.5,1.1-0.8,1.7-1.1c0.7-0.3,1.9-0.3,2.1-0.7
		c0.9-2.2,2.6-3.2,4.5-4.1c1.3-0.6,2.7-1.1,4.6-1.8c1.3,0.6,3,1.9,4.9,2.3c2.8,0.6,5.8,0.9,8.7,0.7c2.2-0.1,4,0.5,4.5,2.8
		c1.9,9.4,3.8,18.8,5.7,28.5c0.9-0.2,1.8-0.5,2.4-0.6c1.5,1.2,2.9,2.3,4.3,3.3c0.9-1.1,1.7-2.9,2.5-2.9c1.1,0,2.2,1.3,3.2,2.1
		c1.1,0.8,2.2,1.6,3.1,2.6c1.6,1.7,3.2,3.3,5.8,3.6c1.6,0.2,2.2,2.7,1.3,4.8c-0.8,0.2-2.5-2-2.6,0.8c0,0-1.8,0.4-2.3,0
		c-1.4-1.3-2.5-2.8-3.8-4.4c-0.2,0.6-0.3,0.9-0.4,1.5c-1.2-1.3-2.1-2.6-3.3-3.5c-2.1-1.6-4.3-3.1-6.5-4.5c-2.5-1.5-5.3-1.4-8.2-1.2
		c-1.5,0.1-3.1-1-4.7-1.6c-0.7-0.2-1.5-0.3-2.3-0.5C40.3,210.2,40.3,210.4,40.2,210.6z"/>
	<path class="st0" d="M32.9,218.5c0.2,0.2,0.5,0.3,0.6,0.5c0.7,1.4-1.4,5-2.9,5.1c-0.4,0-1.1-0.4-1.3-0.8c-0.2-0.4-0.2-1.2,0-1.6
		c0.9-1,2-1.9,3-2.8C32.4,218.7,32.6,218.6,32.9,218.5z"/>
	<path class="st0" d="M8.9,200c-1.9,0.6-4.2-0.7-4.9-2.8C5.8,198.2,7.1,199,8.9,200z"/>
	<path class="st0" d="M8.4,210.3c0.9,0.2,1.8,0.3,2.7,0.5c-0.1,0.4-0.2,0.9-0.4,1.3c-0.8-0.2-1.7-0.5-2.5-0.7
		C8.3,211,8.4,210.7,8.4,210.3z"/>
	<path class="st0" d="M117,231.5c-1-0.2-2.3-0.7-1.7-2.9c0.1-0.5-0.1-1.1-0.4-1.6c-0.7-1.5-1.3-2.8,0.2-4.3c0.6-0.6,0.3-2,0.5-3.2
		c3.9,1.1,7.2,2.9,9.1,7.2C122.6,228.1,120.1,229.6,117,231.5z"/>
	<path class="st0" d="M111.4,216.7c-0.2-0.2-0.6-0.4-0.9-0.7c-0.5-0.5-1-1.1-1.5-1.7c-0.2-0.3-0.3-0.8-0.4-1.2
		c0.4-0.1,0.9-0.3,1.3-0.2c1.1,0.2,2.2,0.5,3.2,0.9c0.5,0.2,0.8,0.9,1.2,1.3c-0.5,0.4-1,0.8-1.5,1.1
		C112.5,216.5,112.1,216.5,111.4,216.7z"/>
	<path class="st0" d="M86.5,202.9c-1,0.7-1.7,1.6-2.3,1.5c-0.8-0.1-1.6-0.9-2.4-1.5c1-0.6,1.9-1.3,3-1.7
		C85,201.2,85.7,202.1,86.5,202.9z"/>
	<path class="st0" d="M97.9,206.1c0.1,1.3,0.4,2.3,0.2,3.2c0,0.3-1.3,0.8-1.5,0.6c-0.7-0.6-1.3-1.4-2-2.3
		C95.8,207.1,96.6,206.7,97.9,206.1z"/>
	<path class="st0" d="M150.2,196c0.5-0.4-0.2,1.2,0.8,0.9c-0.1,0.1-0.1,1.4,0.3,0.3c1,1.9,3.9,3.5,5,7c0.2,5.5,7.8,9.6,7.7,14.8
		c1.6,6,6,11.9,13.8,11.8c1,0.1,1.7,1.3,3.6,1.2h-0.1c1,0.7,2.2-1.9,1.6-0.6c-0.2-0.1-0.1-0.4-0.6,0.1c-0.4-2.4-2.6-5.3-1.8-11.4
		c-1.2,1.3-3.9-4-0.9-0.5l-0.1-0.3c0.6-0.2,1.7-1.3,0.5,0.2c0.9,0.7,2-1.9,2.2-3.6c-0.8,0.9-0.5-0.2-0.9-1.3
		c-0.1,0.1-0.7,0.4-1.2-0.4c1.1-0.6,5.2,2.4,2.5-1.8c0.1,0.1,1-0.4,0.4-0.8c1.3,1.1,2.8-2.3,2.2,0.4c1.7,0,0.3-3,1.2-2.3
		c-2.2-1.1,5.6,1,1.7-0.8c0.1-0.2-0.2-0.1,0.6-0.5c-0.4-0.8-1.2,0.2-1.2-1.6c0.1,0.3,0.6-0.5,0.7,0.5l0.3-0.1c0-0.2,0.2,1.3,0.5,0.2
		c-0.1-0.1,0.4,0.4-0.2,0.7c0.3,0.2-0.1,0.1,0.8-0.3c0.3,0.2-0.8-0.7-0.1-1c-0.1,0.3,0.6,1.6,1,0c0,0.1,0,0,0.1,0.4
		c0.1,0,0.1-0.1,0.5-0.6c0,0.2,0-0.1-0.2,1.1c-0.1-0.1,1.1,0.2-0.1,0.2c3.5-0.5,5.2-2.3-1,1.8c1.3-0.8,6.7-2.8,9.8-6.1
		c-2-0.5,3,0,1.3-5.9l-0.1,0.1c5.8-1.4-0.9,0.8,3.9,1.7c-5.2,3.1,3.3-1.8,7.6-2.2c2.3-1.5,11.2,4.6,11.4,0.5
		c1.5-5.5,7.3,7.2,12.5,3.8c-0.3-3.2,4.5,5.4,4.1-2.6c1.5-0.2,1.3,2,3,1.4c2.4,1.7,3.7,4,4.8,1.2c0.6-1.1-4.3-0.9-4.6-3.9
		c1.5-1.2,3.2-2.2,3.2-4.4c0.4-1.8-7.2,4-4.2,0.6c0-0.3,0.7-1.8-0.2-0.7c-0.1-0.1-0.1,0-0.1-0.4c-1.7,2.6-10.1-0.2-2.5-1.4
		c1.3,0.7,3.9,2.4,5.6-0.1c2.5-2.4,10.1,2.1,10.2-4.9c2.9,2.8-1.7,7.8,4.5,3.4c-1.3,1.5,3-0.2,1.9-2c0.9,1,3.6-0.3,0.3,1.9
		c1.6-1.1,12.6-2.1,5.2-1c0.6-0.2,7,2.9,5.9,1.1c-1,0.7-0.8-1,0.8-0.1c-0.1,0.2,0.1,0.2-0.3,0.6c-0.7,0.8,2-0.4,3.4,4.1
		c-0.5,0.2-0.5,0-0.6-1.6c-1.5,2.9,2.7,1.3,4.2,0.5c-1.3,1,5.7-2.1,3.4-2c0.3-0.3,0.5-0.6,1.1-1.3c1-2,14.2,7.9,14.5,11.3
		c0.3,2-2.4,8.9,1.1,8.6c-2.3-5.7,1.2,0,1.1-1.6c2.5-1.4-2.2,4.3-0.4,4.4c1.1,1,1.7,5.3,4.3,5.1c-1.7-1.6,1.1-1.7,0.4-1.1
		c0.6,3.1,0.8,3.1,4.6,8.7c0.1-1.1,11.2,7.4,4.9,5c0.1,2.9,4.5-0.1,6.2-0.1c0.8-1.7,0.2-3.9,1.5-6c1.6-11.8-13-29.4-17.3-42.2
		c0.1,0.4,1.2-6,0.3-3c-1.6-1.9,1,0.1-0.2-2.7c0.8,0,0.6-0.9,1.4-0.9c0.8-0.9-1.4-1.7,0.5-1.6c0.3-0.6,0.1-1-0.5-1.5
		c1.4-1.9,3.9-3.7,2-6.9c2.2,2.1,1.6,0.4,2.8-0.9v0.1c0.3-0.4,1.8,0.2,1.6-1.2c-0.4,0.7,7.6-5,6.2-8.1c0.8,2.2,1.1-4.1,4.9-5.3
		c0.8-1.4,4.2,0.4,3.9-2.7c0.3,3.3,3.1-8.4,3.7-5.8c-1,1.4,2.4,0.2,1.1-1.4c0.2,1.1,3.4,0,3-0.4c0.2-0.5,0.3-0.5,1,0.1
		c0.2-0.3,0.8-0.1,2-2c0.3-0.2-1.5-1.5-1.4-0.5c-1.5-0.4,0.6,0.9-1.2,0.4c0.1,0,0.6,0.6,0,0.5c-0.4-1.2-0.2,1.4-3.4-1.1
		c-0.4-2.1,3.3,3.7,3.6-2.1c1.7-0.4-1.4-1-2.1-0.8c-3.5-1.9,1.2,0.5,1.4-1.3c-1.2-0.4,0.2-0.6,1-0.8c-1.4,1.9,0.2,0.9,1.6,1.6
		c1.3-0.3,1.7-0.8,2.5-2.9c1.1,1.1,0.5-0.8,1-1c-0.5-0.7,0.2-1.5-1.5-2.2c0.2,0.2-0.4,0.1-0.1,0.6c-1.5-0.6,0.6,3.6-1.6,2.2
		c0.9,0.3,0.6-1.5,0.2-2.3c-0.8-1.9-5.3,4.7-5.6-2.7c0.5-0.1,1.2,4.9,2.4,2c1.1-0.3,0.6-1.4,2-0.7c0.8-0.6,0.8-0.5-0.4-1.4
		c0.8-0.4,2.4,1.6,1.4-0.4c0.7-0.1,0.6,1.1,1.6,1.6c0.1-1.2-4.5-5.1-1.7-3.5c0.1,0-1-2.6,0.2-0.6c-1.2-0.6,6.4,10.3,2.7,4.5
		c-1.9-1.4-2.8-10.6-7.4-6.5c-0.1-1.9-5.1-2.1-3.5-3.4c1.3,0.5,2.7,2.5,4.6,1.9c0-0.1,0.2-1-0.5-0.6v-0.1l0,0
		c0.6-0.7-4.2-1.5-3.8-3.2c3.1,3.7,1.9-0.2,3.9,1.1c-0.2-2.6-2.1-1.1-5.9-5.5c3.9,4.3,8.3,1.8,1.9-1.1c-1.1-0.2-2.6-0.3-3.4-2
		c-0.5-1.5,1.4,0.9,4.5,1.4c2.4,1,0.4-0.9-1.9-2.8c4.3,2,0.3,0.8,0.3-4.8c1,0,0.3-1.1-1.2-2.2c1.3-0.1,0.9,0.1,1.8-0.9
		c-0.6-1,0.9,0,0.8-1c1.2-0.1-0.3-1.5,1.4-1.9c0.1,0-0.1,0.4,0,1c0.6-1.2,1.2,0.6-0.9,1.6c-0.7,2.4,1.7,2.8-0.2,5.5
		c0.7-0.5,0.8,0.7,1.6-0.3c0.9,2.6-0.5-0.1-0.7,1.9c2-0.5-2.4,0.4,2,2.5c0-2.3,0.4,1.1,0.9-1.1c0.5,0.4,0.4,3.9,1.8,3.2
		c1.3-0.9-0.3,1.8-0.4,3.2c-0.7,0.6-0.5,7.8,0.8,2.1c0.5-6.2,5.4-5.7,2-11.9c0,0,1.3-0.2,0.3-0.6c0,0,0.3,0,0.2-0.4
		c2.9,1.9-6.4-5.9-4.5-8.3c-0.2,4.1,5.8,2.2,5.5,5.9c1.7-3.5,3.9-6.4,3.7-11.1c0.3,0.2,0.2,0.9,0.5,2.3c-0.1-1.2,0.6-4.4-0.8-6.3
		c0,0.2-0.1,0.1,0.1,0.6c-0.3-0.2-1.2,0.2-2-0.3c1.7-0.6,0.4-2.4,1.7-4.2l0.3,0.8c-0.1-0.1-0.1,0-0.2-0.3l0.7,0.2
		c-0.5-0.7,0.7-0.8,0.6-2.1c1.3,0.3,4-3.6,4.8-3.1c0.8-0.7,3.2-0.2,3.4-1.5c1.1,0.6,1.3-0.3,3.4-0.9v0.3c0.5-0.3,1.1-0.4,2.2-1.6
		c0.1,1.1,0.6-4.7,0.9-0.6c0.7,1.2,0.6-1.5,1-0.3c0.1,0,0.3-0.4,0.6-0.9c-0.1,0.1,0.7,0.7,0.6,0c0.5,0.4,2-5.2,2.2-0.7
		c2.3-0.5,7.6-5,1.8-5c4.7,0.1-1.1,5.9-2.5,0.8c-0.4-0.7-1-1.5-2.5-2c0.4,1.4-1.9,0-0.9-0.6c2.7-5.6,0.4,1.2,0.2-6.7
		c1.7-0.6,0.8-7.3,3.3-7.7c1.1-1.4-0.2,2.5,2.1-1.6c1.5,1.1,0.1-0.9,2.2-1.2c0,3.5,1.6-9.1,1.8-4.4c0.2,0.2,0.4-0.9,0.8,0.1
		c0.1,0.1-1-0.3-0.5,0.4c-0.9,0.1,0.9,0.6,1.1,0.4c0.6,0.2,0.8-0.1,0.1-1.1c0.3-0.2,0.5-0.3,0.6-1.1c0.1,0.5,0.9,1.1,0.9-0.4
		c0.6,0.4,1.2-0.8,1.9,1.1c0.2-0.3,0.3-0.6,0.2-1.5c0.4,0.8,0.9,0.3,0.7-0.9c0.4-0.2,2,0.7,1.6-1.1c0,0.1,0.1-0.1,0.5,0.1
		c-0.1,0.2,0.3-1.1,0.3-0.1c0.5,0.3,0-2,0.8-0.6c0.6,0,1.2-1,1.4-2.2c-2.5,0.6,0.8-2-2.5-2.7c-1.6,2-0.7-3.1-3.9-3.4
		c-3.1-1.4-0.4-11.3-6.8-13.4c-7.4,6.9-5.7-9-9.7,11c-1.6,5.3,0.7,10.1-6,12.4c1.4,7.6-25.8-0.9-28,17.4l-0.3,0.4
		c0,2,2.2,3.1-3.8,7.4c-0.2-0.2-2.8-0.4-3.7,0.9c-1.3-1.2-12.4-1.1-9.1,4.1c2.6,0.7-1.8,5.3-6.5,8.6c-0.1,0,0.2-0.1,0.1-0.4
		c-9.3,5.6-9.7,10.4-22.5,7.6c0.2,0.3,3.9-12.9,4.9-8.8c1.3-3-0.8-21.7-8.4-8.3c-4.8-2.9,2.4-1.9,1.5-13.4
		c-10.4-8.8-11.3-6.4-14.9,3.9c-0.6-0.8,0.1-2.5,0.1-3.9c-2.7,2.7-5,6.6-5,11.9c-1.2,5.5,5.9,8.1,0.5,18.3c-9.6,12.6-11.8-17-5.8-28
		c1.1-0.5,0.6-4-0.3-0.9c-0.8-0.1-1.2,1.6-1.4,3.1c-1.4-1.2-1.8,1.7-4,3.2c-1,1,6.7-16.2,6-11.1c5-4.8-0.8,2.8,3.9-1.1
		c1.6-4,10.3-2.2,15.6-3.2c-3.6-6.8-8.9-0.6-7.4-6.3c-6.6,0.4-12.9,7.3-17.7,1c-2.3-0.7-2.6-1.9-4.7,1c-0.3-0.4,0.3-1.2,0-2.2
		c1.2-0.5,1.5-3.2,4-3.9c-4.4-1.7-12.4,10.1-19.7,8.3c3.5-6.9-3.8,1.1-7.6-1c1.8-2.3,9.6-9.4,16.2-12C227.4,30,221,31.4,215,28
		c1.3-3.4-7.7,1.5-12.4-3.3c-0.4-1.4,0.1-5.1-2.9-4.7C152.1,30.3,85.2,12.3,31.3,0v0.2c-1.2,0.3,0.9,2.1,0.7,2.5
		c0.2,0.3,0.2,2.5-1,2c0.2-1.1-1.4,0.4,0.1,0.3c1,1-0.2,2.9,1.2,3.9c-0.8,0.4-1.4,1.5-2.2,2.8c0.2,0.8-0.1,2.2-0.9,3.6
		c0,0-0.2-0.1-0.6-0.7c-0.1,0.2-1.5,2.5-2.2,0.8l-0.1,0.4c-0.1,0.1,0.2-0.2-0.4-0.3c-0.1,0.3,0,0.1-0.2,0.9
		c-0.5,0.2,0.4-0.8-0.6-0.6c0.1,0,0,0,0.6-0.5c-0.2-0.1-0.1-0.2-0.9,0.2c0,0-0.1-0.3,0.6-0.6l-0.6-0.2c0,0.2,0-0.5,0.5-0.3l0.3-0.5
		c0.2,0.1,1.2-0.2,1.7-1.1c0.3,1.3-1.3,2.5,1.2,0.3c0,0.3-1,0.7,0.1,1.2c-0.3-1.3,2.3-1.6,0.1-2.8c0-0.1-0.2-0.1,0-0.5
		c0.7,0.8,0.3,0.1,0.6-0.9c0-0.2,0.1,0.9,0.6,0c0.3,0.7,1-0.7,0-1.7c-0.2,0.1,0.1,0.2-0.1,1.1c0.8-0.6-7.4,3.5-2.6,2.9
		c-3.7,1.1-0.9-1.2,0.8-3.4l0.2,0.4c0-0.1,0.1,0.1,0.2-0.5c0,0.2,0.3,0.2-0.1,0.7c0.7-0.4,1.7-1,1.3-2.8v0.6l-0.1-0.3l-0.3,0.2
		c0.1-1.2,0.4-1.1-0.7,0.1c0,0,0.4-0.5-0.3-1c-0.1,0,0.1,0.1-0.3,0.4c-0.6-1.7-4.4-1.6-9.4-6c-1.2,3.7,0.9,7.8-0.1,13.1
		c0.6-0.6,0.4-0.6,2,0.5c0.2,0.3-1.6-0.3-1.7,0.7c-0.2,0,0-0.3-0.4-0.7c-0.4,1.3-0.1,1.6,1.2,2.2c-0.1-0.2-0.4,0.4-1,0.5
		c-0.1-0.3,0.6,2.2-0.9,2.2c-0.3,0.3,0.6-1,0.3-2.4c-0.2,0.2-0.5,1.5-0.8,2.9c0.5,0.5,3.5,0.4,3.7,2.1c-0.6-0.8-1.4,0-2.7-0.8
		c0,0,0.1,0.1,0.2,0.5c-0.4,0.3-0.3-0.8-1.2-0.9c0.6,1.9-1.5,3.6-1.1,6.6C12.7,36.1,2.6,49.1,4.7,60.9l-0.2-0.1
		c0.2,1-0.4,1.4-1.1,3.1l-0.2-0.3C3.6,67.5-3,65.7,1.6,77c-3,4.6,1.5,12,1.8,15.1c0.4,0.4-1.6,2.8,0.1,1.4c0,0.5,0.6,0.9,1.2,1.8
		c1.7,1.5,1.3,1.1,1.9-1.4c-0.1,0-0.1,0-0.2-0.2c1,0,1.4,0.1,2.3,1.5c-0.2-0.1,0-0.1-0.7-0.3h0.1c-2.1-0.1-0.7,3.4,0.4,5.7
		c-0.5,0.2-3.3-2.3-2-3c-0.1-0.2,0.2-0.6-0.4-0.9c-2.4,2.9-1.1,6.4,2.1,9.8c-5.1,3.9,3.2,11.2,2.8,15.5c4.6,3.8-5.7,6.4,6.6,9.9
		c6.4,5,15.2,11.2,15.3,20.5c-0.6-0.3-0.2-1.1-0.4,0.8c5.4,0.6,11.4,1.3,18.2,2c-4.5,0.7,22.1,19.3,39.7,19.6
		c7.3,2.5,13.1-6.5,22.7-0.1c1.7,4.4,7.1,7.3,10.3,12c1.1,2.2,0,8.8,7.4,12.4c2.9,0.7,2.9,4.5,7.2,0.6c-0.3-0.8,0.8-2,1.2-3.5
		l0.2,0.1c1.6-3.1,5.9-1.2,9.6-0.8C149.6,195.6,149.7,196.2,150.2,196z"/>
	<path class="st0" d="M368,70.4c-0.4,0.1-0.4,0-1.2-0.1c-0.2-1-0.3,1.1-1.2,1.1C365.2,72,367.8,71.3,368,70.4z"/>
	<path class="st0" d="M370.9,70.8c-1.8-0.2-0.3,1.1,0.7-0.2c-0.3-0.5-1.3-1-0.5-0.3C371,70.4,371.2,70.6,370.9,70.8z"/>
	<polygon class="st0" points="345.8,81.1 345.8,80.9 345.8,80.8 345.7,80.8 345.6,80.9 345.5,81.2 345.4,81.5 345.3,82 345.4,82.1 
		345.5,82 345.7,81.9 345.7,81.8 345.7,81.6 345.7,81.4 345.8,81.2 	"/>
	<polygon class="st0" points="344.1,84.4 344.4,84.3 344.6,84.1 344.8,83.9 345,83.6 345.2,83.2 345.3,83 345,82.6 344.3,83.1 	"/>
	<path class="st0" d="M355.3,78.1l0.2,0.2c-0.1,0,0.1,0.2-0.5,0.3c-0.7-0.8,0.1-1.6,1.4-3.1c-1.8,2.1-6.1,3.1-7.9,4.3
		c0-0.4-1-0.3-0.9,0.7c-0.5-0.8-0.4,1.1-1,0.4c-3.5,3.9,2.3,0.2-0.2,2.3c1.3-0.5,3.3-1.6,4.8-2.7c2.2-0.5,5.5-3.3-0.1,1.1
		c1.9-1.1,12.1-7.6,5.1-4.9C355.9,77,356,77.6,355.3,78.1z"/>
	<path class="st0" d="M28.8,2.1c0,0,0.1,0.2,0.4,0.6c-0.2,0,0,0.2-0.3,0.7C28.4,3.5,28,0.6,28.8,2.1z"/>
	<path class="st0" d="M29.6,3.9c0-0.4-0.6-0.6,0.3-1.2C29.6,3,30.5,4.1,29.6,3.9z"/>
	<path class="st0" d="M30.4,2.2C30.1,2.3,30.5,2,30,1.5c0,0.1-0.1,0,0,0.8c-0.3,0.2,0-0.5-0.7-0.2c-0.1-0.3,0.3-0.4,0.7-0.9
		C30.1,1.3,31.4,1.8,30.4,2.2z"/>
	<path class="st0" d="M30,6.1c0.1-0.1-0.2,0.3,0.5,0.4c-0.9,1.8,3.3,4.8-0.4-0.7C30,5.6,30.4,6,30.6,5.4c0.2,0.1,0.2,0.1,0.9,0.1
		c0.2-0.1-0.4-0.5-0.3-0.9C31.1,4.5,29.5,4.8,30,6.1z"/>
</g>
<g>
	<g>
		<polyline class="st1" points="342.7,64.4 338.4,66.9 334,69.4 329.6,71.9 325.1,74.3 320.7,76.7 316.2,79.1 311.6,81.4 
			307.1,83.7 302.5,86 297.9,88.3 293.3,90.5 288.6,92.7 283.9,94.9 279.2,97 274.5,99.1 269.7,101.2 264.9,103.2 260.1,105.2 
			255.3,107.2 250.4,109.1 245.5,111 240.6,112.9 235.7,114.7 230.7,116.5 225.7,118.3 220.7,120 215.7,121.7 210.6,123.4 
			205.5,125 200.4,126.6 195.3,128.1 190.2,129.7 185,131.2 179.8,132.6 174.6,134 169.4,135.4 164.1,136.7 158.9,138 153.6,139.3 
			148.2,140.5 142.9,141.7 137.6,142.8 132.2,143.9 126.8,145 121.4,146 116,147 110.5,148 105.1,148.9 99.6,149.8 94.1,150.6 
			88.6,151.4 83.1,152.1 77.5,152.8 72,153.5 		"/>
		<polyline class="st1" points="348.4,77.7 343.9,80 339.4,82.2 334.9,84.4 330.4,86.6 325.8,88.8 321.2,90.9 316.6,93 312,95.1 
			307.3,97.1 302.6,99.1 297.9,101.1 293.2,103 288.5,104.9 283.7,106.8 278.9,108.6 274.1,110.4 269.2,112.2 264.4,113.9 
			259.5,115.7 254.6,117.3 249.7,119 244.8,120.6 239.8,122.2 234.8,123.7 229.8,125.2 224.8,126.7 219.8,128.1 214.7,129.5 
			209.6,130.9 204.5,132.2 199.4,133.5 194.3,134.8 189.2,136 184,137.2 178.8,138.4 173.6,139.5 168.4,140.5 163.2,141.6 
			157.9,142.6 152.7,143.6 147.4,144.5 142.1,145.4 136.8,146.2 131.4,147.1 126.1,147.8 120.7,148.6 115.4,149.3 110,149.9 
			104.6,150.6 99.2,151.2 93.8,151.7 88.3,152.2 82.9,152.7 77.4,153.1 72,153.5 		"/>
		<polyline class="st1" points="295.9,113.1 290.2,114.2 284.5,115.3 278.8,116.3 273.1,117.2 		"/>
		<polyline class="st2" points="273.1,117.2 268.2,118.8 263.4,120.4 258.5,121.9 253.6,123.4 248.6,124.9 243.7,126.3 238.7,127.7 
			233.7,129.1 228.7,130.4 223.7,131.7 218.7,132.9 213.6,134.2 208.6,135.4 203.5,136.5 198.4,137.6 193.3,138.7 188.1,139.8 
			183,140.8 177.8,141.7 172.7,142.7 167.5,143.6 162.3,144.5 157,145.3 151.8,146.1 146.6,146.8 141.3,147.6 136.1,148.2 
			130.8,148.9 125.5,149.5 120.2,150.1 114.9,150.6 109.5,151.1 104.2,151.6 98.9,152 93.5,152.4 88.1,152.7 82.8,153 77.4,153.3 
			72,153.5 		"/>
		<polyline class="st1" points="238.3,75.3 234.1,78 229.8,80.7 225.6,83.4 221.3,86 216.9,88.6 212.5,91.2 208.1,93.8 203.7,96.4 
			199.2,98.9 194.7,101.4 190.1,103.8 185.6,106.3 181,108.7 176.3,111 171.6,113.4 166.9,115.7 162.2,118 157.5,120.2 152.7,122.5 
			147.8,124.6 143,126.8 138.1,128.9 133.2,131 128.2,133.1 123.3,135.1 118.3,137.1 113.2,139.1 108.2,141 103.1,142.9 98,144.7 
			92.8,146.6 87.6,148.4 82.4,150.1 77.2,151.8 72,153.5 		"/>
		<polyline class="st1" points="182.1,145.9 177,146.6 171.8,147.3 166.6,148 161.5,148.6 156.3,149.2 151.1,149.7 145.8,150.2 
			140.6,150.7 135.4,151.1 130.1,151.5 124.9,151.9 119.6,152.2 114.4,152.5 109.1,152.8 103.8,153 98.5,153.2 93.2,153.3 
			87.9,153.4 82.6,153.5 77.3,153.5 72,153.5 		"/>
		<polyline class="st2" points="72,153.5 77.4,153.3 82.8,153 88.1,152.7 93.5,152.4 98.9,152 104.2,151.6 109.5,151.1 114.9,150.6 
			120.2,150.1 125.5,149.5 130.8,148.9 136.1,148.2 141.3,147.6 146.6,146.8 151.8,146.1 157,145.3 162.3,144.5 167.5,143.6 
			172.7,142.7 177.8,141.7 183,140.8 188.1,139.8 193.3,138.7 198.4,137.6 203.5,136.5 208.6,135.4 213.6,134.2 218.7,132.9 
			223.7,131.7 228.7,130.4 233.7,129.1 238.7,127.7 243.7,126.3 248.6,124.9 253.6,123.4 258.5,121.9 263.4,120.4 268.2,118.8 
			273.1,117.2 		"/>
		<polyline class="st1" points="320.9,133.1 315.4,131.5 310,129.8 304.7,128.2 299.3,126.4 294,124.7 288.8,122.9 283.5,121 
			278.3,119.1 273.1,117.2 		"/>
		<polyline class="st1" points="351.7,67 347.7,70.7 343.6,74.3 339.5,78 335.3,81.6 331.1,85.2 326.9,88.8 322.6,92.4 318.3,95.9 
			313.9,99.4 309.5,102.9 305,106.3 300.5,109.7 295.9,113.1 		"/>
		<polyline class="st1" points="78,165.8 75,159.7 72,153.5 		"/>
		<polyline class="st1" points="193.6,139.8 187.9,142.9 182.1,145.9 		"/>
	</g>
	<ellipse class="st3" cx="72.3" cy="153.3" rx="3.6" ry="3.6"/>
	<ellipse class="st3" cx="78.5" cy="165.9" rx="3.6" ry="3.6"/>
	<ellipse class="st3" cx="181.8" cy="145.3" rx="3.6" ry="3.6"/>
	<ellipse class="st3" cx="193.5" cy="139.5" rx="3.6" ry="3.6"/>
	<ellipse class="st3" cx="321.5" cy="133.5" rx="3.6" ry="3.6"/>
	<ellipse class="st3" cx="348.3" cy="78.2" rx="3.6" ry="3.6"/>
	<ellipse class="st3" cx="352" cy="67.5" rx="3.6" ry="3.6"/>
	<ellipse class="st3" cx="342.2" cy="65.1" rx="3.6" ry="3.6"/>
	<ellipse class="st3" cx="296.4" cy="112.8" rx="3.6" ry="3.6"/>
	<ellipse class="st3" cx="273.3" cy="117.1" rx="3.6" ry="3.6"/>
	<ellipse class="st3" cx="237.8" cy="75.6" rx="3.6" ry="3.6"/>
</g>
</svg>
