<?xml version="1.0" encoding="utf-8"?>
<!-- Generator: Adobe Illustrator 23.1.1, SVG Export Plug-In . SVG Version: 6.00 Build 0)  -->
<svg version="1.1" id="Layer_1" xmlns="http://www.w3.org/2000/svg" xmlns:xlink="http://www.w3.org/1999/xlink" x="0px" y="0px"
	 viewBox="0 0 382.1 231.4" style="enable-background:new 0 0 382.1 231.4;" xml:space="preserve">
<style type="text/css">
	.st0{fill:#707589;}
	.st1{fill:none;stroke:#FFFFFF;stroke-linejoin:round;stroke-miterlimit:10;enable-background:new    ;}
	.st2{fill:none;stroke:#FFFFFF;stroke-linejoin:round;stroke-miterlimit:10;}
	.st3{fill:#FFFFFF;}
</style>
<g id="map">
	<path class="st0" d="M40.1,210.6c0.8,1.4,0.6,2.2-1.1,2.8c-1.1,0.4-2.1,1.3-3.1,1.9c-0.6,0.4-1.3,0.6-2.1,1c0.3-2.7,0-5.2,2.5-6.8
		c-1.6,0.1-2.3,0.8-3.3,2.7c-0.7,1.3-1.7,2.5-2.6,4c0.2,0.2,0.7,0.5,1.4,1.1c-4.2,4.5-8.7,8.4-14.2,11.4c-0.6-0.7-1.5-0.5-2.8,0.2
		c-1.5,0.9-3.5,1.2-5.2,1.7c-0.1-0.3-0.3-0.5-0.4-0.8c0.8-0.5,1.7-0.9,2.5-1.4c0.8-0.4,1.7-0.8,2.6-1.2c0.6-0.3,1-1,1.6-1
		c2.9-0.3,4.8-2.2,6.6-4.1c1-1.1,1.4-2.6,2.4-4.5c-1.5,0.2-2.3,0.3-3.5,0.4c-1.2-1.4-1.3-2-4.6-0.6c0-1.6,0-3.1,0-4.7
		c-3.4,0.6-4.2-0.2-4.6-3.6c-0.2-1.4-1.5-2.7-0.2-4.3c0.8-0.9,1.3-2.1,2.2-2.8c0.5-0.4,1.6-0.3,2.4-0.1c1.1-0.5,2.6-0.7,3.2-1.5
		c0.6-0.7,0.2-2.2,0.3-3.1c-1.6,0-3.4,0-5.2,0c-1.4,0-2.3-0.6-2.5-2.2c-0.1-0.9-0.8-1.7-1.4-2.8c1.9-0.7,3.8-1.5,6-2.4
		c0.2,2.3,1.3,2.8,3.3,2.1c-1.6-2.3-3.2-4.5-4.6-6.7c-0.3-0.5-0.7-1.3-0.5-1.7c0.3-0.5,1.1-0.8,1.7-1.1c0.7-0.3,1.9-0.3,2.1-0.7
		c0.9-2.2,2.6-3.2,4.5-4.1c1.3-0.6,2.7-1.1,4.6-1.8c1.3,0.6,3,1.9,4.9,2.3c2.8,0.6,5.8,0.9,8.7,0.7c2.2-0.1,4,0.5,4.5,2.8
		c1.9,9.4,3.8,18.8,5.7,28.5c0.9-0.2,1.8-0.5,2.4-0.6c1.5,1.2,2.9,2.3,4.3,3.3c0.9-1.1,1.7-2.9,2.5-2.9c1.1,0,2.2,1.3,3.2,2.1
		c1.1,0.8,2.2,1.6,3.1,2.6c1.6,1.7,3.2,3.3,5.8,3.6c1.6,0.2,2.2,2.7,1.3,4.8c-0.8,0.2-2.5-2-2.6,0.8c0,0-1.8,0.4-2.3,0
		c-1.4-1.3-2.5-2.8-3.8-4.4c-0.2,0.6-0.3,0.9-0.4,1.5c-1.2-1.3-2.1-2.6-3.3-3.5c-2.1-1.6-4.3-3.1-6.5-4.5c-2.5-1.5-5.3-1.4-8.2-1.2
		c-1.5,0.1-3.1-1-4.7-1.6c-0.7-0.2-1.5-0.3-2.3-0.5C40.3,210.2,40.2,210.4,40.1,210.6z"/>
	<path class="st0" d="M32.9,218.4c0.2,0.2,0.5,0.3,0.6,0.5c0.7,1.4-1.4,5-2.9,5.1c-0.4,0-1.1-0.4-1.3-0.8c-0.2-0.4-0.2-1.2,0-1.6
		c0.9-1,2-1.9,3-2.8C32.4,218.6,32.6,218.6,32.9,218.4z"/>
	<path class="st0" d="M8.8,200c-1.9,0.6-4.2-0.7-4.9-2.8C5.8,198.2,7.1,199,8.8,200z"/>
	<path class="st0" d="M8.4,210.3c0.9,0.2,1.8,0.3,2.7,0.5c-0.1,0.4-0.2,0.9-0.4,1.3c-0.8-0.2-1.7-0.5-2.5-0.7
		C8.3,211,8.3,210.6,8.4,210.3z"/>
	<path class="st0" d="M117,231.4c-1-0.2-2.3-0.7-1.7-2.9c0.1-0.5-0.1-1.1-0.4-1.6c-0.7-1.5-1.3-2.8,0.2-4.3c0.6-0.6,0.3-2,0.5-3.2
		c3.9,1.1,7.2,2.9,9.1,7.2C122.6,228.1,120.1,229.6,117,231.4z"/>
	<path class="st0" d="M111.4,216.7c-0.2-0.2-0.6-0.4-0.9-0.7c-0.5-0.5-1-1.1-1.5-1.7c-0.2-0.3-0.3-0.8-0.4-1.2
		c0.4-0.1,0.9-0.3,1.3-0.2c1.1,0.2,2.2,0.5,3.2,0.9c0.5,0.2,0.8,0.9,1.2,1.3c-0.5,0.4-1,0.8-1.5,1.1
		C112.5,216.5,112,216.5,111.4,216.7z"/>
	<path class="st0" d="M86.4,202.8c-1,0.7-1.7,1.6-2.3,1.5c-0.8-0.1-1.6-0.9-2.4-1.5c1-0.6,1.9-1.3,3-1.7
		C85,201.1,85.6,202.1,86.4,202.8z"/>
	<path class="st0" d="M97.9,206c0.1,1.3,0.4,2.3,0.2,3.2c0,0.3-1.3,0.8-1.5,0.6c-0.7-0.6-1.3-1.4-2-2.3
		C95.8,207.1,96.5,206.7,97.9,206z"/>
	<path class="st0" d="M150.2,196c0.5-0.4-0.2,1.2,0.8,0.9c-0.1,0.1-0.1,1.4,0.3,0.3c1,1.9,3.9,3.5,5,7c0.2,5.5,7.8,9.6,7.7,14.8
		c1.6,6,6,11.9,13.8,11.8c1,0.1,1.7,1.3,3.6,1.2h-0.1c1,0.7,2.2-1.9,1.6-0.6c-0.2-0.1-0.1-0.4-0.6,0.1c-0.4-2.4-2.6-5.3-1.8-11.4
		c-1.2,1.3-3.9-4-0.9-0.5l-0.1-0.3c0.6-0.2,1.7-1.3,0.5,0.2c0.9,0.7,2-1.9,2.2-3.6c-0.8,0.9-0.5-0.2-0.9-1.3
		c-0.1,0.1-0.7,0.4-1.2-0.4c1.1-0.6,5.2,2.4,2.5-1.8c0.1,0.1,1-0.4,0.4-0.8c1.3,1.1,2.8-2.3,2.2,0.4c1.7,0,0.3-3,1.2-2.3
		c-2.2-1.1,5.6,1,1.7-0.8c0.1-0.2-0.2-0.1,0.6-0.5c-0.4-0.8-1.2,0.2-1.2-1.6c0.1,0.3,0.6-0.5,0.7,0.5l0.3-0.1c0-0.2,0.2,1.3,0.5,0.2
		c-0.1-0.1,0.4,0.4-0.2,0.7c0.3,0.2-0.1,0.1,0.8-0.3c0.3,0.2-0.8-0.7-0.1-1c-0.1,0.3,0.6,1.6,1,0c0,0.1,0,0,0.1,0.4
		c0.1,0,0.1-0.1,0.5-0.6c0,0.2,0-0.1-0.2,1.1c-0.1-0.1,1.1,0.2-0.1,0.2c3.5-0.5,5.2-2.3-1,1.8c1.3-0.8,6.7-2.8,9.8-6.1
		c-2-0.5,3,0,1.3-5.9l-0.1,0.1c5.8-1.4-0.9,0.8,3.9,1.7c-5.2,3.1,3.3-1.8,7.6-2.2c2.3-1.5,11.2,4.6,11.4,0.5
		c1.5-5.5,7.3,7.2,12.5,3.8c-0.3-3.2,4.5,5.4,4.1-2.6c1.5-0.2,1.3,2,3,1.4c2.4,1.7,3.7,4,4.8,1.2c0.6-1.1-4.3-0.9-4.6-3.9
		c1.5-1.2,3.2-2.2,3.2-4.4c0.4-1.8-7.2,4-4.2,0.6c0-0.3,0.7-1.8-0.2-0.7c-0.1-0.1-0.1,0-0.1-0.4c-1.7,2.6-10.1-0.2-2.5-1.4
		c1.3,0.7,3.9,2.4,5.6-0.1c2.5-2.4,10.1,2.1,10.2-4.9c2.9,2.8-1.7,7.8,4.5,3.4c-1.3,1.5,3-0.2,1.9-2c0.9,1,3.6-0.3,0.3,1.9
		c1.6-1.1,12.6-2.1,5.2-1c0.6-0.2,7,2.9,5.9,1.1c-1,0.7-0.8-1,0.8-0.1c-0.1,0.2,0.1,0.2-0.3,0.6c-0.7,0.8,2-0.4,3.4,4.1
		c-0.5,0.2-0.5,0-0.6-1.6c-1.5,2.9,2.7,1.3,4.2,0.5c-1.3,1,5.7-2.1,3.4-2c0.3-0.3,0.5-0.6,1.1-1.3c1-2,14.2,7.9,14.5,11.3
		c0.3,2-2.4,8.9,1.1,8.6c-2.3-5.7,1.2,0,1.1-1.6c2.5-1.4-2.2,4.3-0.4,4.4c1.1,1,1.7,5.3,4.3,5.1c-1.7-1.6,1.1-1.7,0.4-1.1
		c0.6,3.1,0.8,3.1,4.6,8.7c0.1-1.1,11.2,7.4,4.9,5c0.1,2.9,4.5-0.1,6.2-0.1c0.8-1.7,0.2-3.9,1.5-6c1.6-11.8-13-29.4-17.3-42.2
		c0.1,0.4,1.2-6,0.3-3c-1.6-1.9,1,0.1-0.2-2.7c0.8,0,0.6-0.9,1.4-0.9c0.8-0.9-1.4-1.7,0.5-1.6c0.3-0.6,0.1-1-0.5-1.5
		c1.4-1.9,3.9-3.7,2-6.9c2.2,2.1,1.6,0.4,2.8-0.9v0.1c0.3-0.4,1.8,0.2,1.6-1.2c-0.4,0.7,7.6-5,6.2-8.1c0.8,2.2,1.1-4.1,4.9-5.3
		c0.8-1.4,4.2,0.4,3.9-2.7c0.3,3.3,3.1-8.4,3.7-5.8c-1,1.4,2.4,0.2,1.1-1.4c0.2,1.1,3.4,0,3-0.4c0.2-0.5,0.3-0.5,1,0.1
		c0.2-0.3,0.8-0.1,2-2c0.3-0.2-1.5-1.5-1.4-0.5c-1.5-0.4,0.6,0.9-1.2,0.4c0.1,0,0.6,0.6,0,0.5c-0.4-1.2-0.2,1.4-3.4-1.1
		c-0.4-2.1,3.3,3.7,3.6-2.1c1.7-0.4-1.4-1-2.1-0.8c-3.5-1.9,1.2,0.5,1.4-1.3c-1.2-0.4,0.2-0.6,1-0.8c-1.4,1.9,0.2,0.9,1.6,1.6
		c1.3-0.3,1.7-0.8,2.5-2.9c1.1,1.1,0.5-0.8,1-1c-0.5-0.7,0.2-1.5-1.5-2.2c0.2,0.2-0.4,0.1-0.1,0.6c-1.5-0.6,0.6,3.6-1.6,2.2
		c0.9,0.3,0.6-1.5,0.2-2.3c-0.8-1.9-5.3,4.7-5.6-2.7c0.5-0.1,1.2,4.9,2.4,2c1.1-0.3,0.6-1.4,2-0.7c0.8-0.6,0.8-0.5-0.4-1.4
		c0.8-0.4,2.4,1.6,1.4-0.4c0.7-0.1,0.6,1.1,1.6,1.6c0.1-1.2-4.5-5.1-1.7-3.5c0.1,0-1-2.6,0.2-0.6c-1.2-0.6,6.4,10.3,2.7,4.5
		c-1.9-1.4-2.8-10.6-7.4-6.5c-0.1-1.9-5.1-2.1-3.5-3.4c1.3,0.5,2.7,2.5,4.6,1.9c0-0.1,0.2-1-0.5-0.6v-0.1l0,0
		c0.6-0.7-4.2-1.5-3.8-3.2c3.1,3.7,1.9-0.2,3.9,1.1c-0.2-2.6-2.1-1.1-5.9-5.5c3.9,4.3,8.3,1.8,1.9-1.1c-1.1-0.2-2.6-0.3-3.4-2
		c-0.5-1.5,1.4,0.9,4.5,1.4c2.4,1,0.4-0.9-1.9-2.8c4.3,2,0.3,0.8,0.3-4.8c1,0,0.3-1.1-1.2-2.2c1.3-0.1,0.9,0.1,1.8-0.9
		c-0.6-1,0.9,0,0.8-1c1.2-0.1-0.3-1.5,1.4-1.9c0.1,0-0.1,0.4,0,1c0.6-1.2,1.2,0.6-0.9,1.6c-0.7,2.4,1.7,2.8-0.2,5.5
		c0.7-0.5,0.8,0.7,1.6-0.3c0.9,2.6-0.5-0.1-0.7,1.9c2-0.5-2.4,0.4,2,2.5c0-2.3,0.4,1.1,0.9-1.1c0.5,0.4,0.4,3.9,1.8,3.2
		c1.3-0.9-0.3,1.8-0.4,3.2c-0.7,0.6-0.5,7.8,0.8,2.1c0.5-6.2,5.4-5.7,2-11.9c0,0,1.3-0.2,0.3-0.6c0,0,0.3,0,0.2-0.4
		c2.9,1.9-6.4-5.9-4.5-8.3c-0.2,4.1,5.8,2.2,5.5,5.9c1.7-3.5,3.9-6.4,3.7-11.1c0.3,0.2,0.2,0.9,0.5,2.3c-0.1-1.2,0.6-4.4-0.8-6.3
		c0,0.2-0.1,0.1,0.1,0.6c-0.3-0.2-1.2,0.2-2-0.3c1.7-0.6,0.4-2.4,1.7-4.2l0.3,0.8c-0.1-0.1-0.1,0-0.2-0.3l0.7,0.2
		c-0.5-0.7,0.7-0.8,0.6-2.1c1.3,0.3,4-3.6,4.8-3.1c0.8-0.7,3.2-0.2,3.4-1.5c1.1,0.6,1.3-0.3,3.4-0.9v0.3c0.5-0.3,1.1-0.4,2.2-1.6
		c0.1,1.1,0.6-4.7,0.9-0.6c0.7,1.2,0.6-1.5,1-0.3c0.1,0,0.3-0.4,0.6-0.9c-0.1,0.1,0.7,0.7,0.6,0c0.5,0.4,2-5.2,2.2-0.7
		c2.3-0.5,7.6-5,1.8-5c4.7,0.1-1.1,5.9-2.5,0.8c-0.4-0.7-1-1.5-2.5-2c0.4,1.4-1.9,0-0.9-0.6c2.7-5.6,0.4,1.2,0.2-6.7
		c1.7-0.6,0.8-7.3,3.3-7.7c1.1-1.4-0.2,2.5,2.1-1.6c1.5,1.1,0.1-0.9,2.2-1.2c0,3.5,1.6-9.1,1.8-4.4c0.2,0.2,0.4-0.9,0.8,0.1
		c0.1,0.1-1-0.3-0.5,0.4c-0.9,0.1,0.9,0.6,1.1,0.4c0.6,0.2,0.8-0.1,0.1-1.1c0.3-0.2,0.5-0.3,0.6-1.1c0.1,0.5,0.9,1.1,0.9-0.4
		c0.6,0.4,1.2-0.8,1.9,1.1c0.2-0.3,0.3-0.6,0.2-1.5c0.4,0.8,0.9,0.3,0.7-0.9c0.4-0.2,2,0.7,1.6-1.1c0,0.1,0.1-0.1,0.5,0.1
		c-0.1,0.2,0.3-1.1,0.3-0.1c0.5,0.3,0-2,0.8-0.6c0.6,0,1.2-1,1.4-2.2c-2.5,0.6,0.8-2-2.5-2.7c-1.6,2-0.7-3.1-3.9-3.4
		c-3.1-1.4-0.4-11.3-6.8-13.4c-7.4,6.9-5.7-9-9.7,11c-1.6,5.3,0.7,10.1-6,12.4c1.4,7.6-25.8-0.9-28,17.4l-0.3,0.4
		c0,2,2.2,3.1-3.8,7.4c-0.2-0.2-2.8-0.4-3.7,0.9c-1.3-1.2-12.4-1.1-9.1,4.1c2.6,0.7-1.8,5.3-6.5,8.6c-0.1,0,0.2-0.1,0.1-0.4
		c-9.3,5.6-9.7,10.4-22.5,7.6c0.2,0.3,3.9-12.9,4.9-8.8c1.3-3-0.8-21.7-8.4-8.3c-4.8-2.9,2.4-1.9,1.5-13.4
		c-10.4-8.8-11.3-6.4-14.9,3.9c-0.6-0.8,0.1-2.5,0.1-3.9c-2.7,2.7-5,6.6-5,11.9c-1.2,5.5,5.9,8.1,0.5,18.3c-9.6,12.6-11.8-17-5.8-28
		c1.1-0.5,0.6-4-0.3-0.9c-0.8-0.1-1.2,1.6-1.4,3.1c-1.4-1.2-1.8,1.7-4,3.2c-1,1,6.7-16.2,6-11.1c5-4.8-0.8,2.8,3.9-1.1
		c1.6-4,10.3-2.2,15.6-3.2c-3.6-6.8-8.9-0.6-7.4-6.3c-6.6,0.4-12.9,7.3-17.7,1c-2.3-0.7-2.6-1.9-4.7,1c-0.3-0.4,0.3-1.2,0-2.2
		c1.2-0.5,1.5-3.2,4-3.9c-4.4-1.7-12.4,10.1-19.7,8.3c3.5-6.9-3.8,1.1-7.6-1c1.8-2.3,9.6-9.4,16.2-12C227.4,30,221,31.4,215,28
		c1.3-3.4-7.7,1.5-12.4-3.3c-0.4-1.4,0.1-5.1-2.9-4.7C152.1,30.3,85.2,12.3,31.3,0v0.2c-1.2,0.3,0.9,2.1,0.7,2.5
		c0.2,0.3,0.2,2.5-1,2c0.2-1.1-1.4,0.4,0.1,0.3c1,1-0.2,2.9,1.2,3.9c-0.8,0.4-1.4,1.5-2.2,2.8c0.2,0.8-0.1,2.2-0.9,3.6
		c0,0-0.2-0.1-0.6-0.7c-0.1,0.2-1.5,2.5-2.2,0.8l-0.1,0.4c-0.1,0.1,0.2-0.2-0.4-0.3c-0.1,0.3,0,0.1-0.2,0.9
		c-0.5,0.2,0.4-0.8-0.6-0.6c0.1,0,0,0,0.6-0.5c-0.2-0.1-0.1-0.2-0.9,0.2c0,0-0.1-0.3,0.6-0.6l-0.6-0.2c0,0.2,0-0.5,0.5-0.3l-0.2,0.2
		c0.2,0.1,1.2-0.2,1.7-1.1c0.3,1.3-1.3,2.5,1.2,0.3c0,0.3-1,0.7,0.1,1.2c-0.3-1.3,2.3-1.6,0.1-2.8c0-0.1-0.2-0.1,0-0.5
		c0.7,0.8,0.3,0.1,0.6-0.9c0-0.2,0.1,0.9,0.6,0c0.3,0.7,1-0.7,0-1.7c-0.2,0.1,0.1,0.2-0.1,1.1c0.8-0.6-7.4,3.5-2.6,2.9
		c-3.7,1.1-0.9-1.2,0.8-3.4l0.2,0.4c0-0.1,0.1,0.1,0.2-0.5c0,0.2,0.3,0.2-0.1,0.7c0.7-0.4,1.7-1,1.3-2.8l-0.2,0.7l-0.1-0.3l-0.3,0.2
		c0.1-1.2,0.4-1.1-0.7,0.1c0,0,0.4-0.5-0.3-1c-0.1,0,0.1,0.1-0.3,0.4c-0.6-1.7-4.4-1.6-9.4-6c-1.2,3.7,0.9,7.8-0.1,13.1
		c0.6-0.6,0.4-0.6,2,0.5c0.2,0.3-1.6-0.3-1.7,0.7c-0.2,0,0-0.3-0.4-0.7c-0.4,1.3-0.1,1.6,1.2,2.2c-0.1-0.2-0.4,0.4-1,0.5
		c-0.1-0.3,0.6,2.2-0.9,2.2c-0.3,0.3,0.6-1,0.3-2.4c-0.2,0.2-0.5,1.5-0.8,2.9c0.5,0.5,3.5,0.4,3.7,2.1c-0.6-0.8-1.4,0-2.7-0.8
		c0,0,0.1,0.1,0.2,0.5c-0.4,0.3-0.3-0.8-1.2-0.9c0.6,1.9-1.5,3.6-1.1,6.6C11.9,37,1.8,50,3.9,61.8l-0.2-0.1c0.2,1-0.4,1.4-1.1,3.1
		l0.6-1.1c0.4,3.9-6.2,2.1-1.6,13.4c-3,4.6,1.5,12,1.8,15.1c0.4,0.4-1.6,2.8,0.1,1.4c0,0.5,0.6,0.9,1.2,1.8C6.4,96.9,6,96.5,6.6,94
		c-0.1,0-0.1,0-0.2-0.2c1,0,1.4,0.1,2.3,1.5c-0.2-0.1,0-0.1-0.7-0.3h0.1c-2.1-0.1-0.7,3.4,0.4,5.7c-0.5,0.2-3.3-2.3-2-3
		c-0.1-0.2,0.2-0.6-0.4-0.9c-2.4,2.9-1.1,6.4,2.1,9.8c-5.1,3.9,3.2,11.2,2.8,15.5c4.6,3.8-5.7,6.4,6.6,9.9
		c6.4,5,15.2,11.2,15.3,20.5c-0.6-0.3-0.2-1.1-0.4,0.8c5.4,0.6,11.4,1.3,18.2,2c-4.5,0.7,22.1,19.3,39.7,19.6
		c7.3,2.5,13.1-6.5,22.7-0.1c1.7,4.4,7.1,7.3,10.3,12c1.1,2.2,0,8.8,7.4,12.4c2.9,0.7,2.9,4.5,7.2,0.6c-0.3-0.8,0.8-2,1.2-3.5
		l0.2,0.1c1.6-3.1,5.9-1.2,9.6-0.8C149.5,195.6,149.6,196.2,150.2,196z"/>
	<path class="st0" d="M367.9,70.4c-0.4,0.1-0.4,0-1.2-0.1c-0.2-1-0.3,1.1-1.2,1.1C365.1,72,367.7,71.3,367.9,70.4z"/>
	<path class="st0" d="M370.8,70.8c-1.8-0.2-0.3,1.1,0.7-0.2c-0.3-0.5-1.3-1-0.5-0.3C371,70.4,371.2,70.6,370.8,70.8z"/>
	<polygon class="st0" points="345.8,81.1 345.7,80.9 345.7,80.8 345.7,80.8 345.6,80.8 345.5,81.2 345.4,81.5 345.3,82 345.4,82.1 
		345.5,82 345.6,81.8 345.7,81.7 345.7,81.6 345.7,81.4 345.8,81.2 	"/>
	<polygon class="st0" points="344,84.4 344.3,84.3 344.6,84.1 344.7,83.9 344.9,83.6 345.2,83.2 345.3,83 344.9,82.6 344.3,83 	"/>
	<path class="st0" d="M355.3,78.1l0.2,0.2c-0.1,0,0.1,0.2-0.5,0.3c-0.7-0.8,0.1-1.6,1.4-3.1c-1.8,2.1-6.1,3.1-7.9,4.3
		c0-0.4-1-0.3-0.9,0.7c-0.5-0.8-0.4,1.1-1,0.4c-3.5,3.9,2.3,0.2-0.2,2.3c1.3-0.5,3.3-1.6,4.8-2.7c2.2-0.5,5.5-3.3-0.1,1.1
		c1.9-1.1,12.1-7.6,5.1-4.9C355.8,77,355.9,77.5,355.3,78.1z"/>
	<path class="st0" d="M28.8,2.1c0,0,0.1,0.2,0.4,0.6c-0.2,0,0,0.2-0.3,0.7C28.3,3.5,27.9,0.6,28.8,2.1z"/>
	<path class="st0" d="M29.5,3.9c0-0.4-0.6-0.6,0.3-1.2C29.6,3,30.4,4,29.5,3.9z"/>
	<path class="st0" d="M30.4,2.2C30.1,2.3,30.5,2,30,1.5c0,0.1-0.1,0,0,0.8c-0.3,0.2,0-0.5-0.7-0.2c-0.1-0.3,0.3-0.4,0.7-0.9
		C30.1,1.2,31.4,1.7,30.4,2.2z"/>
	<path class="st0" d="M29.9,6.1C30,6,29.7,6.4,30.4,6.5c-0.9,1.8,3.3,4.8-0.4-0.7c-0.1-0.2,0.3,0.2,0.5-0.4c0.2,0.1,0.2,0.1,0.9,0.1
		C31.6,5.4,31,5,31.1,4.6C31,4.4,29.4,4.7,29.9,6.1z"/>
</g>
<g id="constellation">
	<g>
		<polyline class="st1" points="366.4,42.9 360.4,44.8 354.4,46.6 348.4,48.4 		"/>
		<polyline class="st1" points="348.4,48.4 348.3,54.3 348.1,60.2 347.9,66.1 		"/>
		<line class="st1" x1="306.7" y1="121.6" x2="310.1" y2="120.6"/>
		<line class="st1" x1="344" y1="47.3" x2="348.4" y2="48.4"/>
		<polyline class="st1" points="219.4,41.2 224.7,42 229.9,42.7 235.2,43.4 240.5,44.1 245.8,44.8 251.1,45.3 256.4,45.9 
			261.7,46.4 267.1,46.9 272.4,47.3 277.8,47.6 283.2,48 288.6,48.3 294,48.5 299.4,48.7 304.8,48.8 310.2,48.9 315.7,49 321.1,49 
			326.6,49 332,48.9 337.5,48.8 343,48.6 348.4,48.4 		"/>
		<polyline class="st1" points="351.8,63.1 350.1,55.8 348.4,48.4 		"/>
		<polyline class="st1" points="326.9,90 329.4,85.4 331.9,80.8 334.4,76.1 336.9,71.5 339.2,66.9 341.6,62.3 343.9,57.7 346.2,53 
			348.4,48.4 		"/>
		<polyline class="st1" points="302.8,212.8 304.7,207.7 306.5,202.6 308.4,197.5 310.2,192.4 312,187.3 313.7,182.2 315.4,177.1 
			317.1,172 318.8,166.8 320.4,161.7 322,156.5 323.6,151.4 325.1,146.2 326.6,141.1 328.1,135.9 329.5,130.8 330.9,125.6 
			332.3,120.4 333.6,115.3 335,110.1 336.2,104.9 337.5,99.8 338.7,94.6 339.9,89.5 341.1,84.3 342.2,79.2 343.3,74 344.4,68.9 
			345.5,63.8 346.5,58.6 347.5,53.5 348.4,48.4 		"/>
		<polyline class="st1" points="26.2,15.4 31.5,16.9 36.7,18.3 41.9,19.8 47.2,21.1 52.4,22.5 57.7,23.8 63,25 68.3,26.2 73.6,27.4 
			78.9,28.5 84.3,29.5 89.6,30.5 94.9,31.5 100.3,32.4 105.7,33.3 111,34.1 116.4,34.9 121.8,35.7 127.2,36.4 132.6,37 138,37.6 
			143.4,38.2 148.8,38.7 154.2,39.2 159.6,39.6 165.1,40 170.5,40.3 175.9,40.6 181.4,40.8 186.8,41 192.2,41.1 197.7,41.2 
			203.1,41.3 208.6,41.3 214,41.2 219.4,41.2 		"/>
		<polyline class="st2" points="347.9,66.1 342.8,67.5 337.7,68.9 332.6,70.2 327.5,71.5 322.4,72.7 317.3,73.9 312.1,75.1 
			307,76.2 301.8,77.3 296.7,78.4 291.5,79.4 286.3,80.3 281.1,81.3 275.9,82.1 270.7,83 265.5,83.8 260.2,84.6 255,85.3 249.7,86 
			244.5,86.6 239.2,87.2 233.9,87.8 228.7,88.3 223.4,88.8 218.1,89.2 212.8,89.6 207.5,90 202.2,90.3 196.9,90.6 191.6,90.8 
			186.2,91 180.9,91.2 175.6,91.3 170.3,91.4 164.9,91.4 159.6,91.4 154.3,91.3 148.9,91.3 143.6,91.1 138.3,90.9 132.9,90.7 
			127.6,90.5 122.2,90.2 116.9,89.8 111.6,89.5 106.2,89 100.9,88.6 95.6,88.1 90.2,87.5 84.9,86.9 		"/>
		<line class="st1" x1="310.1" y1="120.6" x2="306.7" y2="121.6"/>
		<polyline class="st1" points="20.2,33.2 24,36.7 27.8,40.2 31.6,43.7 35.5,47.2 39.4,50.6 43.3,54 47.3,57.4 51.3,60.8 55.4,64.2 
			59.5,67.5 63.6,70.8 67.8,74.1 72,77.3 76.3,80.5 80.6,83.8 84.9,86.9 		"/>
		<polyline class="st2" points="84.9,86.9 90.2,87.5 95.6,88.1 100.9,88.6 106.2,89 111.6,89.5 116.9,89.8 122.2,90.2 127.6,90.5 
			132.9,90.7 138.3,90.9 143.6,91.1 148.9,91.3 154.3,91.3 159.6,91.4 164.9,91.4 170.3,91.4 175.6,91.3 180.9,91.2 186.2,91 
			191.6,90.8 196.9,90.6 202.2,90.3 207.5,90 212.8,89.6 218.1,89.2 223.4,88.8 228.7,88.3 233.9,87.8 239.2,87.2 244.5,86.6 
			249.7,86 255,85.3 260.2,84.6 265.5,83.8 270.7,83 275.9,82.1 281.1,81.3 286.3,80.3 291.5,79.4 296.7,78.4 301.8,77.3 307,76.2 
			312.1,75.1 317.3,73.9 322.4,72.7 327.5,71.5 332.6,70.2 337.7,68.9 342.8,67.5 347.9,66.1 		"/>
		<polyline class="st1" points="84.9,86.9 80.6,83.8 76.3,80.5 72,77.3 67.8,74.1 63.6,70.8 59.5,67.5 55.4,64.2 51.3,60.8 
			47.3,57.4 43.3,54 39.4,50.6 35.5,47.2 31.6,43.7 27.8,40.2 24,36.7 20.2,33.2 		"/>
		<polyline class="st1" points="16.2,130.1 21,127.4 25.8,124.7 30.6,122 35.3,119.2 40,116.4 44.6,113.6 49.2,110.7 53.8,107.8 
			58.4,104.9 62.9,102 67.4,99 71.8,96 76.2,93 80.6,90 84.9,86.9 		"/>
		<line class="st1" x1="352.4" y1="66.3" x2="347.9" y2="66.1"/>
	</g>
	<ellipse class="st3" cx="85.3" cy="87.1" rx="3.6" ry="3.6"/>
	<ellipse class="st3" cx="219.1" cy="41.2" rx="3.6" ry="3.6"/>
	<ellipse class="st3" cx="305" cy="120.7" rx="3.6" ry="3.6"/>
	<ellipse class="st3" cx="311.7" cy="120.7" rx="3.6" ry="3.6"/>
	<ellipse class="st3" cx="302.6" cy="212.8" rx="3.6" ry="3.6"/>
	<ellipse class="st3" cx="327" cy="90.1" rx="3.6" ry="3.6"/>
	<ellipse class="st3" cx="347.9" cy="66.1" rx="3.6" ry="3.6"/>
	<ellipse class="st3" cx="352" cy="66.7" rx="3.6" ry="3.6"/>
	<ellipse class="st3" cx="352" cy="63.7" rx="3.6" ry="3.6"/>
	<ellipse class="st3" cx="343.1" cy="46.9" rx="3.6" ry="3.6"/>
	<ellipse class="st3" cx="348.2" cy="48.6" rx="3.6" ry="3.6"/>
	<ellipse class="st3" cx="366.7" cy="42.7" rx="3.6" ry="3.6"/>
	<ellipse class="st3" cx="19" cy="33" rx="3.6" ry="3.6"/>
	<ellipse class="st3" cx="26.3" cy="15.1" rx="3.6" ry="3.6"/>
	<ellipse class="st3" cx="16.5" cy="129.6" rx="3.6" ry="3.6"/>
</g>
</svg>
