<?xml version="1.0" encoding="utf-8"?>
<!-- Generator: Adobe Illustrator 23.1.1, SVG Export Plug-In . SVG Version: 6.00 Build 0)  -->
<svg version="1.1" id="Layer_1" xmlns="http://www.w3.org/2000/svg" xmlns:xlink="http://www.w3.org/1999/xlink" x="0px" y="0px"
	 viewBox="0 0 382.3 232.9" style="enable-background:new 0 0 382.3 232.9;" xml:space="preserve">
<style type="text/css">
	.st0{fill:#707589;}
	
		.st1{clip-path:url(#SVGID_2_);fill:none;stroke:#FFFFFF;stroke-width:1.07;stroke-linejoin:round;stroke-miterlimit:10;enable-background:new    ;}
	
		.st2{clip-path:url(#SVGID_4_);fill:none;stroke:#FFFFFF;stroke-width:1.07;stroke-linejoin:round;stroke-miterlimit:10;enable-background:new    ;}
	
		.st3{clip-path:url(#SVGID_6_);fill:none;stroke:#FFFFFF;stroke-width:1.07;stroke-linejoin:round;stroke-miterlimit:10;enable-background:new    ;}
	
		.st4{clip-path:url(#SVGID_8_);fill:none;stroke:#FFFFFF;stroke-width:1.07;stroke-linejoin:round;stroke-miterlimit:10;enable-background:new    ;}
	
		.st5{clip-path:url(#SVGID_10_);fill:none;stroke:#FFFFFF;stroke-width:1.07;stroke-linejoin:round;stroke-miterlimit:10;enable-background:new    ;}
	
		.st6{clip-path:url(#SVGID_12_);fill:none;stroke:#FFFFFF;stroke-width:1.07;stroke-linejoin:round;stroke-miterlimit:10;enable-background:new    ;}
	.st7{clip-path:url(#SVGID_14_);fill:none;stroke:#FFFFFF;stroke-width:1.07;stroke-linejoin:round;stroke-miterlimit:10;}
	
		.st8{clip-path:url(#SVGID_16_);fill:none;stroke:#FFFFFF;stroke-width:1.07;stroke-linejoin:round;stroke-miterlimit:10;enable-background:new    ;}
	
		.st9{clip-path:url(#SVGID_18_);fill:none;stroke:#FFFFFF;stroke-width:1.07;stroke-linejoin:round;stroke-miterlimit:10;enable-background:new    ;}
	
		.st10{clip-path:url(#SVGID_20_);fill:none;stroke:#FFFFFF;stroke-width:1.07;stroke-linejoin:round;stroke-miterlimit:10;enable-background:new    ;}
	
		.st11{clip-path:url(#SVGID_22_);fill:none;stroke:#FFFFFF;stroke-width:1.07;stroke-linejoin:round;stroke-miterlimit:10;enable-background:new    ;}
	
		.st12{clip-path:url(#SVGID_24_);fill:none;stroke:#FFFFFF;stroke-width:1.07;stroke-linejoin:round;stroke-miterlimit:10;enable-background:new    ;}
	
		.st13{clip-path:url(#SVGID_26_);fill:none;stroke:#FFFFFF;stroke-width:1.07;stroke-linejoin:round;stroke-miterlimit:10;enable-background:new    ;}
	.st14{clip-path:url(#SVGID_28_);fill:none;stroke:#FFFFFF;stroke-width:1.07;stroke-linejoin:round;stroke-miterlimit:10;}
	
		.st15{clip-path:url(#SVGID_30_);fill:none;stroke:#FFFFFF;stroke-width:1.07;stroke-linejoin:round;stroke-miterlimit:10;enable-background:new    ;}
	.st16{fill:#FFFFFF;}
</style>
<g id="map">
	<path class="st0" d="M40.4,211.4c0.8,1.4,0.6,2.2-1.1,2.8c-1.1,0.4-2.1,1.3-3.1,1.9c-0.6,0.4-1.3,0.6-2.1,1c0.3-2.7,0-5.2,2.5-6.8
		c-1.6,0.1-2.3,0.8-3.3,2.7c-0.7,1.3-1.7,2.5-2.6,4c0.2,0.2,0.7,0.5,1.4,1.1c-4.2,4.5-8.7,8.4-14.2,11.4c-0.6-0.7-1.5-0.5-2.8,0.2
		c-1.5,0.9-3.5,1.2-5.2,1.7c-0.1-0.3-0.3-0.5-0.4-0.8c0.8-0.5,1.7-0.9,2.5-1.4c0.8-0.4,1.7-0.8,2.6-1.2c0.6-0.3,1-1,1.6-1
		c2.9-0.3,4.8-2.2,6.6-4.1c1-1.1,1.4-2.6,2.4-4.5c-1.5,0.2-2.3,0.3-3.5,0.4c-1.2-1.4-1.3-2-4.6-0.6c0-1.6,0-3.1,0-4.7
		c-3.4,0.6-4.2-0.2-4.6-3.6c-0.2-1.4-1.5-2.7-0.2-4.3c0.8-0.9,1.3-2.1,2.2-2.8c0.5-0.4,1.6-0.3,2.4-0.1c1.1-0.5,2.6-0.7,3.2-1.5
		c0.6-0.7,0.2-2.2,0.3-3.1c-1.6,0-3.4,0-5.2,0c-1.4,0-2.3-0.6-2.5-2.2c-0.1-0.9-0.8-1.7-1.4-2.8c1.9-0.7,3.8-1.5,6-2.4
		c0.2,2.3,1.3,2.8,3.3,2.1c-1.6-2.3-3.2-4.5-4.6-6.7c-0.3-0.5-0.7-1.3-0.5-1.7c0.3-0.5,1.1-0.8,1.7-1.1c0.7-0.3,1.9-0.3,2.1-0.7
		c0.9-2.2,2.6-3.2,4.5-4.1c1.3-0.6,2.7-1.1,4.6-1.8c1.3,0.6,3,1.9,4.9,2.3c2.8,0.6,5.8,0.9,8.7,0.7c2.2-0.1,4,0.5,4.5,2.8
		c1.9,9.4,3.8,18.8,5.7,28.5c0.9-0.2,1.8-0.5,2.4-0.6c1.5,1.2,2.9,2.3,4.3,3.3c0.9-1.1,1.7-2.9,2.5-2.9c1.1,0,2.2,1.3,3.2,2.1
		c1.1,0.8,2.2,1.6,3.1,2.6c1.6,1.7,3.2,3.3,5.8,3.6c1.6,0.2,2.2,2.7,1.3,4.8c-0.8,0.2-2.5-2-2.6,0.8c0,0-1.8,0.4-2.3,0
		c-1.4-1.3-2.5-2.8-3.8-4.4c-0.2,0.6-0.3,0.9-0.4,1.5c-1.2-1.3-2.1-2.6-3.3-3.5c-2.1-1.6-4.3-3.1-6.5-4.5c-2.5-1.5-5.3-1.4-8.2-1.2
		c-1.5,0.1-3.1-1-4.7-1.6c-0.7-0.2-1.5-0.3-2.3-0.5C40.5,211,40.4,211.2,40.4,211.4z"/>
	<path class="st0" d="M33.1,219.2c0.2,0.2,0.5,0.3,0.6,0.5c0.7,1.4-1.4,5-2.9,5.1c-0.4,0-1.1-0.4-1.3-0.8c-0.2-0.4-0.2-1.2,0-1.6
		c0.9-1,2-1.9,3-2.8C32.6,219.4,32.8,219.4,33.1,219.2z"/>
	<path class="st0" d="M9,200.8c-1.9,0.6-4.2-0.7-4.9-2.8C6,199,7.3,199.7,9,200.8z"/>
	<path class="st0" d="M8.6,211c0.9,0.2,1.8,0.3,2.7,0.5c-0.1,0.4-0.2,0.9-0.4,1.3c-0.8-0.2-1.7-0.5-2.5-0.7
		C8.5,211.8,8.5,211.4,8.6,211z"/>
	<path class="st0" d="M117.2,232.2c-1-0.2-2.3-0.7-1.7-2.9c0.1-0.5-0.1-1.1-0.4-1.6c-0.7-1.5-1.3-2.8,0.2-4.3c0.6-0.6,0.3-2,0.5-3.2
		c3.9,1.1,7.2,2.9,9.1,7.2C122.8,228.8,120.3,230.3,117.2,232.2z"/>
	<path class="st0" d="M111.6,217.5c-0.2-0.2-0.6-0.4-0.9-0.7c-0.5-0.5-1-1.1-1.5-1.7c-0.2-0.3-0.3-0.8-0.4-1.2
		c0.4-0.1,0.9-0.3,1.3-0.2c1.1,0.2,2.2,0.5,3.2,0.9c0.5,0.2,0.8,0.9,1.2,1.3c-0.5,0.4-1,0.8-1.5,1.1
		C112.7,217.2,112.2,217.3,111.6,217.5z"/>
	<path class="st0" d="M86.7,203.6c-1,0.7-1.7,1.6-2.3,1.5c-0.8-0.1-1.6-0.9-2.4-1.5c1-0.6,1.9-1.3,3-1.7
		C85.2,201.9,85.9,202.8,86.7,203.6z"/>
	<path class="st0" d="M98.1,206.8c0.1,1.3,0.4,2.3,0.2,3.2c0,0.3-1.3,0.8-1.5,0.6c-0.7-0.6-1.3-1.4-2-2.3
		C96,207.8,96.8,207.5,98.1,206.8z"/>
	<path class="st0" d="M150.4,196.8c0.5-0.4-0.2,1.2,0.8,0.9c-0.1,0.1-0.1,1.4,0.3,0.3c1,1.9,3.9,3.5,5,7c0.2,5.5,7.8,9.6,7.7,14.8
		c1.6,6,6,11.9,13.8,11.8c1,0.1,1.7,1.3,3.6,1.2h-0.1c1,0.7,2.2-1.9,1.6-0.6c-0.2-0.1-0.1-0.4-0.6,0.1c-0.4-2.4-2.6-5.3-1.8-11.4
		c-1.2,1.3-3.9-4-0.9-0.5l-0.1-0.3c0.6-0.2,1.7-1.3,0.5,0.2c0.9,0.7,2-1.9,2.2-3.5c-0.8,0.9-0.5-0.2-0.9-1.3
		c-0.1,0.1-0.7,0.4-1.2-0.4c1.1-0.6,5.2,2.4,2.5-1.8c0.1,0.1,1-0.4,0.4-0.8c1.3,1.1,2.8-2.3,2.2,0.4c1.7,0,0.3-3,1.2-2.3
		c-2.2-1.1,5.6,1,1.7-0.8c0.1-0.2-0.2-0.1,0.6-0.5c-0.4-0.8-1.2,0.2-1.2-1.6c0.1,0.3,0.6-0.5,0.7,0.5l0.3-0.1c0-0.2,0.2,1.3,0.5,0.2
		c-0.1-0.1,0.4,0.4-0.2,0.7c0.3,0.2-0.1,0.1,0.8-0.3c0.3,0.2-0.8-0.7-0.1-1c-0.1,0.3,0.6,1.6,1,0c0,0.1,0,0,0.1,0.4
		c0.1,0,0.1-0.1,0.5-0.6c0,0.2,0-0.1-0.2,1.1c-0.1-0.1,1.1,0.2-0.1,0.2c3.5-0.5,5.2-2.3-1,1.8c1.3-0.8,6.7-2.8,9.8-6.1
		c-2-0.5,3,0,1.3-5.9l-0.1,0.1c5.8-1.4-0.9,0.8,3.9,1.7c-5.2,3.1,3.3-1.8,7.6-2.2c2.3-1.5,11.2,4.6,11.4,0.5
		c1.5-5.5,7.3,7.2,12.5,3.8c-0.3-3.2,4.5,5.4,4.1-2.6c1.5-0.2,1.3,2,3,1.4c2.4,1.7,3.7,4,4.8,1.2c0.6-1.1-4.3-0.9-4.6-3.9
		c1.5-1.2,3.2-2.2,3.2-4.4c0.4-1.8-7.2,4-4.2,0.6c0-0.3,0.7-1.8-0.2-0.7c-0.1-0.1-0.1,0-0.1-0.4c-1.7,2.6-10.1-0.2-2.5-1.4
		c1.3,0.7,3.9,2.4,5.6-0.1c2.5-2.4,10.1,2.1,10.2-4.9c2.9,2.8-1.7,7.8,4.5,3.4c-1.3,1.5,3-0.2,1.9-2c0.9,1,3.6-0.3,0.3,1.9
		c1.6-1.1,12.6-2.1,5.2-1c0.6-0.2,7,2.9,5.9,1.1c-1,0.7-0.8-1,0.8-0.1c-0.1,0.2,0.1,0.2-0.3,0.6c-0.7,0.8,2-0.4,3.4,4.1
		c-0.5,0.2-0.5,0-0.6-1.6c-1.5,2.9,2.7,1.3,4.2,0.5c-1.3,1,5.7-2.1,3.4-2c0.3-0.3,0.5-0.6,1.1-1.3c1-2,14.2,7.9,14.5,11.3
		c0.3,2-2.4,8.9,1.1,8.6c-2.3-5.7,1.2,0,1.1-1.6c2.5-1.4-2.2,4.3-0.4,4.4c1.1,1,1.7,5.3,4.3,5.1c-1.7-1.6,1.1-1.7,0.4-1.1
		c0.6,3.1,0.8,3.1,4.6,8.7c0.1-1.1,11.2,7.4,4.9,5c0.1,2.9,4.5-0.1,6.2-0.1c0.8-1.7,0.2-3.9,1.5-6c1.6-11.8-13-29.4-17.3-42.2
		c0.1,0.4,1.2-6,0.3-3c-1.6-1.9,1,0.1-0.2-2.7c0.8,0,0.6-0.9,1.4-0.9c0.8-0.9-1.4-1.7,0.5-1.6c0.3-0.6,0.1-1-0.5-1.5
		c1.4-1.9,3.9-3.7,2-6.9c2.2,2.1,1.6,0.4,2.8-0.9v0.1c0.3-0.4,1.8,0.2,1.6-1.2c-0.4,0.7,7.6-5,6.2-8.1c0.8,2.2,1.1-4.1,4.9-5.3
		c0.8-1.4,4.2,0.4,3.9-2.7c0.3,3.3,3.1-8.4,3.7-5.8c-1,1.4,2.4,0.2,1.1-1.4c0.2,1.1,3.4,0,3-0.4c0.2-0.5,0.3-0.5,1,0.1
		c0.2-0.3,0.8-0.1,2-2c0.3-0.2-1.5-1.5-1.4-0.5c-1.5-0.4,0.6,0.9-1.2,0.4c0.1,0,0.6,0.6,0,0.5c-0.4-1.2-0.2,1.4-3.4-1.1
		c-0.4-2.1,3.3,3.7,3.6-2.1c1.7-0.4-1.4-1-2.1-0.8c-3.5-1.9,1.2,0.5,1.4-1.3c-1.2-0.4,0.2-0.6,1-0.8c-1.4,1.9,0.2,0.9,1.6,1.6
		c1.3-0.3,1.7-0.8,2.5-2.9c1.1,1.1,0.5-0.8,1-1c-0.5-0.7,0.2-1.5-1.5-2.2c0.2,0.2-0.4,0.1-0.1,0.6c-1.5-0.6,0.6,3.6-1.6,2.2
		c0.9,0.3,0.6-1.5,0.2-2.3c-0.8-1.9-5.3,4.7-5.6-2.7c0.5-0.1,1.2,4.9,2.4,2c1.1-0.3,0.6-1.4,2-0.7c0.8-0.6,0.8-0.5-0.4-1.4
		c0.8-0.4,2.4,1.6,1.4-0.4c0.7-0.1,0.6,1.1,1.6,1.6c0.1-1.2-4.5-5.1-1.7-3.5c0.1,0-1-2.6,0.2-0.6c-1.2-0.6,6.4,10.3,2.7,4.5
		c-1.9-1.4-2.8-10.6-7.4-6.5c-0.1-1.9-5.1-2.1-3.5-3.4c1.3,0.5,2.7,2.5,4.6,1.9c0-0.1,0.2-1-0.5-0.6v-0.1l0,0
		c0.6-0.7-4.2-1.5-3.8-3.2c3.1,3.7,1.9-0.2,3.9,1.1c-0.2-2.6-2.1-1.1-5.9-5.5c3.9,4.3,8.3,1.8,1.9-1.1c-1.1-0.2-2.6-0.3-3.4-2
		c-0.5-1.5,1.4,0.9,4.5,1.4c2.4,1,0.4-0.9-1.9-2.8c4.3,2,0.3,0.8,0.3-4.8c1,0,0.3-1.1-1.2-2.2c1.3-0.1,0.9,0.1,1.8-0.9
		c-0.6-1,0.9,0,0.8-1c1.2-0.1-0.3-1.5,1.4-1.9c0.1,0-0.1,0.4,0,1c0.6-1.2,1.2,0.6-0.9,1.6c-0.7,2.4,1.7,2.8-0.2,5.5
		c0.7-0.5,0.8,0.7,1.6-0.3c0.9,2.6-0.5-0.1-0.7,1.9c2-0.5-2.4,0.4,2,2.5c0-2.3,0.4,1.1,0.9-1.1c0.5,0.4,0.4,3.9,1.8,3.2
		c1.3-0.9-0.3,1.8-0.4,3.2c-0.7,0.6-0.5,7.8,0.8,2.1c0.5-6.2,5.4-5.7,2-11.9c0,0,1.3-0.2,0.3-0.6c0,0,0.3,0,0.2-0.4
		c2.9,1.9-6.4-5.9-4.5-8.3c-0.2,4.1,5.8,2.2,5.5,5.9c1.7-3.5,3.9-6.4,3.7-11.1c0.3,0.2,0.2,0.9,0.5,2.3c-0.1-1.2,0.6-4.4-0.8-6.3
		c0,0.2-0.1,0.1,0.1,0.6c-0.3-0.2-1.2,0.2-2-0.3c1.7-0.6,0.4-2.4,1.7-4.2l0.3,0.8c-0.1-0.1-0.1,0-0.2-0.3l0.7,0.2
		c-0.5-0.7,0.7-0.8,0.6-2.1c1.3,0.3,4-3.6,4.8-3.1c0.8-0.7,3.2-0.2,3.4-1.5c1.1,0.6,1.3-0.3,3.4-0.9V75c0.5-0.3,1.1-0.4,2.2-1.6
		c0.1,1.1,0.6-4.7,0.9-0.6c0.7,1.2,0.6-1.5,1-0.3c0.1,0,0.3-0.4,0.6-0.9c-0.1,0.1,0.7,0.7,0.6,0c0.5,0.4,2-5.2,2.2-0.7
		c2.3-0.5,7.6-5,1.8-5c4.7,0.1-1.1,5.9-2.5,0.8c-0.4-0.7-1-1.5-2.5-2c0.4,1.4-1.9,0-0.9-0.6c2.7-5.6,0.4,1.2,0.2-6.7
		c1.7-0.6,0.8-7.3,3.3-7.7c1.1-1.4-0.2,2.5,2.1-1.6c1.5,1.1,0.1-0.9,2.2-1.2c0,3.5,1.6-9.1,1.8-4.4c0.2,0.2,0.4-0.9,0.8,0.1
		c0.1,0.1-1-0.3-0.5,0.4c-0.9,0.1,0.9,0.6,1.1,0.4c0.6,0.2,0.8-0.1,0.1-1.1c0.3-0.2,0.5-0.3,0.6-1.1c0.1,0.5,0.9,1.1,0.9-0.4
		c0.6,0.4,1.2-0.8,1.9,1.1c0.2-0.3,0.3-0.6,0.2-1.5c0.4,0.8,0.9,0.3,0.7-0.9c0.4-0.2,2,0.7,1.6-1.1c0,0.1,0.1-0.1,0.5,0.1
		c-0.1,0.2,0.3-1.1,0.3-0.1c0.5,0.3,0-2,0.8-0.6c0.6,0,1.2-1,1.4-2.2c-2.5,0.6,0.8-2-2.5-2.7c-1.6,2-0.7-3.1-3.9-3.4
		c-3.1-1.4-0.4-11.3-6.8-13.4c-7.4,6.9-5.7-9-9.7,11c-1.6,5.3,0.7,10.1-6,12.4c1.4,7.6-25.8-0.9-28,17.4l-0.3,0.4
		c0,2,2.2,3.1-3.8,7.4c-0.2-0.2-2.8-0.4-3.7,0.9c-1.3-1.2-12.4-1.1-9.1,4.1c2.6,0.7-1.8,5.3-6.5,8.6c-0.1,0,0.2-0.1,0.1-0.4
		c-9.3,5.6-9.7,10.4-22.5,7.6c0.2,0.3,3.9-12.9,4.9-8.8c1.3-3-0.8-21.7-8.4-8.3c-4.8-2.9,2.4-1.9,1.5-13.4
		c-10.4-8.8-11.3-6.4-14.9,3.9c-0.6-0.8,0.1-2.5,0.1-3.9c-2.7,2.7-5,6.6-5,11.9c-1.2,5.5,5.9,8.1,0.5,18.3c-9.6,12.6-11.8-17-5.8-28
		c1.1-0.5,0.6-4-0.3-0.9c-0.8-0.1-1.2,1.6-1.4,3.1c-1.4-1.2-1.8,1.7-4,3.2c-1,1,6.7-16.2,6-11.1c5-4.8-0.8,2.8,3.9-1.1
		c1.6-4,10.3-2.2,15.6-3.2c-3.6-6.8-8.9-0.6-7.4-6.3c-6.6,0.4-12.9,7.3-17.7,1c-2.3-0.7-2.6-1.9-4.7,1c-0.3-0.4,0.3-1.2,0-2.2
		c1.2-0.5,1.5-3.2,4-3.9c-4-2.7-12,9.2-19.3,7.4c3.5-6.9-3.8,1.1-7.6-1c1.8-2.3,9.6-9.4,16.2-12c-7.8-1.2-14.2,0.2-20.2-3.2
		c1.3-3.4-7.7,1.5-12.4-3.3c-0.4-1.4,0.1-5.1-2.9-4.7C152.7,30.3,85.8,12.3,31.9,0v0.2c-1.2,0.3,0.9,2.1,0.7,2.5
		c0.2,0.3,0.2,2.5-1,2c0.2-1.1-1.4,0.4,0.1,0.3c1,1-0.2,2.9,1.2,3.9c-0.8,0.4-1.4,1.5-2.2,2.8c0.2,0.8-0.1,2.2-0.9,3.6
		c0,0-0.2-0.1-0.6-0.7c-0.1,0.2-1.5,2.5-2.2,0.8l-0.1,0.4c-0.1,0.1,0.2-0.2-0.4-0.3c-0.1,0.3,0,0.1-0.2,0.9
		c-0.5,0.2,0.4-0.8-0.6-0.6c0.1,0,0,0,0.6-0.5c-0.2-0.1-0.1-0.2-0.9,0.2c0,0-0.1-0.3,0.6-0.6l-0.6-0.2c0,0.2,0-0.5,0.5-0.3l-0.2,0.2
		c0.2,0.1,1.2-0.2,1.7-1.1c0.3,1.3-1.3,2.5,1.2,0.3c0,0.3-1,0.7,0.1,1.2c-0.3-1.3,2.3-1.6,0.1-2.8c0-0.1-0.2-0.1,0-0.5
		c0.7,0.8,0.3,0.1,0.6-0.9c0-0.2,0.1,0.9,0.6,0c0.3,0.7,1-0.7,0-1.7c-0.2,0.1,0.1,0.2-0.1,1.1c0.8-0.6-7.4,3.5-2.6,2.9
		c-3.7,1.1-0.9-1.2,0.8-3.4l0.2,0.4c0-0.1,0.1,0.1,0.2-0.5c0,0.2,0.3,0.2-0.1,0.7c0.7-0.4,1.7-1,1.3-2.8l0,0.7l-0.1-0.3l-0.3,0.2
		c0.1-1.2,0.4-1.1-0.7,0.1c0,0,0.4-0.5-0.3-1c-0.1,0,0.1,0.1-0.3,0.4c-0.6-1.7-4.4-1.6-9.4-6c-1.2,3.7,0.9,7.8-0.1,13.1
		c0.6-0.6,0.4-0.6,2,0.5c0.2,0.3-1.6-0.3-1.7,0.7c-0.2,0,0-0.3-0.4-0.7c-0.4,1.3-0.1,1.6,1.2,2.2c-0.1-0.2-0.4,0.4-1,0.5
		c-0.1-0.3,0.6,2.2-0.9,2.2c-0.3,0.3,0.6-1,0.3-2.4c-0.2,0.2-0.5,1.5-0.8,2.9c0.5,0.5,3.5,0.4,3.7,2.1c-0.6-0.8-1.4,0-2.7-0.8
		c0,0,0.1,0.1,0.2,0.5c-0.4,0.3-0.3-0.8-1.2-0.9c0.6,1.9-1.5,3.6-1.1,6.6C12.7,37,2.6,50,4.7,61.8l-0.2-0.1c0.2,1-0.4,1.4-1.1,3.1
		l-0.2-0.3c0.4,3.9-6.2,2.1-1.6,13.4c-3,4.6,1.5,12,1.8,15.1c0.4,0.4-1.6,2.8,0.1,1.4c0,0.5,0.6,0.9,1.2,1.8
		c1.7,1.5,1.3,1.1,1.9-1.4c-0.1,0-0.1,0-0.2-0.2c1,0,1.4,0.1,2.3,1.5C8.5,96,8.7,96,8,95.8h0.1c-2.1-0.1-0.7,3.4,0.4,5.7
		c-0.5,0.2-3.3-2.3-2-3c-0.1-0.2,0.2-0.6-0.4-0.9c-2.4,2.9-1.1,6.4,2.1,9.8c-5.1,3.9,3.2,11.2,2.8,15.5c4.6,3.8-5.7,6.4,6.6,9.9
		c6.4,5,15.2,11.2,15.3,20.5c-0.6-0.3-0.2-1.1-0.4,0.8c5.4,0.6,11.4,1.3,18.2,2c-4.5,0.7,22.1,19.3,39.7,19.6
		c7.3,2.5,13.1-6.5,22.7-0.1c1.7,4.4,7.1,7.3,10.3,12c1.1,2.2,0,8.8,7.4,12.4c2.9,0.7,2.9,4.5,7.2,0.6c-0.3-0.8,0.8-2,1.2-3.5
		l0.2,0.1c1.6-3.1,5.9-1.2,9.6-0.8C149.7,196.3,149.9,197,150.4,196.8z"/>
	<path class="st0" d="M368.1,71.2c-0.4,0.1-0.4,0-1.2-0.1c-0.2-1-0.3,1.1-1.2,1.1C365.3,72.8,367.9,72.1,368.1,71.2z"/>
	<path class="st0" d="M371,71.6c-1.8-0.2-0.3,1.1,0.7-0.2c-0.3-0.5-1.3-1-0.5-0.3C371.2,71.2,371.4,71.4,371,71.6z"/>
	<polygon class="st0" points="346,81.9 345.9,81.7 346,81.6 345.9,81.6 345.8,81.6 345.7,82 345.6,82.3 345.5,82.8 345.6,82.9 
		345.7,82.8 345.8,82.6 345.9,82.5 345.9,82.4 345.9,82.1 346,82 	"/>
	<polygon class="st0" points="344.2,85.2 344.5,85.1 344.8,84.9 344.9,84.6 345.1,84.4 345.4,84 345.5,83.8 345.1,83.4 344.5,83.8 	
		"/>
	<path class="st0" d="M355.5,78.9l0.2,0.2c-0.1,0,0.1,0.2-0.5,0.3c-0.7-0.8,0.1-1.6,1.4-3.1c-1.8,2.1-6.1,3.1-7.9,4.3
		c0-0.4-1-0.3-0.9,0.7c-0.5-0.8-0.4,1.1-1,0.4c-3.5,3.9,2.3,0.2-0.2,2.3c1.3-0.5,3.3-1.6,4.8-2.7c2.2-0.5,5.5-3.3-0.1,1.1
		c1.9-1.1,12.1-7.6,5.1-4.9C356,77.8,356.2,78.3,355.5,78.9z"/>
	<path class="st0" d="M29,2.9c0,0,0.1,0.2,0.4,0.6c-0.2,0,0,0.2-0.3,0.7C28.5,4.3,28.1,1.4,29,2.9z"/>
	<path class="st0" d="M29.8,4.7c0-0.4-0.6-0.6,0.3-1.2C29.8,3.8,30.7,4.8,29.8,4.7z"/>
	<path class="st0" d="M30.6,3c-0.3,0.1,0.1-0.2-0.4-0.7c0,0.1-0.1,0,0,0.8c-0.3,0.2,0-0.5-0.7-0.2c-0.1-0.3,0.3-0.4,0.7-0.9
		C30.3,2,31.6,2.5,30.6,3z"/>
	<path class="st0" d="M30.1,6.9c0.1-0.1-0.2,0.3,0.5,0.4c-0.9,1.8,3.3,4.8-0.4-0.7c-0.1-0.2,0.3,0.2,0.5-0.4
		c0.2,0.1,0.2,0.1,0.9,0.1c0.2-0.1-0.4-0.5-0.3-0.9C31.3,5.2,29.6,5.5,30.1,6.9z"/>
</g>
<g id="constellation">
	<g>
		<g>
			<defs>
				<polyline id="SVGID_1_" points="-73.7,-28.8 -73.7,252.7 475.7,252.7 475.7,-28.8 				"/>
			</defs>
			<clipPath id="SVGID_2_">
				<use xlink:href="#SVGID_1_"  style="overflow:visible;"/>
			</clipPath>
			<polyline class="st1" points="336.2,85.1 342.5,81.5 348.7,77.8 			"/>
		</g>
		<g>
			<defs>
				<polyline id="SVGID_3_" points="-73.7,-28.8 -73.7,252.7 475.7,252.7 475.7,-28.8 				"/>
			</defs>
			<clipPath id="SVGID_4_">
				<use xlink:href="#SVGID_3_"  style="overflow:visible;"/>
			</clipPath>
			<polyline class="st2" points="129.6,100.4 134.9,100.8 140.2,101.1 145.6,101.4 150.9,101.7 156.3,101.9 161.6,102.1 167,102.2 
				172.3,102.3 177.7,102.4 183,102.4 188.3,102.4 193.7,102.3 199,102.2 204.4,102 209.7,101.8 215,101.6 220.4,101.3 225.7,101 
				231,100.7 236.3,100.3 241.6,99.8 247,99.4 252.3,98.8 257.6,98.3 262.9,97.7 268.1,97.1 273.4,96.4 278.7,95.7 284,94.9 
				289.2,94.1 294.5,93.3 299.7,92.4 305,91.5 310.2,90.5 315.4,89.5 320.6,88.5 325.9,87.4 331,86.3 336.2,85.1 			"/>
		</g>
		<g>
			<defs>
				<polyline id="SVGID_5_" points="-73.7,-28.8 -73.7,252.7 475.7,252.7 475.7,-28.8 				"/>
			</defs>
			<clipPath id="SVGID_6_">
				<use xlink:href="#SVGID_5_"  style="overflow:visible;"/>
			</clipPath>
			<polyline class="st3" points="348.7,77.8 342.5,81.5 336.2,85.1 			"/>
		</g>
		<g>
			<defs>
				<polyline id="SVGID_7_" points="-73.7,-28.8 -73.7,252.7 475.7,252.7 475.7,-28.8 				"/>
			</defs>
			<clipPath id="SVGID_8_">
				<use xlink:href="#SVGID_7_"  style="overflow:visible;"/>
			</clipPath>
			<line class="st4" x1="308.4" y1="219.9" x2="302.3" y2="213.5"/>
		</g>
		<g>
			<defs>
				<polyline id="SVGID_9_" points="-73.7,-28.8 -73.7,252.7 475.7,252.7 475.7,-28.8 				"/>
			</defs>
			<clipPath id="SVGID_10_">
				<use xlink:href="#SVGID_9_"  style="overflow:visible;"/>
			</clipPath>
			<polyline class="st5" points="315.7,161.3 314.5,166.6 313.2,171.8 311.9,177.1 310.7,182.3 309.3,187.5 308,192.7 306.6,198 
				305.2,203.2 303.8,208.3 302.3,213.5 			"/>
		</g>
		<g>
			<defs>
				<polyline id="SVGID_11_" points="-73.7,-28.8 -73.7,252.7 475.7,252.7 475.7,-28.8 				"/>
			</defs>
			<clipPath id="SVGID_12_">
				<use xlink:href="#SVGID_11_"  style="overflow:visible;"/>
			</clipPath>
			<polyline class="st6" points="277,102.4 278.8,107.4 280.5,112.4 282.3,117.4 284,122.5 285.8,127.5 287.6,132.5 289.4,137.5 
				291.3,142.5 293.1,147.5 295,152.5 296.9,157.5 298.8,162.5 300.7,167.5 302.7,172.5 304.6,177.5 306.6,182.4 308.6,187.4 
				310.6,192.3 312.6,197.3 314.6,202.2 316.7,207.1 318.8,212 320.8,216.9 322.9,221.8 			"/>
		</g>
		<g>
			<defs>
				<polyline id="SVGID_13_" points="-73.7,-28.8 -73.7,252.7 475.7,252.7 475.7,-28.8 				"/>
			</defs>
			<clipPath id="SVGID_14_">
				<use xlink:href="#SVGID_13_"  style="overflow:visible;"/>
			</clipPath>
			<polyline class="st7" points="322.9,221.8 317.4,220.1 312,218.3 306.5,216.5 301.1,214.7 295.7,212.8 290.3,210.9 285,208.9 
				279.7,206.9 274.4,204.9 269.1,202.8 263.9,200.7 258.7,198.6 253.5,196.4 248.4,194.2 243.3,192 238.2,189.7 233.2,187.4 
				228.1,185.1 223.2,182.7 218.2,180.3 213.3,177.9 208.4,175.4 203.5,172.9 198.7,170.4 193.9,167.8 189.1,165.2 184.4,162.6 
				179.7,160 175,157.3 170.4,154.6 165.8,151.8 161.2,149.1 156.7,146.3 152.1,143.5 147.7,140.6 143.2,137.7 138.8,134.8 
				134.5,131.9 130.1,129 125.8,126 121.6,123 117.3,120 113.1,116.9 109,113.8 104.9,110.7 100.8,107.6 96.7,104.5 92.7,101.3 
				88.7,98.1 84.7,94.9 80.8,91.7 77,88.4 73.1,85.2 69.3,81.9 65.5,78.6 61.8,75.2 58.1,71.9 54.4,68.5 50.8,65.1 47.2,61.7 
				43.7,58.3 40.2,54.9 36.7,51.4 33.2,48 29.8,44.5 26.5,41 23.1,37.5 19.8,34 			"/>
		</g>
		<g>
			<defs>
				<polyline id="SVGID_15_" points="-73.7,-28.8 -73.7,252.7 475.7,252.7 475.7,-28.8 				"/>
			</defs>
			<clipPath id="SVGID_16_">
				<use xlink:href="#SVGID_15_"  style="overflow:visible;"/>
			</clipPath>
			<polyline class="st8" points="322.9,221.8 320.8,216.9 318.8,212 316.7,207.1 314.6,202.2 312.6,197.3 310.6,192.3 308.6,187.4 
				306.6,182.4 304.6,177.5 302.7,172.5 300.7,167.5 298.8,162.5 296.9,157.5 295,152.5 293.1,147.5 291.3,142.5 289.4,137.5 
				287.6,132.5 285.8,127.5 284,122.5 282.3,117.4 280.5,112.4 278.8,107.4 277,102.4 			"/>
		</g>
		<g>
			<defs>
				<polyline id="SVGID_17_" points="-73.7,-28.8 -73.7,252.7 475.7,252.7 475.7,-28.8 				"/>
			</defs>
			<clipPath id="SVGID_18_">
				<use xlink:href="#SVGID_17_"  style="overflow:visible;"/>
			</clipPath>
			<polyline class="st9" points="322.9,221.8 323.3,216.5 323.6,211.3 323.9,206 324.2,200.7 324.5,195.4 324.8,190.1 325.1,184.8 
				325.3,179.5 325.6,174.2 325.8,168.9 326,163.6 326.2,158.3 326.3,153 326.5,147.6 326.6,142.3 326.8,137 326.9,131.7 327,126.4 
				327.1,121.1 327.1,115.8 			"/>
		</g>
		<g>
			<defs>
				<polyline id="SVGID_19_" points="-73.7,-28.8 -73.7,252.7 475.7,252.7 475.7,-28.8 				"/>
			</defs>
			<clipPath id="SVGID_20_">
				<use xlink:href="#SVGID_19_"  style="overflow:visible;"/>
			</clipPath>
			<line class="st10" x1="302.3" y1="213.5" x2="308.4" y2="219.9"/>
		</g>
		<g>
			<defs>
				<polyline id="SVGID_21_" points="-73.7,-28.8 -73.7,252.7 475.7,252.7 475.7,-28.8 				"/>
			</defs>
			<clipPath id="SVGID_22_">
				<use xlink:href="#SVGID_21_"  style="overflow:visible;"/>
			</clipPath>
			<polyline class="st11" points="194.3,93 197.4,96.9 200.5,100.9 203.6,104.8 206.8,108.7 210.1,112.6 213.3,116.5 216.6,120.4 
				220,124.3 223.3,128.1 226.7,132 230.2,135.8 233.6,139.6 237.2,143.4 240.7,147.1 244.3,150.9 247.9,154.6 251.5,158.4 
				255.2,162.1 258.9,165.8 262.7,169.4 266.5,173.1 270.3,176.7 274.1,180.3 278,183.9 281.9,187.4 285.9,191 289.9,194.5 
				293.9,198 297.9,201.5 302,204.9 306.1,208.4 310.3,211.8 314.5,215.1 318.7,218.5 322.9,221.8 			"/>
		</g>
		<g>
			<defs>
				<polyline id="SVGID_23_" points="-73.7,-28.8 -73.7,252.7 475.7,252.7 475.7,-28.8 				"/>
			</defs>
			<clipPath id="SVGID_24_">
				<use xlink:href="#SVGID_23_"  style="overflow:visible;"/>
			</clipPath>
			<polyline class="st12" points="28.1,87.2 33.4,88.3 38.6,89.3 43.9,90.3 49.2,91.2 54.5,92.1 59.7,93 65,93.8 70.3,94.5 
				75.6,95.3 80.9,96 86.2,96.6 91.5,97.2 96.8,97.8 102.1,98.3 107.4,98.8 112.8,99.2 118.1,99.6 123.4,100 128.7,100.3 134,100.6 
				139.3,100.9 144.7,101.1 150,101.2 155.3,101.3 160.6,101.4 165.9,101.5 171.2,101.5 176.5,101.4 181.9,101.3 187.2,101.2 
				192.5,101.1 197.8,100.9 203.1,100.6 208.3,100.3 213.6,100 218.9,99.7 224.2,99.3 229.5,98.8 234.7,98.3 240,97.8 245.3,97.2 
				250.5,96.6 255.7,96 261,95.3 266.2,94.6 271.4,93.8 276.7,93.1 281.9,92.2 287.1,91.3 292.2,90.4 297.4,89.5 302.6,88.5 
				307.8,87.4 312.9,86.4 318,85.3 323.2,84.1 328.3,82.9 333.4,81.7 338.5,80.4 343.6,79.1 348.7,77.8 			"/>
		</g>
		<g>
			<defs>
				<polyline id="SVGID_25_" points="-73.7,-28.8 -73.7,252.7 475.7,252.7 475.7,-28.8 				"/>
			</defs>
			<clipPath id="SVGID_26_">
				<use xlink:href="#SVGID_25_"  style="overflow:visible;"/>
			</clipPath>
			<polyline class="st13" points="327.1,115.8 327.1,121.1 327,126.4 326.9,131.7 326.8,137 326.6,142.3 326.5,147.6 326.3,153 
				326.2,158.3 326,163.6 325.8,168.9 325.6,174.2 325.3,179.5 325.1,184.8 324.8,190.1 324.5,195.4 324.2,200.7 323.9,206 
				323.6,211.3 323.3,216.5 322.9,221.8 			"/>
		</g>
		<g>
			<defs>
				<polyline id="SVGID_27_" points="-73.7,-28.8 -73.7,252.7 475.7,252.7 475.7,-28.8 				"/>
			</defs>
			<clipPath id="SVGID_28_">
				<use xlink:href="#SVGID_27_"  style="overflow:visible;"/>
			</clipPath>
			<polyline class="st14" points="19.8,34 23.1,37.5 26.5,41 29.8,44.5 33.2,48 36.7,51.4 40.2,54.9 43.7,58.3 47.2,61.7 50.8,65.1 
				54.4,68.5 58.1,71.9 61.8,75.2 65.5,78.6 69.3,81.9 73.1,85.2 77,88.4 80.8,91.7 84.7,94.9 88.7,98.1 92.7,101.3 96.7,104.5 
				100.8,107.6 104.9,110.7 109,113.8 113.1,116.9 117.3,120 121.6,123 125.8,126 130.1,129 134.5,131.9 138.8,134.8 143.2,137.7 
				147.7,140.6 152.1,143.5 156.7,146.3 161.2,149.1 165.8,151.8 170.4,154.6 175,157.3 179.7,160 184.4,162.6 189.1,165.2 
				193.9,167.8 198.7,170.4 203.5,172.9 208.4,175.4 213.3,177.9 218.2,180.3 223.2,182.7 228.1,185.1 233.2,187.4 238.2,189.7 
				243.3,192 248.4,194.2 253.5,196.4 258.7,198.6 263.9,200.7 269.1,202.8 274.4,204.9 279.7,206.9 285,208.9 290.3,210.9 
				295.7,212.8 301.1,214.7 306.5,216.5 312,218.3 317.4,220.1 322.9,221.8 			"/>
		</g>
		<g>
			<defs>
				<polyline id="SVGID_29_" points="-73.7,-28.8 -73.7,252.7 475.7,252.7 475.7,-28.8 				"/>
			</defs>
			<clipPath id="SVGID_30_">
				<use xlink:href="#SVGID_29_"  style="overflow:visible;"/>
			</clipPath>
			<polyline class="st15" points="5.6,92.1 9.6,95 13.7,97.9 17.7,100.8 21.8,103.6 25.9,106.4 30.1,109.2 34.3,111.9 38.5,114.7 
				42.7,117.4 46.9,120 51.2,122.7 55.5,125.3 59.9,127.9 64.3,130.5 68.7,133.1 73.1,135.6 77.5,138.1 82,140.6 86.5,143 91,145.4 
				95.6,147.8 100.2,150.2 104.8,152.5 109.4,154.8 114.1,157.1 118.8,159.4 123.5,161.6 128.2,163.8 133,165.9 137.8,168.1 
				142.6,170.1 147.4,172.2 152.3,174.3 157.2,176.3 162.1,178.2 167,180.2 172,182.1 177,184 182,185.8 187,187.6 192.1,189.4 
				197.1,191.2 202.2,192.9 207.3,194.6 212.5,196.2 217.6,197.8 222.8,199.4 228,201 233.2,202.5 238.5,204 243.8,205.4 249,206.8 
				254.3,208.2 259.7,209.5 265,210.8 270.4,212.1 275.8,213.3 281.2,214.5 286.6,215.7 292,216.8 297.5,217.8 302.9,218.9 
				308.4,219.9 			"/>
		</g>
	</g>
	<ellipse class="st16" cx="195.2" cy="93.1" rx="3.6" ry="3.6"/>
	<ellipse class="st16" cx="129.8" cy="100.2" rx="3.6" ry="3.6"/>
	<ellipse class="st16" cx="27.8" cy="87.1" rx="3.6" ry="3.6"/>
	<ellipse class="st16" cx="19.9" cy="34.2" rx="3.6" ry="3.6"/>
	<ellipse class="st16" cx="6" cy="93.1" rx="3.6" ry="3.6"/>
	<ellipse class="st16" cx="276.2" cy="118.8" rx="3.6" ry="3.6"/>
	<ellipse class="st16" cx="327" cy="116.4" rx="3.6" ry="3.6"/>
	<ellipse class="st16" cx="348.1" cy="78.3" rx="3.6" ry="3.6"/>
	<ellipse class="st16" cx="336.1" cy="85.2" rx="3.6" ry="3.6"/>
	<ellipse class="st16" cx="315.1" cy="162.8" rx="3.6" ry="3.6"/>
	<ellipse class="st16" cx="323.6" cy="222" rx="3.6" ry="3.6"/>
	<ellipse class="st16" cx="308.1" cy="219.8" rx="3.6" ry="3.6"/>
	<ellipse class="st16" cx="302.5" cy="213.9" rx="3.6" ry="3.6"/>
	<ellipse class="st16" cx="276.9" cy="102.6" rx="3.6" ry="3.6"/>
</g>
</svg>
