<?xml version="1.0" encoding="utf-8"?>
<!-- Generator: Adobe Illustrator 23.1.1, SVG Export Plug-In . SVG Version: 6.00 Build 0)  -->
<svg version="1.1" id="Layer_1" xmlns="http://www.w3.org/2000/svg" xmlns:xlink="http://www.w3.org/1999/xlink" x="0px" y="0px"
	 viewBox="0 0 382.5 232.4" style="enable-background:new 0 0 382.5 232.4;" xml:space="preserve">
<style type="text/css">
	.st0{fill:#707589;}
	.st1{fill:none;stroke:#FFFFFF;stroke-width:1.07;stroke-linejoin:round;stroke-miterlimit:10;enable-background:new    ;}
	
		.st2{opacity:0.702;fill:none;stroke:#FFFFFF;stroke-width:1.07;stroke-linejoin:round;stroke-miterlimit:10;enable-background:new    ;}
	.st3{fill:none;stroke:#FFFFFF;stroke-width:1.07;stroke-linejoin:round;stroke-miterlimit:10;}
	.st4{fill:#FFFFFF;}
</style>
<g>
	<path class="st0" d="M40.5,210.7c0.8,1.4,0.6,2.2-1.1,2.8c-1.1,0.4-2.1,1.3-3.1,1.9c-0.6,0.4-1.3,0.6-2.1,1c0.3-2.7,0-5.2,2.5-6.8
		c-1.6,0.1-2.3,0.8-3.3,2.7c-0.7,1.3-1.7,2.5-2.6,4c0.2,0.2,0.7,0.5,1.4,1.1c-4.2,4.5-8.7,8.4-14.2,11.4c-0.6-0.7-1.5-0.5-2.8,0.2
		c-1.5,0.9-3.5,1.2-5.2,1.7c-0.1-0.3-0.3-0.5-0.4-0.8c0.8-0.5,1.7-0.9,2.5-1.4c0.8-0.4,1.7-0.8,2.6-1.2c0.6-0.3,1-1,1.6-1
		c2.9-0.3,4.8-2.2,6.6-4.1c1-1.1,1.4-2.6,2.4-4.5c-1.5,0.2-2.3,0.3-3.5,0.4c-1.2-1.4-1.3-2-4.6-0.6c0-1.6,0-3.1,0-4.7
		c-3.4,0.6-4.2-0.2-4.6-3.6c-0.2-1.4-1.5-2.7-0.2-4.3c0.8-0.9,1.3-2.1,2.2-2.8c0.5-0.4,1.6-0.3,2.4-0.1c1.1-0.5,2.6-0.7,3.2-1.5
		c0.6-0.7,0.2-2.2,0.3-3.1c-1.6,0-3.4,0-5.2,0c-1.4,0-2.3-0.6-2.5-2.2c-0.1-0.9-0.8-1.7-1.4-2.8c1.9-0.7,3.8-1.5,6-2.4
		c0.2,2.3,1.3,2.8,3.3,2.1c-1.6-2.3-3.2-4.5-4.6-6.7c-0.3-0.5-0.7-1.3-0.5-1.7c0.3-0.5,1.1-0.8,1.7-1.1c0.7-0.3,1.9-0.3,2.1-0.7
		c0.9-2.2,2.6-3.2,4.5-4.1c1.3-0.6,2.7-1.1,4.6-1.8c1.3,0.6,3,1.9,4.9,2.3c2.8,0.6,5.8,0.9,8.7,0.7c2.2-0.1,4,0.5,4.5,2.8
		c1.9,9.4,3.8,18.8,5.7,28.5c0.9-0.2,1.8-0.5,2.4-0.6c1.5,1.2,2.9,2.3,4.3,3.3c0.9-1.1,1.7-2.9,2.5-2.9c1.1,0,2.2,1.3,3.2,2.1
		c1.1,0.8,2.2,1.6,3.1,2.6c1.6,1.7,3.2,3.3,5.8,3.6c1.6,0.2,2.2,2.7,1.3,4.8c-0.8,0.2-2.5-2-2.6,0.8c0,0-1.8,0.4-2.3,0
		c-1.4-1.3-2.5-2.8-3.8-4.4c-0.2,0.6-0.3,0.9-0.4,1.5c-1.2-1.3-2.1-2.6-3.3-3.5c-2.1-1.6-4.3-3.1-6.5-4.5c-2.5-1.5-5.3-1.4-8.2-1.2
		c-1.5,0.1-3.1-1-4.7-1.6c-0.7-0.2-1.5-0.3-2.3-0.5C40.7,210.3,40.6,210.5,40.5,210.7z"/>
	<path class="st0" d="M33.3,218.6c0.2,0.2,0.5,0.3,0.6,0.5c0.7,1.4-1.4,5-2.9,5.1c-0.4,0-1.1-0.4-1.3-0.8s-0.2-1.2,0-1.6
		c0.9-1,2-1.9,3-2.8C32.8,218.8,33,218.7,33.3,218.6z"/>
	<path class="st0" d="M9.2,200.1c-1.9,0.6-4.2-0.7-4.9-2.8C6.2,198.3,7.5,199.1,9.2,200.1z"/>
	<path class="st0" d="M8.8,210.4c0.9,0.2,1.8,0.3,2.7,0.5c-0.1,0.4-0.2,0.9-0.4,1.3c-0.8-0.2-1.7-0.5-2.5-0.7
		C8.7,211.1,8.7,210.7,8.8,210.4z"/>
	<path class="st0" d="M117.4,231.6c-1-0.2-2.3-0.7-1.7-2.9c0.1-0.5-0.1-1.1-0.4-1.6c-0.7-1.5-1.3-2.8,0.2-4.3c0.6-0.6,0.3-2,0.5-3.2
		c3.9,1.1,7.2,2.9,9.1,7.2C123,228.2,120.5,229.7,117.4,231.6z"/>
	<path class="st0" d="M111.8,216.8c-0.2-0.2-0.6-0.4-0.9-0.7c-0.5-0.5-1-1.1-1.5-1.7c-0.2-0.3-0.3-0.8-0.4-1.2
		c0.4-0.1,0.9-0.3,1.3-0.2c1.1,0.2,2.2,0.5,3.2,0.9c0.5,0.2,0.8,0.9,1.2,1.3c-0.5,0.4-1,0.8-1.5,1.1
		C112.9,216.6,112.4,216.6,111.8,216.8z"/>
	<path class="st0" d="M86.8,203c-1,0.7-1.7,1.6-2.3,1.5c-0.8-0.1-1.6-0.9-2.4-1.5c1-0.6,1.9-1.3,3-1.7C85.4,201.3,86,202.2,86.8,203
		z"/>
	<path class="st0" d="M98.3,206.2c0.1,1.3,0.4,2.3,0.2,3.2c0,0.3-1.3,0.8-1.5,0.6c-0.7-0.6-1.3-1.4-2-2.3
		C96.2,207.2,96.9,206.8,98.3,206.2z"/>
	<path class="st0" d="M150.6,196.1c0.5-0.4-0.2,1.2,0.8,0.9c-0.1,0.1-0.1,1.4,0.3,0.3c1,1.9,3.9,3.5,5,7c0.2,5.5,7.8,9.6,7.7,14.8
		c1.6,6,6,11.9,13.8,11.8c1,0.1,1.7,1.3,3.6,1.2h-0.1c1,0.7,2.2-1.9,1.6-0.6c-0.2-0.1-0.1-0.4-0.6,0.1c-0.4-2.4-2.6-5.3-1.8-11.4
		c-1.2,1.3-3.9-4-0.9-0.5l-0.1-0.3c0.6-0.2,1.7-1.3,0.5,0.2c0.9,0.7,2-1.9,2.2-3.6c-0.8,0.9-0.5-0.2-0.9-1.3
		c-0.1,0.1-0.7,0.4-1.2-0.4c1.1-0.6,5.2,2.4,2.5-1.8c0.1,0.1,1-0.4,0.4-0.8c1.3,1.1,2.8-2.3,2.2,0.4c1.7,0,0.3-3,1.2-2.3
		c-2.2-1.1,5.6,1,1.7-0.8c0.1-0.2-0.2-0.1,0.6-0.5c-0.4-0.8-1.2,0.2-1.2-1.6c0.1,0.3,0.6-0.5,0.7,0.5l0.3-0.1c0-0.2,0.2,1.3,0.5,0.2
		c-0.1-0.1,0.4,0.4-0.2,0.7c0.3,0.2-0.1,0.1,0.8-0.3c0.3,0.2-0.8-0.7-0.1-1.1c-0.1,0.3,0.6,1.6,1,0c0,0.1,0,0,0.1,0.4
		c0.1,0,0.1-0.1,0.5-0.6c0,0.2,0-0.1-0.2,1.1c-0.1-0.1,1.1,0.2-0.1,0.2c3.5-0.5,5.2-2.3-1,1.8c1.3-0.8,6.7-2.8,9.8-6.1
		c-2-0.5,3,0,1.3-5.9l-0.1,0.1c5.8-1.4-0.9,0.8,3.9,1.7c-5.2,3.1,3.3-1.8,7.6-2.2c2.3-1.5,11.2,4.6,11.4,0.5
		c1.5-5.5,7.3,7.2,12.5,3.8c-0.3-3.2,4.5,5.4,4.1-2.6c1.5-0.2,1.3,2,3,1.4c2.4,1.7,3.7,4,4.8,1.2c0.6-1.1-4.3-0.9-4.6-3.9
		c1.5-1.2,3.2-2.2,3.2-4.4c0.4-1.8-7.2,4-4.2,0.6c0-0.3,0.7-1.8-0.2-0.7c-0.1-0.1-0.1,0-0.1-0.4c-1.7,2.6-10.1-0.2-2.5-1.4
		c1.3,0.7,3.9,2.4,5.6-0.1c2.5-2.4,10.1,2.1,10.2-4.9c2.9,2.8-1.7,7.8,4.5,3.4c-1.3,1.5,3-0.2,1.9-2c0.9,1,3.6-0.3,0.3,1.9
		c1.6-1.1,12.6-2.1,5.2-1c0.6-0.2,7,2.9,5.9,1.1c-1,0.7-0.8-1,0.8-0.1c-0.1,0.2,0.1,0.2-0.3,0.6c-0.7,0.8,2-0.4,3.4,4.1
		c-0.5,0.2-0.5,0-0.6-1.6c-1.5,2.9,2.7,1.3,4.2,0.5c-1.3,1,5.7-2.1,3.4-2c0.3-0.3,0.5-0.6,1.1-1.3c1-2,14.2,7.9,14.5,11.3
		c0.3,2-2.4,8.9,1.1,8.6c-2.3-5.7,1.2,0,1.1-1.6c2.5-1.4-2.2,4.3-0.4,4.4c1.1,1,1.7,5.3,4.3,5.1c-1.7-1.6,1.1-1.7,0.4-1.1
		c0.6,3.1,0.8,3.1,4.6,8.7c0.1-1.1,11.2,7.4,4.9,5c0.1,2.9,4.5-0.1,6.2-0.1c0.8-1.7,0.2-3.9,1.5-6c1.6-11.8-13-29.4-17.3-42.2
		c0.1,0.4,1.2-6,0.3-3c-1.6-1.9,1,0.1-0.2-2.7c0.8,0,0.6-0.9,1.4-0.9c0.8-0.9-1.4-1.7,0.5-1.6c0.3-0.6,0.1-1-0.5-1.5
		c1.4-1.9,3.9-3.7,2-6.9c2.2,2.1,1.6,0.4,2.8-0.9v0.1c0.3-0.4,1.8,0.2,1.6-1.2c-0.4,0.7,7.6-5,6.2-8.1c0.8,2.2,1.1-4.1,4.9-5.3
		c0.8-1.4,4.2,0.4,3.9-2.7c0.3,3.3,3.1-8.4,3.7-5.8c-1,1.4,2.4,0.2,1.1-1.4c0.2,1.1,3.4,0,3-0.4c0.2-0.5,0.3-0.5,1,0.1
		c0.2-0.3,0.8-0.1,2-2c0.3-0.2-1.5-1.5-1.4-0.5c-1.5-0.4,0.6,0.9-1.2,0.4c0.1,0,0.6,0.6,0,0.5c-0.4-1.2-0.2,1.4-3.4-1.1
		c-0.4-2.1,3.3,3.7,3.6-2.1c1.7-0.4-1.4-1-2.1-0.8c-3.5-1.9,1.2,0.5,1.4-1.3c-1.2-0.4,0.2-0.6,1-0.8c-1.4,1.9,0.2,0.9,1.6,1.6
		c1.3-0.3,1.7-0.8,2.5-2.9c1.1,1.1,0.5-0.8,1-1c-0.5-0.7,0.2-1.5-1.5-2.2c0.2,0.2-0.4,0.1-0.1,0.6c-1.5-0.6,0.6,3.6-1.6,2.2
		c0.9,0.3,0.6-1.5,0.2-2.3c-0.8-1.9-5.3,4.7-5.6-2.7c0.5-0.1,1.2,4.9,2.4,2c1.1-0.3,0.6-1.4,2-0.7c0.8-0.6,0.8-0.5-0.4-1.4
		c0.8-0.4,2.4,1.6,1.4-0.4c0.7-0.1,0.6,1.1,1.6,1.6c0.1-1.2-4.5-5.1-1.7-3.5c0.1,0-1-2.6,0.2-0.6c-1.2-0.6,6.4,10.3,2.7,4.5
		c-1.9-1.4-2.8-10.6-7.4-6.5c-0.1-1.9-5.1-2.1-3.5-3.4c1.3,0.5,2.7,2.5,4.6,1.9c0-0.1,0.2-1-0.5-0.6v-0.1l0,0
		c0.6-0.7-4.2-1.5-3.8-3.2c3.1,3.7,1.9-0.2,3.9,1.1c-0.2-2.6-2.1-1.1-5.9-5.5c3.9,4.3,8.3,1.8,1.9-1.1c-1.1-0.2-2.6-0.3-3.4-2
		c-0.5-1.5,1.4,0.9,4.5,1.4c2.4,1,0.4-0.9-1.9-2.8c4.3,2,0.3,0.8,0.3-4.8c1,0,0.3-1.1-1.2-2.2c1.3-0.1,0.9,0.1,1.8-0.9
		c-0.6-1,0.9,0,0.8-1c1.2-0.1-0.3-1.5,1.4-1.9c0.1,0-0.1,0.4,0,1c0.6-1.2,1.2,0.6-0.9,1.6c-0.7,2.4,1.7,2.8-0.2,5.5
		c0.7-0.5,0.8,0.7,1.6-0.3c0.9,2.6-0.5-0.1-0.7,1.9c2-0.5-2.4,0.4,2,2.5c0-2.3,0.4,1.1,0.9-1.1c0.5,0.4,0.4,3.9,1.8,3.2
		c1.3-0.9-0.3,1.8-0.4,3.2c-0.7,0.6-0.5,7.8,0.8,2.1c0.5-6.2,5.4-5.7,2-11.9c0,0,1.3-0.2,0.3-0.6c0,0,0.3,0,0.2-0.4
		c2.9,1.9-6.4-5.9-4.5-8.3c-0.2,4.1,5.8,2.2,5.5,5.9c1.7-3.5,3.9-6.4,3.7-11.1c0.3,0.2,0.2,0.9,0.5,2.3c-0.1-1.2,0.6-4.4-0.8-6.3
		c0,0.2-0.1,0.1,0.1,0.6c-0.3-0.2-1.2,0.2-2-0.3c1.7-0.6,0.4-2.4,1.7-4.2l0.3,0.8c-0.1-0.1-0.1,0-0.2-0.3l0.7,0.2
		c-0.5-0.7,0.7-0.8,0.6-2.1c1.3,0.3,4-3.6,4.8-3.1c0.8-0.7,3.2-0.2,3.4-1.5c1.1,0.6,1.3-0.3,3.4-0.9v0.3c0.5-0.3,1.1-0.4,2.2-1.6
		c0.1,1.1,0.6-4.7,0.9-0.6c0.7,1.2,0.6-1.5,1-0.3c0.1,0,0.3-0.4,0.6-0.9c-0.1,0.1,0.7,0.7,0.6,0c0.5,0.4,2-5.2,2.2-0.7
		c2.3-0.5,7.6-5,1.8-5c4.7,0.1-1.1,5.9-2.5,0.8c-0.4-0.7-1-1.5-2.5-2c0.4,1.4-1.9,0-0.9-0.6c2.7-5.6,0.4,1.2,0.2-6.7
		c1.7-0.6,0.8-7.3,3.3-7.7c1.1-1.4-0.2,2.5,2.1-1.6c1.5,1.1,0.1-0.9,2.2-1.2c0,3.5,1.6-9.1,1.8-4.4c0.2,0.2,0.4-0.9,0.8,0.1
		c0.1,0.1-1-0.3-0.5,0.4c-0.9,0.1,0.9,0.6,1.1,0.4c0.6,0.2,0.8-0.1,0.1-1.1c0.3-0.2,0.5-0.3,0.6-1.1c0.1,0.5,0.9,1.1,0.9-0.4
		c0.6,0.4,1.2-0.8,1.9,1.1c0.2-0.3,0.3-0.6,0.2-1.5c0.4,0.8,0.9,0.3,0.7-0.9c0.4-0.2,2,0.7,1.6-1.1c0,0.1,0.1-0.1,0.5,0.1
		c-0.1,0.2,0.3-1.1,0.3-0.1c0.5,0.3,0-2,0.8-0.6c0.6,0,1.2-1,1.4-2.2c-2.5,0.6,0.8-2-2.5-2.7c-1.6,2-0.7-3.1-3.9-3.4
		c-3.1-1.4-0.4-11.3-6.8-13.4c-7.4,6.9-5.7-9-9.7,11c-1.6,5.3,0.7,10.1-6,12.4c1.4,7.6-25.8-0.9-28,17.4l-0.3,0.4
		c0,2,2.2,3.1-3.8,7.4c-0.2-0.2-2.8-0.4-3.7,0.9c-1.3-1.2-12.4-1.1-9.1,4.1c2.6,0.7-1.8,5.3-6.5,8.6c-0.1,0,0.2-0.1,0.1-0.4
		c-9.3,5.6-9.7,10.4-22.5,7.6c0.2,0.3,3.9-12.9,4.9-8.8c1.3-3-0.8-21.7-8.4-8.3c-4.8-2.9,2.4-1.9,1.5-13.4
		c-10.4-8.8-11.3-6.4-14.9,3.9c-0.6-0.8,0.1-2.5,0.1-3.9c-2.7,2.7-5,6.6-5,11.9c-1.2,5.5,5.9,8.1,0.5,18.3c-9.6,12.6-11.8-17-5.8-28
		c1.1-0.5,0.6-4-0.3-0.9c-0.8-0.1-1.2,1.6-1.4,3.1c-1.4-1.2-1.8,1.7-4,3.2c-1,1,6.7-16.2,6-11.1c5-4.8-0.8,2.8,3.9-1.1
		c1.6-4,10.3-2.2,15.6-3.2c-3.6-6.8-8.9-0.6-7.4-6.3c-6.6,0.4-12.9,7.3-17.7,1c-2.3-0.7-2.6-1.9-4.7,1c-0.3-0.4,0.3-1.2,0-2.2
		c1.2-0.5,1.5-3.2,4-3.9c-4.4-1.7-12.4,10.1-19.7,8.3c3.5-6.9-3.8,1.1-7.6-1c1.8-2.3,9.6-9.4,16.2-12c-7.8-1.2-14.2,0.2-20.3-3.2
		c1.3-3.4-7.7,1.5-12.4-3.3c-0.4-1.4,0.1-5.1-2.9-4.7C152.4,30.3,85.5,12.3,31.6,0v0.2c-1.2,0.3,0.9,2.1,0.7,2.5
		c0.2,0.3,0.2,2.5-1,2c0.2-1.1-1.4,0.4,0.1,0.3c1,1-0.2,2.9,1.2,3.9c-0.8,0.4-1.4,1.5-2.2,2.8c0.2,0.8-0.1,2.2-0.9,3.6
		c0,0-0.2-0.1-0.6-0.7c-0.1,0.2-1.5,2.5-2.2,0.8l-0.1,0.4c-0.1,0.1,0.2-0.2-0.4-0.3c-0.1,0.3,0,0.1-0.2,0.9
		c-0.5,0.2,0.4-0.8-0.6-0.6c0.1,0,0,0,0.6-0.5c-0.2-0.1-0.1-0.2-0.9,0.2c0,0-0.1-0.3,0.6-0.6l-0.1-0.8c0,0.2,0-0.5,0.5-0.3L25.9,14
		c0.2,0.1,1.2-0.2,1.7-1.1c0.3,1.3-1.3,2.5,1.2,0.3c0,0.3-1,0.7,0.1,1.2c-0.3-1.3,2.3-1.6,0.1-2.8c0-0.1-0.2-0.1,0-0.5
		c0.7,0.8,0.3,0.1,0.6-0.9c0-0.2,0.1,0.9,0.6,0c0.3,0.7,1-0.7,0-1.7c-0.2,0.1,0.1,0.2-0.1,1.1c0.8-0.6-7.4,3.5-2.6,2.9
		c-3.7,1.1-0.9-1.2,0.8-3.4l0.2,0.4c0-0.1,0.1,0.1,0.2-0.5c0,0.2,0.3,0.2-0.1,0.7c0.7-0.4,1.7-1,1.3-2.8l-0.2,0.7l-0.1-0.3l-0.3,0.2
		c0.1-1.2,0.4-1.1-0.7,0.1c0,0,0.4-0.5-0.3-1c-0.1,0,0.1,0.1-0.3,0.4c-0.6-1.7-4.4-1.6-9.4-6c-1.2,3.7,0.9,7.8-0.1,13.1
		c0.6-0.6,0.4-0.6,2,0.5c0.2,0.3-1.6-0.3-1.7,0.7c-0.2,0,0-0.3-0.4-0.7c-0.4,1.3-0.1,1.6,1.2,2.2c-0.1-0.2-0.4,0.4-1,0.5
		c-0.1-0.3,0.6,2.2-0.9,2.2c-0.3,0.3,0.6-1,0.3-2.4c-0.2,0.2-0.5,1.5-0.8,2.9c0.5,0.5,3.5,0.4,3.7,2.1c-0.6-0.8-1.4,0-2.7-0.8
		c0,0,0.1,0.1,0.2,0.5c-0.4,0.3-0.3-0.8-1.2-0.9c0.6,1.9-1.5,3.6-1.1,6.6C12.7,36.4,2.6,49.4,4.7,61.2l-0.2-0.1
		c0.2,1-0.4,1.4-1.1,3.1l-0.2-0.3C3.6,67.8-3,66,1.6,77.3c-3,4.6,1.5,12,1.8,15.1c0.4,0.4-1.6,2.8,0.1,1.4c0,0.5,0.6,0.9,1.2,1.8
		c1.7,1.5,1.3,1.1,1.9-1.4c-0.1,0-0.1,0-0.2-0.2c1,0,1.4,0.1,2.3,1.5c-0.2-0.1,0-0.1-0.7-0.3h0.1c-2.1-0.1-0.7,3.4,0.4,5.7
		c-0.5,0.2-3.3-2.3-2-3c-0.1-0.2,0.2-0.6-0.4-0.9c-2.4,2.9-1.1,6.4,2.1,9.8c-5.1,3.9,3.2,11.2,2.8,15.5c4.6,3.8-5.7,6.4,6.6,9.9
		c6.4,5,15.2,11.2,15.3,20.5c-0.6-0.3-0.2-1.1-0.4,0.8c5.4,0.6,11.4,1.3,18.2,2c-4.5,0.7,22.1,19.3,39.7,19.6
		c7.3,2.5,13.1-6.5,22.7-0.1c1.7,4.4,7.1,7.3,10.3,12c1.1,2.2,0,8.8,7.4,12.4c2.9,0.7,2.9,4.5,7.2,0.6c-0.3-0.8,0.8-2,1.2-3.5
		l0.2,0.1c1.6-3.1,5.9-1.2,9.6-0.8C149.9,195.7,150,196.3,150.6,196.1z"/>
	<path class="st0" d="M368.3,70.5c-0.4,0.1-0.4,0-1.2-0.1c-0.2-1-0.3,1.1-1.2,1.1C365.5,72.1,368.1,71.4,368.3,70.5z"/>
	<path class="st0" d="M371.2,70.9c-1.8-0.2-0.3,1.1,0.7-0.2c-0.3-0.5-1.3-1-0.5-0.3C371.4,70.5,371.6,70.7,371.2,70.9z"/>
	<polygon class="st0" points="346.2,81.2 346.1,81 346.1,80.9 346.1,80.9 346,81 345.9,81.3 345.8,81.6 345.7,82.1 345.8,82.2 
		345.9,82.1 346,82 346.1,81.9 346.1,81.7 346.1,81.5 346.2,81.3 	"/>
	<polygon class="st0" points="344.4,84.5 344.7,84.4 345,84.2 345.1,84 345.3,83.7 345.6,83.3 345.7,83.1 345.3,82.7 344.7,83.2 	
		"/>
	<path class="st0" d="M355.7,78.2l0.2,0.2c-0.1,0,0.1,0.2-0.5,0.3c-0.7-0.8,0.1-1.6,1.4-3.1c-1.8,2.1-6.1,3.1-7.9,4.3
		c0-0.4-1-0.3-0.9,0.7c-0.5-0.8-0.4,1.1-1,0.4c-3.5,3.9,2.3,0.2-0.2,2.3c1.3-0.5,3.3-1.6,4.8-2.7c2.2-0.5,5.5-3.3-0.1,1.1
		c1.9-1.1,12.1-7.6,5.1-4.9C356.2,77.1,356.3,77.7,355.7,78.2z"/>
	<path class="st0" d="M29.2,2.2c0,0,0.1,0.2,0.4,0.6c-0.2,0,0,0.2-0.3,0.7C28.7,3.6,28.3,0.7,29.2,2.2z"/>
	<path class="st0" d="M29.9,4c0-0.4-0.6-0.6,0.3-1.2C30,3.1,30.8,4.2,29.9,4z"/>
	<path class="st0" d="M30.8,2.3c-0.3,0.1,0.1-0.2-0.4-0.7c0,0.1-0.1,0,0,0.8c-0.3,0.2,0-0.5-0.7-0.2c-0.1-0.3,0.3-0.4,0.7-0.9
		C30.5,1.4,31.8,1.9,30.8,2.3z"/>
	<path class="st0" d="M30.3,6.2c0.1-0.1-0.2,0.3,0.5,0.4c-0.9,1.8,3.3,4.8-0.4-0.7c-0.1-0.2,0.3,0.2,0.5-0.4
		c0.2,0.1,0.2,0.1,0.9,0.1c0.2-0.1-0.4-0.5-0.3-0.9C31.4,4.6,29.8,4.9,30.3,6.2z"/>
</g>
<g id="constellation">
	<polyline class="st1" points="60.1,56.5 63.4,61 66.8,65.5 70.2,69.9 73.6,74.4 77.2,78.9 80.7,83.3 84.3,87.7 	"/>
	<polyline class="st2" points="276.9,102.4 273.7,107.4 270.4,112.3 267.1,117.3 	"/>
	<polyline class="st3" points="268.8,91.2 263.6,91.8 258.3,92.3 253.1,92.8 247.8,93.3 242.6,93.7 237.3,94.1 232,94.5 226.8,94.8 
		221.5,95 216.2,95.2 210.9,95.4 205.6,95.6 200.4,95.7 195.1,95.7 189.8,95.7 184.5,95.7 179.2,95.7 173.9,95.6 168.6,95.4 
		163.4,95.2 158.1,95 152.8,94.8 147.5,94.5 142.2,94.1 136.9,93.7 131.7,93.3 126.4,92.9 121.1,92.3 115.8,91.8 110.6,91.2 
		105.3,90.6 100.1,89.9 94.8,89.2 89.6,88.5 84.3,87.7 	"/>
	<polyline class="st1" points="326.3,90.7 321.1,91 315.8,91.2 310.6,91.3 305.3,91.5 300.1,91.5 294.9,91.6 289.7,91.6 284.5,91.5 
		279.2,91.5 274,91.4 268.8,91.2 	"/>
	<line class="st1" x1="331.5" y1="79.5" x2="268.8" y2="91.2"/>
	<polyline class="st2" points="267.1,117.3 270.4,112.3 273.7,107.4 276.9,102.4 	"/>
	<polyline class="st3" points="84.3,87.7 89.6,88.5 94.8,89.2 100.1,89.9 105.3,90.6 110.6,91.2 115.8,91.8 121.1,92.3 126.4,92.9 
		131.7,93.3 136.9,93.7 142.2,94.1 147.5,94.5 152.8,94.8 158.1,95 163.4,95.2 168.6,95.4 173.9,95.6 179.2,95.7 184.5,95.7 
		189.8,95.7 195.1,95.7 200.4,95.7 205.6,95.6 210.9,95.4 216.2,95.2 221.5,95 226.8,94.8 232,94.5 237.3,94.1 242.6,93.7 
		247.8,93.3 253.1,92.8 258.3,92.3 263.6,91.8 268.8,91.2 	"/>
	<ellipse class="st4" cx="84.3" cy="87.7" rx="3.6" ry="3.6"/>
	<ellipse class="st4" cx="268.1" cy="91.5" rx="3.6" ry="3.6"/>
	<ellipse class="st4" cx="326.3" cy="90.7" rx="3.6" ry="3.6"/>
	<ellipse class="st4" cx="276.9" cy="102.4" rx="3.6" ry="3.6"/>
	<ellipse class="st4" cx="267.1" cy="117.3" rx="3.6" ry="3.6"/>
	<ellipse class="st4" cx="331.5" cy="79.5" rx="3.6" ry="3.6"/>
	<ellipse class="st4" cx="60.1" cy="56.5" rx="3.6" ry="3.6"/>
</g>
</svg>
