<?xml version="1.0" encoding="utf-8"?>
<!-- Generator: Adobe Illustrator 23.1.1, SVG Export Plug-In . SVG Version: 6.00 Build 0)  -->
<svg version="1.1" id="Layer_1" xmlns="http://www.w3.org/2000/svg" xmlns:xlink="http://www.w3.org/1999/xlink" x="0px" y="0px"
	 viewBox="0 0 382.2 232.5" style="enable-background:new 0 0 382.2 232.5;" xml:space="preserve">
<style type="text/css">
	.st0{fill:#707589;}
	.st1{fill:none;stroke:#FFFFFF;stroke-width:1.07;stroke-linejoin:round;stroke-miterlimit:10;enable-background:new    ;}
	.st2{fill:none;stroke:#FFFFFF;stroke-width:1.07;stroke-linejoin:round;stroke-miterlimit:10;}
	.st3{fill:#FFFFFF;}
</style>
<g id="map">
	<path class="st0" d="M40.3,210.5c0.8,1.4,0.6,2.2-1.1,2.8c-1.1,0.4-2.1,1.3-3.1,1.9c-0.6,0.4-1.3,0.6-2.1,1c0.3-2.7,0-5.2,2.5-6.8
		c-1.6,0.1-2.3,0.8-3.3,2.7c-0.7,1.3-1.7,2.5-2.6,4c0.2,0.2,0.7,0.5,1.4,1.1c-4.2,4.5-8.7,8.4-14.2,11.4c-0.6-0.7-1.5-0.5-2.8,0.2
		c-1.5,0.9-3.5,1.2-5.2,1.7c-0.1-0.3-0.3-0.5-0.4-0.8c0.8-0.5,1.7-0.9,2.5-1.4c0.8-0.4,1.7-0.8,2.6-1.2c0.6-0.3,1-1,1.6-1
		c2.9-0.3,4.8-2.2,6.6-4.1c1-1.1,1.4-2.6,2.4-4.5c-1.5,0.2-2.3,0.3-3.5,0.4c-1.2-1.4-1.3-2-4.6-0.6c0-1.6,0-3.1,0-4.7
		c-3.4,0.6-4.2-0.2-4.6-3.6c-0.2-1.4-1.5-2.7-0.2-4.3c0.8-0.9,1.3-2.1,2.2-2.8c0.5-0.4,1.6-0.3,2.4-0.1c1.1-0.5,2.6-0.7,3.2-1.5
		c0.6-0.7,0.2-2.2,0.3-3.1c-1.6,0-3.4,0-5.2,0c-1.4,0-2.3-0.6-2.5-2.2c-0.1-0.9-0.8-1.7-1.4-2.8c1.9-0.7,3.8-1.5,6-2.4
		c0.2,2.3,1.3,2.8,3.3,2.1c-1.6-2.3-3.2-4.5-4.6-6.7c-0.3-0.5-0.7-1.3-0.5-1.7c0.3-0.5,1.1-0.8,1.7-1.1c0.7-0.3,1.9-0.3,2.1-0.7
		c0.9-2.2,2.6-3.2,4.5-4.1c1.3-0.6,2.7-1.1,4.6-1.8c1.3,0.6,3,1.9,4.9,2.3c2.8,0.6,5.8,0.9,8.7,0.7c2.2-0.1,4,0.5,4.5,2.8
		c1.9,9.4,3.8,18.8,5.7,28.5c0.9-0.2,1.8-0.5,2.4-0.6c1.5,1.2,2.9,2.3,4.3,3.3c0.9-1.1,1.7-2.9,2.5-2.9c1.1,0,2.2,1.3,3.2,2.1
		c1.1,0.8,2.2,1.6,3.1,2.6c1.6,1.7,3.2,3.3,5.8,3.6c1.6,0.2,2.2,2.7,1.3,4.8c-0.8,0.2-2.5-2-2.6,0.8c0,0-1.8,0.4-2.3,0
		c-1.4-1.3-2.5-2.8-3.8-4.4c-0.2,0.6-0.3,0.9-0.4,1.5c-1.2-1.3-2.1-2.6-3.3-3.5c-2.1-1.6-4.3-3.1-6.5-4.5c-2.5-1.5-5.3-1.4-8.2-1.2
		c-1.5,0.1-3.1-1-4.7-1.6c-0.7-0.2-1.5-0.3-2.3-0.5C40.4,210.1,40.3,210.3,40.3,210.5z"/>
	<path class="st0" d="M33,218.3c0.2,0.2,0.5,0.3,0.6,0.5c0.7,1.4-1.4,5-2.9,5.1c-0.4,0-1.1-0.4-1.3-0.8c-0.2-0.4-0.2-1.2,0-1.6
		c0.9-1,2-1.9,3-2.8C32.5,218.5,32.7,218.5,33,218.3z"/>
	<path class="st0" d="M8.9,199.9c-1.9,0.6-4.2-0.7-4.9-2.8C5.9,198.1,7.2,198.8,8.9,199.9z"/>
	<path class="st0" d="M8.5,210.1c0.9,0.2,1.8,0.3,2.7,0.5c-0.1,0.4-0.2,0.9-0.4,1.3c-0.8-0.2-1.7-0.5-2.5-0.7
		C8.4,210.9,8.4,210.5,8.5,210.1z"/>
	<path class="st0" d="M117.1,231.3c-1-0.2-2.3-0.7-1.7-2.9c0.1-0.5-0.1-1.1-0.4-1.6c-0.7-1.5-1.3-2.8,0.2-4.3c0.6-0.6,0.3-2,0.5-3.2
		c3.9,1.1,7.2,2.9,9.1,7.2C122.7,227.9,120.2,229.4,117.1,231.3z"/>
	<path class="st0" d="M111.5,216.6c-0.2-0.2-0.6-0.4-0.9-0.7c-0.5-0.5-1-1.1-1.5-1.7c-0.2-0.3-0.3-0.8-0.4-1.2
		c0.4-0.1,0.9-0.3,1.3-0.2c1.1,0.2,2.2,0.5,3.2,0.9c0.5,0.2,0.8,0.9,1.2,1.3c-0.5,0.4-1,0.8-1.5,1.1
		C112.6,216.3,112.2,216.4,111.5,216.6z"/>
	<path class="st0" d="M86.6,202.7c-1,0.7-1.7,1.6-2.3,1.5c-0.8-0.1-1.6-0.9-2.4-1.5c1-0.6,1.9-1.3,3-1.7
		C85.1,201,85.8,201.9,86.6,202.7z"/>
	<path class="st0" d="M98,205.9c0.1,1.3,0.4,2.3,0.2,3.2c0,0.3-1.3,0.8-1.5,0.6c-0.7-0.6-1.3-1.4-2-2.3
		C95.9,206.9,96.7,206.6,98,205.9z"/>
	<path class="st0" d="M150.3,195.9c0.5-0.4-0.2,1.2,0.8,0.9c-0.1,0.1-0.1,1.4,0.3,0.3c1,1.9,3.9,3.5,5,7c0.2,5.5,7.8,9.6,7.7,14.8
		c1.6,6,6,11.9,13.8,11.8c1,0.1,1.7,1.3,3.6,1.2h-0.1c1,0.7,2.2-1.9,1.6-0.6c-0.2-0.1-0.1-0.4-0.6,0.1c-0.4-2.4-2.6-5.3-1.8-11.4
		c-1.2,1.3-3.9-4-0.9-0.5l-0.1-0.3c0.6-0.2,1.7-1.3,0.5,0.2c0.9,0.7,2-1.9,2.2-3.6c-0.8,0.9-0.5-0.2-0.9-1.3
		c-0.1,0.1-0.7,0.4-1.2-0.4c1.1-0.6,5.2,2.4,2.5-1.8c0.1,0.1,1-0.4,0.4-0.8c1.3,1.1,2.8-2.3,2.2,0.4c1.7,0,0.3-3,1.2-2.3
		c-2.2-1.1,5.6,1,1.7-0.8c0.1-0.2-0.2-0.1,0.6-0.5c-0.4-0.8-1.2,0.2-1.2-1.6c0.1,0.3,0.6-0.5,0.7,0.5l0.3-0.1c0-0.2,0.2,1.3,0.5,0.2
		c-0.1-0.1,0.4,0.4-0.2,0.7c0.3,0.2-0.1,0.1,0.8-0.3c0.3,0.2-0.8-0.7-0.1-1c-0.1,0.3,0.6,1.6,1,0c0,0.1,0,0,0.1,0.4
		c0.1,0,0.1-0.1,0.5-0.6c0,0.2,0-0.1-0.2,1.1c-0.1-0.1,1.1,0.2-0.1,0.2c3.5-0.5,5.2-2.3-1,1.8c1.3-0.8,6.7-2.8,9.8-6.1
		c-2-0.5,3,0,1.3-5.9l-0.1,0.1c5.8-1.4-0.9,0.8,3.9,1.7c-5.2,3.1,3.3-1.8,7.6-2.2c2.3-1.5,11.2,4.6,11.4,0.5
		c1.5-5.5,7.3,7.2,12.5,3.8c-0.3-3.2,4.5,5.4,4.1-2.6c1.5-0.2,1.3,2,3,1.4c2.4,1.7,3.7,4,4.8,1.2c0.6-1.1-4.3-0.9-4.6-3.9
		c1.5-1.2,3.2-2.2,3.2-4.4c0.4-1.8-7.2,4-4.2,0.6c0-0.3,0.7-1.8-0.2-0.7c-0.1-0.1-0.1,0-0.1-0.4c-1.7,2.6-10.1-0.2-2.5-1.4
		c1.3,0.7,3.9,2.4,5.6-0.1c2.5-2.4,10.1,2.1,10.2-4.9c2.9,2.8-1.7,7.8,4.5,3.4c-1.3,1.5,3-0.2,1.9-2c0.9,1,3.6-0.3,0.3,1.9
		c1.6-1.1,12.6-2.1,5.2-1c0.6-0.2,7,2.9,5.9,1.1c-1,0.7-0.8-1,0.8-0.1c-0.1,0.2,0.1,0.2-0.3,0.6c-0.7,0.8,2-0.4,3.4,4.1
		c-0.5,0.2-0.5,0-0.6-1.6c-1.5,2.9,2.7,1.3,4.2,0.5c-1.3,1,5.7-2.1,3.4-2c0.3-0.3,0.5-0.6,1.1-1.3c1-2,14.2,7.9,14.5,11.3
		c0.3,2-2.4,8.9,1.1,8.6c-2.3-5.7,1.2,0,1.1-1.6c2.5-1.4-2.2,4.3-0.4,4.4c1.1,1,1.7,5.3,4.3,5.1c-1.7-1.6,1.1-1.7,0.4-1.1
		c0.6,3.1,0.8,3.1,4.6,8.7c0.1-1.1,11.2,7.4,4.9,5c0.1,2.9,4.5-0.1,6.2-0.1c0.8-1.7,0.2-3.9,1.5-6c1.6-11.8-13-29.4-17.3-42.2
		c0.1,0.4,1.2-6,0.3-3c-1.6-1.9,1,0.1-0.2-2.7c0.8,0,0.6-0.9,1.4-0.9c0.8-0.9-1.4-1.7,0.5-1.6c0.3-0.6,0.1-1-0.5-1.5
		c1.4-1.9,3.9-3.7,2-6.9c2.2,2.1,1.6,0.4,2.8-0.9v0.1c0.3-0.4,1.8,0.2,1.6-1.2c-0.4,0.7,7.6-5,6.2-8.1c0.8,2.2,1.1-4.1,4.9-5.3
		c0.8-1.4,4.2,0.4,3.9-2.7c0.3,3.3,3.1-8.4,3.7-5.8c-1,1.4,2.4,0.2,1.1-1.4c0.2,1.1,3.4,0,3-0.4c0.2-0.5,0.3-0.5,1,0.1
		c0.2-0.3,0.8-0.1,2-2c0.3-0.2-1.5-1.5-1.4-0.5c-1.5-0.4,0.6,0.9-1.2,0.4c0.1,0,0.6,0.6,0,0.5c-0.4-1.2-0.2,1.4-3.4-1.1
		c-0.4-2.1,3.3,3.7,3.6-2.1c1.7-0.4-1.4-1-2.1-0.8c-3.5-1.9,1.2,0.5,1.4-1.3c-1.2-0.4,0.2-0.6,1-0.8c-1.4,1.9,0.2,0.9,1.6,1.6
		c1.3-0.3,1.7-0.8,2.5-2.9c1.1,1.1,0.5-0.8,1-1c-0.5-0.7,0.2-1.5-1.5-2.2c0.2,0.2-0.4,0.1-0.1,0.6c-1.5-0.6,0.6,3.6-1.6,2.2
		c0.9,0.3,0.6-1.5,0.2-2.3c-0.8-1.9-5.3,4.7-5.6-2.7c0.5-0.1,1.2,4.9,2.4,2c1.1-0.3,0.6-1.4,2-0.7c0.8-0.6,0.8-0.5-0.4-1.4
		c0.8-0.4,2.4,1.6,1.4-0.4c0.7-0.1,0.6,1.1,1.6,1.6c0.1-1.2-4.5-5.1-1.7-3.5c0.1,0-1-2.6,0.2-0.6c-1.2-0.6,6.4,10.3,2.7,4.5
		c-1.9-1.4-2.8-10.6-7.4-6.5c-0.1-1.9-5.1-2.1-3.5-3.4c1.3,0.5,2.7,2.5,4.6,1.9c0-0.1,0.2-1-0.5-0.6v-0.1l0,0
		c0.6-0.7-4.2-1.5-3.8-3.2c3.1,3.7,1.9-0.2,3.9,1.1c-0.2-2.6-2.1-1.1-5.9-5.5c3.9,4.3,8.3,1.8,1.9-1c-1.1-0.2-2.6-0.3-3.4-2
		c-0.5-1.5,1.4,0.9,4.5,1.4c2.4,1,0.4-0.9-1.9-2.8c4.3,2,0.3,0.8,0.3-4.8c1,0,0.3-1.1-1.2-2.2c1.3-0.1,0.9,0.1,1.8-0.9
		c-0.6-1,0.9,0,0.8-1c1.2-0.1-0.3-1.5,1.4-1.9c0.1,0-0.1,0.4,0,1c0.6-1.2,1.2,0.6-0.9,1.6c-0.7,2.4,1.7,2.8-0.2,5.5
		c0.7-0.5,0.8,0.7,1.6-0.3c0.9,2.6-0.5-0.1-0.7,1.9c2-0.5-2.4,0.4,2,2.5c0-2.3,0.4,1.1,0.9-1.1c0.5,0.4,0.4,3.9,1.8,3.2
		c1.3-0.9-0.3,1.8-0.4,3.2c-0.7,0.6-0.5,7.8,0.8,2.1c0.5-6.2,5.4-5.7,2-11.9c0,0,1.3-0.2,0.3-0.6c0,0,0.3,0,0.2-0.4
		c2.9,1.9-6.4-5.9-4.5-8.3c-0.2,4.1,5.8,2.2,5.5,5.9c1.7-3.5,3.9-6.4,3.7-11.1c0.3,0.2,0.2,0.9,0.5,2.3c-0.1-1.2,0.6-4.4-0.8-6.3
		c0,0.2-0.1,0.1,0.1,0.6c-0.3-0.2-1.2,0.2-2-0.3c1.7-0.6,0.4-2.4,1.7-4.2l0.3,0.8c-0.1-0.1-0.1,0-0.2-0.3l0.7,0.2
		c-0.5-0.7,0.7-0.8,0.6-2.1c1.3,0.3,4-3.6,4.8-3.1c0.8-0.7,3.2-0.2,3.4-1.5c1.1,0.6,1.3-0.3,3.4-0.9v0.3c0.5-0.3,1.1-0.4,2.2-1.6
		c0.1,1.1,0.6-4.7,0.9-0.6c0.7,1.2,0.6-1.5,1-0.3c0.1,0,0.3-0.4,0.6-0.9c-0.1,0.1,0.7,0.7,0.6,0c0.5,0.4,2-5.2,2.2-0.7
		c2.3-0.5,7.6-5,1.8-5c4.7,0.1-1.1,5.9-2.5,0.8c-0.4-0.7-1-1.5-2.5-2c0.4,1.4-1.9,0-0.9-0.6c2.7-5.6,0.4,1.2,0.2-6.7
		c1.7-0.6,0.8-7.3,3.3-7.7c1.1-1.4-0.2,2.5,2.1-1.6c1.5,1.1,0.1-0.9,2.2-1.2c0,3.5,1.6-9.1,1.8-4.4c0.2,0.2,0.4-0.9,0.8,0.1
		c0.1,0.1-1-0.3-0.5,0.4c-0.9,0.1,0.9,0.6,1.1,0.4c0.6,0.2,0.8-0.1,0.1-1.1c0.3-0.2,0.5-0.3,0.6-1.1c0.1,0.5,0.9,1.1,0.9-0.4
		c0.6,0.4,1.2-0.8,1.9,1.1c0.2-0.3,0.3-0.6,0.2-1.5c0.4,0.8,0.9,0.3,0.7-0.9c0.4-0.2,2,0.7,1.6-1.1c0,0.1,0.1-0.1,0.5,0.1
		c-0.1,0.2,0.3-1.1,0.3-0.1c0.5,0.3,0-2,0.8-0.6c0.6,0,1.2-1,1.4-2.2c-2.5,0.6,0.8-2-2.5-2.7c-1.6,2-0.7-3.1-3.9-3.4
		c-3.1-1.4-0.4-11.3-6.8-13.4c-7.4,6.9-5.7-9-9.7,11c-1.6,5.3,0.7,10.1-6,12.4c1.4,7.6-25.8-0.9-28,17.4l-0.3,0.4
		c0,2,2.2,3.1-3.8,7.4c-0.2-0.2-2.8-0.4-3.7,0.9c-1.3-1.2-12.4-1.1-9.1,4.1c2.6,0.7-1.8,5.3-6.5,8.6c-0.1,0,0.2-0.1,0.1-0.4
		c-9.3,5.6-9.7,10.4-22.5,7.6c0.2,0.3,3.9-12.9,4.9-8.8c1.3-3-0.8-21.7-8.4-8.3c-4.8-2.9,2.4-1.9,1.5-13.4
		c-10.4-8.8-11.3-6.4-14.9,3.9c-0.6-0.8,0.1-2.5,0.1-3.9c-2.7,2.7-5,6.6-5,11.9c-1.2,5.5,5.9,8.1,0.5,18.3c-9.6,12.6-11.8-17-5.8-28
		c1.1-0.5,0.6-4-0.3-0.9c-0.8-0.1-1.2,1.6-1.4,3.1c-1.4-1.2-1.8,1.7-4,3.2c-1,1,6.7-16.2,6-11.1c5-4.8-0.8,2.8,3.9-1.1
		c1.6-4,10.3-2.2,15.6-3.2c-3.6-6.8-8.9-0.6-7.4-6.3c-6.6,0.4-12.9,7.3-17.7,1c-2.3-0.7-2.6-1.9-4.7,1c-0.3-0.4,0.3-1.2,0-2.2
		c1.2-0.5,1.5-3.2,4-3.9C242,34.2,234,46,226.7,44.2c3.5-6.9-3.8,1.1-7.6-1c1.8-2.3,9.6-9.4,16.2-12c-7.8-1.2-14.2,0.2-20.2-3.2
		c1.3-3.4-7.7,1.5-12.4-3.3c-0.4-1.4,0.1-5.1-2.9-4.7C152.2,30.3,85.3,12.3,31.4,0v0.2c-1.2,0.3,0.9,2.1,0.7,2.5
		c0.2,0.3,0.2,2.5-1,2c0.2-1.1-1.4,0.4,0.1,0.3c1,1-0.2,2.9,1.2,3.9c-0.8,0.4-1.4,1.5-2.2,2.8c0.2,0.8-0.1,2.2-0.9,3.6
		c0,0-0.2-0.1-0.6-0.7c-0.1,0.2-1.5,2.5-2.2,0.8l-0.1,0.4c-0.1,0.1,0.2-0.2-0.4-0.3c-0.1,0.3,0,0.1-0.2,0.9
		c-0.5,0.2,0.4-0.8-0.6-0.6c0.1,0,0,0,0.6-0.5c-0.2-0.1-0.1-0.2-0.9,0.2c0,0-0.1-0.3,0.6-0.6l-0.6-0.2c0,0.2,0-0.5,0.5-0.3l-0.2,0.2
		c0.2,0.1,1.2-0.2,1.7-1.1c0.3,1.3-1.3,2.5,1.2,0.3c0,0.3-1,0.7,0.1,1.2c-0.3-1.3,2.3-1.6,0.1-2.8c0-0.1-0.2-0.1,0-0.5
		c0.7,0.8,0.3,0.1,0.6-0.9c0-0.2,0.1,0.9,0.6,0c0.3,0.7,1-0.7,0-1.7c-0.2,0.1,0.1,0.2-0.1,1.1c0.8-0.6-7.4,3.5-2.6,2.9
		c-3.7,1.1-0.9-1.2,0.8-3.4l0.2,0.4c0-0.1,0.1,0.1,0.2-0.5c0,0.2,0.3,0.2-0.1,0.7c0.7-0.4,1.7-1,1.3-2.8L29,8.2l-0.1-0.3l0.3-0.7
		c0.1-1.2,0.4-1.1-0.7,0.1c0,0,0.4-0.5-0.3-1c-0.1,0,0.1,0.1-0.3,0.4c-0.6-1.7-4.4-1.6-9.4-6c-1.2,3.7,0.9,7.8-0.1,13.1
		c0.6-0.6,0.4-0.6,2,0.5c0.2,0.3-1.6-0.3-1.7,0.7c-0.2,0,0-0.3-0.4-0.7c-0.4,1.3-0.1,1.6,1.2,2.2c-0.1-0.2-0.4,0.4-1,0.5
		c0-0.3,0.6,2.2-0.8,2.2c-0.3,0.3,0.6-1,0.3-2.4c-0.2,0.2-0.5,1.5-0.8,2.9c0.5,0.5,3.5,0.4,3.7,2.1c-0.6-0.8-1.4,0-2.7-0.8
		c0,0,0.1,0.1,0.2,0.5c-0.4,0.3-0.3-0.8-1.2-0.9c0.6,1.9-1.5,3.6-1.1,6.6C12.7,36.1,2.6,49.1,4.7,60.9l-0.2-0.2
		c0.2,1-0.4,1.4-1.1,3.1l-0.2-0.3c0.4,3.9-6.2,2.1-1.6,13.4c-3,4.6,1.5,12,1.8,15.1c0.4,0.4-1.6,2.8,0.1,1.4c0,0.5,0.6,0.9,1.2,1.8
		c1.7,1.5,1.3,1.1,1.9-1.4c-0.1,0-0.1,0-0.2-0.2c1,0,1.4,0.1,2.3,1.5C8.5,95,8.7,95,8,94.8h0.1c-2.1-0.1-0.7,3.4,0.4,5.7
		c-0.5,0.2-3.3-2.3-2-3c-0.1-0.2,0.2-0.6-0.4-0.9c-2.4,2.9-1.1,6.4,2.1,9.8c-5.1,3.9,3.2,11.2,2.8,15.5c4.6,3.8-5.7,6.4,6.6,9.9
		c6.4,5,15.2,11.2,15.3,20.5c-0.6-0.3-0.2-1.1-0.4,0.8c5.4,0.6,11.4,1.3,18.2,2c-4.5,0.7,22.1,19.3,39.7,19.6
		c7.3,2.5,13.1-6.5,22.7-0.1c1.7,4.4,7.1,7.3,10.3,12c1.1,2.2,0,8.8,7.4,12.4c2.9,0.7,2.9,4.5,7.2,0.6c-0.3-0.8,0.8-2,1.2-3.5
		l0.2,0.1c1.6-3.1,5.9-1.2,9.6-0.8C149.6,195.4,149.8,196.1,150.3,195.9z"/>
	<path class="st0" d="M368.1,70.2c-0.4,0.1-0.4,0-1.2-0.1c-0.2-1-0.3,1.1-1.2,1.1C365.3,71.9,367.8,71.2,368.1,70.2z"/>
	<path class="st0" d="M370.9,70.7c-1.8-0.2-0.3,1.1,0.7-0.2c-0.3-0.5-1.3-1-0.5-0.3C371.1,70.3,371.3,70.5,370.9,70.7z"/>
	<polygon class="st0" points="345.9,80.9 345.8,80.8 345.9,80.7 345.8,80.6 345.7,80.7 345.6,81.1 345.5,81.4 345.4,81.8 
		345.5,81.9 345.6,81.9 345.8,81.7 345.8,81.6 345.8,81.5 345.8,81.2 345.9,81.1 	"/>
	<polygon class="st0" points="344.1,84.3 344.4,84.2 344.7,84 344.8,83.7 345,83.5 345.3,83.1 345.4,82.9 345.1,82.5 344.4,82.9 	
		"/>
	<path class="st0" d="M355.4,78l0.2,0.2c-0.1,0,0.1,0.2-0.5,0.3c-0.7-0.8,0.1-1.6,1.4-3.1c-1.8,2.1-6.1,3.1-7.9,4.3
		c0-0.4-1-0.3-0.9,0.7c-0.5-0.8-0.4,1.1-1,0.4c-3.5,3.9,2.3,0.2-0.2,2.3c1.3-0.5,3.3-1.6,4.8-2.7c2.2-0.5,5.5-3.3-0.1,1.1
		c1.9-1.1,12.1-7.6,5.1-4.9C356,76.9,356.1,77.4,355.4,78z"/>
	<path class="st0" d="M28.9,2c0,0,0.1,0.2,0.4,0.6c-0.2,0,0,0.2-0.3,0.7C28.4,3.4,28.1,0.4,28.9,2z"/>
	<path class="st0" d="M29.7,3.8c0-0.4-0.6-0.6,0.3-1.2C29.7,2.9,30.6,3.9,29.7,3.8z"/>
	<path class="st0" d="M30.5,2.1c-0.3,0.1,0.1-0.2-0.4-0.7c0,0.1-0.1,0,0,0.8c-0.3,0.2,0-0.5-0.7-0.2c-0.1-0.3,0.3-0.4,0.7-0.9
		C30.2,1.1,31.5,1.6,30.5,2.1z"/>
	<path class="st0" d="M30,6c0.1-0.1-0.2,0.3,0.5,0.4c-0.9,1.8,3.3,4.8-0.4-0.7c-0.1-0.2,0.3,0.2,0.5-0.4c0.2,0.1,0.2,0.1,0.9,0.1
		c0.2-0.1-0.4-0.5-0.3-0.9C31.2,4.3,29.5,4.6,30,6z"/>
</g>
<g>
	<g>
		<polyline class="st1" points="114.4,142.6 109,143.3 103.6,144.1 98.2,144.7 92.8,145.4 87.4,146 82,146.6 76.6,147.1 71.1,147.6 
			65.6,148.1 60.1,148.5 54.7,148.9 49.1,149.2 43.6,149.5 38.1,149.7 32.6,149.9 		"/>
		<polyline class="st1" points="292.6,137.8 296.7,134.1 300.9,130.3 304.9,126.6 309,122.7 312.9,118.9 316.9,115.1 320.8,111.2 
			324.6,107.3 328.4,103.4 332.2,99.5 335.9,95.6 339.6,91.6 343.3,87.6 346.9,83.6 350.4,79.6 353.9,75.6 357.4,71.5 360.8,67.5 		
			"/>
		<polyline class="st1" points="179.1,191.5 173.8,190.6 168.6,189.6 163.4,188.5 158.1,187.5 152.9,186.4 147.8,185.2 142.6,184.1 
			137.4,182.9 132.3,181.6 127.2,180.3 122,179 116.9,177.7 111.8,176.3 106.8,174.9 101.7,173.5 96.7,172 91.6,170.5 86.6,169 
			81.6,167.4 76.6,165.8 71.7,164.2 66.7,162.5 61.8,160.8 56.9,159.1 52,157.3 47.1,155.5 42.2,153.7 37.4,151.8 32.6,149.9 		"/>
		<polyline class="st1" points="179.1,191.5 173.8,190.3 168.6,189.1 163.4,187.8 158.2,186.5 153.1,185.2 147.9,183.8 142.8,182.4 
			137.7,181 132.6,179.5 127.5,178 122.4,176.5 117.4,174.9 112.4,173.3 		"/>
		<polyline class="st1" points="368.1,66 362.4,66 356.8,65.9 351.1,65.8 345.4,65.7 339.8,65.5 334.2,65.2 328.6,64.9 323,64.6 
			317.4,64.2 		"/>
		<polyline class="st1" points="343.3,46.3 339.1,49 334.9,51.6 330.6,54.2 326.3,56.8 321.9,59.3 317.6,61.9 313.2,64.4 
			308.8,66.8 304.3,69.3 299.9,71.7 295.4,74 290.8,76.4 286.3,78.7 281.7,81 277,83.3 272.4,85.5 267.7,87.7 263,89.9 258.3,92 
			253.5,94.1 248.8,96.2 243.9,98.2 239.1,100.2 234.2,102.2 229.4,104.1 224.4,106 219.5,107.9 214.5,109.7 209.6,111.6 
			204.5,113.3 199.5,115.1 194.4,116.8 189.4,118.4 184.2,120 179.1,121.6 173.9,123.2 168.8,124.7 163.6,126.2 158.3,127.6 
			153.1,129 147.8,130.4 142.5,131.7 137.2,133 131.9,134.3 126.5,135.5 121.1,136.7 115.7,137.8 110.3,138.9 104.9,139.9 99.4,141 
			94,141.9 88.5,142.9 83,143.8 77.4,144.6 71.9,145.4 66.3,146.2 60.7,146.9 55.1,147.6 49.5,148.3 43.9,148.9 38.2,149.4 
			32.6,149.9 		"/>
		<polyline class="st2" points="112.4,173.3 107.3,172.1 102.2,170.9 97.1,169.6 92.1,168.3 87.1,166.9 82,165.6 77,164.1 72,162.7 
			67,161.2 62.1,159.7 57.1,158.2 52.2,156.6 47.2,155 42.3,153.3 37.4,151.7 32.6,149.9 		"/>
		<polyline class="st1" points="112.4,173.3 117.4,174.9 122.4,176.5 127.5,178 132.6,179.5 137.7,181 142.8,182.4 147.9,183.8 
			153.1,185.2 158.2,186.5 163.4,187.8 168.6,189.1 173.8,190.3 179.1,191.5 		"/>
		<polyline class="st1" points="112.4,173.3 108.9,169 105.5,164.6 102.1,160.2 98.8,155.7 95.5,151.3 92.3,146.9 89.1,142.4 
			86,137.9 82.8,133.4 79.8,128.9 76.8,124.4 73.8,119.9 70.8,115.3 67.9,110.8 65.1,106.2 62.3,101.7 59.5,97.1 56.8,92.5 
			54.1,87.9 51.4,83.3 48.8,78.7 46.3,74.1 43.8,69.5 41.3,64.9 38.9,60.2 36.5,55.6 34.1,51 31.8,46.4 29.6,41.7 27.3,37.1 
			25.1,32.5 23,27.8 		"/>
		<polyline class="st1" points="262.8,73 258.4,75.4 254,77.8 249.5,80.2 245,82.5 240.5,84.8 236,87 231.4,89.2 226.8,91.4 
			222.1,93.6 217.5,95.7 212.8,97.9 208.1,99.9 203.3,102 198.5,104 193.7,106 188.9,107.9 184,109.8 179.2,111.7 174.2,113.6 
			169.3,115.4 164.3,117.2 159.4,118.9 154.3,120.6 149.3,122.3 144.2,124 139.2,125.6 134,127.2 128.9,128.7 123.7,130.2 
			118.6,131.7 113.3,133.1 108.1,134.5 102.9,135.8 97.6,137.2 92.3,138.4 87,139.7 81.6,140.9 76.2,142.1 70.9,143.2 65.4,144.3 
			60,145.3 54.6,146.3 49.1,147.3 43.6,148.2 38.1,149.1 32.6,149.9 		"/>
		<polyline class="st1" points="352.3,69.8 347.8,72.1 343.4,74.4 338.9,76.7 334.4,78.9 329.8,81.1 325.3,83.3 320.7,85.4 
			316.1,87.5 311.4,89.6 306.8,91.6 302.1,93.6 297.4,95.6 292.7,97.6 287.9,99.5 283.2,101.4 278.4,103.2 273.6,105 268.7,106.8 
			263.9,108.6 259,110.3 254.1,112 249.2,113.6 244.2,115.3 239.3,116.8 234.3,118.4 229.3,119.9 224.3,121.4 219.2,122.8 
			214.2,124.2 209.1,125.6 204,127 198.9,128.3 193.7,129.5 188.6,130.8 183.4,132 178.2,133.1 173,134.2 167.8,135.3 162.6,136.4 
			157.3,137.4 152,138.4 146.8,139.3 141.4,140.2 136.1,141.1 130.8,141.9 125.5,142.7 120.1,143.4 114.7,144.1 109.3,144.8 
			103.9,145.4 98.5,146 93.1,146.6 87.6,147.1 82.2,147.5 76.7,148 71.2,148.4 65.7,148.7 60.2,149 54.7,149.3 49.2,149.5 
			43.7,149.7 38.1,149.8 32.6,149.9 		"/>
		<line class="st1" x1="110.4" y1="168" x2="112.4" y2="173.3"/>
		<polyline class="st1" points="173.9,228.3 169.9,224.5 165.8,220.7 161.9,216.9 157.9,213 154,209.1 150.1,205.2 146.3,201.3 
			142.5,197.3 138.7,193.4 135,189.4 131.3,185.4 127.7,181.3 124.1,177.3 120.5,173.2 117,169.2 113.5,165.1 110.1,160.9 
			106.6,156.8 103.3,152.7 100,148.5 96.7,144.3 93.4,140.1 90.2,135.9 87.1,131.7 83.9,127.5 80.8,123.3 77.8,119 74.8,114.7 
			71.8,110.5 68.9,106.2 66,101.9 63.2,97.6 60.4,93.3 57.6,88.9 54.9,84.6 52.2,80.3 49.5,75.9 46.9,71.6 44.4,67.2 41.8,62.9 
			39.3,58.5 36.9,54.1 34.5,49.7 32.1,45.4 29.8,41 27.5,36.6 25.2,32.2 23,27.8 		"/>
		<polyline class="st1" points="248.1,73.3 244.5,76.7 240.8,80.2 237,83.6 233.3,87 229.4,90.4 225.6,93.8 221.7,97.2 217.8,100.5 
			213.8,103.8 209.8,107.1 205.7,110.4 201.7,113.6 197.5,116.8 193.4,120 189.2,123.2 185,126.4 180.7,129.5 176.4,132.6 
			172,135.7 167.7,138.8 163.3,141.8 158.8,144.8 154.3,147.8 149.8,150.8 145.2,153.7 140.6,156.6 136,159.4 131.4,162.3 
			126.7,165.1 121.9,167.9 117.2,170.6 112.4,173.3 		"/>
		<polyline class="st1" points="21,133.6 20.9,128.3 20.9,123 20.9,117.6 20.8,112.3 20.9,107 20.9,101.6 20.9,96.3 21,91 
			21.1,85.7 21.1,80.4 21.3,75.1 21.4,69.8 21.5,64.5 21.7,59.2 21.9,54 22.1,48.7 22.3,43.5 22.5,38.3 22.7,33 23,27.8 		"/>
		<polyline class="st1" points="23,27.8 25.1,32.5 27.3,37.1 29.6,41.7 31.8,46.4 34.1,51 36.5,55.6 38.9,60.2 41.3,64.9 43.8,69.5 
			46.3,74.1 48.8,78.7 51.4,83.3 54.1,87.9 56.8,92.5 59.5,97.1 62.3,101.7 65.1,106.2 67.9,110.8 70.8,115.3 73.8,119.9 
			76.8,124.4 79.8,128.9 82.8,133.4 86,137.9 89.1,142.4 92.3,146.9 95.5,151.3 98.8,155.7 102.1,160.2 105.5,164.6 108.9,169 
			112.4,173.3 		"/>
		<polyline class="st1" points="360.8,67.5 356,69.2 351.1,71 346.3,72.6 341.4,74.3 336.5,75.9 331.6,77.4 326.7,79 321.8,80.5 
			316.8,81.9 311.9,83.4 306.9,84.8 301.9,86.1 296.9,87.4 291.9,88.7 286.8,90 281.8,91.2 276.7,92.4 271.7,93.5 266.6,94.6 
			261.5,95.6 256.4,96.7 251.2,97.7 246.1,98.6 241,99.5 235.8,100.4 230.6,101.2 225.5,102 220.3,102.8 215.1,103.5 209.9,104.2 
			204.6,104.8 199.4,105.4 194.2,106 188.9,106.5 183.7,107 178.4,107.5 173.2,107.9 167.9,108.2 162.6,108.6 157.3,108.9 
			152,109.1 146.7,109.3 141.4,109.5 136.1,109.6 130.8,109.7 125.5,109.8 120.1,109.8 114.8,109.8 109.5,109.7 104.1,109.6 
			98.8,109.4 93.4,109.2 88.1,109 82.7,108.7 77.4,108.4 72,108.1 66.7,107.7 61.3,107.3 56,106.8 50.6,106.3 45.2,105.7 
			39.9,105.1 34.5,104.5 29.2,103.8 23.8,103.1 18.4,102.4 13.1,101.6 7.7,100.7 		"/>
		<polyline class="st1" points="320.9,131.4 315.8,132.7 310.8,134 305.8,135.3 300.7,136.5 295.6,137.6 290.5,138.8 285.4,139.9 
			280.3,141 275.2,142 270.1,143 265,143.9 259.8,144.9 254.7,145.8 249.5,146.6 244.3,147.4 239.1,148.2 233.9,149 228.7,149.7 
			223.5,150.3 218.3,151 213.1,151.6 207.8,152.2 202.6,152.7 197.3,153.2 192.1,153.6 186.8,154 181.6,154.4 176.3,154.8 
			171,155.1 165.7,155.4 160.4,155.6 155.1,155.8 149.8,155.9 144.5,156.1 139.2,156.2 133.9,156.2 128.6,156.2 123.3,156.2 
			117.9,156.1 112.6,156 107.3,155.9 102,155.7 96.6,155.5 91.3,155.2 86,154.9 80.6,154.6 75.3,154.2 69.9,153.8 64.6,153.4 
			59.3,152.9 53.9,152.4 48.6,151.8 43.2,151.2 37.9,150.6 32.6,149.9 		"/>
		<polyline class="st1" points="317.4,64.2 312,64.7 306.6,65.2 301.2,65.6 295.8,66 290.4,66.4 285,66.7 279.5,67 274.1,67.2 
			268.7,67.4 263.3,67.5 258,67.6 252.6,67.7 247.2,67.7 241.8,67.6 236.4,67.6 231,67.4 225.6,67.3 220.3,67 214.9,66.8 
			209.5,66.5 204.2,66.2 198.8,65.8 193.5,65.3 188.2,64.9 182.8,64.4 177.5,63.8 172.2,63.2 166.9,62.6 161.6,61.9 156.3,61.2 
			151,60.4 145.8,59.6 140.5,58.7 135.3,57.8 130,56.9 124.8,55.9 119.6,54.9 114.4,53.8 109.2,52.7 104,51.6 98.8,50.4 93.7,49.2 
			88.5,47.9 83.4,46.6 78.3,45.3 73.2,43.9 68.1,42.5 63,41 58,39.5 52.9,37.9 47.9,36.4 42.9,34.7 37.9,33.1 32.9,31.4 27.9,29.6 
			23,27.8 		"/>
		<polyline class="st2" points="32.6,149.9 37.4,151.7 42.3,153.3 47.2,155 52.2,156.6 57.1,158.2 62.1,159.7 67,161.2 72,162.7 
			77,164.1 82,165.6 87.1,166.9 92.1,168.3 97.1,169.6 102.2,170.9 107.3,172.1 112.4,173.3 		"/>
		<polyline class="st1" points="32.6,149.9 37.4,151.8 42.2,153.7 47.1,155.5 52,157.3 56.9,159.1 61.8,160.8 66.7,162.5 
			71.7,164.2 76.6,165.8 81.6,167.4 86.6,169 91.6,170.5 96.7,172 101.7,173.5 106.8,174.9 111.8,176.3 116.9,177.7 122,179 
			127.2,180.3 132.3,181.6 137.4,182.9 142.6,184.1 147.8,185.2 152.9,186.4 158.1,187.5 163.4,188.5 168.6,189.6 173.8,190.6 
			179.1,191.5 		"/>
		<polyline class="st1" points="7.7,100.7 10,105.7 12.4,110.6 14.7,115.6 17.1,120.5 19.6,125.4 22.1,130.3 24.7,135.3 27.2,140.2 
			29.9,145.1 32.6,149.9 		"/>
		<polyline class="st1" points="15.5,129.1 15.8,123.7 16,118.4 16.3,113 16.7,107.6 17,102.2 17.3,96.9 17.7,91.5 18,86.2 
			18.4,80.8 18.8,75.5 19.2,70.1 19.7,64.8 20.1,59.5 20.6,54.2 21,48.9 21.5,43.6 22,38.3 22.5,33.1 23,27.8 		"/>
		<polyline class="st1" points="78,164.1 72.9,162.7 67.8,161.2 62.8,159.7 57.7,158.2 52.6,156.6 47.6,155 42.6,153.3 37.6,151.7 
			32.6,149.9 		"/>
	</g>
	<ellipse class="st3" cx="173.8" cy="228.9" rx="3.6" ry="3.6"/>
	<ellipse class="st3" cx="179.4" cy="192" rx="3.6" ry="3.6"/>
	<ellipse class="st3" cx="248.3" cy="73.5" rx="3.6" ry="3.6"/>
	<ellipse class="st3" cx="263.3" cy="72.8" rx="3.6" ry="3.6"/>
	<ellipse class="st3" cx="317.2" cy="64" rx="3.6" ry="3.6"/>
	<ellipse class="st3" cx="352.1" cy="69.9" rx="3.6" ry="3.6"/>
	<ellipse class="st3" cx="321.1" cy="131.8" rx="3.6" ry="3.6"/>
	<ellipse class="st3" cx="292.7" cy="137.7" rx="3.6" ry="3.6"/>
	<ellipse class="st3" cx="361.1" cy="68" rx="3.6" ry="3.6"/>
	<ellipse class="st3" cx="368.1" cy="65.6" rx="3.6" ry="3.6"/>
	<ellipse class="st3" cx="343.2" cy="46.5" rx="3.6" ry="3.6"/>
	<ellipse class="st3" cx="112" cy="173.3" rx="3.6" ry="3.6"/>
	<ellipse class="st3" cx="110.1" cy="167.3" rx="3.6" ry="3.6"/>
	<ellipse class="st3" cx="114.3" cy="142.8" rx="3.6" ry="3.6"/>
	<ellipse class="st3" cx="78.2" cy="164" rx="3.6" ry="3.6"/>
	<ellipse class="st3" cx="32.4" cy="149.7" rx="3.6" ry="3.6"/>
	<ellipse class="st3" cx="20.9" cy="133.4" rx="3.6" ry="3.6"/>
	<ellipse class="st3" cx="15.4" cy="129" rx="3.6" ry="3.6"/>
	<ellipse class="st3" cx="7.7" cy="100.4" rx="3.6" ry="3.6"/>
	<ellipse class="st3" cx="23.4" cy="27.5" rx="3.6" ry="3.6"/>
</g>
</svg>
