<?xml version="1.0" encoding="utf-8"?>
<!-- Generator: Adobe Illustrator 23.1.1, SVG Export Plug-In . SVG Version: 6.00 Build 0)  -->
<svg version="1.1" id="Layer_1" xmlns="http://www.w3.org/2000/svg" xmlns:xlink="http://www.w3.org/1999/xlink" x="0px" y="0px"
	 viewBox="0 0 382.1 232.2" style="enable-background:new 0 0 382.1 232.2;" xml:space="preserve">
<style type="text/css">
	.st0{fill:#707589;}
	.st1{fill:none;stroke:#FFFFFF;stroke-linejoin:round;stroke-miterlimit:10;enable-background:new    ;}
	.st2{fill:none;stroke:#FFFFFF;stroke-linejoin:round;stroke-miterlimit:10;}
	.st3{fill:#FFFFFF;}
	.st4{font-family:'ArialMT';}
	.st5{font-size:4.8336px;}
	.st6{fill:none;stroke:#FFFFFF;stroke-linecap:round;stroke-linejoin:round;stroke-miterlimit:10;}
	.st7{font-size:3.18px;}
</style>
<g id="map">
	<path class="st0" d="M40.2,210.7c0.8,1.4,0.6,2.2-1.1,2.8c-1.1,0.4-2.1,1.3-3.1,1.9c-0.6,0.4-1.3,0.6-2.1,1c0.3-2.7,0-5.2,2.5-6.8
		c-1.6,0.1-2.3,0.8-3.3,2.7c-0.7,1.3-1.7,2.5-2.6,4c0.2,0.2,0.7,0.5,1.4,1.1c-4.2,4.5-8.7,8.4-14.2,11.4c-0.6-0.7-1.5-0.5-2.8,0.2
		c-1.5,0.9-3.5,1.2-5.2,1.7c-0.1-0.3-0.3-0.5-0.4-0.8c0.8-0.5,1.7-0.9,2.5-1.4c0.8-0.4,1.7-0.8,2.6-1.2c0.6-0.3,1-1,1.6-1
		c2.9-0.3,4.8-2.2,6.6-4.1c1-1.1,1.4-2.6,2.4-4.5c-1.5,0.2-2.3,0.3-3.5,0.4c-1.2-1.4-1.3-2-4.6-0.6c0-1.6,0-3.1,0-4.7
		c-3.4,0.6-4.2-0.2-4.6-3.6c-0.2-1.4-1.5-2.7-0.2-4.3c0.8-0.9,1.3-2.1,2.2-2.8c0.5-0.4,1.6-0.3,2.4-0.1c1.1-0.5,2.6-0.7,3.2-1.5
		c0.6-0.7,0.2-2.2,0.3-3.1c-1.6,0-3.4,0-5.2,0c-1.4,0-2.3-0.6-2.5-2.2c-0.1-0.9-0.8-1.7-1.4-2.8c1.9-0.7,3.8-1.5,6-2.4
		c0.2,2.3,1.3,2.8,3.3,2.1c-1.6-2.3-3.2-4.5-4.6-6.7c-0.3-0.5-0.7-1.3-0.5-1.7c0.3-0.5,1.1-0.8,1.7-1.1c0.7-0.3,1.9-0.3,2.1-0.7
		c0.9-2.2,2.6-3.2,4.5-4.1c1.3-0.6,2.7-1.1,4.6-1.8c1.3,0.6,3,1.9,4.9,2.3c2.8,0.6,5.8,0.9,8.7,0.7c2.2-0.1,4,0.5,4.5,2.8
		c1.9,9.4,3.8,18.8,5.7,28.5c0.9-0.2,1.8-0.5,2.4-0.6c1.5,1.2,2.9,2.3,4.3,3.3c0.9-1.1,1.7-2.9,2.5-2.9c1.1,0,2.2,1.3,3.2,2.1
		c1.1,0.8,2.2,1.6,3.1,2.6c1.6,1.7,3.2,3.3,5.8,3.6c1.6,0.2,2.2,2.7,1.3,4.8c-0.8,0.2-2.5-2-2.6,0.8c0,0-1.8,0.4-2.3,0
		c-1.4-1.3-2.5-2.8-3.8-4.4c-0.2,0.6-0.3,0.9-0.4,1.5c-1.2-1.3-2.1-2.6-3.3-3.5c-2.1-1.6-4.3-3.1-6.5-4.5c-2.5-1.5-5.3-1.4-8.2-1.2
		c-1.5,0.1-3.1-1-4.7-1.6c-0.7-0.2-1.5-0.3-2.3-0.5C40.3,210.2,40.3,210.5,40.2,210.7z"/>
	<path class="st0" d="M32.9,218.5c0.2,0.2,0.5,0.3,0.6,0.5c0.7,1.4-1.4,5-2.9,5.1c-0.4,0-1.1-0.4-1.3-0.8c-0.2-0.4-0.2-1.2,0-1.6
		c0.9-1,2-1.9,3-2.8C32.4,218.7,32.7,218.7,32.9,218.5z"/>
	<path class="st0" d="M8.9,200c-1.9,0.6-4.2-0.7-4.9-2.8C5.8,198.3,7.2,199,8.9,200z"/>
	<path class="st0" d="M8.4,210.3c0.9,0.2,1.8,0.3,2.7,0.5c-0.1,0.4-0.2,0.9-0.4,1.3c-0.8-0.2-1.7-0.5-2.5-0.7
		C8.3,211.1,8.4,210.7,8.4,210.3z"/>
	<path class="st0" d="M117,231.5c-1-0.2-2.3-0.7-1.7-2.9c0.1-0.5-0.1-1.1-0.4-1.6c-0.7-1.5-1.3-2.8,0.2-4.3c0.6-0.6,0.3-2,0.5-3.2
		c3.9,1.1,7.2,2.9,9.1,7.2C122.6,228.1,120.2,229.6,117,231.5z"/>
	<path class="st0" d="M111.5,216.8c-0.2-0.2-0.6-0.4-0.9-0.7c-0.5-0.5-1-1.1-1.5-1.7c-0.2-0.3-0.3-0.8-0.4-1.2
		c0.4-0.1,0.9-0.3,1.3-0.2c1.1,0.2,2.2,0.5,3.2,0.9c0.5,0.2,0.8,0.9,1.2,1.3c-0.5,0.4-1,0.8-1.5,1.1
		C112.5,216.5,112.1,216.6,111.5,216.8z"/>
	<path class="st0" d="M86.5,202.9c-1,0.7-1.7,1.6-2.3,1.5c-0.8-0.1-1.6-0.9-2.4-1.5c1-0.6,1.9-1.3,3-1.7
		C85.1,201.2,85.7,202.1,86.5,202.9z"/>
	<path class="st0" d="M97.9,206.1c0.1,1.3,0.4,2.3,0.2,3.2c0,0.3-1.3,0.8-1.5,0.6c-0.7-0.6-1.3-1.4-2-2.3
		C95.8,207.1,96.6,206.8,97.9,206.1z"/>
	<path class="st0" d="M150.2,196.1c0.5-0.4-0.2,1.2,0.8,0.9c-0.1,0.1-0.1,1.4,0.3,0.3c1,1.9,3.9,3.5,5,7c0.2,5.5,7.8,9.6,7.7,14.8
		c1.6,6,6,11.9,13.8,11.8c1,0.1,1.7,1.3,3.6,1.2h-0.1c1,0.7,2.2-1.9,1.6-0.6c-0.2-0.1-0.1-0.4-0.6,0.1c-0.4-2.4-2.6-5.3-1.8-11.4
		c-1.2,1.3-3.9-4-0.9-0.5l-0.1-0.3c0.6-0.2,1.7-1.3,0.5,0.2c0.9,0.7,2-1.9,2.2-3.6c-0.8,0.9-0.5-0.2-0.9-1.3
		c-0.1,0.1-0.7,0.4-1.2-0.4c1.1-0.6,5.2,2.4,2.5-1.8c0.1,0.1,1-0.4,0.4-0.8c1.3,1.1,2.8-2.3,2.2,0.4c1.7,0,0.3-3,1.2-2.3
		c-2.2-1.1,5.6,1,1.7-0.8c0.1-0.2-0.2-0.1,0.6-0.5c-0.4-0.8-1.2,0.2-1.2-1.6c0.1,0.3,0.6-0.5,0.7,0.5l0.3-0.2c0-0.2,0.2,1.3,0.5,0.2
		c-0.1-0.1,0.4,0.4-0.2,0.7c0.3,0.2-0.1,0.1,0.8-0.3c0.3,0.2-0.8-0.7-0.1-1.1c-0.1,0.3,0.6,1.6,1,0c0,0.1,0,0,0.1,0.4
		c0.1,0,0.1-0.1,0.5-0.6c0,0.2,0-0.1-0.2,1.1c-0.1-0.1,1.1,0.2-0.1,0.2c3.5-0.5,5.2-2.3-1,1.8c1.3-0.8,6.7-2.8,9.8-6.1
		c-2-0.5,3,0,1.3-5.9l-0.1,0.1c5.8-1.4-0.9,0.8,3.9,1.7c-5.2,3.1,3.3-1.8,7.6-2.2c2.3-1.5,11.2,4.6,11.4,0.5
		c1.5-5.5,7.3,7.2,12.5,3.8c-0.3-3.2,4.5,5.4,4.1-2.6c1.5-0.2,1.3,2,3,1.4c2.4,1.7,3.7,4,4.8,1.2c0.6-1.1-4.3-0.9-4.6-3.9
		c1.5-1.2,3.2-2.2,3.2-4.4c0.4-1.8-7.2,4-4.2,0.6c0-0.3,0.7-1.8-0.2-0.7c-0.1-0.1-0.1,0-0.1-0.4c-1.7,2.6-10.1-0.2-2.5-1.4
		c1.3,0.7,3.9,2.4,5.6-0.1c2.5-2.4,10.1,2.1,10.2-4.9c2.9,2.8-1.7,7.8,4.5,3.4c-1.3,1.5,3-0.2,1.9-2c0.9,1,3.6-0.3,0.3,1.9
		c1.6-1.1,12.6-2.1,5.2-1c0.6-0.2,7,2.9,5.9,1.1c-1,0.7-0.8-1,0.8-0.1c-0.1,0.2,0.1,0.2-0.3,0.6c-0.7,0.8,2-0.4,3.4,4.1
		c-0.5,0.2-0.5,0-0.6-1.6c-1.5,2.9,2.7,1.3,4.2,0.5c-1.3,1,5.7-2.1,3.4-2c0.3-0.3,0.5-0.6,1.1-1.3c1-2,14.2,7.9,14.5,11.3
		c0.3,2-2.4,8.9,1.1,8.6c-2.3-5.7,1.2,0,1.1-1.6c2.5-1.4-2.2,4.3-0.4,4.4c1.1,1,1.7,5.3,4.3,5.1c-1.7-1.6,1.1-1.7,0.4-1.1
		c0.6,3.1,0.8,3.1,4.6,8.7c0.1-1.1,11.2,7.4,4.9,5c0.1,2.9,4.5-0.1,6.2-0.1c0.8-1.7,0.2-3.9,1.5-6c1.6-11.8-13-29.4-17.3-42.2
		c0.1,0.4,1.2-6,0.3-2.9c-1.6-1.9,1,0.1-0.2-2.7c0.8,0,0.6-0.9,1.4-0.9c0.8-0.9-1.4-1.7,0.5-1.6c0.3-0.6,0.1-1-0.5-1.5
		c1.4-1.9,3.9-3.7,2-6.9c2.2,2.1,1.6,0.4,2.8-0.9v0.1c0.3-0.4,1.8,0.2,1.6-1.2c-0.4,0.7,7.6-5,6.2-8.1c0.8,2.2,1.1-4.1,4.9-5.3
		c0.8-1.4,4.2,0.4,3.9-2.7c0.3,3.3,3.1-8.4,3.7-5.8c-1,1.4,2.4,0.2,1.1-1.4c0.2,1.1,3.4,0,3-0.4c0.2-0.5,0.3-0.5,1,0.1
		c0.2-0.3,0.8-0.1,2-2c0.3-0.2-1.5-1.5-1.4-0.5c-1.5-0.4,0.6,0.9-1.2,0.4c0.1,0,0.6,0.6,0,0.5c-0.4-1.2-0.2,1.4-3.4-1.1
		c-0.4-2.1,3.3,3.7,3.6-2.1c1.7-0.4-1.4-1-2.1-0.8c-3.5-1.9,1.2,0.5,1.4-1.3c-1.2-0.4,0.2-0.6,1-0.8c-1.4,1.9,0.2,0.9,1.6,1.6
		c1.3-0.3,1.7-0.8,2.5-2.9c1.1,1.1,0.5-0.8,1-1c-0.5-0.7,0.2-1.5-1.5-2.2c0.2,0.2-0.4,0.1-0.1,0.6c-1.5-0.6,0.6,3.6-1.6,2.2
		c0.9,0.3,0.6-1.5,0.2-2.3c-0.8-1.9-5.3,4.7-5.6-2.7c0.5-0.1,1.2,4.9,2.4,2c1.1-0.3,0.6-1.4,2-0.7c0.8-0.6,0.8-0.5-0.4-1.4
		c0.8-0.4,2.4,1.6,1.4-0.4c0.7-0.1,0.6,1.1,1.6,1.6c0.1-1.2-4.5-5.1-1.7-3.5c0.1,0-1-2.6,0.2-0.6c-1.2-0.6,6.4,10.3,2.7,4.5
		c-1.9-1.4-2.8-10.6-7.4-6.5c-0.1-1.9-5.1-2.1-3.5-3.4c1.3,0.5,2.7,2.5,4.6,1.9c0-0.1,0.2-1-0.5-0.6v-0.1l0,0
		c0.6-0.7-4.2-1.5-3.8-3.2c3.1,3.7,1.9-0.2,3.9,1.1c-0.2-2.6-2.1-1.1-5.9-5.5c3.9,4.3,8.3,1.8,1.9-1.1c-1.1-0.2-2.6-0.3-3.4-2
		c-0.5-1.5,1.4,0.9,4.5,1.4c2.4,1,0.4-0.9-1.9-2.8c4.3,2,0.3,0.8,0.3-4.8c1,0,0.3-1.1-1.2-2.2c1.3-0.1,0.9,0.1,1.8-0.9
		c-0.6-1,0.9,0,0.8-1c1.2-0.1-0.3-1.5,1.4-1.9c0.1,0-0.1,0.4,0,1c0.6-1.2,1.2,0.6-0.9,1.6c-0.7,2.4,1.7,2.8-0.2,5.5
		c0.7-0.5,0.8,0.7,1.6-0.3c0.9,2.6-0.5-0.1-0.7,1.9c2-0.5-2.4,0.4,2,2.5c0-2.3,0.4,1.1,0.9-1.1c0.5,0.4,0.4,3.9,1.8,3.2
		c1.3-0.9-0.3,1.8-0.4,3.2c-0.7,0.6-0.5,7.8,0.8,2.1c0.5-6.2,5.4-5.7,2-11.9c0,0,1.3-0.2,0.3-0.6c0,0,0.3,0,0.2-0.4
		c2.9,1.9-6.4-5.9-4.5-8.3c-0.2,4.1,5.8,2.2,5.5,5.9c1.7-3.5,3.9-6.4,3.7-11.1c0.3,0.2,0.2,0.9,0.5,2.3c-0.1-1.2,0.6-4.4-0.8-6.3
		c0,0.2-0.1,0.1,0.1,0.6c-0.3-0.2-1.2,0.2-2-0.3c1.7-0.6,0.4-2.4,1.7-4.2l0.3,0.8c-0.1-0.1-0.1,0-0.2-0.3l0.7,0.2
		c-0.5-0.7,0.7-0.8,0.6-2.1c1.3,0.3,4-3.6,4.8-3.1c0.8-0.7,3.2-0.2,3.4-1.5c1.1,0.6,1.3-0.3,3.4-0.9v0.3c0.5-0.3,1.1-0.4,2.2-1.6
		c0.1,1.1,0.6-4.7,0.9-0.6c0.7,1.2,0.6-1.5,1-0.3c0.1,0,0.3-0.4,0.6-0.9c-0.1,0.1,0.7,0.7,0.6,0c0.5,0.4,2-5.2,2.2-0.7
		c2.3-0.5,7.6-5,1.8-5c4.7,0.1-1.1,5.9-2.5,0.8c-0.4-0.7-1-1.5-2.5-2c0.4,1.4-1.9,0-0.9-0.6c2.7-5.6,0.4,1.2,0.2-6.7
		c1.7-0.6,0.8-7.3,3.3-7.7c1.1-1.4-0.2,2.5,2.1-1.6c1.5,1.1,0.1-0.9,2.2-1.2c0,3.5,1.6-9.1,1.8-4.4c0.2,0.2,0.4-0.9,0.8,0.1
		c0.1,0.1-1-0.3-0.5,0.4c-0.9,0.1,0.9,0.6,1.1,0.4c0.6,0.2,0.8-0.1,0.1-1.1c0.3-0.2,0.5-0.3,0.6-1.1c0.1,0.5,0.9,1.1,0.9-0.4
		c0.6,0.4,1.2-0.8,1.9,1.1c0.2-0.3,0.3-0.6,0.2-1.5c0.4,0.8,0.9,0.3,0.7-0.9c0.4-0.2,2,0.7,1.6-1.1c0,0.1,0.1-0.1,0.5,0.1
		c-0.1,0.2,0.3-1.1,0.3-0.1c0.5,0.3,0-2,0.8-0.6c0.6,0,1.2-1,1.4-2.2c-2.5,0.6,0.8-2-2.5-2.7c-1.6,2-0.7-3.1-3.9-3.4
		c-3.1-1.4-0.4-11.3-6.8-13.4c-7.4,6.9-5.7-9-9.7,11c-1.6,5.3,0.7,10.1-6,12.4c1.4,7.6-25.8-0.9-28,17.4l-0.3,0.4
		c0,2,2.2,3.1-3.8,7.4c-0.2-0.2-2.8-0.4-3.7,0.9c-1.3-1.2-12.4-1.1-9.1,4.1c2.6,0.7-1.8,5.3-6.5,8.6c-0.1,0,0.2-0.1,0.1-0.4
		c-9.3,5.6-9.7,10.4-22.5,7.6c0.2,0.3,3.9-12.9,4.9-8.8c1.3-3-0.8-21.7-8.4-8.3c-4.8-2.9,2.4-1.9,1.5-13.4
		c-10.4-8.8-11.3-6.4-14.9,3.9c-0.6-0.8,0.1-2.5,0.1-3.9c-2.7,2.7-5,6.6-5,11.9c-1.2,5.5,5.9,8.1,0.5,18.3c-9.6,12.6-11.8-17-5.8-28
		c1.1-0.5,0.6-4-0.3-0.9c-0.8-0.1-1.2,1.6-1.4,3.1c-1.4-1.2-1.8,1.7-4,3.2c-1,1,6.7-16.2,6-11.1c5-4.8-0.8,2.8,3.9-1.1
		c1.6-4,10.3-2.2,15.6-3.2c-3.6-6.8-8.9-0.6-7.4-6.3c-6.6,0.4-12.9,7.3-17.7,1c-2.3-0.7-2.6-1.9-4.7,1c-0.3-0.4,0.3-1.2,0-2.2
		c1.2-0.5,1.5-3.2,4-3.9c-4.4-1.7-12.4,10.1-19.7,8.3c3.5-6.9-3.8,1.1-7.6-1c1.8-2.3,9.6-9.4,16.2-12C227.4,30,221,31.4,215,28
		c1.3-3.4-7.7,1.5-12.4-3.3c-0.4-1.4,0.1-5.1-2.9-4.7C152.1,30.3,85.2,12.3,31.3,0v0.2c-1.2,0.3,0.9,2.1,0.7,2.5
		c0.2,0.3,0.2,2.5-1,2c0.2-1.1-1.4,0.4,0.1,0.3c1,1-0.2,2.9,1.2,3.9c-0.8,0.4-1.4,1.5-2.2,2.8c0.2,0.8-0.1,2.2-0.9,3.6
		c0,0-0.2-0.1-0.6-0.7c-0.1,0.2-1.5,2.5-2.2,0.8l-0.1,0.4c-0.1,0.1,0.2-0.2-0.4-0.3c-0.1,0.3,0,0.1-0.2,0.9
		c-0.5,0.2,0.4-0.8-0.6-0.6c0.1,0,0,0,0.6-0.5c-0.2-0.1-0.1-0.2-0.9,0.2c0,0-0.1-0.3,0.6-0.6l-0.6-0.2c0,0.2,0-0.5,0.5-0.3l0.3-0.5
		c0.2,0.1,1.2-0.2,1.7-1.1c0.3,1.3-1.3,2.5,1.2,0.3c0,0.3-1,0.7,0.1,1.2c-0.3-1.3,2.3-1.6,0.1-2.8c0-0.1-0.2-0.1,0-0.5
		c0.7,0.8,0.3,0.1,0.6-0.9c0-0.2,0.1,0.9,0.6,0c0.3,0.7,1-0.7,0-1.7c-0.2,0.1,0.1,0.2-0.1,1.1c0.8-0.6-7.4,3.5-2.6,2.9
		c-3.7,1.1-0.9-1.2,0.8-3.4l0.2,0.4c0-0.1,0.1,0.1,0.2-0.5c0,0.2,0.3,0.2-0.1,0.7c0.7-0.4,1.7-1,1.3-2.8l-0.2,0.7l-0.1-0.3l-0.1,0.2
		c0.1-1.2,0.4-1.1-0.7,0.1c0,0,0.4-0.5-0.3-1c-0.1,0,0.1,0.1-0.3,0.4c-0.6-1.7-4.4-1.6-9.4-6c-1.2,3.7,0.9,7.8-0.1,13.1
		c0.6-0.6,0.4-0.6,2,0.5c0.2,0.3-1.6-0.3-1.7,0.7c-0.2,0,0-0.3-0.4-0.7c-0.4,1.3-0.1,1.6,1.2,2.2c-0.1-0.2-0.4,0.4-1,0.5
		c-0.1-0.3,0.6,2.2-0.9,2.2c-0.3,0.3,0.6-1,0.3-2.4c-0.2,0.2-0.5,1.5-0.8,2.9c0.5,0.5,3.5,0.4,3.7,2.1c-0.6-0.8-1.4,0-2.7-0.8
		c0,0,0.1,0.1,0.2,0.5c-0.4,0.3-0.3-0.8-1.2-0.9c0.6,1.9-1.5,3.6-1.1,6.6C12.6,36.3,2.5,49.3,4.6,61.1l-0.1-0.2
		c0.2,1-0.4,1.4-1.1,3.1l-0.2-0.2c0.4,3.9-6.2,2.1-1.6,13.4c-3,4.6,1.5,12,1.8,15.1c0.4,0.4-1.6,2.8,0.1,1.4c0,0.5,0.6,0.9,1.2,1.8
		C6.4,97,6,96.6,6.6,94.1c-0.1,0-0.1,0-0.2-0.2c1,0,1.4,0.1,2.3,1.5c-0.2-0.1,0-0.1-0.7-0.3h0.1C6,95,7.4,98.5,8.5,100.8
		c-0.5,0.2-3.3-2.3-2-3c-0.1-0.2,0.2-0.6-0.4-0.9c-2.4,2.9-1.1,6.4,2.1,9.8c-5.1,3.9,3.2,11.2,2.8,15.5c4.6,3.8-5.7,6.4,6.6,9.9
		c6.4,5,15.2,11.2,15.3,20.5c-0.6-0.3-0.2-1.1-0.4,0.8c5.4,0.6,11.4,1.3,18.2,2c-4.5,0.7,22.1,19.3,39.7,19.6
		c7.3,2.5,13.1-6.5,22.7-0.1c1.7,4.4,7.1,7.3,10.3,12c1.1,2.2,0,8.8,7.4,12.4c2.9,0.7,2.9,4.5,7.2,0.6c-0.3-0.8,0.8-2,1.2-3.5
		l0.2,0.1c1.6-3.1,5.9-1.2,9.6-0.8C149.6,195.6,149.7,196.3,150.2,196.1z"/>
	<path class="st0" d="M368,70.4c-0.4,0.1-0.4,0-1.2-0.1c-0.2-1-0.3,1.1-1.2,1.1C365.2,72.1,367.8,71.3,368,70.4z"/>
	<path class="st0" d="M370.9,70.9c-1.8-0.2-0.3,1.1,0.7-0.2c-0.3-0.5-1.3-1-0.5-0.3C371,70.5,371.2,70.7,370.9,70.9z"/>
	<polygon class="st0" points="345.9,81.1 345.8,81 345.8,80.9 345.8,80.8 345.6,80.9 345.6,81.3 345.4,81.6 345.4,82 345.4,82.1 
		345.5,82.1 345.7,81.9 345.7,81.8 345.7,81.7 345.8,81.4 345.8,81.3 	"/>
	<polygon class="st0" points="344.1,84.5 344.4,84.4 344.7,84.2 344.8,83.9 345,83.7 345.2,83.3 345.3,83.1 345,82.7 344.3,83.1 	
		"/>
	<path class="st0" d="M355.4,78.2l0.2,0.2c-0.1,0,0.1,0.2-0.5,0.3c-0.7-0.8,0.1-1.6,1.4-3.1c-1.8,2.1-6.1,3.1-7.9,4.3
		c0-0.4-1-0.3-0.9,0.7c-0.5-0.8-0.4,1.1-1,0.4c-3.5,3.9,2.3,0.2-0.2,2.3c1.3-0.5,3.3-1.6,4.8-2.7c2.2-0.5,5.5-3.3-0.1,1.1
		c1.9-1.1,12.1-7.6,5.1-4.9C355.9,77.1,356,77.6,355.4,78.2z"/>
	<path class="st0" d="M28.8,2.2c0,0,0.1,0.2,0.4,0.6c-0.2,0,0,0.2-0.3,0.7C28.4,3.6,28,0.6,28.8,2.2z"/>
	<path class="st0" d="M29.6,4c0-0.4-0.6-0.6,0.3-1.2C29.7,3.1,30.5,4.1,29.6,4z"/>
	<path class="st0" d="M30.4,2.3c-0.3,0.1,0.1-0.2-0.4-0.7c0,0.1-0.1,0,0,0.8c-0.3,0.2,0-0.5-0.7-0.2c-0.1-0.3,0.3-0.4,0.7-0.9
		C30.2,1.3,31.4,1.8,30.4,2.3z"/>
	<path class="st0" d="M30,6.2c0.1-0.1-0.2,0.3,0.5,0.4c-0.9,1.8,3.3,4.8-0.4-0.7c-0.1-0.2,0.3,0.2,0.5-0.4c0.2,0.1,0.2,0.1,0.9,0.1
		c0.2-0.1-0.4-0.5-0.3-0.9C31.1,4.5,29.5,4.8,30,6.2z"/>
</g>
<g id="constellation">
	<g>
		<polyline class="st1" points="277.8,79.4 272.9,80.7 267.9,82 263,83.3 258,84.5 253,85.7 248,86.8 243,87.9 238,89 232.9,90 
			227.9,91 222.8,92 217.7,92.9 212.6,93.8 207.5,94.7 202.4,95.5 197.3,96.2 192.1,97 187,97.7 181.8,98.3 176.6,99 171.4,99.5 
			166.2,100.1 161,100.6 155.8,101 150.6,101.5 145.4,101.9 140.1,102.2 134.9,102.5 129.6,102.8 124.3,103 119.1,103.2 
			113.8,103.4 108.5,103.5 103.2,103.6 97.9,103.6 92.6,103.6 87.3,103.5 82,103.4 76.6,103.3 71.3,103.1 66,102.9 60.7,102.7 
			55.3,102.4 50,102.1 44.6,101.7 39.3,101.3 33.9,100.8 28.6,100.3 23.2,99.8 17.9,99.2 12.5,98.6 7.2,98 		"/>
		<polyline class="st1" points="344,48.1 339.3,50.1 334.6,52 329.9,53.9 325.2,55.8 320.4,57.6 315.6,59.4 310.8,61.2 306,62.9 
			301.2,64.6 296.3,66.2 291.4,67.9 286.5,69.4 281.6,71 276.7,72.5 271.7,74 266.8,75.4 261.8,76.8 256.8,78.2 251.7,79.5 
			246.7,80.8 241.6,82.1 236.6,83.3 231.5,84.5 226.4,85.6 221.3,86.7 216.1,87.8 211,88.8 205.8,89.8 200.6,90.7 195.4,91.7 
			190.2,92.5 185,93.4 179.8,94.2 174.5,94.9 169.3,95.6 164,96.3 158.7,96.9 153.4,97.5 148.1,98.1 142.8,98.6 137.5,99.1 
			132.1,99.5 126.8,99.9 121.4,100.2 116,100.6 110.7,100.8 105.3,101.1 99.9,101.2 94.5,101.4 89.1,101.5 83.7,101.5 78.2,101.6 
			72.8,101.5 67.4,101.5 61.9,101.4 56.5,101.2 51,101 45.5,100.8 40.1,100.5 34.6,100.2 29.1,99.8 23.6,99.4 18.1,99 12.7,98.5 
			7.2,98 		"/>
		<polyline class="st1" points="319.4,112.8 323.3,108.5 327.2,104.2 331.1,99.9 334.8,95.6 338.6,91.3 		"/>
		<polyline class="st1" points="318.7,132.2 321.7,126.7 324.6,121.3 327.5,115.8 		"/>
		<polyline class="st1" points="318.7,132.2 313.9,129.5 309.1,126.7 304.3,123.9 299.6,121.1 294.9,118.2 290.3,115.4 285.7,112.5 
			281.1,109.5 276.6,106.6 272.1,103.6 267.6,100.6 263.2,97.5 258.8,94.5 254.5,91.4 250.2,88.2 245.9,85.1 241.7,81.9 237.5,78.8 
			233.3,75.6 229.2,72.3 225.2,69.1 221.1,65.8 217.1,62.5 213.2,59.2 		"/>
		<polyline class="st1" points="353,71.6 350.6,76.3 348.2,81 345.7,85.7 343.2,90.4 340.6,95 338,99.7 335.4,104.4 332.7,109 
			330,113.7 327.3,118.3 324.5,123 321.6,127.6 318.7,132.2 		"/>
		<polyline class="st1" points="306.9,186.6 308.8,181.6 310.7,176.6 312.6,171.7 314.5,166.7 316.3,161.7 318.1,156.7 319.9,151.6 
			321.6,146.6 323.3,141.6 325,136.6 326.6,131.6 328.2,126.5 329.8,121.5 331.3,116.5 332.9,111.4 334.3,106.4 335.8,101.4 
			337.2,96.3 338.6,91.3 		"/>
		<polyline class="st1" points="238.2,148.1 232.9,147.7 227.6,147.1 222.3,146.6 216.9,146 211.7,145.4 206.4,144.7 201.1,144 
			195.8,143.2 190.6,142.4 185.3,141.6 180.1,140.8 174.8,139.9 169.6,138.9 164.4,138 159.2,137 154.1,135.9 148.9,134.8 
			143.7,133.7 138.6,132.6 133.5,131.4 128.4,130.2 123.3,128.9 118.2,127.6 113.1,126.3 108.1,124.9 103,123.5 98,122.1 93,120.6 
			88,119.1 83,117.5 78.1,116 73.1,114.4 68.2,112.7 63.3,111 58.4,109.3 53.5,107.6 48.7,105.8 43.8,104 39,102.2 34.2,100.3 
			29.4,98.4 24.6,96.4 19.9,94.4 15.2,92.4 		"/>
		<polyline class="st2" points="213.2,59.2 218.1,61 223.1,62.7 228.1,64.4 233.1,66.1 238.1,67.7 243.2,69.3 248.3,70.9 
			253.4,72.4 258.6,73.9 263.7,75.3 268.9,76.7 274.1,78.1 279.4,79.4 284.7,80.7 289.9,81.9 295.3,83.2 300.6,84.3 306,85.4 
			311.3,86.5 316.7,87.6 322.2,88.6 327.6,89.5 333.1,90.4 338.6,91.3 		"/>
		<polyline class="st1" points="213.2,59.2 217.1,62.5 221.1,65.8 225.2,69.1 229.2,72.3 233.3,75.6 237.5,78.8 241.7,81.9 
			245.9,85.1 250.2,88.2 254.5,91.4 258.8,94.5 263.2,97.5 267.6,100.6 272.1,103.6 276.6,106.6 281.1,109.5 285.7,112.5 
			290.3,115.4 294.9,118.2 299.6,121.1 304.3,123.9 309.1,126.7 313.9,129.5 318.7,132.2 		"/>
		<polyline class="st1" points="261.8,137.7 265.4,141.8 269,146 272.6,150.1 276.3,154.3 280,158.4 283.7,162.5 287.5,166.6 
			291.3,170.6 295.1,174.6 299,178.6 302.9,182.6 306.9,186.6 		"/>
		<polyline class="st1" points="352.1,75.5 348.6,79.7 345.1,83.9 341.6,88.1 338,92.2 334.4,96.4 330.7,100.5 327,104.6 
			323.2,108.7 319.4,112.8 		"/>
		<polyline class="st1" points="240.2,195.2 239,190 237.8,184.7 236.7,179.5 235.5,174.3 234.3,169 233.2,163.8 232.1,158.6 
			231,153.3 229.9,148.1 228.8,142.8 227.7,137.6 226.7,132.3 225.6,127.1 224.6,121.9 223.6,116.6 222.6,111.4 221.6,106.1 
			220.6,100.9 219.6,95.7 218.7,90.4 217.7,85.2 216.8,80 215.9,74.8 215,69.6 214.1,64.4 213.2,59.2 		"/>
		<polyline class="st2" points="338.6,91.3 333.1,90.4 327.6,89.5 322.2,88.6 316.7,87.6 311.3,86.5 306,85.4 300.6,84.3 
			295.3,83.2 289.9,81.9 284.7,80.7 279.4,79.4 274.1,78.1 268.9,76.7 263.7,75.3 258.6,73.9 253.4,72.4 248.3,70.9 243.2,69.3 
			238.1,67.7 233.1,66.1 228.1,64.4 223.1,62.7 218.1,61 213.2,59.2 		"/>
		<polyline class="st1" points="338.6,91.3 337.2,96.3 335.8,101.4 334.3,106.4 332.9,111.4 331.3,116.5 329.8,121.5 328.2,126.5 
			326.6,131.6 325,136.6 323.3,141.6 321.6,146.6 319.9,151.6 318.1,156.7 316.3,161.7 314.5,166.7 312.6,171.7 310.7,176.6 
			308.8,181.6 306.9,186.6 		"/>
		<polyline class="st1" points="338.6,91.3 333.5,92.6 328.4,93.9 323.3,95.1 318.2,96.3 313.1,97.5 308,98.6 302.8,99.7 
			297.7,100.7 292.5,101.7 287.4,102.7 282.2,103.6 277,104.5 271.8,105.4 266.6,106.2 261.4,107 256.2,107.7 250.9,108.4 
			245.7,109.1 240.4,109.7 235.2,110.3 229.9,110.8 224.7,111.3 219.4,111.8 214.1,112.2 208.9,112.6 203.6,113 198.3,113.3 
			193,113.6 187.7,113.8 182.4,114 177.1,114.1 171.8,114.2 166.5,114.3 161.1,114.3 155.8,114.3 150.5,114.3 145.2,114.2 
			139.9,114.1 134.5,113.9 129.2,113.7 123.9,113.5 118.6,113.2 113.2,112.9 107.9,112.5 102.6,112.1 97.3,111.6 91.9,111.2 
			86.6,110.6 81.3,110.1 76,109.5 70.7,108.8 65.3,108.1 60,107.4 54.7,106.6 49.4,105.8 44.1,105 38.8,104.1 33.5,103.2 
			28.3,102.2 23,101.2 17.7,100.2 12.4,99.1 7.2,98 		"/>
		<polyline class="st1" points="305.9,92.7 311.3,92.6 316.8,92.4 322.2,92.2 327.7,92 333.1,91.7 338.6,91.3 		"/>
		<polyline class="st1" points="23.7,29.6 28.8,31.2 33.9,32.7 39,34.2 44.1,35.6 49.3,37 54.4,38.4 59.6,39.7 64.8,41 70,42.2 
			75.2,43.4 80.4,44.5 85.6,45.6 90.9,46.7 96.1,47.7 101.4,48.7 106.6,49.6 111.9,50.5 117.2,51.4 122.4,52.2 127.7,52.9 133,53.6 
			138.4,54.3 143.7,55 149,55.5 154.3,56.1 159.6,56.6 165,57 170.3,57.5 175.7,57.8 181,58.2 186.4,58.4 191.7,58.7 197.1,58.9 
			202.4,59 207.8,59.1 213.2,59.2 		"/>
		<polyline class="st1" points="327.5,115.8 324.6,121.3 321.7,126.7 318.7,132.2 		"/>
		<line class="st1" x1="15.2" y1="92.4" x2="7.2" y2="98"/>
		<polyline class="st1" points="235.4,116 230.2,116.4 225,116.8 219.8,117.1 214.6,117.4 209.4,117.7 204.2,117.9 199,118.1 
			193.8,118.2 188.6,118.3 183.4,118.4 178.2,118.4 173,118.4 167.8,118.3 162.6,118.2 157.4,118.1 152.1,118 146.9,117.8 
			141.7,117.5 136.5,117.2 131.3,116.9 126.1,116.6 120.9,116.2 115.6,115.7 110.4,115.3 105.2,114.8 100,114.2 94.8,113.6 
			89.6,113 84.5,112.4 79.3,111.7 74.1,110.9 68.9,110.2 63.7,109.4 58.5,108.5 53.4,107.6 48.2,106.7 43.1,105.7 37.9,104.7 
			32.8,103.7 27.6,102.6 22.5,101.5 17.4,100.4 12.3,99.2 7.2,98 		"/>
		<polyline class="st1" points="7.2,98 12.4,99.1 17.7,100.2 23,101.2 28.3,102.2 33.5,103.2 38.8,104.1 44.1,105 49.4,105.8 
			54.7,106.6 60,107.4 65.3,108.1 70.7,108.8 76,109.5 81.3,110.1 86.6,110.6 91.9,111.2 97.3,111.6 102.6,112.1 107.9,112.5 
			113.2,112.9 118.6,113.2 123.9,113.5 129.2,113.7 134.5,113.9 139.9,114.1 145.2,114.2 150.5,114.3 155.8,114.3 161.1,114.3 
			166.5,114.3 171.8,114.2 177.1,114.1 182.4,114 187.7,113.8 193,113.6 198.3,113.3 203.6,113 208.9,112.6 214.1,112.2 
			219.4,111.8 224.7,111.3 229.9,110.8 235.2,110.3 240.4,109.7 245.7,109.1 250.9,108.4 256.2,107.7 261.4,107 266.6,106.2 
			271.8,105.4 277,104.5 282.2,103.6 287.4,102.7 292.5,101.7 297.7,100.7 302.8,99.7 308,98.6 313.1,97.5 318.2,96.3 323.3,95.1 
			328.4,93.9 333.5,92.6 338.6,91.3 		"/>
		<text transform="matrix(0.9868 0 0 1 276.1096 80.9513)" class="st3 st4 st5">●</text>
		<text transform="matrix(1 0 0 1 276.5898 80.5104)" class="st6 st4 st7">●</text>
	</g>
	<ellipse class="st3" cx="6.6" cy="98.6" rx="3.6" ry="3.6"/>
	<ellipse class="st3" cx="15.1" cy="92" rx="3.6" ry="3.6"/>
	<ellipse class="st3" cx="23.9" cy="29.5" rx="3.6" ry="3.6"/>
	<ellipse class="st3" cx="17.5" cy="41.9" rx="3.6" ry="3.6"/>
	<ellipse class="st3" cx="213" cy="59.2" rx="3.6" ry="3.6"/>
	<ellipse class="st3" cx="235.9" cy="116.1" rx="3.6" ry="3.6"/>
	<ellipse class="st3" cx="238.4" cy="148.3" rx="3.6" ry="3.6"/>
	<ellipse class="st3" cx="262" cy="137.1" rx="3.6" ry="3.6"/>
	<ellipse class="st3" cx="306.2" cy="185.9" rx="3.6" ry="3.6"/>
	<ellipse class="st3" cx="239.8" cy="196.3" rx="3.6" ry="3.6"/>
	<ellipse class="st3" cx="318.7" cy="132.2" rx="3.6" ry="3.6"/>
	<ellipse class="st3" cx="327.3" cy="116.1" rx="3.6" ry="3.6"/>
	<ellipse class="st3" cx="319.5" cy="113" rx="3.6" ry="3.6"/>
	<ellipse class="st3" cx="351.6" cy="76.9" rx="3.6" ry="3.6"/>
	<ellipse class="st3" cx="352.6" cy="71.1" rx="3.6" ry="3.6"/>
	<ellipse class="st3" cx="338" cy="91.5" rx="3.6" ry="3.6"/>
	<ellipse class="st3" cx="343.9" cy="48.8" rx="3.6" ry="3.6"/>
	<ellipse class="st3" cx="305.2" cy="92.8" rx="3.6" ry="3.6"/>
</g>
</svg>
