<?xml version="1.0" encoding="utf-8"?>
<!-- Generator: Adobe Illustrator 23.1.1, SVG Export Plug-In . SVG Version: 6.00 Build 0)  -->
<svg version="1.1" id="Layer_1" xmlns="http://www.w3.org/2000/svg" xmlns:xlink="http://www.w3.org/1999/xlink" x="0px" y="0px"
	 viewBox="0 0 382.1 232.1" style="enable-background:new 0 0 382.1 232.1;" xml:space="preserve">
<style type="text/css">
	.st0{fill:#707589;}
	.st1{fill:none;stroke:#FFFFFF;stroke-linejoin:round;stroke-miterlimit:10;}
	.st2{fill:none;stroke:#FFFFFF;stroke-linejoin:round;stroke-miterlimit:10;enable-background:new    ;}
	.st3{fill:#FFFFFF;}
</style>
<g id="map">
	<path class="st0" d="M40.1,210.6c0.8,1.4,0.6,2.2-1.1,2.8c-1.1,0.4-2.1,1.3-3.1,1.9c-0.6,0.4-1.3,0.6-2.1,1c0.3-2.7,0-5.2,2.5-6.8
		c-1.6,0.1-2.3,0.8-3.3,2.7c-0.7,1.3-1.7,2.5-2.6,4c0.2,0.2,0.7,0.5,1.4,1.1c-4.2,4.5-8.7,8.4-14.2,11.4c-0.6-0.7-1.5-0.5-2.8,0.2
		c-1.5,0.9-3.5,1.2-5.2,1.7c-0.1-0.3-0.3-0.5-0.4-0.8c0.8-0.5,1.7-0.9,2.5-1.4c0.8-0.4,1.7-0.8,2.6-1.2c0.6-0.3,1-1,1.6-1
		c2.9-0.3,4.8-2.2,6.6-4.1c1-1.1,1.4-2.6,2.4-4.5c-1.5,0.2-2.3,0.3-3.5,0.4c-1.2-1.4-1.3-2-4.6-0.6c0-1.6,0-3.1,0-4.7
		c-3.4,0.6-4.2-0.2-4.6-3.6c-0.2-1.4-1.5-2.7-0.2-4.3c0.8-0.9,1.3-2.1,2.2-2.8c0.5-0.4,1.6-0.3,2.4-0.1c1.1-0.5,2.6-0.7,3.2-1.5
		c0.6-0.7,0.2-2.2,0.3-3.1c-1.6,0-3.4,0-5.2,0c-1.4,0-2.3-0.6-2.5-2.2c-0.1-0.9-0.8-1.7-1.4-2.8c1.9-0.7,3.8-1.5,6-2.4
		c0.2,2.3,1.3,2.8,3.3,2.1c-1.6-2.3-3.2-4.5-4.6-6.7c-0.3-0.5-0.7-1.3-0.5-1.7c0.3-0.5,1.1-0.8,1.7-1.1c0.7-0.3,1.9-0.3,2.1-0.7
		c0.9-2.2,2.6-3.2,4.5-4.1c1.3-0.6,2.7-1.1,4.6-1.8c1.3,0.6,3,1.9,4.9,2.3c2.8,0.6,5.8,0.9,8.7,0.7c2.2-0.1,4,0.5,4.5,2.8
		c1.9,9.4,3.8,18.8,5.7,28.5c0.9-0.2,1.8-0.5,2.4-0.6c1.5,1.2,2.9,2.3,4.3,3.3c0.9-1.1,1.7-2.9,2.5-2.9c1.1,0,2.2,1.3,3.2,2.1
		c1.1,0.8,2.2,1.6,3.1,2.6c1.6,1.7,3.2,3.3,5.8,3.6c1.6,0.2,2.2,2.7,1.3,4.8c-0.8,0.2-2.5-2-2.6,0.8c0,0-1.8,0.4-2.3,0
		c-1.4-1.3-2.5-2.8-3.8-4.4c-0.2,0.6-0.3,0.9-0.4,1.5c-1.2-1.3-2.1-2.6-3.3-3.5c-2.1-1.6-4.3-3.1-6.5-4.5c-2.5-1.5-5.3-1.4-8.2-1.2
		c-1.5,0.1-3.1-1-4.7-1.6c-0.7-0.2-1.5-0.3-2.3-0.5C40.3,210.2,40.2,210.4,40.1,210.6z"/>
	<path class="st0" d="M32.9,218.4c0.2,0.2,0.5,0.3,0.6,0.5c0.7,1.4-1.4,5-2.9,5.1c-0.4,0-1.1-0.4-1.3-0.8c-0.2-0.4-0.2-1.2,0-1.6
		c0.9-1,2-1.9,3-2.8C32.4,218.7,32.6,218.6,32.9,218.4z"/>
	<path class="st0" d="M8.8,200c-1.9,0.6-4.2-0.7-4.9-2.8C5.8,198.2,7.1,199,8.8,200z"/>
	<path class="st0" d="M8.4,210.3c0.9,0.2,1.8,0.3,2.7,0.5c-0.1,0.4-0.2,0.9-0.4,1.3c-0.8-0.2-1.7-0.5-2.5-0.7
		C8.3,211,8.3,210.6,8.4,210.3z"/>
	<path class="st0" d="M117,231.5c-1-0.2-2.3-0.7-1.7-2.9c0.1-0.5-0.1-1.1-0.4-1.6c-0.7-1.5-1.3-2.8,0.2-4.3c0.6-0.6,0.3-2,0.5-3.2
		c3.9,1.1,7.2,2.9,9.1,7.2C122.6,228.1,120.1,229.6,117,231.5z"/>
	<path class="st0" d="M111.4,216.7c-0.2-0.2-0.6-0.4-0.9-0.7c-0.5-0.5-1-1.1-1.5-1.7c-0.2-0.3-0.3-0.8-0.4-1.2
		c0.4-0.1,0.9-0.3,1.3-0.2c1.1,0.2,2.2,0.5,3.2,0.9c0.5,0.2,0.8,0.9,1.2,1.3c-0.5,0.4-1,0.8-1.5,1.1
		C112.5,216.5,112,216.5,111.4,216.7z"/>
	<path class="st0" d="M86.4,202.8c-1,0.7-1.7,1.6-2.3,1.5c-0.8-0.1-1.6-0.9-2.4-1.5c1-0.6,1.9-1.3,3-1.7
		C85,201.2,85.6,202.1,86.4,202.8z"/>
	<path class="st0" d="M97.9,206.1c0.1,1.3,0.4,2.3,0.2,3.2c0,0.3-1.3,0.8-1.5,0.6c-0.7-0.6-1.3-1.4-2-2.3
		C95.8,207.1,96.5,206.7,97.9,206.1z"/>
	<path class="st0" d="M150.2,196c0.5-0.4-0.2,1.2,0.8,0.9c-0.1,0.1-0.1,1.4,0.3,0.3c1,1.9,3.9,3.5,5,7c0.2,5.5,7.8,9.6,7.7,14.8
		c1.6,6,6,11.9,13.8,11.8c1,0.1,1.7,1.3,3.6,1.2h-0.1c1,0.7,2.2-1.9,1.6-0.6c-0.2-0.1-0.1-0.4-0.6,0.1c-0.4-2.4-2.6-5.3-1.8-11.4
		c-1.2,1.3-3.9-4-0.9-0.5l-0.1-0.3c0.6-0.2,1.7-1.3,0.5,0.2c0.9,0.7,2-1.9,2.2-3.6c-0.8,0.9-0.5-0.2-0.9-1.3
		c-0.1,0.1-0.7,0.4-1.2-0.4c1.1-0.6,5.2,2.4,2.5-1.8c0.1,0.1,1-0.4,0.4-0.8c1.3,1.1,2.8-2.3,2.2,0.4c1.7,0,0.3-3,1.2-2.3
		c-2.2-1.1,5.6,1,1.7-0.8c0.1-0.2-0.2-0.1,0.6-0.5c-0.4-0.8-1.2,0.2-1.2-1.6c0.1,0.3,0.6-0.5,0.7,0.5l0.3-0.1c0-0.2,0.2,1.3,0.5,0.2
		c-0.1-0.1,0.4,0.4-0.2,0.7c0.3,0.2-0.1,0.1,0.8-0.3c0.3,0.2-0.8-0.7-0.1-1c-0.1,0.3,0.6,1.6,1,0c0,0.1,0,0,0.1,0.4
		c0.1,0,0.1-0.1,0.5-0.6c0,0.2,0-0.1-0.2,1.1c-0.1-0.1,1.1,0.2-0.1,0.2c3.5-0.5,5.2-2.3-1,1.8c1.3-0.8,6.7-2.8,9.8-6.1
		c-2-0.5,3,0,1.3-5.9l-0.1,0.1c5.8-1.4-0.9,0.8,3.9,1.7c-5.2,3.1,3.3-1.8,7.6-2.2c2.3-1.5,11.2,4.6,11.4,0.5
		c1.5-5.5,7.3,7.2,12.5,3.8c-0.3-3.2,4.5,5.4,4.1-2.6c1.5-0.2,1.3,2,3,1.4c2.4,1.7,3.7,4,4.8,1.2c0.6-1.1-4.3-0.9-4.6-3.9
		c1.5-1.2,3.2-2.2,3.2-4.4c0.4-1.8-7.2,4-4.2,0.6c0-0.3,0.7-1.8-0.2-0.7c-0.1-0.1-0.1,0-0.1-0.4c-1.7,2.6-10.1-0.2-2.5-1.4
		c1.3,0.7,3.9,2.4,5.6-0.1c2.5-2.4,10.1,2.1,10.2-4.9c2.9,2.8-1.7,7.8,4.5,3.4c-1.3,1.5,3-0.2,1.9-2c0.9,1,3.6-0.3,0.3,1.9
		c1.6-1.1,12.6-2.1,5.2-1c0.6-0.2,7,2.9,5.9,1.1c-1,0.7-0.8-1,0.8-0.1c-0.1,0.2,0.1,0.2-0.3,0.6c-0.7,0.8,2-0.4,3.4,4.1
		c-0.5,0.2-0.5,0-0.6-1.6c-1.5,2.9,2.7,1.3,4.2,0.5c-1.3,1,5.7-2.1,3.4-2c0.3-0.3,0.5-0.6,1.1-1.3c1-2,14.2,7.9,14.5,11.3
		c0.3,2-2.4,8.9,1.1,8.6c-2.3-5.7,1.2,0,1.1-1.6c2.5-1.4-2.2,4.3-0.4,4.4c1.1,1,1.7,5.3,4.3,5.1c-1.7-1.6,1.1-1.7,0.4-1.1
		c0.6,3.1,0.8,3.1,4.6,8.7c0.1-1.1,11.2,7.4,4.9,5c0.1,2.9,4.5-0.1,6.2-0.1c0.8-1.7,0.2-3.9,1.5-6c1.6-11.8-13-29.4-17.3-42.2
		c0.1,0.4,1.2-6,0.3-3c-1.6-1.9,1,0.1-0.2-2.7c0.8,0,0.6-0.9,1.4-0.9c0.8-0.9-1.4-1.7,0.5-1.6c0.3-0.6,0.1-1-0.5-1.5
		c1.4-1.9,3.9-3.7,2-6.9c2.2,2.1,1.6,0.4,2.8-0.9v0.1c0.3-0.4,1.8,0.2,1.6-1.2c-0.4,0.7,7.6-5,6.2-8.1c0.8,2.2,1.1-4.1,4.9-5.3
		c0.8-1.4,4.2,0.4,3.9-2.7c0.3,3.3,3.1-8.4,3.7-5.8c-1,1.4,2.4,0.2,1.1-1.4c0.2,1.1,3.4,0,3-0.4c0.2-0.5,0.3-0.5,1,0.1
		c0.2-0.3,0.8-0.1,2-2c0.3-0.2-1.5-1.5-1.4-0.5c-1.5-0.4,0.6,0.9-1.2,0.4c0.1,0,0.6,0.6,0,0.5c-0.4-1.2-0.2,1.4-3.4-1.1
		c-0.4-2.1,3.3,3.7,3.6-2.1c1.7-0.4-1.4-1-2.1-0.8c-3.5-1.9,1.2,0.5,1.4-1.3c-1.2-0.4,0.2-0.6,1-0.8c-1.4,1.9,0.2,0.9,1.6,1.6
		c1.3-0.3,1.7-0.8,2.5-2.9c1.1,1.1,0.5-0.8,1-1c-0.5-0.7,0.2-1.5-1.5-2.2c0.2,0.2-0.4,0.1-0.1,0.6c-1.5-0.6,0.6,3.6-1.6,2.2
		c0.9,0.3,0.6-1.5,0.2-2.3c-0.8-1.9-5.3,4.7-5.6-2.7c0.5-0.1,1.2,4.9,2.4,2c1.1-0.3,0.6-1.4,2-0.7c0.8-0.6,0.8-0.5-0.4-1.4
		c0.8-0.4,2.4,1.6,1.4-0.4c0.7-0.1,0.6,1.1,1.6,1.6c0.1-1.2-4.5-5.1-1.7-3.5c0.1,0-1-2.6,0.2-0.6c-1.2-0.6,6.4,10.3,2.7,4.5
		c-1.9-1.4-2.8-10.6-7.4-6.5c-0.1-1.9-5.1-2.1-3.5-3.4c1.3,0.5,2.7,2.5,4.6,1.9c0-0.1,0.2-1-0.5-0.6v-0.1l0,0
		c0.6-0.7-4.2-1.5-3.8-3.2c3.1,3.7,1.9-0.2,3.9,1.1c-0.2-2.6-2.1-1.1-5.9-5.5c3.9,4.3,8.3,1.8,1.9-1.1c-1.1-0.2-2.6-0.3-3.4-2
		c-0.5-1.5,1.4,0.9,4.5,1.4c2.4,1,0.4-0.9-1.9-2.8c4.3,2,0.3,0.8,0.3-4.8c1,0,0.3-1.1-1.2-2.2c1.3-0.1,0.9,0.1,1.8-0.9
		c-0.6-1,0.9,0,0.8-1c1.2-0.1-0.3-1.5,1.4-1.9c0.1,0-0.1,0.4,0,1c0.6-1.2,1.2,0.6-0.9,1.6c-0.7,2.4,1.7,2.8-0.2,5.5
		c0.7-0.5,0.8,0.7,1.6-0.3c0.9,2.6-0.5-0.1-0.7,1.9c2-0.5-2.4,0.4,2,2.5c0-2.3,0.4,1.1,0.9-1.1c0.5,0.4,0.4,3.9,1.8,3.2
		c1.3-0.9-0.3,1.8-0.4,3.2c-0.7,0.6-0.5,7.8,0.8,2.1c0.5-6.2,5.4-5.7,2-11.9c0,0,1.3-0.2,0.3-0.6c0,0,0.3,0,0.2-0.4
		c2.9,1.9-6.4-5.9-4.5-8.3c-0.2,4.1,5.8,2.2,5.5,5.9c1.7-3.5,3.9-6.4,3.7-11.1c0.3,0.2,0.2,0.9,0.5,2.3c-0.1-1.2,0.6-4.4-0.8-6.3
		c0,0.2-0.1,0.1,0.1,0.6c-0.3-0.2-1.2,0.2-2-0.3c1.7-0.6,0.4-2.4,1.7-4.2l0.3,0.8c-0.1-0.1-0.1,0-0.2-0.3l0.7,0.2
		c-0.5-0.7,0.7-0.8,0.6-2.1c1.3,0.3,4-3.6,4.8-3.1c0.8-0.7,3.2-0.2,3.4-1.5c1.1,0.6,1.3-0.3,3.4-0.9v0.3c0.5-0.3,1.1-0.4,2.2-1.6
		c0.1,1.1,0.6-4.7,0.9-0.6c0.7,1.2,0.6-1.5,1-0.3c0.1,0,0.3-0.4,0.6-0.9c-0.1,0.1,0.7,0.7,0.6,0c0.5,0.4,2-5.2,2.2-0.7
		c2.3-0.5,7.6-5,1.8-5c4.7,0.1-1.1,5.9-2.5,0.8c-0.4-0.7-1-1.5-2.5-2c0.4,1.4-1.9,0-0.9-0.6c2.7-5.6,0.4,1.2,0.2-6.7
		c1.7-0.6,0.8-7.3,3.3-7.7c1.1-1.4-0.2,2.5,2.1-1.6c1.5,1.1,0.1-0.9,2.2-1.2c0,3.5,1.6-9.1,1.8-4.4c0.2,0.2,0.4-0.9,0.8,0.1
		c0.1,0.1-1-0.3-0.5,0.4c-0.9,0.1,0.9,0.6,1.1,0.4c0.6,0.2,0.8-0.1,0.1-1.1c0.3-0.2,0.5-0.3,0.6-1.1c0.1,0.5,0.9,1.1,0.9-0.4
		c0.6,0.4,1.2-0.8,1.9,1.1c0.2-0.3,0.3-0.6,0.2-1.5c0.4,0.8,0.9,0.3,0.7-0.9c0.4-0.2,2,0.7,1.6-1.1c0,0.1,0.1-0.1,0.5,0.1
		c-0.1,0.2,0.3-1.1,0.3-0.1c0.5,0.3,0-2,0.8-0.6c0.6,0,1.2-1,1.4-2.2c-2.5,0.6,0.8-2-2.5-2.7c-1.6,2-0.7-3.1-3.9-3.4
		c-3.1-1.4-0.4-11.3-6.8-13.4c-7.4,6.9-5.7-9-9.7,11c-1.6,5.3,0.7,10.1-6,12.4c1.4,7.6-25.8-0.9-28,17.4l-0.3,0.4
		c0,2,2.2,3.1-3.8,7.4c-0.2-0.2-2.8-0.4-3.7,0.9c-1.3-1.2-12.4-1.1-9.1,4.1c2.6,0.7-1.8,5.3-6.5,8.6c-0.1,0,0.2-0.1,0.1-0.4
		c-9.3,5.6-9.7,10.4-22.5,7.6c0.2,0.3,3.9-12.9,4.9-8.8c1.3-3-0.8-21.7-8.4-8.3c-4.8-2.9,2.4-1.9,1.5-13.4
		c-10.4-8.8-11.3-6.4-14.9,3.9c-0.6-0.8,0.1-2.5,0.1-3.9c-2.7,2.7-5,6.6-5,11.9c-1.2,5.5,5.9,8.1,0.5,18.3c-9.6,12.6-11.8-17-5.8-28
		c1.1-0.5,0.6-4-0.3-0.9c-0.8-0.1-1.2,1.6-1.4,3.1c-1.4-1.2-1.8,1.7-4,3.2c-1,1,6.7-16.2,6-11.1c5-4.8-0.8,2.8,3.9-1.1
		c1.6-4,10.3-2.2,15.6-3.2c-3.6-6.8-8.9-0.6-7.4-6.3c-6.6,0.4-12.9,7.3-17.7,1c-2.3-0.7-2.6-1.9-4.7,1c-0.3-0.4,0.3-1.2,0-2.2
		c1.2-0.5,1.5-3.2,4-3.9c-4.4-1.7-12.4,10.1-19.7,8.3c3.5-6.9-3.8,1.1-7.6-1c1.8-2.3,9.6-9.4,16.2-12C227.4,30,221,31.4,215,28
		c1.3-3.4-7.7,1.5-12.4-3.3c-0.4-1.4,0.1-5.1-2.9-4.7C152.1,30.3,85.2,12.3,31.3,0v0.2c-1.2,0.3,0.9,2.1,0.7,2.5
		c0.2,0.3,0.2,2.5-1,2c0.2-1.1-1.4,0.4,0.1,0.3c1,1-0.2,2.9,1.2,3.9c-0.8,0.4-1.4,1.5-2.2,2.8c0.2,0.8-0.1,2.2-0.9,3.6
		c0,0-0.2-0.1-0.6-0.7c-0.1,0.2-1.5,2.5-2.2,0.8l-0.1,0.4c-0.1,0.1,0.2-0.2-0.4-0.3c-0.1,0.3,0,0.1-0.2,0.9
		c-0.5,0.2,0.4-0.8-0.6-0.6c0.1,0,0,0,0.6-0.5c-0.2-0.1-0.1-0.2-0.9,0.2c0,0-0.1-0.3,0.6-0.6L25.2,14c0,0.2,0-0.5,0.5-0.3l-0.2,0.2
		c0.2,0.1,1.2-0.2,1.7-1.1c0.3,1.3-1.3,2.5,1.2,0.3c0,0.3-1,0.7,0.1,1.2c-0.3-1.3,2.3-1.6,0.1-2.8c0-0.1-0.2-0.1,0-0.5
		c0.7,0.8,0.3,0.1,0.6-0.9c0-0.2,0.1,0.9,0.6,0c0.3,0.7,1-0.7,0-1.7c-0.2,0.1,0.1,0.2-0.1,1.1c0.8-0.6-7.4,3.5-2.6,2.9
		c-3.7,1.1-0.9-1.2,0.8-3.4l0.2,0.4c0-0.1,0.1,0.1,0.2-0.5c0,0.2,0.3,0.2-0.1,0.7c0.7-0.4,1.7-1,1.3-2.8v0.6l-0.1-0.3l-0.3,0.2
		c0.1-1.2,0.4-1.1-0.7,0.1c0,0,0.4-0.5-0.3-1c-0.1,0,0.1,0.1-0.3,0.4c-0.6-1.7-4.4-1.6-9.4-6c-1.2,3.7,0.9,7.8-0.1,13.1
		c0.6-0.6,0.4-0.6,2,0.5c0.2,0.3-1.6-0.3-1.7,0.7c-0.2,0,0-0.3-0.4-0.7c-0.4,1.3-0.1,1.6,1.2,2.2c-0.1-0.2-0.4,0.4-1,0.5
		c-0.1-0.3,0.6,2.2-0.9,2.2c-0.3,0.3,0.6-1,0.3-2.4c-0.2,0.2-0.5,1.5-0.8,2.9c0.5,0.5,3.5,0.4,3.7,2.1c-0.6-0.8-1.4,0-2.7-0.8
		c0,0,0.1,0.1,0.2,0.5c-0.4,0.3-0.3-0.8-1.2-0.9c0.6,1.9-1.5,3.6-1.1,6.6C12.5,36.2,2.4,49.2,4.5,61l-0.2-0.1c0.2,1-0.4,1.4-1.1,3.1
		l0-0.3c0.4,3.9-6.2,2.1-1.6,13.4c-3,4.6,1.5,12,1.8,15.1c0.4,0.4-1.6,2.8,0.1,1.4c0,0.5,0.6,0.9,1.2,1.8C6.4,96.9,6,96.5,6.6,94
		c-0.1,0-0.1,0-0.2-0.2c1,0,1.4,0.1,2.3,1.5c-0.2-0.1,0-0.1-0.7-0.3h0.1c-2.1-0.1-0.7,3.4,0.4,5.7c-0.5,0.2-3.3-2.3-2-3
		c-0.1-0.2,0.2-0.6-0.4-0.9c-2.4,2.9-1.1,6.4,2.1,9.8c-5.1,3.9,3.2,11.2,2.8,15.5c4.6,3.8-5.7,6.4,6.6,9.9
		c6.4,5,15.2,11.2,15.3,20.5c-0.6-0.3-0.2-1.1-0.4,0.8c5.4,0.6,11.4,1.3,18.2,2c-4.5,0.7,22.1,19.3,39.7,19.6
		c7.3,2.5,13.1-6.5,22.7-0.1c1.7,4.4,7.1,7.3,10.3,12c1.1,2.2,0,8.8,7.4,12.4c2.9,0.7,2.9,4.5,7.2,0.6c-0.3-0.8,0.8-2,1.2-3.5
		l0.2,0.1c1.6-3.1,5.9-1.2,9.6-0.8C149.5,195.6,149.6,196.2,150.2,196z"/>
	<path class="st0" d="M367.9,70.4c-0.4,0.1-0.4,0-1.2-0.1c-0.2-1-0.3,1.1-1.2,1.1C365.1,72,367.7,71.3,367.9,70.4z"/>
	<path class="st0" d="M370.8,70.8c-1.8-0.2-0.3,1.1,0.7-0.2c-0.3-0.5-1.3-1-0.5-0.3C371,70.4,371.2,70.6,370.8,70.8z"/>
	<polygon class="st0" points="345.8,81.1 345.7,80.9 345.7,80.8 345.7,80.8 345.6,80.8 345.5,81.2 345.4,81.5 345.3,82 345.4,82.1 
		345.5,82 345.6,81.9 345.7,81.7 345.7,81.6 345.7,81.4 345.8,81.2 	"/>
	<polygon class="st0" points="344,84.4 344.3,84.3 344.6,84.1 344.7,83.9 344.9,83.6 345.2,83.2 345.3,83 344.9,82.6 344.3,83.1 	
		"/>
	<path class="st0" d="M355.3,78.1l0.2,0.2c-0.1,0,0.1,0.2-0.5,0.3c-0.7-0.8,0.1-1.6,1.4-3.1c-1.8,2.1-6.1,3.1-7.9,4.3
		c0-0.4-1-0.3-0.9,0.7c-0.5-0.8-0.4,1.1-1,0.4c-3.5,3.9,2.3,0.2-0.2,2.3c1.3-0.5,3.3-1.6,4.8-2.7c2.2-0.5,5.5-3.3-0.1,1.1
		c1.9-1.1,12.1-7.6,5.1-4.9C355.8,77,355.9,77.6,355.3,78.1z"/>
	<path class="st0" d="M28.8,2.1c0,0,0.1,0.2,0.4,0.6c-0.2,0,0,0.2-0.3,0.7C28.3,3.5,27.9,0.6,28.8,2.1z"/>
	<path class="st0" d="M29.5,3.9c0-0.4-0.6-0.6,0.3-1.2C29.6,3,30.4,4.1,29.5,3.9z"/>
	<path class="st0" d="M30.4,2.2C30.1,2.3,30.5,2,30,1.5c0,0.1-0.1,0,0,0.8c-0.3,0.2,0-0.5-0.7-0.2c-0.1-0.3,0.3-0.4,0.7-0.9
		C30.1,1.3,31.4,1.8,30.4,2.2z"/>
	<path class="st0" d="M29.9,6.1C30,6,29.7,6.4,30.4,6.5c-0.9,1.8,3.3,4.8-0.4-0.7c-0.1-0.2,0.3,0.2,0.5-0.4c0.2,0.1,0.2,0.1,0.9,0.1
		C31.6,5.4,31,5,31.1,4.6C31,4.5,29.4,4.7,29.9,6.1z"/>
</g>
<g>
	<g>
		<polyline class="st1" points="278.2,78.4 272.8,78.6 267.4,78.8 262.1,79 256.7,79.1 251.4,79.2 246,79.3 240.7,79.3 235.3,79.3 
			230,79.2 224.7,79.1 219.3,78.9 214,78.7 208.7,78.4 203.3,78.2 198,77.8 192.7,77.5 187.4,77 182.1,76.6 176.8,76.1 171.5,75.6 
			166.2,75 161,74.4 155.7,73.7 150.4,73 145.2,72.3 140,71.5 134.7,70.6 129.5,69.8 124.3,68.9 119.1,67.9 113.9,66.9 108.7,65.9 
			103.5,64.8 98.4,63.7 93.2,62.6 88.1,61.4 82.9,60.2 77.8,58.9 72.7,57.6 67.6,56.2 62.6,54.8 57.5,53.4 52.5,52 47.4,50.4 
			42.4,48.9 37.4,47.3 32.4,45.7 27.4,44 22.5,42.3 17.5,40.6 		"/>
		<polyline class="st2" points="348.8,48.2 343.9,50.6 339,52.9 334.1,55.2 329.1,57.5 324.2,59.8 319.2,62 314.1,64.2 309.1,66.3 
			304,68.4 298.9,70.5 293.7,72.5 288.6,74.5 283.4,76.4 278.2,78.4 		"/>
		<polyline class="st1" points="17.5,40.6 22.5,42.3 27.4,44 32.4,45.7 37.4,47.3 42.4,48.9 47.4,50.4 52.5,52 57.5,53.4 62.6,54.8 
			67.6,56.2 72.7,57.6 77.8,58.9 82.9,60.2 88.1,61.4 93.2,62.6 98.4,63.7 103.5,64.8 108.7,65.9 113.9,66.9 119.1,67.9 124.3,68.9 
			129.5,69.8 134.7,70.6 140,71.5 145.2,72.3 150.4,73 155.7,73.7 161,74.4 166.2,75 171.5,75.6 176.8,76.1 182.1,76.6 187.4,77 
			192.7,77.5 198,77.8 203.3,78.2 208.7,78.4 214,78.7 219.3,78.9 224.7,79.1 230,79.2 235.3,79.3 240.7,79.3 246,79.3 251.4,79.2 
			256.7,79.1 262.1,79 267.4,78.8 272.8,78.6 278.2,78.4 		"/>
		<polyline class="st2" points="272.2,74.8 267.6,76.8 263,78.7 258.3,80.6 253.6,82.5 248.9,84.3 244.2,86.1 239.4,87.8 
			234.6,89.6 229.8,91.3 225,92.9 220.2,94.6 215.3,96.2 210.4,97.7 205.5,99.3 200.6,100.8 195.6,102.2 190.6,103.7 185.6,105.1 
			180.6,106.4 175.6,107.7 170.5,109 165.4,110.3 160.4,111.5 155.2,112.7 150.1,113.8 145,114.9 139.8,116 134.6,117 129.4,118 
			124.2,119 118.9,119.9 113.7,120.8 108.4,121.6 103.1,122.4 97.8,123.2 92.5,123.9 87.2,124.6 81.8,125.2 76.4,125.8 71.1,126.4 
			65.7,126.9 60.3,127.4 54.8,127.9 49.4,128.3 43.9,128.6 38.5,129 33,129.2 27.5,129.5 22,129.7 16.5,129.9 		"/>
		<polyline class="st2" points="190.1,95.8 195.5,94.8 200.8,93.8 206.2,92.8 211.5,91.7 216.9,90.6 222.2,89.5 227.5,88.3 
			232.8,87.1 238,85.8 243.3,84.5 248.5,83.2 253.7,81.8 258.9,80.3 264.1,78.9 269.2,77.4 274.3,75.8 279.4,74.2 284.5,72.6 
			289.6,71 294.7,69.3 299.7,67.5 304.7,65.8 309.7,63.9 314.6,62.1 319.6,60.2 324.5,58.3 329.4,56.3 334.3,54.3 339.1,52.3 
			344,50.3 348.8,48.2 		"/>
		<polyline class="st2" points="26.6,15.1 26,20.2 25.4,25.4 24.9,30.5 24.3,35.6 23.8,40.8 23.3,46 22.8,51.2 22.2,56.4 21.8,61.6 
			21.3,66.8 20.8,72 20.4,77.2 19.9,82.5 19.5,87.7 19.1,93 18.7,98.2 18.3,103.5 17.9,108.8 17.5,114 17.2,119.3 16.8,124.6 
			16.5,129.9 		"/>
		<polyline class="st2" points="16.5,129.9 22,129.7 27.5,129.5 33,129.2 38.5,129 43.9,128.6 49.4,128.3 54.8,127.9 60.3,127.4 
			65.7,126.9 71.1,126.4 76.4,125.8 81.8,125.2 87.2,124.6 92.5,123.9 97.8,123.2 103.1,122.4 108.4,121.6 113.7,120.8 118.9,119.9 
			124.2,119 129.4,118 134.6,117 139.8,116 145,114.9 150.1,113.8 155.2,112.7 160.4,111.5 165.4,110.3 170.5,109 175.6,107.7 
			180.6,106.4 185.6,105.1 190.6,103.7 195.6,102.2 200.6,100.8 205.5,99.3 210.4,97.7 215.3,96.2 220.2,94.6 225,92.9 229.8,91.3 
			234.6,89.6 239.4,87.8 244.2,86.1 248.9,84.3 253.6,82.5 258.3,80.6 263,78.7 267.6,76.8 272.2,74.8 		"/>
		<polyline class="st2" points="239.3,104.3 233.8,103 228.3,101.7 222.9,100.4 217.5,99 212.1,97.5 206.7,96.1 201.3,94.5 196,93 
			190.7,91.4 185.4,89.7 180.2,88.1 174.9,86.3 169.7,84.6 164.5,82.8 159.4,80.9 154.3,79.1 149.2,77.1 144.1,75.2 139,73.2 
			134,71.2 129,69.1 124,67 119.1,64.9 114.2,62.7 109.3,60.5 104.5,58.3 99.6,56 94.8,53.7 90.1,51.3 85.3,49 80.6,46.5 76,44.1 
			71.3,41.6 66.7,39.1 62.1,36.6 57.6,34 53,31.4 48.5,28.8 44.1,26.1 39.7,23.4 35.3,20.7 30.9,17.9 26.6,15.1 		"/>
		<polyline class="st2" points="214.1,128.8 210.5,124.1 207,119.4 203.5,114.7 200.1,110 196.7,105.3 193.4,100.5 190.1,95.8 		"/>
	</g>
	<ellipse class="st3" cx="214.5" cy="128.9" rx="3.6" ry="3.6"/>
	<ellipse class="st3" cx="190.1" cy="96" rx="3.6" ry="3.6"/>
	<ellipse class="st3" cx="17.7" cy="41" rx="3.6" ry="3.6"/>
	<ellipse class="st3" cx="17.7" cy="128.9" rx="3.6" ry="3.6"/>
	<ellipse class="st3" cx="33.6" cy="208" rx="3.6" ry="3.6"/>
	<ellipse class="st3" cx="26.5" cy="15.3" rx="3.6" ry="3.6"/>
	<ellipse class="st3" cx="239.4" cy="104.1" rx="3.6" ry="3.6"/>
	<ellipse class="st3" cx="278.3" cy="78.4" rx="3.6" ry="3.6"/>
	<ellipse class="st3" cx="348.9" cy="48.2" rx="3.6" ry="3.6"/>
	<ellipse class="st3" cx="272.2" cy="74.3" rx="3.6" ry="3.6"/>
	<line class="st2" x1="278.5" y1="78.4" x2="33.6" y2="208"/>
</g>
</svg>
