<?xml version="1.0" encoding="utf-8"?>
<!-- Generator: Adobe Illustrator 23.1.1, SVG Export Plug-In . SVG Version: 6.00 Build 0)  -->
<svg version="1.1" xmlns="http://www.w3.org/2000/svg" xmlns:xlink="http://www.w3.org/1999/xlink" x="0px" y="0px"
	 viewBox="0 0 783.98 708.67" style="enable-background:new 0 0 783.98 708.67;" xml:space="preserve">
<style type="text/css">
	.st0{fill:none;stroke:#FFFFFF;stroke-width:0.7646;}
	.st1{fill:none;stroke:#CBCBCA;stroke-width:0.7646;}
	.st2{fill:none;stroke:#FFFFFF;stroke-width:2.2249;}
	.st3{fill:none;}
	.st4{fill:#FFFFFF;}
	.st5{font-family:'Roboto-Regular';}
	.st6{font-size:8.278px;}
	.st7{font-size:12.417px;}
	.st8{font-family:'MyriadPro-Regular';}
	.st9{font-size:12px;}
	.st10{fill:#9E6A76;}
	.st11{fill:#004552;}
	.st12{fill:#57214B;}
	.st13{fill:#030304;}
	.st14{fill:#F4E3D2;}
	.st15{fill:#608797;}
	.st16{fill:#104181;}
	.st17{fill:#7C67A6;}
	.st18{fill:#0D285B;}
	.st19{fill:#13655B;}
	.st20{fill:#492F78;}
	.st21{fill:#6F7488;}
	.st22{font-size:10px;}
	.st23{opacity:0.57;fill:#FFFFFF;stroke:#13655B;stroke-miterlimit:10;}
	.st24{font-family:'Roboto-Bold';}
	.st25{font-size:8px;}
	.st26{font-size:9px;}
	.st27{fill:#231F20;}
	.st28{opacity:0.57;fill:#FFFFFF;stroke:#FFFFFF;stroke-width:0.9131;stroke-miterlimit:10;enable-background:new    ;}
	.st29{opacity:0.57;fill:#FFFFFF;stroke:#57214B;stroke-miterlimit:10;}
	.st30{opacity:0.57;fill:#FFFFFF;stroke:#004552;stroke-miterlimit:10;}
	.st31{opacity:0.57;fill:#FFFFFF;stroke:#492F78;stroke-miterlimit:10;}
	.st32{fill:none;stroke:#000000;stroke-miterlimit:10;}
	.st33{fill:#707589;}
	.st34{enable-background:new    ;}
</style>
<g id="bg_x5F_test">
</g>
<g id="stream-grid">
	<g transform="translate(0,480)">
		<path class="st0" d="M12.66,121.87v-3.8h762.25"/>
		<path class="st0" d="M12.66-371.24v-3.8h762.25"/>
		<g transform="translate(0.6873230714791224,0)">
			<line class="st1" x1="12.13" y1="117.73" x2="12.13" y2="121.87"/>
			<line class="st1" x1="80.66" y1="117.73" x2="80.66" y2="121.87"/>
			<line class="st1" x1="149.98" y1="117.73" x2="149.98" y2="121.87"/>
			<line class="st1" x1="220.06" y1="117.73" x2="220.06" y2="121.87"/>
			<line class="st1" x1="290.17" y1="117.73" x2="290.17" y2="121.87"/>
			<line class="st1" x1="358.7" y1="117.73" x2="358.7" y2="121.87"/>
			<line class="st1" x1="428.02" y1="117.73" x2="428.02" y2="121.87"/>
			<line class="st1" x1="498.1" y1="117.73" x2="498.1" y2="121.87"/>
			<line class="st1" x1="521.47" y1="117.73" x2="521.47" y2="121.87"/>
			<line class="st1" x1="544.84" y1="117.73" x2="544.84" y2="121.87"/>
			<line class="st1" x1="451.38" y1="117.73" x2="451.38" y2="121.87"/>
			<line class="st1" x1="474.74" y1="117.73" x2="474.74" y2="121.87"/>
			<line class="st1" x1="382.06" y1="117.73" x2="382.06" y2="121.87"/>
			<line class="st1" x1="405.42" y1="117.73" x2="405.42" y2="121.87"/>
			<line class="st1" x1="313.01" y1="117.73" x2="313.01" y2="121.87"/>
			<line class="st1" x1="335.86" y1="117.73" x2="335.86" y2="121.87"/>
			<line class="st1" x1="243.43" y1="117.73" x2="243.43" y2="121.87"/>
			<line class="st1" x1="266.8" y1="117.73" x2="266.8" y2="121.87"/>
			<line class="st1" x1="173.34" y1="117.73" x2="173.34" y2="121.87"/>
			<line class="st1" x1="196.7" y1="117.73" x2="196.7" y2="121.87"/>
			<line class="st1" x1="103.76" y1="117.73" x2="103.76" y2="121.87"/>
			<line class="st1" x1="126.87" y1="117.73" x2="126.87" y2="121.87"/>
			<line class="st1" x1="34.97" y1="117.73" x2="34.97" y2="121.87"/>
			<line class="st1" x1="57.81" y1="117.73" x2="57.81" y2="121.87"/>
			<line class="st1" x1="591.05" y1="117.9" x2="591.05" y2="122.04"/>
			<line class="st1" x1="613.9" y1="117.9" x2="613.9" y2="122.04"/>
			<line class="st1" x1="659.85" y1="117.9" x2="659.85" y2="122.04"/>
			<line class="st1" x1="682.95" y1="117.9" x2="682.95" y2="122.04"/>
			<line class="st1" x1="568.21" y1="117.73" x2="568.21" y2="121.87"/>
			<line class="st1" x1="636.74" y1="117.73" x2="636.74" y2="121.87"/>
			<line class="st1" x1="706.06" y1="117.73" x2="706.06" y2="121.87"/>
			<line class="st2" x1="12.13" y1="-381.15" x2="12.13" y2="121.87"/>
		</g>
		<line class="st0" x1="81.34" y1="-380.39" x2="81.34" y2="121.87"/>
		<line class="st0" x1="150.66" y1="-380.39" x2="150.66" y2="121.87"/>
		<line class="st0" x1="220.75" y1="-380.39" x2="220.75" y2="121.87"/>
		<line class="st2" x1="290.86" y1="-381.15" x2="290.86" y2="121.87"/>
		<line class="st0" x1="359.38" y1="-380.39" x2="359.38" y2="121.87"/>
		<line class="st0" x1="428.7" y1="-380.39" x2="428.7" y2="121.87"/>
		<line class="st0" x1="498.79" y1="-380.39" x2="498.79" y2="121.87"/>
		<line class="st0" x1="522.16" y1="-380.39" x2="522.16" y2="121.87"/>
		<line class="st0" x1="545.53" y1="-380.39" x2="545.53" y2="121.87"/>
		<line class="st0" x1="452.07" y1="-380.39" x2="452.07" y2="121.87"/>
		<line class="st0" x1="475.43" y1="-380.39" x2="475.43" y2="121.87"/>
		<line class="st0" x1="382.75" y1="-380.39" x2="382.75" y2="121.87"/>
		<line class="st0" x1="406.11" y1="-380.21" x2="406.11" y2="121.87"/>
		<line class="st0" x1="313.7" y1="-380.39" x2="313.7" y2="121.87"/>
		<line class="st0" x1="336.54" y1="-380.39" x2="336.54" y2="121.87"/>
		<line class="st0" x1="244.12" y1="-380.39" x2="244.12" y2="121.87"/>
		<line class="st0" x1="267.49" y1="-380.39" x2="267.49" y2="121.87"/>
		<line class="st0" x1="174.02" y1="-380.39" x2="174.02" y2="121.87"/>
		<line class="st0" x1="197.38" y1="-380.39" x2="197.38" y2="121.87"/>
		<line class="st0" x1="104.45" y1="-380.39" x2="104.45" y2="121.87"/>
		<line class="st0" x1="127.56" y1="-380.39" x2="127.56" y2="121.87"/>
		<line class="st0" x1="35.66" y1="-380.39" x2="35.66" y2="121.87"/>
		<line class="st0" x1="58.5" y1="-380.39" x2="58.5" y2="121.87"/>
		<line class="st0" x1="591.74" y1="-380.21" x2="591.74" y2="122.04"/>
		<line class="st0" x1="614.58" y1="-380.21" x2="614.58" y2="122.04"/>
		<line class="st0" x1="660.53" y1="-380.21" x2="660.53" y2="122.04"/>
		<line class="st0" x1="683.64" y1="-380.21" x2="683.64" y2="122.04"/>
		<line class="st2" x1="568.9" y1="-381.15" x2="568.9" y2="121.87"/>
		<line class="st0" x1="637.43" y1="-380.39" x2="637.43" y2="121.87"/>
		<line class="st0" x1="706.75" y1="-380.39" x2="706.75" y2="121.87"/>
		<line class="st0" x1="729.36" y1="-231.44" x2="729.36" y2="121.87"/>
		<line class="st0" x1="729.66" y1="-380.39" x2="729.66" y2="121.87"/>
		<line class="st0" x1="752.28" y1="-231.44" x2="752.28" y2="121.87"/>
		<line class="st0" x1="752.44" y1="-380.39" x2="752.44" y2="121.87"/>
		<line class="st0" x1="775.05" y1="-380.39" x2="775.05" y2="121.87"/>
		<path class="st0" d="M730.23-249.71"/>
		<path class="st0" d="M12.66-249.71"/>
	</g>
	<g>
		<rect x="4.16" y="608.43" class="st3" width="17.31" height="12.88"/>
		<text transform="matrix(1 0 0 1 10.5341 614.6404)" class="st4 st5 st6">J</text>
		<rect x="27" y="608.43" class="st3" width="17.31" height="12.88"/>
		<text transform="matrix(1 0 0 1 33.3729 614.6404)" class="st4 st5 st6">F</text>
		<rect x="49.84" y="608.43" class="st3" width="17.31" height="12.88"/>
		<text transform="matrix(1 0 0 1 54.889 614.6395)" class="st4 st5 st6">M</text>
		<rect x="72.69" y="608.43" class="st3" width="17.31" height="12.88"/>
		<text transform="matrix(1 0 0 1 78.6449 614.6395)" class="st4 st5 st6">A</text>
		<rect x="95.79" y="608.43" class="st3" width="17.31" height="12.88"/>
		<text transform="matrix(1 0 0 1 100.8373 614.6395)" class="st4 st5 st6">M</text>
		<rect x="118.9" y="608.43" class="st3" width="17.31" height="12.88"/>
		<text transform="matrix(1 0 0 1 125.2743 614.6395)" class="st4 st5 st6">J</text>
		<rect x="142.01" y="608.43" class="st3" width="17.31" height="12.88"/>
		<text transform="matrix(1 0 0 1 148.3803 614.6395)" class="st4 st5 st6">J</text>
		<rect x="165.37" y="608.43" class="st3" width="17.31" height="12.88"/>
		<text transform="matrix(1 0 0 1 171.3241 614.6395)" class="st4 st5 st6">A</text>
		<rect x="188.73" y="608.43" class="st3" width="17.31" height="12.88"/>
		<text transform="matrix(1 0 0 1 194.9301 614.6395)" class="st4 st5 st6">S</text>
		<rect x="212.09" y="608.43" class="st3" width="17.31" height="12.88"/>
		<text transform="matrix(1 0 0 1 217.9008 614.6395)" class="st4 st5 st6">O</text>
		<rect x="235.46" y="608.43" class="st3" width="17.31" height="12.88"/>
		<text transform="matrix(1 0 0 1 241.1659 614.6395)" class="st4 st5 st6">N</text>
		<rect x="258.83" y="608.43" class="st3" width="17.31" height="12.88"/>
		<text transform="matrix(1 0 0 1 264.7738 614.6395)" class="st4 st5 st6">D</text>
		<rect x="281.37" y="608.43" class="st3" width="17.31" height="12.88"/>
		<text transform="matrix(1 0 0 1 287.7426 614.6404)" class="st4 st5 st6">J</text>
		<rect x="304.21" y="608.43" class="st3" width="17.31" height="12.88"/>
		<text transform="matrix(1 0 0 1 310.5809 614.6404)" class="st4 st5 st6">F</text>
		<rect x="327.05" y="608.43" class="st3" width="17.31" height="12.88"/>
		<text transform="matrix(1 0 0 1 332.0966 614.6395)" class="st4 st5 st6">M</text>
		<rect x="349.89" y="608.43" class="st3" width="17.31" height="12.88"/>
		<text transform="matrix(1 0 0 1 355.8529 614.6395)" class="st4 st5 st6">A</text>
		<rect x="373" y="608.43" class="st3" width="17.31" height="12.88"/>
		<text transform="matrix(1 0 0 1 378.0453 614.6395)" class="st4 st5 st6">M</text>
		<rect x="396.11" y="608.43" class="st3" width="17.31" height="12.88"/>
		<text transform="matrix(1 0 0 1 402.4813 614.6395)" class="st4 st5 st6">J</text>
		<rect x="419.21" y="608.43" class="st3" width="17.31" height="12.88"/>
		<text transform="matrix(1 0 0 1 425.5868 614.6395)" class="st4 st5 st6">J</text>
		<rect x="442.58" y="608.43" class="st3" width="17.31" height="12.88"/>
		<text transform="matrix(1 0 0 1 448.5321 614.6395)" class="st4 st5 st6">A</text>
		<rect x="465.94" y="608.43" class="st3" width="17.31" height="12.88"/>
		<text transform="matrix(1 0 0 1 472.1356 614.6395)" class="st4 st5 st6">S</text>
		<rect x="489.3" y="608.43" class="st3" width="17.31" height="12.88"/>
		<text transform="matrix(1 0 0 1 495.1073 614.6395)" class="st4 st5 st6">O</text>
		<rect x="512.67" y="608.43" class="st3" width="17.31" height="12.88"/>
		<text transform="matrix(1 0 0 1 518.3739 614.6395)" class="st4 st5 st6">N</text>
		<rect x="536.04" y="608.43" class="st3" width="17.31" height="12.88"/>
		<text transform="matrix(1 0 0 1 541.9813 614.6395)" class="st4 st5 st6">D</text>
		<rect x="559.26" y="608.43" class="st3" width="17.31" height="12.88"/>
		<text transform="matrix(1 0 0 1 565.6327 614.6404)" class="st4 st5 st6">J</text>
		<rect x="582.1" y="608.43" class="st3" width="17.31" height="12.88"/>
		<text transform="matrix(1 0 0 1 588.4706 614.6404)" class="st4 st5 st6">F</text>
		<rect x="604.94" y="608.43" class="st3" width="17.31" height="12.88"/>
		<text transform="matrix(1 0 0 1 609.9882 614.6395)" class="st4 st5 st6">M</text>
		<rect x="627.79" y="608.43" class="st3" width="17.31" height="12.88"/>
		<text transform="matrix(1 0 0 1 633.744 614.6395)" class="st4 st5 st6">A</text>
		<rect x="650.89" y="608.43" class="st3" width="17.31" height="12.88"/>
		<text transform="matrix(1 0 0 1 655.9364 614.6395)" class="st4 st5 st6">M</text>
		<rect x="674" y="608.43" class="st3" width="17.31" height="12.88"/>
		<text transform="matrix(1 0 0 1 680.3729 614.6395)" class="st4 st5 st6">J</text>
		<rect x="697.11" y="608.43" class="st3" width="17.31" height="12.88"/>
		<text transform="matrix(1 0 0 1 703.4803 614.6395)" class="st4 st5 st6">J</text>
		<rect x="722.94" y="608.43" class="st3" width="17.31" height="12.88"/>
		<text transform="matrix(1 0 0 1 728.8983 614.6395)" class="st4 st5 st6">A</text>
		<rect x="743.62" y="608.43" class="st3" width="17.31" height="12.88"/>
		<text transform="matrix(1 0 0 1 749.8212 614.6395)" class="st4 st5 st6">S</text>
		<rect x="766.25" y="608.43" class="st3" width="17.31" height="12.88"/>
		<text transform="matrix(1 0 0 1 772.0594 614.6395)" class="st4 st5 st6">O</text>
	</g>
	<g>
		<rect x="4.16" y="86.76" class="st3" width="17.31" height="12.88"/>
		<text transform="matrix(1 0 0 1 10.5341 92.9734)" class="st4 st5 st6">J</text>
		<rect x="27" y="86.76" class="st3" width="17.31" height="12.88"/>
		<text transform="matrix(1 0 0 1 33.3729 92.9734)" class="st4 st5 st6">F</text>
		<rect x="49.84" y="86.76" class="st3" width="17.31" height="12.88"/>
		<text transform="matrix(1 0 0 1 54.889 92.9724)" class="st4 st5 st6">M</text>
		<rect x="72.69" y="86.76" class="st3" width="17.31" height="12.88"/>
		<text transform="matrix(1 0 0 1 78.6449 92.9724)" class="st4 st5 st6">A</text>
		<rect x="95.79" y="86.76" class="st3" width="17.31" height="12.88"/>
		<text transform="matrix(1 0 0 1 100.8373 92.9724)" class="st4 st5 st6">M</text>
		<rect x="118.9" y="86.76" class="st3" width="17.31" height="12.88"/>
		<text transform="matrix(1 0 0 1 125.2743 92.9724)" class="st4 st5 st6">J</text>
		<rect x="142.01" y="86.76" class="st3" width="17.31" height="12.88"/>
		<text transform="matrix(1 0 0 1 148.3803 92.9724)" class="st4 st5 st6">J</text>
		<rect x="165.37" y="86.76" class="st3" width="17.31" height="12.88"/>
		<text transform="matrix(1 0 0 1 171.3241 92.9724)" class="st4 st5 st6">A</text>
		<rect x="188.73" y="86.76" class="st3" width="17.31" height="12.88"/>
		<text transform="matrix(1 0 0 1 194.9301 92.9724)" class="st4 st5 st6">S</text>
		<rect x="212.09" y="86.76" class="st3" width="17.31" height="12.88"/>
		<text transform="matrix(1 0 0 1 217.9008 92.9724)" class="st4 st5 st6">O</text>
		<rect x="235.46" y="86.76" class="st3" width="17.31" height="12.88"/>
		<text transform="matrix(1 0 0 1 241.1659 92.9724)" class="st4 st5 st6">N</text>
		<rect x="258.83" y="86.76" class="st3" width="17.31" height="12.88"/>
		<text transform="matrix(1 0 0 1 264.7738 92.9724)" class="st4 st5 st6">D</text>
		<rect x="281.37" y="86.76" class="st3" width="17.31" height="12.88"/>
		<text transform="matrix(1 0 0 1 287.7426 92.9734)" class="st4 st5 st6">J</text>
		<rect x="304.21" y="86.76" class="st3" width="17.31" height="12.88"/>
		<text transform="matrix(1 0 0 1 310.5809 92.9734)" class="st4 st5 st6">F</text>
		<rect x="327.05" y="86.76" class="st3" width="17.31" height="12.88"/>
		<text transform="matrix(1 0 0 1 332.0966 92.9724)" class="st4 st5 st6">M</text>
		<rect x="349.89" y="86.76" class="st3" width="17.31" height="12.88"/>
		<text transform="matrix(1 0 0 1 355.8529 92.9724)" class="st4 st5 st6">A</text>
		<rect x="373" y="86.76" class="st3" width="17.31" height="12.88"/>
		<text transform="matrix(1 0 0 1 378.0453 92.9724)" class="st4 st5 st6">M</text>
		<rect x="396.11" y="86.76" class="st3" width="17.31" height="12.88"/>
		<text transform="matrix(1 0 0 1 402.4813 92.9724)" class="st4 st5 st6">J</text>
		<rect x="419.21" y="86.76" class="st3" width="17.31" height="12.88"/>
		<text transform="matrix(1 0 0 1 425.5868 92.9724)" class="st4 st5 st6">J</text>
		<rect x="442.58" y="86.76" class="st3" width="17.31" height="12.88"/>
		<text transform="matrix(1 0 0 1 448.5321 92.9724)" class="st4 st5 st6">A</text>
		<rect x="465.94" y="86.76" class="st3" width="17.31" height="12.88"/>
		<text transform="matrix(1 0 0 1 472.1356 92.9724)" class="st4 st5 st6">S</text>
		<rect x="489.3" y="86.76" class="st3" width="17.31" height="12.88"/>
		<text transform="matrix(1 0 0 1 495.1073 92.9724)" class="st4 st5 st6">O</text>
		<rect x="512.67" y="86.76" class="st3" width="17.31" height="12.88"/>
		<text transform="matrix(1 0 0 1 518.3739 92.9724)" class="st4 st5 st6">N</text>
		<rect x="536.04" y="86.76" class="st3" width="17.31" height="12.88"/>
		<text transform="matrix(1 0 0 1 541.9813 92.9724)" class="st4 st5 st6">D</text>
		<rect x="559.26" y="86.76" class="st3" width="17.31" height="12.88"/>
		<text transform="matrix(1 0 0 1 565.6327 92.9734)" class="st4 st5 st6">J</text>
		<rect x="582.1" y="86.76" class="st3" width="17.31" height="12.88"/>
		<text transform="matrix(1 0 0 1 588.4706 92.9734)" class="st4 st5 st6">F</text>
		<rect x="604.94" y="86.76" class="st3" width="17.31" height="12.88"/>
		<text transform="matrix(1 0 0 1 609.9882 92.9724)" class="st4 st5 st6">M</text>
		<rect x="627.79" y="86.76" class="st3" width="17.31" height="12.88"/>
		<text transform="matrix(1 0 0 1 633.744 92.9724)" class="st4 st5 st6">A</text>
		<rect x="650.89" y="86.76" class="st3" width="17.31" height="12.88"/>
		<text transform="matrix(1 0 0 1 655.9364 92.9724)" class="st4 st5 st6">M</text>
		<rect x="674" y="86.76" class="st3" width="17.31" height="12.88"/>
		<text transform="matrix(1 0 0 1 680.3729 92.9724)" class="st4 st5 st6">J</text>
		<rect x="697.11" y="86.76" class="st3" width="17.31" height="12.88"/>
		<text transform="matrix(1 0 0 1 703.4803 92.9724)" class="st4 st5 st6">J</text>
		<rect x="722.94" y="86.76" class="st3" width="17.31" height="12.88"/>
		<text transform="matrix(1 0 0 1 728.8983 92.9724)" class="st4 st5 st6">A</text>
		<rect x="743.62" y="86.76" class="st3" width="17.31" height="12.88"/>
		<text transform="matrix(1 0 0 1 749.8212 92.9724)" class="st4 st5 st6">S</text>
		<rect x="766.25" y="86.76" class="st3" width="17.31" height="12.88"/>
		<text transform="matrix(1 0 0 1 772.0594 92.9724)" class="st4 st5 st6">O</text>
	</g>
	<rect x="98.04" y="626.71" class="st3" width="76.35" height="20.79"/>
	<text transform="matrix(1 0 0 1 122.2699 636.0242)" class="st4 st5 st7">2017</text>
	<rect x="375.24" y="626.71" class="st3" width="76.35" height="20.79"/>
	<text transform="matrix(1 0 0 1 399.4764 636.0242)" class="st4 st5 st7">2018</text>
	<rect x="615.19" y="626.71" class="st3" width="76.35" height="20.79"/>
	<text transform="matrix(1 0 0 1 639.4227 636.0242)" class="st4 st5 st7">2019</text>
	<rect x="12.82" y="64.13" class="st3" width="277.21" height="20.79"/>
	<text transform="matrix(1 0 0 1 138.683 72.9478)" class="st4 st8 st7">2017</text>
	<rect x="290.86" y="64.13" class="st3" width="278.04" height="20.79"/>
	<text transform="matrix(1 0 0 1 417.14 72.9478)" class="st4 st8 st7">2018</text>
	<rect x="568.9" y="64.13" class="st3" width="206.01" height="20.79"/>
	<text transform="matrix(1 0 0 1 659.163 72.9478)" class="st4 st8 st7">2019</text>
	<rect x="173.65" y="811.39" class="st3" width="475.96" height="21.67"/>
	<text transform="matrix(1 0 0 1 173.6532 818.8932)"><tspan x="0" y="0" class="st5 st22">Note: this chart describe events and popular protest movements in broad terms, but does not include every </tspan><tspan x="0" y="12" class="st5 st22">protest or event that occurred.</tspan></text>
	<g id="Layer_4">
		<rect x="632.36" y="661.83" class="st3" width="138.76" height="29.87"/>
		<text transform="matrix(1 0 0 1 636.6449 670.3495)"><tspan x="0" y="0" class="st4 st8 st9">Data source: countlove.org</tspan><tspan x="3.42" y="14.4" class="st4 st8 st9">Graphics by Alyssa Fowers</tspan></text>
		<g>
			<rect x="10.3" y="652.91" class="st3" width="342.11" height="42.53"/>
			<text transform="matrix(1 0 0 1 10.2952 661.4269)"><tspan x="0" y="0" class="st4 st8 st9">Protests related to multiple topics are included multiple times.</tspan><tspan x="0" y="14.4" class="st4 st8 st9">This chart describe events and popular protest movements in broad </tspan><tspan x="0" y="28.8" class="st4 st8 st9">terms, but does not include every protest or event that occurred.</tspan></text>
		</g>
	</g>
</g>
<g id="Layer_1">
	<g id="stream">
		<path id="supreme_x5F_court-stream" class="st10" d="M11.33,272.56l3.93-1.87c3.93-1.87,11.8-5.62,19.29-7.14
			c7.49-1.52,14.59-0.81,22.08-0.1c7.49,0.71,15.35,1.42,23.09,5.3c7.74,3.88,15.35,10.94,23.09,15.38
			c7.74,4.44,15.61,6.25,23.35,8.54s15.35,5.05,23.09-1.85c7.74-6.9,15.61-23.46,23.47-29.73c7.87-6.27,15.73-2.25,23.47,3.79
			c7.74,6.03,15.35,14.08,23.09,20.86s15.61,12.3,23.35,16.86s15.35,8.14,23.09,3.21c7.74-4.93,15.61-18.37,23.47-25.59
			s15.73-8.2,23.22-44.47S327.01,127.9,334.5,120.7c7.49-7.2,15.35,49.97,23.09,90.21s15.35,63.54,23.09,57.86
			c7.74-5.68,15.61-40.33,23.35-40.28c7.74,0.06,15.35,34.83,23.09,52.06c7.74,17.23,15.61,16.91,23.47,12.97
			c7.87-3.94,15.73-11.51,23.47-18.71c7.74-7.2,15.35-14.02,23.09-10.65c7.74,3.37,15.61,16.93,23.35,28.92
			c7.74,11.99,15.35,22.39,23.09,19.04c7.74-3.35,15.61-20.46,23.47-25.12c7.87-4.65,15.73,3.15,23.22,5.74
			c7.49,2.58,14.59-0.06,22.08-1.5c7.49-1.44,15.35-1.68,23.09-6.72c7.74-5.05,15.35-14.9,23.09-14.81
			c7.74,0.1,15.61,10.15,23.35,11.71c7.74,1.56,15.35-5.38,23.09-5.66c7.74-0.28,15.61,6.11,23.47,6.25s15.73-5.97,23.47-5.91
			s15.35,6.29,19.16,9.4l3.81,3.11l0,0l-3.81-3.11c-3.81-3.11-11.42-9.34-19.16-9.4s-15.61,6.05-23.47,5.91s-15.73-6.53-23.47-6.25
			c-7.74,0.28-15.35,7.22-23.09,5.66c-7.74-1.56-15.61-11.61-23.35-11.71c-7.74-0.1-15.35,9.76-23.09,14.81
			c-7.74,5.05-15.61,5.28-23.09,6.72c-7.49,1.44-14.59,4.08-22.08,1.5c-7.49-2.58-15.35-10.39-23.22-5.74
			c-7.87,4.65-15.73,21.76-23.47,25.12c-7.74,3.35-15.35-7.06-23.09-14.08s-15.61-10.65-23.35-9.99
			c-7.74,0.65-15.35,5.58-23.09,8.63c-7.74,3.06-15.61,4.24-23.47,4.75c-7.87,0.51-15.73,0.35-23.47-17.66
			c-7.74-18.02-15.35-53.9-23.09-54.55c-7.74-0.65-15.61,33.93-23.35,39.57c-7.74,5.64-15.35-17.66-23.09-57.9
			s-15.61-97.41-23.09-90.21c-7.49,7.2-14.59,78.76-22.08,115.03s-15.35,37.26-23.22,44.47s-15.73,20.66-23.47,25.59
			c-7.74,4.93-15.35,1.34-23.09-3.21s-15.61-10.07-23.35-16.82s-15.35-14.71-23.09-20.74c-7.74-6.03-15.61-10.13-23.47-3.9
			c-7.87,6.23-15.73,22.79-23.47,29.69c-7.74,6.9-15.35,4.14-23.09,1.85s-15.61-4.1-23.35-8.5c-7.74-4.4-15.35-11.37-23.09-15.14
			c-7.74-3.77-15.61-4.32-23.09-5.03c-7.49-0.71-14.59-1.58-22.08-0.18s-15.35,5.07-19.29,6.9L11.33,272.56z"/>
		<path id="women-stream" class="st11" d="M11.33,272.56l3.93-1.83c3.93-1.83,11.8-5.5,19.29-6.9s14.59-0.53,22.08,0.18
			c7.49,0.71,15.35,1.26,23.09,5.03c7.74,3.77,15.35,10.74,23.09,15.14c7.74,4.4,15.61,6.21,23.35,8.5s15.35,5.05,23.09-1.85
			c7.74-6.9,15.61-23.46,23.47-29.69c7.87-6.23,15.73-2.13,23.47,3.9c7.74,6.03,15.35,14,23.09,20.74s15.61,12.26,23.35,16.82
			s15.35,8.14,23.09,3.21c7.74-4.93,15.61-18.37,23.47-25.59s15.73-8.2,23.22-44.47S327.01,127.9,334.5,120.7
			c7.49-7.2,15.35,49.97,23.09,90.21s15.35,63.54,23.09,57.9c7.74-5.64,15.61-40.22,23.35-39.57c7.74,0.65,15.35,36.53,23.09,54.55
			c7.74,18.02,15.61,18.18,23.47,17.66c7.87-0.51,15.73-1.7,23.47-4.75c7.74-3.06,15.35-7.98,23.09-8.63
			c7.74-0.65,15.61,2.98,23.35,9.99s15.35,17.43,23.09,14.08c7.74-3.35,15.61-20.46,23.47-25.12c7.87-4.65,15.73,3.15,23.22,5.74
			c7.49,2.58,14.59-0.06,22.08-1.5c7.49-1.44,15.35-1.68,23.09-6.72c7.74-5.05,15.35-14.9,23.09-14.81
			c7.74,0.1,15.61,10.15,23.35,11.71c7.74,1.56,15.35-5.38,23.09-5.66c7.74-0.28,15.61,6.11,23.47,6.25s15.73-5.97,23.47-5.91
			s15.35,6.29,19.16,9.4l3.81,3.11v11.59l-3.81-4.53c-3.81-4.53-11.42-13.6-19.16-15.04c-7.74-1.44-15.61,4.75-23.47,4.57
			s-15.73-6.72-23.47-5.78c-7.74,0.95-15.35,9.38-23.09,18.43c-7.74,9.05-15.61,18.71-23.35,19.28
			c-7.74,0.57-15.35-7.94-23.09-12.56c-7.74-4.61-15.61-5.32-23.09-4.91c-7.49,0.41-14.59,1.95-22.08,5.76
			c-7.49,3.8-15.35,9.88-23.22,13.98s-15.73,6.23-23.47,2.72c-7.74-3.51-15.35-12.66-23.09-14.15c-7.74-1.5-15.61,4.65-23.35,8.46
			c-7.74,3.8-15.35,5.26-23.09,3.08c-7.74-2.19-15.61-8.02-23.47-11.41c-7.87-3.39-15.73-4.34-23.47-22.43
			c-7.74-18.1-15.35-53.35-23.09-53.8c-7.74-0.45-15.61,33.89-23.35,40.59c-7.74,6.7-15.35-14.23-23.09-53.17
			s-15.61-95.87-23.09-89.54c-7.49,6.33-14.59,75.92-22.08,122.56s-15.35,70.34-23.22,77.2c-7.87,6.86-15.73-3.11-23.47-9.9
			c-7.74-6.78-15.35-10.37-23.09-13.82c-7.74-3.45-15.61-6.76-23.35-13.15s-15.35-15.85-23.09-22.79
			c-7.74-6.94-15.61-11.36-23.47-5.24c-7.87,6.11-15.73,22.75-23.47,29.61c-7.74,6.86-15.35,3.94-23.09,1.54
			c-7.74-2.41-15.61-4.3-23.35-7.39c-7.74-3.1-15.35-7.39-23.09-7.45s-15.61,4.12-23.09,5.58s-14.59,0.2-22.08,14.57
			s-15.35,44.38-19.29,59.38l-3.93,15V272.56z"/>
		<path id="police-stream" class="st12" d="M11.33,375.47l3.93-15c3.93-15,11.8-45.01,19.29-59.38s14.59-13.11,22.08-14.57
			s15.35-5.64,23.09-5.58s15.35,4.36,23.09,7.45c7.74,3.1,15.61,4.99,23.35,7.39c7.74,2.41,15.35,5.32,23.09-1.54
			c7.74-6.86,15.61-23.5,23.47-29.61c7.87-6.11,15.73-1.7,23.47,5.24c7.74,6.94,15.35,16.4,23.09,22.79s15.61,9.7,23.35,13.15
			c7.74,3.45,15.35,7.04,23.09,13.82c7.74,6.78,15.61,16.76,23.47,9.9c7.87-6.86,15.73-30.56,23.22-77.2s14.59-116.23,22.08-122.56
			c7.49-6.33,15.35,50.61,23.09,89.54s15.35,59.87,23.09,53.17c7.74-6.7,15.61-41.04,23.35-40.59c7.74,0.45,15.35,35.7,23.09,53.8
			c7.74,18.1,15.61,19.04,23.47,22.43c7.87,3.39,15.73,9.23,23.47,11.41c7.74,2.19,15.35,0.73,23.09-3.08
			c7.74-3.8,15.61-9.96,23.35-8.46c7.74,1.5,15.35,10.65,23.09,14.15c7.74,3.51,15.61,1.38,23.47-2.72s15.73-10.17,23.22-13.98
			c7.49-3.8,14.59-5.34,22.08-5.76c7.49-0.41,15.35,0.3,23.09,4.91c7.74,4.61,15.35,13.13,23.09,12.56
			c7.74-0.57,15.61-10.23,23.35-19.28c7.74-9.05,15.35-17.49,23.09-18.43c7.74-0.95,15.61,5.6,23.47,5.78s15.73-6.01,23.47-4.57
			c7.74,1.44,15.35,10.51,19.16,15.04l3.81,4.53v4.97l-3.81-4.46c-3.81-4.46-11.42-13.37-19.16-14.37s-15.61,5.89-23.47,5.84
			c-7.87-0.06-15.73-7.08-23.47-6.21c-7.74,0.87-15.35,9.62-23.09,18.71c-7.74,9.09-15.61,18.51-23.35,19.12
			c-7.74,0.61-15.35-7.59-23.09-12.01c-7.74-4.42-15.61-5.05-23.09-4.87c-7.49,0.18-14.59,1.16-22.08,4.69
			c-7.49,3.53-15.35,9.6-23.22,13.31s-15.73,5.05-23.47,1.14c-7.74-3.9-15.35-13.05-23.09-13.88s-15.61,6.66-23.35,11.41
			c-7.74,4.75-15.35,6.76-23.09,5.01c-7.74-1.75-15.61-7.27-23.47-10.74c-7.87-3.47-15.73-4.89-23.47-23.1
			c-7.74-18.22-15.35-53.23-23.09-54.04c-7.74-0.81-15.61,32.59-23.35,39.33c-7.74,6.74-15.35-13.17-23.09-51.83
			s-15.61-96.07-23.09-90.37c-7.49,5.7-14.59,74.5-22.08,120.39s-15.35,68.88-23.22,75.42c-7.87,6.54-15.73-3.35-23.47-9.03
			c-7.74-5.68-15.35-7.14-23.09-7.87c-7.74-0.73-15.61-0.73-23.35-5.26c-7.74-4.53-15.35-13.6-23.09-22.83
			c-7.74-9.23-15.61-18.61-23.47-15.34c-7.87,3.27-15.73,19.2-23.47,25.83c-7.74,6.62-15.35,3.94-23.09,1.81s-15.61-3.71-23.35-7
			c-7.74-3.29-15.35-8.3-23.09-8.79c-7.74-0.49-15.61,3.53-23.09,4.55s-14.59-0.95-22.08,12.83s-15.35,43.31-19.29,58.08
			L11.33,375.47z"/>
		<path id="education-stream" class="st13" d="M11.33,375.47l3.93-14.77c3.93-14.77,11.8-44.3,19.29-58.08s14.59-11.81,22.08-12.83
			s15.35-5.05,23.09-4.55c7.74,0.49,15.35,5.5,23.09,8.79c7.74,3.29,15.61,4.87,23.35,7s15.35,4.81,23.09-1.81
			c7.74-6.62,15.61-22.55,23.47-25.83c7.87-3.27,15.73,6.11,23.47,15.34c7.74,9.23,15.35,18.29,23.09,22.83
			c7.74,4.53,15.61,4.53,23.35,5.26c7.74,0.73,15.35,2.19,23.09,7.87c7.74,5.68,15.61,15.57,23.47,9.03
			c7.87-6.54,15.73-29.53,23.22-75.42s14.59-114.69,22.08-120.39c7.49-5.7,15.35,51.71,23.09,90.37s15.35,58.57,23.09,51.83
			c7.74-6.74,15.61-40.14,23.35-39.33c7.74,0.81,15.35,35.82,23.09,54.04c7.74,18.22,15.61,19.63,23.47,23.1
			c7.87,3.47,15.73,8.99,23.47,10.74c7.74,1.75,15.35-0.26,23.09-5.01c7.74-4.75,15.61-12.24,23.35-11.41s15.35,9.98,23.09,13.88
			c7.74,3.9,15.61,2.56,23.47-1.14s15.73-9.78,23.22-13.31c7.49-3.53,14.59-4.51,22.08-4.69c7.49-0.18,15.35,0.45,23.09,4.87
			c7.74,4.42,15.35,12.62,23.09,12.01c7.74-0.61,15.61-10.03,23.35-19.12c7.74-9.09,15.35-17.84,23.09-18.71
			c7.74-0.87,15.61,6.15,23.47,6.21c7.87,0.06,15.73-6.84,23.47-5.84s15.35,9.92,19.16,14.37l3.81,4.46v5.68l-3.81-4.18
			c-3.81-4.18-11.42-12.54-19.16-14.1c-7.74-1.56-15.61,3.69-23.47,2.76s-15.73-8.02-23.47-6.29c-7.74,1.73-15.35,12.3-23.09,24.23
			c-7.74,11.93-15.61,25.21-23.35,27.36c-7.74,2.15-15.35-6.84-23.09-12.56c-7.74-5.72-15.61-8.16-23.09-9.68
			c-7.49-1.52-14.59-2.11-22.08,0.55c-7.49,2.66-15.35,8.58-23.22,11.85s-15.73,3.9-23.47-0.32c-7.74-4.22-15.35-13.29-23.09-13.48
			s-15.61,8.48-23.35,13.54c-7.74,5.07-15.35,6.53-23.09,4.3c-7.74-2.23-15.61-8.14-23.47-12.44c-7.87-4.3-15.73-6.98-23.47-25.51
			c-7.74-18.53-15.35-52.91-23.09-52.14c-7.74,0.77-15.61,36.69-23.35,47.49c-7.74,10.8-15.35-3.51-23.09-40.91
			s-15.61-97.88-23.09-93.72c-7.49,4.16-14.59,72.96-22.08,116.73s-15.35,62.49-23.22,66.44s-15.73-6.9-23.47-12.93
			c-7.74-6.03-15.35-7.25-23.09-7.31s-15.61,1.04-23.35-3.13s-15.35-13.64-23.09-23.62c-7.74-9.98-15.61-20.46-23.47-17.51
			c-7.87,2.96-15.73,19.36-23.47,26.3c-7.74,6.94-15.35,4.42-23.09,3.23s-15.61-1.03-23.35-3.92c-7.74-2.9-15.35-8.85-23.09-9.19
			s-15.61,4.95-23.09,5.42s-14.59-3.86-22.08,8.26s-15.35,40.71-19.29,55l-3.93,14.29V375.47z"/>
		<path id="executive-stream" class="st14" d="M11.33,375.7l3.93-14.29c3.93-14.29,11.8-42.88,19.29-55s14.59-7.79,22.08-8.26
			s15.35-5.76,23.09-5.42s15.35,6.29,23.09,9.19c7.74,2.9,15.61,2.74,23.35,3.92s15.35,3.71,23.09-3.23
			c7.74-6.94,15.61-23.34,23.47-26.3c7.87-2.96,15.73,7.53,23.47,17.51c7.74,9.98,15.35,19.44,23.09,23.62s15.61,3.08,23.35,3.13
			s15.35,1.28,23.09,7.31c7.74,6.03,15.61,16.88,23.47,12.93s15.73-22.67,23.22-66.44s14.59-112.57,22.08-116.73
			c7.49-4.16,15.35,56.32,23.09,93.72s15.35,51.71,23.09,40.91c7.74-10.8,15.61-46.72,23.35-47.49
			c7.74-0.77,15.35,33.61,23.09,52.14c7.74,18.53,15.61,21.21,23.47,25.51c7.87,4.3,15.73,10.21,23.47,12.44
			c7.74,2.23,15.35,0.77,23.09-4.3c7.74-5.07,15.61-13.74,23.35-13.54s15.35,9.27,23.09,13.48c7.74,4.22,15.61,3.59,23.47,0.32
			s15.73-9.19,23.22-11.85c7.49-2.66,14.59-2.07,22.08-0.55c7.49,1.52,15.35,3.96,23.09,9.68c7.74,5.72,15.35,14.71,23.09,12.56
			c7.74-2.15,15.61-15.44,23.35-27.36c7.74-11.93,15.35-22.49,23.09-24.23c7.74-1.73,15.61,5.36,23.47,6.29s15.73-4.32,23.47-2.76
			c7.74,1.56,15.35,9.92,19.16,14.1l3.81,4.18v20.58l-3.81-6.98c-3.81-6.98-11.42-20.94-19.16-24.39s-15.61,3.61-23.47,4.38
			s-15.73-4.75-23.47-2.46c-7.74,2.29-15.35,12.38-23.09,22.45c-7.74,10.07-15.61,20.13-23.35,21.8
			c-7.74,1.68-15.35-5.03-23.09-10.59c-7.74-5.56-15.61-9.98-23.09-12.72c-7.49-2.74-14.59-3.8-22.08,1.18
			c-7.49,4.99-15.35,16.03-23.22,18.98c-7.87,2.96-15.73-2.17-23.47-1.26c-7.74,0.91-15.35,7.85-23.09,12.58s-15.61,7.25-23.35,8.14
			c-7.74,0.89-15.35,0.14-23.09-5.72c-7.74-5.85-15.61-16.82-23.47-22.81c-7.87-5.99-15.73-7.02-23.47-25.98
			c-7.74-18.96-15.35-55.87-23.09-56.87c-7.74-1.01-15.61,33.89-23.35,44.06c-7.74,10.17-15.35-4.38-23.09-41.54
			s-15.61-96.93-23.09-92.62c-7.49,4.32-14.59,72.72-22.08,117s-15.35,64.42-23.22,68.17c-7.87,3.75-15.73-8.91-23.47-14.86
			c-7.74-5.95-15.35-5.2-23.09-4.67c-7.74,0.53-15.61,0.85-23.35-3.84s-15.35-14.39-23.09-23.46c-7.74-9.07-15.61-17.51-23.47-13.64
			c-7.87,3.86-15.73,20.03-23.47,28.27c-7.74,8.24-15.35,8.56-23.09,7.02c-7.74-1.54-15.61-4.93-23.35-5.26
			c-7.74-0.34-15.35,2.39-23.09,7.37c-7.74,4.99-15.61,12.24-23.09,12.36s-14.59-6.9-22.08-0.06c-7.49,6.84-15.35,27.54-19.29,37.89
			l-3.93,10.35V375.7z"/>
		<path id="immigration-stream" class="st15" d="M11.33,383.75l3.93-10.35c3.93-10.35,11.8-31.05,19.29-37.89
			c7.49-6.84,14.59,0.18,22.08,0.06s15.35-7.37,23.09-12.36c7.74-4.99,15.35-7.71,23.09-7.37c7.74,0.34,15.61,3.73,23.35,5.26
			c7.74,1.54,15.35,1.22,23.09-7.02c7.74-8.24,15.61-24.41,23.47-28.27c7.87-3.86,15.73,4.57,23.47,13.64
			c7.74,9.07,15.35,18.77,23.09,23.46s15.61,4.38,23.35,3.84c7.74-0.53,15.35-1.28,23.09,4.67c7.74,5.95,15.61,18.61,23.47,14.86
			c7.87-3.75,15.73-23.89,23.22-68.17s14.59-112.68,22.08-117c7.49-4.32,15.35,55.45,23.09,92.62s15.35,51.71,23.09,41.54
			c7.74-10.17,15.61-45.07,23.35-44.06c7.74,1.01,15.35,37.91,23.09,56.87c7.74,18.96,15.61,19.99,23.47,25.98
			c7.87,5.99,15.73,16.95,23.47,22.81c7.74,5.85,15.35,6.6,23.09,5.72c7.74-0.89,15.61-3.41,23.35-8.14s15.35-11.67,23.09-12.58
			c7.74-0.91,15.61,4.22,23.47,1.26c7.87-2.96,15.73-14,23.22-18.98c7.49-4.99,14.59-3.92,22.08-1.18
			c7.49,2.74,15.35,7.16,23.09,12.72c7.74,5.56,15.35,12.26,23.09,10.59c7.74-1.68,15.61-11.73,23.35-21.8
			c7.74-10.07,15.35-20.17,23.09-22.45c7.74-2.29,15.61,3.23,23.47,2.46s15.73-7.83,23.47-4.38s15.35,17.41,19.16,24.39l3.81,6.98
			v6.15l-3.81-6.58c-3.81-6.58-11.42-19.75-19.16-21.86c-7.74-2.11-15.61,6.84-23.47,19.16c-7.87,12.32-15.73,28.01-23.47,29.51
			c-7.74,1.5-15.35-11.2-23.09-12.36c-7.74-1.16-15.61,9.21-23.35,10.33c-7.74,1.12-15.35-7-23.09-13.43
			c-7.74-6.43-15.61-11.16-23.09-9.44c-7.49,1.72-14.59,9.88-22.08,15.1c-7.49,5.22-15.35,7.51-23.22,5.97
			c-7.87-1.54-15.73-6.9-23.47-6.11c-7.74,0.79-15.35,7.73-23.09,12.62c-7.74,4.89-15.61,7.73-23.35,8.34
			c-7.74,0.61-15.35-1.01-23.09-6.35c-7.74-5.34-15.61-14.41-23.47-17.05c-7.87-2.64-15.73,1.14-23.47,17.27
			c-7.74,16.13-15.35,44.59-23.09,41.1c-7.74-3.49-15.61-38.93-23.35-63.89c-7.74-24.96-15.35-39.43-23.09-75.52
			c-7.74-36.1-15.61-93.82-23.09-89.62c-7.49,4.2-14.59,70.32-22.08,114.44s-15.35,66.24-23.22,70.22s-15.73-10.17-23.47-17.39
			c-7.74-7.22-15.35-7.49-23.09-7.67s-15.61-0.26-23.35,3.17s-15.35,10.37-23.09,2.09c-7.74-8.28-15.61-31.78-23.47-36.19
			c-7.87-4.42-15.73,10.25-23.47,17.94c-7.74,7.69-15.35,8.4-23.09,11.08c-7.74,2.68-15.61,7.33-23.35,7.59
			c-7.74,0.26-15.35-3.88-23.09-1.26s-15.61,12.01-23.09,20.88s-14.59,17.23-22.08,27.58c-7.49,10.35-15.35,22.69-19.29,28.86
			l-3.93,6.17V383.75z"/>
		<path id="guns-stream_1_" class="st16" d="M11.33,422.31l3.93-6.17c3.93-6.17,11.8-18.51,19.29-28.86
			c7.49-10.35,14.59-18.71,22.08-27.58s15.35-18.25,23.09-20.88s15.35,1.52,23.09,1.26c7.74-0.26,15.61-4.91,23.35-7.59
			c7.74-2.68,15.35-3.39,23.09-11.08c7.74-7.69,15.61-22.36,23.47-17.94c7.87,4.42,15.73,27.91,23.47,36.19
			c7.74,8.28,15.35,1.34,23.09-2.09s15.61-3.35,23.35-3.17s15.35,0.45,23.09,7.67c7.74,7.22,15.61,21.37,23.47,17.39
			s15.73-26.1,23.22-70.22S327.01,179,334.5,174.8c7.49-4.2,15.35,53.52,23.09,89.62c7.74,36.1,15.35,50.57,23.09,75.52
			c7.74,24.96,15.61,60.4,23.35,63.89c7.74,3.49,15.35-24.98,23.09-41.1c7.74-16.13,15.61-19.91,23.47-17.27
			c7.87,2.64,15.73,11.71,23.47,17.05c7.74,5.34,15.35,6.96,23.09,6.35c7.74-0.61,15.61-3.45,23.35-8.34
			c7.74-4.89,15.35-11.83,23.09-12.62c7.74-0.79,15.61,4.57,23.47,6.11c7.87,1.54,15.73-0.75,23.22-5.97
			c7.49-5.22,14.59-13.39,22.08-15.1c7.49-1.72,15.35,3.02,23.09,9.44c7.74,6.43,15.35,14.55,23.09,13.43
			c7.74-1.12,15.61-11.49,23.35-10.33c7.74,1.16,15.35,13.86,23.09,12.36c7.74-1.5,15.61-17.19,23.47-29.51
			c7.87-12.32,15.73-21.27,23.47-19.16c7.74,2.11,15.35,15.28,19.16,21.86l3.81,6.58v1.42l-3.81-5.99
			c-3.81-5.99-11.42-17.98-19.16-15.59s-15.61,19.14-23.47,30.95s-15.73,18.67-23.47,16.97c-7.74-1.7-15.35-11.95-23.09-13.03
			c-7.74-1.08-15.61,7-23.35,7.33c-7.74,0.34-15.35-7.08-23.09-13.07c-7.74-5.99-15.61-10.57-23.09-9.13
			c-7.49,1.44-14.59,8.89-22.08,13.76c-7.49,4.87-15.35,7.16-23.22,5.42s-15.73-7.49-23.47-6.7c-7.74,0.79-15.35,8.12-23.09,13.21
			s-15.61,7.92-23.35,8.58c-7.74,0.65-15.35-0.89-23.09-5.56c-7.74-4.67-15.61-12.48-23.47-14.37c-7.87-1.89-15.73,2.13-23.47,19.44
			c-7.74,17.31-15.35,47.9-23.09,44.73c-7.74-3.17-15.61-40.12-23.35-47.37c-7.74-7.25-15.35,15.18-23.09,57.43
			s-15.61,104.31-23.09,98.57c-7.49-5.74-14.59-79.27-22.08-114.79s-15.35-33.04-23.22-38.95c-7.87-5.91-15.73-20.23-23.47-27.6
			c-7.74-7.37-15.35-7.81-23.09-7.47c-7.74,0.34-15.61,1.44-23.35,4.91s-15.35,9.3-23.09,0.47c-7.74-8.83-15.61-32.33-23.47-36.67
			c-7.87-4.34-15.73,10.49-23.47,18.53c-7.74,8.04-15.35,9.3-23.09,11.99c-7.74,2.68-15.61,6.78-23.35,6.8
			c-7.74,0.02-15.35-4.04-23.09-1.38c-7.74,2.66-15.61,12.05-23.09,20.64s-14.59,16.4-22.08,26.48s-15.35,22.41-19.29,28.58
			L11.33,422.31z"/>
		<path id="race_x5F_confed-stream" class="st17" d="M11.33,422.31l3.93-6.17c3.93-6.17,11.8-18.51,19.29-28.58
			s14.59-17.88,22.08-26.48s15.35-17.98,23.09-20.64c7.74-2.66,15.35,1.4,23.09,1.38c7.74-0.02,15.61-4.12,23.35-6.8
			c7.74-2.68,15.35-3.94,23.09-11.99c7.74-8.04,15.61-22.87,23.47-18.53c7.87,4.34,15.73,27.84,23.47,36.67
			c7.74,8.83,15.35,3,23.09-0.47s15.61-4.57,23.35-4.91c7.74-0.34,15.35,0.1,23.09,7.47c7.74,7.37,15.61,21.69,23.47,27.6
			c7.87,5.91,15.73,3.43,23.22,38.95s14.59,109.06,22.08,114.79c7.49,5.74,15.35-56.32,23.09-98.57s15.35-64.68,23.09-57.43
			c7.74,7.25,15.61,44.2,23.35,47.37c7.74,3.17,15.35-27.42,23.09-44.73c7.74-17.31,15.61-21.33,23.47-19.44
			c7.87,1.89,15.73,9.7,23.47,14.37c7.74,4.67,15.35,6.21,23.09,5.56c7.74-0.65,15.61-3.49,23.35-8.58s15.35-12.42,23.09-13.21
			c7.74-0.79,15.61,4.97,23.47,6.7s15.73-0.55,23.22-5.42c7.49-4.87,14.59-12.32,22.08-13.76c7.49-1.44,15.35,3.13,23.09,9.13
			c7.74,5.99,15.35,13.41,23.09,13.07c7.74-0.34,15.61-8.42,23.35-7.33c7.74,1.08,15.35,11.34,23.09,13.03
			c7.74,1.7,15.61-5.17,23.47-16.97s15.73-28.57,23.47-30.95s15.35,9.6,19.16,15.59l3.81,5.99v9.94l-3.81-6.43
			c-3.81-6.43-11.42-19.28-19.16-16.66s-15.61,20.72-23.47,32.72c-7.87,12.01-15.73,17.92-23.47,15.4
			c-7.74-2.52-15.35-13.48-23.09-14.02c-7.74-0.53-15.61,9.36-23.35,10.13c-7.74,0.77-15.35-7.59-23.09-13.98
			c-7.74-6.39-15.61-10.8-23.09-9.29c-7.49,1.52-14.59,8.97-22.08,17.11c-7.49,8.14-15.35,16.97-23.22,14.33
			c-7.87-2.64-15.73-16.76-23.47-19.36c-7.74-2.6-15.35,6.31-23.09,12.66s-15.61,10.13-23.35,11.41
			c-7.74,1.28-15.35,0.06-23.09-3.47c-7.74-3.53-15.61-9.36-23.47-11.93c-7.87-2.56-15.73-1.85-23.47,14.08
			c-7.74,15.93-15.35,47.08-23.09,43.94c-7.74-3.13-15.61-40.55-23.35-46.94c-7.74-6.39-15.35,18.26-23.09,60.97
			s-15.61,103.52-23.09,97.03c-7.49-6.49-14.59-80.25-22.08-113.41s-15.35-25.71-23.22-32.33s-15.73-27.32-23.47-35.92
			c-7.74-8.6-15.35-5.09-23.09-0.41s-15.61,10.51-23.35,17.64c-7.74,7.14-15.35,15.57-23.09,21.17c-7.74,5.6-15.61,8.36-23.47-1.38
			c-7.87-9.74-15.73-31.98-23.47-42.07c-7.74-10.09-15.35-8.04-23.09-4.38c-7.74,3.67-15.61,8.95-23.35,8.54
			c-7.74-0.41-15.35-6.53-23.09-4.73s-15.61,11.49-23.09,19.73s-14.59,15.02-22.08,23.87s-15.35,19.77-19.29,25.23l-3.93,5.46
			V422.31z"/>
		<path id="guns-stream" class="st18" d="M11.33,423.73l3.93-5.46c3.93-5.46,11.8-16.38,19.29-25.23s14.59-15.63,22.08-23.87
			s15.35-17.94,23.09-19.73s15.35,4.32,23.09,4.73c7.74,0.41,15.61-4.87,23.35-8.54c7.74-3.67,15.35-5.72,23.09,4.38
			c7.74,10.09,15.61,32.33,23.47,42.07c7.87,9.74,15.73,6.98,23.47,1.38c7.74-5.6,15.35-14.04,23.09-21.17
			c7.74-7.14,15.61-12.97,23.35-17.64s15.35-8.18,23.09,0.41c7.74,8.6,15.61,29.29,23.47,35.92s15.73-0.83,23.22,32.33
			s14.59,106.93,22.08,113.41c7.49,6.49,15.35-54.31,23.09-97.03s15.35-67.36,23.09-60.97c7.74,6.39,15.61,43.8,23.35,46.94
			c7.74,3.13,15.35-28.01,23.09-43.94c7.74-15.93,15.61-16.64,23.47-14.08c7.87,2.56,15.73,8.4,23.47,11.93
			c7.74,3.53,15.35,4.75,23.09,3.47c7.74-1.28,15.61-5.07,23.35-11.41s15.35-15.26,23.09-12.66c7.74,2.6,15.61,16.72,23.47,19.36
			c7.87,2.64,15.73-6.19,23.22-14.33c7.49-8.14,14.59-15.59,22.08-17.11c7.49-1.52,15.35,2.9,23.09,9.29
			c7.74,6.39,15.35,14.75,23.09,13.98c7.74-0.77,15.61-10.67,23.35-10.13c7.74,0.53,15.35,11.49,23.09,14.02
			c7.74,2.52,15.61-3.39,23.47-15.4c7.87-12.01,15.73-30.1,23.47-32.72s15.35,10.23,19.16,16.66l3.81,6.43v13.72l-3.81-6.66
			c-3.81-6.66-11.42-19.99-19.16-17.88c-7.74,2.11-15.61,19.65-23.47,31.54s-15.73,18.12-23.47,16.18
			c-7.74-1.93-15.35-12.03-23.09-11.81c-7.74,0.22-15.61,10.74-23.35,10.72c-7.74-0.02-15.35-10.59-23.09-18
			c-7.74-7.41-15.61-11.67-23.09-10.82c-7.49,0.85-14.59,6.8-22.08,14.39c-7.49,7.59-15.35,16.82-23.22,14.45
			c-7.87-2.37-15.73-16.32-23.47-19.32c-7.74-3-15.35,4.97-23.09,13.68s-15.61,18.18-23.35,20.88c-7.74,2.7-15.35-1.36-23.09-6.47
			c-7.74-5.11-15.61-11.26-23.47-14.69c-7.87-3.43-15.73-4.14-23.47,11.28c-7.74,15.42-15.35,46.96-23.09,43.74
			c-7.74-3.21-15.61-41.18-23.35-48.04c-7.74-6.86-15.35,17.39-23.09,60.03c-7.74,42.64-15.61,103.67-23.09,98.61
			c-7.49-5.07-14.59-76.23-22.08-109.98s-15.35-30.08-23.22-38.32c-7.87-8.24-15.73-28.39-23.47-36.31
			c-7.74-7.92-15.35-3.63-23.09,1.16c-7.74,4.79-15.61,10.07-23.35,17.29s-15.35,16.36-23.09,21.96c-7.74,5.6-15.61,7.65-23.47-2.88
			c-7.87-10.53-15.73-33.63-23.47-43.76c-7.74-10.13-15.35-7.29-23.09-2.76c-7.74,4.53-15.61,10.76-23.35,10.43
			c-7.74-0.34-15.35-7.23-23.09-5.91c-7.74,1.32-15.61,10.86-23.09,18.24c-7.49,7.37-14.59,12.58-22.08,20.56
			c-7.49,7.98-15.35,18.75-19.29,24.13L11.33,423.73z"/>
		<path id="environment-stream" class="st19" d="M11.33,423.73l3.93-5.38c3.93-5.38,11.8-16.15,19.29-24.13
			c7.49-7.98,14.59-13.19,22.08-20.56c7.49-7.37,15.35-16.91,23.09-18.24c7.74-1.32,15.35,5.58,23.09,5.91
			c7.74,0.34,15.61-5.89,23.35-10.43c7.74-4.53,15.35-7.37,23.09,2.76c7.74,10.13,15.61,33.24,23.47,43.76
			c7.87,10.53,15.73,8.48,23.47,2.88c7.74-5.6,15.35-14.75,23.09-21.96s15.61-12.5,23.35-17.29c7.74-4.79,15.35-9.09,23.09-1.16
			c7.74,7.92,15.61,28.07,23.47,36.31c7.87,8.24,15.73,4.57,23.22,38.32s14.59,104.92,22.08,109.98
			c7.49,5.07,15.35-55.97,23.09-98.61c7.74-42.64,15.35-66.89,23.09-60.03c7.74,6.86,15.61,44.83,23.35,48.04
			c7.74,3.21,15.35-28.33,23.09-43.74c7.74-15.42,15.61-14.71,23.47-11.28c7.87,3.43,15.73,9.58,23.47,14.69
			c7.74,5.11,15.35,9.17,23.09,6.47c7.74-2.7,15.61-12.16,23.35-20.88s15.35-16.68,23.09-13.68c7.74,3,15.61,16.95,23.47,19.32
			c7.87,2.37,15.73-6.86,23.22-14.45c7.49-7.59,14.59-13.54,22.08-14.39c7.49-0.85,15.35,3.41,23.09,10.82
			c7.74,7.41,15.35,17.98,23.09,18c7.74,0.02,15.61-10.51,23.35-10.72c7.74-0.22,15.35,9.88,23.09,11.81
			c7.74,1.93,15.61-4.3,23.47-16.18s15.73-29.43,23.47-31.54c7.74-2.11,15.35,11.22,19.16,17.88l3.81,6.66v7.57l-3.81,4.65
			c-3.81,4.65-11.42,13.96-19.16,15.95c-7.74,1.99-15.61-3.33-23.47-2.92c-7.87,0.41-15.73,6.56-23.47,4.79
			c-7.74-1.77-15.35-11.47-23.09-10.67c-7.74,0.81-15.61,12.12-23.35,12.66c-7.74,0.53-15.35-9.72-23.09-14.81
			c-7.74-5.09-15.61-5.01-23.09-5.54c-7.49-0.53-14.59-1.68-22.08,2.52c-7.49,4.2-15.35,13.74-23.22,11.61s-15.73-15.93-23.47-19
			c-7.74-3.08-15.35,4.57-23.09,13.29c-7.74,8.71-15.61,18.49-23.35,22.38c-7.74,3.88-15.35,1.87-23.09-3.04
			c-7.74-4.91-15.61-12.72-23.47-16.78c-7.87-4.06-15.73-4.38-23.47,11.08c-7.74,15.46-15.35,46.68-23.09,43.35
			c-7.74-3.33-15.61-41.22-23.35-47.96c-7.74-6.74-15.35,17.66-23.09,60.34s-15.61,103.64-23.09,98.92
			c-7.49-4.71-14.59-75.09-22.08-109.39s-15.35-32.53-23.22-41.52c-7.87-8.99-15.73-28.74-23.47-36.31
			c-7.74-7.57-15.35-2.96-23.09,2.46s-15.61,11.65-23.35,19.02c-7.74,7.37-15.35,15.89-23.09,21.33
			c-7.74,5.44-15.61,7.81-23.47-2.84c-7.87-10.65-15.73-34.3-23.47-44.55c-7.74-10.25-15.35-7.1-23.09-2.17
			c-7.74,4.93-15.61,11.63-23.35,13.94c-7.74,2.31-15.35,0.22-23.09,2.25c-7.74,2.03-15.61,8.18-23.09,13.58
			s-14.59,10.05-22.08,16.38c-7.49,6.33-15.35,14.33-19.29,18.33l-3.93,4V423.73z"/>
		<path id="healthcare-stream" class="st20" d="M11.33,425.62l3.93-4c3.93-4,11.8-12.01,19.29-18.33
			c7.49-6.33,14.59-10.98,22.08-16.38s15.35-11.55,23.09-13.58c7.74-2.03,15.35,0.06,23.09-2.25c7.74-2.31,15.61-9.01,23.35-13.94
			c7.74-4.93,15.35-8.08,23.09,2.17c7.74,10.25,15.61,33.91,23.47,44.55c7.87,10.65,15.73,8.28,23.47,2.84
			c7.74-5.44,15.35-13.96,23.09-21.33c7.74-7.37,15.61-13.6,23.35-19.02s15.35-10.03,23.09-2.46c7.74,7.57,15.61,27.32,23.47,36.31
			c7.87,8.99,15.73,7.22,23.22,41.52s14.59,104.68,22.08,109.39c7.49,4.71,15.35-56.24,23.09-98.92s15.35-67.09,23.09-60.34
			c7.74,6.74,15.61,44.63,23.35,47.96c7.74,3.33,15.35-27.9,23.09-43.35c7.74-15.46,15.61-15.14,23.47-11.08
			c7.87,4.06,15.73,11.87,23.47,16.78c7.74,4.91,15.35,6.92,23.09,3.04c7.74-3.88,15.61-13.66,23.35-22.38
			c7.74-8.71,15.35-16.36,23.09-13.29c7.74,3.08,15.61,16.88,23.47,19s15.73-7.41,23.22-11.61c7.49-4.2,14.59-3.06,22.08-2.52
			c7.49,0.53,15.35,0.45,23.09,5.54c7.74,5.09,15.35,15.34,23.09,14.81c7.74-0.53,15.61-11.85,23.35-12.66
			c7.74-0.81,15.35,8.89,23.09,10.67c7.74,1.77,15.61-4.38,23.47-4.79c7.87-0.41,15.73,4.91,23.47,2.92
			c7.74-1.99,15.35-11.3,19.16-15.95l3.81-4.65v4.49l-3.81,3.98c-3.81,3.98-11.42,11.95-19.16,13.62
			c-7.74,1.68-15.61-2.94-23.47-2.29c-7.87,0.65-15.73,6.56-23.47,4.71c-7.74-1.85-15.35-11.47-23.09-10.27
			c-7.74,1.2-15.61,13.23-23.35,13.64c-7.74,0.41-15.35-10.78-23.09-16.07c-7.74-5.28-15.61-4.65-23.09-4.91
			c-7.49-0.26-14.59-1.4-22.08,2.52c-7.49,3.92-15.35,12.91-23.22,10.39c-7.87-2.52-15.73-16.56-23.47-19.63
			c-7.74-3.08-15.35,4.81-23.09,13.64s-15.61,18.61-23.35,22.93c-7.74,4.32-15.35,3.17-23.09-1.54
			c-7.74-4.71-15.61-12.99-23.47-17.6c-7.87-4.61-15.73-5.56-23.47,9.86c-7.74,15.42-15.35,47.19-23.09,44.69
			c-7.74-2.5-15.61-39.29-23.35-46.15c-7.74-6.86-15.35,16.2-23.09,58.29s-15.61,103.2-23.09,98.69
			c-7.49-4.51-14.59-74.66-22.08-109s-15.35-32.88-23.22-42.07c-7.87-9.19-15.73-29.02-23.47-36.67
			c-7.74-7.65-15.35-3.11-23.09,2.27c-7.74,5.38-15.61,11.61-23.35,19.54c-7.74,7.92-15.35,17.55-23.09,23.42
			c-7.74,5.87-15.61,8-23.47,1.03c-7.87-6.98-15.73-23.07-23.47-31.34c-7.74-8.28-15.35-8.75-23.09-5.2
			c-7.74,3.55-15.61,11.12-23.35,11.34c-7.74,0.22-15.35-6.92-23.09-4.89c-7.74,2.03-15.61,13.23-23.09,19.97
			c-7.49,6.74-14.59,9.03-22.08,12.44s-15.35,7.94-19.29,10.21l-3.93,2.27V425.62z"/>
		<path id="other-stream" class="st21" d="M11.33,426.56l3.93-2.27c3.93-2.27,11.8-6.8,19.29-10.21s14.59-5.7,22.08-12.44
			c7.49-6.74,15.35-17.94,23.09-19.97c7.74-2.03,15.35,5.11,23.09,4.89c7.74-0.22,15.61-7.79,23.35-11.34
			c7.74-3.55,15.35-3.08,23.09,5.2c7.74,8.28,15.61,24.37,23.47,31.34c7.87,6.98,15.73,4.85,23.47-1.03
			c7.74-5.87,15.35-15.5,23.09-23.42c7.74-7.92,15.61-14.15,23.35-19.54c7.74-5.38,15.35-9.92,23.09-2.27
			c7.74,7.65,15.61,27.48,23.47,36.67c7.87,9.19,15.73,7.73,23.22,42.07s14.59,104.48,22.08,109c7.49,4.51,15.35-56.6,23.09-98.69
			s15.35-65.15,23.09-58.29c7.74,6.86,15.61,43.65,23.35,46.15c7.74,2.5,15.35-29.27,23.09-44.69c7.74-15.42,15.61-14.47,23.47-9.86
			c7.87,4.61,15.73,12.89,23.47,17.6c7.74,4.71,15.35,5.85,23.09,1.54c7.74-4.32,15.61-14.1,23.35-22.93s15.35-16.72,23.09-13.64
			c7.74,3.08,15.61,17.11,23.47,19.63c7.87,2.52,15.73-6.47,23.22-10.39c7.49-3.92,14.59-2.78,22.08-2.52
			c7.49,0.26,15.35-0.37,23.09,4.91c7.74,5.28,15.35,16.48,23.09,16.07c7.74-0.41,15.61-12.44,23.35-13.64
			c7.74-1.2,15.35,8.42,23.09,10.27c7.74,1.85,15.61-4.06,23.47-4.71c7.87-0.65,15.73,3.96,23.47,2.29
			c7.74-1.68,15.35-9.64,19.16-13.62l3.81-3.98v36.67l-3.81,3.11c-3.81,3.11-11.42,9.34-19.16,9.4c-7.74,0.06-15.61-6.05-23.47-5.91
			c-7.87,0.14-15.73,6.53-23.47,6.25c-7.74-0.28-15.35-7.22-23.09-5.66c-7.74,1.56-15.61,11.61-23.35,11.71
			c-7.74,0.1-15.35-9.76-23.09-14.81c-7.74-5.05-15.61-5.28-23.09-6.72c-7.49-1.44-14.59-4.08-22.08-1.5
			c-7.49,2.58-15.35,10.39-23.22,5.74c-7.87-4.65-15.73-21.76-23.47-25.12c-7.74-3.35-15.35,7.06-23.09,19.04
			c-7.74,11.99-15.61,25.55-23.35,28.92c-7.74,3.37-15.35-3.45-23.09-10.65c-7.74-7.2-15.61-14.77-23.47-18.71
			c-7.87-3.94-15.73-4.26-23.47,12.97c-7.74,17.23-15.35,52-23.09,52.06c-7.74,0.06-15.61-34.6-23.35-40.28
			c-7.74-5.68-15.35,17.62-23.09,57.86s-15.61,97.41-23.09,90.21c-7.49-7.2-14.59-78.76-22.08-115.03s-15.35-37.26-23.22-44.47
			c-7.87-7.22-15.73-20.66-23.47-25.59c-7.74-4.93-15.35-1.34-23.09,3.21c-7.74,4.55-15.61,10.07-23.35,16.86
			c-7.74,6.78-15.35,14.82-23.09,20.86c-7.74,6.03-15.61,10.05-23.47,3.79c-7.87-6.27-15.73-22.83-23.47-29.73
			c-7.74-6.9-15.35-4.14-23.09-1.85s-15.61,4.1-23.35,8.54c-7.74,4.44-15.35,11.49-23.09,15.38c-7.74,3.88-15.61,4.59-23.09,5.3
			s-14.59,1.42-22.08-0.1c-7.49-1.52-15.35-5.26-19.29-7.14l-3.93-1.87V426.56z"/>
	</g>
	<g id="annotations">
		<text transform="matrix(1 0 0 1 19.2102 365.0445)"><tspan x="0" y="0" class="st4 st5 st22">Muslim </tspan><tspan x="0" y="12" class="st4 st5 st22">bans</tspan></text>
		<rect x="377.75" y="312.23" class="st3" width="56.31" height="45.69"/>
		<text transform="matrix(1 0 0 1 382.9558 319.7347)"><tspan x="0" y="0" class="st4 st5 st22">Immigrant </tspan><tspan x="9.32" y="12" class="st4 st5 st22">family</tspan><tspan x="-0.67" y="24" class="st4 st5 st22">separation</tspan></text>
		<rect x="570.56" y="428.23" class="st23" width="69.06" height="26.75"/>
		<rect x="574.24" y="431.55" class="st3" width="66.36" height="26.14"/>
		<text transform="matrix(1 0 0 1 574.2403 439.047)"><tspan x="0" y="0" class="st19 st24 st22">Environment:</tspan><tspan x="59.7" y="0" class="st5 st22"> </tspan><tspan x="0" y="12" class="st5 st22">Climate Strike</tspan></text>
		<rect x="149.23" y="330.04" class="st3" width="98.55" height="45.66"/>
		<text transform="matrix(1.2376 0 0 1 149.2264 337.5399)"><tspan x="0" y="0" class="st4 st5 st22">   Unite </tspan><tspan x="0" y="12" class="st4 st5 st22">the Right </tspan><tspan x="0" y="21.6" class="st4 st5 st25">    (Charlottesville)</tspan></text>
		<g>
			<rect x="626.12" y="275.13" class="st3" width="62.33" height="38.95"/>
			<text transform="matrix(1 0 0 1 646.8427 281.8763)"><tspan x="0" y="0" class="st4 st5 st26">State </tspan><tspan x="-6.23" y="10.8" class="st4 st5 st26">abortion     </tspan><tspan x="-12.16" y="21.6" class="st4 st5 st26">restrictions</tspan></text>
		</g>
		<rect x="12.21" y="271.07" class="st3" width="55.08" height="31.61"/>
		<text transform="matrix(1 0 0 1 12.2098 278.5696)"><tspan x="0" y="0" class="st4 st5 st22">  Women’s </tspan><tspan x="0" y="12" class="st4 st5 st22">March</tspan></text>
		<rect x="56.76" y="402.45" class="st3" width="55.08" height="27.62"/>
		<text transform="matrix(1 0 0 1 56.7616 409.9471)"><tspan x="0" y="0" class="st4 st5 st22">March for </tspan><tspan x="0" y="12" class="st4 st5 st22">Science</tspan></text>
		<rect x="40.67" y="306.68" class="st3" width="55.08" height="12.75"/>
		<text transform="matrix(1 0 0 1 40.6708 314.18)" class="st27 st5 st22">Tax March</text>
		<polygon class="st3" points="532.09,358.33 488.86,358.53 488.68,334.28 531.91,334.08 		"/>
		<text transform="matrix(1 -4.783629e-03 7.326383e-03 1 488.7372 341.7881)"><tspan x="0" y="0" class="st27 st5 st22">#Protect</tspan><tspan x="0" y="12" class="st27 st5 st22">Mueller</tspan></text>
		<g>
			<rect x="298.56" y="330.89" class="st3" width="77.62" height="53.47"/>
			<text transform="matrix(1 0 0 1 305.5498 338.3853)"><tspan x="0" y="0" class="st4 st5 st22">March For Our </tspan><tspan x="15.92" y="12" class="st4 st5 st22">Lives &amp;</tspan><tspan x="-3.35" y="24" class="st4 st5 st22">National School </tspan><tspan x="13.67" y="36" class="st4 st5 st22">Walkout</tspan></text>
		</g>
		<rect x="447.49" y="177.27" class="st28" width="79.25" height="50.92"/>
		<rect x="451.62" y="181.68" class="st3" width="88.94" height="48.61"/>
		<text transform="matrix(1 0 0 1 451.6244 189.1787)"><tspan x="0" y="0" class="st10 st24 st22">Supreme Court</tspan><tspan x="67.8" y="0" class="st24 st22">, </tspan><tspan x="0" y="12" class="st11 st24 st22">women’s rights</tspan><tspan x="68.72" y="12" class="st24 st22">:</tspan><tspan x="0" y="24" class="st5 st22">Kavanaugh </tspan><tspan x="0" y="36" class="st5 st22">nomination</tspan></text>
		<rect x="164.13" y="193.74" class="st29" width="48.5" height="55.18"/>
		<rect x="220.8" y="205.87" class="st30" width="82.36" height="41.46"/>
		<rect x="169.49" y="198.27" class="st3" width="41" height="46.1"/>
		<text transform="matrix(1 0 0 1 169.4894 205.7726)"><tspan x="0" y="0" class="st12 st24 st22">Police:</tspan><tspan x="0" y="12" class="st5 st22">St. Louis </tspan><tspan x="0" y="24" class="st5 st22">police </tspan><tspan x="0" y="36" class="st5 st22">protests</tspan></text>
		<rect x="224.61" y="210.07" class="st3" width="79.88" height="37.26"/>
		<text transform="matrix(1 0 0 1 224.6118 217.5679)"><tspan x="0" y="0" class="st11 st24 st22">Women’s Rights:</tspan><tspan x="0" y="12" class="st5 st22">Women’s March, </tspan><tspan x="0" y="24" class="st5 st22">March for Life</tspan></text>
		<rect x="543.37" y="215.06" class="st30" width="82.36" height="41.46"/>
		<rect x="547.19" y="219.25" class="st3" width="79.88" height="37.26"/>
		<text transform="matrix(1 0 0 1 547.1897 226.752)"><tspan x="0" y="0" class="st11 st24 st22">Women’s Rights:</tspan><tspan x="0" y="12" class="st5 st22">Women’s March, </tspan><tspan x="0" y="24" class="st5 st22">March for Life</tspan></text>
		<rect x="84.18" y="449.68" class="st31" width="85.18" height="42.08"/>
		<rect x="88.19" y="453.72" class="st3" width="78.3" height="38.05"/>
		<text transform="matrix(1 0 0 1 88.1856 461.2202)"><tspan x="0" y="0" class="st20 st24 st22">Healthcare:</tspan><tspan x="0" y="12" class="st5 st22">Affordable Care </tspan><tspan x="0" y="24" class="st5 st22">Act repeal efforts</tspan></text>
		<path class="st32" d="M486.2,319.83c-3.61,0-6.54-15.32-6.54-34.23c0-5.96,0.29-11.57,0.8-16.45c1.11-10.6,3.26-17.78,5.74-17.78
			c2,0,3.78,4.68,4.98,12.07"/>
		<line class="st32" x1="486.2" y1="251.38" x2="486.2" y2="228.21"/>
		<path class="st32" d="M286.91,330.55c-3.61,0-6.54-14.5-6.54-32.38c0-5.64,0.29-10.94,0.8-15.56c1.11-10.02,3.26-16.82,5.74-16.82
			c2,0,3.78,4.43,4.98,11.42"/>
		<line class="st32" x1="286.91" y1="266.3" x2="286.91" y2="247.78"/>
		<path class="st32" d="M131.65,352.87c2.52,0,4.56,5.95,4.56,13.29c0,2.31-0.2,4.49-0.56,6.39c-0.78,4.11-2.28,6.9-4,6.9
			c-1.39,0-2.64-1.82-3.48-4.68"/>
		<line class="st32" x1="131.65" y1="379.44" x2="131.65" y2="449.68"/>
		<path class="st32" d="M565.8,320.18c-3.61,0-6.54-7.36-6.54-19.7c0-3.89,0.29-7.55,0.8-10.74c1.11-6.92,3.26-11.61,5.74-11.61
			c2,0,3.78,3.06,4.98,7.88"/>
		<line class="st32" x1="565.8" y1="278.11" x2="565.8" y2="257.04"/>
		<path class="st32" d="M616.78,354.94c2.3,0,4.17,3.89,4.17,10.42c0,2.06-0.19,4-0.51,5.68c-0.71,3.66-2.08,7.14-3.66,7.14
			c-1.27,0-2.41-1.62-3.18-4.17"/>
		<line class="st32" x1="616.28" y1="377.28" x2="616.28" y2="428.23"/>
		<text transform="matrix(0.6728 0.7399 -0.7399 0.6728 169.3673 291.6005)" class="st4 st5 st22">#DefendDACA</text>
		<text transform="matrix(1 0 0 1 228.0797 383.7456)" class="st4 st5 st22">Tax reform</text>
		<rect x="671.98" y="314.71" class="st3" width="59.53" height="29.6"/>
		<text transform="matrix(1 0 0 1 683.3743 322.2054)"><tspan x="0" y="0" class="st4 st5 st22">   Family </tspan><tspan x="-5.25" y="12" class="st4 st5 st22">separation</tspan></text>
		<rect x="722.51" y="356.01" class="st3" width="59.53" height="29.6"/>
		<text transform="matrix(1 0 0 1 735.211 363.5105)"><tspan x="0" y="0" class="st4 st5 st22">Climate </tspan><tspan x="4.38" y="12" class="st4 st5 st22">Strike</tspan></text>
		<path class="st32" d="M204.6,299.09c-2.1,0-3.8-4.97-3.8-11.1c0-1.93,0.17-3.75,0.47-5.33c0.65-3.43,1.9-5.76,3.33-5.76
			c1.16,0,2.2,1.52,2.9,3.91"/>
		<line class="st32" x1="204.6" y1="277.9" x2="204.6" y2="249.71"/>
	</g>
</g>
<g id="legend">
	<g>
		<g>
			<rect id="education-legend_2_" x="142.6" y="25.37" class="st13" width="57.52" height="23.38"/>
			<g>
				<text transform="matrix(1 0 0 1 151.3689 39.6905)" class="st4 st5 st26">Education</text>
			</g>
		</g>
		<g>
			<rect id="environment-legend_2_" x="563.2" y="25.37" class="st19" width="57.52" height="23.38"/>
			<text transform="matrix(1 0 0 1 566.792 39.6907)" class="st4 st5 st26">Environment</text>
		</g>
		<g>
			<rect id="immigration-legend_2_" x="276.2" y="26.34" class="st15" width="57.52" height="21.45"/>
			<text transform="matrix(1 0 0 1 280.6444 39.1067)" class="st4 st5 st26">Immigration</text>
		</g>
		<g>
			<rect id="other-legend_2_" x="696.79" y="25.37" class="st33" width="57.52" height="23.38"/>
			<text transform="matrix(1 0 0 1 714.6021 39.1069)" class="st4 st5 st26">Other</text>
		</g>
		<g>
			<rect id="race-confed-legend_2_" x="409.79" y="25.37" class="st17" width="77.33" height="23.38"/>
			<rect x="414.1" y="27.81" class="st3" width="69.12" height="20.45"/>
			<text transform="matrix(1 0 0 1 416.9647 34.5578)"><tspan x="0" y="0" class="st4 st5 st26">Racial justice or </tspan><tspan x="-2.33" y="10.8" class="st4 st5 st26">white supremacy</tspan></text>
		</g>
		<g>
			<rect id="women-legend_2_" x="9.01" y="25.37" class="st11" width="57.52" height="23.38"/>
			<rect x="17.32" y="27.78" class="st3" width="40.89" height="18.01"/>
			<text transform="matrix(1 0 0 1 19.1752 34.5283)"><tspan x="0" y="0" class="st4 st5 st26">Women’s </tspan><tspan x="7.18" y="10.8" class="st4 st5 st26">rights</tspan></text>
		</g>
		<g>
			<rect id="police-legend_2_" x="75.8" y="25.37" class="st12" width="57.52" height="23.38"/>
			<g>
				<text transform="matrix(1 0 0 1 92.2326 39.1065)" class="st4 st5 st26">Police</text>
			</g>
		</g>
		<g>
			<rect id="executive-legend_2_" x="209.4" y="25.37" class="st14" width="57.52" height="23.38"/>
			<g>
				<text transform="matrix(1 0 0 1 219.024 34.2912)" class="st34"><tspan x="0" y="0" class="st27 st5 st26">Executive</tspan><tspan x="5.32" y="10.8" class="st27 st5 st26">branch</tspan></text>
			</g>
		</g>
		<g>
			<rect id="guns-legend_2_" x="343" y="25.37" class="st16" width="57.52" height="23.38"/>
			<g>
				<text transform="matrix(1 0 0 1 361.4038 39.1067)" class="st4 st5 st26">Guns</text>
			</g>
		</g>
		<g>
			<g>
				<rect id="healthcare-legend_2_" x="630" y="25.37" class="st20" width="57.52" height="23.38"/>
			</g>
			<text transform="matrix(1 0 0 1 636.9647 39.1067)" class="st4 st5 st26">Healthcare</text>
		</g>
		<g>
			<rect id="collective-bargaining-legend_2_" x="496.4" y="25.37" class="st18" width="57.52" height="23.38"/>
			<rect x="497.7" y="26.96" class="st3" width="54.92" height="20.2"/>
			<text transform="matrix(1 0 0 1 505.6133 33.7099)"><tspan x="0" y="0" class="st4 st5 st26">Collective </tspan><tspan x="-1.6" y="10.8" class="st4 st5 st26">bargaining</tspan></text>
		</g>
	</g>
</g>
<g id="Layer_2">
</g>
</svg>
