<?xml version="1.0" encoding="utf-8"?>
<!-- Generator: Adobe Illustrator 23.1.1, SVG Export Plug-In . SVG Version: 6.00 Build 0)  -->
<svg version="1.1" xmlns="http://www.w3.org/2000/svg" xmlns:xlink="http://www.w3.org/1999/xlink" x="0px" y="0px"
	 viewBox="0 0 783.98 731.69" style="enable-background:new 0 0 783.98 731.69;" xml:space="preserve">
<style type="text/css">
	.st0{fill:none;stroke:#E5E4E4;stroke-width:0.6873;}
	.st1{fill:none;stroke:#CBCBCA;stroke-width:0.6873;}
	.st2{fill:none;stroke:#A8A9AB;stroke-width:0.6873;}
	.st3{fill:none;}
	.st4{fill:#A8A9AB;}
	.st5{font-family:'MyriadPro-Regular';}
	.st6{font-size:8.278px;}
	.st7{font-size:12.417px;}
	.st8{fill:#5E9A63;}
	.st9{fill:#224D4E;}
	.st10{fill:#50C7EC;}
	.st11{fill:#2E8EA4;}
	.st12{fill:#B8C3E3;}
	.st13{fill:#457ABD;}
	.st14{fill:#6C4098;}
	.st15{fill:#E486B7;}
	.st16{fill:#B31F71;}
	.st17{fill:#5B3C5E;}
	.st18{fill:#AF5DA3;}
	.st19{fill:#6F7488;}
	.st20{fill:#FFFFFF;}
	.st21{font-size:8px;}
	.st22{font-family:'Helvetica';}
	.st23{fill:#42A3C2;}
	.st24{fill:#231F20;}
	.st25{font-family:'Helvetica-Bold';}
	.st26{font-size:12px;}
	.st27{fill:none;stroke:#000000;stroke-miterlimit:10;}
	.st28{display:none;}
	.st29{display:inline;}
	.st30{fill:none;stroke:#CCCCCC;}
	.st31{font-family:'ArialMT';}
	.st32{font-size:10px;}
	.st33{font-size:20px;}
</style>
<g id="Layer_3">
	<g transform="translate(0,480)">
		<path class="st0" d="M138.75,192.16v-3.8h615.92"/>
		<g transform="translate(0.6873230714791224,0)">
			<line class="st1" x1="138.19" y1="188.02" x2="138.19" y2="192.16"/>
			<line class="st1" x1="193.57" y1="188.02" x2="193.57" y2="192.16"/>
			<line class="st1" x1="249.58" y1="188.02" x2="249.58" y2="192.16"/>
			<line class="st1" x1="306.21" y1="188.02" x2="306.21" y2="192.16"/>
			<line class="st1" x1="362.86" y1="188.02" x2="362.86" y2="192.16"/>
			<line class="st1" x1="418.23" y1="188.02" x2="418.23" y2="192.16"/>
			<line class="st1" x1="474.25" y1="188.02" x2="474.25" y2="192.16"/>
			<line class="st1" x1="530.88" y1="188.02" x2="530.88" y2="192.16"/>
			<line class="st1" x1="549.76" y1="188.02" x2="549.76" y2="192.16"/>
			<line class="st1" x1="568.65" y1="188.02" x2="568.65" y2="192.16"/>
			<line class="st1" x1="493.12" y1="188.02" x2="493.12" y2="192.16"/>
			<line class="st1" x1="512" y1="188.02" x2="512" y2="192.16"/>
			<line class="st1" x1="437.11" y1="188.02" x2="437.11" y2="192.16"/>
			<line class="st1" x1="455.99" y1="188.02" x2="455.99" y2="192.16"/>
			<line class="st1" x1="381.32" y1="188.02" x2="381.32" y2="192.16"/>
			<line class="st1" x1="399.78" y1="188.02" x2="399.78" y2="192.16"/>
			<line class="st1" x1="325.09" y1="188.02" x2="325.09" y2="192.16"/>
			<line class="st1" x1="343.98" y1="188.02" x2="343.98" y2="192.16"/>
			<line class="st1" x1="268.46" y1="188.02" x2="268.46" y2="192.16"/>
			<line class="st1" x1="287.33" y1="188.02" x2="287.33" y2="192.16"/>
			<line class="st1" x1="212.24" y1="188.02" x2="212.24" y2="192.16"/>
			<line class="st1" x1="230.91" y1="188.02" x2="230.91" y2="192.16"/>
			<line class="st1" x1="156.65" y1="188.02" x2="156.65" y2="192.16"/>
			<line class="st1" x1="175.11" y1="188.02" x2="175.11" y2="192.16"/>
			<line class="st1" x1="605.99" y1="188.2" x2="605.99" y2="192.34"/>
			<line class="st1" x1="624.45" y1="188.2" x2="624.45" y2="192.34"/>
			<line class="st1" x1="661.57" y1="188.2" x2="661.57" y2="192.34"/>
			<line class="st1" x1="680.24" y1="188.2" x2="680.24" y2="192.34"/>
			<line class="st1" x1="587.53" y1="188.02" x2="587.53" y2="192.16"/>
			<line class="st1" x1="642.9" y1="188.02" x2="642.9" y2="192.16"/>
			<line class="st1" x1="698.92" y1="188.02" x2="698.92" y2="192.16"/>
			<line class="st2" x1="138.19" y1="-325.1" x2="138.19" y2="192.16"/>
		</g>
		<line class="st0" x1="194.25" y1="-310.09" x2="194.25" y2="192.16"/>
		<line class="st0" x1="250.27" y1="-310.09" x2="250.27" y2="192.16"/>
		<line class="st0" x1="306.9" y1="-310.09" x2="306.9" y2="192.16"/>
		<line class="st2" x1="363.55" y1="-325.1" x2="363.55" y2="192.16"/>
		<line class="st0" x1="418.92" y1="-310.09" x2="418.92" y2="192.16"/>
		<line class="st0" x1="474.94" y1="-310.09" x2="474.94" y2="192.16"/>
		<line class="st0" x1="531.56" y1="-310.09" x2="531.56" y2="192.16"/>
		<line class="st0" x1="550.45" y1="-310.09" x2="550.45" y2="192.16"/>
		<line class="st0" x1="569.33" y1="-310.09" x2="569.33" y2="192.16"/>
		<line class="st0" x1="493.81" y1="-310.09" x2="493.81" y2="192.16"/>
		<line class="st0" x1="512.69" y1="-310.09" x2="512.69" y2="192.16"/>
		<line class="st0" x1="437.8" y1="-310.09" x2="437.8" y2="192.16"/>
		<line class="st0" x1="456.67" y1="-309.92" x2="456.67" y2="192.16"/>
		<line class="st0" x1="382.01" y1="-310.09" x2="382.01" y2="192.16"/>
		<line class="st0" x1="400.46" y1="-310.09" x2="400.46" y2="192.16"/>
		<line class="st0" x1="325.78" y1="-310.09" x2="325.78" y2="192.16"/>
		<line class="st0" x1="344.67" y1="-310.09" x2="344.67" y2="192.16"/>
		<line class="st0" x1="269.14" y1="-310.09" x2="269.14" y2="192.16"/>
		<line class="st0" x1="288.02" y1="-310.09" x2="288.02" y2="192.16"/>
		<line class="st0" x1="212.93" y1="-310.09" x2="212.93" y2="192.16"/>
		<line class="st0" x1="231.6" y1="-310.09" x2="231.6" y2="192.16"/>
		<line class="st0" x1="157.34" y1="-310.09" x2="157.34" y2="192.16"/>
		<line class="st0" x1="175.8" y1="-310.09" x2="175.8" y2="192.16"/>
		<line class="st0" x1="606.68" y1="-309.92" x2="606.68" y2="192.34"/>
		<line class="st0" x1="625.13" y1="-309.92" x2="625.13" y2="192.34"/>
		<line class="st0" x1="662.26" y1="-309.92" x2="662.26" y2="192.34"/>
		<line class="st0" x1="680.93" y1="-309.92" x2="680.93" y2="192.34"/>
		<line class="st2" x1="588.22" y1="-325.1" x2="588.22" y2="192.16"/>
		<line class="st0" x1="643.59" y1="-310.09" x2="643.59" y2="192.16"/>
		<line class="st0" x1="699.6" y1="-310.09" x2="699.6" y2="192.16"/>
		<line class="st0" x1="717.88" y1="-161.15" x2="717.88" y2="192.16"/>
		<line class="st0" x1="718.12" y1="-310.09" x2="718.12" y2="192.16"/>
		<line class="st0" x1="736.39" y1="-161.15" x2="736.39" y2="192.16"/>
		<line class="st0" x1="736.52" y1="-310.09" x2="736.52" y2="192.16"/>
		<line class="st0" x1="754.8" y1="-310.09" x2="754.8" y2="192.16"/>
		<path class="st0" d="M718.58-179.41"/>
		<path class="st0" d="M138.75-179.41"/>
	</g>
	<g>
		<rect x="131.89" y="678.73" class="st3" width="13.99" height="12.88"/>
		<text transform="matrix(1 0 0 1 137.351 684.6052)" class="st4 st5 st6">J</text>
		<rect x="150.34" y="678.73" class="st3" width="13.99" height="12.88"/>
		<text transform="matrix(1 0 0 1 155.3241 684.6052)" class="st4 st5 st6">F</text>
		<rect x="168.8" y="678.73" class="st3" width="13.99" height="12.88"/>
		<text transform="matrix(1 0 0 1 172.4696 684.6042)" class="st4 st5 st6">M</text>
		<rect x="187.26" y="678.73" class="st3" width="13.99" height="12.88"/>
		<text transform="matrix(1 0 0 1 191.7221 684.6042)" class="st4 st5 st6">A</text>
		<rect x="205.93" y="678.73" class="st3" width="13.99" height="12.88"/>
		<text transform="matrix(1 0 0 1 209.598 684.6042)" class="st4 st5 st6">M</text>
		<rect x="224.6" y="678.73" class="st3" width="13.99" height="12.88"/>
		<text transform="matrix(1 0 0 1 230.0653 684.6042)" class="st4 st5 st6">J</text>
		<rect x="243.27" y="678.73" class="st3" width="13.99" height="12.88"/>
		<text transform="matrix(1 0 0 1 248.7362 684.6042)" class="st4 st5 st6">J</text>
		<rect x="262.15" y="678.73" class="st3" width="13.99" height="12.88"/>
		<text transform="matrix(1 0 0 1 266.6102 684.6042)" class="st4 st5 st6">A</text>
		<rect x="281.02" y="678.73" class="st3" width="13.99" height="12.88"/>
		<text transform="matrix(1 0 0 1 285.9799 684.6042)" class="st4 st5 st6">S</text>
		<rect x="299.9" y="678.73" class="st3" width="13.99" height="12.88"/>
		<text transform="matrix(1 0 0 1 304.0448 684.6042)" class="st4 st5 st6">O</text>
		<rect x="318.79" y="678.73" class="st3" width="13.99" height="12.88"/>
		<text transform="matrix(1 0 0 1 323.057 684.6042)" class="st4 st5 st6">N</text>
		<rect x="337.67" y="678.73" class="st3" width="13.99" height="12.88"/>
		<text transform="matrix(1 0 0 1 341.9095 684.6042)" class="st4 st5 st6">D</text>
		<rect x="355.88" y="678.73" class="st3" width="13.99" height="12.88"/>
		<text transform="matrix(1 0 0 1 361.3461 684.6052)" class="st4 st5 st6">J</text>
		<rect x="374.34" y="678.73" class="st3" width="13.99" height="12.88"/>
		<text transform="matrix(1 0 0 1 379.3187 684.6052)" class="st4 st5 st6">F</text>
		<rect x="392.8" y="678.73" class="st3" width="13.99" height="12.88"/>
		<text transform="matrix(1 0 0 1 396.4642 684.6042)" class="st4 st5 st6">M</text>
		<rect x="411.25" y="678.73" class="st3" width="13.99" height="12.88"/>
		<text transform="matrix(1 0 0 1 415.7167 684.6042)" class="st4 st5 st6">A</text>
		<rect x="429.92" y="678.73" class="st3" width="13.99" height="12.88"/>
		<text transform="matrix(1 0 0 1 433.5922 684.6042)" class="st4 st5 st6">M</text>
		<rect x="448.6" y="678.73" class="st3" width="13.99" height="12.88"/>
		<text transform="matrix(1 0 0 1 454.0594 684.6042)" class="st4 st5 st6">J</text>
		<rect x="467.27" y="678.73" class="st3" width="13.99" height="12.88"/>
		<text transform="matrix(1 0 0 1 472.7294 684.6042)" class="st4 st5 st6">J</text>
		<rect x="486.14" y="678.73" class="st3" width="13.99" height="12.88"/>
		<text transform="matrix(1 0 0 1 490.6053 684.6042)" class="st4 st5 st6">A</text>
		<rect x="505.02" y="678.73" class="st3" width="13.99" height="12.88"/>
		<text transform="matrix(1 0 0 1 509.9725 684.6042)" class="st4 st5 st6">S</text>
		<rect x="523.9" y="678.73" class="st3" width="13.99" height="12.88"/>
		<text transform="matrix(1 0 0 1 528.038 684.6042)" class="st4 st5 st6">O</text>
		<rect x="542.78" y="678.73" class="st3" width="13.99" height="12.88"/>
		<text transform="matrix(1 0 0 1 547.0516 684.6042)" class="st4 st5 st6">N</text>
		<rect x="561.66" y="678.73" class="st3" width="13.99" height="12.88"/>
		<text transform="matrix(1 0 0 1 565.9032 684.6042)" class="st4 st5 st6">D</text>
		<rect x="580.43" y="678.73" class="st3" width="13.99" height="12.88"/>
		<text transform="matrix(1 0 0 1 585.8925 684.6052)" class="st4 st5 st6">J</text>
		<rect x="598.89" y="678.73" class="st3" width="13.99" height="12.88"/>
		<text transform="matrix(1 0 0 1 603.8651 684.6052)" class="st4 st5 st6">F</text>
		<rect x="617.34" y="678.73" class="st3" width="13.99" height="12.88"/>
		<text transform="matrix(1 0 0 1 621.0106 684.6042)" class="st4 st5 st6">M</text>
		<rect x="635.8" y="678.73" class="st3" width="13.99" height="12.88"/>
		<text transform="matrix(1 0 0 1 640.2635 684.6042)" class="st4 st5 st6">A</text>
		<rect x="654.47" y="678.73" class="st3" width="13.99" height="12.88"/>
		<text transform="matrix(1 0 0 1 658.1385 684.6042)" class="st4 st5 st6">M</text>
		<rect x="673.14" y="678.73" class="st3" width="13.99" height="12.88"/>
		<text transform="matrix(1 0 0 1 678.6063 684.6042)" class="st4 st5 st6">J</text>
		<rect x="691.81" y="678.73" class="st3" width="13.99" height="12.88"/>
		<text transform="matrix(1 0 0 1 697.2782 684.6042)" class="st4 st5 st6">J</text>
		<rect x="712.69" y="678.73" class="st3" width="13.99" height="12.88"/>
		<text transform="matrix(1 0 0 1 717.1522 684.6042)" class="st4 st5 st6">A</text>
		<rect x="729.4" y="678.73" class="st3" width="13.99" height="12.88"/>
		<text transform="matrix(1 0 0 1 734.3533 684.6042)" class="st4 st5 st6">S</text>
		<rect x="747.68" y="678.73" class="st3" width="13.99" height="12.88"/>
		<text transform="matrix(1 0 0 1 751.8272 684.6042)" class="st4 st5 st6">O</text>
	</g>
	<rect x="207.74" y="697.01" class="st3" width="61.7" height="20.79"/>
	<text transform="matrix(1 0 0 1 225.8524 705.825)" class="st4 st5 st7">2017</text>
	<rect x="431.74" y="697.01" class="st3" width="61.7" height="20.79"/>
	<text transform="matrix(1 0 0 1 449.8466 705.825)" class="st4 st5 st7">2018</text>
	<rect x="625.62" y="697.01" class="st3" width="61.7" height="20.79"/>
	<text transform="matrix(1 0 0 1 643.7323 705.825)" class="st4 st5 st7">2019</text>
	<rect x="207.74" y="146.01" class="st3" width="61.7" height="20.79"/>
	<text transform="matrix(1 0 0 1 225.8524 154.8285)" class="st4 st5 st7">2017</text>
	<rect x="431.74" y="146.01" class="st3" width="61.7" height="20.79"/>
	<text transform="matrix(1 0 0 1 449.8466 154.8285)" class="st4 st5 st7">2018</text>
	<rect x="625.62" y="146.01" class="st3" width="61.7" height="20.79"/>
	<text transform="matrix(1 0 0 1 643.7323 154.8285)" class="st4 st5 st7">2019</text>
</g>
<g id="Layer_1">
	<g>
		<path class="st8" d="M137.68,342.86l3.18-1.87c3.18-1.87,9.53-5.62,15.58-7.14c6.05-1.52,11.79-0.81,17.84-0.1
			c6.05,0.71,12.41,1.42,18.66,5.3c6.25,3.88,12.41,10.94,18.66,15.38c6.25,4.44,12.61,6.25,18.86,8.54
			c6.25,2.29,12.41,5.05,18.66-1.85c6.25-6.9,12.61-23.46,18.97-29.73s12.71-2.25,18.97,3.79c6.25,6.03,12.41,14.08,18.66,20.86
			c6.25,6.78,12.61,12.3,18.86,16.86c6.25,4.55,12.41,8.14,18.66,3.21c6.25-4.93,12.61-18.37,18.97-25.59s12.71-8.2,18.76-44.47
			c6.05-36.27,11.79-107.83,17.84-115.03c6.05-7.2,12.41,49.97,18.66,90.21s12.41,63.54,18.66,57.86
			c6.25-5.68,12.61-40.33,18.86-40.28c6.25,0.06,12.41,34.83,18.66,52.06c6.25,17.23,12.61,16.91,18.97,12.97
			c6.36-3.94,12.71-11.51,18.97-18.71s12.41-14.02,18.66-10.65c6.25,3.37,12.61,16.93,18.86,28.92
			c6.25,11.99,12.41,22.39,18.66,19.04c6.25-3.35,12.61-20.46,18.97-25.12c6.36-4.65,12.71,3.15,18.76,5.74
			c6.05,2.58,11.79-0.06,17.84-1.5c6.05-1.44,12.41-1.68,18.66-6.72c6.25-5.05,12.41-14.9,18.66-14.81
			c6.25,0.1,12.61,10.15,18.86,11.71c6.25,1.56,12.41-5.38,18.66-5.66s12.61,6.11,18.97,6.25c6.36,0.14,12.71-5.97,18.97-5.91
			c6.25,0.06,12.41,6.29,15.48,9.4l3.08,3.11l0,0l-3.08-3.11c-3.08-3.11-9.23-9.34-15.48-9.4c-6.25-0.06-12.61,6.05-18.97,5.91
			c-6.36-0.14-12.71-6.53-18.97-6.25s-12.41,7.22-18.66,5.66c-6.25-1.56-12.61-11.61-18.86-11.71c-6.25-0.1-12.41,9.76-18.66,14.81
			c-6.25,5.05-12.61,5.28-18.66,6.72c-6.05,1.44-11.79,4.08-17.84,1.5c-6.05-2.58-12.41-10.39-18.76-5.74
			c-6.36,4.65-12.71,21.76-18.97,25.12c-6.25,3.35-12.41-7.06-18.66-14.08c-6.25-7.02-12.61-10.65-18.86-9.99
			c-6.25,0.65-12.41,5.58-18.66,8.63s-12.61,4.24-18.97,4.75c-6.36,0.51-12.71,0.35-18.97-17.66c-6.25-18.02-12.41-53.9-18.66-54.55
			c-6.25-0.65-12.61,33.93-18.86,39.57c-6.25,5.64-12.41-17.66-18.66-57.9s-12.61-97.41-18.66-90.21
			c-6.05,7.2-11.79,78.76-17.84,115.03c-6.05,36.27-12.41,37.26-18.76,44.47s-12.71,20.66-18.97,25.59
			c-6.25,4.93-12.41,1.34-18.66-3.21c-6.25-4.55-12.61-10.07-18.86-16.82c-6.25-6.74-12.41-14.71-18.66-20.74
			s-12.61-10.13-18.97-3.9s-12.71,22.79-18.97,29.69c-6.25,6.9-12.41,4.14-18.66,1.85c-6.25-2.29-12.61-4.1-18.86-8.5
			s-12.41-11.37-18.66-15.14c-6.25-3.77-12.61-4.32-18.66-5.03c-6.05-0.71-11.79-1.58-17.84-0.18c-6.05,1.4-12.41,5.07-15.58,6.9
			L137.68,342.86z"/>
		<path class="st9" d="M137.68,342.86l3.18-1.83c3.18-1.83,9.53-5.5,15.58-6.9c6.05-1.4,11.79-0.53,17.84,0.18
			c6.05,0.71,12.41,1.26,18.66,5.03c6.25,3.77,12.41,10.74,18.66,15.14s12.61,6.21,18.86,8.5c6.25,2.29,12.41,5.05,18.66-1.85
			c6.25-6.9,12.61-23.46,18.97-29.69s12.71-2.13,18.97,3.9s12.41,14,18.66,20.74c6.25,6.74,12.61,12.26,18.86,16.82
			c6.25,4.55,12.41,8.14,18.66,3.21c6.25-4.93,12.61-18.37,18.97-25.59s12.71-8.2,18.76-44.47c6.05-36.27,11.79-107.83,17.84-115.03
			c6.05-7.2,12.41,49.97,18.66,90.21s12.41,63.54,18.66,57.9c6.25-5.64,12.61-40.22,18.86-39.57c6.25,0.65,12.41,36.53,18.66,54.55
			c6.25,18.02,12.61,18.18,18.97,17.66c6.36-0.51,12.71-1.7,18.97-4.75s12.41-7.98,18.66-8.63c6.25-0.65,12.61,2.98,18.86,9.99
			c6.25,7.02,12.41,17.43,18.66,14.08c6.25-3.35,12.61-20.46,18.97-25.12c6.36-4.65,12.71,3.15,18.76,5.74
			c6.05,2.58,11.79-0.06,17.84-1.5c6.05-1.44,12.41-1.68,18.66-6.72c6.25-5.05,12.41-14.9,18.66-14.81
			c6.25,0.1,12.61,10.15,18.86,11.71c6.25,1.56,12.41-5.38,18.66-5.66s12.61,6.11,18.97,6.25c6.36,0.14,12.71-5.97,18.97-5.91
			c6.25,0.06,12.41,6.29,15.48,9.4l3.08,3.11v11.59L751.6,366c-3.08-4.53-9.23-13.6-15.48-15.04c-6.25-1.44-12.61,4.75-18.97,4.57
			c-6.36-0.18-12.71-6.72-18.97-5.78c-6.25,0.95-12.41,9.38-18.66,18.43c-6.25,9.05-12.61,18.71-18.86,19.28
			s-12.41-7.94-18.66-12.56s-12.61-5.32-18.66-4.91c-6.05,0.41-11.79,1.95-17.84,5.76c-6.05,3.8-12.41,9.88-18.76,13.98
			c-6.36,4.1-12.71,6.23-18.97,2.72c-6.25-3.51-12.41-12.66-18.66-14.15c-6.25-1.5-12.61,4.65-18.86,8.46
			c-6.25,3.8-12.41,5.26-18.66,3.08s-12.61-8.02-18.97-11.41c-6.36-3.39-12.71-4.34-18.97-22.43c-6.25-18.1-12.41-53.35-18.66-53.8
			c-6.25-0.45-12.61,33.89-18.86,40.59c-6.25,6.7-12.41-14.23-18.66-53.17s-12.61-95.87-18.66-89.54
			c-6.05,6.33-11.79,75.92-17.84,122.56c-6.05,46.64-12.41,70.34-18.76,77.2c-6.36,6.86-12.71-3.11-18.97-9.9
			c-6.25-6.78-12.41-10.37-18.66-13.82c-6.25-3.45-12.61-6.76-18.86-13.15c-6.25-6.39-12.41-15.85-18.66-22.79
			c-6.25-6.94-12.61-11.36-18.97-5.24c-6.36,6.11-12.71,22.75-18.97,29.61c-6.25,6.86-12.41,3.94-18.66,1.54
			c-6.25-2.41-12.61-4.3-18.86-7.39s-12.41-7.39-18.66-7.45s-12.61,4.12-18.66,5.58c-6.05,1.46-11.79,0.2-17.84,14.57
			c-6.05,14.37-12.41,44.38-15.58,59.38l-3.18,15V342.86z"/>
		<path class="st10" d="M137.68,445.76l3.18-15c3.18-15,9.53-45.01,15.58-59.38c6.05-14.37,11.79-13.11,17.84-14.57
			c6.05-1.46,12.41-5.64,18.66-5.58s12.41,4.36,18.66,7.45s12.61,4.99,18.86,7.39c6.25,2.41,12.41,5.32,18.66-1.54
			c6.25-6.86,12.61-23.5,18.97-29.61c6.36-6.11,12.71-1.7,18.97,5.24c6.25,6.94,12.41,16.4,18.66,22.79
			c6.25,6.39,12.61,9.7,18.86,13.15c6.25,3.45,12.41,7.04,18.66,13.82c6.25,6.78,12.61,16.76,18.97,9.9
			c6.36-6.86,12.71-30.56,18.76-77.2c6.05-46.64,11.79-116.23,17.84-122.56c6.05-6.33,12.41,50.61,18.66,89.54
			s12.41,59.87,18.66,53.17c6.25-6.7,12.61-41.04,18.86-40.59c6.25,0.45,12.41,35.7,18.66,53.8c6.25,18.1,12.61,19.04,18.97,22.43
			c6.36,3.39,12.71,9.23,18.97,11.41s12.41,0.73,18.66-3.08c6.25-3.8,12.61-9.96,18.86-8.46c6.25,1.5,12.41,10.65,18.66,14.15
			c6.25,3.51,12.61,1.38,18.97-2.72c6.36-4.1,12.71-10.17,18.76-13.98c6.05-3.8,11.79-5.34,17.84-5.76
			c6.05-0.41,12.41,0.3,18.66,4.91s12.41,13.13,18.66,12.56s12.61-10.23,18.86-19.28c6.25-9.05,12.41-17.49,18.66-18.43
			c6.25-0.95,12.61,5.6,18.97,5.78c6.36,0.18,12.71-6.01,18.97-4.57c6.25,1.44,12.41,10.51,15.48,15.04l3.08,4.53v4.97l-3.08-4.46
			c-3.08-4.46-9.23-13.37-15.48-14.37c-6.25-1.01-12.61,5.89-18.97,5.84c-6.36-0.06-12.71-7.08-18.97-6.21
			c-6.25,0.87-12.41,9.62-18.66,18.71c-6.25,9.09-12.61,18.51-18.86,19.12c-6.25,0.61-12.41-7.59-18.66-12.01
			s-12.61-5.05-18.66-4.87c-6.05,0.18-11.79,1.16-17.84,4.69c-6.05,3.53-12.41,9.6-18.76,13.31c-6.36,3.71-12.71,5.05-18.97,1.14
			c-6.25-3.9-12.41-13.05-18.66-13.88c-6.25-0.83-12.61,6.66-18.86,11.41c-6.25,4.75-12.41,6.76-18.66,5.01
			c-6.25-1.75-12.61-7.27-18.97-10.74c-6.36-3.47-12.71-4.89-18.97-23.1c-6.25-18.22-12.41-53.23-18.66-54.04
			c-6.25-0.81-12.61,32.59-18.86,39.33c-6.25,6.74-12.41-13.17-18.66-51.83s-12.61-96.07-18.66-90.37
			c-6.05,5.7-11.79,74.5-17.84,120.39c-6.05,45.89-12.41,68.88-18.76,75.42c-6.36,6.54-12.71-3.35-18.97-9.03
			c-6.25-5.68-12.41-7.14-18.66-7.87c-6.25-0.73-12.61-0.73-18.86-5.26c-6.25-4.53-12.41-13.6-18.66-22.83
			c-6.25-9.23-12.61-18.61-18.97-15.34c-6.36,3.27-12.71,19.2-18.97,25.83s-12.41,3.94-18.66,1.81c-6.25-2.13-12.61-3.71-18.86-7
			s-12.41-8.3-18.66-8.79c-6.25-0.49-12.61,3.53-18.66,4.55c-6.05,1.03-11.79-0.95-17.84,12.83c-6.05,13.78-12.41,43.31-15.58,58.08
			L137.68,445.76z"/>
		<path class="st11" d="M137.68,445.76l3.18-14.77c3.18-14.77,9.53-44.3,15.58-58.08c6.05-13.78,11.79-11.81,17.84-12.83
			c6.05-1.03,12.41-5.05,18.66-4.55c6.25,0.49,12.41,5.5,18.66,8.79s12.61,4.87,18.86,7c6.25,2.13,12.41,4.81,18.66-1.81
			s12.61-22.55,18.97-25.83c6.36-3.27,12.71,6.11,18.97,15.34c6.25,9.23,12.41,18.29,18.66,22.83c6.25,4.53,12.61,4.53,18.86,5.26
			c6.25,0.73,12.41,2.19,18.66,7.87c6.25,5.68,12.61,15.57,18.97,9.03c6.36-6.54,12.71-29.53,18.76-75.42
			c6.05-45.89,11.79-114.69,17.84-120.39c6.05-5.7,12.41,51.71,18.66,90.37s12.41,58.57,18.66,51.83
			c6.25-6.74,12.61-40.14,18.86-39.33c6.25,0.81,12.41,35.82,18.66,54.04c6.25,18.22,12.61,19.63,18.97,23.1
			c6.36,3.47,12.71,8.99,18.97,10.74c6.25,1.75,12.41-0.26,18.66-5.01c6.25-4.75,12.61-12.24,18.86-11.41
			c6.25,0.83,12.41,9.98,18.66,13.88c6.25,3.9,12.61,2.56,18.97-1.14c6.36-3.71,12.71-9.78,18.76-13.31
			c6.05-3.53,11.79-4.51,17.84-4.69c6.05-0.18,12.41,0.45,18.66,4.87s12.41,12.62,18.66,12.01c6.25-0.61,12.61-10.03,18.86-19.12
			c6.25-9.09,12.41-17.84,18.66-18.71c6.25-0.87,12.61,6.15,18.97,6.21c6.36,0.06,12.71-6.84,18.97-5.84
			c6.25,1.01,12.41,9.92,15.48,14.37l3.08,4.46v5.68L751.6,377c-3.08-4.18-9.23-12.54-15.48-14.1c-6.25-1.56-12.61,3.69-18.97,2.76
			c-6.36-0.93-12.71-8.02-18.97-6.29c-6.25,1.73-12.41,12.3-18.66,24.23c-6.25,11.93-12.61,25.21-18.86,27.36
			s-12.41-6.84-18.66-12.56c-6.25-5.72-12.61-8.16-18.66-9.68c-6.05-1.52-11.79-2.11-17.84,0.55c-6.05,2.66-12.41,8.58-18.76,11.85
			c-6.36,3.27-12.71,3.9-18.97-0.32c-6.25-4.22-12.41-13.29-18.66-13.48c-6.25-0.2-12.61,8.48-18.86,13.54
			c-6.25,5.07-12.41,6.53-18.66,4.3c-6.25-2.23-12.61-8.14-18.97-12.44c-6.36-4.3-12.71-6.98-18.97-25.51
			c-6.25-18.53-12.41-52.91-18.66-52.14c-6.25,0.77-12.61,36.69-18.86,47.49c-6.25,10.8-12.41-3.51-18.66-40.91
			s-12.61-97.88-18.66-93.72c-6.05,4.16-11.79,72.96-17.84,116.73c-6.05,43.76-12.41,62.49-18.76,66.44s-12.71-6.9-18.97-12.93
			s-12.41-7.25-18.66-7.31c-6.25-0.06-12.61,1.04-18.86-3.13c-6.25-4.18-12.41-13.64-18.66-23.62
			c-6.25-9.98-12.61-20.46-18.97-17.51s-12.71,19.36-18.97,26.3c-6.25,6.94-12.41,4.42-18.66,3.23c-6.25-1.18-12.61-1.03-18.86-3.92
			c-6.25-2.9-12.41-8.85-18.66-9.19s-12.61,4.95-18.66,5.42c-6.05,0.47-11.79-3.86-17.84,8.26c-6.05,12.12-12.41,40.71-15.58,55
			L137.68,446V445.76z"/>
		<path class="st12" d="M137.68,446l3.18-14.29c3.18-14.29,9.53-42.88,15.58-55c6.05-12.12,11.79-7.79,17.84-8.26
			c6.05-0.47,12.41-5.76,18.66-5.42s12.41,6.29,18.66,9.19c6.25,2.9,12.61,2.74,18.86,3.92c6.25,1.18,12.41,3.71,18.66-3.23
			c6.25-6.94,12.61-23.34,18.97-26.3s12.71,7.53,18.97,17.51c6.25,9.98,12.41,19.44,18.66,23.62c6.25,4.18,12.61,3.08,18.86,3.13
			c6.25,0.06,12.41,1.28,18.66,7.31s12.61,16.88,18.97,12.93s12.71-22.67,18.76-66.44c6.05-43.76,11.79-112.57,17.84-116.73
			c6.05-4.16,12.41,56.32,18.66,93.72s12.41,51.71,18.66,40.91c6.25-10.8,12.61-46.72,18.86-47.49
			c6.25-0.77,12.41,33.61,18.66,52.14c6.25,18.53,12.61,21.21,18.97,25.51c6.36,4.3,12.71,10.21,18.97,12.44
			c6.25,2.23,12.41,0.77,18.66-4.3c6.25-5.07,12.61-13.74,18.86-13.54c6.25,0.2,12.41,9.27,18.66,13.48
			c6.25,4.22,12.61,3.59,18.97,0.32c6.36-3.27,12.71-9.19,18.76-11.85c6.05-2.66,11.79-2.07,17.84-0.55
			c6.05,1.52,12.41,3.96,18.66,9.68c6.25,5.72,12.41,14.71,18.66,12.56s12.61-15.44,18.86-27.36c6.25-11.93,12.41-22.49,18.66-24.23
			c6.25-1.73,12.61,5.36,18.97,6.29c6.36,0.93,12.71-4.32,18.97-2.76c6.25,1.56,12.41,9.92,15.48,14.1l3.08,4.18v20.58l-3.08-6.98
			c-3.08-6.98-9.23-20.94-15.48-24.39c-6.25-3.45-12.61,3.61-18.97,4.38c-6.36,0.77-12.71-4.75-18.97-2.46
			c-6.25,2.29-12.41,12.38-18.66,22.45s-12.61,20.13-18.86,21.8s-12.41-5.03-18.66-10.59c-6.25-5.56-12.61-9.98-18.66-12.72
			c-6.05-2.74-11.79-3.8-17.84,1.18c-6.05,4.99-12.41,16.03-18.76,18.98c-6.36,2.96-12.71-2.17-18.97-1.26
			c-6.25,0.91-12.41,7.85-18.66,12.58c-6.25,4.73-12.61,7.25-18.86,8.14c-6.25,0.89-12.41,0.14-18.66-5.72
			c-6.25-5.86-12.61-16.82-18.97-22.81c-6.36-5.99-12.71-7.02-18.97-25.98c-6.25-18.96-12.41-55.87-18.66-56.87
			c-6.25-1.01-12.61,33.89-18.86,44.06c-6.25,10.17-12.41-4.38-18.66-41.54s-12.61-96.93-18.66-92.62
			c-6.05,4.32-11.79,72.72-17.84,117c-6.05,44.28-12.41,64.42-18.76,68.17c-6.36,3.75-12.71-8.91-18.97-14.86
			c-6.25-5.95-12.41-5.2-18.66-4.67c-6.25,0.53-12.61,0.85-18.86-3.84c-6.25-4.69-12.41-14.39-18.66-23.46
			c-6.25-9.07-12.61-17.51-18.97-13.64c-6.36,3.86-12.71,20.03-18.97,28.27s-12.41,8.56-18.66,7.02
			c-6.25-1.54-12.61-4.93-18.86-5.26c-6.25-0.34-12.41,2.39-18.66,7.37c-6.25,4.99-12.61,12.24-18.66,12.36
			c-6.05,0.12-11.79-6.9-17.84-0.06c-6.05,6.84-12.41,27.54-15.58,37.89l-3.18,10.35V446z"/>
		<path class="st13" d="M137.68,454.04l3.18-10.35c3.18-10.35,9.53-31.05,15.58-37.89c6.05-6.84,11.79,0.18,17.84,0.06
			c6.05-0.12,12.41-7.37,18.66-12.36c6.25-4.99,12.41-7.71,18.66-7.37c6.25,0.34,12.61,3.73,18.86,5.26
			c6.25,1.54,12.41,1.22,18.66-7.02s12.61-24.41,18.97-28.27c6.36-3.86,12.71,4.57,18.97,13.64c6.25,9.07,12.41,18.77,18.66,23.46
			c6.25,4.69,12.61,4.38,18.86,3.84c6.25-0.53,12.41-1.28,18.66,4.67c6.25,5.95,12.61,18.61,18.97,14.86
			c6.36-3.75,12.71-23.89,18.76-68.17c6.05-44.28,11.79-112.68,17.84-117c6.05-4.32,12.41,55.45,18.66,92.62
			s12.41,51.71,18.66,41.54c6.25-10.17,12.61-45.07,18.86-44.06c6.25,1.01,12.41,37.91,18.66,56.87
			c6.25,18.96,12.61,19.99,18.97,25.98c6.36,5.99,12.71,16.95,18.97,22.81c6.25,5.85,12.41,6.6,18.66,5.72
			c6.25-0.89,12.61-3.41,18.86-8.14c6.25-4.73,12.41-11.67,18.66-12.58c6.25-0.91,12.61,4.22,18.97,1.26
			c6.36-2.96,12.71-14,18.76-18.98c6.05-4.99,11.79-3.92,17.84-1.18c6.05,2.74,12.41,7.16,18.66,12.72
			c6.25,5.56,12.41,12.26,18.66,10.59s12.61-11.73,18.86-21.8s12.41-20.17,18.66-22.45c6.25-2.29,12.61,3.23,18.97,2.46
			c6.36-0.77,12.71-7.83,18.97-4.38c6.25,3.45,12.41,17.41,15.48,24.39l3.08,6.98v6.15l-3.08-6.58
			c-3.08-6.58-9.23-19.75-15.48-21.86c-6.25-2.11-12.61,6.84-18.97,19.16c-6.36,12.32-12.71,28.01-18.97,29.51
			s-12.41-11.2-18.66-12.36c-6.25-1.16-12.61,9.21-18.86,10.33s-12.41-7-18.66-13.43c-6.25-6.43-12.61-11.16-18.66-9.44
			c-6.05,1.72-11.79,9.88-17.84,15.1c-6.05,5.22-12.41,7.51-18.76,5.97c-6.36-1.54-12.71-6.9-18.97-6.11
			c-6.25,0.79-12.41,7.73-18.66,12.62c-6.25,4.89-12.61,7.73-18.86,8.34c-6.25,0.61-12.41-1.01-18.66-6.35
			c-6.25-5.34-12.61-14.41-18.97-17.05c-6.36-2.64-12.71,1.14-18.97,17.27c-6.25,16.13-12.41,44.59-18.66,41.1
			c-6.25-3.49-12.61-38.93-18.86-63.89c-6.25-24.96-12.41-39.43-18.66-75.52c-6.25-36.1-12.61-93.82-18.66-89.62
			c-6.05,4.2-11.79,70.32-17.84,114.44c-6.05,44.12-12.41,66.24-18.76,70.22s-12.71-10.17-18.97-17.39s-12.41-7.49-18.66-7.67
			c-6.25-0.18-12.61-0.26-18.86,3.17c-6.25,3.43-12.41,10.37-18.66,2.09s-12.61-31.78-18.97-36.19s-12.71,10.25-18.97,17.94
			s-12.41,8.4-18.66,11.08c-6.25,2.68-12.61,7.33-18.86,7.59c-6.25,0.26-12.41-3.88-18.66-1.26c-6.25,2.62-12.61,12.01-18.66,20.88
			c-6.05,8.87-11.79,17.23-17.84,27.58c-6.05,10.35-12.41,22.69-15.58,28.86l-3.18,6.17V454.04z"/>
		<path class="st14" d="M137.68,492.6l3.18-6.17c3.18-6.17,9.53-18.51,15.58-28.86c6.05-10.35,11.79-18.71,17.84-27.58
			c6.05-8.87,12.41-18.25,18.66-20.88c6.25-2.62,12.41,1.52,18.66,1.26c6.25-0.26,12.61-4.91,18.86-7.59
			c6.25-2.68,12.41-3.39,18.66-11.08s12.61-22.36,18.97-17.94s12.71,27.91,18.97,36.19s12.41,1.34,18.66-2.09
			c6.25-3.43,12.61-3.35,18.86-3.17c6.25,0.18,12.41,0.45,18.66,7.67s12.61,21.37,18.97,17.39s12.71-26.1,18.76-70.22
			c6.05-44.12,11.79-110.24,17.84-114.44c6.05-4.2,12.41,53.52,18.66,89.62c6.25,36.1,12.41,50.57,18.66,75.52
			c6.25,24.96,12.61,60.4,18.86,63.89c6.25,3.49,12.41-24.98,18.66-41.1c6.25-16.13,12.61-19.91,18.97-17.27
			c6.36,2.64,12.71,11.71,18.97,17.05c6.25,5.34,12.41,6.96,18.66,6.35c6.25-0.61,12.61-3.45,18.86-8.34
			c6.25-4.89,12.41-11.83,18.66-12.62c6.25-0.79,12.61,4.57,18.97,6.11c6.36,1.54,12.71-0.75,18.76-5.97
			c6.05-5.22,11.79-13.39,17.84-15.1c6.05-1.72,12.41,3.02,18.66,9.44c6.25,6.43,12.41,14.55,18.66,13.43s12.61-11.49,18.86-10.33
			c6.25,1.16,12.41,13.86,18.66,12.36s12.61-17.19,18.97-29.51c6.36-12.32,12.71-21.27,18.97-19.16
			c6.25,2.11,12.41,15.28,15.48,21.86l3.08,6.58v1.42l-3.08-5.99c-3.08-5.99-9.23-17.98-15.48-15.59
			c-6.25,2.39-12.61,19.14-18.97,30.95c-6.36,11.81-12.71,18.67-18.97,16.97s-12.41-11.95-18.66-13.03s-12.61,7-18.86,7.33
			s-12.41-7.08-18.66-13.07c-6.25-5.99-12.61-10.57-18.66-9.13c-6.05,1.44-11.79,8.89-17.84,13.76c-6.05,4.87-12.41,7.16-18.76,5.42
			c-6.36-1.73-12.71-7.49-18.97-6.7c-6.25,0.79-12.41,8.12-18.66,13.21c-6.25,5.09-12.61,7.92-18.86,8.58
			c-6.25,0.65-12.41-0.89-18.66-5.56s-12.61-12.48-18.97-14.37c-6.36-1.89-12.71,2.13-18.97,19.44
			c-6.25,17.31-12.41,47.9-18.66,44.73c-6.25-3.17-12.61-40.12-18.86-47.37c-6.25-7.25-12.41,15.18-18.66,57.43
			s-12.61,104.31-18.66,98.57c-6.05-5.74-11.79-79.27-17.84-114.79c-6.05-35.52-12.41-33.04-18.76-38.95
			c-6.36-5.91-12.71-20.23-18.97-27.6c-6.25-7.37-12.41-7.81-18.66-7.47c-6.25,0.34-12.61,1.44-18.86,4.91
			c-6.25,3.47-12.41,9.3-18.66,0.47c-6.25-8.83-12.61-32.33-18.97-36.67s-12.71,10.49-18.97,18.53c-6.25,8.04-12.41,9.3-18.66,11.99
			c-6.25,2.68-12.61,6.78-18.86,6.8s-12.41-4.04-18.66-1.38c-6.25,2.66-12.61,12.05-18.66,20.64c-6.05,8.6-11.79,16.4-17.84,26.48
			c-6.05,10.07-12.41,22.41-15.58,28.58L137.68,492.6z"/>
		<path class="st15" d="M137.68,492.6l3.18-6.17c3.18-6.17,9.53-18.51,15.58-28.58c6.05-10.07,11.79-17.88,17.84-26.48
			c6.05-8.6,12.41-17.98,18.66-20.64c6.25-2.66,12.41,1.4,18.66,1.38s12.61-4.12,18.86-6.8c6.25-2.68,12.41-3.94,18.66-11.99
			c6.25-8.04,12.61-22.87,18.97-18.53s12.71,27.84,18.97,36.67c6.25,8.83,12.41,3,18.66-0.47c6.25-3.47,12.61-4.57,18.86-4.91
			c6.25-0.34,12.41,0.1,18.66,7.47c6.25,7.37,12.61,21.69,18.97,27.6c6.36,5.91,12.71,3.43,18.76,38.95
			c6.05,35.52,11.79,109.06,17.84,114.79c6.05,5.74,12.41-56.32,18.66-98.57s12.41-64.68,18.66-57.43
			c6.25,7.25,12.61,44.2,18.86,47.37c6.25,3.17,12.41-27.42,18.66-44.73c6.25-17.31,12.61-21.33,18.97-19.44
			c6.36,1.89,12.71,9.7,18.97,14.37s12.41,6.21,18.66,5.56c6.25-0.65,12.61-3.49,18.86-8.58c6.25-5.09,12.41-12.42,18.66-13.21
			c6.25-0.79,12.61,4.97,18.97,6.7c6.36,1.73,12.71-0.55,18.76-5.42c6.05-4.87,11.79-12.32,17.84-13.76
			c6.05-1.44,12.41,3.13,18.66,9.13c6.25,5.99,12.41,13.41,18.66,13.07s12.61-8.42,18.86-7.33s12.41,11.34,18.66,13.03
			s12.61-5.17,18.97-16.97c6.36-11.81,12.71-28.57,18.97-30.95c6.25-2.39,12.41,9.6,15.48,15.59l3.08,5.99v9.94l-3.08-6.43
			c-3.08-6.43-9.23-19.28-15.48-16.66c-6.25,2.62-12.61,20.72-18.97,32.72c-6.36,12.01-12.71,17.92-18.97,15.4
			c-6.25-2.52-12.41-13.48-18.66-14.02s-12.61,9.36-18.86,10.13s-12.41-7.59-18.66-13.98c-6.25-6.39-12.61-10.8-18.66-9.29
			c-6.05,1.52-11.79,8.97-17.84,17.11c-6.05,8.14-12.41,16.97-18.76,14.33c-6.36-2.64-12.71-16.76-18.97-19.36
			c-6.25-2.6-12.41,6.31-18.66,12.66c-6.25,6.35-12.61,10.13-18.86,11.41c-6.25,1.28-12.41,0.06-18.66-3.47
			c-6.25-3.53-12.61-9.36-18.97-11.93c-6.36-2.56-12.71-1.85-18.97,14.08c-6.25,15.93-12.41,47.08-18.66,43.94
			c-6.25-3.13-12.61-40.55-18.86-46.94c-6.25-6.39-12.41,18.26-18.66,60.97S404.86,613.49,398.81,607
			c-6.05-6.49-11.79-80.25-17.84-113.41c-6.05-33.16-12.41-25.71-18.76-32.33s-12.71-27.32-18.97-35.92
			c-6.25-8.6-12.41-5.09-18.66-0.41c-6.25,4.67-12.61,10.51-18.86,17.64c-6.25,7.14-12.41,15.57-18.66,21.17
			c-6.25,5.6-12.61,8.36-18.97-1.38c-6.36-9.74-12.71-31.98-18.97-42.07c-6.25-10.09-12.41-8.04-18.66-4.38
			c-6.25,3.67-12.61,8.95-18.86,8.54c-6.25-0.41-12.41-6.53-18.66-4.73s-12.61,11.49-18.66,19.73
			c-6.05,8.24-11.79,15.02-17.84,23.87c-6.05,8.85-12.41,19.77-15.58,25.23l-3.18,5.46V492.6z"/>
		<path class="st16" d="M137.68,494.02l3.18-5.46c3.18-5.46,9.53-16.38,15.58-25.23c6.05-8.85,11.79-15.63,17.84-23.87
			c6.05-8.24,12.41-17.94,18.66-19.73s12.41,4.32,18.66,4.73c6.25,0.41,12.61-4.87,18.86-8.54c6.25-3.67,12.41-5.72,18.66,4.38
			c6.25,10.09,12.61,32.33,18.97,42.07c6.36,9.74,12.71,6.98,18.97,1.38c6.25-5.6,12.41-14.04,18.66-21.17
			c6.25-7.14,12.61-12.97,18.86-17.64c6.25-4.67,12.41-8.18,18.66,0.41c6.25,8.6,12.61,29.29,18.97,35.92s12.71-0.83,18.76,32.33
			c6.05,33.16,11.79,106.93,17.84,113.41c6.05,6.49,12.41-54.31,18.66-97.03s12.41-67.36,18.66-60.97
			c6.25,6.39,12.61,43.8,18.86,46.94c6.25,3.13,12.41-28.01,18.66-43.94c6.25-15.93,12.61-16.64,18.97-14.08
			c6.36,2.56,12.71,8.4,18.97,11.93c6.25,3.53,12.41,4.75,18.66,3.47c6.25-1.28,12.61-5.07,18.86-11.41
			c6.25-6.35,12.41-15.26,18.66-12.66c6.25,2.6,12.61,16.72,18.97,19.36c6.36,2.64,12.71-6.19,18.76-14.33
			c6.05-8.14,11.79-15.59,17.84-17.11c6.05-1.52,12.41,2.9,18.66,9.29c6.25,6.39,12.41,14.75,18.66,13.98s12.61-10.67,18.86-10.13
			s12.41,11.49,18.66,14.02c6.25,2.52,12.61-3.39,18.97-15.4c6.36-12.01,12.71-30.1,18.97-32.72c6.25-2.62,12.41,10.23,15.48,16.66
			l3.08,6.43v13.72l-3.08-6.66c-3.08-6.66-9.23-19.99-15.48-17.88c-6.25,2.11-12.61,19.65-18.97,31.54
			c-6.36,11.89-12.71,18.12-18.97,16.18s-12.41-12.03-18.66-11.81c-6.25,0.22-12.61,10.74-18.86,10.72
			c-6.25-0.02-12.41-10.59-18.66-18c-6.25-7.41-12.61-11.67-18.66-10.82c-6.05,0.85-11.79,6.8-17.84,14.39
			c-6.05,7.59-12.41,16.82-18.76,14.45c-6.36-2.37-12.71-16.32-18.97-19.32c-6.25-3-12.41,4.97-18.66,13.68
			c-6.25,8.71-12.61,18.18-18.86,20.88c-6.25,2.7-12.41-1.36-18.66-6.47c-6.25-5.11-12.61-11.26-18.97-14.69
			c-6.36-3.43-12.71-4.14-18.97,11.28c-6.25,15.42-12.41,46.96-18.66,43.74c-6.25-3.21-12.61-41.18-18.86-48.04
			c-6.25-6.86-12.41,17.39-18.66,60.03s-12.61,103.67-18.66,98.61c-6.05-5.07-11.79-76.23-17.84-109.98
			c-6.05-33.75-12.41-30.08-18.76-38.32c-6.36-8.24-12.71-28.39-18.97-36.31c-6.25-7.92-12.41-3.63-18.66,1.16
			c-6.25,4.79-12.61,10.07-18.86,17.29c-6.25,7.22-12.41,16.36-18.66,21.96c-6.25,5.6-12.61,7.65-18.97-2.88
			c-6.36-10.53-12.71-33.63-18.97-43.76c-6.25-10.13-12.41-7.29-18.66-2.76c-6.25,4.53-12.61,10.76-18.86,10.43
			s-12.41-7.23-18.66-5.91c-6.25,1.32-12.61,10.86-18.66,18.24c-6.05,7.37-11.79,12.58-17.84,20.56
			c-6.05,7.98-12.41,18.75-15.58,24.13L137.68,494.02z"/>
		<path class="st17" d="M137.68,494.02l3.18-5.38c3.18-5.38,9.53-16.15,15.58-24.13c6.05-7.98,11.79-13.19,17.84-20.56
			c6.05-7.37,12.41-16.91,18.66-18.24c6.25-1.32,12.41,5.58,18.66,5.91s12.61-5.89,18.86-10.43c6.25-4.53,12.41-7.37,18.66,2.76
			c6.25,10.13,12.61,33.24,18.97,43.76c6.36,10.53,12.71,8.48,18.97,2.88c6.25-5.6,12.41-14.75,18.66-21.96
			c6.25-7.22,12.61-12.5,18.86-17.29c6.25-4.79,12.41-9.09,18.66-1.16c6.25,7.92,12.61,28.07,18.97,36.31
			c6.36,8.24,12.71,4.57,18.76,38.32c6.05,33.75,11.79,104.92,17.84,109.98c6.05,5.07,12.41-55.97,18.66-98.61
			s12.41-66.89,18.66-60.03c6.25,6.86,12.61,44.83,18.86,48.04c6.25,3.21,12.41-28.33,18.66-43.74
			c6.25-15.42,12.61-14.71,18.97-11.28c6.36,3.43,12.71,9.58,18.97,14.69c6.25,5.11,12.41,9.17,18.66,6.47
			c6.25-2.7,12.61-12.16,18.86-20.88c6.25-8.71,12.41-16.68,18.66-13.68c6.25,3,12.61,16.95,18.97,19.32
			c6.36,2.37,12.71-6.86,18.76-14.45c6.05-7.59,11.79-13.54,17.84-14.39c6.05-0.85,12.41,3.41,18.66,10.82
			c6.25,7.41,12.41,17.98,18.66,18c6.25,0.02,12.61-10.51,18.86-10.72c6.25-0.22,12.41,9.88,18.66,11.81s12.61-4.3,18.97-16.18
			c6.36-11.89,12.71-29.43,18.97-31.54c6.25-2.11,12.41,11.22,15.48,17.88l3.08,6.66v7.57l-3.08,4.65
			c-3.08,4.65-9.23,13.96-15.48,15.95c-6.25,1.99-12.61-3.33-18.97-2.92c-6.36,0.41-12.71,6.56-18.97,4.79
			c-6.25-1.77-12.41-11.47-18.66-10.67s-12.61,12.12-18.86,12.66c-6.25,0.53-12.41-9.72-18.66-14.81
			c-6.25-5.09-12.61-5.01-18.66-5.54c-6.05-0.53-11.79-1.68-17.84,2.52c-6.05,4.2-12.41,13.74-18.76,11.61
			c-6.36-2.13-12.71-15.93-18.97-19c-6.25-3.08-12.41,4.57-18.66,13.29c-6.25,8.71-12.61,18.49-18.86,22.38
			c-6.25,3.88-12.41,1.87-18.66-3.04c-6.25-4.91-12.61-12.72-18.97-16.78c-6.36-4.06-12.71-4.38-18.97,11.08
			c-6.25,15.46-12.41,46.68-18.66,43.35c-6.25-3.33-12.61-41.22-18.86-47.96c-6.25-6.74-12.41,17.66-18.66,60.34
			s-12.61,103.64-18.66,98.92c-6.05-4.71-11.79-75.09-17.84-109.39c-6.05-34.3-12.41-32.53-18.76-41.52
			c-6.36-8.99-12.71-28.74-18.97-36.31s-12.41-2.96-18.66,2.46c-6.25,5.42-12.61,11.65-18.86,19.02
			c-6.25,7.37-12.41,15.89-18.66,21.33c-6.25,5.44-12.61,7.81-18.97-2.84s-12.71-34.3-18.97-44.55c-6.25-10.25-12.41-7.1-18.66-2.17
			c-6.25,4.93-12.61,11.63-18.86,13.94s-12.41,0.22-18.66,2.25c-6.25,2.03-12.61,8.18-18.66,13.58
			c-6.05,5.4-11.79,10.05-17.84,16.38c-6.05,6.33-12.41,14.33-15.58,18.33l-3.18,4V494.02z"/>
		<path class="st18" d="M137.68,495.91l3.18-4c3.18-4,9.53-12.01,15.58-18.33c6.05-6.33,11.79-10.98,17.84-16.38
			c6.05-5.4,12.41-11.55,18.66-13.58c6.25-2.03,12.41,0.06,18.66-2.25s12.61-9.01,18.86-13.94c6.25-4.93,12.41-8.08,18.66,2.17
			c6.25,10.25,12.61,33.91,18.97,44.55s12.71,8.28,18.97,2.84c6.25-5.44,12.41-13.96,18.66-21.33c6.25-7.37,12.61-13.6,18.86-19.02
			c6.25-5.42,12.41-10.03,18.66-2.46s12.61,27.32,18.97,36.31c6.36,8.99,12.71,7.22,18.76,41.52
			c6.05,34.3,11.79,104.68,17.84,109.39c6.05,4.71,12.41-56.24,18.66-98.92s12.41-67.09,18.66-60.34
			c6.25,6.74,12.61,44.63,18.86,47.96c6.25,3.33,12.41-27.9,18.66-43.35c6.25-15.46,12.61-15.14,18.97-11.08
			c6.36,4.06,12.71,11.87,18.97,16.78c6.25,4.91,12.41,6.92,18.66,3.04c6.25-3.88,12.61-13.66,18.86-22.38
			c6.25-8.71,12.41-16.36,18.66-13.29c6.25,3.08,12.61,16.88,18.97,19c6.36,2.13,12.71-7.41,18.76-11.61
			c6.05-4.2,11.79-3.06,17.84-2.52c6.05,0.53,12.41,0.45,18.66,5.54c6.25,5.09,12.41,15.34,18.66,14.81
			c6.25-0.53,12.61-11.85,18.86-12.66s12.41,8.89,18.66,10.67c6.25,1.77,12.61-4.38,18.97-4.79c6.36-0.41,12.71,4.91,18.97,2.92
			c6.25-1.99,12.41-11.3,15.48-15.95l3.08-4.65v4.49l-3.08,3.98c-3.08,3.98-9.23,11.95-15.48,13.62
			c-6.25,1.68-12.61-2.94-18.97-2.29c-6.36,0.65-12.71,6.56-18.97,4.71c-6.25-1.85-12.41-11.47-18.66-10.27
			c-6.25,1.2-12.61,13.23-18.86,13.64c-6.25,0.41-12.41-10.78-18.66-16.07s-12.61-4.65-18.66-4.91c-6.05-0.26-11.79-1.4-17.84,2.52
			c-6.05,3.92-12.41,12.91-18.76,10.39c-6.36-2.52-12.71-16.56-18.97-19.63c-6.25-3.08-12.41,4.81-18.66,13.64
			c-6.25,8.83-12.61,18.61-18.86,22.93c-6.25,4.32-12.41,3.17-18.66-1.54c-6.25-4.71-12.61-12.99-18.97-17.6
			c-6.36-4.61-12.71-5.56-18.97,9.86c-6.25,15.42-12.41,47.19-18.66,44.69c-6.25-2.5-12.61-39.29-18.86-46.15
			c-6.25-6.86-12.41,16.2-18.66,58.29c-6.25,42.09-12.61,103.2-18.66,98.69c-6.05-4.51-11.79-74.66-17.84-109
			c-6.05-34.34-12.41-32.88-18.76-42.07c-6.36-9.19-12.71-29.02-18.97-36.67c-6.25-7.65-12.41-3.11-18.66,2.27
			c-6.25,5.38-12.61,11.61-18.86,19.54c-6.25,7.92-12.41,17.55-18.66,23.42c-6.25,5.87-12.61,8-18.97,1.03
			c-6.36-6.98-12.71-23.07-18.97-31.34c-6.25-8.28-12.41-8.75-18.66-5.2c-6.25,3.55-12.61,11.12-18.86,11.34s-12.41-6.92-18.66-4.89
			c-6.25,2.03-12.61,13.23-18.66,19.97c-6.05,6.74-11.79,9.03-17.84,12.44c-6.05,3.41-12.41,7.94-15.58,10.21l-3.18,2.27V495.91z"/>
		<path class="st19" d="M137.68,496.86l3.18-2.27c3.18-2.27,9.53-6.8,15.58-10.21c6.05-3.41,11.79-5.7,17.84-12.44
			c6.05-6.74,12.41-17.94,18.66-19.97c6.25-2.03,12.41,5.11,18.66,4.89s12.61-7.79,18.86-11.34c6.25-3.55,12.41-3.08,18.66,5.2
			c6.25,8.28,12.61,24.37,18.97,31.34c6.36,6.98,12.71,4.85,18.97-1.03c6.25-5.87,12.41-15.5,18.66-23.42
			c6.25-7.92,12.61-14.15,18.86-19.54c6.25-5.38,12.41-9.92,18.66-2.27c6.25,7.65,12.61,27.48,18.97,36.67
			c6.36,9.19,12.71,7.73,18.76,42.07c6.05,34.34,11.79,104.48,17.84,109c6.05,4.51,12.41-56.6,18.66-98.69
			c6.25-42.09,12.41-65.15,18.66-58.29c6.25,6.86,12.61,43.65,18.86,46.15c6.25,2.5,12.41-29.27,18.66-44.69
			c6.25-15.42,12.61-14.47,18.97-9.86c6.36,4.61,12.71,12.89,18.97,17.6c6.25,4.71,12.41,5.85,18.66,1.54
			c6.25-4.32,12.61-14.1,18.86-22.93c6.25-8.83,12.41-16.72,18.66-13.64c6.25,3.08,12.61,17.11,18.97,19.63
			c6.36,2.52,12.71-6.47,18.76-10.39c6.05-3.92,11.79-2.78,17.84-2.52c6.05,0.26,12.41-0.37,18.66,4.91s12.41,16.48,18.66,16.07
			c6.25-0.41,12.61-12.44,18.86-13.64c6.25-1.2,12.41,8.42,18.66,10.27c6.25,1.85,12.61-4.06,18.97-4.71
			c6.36-0.65,12.71,3.96,18.97,2.29c6.25-1.68,12.41-9.64,15.48-13.62l3.08-3.98v36.67l-3.08,3.11c-3.08,3.11-9.23,9.34-15.48,9.4
			c-6.25,0.06-12.61-6.05-18.97-5.91c-6.36,0.14-12.71,6.53-18.97,6.25c-6.25-0.28-12.41-7.22-18.66-5.66s-12.61,11.61-18.86,11.71
			c-6.25,0.1-12.41-9.76-18.66-14.81c-6.25-5.05-12.61-5.28-18.66-6.72c-6.05-1.44-11.79-4.08-17.84-1.5
			c-6.05,2.58-12.41,10.39-18.76,5.74c-6.36-4.65-12.71-21.76-18.97-25.12c-6.25-3.35-12.41,7.06-18.66,19.04
			c-6.25,11.99-12.61,25.55-18.86,28.92c-6.25,3.37-12.41-3.45-18.66-10.65s-12.61-14.77-18.97-18.71
			c-6.36-3.94-12.71-4.26-18.97,12.97c-6.25,17.23-12.41,52.01-18.66,52.06c-6.25,0.06-12.61-34.6-18.86-40.28
			c-6.25-5.68-12.41,17.62-18.66,57.86s-12.61,97.41-18.66,90.21c-6.05-7.2-11.79-78.76-17.84-115.03
			c-6.05-36.27-12.41-37.26-18.76-44.47c-6.36-7.22-12.71-20.66-18.97-25.59c-6.25-4.93-12.41-1.34-18.66,3.21
			c-6.25,4.55-12.61,10.07-18.86,16.86c-6.25,6.78-12.41,14.82-18.66,20.86c-6.25,6.03-12.61,10.05-18.97,3.79
			s-12.71-22.83-18.97-29.73c-6.25-6.9-12.41-4.14-18.66-1.85c-6.25,2.29-12.61,4.1-18.86,8.54c-6.25,4.44-12.41,11.49-18.66,15.38
			c-6.25,3.88-12.61,4.59-18.66,5.3c-6.05,0.71-11.79,1.42-17.84-0.1c-6.05-1.52-12.41-5.26-15.58-7.14l-3.18-1.87V496.86z"/>
	</g>
	<rect x="437.74" y="382.53" class="st3" width="35.61" height="45.69"/>
	<text transform="matrix(1 0 0 1 437.9595 388.2118)"><tspan x="0" y="0" class="st20 st5 st21">Immigrant </tspan><tspan x="7.38" y="9.6" class="st20 st5 st21">family </tspan><tspan x="-0.12" y="19.2" class="st20 st5 st21">separation</tspan></text>
	<rect x="720.17" y="427.92" class="st3" width="35.61" height="22.84"/>
	<text transform="matrix(1 0 0 1 725.1777 433.5999)"><tspan x="0" y="0" class="st20 st5 st21">Climate </tspan><tspan x="3.37" y="9.6" class="st20 st5 st21">Strike</tspan></text>
	<rect x="610.41" y="427.92" class="st3" width="35.61" height="22.84"/>
	<text transform="matrix(1 0 0 1 615.4229 433.5999)"><tspan x="0" y="0" class="st20 st5 st21">Climate </tspan><tspan x="3.37" y="9.6" class="st20 st5 st21">Strike</tspan></text>
	
		<rect x="680.88" y="387.38" transform="matrix(0.95 -0.3122 0.3122 0.95 -89.5827 238.0656)" class="st3" width="35.61" height="22.84"/>
	<text transform="matrix(0.95 -0.3122 0.3122 0.95 686.4837 396.8289)"><tspan x="0" y="0" class="st20 st5 st21">Family </tspan><tspan x="-6.73" y="9.6" class="st20 st5 st21">separation</tspan></text>
	<rect x="253.15" y="400.34" class="st3" width="60.61" height="26.4"/>
	<text transform="matrix(1 0 0 1 253.1461 406.0884)"><tspan x="0" y="0" class="st22 st21">Unite </tspan><tspan x="0" y="9.6" class="st22 st21">the Right </tspan><tspan x="0" y="19.2" class="st22 st21">(Charlottesville)</tspan></text>
	<g>
		<rect x="634.45" y="347.7" class="st3" width="50.37" height="26.4"/>
		<text transform="matrix(1 0 0 1 650.2957 353.4476)"><tspan x="0" y="0" class="st20 st22 st21">State </tspan><tspan x="-5.12" y="9.6" class="st20 st22 st21">abortion     </tspan><tspan x="-10" y="19.2" class="st20 st22 st21">restrictions</tspan></text>
	</g>
	<rect x="-396.04" y="313.57" class="st10" width="73.1" height="26.85"/>
	<rect x="-396.04" y="286.73" class="st9" width="73.1" height="26.85"/>
	<rect x="-396.04" y="260.19" class="st8" width="73.1" height="26.85"/>
	<rect x="-396.04" y="338.51" class="st11" width="73.1" height="26.85"/>
	<rect x="-396.04" y="365.36" class="st12" width="73.1" height="26.85"/>
	<rect x="-396.04" y="392.21" class="st13" width="73.1" height="26.85"/>
	<rect x="-396.04" y="419.15" class="st14" width="73.1" height="26.85"/>
	<rect x="-396.04" y="445.91" class="st15" width="73.1" height="26.85"/>
	<rect x="-396.04" y="472.66" class="st16" width="73.1" height="26.85"/>
	<rect x="-396.04" y="499.42" class="st17" width="73.1" height="26.85"/>
	<rect x="-396.04" y="526.17" class="st18" width="73.1" height="26.85"/>
	<rect x="-396.04" y="552.93" class="st19" width="73.1" height="26.85"/>
	<rect x="-392.95" y="451.27" class="st3" width="65.24" height="18.33"/>
	<text transform="matrix(1 0 0 1 -388.5641 457.0195)"><tspan x="0" y="0" class="st22 st21">Racial justice or </tspan><tspan x="-1.78" y="9.6" class="st22 st21">white supremacy</tspan></text>
	<rect x="-392.95" y="477.73" class="st3" width="65.24" height="18.33"/>
	<text transform="matrix(1 0 0 1 -377.6715 483.4812)"><tspan x="0" y="0" class="st20 st22 st21">Collective </tspan><tspan x="-1.34" y="9.6" class="st20 st22 st21">bargaining</tspan></text>
	<g>
		<rect x="26.35" y="309.73" class="st9" width="73.1" height="16.84"/>
		<rect x="26.35" y="326.57" class="st23" width="73.1" height="16.84"/>
		<rect x="26.35" y="342.53" class="st11" width="73.1" height="16.84"/>
		<rect x="26.35" y="292.9" class="st8" width="73.1" height="16.84"/>
		<g>
			<rect x="28.82" y="331.13" class="st3" width="64.15" height="9.24"/>
			<text transform="matrix(1 0 0 1 49.9999 336.8805)" class="st20 st22 st21">Police</text>
		</g>
		<g>
			<rect x="30.82" y="345.93" class="st3" width="64.15" height="9.24"/>
			<text transform="matrix(1 0 0 1 45.1035 351.6832)" class="st20 st22 st21">Education</text>
		</g>
		<rect x="26.35" y="358.7" class="st12" width="73.1" height="16.84"/>
		<g>
			<rect x="30.82" y="363.1" class="st3" width="64.15" height="9.24"/>
			<text transform="matrix(1 0 0 1 45.5527 368.8535)" class="st24 st22 st21">Executive</text>
		</g>
		<rect x="26.35" y="375.11" class="st13" width="73.1" height="16.84"/>
		<g>
			<rect x="30.82" y="379.51" class="st3" width="64.15" height="9.24"/>
			<text transform="matrix(1 0 0 1 42 385.2627)" class="st20 st22 st21">Immigration</text>
		</g>
		<rect x="26.35" y="391.52" class="st14" width="73.1" height="16.84"/>
		<rect x="26.35" y="461.48" class="st17" width="73.1" height="16.84"/>
		<rect x="26.35" y="478.54" class="st18" width="73.1" height="16.84"/>
		<g>
			<rect x="30.82" y="395.92" class="st3" width="64.15" height="9.24"/>
			<text transform="matrix(1 0 0 1 53.3339 401.6719)" class="st20 st22 st21">Guns</text>
		</g>
		<rect x="26.35" y="408.14" class="st15" width="73.1" height="26.85"/>
		<g>
			<rect x="30.66" y="314.74" class="st3" width="61.72" height="8.83"/>
			<text transform="matrix(1 0 0 1 33.9634 320.4914)" class="st20 st22 st21">Women’s rights</text>
		</g>
		<g>
			<rect x="30.66" y="297.1" class="st3" width="63.86" height="8.83"/>
			<text transform="matrix(1 0 0 1 35.4722 302.8476)" class="st20 st22 st21">Supreme Court</text>
		</g>
		<rect x="28.91" y="412.31" class="st3" width="65.24" height="18.33"/>
		<text transform="matrix(1 0 0 1 33.2931 418.0646)"><tspan x="0" y="0" class="st22 st21">Racial justice or </tspan><tspan x="-1.78" y="9.6" class="st22 st21">white supremacy</tspan></text>
		<rect x="26.35" y="434.6" class="st16" width="73.1" height="26.85"/>
		<rect x="28.91" y="438.77" class="st3" width="65.24" height="18.33"/>
		<text transform="matrix(1 0 0 1 44.1856 444.5263)"><tspan x="0" y="0" class="st20 st22 st21">Collective </tspan><tspan x="-1.34" y="9.6" class="st20 st22 st21">bargaining</tspan></text>
		<rect x="28.91" y="467.07" class="st3" width="65.24" height="11.64"/>
		<text transform="matrix(1 0 0 1 39.0704 472.8177)" class="st20 st22 st21">Environment</text>
		<rect x="28.91" y="483.14" class="st3" width="65.24" height="11.64"/>
		<text transform="matrix(1 0 0 1 42.1817 488.8945)" class="st20 st22 st21">Healthcare</text>
		<rect x="26.35" y="494.61" class="st19" width="73.1" height="16.84"/>
		<rect x="28.91" y="499.2" class="st3" width="65.24" height="11.64"/>
		<text transform="matrix(1 0 0 1 51.5216 504.9567)" class="st20 st22 st21">Other</text>
	</g>
	<g>
		<rect x="-391.42" y="270.21" class="st3" width="63.86" height="8.83"/>
		<text transform="matrix(1 0 0 1 -386.6124 275.9581)" class="st20 st22 st21">Supreme Court</text>
	</g>
	<g>
		<rect x="-391.42" y="294.75" class="st3" width="63.86" height="8.83"/>
		<text transform="matrix(1 0 0 1 -387.0518 300.4983)" class="st20 st22 st21">Women’s rights</text>
	</g>
	<g>
		<rect x="-391.42" y="320.78" class="st3" width="63.86" height="8.83"/>
		<text transform="matrix(1 0 0 1 -370.3839 326.5367)" class="st20 st22 st21">Police</text>
	</g>
	<g>
		<rect x="-391.42" y="347.53" class="st3" width="63.86" height="8.83"/>
		<text transform="matrix(1 0 0 1 -377.2803 353.2779)" class="st20 st22 st21">Education</text>
	</g>
	<g>
		<rect x="-391.42" y="374.37" class="st3" width="63.86" height="8.83"/>
		<text transform="matrix(1 0 0 1 -376.8311 380.1264)" class="st20 st22 st21">Executive</text>
	</g>
	<g>
		<rect x="-391.42" y="402.13" class="st3" width="63.86" height="8.83"/>
		<text transform="matrix(1 0 0 1 -380.3839 407.8817)" class="st20 st22 st21">Immigration</text>
	</g>
	<g>
		<rect x="-391.42" y="428.16" class="st3" width="63.86" height="8.83"/>
		<text transform="matrix(1 0 0 1 -369.0499 433.9167)" class="st20 st22 st21">Guns</text>
	</g>
	<g>
		<rect x="-391.42" y="506.7" class="st3" width="63.86" height="8.83"/>
		<text transform="matrix(1 0 0 1 -381.9444 512.4562)" class="st20 st22 st21">Environment</text>
	</g>
	<g>
		<rect x="-391.42" y="535.19" class="st3" width="63.86" height="8.83"/>
		<text transform="matrix(1 0 0 1 -378.8331 540.9377)" class="st20 st22 st21">Healthcare</text>
	</g>
	<g>
		<rect x="-391.42" y="560.94" class="st3" width="63.86" height="8.83"/>
		<text transform="matrix(1 0 0 1 -369.4932 566.6929)" class="st20 st22 st21">Other</text>
	</g>
	<rect x="142.43" y="341.37" class="st3" width="44.51" height="18.45"/>
	<text transform="matrix(1 0 0 1 142.4314 347.1186)"><tspan x="0" y="0" class="st20 st22 st21">Women’s </tspan><tspan x="0" y="9.6" class="st20 st22 st21">March</tspan></text>
	
		<rect x="342.39" y="363.35" transform="matrix(0.72 -0.6939 0.6939 0.72 -156.4622 357.3538)" class="st3" width="44.51" height="18.45"/>
	<text transform="matrix(0.72 -0.694 0.694 0.72 346.2603 385.5168)"><tspan x="0" y="0" class="st20 st22 st21">Women’s </tspan><tspan x="0" y="9.6" class="st20 st22 st21">March</tspan></text>
	
		<rect x="570.04" y="363.75" transform="matrix(0.72 -0.6939 0.6939 0.72 -92.9998 515.4435)" class="st3" width="44.51" height="18.45"/>
	<text transform="matrix(0.72 -0.694 0.694 0.72 573.9137 385.9124)"><tspan x="0" y="0" class="st20 st22 st21">Women’s </tspan><tspan x="0" y="9.6" class="st20 st22 st21">March</tspan></text>
	<rect x="174.39" y="473.91" class="st3" width="44.51" height="18.45"/>
	<text transform="matrix(1 0 0 1 174.3906 479.6579)"><tspan x="0" y="0" class="st20 st22 st21">March for </tspan><tspan x="0" y="9.6" class="st20 st22 st21">Science</tspan></text>
	<rect x="161.39" y="376.98" class="st3" width="44.51" height="12.75"/>
	<text transform="matrix(1 0 0 1 161.3887 382.7291)" class="st24 st22 st21">Tax March</text>
	
		<rect x="509.12" y="405.16" transform="matrix(0.85 -0.5268 0.5268 0.85 -135.4716 347.3474)" class="st3" width="66.05" height="12.75"/>
	<text transform="matrix(0.85 -0.5268 0.5268 0.85 513.7199 428.3942)" class="st24 st22 st21">#ProtectMueller</text>
	
		<rect x="136.83" y="429.12" transform="matrix(0.6362 -0.7715 0.7715 0.6362 -276.9382 284.6734)" class="st3" width="53.17" height="13.79"/>
	<text transform="matrix(0.6362 -0.7715 0.7715 0.6362 145.6025 455.7657)" class="st20 st22 st21">Muslim bans</text>
	<path id="SVGID_x5F_1_x5F_" class="st3" d="M192.94,450.41c12.17,0.41,20,0.44,25.96-3.47s16.83-10.71,23.38-6.89
		c7.19,4.19,16.96,30.4,16.96,30.4"/>
	<text>	<textPath  xlink:href="#SVGID_x5F_1_x5F_" startOffset="0%">
<tspan  class="st20 st22 st21">Obamacare repeal effort</tspan>	</textPath>
</text>
	<g>
		<path id="SVGID_x5F_2_x5F_" class="st3" d="M318.75,455.53c23.13-10.08,32.64,9.07,32.96,9.22"/>
		<text>		<textPath  xlink:href="#SVGID_x5F_2_x5F_" startOffset="0.024%">
<tspan  class="st20 st5 st21">Tax reform</tspan>		</textPath>
</text>
	</g>
	<g>
		<rect x="381.01" y="383.89" class="st3" width="45.59" height="55.23"/>
		<text transform="matrix(1 0 0 1 387.0356 389.5705)"><tspan x="0" y="0" class="st20 st5 st21">March For </tspan><tspan x="1.31" y="9.6" class="st20 st5 st21">Our Lives </tspan><tspan x="10.36" y="19.2" class="st20 st5 st21">and</tspan><tspan x="2.66" y="28.8" class="st20 st5 st21">National </tspan><tspan x="5.44" y="38.4" class="st20 st5 st21">School </tspan><tspan x="2.91" y="48" class="st20 st5 st21">Walkout</tspan></text>
	</g>
	<rect x="525.02" y="286.74" class="st3" width="71.87" height="38.05"/>
	<text transform="matrix(1 0 0 1 525.0175 292.4884)"><tspan x="0" y="0" class="st8 st25 st21">Supreme Court</tspan><tspan x="57.79" y="0" class="st22 st21">, </tspan><tspan x="0" y="9.6" class="st9 st25 st21">women’s rights</tspan><tspan x="58.68" y="9.6" class="st22 st21">:</tspan><tspan x="0" y="19.2" class="st22 st21">Kavanaugh </tspan><tspan x="0" y="28.8" class="st22 st21">nomination</tspan></text>
	<rect x="26.35" y="272.97" class="st3" width="71.87" height="12.26"/>
	<text transform="matrix(1 0 0 1 26.3446 281.603)" class="st22 st26">Topics:</text>
	<path class="st27" d="M521.4,390.13c-2.92,0-5.28-15.32-5.28-34.23c0-5.96,0.24-11.57,0.65-16.45c0.9-10.6,2.64-17.78,4.63-17.78
		c1.61,0,3.06,4.68,4.03,12.07"/>
	<line class="st27" x1="521.4" y1="321.67" x2="521.4" y2="284.63"/>
	
		<rect x="271.02" y="360.29" transform="matrix(0.7737 -0.6335 0.6335 0.7737 -182.9623 266.0208)" class="st3" width="19.78" height="57.69"/>
	<text transform="matrix(0.6335 0.7737 -0.7737 0.6335 265.873 364.1969)" class="st20 st22 st21">#DefendDACA</text>
</g>
<g id="Layer_2" class="st28">
	<g transform="translate(0,480)" class="st29">
		<path class="st30" d="M138.18,193.12v-5.5h617v5.5"/>
		<g transform="translate(0.6281571950814224,0)">
			<line class="st30" x1="137.68" y1="187.12" x2="137.68" y2="193.12"/>
			<text transform="matrix(1 0 0 1 126.5556 203.2248)" class="st31 st32">2017</text>
		</g>
		<g transform="translate(55.966434031239615,0)">
			<line class="st30" x1="137.68" y1="187.12" x2="137.68" y2="193.12"/>
			<text transform="matrix(1 0 0 1 127.6762 203.2248)" class="st31 st32">April</text>
		</g>
		<g transform="translate(111.94549684280491,0)">
			<line class="st30" x1="137.68" y1="187.12" x2="137.68" y2="193.12"/>
			<text transform="matrix(1 0 0 1 128.787 203.2248)" class="st31 st32">July</text>
		</g>
		<g transform="translate(168.53971419076103,0)">
			<line class="st30" x1="137.68" y1="187.12" x2="137.68" y2="193.12"/>
			<text transform="matrix(1 0 0 1 119.893 203.2248)" class="st31 st32">October</text>
		</g>
		<g transform="translate(225.1595629777335,0)">
			<line class="st30" x1="137.68" y1="187.12" x2="137.68" y2="193.12"/>
			<text transform="matrix(1 0 0 1 126.5556 203.2248)" class="st31 st32">2018</text>
		</g>
		<g transform="translate(280.49783981389163,0)">
			<line class="st30" x1="137.68" y1="187.12" x2="137.68" y2="193.12"/>
			<text transform="matrix(1 0 0 1 127.6762 203.2248)" class="st31 st32">April</text>
		</g>
		<g transform="translate(336.476902625457,0)">
			<line class="st30" x1="137.68" y1="187.12" x2="137.68" y2="193.12"/>
			<text transform="matrix(1 0 0 1 128.787 203.2248)" class="st31 st32">July</text>
		</g>
		<g transform="translate(393.0711199734131,0)">
			<line class="st30" x1="137.68" y1="187.12" x2="137.68" y2="193.12"/>
			<text transform="matrix(1 0 0 1 119.893 203.2248)" class="st31 st32">October</text>
		</g>
		<g transform="translate(449.69096876038554,0)">
			<line class="st30" x1="137.68" y1="187.12" x2="137.68" y2="193.12"/>
			<text transform="matrix(1 0 0 1 126.5556 203.2248)" class="st31 st32">2019</text>
		</g>
		<g transform="translate(505.02924559654366,0)">
			<line class="st30" x1="137.68" y1="187.12" x2="137.68" y2="193.12"/>
			<text transform="matrix(1 0 0 1 127.6762 203.2248)" class="st31 st32">April</text>
		</g>
		<g transform="translate(561.008308408109,0)">
			<line class="st30" x1="137.68" y1="187.12" x2="137.68" y2="193.12"/>
			<text transform="matrix(1 0 0 1 128.787 203.2248)" class="st31 st32">July</text>
		</g>
	</g>
</g>
<g id="Layer_4">
	<rect x="24.02" y="64.36" class="st3" width="632.46" height="76.28"/>
	<text transform="matrix(1 0 0 1 24.0157 72.9829)"><tspan x="0" y="0" class="st24 st22 st26">More than 20,000 street protests have occurred in America since January 15, 2017, spurred by mass shootings, immi</tspan><tspan x="622.31" y="0" class="st24 st22 st26">-</tspan><tspan x="0" y="14.4" class="st24 st22 st26">gration concerns, frustration with the president, and climate change. In the graphic below, each stripe represents a </tspan><tspan x="0" y="28.8" class="st24 st22 st26">topic, and the height of the stripes repre is determined by the number of related protests  per month. Protests about </tspan><tspan x="0" y="43.2" class="st24 st22 st26">multiple topics are included in multiple stripes.</tspan></text>
	<rect x="24.02" y="32.85" class="st3" width="579.47" height="19.06"/>
	<text transform="matrix(1 0 0 1 24.0159 47.2288)" class="st24 st22 st33">Crisis and scandal drive Americans to the street</text>
</g>
</svg>
