<svg width="617" height="300" xmlns="http://www.w3.org/2000/svg" version="1.1"><g><path class="layer" d="M0,103.06886830447041L3.1782984380192754,102.17613102429858C6.356596876038551,101.28339374412674,12.713193752077101,99.49791918378305,18.76221335992024,98.77433212511745C24.811232967763374,98.05074506645185,30.552675307411103,98.38904550946434,36.601694915254235,98.72734595247685C42.65071452309738,99.06564639548931,49.007311399135936,99.4039468385018,55.26138251910934,101.25520204054236C61.51545363908275,103.1064572425829,67.66699900299103,106.47066720365149,73.92107012296445,108.58504497247952C80.17514124293785,110.69942274130756,86.5317381189764,111.563968317895,92.78580923894981,112.65404752315747C99.03988035892324,113.74412672841993,105.19142572283151,115.05973956235736,111.44549684280491,111.77070747751377C117.69956796277832,108.48167539267017,124.05616483881688,100.5879983890455,130.41276171485544,97.59967780910189C136.76935859089397,94.61135722915827,143.12595546693254,96.52839307289567,149.38002658690593,99.4039468385018C155.63409770687937,102.27950060410792,161.78564307078764,106.11357229158277,168.03971419076103,109.34622096925762C174.29378531073448,112.57886964693249,180.650382186773,115.21009531480736,186.90445330674643,117.38085649080415C193.15852442671985,119.55161766680091,199.3100697906281,121.26191435091958,205.5641409106015,118.91260571888841C211.81821203057493,116.56329708685728,218.1748089066135,110.15438313867632,224.531405782652,106.71499530138271C230.88800265869057,103.27560746408915,237.24459953472913,102.80574573768293,243.29361914257228,85.5148342059337C249.34263875041543,68.22392267418446,255.08408109006314,34.11196133709223,261.1331006979063,30.681970734326757C267.1821203057494,27.251980131561282,273.53871718178794,54.503960263122565,279.7927883017614,73.68371593502484C286.0468594217348,92.86347160692709,292.19840478564305,103.97100281917035,298.45247590561644,101.26459927507047C304.7065470255899,98.55819573097058,311.06314390162845,82.03785743052758,317.31721502160184,82.06604913411195C323.5712861415753,82.09424083769633,329.72283150548355,98.6709625453081,335.976902625457,106.88414552288897C342.2309737454304,115.09732850046987,348.58757062146896,114.94697274801986,354.9441674975075,113.06752584239491C361.3007643735461,111.18807893677001,367.65736124958454,107.57954087797016,373.911432369558,104.1495502752047C380.1655034895314,100.71955967243923,386.3170488534397,97.46811652570813,392.5711199734131,99.07504363001743C398.82519109338654,100.68197073432674,405.1817879694251,107.14726808967646,411.4358590893985,112.86078668277621C417.6899302093719,118.57430527587594,423.84147557328015,123.53604510672574,430.09554669325354,121.93851523694457C436.349617813227,120.34098536716338,442.70621468926555,112.18418579675124,449.062811565304,109.96643844811383C455.4194084413427,107.74869109947645,461.77600531738125,111.46999597261377,467.82502492522434,112.7010336957981C473.8740445330675,113.9320714189824,479.61548687271517,112.67284199221372,485.6645064805584,111.98684387166064C491.71352608840147,111.30084575110754,498.07012296444003,111.18807893677005,504.3241940844134,108.78238689757018C510.5782652043869,106.37669485837027,516.7298105682952,101.67807759430798,522.9838816882685,101.7250637669486C529.237952808242,101.7720499395892,535.5945496842805,106.56463954893273,541.848620804254,107.30702107665458C548.1026919242273,108.04940260437643,554.2542372881356,104.74157605047657,560.508308408109,104.61001476708282C566.7623795280824,104.47845348368908,573.118976404121,107.52315747080145,579.4755732801596,107.58893811249833C585.8321701561981,107.65471875419519,592.1887670322367,104.74157605047658,598.4428381522101,104.76976775406096C604.6969092721835,104.79795945764533,610.8484546360918,107.76748556853268,613.9242273180458,109.25224862397636L617,110.73701167942005L617,110.73701167942005L613.9242273180458,109.25224862397636C610.8484546360918,107.76748556853268,604.6969092721835,104.79795945764533,598.4428381522101,104.76976775406096C592.1887670322367,104.74157605047658,585.8321701561981,107.65471875419519,579.4755732801596,107.58893811249833C573.118976404121,107.52315747080145,566.7623795280824,104.47845348368908,560.508308408109,104.61001476708283C554.2542372881356,104.74157605047657,548.1026919242273,108.04940260437643,541.848620804254,107.30702107665456C535.5945496842805,106.56463954893273,529.237952808242,101.7720499395892,522.9838816882685,101.7250637669486C516.7298105682952,101.67807759430798,510.5782652043869,106.37669485837027,504.3241940844135,108.78238689757013C498.07012296444003,111.18807893677005,491.71352608840147,111.30084575110754,485.66450648055826,111.98684387166064C479.61548687271517,112.67284199221372,473.8740445330675,113.9320714189824,467.82502492522434,112.7010336957981C461.77600531738125,111.46999597261377,455.4194084413427,107.74869109947645,449.062811565304,109.96643844811383C442.70621468926555,112.18418579675124,436.349617813227,120.34098536716338,430.09554669325354,121.93851523694457C423.84147557328015,123.53604510672574,417.6899302093719,118.57430527587594,411.43585908939843,115.22888978386361C405.1817879694251,111.88347429185126,398.82519109338654,110.15438313867634,392.5711199734131,110.46449187810443C386.3170488534397,110.77460061753256,380.1655034895314,113.12390924956371,373.911432369558,114.580480601423C367.65736124958454,116.0370519532823,361.3007643735461,116.60088602496978,354.9441674975075,116.84521412270102C348.58757062146896,117.08954222043225,342.2309737454304,117.01436434420725,335.97690262545694,108.4252919855014C329.72283150548355,99.83621962679554,323.5712861415753,82.73325278560883,317.3172150216019,82.42314404618071C311.06314390162845,82.1130353067526,304.7065470255899,98.5957846690831,298.45247590561644,101.28339374412673C292.19840478564305,103.97100281917035,286.0468594217348,92.86347160692709,279.7927883017614,73.68371593502484C273.53871718178794,54.503960263122565,267.1821203057494,27.251980131561282,261.1331006979063,30.681970734326757C255.08408109006314,34.11196133709223,249.34263875041543,68.22392267418446,243.29361914257228,85.5148342059337C237.24459953472913,102.80574573768293,230.88800265869057,103.27560746408915,224.53140578265206,106.71499530138271C218.1748089066135,110.15438313867632,211.81821203057493,116.56329708685728,205.5641409106015,118.91260571888843C199.3100697906281,121.26191435091958,193.15852442671985,119.55161766680091,186.9044533067464,117.38085649080415C180.650382186773,115.21009531480736,174.29378531073448,112.57886964693249,168.03971419076103,109.36501543831388C161.78564307078764,106.15116122969528,155.63409770687937,102.35467848033294,149.38002658690596,99.47912471472681C143.12595546693254,96.6035709491207,136.76935859089397,94.64894616727076,130.41276171485544,97.61847227815815C124.05616483881688,100.5879983890455,117.69956796277832,108.48167539267017,111.44549684280491,111.77070747751377C105.19142572283151,115.05973956235736,99.03988035892324,113.74412672841993,92.78580923894982,112.65404752315747C86.5317381189764,111.563968317895,80.17514124293785,110.69942274130756,73.92107012296445,108.6038394415358C67.66699900299103,106.508256141764,61.51545363908275,103.18163511880789,55.26138251910934,101.38676332393611C49.007311399135936,99.59189152906431,42.65071452309738,99.32876896227681,36.601694915254235,98.99046851926433C30.552675307411103,98.65216807625184,24.811232967763374,98.23868975701437,18.76221335992024,98.9058934085112C12.713193752077101,99.57309706000807,6.356596876038551,101.32098268223923,3.1782984380192754,102.19492549335483L0,103.06886830447041Z" fill="rgb(191, 105, 105)" title="supreme_court"></path><path class="layer" d="M0,103.06886830447041L3.1782984380192754,102.19492549335484C6.356596876038551,101.32098268223923,12.713193752077101,99.57309706000807,18.76221335992024,98.9058934085112C24.811232967763374,98.23868975701437,30.552675307411103,98.65216807625184,36.601694915254235,98.99046851926433C42.65071452309738,99.32876896227681,49.007311399135936,99.59189152906431,55.26138251910934,101.38676332393611C61.51545363908275,103.18163511880789,67.66699900299103,106.508256141764,73.92107012296445,108.60383944153575C80.17514124293785,110.69942274130756,86.5317381189764,111.563968317895,92.78580923894981,112.65404752315747C99.03988035892324,113.74412672841993,105.19142572283151,115.05973956235736,111.44549684280491,111.77070747751377C117.69956796277832,108.48167539267017,124.05616483881688,100.5879983890455,130.41276171485544,97.61847227815815C136.76935859089397,94.64894616727076,143.12595546693254,96.6035709491207,149.38002658690593,99.47912471472681C155.63409770687937,102.35467848033294,161.78564307078764,106.15116122969528,168.03971419076103,109.36501543831389C174.29378531073448,112.57886964693249,180.650382186773,115.21009531480736,186.90445330674643,117.38085649080415C193.15852442671985,119.55161766680091,199.3100697906281,121.26191435091958,205.5641409106015,118.91260571888841C211.81821203057493,116.56329708685728,218.1748089066135,110.15438313867632,224.531405782652,106.71499530138271C230.88800265869057,103.27560746408915,237.24459953472913,102.80574573768293,243.29361914257228,85.5148342059337C249.34263875041543,68.22392267418446,255.08408109006314,34.11196133709223,261.1331006979063,30.681970734326757C267.1821203057494,27.251980131561282,273.53871718178794,54.503960263122565,279.7927883017614,73.68371593502484C286.0468594217348,92.86347160692709,292.19840478564305,103.97100281917035,298.45247590561644,101.28339374412673C304.7065470255899,98.5957846690831,311.06314390162845,82.1130353067526,317.31721502160184,82.42314404618071C323.5712861415753,82.73325278560883,329.72283150548355,99.83621962679554,335.976902625457,108.4252919855014C342.2309737454304,117.01436434420725,348.58757062146896,117.08954222043225,354.9441674975075,116.84521412270101C361.3007643735461,116.60088602496978,367.65736124958454,116.0370519532823,373.911432369558,114.580480601423C380.1655034895314,113.12390924956371,386.3170488534397,110.77460061753256,392.5711199734131,110.46449187810443C398.82519109338654,110.15438313867634,405.1817879694251,111.88347429185126,411.4358590893985,115.22888978386361C417.6899302093719,118.57430527587594,423.84147557328015,123.53604510672574,430.09554669325354,121.93851523694457C436.349617813227,120.34098536716338,442.70621468926555,112.18418579675124,449.062811565304,109.96643844811383C455.4194084413427,107.74869109947645,461.77600531738125,111.46999597261377,467.82502492522434,112.7010336957981C473.8740445330675,113.9320714189824,479.61548687271517,112.67284199221372,485.6645064805584,111.98684387166064C491.71352608840147,111.30084575110754,498.07012296444003,111.18807893677005,504.3241940844134,108.78238689757018C510.5782652043869,106.37669485837027,516.7298105682952,101.67807759430798,522.9838816882685,101.7250637669486C529.237952808242,101.7720499395892,535.5945496842805,106.56463954893273,541.848620804254,107.30702107665458C548.1026919242273,108.04940260437643,554.2542372881356,104.74157605047657,560.508308408109,104.61001476708282C566.7623795280824,104.47845348368908,573.118976404121,107.52315747080145,579.4755732801596,107.58893811249833C585.8321701561981,107.65471875419519,592.1887670322367,104.74157605047658,598.4428381522101,104.76976775406096C604.6969092721835,104.79795945764533,610.8484546360918,107.76748556853268,613.9242273180458,109.25224862397636L617,110.73701167942005L617,116.26258558195732L613.9242273180458,114.10122164048867C610.8484546360918,111.93985769902001,604.6969092721835,107.61712981608271,598.4428381522101,106.9311316955296C592.1887670322367,106.24513357497649,585.8321701561981,109.1958652168076,579.4755732801596,109.11129010605451C573.118976404121,109.02671499530136,566.7623795280824,105.906833131964,560.508308408109,106.35790038931401C554.2542372881356,106.80896764666397,548.1026919242273,110.8309840247013,541.848620804254,115.14431467311049C535.5945496842805,119.45764532151968,529.237952808242,124.0622902403007,522.9838816882685,124.33481004161634C516.7298105682952,124.60732984293195,510.5782652043869,120.54772452678212,504.3241940844135,118.34877164720096C498.07012296444003,116.14981876761982,491.71352608840147,115.81151832460733,485.66450648055826,116.00886024969793C479.61548687271517,116.20620217478857,473.8740445330675,116.93918646798228,467.82502492522434,118.75285273191032C461.77600531738125,120.5665189958384,455.4194084413427,123.46086723050075,449.062811565304,125.41549201235068C442.70621468926555,127.37011679420057,436.349617813227,128.38501812323804,430.09554669325354,126.71231037723184C423.84147557328015,125.03960263122566,417.6899302093719,120.67928581017587,411.43585908939843,119.9650959860384C405.1817879694251,119.25090616190091,398.82519109338654,122.1828433346758,392.5711199734131,123.99650959860385C386.3170488534397,125.81017586253188,380.1655034895314,126.50557121761308,373.911432369558,125.46247818499126C367.65736124958454,124.41938515236944,361.3007643735461,121.63780373204457,354.9441674975075,120.02147939320714C348.58757062146896,118.40515505436973,342.2309737454304,117.95408779701974,335.97690262545694,109.32742650020138C329.72283150548355,100.70076520338301,323.5712861415753,83.89850986709627,317.3172150216019,83.6823734729494C311.06314390162845,83.46623707880254,304.7065470255899,99.83621962679554,298.45247590561644,103.03127936635788C292.19840478564305,106.22633910592026,286.0468594217348,96.24647603705193,279.7927883017614,77.6869378440059C273.53871718178794,59.12739965095985,267.1821203057494,31.988186333736063,261.1331006979063,35.004698617264054C255.08408109006314,38.02121090079205,249.34263875041543,71.19344878507182,243.29361914257228,93.42730567861457C237.24459953472913,115.66116257215735,230.88800265869057,126.95663847496309,224.53140578265206,130.22687609075044C218.1748089066135,133.4971137065378,211.81821203057493,128.74211303530674,205.5641409106015,125.5094643576319C199.3100697906281,122.27681567995705,193.15852442671985,120.5665189958384,186.9044533067464,118.92200295341657C180.650382186773,117.27748691099477,174.29378531073448,115.69875151026984,168.03971419076103,112.65404752315747C161.78564307078764,109.60934353604512,155.63409770687937,105.09867096254531,149.38002658690596,101.79084440864547C143.12595546693254,98.4830178547456,136.76935859089397,96.3780373204457,130.41276171485544,99.29118002416432C124.05616483881688,102.20432272788294,117.69956796277832,110.13558866962008,111.44549684280491,113.40582628540743C105.19142572283151,116.67606390119481,99.03988035892324,115.28527319103235,92.78580923894982,114.13881057860117C86.5317381189764,112.99234796616997,80.17514124293785,112.09021345147,73.92107012296445,110.61484763055444C67.66699900299103,109.13948180963888,61.51545363908275,107.0908846825077,55.26138251910934,107.06269297892334C49.007311399135936,107.03450127533897,42.65071452309738,109.02671499530139,36.601694915254235,109.72211035038261C30.552675307411103,110.41750570546382,24.811232967763374,109.81608269566387,18.76221335992024,116.66666666666667C12.713193752077101,123.5172506376695,6.356596876038551,137.81984158947512,3.1782984380192754,144.97113706537792L0,152.12243254128072Z" fill="rgb(191, 148, 105)" title="women"></path><path class="layer" d="M0,152.12243254128072L3.1782984380192754,144.97113706537792C6.356596876038551,137.81984158947512,12.713193752077101,123.5172506376695,18.76221335992024,116.66666666666669C24.811232967763374,109.81608269566387,30.552675307411103,110.41750570546382,36.601694915254235,109.72211035038261C42.65071452309738,109.02671499530139,49.007311399135936,107.03450127533897,55.26138251910934,107.06269297892334C61.51545363908275,107.0908846825077,67.66699900299103,109.13948180963888,73.92107012296445,110.61484763055444C80.17514124293785,112.09021345147,86.5317381189764,112.99234796616997,92.78580923894981,114.13881057860117C99.03988035892324,115.28527319103235,105.19142572283151,116.67606390119481,111.44549684280491,113.40582628540744C117.69956796277832,110.13558866962008,124.05616483881688,102.20432272788294,130.41276171485544,99.29118002416432C136.76935859089397,96.3780373204457,143.12595546693254,98.4830178547456,149.38002658690593,101.79084440864546C155.63409770687937,105.09867096254531,161.78564307078764,109.60934353604512,168.03971419076103,112.65404752315749C174.29378531073448,115.69875151026984,180.650382186773,117.27748691099477,186.90445330674643,118.92200295341657C193.15852442671985,120.5665189958384,199.3100697906281,122.27681567995705,205.5641409106015,125.50946435763193C211.81821203057493,128.74211303530674,218.1748089066135,133.4971137065378,224.531405782652,130.22687609075044C230.88800265869057,126.95663847496309,237.24459953472913,115.66116257215735,243.29361914257228,93.42730567861459C249.34263875041543,71.19344878507182,255.08408109006314,38.02121090079205,261.1331006979063,35.004698617264054C267.1821203057494,31.988186333736063,273.53871718178794,59.12739965095985,279.7927883017614,77.6869378440059C286.0468594217348,96.24647603705193,292.19840478564305,106.22633910592026,298.45247590561644,103.03127936635788C304.7065470255899,99.83621962679554,311.06314390162845,83.46623707880254,317.31721502160184,83.68237347294941C323.5712861415753,83.89850986709627,329.72283150548355,100.70076520338301,335.976902625457,109.32742650020138C342.2309737454304,117.95408779701974,348.58757062146896,118.40515505436973,354.9441674975075,120.02147939320714C361.3007643735461,121.63780373204457,367.65736124958454,124.41938515236944,373.911432369558,125.46247818499126C380.1655034895314,126.50557121761308,386.3170488534397,125.81017586253188,392.5711199734131,123.99650959860382C398.82519109338654,122.1828433346758,405.1817879694251,119.25090616190091,411.4358590893985,119.9650959860384C417.6899302093719,120.67928581017587,423.84147557328015,125.03960263122566,430.09554669325354,126.71231037723184C436.349617813227,128.38501812323804,442.70621468926555,127.37011679420057,449.062811565304,125.41549201235064C455.4194084413427,123.46086723050075,461.77600531738125,120.5665189958384,467.82502492522434,118.75285273191032C473.8740445330675,116.93918646798228,479.61548687271517,116.20620217478857,485.6645064805584,116.00886024969793C491.71352608840147,115.81151832460733,498.07012296444003,116.14981876761982,504.3241940844134,118.34877164720096C510.5782652043869,120.54772452678212,516.7298105682952,124.60732984293195,522.9838816882685,124.33481004161634C529.237952808242,124.0622902403007,535.5945496842805,119.45764532151968,541.848620804254,115.14431467311049C548.1026919242273,110.8309840247013,554.2542372881356,106.80896764666397,560.508308408109,106.35790038931401C566.7623795280824,105.906833131964,573.118976404121,109.02671499530136,579.4755732801596,109.11129010605451C585.8321701561981,109.1958652168076,592.1887670322367,106.24513357497649,598.4428381522101,106.9311316955296C604.6969092721835,107.61712981608271,610.8484546360918,111.93985769902001,613.9242273180458,114.10122164048867L617,116.26258558195732L617,118.6306886830447L613.9242273180458,116.50691367968854C610.8484546360918,114.3831386763324,604.6969092721835,110.13558866962008,598.4428381522101,109.65632970868573C592.1887670322367,109.17707074775137,585.8321701561981,112.46610283259498,579.4755732801596,112.43791112901062C573.118976404121,112.40971942542625,566.7623795280824,109.06430393341388,560.508308408109,109.47778225265137C554.2542372881356,109.89126057188885,548.1026919242273,114.06363270237615,541.848620804254,118.39575781984159C535.5945496842805,122.72788293730702,529.237952808242,127.21976104175057,522.9838816882685,127.51107531212243C516.7298105682952,127.80238958249429,510.5782652043869,123.89314001879445,504.3241940844135,121.78815948449456C498.07012296444003,119.68317895019466,491.71352608840147,119.38246744529467,485.66450648055826,119.46704255604779C479.61548687271517,119.55161766680091,473.8740445330675,120.02147939320714,467.82502492522434,121.70358437374144C461.77600531738125,123.38568935427573,455.4194084413427,126.28003758893811,449.062811565304,128.04671768022556C442.70621468926555,129.81339777151297,436.349617813227,130.45240971942542,430.09554669325354,128.59175728285675C423.84147557328015,126.73110484628808,417.6899302093719,122.37078802523827,411.43585908939843,121.97610417505705C405.1817879694251,121.58142032487581,398.82519109338654,125.15236944556318,392.5711199734131,127.41710296684118C386.3170488534397,129.68183648811922,380.1655034895314,130.64035440998794,373.911432369558,129.80400053698483C367.65736124958454,128.96764666398175,361.3007643735461,126.33642099610687,354.9441674975075,124.68250771915694C348.58757062146896,123.02859444220701,342.2309737454304,122.35199355618204,335.97690262545694,113.66894885219493C329.72283150548355,104.98590414820781,323.5712861415753,88.29641562625856,317.3172150216019,87.91112901060545C311.06314390162845,87.52584239495233,304.7065470255899,103.44475768559538,298.45247590561644,106.65861189421396C292.19840478564305,109.87246610283258,286.0468594217348,100.38125922942675,279.7927883017614,81.95328231977446C273.53871718178794,63.525305410122165,267.1821203057494,36.16055846422339,261.1331006979063,38.8763592428514C255.08408109006314,41.5921600214794,249.34263875041543,74.38850852463418,243.29361914257228,96.26527050610821C237.24459953472913,118.14203248758223,230.88800265869057,129.0992079473755,224.53140578265206,132.21908981071286C218.1748089066135,135.3389716740502,211.81821203057493,130.62155994093166,205.5641409106015,127.91515639683178C199.3100697906281,125.20875285273189,193.15852442671985,124.51335749765069,186.9044533067464,124.16565982011006C180.650382186773,123.81796214256946,174.29378531073448,123.81796214256946,168.03971419076103,121.6565982011008C161.78564307078764,119.49523425963214,155.63409770687937,115.17250637669484,149.38002658690596,110.77460061753254C143.12595546693254,106.37669485837023,136.76935859089397,101.90361122298293,130.41276171485544,103.46355215465162C124.05616483881688,105.0234930863203,117.69956796277832,112.61645858504498,111.44549684280491,115.77392938649484C105.19142572283151,118.9314001879447,99.03988035892324,117.65337629211975,92.78580923894982,116.63847496308229C86.5317381189764,115.62357363404483,80.17514124293785,114.87179487179488,73.92107012296445,113.30245670559806C67.66699900299103,111.73311853940125,61.51545363908275,109.34622096925762,55.26138251910934,109.11129010605451C49.007311399135936,108.87635924285138,42.65071452309738,110.79339508658877,36.601694915254235,111.28205128205127C30.552675307411103,111.77070747751374,24.811232967763374,110.8309840247013,18.76221335992024,117.39965095986038C12.713193752077101,123.96831789501947,6.356596876038551,138.0453752181501,3.1782984380192754,145.0839038797154L0,152.12243254128072Z" fill="rgb(191, 191, 105)" title="police"></path><path class="layer" d="M0,152.12243254128072L3.1782984380192754,145.0839038797154C6.356596876038551,138.0453752181501,12.713193752077101,123.96831789501947,18.76221335992024,117.39965095986037C24.811232967763374,110.8309840247013,30.552675307411103,111.77070747751374,36.601694915254235,111.28205128205126C42.65071452309738,110.79339508658877,49.007311399135936,108.87635924285138,55.26138251910934,109.11129010605448C61.51545363908275,109.34622096925762,67.66699900299103,111.73311853940125,73.92107012296445,113.30245670559806C80.17514124293785,114.87179487179488,86.5317381189764,115.62357363404483,92.78580923894981,116.63847496308229C99.03988035892324,117.65337629211975,105.19142572283151,118.9314001879447,111.44549684280491,115.77392938649484C117.69956796277832,112.61645858504498,124.05616483881688,105.0234930863203,130.41276171485544,103.46355215465162C136.76935859089397,101.90361122298293,143.12595546693254,106.37669485837023,149.38002658690593,110.77460061753254C155.63409770687937,115.17250637669484,161.78564307078764,119.49523425963214,168.03971419076103,121.65659820110079C174.29378531073448,123.81796214256946,180.650382186773,123.81796214256946,186.90445330674643,124.16565982011008C193.15852442671985,124.51335749765069,199.3100697906281,125.20875285273189,205.5641409106015,127.91515639683178C211.81821203057493,130.62155994093166,218.1748089066135,135.3389716740502,224.531405782652,132.21908981071286C230.88800265869057,129.0992079473755,237.24459953472913,118.14203248758223,243.29361914257228,96.26527050610821C249.34263875041543,74.38850852463418,255.08408109006314,41.5921600214794,261.1331006979063,38.8763592428514C267.1821203057494,36.16055846422339,273.53871718178794,63.525305410122165,279.7927883017614,81.95328231977446C286.0468594217348,100.38125922942675,292.19840478564305,109.87246610283258,298.45247590561644,106.65861189421396C304.7065470255899,103.44475768559538,311.06314390162845,87.52584239495233,317.31721502160184,87.91112901060545C323.5712861415753,88.29641562625856,329.72283150548355,104.98590414820781,335.976902625457,113.66894885219493C342.2309737454304,122.35199355618204,348.58757062146896,123.02859444220701,354.9441674975075,124.68250771915693C361.3007643735461,126.33642099610687,367.65736124958454,128.96764666398175,373.911432369558,129.80400053698483C380.1655034895314,130.64035440998794,386.3170488534397,129.68183648811922,392.5711199734131,127.41710296684118C398.82519109338654,125.15236944556318,405.1817879694251,121.58142032487581,411.4358590893985,121.97610417505705C417.6899302093719,122.37078802523827,423.84147557328015,126.73110484628808,430.09554669325354,128.59175728285675C436.349617813227,130.45240971942542,442.70621468926555,129.81339777151297,449.062811565304,128.04671768022553C455.4194084413427,126.28003758893811,461.77600531738125,123.38568935427573,467.82502492522434,121.70358437374144C473.8740445330675,120.02147939320714,479.61548687271517,119.55161766680091,485.6645064805584,119.46704255604779C491.71352608840147,119.38246744529467,498.07012296444003,119.68317895019466,504.3241940844134,121.78815948449456C510.5782652043869,123.89314001879445,516.7298105682952,127.80238958249429,522.9838816882685,127.51107531212243C529.237952808242,127.21976104175057,535.5945496842805,122.72788293730702,541.848620804254,118.39575781984159C548.1026919242273,114.06363270237615,554.2542372881356,109.89126057188885,560.508308408109,109.47778225265137C566.7623795280824,109.06430393341388,573.118976404121,112.40971942542625,579.4755732801596,112.43791112901062C585.8321701561981,112.46610283259498,592.1887670322367,109.17707074775137,598.4428381522101,109.65632970868573C604.6969092721835,110.13558866962008,610.8484546360918,114.3831386763324,613.9242273180458,116.50691367968854L617,118.6306886830447L617,121.33709222714458L613.9242273180458,119.34487850718217C610.8484546360918,117.35266478721975,604.6969092721835,113.36823734729494,598.4428381522101,112.62585581957309C592.1887670322367,111.88347429185126,585.8321701561981,114.38313867633241,579.4755732801596,113.94146865351054C573.118976404121,113.4997986306887,566.7623795280824,110.11679420056385,560.508308408109,110.9437508390388C554.2542372881356,111.77070747751377,548.1026919242273,116.80762518458853,541.848620804254,122.49295207410391C535.5945496842805,128.17827896361928,529.237952808242,134.51201503557525,522.9838816882685,135.5363135991408C516.7298105682952,136.5606121627064,510.5782652043869,132.27547321788157,504.3241940844135,129.55027520472547C498.07012296444003,126.82507719156933,491.71352608840147,125.6598201100819,485.66450648055826,124.93623305141631C479.61548687271517,124.21264599275071,473.8740445330675,123.93072895690698,467.82502492522434,125.1993556182038C461.77600531738125,126.46798227950062,455.4194084413427,129.287152637938,449.062811565304,130.84709356960667C442.70621468926555,132.40703450127535,436.349617813227,132.7077460061753,430.09554669325354,130.69673781715665C423.84147557328015,128.685729628138,417.6899302093719,124.36300174520072,411.43585908939843,124.26902939991946C405.1817879694251,124.17505705463822,398.82519109338654,128.30984024701303,392.5711199734131,130.72492952074103C386.3170488534397,133.14001879446906,380.1655034895314,133.83541414955027,373.911432369558,132.7735266478722C367.65736124958454,131.71163914619413,361.3007643735461,128.89246878775677,354.9441674975075,126.8438716606256C348.58757062146896,124.79527453349442,342.2309737454304,123.51725063766948,335.97690262545694,114.68385018123236C329.72283150548355,105.85044972479527,323.5712861415753,89.46167270774599,317.3172150216019,89.82816485434284C311.06314390162845,90.1946570009397,304.7065470255899,107.3164183111827,298.45247590561644,112.46610283259497C292.19840478564305,117.61578735400724,286.0468594217348,110.79339508658877,279.7927883017614,92.96684118673646C273.53871718178794,75.14028728688413,267.1821203057494,46.309571754597926,261.1331006979063,48.29238824003221C255.08408109006314,50.2752047254665,249.34263875041543,83.07155322862128,243.29361914257228,103.93341388105785C237.24459953472913,124.79527453349442,230.88800265869057,133.72264733521277,224.53140578265206,135.6020942408377C218.1748089066135,137.4815411464626,211.81821203057493,132.3130621559941,205.5641409106015,129.437508390388C199.3100697906281,126.56195462478183,193.15852442671985,125.97932608403812,186.9044533067464,125.95113438045372C180.650382186773,125.92294267686937,174.29378531073448,126.44918781044434,168.03971419076103,124.45697409048195C161.78564307078764,122.46476037051953,155.63409770687937,117.95408779701977,149.38002658690596,113.19908712578871C143.12595546693254,108.44408645455768,136.76935859089397,103.44475768559539,130.41276171485544,104.85434286481409C124.05616483881688,106.26392804403275,117.69956796277832,114.08242717143241,111.44549684280491,117.39025372533227C105.19142572283151,120.69808027923212,99.03988035892324,119.49523425963217,92.78580923894982,118.93140018794467C86.5317381189764,118.3675661162572,80.17514124293785,118.44274399248219,73.92107012296445,117.06135051684788C67.66699900299103,115.67995704121358,61.51545363908275,112.84199221371996,55.26138251910934,112.68223922674184C49.007311399135936,112.52248623976372,42.65071452309738,115.04094509330112,36.601694915254235,115.2664787219761C30.552675307411103,115.49201235065108,24.811232967763374,113.42462075446367,18.76221335992024,119.20391998926029C12.713193752077101,124.9832192240569,6.356596876038551,138.60920928983754,3.1782984380192754,145.42220432272788L0,152.2351993556182Z" fill="rgb(148, 191, 105)" title="education"></path><path class="layer" d="M0,152.2351993556182L3.1782984380192754,145.42220432272788C6.356596876038551,138.60920928983754,12.713193752077101,124.9832192240569,18.76221335992024,119.20391998926029C24.811232967763374,113.42462075446367,30.552675307411103,115.49201235065108,36.601694915254235,115.2664787219761C42.65071452309738,115.04094509330112,49.007311399135936,112.52248623976372,55.26138251910934,112.68223922674184C61.51545363908275,112.84199221371996,67.66699900299103,115.67995704121358,73.92107012296445,117.06135051684788C80.17514124293785,118.44274399248219,86.5317381189764,118.3675661162572,92.78580923894981,118.93140018794467C99.03988035892324,119.49523425963217,105.19142572283151,120.69808027923212,111.44549684280491,117.39025372533227C117.69956796277832,114.08242717143241,124.05616483881688,106.26392804403275,130.41276171485544,104.85434286481406C136.76935859089397,103.44475768559539,143.12595546693254,108.44408645455768,149.38002658690593,113.19908712578871C155.63409770687937,117.95408779701977,161.78564307078764,122.46476037051953,168.03971419076103,124.45697409048195C174.29378531073448,126.44918781044434,180.650382186773,125.92294267686937,186.90445330674643,125.95113438045372C193.15852442671985,125.97932608403812,199.3100697906281,126.56195462478183,205.5641409106015,129.43750839038796C211.81821203057493,132.3130621559941,218.1748089066135,137.4815411464626,224.531405782652,135.6020942408377C230.88800265869057,133.72264733521277,237.24459953472913,124.79527453349442,243.29361914257228,103.93341388105786C249.34263875041543,83.07155322862128,255.08408109006314,50.2752047254665,261.1331006979063,48.29238824003221C267.1821203057494,46.309571754597926,273.53871718178794,75.14028728688413,279.7927883017614,92.96684118673646C286.0468594217348,110.79339508658877,292.19840478564305,117.61578735400724,298.45247590561644,112.46610283259497C304.7065470255899,107.3164183111827,311.06314390162845,90.1946570009397,317.31721502160184,89.82816485434284C323.5712861415753,89.46167270774599,329.72283150548355,105.85044972479527,335.976902625457,114.68385018123239C342.2309737454304,123.51725063766948,348.58757062146896,124.79527453349442,354.9441674975075,126.8438716606256C361.3007643735461,128.89246878775677,367.65736124958454,131.71163914619413,373.911432369558,132.77352664787222C380.1655034895314,133.83541414955027,386.3170488534397,133.14001879446906,392.5711199734131,130.72492952074106C398.82519109338654,128.30984024701303,405.1817879694251,124.17505705463822,411.4358590893985,124.26902939991948C417.6899302093719,124.36300174520072,423.84147557328015,128.685729628138,430.09554669325354,130.69673781715667C436.349617813227,132.7077460061753,442.70621468926555,132.40703450127535,449.062811565304,130.84709356960667C455.4194084413427,129.287152637938,461.77600531738125,126.46798227950062,467.82502492522434,125.1993556182038C473.8740445330675,123.93072895690698,479.61548687271517,124.21264599275071,485.6645064805584,124.93623305141631C491.71352608840147,125.6598201100819,498.07012296444003,126.82507719156933,504.3241940844134,129.55027520472547C510.5782652043869,132.27547321788157,516.7298105682952,136.5606121627064,522.9838816882685,135.5363135991408C529.237952808242,134.51201503557525,535.5945496842805,128.17827896361928,541.848620804254,122.49295207410391C548.1026919242273,116.80762518458853,554.2542372881356,111.77070747751377,560.508308408109,110.9437508390388C566.7623795280824,110.11679420056385,573.118976404121,113.4997986306887,579.4755732801596,113.94146865351054C585.8321701561981,114.38313867633241,592.1887670322367,111.88347429185126,598.4428381522101,112.62585581957309C604.6969092721835,113.36823734729494,610.8484546360918,117.35266478721975,613.9242273180458,119.34487850718216L617,121.33709222714458L617,131.14780507450666L613.9242273180458,127.82118405155056C610.8484546360918,124.49456302859444,604.6969092721835,117.84132098268225,598.4428381522101,116.19680494026045C592.1887670322367,114.55228889783864,585.8321701561981,117.91649885890725,579.4755732801596,118.28299100550409C573.118976404121,118.64948315210097,566.7623795280824,116.01825748422607,560.508308408109,117.10833668948852C554.2542372881356,118.198415894751,548.1026919242273,123.00979997315078,541.848620804254,127.81178681702242C535.5945496842805,132.61377366089408,529.237952808242,137.40636327023762,522.9838816882685,138.2051282051282C516.7298105682952,139.0038931400188,510.5782652043869,135.80883340045645,504.3241940844135,133.1588132635253C498.07012296444003,130.50879312659416,491.71352608840147,128.40381259229426,485.66450648055826,127.09759699288493C479.61548687271517,125.79138139347565,473.8740445330675,125.28393072895692,467.82502492522434,127.66143106457243C461.77600531738125,130.03893140018795,455.4194084413427,135.30138273593772,449.062811565304,136.7109679151564C442.70621468926555,138.12055309437508,436.349617813227,135.6772721170627,430.09554669325354,136.10954490535642C423.84147557328015,136.54181769365016,417.6899302093719,139.84964424755,411.43585908939843,142.1049805342999C405.1817879694251,144.3603168210498,398.82519109338654,145.56316284064977,392.5711199734131,145.98603839441535C386.3170488534397,146.40891394818098,380.1655034895314,146.05181903611222,373.911432369558,143.26084038125921C367.65736124958454,140.4698617264062,361.3007643735461,135.24499932876896,354.9441674975075,132.3882400322191C348.58757062146896,129.53148073566922,342.2309737454304,129.04282454020674,335.97690262545694,120.00268492415087C329.72283150548355,110.96254530809505,323.5712861415753,93.37092227144582,317.3172150216019,92.89166331051148C311.06314390162845,92.41240434957712,304.7065470255899,109.04550946435762,298.45247590561644,113.8944824808699C292.19840478564305,118.74345549738219,286.0468594217348,111.80829641562626,279.7927883017614,94.09450933011142C273.53871718178794,76.3807222445966,267.1821203057494,47.88830715532288,261.1331006979063,49.94630151698217C255.08408109006314,52.00429587864144,249.34263875041543,84.61269969123373,243.29361914257228,105.71888844140153C237.24459953472913,126.82507719156933,230.88800265869057,136.42905087931265,224.53140578265206,138.21452543965634C218.1748089066135,140,211.81821203057493,133.96697543294403,205.5641409106015,131.1290106054504C199.3100697906281,128.29104577795678,193.15852442671985,128.6481406900255,186.9044533067464,128.90186602228488C180.650382186773,129.15559135454424,174.29378531073448,129.30594710699424,168.03971419076103,127.06940528930058C161.78564307078764,124.83286347160693,155.63409770687937,120.20942408376963,149.38002658690596,115.88669620083232C143.12595546693254,111.563968317895,136.76935859089397,107.5419519398577,130.41276171485544,109.38380990737011C124.05616483881688,111.22566787488252,117.69956796277832,118.93140018794469,111.44549684280491,122.85944422070077C105.19142572283151,126.78748825345684,99.03988035892324,126.93784400590683,92.78580923894982,126.20485971271312C86.5317381189764,125.47187541951939,80.17514124293785,123.85555108068196,73.92107012296445,123.69579809370384C67.66699900299103,123.53604510672574,61.51545363908275,124.83286347160693,55.26138251910934,127.21036380722245C49.007311399135936,129.58786414283796,42.65071452309738,133.0460464491878,36.601694915254235,133.10242985635657C30.552675307411103,133.1588132635253,24.811232967763374,129.81339777151297,18.76221335992024,133.07423815277218C12.713193752077101,136.3350785340314,6.356596876038551,146.2021747885622,3.1782984380192754,151.1357229158276L0,156.069271043093Z" fill="rgb(105, 191, 105)" title="executive"></path><path class="layer" d="M0,156.069271043093L3.1782984380192754,151.1357229158276C6.356596876038551,146.2021747885622,12.713193752077101,136.3350785340314,18.76221335992024,133.07423815277215C24.811232967763374,129.81339777151297,30.552675307411103,133.1588132635253,36.601694915254235,133.10242985635657C42.65071452309738,133.0460464491878,49.007311399135936,129.58786414283796,55.26138251910934,127.21036380722245C61.51545363908275,124.83286347160693,67.66699900299103,123.53604510672574,73.92107012296445,123.69579809370386C80.17514124293785,123.85555108068196,86.5317381189764,125.47187541951939,92.78580923894981,126.20485971271312C99.03988035892324,126.93784400590683,105.19142572283151,126.78748825345684,111.44549684280491,122.85944422070077C117.69956796277832,118.93140018794469,124.05616483881688,111.22566787488252,130.41276171485544,109.38380990737011C136.76935859089397,107.5419519398577,143.12595546693254,111.563968317895,149.38002658690593,115.88669620083232C155.63409770687937,120.20942408376963,161.78564307078764,124.83286347160693,168.03971419076103,127.06940528930058C174.29378531073448,129.30594710699424,180.650382186773,129.15559135454424,186.90445330674643,128.90186602228488C193.15852442671985,128.6481406900255,199.3100697906281,128.29104577795678,205.5641409106015,131.1290106054504C211.81821203057493,133.96697543294403,218.1748089066135,140,224.531405782652,138.21452543965634C230.88800265869057,136.42905087931265,237.24459953472913,126.82507719156933,243.29361914257228,105.71888844140153C249.34263875041543,84.61269969123373,255.08408109006314,52.00429587864144,261.1331006979063,49.94630151698217C267.1821203057494,47.88830715532288,273.53871718178794,76.3807222445966,279.7927883017614,94.09450933011142C286.0468594217348,111.80829641562626,292.19840478564305,118.74345549738219,298.45247590561644,113.8944824808699C304.7065470255899,109.04550946435762,311.06314390162845,92.41240434957712,317.31721502160184,92.89166331051148C323.5712861415753,93.37092227144582,329.72283150548355,110.96254530809505,335.976902625457,120.00268492415087C342.2309737454304,129.04282454020674,348.58757062146896,129.53148073566922,354.9441674975075,132.38824003221907C361.3007643735461,135.24499932876896,367.65736124958454,140.4698617264062,373.911432369558,143.26084038125921C380.1655034895314,146.05181903611222,386.3170488534397,146.40891394818098,392.5711199734131,145.98603839441535C398.82519109338654,145.56316284064977,405.1817879694251,144.3603168210498,411.4358590893985,142.1049805342999C417.6899302093719,139.84964424755,423.84147557328015,136.54181769365016,430.09554669325354,136.10954490535644C436.349617813227,135.6772721170627,442.70621468926555,138.12055309437508,449.062811565304,136.7109679151564C455.4194084413427,135.30138273593772,461.77600531738125,130.03893140018795,467.82502492522434,127.66143106457243C473.8740445330675,125.28393072895692,479.61548687271517,125.79138139347565,485.6645064805584,127.09759699288497C491.71352608840147,128.40381259229426,498.07012296444003,130.50879312659416,504.3241940844134,133.1588132635253C510.5782652043869,135.80883340045645,516.7298105682952,139.0038931400188,522.9838816882685,138.2051282051282C529.237952808242,137.40636327023762,535.5945496842805,132.61377366089408,541.848620804254,127.81178681702242C548.1026919242273,123.00979997315078,554.2542372881356,118.198415894751,560.508308408109,117.10833668948852C566.7623795280824,116.01825748422607,573.118976404121,118.64948315210097,579.4755732801596,118.28299100550409C585.8321701561981,117.91649885890725,592.1887670322367,114.55228889783864,598.4428381522101,116.19680494026045C604.6969092721835,117.84132098268225,610.8484546360918,124.49456302859444,613.9242273180458,127.82118405155056L617,131.14780507450666L617,134.0797422472815L613.9242273180458,130.9410659148879C610.8484546360918,127.80238958249429,604.6969092721835,121.52503691770708,598.4428381522101,120.51953282319774C592.1887670322367,119.51402872868842,585.8321701561981,123.78037320445696,579.4755732801596,129.65364478453483C573.118976404121,135.5269163646127,566.7623795280824,143.00711504899985,560.508308408109,143.7213048731373C554.2542372881356,144.43549469727478,548.1026919242273,138.38367566116256,541.848620804254,137.82923882400323C535.5945496842805,137.27480198684387,529.237952808242,142.2177473486374,522.9838816882685,142.75338971674051C516.7298105682952,143.2890320848436,510.5782652043869,139.4173714592563,504.3241940844135,136.35387300308767C498.07012296444003,133.29037454691903,491.71352608840147,131.03503826016913,485.66450648055826,131.852597664116C479.61548687271517,132.67015706806282,473.8740445330675,136.5606121627064,467.82502492522434,139.05087931265942C461.77600531738125,141.54114646261243,455.4194084413427,142.6312256678749,449.062811565304,141.8982413746812C442.70621468926555,141.16525708148745,436.349617813227,138.60920928983757,430.09554669325354,138.98509867096254C423.84147557328015,139.36098805208755,417.6899302093719,142.66881460598736,411.43585908939843,144.99932876896227C405.1817879694251,147.32984293193718,398.82519109338654,148.68304470398712,392.5711199734131,148.97435897435898C386.3170488534397,149.26567324473083,380.1655034895314,148.4951000134246,373.911432369558,145.94844945630285C367.65736124958454,143.4017988991811,361.3007643735461,139.0790710162438,354.9441674975075,137.81984158947512C348.58757062146896,136.5606121627064,342.2309737454304,138.3648811921063,335.97690262545694,146.05181903611222C329.72283150548355,153.73875688011813,323.5712861415753,167.30836353873005,317.3172150216019,165.64505302725198C311.06314390162845,163.98174251577393,304.7065470255899,147.08551483420595,298.45247590561644,135.18861592160022C292.19840478564305,123.2917170089945,286.0468594217348,116.39414686535103,279.7927883017614,99.18781044435492C273.53871718178794,81.98147402335881,267.1821203057494,54.46637132501005,261.1331006979063,56.467982279500596C255.08408109006314,58.469593233991134,249.34263875041543,89.98791784132099,243.29361914257228,111.01892871526381C237.24459953472913,132.04993958920662,230.88800265869057,142.59363672976238,224.53140578265206,144.49187810444354C218.1748089066135,146.3901194791247,211.81821203057493,139.64290508793127,205.5641409106015,136.2035172506377C199.3100697906281,132.76412941334408,193.15852442671985,132.63256812995033,186.9044533067464,132.5479930191972C180.650382186773,132.4634179084441,174.29378531073448,132.4258289703316,168.03971419076103,134.06094777822526C161.78564307078764,135.69606658611895,155.63409770687937,139.0038931400188,149.38002658690596,135.05705463820644C143.12595546693254,131.11021613639414,136.76935859089397,119.90871257886964,130.41276171485544,117.80373204456971C124.05616483881688,115.69875151026982,117.69956796277832,122.69029399919452,111.44549684280491,126.35521546516311C105.19142572283151,130.0201369311317,99.03988035892324,130.35843737414416,92.78580923894982,131.63646126996912C86.5317381189764,132.91448516579405,80.17514124293785,135.13223251443148,73.92107012296445,135.2543965632971C67.66699900299103,135.3765606121627,61.51545363908275,133.40314136125656,55.26138251910934,134.6529735534971C49.007311399135936,135.90280574573768,42.65071452309738,140.37588938112498,36.601694915254235,144.60464491878105C30.552675307411103,148.8334004564371,24.811232967763374,152.81782789636193,18.76221335992024,157.75137602362733C12.713193752077101,162.68492415089273,6.356596876038551,168.56759296549873,3.1782984380192754,171.50892737280174L0,174.4502617801047Z" fill="rgb(105, 191, 148)" title="immigration"></path><path class="layer" d="M0,174.4502617801047L3.1782984380192754,171.50892737280174C6.356596876038551,168.56759296549873,12.713193752077101,162.68492415089273,18.76221335992024,157.75137602362733C24.811232967763374,152.81782789636193,30.552675307411103,148.8334004564371,36.601694915254235,144.60464491878102C42.65071452309738,140.37588938112498,49.007311399135936,135.90280574573768,55.26138251910934,134.6529735534971C61.51545363908275,133.40314136125656,67.66699900299103,135.3765606121627,73.92107012296445,135.2543965632971C80.17514124293785,135.13223251443148,86.5317381189764,132.91448516579405,92.78580923894981,131.63646126996912C99.03988035892324,130.35843737414416,105.19142572283151,130.0201369311317,111.44549684280491,126.35521546516311C117.69956796277832,122.69029399919452,124.05616483881688,115.69875151026982,130.41276171485544,117.80373204456971C136.76935859089397,119.90871257886964,143.12595546693254,131.11021613639414,149.38002658690593,135.05705463820644C155.63409770687937,139.0038931400188,161.78564307078764,135.69606658611895,168.03971419076103,134.06094777822528C174.29378531073448,132.4258289703316,180.650382186773,132.4634179084441,186.90445330674643,132.5479930191972C193.15852442671985,132.63256812995033,199.3100697906281,132.76412941334408,205.5641409106015,136.20351725063767C211.81821203057493,139.64290508793127,218.1748089066135,146.3901194791247,224.531405782652,144.49187810444354C230.88800265869057,142.59363672976238,237.24459953472913,132.04993958920662,243.29361914257228,111.01892871526378C249.34263875041543,89.98791784132099,255.08408109006314,58.469593233991134,261.1331006979063,56.467982279500596C267.1821203057494,54.46637132501005,273.53871718178794,81.98147402335881,279.7927883017614,99.18781044435492C286.0468594217348,116.39414686535103,292.19840478564305,123.2917170089945,298.45247590561644,135.18861592160022C304.7065470255899,147.08551483420595,311.06314390162845,163.98174251577393,317.31721502160184,165.64505302725198C323.5712861415753,167.30836353873005,329.72283150548355,153.73875688011813,335.976902625457,146.05181903611222C342.2309737454304,138.3648811921063,348.58757062146896,136.5606121627064,354.9441674975075,137.81984158947512C361.3007643735461,139.0790710162438,367.65736124958454,143.4017988991811,373.911432369558,145.94844945630285C380.1655034895314,148.4951000134246,386.3170488534397,149.26567324473083,392.5711199734131,148.97435897435898C398.82519109338654,148.68304470398712,405.1817879694251,147.32984293193718,411.4358590893985,144.99932876896227C417.6899302093719,142.66881460598736,423.84147557328015,139.36098805208755,430.09554669325354,138.98509867096254C436.349617813227,138.60920928983757,442.70621468926555,141.16525708148745,449.062811565304,141.8982413746812C455.4194084413427,142.6312256678749,461.77600531738125,141.54114646261243,467.82502492522434,139.05087931265942C473.8740445330675,136.5606121627064,479.61548687271517,132.67015706806282,485.6645064805584,131.852597664116C491.71352608840147,131.03503826016913,498.07012296444003,133.29037454691903,504.3241940844134,136.35387300308767C510.5782652043869,139.4173714592563,516.7298105682952,143.2890320848436,522.9838816882685,142.75338971674051C529.237952808242,142.2177473486374,535.5945496842805,137.27480198684387,541.848620804254,137.82923882400323C548.1026919242273,138.38367566116256,554.2542372881356,144.43549469727478,560.508308408109,143.72130487313734C566.7623795280824,143.00711504899985,573.118976404121,135.5269163646127,579.4755732801596,129.65364478453483C585.8321701561981,123.78037320445696,592.1887670322367,119.51402872868842,598.4428381522101,120.51953282319774C604.6969092721835,121.52503691770708,610.8484546360918,127.80238958249429,613.9242273180458,130.9410659148879L617,134.0797422472815L617,134.7563431333065L613.9242273180458,131.89958383675662C610.8484546360918,129.04282454020677,604.6969092721835,123.32930594710702,598.4428381522101,124.46637132501007C592.1887670322367,125.60343670291316,585.8321701561981,133.59108605181905,579.4755732801596,139.22002953416566C573.118976404121,144.8489730165123,566.7623795280824,148.11921063229966,560.508308408109,147.3110484628809C554.2542372881356,146.5028862934622,548.1026919242273,141.61632433883742,541.848620804254,141.09947643979055C535.5945496842805,140.5826285407437,529.237952808242,144.43549469727478,522.9838816882685,144.59524768425294C516.7298105682952,144.75500067123104,510.5782652043869,141.22164048865622,504.3241940844135,138.36488119210634C498.07012296444003,135.50812189555646,491.71352608840147,133.32796348503157,485.66450648055826,134.01396160558465C479.61548687271517,134.69995972613773,473.8740445330675,138.25211437776883,467.82502492522434,140.5732313062156C461.77600531738125,142.89434823466237,455.4194084413427,143.98442743992481,449.062811565304,143.15747080144988C442.70621468926555,142.3305141629749,436.349617813227,139.58652168076253,430.09554669325354,139.9624110618875C423.84147557328015,140.33830044301249,417.6899302093719,143.83407168747485,411.43585908939843,146.25855819573096C405.1817879694251,148.68304470398712,398.82519109338654,150.03624647603706,392.5711199734131,150.34635521546517C386.3170488534397,150.65646395489327,380.1655034895314,149.92347966169953,373.911432369558,147.69633507853402C367.65736124958454,145.46919049536848,361.3007643735461,141.74788562223117,354.9441674975075,140.84575110753119C348.58757062146896,139.94361659283126,342.2309737454304,141.86065243656867,335.97690262545694,150.11142435226205C329.72283150548355,158.36219626795543,323.5712861415753,172.94670425560477,317.3172150216019,171.43374949657672C311.06314390162845,169.92079473754868,304.7065470255899,152.3103772318432,298.45247590561644,148.85219492549336C292.19840478564305,145.3940126191435,286.0468594217348,156.08806551214926,279.7927883017614,176.22633910592026C273.53871718178794,196.3646126996912,267.1821203057494,225.9471069942274,261.1331006979063,223.21251174654313C255.08408109006314,220.4779164988589,249.34263875041543,185.42623170895422,243.29361914257228,168.49241508927372C237.24459953472913,151.55859846959322,230.88800265869057,152.74265002013692,224.53140578265206,149.92347966169953C218.1748089066135,147.10430930326217,211.81821203057493,140.28191703584375,205.5641409106015,136.76735132232514C199.3100697906281,133.25278560880656,193.15852442671985,133.0460464491878,186.9044533067464,133.2057994361659C180.650382186773,133.36555242314404,174.29378531073448,133.891797556719,168.03971419076103,135.54571083366895C161.78564307078764,137.19962411061886,155.63409770687937,139.98120553094375,149.38002658690596,135.77124446234393C143.12595546693254,131.56128339374413,136.76935859089397,120.35977983621963,130.41276171485544,118.29238824003221C124.05616483881688,116.22499664384482,117.69956796277832,123.29171700899451,111.44549684280491,127.12578869646933C105.19142572283151,130.95986038394418,99.03988035892324,131.56128339374413,92.78580923894982,132.83930728956906C86.5317381189764,134.11733118539402,80.17514124293785,136.07195596724392,73.92107012296445,136.08135320177203C67.66699900299103,136.09075043630017,61.51545363908275,134.15492012350649,55.26138251910934,135.4235467848033C49.007311399135936,136.69217344610013,42.65071452309738,141.16525708148745,36.601694915254235,145.26245133574977C30.552675307411103,149.3596455900121,24.811232967763374,153.0809504631494,18.76221335992024,157.88293730702108C12.713193752077101,162.68492415089273,6.356596876038551,168.56759296549873,3.1782984380192754,171.50892737280174L0,174.4502617801047Z" fill="rgb(105, 191, 191)" title="guns"></path><path class="layer" d="M0,174.4502617801047L3.1782984380192754,171.50892737280174C6.356596876038551,168.56759296549873,12.713193752077101,162.68492415089273,18.76221335992024,157.88293730702108C24.811232967763374,153.0809504631494,30.552675307411103,149.3596455900121,36.601694915254235,145.26245133574977C42.65071452309738,141.16525708148745,49.007311399135936,136.69217344610013,55.26138251910934,135.4235467848033C61.51545363908275,134.15492012350649,67.66699900299103,136.09075043630017,73.92107012296445,136.08135320177203C80.17514124293785,136.07195596724392,86.5317381189764,134.11733118539402,92.78580923894981,132.83930728956906C99.03988035892324,131.56128339374413,105.19142572283151,130.95986038394418,111.44549684280491,127.12578869646933C117.69956796277832,123.29171700899451,124.05616483881688,116.22499664384482,130.41276171485544,118.29238824003221C136.76935859089397,120.35977983621963,143.12595546693254,131.56128339374413,149.38002658690593,135.77124446234393C155.63409770687937,139.98120553094375,161.78564307078764,137.19962411061886,168.03971419076103,135.54571083366895C174.29378531073448,133.891797556719,180.650382186773,133.36555242314404,186.90445330674643,133.2057994361659C193.15852442671985,133.0460464491878,199.3100697906281,133.25278560880656,205.5641409106015,136.76735132232514C211.81821203057493,140.28191703584375,218.1748089066135,147.10430930326217,224.531405782652,149.92347966169956C230.88800265869057,152.74265002013692,237.24459953472913,151.55859846959322,243.29361914257228,168.49241508927372C249.34263875041543,185.42623170895422,255.08408109006314,220.4779164988589,261.1331006979063,223.21251174654313C267.1821203057494,225.9471069942274,273.53871718178794,196.3646126996912,279.7927883017614,176.22633910592026C286.0468594217348,156.08806551214926,292.19840478564305,145.3940126191435,298.45247590561644,148.85219492549336C304.7065470255899,152.3103772318432,311.06314390162845,169.92079473754868,317.31721502160184,171.43374949657672C323.5712861415753,172.94670425560477,329.72283150548355,158.36219626795543,335.976902625457,150.11142435226205C342.2309737454304,141.86065243656867,348.58757062146896,139.94361659283126,354.9441674975075,140.84575110753119C361.3007643735461,141.74788562223117,367.65736124958454,145.46919049536848,373.911432369558,147.69633507853402C380.1655034895314,149.92347966169953,386.3170488534397,150.65646395489327,392.5711199734131,150.34635521546517C398.82519109338654,150.03624647603706,405.1817879694251,148.68304470398712,411.4358590893985,146.25855819573098C417.6899302093719,143.83407168747485,423.84147557328015,140.33830044301249,430.09554669325354,139.9624110618875C436.349617813227,139.58652168076253,442.70621468926555,142.3305141629749,449.062811565304,143.15747080144988C455.4194084413427,143.98442743992481,461.77600531738125,142.89434823466237,467.82502492522434,140.5732313062156C473.8740445330675,138.25211437776883,479.61548687271517,134.69995972613773,485.6645064805584,134.01396160558465C491.71352608840147,133.32796348503157,498.07012296444003,135.50812189555646,504.3241940844134,138.36488119210634C510.5782652043869,141.22164048865622,516.7298105682952,144.75500067123104,522.9838816882685,144.59524768425288C529.237952808242,144.43549469727478,535.5945496842805,140.5826285407437,541.848620804254,141.09947643979055C548.1026919242273,141.61632433883742,554.2542372881356,146.5028862934622,560.508308408109,147.31104846288093C566.7623795280824,148.11921063229966,573.118976404121,144.8489730165123,579.4755732801596,139.22002953416566C585.8321701561981,133.59108605181905,592.1887670322367,125.60343670291316,598.4428381522101,124.46637132501007C604.6969092721835,123.32930594710702,610.8484546360918,129.04282454020677,613.9242273180458,131.89958383675662L617,134.7563431333065L617,139.49254933548127L613.9242273180458,136.42905087931265C610.8484546360918,133.36555242314407,604.6969092721835,127.23855551080682,598.4428381522101,128.48838770304738C592.1887670322367,129.73821989528798,585.8321701561981,138.3648811921063,579.4755732801596,144.0877970197342C573.118976404121,149.81071284736205,566.7623795280824,152.62988320579942,560.508308408109,151.4270371861995C554.2542372881356,150.22419116659955,548.1026919242273,144.99932876896227,541.848620804254,144.7456034367029C535.5945496842805,144.49187810444354,529.237952808242,149.2092898375621,522.9838816882685,149.57578198415897C516.7298105682952,149.9422741307558,510.5782652043869,145.95784669083096,504.3241940844135,142.9131427037186C498.07012296444003,139.86843871660622,491.71352608840147,137.76345818230632,485.66450648055826,138.48704524097192C479.61548687271517,139.21063229963752,473.8740445330675,142.76278695126862,467.82502492522434,146.64384481138407C461.77600531738125,150.52490267149952,455.4194084413427,154.73486374009937,449.062811565304,153.47563431333066C442.70621468926555,152.21640488656195,436.349617813227,145.48798496442475,430.09554669325354,144.24755000671232C423.84147557328015,143.00711504899985,417.6899302093719,147.25466505571217,411.43585908939843,150.2805745737683C405.1817879694251,153.3064840918244,398.82519109338654,155.11075312122432,392.5711199734131,155.72157336555244C386.3170488534397,156.33239360988054,380.1655034895314,155.74976506913683,373.911432369558,154.0676600886025C367.65736124958454,152.3855551080682,361.3007643735461,149.60397368774332,354.9441674975075,148.38233319908713C348.58757062146896,147.16069271043094,342.2309737454304,147.49899315344342,335.97690262545694,155.09195865216807C329.72283150548355,162.68492415089273,323.5712861415753,177.53255470532955,317.3172150216019,176.03839441535774C311.06314390162845,174.54423412538594,304.7065470255899,156.7082829910055,298.45247590561644,153.66357900389312C292.19840478564305,150.61887501678078,286.0468594217348,162.3654181769365,279.7927883017614,182.72922539938247C273.53871718178794,203.09303262182843,267.1821203057494,232.07410390656466,261.1331006979063,228.98241374681166C255.08408109006314,225.89072358705866,249.34263875041543,190.72627198281648,243.29361914257228,174.92012350651092C237.24459953472913,159.11397503020538,230.88800265869057,162.66612968183648,224.53140578265206,159.50865888038663C218.1748089066135,156.35118807893676,211.81821203057493,146.48409182440597,205.5641409106015,142.38689757014365C199.3100697906281,138.28970331588133,193.15852442671985,139.9624110618875,186.9044533067464,142.18955564505305C180.650382186773,144.41670022821856,174.29378531073448,147.19828164854343,168.03971419076103,150.60008054772453C161.78564307078764,154.00187944690563,155.63409770687937,158.02389582494297,149.38002658690596,160.69271043093033C143.12595546693254,163.3615250369177,136.76935859089397,164.67713787085515,130.41276171485544,160.0349040139616C124.05616483881688,155.39267015706807,117.69956796277832,144.79258960934354,111.44549684280491,139.98120553094375C105.19142572283151,135.16982145254397,99.03988035892324,136.14713384346894,92.78580923894982,137.8950194657001C86.5317381189764,139.64290508793127,80.17514124293785,142.16136394146866,73.92107012296445,141.96402201637804C67.66699900299103,141.76668009128744,61.51545363908275,138.85353738756882,55.26138251910934,139.70868572962814C49.007311399135936,140.56383407168747,42.65071452309738,145.18727345952476,36.601694915254235,149.11531749228084C30.552675307411103,153.04336152503691,24.811232967763374,156.27601020271177,18.76221335992024,160.4953685058397C12.713193752077101,164.71472680896764,6.356596876038551,169.92079473754868,3.1782984380192754,172.5238287018392L0,175.12686266612968Z" fill="rgb(105, 148, 191)" title="race_confed"></path><path class="layer" d="M0,175.12686266612968L3.1782984380192754,172.5238287018392C6.356596876038551,169.92079473754868,12.713193752077101,164.71472680896764,18.76221335992024,160.4953685058397C24.811232967763374,156.27601020271177,30.552675307411103,153.04336152503691,36.601694915254235,149.11531749228084C42.65071452309738,145.18727345952476,49.007311399135936,140.56383407168747,55.26138251910934,139.70868572962814C61.51545363908275,138.85353738756882,67.66699900299103,141.76668009128744,73.92107012296445,141.96402201637804C80.17514124293785,142.16136394146866,86.5317381189764,139.64290508793127,92.78580923894981,137.8950194657001C99.03988035892324,136.14713384346894,105.19142572283151,135.16982145254397,111.44549684280491,139.98120553094375C117.69956796277832,144.79258960934354,124.05616483881688,155.39267015706807,130.41276171485544,160.0349040139616C136.76935859089397,164.67713787085515,143.12595546693254,163.3615250369177,149.38002658690593,160.69271043093033C155.63409770687937,158.02389582494297,161.78564307078764,154.00187944690563,168.03971419076103,150.60008054772453C174.29378531073448,147.19828164854343,180.650382186773,144.41670022821856,186.90445330674643,142.18955564505305C193.15852442671985,139.9624110618875,199.3100697906281,138.28970331588133,205.5641409106015,142.38689757014365C211.81821203057493,146.48409182440597,218.1748089066135,156.35118807893676,224.531405782652,159.50865888038663C230.88800265869057,162.66612968183648,237.24459953472913,159.11397503020538,243.29361914257228,174.92012350651092C249.34263875041543,190.72627198281648,255.08408109006314,225.89072358705866,261.1331006979063,228.98241374681166C267.1821203057494,232.07410390656466,273.53871718178794,203.09303262182843,279.7927883017614,182.72922539938247C286.0468594217348,162.3654181769365,292.19840478564305,150.61887501678078,298.45247590561644,153.66357900389312C304.7065470255899,156.7082829910055,311.06314390162845,174.54423412538594,317.31721502160184,176.03839441535774C323.5712861415753,177.53255470532955,329.72283150548355,162.68492415089273,335.976902625457,155.09195865216807C342.2309737454304,147.49899315344342,348.58757062146896,147.16069271043094,354.9441674975075,148.38233319908713C361.3007643735461,149.60397368774332,367.65736124958454,152.3855551080682,373.911432369558,154.0676600886025C380.1655034895314,155.74976506913683,386.3170488534397,156.33239360988054,392.5711199734131,155.72157336555244C398.82519109338654,155.11075312122432,405.1817879694251,153.3064840918244,411.4358590893985,150.2805745737683C417.6899302093719,147.25466505571217,423.84147557328015,143.00711504899985,430.09554669325354,144.24755000671232C436.349617813227,145.48798496442475,442.70621468926555,152.21640488656195,449.062811565304,153.47563431333066C455.4194084413427,154.73486374009937,461.77600531738125,150.52490267149952,467.82502492522434,146.64384481138407C473.8740445330675,142.76278695126862,479.61548687271517,139.21063229963752,485.6645064805584,138.48704524097192C491.71352608840147,137.76345818230632,498.07012296444003,139.86843871660622,504.3241940844134,142.9131427037186C510.5782652043869,145.95784669083096,516.7298105682952,149.9422741307558,522.9838816882685,149.57578198415894C529.237952808242,149.2092898375621,535.5945496842805,144.49187810444354,541.848620804254,144.7456034367029C548.1026919242273,144.99932876896227,554.2542372881356,150.22419116659955,560.508308408109,151.4270371861995C566.7623795280824,152.62988320579942,573.118976404121,149.81071284736205,579.4755732801596,144.0877970197342C585.8321701561981,138.3648811921063,592.1887670322367,129.73821989528798,598.4428381522101,128.48838770304738C604.6969092721835,127.23855551080682,610.8484546360918,133.36555242314407,613.9242273180458,136.42905087931265L617,139.49254933548127L617,146.03302456705597L613.9242273180458,142.85675929654985C610.8484546360918,139.68049402604376,604.6969092721835,133.32796348503155,598.4428381522101,134.3334675795409C592.1887670322367,135.3389716740502,585.8321701561981,143.70251040408107,579.4755732801596,149.3690428245402C573.118976404121,155.0355752449993,566.7623795280824,158.0051013558867,560.508308408109,157.0841723721305C554.2542372881356,156.16324338837427,548.1026919242273,151.3518593099745,541.848620804254,151.45522888978385C535.5945496842805,151.55859846959322,529.237952808242,156.57672170761177,522.9838816882685,156.56732447308363C516.7298105682952,156.55792723855552,510.5782652043869,151.52100953148076,504.3241940844135,147.98764934890588C498.07012296444003,144.45428916633105,491.71352608840147,142.42448650825614,485.66450648055826,142.82856759296547C479.61548687271517,143.23264867767486,473.8740445330675,146.07061350516847,467.82502492522434,149.68854879849644C461.77600531738125,153.3064840918244,455.4194084413427,157.7043898509867,449.062811565304,156.57672170761177C442.70621468926555,155.4490535642368,436.349617813227,148.79581151832463,430.09554669325354,147.36743187004967C423.84147557328015,145.93905222177474,417.6899302093719,149.73553497113707,411.43585908939843,153.88911263256816C405.1817879694251,158.0426902939992,398.82519109338654,162.553362867499,392.5711199734131,163.84078399785207C386.3170488534397,165.1282051282051,380.1655034895314,163.19237481541145,373.911432369558,160.75849107262718C367.65736124958454,158.32460732984293,361.3007643735461,155.39267015706807,354.9441674975075,153.75755134917438C348.58757062146896,152.12243254128072,342.2309737454304,151.78413209826823,335.97690262545694,159.13276949926163C329.72283150548355,166.48140690025505,323.5712861415753,181.5169821452544,317.3172150216019,179.98523291717012C311.06314390162845,178.4534836890858,304.7065470255899,160.35440998791785,298.45247590561644,157.0841723721305C292.19840478564305,153.81393475634312,286.0468594217348,165.37253322593634,279.7927883017614,185.69875151026983C273.53871718178794,206.0249697946033,267.1821203057494,235.11880789367697,261.1331006979063,232.70371861994897C255.08408109006314,230.28862934622097,249.34263875041543,196.36461269969126,243.29361914257228,180.27654718754195C237.24459953472913,164.18848167539267,230.88800265869057,165.93636729762383,224.53140578265206,162.00832326486776C218.1748089066135,158.08027923211168,211.81821203057493,148.47630554436836,205.5641409106015,144.69861726406228C199.3100697906281,140.9209289837562,193.15852442671985,142.96952611088736,186.9044533067464,145.25305410122164C180.650382186773,147.5365820915559,174.29378531073448,150.05504094509328,168.03971419076103,153.49442878238688C161.78564307078764,156.93381661968047,155.63409770687937,161.2941334407303,149.38002658690596,163.96294804671768C143.12595546693254,166.63176265270508,136.76935859089397,167.60907504363,130.41276171485544,162.5909518056115C124.05616483881688,157.57282856759298,117.69956796277832,146.55926970063095,111.44549684280491,141.7290911531749C105.19142572283151,136.8989126057189,99.03988035892324,138.25211437776883,92.78580923894982,140.41347831923747C86.5317381189764,142.5748422607061,80.17514124293785,145.5443683715935,73.92107012296445,145.3846153846154C67.66699900299103,145.22486239763728,61.51545363908275,141.93583031279366,55.26138251910934,142.56544502617803C49.007311399135936,143.19505973956237,42.65071452309738,147.74332125117465,36.601694915254235,151.25788696469326C30.552675307411103,154.77245267821186,24.811232967763374,157.25332259363674,18.76221335992024,161.0592025775272C12.713193752077101,164.86508256141767,6.356596876038551,169.99597261377366,3.1782984380192754,172.56141763995166L0,175.12686266612968Z" fill="rgb(105, 105, 191)" title="collective_bargaining"></path><path class="layer" d="M0,175.12686266612968L3.1782984380192754,172.56141763995166C6.356596876038551,169.99597261377366,12.713193752077101,164.86508256141767,18.76221335992024,161.0592025775272C24.811232967763374,157.25332259363674,30.552675307411103,154.77245267821186,36.601694915254235,151.25788696469326C42.65071452309738,147.74332125117465,49.007311399135936,143.19505973956237,55.26138251910934,142.565445026178C61.51545363908275,141.93583031279366,67.66699900299103,145.22486239763728,73.92107012296445,145.3846153846154C80.17514124293785,145.5443683715935,86.5317381189764,142.5748422607061,92.78580923894981,140.41347831923747C99.03988035892324,138.25211437776883,105.19142572283151,136.8989126057189,111.44549684280491,141.72909115317495C117.69956796277832,146.55926970063095,124.05616483881688,157.57282856759298,130.41276171485544,162.5909518056115C136.76935859089397,167.60907504363,143.12595546693254,166.63176265270508,149.38002658690593,163.96294804671768C155.63409770687937,161.2941334407303,161.78564307078764,156.93381661968047,168.03971419076103,153.49442878238688C174.29378531073448,150.05504094509328,180.650382186773,147.5365820915559,186.90445330674643,145.25305410122164C193.15852442671985,142.96952611088736,199.3100697906281,140.9209289837562,205.5641409106015,144.69861726406228C211.81821203057493,148.47630554436836,218.1748089066135,158.08027923211168,224.531405782652,162.00832326486776C230.88800265869057,165.93636729762383,237.24459953472913,164.18848167539267,243.29361914257228,180.27654718754195C249.34263875041543,196.36461269969126,255.08408109006314,230.28862934622097,261.1331006979063,232.70371861994897C267.1821203057494,235.11880789367697,273.53871718178794,206.0249697946033,279.7927883017614,185.69875151026983C286.0468594217348,165.37253322593634,292.19840478564305,153.81393475634312,298.45247590561644,157.0841723721305C304.7065470255899,160.35440998791785,311.06314390162845,178.4534836890858,317.31721502160184,179.98523291717007C323.5712861415753,181.5169821452544,329.72283150548355,166.48140690025505,335.976902625457,159.13276949926163C342.2309737454304,151.78413209826823,348.58757062146896,152.12243254128072,354.9441674975075,153.75755134917438C361.3007643735461,155.39267015706807,367.65736124958454,158.32460732984293,373.911432369558,160.7584910726272C380.1655034895314,163.19237481541145,386.3170488534397,165.1282051282051,392.5711199734131,163.84078399785207C398.82519109338654,162.553362867499,405.1817879694251,158.0426902939992,411.4358590893985,153.88911263256813C417.6899302093719,149.73553497113707,423.84147557328015,145.93905222177474,430.09554669325354,147.36743187004967C436.349617813227,148.79581151832463,442.70621468926555,155.4490535642368,449.062811565304,156.57672170761177C455.4194084413427,157.7043898509867,461.77600531738125,153.3064840918244,467.82502492522434,149.68854879849644C473.8740445330675,146.07061350516847,479.61548687271517,143.23264867767486,485.6645064805584,142.8285675929655C491.71352608840147,142.42448650825614,498.07012296444003,144.45428916633105,504.3241940844134,147.98764934890588C510.5782652043869,151.52100953148076,516.7298105682952,156.55792723855552,522.9838816882685,156.56732447308363C529.237952808242,156.57672170761177,535.5945496842805,151.55859846959322,541.848620804254,151.45522888978385C548.1026919242273,151.3518593099745,554.2542372881356,156.16324338837427,560.508308408109,157.08417237213047C566.7623795280824,158.0051013558867,573.118976404121,155.0355752449993,579.4755732801596,149.3690428245402C585.8321701561981,143.70251040408107,592.1887670322367,135.3389716740502,598.4428381522101,134.33346757954087C604.6969092721835,133.32796348503155,610.8484546360918,139.68049402604376,613.9242273180458,142.85675929654985L617,146.03302456705597L617,149.6415626258558L613.9242273180458,151.85930997449321C610.8484546360918,154.07705732313062,604.6969092721835,158.51255202040542,598.4428381522101,159.46167270774603C592.1887670322367,160.41079339508659,585.8321701561981,157.87354007249294,579.4755732801596,158.07088199758357C573.118976404121,158.2682239226742,566.7623795280824,161.20016109544903,560.508308408109,160.35440998791782C554.2542372881356,159.5086588803866,548.1026919242273,154.88521949254934,541.848620804254,155.27050610820245C535.5945496842805,155.65579272385557,529.237952808242,161.04980534299906,522.9838816882685,161.30353067525843C516.7298105682952,161.5572560075178,510.5782652043869,156.67069405289303,504.3241940844135,154.24620754463686C498.07012296444003,151.82172103638072,491.71352608840147,151.85930997449321,485.66450648055826,151.60558464223382C479.61548687271517,151.3518593099745,473.8740445330675,150.80681970734327,467.82502492522434,152.8084306618338C461.77600531738125,154.81004161632436,455.4194084413427,159.35830312793664,449.062811565304,158.34340179889918C442.70621468926555,157.32850046986172,436.349617813227,150.75043630017453,430.09554669325354,149.28446771378708C423.84147557328015,147.81849912739963,417.6899302093719,151.464626124312,411.43585908939843,155.61820378574305C405.1817879694251,159.7717814471741,398.82519109338654,164.43280977312392,392.5711199734131,166.28406497516445C386.3170488534397,168.135320177205,380.1655034895314,167.1768022553363,373.911432369558,164.83689085783328C367.65736124958454,162.49697946033027,361.3007643735461,158.77567458719292,354.9441674975075,156.83984427439924C348.58757062146896,154.90401396160559,342.2309737454304,154.7536582091556,335.97690262545694,162.12109007920526C329.72283150548355,169.48852194925493,323.5712861415753,184.37374144180424,317.3172150216019,182.78560880655118C311.06314390162845,181.19747617129815,304.7065470255899,163.13599140824272,298.45247590561644,159.9221371996241C292.19840478564305,156.70828299100552,286.0468594217348,168.34205933682372,279.7927883017614,188.68707209021343C273.53871718178794,209.03208484360314,267.1821203057494,238.08833400456433,261.1331006979063,235.84239495234257C255.08408109006314,233.5964559001208,249.34263875041543,200.04832863471606,243.29361914257228,183.69714055577927C237.24459953472913,167.3459524768425,230.88800265869057,168.19170358437373,224.53140578265206,163.90656463954892C218.1748089066135,159.62142569472414,211.81821203057493,150.2053966975433,205.5641409106015,146.59685863874347C199.3100697906281,142.98832057994363,193.15852442671985,145.1872734595248,186.9044533067464,147.77151295475903C180.650382186773,150.35575244999328,174.29378531073448,153.32527856088066,168.03971419076103,156.83984427439924C161.78564307078764,160.35440998791785,155.63409770687937,164.41401530406765,149.38002658690596,167.00765203383006C143.12595546693254,169.6012887635924,136.76935859089397,170.72895690696737,130.41276171485544,165.6544502617801C124.05616483881688,160.57994361659283,117.69956796277832,149.30326218284333,111.44549684280491,144.41670022821856C105.19142572283151,139.53013827359376,99.03988035892324,141.0336957980937,92.78580923894982,143.38300443012486C86.5317381189764,145.732313062156,80.17514124293785,148.92737280171835,73.92107012296445,150.02684924150893C67.66699900299103,151.1263256812995,61.51545363908275,150.1302188213183,55.26138251910934,151.09813397771515C49.007311399135936,152.06604913411195,42.65071452309738,154.99798630688682,36.601694915254235,157.57282856759295C30.552675307411103,160.14767082829908,24.811232967763374,162.36541817693652,18.76221335992024,165.3819304604645C12.713193752077101,168.3984427439925,6.356596876038551,172.2137199624111,3.1782984380192754,174.12135857162036L0,176.02899718082963Z" fill="rgb(148, 105, 191)" title="environment"></path><path class="layer" d="M0,176.02899718082963L3.1782984380192754,174.12135857162033C6.356596876038551,172.2137199624111,12.713193752077101,168.3984427439925,18.76221335992024,165.38193046046447C24.811232967763374,162.36541817693652,30.552675307411103,160.14767082829908,36.601694915254235,157.57282856759295C42.65071452309738,154.99798630688682,49.007311399135936,152.06604913411195,55.26138251910934,151.0981339777151C61.51545363908275,150.1302188213183,67.66699900299103,151.1263256812995,73.92107012296445,150.02684924150893C80.17514124293785,148.92737280171835,86.5317381189764,145.732313062156,92.78580923894981,143.38300443012483C99.03988035892324,141.0336957980937,105.19142572283151,139.53013827359376,111.44549684280491,144.41670022821856C117.69956796277832,149.30326218284333,124.05616483881688,160.57994361659283,130.41276171485544,165.6544502617801C136.76935859089397,170.72895690696737,143.12595546693254,169.6012887635924,149.38002658690593,167.00765203383006C155.63409770687937,164.41401530406765,161.78564307078764,160.35440998791785,168.03971419076103,156.83984427439927C174.29378531073448,153.32527856088066,180.650382186773,150.35575244999328,186.90445330674643,147.77151295475903C193.15852442671985,145.1872734595248,199.3100697906281,142.98832057994363,205.5641409106015,146.59685863874347C211.81821203057493,150.2053966975433,218.1748089066135,159.62142569472414,224.531405782652,163.90656463954892C230.88800265869057,168.19170358437373,237.24459953472913,167.3459524768425,243.29361914257228,183.69714055577927C249.34263875041543,200.04832863471606,255.08408109006314,233.5964559001208,261.1331006979063,235.84239495234257C267.1821203057494,238.08833400456433,273.53871718178794,209.03208484360314,279.7927883017614,188.68707209021343C286.0468594217348,168.34205933682372,292.19840478564305,156.70828299100552,298.45247590561644,159.9221371996241C304.7065470255899,163.13599140824272,311.06314390162845,181.19747617129815,317.31721502160184,182.78560880655118C323.5712861415753,184.37374144180424,329.72283150548355,169.48852194925493,335.976902625457,162.12109007920526C342.2309737454304,154.7536582091556,348.58757062146896,154.90401396160559,354.9441674975075,156.83984427439927C361.3007643735461,158.77567458719292,367.65736124958454,162.49697946033027,373.911432369558,164.83689085783328C380.1655034895314,167.1768022553363,386.3170488534397,168.135320177205,392.5711199734131,166.28406497516445C398.82519109338654,164.43280977312392,405.1817879694251,159.7717814471741,411.4358590893985,155.61820378574305C417.6899302093719,151.464626124312,423.84147557328015,147.81849912739963,430.09554669325354,149.28446771378708C436.349617813227,150.75043630017453,442.70621468926555,157.32850046986172,449.062811565304,158.34340179889918C455.4194084413427,159.35830312793664,461.77600531738125,154.81004161632436,467.82502492522434,152.8084306618338C473.8740445330675,150.80681970734327,479.61548687271517,151.3518593099745,485.6645064805584,151.60558464223382C491.71352608840147,151.85930997449321,498.07012296444003,151.82172103638072,504.3241940844134,154.24620754463686C510.5782652043869,156.67069405289303,516.7298105682952,161.5572560075178,522.9838816882685,161.30353067525843C529.237952808242,161.04980534299906,535.5945496842805,155.65579272385557,541.848620804254,155.27050610820245C548.1026919242273,154.88521949254934,554.2542372881356,159.5086588803866,560.508308408109,160.35440998791782C566.7623795280824,161.20016109544903,573.118976404121,158.2682239226742,579.4755732801596,158.07088199758357C585.8321701561981,157.87354007249294,592.1887670322367,160.41079339508659,598.4428381522101,159.46167270774603C604.6969092721835,158.51255202040542,610.8484546360918,154.07705732313062,613.9242273180458,151.85930997449321L617,149.6415626258558L617,151.78413209826823L613.9242273180458,153.6823734729494C610.8484546360918,155.58061484763056,604.6969092721835,159.37709759699288,598.4428381522101,160.17586253188347C592.1887670322367,160.97462746677405,585.8321701561981,158.7756745871929,579.4755732801596,159.08578332662103C573.118976404121,159.39589206604913,566.7623795280824,162.2150624244865,560.508308408109,161.33172237884278C554.2542372881356,160.44838233319908,548.1026919242273,155.8625318834743,541.848620804254,156.4357631896899C535.5945496842805,157.0089944959055,529.237952808242,162.7413075580615,522.9838816882685,162.9386494831521C516.7298105682952,163.13599140824272,510.5782652043869,157.79836219626796,504.3241940844135,155.2799033427306C498.07012296444003,152.7614444891932,491.71352608840147,153.06215599409316,485.66450648055826,152.93999194522755C479.61548687271517,152.81782789636193,473.8740445330675,152.2727882937307,467.82502492522434,154.1428379648275C461.77600531738125,156.01288763592427,455.4194084413427,160.2980265807491,449.062811565304,159.09518056114916C442.70621468926555,157.89233454154922,436.349617813227,151.2015035575245,430.09554669325354,149.73553497113707C423.84147557328015,148.26956638474962,417.6899302093719,152.02846019599946,411.43585908939843,156.23842126459928C405.1817879694251,160.44838233319908,398.82519109338654,165.1094106591489,392.5711199734131,167.16740502080816C386.3170488534397,169.22539938246746,380.1655034895314,168.6803597798362,373.911432369558,166.43442072761442C367.65736124958454,164.18848167539267,361.3007643735461,160.24164317358034,354.9441674975075,158.0426902939992C348.58757062146896,155.84373741441803,342.2309737454304,155.39267015706807,335.97690262545694,162.7413075580615C329.72283150548355,170.08994495905492,323.5712861415753,185.23828701839173,317.3172150216019,184.0448382333199C311.06314390162845,182.8513894482481,304.7065470255899,165.31614981876763,298.45247590561644,162.04591220298025C292.19840478564305,158.7756745871929,286.0468594217348,169.77043898509865,279.7927883017614,189.83353470264464C273.53871718178794,209.8966304201906,267.1821203057494,239.0280574573768,261.1331006979063,236.8760907504363C255.08408109006314,234.72412404349575,249.34263875041543,201.2887635924285,243.29361914257228,184.9187810444355C237.24459953472913,168.54879849644246,230.88800265869057,169.2441938515237,224.53140578265206,164.86508256141764C218.1748089066135,160.48597127131157,211.81821203057493,151.03235333601825,205.5641409106015,147.3862263391059C199.3100697906281,143.7400993421936,193.15852442671985,145.90146328366222,186.9044533067464,148.46690830984025C180.650382186773,151.03235333601825,174.29378531073448,154.00187944690563,168.03971419076103,157.77956772721168C161.78564307078764,161.5572560075178,155.63409770687937,166.14310645724257,149.38002658690596,168.9434823466237C143.12595546693254,171.74385823600483,136.76935859089397,172.75875956504228,130.41276171485544,169.43213854208616C124.05616483881688,166.10551751913007,117.69956796277832,158.43737414418044,111.44549684280491,154.4905356423681C105.19142572283151,150.5436971405558,99.03988035892324,150.31816351188078,92.78580923894982,152.0096657269432C86.5317381189764,153.70116794200564,80.17514124293785,157.3097060008055,73.92107012296445,157.41307558061484C67.66699900299103,157.51644516042424,61.51545363908275,154.11464626124314,55.26138251910934,155.08256141764C49.007311399135936,156.0504765740368,42.65071452309738,161.38810578601155,36.601694915254235,164.60195999463016C30.552675307411103,167.81581420324878,24.811232967763374,168.90589340851122,18.76221335992024,170.53161498187674C12.713193752077101,172.15733655524232,6.356596876038551,174.318700496711,3.1782984380192754,175.39938246744532L0,176.48006443817962Z" fill="rgb(191, 105, 191)" title="healthcare"></path><path class="layer" d="M0,176.48006443817962L3.1782984380192754,175.3993824674453C6.356596876038551,174.318700496711,12.713193752077101,172.15733655524232,18.76221335992024,170.53161498187674C24.811232967763374,168.90589340851122,30.552675307411103,167.81581420324878,36.601694915254235,164.60195999463016C42.65071452309738,161.38810578601155,49.007311399135936,156.0504765740368,55.26138251910934,155.08256141763994C61.51545363908275,154.11464626124314,67.66699900299103,157.51644516042424,73.92107012296445,157.41307558061487C80.17514124293785,157.3097060008055,86.5317381189764,153.70116794200564,92.78580923894981,152.0096657269432C99.03988035892324,150.31816351188078,105.19142572283151,150.5436971405558,111.44549684280491,154.4905356423681C117.69956796277832,158.43737414418044,124.05616483881688,166.10551751913007,130.41276171485544,169.43213854208616C136.76935859089397,172.75875956504228,143.12595546693254,171.74385823600483,149.38002658690593,168.9434823466237C155.63409770687937,166.14310645724257,161.78564307078764,161.5572560075178,168.03971419076103,157.77956772721168C174.29378531073448,154.00187944690563,180.650382186773,151.03235333601825,186.90445330674643,148.46690830984025C193.15852442671985,145.90146328366222,199.3100697906281,143.7400993421936,205.5641409106015,147.38622633910595C211.81821203057493,151.03235333601825,218.1748089066135,160.48597127131157,224.531405782652,164.86508256141764C230.88800265869057,169.2441938515237,237.24459953472913,168.54879849644246,243.29361914257228,184.9187810444355C249.34263875041543,201.2887635924285,255.08408109006314,234.72412404349575,261.1331006979063,236.87609075043625C267.1821203057494,239.0280574573768,273.53871718178794,209.8966304201906,279.7927883017614,189.83353470264464C286.0468594217348,169.77043898509865,292.19840478564305,158.7756745871929,298.45247590561644,162.04591220298025C304.7065470255899,165.31614981876763,311.06314390162845,182.8513894482481,317.31721502160184,184.0448382333199C323.5712861415753,185.23828701839173,329.72283150548355,170.08994495905492,335.976902625457,162.7413075580615C342.2309737454304,155.39267015706807,348.58757062146896,155.84373741441803,354.9441674975075,158.0426902939992C361.3007643735461,160.24164317358034,367.65736124958454,164.18848167539267,373.911432369558,166.43442072761445C380.1655034895314,168.6803597798362,386.3170488534397,169.22539938246746,392.5711199734131,167.16740502080816C398.82519109338654,165.1094106591489,405.1817879694251,160.44838233319908,411.4358590893985,156.23842126459928C417.6899302093719,152.02846019599946,423.84147557328015,148.26956638474962,430.09554669325354,149.73553497113707C436.349617813227,151.2015035575245,442.70621468926555,157.89233454154922,449.062811565304,159.09518056114914C455.4194084413427,160.2980265807491,461.77600531738125,156.01288763592427,467.82502492522434,154.1428379648275C473.8740445330675,152.2727882937307,479.61548687271517,152.81782789636193,485.6645064805584,152.93999194522755C491.71352608840147,153.06215599409316,498.07012296444003,152.7614444891932,504.3241940844134,155.2799033427306C510.5782652043869,157.79836219626796,516.7298105682952,163.13599140824272,522.9838816882685,162.9386494831521C529.237952808242,162.7413075580615,535.5945496842805,157.0089944959055,541.848620804254,156.43576318968988C548.1026919242273,155.8625318834743,554.2542372881356,160.44838233319908,560.508308408109,161.33172237884278C566.7623795280824,162.2150624244865,573.118976404121,159.39589206604913,579.4755732801596,159.08578332662103C585.8321701561981,158.7756745871929,592.1887670322367,160.97462746677405,598.4428381522101,160.17586253188347C604.6969092721835,159.37709759699288,610.8484546360918,155.58061484763056,613.9242273180458,153.6823734729494L617,151.78413209826823L617,169.26298832057995L613.9242273180458,170.74775137602364C610.8484546360918,172.2325144314673,604.6969092721835,175.2020405423547,598.4428381522101,175.23023224593908C592.1887670322367,175.25842394952346,585.8321701561981,172.3452812458048,579.4755732801596,172.4110618875017C573.118976404121,172.47684252919854,566.7623795280824,175.5215465163109,560.508308408109,175.38998523291716C554.2542372881356,175.2584239495234,548.1026919242273,171.9505973956236,541.848620804254,172.6929789233454C535.5945496842805,173.43536045106725,529.237952808242,178.2279500604108,522.9838816882685,178.27493623305142C516.7298105682952,178.32192240569202,510.5782652043869,173.62330514162977,504.3241940844135,171.21761310242985C498.07012296444003,168.81192106322996,491.71352608840147,168.69915424889248,485.66450648055826,168.01315612833938C479.61548687271517,167.32715800778627,473.8740445330675,166.06792858101758,467.82502492522434,167.2989663042019C461.77600531738125,168.5300040273862,455.4194084413427,172.25130890052355,449.062811565304,170.03356155188615C442.70621468926555,167.81581420324878,436.349617813227,159.65901463283663,430.09554669325354,158.06148476305543C423.84147557328015,156.46395489327426,417.6899302093719,161.42569472412404,411.43585908939843,167.1392133172238C405.1817879694251,172.85273191032354,398.82519109338654,179.31802926567323,392.5711199734131,180.92495636998254C386.3170488534397,182.53188347429185,380.1655034895314,179.28044032756074,373.911432369558,175.85044972479525C367.65736124958454,172.4204591220298,361.3007643735461,168.81192106322996,354.9441674975075,166.93247415760504C348.58757062146896,165.05302725198013,342.2309737454304,164.90267149953016,335.97690262545694,173.11585447711104C329.72283150548355,181.32903745469193,323.5712861415753,197.90575916230367,317.3172150216019,197.93395086588805C311.06314390162845,197.96214256947243,304.7065470255899,181.4418042690294,298.45247590561644,178.73540072492952C292.19840478564305,176.02899718082963,286.0468594217348,187.13652839307292,279.7927883017614,206.31628406497518C273.53871718178794,225.4960397368774,267.1821203057494,252.74801986843872,261.1331006979063,249.31802926567323C255.08408109006314,245.88803866290777,249.34263875041543,211.77607732581555,243.29361914257228,194.48516579406632C237.24459953472913,177.19425426231712,230.88800265869057,176.72439253591088,224.53140578265206,173.28500469861729C218.1748089066135,169.8456168613237,211.81821203057493,163.43670291314274,205.5641409106015,161.08739428111156C199.3100697906281,158.73808564908043,193.15852442671985,160.44838233319908,186.9044533067464,162.61914350919585C180.650382186773,164.78990468519262,174.29378531073448,167.42113035306753,168.03971419076103,170.65377903074238C161.78564307078764,173.88642770841724,155.63409770687937,177.72049939589206,149.38002658690596,180.5960531614982C143.12595546693254,183.47160692710432,136.76935859089397,185.38864277084176,130.41276171485544,182.40032219089812C124.05616483881688,179.4120016109545,117.69956796277832,171.51832460732984,111.44549684280491,168.22929252248625C105.19142572283151,164.94026043764265,99.03988035892324,166.25587327158007,92.78580923894982,167.34595247684254C86.5317381189764,168.43603168210498,80.17514124293785,169.30057725869244,73.92107012296445,171.41495502752048C67.66699900299103,173.5293327963485,61.51545363908275,176.8935427574171,55.26138251910934,178.74479795945766C49.007311399135936,180.5960531614982,42.65071452309738,180.93435360451068,36.601694915254235,181.27265404752316C30.552675307411103,181.61095449053565,24.811232967763374,181.94925493354813,18.76221335992024,181.22566787488253C12.713193752077101,180.50208081621693,6.356596876038551,178.71660625587324,3.1782984380192754,177.82386897570143L0,176.9311316955296Z" fill="rgb(191, 105, 148)" title="other"></path><g class="x axis" transform="translate(0,280)" fill="none" font-size="10" font-family="sans-serif" text-anchor="middle" style="stroke-width: 1px; font-size: 10px; font-family: Arial, Helvetica;"><path class="domain" stroke="#000" d="M0.5,6V0.5H617.5V6" style="shape-rendering: crispedges; fill: none; stroke: rgb(204, 204, 204);"></path><g class="tick" opacity="1" transform="translate(0.6281571950814224,0)"><line stroke="#000" y2="6" style="shape-rendering: crispedges; fill: none; stroke: rgb(204, 204, 204);"></line><text fill="#000" y="9" dy="0.71em">2017</text></g><g class="tick" opacity="1" transform="translate(55.966434031239615,0)"><line stroke="#000" y2="6" style="shape-rendering: crispedges; fill: none; stroke: rgb(204, 204, 204);"></line><text fill="#000" y="9" dy="0.71em">April</text></g><g class="tick" opacity="1" transform="translate(111.94549684280491,0)"><line stroke="#000" y2="6" style="shape-rendering: crispedges; fill: none; stroke: rgb(204, 204, 204);"></line><text fill="#000" y="9" dy="0.71em">July</text></g><g class="tick" opacity="1" transform="translate(168.53971419076103,0)"><line stroke="#000" y2="6" style="shape-rendering: crispedges; fill: none; stroke: rgb(204, 204, 204);"></line><text fill="#000" y="9" dy="0.71em">October</text></g><g class="tick" opacity="1" transform="translate(225.1595629777335,0)"><line stroke="#000" y2="6" style="shape-rendering: crispedges; fill: none; stroke: rgb(204, 204, 204);"></line><text fill="#000" y="9" dy="0.71em">2018</text></g><g class="tick" opacity="1" transform="translate(280.49783981389163,0)"><line stroke="#000" y2="6" style="shape-rendering: crispedges; fill: none; stroke: rgb(204, 204, 204);"></line><text fill="#000" y="9" dy="0.71em">April</text></g><g class="tick" opacity="1" transform="translate(336.476902625457,0)"><line stroke="#000" y2="6" style="shape-rendering: crispedges; fill: none; stroke: rgb(204, 204, 204);"></line><text fill="#000" y="9" dy="0.71em">July</text></g><g class="tick" opacity="1" transform="translate(393.0711199734131,0)"><line stroke="#000" y2="6" style="shape-rendering: crispedges; fill: none; stroke: rgb(204, 204, 204);"></line><text fill="#000" y="9" dy="0.71em">October</text></g><g class="tick" opacity="1" transform="translate(449.69096876038554,0)"><line stroke="#000" y2="6" style="shape-rendering: crispedges; fill: none; stroke: rgb(204, 204, 204);"></line><text fill="#000" y="9" dy="0.71em">2019</text></g><g class="tick" opacity="1" transform="translate(505.02924559654366,0)"><line stroke="#000" y2="6" style="shape-rendering: crispedges; fill: none; stroke: rgb(204, 204, 204);"></line><text fill="#000" y="9" dy="0.71em">April</text></g><g class="tick" opacity="1" transform="translate(561.008308408109,0)"><line stroke="#000" y2="6" style="shape-rendering: crispedges; fill: none; stroke: rgb(204, 204, 204);"></line><text fill="#000" y="9" dy="0.71em">July</text></g></g></g></svg>