<?xml version="1.0" encoding="utf-8"?>
<!-- Generator: Adobe Illustrator 23.1.1, SVG Export Plug-In . SVG Version: 6.00 Build 0)  -->
<svg version="1.1" id="Layer_1" xmlns="http://www.w3.org/2000/svg" xmlns:xlink="http://www.w3.org/1999/xlink" x="0px" y="0px"
	 viewBox="0 0 884.53 500" style="enable-background:new 0 0 884.53 500;" xml:space="preserve">
<style type="text/css">
	.st0{fill:#5E9A63;}
	.st1{fill:#224D4E;}
	.st2{fill:#50C7EC;}
	.st3{fill:#2E8EA4;}
	.st4{fill:#B8C3E3;}
	.st5{fill:#457ABD;}
	.st6{fill:#6C4098;}
	.st7{fill:#E486B7;}
	.st8{fill:#B31F71;}
	.st9{fill:#5B3C5E;}
	.st10{fill:#AF5DA3;}
	.st11{fill:#6F7488;}
	.st12{fill:none;stroke:#CCCCCC;}
	.st13{font-family:'ArialMT';}
	.st14{font-size:10px;}
	.st15{fill:#94CD93;}
	.st16{fill:none;}
	.st17{font-family:'Helvetica';}
	.st18{font-size:8px;}
	.st19{fill:none;stroke:#FFFFFF;stroke-miterlimit:10;}
	.st20{fill:none;stroke:#6F7488;stroke-miterlimit:10;}
	.st21{fill:none;stroke:#AF5DA3;stroke-miterlimit:10;}
	.st22{fill:none;stroke:#5B3C5E;stroke-miterlimit:10;}
	.st23{fill:none;stroke:#B31F71;stroke-miterlimit:10;}
	.st24{fill:none;stroke:#50C7EC;stroke-miterlimit:10;}
	.st25{fill:none;stroke:#224D4E;stroke-miterlimit:10;}
	.st26{fill:none;stroke:#E486B7;stroke-miterlimit:10;}
	.st27{fill:none;stroke:#2E8EA4;stroke-miterlimit:10;}
	.st28{fill:#42A3C2;}
	.st29{fill:#FFFFFF;}
	.st30{fill:#231F20;}
</style>
<g>
	<path class="st0" d="M211.3,162.52l3.18-1.87c3.18-1.87,9.53-5.62,15.58-7.14c6.05-1.52,11.79-0.81,17.84-0.1
		c6.05,0.71,12.41,1.42,18.66,5.3c6.25,3.88,12.41,10.94,18.66,15.38c6.25,4.44,12.61,6.25,18.86,8.54
		c6.25,2.29,12.41,5.05,18.66-1.85c6.25-6.9,12.61-23.46,18.97-29.73s12.71-2.25,18.97,3.79c6.25,6.03,12.41,14.08,18.66,20.86
		c6.25,6.78,12.61,12.3,18.86,16.86c6.25,4.55,12.41,8.14,18.66,3.21c6.25-4.93,12.61-18.37,18.97-25.59
		c6.36-7.22,12.71-8.2,18.76-44.47s11.79-107.83,17.84-115.03c6.05-7.2,12.41,49.97,18.66,90.21s12.41,63.54,18.66,57.86
		c6.25-5.68,12.61-40.33,18.86-40.28c6.25,0.06,12.41,34.83,18.66,52.06c6.25,17.23,12.61,16.91,18.97,12.97
		c6.36-3.94,12.71-11.51,18.97-18.71c6.25-7.2,12.41-14.02,18.66-10.65c6.25,3.37,12.61,16.93,18.86,28.92
		c6.25,11.99,12.41,22.39,18.66,19.04c6.25-3.35,12.61-20.46,18.97-25.12c6.36-4.65,12.71,3.15,18.76,5.74s11.79-0.06,17.84-1.5
		c6.05-1.44,12.41-1.68,18.66-6.72c6.25-5.05,12.41-14.9,18.66-14.81c6.25,0.1,12.61,10.15,18.86,11.71
		c6.25,1.56,12.41-5.38,18.66-5.66c6.25-0.28,12.61,6.11,18.97,6.25c6.36,0.14,12.71-5.97,18.97-5.91
		c6.25,0.06,12.41,6.29,15.48,9.4l3.08,3.11l0,0l-3.08-3.11c-3.08-3.11-9.23-9.34-15.48-9.4c-6.25-0.06-12.61,6.05-18.97,5.91
		c-6.36-0.14-12.71-6.53-18.97-6.25c-6.25,0.28-12.41,7.22-18.66,5.66c-6.25-1.56-12.61-11.61-18.86-11.71
		c-6.25-0.1-12.41,9.76-18.66,14.81c-6.25,5.05-12.61,5.28-18.66,6.72c-6.05,1.44-11.79,4.08-17.84,1.5s-12.41-10.39-18.76-5.74
		c-6.36,4.65-12.71,21.76-18.97,25.12c-6.25,3.35-12.41-7.06-18.66-14.08c-6.25-7.02-12.61-10.65-18.86-9.99s-12.41,5.58-18.66,8.63
		c-6.25,3.06-12.61,4.24-18.97,4.75c-6.36,0.51-12.71,0.35-18.97-17.66c-6.25-18.02-12.41-53.9-18.66-54.55
		s-12.61,33.93-18.86,39.57c-6.25,5.64-12.41-17.66-18.66-57.9s-12.61-97.41-18.66-90.21c-6.05,7.2-11.79,78.76-17.84,115.03
		s-12.41,37.26-18.76,44.47c-6.36,7.22-12.71,20.66-18.97,25.59c-6.25,4.93-12.41,1.34-18.66-3.21
		c-6.25-4.55-12.61-10.07-18.86-16.82c-6.25-6.74-12.41-14.71-18.66-20.74c-6.25-6.03-12.61-10.13-18.97-3.9
		s-12.71,22.79-18.97,29.69c-6.25,6.9-12.41,4.14-18.66,1.85c-6.25-2.29-12.61-4.1-18.86-8.5c-6.25-4.4-12.41-11.37-18.66-15.14
		c-6.25-3.77-12.61-4.32-18.66-5.03c-6.05-0.71-11.79-1.58-17.84-0.18c-6.05,1.4-12.41,5.07-15.58,6.9L211.3,162.52z"/>
	<path class="st1" d="M211.3,162.52l3.18-1.83c3.18-1.83,9.53-5.5,15.58-6.9c6.05-1.4,11.79-0.53,17.84,0.18
		c6.05,0.71,12.41,1.26,18.66,5.03c6.25,3.77,12.41,10.74,18.66,15.14c6.25,4.4,12.61,6.21,18.86,8.5
		c6.25,2.29,12.41,5.05,18.66-1.85c6.25-6.9,12.61-23.46,18.97-29.69s12.71-2.13,18.97,3.9c6.25,6.03,12.41,14,18.66,20.74
		c6.25,6.74,12.61,12.26,18.86,16.82c6.25,4.55,12.41,8.14,18.66,3.21c6.25-4.93,12.61-18.37,18.97-25.59
		c6.36-7.22,12.71-8.2,18.76-44.47s11.79-107.83,17.84-115.03c6.05-7.2,12.41,49.97,18.66,90.21s12.41,63.54,18.66,57.9
		c6.25-5.64,12.61-40.22,18.86-39.57s12.41,36.53,18.66,54.55c6.25,18.02,12.61,18.18,18.97,17.66c6.36-0.51,12.71-1.7,18.97-4.75
		c6.25-3.06,12.41-7.98,18.66-8.63s12.61,2.98,18.86,9.99c6.25,7.02,12.41,17.43,18.66,14.08c6.25-3.35,12.61-20.46,18.97-25.12
		c6.36-4.65,12.71,3.15,18.76,5.74s11.79-0.06,17.84-1.5c6.05-1.44,12.41-1.68,18.66-6.72c6.25-5.05,12.41-14.9,18.66-14.81
		c6.25,0.1,12.61,10.15,18.86,11.71c6.25,1.56,12.41-5.38,18.66-5.66c6.25-0.28,12.61,6.11,18.97,6.25
		c6.36,0.14,12.71-5.97,18.97-5.91c6.25,0.06,12.41,6.29,15.48,9.4l3.08,3.11v11.59l-3.08-4.53c-3.08-4.53-9.23-13.6-15.48-15.04
		c-6.25-1.44-12.61,4.75-18.97,4.57c-6.36-0.18-12.71-6.72-18.97-5.78c-6.25,0.95-12.41,9.38-18.66,18.43s-12.61,18.71-18.86,19.28
		c-6.25,0.57-12.41-7.94-18.66-12.56c-6.25-4.61-12.61-5.32-18.66-4.91c-6.05,0.41-11.79,1.95-17.84,5.76
		c-6.05,3.8-12.41,9.88-18.76,13.98c-6.36,4.1-12.71,6.23-18.97,2.72c-6.25-3.51-12.41-12.66-18.66-14.15s-12.61,4.65-18.86,8.46
		s-12.41,5.26-18.66,3.08c-6.25-2.19-12.61-8.02-18.97-11.41c-6.36-3.39-12.71-4.34-18.97-22.43c-6.25-18.1-12.41-53.35-18.66-53.8
		c-6.25-0.45-12.61,33.89-18.86,40.59c-6.25,6.7-12.41-14.23-18.66-53.17s-12.61-95.87-18.66-89.54
		c-6.05,6.33-11.79,75.92-17.84,122.56s-12.41,70.34-18.76,77.2c-6.36,6.86-12.71-3.11-18.97-9.9
		c-6.25-6.78-12.41-10.37-18.66-13.82c-6.25-3.45-12.61-6.76-18.86-13.15c-6.25-6.39-12.41-15.85-18.66-22.79
		c-6.25-6.94-12.61-11.36-18.97-5.24c-6.36,6.11-12.71,22.75-18.97,29.61c-6.25,6.86-12.41,3.94-18.66,1.54s-12.61-4.3-18.86-7.39
		c-6.25-3.1-12.41-7.39-18.66-7.45c-6.25-0.06-12.61,4.12-18.66,5.58c-6.05,1.46-11.79,0.2-17.84,14.57
		c-6.05,14.37-12.41,44.38-15.58,59.38l-3.18,15V162.52z"/>
	<path class="st2" d="M211.3,265.43l3.18-15c3.18-15,9.53-45.01,15.58-59.38c6.05-14.37,11.79-13.11,17.84-14.57
		c6.05-1.46,12.41-5.64,18.66-5.58c6.25,0.06,12.41,4.36,18.66,7.45c6.25,3.1,12.61,4.99,18.86,7.39s12.41,5.32,18.66-1.54
		c6.25-6.86,12.61-23.5,18.97-29.61c6.36-6.11,12.71-1.7,18.97,5.24c6.25,6.94,12.41,16.4,18.66,22.79
		c6.25,6.39,12.61,9.7,18.86,13.15c6.25,3.45,12.41,7.04,18.66,13.82c6.25,6.78,12.61,16.76,18.97,9.9
		c6.36-6.86,12.71-30.56,18.76-77.2s11.79-116.23,17.84-122.56c6.05-6.33,12.41,50.61,18.66,89.54s12.41,59.87,18.66,53.17
		c6.25-6.7,12.61-41.04,18.86-40.59c6.25,0.45,12.41,35.7,18.66,53.8c6.25,18.1,12.61,19.04,18.97,22.43
		c6.36,3.39,12.71,9.23,18.97,11.41c6.25,2.19,12.41,0.73,18.66-3.08s12.61-9.96,18.86-8.46s12.41,10.65,18.66,14.15
		c6.25,3.51,12.61,1.38,18.97-2.72c6.36-4.1,12.71-10.17,18.76-13.98c6.05-3.8,11.79-5.34,17.84-5.76
		c6.05-0.41,12.41,0.3,18.66,4.91c6.25,4.61,12.41,13.13,18.66,12.56c6.25-0.57,12.61-10.23,18.86-19.28s12.41-17.49,18.66-18.43
		c6.25-0.95,12.61,5.6,18.97,5.78c6.36,0.18,12.71-6.01,18.97-4.57c6.25,1.44,12.41,10.51,15.48,15.04l3.08,4.53v4.97l-3.08-4.46
		c-3.08-4.46-9.23-13.37-15.48-14.37c-6.25-1.01-12.61,5.89-18.97,5.84c-6.36-0.06-12.71-7.08-18.97-6.21
		c-6.25,0.87-12.41,9.62-18.66,18.71s-12.61,18.51-18.86,19.12s-12.41-7.59-18.66-12.01c-6.25-4.42-12.61-5.05-18.66-4.87
		s-11.79,1.16-17.84,4.69c-6.05,3.53-12.41,9.6-18.76,13.31c-6.36,3.71-12.71,5.05-18.97,1.14c-6.25-3.9-12.41-13.05-18.66-13.88
		s-12.61,6.66-18.86,11.41s-12.41,6.76-18.66,5.01c-6.25-1.75-12.61-7.27-18.97-10.74c-6.36-3.47-12.71-4.89-18.97-23.1
		c-6.25-18.22-12.41-53.23-18.66-54.04c-6.25-0.81-12.61,32.59-18.86,39.33c-6.25,6.74-12.41-13.17-18.66-51.83
		s-12.61-96.07-18.66-90.37c-6.05,5.7-11.79,74.5-17.84,120.39s-12.41,68.88-18.76,75.42c-6.36,6.54-12.71-3.35-18.97-9.03
		c-6.25-5.68-12.41-7.14-18.66-7.87c-6.25-0.73-12.61-0.73-18.86-5.26c-6.25-4.53-12.41-13.6-18.66-22.83
		c-6.25-9.23-12.61-18.61-18.97-15.34s-12.71,19.2-18.97,25.83c-6.25,6.62-12.41,3.94-18.66,1.81s-12.61-3.71-18.86-7
		c-6.25-3.29-12.41-8.3-18.66-8.79c-6.25-0.49-12.61,3.53-18.66,4.55c-6.05,1.03-11.79-0.95-17.84,12.83
		c-6.05,13.78-12.41,43.31-15.58,58.08L211.3,265.43z"/>
	<path class="st3" d="M211.3,265.43l3.18-14.77c3.18-14.77,9.53-44.3,15.58-58.08c6.05-13.78,11.79-11.81,17.84-12.83
		c6.05-1.03,12.41-5.05,18.66-4.55c6.25,0.49,12.41,5.5,18.66,8.79c6.25,3.29,12.61,4.87,18.86,7s12.41,4.81,18.66-1.81
		c6.25-6.62,12.61-22.55,18.97-25.83s12.71,6.11,18.97,15.34c6.25,9.23,12.41,18.29,18.66,22.83c6.25,4.53,12.61,4.53,18.86,5.26
		c6.25,0.73,12.41,2.19,18.66,7.87c6.25,5.68,12.61,15.57,18.97,9.03c6.36-6.54,12.71-29.53,18.76-75.42s11.79-114.69,17.84-120.39
		c6.05-5.7,12.41,51.71,18.66,90.37s12.41,58.57,18.66,51.83c6.25-6.74,12.61-40.14,18.86-39.33c6.25,0.81,12.41,35.82,18.66,54.04
		c6.25,18.22,12.61,19.63,18.97,23.1c6.36,3.47,12.71,8.99,18.97,10.74c6.25,1.75,12.41-0.26,18.66-5.01s12.61-12.24,18.86-11.41
		s12.41,9.98,18.66,13.88c6.25,3.9,12.61,2.56,18.97-1.14c6.36-3.71,12.71-9.78,18.76-13.31c6.05-3.53,11.79-4.51,17.84-4.69
		s12.41,0.45,18.66,4.87c6.25,4.42,12.41,12.62,18.66,12.01s12.61-10.03,18.86-19.12s12.41-17.84,18.66-18.71
		c6.25-0.87,12.61,6.15,18.97,6.21c6.36,0.06,12.71-6.84,18.97-5.84c6.25,1.01,12.41,9.92,15.48,14.37l3.08,4.46v5.68l-3.08-4.18
		c-3.08-4.18-9.23-12.54-15.48-14.1c-6.25-1.56-12.61,3.69-18.97,2.76c-6.36-0.93-12.71-8.02-18.97-6.29
		c-6.25,1.73-12.41,12.3-18.66,24.23s-12.61,25.21-18.86,27.36c-6.25,2.15-12.41-6.84-18.66-12.56c-6.25-5.72-12.61-8.16-18.66-9.68
		c-6.05-1.52-11.79-2.11-17.84,0.55s-12.41,8.58-18.76,11.85c-6.36,3.27-12.71,3.9-18.97-0.32c-6.25-4.22-12.41-13.29-18.66-13.48
		c-6.25-0.2-12.61,8.48-18.86,13.54s-12.41,6.53-18.66,4.3c-6.25-2.23-12.61-8.14-18.97-12.44c-6.36-4.3-12.71-6.98-18.97-25.51
		c-6.25-18.53-12.41-52.91-18.66-52.14c-6.25,0.77-12.61,36.69-18.86,47.49c-6.25,10.8-12.41-3.51-18.66-40.91
		s-12.61-97.88-18.66-93.72c-6.05,4.16-11.79,72.96-17.84,116.73s-12.41,62.49-18.76,66.44c-6.36,3.94-12.71-6.9-18.97-12.93
		c-6.25-6.03-12.41-7.25-18.66-7.31c-6.25-0.06-12.61,1.04-18.86-3.13c-6.25-4.18-12.41-13.64-18.66-23.62
		c-6.25-9.98-12.61-20.46-18.97-17.51s-12.71,19.36-18.97,26.3c-6.25,6.94-12.41,4.42-18.66,3.23s-12.61-1.03-18.86-3.92
		c-6.25-2.9-12.41-8.85-18.66-9.19c-6.25-0.34-12.61,4.95-18.66,5.42c-6.05,0.47-11.79-3.86-17.84,8.26
		c-6.05,12.12-12.41,40.71-15.58,55l-3.18,14.29V265.43z"/>
	<path class="st4" d="M211.3,265.67l3.18-14.29c3.18-14.29,9.53-42.88,15.58-55c6.05-12.12,11.79-7.79,17.84-8.26
		c6.05-0.47,12.41-5.76,18.66-5.42c6.25,0.34,12.41,6.29,18.66,9.19c6.25,2.9,12.61,2.74,18.86,3.92s12.41,3.71,18.66-3.23
		c6.25-6.94,12.61-23.34,18.97-26.3s12.71,7.53,18.97,17.51c6.25,9.98,12.41,19.44,18.66,23.62c6.25,4.18,12.61,3.08,18.86,3.13
		c6.25,0.06,12.41,1.28,18.66,7.31c6.25,6.03,12.61,16.88,18.97,12.93c6.36-3.94,12.71-22.67,18.76-66.44s11.79-112.57,17.84-116.73
		c6.05-4.16,12.41,56.32,18.66,93.72s12.41,51.71,18.66,40.91c6.25-10.8,12.61-46.72,18.86-47.49c6.25-0.77,12.41,33.61,18.66,52.14
		c6.25,18.53,12.61,21.21,18.97,25.51c6.36,4.3,12.71,10.21,18.97,12.44c6.25,2.23,12.41,0.77,18.66-4.3s12.61-13.74,18.86-13.54
		c6.25,0.2,12.41,9.27,18.66,13.48c6.25,4.22,12.61,3.59,18.97,0.32c6.36-3.27,12.71-9.19,18.76-11.85s11.79-2.07,17.84-0.55
		c6.05,1.52,12.41,3.96,18.66,9.68c6.25,5.72,12.41,14.71,18.66,12.56c6.25-2.15,12.61-15.44,18.86-27.36s12.41-22.49,18.66-24.23
		c6.25-1.73,12.61,5.36,18.97,6.29c6.36,0.93,12.71-4.32,18.97-2.76c6.25,1.56,12.41,9.92,15.48,14.1l3.08,4.18v20.58l-3.08-6.98
		c-3.08-6.98-9.23-20.94-15.48-24.39c-6.25-3.45-12.61,3.61-18.97,4.38c-6.36,0.77-12.71-4.75-18.97-2.46
		c-6.25,2.29-12.41,12.38-18.66,22.45c-6.25,10.07-12.61,20.13-18.86,21.8c-6.25,1.68-12.41-5.03-18.66-10.59
		c-6.25-5.56-12.61-9.98-18.66-12.72c-6.05-2.74-11.79-3.8-17.84,1.18c-6.05,4.99-12.41,16.03-18.76,18.98
		c-6.36,2.96-12.71-2.17-18.97-1.26s-12.41,7.85-18.66,12.58c-6.25,4.73-12.61,7.25-18.86,8.14c-6.25,0.89-12.41,0.14-18.66-5.72
		c-6.25-5.85-12.61-16.82-18.97-22.81s-12.71-7.02-18.97-25.98c-6.25-18.96-12.41-55.87-18.66-56.87s-12.61,33.89-18.86,44.06
		c-6.25,10.17-12.41-4.38-18.66-41.54s-12.61-96.93-18.66-92.62c-6.05,4.32-11.79,72.72-17.84,117s-12.41,64.42-18.76,68.17
		c-6.36,3.75-12.71-8.91-18.97-14.86c-6.25-5.95-12.41-5.2-18.66-4.67c-6.25,0.53-12.61,0.85-18.86-3.84
		c-6.25-4.69-12.41-14.39-18.66-23.46c-6.25-9.07-12.61-17.51-18.97-13.64S329,195.8,322.75,204.04
		c-6.25,8.24-12.41,8.56-18.66,7.02c-6.25-1.54-12.61-4.93-18.86-5.26c-6.25-0.34-12.41,2.39-18.66,7.37
		c-6.25,4.99-12.61,12.24-18.66,12.36c-6.05,0.12-11.79-6.9-17.84-0.06c-6.05,6.84-12.41,27.54-15.58,37.89l-3.18,10.35V265.67z"/>
	<path class="st5" d="M211.3,273.71l3.18-10.35c3.18-10.35,9.53-31.05,15.58-37.89c6.05-6.84,11.79,0.18,17.84,0.06
		c6.05-0.12,12.41-7.37,18.66-12.36c6.25-4.99,12.41-7.71,18.66-7.37c6.25,0.34,12.61,3.73,18.86,5.26
		c6.25,1.54,12.41,1.22,18.66-7.02c6.25-8.24,12.61-24.41,18.97-28.27s12.71,4.57,18.97,13.64c6.25,9.07,12.41,18.77,18.66,23.46
		c6.25,4.69,12.61,4.38,18.86,3.84c6.25-0.53,12.41-1.28,18.66,4.67c6.25,5.95,12.61,18.61,18.97,14.86
		c6.36-3.75,12.71-23.89,18.76-68.17s11.79-112.68,17.84-117c6.05-4.32,12.41,55.45,18.66,92.62s12.41,51.71,18.66,41.54
		c6.25-10.17,12.61-45.07,18.86-44.06s12.41,37.91,18.66,56.87c6.25,18.96,12.61,19.99,18.97,25.98s12.71,16.95,18.97,22.81
		c6.25,5.85,12.41,6.6,18.66,5.72c6.25-0.89,12.61-3.41,18.86-8.14c6.25-4.73,12.41-11.67,18.66-12.58s12.61,4.22,18.97,1.26
		c6.36-2.96,12.71-14,18.76-18.98c6.05-4.99,11.79-3.92,17.84-1.18c6.05,2.74,12.41,7.16,18.66,12.72
		c6.25,5.56,12.41,12.26,18.66,10.59c6.25-1.68,12.61-11.73,18.86-21.8c6.25-10.07,12.41-20.17,18.66-22.45
		c6.25-2.29,12.61,3.23,18.97,2.46c6.36-0.77,12.71-7.83,18.97-4.38c6.25,3.45,12.41,17.41,15.48,24.39l3.08,6.98v6.15l-3.08-6.58
		c-3.08-6.58-9.23-19.75-15.48-21.86c-6.25-2.11-12.61,6.84-18.97,19.16c-6.36,12.32-12.71,28.01-18.97,29.51
		c-6.25,1.5-12.41-11.2-18.66-12.36c-6.25-1.16-12.61,9.21-18.86,10.33s-12.41-7-18.66-13.43c-6.25-6.43-12.61-11.16-18.66-9.44
		c-6.05,1.72-11.79,9.88-17.84,15.1s-12.41,7.51-18.76,5.97c-6.36-1.54-12.71-6.9-18.97-6.11c-6.25,0.79-12.41,7.73-18.66,12.62
		c-6.25,4.89-12.61,7.73-18.86,8.34c-6.25,0.61-12.41-1.01-18.66-6.35c-6.25-5.34-12.61-14.41-18.97-17.05s-12.71,1.14-18.97,17.27
		c-6.25,16.13-12.41,44.59-18.66,41.1c-6.25-3.49-12.61-38.93-18.86-63.89c-6.25-24.96-12.41-39.43-18.66-75.52
		s-12.61-93.82-18.66-89.62c-6.05,4.2-11.79,70.32-17.84,114.44s-12.41,66.24-18.76,70.22c-6.36,3.98-12.71-10.17-18.97-17.39
		c-6.25-7.22-12.41-7.49-18.66-7.67c-6.25-0.18-12.61-0.26-18.86,3.17c-6.25,3.43-12.41,10.37-18.66,2.09
		c-6.25-8.28-12.61-31.78-18.97-36.19c-6.36-4.42-12.71,10.25-18.97,17.94c-6.25,7.69-12.41,8.4-18.66,11.08s-12.61,7.33-18.86,7.59
		c-6.25,0.26-12.41-3.88-18.66-1.26c-6.25,2.62-12.61,12.01-18.66,20.88c-6.05,8.87-11.79,17.23-17.84,27.58
		c-6.05,10.35-12.41,22.69-15.58,28.86l-3.18,6.17V273.71z"/>
	<path class="st6" d="M211.3,312.27l3.18-6.17c3.18-6.17,9.53-18.51,15.58-28.86c6.05-10.35,11.79-18.71,17.84-27.58
		c6.05-8.87,12.41-18.25,18.66-20.88c6.25-2.62,12.41,1.52,18.66,1.26c6.25-0.26,12.61-4.91,18.86-7.59s12.41-3.39,18.66-11.08
		c6.25-7.69,12.61-22.36,18.97-17.94c6.36,4.42,12.71,27.91,18.97,36.19c6.25,8.28,12.41,1.34,18.66-2.09
		c6.25-3.43,12.61-3.35,18.86-3.17c6.25,0.18,12.41,0.45,18.66,7.67c6.25,7.22,12.61,21.37,18.97,17.39
		c6.36-3.98,12.71-26.1,18.76-70.22s11.79-110.24,17.84-114.44c6.05-4.2,12.41,53.52,18.66,89.62s12.41,50.57,18.66,75.52
		c6.25,24.96,12.61,60.4,18.86,63.89c6.25,3.49,12.41-24.98,18.66-41.1c6.25-16.13,12.61-19.91,18.97-17.27s12.71,11.71,18.97,17.05
		c6.25,5.34,12.41,6.96,18.66,6.35c6.25-0.61,12.61-3.45,18.86-8.34c6.25-4.89,12.41-11.83,18.66-12.62
		c6.25-0.79,12.61,4.57,18.97,6.11c6.36,1.54,12.71-0.75,18.76-5.97s11.79-13.39,17.84-15.1c6.05-1.72,12.41,3.02,18.66,9.44
		c6.25,6.43,12.41,14.55,18.66,13.43s12.61-11.49,18.86-10.33c6.25,1.16,12.41,13.86,18.66,12.36c6.25-1.5,12.61-17.19,18.97-29.51
		c6.36-12.32,12.71-21.27,18.97-19.16c6.25,2.11,12.41,15.28,15.48,21.86l3.08,6.58V229l-3.08-5.99
		c-3.08-5.99-9.23-17.98-15.48-15.59c-6.25,2.39-12.61,19.14-18.97,30.95c-6.36,11.81-12.71,18.67-18.97,16.97
		c-6.25-1.7-12.41-11.95-18.66-13.03c-6.25-1.08-12.61,7-18.86,7.33c-6.25,0.34-12.41-7.08-18.66-13.07
		c-6.25-5.99-12.61-10.57-18.66-9.13c-6.05,1.44-11.79,8.89-17.84,13.76s-12.41,7.16-18.76,5.42c-6.36-1.73-12.71-7.49-18.97-6.7
		s-12.41,8.12-18.66,13.21c-6.25,5.09-12.61,7.92-18.86,8.58c-6.25,0.65-12.41-0.89-18.66-5.56c-6.25-4.67-12.61-12.48-18.97-14.37
		c-6.36-1.89-12.71,2.13-18.97,19.44c-6.25,17.31-12.41,47.9-18.66,44.73c-6.25-3.17-12.61-40.12-18.86-47.37
		c-6.25-7.25-12.41,15.18-18.66,57.43s-12.61,104.31-18.66,98.57c-6.05-5.74-11.79-79.27-17.84-114.79s-12.41-33.04-18.76-38.95
		c-6.36-5.91-12.71-20.23-18.97-27.6c-6.25-7.37-12.41-7.81-18.66-7.47c-6.25,0.34-12.61,1.44-18.86,4.91
		c-6.25,3.47-12.41,9.3-18.66,0.47c-6.25-8.83-12.61-32.33-18.97-36.67s-12.71,10.49-18.97,18.53c-6.25,8.04-12.41,9.3-18.66,11.99
		c-6.25,2.68-12.61,6.78-18.86,6.8c-6.25,0.02-12.41-4.04-18.66-1.38c-6.25,2.66-12.61,12.05-18.66,20.64
		c-6.05,8.6-11.79,16.4-17.84,26.48c-6.05,10.07-12.41,22.41-15.58,28.58L211.3,312.27z"/>
	<path class="st7" d="M211.3,312.27l3.18-6.17c3.18-6.17,9.53-18.51,15.58-28.58c6.05-10.07,11.79-17.88,17.84-26.48
		c6.05-8.6,12.41-17.98,18.66-20.64c6.25-2.66,12.41,1.4,18.66,1.38c6.25-0.02,12.61-4.12,18.86-6.8
		c6.25-2.68,12.41-3.94,18.66-11.99c6.25-8.04,12.61-22.87,18.97-18.53s12.71,27.84,18.97,36.67c6.25,8.83,12.41,3,18.66-0.47
		c6.25-3.47,12.61-4.57,18.86-4.91c6.25-0.34,12.41,0.1,18.66,7.47c6.25,7.37,12.61,21.69,18.97,27.6
		c6.36,5.91,12.71,3.43,18.76,38.95s11.79,109.06,17.84,114.79c6.05,5.74,12.41-56.32,18.66-98.57s12.41-64.68,18.66-57.43
		c6.25,7.25,12.61,44.2,18.86,47.37c6.25,3.17,12.41-27.42,18.66-44.73c6.25-17.31,12.61-21.33,18.97-19.44
		c6.36,1.89,12.71,9.7,18.97,14.37c6.25,4.67,12.41,6.21,18.66,5.56c6.25-0.65,12.61-3.49,18.86-8.58
		c6.25-5.09,12.41-12.42,18.66-13.21s12.61,4.97,18.97,6.7c6.36,1.73,12.71-0.55,18.76-5.42s11.79-12.32,17.84-13.76
		c6.05-1.44,12.41,3.13,18.66,9.13c6.25,5.99,12.41,13.41,18.66,13.07c6.25-0.34,12.61-8.42,18.86-7.33
		c6.25,1.08,12.41,11.34,18.66,13.03c6.25,1.7,12.61-5.17,18.97-16.97c6.36-11.81,12.71-28.57,18.97-30.95
		c6.25-2.39,12.41,9.6,15.48,15.59l3.08,5.99v9.94l-3.08-6.43c-3.08-6.43-9.23-19.28-15.48-16.66
		c-6.25,2.62-12.61,20.72-18.97,32.72c-6.36,12.01-12.71,17.92-18.97,15.4c-6.25-2.52-12.41-13.48-18.66-14.02
		c-6.25-0.53-12.61,9.36-18.86,10.13s-12.41-7.59-18.66-13.98c-6.25-6.39-12.61-10.8-18.66-9.29c-6.05,1.52-11.79,8.97-17.84,17.11
		c-6.05,8.14-12.41,16.97-18.76,14.33c-6.36-2.64-12.71-16.76-18.97-19.36c-6.25-2.6-12.41,6.31-18.66,12.66
		c-6.25,6.35-12.61,10.13-18.86,11.41s-12.41,0.06-18.66-3.47c-6.25-3.53-12.61-9.36-18.97-11.93c-6.36-2.56-12.71-1.85-18.97,14.08
		c-6.25,15.93-12.41,47.08-18.66,43.94c-6.25-3.13-12.61-40.55-18.86-46.94c-6.25-6.39-12.41,18.25-18.66,60.97
		c-6.25,42.72-12.61,103.52-18.66,97.03c-6.05-6.49-11.79-80.25-17.84-113.41s-12.41-25.71-18.76-32.33s-12.71-27.32-18.97-35.92
		c-6.25-8.6-12.41-5.09-18.66-0.41c-6.25,4.67-12.61,10.51-18.86,17.64c-6.25,7.14-12.41,15.57-18.66,21.17
		c-6.25,5.6-12.61,8.36-18.97-1.38c-6.36-9.74-12.71-31.98-18.97-42.07c-6.25-10.09-12.41-8.04-18.66-4.38s-12.61,8.95-18.86,8.54
		c-6.25-0.41-12.41-6.53-18.66-4.73c-6.25,1.79-12.61,11.49-18.66,19.73c-6.05,8.24-11.79,15.02-17.84,23.87
		c-6.05,8.85-12.41,19.77-15.58,25.23l-3.18,5.46V312.27z"/>
	<path class="st8" d="M211.3,313.69l3.18-5.46c3.18-5.46,9.53-16.38,15.58-25.23c6.05-8.85,11.79-15.63,17.84-23.87
		c6.05-8.24,12.41-17.94,18.66-19.73c6.25-1.79,12.41,4.32,18.66,4.73c6.25,0.41,12.61-4.87,18.86-8.54s12.41-5.72,18.66,4.38
		c6.25,10.09,12.61,32.33,18.97,42.07c6.36,9.74,12.71,6.98,18.97,1.38c6.25-5.6,12.41-14.04,18.66-21.17
		c6.25-7.14,12.61-12.97,18.86-17.64c6.25-4.67,12.41-8.18,18.66,0.41c6.25,8.6,12.61,29.29,18.97,35.92s12.71-0.83,18.76,32.33
		s11.79,106.93,17.84,113.41c6.05,6.49,12.41-54.31,18.66-97.03c6.25-42.72,12.41-67.36,18.66-60.97
		c6.25,6.39,12.61,43.8,18.86,46.94c6.25,3.13,12.41-28.01,18.66-43.94c6.25-15.93,12.61-16.64,18.97-14.08
		c6.36,2.56,12.71,8.4,18.97,11.93c6.25,3.53,12.41,4.75,18.66,3.47s12.61-5.07,18.86-11.41c6.25-6.35,12.41-15.26,18.66-12.66
		c6.25,2.6,12.61,16.72,18.97,19.36c6.36,2.64,12.71-6.19,18.76-14.33c6.05-8.14,11.79-15.59,17.84-17.11
		c6.05-1.52,12.41,2.9,18.66,9.29c6.25,6.39,12.41,14.75,18.66,13.98s12.61-10.67,18.86-10.13c6.25,0.53,12.41,11.49,18.66,14.02
		c6.25,2.52,12.61-3.39,18.97-15.4c6.36-12.01,12.71-30.1,18.97-32.72c6.25-2.62,12.41,10.23,15.48,16.66l3.08,6.43v13.72
		l-3.08-6.66c-3.08-6.66-9.23-19.99-15.48-17.88c-6.25,2.11-12.61,19.65-18.97,31.54c-6.36,11.89-12.71,18.12-18.97,16.18
		s-12.41-12.03-18.66-11.81c-6.25,0.22-12.61,10.74-18.86,10.72s-12.41-10.59-18.66-18c-6.25-7.41-12.61-11.67-18.66-10.82
		c-6.05,0.85-11.79,6.8-17.84,14.39s-12.41,16.82-18.76,14.45c-6.36-2.37-12.71-16.32-18.97-19.32s-12.41,4.97-18.66,13.68
		c-6.25,8.71-12.61,18.18-18.86,20.88s-12.41-1.36-18.66-6.47c-6.25-5.11-12.61-11.26-18.97-14.69
		c-6.36-3.43-12.71-4.14-18.97,11.28c-6.25,15.42-12.41,46.96-18.66,43.74s-12.61-41.18-18.86-48.04
		c-6.25-6.86-12.41,17.39-18.66,60.03s-12.61,103.67-18.66,98.61c-6.05-5.07-11.79-76.23-17.84-109.98s-12.41-30.08-18.76-38.32
		c-6.36-8.24-12.71-28.39-18.97-36.31c-6.25-7.92-12.41-3.63-18.66,1.16c-6.25,4.79-12.61,10.07-18.86,17.29
		c-6.25,7.22-12.41,16.36-18.66,21.96c-6.25,5.6-12.61,7.65-18.97-2.88c-6.36-10.53-12.71-33.63-18.97-43.76
		c-6.25-10.13-12.41-7.29-18.66-2.76c-6.25,4.53-12.61,10.76-18.86,10.43c-6.25-0.34-12.41-7.23-18.66-5.91
		c-6.25,1.32-12.61,10.86-18.66,18.24c-6.05,7.37-11.79,12.58-17.84,20.56c-6.05,7.98-12.41,18.75-15.58,24.13L211.3,313.69z"/>
	<path class="st9" d="M211.3,313.69l3.18-5.38c3.18-5.38,9.53-16.15,15.58-24.13c6.05-7.98,11.79-13.19,17.84-20.56
		c6.05-7.37,12.41-16.91,18.66-18.24c6.25-1.32,12.41,5.58,18.66,5.91c6.25,0.34,12.61-5.89,18.86-10.43
		c6.25-4.53,12.41-7.37,18.66,2.76c6.25,10.13,12.61,33.24,18.97,43.76c6.36,10.53,12.71,8.48,18.97,2.88
		c6.25-5.6,12.41-14.75,18.66-21.96c6.25-7.22,12.61-12.5,18.86-17.29c6.25-4.79,12.41-9.09,18.66-1.16
		c6.25,7.92,12.61,28.07,18.97,36.31c6.36,8.24,12.71,4.57,18.76,38.32s11.79,104.92,17.84,109.98
		c6.05,5.07,12.41-55.97,18.66-98.61s12.41-66.89,18.66-60.03c6.25,6.86,12.61,44.83,18.86,48.04s12.41-28.33,18.66-43.74
		c6.25-15.42,12.61-14.71,18.97-11.28c6.36,3.43,12.71,9.58,18.97,14.69c6.25,5.11,12.41,9.17,18.66,6.47s12.61-12.16,18.86-20.88
		c6.25-8.71,12.41-16.68,18.66-13.68s12.61,16.95,18.97,19.32c6.36,2.37,12.71-6.86,18.76-14.45s11.79-13.54,17.84-14.39
		c6.05-0.85,12.41,3.41,18.66,10.82c6.25,7.41,12.41,17.98,18.66,18s12.61-10.51,18.86-10.72c6.25-0.22,12.41,9.88,18.66,11.81
		s12.61-4.3,18.97-16.18c6.36-11.89,12.71-29.43,18.97-31.54c6.25-2.11,12.41,11.22,15.48,17.88l3.08,6.66v7.57l-3.08,4.65
		c-3.08,4.65-9.23,13.96-15.48,15.95c-6.25,1.99-12.61-3.33-18.97-2.92c-6.36,0.41-12.71,6.56-18.97,4.79s-12.41-11.47-18.66-10.67
		s-12.61,12.12-18.86,12.66c-6.25,0.53-12.41-9.72-18.66-14.81c-6.25-5.09-12.61-5.01-18.66-5.54c-6.05-0.53-11.79-1.68-17.84,2.52
		c-6.05,4.2-12.41,13.74-18.76,11.61c-6.36-2.13-12.71-15.93-18.97-19c-6.25-3.08-12.41,4.57-18.66,13.29
		c-6.25,8.71-12.61,18.49-18.86,22.38c-6.25,3.88-12.41,1.87-18.66-3.04c-6.25-4.91-12.61-12.72-18.97-16.78
		s-12.71-4.38-18.97,11.08c-6.25,15.46-12.41,46.68-18.66,43.35c-6.25-3.33-12.61-41.22-18.86-47.96
		c-6.25-6.74-12.41,17.66-18.66,60.34s-12.61,103.64-18.66,98.92c-6.05-4.71-11.79-75.09-17.84-109.39s-12.41-32.53-18.76-41.52
		s-12.71-28.74-18.97-36.31c-6.25-7.57-12.41-2.96-18.66,2.46c-6.25,5.42-12.61,11.65-18.86,19.02
		c-6.25,7.37-12.41,15.89-18.66,21.33c-6.25,5.44-12.61,7.81-18.97-2.84s-12.71-34.3-18.97-44.55c-6.25-10.25-12.41-7.1-18.66-2.17
		s-12.61,11.63-18.86,13.94c-6.25,2.31-12.41,0.22-18.66,2.25c-6.25,2.03-12.61,8.18-18.66,13.58c-6.05,5.4-11.79,10.05-17.84,16.38
		c-6.05,6.33-12.41,14.33-15.58,18.33l-3.18,4V313.69z"/>
	<path class="st10" d="M211.3,315.58l3.18-4c3.18-4,9.53-12.01,15.58-18.33c6.05-6.33,11.79-10.98,17.84-16.38
		c6.05-5.4,12.41-11.55,18.66-13.58c6.25-2.03,12.41,0.06,18.66-2.25c6.25-2.31,12.61-9.01,18.86-13.94s12.41-8.08,18.66,2.17
		c6.25,10.25,12.61,33.91,18.97,44.55s12.71,8.28,18.97,2.84c6.25-5.44,12.41-13.96,18.66-21.33c6.25-7.37,12.61-13.6,18.86-19.02
		c6.25-5.42,12.41-10.03,18.66-2.46c6.25,7.57,12.61,27.32,18.97,36.31s12.71,7.22,18.76,41.52s11.79,104.68,17.84,109.39
		c6.05,4.71,12.41-56.24,18.66-98.92s12.41-67.09,18.66-60.34c6.25,6.74,12.61,44.63,18.86,47.96c6.25,3.33,12.41-27.9,18.66-43.35
		c6.25-15.46,12.61-15.14,18.97-11.08s12.71,11.87,18.97,16.78c6.25,4.91,12.41,6.92,18.66,3.04c6.25-3.88,12.61-13.66,18.86-22.38
		c6.25-8.71,12.41-16.36,18.66-13.29c6.25,3.08,12.61,16.88,18.97,19c6.36,2.13,12.71-7.41,18.76-11.61
		c6.05-4.2,11.79-3.06,17.84-2.52c6.05,0.53,12.41,0.45,18.66,5.54c6.25,5.09,12.41,15.34,18.66,14.81
		c6.25-0.53,12.61-11.85,18.86-12.66s12.41,8.89,18.66,10.67s12.61-4.38,18.97-4.79c6.36-0.41,12.71,4.91,18.97,2.92
		c6.25-1.99,12.41-11.3,15.48-15.95l3.08-4.65v4.49l-3.08,3.98c-3.08,3.98-9.23,11.95-15.48,13.62c-6.25,1.68-12.61-2.94-18.97-2.29
		c-6.36,0.65-12.71,6.56-18.97,4.71c-6.25-1.85-12.41-11.47-18.66-10.27c-6.25,1.2-12.61,13.23-18.86,13.64
		c-6.25,0.41-12.41-10.78-18.66-16.07c-6.25-5.28-12.61-4.65-18.66-4.91c-6.05-0.26-11.79-1.4-17.84,2.52s-12.41,12.91-18.76,10.39
		c-6.36-2.52-12.71-16.56-18.97-19.63s-12.41,4.81-18.66,13.64c-6.25,8.83-12.61,18.61-18.86,22.93
		c-6.25,4.32-12.41,3.17-18.66-1.54c-6.25-4.71-12.61-12.99-18.97-17.6c-6.36-4.61-12.71-5.56-18.97,9.86
		c-6.25,15.42-12.41,47.19-18.66,44.69c-6.25-2.5-12.61-39.29-18.86-46.15c-6.25-6.86-12.41,16.2-18.66,58.29
		s-12.61,103.2-18.66,98.69c-6.05-4.51-11.79-74.66-17.84-109s-12.41-32.88-18.76-42.07c-6.36-9.19-12.71-29.02-18.97-36.67
		c-6.25-7.65-12.41-3.11-18.66,2.27c-6.25,5.38-12.61,11.61-18.86,19.54c-6.25,7.92-12.41,17.55-18.66,23.42
		c-6.25,5.87-12.61,8-18.97,1.03c-6.36-6.98-12.71-23.07-18.97-31.34c-6.25-8.28-12.41-8.75-18.66-5.2
		c-6.25,3.55-12.61,11.12-18.86,11.34c-6.25,0.22-12.41-6.92-18.66-4.89c-6.25,2.03-12.61,13.23-18.66,19.97
		c-6.05,6.74-11.79,9.03-17.84,12.44c-6.05,3.41-12.41,7.94-15.58,10.21l-3.18,2.27V315.58z"/>
	<path class="st11" d="M211.3,316.53l3.18-2.27c3.18-2.27,9.53-6.8,15.58-10.21c6.05-3.41,11.79-5.7,17.84-12.44
		c6.05-6.74,12.41-17.94,18.66-19.97c6.25-2.03,12.41,5.11,18.66,4.89c6.25-0.22,12.61-7.79,18.86-11.34
		c6.25-3.55,12.41-3.08,18.66,5.2c6.25,8.28,12.61,24.37,18.97,31.34c6.36,6.98,12.71,4.85,18.97-1.03
		c6.25-5.87,12.41-15.5,18.66-23.42c6.25-7.92,12.61-14.15,18.86-19.54c6.25-5.38,12.41-9.92,18.66-2.27
		c6.25,7.65,12.61,27.48,18.97,36.67c6.36,9.19,12.71,7.73,18.76,42.07s11.79,104.48,17.84,109c6.05,4.51,12.41-56.6,18.66-98.69
		s12.41-65.15,18.66-58.29c6.25,6.86,12.61,43.65,18.86,46.15c6.25,2.5,12.41-29.27,18.66-44.69c6.25-15.42,12.61-14.47,18.97-9.86
		c6.36,4.61,12.71,12.89,18.97,17.6c6.25,4.71,12.41,5.85,18.66,1.54c6.25-4.32,12.61-14.1,18.86-22.93
		c6.25-8.83,12.41-16.72,18.66-13.64s12.61,17.11,18.97,19.63c6.36,2.52,12.71-6.47,18.76-10.39s11.79-2.78,17.84-2.52
		c6.05,0.26,12.41-0.37,18.66,4.91c6.25,5.28,12.41,16.48,18.66,16.07c6.25-0.41,12.61-12.44,18.86-13.64
		c6.25-1.2,12.41,8.42,18.66,10.27c6.25,1.85,12.61-4.06,18.97-4.71c6.36-0.65,12.71,3.96,18.97,2.29
		c6.25-1.68,12.41-9.64,15.48-13.62l3.08-3.98v36.67l-3.08,3.11c-3.08,3.11-9.23,9.34-15.48,9.4c-6.25,0.06-12.61-6.05-18.97-5.91
		c-6.36,0.14-12.71,6.53-18.97,6.25c-6.25-0.28-12.41-7.22-18.66-5.66c-6.25,1.56-12.61,11.61-18.86,11.71
		c-6.25,0.1-12.41-9.76-18.66-14.81c-6.25-5.05-12.61-5.28-18.66-6.72c-6.05-1.44-11.79-4.08-17.84-1.5
		c-6.05,2.58-12.41,10.39-18.76,5.74c-6.36-4.65-12.71-21.76-18.97-25.12c-6.25-3.35-12.41,7.06-18.66,19.04
		c-6.25,11.99-12.61,25.55-18.86,28.92c-6.25,3.37-12.41-3.45-18.66-10.65c-6.25-7.2-12.61-14.77-18.97-18.71
		c-6.36-3.94-12.71-4.26-18.97,12.97c-6.25,17.23-12.41,52-18.66,52.06s-12.61-34.6-18.86-40.28c-6.25-5.68-12.41,17.62-18.66,57.86
		s-12.61,97.41-18.66,90.21c-6.05-7.2-11.79-78.76-17.84-115.03s-12.41-37.26-18.76-44.47c-6.36-7.22-12.71-20.66-18.97-25.59
		c-6.25-4.93-12.41-1.34-18.66,3.21c-6.25,4.55-12.61,10.07-18.86,16.86c-6.25,6.78-12.41,14.82-18.66,20.86
		c-6.25,6.03-12.61,10.05-18.97,3.79s-12.71-22.83-18.97-29.73c-6.25-6.9-12.41-4.14-18.66-1.85c-6.25,2.29-12.61,4.1-18.86,8.54
		c-6.25,4.44-12.41,11.49-18.66,15.38c-6.25,3.88-12.61,4.59-18.66,5.3c-6.05,0.71-11.79,1.42-17.84-0.1
		c-6.05-1.52-12.41-5.26-15.58-7.14l-3.18-1.87V316.53z"/>
	<g transform="translate(0,480)">
		<path class="st12" d="M211.8,6V0.5h617V6"/>
		<g transform="translate(0.6281571950814224,0)">
			<line class="st12" x1="211.3" y1="0" x2="211.3" y2="6"/>
			<text transform="matrix(1 0 0 1 200.1813 16.1)" class="st13 st14">2017</text>
		</g>
		<g transform="translate(55.966434031239615,0)">
			<line class="st12" x1="211.3" y1="0" x2="211.3" y2="6"/>
			<text transform="matrix(1 0 0 1 201.3019 16.1)" class="st13 st14">April</text>
		</g>
		<g transform="translate(111.94549684280491,0)">
			<line class="st12" x1="211.3" y1="0" x2="211.3" y2="6"/>
			<text transform="matrix(1 0 0 1 202.4127 16.1)" class="st13 st14">July</text>
		</g>
		<g transform="translate(168.53971419076103,0)">
			<line class="st12" x1="211.3" y1="0" x2="211.3" y2="6"/>
			<text transform="matrix(1 0 0 1 193.5187 16.1)" class="st13 st14">October</text>
		</g>
		<g transform="translate(225.1595629777335,0)">
			<line class="st12" x1="211.3" y1="0" x2="211.3" y2="6"/>
			<text transform="matrix(1 0 0 1 200.1813 16.1)" class="st13 st14">2018</text>
		</g>
		<g transform="translate(280.49783981389163,0)">
			<line class="st12" x1="211.3" y1="0" x2="211.3" y2="6"/>
			<text transform="matrix(1 0 0 1 201.3019 16.1)" class="st13 st14">April</text>
		</g>
		<g transform="translate(336.476902625457,0)">
			<line class="st12" x1="211.3" y1="0" x2="211.3" y2="6"/>
			<text transform="matrix(1 0 0 1 202.4127 16.1)" class="st13 st14">July</text>
		</g>
		<g transform="translate(393.0711199734131,0)">
			<line class="st12" x1="211.3" y1="0" x2="211.3" y2="6"/>
			<text transform="matrix(1 0 0 1 193.5187 16.1)" class="st13 st14">October</text>
		</g>
		<g transform="translate(449.69096876038554,0)">
			<line class="st12" x1="211.3" y1="0" x2="211.3" y2="6"/>
			<text transform="matrix(1 0 0 1 200.1813 16.1)" class="st13 st14">2019</text>
		</g>
		<g transform="translate(505.02924559654366,0)">
			<line class="st12" x1="211.3" y1="0" x2="211.3" y2="6"/>
			<text transform="matrix(1 0 0 1 201.3019 16.1)" class="st13 st14">April</text>
		</g>
		<g transform="translate(561.008308408109,0)">
			<line class="st12" x1="211.3" y1="0" x2="211.3" y2="6"/>
			<text transform="matrix(1 0 0 1 202.4127 16.1)" class="st13 st14">July</text>
		</g>
	</g>
</g>
<path class="st15" d="M357.07-240.78l3.1-0.91c3.1-0.91,9.29-2.72,15.19-3.46s11.49-0.42,17.39-0.18c5.9,0.24,12.09,0.41,18.19,2.8
	s12.09,7.01,18.19,10.81c6.1,3.8,12.29,6.77,18.39,8.62c6.1,1.85,12.09,2.58,18.19-2.84c6.1-5.42,12.29-16.98,18.49-21.51
	c6.2-4.53,12.39-2.01,18.49,2.05c6.1,4.07,12.09,9.69,18.19,14.42c6.1,4.73,12.29,8.57,18.39,11.62c6.1,3.05,12.09,5.32,18.19,1.82
	c6.1-3.5,12.29-12.77,18.49-17.7c6.2-4.93,12.39-5.53,18.29-30.3c5.9-24.78,11.49-73.74,17.39-78.61
	c5.9-4.86,12.09,34.37,18.19,61.88s12.09,43.29,18.19,39.8c6.1-3.49,12.29-26.24,18.39-26.22c6.1,0.01,12.09,22.79,18.19,34.1
	c6.1,11.31,12.29,11.15,18.49,8.48c6.2-2.66,12.39-7.82,18.49-12.4s12.09-8.58,18.19-6.08c6.1,2.5,12.29,11.5,18.39,19.29
	c6.1,7.8,12.09,14.39,18.19,12c6.1-2.39,12.29-13.77,18.49-16.73c6.2-2.96,12.39,2.5,18.29,4.3c5.9,1.8,11.49-0.07,17.39-1
	c5.9-0.93,12.09-0.93,18.19-4.46s12.09-10.58,18.19-10.13c6.1,0.45,12.29,8.39,18.39,9.61s12.09-4.3,18.19-4.92
	s12.29,3.65,15.39,5.78l3.1,2.13l0,0l-3.1-2.13c-3.1-2.13-9.29-6.4-15.39-5.78s-12.09,6.13-18.19,4.92s-12.29-9.16-18.39-9.61
	c-6.1-0.45-12.09,6.61-18.19,10.13s-12.29,3.53-18.19,4.46c-5.9,0.93-11.49,2.8-17.39,1c-5.9-1.8-12.09-7.26-18.29-4.3
	c-6.2,2.96-12.39,14.33-18.49,16.73c-6.1,2.39-12.09-4.2-18.19-8.59c-6.1-4.39-12.29-6.58-18.39-6.32
	c-6.1,0.26-12.09,2.96-18.19,4.7c-6.1,1.74-12.29,2.53-18.49,2.84c-6.2,0.31-12.39,0.15-18.49-11.7s-12.09-35.38-18.19-35.8
	s-12.29,22.28-18.39,25.74s-12.09-12.32-18.19-39.83s-12.29-66.74-18.19-61.88c-5.9,4.86-11.49,53.83-17.39,78.61
	c-5.9,24.78-12.09,25.37-18.29,30.3c-6.2,4.93-12.39,14.2-18.49,17.7c-6.1,3.5-12.09,1.23-18.19-1.82
	c-6.1-3.05-12.29-6.89-18.39-11.59c-6.1-4.7-12.09-10.27-18.19-14.33s-12.29-6.63-18.49-2.13c-6.2,4.5-12.39,16.06-18.49,21.48
	c-6.1,5.42-12.09,4.69-18.19,2.84c-6.1-1.85-12.29-4.82-18.39-8.59c-6.1-3.77-12.09-8.34-18.19-10.65
	c-6.1-2.31-12.29-2.36-18.19-2.61c-5.9-0.24-11.49-0.68-17.39-0.01s-12.09,2.42-15.19,3.3L357.07-240.78z"/>
<path class="st1" d="M357.07-240.78l3.1-0.88c3.1-0.88,9.29-2.63,15.19-3.3s11.49-0.23,17.39,0.01c5.9,0.24,12.09,0.3,18.19,2.61
	c6.1,2.31,12.09,6.88,18.19,10.65c6.1,3.77,12.29,6.74,18.39,8.59c6.1,1.85,12.09,2.58,18.19-2.84c6.1-5.42,12.29-16.98,18.49-21.48
	c6.2-4.5,12.39-1.93,18.49,2.13s12.09,9.63,18.19,14.33c6.1,4.7,12.29,8.54,18.39,11.59c6.1,3.05,12.09,5.32,18.19,1.82
	c6.1-3.5,12.29-12.77,18.49-17.7c6.2-4.93,12.39-5.53,18.29-30.3c5.9-24.78,11.49-73.74,17.39-78.61
	c5.9-4.86,12.09,34.37,18.19,61.88s12.09,43.29,18.19,39.83s12.29-26.16,18.39-25.74s12.09,23.95,18.19,35.8s12.29,12.01,18.49,11.7
	c6.2-0.31,12.39-1.09,18.49-2.84c6.1-1.74,12.09-4.45,18.19-4.7c6.1-0.26,12.29,1.93,18.39,6.32c6.1,4.39,12.09,10.98,18.19,8.59
	c6.1-2.39,12.29-13.77,18.49-16.73c6.2-2.96,12.39,2.5,18.29,4.3c5.9,1.8,11.49-0.07,17.39-1c5.9-0.93,12.09-0.93,18.19-4.46
	s12.09-10.58,18.19-10.13c6.1,0.45,12.29,8.39,18.39,9.61s12.09-4.3,18.19-4.92s12.29,3.65,15.39,5.78l3.1,2.13v5.19l-3.1-2.32
	c-3.1-2.32-9.29-6.97-15.39-6.4c-6.1,0.57-12.09,6.35-18.19,5.19c-6.1-1.16-12.29-9.27-18.39-9.69c-6.1-0.42-12.09,6.85-18.19,10.51
	s-12.29,3.72-18.19,4.49s-11.49,2.26-17.39,0.27c-5.9-1.99-12.09-7.44-18.29-4.76c-6.2,2.69-12.39,13.52-18.49,15.65
	c-6.1,2.12-12.09-4.47-18.19-8.4c-6.1-3.93-12.29-5.2-18.39-4.3c-6.1,0.91-12.09,3.99-18.19,6.03c-6.1,2.04-12.29,3.04-18.49,3.3
	c-6.2,0.26-12.39-0.23-18.49-12.16s-12.09-35.3-18.19-35.97c-6.1-0.66-12.29,21.39-18.39,24.87s-12.09-11.59-18.19-38.91
	c-6.1-27.32-12.29-66.88-18.19-62.45c-5.9,4.43-11.49,52.85-17.39,77.12c-5.9,24.27-12.09,24.37-18.29,29.09
	c-6.2,4.72-12.39,14.04-18.49,18.29s-12.09,3.45-18.19,2.26c-6.1-1.19-12.29-2.76-18.39-6.19c-6.1-3.43-12.09-8.73-18.19-14.36
	c-6.1-5.63-12.29-11.61-18.49-9.05c-6.2,2.55-12.39,13.63-18.49,18.89c-6.1,5.26-12.09,4.69-18.19,3.03s-12.29-4.42-18.39-8.32
	c-6.1-3.9-12.09-8.96-18.19-11.57s-12.29-2.77-18.19-3.31c-5.9-0.54-11.49-1.46-17.39-1.2c-5.9,0.26-12.09,1.69-15.19,2.4
	L357.07-240.78z"/>
<path class="st2" d="M357.07-240.78l3.1-0.72c3.1-0.72,9.29-2.15,15.19-2.4c5.9-0.26,11.49,0.66,17.39,1.2
	c5.9,0.54,12.09,0.7,18.19,3.31s12.09,7.66,18.19,11.57c6.1,3.9,12.29,6.66,18.39,8.32s12.09,2.23,18.19-3.03
	c6.1-5.26,12.29-16.33,18.49-18.89c6.2-2.55,12.39,3.42,18.49,9.05c6.1,5.63,12.09,10.93,18.19,14.36c6.1,3.43,12.29,5,18.39,6.19
	c6.1,1.19,12.09,2,18.19-2.26s12.29-13.58,18.49-18.29c6.2-4.72,12.39-4.82,18.29-29.09c5.9-24.27,11.49-72.69,17.39-77.12
	c5.9-4.43,12.09,35.13,18.19,62.45c6.1,27.32,12.09,42.4,18.19,38.91s12.29-25.54,18.39-24.87c6.1,0.66,12.09,24.04,18.19,35.97
	s12.29,12.42,18.49,12.16c6.2-0.26,12.39-1.26,18.49-3.3c6.1-2.04,12.09-5.12,18.19-6.03c6.1-0.91,12.29,0.36,18.39,4.3
	c6.1,3.93,12.09,10.52,18.19,8.4c6.1-2.12,12.29-12.96,18.49-15.65c6.2-2.69,12.39,2.77,18.29,4.76c5.9,1.99,11.49,0.5,17.39-0.27
	s12.09-0.82,18.19-4.49s12.09-10.93,18.19-10.51c6.1,0.42,12.29,8.53,18.39,9.69c6.1,1.16,12.09-4.62,18.19-5.19
	c6.1-0.57,12.29,4.08,15.39,6.4l3.1,2.32v1.62l-3.1-2.35c-3.1-2.35-9.29-7.05-15.39-5.89s-12.09,8.19-18.19,8.97
	s-12.29-4.67-18.39-4.04c-6.1,0.64-12.09,7.36-18.19,10.13c-6.1,2.77-12.29,1.58-18.19,1.19s-11.49,0.01-17.39-2.57
	c-5.9-2.58-12.09-8.15-18.29-5.76c-6.2,2.39-12.39,12.74-18.49,14.65c-6.1,1.91-12.09-4.63-18.19-8.13
	c-6.1-3.5-12.29-3.96-18.39-2.84c-6.1,1.12-12.09,3.82-18.19,5.54c-6.1,1.72-12.29,2.45-18.49,2.13
	c-6.2-0.31-12.39-1.66-18.49-13.81s-12.09-35.09-18.19-34.67s-12.29,24.2-18.39,30.47s-12.09-4.97-18.19-31.43
	s-12.29-68.12-18.19-64.74c-5.9,3.38-11.49,51.8-17.39,74.61c-5.9,22.81-12.09,20-18.29,22.93c-6.2,2.93-12.39,11.61-18.49,15.62
	c-6.1,4.01-12.09,3.36-18.19,2.61c-6.1-0.76-12.29-1.62-18.39-4.81c-6.1-3.19-12.09-8.7-18.19-14.82
	c-6.1-6.12-12.29-12.85-18.49-10.51c-6.2,2.34-12.39,13.74-18.49,19.21c-6.1,5.47-12.09,5.01-18.19,4s-12.29-2.58-18.39-6.21
	c-6.1-3.63-12.09-9.34-18.19-11.84c-6.1-2.5-12.29-1.8-18.19-2.74c-5.9-0.95-11.49-3.54-17.39-4.42s-12.09-0.04-15.19,0.38
	l-3.1,0.42V-240.78z"/>
<path class="st3" d="M357.07-240.62l3.1-0.42c3.1-0.42,9.29-1.26,15.19-0.38s11.49,3.47,17.39,4.42c5.9,0.95,12.09,0.24,18.19,2.74
	c6.1,2.5,12.09,8.2,18.19,11.84c6.1,3.63,12.29,5.2,18.39,6.21s12.09,1.47,18.19-4c6.1-5.47,12.29-16.87,18.49-19.21
	c6.2-2.34,12.39,4.39,18.49,10.51c6.1,6.12,12.09,11.63,18.19,14.82c6.1,3.19,12.29,4.05,18.39,4.81c6.1,0.76,12.09,1.41,18.19-2.61
	c6.1-4.01,12.29-12.69,18.49-15.62c6.2-2.93,12.39-0.12,18.29-22.93c5.9-22.81,11.49-71.23,17.39-74.61
	c5.9-3.38,12.09,38.29,18.19,64.74s12.09,37.69,18.19,31.43s12.29-30.05,18.39-30.47s12.09,22.52,18.19,34.67
	s12.29,13.5,18.49,13.81c6.2,0.31,12.39-0.42,18.49-2.13c6.1-1.72,12.09-4.42,18.19-5.54c6.1-1.12,12.29-0.66,18.39,2.84
	c6.1,3.5,12.09,10.04,18.19,8.13c6.1-1.91,12.29-12.25,18.49-14.65c6.2-2.39,12.39,3.18,18.29,5.76c5.9,2.58,11.49,2.18,17.39,2.57
	s12.09,1.58,18.19-1.19c6.1-2.77,12.09-9.5,18.19-10.13c6.1-0.63,12.29,4.82,18.39,4.04s12.09-7.81,18.19-8.97
	s12.29,3.54,15.39,5.89l3.1,2.35v6.32l-3.1-2.05c-3.1-2.05-9.29-6.16-15.39-4.62s-12.09,8.73-18.19,8.48s-12.29-7.92-18.39-7.61
	c-6.1,0.31-12.09,8.61-18.19,11.48c-6.1,2.88-12.29,0.34-18.19-0.89c-5.9-1.23-11.49-1.15-17.39-2.13
	c-5.9-0.99-12.09-3.04-18.29-0.86c-6.2,2.18-12.39,8.58-18.49,14c-6.1,5.42-12.09,9.85-18.19,9.73s-12.29-4.8-18.39-6.54
	c-6.1-1.74-12.09-0.55-18.19-1.32s-12.29-3.5-18.49-4.97c-6.2-1.47-12.39-1.69-18.49-14.13c-6.1-12.44-12.09-37.11-18.19-37.91
	s-12.29,22.28-18.39,28.12c-6.1,5.84-12.09-5.57-18.19-31.86s-12.29-67.47-18.19-63.99c-5.9,3.49-11.49,51.64-17.39,74.8
	c-5.9,23.16-12.09,21.32-18.29,24.12c-6.2,2.8-12.39,10.23-18.49,14.29c-6.1,4.07-12.09,4.77-18.19,4.42s-12.29-1.76-18.39-5.3
	s-12.09-9.21-18.19-14.71s-12.29-10.82-18.49-7.86c-6.2,2.96-12.39,14.2-18.49,20.56c-6.1,6.36-12.09,7.85-18.19,6.59
	c-6.1-1.26-12.29-5.26-18.39-7.16c-6.1-1.91-12.09-1.72-18.19-0.57s-12.29,3.26-18.19,2.09c-5.9-1.16-11.49-5.59-17.39-10.12
	s-12.09-9.15-15.19-11.46l-3.1-2.31V-240.62z"/>
<path class="st4" d="M357.07-235.27l3.1,2.31c3.1,2.31,9.29,6.93,15.19,11.46s11.49,8.96,17.39,10.12
	c5.9,1.16,12.09-0.95,18.19-2.09s12.09-1.34,18.19,0.57c6.1,1.9,12.29,5.9,18.39,7.16c6.1,1.26,12.09-0.23,18.19-6.59
	c6.1-6.36,12.29-17.6,18.49-20.56c6.2-2.96,12.39,2.36,18.49,7.86s12.09,11.17,18.19,14.71s12.29,4.94,18.39,5.3
	s12.09-0.35,18.19-4.42c6.1-4.07,12.29-11.5,18.49-14.29c6.2-2.8,12.39-0.96,18.29-24.12c5.9-23.16,11.49-71.31,17.39-74.8
	c5.9-3.49,12.09,37.69,18.19,63.99s12.09,37.69,18.19,31.86c6.1-5.84,12.29-28.91,18.39-28.12s12.09,25.47,18.19,37.91
	c6.1,12.44,12.29,12.66,18.49,14.13c6.2,1.47,12.39,4.2,18.49,4.97s12.09-0.42,18.19,1.32c6.1,1.74,12.29,6.42,18.39,6.54
	s12.09-4.31,18.19-9.73c6.1-5.42,12.29-11.82,18.49-14c6.2-2.18,12.39-0.12,18.29,0.86c5.9,0.99,11.49,0.91,17.39,2.13
	c5.9,1.23,12.09,3.77,18.19,0.89c6.1-2.88,12.09-11.17,18.19-11.48c6.1-0.31,12.29,7.36,18.39,7.61s12.09-6.94,18.19-8.48
	s12.29,2.57,15.39,4.62l3.1,2.05v9.73l-3.1,5.22c-3.1,5.22-9.29,15.65-15.39,16.65c-6.1,1-12.09-7.43-18.19-15.38
	c-6.1-7.94-12.29-15.4-18.39-15.47c-6.1-0.07-12.09,7.26-18.19,9.54c-6.1,2.28-12.29-0.47-18.19,1.35
	c-5.9,1.82-11.49,8.23-17.39,7.4c-5.9-0.82-12.09-8.88-18.29-9.78c-6.2-0.91-12.39,5.34-18.49,10.67
	c-6.1,5.34-12.09,9.77-18.19,9.75c-6.1-0.01-12.29-4.47-18.39-6.4c-6.1-1.93-12.09-1.34-18.19-1.76s-12.29-1.85-18.49-1.03
	c-6.2,0.82-12.39,3.9-18.49,15.48c-6.1,11.58-12.09,31.66-18.19,29.16c-6.1-2.5-12.29-27.58-18.39-45.79s-12.09-29.56-18.19-55.12
	s-12.29-65.34-18.19-61.93c-5.9,3.4-11.49,49.99-17.39,73.04c-5.9,23.05-12.09,22.56-18.29,25.52c-6.2,2.96-12.39,9.36-18.49,12.56
	s-12.09,3.2-18.19,2.36s-12.29-2.51-18.39-0.49c-6.1,2.03-12.09,7.76-18.19,2.8c-6.1-4.96-12.29-20.6-18.49-23.32
	c-6.2-2.72-12.39,7.5-18.49,13.48c-6.1,5.99-12.09,7.74-18.19,9.35c-6.1,1.61-12.29,3.07-18.39,1.57c-6.1-1.5-12.09-5.96-18.19-6.4
	c-6.1-0.45-12.29,3.12-18.19,7.93c-5.9,4.81-11.49,10.86-17.39,8.74s-12.09-12.42-15.19-17.56l-3.1-5.15V-235.27z"/>
<path class="st5" d="M357.07-208.84l3.1,5.15c3.1,5.15,9.29,15.44,15.19,17.56s11.49-3.93,17.39-8.74
	c5.9-4.81,12.09-8.38,18.19-7.93c6.1,0.45,12.09,4.9,18.19,6.4c6.1,1.5,12.29,0.04,18.39-1.57c6.1-1.61,12.09-3.36,18.19-9.35
	c6.1-5.99,12.29-16.2,18.49-13.48c6.2,2.72,12.39,18.36,18.49,23.32c6.1,4.96,12.09-0.77,18.19-2.8c6.1-2.03,12.29-0.35,18.39,0.49
	s12.09,0.84,18.19-2.36s12.29-9.61,18.49-12.56c6.2-2.96,12.39-2.47,18.29-25.52c5.9-23.05,11.49-69.63,17.39-73.04
	c5.9-3.4,12.09,36.37,18.19,61.93s12.09,36.91,18.19,55.12s12.29,43.29,18.39,45.79c6.1,2.5,12.09-17.58,18.19-29.16
	c6.1-11.58,12.29-14.66,18.49-15.48c6.2-0.82,12.39,0.61,18.49,1.03s12.09-0.18,18.19,1.76c6.1,1.93,12.29,6.39,18.39,6.4
	c6.1,0.01,12.09-4.42,18.19-9.75c6.1-5.34,12.29-11.58,18.49-10.67c6.2,0.91,12.39,8.96,18.29,9.78c5.9,0.82,11.49-5.58,17.39-7.4
	c5.9-1.82,12.09,0.93,18.19-1.35c6.1-2.28,12.09-9.61,18.19-9.54c6.1,0.07,12.29,7.53,18.39,15.47c6.1,7.94,12.09,16.37,18.19,15.38
	c6.1-1,12.29-11.43,15.39-16.65l3.1-5.22v19.29l-3.1,2.22c-3.1,2.22-9.29,6.65-15.39,5.49s-12.09-7.92-18.19-15.81
	c-6.1-7.89-12.29-16.92-18.39-17.52c-6.1-0.61-12.09,7.2-18.19,9.78c-6.1,2.58-12.29-0.07-18.19,1.57
	c-5.9,1.63-11.49,7.55-17.39,6.49c-5.9-1.07-12.09-9.12-18.29-10.16c-6.2-1.04-12.39,4.93-18.49,10.27
	c-6.1,5.34-12.09,10.04-18.19,10.16c-6.1,0.12-12.29-4.34-18.39-6.24s-12.09-1.26-18.19-1.22c-6.1,0.04-12.29-0.53-18.49,0.81
	c-6.2,1.34-12.39,4.58-18.49,16.97c-6.1,12.39-12.09,33.93-18.19,31.64s-12.29-28.39-18.39-34.49c-6.1-6.11-12.09,7.78-18.19,35.91
	s-12.29,70.5-18.19,67.12c-5.9-3.38-11.49-52.5-17.39-84.04c-5.9-31.53-12.09-45.48-18.29-49.3c-6.2-3.82-12.39,2.47-18.49,5.57
	c-6.1,3.09-12.09,2.99-18.19,2.5c-6.1-0.49-12.29-1.35-18.39,0.7c-6.1,2.05-12.09,7.03-18.19,1.69s-12.29-20.98-18.49-23.64
	c-6.2-2.66-12.39,7.66-18.49,13.89c-6.1,6.23-12.09,8.36-18.19,9.97c-6.1,1.61-12.29,2.69-18.39,1.03
	c-6.1-1.66-12.09-6.07-18.19-6.49s-12.29,3.15-18.19,7.77c-5.9,4.62-11.49,10.3-17.39,7.98s-12.09-12.61-15.19-17.75L357.07-208.84z
	"/>
<path class="st6" d="M357.07-208.84l3.1,5.15c3.1,5.15,9.29,15.44,15.19,17.75s11.49-3.36,17.39-7.98
	c5.9-4.62,12.09-8.19,18.19-7.77s12.09,4.82,18.19,6.49c6.1,1.66,12.29,0.58,18.39-1.03c6.1-1.61,12.09-3.74,18.19-9.97
	c6.1-6.23,12.29-16.55,18.49-13.89c6.2,2.66,12.39,18.31,18.49,23.64s12.09,0.36,18.19-1.69c6.1-2.05,12.29-1.19,18.39-0.7
	c6.1,0.49,12.09,0.59,18.19-2.5c6.1-3.09,12.29-9.39,18.49-5.57c6.2,3.82,12.39,17.77,18.29,49.3c5.9,31.53,11.49,80.66,17.39,84.04
	c5.9,3.38,12.09-38.99,18.19-67.12s12.09-42.02,18.19-35.91c6.1,6.11,12.29,32.21,18.39,34.49s12.09-19.25,18.19-31.64
	c6.1-12.39,12.29-15.63,18.49-16.97c6.2-1.34,12.39-0.77,18.49-0.81c6.1-0.04,12.09-0.69,18.19,1.22s12.29,6.36,18.39,6.24
	c6.1-0.12,12.09-4.82,18.19-10.16c6.1-5.34,12.29-11.31,18.49-10.27c6.2,1.04,12.39,9.09,18.29,10.16
	c5.9,1.07,11.49-4.85,17.39-6.49c5.9-1.63,12.09,1.01,18.19-1.57c6.1-2.58,12.09-10.39,18.19-9.78c6.1,0.61,12.29,9.63,18.39,17.52
	c6.1,7.89,12.09,14.65,18.19,15.81s12.29-3.27,15.39-5.49l3.1-2.22v2.11l-3.1,2.13c-3.1,2.13-9.29,6.4-15.39,5.67
	c-6.1-0.73-12.09-6.46-18.19-7.05s-12.29,3.95-18.39,3.82c-6.1-0.12-12.09-4.9-18.19-8.92s-12.29-7.26-18.19-6.3
	s-11.49,6.12-17.39,9.43c-5.9,3.31-12.09,4.77-18.29,3.35c-6.2-1.42-12.39-5.72-18.49-5.08c-6.1,0.63-12.09,6.2-18.19,10.11
	c-6.1,3.9-12.29,6.15-18.39,6.4s-12.09-1.47-18.19-5.03s-12.29-8.93-18.49-10.27c-6.2-1.34-12.39,1.36-18.49,13.7
	c-6.1,12.34-12.09,34.3-18.19,32.16c-6.1-2.15-12.29-28.41-18.39-33.79s-12.09,10.13-18.19,39.15s-12.29,71.55-18.19,67.58
	c-5.9-3.97-11.49-54.45-17.39-78.9c-5.9-24.45-12.09-22.89-18.29-26.95c-6.2-4.07-12.39-13.77-18.49-18.67
	c-6.1-4.9-12.09-5.01-18.19-4.74c-6.1,0.27-12.29,0.92-18.39,3.22c-6.1,2.3-12.09,6.24-18.19,0.28s-12.29-21.82-18.49-24.59
	c-6.2-2.77-12.39,7.55-18.49,13.75c-6.1,6.2-12.09,8.28-18.19,9.84c-6.1,1.55-12.29,2.58-18.39,1.81
	c-6.1-0.77-12.09-3.34-18.19-1.24s-12.29,8.85-18.19,14.96c-5.9,6.11-11.49,11.57-17.39,18.17c-5.9,6.61-12.09,14.36-15.19,18.24
	l-3.1,3.88V-208.84z"/>
<path class="st7" d="M357.07-138.32l3.1-3.88c3.1-3.88,9.29-11.63,15.19-18.24c5.9-6.61,11.49-12.07,17.39-18.17
	c5.9-6.11,12.09-12.86,18.19-14.96s12.09,0.47,18.19,1.24c6.1,0.77,12.29-0.26,18.39-1.81c6.1-1.55,12.09-3.63,18.19-9.84
	c6.1-6.2,12.29-16.52,18.49-13.75c6.2,2.77,12.39,18.63,18.49,24.59s12.09,2.01,18.19-0.28c6.1-2.3,12.29-2.95,18.39-3.22
	c6.1-0.27,12.09-0.16,18.19,4.74c6.1,4.9,12.29,14.61,18.49,18.67c6.2,4.07,12.39,2.5,18.29,26.95c5.9,24.45,11.49,74.93,17.39,78.9
	c5.9,3.97,12.09-38.56,18.19-67.58s12.09-44.53,18.19-39.15s12.29,31.64,18.39,33.79c6.1,2.15,12.09-19.82,18.19-32.16
	c6.1-12.34,12.29-15.04,18.49-13.7c6.2,1.34,12.39,6.71,18.49,10.27s12.09,5.28,18.19,5.03s12.29-2.5,18.39-6.4
	c6.1-3.9,12.09-9.47,18.19-10.11c6.1-0.64,12.29,3.66,18.49,5.08c6.2,1.42,12.39-0.04,18.29-3.35c5.9-3.31,11.49-8.47,17.39-9.43
	s12.09,2.28,18.19,6.3s12.09,8.8,18.19,8.92c6.1,0.12,12.29-4.42,18.39-3.82s12.09,6.32,18.19,7.05c6.1,0.73,12.29-3.54,15.39-5.67
	l3.1-2.13v7.78l-3.1,1.81c-3.1,1.81-9.29,5.43-15.39,4.13s-12.09-7.51-18.19-7.76c-6.1-0.24-12.29,5.49-18.39,5.66
	c-6.1,0.18-12.09-5.2-18.19-9.48c-6.1-4.28-12.29-7.47-18.19-6.46s-11.49,6.23-17.39,11.81c-5.9,5.58-12.09,11.52-18.29,9.48
	c-6.2-2.04-12.39-12.07-18.49-13.75c-6.1-1.69-12.09,4.96-18.19,9.73s-12.29,7.66-18.39,8.35s-12.09-0.82-18.19-3.62
	c-6.1-2.8-12.29-6.88-18.49-8.67c-6.2-1.8-12.39-1.31-18.49,10.11s-12.09,33.76-18.19,31.64c-6.1-2.12-12.29-28.71-18.39-33.49
	c-6.1-4.78-12.09,12.24-18.19,41.59c-6.1,29.35-12.29,71.01-18.19,66.53c-5.9-4.49-11.49-55.12-17.39-77.96
	c-5.9-22.83-12.09-17.86-18.29-22.41c-6.2-4.55-12.39-18.63-18.49-24.37s-12.09-3.15-18.19,0.09s-12.29,7.13-18.39,11.94
	c-6.1,4.81-12.09,10.54-18.19,14.47c-6.1,3.93-12.29,6.07-18.49-0.41c-6.2-6.47-12.39-21.55-18.49-27.78
	c-6.1-6.23-12.09-3.61-18.19-1.38c-6.1,2.23-12.29,4.07-18.39,3c-6.1-1.07-12.09-5.04-18.19-3.54c-6.1,1.5-12.29,8.47-18.19,14.33
	c-5.9,5.86-11.49,10.62-17.39,16.39s-12.09,12.55-15.19,15.94l-3.1,3.39V-138.32z"/>
<path class="st8" d="M357.07-137.34l3.1-3.39c3.1-3.39,9.29-10.17,15.19-15.94s11.49-10.52,17.39-16.39
	c5.9-5.86,12.09-12.84,18.19-14.33c6.1-1.5,12.09,2.47,18.19,3.54c6.1,1.07,12.29-0.77,18.39-3c6.1-2.23,12.09-4.85,18.19,1.38
	c6.1,6.23,12.29,21.31,18.49,27.78c6.2,6.47,12.39,4.34,18.49,0.41c6.1-3.93,12.09-9.66,18.19-14.47c6.1-4.81,12.29-8.7,18.39-11.94
	s12.09-5.84,18.19-0.09s12.29,19.82,18.49,24.37c6.2,4.55,12.39-0.42,18.29,22.41c5.9,22.83,11.49,73.47,17.39,77.96
	c5.9,4.49,12.09-37.18,18.19-66.53c6.1-29.35,12.09-46.37,18.19-41.59c6.1,4.78,12.29,31.37,18.39,33.49
	c6.1,2.12,12.09-20.23,18.19-31.64s12.29-11.9,18.49-10.11c6.2,1.8,12.39,5.88,18.49,8.67c6.1,2.8,12.09,4.31,18.19,3.62
	s12.29-3.58,18.39-8.35s12.09-11.42,18.19-9.73c6.1,1.69,12.29,11.71,18.49,13.75c6.2,2.04,12.39-3.9,18.29-9.48
	c5.9-5.58,11.49-10.8,17.39-11.81s12.09,2.18,18.19,6.46c6.1,4.28,12.09,9.66,18.19,9.48c6.1-0.18,12.29-5.9,18.39-5.66
	c6.1,0.24,12.09,6.46,18.19,7.76s12.29-2.32,15.39-4.13l3.1-1.81v7.3l-3.1,1.92c-3.1,1.92-9.29,5.76-15.39,4.86
	c-6.1-0.89-12.09-6.51-18.19-6.24s-12.29,6.43-18.39,6.07c-6.1-0.36-12.09-7.26-18.19-12.24s-12.29-8.07-18.19-7.51
	s-11.49,4.74-17.39,9.94c-5.9,5.2-12.09,11.42-18.29,9.57c-6.2-1.85-12.39-11.77-18.49-13.73c-6.1-1.96-12.09,4.04-18.19,10.43
	c-6.1,6.39-12.29,13.17-18.39,14.83c-6.1,1.66-12.09-1.8-18.19-5.67c-6.1-3.88-12.29-8.17-18.49-10.57
	c-6.2-2.39-12.39-2.88-18.49,8.19s-12.09,33.68-18.19,31.51c-6.1-2.18-12.29-29.14-18.39-34.25c-6.1-5.11-12.09,11.65-18.19,40.94
	s-12.29,71.12-18.19,67.61c-5.9-3.51-11.49-52.37-17.39-75.61c-5.9-23.24-12.09-20.86-18.29-26.52
	c-6.2-5.66-12.39-19.36-18.49-24.64c-6.1-5.28-12.09-2.15-18.19,1.18s-12.29,6.84-18.39,11.7s-12.09,11.08-18.19,15.01
	c-6.1,3.93-12.29,5.58-18.49-1.43c-6.2-7.01-12.39-22.68-18.49-28.94c-6.1-6.26-12.09-3.09-18.19-0.27
	c-6.1,2.82-12.29,5.31-18.39,4.3c-6.1-1.01-12.09-5.53-18.19-4.35s-12.29,8.04-18.19,13.31c-5.9,5.27-11.49,8.94-17.39,14.12
	c-5.9,5.17-12.09,11.85-15.19,15.19L357.07-137.34z"/>
<path class="st9" d="M357.07-137.34l3.1-3.34c3.1-3.34,9.29-10.01,15.19-15.19c5.9-5.17,11.49-8.85,17.39-14.12
	c5.9-5.27,12.09-12.13,18.19-13.31s12.09,3.34,18.19,4.35c6.1,1.01,12.29-1.47,18.39-4.3c6.1-2.82,12.09-5.99,18.19,0.27
	c6.1,6.26,12.29,21.93,18.49,28.94c6.2,7.01,12.39,5.36,18.49,1.43c6.1-3.93,12.09-10.15,18.19-15.01s12.29-8.38,18.39-11.7
	s12.09-6.46,18.19-1.18c6.1,5.28,12.29,18.98,18.49,24.64c6.2,5.66,12.39,3.28,18.29,26.52c5.9,23.24,11.49,72.09,17.39,75.61
	c5.9,3.51,12.09-38.32,18.19-67.61s12.09-46.04,18.19-40.94c6.1,5.11,12.29,32.07,18.39,34.25c6.1,2.18,12.09-20.44,18.19-31.51
	s12.29-10.58,18.49-8.19c6.2,2.39,12.39,6.69,18.49,10.57c6.1,3.88,12.09,7.34,18.19,5.67c6.1-1.66,12.29-8.44,18.39-14.83
	c6.1-6.39,12.09-12.39,18.19-10.43c6.1,1.96,12.29,11.88,18.49,13.73c6.2,1.85,12.39-4.36,18.29-9.57c5.9-5.2,11.49-9.39,17.39-9.94
	s12.09,2.53,18.19,7.51s12.09,11.88,18.19,12.24c6.1,0.36,12.29-5.8,18.39-6.07s12.09,5.35,18.19,6.24
	c6.1,0.89,12.29-2.95,15.39-4.86l3.1-1.92v4.7l-3.1,1.89c-3.1,1.89-9.29,5.67-15.39,4.89s-12.09-6.13-18.19-5.46
	s-12.29,7.38-18.39,7.34c-6.1-0.04-12.09-6.82-18.19-10.21s-12.29-3.39-18.19-3.73c-5.9-0.34-11.49-1.01-17.39,1.86
	c-5.9,2.88-12.09,9.31-18.29,7.62c-6.2-1.69-12.39-11.5-18.49-13.51c-6.1-2.01-12.09,3.77-18.19,10.16
	c-6.1,6.39-12.29,13.39-18.39,15.86c-6.1,2.47-12.09,0.42-18.19-3.32c-6.1-3.74-12.29-9.17-18.49-12
	c-6.2-2.82-12.39-3.04-18.49,8.05s-12.09,33.49-18.19,31.24c-6.1-2.26-12.29-29.17-18.39-34.2c-6.1-5.03-12.09,11.84-18.19,41.15
	s-12.29,71.09-18.19,67.82c-5.9-3.27-11.49-51.58-17.39-75.2c-5.9-23.62-12.09-22.54-18.29-28.71c-6.2-6.17-12.39-19.6-18.49-24.64
	c-6.1-5.04-12.09-1.69-18.19,2.07c-6.1,3.76-12.29,7.92-18.39,12.89c-6.1,4.97-12.09,10.75-18.19,14.55
	c-6.1,3.8-12.29,5.61-18.49-1.49c-6.2-7.09-12.39-23.09-18.49-29.4c-6.1-6.31-12.09-2.93-18.19,0.16s-12.29,5.9-18.39,6.7
	c-6.1,0.8-12.09-0.42-18.19,1.24c-6.1,1.66-12.29,6.2-18.19,10.12c-5.9,3.92-11.49,7.21-17.39,11.25
	c-5.9,4.04-12.09,8.82-15.19,11.21l-3.1,2.39V-137.34z"/>
<path class="st10" d="M357.07-136.05l3.1-2.39c3.1-2.39,9.29-7.17,15.19-11.21c5.9-4.04,11.49-7.34,17.39-11.25
	c5.9-3.92,12.09-8.46,18.19-10.12c6.1-1.66,12.09-0.45,18.19-1.24c6.1-0.8,12.29-3.61,18.39-6.7s12.09-6.47,18.19-0.16
	c6.1,6.31,12.29,22.31,18.49,29.4c6.2,7.09,12.39,5.28,18.49,1.49c6.1-3.8,12.09-9.58,18.19-14.55c6.1-4.97,12.29-9.13,18.39-12.89
	c6.1-3.76,12.09-7.11,18.19-2.07c6.1,5.04,12.29,18.47,18.49,24.64c6.2,6.17,12.39,5.09,18.29,28.71
	c5.9,23.62,11.49,71.93,17.39,75.2c5.9,3.27,12.09-38.51,18.19-67.82s12.09-46.18,18.19-41.15c6.1,5.03,12.29,31.94,18.39,34.2
	c6.1,2.26,12.09-20.14,18.19-31.24s12.29-10.88,18.49-8.05c6.2,2.82,12.39,8.26,18.49,12c6.1,3.74,12.09,5.8,18.19,3.32
	c6.1-2.47,12.29-9.47,18.39-15.86c6.1-6.39,12.09-12.17,18.19-10.16c6.1,2.01,12.29,11.82,18.49,13.51
	c6.2,1.69,12.39-4.74,18.29-7.62c5.9-2.88,11.49-2.2,17.39-1.86c5.9,0.34,12.09,0.34,18.19,3.73s12.09,10.17,18.19,10.21
	c6.1,0.04,12.29-6.66,18.39-7.34s12.09,4.67,18.19,5.46s12.29-3,15.39-4.89l3.1-1.89v1.78l-3.1,1.81c-3.1,1.81-9.29,5.43-15.39,4.59
	c-6.1-0.84-12.09-6.13-18.19-5.19s-12.29,8.13-18.39,8.01c-6.1-0.12-12.09-7.55-18.19-11.08s-12.29-3.15-18.19-3.3
	c-5.9-0.15-11.49-0.82-17.39,1.86c-5.9,2.69-12.09,8.74-18.29,6.78c-6.2-1.96-12.39-11.93-18.49-13.94
	c-6.1-2.01-12.09,3.93-18.19,10.4s-12.29,13.47-18.39,16.24c-6.1,2.77-12.09,1.31-18.19-2.3c-6.1-3.61-12.29-9.36-18.49-12.56
	c-6.2-3.2-12.39-3.85-18.49,7.21s-12.09,33.84-18.19,32.16c-6.1-1.69-12.29-27.85-18.39-32.95c-6.1-5.11-12.09,10.84-18.19,39.75
	s-12.29,70.8-18.19,67.66c-5.9-3.13-11.49-51.29-17.39-74.93c-5.9-23.64-12.09-22.78-18.29-29.09c-6.2-6.31-12.39-19.79-18.49-24.89
	c-6.1-5.09-12.09-1.8-18.19,1.93s-12.29,7.89-18.39,13.24c-6.1,5.35-12.09,11.89-18.19,15.98c-6.1,4.09-12.29,5.74-18.49,1.16
	c-6.2-4.58-12.39-15.39-18.49-20.35c-6.1-4.96-12.09-4.07-18.19-1.92s-12.29,5.55-18.39,4.92c-6.1-0.63-12.09-5.31-18.19-3.65
	c-6.1,1.66-12.29,9.66-18.19,14.5c-5.9,4.84-11.49,6.51-17.39,8.55s-12.09,4.45-15.19,5.65l-3.1,1.2V-136.05z"/>
<path class="st11" d="M357.07-135.4l3.1-1.2c3.1-1.2,9.29-3.61,15.19-5.65s11.49-3.72,17.39-8.55c5.9-4.84,12.09-12.84,18.19-14.5
	c6.1-1.66,12.09,3.01,18.19,3.65c6.1,0.64,12.29-2.77,18.39-4.92s12.09-3.04,18.19,1.92c6.1,4.96,12.29,15.77,18.49,20.35
	c6.2,4.58,12.39,2.93,18.49-1.16c6.1-4.09,12.09-10.63,18.19-15.98c6.1-5.35,12.29-9.51,18.39-13.24s12.09-7.03,18.19-1.93
	c6.1,5.09,12.29,18.58,18.49,24.89c6.2,6.31,12.39,5.44,18.29,29.09c5.9,23.64,11.49,71.8,17.39,74.93
	c5.9,3.13,12.09-38.75,18.19-67.66s12.09-44.86,18.19-39.75c6.1,5.11,12.29,31.26,18.39,32.95c6.1,1.69,12.09-21.09,18.19-32.16
	s12.29-10.42,18.49-7.21c6.2,3.2,12.39,8.96,18.49,12.56c6.1,3.61,12.09,5.07,18.19,2.3c6.1-2.77,12.29-9.77,18.39-16.24
	s12.09-12.42,18.19-10.4c6.1,2.01,12.29,11.98,18.49,13.94c6.2,1.96,12.39-4.09,18.29-6.78c5.9-2.69,11.49-2.01,17.39-1.86
	c5.9,0.15,12.09-0.23,18.19,3.3s12.09,10.96,18.19,11.08c6.1,0.12,12.29-7.07,18.39-8.01s12.09,4.35,18.19,5.19
	c6.1,0.84,12.29-2.78,15.39-4.59l3.1-1.81v16.05l-3.1,2.13c-3.1,2.13-9.29,6.4-15.39,5.78c-6.1-0.62-12.09-6.13-18.19-4.92
	c-6.1,1.22-12.29,9.16-18.39,9.61c-6.1,0.45-12.09-6.61-18.19-10.13c-6.1-3.53-12.29-3.53-18.19-4.46c-5.9-0.93-11.49-2.8-17.39-1
	c-5.9,1.8-12.09,7.26-18.29,4.3c-6.2-2.96-12.39-14.33-18.49-16.73c-6.1-2.39-12.09,4.2-18.19,12s-12.29,16.79-18.39,19.29
	s-12.09-1.5-18.19-6.08c-6.1-4.58-12.29-9.74-18.49-12.4c-6.2-2.66-12.39-2.82-18.49,8.48c-6.1,11.31-12.09,34.09-18.19,34.1
	c-6.1,0.01-12.29-22.74-18.39-26.22s-12.09,12.29-18.19,39.8s-12.29,66.74-18.19,61.88c-5.9-4.86-11.49-53.83-17.39-78.61
	c-5.9-24.78-12.09-25.37-18.29-30.3c-6.2-4.93-12.39-14.2-18.49-17.7c-6.1-3.5-12.09-1.23-18.19,1.82
	c-6.1,3.05-12.29,6.89-18.39,11.62s-12.09,10.35-18.19,14.42c-6.1,4.07-12.29,6.58-18.49,2.05c-6.2-4.53-12.39-16.09-18.49-21.51
	c-6.1-5.42-12.09-4.69-18.19-2.84c-6.1,1.85-12.29,4.82-18.39,8.62c-6.1,3.8-12.09,8.42-18.19,10.81s-12.29,2.55-18.19,2.8
	c-5.9,0.24-11.49,0.57-17.39-0.18c-5.9-0.74-12.09-2.55-15.19-3.46l-3.1-0.91V-135.4z"/>
<rect x="691.04" y="-269.85" transform="matrix(0.861 -0.5086 0.5086 0.861 227.4402 331.2859)" class="st16" width="57.58" height="38.74"/>
<text transform="matrix(0.861 -0.5086 0.5086 0.861 688.088 -247.6005)"><tspan x="0" y="0" class="st0 st18" style="font-family:'MyriadPro-Regular';">Supreme Court: </tspan><tspan x="0" y="9.6" class="st18" style="font-family:'MyriadPro-Regular';">Kavanaugh </tspan><tspan x="0" y="19.2" class="st18" style="font-family:'MyriadPro-Regular';">nomination</tspan></text>
<rect x="650.76" y="-215.04" class="st16" width="35.61" height="45.69"/>
<text transform="matrix(1 0 0 1 650.9808 -209.3615)"><tspan x="0" y="0" class="st18" style="font-family:'MyriadPro-Regular';">Immigrant </tspan><tspan x="7.38" y="9.6" class="st18" style="font-family:'MyriadPro-Regular';">family </tspan><tspan x="-0.12" y="19.2" class="st18" style="font-family:'MyriadPro-Regular';">separation</tspan></text>
<rect x="886.3" y="-216.55" transform="matrix(0.9844 -0.1762 0.1762 0.9844 48.8971 156.2313)" class="st16" width="35.61" height="38.69"/>
<text transform="matrix(0.9843 -0.1762 0.1762 0.9843 884.1209 -207.4881)"><tspan x="0" y="0" class="st18" style="font-family:'MyriadPro-Regular';">Family </tspan><tspan x="0" y="9.6" class="st18" style="font-family:'MyriadPro-Regular';">separation</tspan></text>
<g>
	<rect x="590.46" y="-220.33" class="st16" width="45.59" height="55.23"/>
	<text transform="matrix(1 0 0 1 596.4915 -214.6457)"><tspan x="0" y="0" class="st29 st18" style="font-family:'MyriadPro-Regular';">March For </tspan><tspan x="1.31" y="9.6" class="st29 st18" style="font-family:'MyriadPro-Regular';">Our Lives </tspan><tspan x="10.36" y="19.2" class="st29 st18" style="font-family:'MyriadPro-Regular';">and</tspan><tspan x="2.66" y="28.8" class="st29 st18" style="font-family:'MyriadPro-Regular';">National </tspan><tspan x="5.44" y="38.4" class="st29 st18" style="font-family:'MyriadPro-Regular';">School </tspan><tspan x="2.91" y="48" class="st29 st18" style="font-family:'MyriadPro-Regular';">Walkout</tspan></text>
</g>
<rect x="471.56" y="-201.79" class="st16" width="60.61" height="26.4"/>
<text transform="matrix(1 0 0 1 471.559 -196.1098)"><tspan x="0" y="0" class="st18" style="font-family:'MyriadPro-Regular';">Unite </tspan><tspan x="0" y="9.6" class="st18" style="font-family:'MyriadPro-Regular';">the Right </tspan><tspan x="0" y="19.2" class="st18" style="font-family:'MyriadPro-Regular';">(Charlottesville)</tspan></text>
<rect x="326.77" y="220" class="st16" width="60.61" height="26.4"/>
<text transform="matrix(1 0 0 1 326.7719 225.7565)"><tspan x="0" y="0" class="st17 st18">Unite </tspan><tspan x="0" y="9.6" class="st17 st18">the Right </tspan><tspan x="0" y="19.2" class="st17 st18">(Charlottesville)</tspan></text>
<rect x="359.53" y="-184.79" class="st16" width="35.61" height="19.85"/>
<text transform="matrix(1 0 0 1 359.5329 -179.1119)"><tspan x="0" y="0" class="st29 st18" style="font-family:'MyriadPro-Regular';">Womens </tspan><tspan x="0" y="9.6" class="st29 st18" style="font-family:'MyriadPro-Regular';">March</tspan></text>
<rect x="789.4" y="-205.39" transform="matrix(0.3212 -0.947 0.947 0.3212 720.2005 629.6251)" class="st16" width="19.85" height="35.61"/>
<text transform="matrix(0.947 0.3212 -0.3212 0.947 783.8517 -197.3572)"><tspan x="0" y="0" class="st29 st18" style="font-family:'MyriadPro-Regular';">Womens </tspan><tspan x="0" y="9.6" class="st29 st18" style="font-family:'MyriadPro-Regular';">March</tspan></text>
<rect x="566.47" y="-203.54" transform="matrix(0.5373 -0.8434 0.8434 0.5373 423.3727 400.1938)" class="st16" width="19.85" height="35.61"/>
<text transform="matrix(0.8434 0.5373 -0.5373 0.8434 563.6211 -198.8352)"><tspan x="0" y="0" class="st29 st18" style="font-family:'MyriadPro-Regular';">Womens </tspan><tspan x="0" y="9.6" class="st29 st18" style="font-family:'MyriadPro-Regular';">March</tspan></text>
<g>
	<rect x="842.2" y="-208.64" class="st16" width="50.37" height="26.4"/>
	<text transform="matrix(1 0 0 1 858.8268 -202.9577)"><tspan x="0" y="0" class="st29 st18" style="font-family:'MyriadPro-Regular';">State </tspan><tspan x="-5.83" y="9.6" class="st29 st18" style="font-family:'MyriadPro-Regular';">abortion     </tspan><tspan x="-9.96" y="19.2" class="st29 st18" style="font-family:'MyriadPro-Regular';">restrictions</tspan></text>
</g>
<rect x="313.37" y="-289.59" class="st16" width="29.9" height="9.24"/>
<text transform="matrix(1 0 0 1 323.2697 -283.9069)" class="st1 st18" style="font-family:'MyriadPro-Regular';">Police</text>
<rect x="293.04" y="-269.37" class="st16" width="50.23" height="9.24"/>
<text transform="matrix(1 0 0 1 309.6222 -263.6859)" class="st28 st18" style="font-family:'MyriadPro-Regular';">Education</text>
<rect x="293.04" y="-239.56" class="st16" width="50.23" height="9.24"/>
<text transform="matrix(1 0 0 1 311.2541 -233.8795)" class="st3 st18" style="font-family:'MyriadPro-Regular';">Executive</text>
<rect x="293.04" y="-224.92" class="st16" width="50.23" height="9.24"/>
<text transform="matrix(1 0 0 1 301.8459 -219.2421)" class="st18" style="fill:#4C6DA4; font-family:'MyriadPro-Regular';">Immigration</text>
<rect x="293.04" y="-211.7" class="st16" width="50.23" height="9.24"/>
<text transform="matrix(1 0 0 1 326.0861 -206.0193)" class="st5 st18" style="font-family:'MyriadPro-Regular';">Guns</text>
<rect x="281.55" y="-175.48" class="st16" width="61.72" height="17"/>
<text transform="matrix(1 0 0 1 291.2545 -169.7976)" class="st6 st18" style="font-family:'MyriadPro-Regular';">Womens rights</text>
<rect x="284.44" y="-151.5" class="st16" width="58.83" height="20.67"/>
<text transform="matrix(1 0 0 1 294.0465 -145.8228)"><tspan x="0" y="0" class="st7 st18" style="font-family:'MyriadPro-Regular';">Racial justice &amp; </tspan><tspan x="-7.96" y="9.6" class="st7 st18" style="font-family:'MyriadPro-Regular';">white supremacy</tspan></text>
<rect x="284.44" y="-117.86" class="st16" width="58.83" height="19.61"/>
<text transform="matrix(1 0 0 1 310.4943 -112.1794)"><tspan x="0" y="0" class="st8 st18" style="font-family:'MyriadPro-Regular';">Collective </tspan><tspan x="-3.67" y="9.6" class="st8 st18" style="font-family:'MyriadPro-Regular';">bargaining</tspan></text>
<rect x="284.44" y="-92.27" class="st16" width="58.83" height="8.61"/>
<text transform="matrix(1 0 0 1 299.9582 -86.5941)" class="st9 st18" style="font-family:'MyriadPro-Regular';">Environment</text>
<rect x="284.44" y="-74.69" class="st16" width="58.83" height="12.19"/>
<text transform="matrix(1 0 0 1 307.1501 -69.0109)" class="st10 st18" style="font-family:'MyriadPro-Regular';">Healthcare</text>
<rect x="284.44" y="-57.53" class="st16" width="58.83" height="12.19"/>
<text transform="matrix(1 0 0 1 324.0461 -51.8479)" class="st11 st18" style="font-family:'MyriadPro-Regular';">Other</text>
<rect x="938.01" y="-260.49" class="st16" width="29.9" height="9.24"/>
<text transform="matrix(1 0 0 1 938.0107 -254.8145)" class="st1 st18" style="font-family:'MyriadPro-Regular';">Police</text>
<rect x="938.01" y="-245.17" class="st16" width="50.23" height="9.24"/>
<text transform="matrix(1 0 0 1 938.0108 -239.4867)" class="st28 st18" style="font-family:'MyriadPro-Regular';">Education</text>
<rect x="938.01" y="-230.31" class="st16" width="50.23" height="9.24"/>
<text transform="matrix(1 0 0 1 938.0108 -224.6254)" class="st3 st18" style="font-family:'MyriadPro-Regular';">Executive</text>
<rect x="938.01" y="-214.4" class="st16" width="50.23" height="9.24"/>
<text transform="matrix(1 0 0 1 938.0108 -208.723)" class="st18" style="fill:#4C6DA4; font-family:'MyriadPro-Regular';">Immigration</text>
<rect x="938.01" y="-200.2" class="st16" width="50.23" height="9.24"/>
<text transform="matrix(1 0 0 1 938.0108 -194.5192)" class="st5 st18" style="font-family:'MyriadPro-Regular';">Guns</text>
<rect x="938.01" y="-188.48" class="st16" width="61.72" height="17"/>
<text transform="matrix(1 0 0 1 938.0109 -182.7977)" class="st6 st18" style="font-family:'MyriadPro-Regular';">Womens rights</text>
<rect x="938.01" y="-174.48" class="st16" width="58.83" height="20.67"/>
<text transform="matrix(1 0 0 1 938.011 -168.7973)"><tspan x="0" y="0" class="st7 st18" style="font-family:'MyriadPro-Regular';">Racial justice &amp; </tspan><tspan x="0" y="9.6" class="st7 st18" style="font-family:'MyriadPro-Regular';">white supremacy</tspan></text>
<rect x="938.01" y="-151.51" class="st16" width="58.83" height="19.61"/>
<text transform="matrix(1 0 0 1 938.011 -145.8285)"><tspan x="0" y="0" class="st8 st18" style="font-family:'MyriadPro-Regular';">Collective </tspan><tspan x="0" y="9.6" class="st8 st18" style="font-family:'MyriadPro-Regular';">bargaining</tspan></text>
<rect x="938.01" y="-128.74" class="st16" width="58.83" height="8.61"/>
<text transform="matrix(1 0 0 1 938.011 -123.0552)" class="st9 st18" style="font-family:'MyriadPro-Regular';">Environment</text>
<rect x="938.01" y="-114.2" class="st16" width="58.83" height="12.19"/>
<text transform="matrix(1 0 0 1 938.011 -108.5184)" class="st10 st18" style="font-family:'MyriadPro-Regular';">Healthcare</text>
<rect x="938.01" y="-98.09" class="st16" width="58.83" height="12.19"/>
<text transform="matrix(1 0 0 1 938.011 -92.4123)" class="st11 st18" style="font-family:'MyriadPro-Regular';">Other</text>
<path id="SVGID_x5F_1_x5F__1_" class="st16" d="M387.26-138.39c16.65,2.85,34.95-5.58,48.69-14.12"/>
<text><textPath  xlink:href="#SVGID_x5F_1_x5F__1_" startOffset="12.346%">
<tspan  class="st29 st18" style="font-family:'MyriadPro-Regular';">for Science</tspan></textPath>
</text>
<path id="SVGID_x5F_2_x5F_" class="st16" d="M384.46-147.49c16.65,2.85,34.95-5.58,48.69-14.12"/>
<text><textPath  xlink:href="#SVGID_x5F_2_x5F_" startOffset="23.828%">
<tspan  class="st29 st18" style="font-family:'MyriadPro-Regular';">March</tspan></textPath>
</text>
<g>
	<path id="SVGID_x5F_3_x5F_" class="st16" d="M534.6-161.62c23.13-10.08,32.64,9.07,32.96,9.22"/>
	<text>	<textPath  xlink:href="#SVGID_x5F_3_x5F_" startOffset="0.024%">
<tspan  class="st29 st18" style="font-family:'MyriadPro-Regular';">Tax reform</tspan>	</textPath>
</text>
</g>
<g>
	<path id="SVGID_x5F_4_x5F_" class="st16" d="M711.08-201.51c4.73,0.16,27.8-3.01,35.52-2.35c14.53,1.24,19.99,7.21,32.61-1.42"/>
	<text>	<textPath  xlink:href="#SVGID_x5F_4_x5F_" startOffset="9.668%">
<tspan  class="st29 st18" style="font-family:'MyriadPro-Regular';">#ProtectMueller</tspan>	</textPath>
</text>
</g>
<path class="st19" d="M724.2-120.04c4.73,0.16,20.47,0.92,24.49,2.36s20.08,1.53,27.12-1.18c7.03-2.7,12.44-6.5,14.7-7.99"/>
<g>
	<path id="SVGID_x5F_5_x5F_" class="st16" d="M393.28-223.65c2.82-0.51,31.49-2.63,37.84,2.7"/>
	<text>	<textPath  xlink:href="#SVGID_x5F_5_x5F_" startOffset="0.391%">
<tspan  class="st29 st18" style="font-family:'MyriadPro-Regular';">Tax</tspan>	</textPath>
</text>
</g>
<g>
	<path id="SVGID_x5F_6_x5F_" class="st16" d="M393.28-216.23c2.82-0.51,31.49-2.63,37.84,2.7"/>
	<text>	<textPath  xlink:href="#SVGID_x5F_6_x5F_" startOffset="0.391%">
<tspan  class="st29 st18" style="font-family:'MyriadPro-Regular';">March</tspan>	</textPath>
</text>
</g>
<path id="SVGID_x5F_7_x5F_" class="st16" d="M359.22-214.81c6.87,7.94,22.54,18.72,58.48,8.1"/>
<text><textPath  xlink:href="#SVGID_x5F_7_x5F_" startOffset="2.000000e-03%">
<tspan  class="st30 st18" style="font-family:'MyriadPro-Regular';">Muslim bans</tspan></textPath>
</text>
<path id="SVGID_x5F_8_x5F_" class="st16" d="M480.43-226.66c7.87,0.46,21.44,26.01,44.78,23.76"/>
<text><textPath  xlink:href="#SVGID_x5F_8_x5F_" startOffset="0%">
<tspan  class="st30 st18" style="font-family:'MyriadPro-Regular';">#DefendDACA</tspan></textPath>
</text>
<path class="st20" d="M357.07-134.75c-4.4,0,5.19,81.24-11.45,81.24"/>
<path class="st21" d="M357.07-135.83c-4.4,0,0.09,64.55-11.8,64.55"/>
<path class="st22" d="M357.07-136.83c-4.4,0-7.33,48.86-11.45,48.86"/>
<path class="st23" d="M357.07-137.83c-4.72,0-6.33,27.39-11.45,27.39"/>
<path class="st24" d="M357.07-239.56c-4.72,0-5.13-26.18-11.9-26.18"/>
<path class="st25" d="M357.07-241.56c-4.72,0-2.32-43.4-11.01-43.4"/>
<path class="st20" d="M921.18-154.82c4.4,0-1.63,60.12,11.45,60.12"/>
<path class="st21" d="M921.18-164.18c4.4,0,1.9,52.6,11.8,52.6"/>
<path class="st22" d="M921.18-166.99c4.4,0,5.73,40.14,11.45,40.14"/>
<path class="st23" d="M921.18-171.48c5.97,0,6.33,27.39,11.45,27.39"/>
<path class="st26" d="M921.18-180.23c4.72,0,6.33,13.7,11.45,13.7"/>
<path class="st24" d="M921.18-223.52c4.72,0,5.13-19.01,11.9-19.01"/>
<path class="st27" d="M921.18-217.9c4.72,0,5.13-9.5,11.9-9.5"/>
<path class="st25" d="M921.18-227.4c4.72,0,2.32-30.23,11.01-30.23"/>
<rect x="53.31" y="157.43" class="st1" width="73.1" height="16.84"/>
<rect x="53.31" y="174.27" class="st28" width="73.1" height="16.84"/>
<rect x="53.31" y="190.23" class="st3" width="73.1" height="16.84"/>
<rect x="53.31" y="140.59" class="st0" width="73.1" height="16.84"/>
<g>
	<rect x="55.78" y="178.82" class="st16" width="64.15" height="9.24"/>
	<text transform="matrix(1 0 0 1 76.9601 184.5765)" class="st29 st17 st18">Police</text>
</g>
<g>
	<rect x="57.78" y="193.63" class="st16" width="64.15" height="9.24"/>
	<text transform="matrix(1 0 0 1 72.0636 199.3792)" class="st29 st17 st18">Education</text>
</g>
<rect x="53.31" y="206.4" class="st4" width="73.1" height="16.84"/>
<g>
	<rect x="57.78" y="210.8" class="st16" width="64.15" height="9.24"/>
	<text transform="matrix(1 0 0 1 72.5129 216.5495)" class="st30 st17 st18">Executive</text>
</g>
<rect x="53.31" y="222.81" class="st5" width="73.1" height="16.84"/>
<g>
	<rect x="57.78" y="227.21" class="st16" width="64.15" height="9.24"/>
	<text transform="matrix(1 0 0 1 68.9601 232.9587)" class="st29 st17 st18">Immigration</text>
</g>
<rect x="53.31" y="239.22" class="st6" width="73.1" height="16.84"/>
<rect x="53.31" y="309.18" class="st9" width="73.1" height="16.84"/>
<rect x="53.31" y="326.24" class="st10" width="73.1" height="16.84"/>
<g>
	<rect x="57.78" y="243.62" class="st16" width="64.15" height="9.24"/>
	<text transform="matrix(1 0 0 1 80.2941 249.3679)" class="st29 st17 st18">Guns</text>
</g>
<rect x="53.31" y="255.84" class="st7" width="73.1" height="26.85"/>
<g>
	<rect x="57.62" y="162.44" class="st16" width="61.72" height="8.83"/>
	<text transform="matrix(1 0 0 1 60.9236 168.1874)" class="st29 st17 st18">Womens rights</text>
</g>
<g>
	<rect x="57.62" y="144.79" class="st16" width="63.86" height="8.83"/>
	<text transform="matrix(1 0 0 1 62.4324 150.5436)" class="st29 st17 st18">Supreme Court</text>
</g>
<rect x="55.87" y="260.01" class="st16" width="65.24" height="18.33"/>
<text transform="matrix(1 0 0 1 60.2532 265.7606)"><tspan x="0" y="0" class="st17 st18">Racial justice or </tspan><tspan x="-1.78" y="9.6" class="st17 st18">white supremacy</tspan></text>
<rect x="53.31" y="282.3" class="st8" width="73.1" height="26.85"/>
<rect x="-322.41" y="126.45" class="st2" width="73.1" height="26.85"/>
<rect x="-322.41" y="99.61" class="st1" width="73.1" height="26.85"/>
<rect x="-322.41" y="73.07" class="st0" width="73.1" height="26.85"/>
<rect x="-322.41" y="151.39" class="st3" width="73.1" height="26.85"/>
<rect x="-322.41" y="178.24" class="st4" width="73.1" height="26.85"/>
<rect x="-322.41" y="205.09" class="st5" width="73.1" height="26.85"/>
<rect x="-322.41" y="232.03" class="st6" width="73.1" height="26.85"/>
<rect x="-322.41" y="258.78" class="st7" width="73.1" height="26.85"/>
<rect x="-322.41" y="285.54" class="st8" width="73.1" height="26.85"/>
<rect x="-322.41" y="312.29" class="st9" width="73.1" height="26.85"/>
<rect x="-322.41" y="339.05" class="st10" width="73.1" height="26.85"/>
<rect x="-322.41" y="365.8" class="st11" width="73.1" height="26.85"/>
<rect x="55.87" y="286.47" class="st16" width="65.24" height="18.33"/>
<text transform="matrix(1 0 0 1 71.1458 292.2223)"><tspan x="0" y="0" class="st29 st17 st18">Collective </tspan><tspan x="-1.34" y="9.6" class="st29 st17 st18">bargaining</tspan></text>
<rect x="-319.32" y="264.14" class="st16" width="65.24" height="18.33"/>
<text transform="matrix(1 0 0 1 -314.9383 269.8947)"><tspan x="0" y="0" class="st17 st18">Racial justice or </tspan><tspan x="-1.78" y="9.6" class="st17 st18">white supremacy</tspan></text>
<rect x="-319.32" y="290.6" class="st16" width="65.24" height="18.33"/>
<text transform="matrix(1 0 0 1 -304.0457 296.3564)"><tspan x="0" y="0" class="st29 st17 st18">Collective </tspan><tspan x="-1.34" y="9.6" class="st29 st17 st18">bargaining</tspan></text>
<rect x="55.87" y="314.76" class="st16" width="65.24" height="11.64"/>
<text transform="matrix(1 0 0 1 66.0306 320.5135)" class="st29 st17 st18">Environment</text>
<rect x="55.87" y="330.84" class="st16" width="65.24" height="11.64"/>
<text transform="matrix(1 0 0 1 69.1419 336.5904)" class="st29 st17 st18">Healthcare</text>
<rect x="53.31" y="342.3" class="st11" width="73.1" height="16.84"/>
<rect x="55.87" y="346.9" class="st16" width="65.24" height="11.64"/>
<text transform="matrix(1 0 0 1 78.4818 352.6526)" class="st29 st17 st18">Other</text>
<g>
	<rect x="-317.79" y="83.08" class="st16" width="63.86" height="8.83"/>
	<text transform="matrix(1 0 0 1 -312.9866 88.8333)" class="st29 st17 st18">Supreme Court</text>
</g>
<g>
	<rect x="-317.79" y="107.62" class="st16" width="63.86" height="8.83"/>
	<text transform="matrix(1 0 0 1 -313.4261 113.3735)" class="st29 st17 st18">Womens rights</text>
</g>
<g>
	<rect x="-317.79" y="133.66" class="st16" width="63.86" height="8.83"/>
	<text transform="matrix(1 0 0 1 -296.7581 139.4119)" class="st29 st17 st18">Police</text>
</g>
<g>
	<rect x="-317.79" y="160.4" class="st16" width="63.86" height="8.83"/>
	<text transform="matrix(1 0 0 1 -303.6546 166.1531)" class="st29 st17 st18">Education</text>
</g>
<g>
	<rect x="-317.79" y="187.25" class="st16" width="63.86" height="8.83"/>
	<text transform="matrix(1 0 0 1 -303.2054 193.0016)" class="st29 st17 st18">Executive</text>
</g>
<g>
	<rect x="-317.79" y="215" class="st16" width="63.86" height="8.83"/>
	<text transform="matrix(1 0 0 1 -306.7581 220.7569)" class="st29 st17 st18">Immigration</text>
</g>
<g>
	<rect x="-317.79" y="241.04" class="st16" width="63.86" height="8.83"/>
	<text transform="matrix(1 0 0 1 -295.4241 246.7919)" class="st29 st17 st18">Guns</text>
</g>
<g>
	<rect x="-317.79" y="319.58" class="st16" width="63.86" height="8.83"/>
	<text transform="matrix(1 0 0 1 -308.3187 325.3315)" class="st29 st17 st18">Environment</text>
</g>
<g>
	<rect x="-317.79" y="348.06" class="st16" width="63.86" height="8.83"/>
	<text transform="matrix(1 0 0 1 -305.2073 353.8129)" class="st29 st17 st18">Healthcare</text>
</g>
<g>
	<rect x="-317.79" y="373.82" class="st16" width="63.86" height="8.83"/>
	<text transform="matrix(1 0 0 1 -295.8675 379.5682)" class="st29 st17 st18">Other</text>
</g>
<rect x="222.06" y="158.03" class="st16" width="44.51" height="18.45"/>
<text transform="matrix(1 0 0 1 222.0571 163.7866)"><tspan x="0" y="0" class="st29 st17 st18">Womens </tspan><tspan x="0" y="9.6" class="st29 st17 st18">March</tspan></text>
<rect x="248.02" y="293.57" class="st16" width="44.51" height="18.45"/>
<text transform="matrix(1 0 0 1 248.0163 299.326)"><tspan x="0" y="0" class="st29 st17 st18">March for </tspan><tspan x="0" y="9.6" class="st29 st17 st18">Science</tspan></text>
<rect x="235.01" y="196.65" class="st16" width="44.51" height="12.75"/>
<text transform="matrix(1 0 0 1 235.0144 202.3972)" class="st30 st17 st18">Tax March</text>
<rect x="210.45" y="248.79" transform="matrix(0.6362 -0.7715 0.7715 0.6362 -111.0322 275.8778)" class="st16" width="53.17" height="13.79"/>
<text transform="matrix(0.6362 -0.7715 0.7715 0.6362 219.242 275.4653)" class="st29 st17 st18">Muslim bans</text>
<rect x="257.27" y="365.59" class="st16" width="102.47" height="11.62"/>
<text transform="matrix(1 0 0 1 257.2684 371.3461)" class="st17 st18">Obamacare repeal effort</text>
<path id="SVGID_x5F_9_x5F_" class="st16" d="M266.57,270.08c12.17,0.41,20,0.44,25.96-3.47s16.83-10.71,23.38-6.89
	c7.19,4.19,16.96,30.4,16.96,30.4"/>
<text><textPath  xlink:href="#SVGID_x5F_9_x5F_" startOffset="0%">
<tspan  class="st29 st17 st18">Obamacare repeal effort</tspan></textPath>
</text>
</svg>
