<svg width="617" height="300" xmlns="http://www.w3.org/2000/svg" version="1.1"><g><path class="layer" d="M0,206.1377366089408L3.1782984380192754,204.35226204859714C6.356596876038551,202.56678748825345,12.713193752077101,198.9958383675661,18.76221335992024,197.5486642502349C24.811232967763374,196.1014901329037,30.552675307411103,196.77809101892868,36.601694915254235,197.4546919049537C42.65071452309738,198.13129279097862,49.007311399135936,198.8078936770036,55.26138251910934,202.51040408108472C61.51545363908275,206.2129144851658,67.66699900299103,212.94133440730297,73.92107012296445,217.17008994495905C80.17514124293785,221.39884548261512,86.5317381189764,223.12793663579,92.78580923894981,225.30809504631495C99.03988035892324,227.48825345683986,105.19142572283151,230.11947912471473,111.44549684280491,223.54141495502753C117.69956796277832,216.96335078534034,124.05616483881688,201.175996778091,130.41276171485544,195.19935561820378C136.76935859089397,189.22271445831655,143.12595546693254,193.0567861457914,149.38002658690593,198.80789367700365C155.63409770687937,204.55900120821585,161.78564307078764,212.22714458316554,168.03971419076103,218.69244193851523C174.29378531073448,225.15773929386492,180.650382186773,230.4201906296147,186.90445330674643,234.76171298160827C193.15852442671985,239.10323533360182,199.3100697906281,242.52382870183916,205.5641409106015,237.82521143777686C211.81821203057493,233.12659417371458,218.1748089066135,220.30876627735267,224.531405782652,213.42999060276546C230.88800265869057,206.5512149281783,237.24459953472913,205.61149147536582,243.29361914257228,171.02966841186733C249.34263875041543,136.4478453483689,255.08408109006314,68.22392267418445,261.1331006979063,61.36394146865351C267.1821203057494,54.503960263122565,273.53871718178794,109.00792052624513,279.7927883017614,147.36743187004967C286.0468594217348,185.72694321385418,292.19840478564305,207.9420056383407,298.45247590561644,202.52919855014093C304.7065470255899,197.11639146194122,311.06314390162845,164.0757148610552,317.31721502160184,164.13209826822393C323.5712861415753,164.1884816753927,329.72283150548355,197.3419250906162,335.976902625457,213.768291045778C342.2309737454304,230.19465700093974,348.58757062146896,229.89394549603972,354.9441674975075,226.13505168478991C361.3007643735461,222.3761578735401,367.65736124958454,215.1590817559404,373.911432369558,208.29910055040946C380.1655034895314,201.43911934487855,386.3170488534397,194.93623305141628,392.5711199734131,198.1500872600349C398.82519109338654,201.3639414686535,405.1817879694251,214.29453617935292,411.4358590893985,225.72157336555242C417.6899302093719,237.1486105517519,423.84147557328015,247.07209021345147,430.09554669325354,243.87703047388914C436.349617813227,240.68197073432677,442.70621468926555,224.36837159350247,449.062811565304,219.93287689622767C455.4194084413427,215.4973821989529,461.77600531738125,222.93999194522755,467.82502492522434,225.4020673915962C473.8740445330675,227.8641428379648,479.61548687271517,225.34568398442744,485.6645064805584,223.97368774332122C491.71352608840147,222.60169150221506,498.07012296444003,222.37615787354005,504.3241940844134,217.56477379514027C510.5782652043869,212.7533897167405,516.7298105682952,203.35615518861593,522.9838816882685,203.4501275338972C529.237952808242,203.5440998791784,535.5945496842805,213.1292790978655,541.848620804254,214.61404215330916C548.1026919242273,216.09880520875285,554.2542372881356,209.48315210095316,560.508308408109,209.22002953416563C566.7623795280824,208.95690696737816,573.118976404121,215.0463149416029,579.4755732801596,215.17787622499665C585.8321701561981,215.30943750839037,592.1887670322367,209.48315210095313,598.4428381522101,209.53953550812184C604.6969092721835,209.59591891529064,610.8484546360918,215.53497113706536,613.9242273180458,218.5044972479527L617,221.4740233588401L617,221.4740233588401L613.9242273180458,218.5044972479527C610.8484546360918,215.53497113706536,604.6969092721835,209.59591891529064,598.4428381522101,209.53953550812184C592.1887670322367,209.48315210095313,585.8321701561981,215.30943750839037,579.4755732801596,215.17787622499665C573.118976404121,215.0463149416029,566.7623795280824,208.95690696737816,560.508308408109,209.22002953416566C554.2542372881356,209.48315210095316,548.1026919242273,216.09880520875285,541.848620804254,214.6140421533092C535.5945496842805,213.1292790978655,529.237952808242,203.5440998791784,522.9838816882685,203.4501275338972C516.7298105682952,203.35615518861593,510.5782652043869,212.7533897167405,504.3241940844135,217.56477379514027C498.07012296444003,222.37615787354005,491.71352608840147,222.60169150221506,485.66450648055826,223.97368774332122C479.61548687271517,225.34568398442744,473.8740445330675,227.8641428379648,467.82502492522434,225.4020673915962C461.77600531738125,222.93999194522755,455.4194084413427,215.4973821989529,449.062811565304,219.93287689622767C442.70621468926555,224.36837159350247,436.349617813227,240.68197073432677,430.09554669325354,243.87703047388914C423.84147557328015,247.07209021345147,417.6899302093719,237.1486105517519,411.43585908939843,228.08967646663982C405.1817879694251,219.03074238152772,398.82519109338654,210.83635387300308,392.5711199734131,209.53953550812184C386.3170488534397,208.2427171432407,380.1655034895314,213.84346892200293,373.911432369558,218.7300308766277C367.65736124958454,223.61659283125252,361.3007643735461,227.78896496173982,354.9441674975075,229.91273996509597C348.58757062146896,232.03651496845214,342.2309737454304,232.11169284467715,335.97690262545694,215.30943750839037C329.72283150548355,198.50718217210365,323.5712861415753,164.82749362330514,317.3172150216019,164.48919318029266C311.06314390162845,164.15089273728017,304.7065470255899,197.1539804000537,298.45247590561644,202.5479930191972C292.19840478564305,207.9420056383407,286.0468594217348,185.72694321385418,279.7927883017614,147.36743187004967C273.53871718178794,109.00792052624513,267.1821203057494,54.503960263122565,261.1331006979063,61.36394146865351C255.08408109006314,68.22392267418445,249.34263875041543,136.4478453483689,243.29361914257228,171.02966841186733C237.24459953472913,205.61149147536582,230.88800265869057,206.5512149281783,224.53140578265206,213.4299906027655C218.1748089066135,220.30876627735267,211.81821203057493,233.12659417371458,205.5641409106015,237.82521143777686C199.3100697906281,242.52382870183916,193.15852442671985,239.10323533360182,186.9044533067464,234.76171298160827C180.650382186773,230.4201906296147,174.29378531073448,225.15773929386492,168.03971419076103,218.7112364075715C161.78564307078764,212.264733521278,155.63409770687937,204.6341790844409,149.38002658690596,198.88307155322863C143.12595546693254,193.13196402201638,136.76935859089397,189.26030339642907,130.41276171485544,195.21815008726003C124.05616483881688,201.175996778091,117.69956796277832,216.96335078534034,111.44549684280491,223.54141495502753C105.19142572283151,230.11947912471473,99.03988035892324,227.48825345683986,92.78580923894982,225.30809504631495C86.5317381189764,223.12793663579,80.17514124293785,221.39884548261512,73.92107012296445,217.18888441401532C67.66699900299103,212.9789233454155,61.51545363908275,206.2880923613908,55.26138251910934,202.64196536447847C49.007311399135936,198.9958383675661,42.65071452309738,198.39441535776612,36.601694915254235,197.71781447174115C30.552675307411103,197.04121358571624,24.811232967763374,196.28943482346622,18.76221335992024,197.6802255336287C12.713193752077101,199.07101624379115,6.356596876038551,202.60437642636597,3.1782984380192754,204.3710565176534L0,206.1377366089408Z" fill="rgb(191, 105, 105)" title="supreme_court"></path><path class="layer" d="M0,206.1377366089408L3.1782984380192754,204.3710565176534C6.356596876038551,202.60437642636597,12.713193752077101,199.07101624379115,18.76221335992024,197.6802255336287C24.811232967763374,196.28943482346622,30.552675307411103,197.04121358571624,36.601694915254235,197.71781447174115C42.65071452309738,198.39441535776612,49.007311399135936,198.9958383675661,55.26138251910934,202.64196536447844C61.51545363908275,206.2880923613908,67.66699900299103,212.9789233454155,73.92107012296445,217.18888441401532C80.17514124293785,221.39884548261512,86.5317381189764,223.12793663579,92.78580923894981,225.30809504631495C99.03988035892324,227.48825345683986,105.19142572283151,230.11947912471473,111.44549684280491,223.54141495502753C117.69956796277832,216.96335078534034,124.05616483881688,201.175996778091,130.41276171485544,195.21815008726003C136.76935859089397,189.26030339642907,143.12595546693254,193.13196402201638,149.38002658690593,198.88307155322863C155.63409770687937,204.6341790844409,161.78564307078764,212.264733521278,168.03971419076103,218.71123640757148C174.29378531073448,225.15773929386492,180.650382186773,230.4201906296147,186.90445330674643,234.76171298160827C193.15852442671985,239.10323533360182,199.3100697906281,242.52382870183916,205.5641409106015,237.82521143777686C211.81821203057493,233.12659417371458,218.1748089066135,220.30876627735267,224.531405782652,213.42999060276546C230.88800265869057,206.5512149281783,237.24459953472913,205.61149147536582,243.29361914257228,171.02966841186733C249.34263875041543,136.4478453483689,255.08408109006314,68.22392267418445,261.1331006979063,61.36394146865351C267.1821203057494,54.503960263122565,273.53871718178794,109.00792052624513,279.7927883017614,147.36743187004967C286.0468594217348,185.72694321385418,292.19840478564305,207.9420056383407,298.45247590561644,202.5479930191972C304.7065470255899,197.1539804000537,311.06314390162845,164.15089273728017,317.31721502160184,164.48919318029266C323.5712861415753,164.82749362330514,329.72283150548355,198.50718217210365,335.976902625457,215.30943750839037C342.2309737454304,232.11169284467715,348.58757062146896,232.03651496845214,354.9441674975075,229.912739965096C361.3007643735461,227.78896496173982,367.65736124958454,223.61659283125252,373.911432369558,218.7300308766277C380.1655034895314,213.84346892200293,386.3170488534397,208.2427171432407,392.5711199734131,209.53953550812184C398.82519109338654,210.83635387300308,405.1817879694251,219.03074238152772,411.4358590893985,228.08967646663982C417.6899302093719,237.1486105517519,423.84147557328015,247.07209021345147,430.09554669325354,243.87703047388914C436.349617813227,240.68197073432677,442.70621468926555,224.36837159350247,449.062811565304,219.93287689622767C455.4194084413427,215.4973821989529,461.77600531738125,222.93999194522755,467.82502492522434,225.4020673915962C473.8740445330675,227.8641428379648,479.61548687271517,225.34568398442744,485.6645064805584,223.97368774332122C491.71352608840147,222.60169150221506,498.07012296444003,222.37615787354005,504.3241940844134,217.56477379514027C510.5782652043869,212.7533897167405,516.7298105682952,203.35615518861593,522.9838816882685,203.4501275338972C529.237952808242,203.5440998791784,535.5945496842805,213.1292790978655,541.848620804254,214.61404215330916C548.1026919242273,216.09880520875285,554.2542372881356,209.48315210095316,560.508308408109,209.22002953416563C566.7623795280824,208.95690696737816,573.118976404121,215.0463149416029,579.4755732801596,215.17787622499665C585.8321701561981,215.30943750839037,592.1887670322367,209.48315210095313,598.4428381522101,209.53953550812184C604.6969092721835,209.59591891529064,610.8484546360918,215.53497113706536,613.9242273180458,218.5044972479527L617,221.4740233588401L617,226.99959726137737L613.9242273180458,223.35347026446502C610.8484546360918,219.7073432675527,604.6969092721835,212.415089273728,598.4428381522101,211.70089944959054C592.1887670322367,210.98670962545307,585.8321701561981,216.85058397100283,579.4755732801596,216.70022821855284C573.118976404121,216.5498724661028,566.7623795280824,210.38528661565314,560.508308408109,210.9679151563968C554.2542372881356,211.55054369714057,548.1026919242273,218.88038662907775,541.848620804254,222.4513357497651C535.5945496842805,226.0222848704524,529.237952808242,225.8343401798899,522.9838816882685,226.0598738085649C516.7298105682952,226.28540743723988,510.5782652043869,226.9244193851524,504.3241940844135,227.1311585447711C498.07012296444003,227.33789770438986,491.71352608840147,227.11236407571485,485.66450648055826,227.99570412135856C479.61548687271517,228.87904416700226,473.8740445330675,230.8712578869647,467.82502492522434,231.45388642770843C461.77600531738125,232.03651496845214,455.4194084413427,231.20955832997717,449.062811565304,235.38193046046447C442.70621468926555,239.5543025909518,436.349617813227,248.72600349040144,430.09554669325354,248.6508256141764C423.84147557328015,248.5756477379514,417.6899302093719,239.25359108605184,411.43585908939843,232.82588266881461C405.1817879694251,226.3981742515774,398.82519109338654,222.86481406900256,392.5711199734131,223.0715532286213C386.3170488534397,223.27829238824003,380.1655034895314,227.22513089005236,373.911432369558,229.612028460196C367.65736124958454,231.99892603033967,361.3007643735461,232.82588266881461,354.9441674975075,233.08900523560212C348.58757062146896,233.35212780238962,342.2309737454304,233.0514162974896,335.97690262545694,216.21157202309038C329.72283150548355,199.3717277486911,323.5712861415753,165.9927507047926,317.3172150216019,165.74842260706137C311.06314390162845,165.50409450933012,304.7065470255899,198.39441535776618,298.45247590561644,204.2958786414284C292.19840478564305,210.19734192509063,286.0468594217348,189.10994764397904,279.7927883017614,151.37065377903073C273.53871718178794,113.63135991408241,267.1821203057494,59.24016646529734,261.1331006979063,65.68666935159081C255.08408109006314,72.13317223788427,249.34263875041543,139.41737145925626,243.29361914257228,178.94213988454825C237.24459953472913,218.46690830984025,230.88800265869057,230.2322459390522,224.53140578265206,236.94187139213318C218.1748089066135,243.6514968452141,211.81821203057493,245.30541012216403,205.5641409106015,244.42207007652033C199.3100697906281,243.53873003087665,193.15852442671985,240.11813666263927,186.9044533067464,236.30285944422073C180.650382186773,232.48758222580213,174.29378531073448,228.27762115720233,168.03971419076103,222.00026849241513C161.78564307078764,215.72291582762787,155.63409770687937,207.37817156665324,149.38002658690596,201.19479124714726C143.12595546693254,195.01141092764132,136.76935859089397,190.98939454960396,130.41276171485544,196.8908578332662C124.05616483881688,202.79232111692843,117.69956796277832,218.61726406229025,111.44549684280491,225.1765337629212C105.19142572283151,231.73580346355217,99.03988035892324,229.0293999194523,92.78580923894982,226.7928581017586C86.5317381189764,224.556316284065,80.17514124293785,222.78963619277758,73.92107012296445,219.19989260303396C67.66699900299103,215.6101490132904,61.51545363908275,210.19734192509063,55.26138251910934,208.3178950194657C49.007311399135936,206.4384481138408,42.65071452309738,208.09236139079073,36.601694915254235,208.44945630285943C30.552675307411103,208.8065512149282,24.811232967763374,207.86682776211572,18.76221335992024,215.44099879178415C12.713193752077101,223.01516982145256,6.356596876038551,239.10323533360182,3.1782984380192754,247.14726808967646L0,255.1913008457511Z" fill="rgb(191, 148, 105)" title="women"></path><path class="layer" d="M0,255.1913008457511L3.1782984380192754,247.14726808967646C6.356596876038551,239.10323533360182,12.713193752077101,223.01516982145256,18.76221335992024,215.44099879178415C24.811232967763374,207.86682776211572,30.552675307411103,208.8065512149282,36.601694915254235,208.44945630285943C42.65071452309738,208.09236139079073,49.007311399135936,206.4384481138408,55.26138251910934,208.3178950194657C61.51545363908275,210.19734192509063,67.66699900299103,215.6101490132904,73.92107012296445,219.19989260303396C80.17514124293785,222.78963619277758,86.5317381189764,224.556316284065,92.78580923894981,226.79285810175864C99.03988035892324,229.0293999194523,105.19142572283151,231.73580346355217,111.44549684280491,225.1765337629212C117.69956796277832,218.61726406229025,124.05616483881688,202.79232111692843,130.41276171485544,196.89085783326618C136.76935859089397,190.98939454960396,143.12595546693254,195.01141092764132,149.38002658690593,201.19479124714726C155.63409770687937,207.37817156665324,161.78564307078764,215.72291582762787,168.03971419076103,222.00026849241507C174.29378531073448,228.27762115720233,180.650382186773,232.48758222580213,186.90445330674643,236.30285944422073C193.15852442671985,240.11813666263927,199.3100697906281,243.53873003087665,205.5641409106015,244.42207007652033C211.81821203057493,245.30541012216403,218.1748089066135,243.6514968452141,224.531405782652,236.94187139213318C230.88800265869057,230.2322459390522,237.24459953472913,218.46690830984025,243.29361914257228,178.94213988454825C249.34263875041543,139.41737145925626,255.08408109006314,72.13317223788427,261.1331006979063,65.68666935159081C267.1821203057494,59.24016646529734,273.53871718178794,113.63135991408241,279.7927883017614,151.37065377903073C286.0468594217348,189.10994764397904,292.19840478564305,210.19734192509063,298.45247590561644,204.2958786414284C304.7065470255899,198.39441535776618,311.06314390162845,165.50409450933012,317.31721502160184,165.74842260706134C323.5712861415753,165.9927507047926,329.72283150548355,199.3717277486911,335.976902625457,216.21157202309033C342.2309737454304,233.0514162974896,348.58757062146896,233.35212780238962,354.9441674975075,233.08900523560212C361.3007643735461,232.82588266881461,367.65736124958454,231.99892603033967,373.911432369558,229.612028460196C380.1655034895314,227.22513089005236,386.3170488534397,223.27829238824003,392.5711199734131,223.07155322862127C398.82519109338654,222.86481406900256,405.1817879694251,226.3981742515774,411.4358590893985,232.82588266881461C417.6899302093719,239.25359108605184,423.84147557328015,248.5756477379514,430.09554669325354,248.6508256141764C436.349617813227,248.72600349040144,442.70621468926555,239.5543025909518,449.062811565304,235.38193046046447C455.4194084413427,231.20955832997717,461.77600531738125,232.03651496845214,467.82502492522434,231.4538864277084C473.8740445330675,230.8712578869647,479.61548687271517,228.87904416700226,485.6645064805584,227.99570412135859C491.71352608840147,227.11236407571485,498.07012296444003,227.33789770438986,504.3241940844134,227.1311585447711C510.5782652043869,226.9244193851524,516.7298105682952,226.28540743723988,522.9838816882685,226.0598738085649C529.237952808242,225.8343401798899,535.5945496842805,226.0222848704524,541.848620804254,222.4513357497651C548.1026919242273,218.88038662907775,554.2542372881356,211.55054369714057,560.508308408109,210.96791515639686C566.7623795280824,210.38528661565314,573.118976404121,216.5498724661028,579.4755732801596,216.70022821855284C585.8321701561981,216.85058397100283,592.1887670322367,210.98670962545307,598.4428381522101,211.70089944959057C604.6969092721835,212.415089273728,610.8484546360918,219.7073432675527,613.9242273180458,223.35347026446505L617,226.99959726137737L617,229.36770036246475L613.9242273180458,225.7591623036649C610.8484546360918,222.15062424486507,604.6969092721835,214.93354812726542,598.4428381522101,214.4260974627467C592.1887670322367,213.91864679822797,585.8321701561981,220.12082158679019,579.4755732801596,220.02684924150893C573.118976404121,219.93287689622767,566.7623795280824,213.54275741710296,560.508308408109,214.0877970197342C554.2542372881356,214.6328366223654,548.1026919242273,222.1130353067526,541.848620804254,225.70277889649617C535.5945496842805,229.2925224862398,529.237952808242,228.99181098133977,522.9838816882685,229.23613907907102C516.7298105682952,229.48046717680222,510.5782652043869,230.2698348771647,504.3241940844135,230.5705463820647C498.07012296444003,230.87125788696468,491.71352608840147,230.6833131964022,485.66450648055826,231.4538864277084C479.61548687271517,232.22445965901463,473.8740445330675,233.95355081218955,467.82502492522434,234.40461806953954C461.77600531738125,234.85568532688953,455.4194084413427,234.02872868841453,449.062811565304,238.01315612833938C442.70621468926555,241.9975835682642,436.349617813227,250.7933950865888,430.09554669325354,250.5302725198013C423.84147557328015,250.2671499530138,417.6899302093719,240.94509330111427,411.43585908939843,234.83689085783328C405.1817879694251,228.7286884145523,398.82519109338654,225.8343401798899,392.5711199734131,226.49214659685865C386.3170488534397,227.14995301382737,380.1655034895314,231.35991408242717,373.911432369558,233.95355081218955C367.65736124958454,236.54718754195196,361.3007643735461,237.5244999328769,354.9441674975075,237.75003356155187C348.58757062146896,237.97556719022688,342.2309737454304,237.4493220566519,335.97690262545694,220.5530943750839C329.72283150548355,203.6568666935159,323.5712861415753,170.39065646395488,317.3172150216019,169.9771781447174C311.06314390162845,169.56369982547992,304.7065470255899,202.002953416566,298.45247590561644,207.92321116928449C292.19840478564305,213.84346892200293,286.0468594217348,193.24473083635385,279.7927883017614,155.63699825479932C273.53871718178794,118.02926567324475,267.1821203057494,63.41253859578469,261.1331006979063,69.55832997717816C255.08408109006314,75.70412135857164,249.34263875041543,142.61243119881865,243.29361914257228,181.7801047120419C237.24459953472913,220.94777822526513,230.88800265869057,232.37481541146462,224.53140578265206,238.93408511209557C218.1748089066135,245.49335481272655,211.81821203057493,247.18485702778898,205.5641409106015,246.82776211572022C199.3100697906281,246.4706672036515,193.15852442671985,244.06497516445157,186.9044533067464,241.5465163109142C180.650382186773,239.02805745737683,174.29378531073448,236.39683178950193,168.03971419076103,231.00281917035844C161.78564307078764,225.6088065512149,155.63409770687937,217.4520069808028,149.38002658690596,210.17854745603435C143.12595546693254,202.90508793126594,136.76935859089397,196.51496845214123,130.41276171485544,201.0632299637535C124.05616483881688,205.6114914753658,117.69956796277832,221.0981339777151,111.44549684280491,227.54463686400857C105.19142572283151,233.99113975030204,99.03988035892324,231.39750302053963,92.78580923894982,229.2925224862398C86.5317381189764,227.18754195193983,80.17514124293785,225.57121761310245,73.92107012296445,221.8875016780776C67.66699900299103,218.20378574305278,61.51545363908275,212.45267821184052,55.26138251910934,210.36649214659687C49.007311399135936,208.2803060813532,42.65071452309738,209.85904148207814,36.601694915254235,210.00939723452814C30.552675307411103,210.15975298697813,24.811232967763374,208.88172909115318,18.76221335992024,216.17398308497786C12.713193752077101,223.46623707880255,6.356596876038551,239.32876896227683,3.1782984380192754,247.26003490401396L0,255.1913008457511Z" fill="rgb(191, 191, 105)" title="police"></path><path class="layer" d="M0,255.1913008457511L3.1782984380192754,247.26003490401396C6.356596876038551,239.32876896227683,12.713193752077101,223.46623707880255,18.76221335992024,216.17398308497786C24.811232967763374,208.88172909115318,30.552675307411103,210.15975298697813,36.601694915254235,210.00939723452814C42.65071452309738,209.85904148207814,49.007311399135936,208.2803060813532,55.26138251910934,210.36649214659687C61.51545363908275,212.45267821184052,67.66699900299103,218.20378574305278,73.92107012296445,221.8875016780776C80.17514124293785,225.57121761310245,86.5317381189764,227.18754195193983,92.78580923894981,229.29252248623973C99.03988035892324,231.39750302053963,105.19142572283151,233.99113975030204,111.44549684280491,227.54463686400857C117.69956796277832,221.0981339777151,124.05616483881688,205.6114914753658,130.41276171485544,201.0632299637535C136.76935859089397,196.51496845214123,143.12595546693254,202.90508793126594,149.38002658690593,210.17854745603438C155.63409770687937,217.4520069808028,161.78564307078764,225.6088065512149,168.03971419076103,231.00281917035844C174.29378531073448,236.39683178950193,180.650382186773,239.02805745737683,186.90445330674643,241.5465163109142C193.15852442671985,244.06497516445157,199.3100697906281,246.4706672036515,205.5641409106015,246.82776211572022C211.81821203057493,247.18485702778898,218.1748089066135,245.49335481272655,224.531405782652,238.93408511209557C230.88800265869057,232.37481541146462,237.24459953472913,220.94777822526513,243.29361914257228,181.7801047120419C249.34263875041543,142.61243119881865,255.08408109006314,75.70412135857164,261.1331006979063,69.55832997717816C267.1821203057494,63.41253859578469,273.53871718178794,118.02926567324475,279.7927883017614,155.63699825479932C286.0468594217348,193.24473083635385,292.19840478564305,213.84346892200293,298.45247590561644,207.92321116928449C304.7065470255899,202.002953416566,311.06314390162845,169.56369982547992,317.31721502160184,169.9771781447174C323.5712861415753,170.39065646395488,329.72283150548355,203.6568666935159,335.976902625457,220.5530943750839C342.2309737454304,237.4493220566519,348.58757062146896,237.97556719022688,354.9441674975075,237.75003356155187C361.3007643735461,237.5244999328769,367.65736124958454,236.54718754195196,373.911432369558,233.95355081218955C380.1655034895314,231.35991408242717,386.3170488534397,227.14995301382737,392.5711199734131,226.49214659685867C398.82519109338654,225.8343401798899,405.1817879694251,228.7286884145523,411.4358590893985,234.83689085783328C417.6899302093719,240.94509330111427,423.84147557328015,250.2671499530138,430.09554669325354,250.53027251980131C436.349617813227,250.7933950865888,442.70621468926555,241.9975835682642,449.062811565304,238.01315612833935C455.4194084413427,234.02872868841453,461.77600531738125,234.85568532688953,467.82502492522434,234.40461806953954C473.8740445330675,233.95355081218955,479.61548687271517,232.22445965901463,485.6645064805584,231.45388642770843C491.71352608840147,230.6833131964022,498.07012296444003,230.87125788696468,504.3241940844134,230.5705463820647C510.5782652043869,230.2698348771647,516.7298105682952,229.48046717680222,522.9838816882685,229.23613907907102C529.237952808242,228.99181098133977,535.5945496842805,229.2925224862398,541.848620804254,225.70277889649617C548.1026919242273,222.1130353067526,554.2542372881356,214.6328366223654,560.508308408109,214.0877970197342C566.7623795280824,213.54275741710296,573.118976404121,219.93287689622767,579.4755732801596,220.02684924150893C585.8321701561981,220.12082158679019,592.1887670322367,213.91864679822797,598.4428381522101,214.4260974627467C604.6969092721835,214.93354812726542,610.8484546360918,222.15062424486507,613.9242273180458,225.7591623036649L617,229.36770036246475L617,232.07410390656463L613.9242273180458,228.59712713115854C610.8484546360918,225.12015035575246,604.6969092721835,218.16619680494023,598.4428381522101,217.39562357363403C592.1887670322367,216.62505034232785,585.8321701561981,222.03785743052762,579.4755732801596,221.53040676600884C573.118976404121,221.02295610149017,566.7623795280824,214.59524768425294,560.508308408109,215.55376560612163C554.2542372881356,216.51228352799035,548.1026919242273,224.85702778896496,541.848620804254,229.79997315075852C535.5945496842805,234.74291851255202,529.237952808242,236.28406497516445,522.9838816882685,237.2613773660894C516.7298105682952,238.23868975701438,510.5782652043869,238.65216807625185,504.3241940844135,238.3326621022956C498.07012296444003,238.01315612833938,491.71352608840147,236.96066586118943,485.66450648055826,236.92307692307693C479.61548687271517,236.88548798496444,473.8740445330675,237.86280037588938,467.82502492522434,237.9003893140019C461.77600531738125,237.93797825211436,455.4194084413427,237.0358437374144,449.062811565304,240.8135320177205C442.70621468926555,244.59122029802657,436.349617813227,253.0487313733387,430.09554669325354,252.6352530541012C423.84147557328015,252.22177473486374,417.6899302093719,242.93730702107666,411.43585908939843,237.1298160826957C405.1817879694251,231.3223251443147,398.82519109338654,228.99181098133977,392.5711199734131,229.79997315075852C386.3170488534397,230.6081353201772,380.1655034895314,234.55497382198953,373.911432369558,236.92307692307693C367.65736124958454,239.2911800241643,361.3007643735461,240.08054772452678,354.9441674975075,239.91139750302057C348.58757062146896,239.7422472815143,342.2309737454304,238.61457913813933,335.97690262545694,221.56799570412136C329.72283150548355,204.52141227010338,323.5712861415753,171.5559135454423,317.3172150216019,171.89421398845482C311.06314390162845,172.23251443146728,304.7065470255899,205.87461404215333,298.45247590561644,213.73070210766545C292.19840478564305,221.58679017317763,286.0468594217348,203.6568666935159,279.7927883017614,166.65055712176132C273.53871718178794,129.64424755000672,267.1821203057494,73.56155188615922,261.1331006979063,78.97435897435898C255.08408109006314,84.38716606255873,249.34263875041543,151.29547590280575,243.29361914257228,189.44824808699158C237.24459953472913,227.60102027117736,230.88800265869057,236.99825479930192,224.53140578265206,242.31708954222043C218.1748089066135,247.63592428513894,211.81821203057493,248.8763592428514,205.5641409106015,248.35011410927643C199.3100697906281,247.82386897570146,193.15852442671985,245.53094375083904,186.9044533067464,243.3319908712579C180.650382186773,241.13303799167673,174.29378531073448,239.02805745737683,168.03971419076103,233.80319505973955C161.78564307078764,228.57833266210227,155.63409770687937,220.23358840112766,149.38002658690596,212.6030339642905C143.12595546693254,204.97247952745337,136.76935859089397,198.0561149147537,130.41276171485544,202.45402067391595C124.05616483881688,206.85192643307826,117.69956796277832,222.56410256410254,111.44549684280491,229.160961202846C105.19142572283151,235.75781984158948,99.03988035892324,233.23936098805208,92.78580923894982,231.58544771110215C86.5317381189764,229.9315344341522,80.17514124293785,229.14216673378974,73.92107012296445,225.64639548932743C67.66699900299103,222.15062424486507,61.51545363908275,215.94844945630288,55.26138251910934,213.93744126728419C49.007311399135936,211.92643307826552,42.65071452309738,214.10659148879043,36.601694915254235,213.99382467445295C30.552675307411103,213.88105786011545,24.811232967763374,211.47536582091553,18.76221335992024,217.97825211437774C12.713193752077101,224.48113840783995,6.356596876038551,239.8926030339643,3.1782984380192754,247.59833534702645L0,255.3040676600886Z" fill="rgb(148, 191, 105)" title="education"></path><path class="layer" d="M0,255.3040676600886L3.1782984380192754,247.59833534702645C6.356596876038551,239.8926030339643,12.713193752077101,224.48113840783995,18.76221335992024,217.97825211437774C24.811232967763374,211.47536582091553,30.552675307411103,213.88105786011545,36.601694915254235,213.99382467445295C42.65071452309738,214.10659148879043,49.007311399135936,211.92643307826552,55.26138251910934,213.93744126728419C61.51545363908275,215.94844945630288,67.66699900299103,222.15062424486507,73.92107012296445,225.64639548932743C80.17514124293785,229.14216673378974,86.5317381189764,229.9315344341522,92.78580923894981,231.58544771110215C99.03988035892324,233.23936098805208,105.19142572283151,235.75781984158948,111.44549684280491,229.160961202846C117.69956796277832,222.56410256410254,124.05616483881688,206.85192643307826,130.41276171485544,202.45402067391595C136.76935859089397,198.0561149147537,143.12595546693254,204.97247952745337,149.38002658690593,212.6030339642905C155.63409770687937,220.23358840112766,161.78564307078764,228.57833266210227,168.03971419076103,233.80319505973955C174.29378531073448,239.02805745737683,180.650382186773,241.13303799167673,186.90445330674643,243.3319908712579C193.15852442671985,245.53094375083904,199.3100697906281,247.82386897570146,205.5641409106015,248.35011410927643C211.81821203057493,248.8763592428514,218.1748089066135,247.63592428513894,224.531405782652,242.31708954222043C230.88800265869057,236.99825479930192,237.24459953472913,227.60102027117736,243.29361914257228,189.44824808699158C249.34263875041543,151.29547590280575,255.08408109006314,84.38716606255873,261.1331006979063,78.97435897435898C267.1821203057494,73.56155188615922,273.53871718178794,129.64424755000672,279.7927883017614,166.6505571217613C286.0468594217348,203.6568666935159,292.19840478564305,221.58679017317763,298.45247590561644,213.73070210766545C304.7065470255899,205.87461404215333,311.06314390162845,172.23251443146728,317.31721502160184,171.89421398845482C323.5712861415753,171.5559135454423,329.72283150548355,204.52141227010338,335.976902625457,221.56799570412136C342.2309737454304,238.61457913813933,348.58757062146896,239.7422472815143,354.9441674975075,239.91139750302057C361.3007643735461,240.08054772452678,367.65736124958454,239.2911800241643,373.911432369558,236.92307692307693C380.1655034895314,234.55497382198953,386.3170488534397,230.6081353201772,392.5711199734131,229.79997315075852C398.82519109338654,228.99181098133977,405.1817879694251,231.3223251443147,411.4358590893985,237.1298160826957C417.6899302093719,242.93730702107666,423.84147557328015,252.22177473486374,430.09554669325354,252.6352530541012C436.349617813227,253.0487313733387,442.70621468926555,244.59122029802657,449.062811565304,240.8135320177205C455.4194084413427,237.0358437374144,461.77600531738125,237.93797825211436,467.82502492522434,237.9003893140019C473.8740445330675,237.86280037588938,479.61548687271517,236.88548798496444,485.6645064805584,236.9230769230769C491.71352608840147,236.96066586118943,498.07012296444003,238.01315612833938,504.3241940844134,238.33266210229564C510.5782652043869,238.65216807625185,516.7298105682952,238.23868975701438,522.9838816882685,237.2613773660894C529.237952808242,236.28406497516445,535.5945496842805,234.74291851255202,541.848620804254,229.79997315075846C548.1026919242273,224.85702778896496,554.2542372881356,216.51228352799035,560.508308408109,215.55376560612163C566.7623795280824,214.59524768425294,573.118976404121,221.02295610149017,579.4755732801596,221.53040676600884C585.8321701561981,222.03785743052762,592.1887670322367,216.62505034232785,598.4428381522101,217.39562357363403C604.6969092721835,218.16619680494023,610.8484546360918,225.12015035575246,613.9242273180458,228.59712713115854L617,232.07410390656463L617,241.8848167539267L613.9242273180458,237.07343267552696C610.8484546360918,232.26204859712712,604.6969092721835,222.63928044032755,598.4428381522101,220.96657269432137C592.1887670322367,219.29386494831522,585.8321701561981,225.57121761310245,579.4755732801596,225.8719291180024C573.118976404121,226.17264062290238,566.7623795280824,220.49671096791516,560.508308408109,221.71835145657136C554.2542372881356,222.93999194522758,548.1026919242273,231.0592025775272,541.848620804254,235.11880789367703C535.5945496842805,239.1784132098268,529.237952808242,239.1784132098268,522.9838816882685,239.9301919720768C516.7298105682952,240.68197073432677,510.5782652043869,242.1855282588267,504.3241940844135,241.94120016109545C498.07012296444003,241.69687206336422,491.71352608840147,239.7046583434018,485.66450648055826,239.08444086454554C479.61548687271517,238.46422338568937,473.8740445330675,239.21600214793932,467.82502492522434,240.3624647603705C461.77600531738125,241.5089273728017,455.4194084413427,243.0500738354141,449.062811565304,246.67740636327025C442.70621468926555,250.30473889112633,436.349617813227,256.01825748422607,430.09554669325354,258.048060142301C423.84147557328015,260.0778628003759,417.6899302093719,258.42394952342596,411.43585908939843,254.9657672170761C405.1817879694251,251.50758491072625,398.82519109338654,246.2451335749765,392.5711199734131,245.06108202443284C386.3170488534397,243.8770304738891,380.1655034895314,246.77137870855145,373.911432369558,247.41039065646396C367.65736124958454,248.0494026043764,361.3007643735461,246.43307826553902,354.9441674975075,245.45576587461403C348.58757062146896,244.4784534836891,342.2309737454304,244.1401530406766,335.97690262545694,226.88683044703987C329.72283150548355,209.63350785340313,323.5712861415753,175.46516310914217,317.3172150216019,174.95771244462344C311.06314390162845,174.4502617801047,304.7065470255899,207.60370519532822,298.45247590561644,215.1590817559404C292.19840478564305,222.71445831655254,286.0468594217348,204.67176802255335,279.7927883017614,167.77822526513626C273.53871718178794,130.88468250771916,267.1821203057494,75.14028728688416,261.1331006979063,80.62827225130893C255.08408109006314,86.11625721573368,249.34263875041543,152.83662236541818,243.29361914257228,191.2337226473352C237.24459953472913,229.63082292925228,230.88800265869057,239.7046583434018,224.53140578265206,244.92952074103906C218.1748089066135,250.1543831386763,211.81821203057493,250.53027251980131,205.5641409106015,250.04161632433883C199.3100697906281,249.55296012887638,193.15852442671985,248.19975835682644,186.9044533067464,246.28272251308897C180.650382186773,244.3656866693516,174.29378531073448,241.88481675392669,168.03971419076103,236.4156262585582C161.78564307078764,230.9464357631897,155.63409770687937,222.48892468787756,149.38002658690596,215.29064303933413C143.12595546693254,208.09236139079073,136.76935859089397,202.15330916901598,130.41276171485544,206.983487716472C124.05616483881688,211.813666263928,117.69956796277832,227.41307558061484,111.44549684280491,234.63015169821452C105.19142572283151,241.84722781581422,99.03988035892324,240.68197073432677,92.78580923894982,238.8589072358706C86.5317381189764,237.0358437374144,80.17514124293785,234.5549738219895,73.92107012296445,232.2808430661834C67.66699900299103,230.00671231037722,61.51545363908275,227.93932071418985,55.26138251910934,228.4655658477648C49.007311399135936,228.99181098133977,42.65071452309738,232.11169284467715,36.601694915254235,231.82977580883343C30.552675307411103,231.54785877298968,24.811232967763374,227.8641428379648,18.76221335992024,231.84857027788962C12.713193752077101,235.83299771781446,6.356596876038551,247.48556853268894,3.1782984380192754,253.31185394012618L0,259.1381393475634Z" fill="rgb(105, 191, 105)" title="executive"></path><path class="layer" d="M0,259.1381393475634L3.1782984380192754,253.31185394012618C6.356596876038551,247.48556853268894,12.713193752077101,235.83299771781446,18.76221335992024,231.84857027788965C24.811232967763374,227.8641428379648,30.552675307411103,231.54785877298968,36.601694915254235,231.82977580883343C42.65071452309738,232.11169284467715,49.007311399135936,228.99181098133977,55.26138251910934,228.4655658477648C61.51545363908275,227.93932071418985,67.66699900299103,230.00671231037722,73.92107012296445,232.2808430661834C80.17514124293785,234.5549738219895,86.5317381189764,237.0358437374144,92.78580923894981,238.8589072358706C99.03988035892324,240.68197073432677,105.19142572283151,241.84722781581422,111.44549684280491,234.63015169821452C117.69956796277832,227.41307558061484,124.05616483881688,211.813666263928,130.41276171485544,206.98348771647204C136.76935859089397,202.15330916901598,143.12595546693254,208.09236139079073,149.38002658690593,215.29064303933413C155.63409770687937,222.48892468787756,161.78564307078764,230.9464357631897,168.03971419076103,236.41562625855818C174.29378531073448,241.88481675392669,180.650382186773,244.3656866693516,186.90445330674643,246.28272251308897C193.15852442671985,248.19975835682644,199.3100697906281,249.55296012887638,205.5641409106015,250.04161632433883C211.81821203057493,250.53027251980131,218.1748089066135,250.1543831386763,224.531405782652,244.92952074103906C230.88800265869057,239.7046583434018,237.24459953472913,229.63082292925228,243.29361914257228,191.23372264733518C249.34263875041543,152.83662236541818,255.08408109006314,86.11625721573368,261.1331006979063,80.62827225130893C267.1821203057494,75.14028728688416,273.53871718178794,130.88468250771916,279.7927883017614,167.77822526513629C286.0468594217348,204.67176802255335,292.19840478564305,222.71445831655254,298.45247590561644,215.15908175594038C304.7065470255899,207.60370519532822,311.06314390162845,174.4502617801047,317.31721502160184,174.95771244462344C323.5712861415753,175.46516310914217,329.72283150548355,209.63350785340313,335.976902625457,226.88683044703987C342.2309737454304,244.1401530406766,348.58757062146896,244.4784534836891,354.9441674975075,245.45576587461406C361.3007643735461,246.43307826553902,367.65736124958454,248.0494026043764,373.911432369558,247.41039065646396C380.1655034895314,246.77137870855145,386.3170488534397,243.8770304738891,392.5711199734131,245.06108202443284C398.82519109338654,246.2451335749765,405.1817879694251,251.50758491072625,411.4358590893985,254.9657672170761C417.6899302093719,258.42394952342596,423.84147557328015,260.0778628003759,430.09554669325354,258.048060142301C436.349617813227,256.01825748422607,442.70621468926555,250.30473889112633,449.062811565304,246.67740636327025C455.4194084413427,243.0500738354141,461.77600531738125,241.5089273728017,467.82502492522434,240.3624647603705C473.8740445330675,239.21600214793932,479.61548687271517,238.46422338568937,485.6645064805584,239.08444086454554C491.71352608840147,239.7046583434018,498.07012296444003,241.69687206336422,504.3241940844134,241.94120016109545C510.5782652043869,242.1855282588267,516.7298105682952,240.68197073432677,522.9838816882685,239.9301919720768C529.237952808242,239.1784132098268,535.5945496842805,239.1784132098268,541.848620804254,235.11880789367703C548.1026919242273,231.0592025775272,554.2542372881356,222.93999194522758,560.508308408109,221.71835145657136C566.7623795280824,220.49671096791516,573.118976404121,226.17264062290238,579.4755732801596,225.8719291180024C585.8321701561981,225.57121761310245,592.1887670322367,219.29386494831522,598.4428381522101,220.9665726943214C604.6969092721835,222.63928044032755,610.8484546360918,232.26204859712712,613.9242273180458,237.07343267552696L617,241.8848167539267L617,244.81675392670158L613.9242273180458,240.1933145388643C610.8484546360918,235.569875151027,604.6969092721835,226.3229963753524,598.4428381522101,225.2893005772587C592.1887670322367,224.25560477916497,585.8321701561981,231.43509195865215,579.4755732801596,237.24258289703315C573.118976404121,243.0500738354141,566.7623795280824,247.48556853268894,560.508308408109,248.33131964022016C554.2542372881356,249.17707074775137,548.1026919242273,246.43307826553897,541.848620804254,245.1362599006578C535.5945496842805,243.83944153577661,529.237952808242,243.98979728822664,522.9838816882685,244.4784534836891C516.7298105682952,244.96710967915158,510.5782652043869,245.79406631762652,504.3241940844135,245.13625990065782C498.07012296444003,244.4784534836891,491.71352608840147,242.33588401127668,485.66450648055826,243.83944153577661C479.61548687271517,245.34299906027658,473.8740445330675,250.4926835816888,467.82502492522434,251.75191300845754C461.77600531738125,253.01114243522622,455.4194084413427,250.37991676735132,449.062811565304,251.864679822795C442.70621468926555,253.3494428782387,436.349617813227,258.95019465700096,430.09554669325354,260.9236139079071C423.84147557328015,262.89703315881326,417.6899302093719,261.2431198818633,411.43585908939843,257.86011545173847C405.1817879694251,254.4771110216136,398.82519109338654,249.36501543831386,392.5711199734131,248.0494026043764C386.3170488534397,246.733789770439,380.1655034895314,249.2146596858639,373.911432369558,250.09799973150757C367.65736124958454,250.9813397771513,361.3007643735461,250.2671499530138,354.9441674975075,250.88736743187008C348.58757062146896,251.50758491072625,342.2309737454304,253.46220969257618,335.97690262545694,252.93596455900123C329.72283150548355,252.40971942542623,323.5712861415753,249.40260437642635,317.3172150216019,247.71110216136398C311.06314390162845,246.0195999463015,304.7065470255899,245.64371056517652,298.45247590561644,236.45321519667073C292.19840478564305,227.26271982816488,286.0468594217348,209.25761847227815,279.7927883017614,172.8715263793798C273.53871718178794,136.48543428648142,267.1821203057494,81.71835145657134,261.1331006979063,87.14995301382736C255.08408109006314,92.58155457108336,249.34263875041543,158.21184051550543,243.29361914257228,196.5337629211975C237.24459953472913,234.85568532688953,230.88800265869057,245.86924419385153,224.53140578265206,251.2068734058263C218.1748089066135,256.5445026178011,211.81821203057493,256.2062021747886,205.5641409106015,255.11612296952612C199.3100697906281,254.02604376426368,193.15852442671985,252.18418579675122,186.9044533067464,249.92884951000133C180.650382186773,247.67351322325143,174.29378531073448,245.00469861726404,168.03971419076103,243.40716874748287C161.78564307078764,241.8096388777017,155.63409770687937,241.28339374412676,149.38002658690596,234.46100147670828C143.12595546693254,227.63860920928983,136.76935859089397,214.52006980802796,130.41276171485544,215.40340985367163C124.05616483881688,216.28674989931537,117.69956796277832,231.17196939186468,111.44549684280491,238.12592294267688C105.19142572283151,245.07987649348908,99.03988035892324,244.10256410256412,92.78580923894982,244.29050879312658C86.5317381189764,244.4784534836891,80.17514124293785,245.83165525573904,73.92107012296445,243.8394415357766C67.66699900299103,241.8472278158142,61.51545363908275,236.50959860383944,55.26138251910934,235.90817559403948C49.007311399135936,235.3067525842395,42.65071452309738,239.4415357766143,36.601694915254235,243.3319908712579C30.552675307411103,247.22244596590147,24.811232967763374,250.8685729628138,18.76221335992024,256.5257081487448C12.713193752077101,262.1828433346758,6.356596876038551,269.8509867096255,3.1782984380192754,273.6850583971003L0,277.5191300845751Z" fill="rgb(105, 191, 148)" title="immigration"></path><path class="layer" d="M0,277.5191300845751L3.1782984380192754,273.6850583971003C6.356596876038551,269.8509867096255,12.713193752077101,262.1828433346758,18.76221335992024,256.5257081487448C24.811232967763374,250.8685729628138,30.552675307411103,247.22244596590147,36.601694915254235,243.3319908712579C42.65071452309738,239.4415357766143,49.007311399135936,235.3067525842395,55.26138251910934,235.90817559403945C61.51545363908275,236.50959860383944,67.66699900299103,241.8472278158142,73.92107012296445,243.8394415357766C80.17514124293785,245.83165525573904,86.5317381189764,244.4784534836891,92.78580923894981,244.2905087931266C99.03988035892324,244.10256410256412,105.19142572283151,245.07987649348908,111.44549684280491,238.12592294267688C117.69956796277832,231.17196939186468,124.05616483881688,216.28674989931537,130.41276171485544,215.40340985367163C136.76935859089397,214.52006980802796,143.12595546693254,227.63860920928983,149.38002658690593,234.46100147670828C155.63409770687937,241.28339374412676,161.78564307078764,241.8096388777017,168.03971419076103,243.40716874748287C174.29378531073448,245.00469861726404,180.650382186773,247.67351322325143,186.90445330674643,249.92884951000136C193.15852442671985,252.18418579675122,199.3100697906281,254.02604376426368,205.5641409106015,255.11612296952612C211.81821203057493,256.2062021747886,218.1748089066135,256.5445026178011,224.531405782652,251.20687340582631C230.88800265869057,245.86924419385153,237.24459953472913,234.85568532688953,243.29361914257228,196.53376292119745C249.34263875041543,158.21184051550543,255.08408109006314,92.58155457108336,261.1331006979063,87.14995301382736C267.1821203057494,81.71835145657134,273.53871718178794,136.48543428648142,279.7927883017614,172.8715263793798C286.0468594217348,209.25761847227815,292.19840478564305,227.26271982816488,298.45247590561644,236.4532151966707C304.7065470255899,245.64371056517652,311.06314390162845,246.0195999463015,317.31721502160184,247.71110216136398C323.5712861415753,249.40260437642635,329.72283150548355,252.40971942542623,335.976902625457,252.93596455900123C342.2309737454304,253.46220969257618,348.58757062146896,251.50758491072625,354.9441674975075,250.88736743187008C361.3007643735461,250.2671499530138,367.65736124958454,250.9813397771513,373.911432369558,250.0979997315076C380.1655034895314,249.2146596858639,386.3170488534397,246.733789770439,392.5711199734131,248.0494026043764C398.82519109338654,249.36501543831386,405.1817879694251,254.4771110216136,411.4358590893985,257.86011545173847C417.6899302093719,261.2431198818633,423.84147557328015,262.89703315881326,430.09554669325354,260.9236139079071C436.349617813227,258.95019465700096,442.70621468926555,253.3494428782387,449.062811565304,251.864679822795C455.4194084413427,250.37991676735132,461.77600531738125,253.01114243522622,467.82502492522434,251.75191300845754C473.8740445330675,250.4926835816888,479.61548687271517,245.34299906027658,485.6645064805584,243.83944153577661C491.71352608840147,242.33588401127668,498.07012296444003,244.4784534836891,504.3241940844134,245.1362599006578C510.5782652043869,245.79406631762652,516.7298105682952,244.96710967915158,522.9838816882685,244.4784534836891C529.237952808242,243.98979728822664,535.5945496842805,243.83944153577661,541.848620804254,245.1362599006578C548.1026919242273,246.43307826553897,554.2542372881356,249.17707074775137,560.508308408109,248.33131964022016C566.7623795280824,247.48556853268894,573.118976404121,243.0500738354141,579.4755732801596,237.24258289703315C585.8321701561981,231.43509195865215,592.1887670322367,224.25560477916497,598.4428381522101,225.2893005772587C604.6969092721835,226.3229963753524,610.8484546360918,235.569875151027,613.9242273180458,240.19331453886426L617,244.81675392670158L617,245.49335481272652L613.9242273180458,241.15183246073298C610.8484546360918,236.8103101087394,604.6969092721835,228.12726540475228,598.4428381522101,229.236139079071C592.1887670322367,230.3450127533897,585.8321701561981,241.24580480601423,579.4755732801596,246.80896764666397C573.118976404121,252.37213048731374,566.7623795280824,252.59766411598875,560.508308408109,251.92106322996372C554.2542372881356,251.2444623439388,548.1026919242273,249.66572694321385,541.848620804254,248.40649751644517C535.5945496842805,247.14726808967646,529.237952808242,246.207544636864,522.9838816882685,246.32031145120152C516.7298105682952,246.43307826553897,510.5782652043869,247.59833534702645,504.3241940844135,247.1472680896765C498.07012296444003,246.69620083232653,491.71352608840147,244.6288092361391,485.66450648055826,246.00080547724528C479.61548687271517,247.3728017183515,473.8740445330675,252.18418579675122,467.82502492522434,253.27426500201372C461.77600531738125,254.36434420727616,455.4194084413427,251.73311853940126,449.062811565304,253.1239092495637C442.70621468926555,254.51469995972616,436.349617813227,259.92750704792587,430.09554669325354,261.9009262988321C423.84147557328015,263.87434554973817,417.6899302093719,262.40837696335075,411.43585908939843,259.1193448785072C405.1817879694251,255.83031279366355,398.82519109338654,250.7182172103638,392.5711199734131,249.4213988454826C386.3170488534397,248.1245804806014,380.1655034895314,250.64303933413882,373.911432369558,251.84588535373874C367.65736124958454,253.04873137333868,361.3007643735461,252.93596455900118,354.9441674975075,253.91327694992614C348.58757062146896,254.8905893408511,342.2309737454304,256.95798093703854,335.97690262545694,256.99556987515103C329.72283150548355,257.0331588132635,323.5712861415753,255.04094509330113,317.3172150216019,253.4997986306887C311.06314390162845,251.95865216807624,304.7065470255899,250.8685729628138,298.45247590561644,250.11679420056385C292.19840478564305,249.36501543831386,286.0468594217348,248.9515371190764,279.7927883017614,249.91005504094508C273.53871718178794,250.8685729628138,267.1821203057494,253.19908712578868,261.1331006979063,253.89448248086993C255.08408109006314,254.58987783595114,249.34263875041543,253.65015438313867,243.29361914257228,254.0072492952074C237.24459953472913,254.36434420727616,230.88800265869057,256.01825748422607,224.53140578265206,256.6384749630823C218.1748089066135,257.25869244193854,211.81821203057493,256.845214122701,205.5641409106015,255.67995704121358C199.3100697906281,254.51469995972613,193.15852442671985,252.59766411598875,186.9044533067464,250.58665592697005C180.650382186773,248.57564773795139,174.29378531073448,246.4706672036515,168.03971419076103,244.8919318029266C161.78564307078764,243.31319640220167,155.63409770687937,242.2607061350517,149.38002658690596,235.17519130084577C143.12595546693254,228.08967646663982,136.76935859089397,214.9711370653779,130.41276171485544,215.89206604913412C124.05616483881688,216.8129950328903,117.69956796277832,231.77339240166467,111.44549684280491,238.8964961739831C105.19142572283151,246.0195999463015,99.03988035892324,245.30541012216403,92.78580923894982,245.49335481272655C86.5317381189764,245.681299503289,80.17514124293785,246.77137870855145,73.92107012296445,244.6663981742516C67.66699900299103,242.56141763995166,61.51545363908275,237.2613773660894,55.26138251910934,236.67874882534568C49.007311399135936,236.09612028460197,42.65071452309738,240.23090347697678,36.601694915254235,243.98979728822658C30.552675307411103,247.74869109947645,24.811232967763374,251.1316955296013,18.76221335992024,256.65726943213855C12.713193752077101,262.1828433346758,6.356596876038551,269.8509867096255,3.1782984380192754,273.6850583971003L0,277.5191300845751Z" fill="rgb(105, 191, 191)" title="guns"></path><path class="layer" d="M0,277.5191300845751L3.1782984380192754,273.6850583971003C6.356596876038551,269.8509867096255,12.713193752077101,262.1828433346758,18.76221335992024,256.65726943213855C24.811232967763374,251.1316955296013,30.552675307411103,247.74869109947645,36.601694915254235,243.98979728822664C42.65071452309738,240.23090347697678,49.007311399135936,236.09612028460197,55.26138251910934,236.67874882534568C61.51545363908275,237.2613773660894,67.66699900299103,242.56141763995166,73.92107012296445,244.6663981742516C80.17514124293785,246.77137870855145,86.5317381189764,245.681299503289,92.78580923894981,245.49335481272655C99.03988035892324,245.30541012216403,105.19142572283151,246.0195999463015,111.44549684280491,238.8964961739831C117.69956796277832,231.77339240166467,124.05616483881688,216.8129950328903,130.41276171485544,215.89206604913412C136.76935859089397,214.9711370653779,143.12595546693254,228.08967646663982,149.38002658690593,235.17519130084577C155.63409770687937,242.2607061350517,161.78564307078764,243.31319640220167,168.03971419076103,244.8919318029266C174.29378531073448,246.4706672036515,180.650382186773,248.57564773795139,186.90445330674643,250.5866559269701C193.15852442671985,252.59766411598875,199.3100697906281,254.51469995972613,205.5641409106015,255.67995704121358C211.81821203057493,256.845214122701,218.1748089066135,257.25869244193854,224.531405782652,256.6384749630823C230.88800265869057,256.01825748422607,237.24459953472913,254.36434420727616,243.29361914257228,254.00724929520743C249.34263875041543,253.65015438313867,255.08408109006314,254.58987783595114,261.1331006979063,253.8944824808699C267.1821203057494,253.19908712578868,273.53871718178794,250.8685729628138,279.7927883017614,249.91005504094508C286.0468594217348,248.9515371190764,292.19840478564305,249.36501543831386,298.45247590561644,250.11679420056385C304.7065470255899,250.8685729628138,311.06314390162845,251.95865216807624,317.31721502160184,253.4997986306887C323.5712861415753,255.04094509330113,329.72283150548355,257.0331588132635,335.976902625457,256.99556987515103C342.2309737454304,256.95798093703854,348.58757062146896,254.8905893408511,354.9441674975075,253.91327694992617C361.3007643735461,252.93596455900118,367.65736124958454,253.04873137333868,373.911432369558,251.84588535373874C380.1655034895314,250.64303933413882,386.3170488534397,248.1245804806014,392.5711199734131,249.4213988454826C398.82519109338654,250.7182172103638,405.1817879694251,255.83031279366355,411.4358590893985,259.1193448785072C417.6899302093719,262.40837696335075,423.84147557328015,263.87434554973817,430.09554669325354,261.9009262988321C436.349617813227,259.92750704792587,442.70621468926555,254.51469995972616,449.062811565304,253.1239092495637C455.4194084413427,251.73311853940126,461.77600531738125,254.36434420727616,467.82502492522434,253.27426500201372C473.8740445330675,252.18418579675122,479.61548687271517,247.3728017183515,485.6645064805584,246.00080547724528C491.71352608840147,244.6288092361391,498.07012296444003,246.69620083232653,504.3241940844134,247.1472680896765C510.5782652043869,247.59833534702645,516.7298105682952,246.43307826553897,522.9838816882685,246.32031145120152C529.237952808242,246.207544636864,535.5945496842805,247.14726808967646,541.848620804254,248.40649751644517C548.1026919242273,249.66572694321385,554.2542372881356,251.2444623439388,560.508308408109,251.92106322996372C566.7623795280824,252.59766411598875,573.118976404121,252.37213048731374,579.4755732801596,246.808967646664C585.8321701561981,241.24580480601423,592.1887670322367,230.3450127533897,598.4428381522101,229.236139079071C604.6969092721835,228.12726540475228,610.8484546360918,236.8103101087394,613.9242273180458,241.15183246073298L617,245.49335481272652L617,250.22956101490132L613.9242273180458,245.681299503289C610.8484546360918,241.13303799167673,604.6969092721835,232.03651496845214,598.4428381522101,233.25815545710836C592.1887670322367,234.47979594576455,585.8321701561981,246.01959994630155,579.4755732801596,251.67673513223255C573.118976404121,257.3338703181635,566.7623795280824,257.10833668948857,560.508308408109,256.03705195328234C554.2542372881356,254.96576721707615,548.1026919242273,253.0487313733387,541.848620804254,252.0526245133575C535.5945496842805,251.0565176533763,529.237952808242,250.9813397771513,522.9838816882685,251.30084575110754C516.7298105682952,251.62035172506376,510.5782652043869,252.33454154920125,504.3241940844135,251.69552960128877C498.07012296444003,251.0565176533763,491.71352608840147,249.06430393341387,485.66450648055826,250.4738891126326C479.61548687271517,251.88347429185126,473.8740445330675,256.69485837025104,467.82502492522434,259.34487850718216C461.77600531738125,261.99489864411333,455.4194084413427,262.4835548395758,449.062811565304,263.4420727614445C442.70621468926555,264.40059068331317,436.349617813227,265.82897033158815,430.09554669325354,266.18606524365686C423.84147557328015,266.5431601557256,417.6899302093719,265.82897033158815,411.43585908939843,263.1413612565445C405.1817879694251,260.4537521815009,398.82519109338654,255.7927238555511,392.5711199734131,254.7966169955699C386.3170488534397,253.80051013558867,380.1655034895314,256.46932474157603,373.911432369558,258.2172103638072C367.65736124958454,259.9650959860384,361.3007643735461,260.79205262451336,354.9441674975075,261.44985904148206C348.58757062146896,262.1076654584508,342.2309737454304,262.59632165391326,335.97690262545694,261.97610417505706C329.72283150548355,261.35588669620086,323.5712861415753,259.62679554302593,317.3172150216019,258.10444354946975C311.06314390162845,256.58209155591356,304.7065470255899,255.2664787219761,298.45247590561644,254.92817827896363C292.19840478564305,254.58987783595114,286.0468594217348,255.2288897838636,279.7927883017614,256.4129413344073C273.53871718178794,257.596992884951,267.1821203057494,259.32608403812594,261.1331006979063,259.6643844811384C255.08408109006314,260.0026849241509,249.34263875041543,258.95019465700096,243.29361914257228,260.43495771244466C237.24459953472913,261.91972076788835,230.88800265869057,265.94173714592563,224.53140578265206,266.2236541817694C218.1748089066135,266.5055712176131,211.81821203057493,263.0473889112632,205.5641409106015,261.2995032890321C199.3100697906281,259.5516176668009,193.15852442671985,259.5140287286884,186.9044533067464,259.57041213585717C180.650382186773,259.62679554302593,174.29378531073448,259.7771512954759,168.03971419076103,259.94630151698215C161.78564307078764,260.1154517384884,155.63409770687937,260.3033964290509,149.38002658690596,260.0966572694321C143.12595546693254,259.8899181098134,136.76935859089397,259.28849510001345,130.41276171485544,257.63458182306346C124.05616483881688,255.9806685461136,117.69956796277832,253.27426500201372,111.44549684280491,251.75191300845748C105.19142572283151,250.22956101490135,99.03988035892324,249.89126057188886,92.78580923894982,250.54906698885756C86.5317381189764,251.2068734058263,80.17514124293785,252.8607866827762,73.92107012296445,250.54906698885756C67.66699900299103,248.2373472949389,61.51545363908275,241.95999463015167,55.26138251910934,240.96388777017046C49.007311399135936,239.96778091018928,42.65071452309738,244.25291985501408,36.601694915254235,247.84266344475768C30.552675307411103,251.43240703450127,24.811232967763374,254.32675526916364,18.76221335992024,259.2697006309572C12.713193752077101,264.21264599275077,6.356596876038551,271.20418848167543,3.1782984380192754,274.69995972613776L0,278.1957309706001Z" fill="rgb(105, 148, 191)" title="race_confed"></path><path class="layer" d="M0,278.1957309706001L3.1782984380192754,274.69995972613776C6.356596876038551,271.20418848167543,12.713193752077101,264.21264599275077,18.76221335992024,259.2697006309572C24.811232967763374,254.32675526916364,30.552675307411103,251.43240703450127,36.601694915254235,247.84266344475768C42.65071452309738,244.25291985501408,49.007311399135936,239.96778091018928,55.26138251910934,240.9638877701705C61.51545363908275,241.95999463015167,67.66699900299103,248.2373472949389,73.92107012296445,250.54906698885756C80.17514124293785,252.8607866827762,86.5317381189764,251.2068734058263,92.78580923894981,250.54906698885756C99.03988035892324,249.89126057188886,105.19142572283151,250.22956101490135,111.44549684280491,251.75191300845748C117.69956796277832,253.27426500201372,124.05616483881688,255.9806685461136,130.41276171485544,257.63458182306346C136.76935859089397,259.28849510001345,143.12595546693254,259.8899181098134,149.38002658690593,260.0966572694321C155.63409770687937,260.3033964290509,161.78564307078764,260.1154517384884,168.03971419076103,259.94630151698215C174.29378531073448,259.7771512954759,180.650382186773,259.62679554302593,186.90445330674643,259.57041213585717C193.15852442671985,259.5140287286884,199.3100697906281,259.5516176668009,205.5641409106015,261.2995032890321C211.81821203057493,263.0473889112632,218.1748089066135,266.5055712176131,224.531405782652,266.2236541817694C230.88800265869057,265.94173714592563,237.24459953472913,261.91972076788835,243.29361914257228,260.43495771244466C249.34263875041543,258.95019465700096,255.08408109006314,260.0026849241509,261.1331006979063,259.6643844811384C267.1821203057494,259.32608403812594,273.53871718178794,257.596992884951,279.7927883017614,256.4129413344073C286.0468594217348,255.2288897838636,292.19840478564305,254.58987783595114,298.45247590561644,254.92817827896363C304.7065470255899,255.2664787219761,311.06314390162845,256.58209155591356,317.31721502160184,258.10444354946975C323.5712861415753,259.62679554302593,329.72283150548355,261.35588669620086,335.976902625457,261.97610417505706C342.2309737454304,262.59632165391326,348.58757062146896,262.1076654584508,354.9441674975075,261.44985904148206C361.3007643735461,260.79205262451336,367.65736124958454,259.9650959860384,373.911432369558,258.2172103638072C380.1655034895314,256.46932474157603,386.3170488534397,253.80051013558867,392.5711199734131,254.7966169955699C398.82519109338654,255.7927238555511,405.1817879694251,260.4537521815009,411.4358590893985,263.14136125654454C417.6899302093719,265.82897033158815,423.84147557328015,266.5431601557256,430.09554669325354,266.18606524365686C436.349617813227,265.82897033158815,442.70621468926555,264.40059068331317,449.062811565304,263.4420727614445C455.4194084413427,262.4835548395758,461.77600531738125,261.99489864411333,467.82502492522434,259.34487850718216C473.8740445330675,256.69485837025104,479.61548687271517,251.88347429185126,485.6645064805584,250.4738891126326C491.71352608840147,249.06430393341387,498.07012296444003,251.0565176533763,504.3241940844134,251.69552960128877C510.5782652043869,252.33454154920125,516.7298105682952,251.62035172506376,522.9838816882685,251.30084575110754C529.237952808242,250.9813397771513,535.5945496842805,251.0565176533763,541.848620804254,252.0526245133575C548.1026919242273,253.0487313733387,554.2542372881356,254.96576721707615,560.508308408109,256.03705195328234C566.7623795280824,257.10833668948857,573.118976404121,257.3338703181635,579.4755732801596,251.67673513223255C585.8321701561981,246.01959994630155,592.1887670322367,234.47979594576455,598.4428381522101,233.2581554571083C604.6969092721835,232.03651496845214,610.8484546360918,241.13303799167673,613.9242273180458,245.681299503289L617,250.22956101490132L617,256.770036246476L613.9242273180458,252.10900792052624C610.8484546360918,247.44797959457642,604.6969092721835,238.12592294267688,598.4428381522101,239.10323533360182C592.1887670322367,240.08054772452678,585.8321701561981,251.35722915827625,579.4755732801596,256.9579809370385C573.118976404121,262.5587327158008,566.7623795280824,262.4835548395758,560.508308408109,261.69418713921334C554.2542372881356,260.9048194388509,548.1026919242273,259.4012619143509,541.848620804254,258.76224996643845C535.5945496842805,258.123238018526,529.237952808242,258.348771647201,522.9838816882685,258.29238824003227C516.7298105682952,258.2360048328635,510.5782652043869,257.897704389851,504.3241940844135,256.7700362464761C498.07012296444003,255.64236810310112,491.71352608840147,253.72533225936368,485.66450648055826,254.81541146462612C479.61548687271517,255.90549066988856,473.8740445330675,260.0026849241509,467.82502492522434,262.38958249429453C461.77600531738125,264.7764800644382,455.4194084413427,265.4530809504632,449.062811565304,266.5431601557256C442.70621468926555,267.63323936098806,436.349617813227,269.13679688548797,430.09554669325354,269.3059471069942C423.84147557328015,269.47509732850045,417.6899302093719,268.309840247013,411.43585908939843,266.74989931534435C405.1817879694251,265.1899583836757,398.82519109338654,263.23533360182574,392.5711199734131,262.9158276278695C386.3170488534397,262.59632165391326,380.1655034895314,263.9119344878507,373.911432369558,264.9080413478319C367.65736124958454,265.90414820781314,361.3007643735461,266.5807490938381,354.9441674975075,266.8250771915694C348.58757062146896,267.0694052893006,342.2309737454304,266.8814605987381,335.97690262545694,266.0169150221506C329.72283150548355,265.1523694455632,323.5712861415753,263.6112229829507,317.3172150216019,262.05128205128204C311.06314390162845,260.4913411196134,304.7065470255899,258.91260571888847,298.45247590561644,258.348771647201C292.19840478564305,257.78493757551354,286.0468594217348,258.2360048328635,279.7927883017614,259.38246744529465C273.53871718178794,260.52893005772586,267.1821203057494,262.37078802523826,261.1331006979063,263.3856893542757C255.08408109006314,264.40059068331317,249.34263875041543,264.5885353738757,243.29361914257228,265.79138139347566C237.24459953472913,266.9942274130756,230.88800265869057,269.211974761713,224.53140578265206,268.7233185662505C218.1748089066135,268.23466237078804,211.81821203057493,265.0396026312257,205.5641409106015,263.6112229829507C199.3100697906281,262.1828433346758,193.15852442671985,262.5211437776883,186.9044533067464,262.6339105920258C180.650382186773,262.7466774063633,174.29378531073448,262.63391059202576,168.03971419076103,262.84064975164455C161.78564307078764,263.0473889112632,155.63409770687937,263.57363404483823,149.38002658690596,263.3668948852195C143.12595546693254,263.16015572560076,136.76935859089397,262.2204322727883,130.41276171485544,260.1906296147134C124.05616483881688,258.16082695663846,117.69956796277832,255.04094509330108,111.44549684280491,253.4997986306887C105.19142572283151,251.95865216807624,99.03988035892324,251.99624110618876,92.78580923894982,253.06752584239496C86.5317381189764,254.13881057860115,80.17514124293785,256.2437911129011,73.92107012296445,253.9696603570949C67.66699900299103,251.69552960128877,61.51545363908275,245.04228755537656,55.26138251910934,243.8206470667204C49.007311399135936,242.59900657806418,42.65071452309738,246.80896764666397,36.601694915254235,249.98523291717007C30.552675307411103,253.16149818767622,24.811232967763374,255.30406766008858,18.76221335992024,259.83353470264467C12.713193752077101,264.36300174520073,6.356596876038551,271.2793663579004,3.1782984380192754,274.73754866425026L0,278.1957309706001Z" fill="rgb(105, 105, 191)" title="collective_bargaining"></path><path class="layer" d="M0,278.1957309706001L3.1782984380192754,274.73754866425026C6.356596876038551,271.2793663579004,12.713193752077101,264.36300174520073,18.76221335992024,259.83353470264467C24.811232967763374,255.30406766008858,30.552675307411103,253.16149818767622,36.601694915254235,249.98523291717007C42.65071452309738,246.80896764666397,49.007311399135936,242.59900657806418,55.26138251910934,243.82064706672034C61.51545363908275,245.04228755537656,67.66699900299103,251.69552960128877,73.92107012296445,253.9696603570949C80.17514124293785,256.2437911129011,86.5317381189764,254.13881057860115,92.78580923894981,253.06752584239496C99.03988035892324,251.99624110618876,105.19142572283151,251.95865216807624,111.44549684280491,253.4997986306887C117.69956796277832,255.04094509330108,124.05616483881688,258.16082695663846,130.41276171485544,260.1906296147134C136.76935859089397,262.2204322727883,143.12595546693254,263.16015572560076,149.38002658690593,263.36689488521955C155.63409770687937,263.57363404483823,161.78564307078764,263.0473889112632,168.03971419076103,262.84064975164455C174.29378531073448,262.63391059202576,180.650382186773,262.7466774063633,186.90445330674643,262.6339105920258C193.15852442671985,262.5211437776883,199.3100697906281,262.1828433346758,205.5641409106015,263.6112229829508C211.81821203057493,265.0396026312257,218.1748089066135,268.23466237078804,224.531405782652,268.7233185662505C230.88800265869057,269.211974761713,237.24459953472913,266.9942274130756,243.29361914257228,265.79138139347566C249.34263875041543,264.5885353738757,255.08408109006314,264.40059068331317,261.1331006979063,263.3856893542757C267.1821203057494,262.37078802523826,273.53871718178794,260.52893005772586,279.7927883017614,259.38246744529465C286.0468594217348,258.2360048328635,292.19840478564305,257.78493757551354,298.45247590561644,258.348771647201C304.7065470255899,258.91260571888847,311.06314390162845,260.4913411196134,317.31721502160184,262.05128205128204C323.5712861415753,263.6112229829507,329.72283150548355,265.1523694455632,335.976902625457,266.0169150221506C342.2309737454304,266.8814605987381,348.58757062146896,267.0694052893006,354.9441674975075,266.82507719156933C361.3007643735461,266.5807490938381,367.65736124958454,265.90414820781314,373.911432369558,264.90804134783195C380.1655034895314,263.9119344878507,386.3170488534397,262.59632165391326,392.5711199734131,262.9158276278695C398.82519109338654,263.23533360182574,405.1817879694251,265.1899583836757,411.4358590893985,266.7498993153443C417.6899302093719,268.309840247013,423.84147557328015,269.47509732850045,430.09554669325354,269.3059471069942C436.349617813227,269.13679688548797,442.70621468926555,267.63323936098806,449.062811565304,266.5431601557256C455.4194084413427,265.4530809504632,461.77600531738125,264.7764800644382,467.82502492522434,262.38958249429453C473.8740445330675,260.0026849241509,479.61548687271517,255.90549066988856,485.6645064805584,254.81541146462612C491.71352608840147,253.72533225936368,498.07012296444003,255.64236810310112,504.3241940844134,256.7700362464761C510.5782652043869,257.897704389851,516.7298105682952,258.2360048328635,522.9838816882685,258.29238824003227C529.237952808242,258.348771647201,535.5945496842805,258.123238018526,541.848620804254,258.76224996643845C548.1026919242273,259.4012619143509,554.2542372881356,260.9048194388509,560.508308408109,261.69418713921334C566.7623795280824,262.4835548395758,573.118976404121,262.5587327158008,579.4755732801596,256.9579809370385C585.8321701561981,251.35722915827625,592.1887670322367,240.08054772452678,598.4428381522101,239.1032353336018C604.6969092721835,238.12592294267688,610.8484546360918,247.44797959457642,613.9242273180458,252.1090079205262L617,256.770036246476L617,260.3785743052759L613.9242273180458,261.11155859846957C610.8484546360918,261.84454289166337,604.6969092721835,263.3105114780508,598.4428381522101,264.2314404618069C592.1887670322367,265.1523694455632,585.8321701561981,265.52825882668816,579.4755732801596,265.6598201100819C573.118976404121,265.79138139347566,566.7623795280824,265.6786145791381,560.508308408109,264.9644247550007C554.2542372881356,264.2502349308632,548.1026919242273,262.93462209692575,541.848620804254,262.577527184857C535.5945496842805,262.2204322727883,529.237952808242,262.8218552825883,522.9838816882685,263.02859444220707C516.7298105682952,263.23533360182574,510.5782652043869,263.0473889112632,504.3241940844135,263.028594442207C498.07012296444003,263.0097999731508,491.71352608840147,263.16015572560076,485.66450648055826,263.59242851389445C479.61548687271517,264.02470130218825,473.8740445330675,264.73889112632565,467.82502492522434,265.50946435763194C461.77600531738125,266.2800375889381,455.4194084413427,267.10699422741305,449.062811565304,268.309840247013C442.70621468926555,269.512686266613,436.349617813227,271.0914216673379,430.09554669325354,271.2229829507317C423.84147557328015,271.3545442341254,417.6899302093719,270.03893140018795,411.43585908939843,268.47899046851927C405.1817879694251,266.91904953685054,398.82519109338654,265.11478050745063,392.5711199734131,265.3591086051819C386.3170488534397,265.60343670291314,380.1655034895314,267.89636192777556,373.911432369558,268.986441133038C367.65736124958454,270.07652033830044,361.3007643735461,269.9637535239629,354.9441674975075,269.9073701167942C348.58757062146896,269.85098670962543,342.2309737454304,269.85098670962543,335.97690262545694,269.0052356020942C329.72283150548355,268.159484494563,323.5712861415753,266.46798227950063,317.3172150216019,264.8516579406632C311.06314390162845,263.23533360182574,304.7065470255899,261.6941871392133,298.45247590561644,261.18673647469456C292.19840478564305,260.6792858101758,286.0468594217348,261.20553094375083,279.7927883017614,262.37078802523826C273.53871718178794,263.53604510672574,267.1821203057494,265.34031413612564,261.1331006979063,266.52436568666934C255.08408109006314,267.70841723721304,249.34263875041543,268.2722513089005,243.29361914257228,269.21197476171295C237.24459953472913,270.1516982145254,230.88800265869057,271.4673110484629,224.53140578265206,270.62155994093166C218.1748089066135,269.7758088334005,211.81821203057493,266.76869378440057,205.5641409106015,265.50946435763194C199.3100697906281,264.2502349308632,193.15852442671985,264.73889112632565,186.9044533067464,265.1523694455632C180.650382186773,265.56584776480065,174.29378531073448,265.90414820781314,168.03971419076103,266.1860652436569C161.78564307078764,266.46798227950063,155.63409770687937,266.6935159081756,149.38002658690596,266.4115988723319C143.12595546693254,266.12968183648815,136.76935859089397,265.34031413612564,130.41276171485544,263.254128070882C124.05616483881688,261.16794200563834,117.69956796277832,257.78493757551354,111.44549684280491,256.1874077057323C105.19142572283151,254.58987783595114,99.03988035892324,254.77782252651363,92.78580923894982,256.03705195328234C86.5317381189764,257.29628138005097,80.17514124293785,259.62679554302593,73.92107012296445,258.6118942139884C67.66699900299103,257.596992884951,61.51545363908275,253.23667606390117,55.26138251910934,252.35333601825747C49.007311399135936,251.4699959726138,42.65071452309738,254.06363270237617,36.601694915254235,256.3001745200698C30.552675307411103,258.53671633776344,24.811232967763374,260.4161632433884,18.76221335992024,264.15626258558194C12.713193752077101,267.89636192777556,6.356596876038551,273.49711370653773,3.1782984380192754,276.2974895959189L0,279.0978654853Z" fill="rgb(148, 105, 191)" title="environment"></path><path class="layer" d="M0,279.0978654853L3.1782984380192754,276.2974895959189C6.356596876038551,273.49711370653773,12.713193752077101,267.89636192777556,18.76221335992024,264.15626258558194C24.811232967763374,260.4161632433884,30.552675307411103,258.53671633776344,36.601694915254235,256.3001745200698C42.65071452309738,254.06363270237617,49.007311399135936,251.4699959726138,55.26138251910934,252.35333601825747C61.51545363908275,253.23667606390117,67.66699900299103,257.596992884951,73.92107012296445,258.6118942139884C80.17514124293785,259.62679554302593,86.5317381189764,257.29628138005097,92.78580923894981,256.03705195328234C99.03988035892324,254.77782252651363,105.19142572283151,254.58987783595114,111.44549684280491,256.1874077057323C117.69956796277832,257.78493757551354,124.05616483881688,261.16794200563834,130.41276171485544,263.254128070882C136.76935859089397,265.34031413612564,143.12595546693254,266.12968183648815,149.38002658690593,266.4115988723319C155.63409770687937,266.6935159081756,161.78564307078764,266.46798227950063,168.03971419076103,266.1860652436569C174.29378531073448,265.90414820781314,180.650382186773,265.56584776480065,186.90445330674643,265.1523694455632C193.15852442671985,264.73889112632565,199.3100697906281,264.2502349308632,205.5641409106015,265.5094643576319C211.81821203057493,266.76869378440057,218.1748089066135,269.7758088334005,224.531405782652,270.62155994093166C230.88800265869057,271.4673110484629,237.24459953472913,270.1516982145254,243.29361914257228,269.21197476171295C249.34263875041543,268.2722513089005,255.08408109006314,267.70841723721304,261.1331006979063,266.52436568666934C267.1821203057494,265.34031413612564,273.53871718178794,263.53604510672574,279.7927883017614,262.37078802523826C286.0468594217348,261.20553094375083,292.19840478564305,260.6792858101758,298.45247590561644,261.18673647469456C304.7065470255899,261.6941871392133,311.06314390162845,263.23533360182574,317.31721502160184,264.8516579406632C323.5712861415753,266.46798227950063,329.72283150548355,268.159484494563,335.976902625457,269.0052356020942C342.2309737454304,269.85098670962543,348.58757062146896,269.85098670962543,354.9441674975075,269.9073701167942C361.3007643735461,269.9637535239629,367.65736124958454,270.07652033830044,373.911432369558,268.986441133038C380.1655034895314,267.89636192777556,386.3170488534397,265.60343670291314,392.5711199734131,265.3591086051819C398.82519109338654,265.11478050745063,405.1817879694251,266.91904953685054,411.4358590893985,268.47899046851927C417.6899302093719,270.03893140018795,423.84147557328015,271.3545442341254,430.09554669325354,271.22298295073165C436.349617813227,271.0914216673379,442.70621468926555,269.512686266613,449.062811565304,268.309840247013C455.4194084413427,267.10699422741305,461.77600531738125,266.2800375889381,467.82502492522434,265.5094643576319C473.8740445330675,264.73889112632565,479.61548687271517,264.02470130218825,485.6645064805584,263.59242851389445C491.71352608840147,263.16015572560076,498.07012296444003,263.0097999731508,504.3241940844134,263.028594442207C510.5782652043869,263.0473889112632,516.7298105682952,263.23533360182574,522.9838816882685,263.028594442207C529.237952808242,262.8218552825883,535.5945496842805,262.2204322727883,541.848620804254,262.577527184857C548.1026919242273,262.93462209692575,554.2542372881356,264.2502349308632,560.508308408109,264.96442475500066C566.7623795280824,265.6786145791381,573.118976404121,265.79138139347566,579.4755732801596,265.6598201100819C585.8321701561981,265.52825882668816,592.1887670322367,265.1523694455632,598.4428381522101,264.2314404618069C604.6969092721835,263.3105114780508,610.8484546360918,261.84454289166337,613.9242273180458,261.11155859846957L617,260.3785743052759L617,262.5211437776883L613.9242273180458,262.9346220969258C610.8484546360918,263.3481004161633,604.6969092721835,264.1750570546382,598.4428381522101,264.9456302859444C592.1887670322367,265.7162035172506,585.8321701561981,266.4303933413881,579.4755732801596,266.6747214391193C573.118976404121,266.91904953685054,566.7623795280824,266.6935159081756,560.508308408109,265.94173714592563C554.2542372881356,265.1899583836757,548.1026919242273,263.9119344878507,541.848620804254,263.7427842663445C535.5945496842805,263.57363404483823,529.237952808242,264.5133574976507,522.9838816882685,264.6637132501007C516.7298105682952,264.8140690025507,510.5782652043869,264.1750570546382,504.3241940844135,264.0622902403007C498.07012296444003,263.9495234259632,491.71352608840147,264.36300174520073,485.66450648055826,264.9268358168882C479.61548687271517,265.49066988857567,473.8740445330675,266.20485971271313,467.82502492522434,266.8438716606256C461.77600531738125,267.4828836085381,455.4194084413427,268.0467176802255,449.062811565304,269.06161900926304C442.70621468926555,270.07652033830044,436.349617813227,271.5424889246879,430.09554669325354,271.67405020808167C423.84147557328015,271.8056114914754,417.6899302093719,270.60276547187544,411.43585908939843,269.0992079473755C405.1817879694251,267.5956504228755,398.82519109338654,265.7913813934756,392.5711199734131,266.2424486508256C386.3170488534397,266.6935159081756,380.1655034895314,269.39991945227547,373.911432369558,270.58397100281917C367.65736124958454,271.76802255336287,361.3007643735461,271.4297221103504,354.9441674975075,271.1102161363942C348.58757062146896,270.7907101624379,342.2309737454304,270.4899986575379,335.97690262545694,269.6254530809504C329.72283150548355,268.760907504363,323.5712861415753,267.33252785608806,317.3172150216019,266.11088736743187C311.06314390162845,264.8892468787757,304.7065470255899,263.8743455497382,298.45247590561644,263.3105114780508C292.19840478564305,262.7466774063633,286.0468594217348,262.63391059202576,279.7927883017614,263.5172506376695C273.53871718178794,264.40059068331317,267.1821203057494,266.2800375889381,261.1331006979063,267.5580614847631C255.08408109006314,268.836085380588,249.34263875041543,269.51268626661295,243.29361914257228,270.4336152503692C237.24459953472913,271.3545442341254,230.88800265869057,272.5198013156128,224.53140578265206,271.5800778628004C218.1748089066135,270.64035440998794,211.81821203057493,267.59565042287556,205.5641409106015,266.2988320579944C199.3100697906281,265.00201369311316,193.15852442671985,265.4530809504632,186.9044533067464,265.8477648006444C180.650382186773,266.2424486508256,174.29378531073448,266.5807490938381,168.03971419076103,267.12578869646933C161.78564307078764,267.67082829910055,155.63409770687937,268.4226070613505,149.38002658690596,268.3474291851255C143.12595546693254,268.2722513089005,136.76935859089397,267.37011679420056,130.41276171485544,267.03181635118807C124.05616483881688,266.6935159081756,117.69956796277832,266.91904953685054,111.44549684280491,266.26124311988184C105.19142572283151,265.60343670291314,99.03988035892324,264.0622902403007,92.78580923894982,264.66371325010067C86.5317381189764,265.26513625990066,80.17514124293785,268.00912874211303,73.92107012296445,265.99812055309434C67.66699900299103,263.9871123640757,61.51545363908275,257.22110350382604,55.26138251910934,256.33776345818234C49.007311399135936,255.4544234125386,42.65071452309738,260.4537521815009,36.601694915254235,263.329305947107C30.552675307411103,266.20485971271313,24.811232967763374,266.9566384749631,18.76221335992024,269.3059471069942C12.713193752077101,271.65525573902534,6.356596876038551,275.6020942408377,3.1782984380192754,277.5755134917439L0,279.54893274265004Z" fill="rgb(191, 105, 191)" title="healthcare"></path><path class="layer" d="M0,279.54893274265004L3.1782984380192754,277.5755134917439C6.356596876038551,275.6020942408377,12.713193752077101,271.65525573902534,18.76221335992024,269.3059471069942C24.811232967763374,266.9566384749631,30.552675307411103,266.20485971271313,36.601694915254235,263.329305947107C42.65071452309738,260.4537521815009,49.007311399135936,255.4544234125386,55.26138251910934,256.33776345818234C61.51545363908275,257.22110350382604,67.66699900299103,263.9871123640757,73.92107012296445,265.9981205530944C80.17514124293785,268.00912874211303,86.5317381189764,265.26513625990066,92.78580923894981,264.66371325010067C99.03988035892324,264.0622902403007,105.19142572283151,265.60343670291314,111.44549684280491,266.26124311988184C117.69956796277832,266.91904953685054,124.05616483881688,266.6935159081756,130.41276171485544,267.03181635118807C136.76935859089397,267.37011679420056,143.12595546693254,268.2722513089005,149.38002658690593,268.3474291851255C155.63409770687937,268.4226070613505,161.78564307078764,267.67082829910055,168.03971419076103,267.12578869646933C174.29378531073448,266.5807490938381,180.650382186773,266.2424486508256,186.90445330674643,265.8477648006444C193.15852442671985,265.4530809504632,199.3100697906281,265.00201369311316,205.5641409106015,266.2988320579944C211.81821203057493,267.59565042287556,218.1748089066135,270.64035440998794,224.531405782652,271.5800778628004C230.88800265869057,272.5198013156128,237.24459953472913,271.3545442341254,243.29361914257228,270.4336152503692C249.34263875041543,269.51268626661295,255.08408109006314,268.836085380588,261.1331006979063,267.5580614847631C267.1821203057494,266.2800375889381,273.53871718178794,264.40059068331317,279.7927883017614,263.5172506376695C286.0468594217348,262.63391059202576,292.19840478564305,262.7466774063633,298.45247590561644,263.3105114780508C304.7065470255899,263.8743455497382,311.06314390162845,264.8892468787757,317.31721502160184,266.11088736743187C323.5712861415753,267.33252785608806,329.72283150548355,268.760907504363,335.976902625457,269.6254530809505C342.2309737454304,270.4899986575379,348.58757062146896,270.7907101624379,354.9441674975075,271.1102161363942C361.3007643735461,271.4297221103504,367.65736124958454,271.76802255336287,373.911432369558,270.58397100281917C380.1655034895314,269.39991945227547,386.3170488534397,266.6935159081756,392.5711199734131,266.2424486508256C398.82519109338654,265.7913813934756,405.1817879694251,267.5956504228755,411.4358590893985,269.09920794737553C417.6899302093719,270.60276547187544,423.84147557328015,271.8056114914754,430.09554669325354,271.6740502080816C436.349617813227,271.5424889246879,442.70621468926555,270.07652033830044,449.062811565304,269.06161900926304C455.4194084413427,268.0467176802255,461.77600531738125,267.4828836085381,467.82502492522434,266.8438716606256C473.8740445330675,266.20485971271313,479.61548687271517,265.49066988857567,485.6645064805584,264.9268358168882C491.71352608840147,264.36300174520073,498.07012296444003,263.9495234259632,504.3241940844134,264.0622902403007C510.5782652043869,264.1750570546382,516.7298105682952,264.8140690025507,522.9838816882685,264.66371325010067C529.237952808242,264.5133574976507,535.5945496842805,263.57363404483823,541.848620804254,263.7427842663445C548.1026919242273,263.9119344878507,554.2542372881356,265.1899583836757,560.508308408109,265.94173714592563C566.7623795280824,266.6935159081756,573.118976404121,266.91904953685054,579.4755732801596,266.6747214391193C585.8321701561981,266.4303933413881,592.1887670322367,265.7162035172506,598.4428381522101,264.9456302859444C604.6969092721835,264.1750570546382,610.8484546360918,263.3481004161633,613.9242273180458,262.93462209692575L617,262.5211437776883L617,280L613.9242273180458,280C610.8484546360918,280,604.6969092721835,280,598.4428381522101,280C592.1887670322367,280,585.8321701561981,280,579.4755732801596,280C573.118976404121,280,566.7623795280824,280,560.508308408109,280C554.2542372881356,280,548.1026919242273,280,541.848620804254,280C535.5945496842805,280,529.237952808242,280,522.9838816882685,280C516.7298105682952,280,510.5782652043869,280,504.3241940844135,280C498.07012296444003,280,491.71352608840147,280,485.66450648055826,280C479.61548687271517,280,473.8740445330675,280,467.82502492522434,280C461.77600531738125,280,455.4194084413427,280,449.062811565304,280C442.70621468926555,280,436.349617813227,280,430.09554669325354,280C423.84147557328015,280,417.6899302093719,280,411.43585908939843,280C405.1817879694251,280,398.82519109338654,280,392.5711199734131,280C386.3170488534397,280,380.1655034895314,280,373.911432369558,280C367.65736124958454,280,361.3007643735461,280,354.9441674975075,280C348.58757062146896,280,342.2309737454304,280,335.97690262545694,280C329.72283150548355,280,323.5712861415753,280,317.3172150216019,280C311.06314390162845,280,304.7065470255899,280,298.45247590561644,280C292.19840478564305,280,286.0468594217348,280,279.7927883017614,280C273.53871718178794,280,267.1821203057494,280,261.1331006979063,280C255.08408109006314,280,249.34263875041543,280,243.29361914257228,280C237.24459953472913,280,230.88800265869057,280,224.53140578265206,280C218.1748089066135,280,211.81821203057493,280,205.5641409106015,280C199.3100697906281,280,193.15852442671985,280,186.9044533067464,280C180.650382186773,280,174.29378531073448,280,168.03971419076103,280C161.78564307078764,280,155.63409770687937,280,149.38002658690596,280C143.12595546693254,280,136.76935859089397,280,130.41276171485544,280C124.05616483881688,280,117.69956796277832,280,111.44549684280491,280C105.19142572283151,280,99.03988035892324,280,92.78580923894982,280C86.5317381189764,280,80.17514124293785,280,73.92107012296445,280C67.66699900299103,280,61.51545363908275,280,55.26138251910934,280C49.007311399135936,280,42.65071452309738,280,36.601694915254235,280C30.552675307411103,280,24.811232967763374,280,18.76221335992024,280C12.713193752077101,280,6.356596876038551,280,3.1782984380192754,280L0,280Z" fill="rgb(191, 105, 148)" title="other"></path><g class="x axis" transform="translate(0,280)" fill="none" font-size="10" font-family="sans-serif" text-anchor="middle" style="stroke-width: 1px; font-size: 10px; font-family: Arial, Helvetica;"><path class="domain" stroke="#000" d="M0.5,6V0.5H617.5V6" style="shape-rendering: crispedges; fill: none; stroke: rgb(204, 204, 204);"></path><g class="tick" opacity="1" transform="translate(0.6281571950814224,0)"><line stroke="#000" y2="6" style="shape-rendering: crispedges; fill: none; stroke: rgb(204, 204, 204);"></line><text fill="#000" y="9" dy="0.71em">2017</text></g><g class="tick" opacity="1" transform="translate(55.966434031239615,0)"><line stroke="#000" y2="6" style="shape-rendering: crispedges; fill: none; stroke: rgb(204, 204, 204);"></line><text fill="#000" y="9" dy="0.71em">April</text></g><g class="tick" opacity="1" transform="translate(111.94549684280491,0)"><line stroke="#000" y2="6" style="shape-rendering: crispedges; fill: none; stroke: rgb(204, 204, 204);"></line><text fill="#000" y="9" dy="0.71em">July</text></g><g class="tick" opacity="1" transform="translate(168.53971419076103,0)"><line stroke="#000" y2="6" style="shape-rendering: crispedges; fill: none; stroke: rgb(204, 204, 204);"></line><text fill="#000" y="9" dy="0.71em">October</text></g><g class="tick" opacity="1" transform="translate(225.1595629777335,0)"><line stroke="#000" y2="6" style="shape-rendering: crispedges; fill: none; stroke: rgb(204, 204, 204);"></line><text fill="#000" y="9" dy="0.71em">2018</text></g><g class="tick" opacity="1" transform="translate(280.49783981389163,0)"><line stroke="#000" y2="6" style="shape-rendering: crispedges; fill: none; stroke: rgb(204, 204, 204);"></line><text fill="#000" y="9" dy="0.71em">April</text></g><g class="tick" opacity="1" transform="translate(336.476902625457,0)"><line stroke="#000" y2="6" style="shape-rendering: crispedges; fill: none; stroke: rgb(204, 204, 204);"></line><text fill="#000" y="9" dy="0.71em">July</text></g><g class="tick" opacity="1" transform="translate(393.0711199734131,0)"><line stroke="#000" y2="6" style="shape-rendering: crispedges; fill: none; stroke: rgb(204, 204, 204);"></line><text fill="#000" y="9" dy="0.71em">October</text></g><g class="tick" opacity="1" transform="translate(449.69096876038554,0)"><line stroke="#000" y2="6" style="shape-rendering: crispedges; fill: none; stroke: rgb(204, 204, 204);"></line><text fill="#000" y="9" dy="0.71em">2019</text></g><g class="tick" opacity="1" transform="translate(505.02924559654366,0)"><line stroke="#000" y2="6" style="shape-rendering: crispedges; fill: none; stroke: rgb(204, 204, 204);"></line><text fill="#000" y="9" dy="0.71em">April</text></g><g class="tick" opacity="1" transform="translate(561.008308408109,0)"><line stroke="#000" y2="6" style="shape-rendering: crispedges; fill: none; stroke: rgb(204, 204, 204);"></line><text fill="#000" y="9" dy="0.71em">July</text></g></g></g></svg>