<svg width="847" height="500" xmlns="http://www.w3.org/2000/svg" version="1.1"><g><path class="layer" d="M0,176.5305297209867L4.645612172682236,175.44682571775175C9.291224345364473,174.36312171451678,18.582448690728945,172.19571370804692,27.424097664543524,171.30610594419736C36.2657466383581,170.41649818034776,44.65782024062278,170.80469065911848,53.49946921443736,171.09583501819654C62.34111818825195,171.38697937727457,71.63234253361641,171.58107561665994,80.7737084217976,174.44399514759402C89.91507430997876,177.30691467852807,98.90658174097665,182.83865750101089,108.04794762915782,187.38374443995144C117.18931351733899,191.92883137889203,126.48053786270346,195.48726243429033,135.62190375088466,197.70319450060651C144.7632696390658,199.91912656692276,153.7547770700637,200.79255964415688,162.89614295824487,194.30651031136267C172.03750884642605,187.8204609785685,181.32873319179052,173.974929235746,190.619957537155,168.55640921957135C199.91118188251946,163.13788920339667,209.20240622788393,166.14638091386976,218.3437721160651,171.01496158511927C227.4851380042463,175.88354225636877,236.47664543524414,182.61221188839468,245.61801132342532,188.2733522038011C254.7593772116065,193.93449251920745,264.05060155697095,198.52810351799437,273.1919674451521,202.18358269308533C282.3333333333333,205.83906186817634,291.32484076433116,208.55640921957138,300.4662066525123,204.36716538617065C309.6075725406935,200.17792155276993,318.89879688605805,189.08208653457336,328.1900212314225,183.1783259199353C337.481245576787,177.27456530529722,346.77246992215146,176.56287909421758,355.614118895966,146.89850384148806C364.45576786978063,117.23412858875861,372.8478414720453,58.617064294379304,381.6894904458599,52.79417711281844C390.53113941967445,46.97128993125758,399.8223637650389,93.94257986251516,408.96372965322007,126.87424181156489C418.1050955414012,159.80590376061463,427.0966029723991,178.69793772745652,436.23796886058034,174.52486858067127C445.3793347487615,170.35179943388596,454.67055909412596,143.1136271734735,463.8119249823071,143.12980186008895C472.9532908704883,143.1459765467044,481.9447983014862,170.41649818034773,491.0861641896674,183.9547108774767C500.22753007784854,197.49292357460573,509.518754423213,197.29882733522035,518.8099787685775,194.11241407197735C528.101203113942,190.92600080873433,537.3924274593064,184.74727052163362,546.5337933474875,179.26405175899717C555.6751592356687,173.7808329963607,564.6666666666666,168.99312575818843,573.8080325548477,171.9854427820461C582.949398443029,174.97775980590373,592.2406227883935,185.75010109179138,601.3819886765746,195.08289526890417C610.5233545647558,204.415689446017,619.5148619957537,212.30893651435508,628.6562278839348,209.44601698342095C637.7975937721161,206.58309745248687,647.0888181174805,192.9640113222806,656.380042462845,189.42175495349775C665.6712668082096,185.87949858471492,674.962491153574,192.41407197735543,683.8041401273886,194.56530529720987C692.6457891012033,196.71653861706432,701.0378627034679,194.4844318641326,709.8795116772825,193.36837848766677C718.721160651097,192.25232511120097,728.0123849964615,192.25232511120097,737.1537508846426,188.0307319045693C746.2951167728238,183.80913869793775,755.2866242038217,175.36595228467453,764.4279900920028,175.89971694298424C773.569355980184,176.433481601294,782.8605803255485,185.9441973311767,792.0019462137296,187.3999191265669C801.1433121019109,188.85564092195713,810.1348195329086,182.25636878285482,819.2761854210898,181.51233319854427C828.4175513092711,180.76829761423372,837.7087756546356,185.87949858471492,842.3543878273177,188.4350990699555L847,190.9906995551961L847,190.9906995551961L842.3543878273177,188.4350990699555C837.7087756546356,185.87949858471492,828.4175513092711,180.76829761423372,819.27618542109,181.51233319854427C810.1348195329086,182.25636878285482,801.1433121019109,188.85564092195713,792.0019462137298,187.3999191265669C782.8605803255485,185.9441973311767,773.569355980184,176.433481601294,764.4279900920028,175.89971694298424C755.2866242038217,175.36595228467453,746.2951167728238,183.80913869793775,737.1537508846426,188.0307319045693C728.0123849964615,192.25232511120097,718.721160651097,192.25232511120097,709.8795116772825,193.36837848766677C701.0378627034679,194.4844318641326,692.6457891012033,196.71653861706432,683.8041401273886,194.56530529720985C674.962491153574,192.41407197735543,665.6712668082096,185.87949858471492,656.380042462845,189.42175495349775C647.0888181174805,192.9640113222806,637.7975937721161,206.58309745248687,628.6562278839348,209.44601698342095C619.5148619957537,212.30893651435508,610.5233545647558,204.415689446017,601.3819886765746,199.15891629599676C592.2406227883935,193.90214314597654,582.949398443029,191.28184391427416,573.8080325548477,191.58916295996764C564.6666666666666,191.8964820056611,555.6751592356687,195.13141932875052,546.5337933474875,197.2179539021432C537.3924274593064,199.3044884755358,528.101203113942,200.2426202992317,518.8099787685775,200.61463809138698C509.518754423213,200.98665588354228,500.22753007784854,200.79255964415688,491.0861641896674,186.60735948241003C481.9447983014862,172.42215932066316,472.9532908704883,144.24585523655477,463.8119249823071,143.74443995147593C454.67055909412596,143.24302466639708,445.3793347487615,170.41649818034776,436.23796886058034,174.5572179539021C427.0966029723991,178.69793772745652,418.1050955414012,159.80590376061463,408.96372965322007,126.87424181156489C399.8223637650389,93.94257986251516,390.53113941967445,46.97128993125758,381.6894904458599,52.79417711281844C372.8478414720453,58.617064294379304,364.45576786978063,117.23412858875861,355.614118895966,146.89850384148806C346.77246992215146,176.56287909421758,337.481245576787,177.27456530529722,328.1900212314225,183.1783259199353C318.89879688605805,189.08208653457336,309.6075725406935,200.17792155276993,300.46620665251237,204.36716538617065C291.32484076433116,208.55640921957138,282.3333333333333,205.83906186817634,273.1919674451521,202.18358269308533C264.05060155697095,198.52810351799437,254.7593772116065,193.93449251920745,245.61801132342532,188.30570157703195C236.47664543524414,182.67691063485645,227.4851380042463,176.01293974929237,218.3437721160651,171.14435907804287C209.20240622788393,166.27577840679336,199.91118188251946,163.20258794985844,190.619957537155,168.58875859280224C181.32873319179052,173.974929235746,172.03750884642605,187.8204609785685,162.89614295824487,194.30651031136267C153.7547770700637,200.79255964415688,144.7632696390658,199.91912656692276,135.62190375088466,197.70319450060651C126.48053786270346,195.48726243429033,117.18931351733899,191.92883137889203,108.04794762915782,187.41609381318233C98.90658174097665,182.90335624747271,89.91507430997876,177.4363121714517,80.7737084217976,174.67044076021025C71.63234253361641,171.90456934896886,62.34111818825195,171.83987060250706,53.49946921443737,171.548726243429C44.65782024062278,171.25758188435097,36.2657466383581,170.73999191265668,27.424097664543524,171.5325515568136C18.582448690728945,172.32511120097047,9.291224345364473,174.42782046097855,4.645612172682236,175.4791750909826L0,176.5305297209867Z" fill="rgb(191, 105, 105)" title="supreme_court"></path><path class="layer" d="M0,176.5305297209867L4.645612172682236,175.47917509098264C9.291224345364473,174.42782046097855,18.582448690728945,172.32511120097047,27.424097664543524,171.5325515568136C36.2657466383581,170.73999191265668,44.65782024062278,171.25758188435097,53.49946921443736,171.548726243429C62.34111818825195,171.83987060250706,71.63234253361641,171.90456934896886,80.7737084217976,174.67044076021025C89.91507430997876,177.4363121714517,98.90658174097665,182.90335624747271,108.04794762915782,187.41609381318233C117.18931351733899,191.92883137889203,126.48053786270346,195.48726243429033,135.62190375088466,197.70319450060651C144.7632696390658,199.91912656692276,153.7547770700637,200.79255964415688,162.89614295824487,194.30651031136267C172.03750884642605,187.8204609785685,181.32873319179052,173.974929235746,190.619957537155,168.58875859280224C199.91118188251946,163.20258794985844,209.20240622788393,166.27577840679336,218.3437721160651,171.14435907804287C227.4851380042463,176.01293974929237,236.47664543524414,182.67691063485645,245.61801132342532,188.30570157703195C254.7593772116065,193.93449251920745,264.05060155697095,198.52810351799437,273.1919674451521,202.18358269308533C282.3333333333333,205.83906186817634,291.32484076433116,208.55640921957138,300.4662066525123,204.36716538617065C309.6075725406935,200.17792155276993,318.89879688605805,189.08208653457336,328.1900212314225,183.1783259199353C337.481245576787,177.27456530529722,346.77246992215146,176.56287909421758,355.614118895966,146.89850384148806C364.45576786978063,117.23412858875861,372.8478414720453,58.617064294379304,381.6894904458599,52.79417711281844C390.53113941967445,46.97128993125758,399.8223637650389,93.94257986251516,408.96372965322007,126.87424181156489C418.1050955414012,159.80590376061463,427.0966029723991,178.69793772745652,436.23796886058034,174.55721795390215C445.3793347487615,170.41649818034776,454.67055909412596,143.24302466639708,463.8119249823071,143.74443995147593C472.9532908704883,144.24585523655477,481.9447983014862,172.42215932066316,491.0861641896674,186.60735948241003C500.22753007784854,200.79255964415688,509.518754423213,200.98665588354228,518.8099787685775,200.61463809138698C528.101203113942,200.2426202992317,537.3924274593064,199.3044884755358,546.5337933474875,197.2179539021432C555.6751592356687,195.13141932875052,564.6666666666666,191.8964820056611,573.8080325548477,191.58916295996764C582.949398443029,191.28184391427416,592.2406227883935,193.90214314597654,601.3819886765746,199.15891629599676C610.5233545647558,204.415689446017,619.5148619957537,212.30893651435508,628.6562278839348,209.44601698342095C637.7975937721161,206.58309745248687,647.0888181174805,192.9640113222806,656.380042462845,189.42175495349775C665.6712668082096,185.87949858471492,674.962491153574,192.41407197735543,683.8041401273886,194.56530529720987C692.6457891012033,196.71653861706432,701.0378627034679,194.4844318641326,709.8795116772825,193.36837848766677C718.721160651097,192.25232511120097,728.0123849964615,192.25232511120097,737.1537508846426,188.0307319045693C746.2951167728238,183.80913869793775,755.2866242038217,175.36595228467453,764.4279900920028,175.89971694298424C773.569355980184,176.433481601294,782.8605803255485,185.9441973311767,792.0019462137296,187.3999191265669C801.1433121019109,188.85564092195713,810.1348195329086,182.25636878285482,819.2761854210898,181.51233319854427C828.4175513092711,180.76829761423372,837.7087756546356,185.87949858471492,842.3543878273177,188.4350990699555L847,190.9906995551961L847,197.20177921552767L842.3543878273177,194.41973311767083C837.7087756546356,191.63768701981397,828.4175513092711,186.0735948241003,819.27618542109,186.75293166194908C810.1348195329086,187.43226849979783,801.1433121019109,194.35503437120906,792.0019462137298,192.9640113222806C782.8605803255485,191.5729882733522,773.569355980184,181.86817630408413,764.4279900920028,181.36676101900525C755.2866242038217,180.86534573392643,746.2951167728238,189.5673271330368,737.1537508846426,193.9506672058229C728.0123849964615,198.334007278609,718.721160651097,198.39870602507077,709.8795116772825,199.32066316215125C701.0378627034679,200.2426202992317,692.6457891012033,202.02183582693087,683.8041401273886,199.64415689446022C674.962491153574,197.2664779619895,665.6712668082096,190.73190456934898,656.380042462845,193.9506672058229C647.0888181174805,197.1694298422968,637.7975937721161,210.14152850788514,628.6562278839348,212.68095430651033C619.5148619957537,215.22038010513543,610.5233545647558,207.3271330367974,601.3819886765746,202.62029923170243C592.2406227883935,197.91346542660736,582.949398443029,196.39304488475537,573.8080325548477,197.4767488879903C564.6666666666666,198.56045289122525,555.6751592356687,202.2482814395471,546.5337933474875,204.6906591184796C537.3924274593064,207.13303679741205,528.101203113942,208.32996360695515,518.8099787685775,208.63728265264862C509.518754423213,208.9446016983421,500.22753007784854,208.36231298018603,491.0861641896674,194.08006469874647C481.9447983014862,179.79781641730696,472.9532908704883,151.81560857258393,463.8119249823071,151.02304892842702C454.67055909412596,150.23048928427013,445.3793347487615,176.62757784067935,436.23796886058034,180.8006469874646C427.0966029723991,184.9737161342499,418.1050955414012,166.92276587141123,408.96372965322007,134.21754953497773C399.8223637650389,101.51233319854425,390.53113941967445,54.15285078851597,381.6894904458599,59.45814799838254C372.8478414720453,64.76344520824911,364.45576786978063,122.73352203801055,355.614118895966,151.78325919935304C346.77246992215146,180.83299636069555,337.481245576787,180.9623938536191,328.1900212314225,186.60735948241003C318.89879688605805,192.25232511120097,309.6075725406935,203.41285887585926,300.46620665251237,208.50788515972502C291.32484076433116,213.60291144359076,282.3333333333333,212.63243024666397,273.1919674451521,211.20905782450464C264.05060155697095,209.78568540234536,254.7593772116065,207.9094217549535,245.61801132342532,203.80105135462998C236.47664543524414,199.6926809543065,227.4851380042463,193.35220380105133,218.3437721160651,186.60735948241003C209.20240622788393,179.86251516376868,199.91118188251946,172.7133036797412,190.619957537155,175.7703194500606C181.32873319179052,178.82733522038006,172.03750884642605,192.0905782450465,162.89614295824487,198.38253133845532C153.7547770700637,204.67448443186413,144.7632696390658,203.9951475940154,135.62190375088466,202.00566114031542C126.48053786270346,200.01617468661547,117.18931351733899,196.71653861706432,108.04794762915782,192.0420541852002C98.90658174097665,187.36756975333606,89.91507430997876,181.31823695915895,80.7737084217976,178.1965224423777C71.63234253361641,175.07480792559645,62.34111818825195,174.88071168621107,53.49946921443737,174.2337242215932C44.65782024062278,173.58673675697537,36.2657466383581,172.48685806712498,27.424097664543524,172.7941771128185C18.582448690728945,173.10149615851196,9.291224345364473,174.81601293974936,4.645612172682236,175.673271330368L0,176.5305297209867Z" fill="rgb(191, 148, 105)" title="police"></path><path class="layer" d="M0,176.5305297209867L4.645612172682236,175.673271330368C9.291224345364473,174.81601293974936,18.582448690728945,173.10149615851196,27.424097664543524,172.7941771128185C36.2657466383581,172.48685806712498,44.65782024062278,173.58673675697537,53.49946921443736,174.23372422159323C62.34111818825195,174.88071168621107,71.63234253361641,175.07480792559645,80.7737084217976,178.1965224423777C89.91507430997876,181.31823695915895,98.90658174097665,187.36756975333606,108.04794762915782,192.0420541852002C117.18931351733899,196.71653861706432,126.48053786270346,200.01617468661547,135.62190375088466,202.00566114031542C144.7632696390658,203.9951475940154,153.7547770700637,204.67448443186413,162.89614295824487,198.38253133845532C172.03750884642605,192.0905782450465,181.32873319179052,178.82733522038006,190.619957537155,175.7703194500606C199.91118188251946,172.7133036797412,209.20240622788393,179.86251516376868,218.3437721160651,186.60735948241003C227.4851380042463,193.35220380105133,236.47664543524414,199.6926809543065,245.61801132342532,203.80105135462998C254.7593772116065,207.9094217549535,264.05060155697095,209.78568540234536,273.1919674451521,211.20905782450464C282.3333333333333,212.63243024666397,291.32484076433116,213.60291144359076,300.4662066525123,208.507885159725C309.6075725406935,203.41285887585926,318.89879688605805,192.25232511120097,328.1900212314225,186.60735948241003C337.481245576787,180.9623938536191,346.77246992215146,180.83299636069555,355.614118895966,151.78325919935304C364.45576786978063,122.73352203801055,372.8478414720453,64.76344520824911,381.6894904458599,59.45814799838254C390.53113941967445,54.15285078851597,399.8223637650389,101.51233319854425,408.96372965322007,134.21754953497773C418.1050955414012,166.92276587141123,427.0966029723991,184.9737161342499,436.23796886058034,180.80064698746466C445.3793347487615,176.62757784067935,454.67055909412596,150.23048928427013,463.8119249823071,151.02304892842702C472.9532908704883,151.81560857258393,481.9447983014862,179.79781641730696,491.0861641896674,194.08006469874647C500.22753007784854,208.36231298018603,509.518754423213,208.9446016983421,518.8099787685775,208.63728265264862C528.101203113942,208.32996360695515,537.3924274593064,207.13303679741205,546.5337933474875,204.6906591184796C555.6751592356687,202.2482814395471,564.6666666666666,198.56045289122525,573.8080325548477,197.4767488879903C582.949398443029,196.39304488475537,592.2406227883935,197.91346542660736,601.3819886765746,202.62029923170238C610.5233545647558,207.3271330367974,619.5148619957537,215.22038010513543,628.6562278839348,212.68095430651033C637.7975937721161,210.14152850788514,647.0888181174805,197.1694298422968,656.380042462845,193.9506672058229C665.6712668082096,190.73190456934898,674.962491153574,197.2664779619895,683.8041401273886,199.64415689446017C692.6457891012033,202.02183582693087,701.0378627034679,200.2426202992317,709.8795116772825,199.32066316215128C718.721160651097,198.39870602507077,728.0123849964615,198.334007278609,737.1537508846426,193.9506672058229C746.2951167728238,189.5673271330368,755.2866242038217,180.86534573392643,764.4279900920028,181.36676101900525C773.569355980184,181.86817630408413,782.8605803255485,191.5729882733522,792.0019462137296,192.9640113222806C801.1433121019109,194.35503437120906,810.1348195329086,187.43226849979783,819.2761854210898,186.75293166194908C828.4175513092711,186.0735948241003,837.7087756546356,191.63768701981397,842.3543878273177,194.41973311767083L847,197.20177921552767L847,199.14274160938135L842.3543878273177,196.3283461382936C837.7087756546356,193.51395066720588,828.4175513092711,187.88515972503035,819.27618542109,189.27618277395877C810.1348195329086,190.6672058228872,801.1433121019109,199.07804286291957,792.0019462137298,200.01617468661547C782.8605803255485,200.95430651031134,773.569355980184,194.41973311767083,764.4279900920028,195.17994338859683C755.2866242038217,195.94015365952282,746.2951167728238,203.99514759401532,737.1537508846426,207.31095835018195C728.0123849964615,210.62676910634855,718.721160651097,209.20339668418924,709.8795116772825,208.73433077234128C701.0378627034679,208.26526486049337,692.6457891012033,208.75050545895678,683.8041401273886,205.6611403154064C674.962491153574,202.57177517185607,665.6712668082096,195.90780428629196,656.380042462845,198.77072381722607C647.0888181174805,201.63364334816015,637.7975937721161,214.0234532955924,628.6562278839348,216.30408410837038C619.5148619957537,218.5847149211484,610.5233545647558,210.75616659927212,601.3819886765746,206.5669227658714C592.2406227883935,202.37767893247067,582.949398443029,201.82773958754547,573.8080325548477,203.17023857662755C564.6666666666666,204.51273756570967,555.6751592356687,207.747674888799,546.5337933474875,209.80186008896075C537.3924274593064,211.85604528912248,528.101203113942,212.72947836635663,518.8099787685775,212.35746057420135C509.518754423213,211.98544278204608,500.22753007784854,210.36797412050143,491.0861641896674,195.82693085321475C481.9447983014862,181.285887585928,472.9532908704883,153.8212697128993,463.8119249823071,154.32268499797814C454.67055909412596,154.824100283057,445.3793347487615,183.2915487262434,436.23796886058034,190.79660331581076C427.0966029723991,198.30165790537808,418.1050955414012,184.84431864132634,408.96372965322007,153.17428224828146C399.8223637650389,121.50424585523659,390.53113941967445,71.62151233319857,381.6894904458599,75.66518398706027C372.8478414720453,79.70885564092197,364.45576786978063,137.67893247068338,355.614118895966,164.9818034775576C346.77246992215146,192.28467448443186,337.481245576787,188.9203396684189,328.1900212314225,192.43024666397085C318.89879688605805,195.94015365952282,309.6075725406935,206.3243024666397,300.46620665251237,211.12818439142742C291.32484076433116,215.9320663162151,282.3333333333333,215.15568135867366,273.1919674451521,214.24989890820862C264.05060155697095,213.34411645774358,254.7593772116065,212.308936514355,245.61801132342532,208.4917104731096C236.47664543524414,204.67448443186413,227.4851380042463,198.07521229276185,218.3437721160651,190.74807925596443C209.20240622788393,183.420946219167,199.91118188251946,175.36595228467448,190.619957537155,178.1641730691468C181.32873319179052,180.9623938536191,172.03750884642605,194.61382935705623,162.89614295824487,201.16457743631221C153.7547770700637,207.71532551556814,144.7632696390658,207.16538617064293,135.62190375088466,205.95228467448442C126.48053786270346,204.7391831783259,117.18931351733899,202.86291953093408,108.04794762915782,198.5119288313789C98.90658174097665,194.1609381318237,89.91507430997876,187.33522038010514,80.7737084217976,184.34290335624746C71.63234253361641,181.35058633238984,62.34111818825195,182.19167003639305,53.49946921443737,181.05944197331178C44.65782024062278,179.9272139102305,36.2657466383581,176.8216740800647,27.424097664543524,175.77031945006067C18.582448690728945,174.7189648200566,9.291224345364473,175.7217953902143,4.645612172682236,176.2232106752932L0,176.724625960372Z" fill="rgb(191, 191, 105)" title="education"></path><path class="layer" d="M0,176.724625960372L4.645612172682236,176.2232106752932C9.291224345364473,175.7217953902143,18.582448690728945,174.7189648200566,27.424097664543524,175.77031945006067C36.2657466383581,176.8216740800647,44.65782024062278,179.9272139102305,53.49946921443736,181.05944197331178C62.34111818825195,182.19167003639305,71.63234253361641,181.35058633238984,80.7737084217976,184.3429033562475C89.91507430997876,187.33522038010514,98.90658174097665,194.1609381318237,108.04794762915782,198.5119288313789C117.18931351733899,202.86291953093408,126.48053786270346,204.7391831783259,135.62190375088466,205.95228467448442C144.7632696390658,207.16538617064293,153.7547770700637,207.71532551556814,162.89614295824487,201.16457743631221C172.03750884642605,194.61382935705623,181.32873319179052,180.9623938536191,190.619957537155,178.1641730691468C199.91118188251946,175.36595228467448,209.20240622788393,183.420946219167,218.3437721160651,190.7480792559644C227.4851380042463,198.07521229276185,236.47664543524414,204.67448443186413,245.61801132342532,208.4917104731096C254.7593772116065,212.308936514355,264.05060155697095,213.34411645774358,273.1919674451521,214.24989890820862C282.3333333333333,215.15568135867366,291.32484076433116,215.9320663162151,300.4662066525123,211.12818439142742C309.6075725406935,206.3243024666397,318.89879688605805,195.94015365952282,328.1900212314225,192.43024666397085C337.481245576787,188.9203396684189,346.77246992215146,192.28467448443186,355.614118895966,164.9818034775576C364.45576786978063,137.67893247068338,372.8478414720453,79.70885564092197,381.6894904458599,75.66518398706027C390.53113941967445,71.62151233319857,399.8223637650389,121.50424585523659,408.96372965322007,153.17428224828146C418.1050955414012,184.84431864132634,427.0966029723991,198.30165790537808,436.23796886058034,190.79660331581076C445.3793347487615,183.2915487262434,454.67055909412596,154.824100283057,463.8119249823071,154.32268499797814C472.9532908704883,153.8212697128993,481.9447983014862,181.285887585928,491.0861641896674,195.82693085321475C500.22753007784854,210.36797412050143,509.518754423213,211.98544278204608,518.8099787685775,212.35746057420135C528.101203113942,212.72947836635663,537.3924274593064,211.85604528912248,546.5337933474875,209.80186008896075C555.6751592356687,207.747674888799,564.6666666666666,204.51273756570967,573.8080325548477,203.17023857662755C582.949398443029,201.82773958754547,592.2406227883935,202.37767893247067,601.3819886765746,206.5669227658714C610.5233545647558,210.75616659927212,619.5148619957537,218.5847149211484,628.6562278839348,216.3040841083704C637.7975937721161,214.0234532955924,647.0888181174805,201.63364334816015,656.380042462845,198.77072381722607C665.6712668082096,195.90780428629196,674.962491153574,202.57177517185607,683.8041401273886,205.6611403154064C692.6457891012033,208.75050545895678,701.0378627034679,208.26526486049337,709.8795116772825,208.7343307723413C718.721160651097,209.20339668418924,728.0123849964615,210.62676910634855,737.1537508846426,207.31095835018195C746.2951167728238,203.99514759401532,755.2866242038217,195.94015365952282,764.4279900920028,195.17994338859683C773.569355980184,194.41973311767083,782.8605803255485,200.95430651031134,792.0019462137296,200.01617468661547C801.1433121019109,199.07804286291957,810.1348195329086,190.6672058228872,819.2761854210898,189.27618277395877C828.4175513092711,187.88515972503035,837.7087756546356,193.51395066720588,842.3543878273177,196.3283461382936L847,199.14274160938135L847,206.71249494541047L842.3543878273177,204.25394257986258C837.7087756546356,201.7953902143146,828.4175513092711,196.87828548321878,819.27618542109,198.7221997573797C810.1348195329086,200.56611403154065,801.1433121019109,209.17104731095833,792.0019462137298,208.87990295188033C782.8605803255485,208.58875859280224,773.569355980184,199.40153659522844,764.4279900920028,199.77355438738377C755.2866242038217,200.14557217953902,746.2951167728238,210.07682976142337,737.1537508846426,213.52203801051357C728.0123849964615,216.96724625960374,718.721160651097,213.9264051758997,709.8795116772825,212.45450869389404C701.0378627034679,210.9826122118884,692.6457891012033,211.0796603315811,683.8041401273886,209.89890820865347C674.962491153574,208.71815608572584,665.6712668082096,206.25960372017798,656.380042462845,208.86372826526485C647.0888181174805,211.46785281035181,637.7975937721161,219.13465426607362,628.6562278839348,225.62070359886778C619.5148619957537,232.10675293166196,610.5233545647558,237.4120501415285,601.3819886765746,237.2664779619895C592.2406227883935,237.12090578245048,582.949398443029,231.52446421350587,573.8080325548477,229.43792964011323C564.6666666666666,227.35139506672058,555.6751592356687,228.7747674888799,546.5337933474875,227.85281035179943C537.3924274593064,226.93085321471895,528.101203113942,223.6635665183987,518.8099787685775,221.90052567731496C509.518754423213,220.13748483623127,500.22753007784854,219.87868985038415,491.0861641896674,204.9818034775576C481.9447983014862,190.0849171047311,472.9532908704883,160.54993934492515,463.8119249823071,159.59563283461378C454.67055909412596,158.64132632430244,445.3793347487615,186.26769106348561,436.23796886058034,193.25515568135867C427.0966029723991,200.2426202992317,418.1050955414012,186.5911847957946,408.96372965322007,155.11524464213508C399.8223637650389,123.63930448847555,390.53113941967445,74.33885968459361,381.6894904458599,78.5119288313789C372.8478414720453,82.68499797816418,364.45576786978063,140.33158107561667,355.614118895966,168.05499393449253C346.77246992215146,195.7784067933684,337.481245576787,193.57864941366765,328.1900212314225,196.92680954306513C318.89879688605805,200.27496967246262,309.6075725406935,209.17104731095836,300.46620665251237,214.03962798220786C291.32484076433116,218.90820865345736,282.3333333333333,219.74929235746058,273.1919674451521,219.32875050545897C264.05060155697095,218.90820865345734,254.7593772116065,217.22604124545083,245.61801132342532,212.98827335220378C236.47664543524414,208.7505054589567,227.4851380042463,201.95713708046904,218.3437721160651,195.37403962798217C209.20240622788393,188.79094217549536,199.91118188251946,182.4181156490093,190.619957537155,185.96037201779214C181.32873319179052,189.50262838657503,172.03750884642605,202.9599676506268,162.89614295824487,210.57824504650225C153.7547770700637,218.1965224423777,144.7632696390658,219.97573797007684,135.62190375088466,218.47149211484032C126.48053786270346,216.96724625960374,117.18931351733899,212.17953902143145,108.04794762915782,209.89890820865344C98.90658174097665,207.61827739587545,89.91507430997876,207.84472300849174,80.7737084217976,209.21957137080472C71.63234253361641,210.5944197331177,62.34111818825195,213.11767084512738,53.49946921443737,211.726647796199C44.65782024062278,210.33562474727054,36.2657466383581,205.030327537404,27.424097664543524,199.61180752122928C18.582448690728945,194.1932875050546,9.291224345364473,188.66154468257176,4.645612172682236,185.89567327133037L0,183.12980186008895Z" fill="rgb(148, 191, 105)" title="executive"></path><path class="layer" d="M0,183.12980186008895L4.645612172682236,185.89567327133037C9.291224345364473,188.66154468257176,18.582448690728945,194.1932875050546,27.424097664543524,199.61180752122928C36.2657466383581,205.030327537404,44.65782024062278,210.33562474727054,53.49946921443736,211.726647796199C62.34111818825195,213.11767084512738,71.63234253361641,210.5944197331177,80.7737084217976,209.21957137080472C89.91507430997876,207.84472300849174,98.90658174097665,207.61827739587545,108.04794762915782,209.89890820865344C117.18931351733899,212.17953902143145,126.48053786270346,216.96724625960374,135.62190375088466,218.4714921148403C144.7632696390658,219.97573797007684,153.7547770700637,218.1965224423777,162.89614295824487,210.57824504650225C172.03750884642605,202.9599676506268,181.32873319179052,189.50262838657503,190.619957537155,185.9603720177922C199.91118188251946,182.4181156490093,209.20240622788393,188.79094217549536,218.3437721160651,195.37403962798217C227.4851380042463,201.95713708046904,236.47664543524414,208.7505054589567,245.61801132342532,212.98827335220378C254.7593772116065,217.22604124545083,264.05060155697095,218.90820865345734,273.1919674451521,219.32875050545897C282.3333333333333,219.74929235746058,291.32484076433116,218.90820865345736,300.4662066525123,214.03962798220786C309.6075725406935,209.17104731095836,318.89879688605805,200.27496967246262,328.1900212314225,196.92680954306513C337.481245576787,193.57864941366765,346.77246992215146,195.7784067933684,355.614118895966,168.05499393449253C364.45576786978063,140.33158107561667,372.8478414720453,82.68499797816418,381.6894904458599,78.5119288313789C390.53113941967445,74.33885968459361,399.8223637650389,123.63930448847555,408.96372965322007,155.11524464213508C418.1050955414012,186.5911847957946,427.0966029723991,200.2426202992317,436.23796886058034,193.25515568135867C445.3793347487615,186.26769106348561,454.67055909412596,158.64132632430244,463.8119249823071,159.59563283461378C472.9532908704883,160.54993934492515,481.9447983014862,190.0849171047311,491.0861641896674,204.9818034775576C500.22753007784854,219.87868985038415,509.518754423213,220.13748483623127,518.8099787685775,221.90052567731496C528.101203113942,223.6635665183987,537.3924274593064,226.93085321471895,546.5337933474875,227.85281035179943C555.6751592356687,228.7747674888799,564.6666666666666,227.35139506672058,573.8080325548477,229.43792964011325C582.949398443029,231.52446421350587,592.2406227883935,237.12090578245048,601.3819886765746,237.2664779619895C610.5233545647558,237.4120501415285,619.5148619957537,232.10675293166196,628.6562278839348,225.62070359886778C637.7975937721161,219.13465426607362,647.0888181174805,211.46785281035181,656.380042462845,208.86372826526488C665.6712668082096,206.25960372017798,674.962491153574,208.71815608572584,683.8041401273886,209.89890820865347C692.6457891012033,211.0796603315811,701.0378627034679,210.9826122118884,709.8795116772825,212.45450869389404C718.721160651097,213.9264051758997,728.0123849964615,216.96724625960374,737.1537508846426,213.52203801051357C746.2951167728238,210.07682976142337,755.2866242038217,200.14557217953902,764.4279900920028,199.77355438738377C773.569355980184,199.40153659522844,782.8605803255485,208.58875859280224,792.0019462137296,208.87990295188033C801.1433121019109,209.17104731095833,810.1348195329086,200.56611403154065,819.2761854210898,198.7221997573797C828.4175513092711,196.87828548321878,837.7087756546356,201.7953902143146,842.3543878273177,204.25394257986252L847,206.71249494541047L847,218.35826930853216L842.3543878273177,224.60169834209466C837.7087756546356,230.84512737565709,828.4175513092711,243.33198544278207,819.27618542109,244.5289122523251C810.1348195329086,245.7258390618682,801.1433121019109,235.63283461382937,792.0019462137298,226.12211888394663C782.8605803255485,216.61140315406388,773.569355980184,207.68297614233725,764.4279900920028,207.60210270926004C755.2866242038217,207.5212292761828,746.2951167728238,216.28790942175496,737.1537508846426,219.02143145976547C728.0123849964615,221.75495349777597,718.721160651097,218.45531742822482,709.8795116772825,220.63890012131014C701.0378627034679,222.82248281439547,692.6457891012033,230.48928427011728,683.8041401273886,229.50262838657503C674.962491153574,228.5159725030328,665.6712668082096,218.87585928022645,656.380042462845,217.79215527699156C647.0888181174805,216.7084512737566,637.7975937721161,224.181156490093,628.6562278839348,230.5701577031945C619.5148619957537,236.959158916296,610.5233545647558,242.26445612616257,601.3819886765746,242.2482814395471C592.2406227883935,242.23210675293163,582.949398443029,236.89446016983422,573.8080325548477,234.5814799838253C564.6666666666666,232.26849979781642,555.6751592356687,232.98018600889608,546.5337933474875,232.4787707238172C537.3924274593064,231.97735543873839,528.101203113942,230.262838657501,518.8099787685775,231.24949454104328C509.518754423213,232.2361504245855,500.22753007784854,235.9239789729074,491.0861641896674,249.78568540234536C481.9447983014862,263.6473918317833,472.9532908704883,287.6829761423372,463.8119249823071,284.6906591184796C454.67055909412596,281.6983420946219,445.3793347487615,251.6781237363526,436.23796886058034,229.87464617873025C427.0966029723991,208.07116862110797,418.1050955414012,194.4844318641326,408.96372965322007,163.88192478770725C399.8223637650389,133.27941771128184,390.53113941967445,85.66114031540639,381.6894904458599,89.737161342499C372.8478414720453,93.81318236959159,364.45576786978063,149.58350181965224,355.614118895966,177.17751718560453C346.77246992215146,204.77153255155682,337.481245576787,204.18924383340072,328.1900212314225,207.73150020218358C318.89879688605805,211.27375657096647,309.6075725406935,218.94055802668822,300.46620665251237,222.7739587545491C291.32484076433116,226.60735948241003,282.3333333333333,226.60735948241003,273.1919674451521,225.60452891225233C264.05060155697095,224.60169834209464,254.7593772116065,222.59603720177924,245.61801132342532,225.0222401940962C236.47664543524414,227.4484431864133,227.4851380042463,234.30651031136276,218.3437721160651,228.37040032349373C209.20240622788393,222.43429033562475,199.91118188251946,203.70400323493732,190.619957537155,200.45289122523252C181.32873319179052,197.20177921552772,172.03750884642605,209.4298422968055,162.89614295824487,216.59522846744844C153.7547770700637,223.76061463809137,144.7632696390658,225.86332389809945,135.62190375088466,227.7881116053376C126.48053786270346,229.7128993125758,117.18931351733899,231.45976546704404,108.04794762915782,229.66437525272946C98.90658174097665,227.86898503841485,89.91507430997876,222.5313384553174,80.7737084217976,221.99757379700768C71.63234253361641,221.46380913869794,62.34111818825195,225.7339264051759,53.49946921443737,231.49211484027498C44.65782024062278,237.25030327537402,36.2657466383581,244.4965628790942,27.424097664543524,241.95713708046904C18.582448690728945,239.4177112818439,9.291224345364473,227.09260008087344,4.645612172682236,220.93004448038815L0,214.76748887990294Z" fill="rgb(105, 191, 105)" title="immigration"></path><path class="layer" d="M0,214.76748887990294L4.645612172682236,220.93004448038815C9.291224345364473,227.09260008087344,18.582448690728945,239.4177112818439,27.424097664543524,241.95713708046904C36.2657466383581,244.4965628790942,44.65782024062278,237.25030327537402,53.49946921443736,231.49211484027498C62.34111818825195,225.7339264051759,71.63234253361641,221.46380913869794,80.7737084217976,221.99757379700768C89.91507430997876,222.5313384553174,98.90658174097665,227.86898503841485,108.04794762915782,229.66437525272946C117.18931351733899,231.45976546704404,126.48053786270346,229.7128993125758,135.62190375088466,227.7881116053376C144.7632696390658,225.86332389809945,153.7547770700637,223.76061463809137,162.89614295824487,216.59522846744844C172.03750884642605,209.4298422968055,181.32873319179052,197.20177921552772,190.619957537155,200.45289122523252C199.91118188251946,203.70400323493732,209.20240622788393,222.43429033562475,218.3437721160651,228.37040032349373C227.4851380042463,234.30651031136276,236.47664543524414,227.4484431864133,245.61801132342532,225.0222401940962C254.7593772116065,222.59603720177924,264.05060155697095,224.60169834209464,273.1919674451521,225.60452891225233C282.3333333333333,226.60735948241003,291.32484076433116,226.60735948241003,300.4662066525123,222.77395875454917C309.6075725406935,218.94055802668822,318.89879688605805,211.27375657096647,328.1900212314225,207.73150020218358C337.481245576787,204.18924383340072,346.77246992215146,204.77153255155682,355.614118895966,177.17751718560456C364.45576786978063,149.58350181965224,372.8478414720453,93.81318236959159,381.6894904458599,89.737161342499C390.53113941967445,85.66114031540639,399.8223637650389,133.27941771128184,408.96372965322007,163.88192478770725C418.1050955414012,194.4844318641326,427.0966029723991,208.07116862110797,436.23796886058034,229.87464617873025C445.3793347487615,251.6781237363526,454.67055909412596,281.6983420946219,463.8119249823071,284.6906591184796C472.9532908704883,287.6829761423372,481.9447983014862,263.6473918317833,491.0861641896674,249.7856854023453C500.22753007784854,235.9239789729074,509.518754423213,232.2361504245855,518.8099787685775,231.24949454104328C528.101203113942,230.262838657501,537.3924274593064,231.97735543873839,546.5337933474875,232.47877072381723C555.6751592356687,232.98018600889608,564.6666666666666,232.26849979781642,573.8080325548477,234.58147998382535C582.949398443029,236.89446016983422,592.2406227883935,242.23210675293163,601.3819886765746,242.2482814395471C610.5233545647558,242.26445612616257,619.5148619957537,236.959158916296,628.6562278839348,230.5701577031945C637.7975937721161,224.181156490093,647.0888181174805,216.7084512737566,656.380042462845,217.79215527699156C665.6712668082096,218.87585928022645,674.962491153574,228.5159725030328,683.8041401273886,229.502628386575C692.6457891012033,230.48928427011728,701.0378627034679,222.82248281439547,709.8795116772825,220.63890012131014C718.721160651097,218.45531742822482,728.0123849964615,221.75495349777597,737.1537508846426,219.02143145976547C746.2951167728238,216.28790942175496,755.2866242038217,207.5212292761828,764.4279900920028,207.60210270926004C773.569355980184,207.68297614233725,782.8605803255485,216.61140315406388,792.0019462137296,226.12211888394665C801.1433121019109,235.63283461382937,810.1348195329086,245.7258390618682,819.2761854210898,244.5289122523251C828.4175513092711,243.33198544278207,837.7087756546356,230.84512737565709,842.3543878273177,224.60169834209464L847,218.35826930853216L847,241.45572179539022L842.3543878273177,244.10837040032348C837.7087756546356,246.76101900525677,828.4175513092711,252.06631621512335,819.27618542109,250.6752931661949C810.1348195329086,249.2842701172665,801.1433121019109,241.19692680954304,792.0019462137298,231.7509098261221C782.8605803255485,222.30489284270115,773.569355980184,211.5002021835827,764.4279900920028,210.77234128588756C755.2866242038217,210.04448038819248,746.2951167728238,219.3934492519207,737.1537508846426,222.48281439547108C728.0123849964615,225.5721795390214,718.721160651097,222.40194096239384,709.8795116772825,224.35907804286288C701.0378627034679,226.31621512333197,692.6457891012033,233.40072786089772,683.8041401273886,232.12292761827743C674.962491153574,230.84512737565709,665.6712668082096,221.2050141528508,656.380042462845,219.9595632834614C647.0888181174805,218.714112414072,637.7975937721161,225.86332389809945,628.6562278839348,232.25232511120092C619.5148619957537,238.64132632430244,610.5233545647558,244.27011726647797,601.3819886765746,244.41568944601696C592.2406227883935,244.561261625556,582.949398443029,239.2236150424586,573.8080325548477,236.94298422968055C564.6666666666666,234.66235341690256,555.6751592356687,235.438738374444,546.5337933474875,235.48726243429033C537.3924274593064,235.5357864941367,528.101203113942,234.85644965628794,518.8099787685775,236.45774363121714C509.518754423213,238.05903760614638,500.22753007784854,241.94096239385362,491.0861641896674,256.77315002021834C481.9447983014862,271.6053376465831,472.9532908704883,297.3877881116053,463.8119249823071,294.6542660735948C454.67055909412596,291.9207440355843,445.3793347487615,260.67124949454103,436.23796886058034,253.36029114435905C427.0966029723991,246.0493327941771,418.1050955414012,262.6769106348565,408.96372965322007,296.3526081682167C399.8223637650389,330.02830570157704,390.53113941967445,380.75212292761825,381.6894904458599,376.70845127375657C372.8478414720453,372.6647796198949,364.45576786978063,313.8536190861302,355.614118895966,276.1019005256773C346.77246992215146,238.35018196522444,337.481245576787,221.6579053780833,328.1900212314225,217.08046906591184C318.89879688605805,212.5030327537404,309.6075725406935,220.04043671653858,300.46620665251237,223.74443995147593C291.32484076433116,227.44844318641324,282.3333333333333,227.31904569348967,273.1919674451521,226.7367569753336C264.05060155697095,226.1544682571775,254.7593772116065,225.11928831378893,245.61801132342532,227.57784067933684C236.47664543524414,230.03639304488476,227.4851380042463,235.9886777193692,218.3437721160651,229.59967650626768C209.20240622788393,223.2106752931662,199.91118188251946,204.48038819247878,190.619957537155,201.29397492923576C181.32873319179052,198.10756166599273,172.03750884642605,210.4650222401941,162.89614295824487,217.92155276991505C153.7547770700637,225.37808329963607,144.7632696390658,227.9336837848767,135.62190375088466,229.85847149211483C126.48053786270346,231.783259199353,117.18931351733899,233.07723412858877,108.04794762915782,231.08774767488885C98.90658174097665,229.09826122118884,89.91507430997876,223.82531338455317,80.7737084217976,223.3238980994743C71.63234253361641,222.82248281439547,62.34111818825195,227.09260008087344,53.49946921443737,232.62434290335625C44.65782024062278,238.15608572583906,36.2657466383581,244.94945410432672,27.424097664543524,242.1835826930853C18.582448690728945,239.4177112818439,9.291224345364473,227.09260008087344,4.645612172682236,220.93004448038815L0,214.76748887990294Z" fill="rgb(105, 191, 148)" title="guns"></path><path class="layer" d="M0,214.76748887990294L4.645612172682236,220.93004448038815C9.291224345364473,227.09260008087344,18.582448690728945,239.4177112818439,27.424097664543524,242.18358269308533C36.2657466383581,244.94945410432672,44.65782024062278,238.15608572583906,53.49946921443736,232.62434290335622C62.34111818825195,227.09260008087344,71.63234253361641,222.82248281439547,80.7737084217976,223.3238980994743C89.91507430997876,223.82531338455317,98.90658174097665,229.09826122118884,108.04794762915782,231.0877476748888C117.18931351733899,233.07723412858877,126.48053786270346,231.783259199353,135.62190375088466,229.85847149211486C144.7632696390658,227.9336837848767,153.7547770700637,225.37808329963607,162.89614295824487,217.92155276991505C172.03750884642605,210.4650222401941,181.32873319179052,198.10756166599273,190.619957537155,201.29397492923576C199.91118188251946,204.48038819247878,209.20240622788393,223.2106752931662,218.3437721160651,229.59967650626768C227.4851380042463,235.9886777193692,236.47664543524414,230.03639304488476,245.61801132342532,227.57784067933684C254.7593772116065,225.11928831378893,264.05060155697095,226.1544682571775,273.1919674451521,226.73675697533358C282.3333333333333,227.31904569348967,291.32484076433116,227.44844318641324,300.4662066525123,223.74443995147593C309.6075725406935,220.04043671653858,318.89879688605805,212.5030327537404,328.1900212314225,217.08046906591184C337.481245576787,221.6579053780833,346.77246992215146,238.35018196522444,355.614118895966,276.1019005256773C364.45576786978063,313.8536190861302,372.8478414720453,372.6647796198949,381.6894904458599,376.70845127375657C390.53113941967445,380.75212292761825,399.8223637650389,330.02830570157704,408.96372965322007,296.3526081682167C418.1050955414012,262.6769106348565,427.0966029723991,246.0493327941771,436.23796886058034,253.36029114435905C445.3793347487615,260.67124949454103,454.67055909412596,291.9207440355843,463.8119249823071,294.6542660735948C472.9532908704883,297.3877881116053,481.9447983014862,271.6053376465831,491.0861641896674,256.77315002021834C500.22753007784854,241.94096239385362,509.518754423213,238.05903760614638,518.8099787685775,236.45774363121714C528.101203113942,234.85644965628794,537.3924274593064,235.5357864941367,546.5337933474875,235.48726243429033C555.6751592356687,235.438738374444,564.6666666666666,234.66235341690256,573.8080325548477,236.94298422968055C582.949398443029,239.2236150424586,592.2406227883935,244.561261625556,601.3819886765746,244.41568944601696C610.5233545647558,244.27011726647797,619.5148619957537,238.64132632430244,628.6562278839348,232.25232511120097C637.7975937721161,225.86332389809945,647.0888181174805,218.714112414072,656.380042462845,219.9595632834614C665.6712668082096,221.2050141528508,674.962491153574,230.84512737565709,683.8041401273886,232.12292761827743C692.6457891012033,233.40072786089772,701.0378627034679,226.31621512333197,709.8795116772825,224.35907804286288C718.721160651097,222.40194096239384,728.0123849964615,225.5721795390214,737.1537508846426,222.48281439547108C746.2951167728238,219.3934492519207,755.2866242038217,210.04448038819248,764.4279900920028,210.77234128588756C773.569355980184,211.5002021835827,782.8605803255485,222.30489284270115,792.0019462137296,231.7509098261221C801.1433121019109,241.19692680954304,810.1348195329086,249.2842701172665,819.2761854210898,250.6752931661949C828.4175513092711,252.06631621512335,837.7087756546356,246.76101900525677,842.3543878273177,244.10837040032348L847,241.45572179539022L847,243.97897290739994L842.3543878273177,246.5345733926405C837.7087756546356,249.09017387788114,828.4175513092711,254.20137484836232,819.27618542109,253.3279417711282C810.1348195329086,252.4545086938941,801.1433121019109,245.59644156894464,792.0019462137298,244.88475535786495C782.8605803255485,244.1730691467853,773.569355980184,249.60776384957543,764.4279900920028,249.46219167003642C755.2866242038217,249.3166194904974,746.2951167728238,243.59078042862924,737.1537508846426,238.7868985038415C728.0123849964615,233.9830165790538,718.721160651097,230.10109179134656,709.8795116772825,231.24949454104328C701.0378627034679,232.39789729074002,692.6457891012033,238.5766275778407,683.8041401273886,242.53942579862516C674.962491153574,246.50222401940962,665.6712668082096,248.24909017387787,656.380042462845,246.55074807925598C647.0888181174805,244.85240598463406,637.7975937721161,239.70885564092194,628.6562278839348,240.469065911848C619.5148619957537,241.229276182774,610.5233545647558,247.89324706833804,601.3819886765746,252.56773150020217C592.2406227883935,257.2422159320663,582.949398443029,259.9272139102305,573.8080325548477,260.23453295592395C564.6666666666666,260.5418520016174,555.6751592356687,258.47149211484026,546.5337933474875,254.2175495349777C537.3924274593064,249.9636069551152,528.101203113942,243.5260816821674,518.8099787685775,241.92478770723815C509.518754423213,240.32349373230895,500.22753007784854,243.5584310553983,491.0861641896674,258.3259199353013C481.9447983014862,273.0934088152042,472.9532908704883,299.3934492519208,463.8119249823071,296.8216740800647C454.67055909412596,294.2498989082087,445.3793347487615,262.80630812778,436.23796886058034,256.3687828548322C427.0966029723991,249.93125758188435,418.1050955414012,268.49979781641736,408.96372965322007,303.2430246663971C399.8223637650389,337.98625151637685,390.53113941967445,388.9041649818035,381.6894904458599,384.14880711686214C372.8478414720453,379.3934492519208,364.45576786978063,318.9648200566114,355.614118895966,289.6886372826527C346.77246992215146,260.4124545086939,337.481245576787,262.28871815608574,328.1900212314225,257.42013748483623C318.89879688605805,252.5515568135867,309.6075725406935,240.93813182369593,300.46620665251237,235.06672058228875C291.32484076433116,229.19530934088155,282.3333333333333,229.06591184795798,273.1919674451521,229.38940558026692C264.05060155697095,229.71289931257584,254.7593772116065,230.48928427011728,245.61801132342532,233.23898099474323C236.47664543524414,235.9886777193692,227.4851380042463,240.71168621107964,218.3437721160651,233.5786494136676C209.20240622788393,226.44561261625554,199.91118188251946,207.456530529721,190.619957537155,204.14071977355437C181.32873319179052,200.8249090173878,172.03750884642605,213.1823695915892,162.89614295824487,220.60655074807926C153.7547770700637,228.03073190456936,144.7632696390658,230.52163364334817,135.62190375088466,232.38172260412455C126.48053786270346,234.2418115649009,117.18931351733899,235.4710877476749,108.04794762915782,234.5491306105944C98.90658174097665,233.62717347351395,89.91507430997876,230.55398301657905,80.7737084217976,233.0610594419733C71.63234253361641,235.56813586736757,62.34111818825195,243.65547917509096,53.49946921443737,250.96643752527294C44.65782024062278,258.2773958754549,36.2657466383581,264.8119692680954,27.424097664543524,272.7213910230489C18.582448690728945,280.63081277800245,9.291224345364473,289.91508289526894,4.645612172682236,294.5572179539022L0,299.1993530125354Z" fill="rgb(105, 191, 191)" title="women"></path><path class="layer" d="M0,299.1993530125354L4.645612172682236,294.5572179539022C9.291224345364473,289.91508289526894,18.582448690728945,280.63081277800245,27.424097664543524,272.72139102304897C36.2657466383581,264.8119692680954,44.65782024062278,258.2773958754549,53.49946921443736,250.96643752527294C62.34111818825195,243.65547917509096,71.63234253361641,235.56813586736757,80.7737084217976,233.0610594419733C89.91507430997876,230.55398301657905,98.90658174097665,233.62717347351395,108.04794762915782,234.5491306105944C117.18931351733899,235.4710877476749,126.48053786270346,234.2418115649009,135.62190375088466,232.38172260412455C144.7632696390658,230.52163364334817,153.7547770700637,228.03073190456936,162.89614295824487,220.60655074807926C172.03750884642605,213.1823695915892,181.32873319179052,200.8249090173878,190.619957537155,204.14071977355442C199.91118188251946,207.456530529721,209.20240622788393,226.44561261625554,218.3437721160651,233.5786494136676C227.4851380042463,240.71168621107964,236.47664543524414,235.9886777193692,245.61801132342532,233.23898099474323C254.7593772116065,230.48928427011728,264.05060155697095,229.71289931257584,273.1919674451521,229.38940558026692C282.3333333333333,229.06591184795798,291.32484076433116,229.19530934088155,300.4662066525123,235.06672058228875C309.6075725406935,240.93813182369593,318.89879688605805,252.5515568135867,328.1900212314225,257.42013748483623C337.481245576787,262.28871815608574,346.77246992215146,260.4124545086939,355.614118895966,289.6886372826527C364.45576786978063,318.9648200566114,372.8478414720453,379.3934492519208,381.6894904458599,384.14880711686214C390.53113941967445,388.9041649818035,399.8223637650389,337.98625151637685,408.96372965322007,303.2430246663971C418.1050955414012,268.49979781641736,427.0966029723991,249.93125758188435,436.23796886058034,256.3687828548322C445.3793347487615,262.80630812778,454.67055909412596,294.2498989082087,463.8119249823071,296.8216740800647C472.9532908704883,299.3934492519208,481.9447983014862,273.0934088152042,491.0861641896674,258.3259199353013C500.22753007784854,243.5584310553983,509.518754423213,240.32349373230895,518.8099787685775,241.92478770723815C528.101203113942,243.5260816821674,537.3924274593064,249.9636069551152,546.5337933474875,254.2175495349777C555.6751592356687,258.47149211484026,564.6666666666666,260.5418520016174,573.8080325548477,260.23453295592395C582.949398443029,259.9272139102305,592.2406227883935,257.2422159320663,601.3819886765746,252.56773150020217C610.5233545647558,247.89324706833804,619.5148619957537,241.229276182774,628.6562278839348,240.469065911848C637.7975937721161,239.70885564092194,647.0888181174805,244.85240598463406,656.380042462845,246.55074807925595C665.6712668082096,248.24909017387787,674.962491153574,246.50222401940962,683.8041401273886,242.53942579862516C692.6457891012033,238.5766275778407,701.0378627034679,232.39789729074002,709.8795116772825,231.24949454104328C718.721160651097,230.10109179134656,728.0123849964615,233.9830165790538,737.1537508846426,238.7868985038415C746.2951167728238,243.59078042862924,755.2866242038217,249.3166194904974,764.4279900920028,249.4621916700364C773.569355980184,249.60776384957543,782.8605803255485,244.1730691467853,792.0019462137296,244.88475535786495C801.1433121019109,245.59644156894464,810.1348195329086,252.4545086938941,819.2761854210898,253.3279417711282C828.4175513092711,254.20137484836232,837.7087756546356,249.09017387788114,842.3543878273177,246.53457339264057L847,243.97897290739994L847,253.29559239789728L842.3543878273177,255.46300040436714C837.7087756546356,257.630408410837,828.4175513092711,261.96522442377676,819.27618542109,260.4124545086939C810.1348195329086,258.859684593611,801.1433121019109,251.41932875050546,792.0019462137298,251.12818439142742C782.8605803255485,250.8370400323494,773.569355980184,257.6951071572988,764.4279900920028,257.90537808329964C755.2866242038217,258.1156490093004,746.2951167728238,251.6781237363526,737.1537508846426,246.55074807925598C728.0123849964615,241.4233724221593,718.721160651097,237.60614638091388,709.8795116772825,238.81924787707237C701.0378627034679,240.03234937323091,692.6457891012033,246.27577840679336,683.8041401273886,252.95592397897292C674.962491153574,259.63606955115245,665.6712668082096,266.75293166194905,656.380042462845,264.3105539830166C647.0888181174805,261.8681763040841,637.7975937721161,249.86655883542258,628.6562278839348,247.84472300849174C619.5148619957537,245.82288718156087,610.5233545647558,253.7808329963607,601.3819886765746,259.4904973716134C592.2406227883935,265.2001617468661,582.949398443029,268.66154468257173,573.8080325548477,269.48645369995955C564.6666666666666,270.3113627173473,555.6751592356687,268.4997978164173,546.5337933474875,265.1516376870198C537.3924274593064,261.80347755762233,528.101203113942,256.9187221997574,518.8099787685775,254.76748887990297C509.518754423213,252.61625556004853,500.22753007784854,253.1985442782046,491.0861641896674,266.86615446825715C481.9447983014862,280.53376465830974,472.9532908704883,307.2866963202588,463.8119249823071,304.74727052163365C454.67055909412596,302.20784472300846,445.3793347487615,270.37606146380915,436.23796886058034,264.650222401941C427.0966029723991,258.92438334007284,418.1050955414012,279.30448847553583,408.96372965322007,314.43590780428633C399.8223637650389,349.5673271330368,390.53113941967445,399.4500606550748,381.6894904458599,394.0800646987464C372.8478414720453,388.7100687424181,364.45576786978063,328.0873433077234,355.614118895966,300.7521229276183C346.77246992215146,273.41690254751313,337.481245576787,279.36918722199755,328.1900212314225,273.918317832592C318.89879688605805,268.4674484431864,309.6075725406935,251.61342498989083,300.46620665251237,244.73918317832593C291.32484076433116,237.86494136676103,282.3333333333333,240.9704811969268,273.1919674451521,244.85240598463406C264.05060155697095,248.7343307723413,254.7593772116065,253.39264051758997,245.61801132342532,259.15082895268904C236.47664543524414,264.9090173877881,227.4851380042463,271.76708451273754,218.3437721160651,276.47391831783256C209.20240622788393,281.1807521229276,199.91118188251946,283.73635260816815,190.619957537155,275.98867771936915C181.32873319179052,268.24100283057015,172.03750884642605,250.1900525677315,162.89614295824487,242.7335220380105C153.7547770700637,235.2769915082895,144.7632696390658,238.41488071168624,135.62190375088466,241.08370400323494C126.48053786270346,243.75252729478368,117.18931351733899,245.95228467448445,108.04794762915782,244.67448443186413C98.90658174097665,243.39668418924384,89.91507430997876,238.64132632430247,80.7737084217976,240.4367165386171C71.63234253361641,242.2321067529317,62.34111818825195,250.57824504650227,53.49946921443737,257.59805903760616C44.65782024062278,264.6178730287101,36.2657466383581,270.3113627173473,27.424097664543524,277.2179539021431C18.582448690728945,284.1245450869389,9.291224345364473,292.24423776789325,4.645612172682236,296.30408410837043L0,300.36393044884755Z" fill="rgb(105, 148, 191)" title="race_confed"></path><path class="layer" d="M0,300.36393044884755L4.645612172682236,296.3040841083704C9.291224345364473,292.24423776789325,18.582448690728945,284.1245450869389,27.424097664543524,277.2179539021431C36.2657466383581,270.3113627173473,44.65782024062278,264.6178730287101,53.49946921443736,257.59805903760616C62.34111818825195,250.57824504650227,71.63234253361641,242.2321067529317,80.7737084217976,240.4367165386171C89.91507430997876,238.64132632430247,98.90658174097665,243.39668418924384,108.04794762915782,244.67448443186416C117.18931351733899,245.95228467448445,126.48053786270346,243.75252729478368,135.62190375088466,241.08370400323497C144.7632696390658,238.41488071168624,153.7547770700637,235.2769915082895,162.89614295824487,242.7335220380105C172.03750884642605,250.1900525677315,181.32873319179052,268.24100283057015,190.619957537155,275.98867771936915C199.91118188251946,283.73635260816815,209.20240622788393,281.1807521229276,218.3437721160651,276.4739183178326C227.4851380042463,271.76708451273754,236.47664543524414,264.9090173877881,245.61801132342532,259.15082895268904C254.7593772116065,253.39264051758997,264.05060155697095,248.7343307723413,273.1919674451521,244.85240598463406C282.3333333333333,240.9704811969268,291.32484076433116,237.86494136676103,300.4662066525123,244.7391831783259C309.6075725406935,251.61342498989083,318.89879688605805,268.4674484431864,328.1900212314225,273.918317832592C337.481245576787,279.36918722199755,346.77246992215146,273.41690254751313,355.614118895966,300.75212292761825C364.45576786978063,328.0873433077234,372.8478414720453,388.7100687424181,381.6894904458599,394.0800646987465C390.53113941967445,399.4500606550748,399.8223637650389,349.5673271330368,408.96372965322007,314.43590780428633C418.1050955414012,279.30448847553583,427.0966029723991,258.92438334007284,436.23796886058034,264.650222401941C445.3793347487615,270.37606146380915,454.67055909412596,302.20784472300846,463.8119249823071,304.74727052163365C472.9532908704883,307.2866963202588,481.9447983014862,280.53376465830974,491.0861641896674,266.86615446825715C500.22753007784854,253.1985442782046,509.518754423213,252.61625556004853,518.8099787685775,254.76748887990297C528.101203113942,256.9187221997574,537.3924274593064,261.80347755762233,546.5337933474875,265.1516376870198C555.6751592356687,268.4997978164173,564.6666666666666,270.3113627173473,573.8080325548477,269.48645369995955C582.949398443029,268.66154468257173,592.2406227883935,265.2001617468661,601.3819886765746,259.4904973716134C610.5233545647558,253.7808329963607,619.5148619957537,245.82288718156087,628.6562278839348,247.84472300849174C637.7975937721161,249.86655883542258,647.0888181174805,261.8681763040841,656.380042462845,264.3105539830166C665.6712668082096,266.75293166194905,674.962491153574,259.63606955115245,683.8041401273886,252.95592397897292C692.6457891012033,246.27577840679336,701.0378627034679,240.03234937323091,709.8795116772825,238.81924787707237C718.721160651097,237.60614638091388,728.0123849964615,241.4233724221593,737.1537508846426,246.55074807925598C746.2951167728238,251.6781237363526,755.2866242038217,258.1156490093004,764.4279900920028,257.90537808329964C773.569355980184,257.6951071572988,782.8605803255485,250.8370400323494,792.0019462137296,251.12818439142742C801.1433121019109,251.41932875050546,810.1348195329086,258.859684593611,819.2761854210898,260.4124545086939C828.4175513092711,261.96522442377676,837.7087756546356,257.630408410837,842.3543878273177,255.46300040436714L847,253.29559239789728L847,262.0299231702386L842.3543878273177,264.326728669632C837.7087756546356,266.6235341690255,828.4175513092711,271.21714516781236,819.27618542109,270.1496158511929C810.1348195329086,269.0820865345734,801.1433121019109,262.3534169025475,792.0019462137298,262.6769106348565C782.8605803255485,263.0004043671654,773.569355980184,270.37606146380915,764.4279900920028,269.9393449251921C755.2866242038217,269.502628386575,746.2951167728238,261.25353821269715,737.1537508846426,255.28507885159726C728.0123849964615,249.31661949049737,718.721160651097,245.62879094217547,709.8795116772825,246.2919530934088C701.0378627034679,246.95511524464214,692.6457891012033,251.9692680954307,683.8041401273886,258.1965224423777C674.962491153574,264.42377678932473,665.6712668082096,271.86413263243026,656.380042462845,269.64820056611404C647.0888181174805,267.43226849979783,637.7975937721161,255.56004852405985,628.6562278839348,253.21471896482004C619.5148619957537,250.86938940558025,610.5233545647558,258.0509502628386,601.3819886765746,265.70157703194496C592.2406227883935,273.3522038010513,582.949398443029,281.47189648200566,573.8080325548477,283.4613829357056C564.6666666666666,285.45086938940557,555.6751592356687,281.31014961585123,546.5337933474875,276.668014557218C537.3924274593064,272.02587949858474,528.101203113942,266.8823291548726,518.8099787685775,264.01940962393854C509.518754423213,261.15649009300444,500.22753007784854,260.57420137484837,491.0861641896674,273.8212697128993C481.9447983014862,287.0683380509503,472.9532908704883,314.14476344520824,463.8119249823071,311.54063890012134C454.67055909412596,308.9365143550344,445.3793347487615,276.6518398706025,436.23796886058034,270.53780832996364C427.0966029723991,264.4237767893247,418.1050955414012,284.48038819247876,408.96372965322007,319.5471087747675C399.8223637650389,354.6138293570562,390.53113941967445,404.6906591184796,381.6894904458599,400.4852405984634C372.8478414720453,396.27982207844724,364.45576786978063,337.7921552769915,355.614118895966,309.97169429842296C346.77246992215146,282.1512333198544,337.481245576787,284.99797816417305,328.1900212314225,278.22078447230086C318.89879688605805,271.4435907804286,309.6075725406935,255.0424585523656,300.46620665251237,248.71815608572584C291.32484076433116,242.39385361908614,282.3333333333333,246.14638091386982,273.1919674451521,250.12535382126973C264.05060155697095,254.10432672866963,254.7593772116065,258.30974524868583,245.61801132342532,264.1326324302467C236.47664543524414,269.9555196118075,227.4851380042463,277.39587545491304,218.3437721160651,282.10270926000806C209.20240622788393,286.80954306510307,199.91118188251946,288.78285483218764,190.619957537155,280.38819247877075C181.32873319179052,271.99353012535386,172.03750884642605,253.2308936514355,162.89614295824487,245.74201374848363C153.7547770700637,238.25313384553178,144.7632696390658,242.0380105135463,135.62190375088466,245.4185200161747C126.48053786270346,248.79902951880308,117.18931351733899,251.7751718560453,108.04794762915782,250.56207035988677C98.90658174097665,249.3489688637283,89.91507430997876,243.94662353416905,80.7737084217976,245.35382126971294C71.63234253361641,246.76101900525677,62.34111818825195,254.97775980590373,53.49946921443737,261.28588758592804C44.65782024062278,267.59401536595226,36.2657466383581,271.9935301253538,27.424097664543524,278.1884350990699C18.582448690728945,284.3833400727861,9.291224345364473,292.3736352608168,4.645612172682236,296.3687828548322L0,300.36393044884755Z" fill="rgb(105, 105, 191)" title="collective_bargaining"></path><path class="layer" d="M0,300.36393044884755L4.645612172682236,296.3687828548322C9.291224345364473,292.3736352608168,18.582448690728945,284.3833400727861,27.424097664543524,278.1884350990699C36.2657466383581,271.9935301253538,44.65782024062278,267.59401536595226,53.49946921443736,261.28588758592804C62.34111818825195,254.97775980590373,71.63234253361641,246.76101900525677,80.7737084217976,245.35382126971288C89.91507430997876,243.94662353416905,98.90658174097665,249.3489688637283,108.04794762915782,250.5620703598868C117.18931351733899,251.7751718560453,126.48053786270346,248.79902951880308,135.62190375088466,245.4185200161747C144.7632696390658,242.0380105135463,153.7547770700637,238.25313384553178,162.89614295824487,245.74201374848363C172.03750884642605,253.2308936514355,181.32873319179052,271.99353012535386,190.619957537155,280.3881924787707C199.91118188251946,288.78285483218764,209.20240622788393,286.80954306510307,218.3437721160651,282.10270926000806C227.4851380042463,277.39587545491304,236.47664543524414,269.9555196118075,245.61801132342532,264.13263243024664C254.7593772116065,258.30974524868583,264.05060155697095,254.10432672866963,273.1919674451521,250.12535382126973C282.3333333333333,246.14638091386982,291.32484076433116,242.39385361908614,300.4662066525123,248.71815608572584C309.6075725406935,255.0424585523656,318.89879688605805,271.4435907804286,328.1900212314225,278.22078447230086C337.481245576787,284.99797816417305,346.77246992215146,282.1512333198544,355.614118895966,309.97169429842296C364.45576786978063,337.7921552769915,372.8478414720453,396.27982207844724,381.6894904458599,400.4852405984634C390.53113941967445,404.6906591184796,399.8223637650389,354.6138293570562,408.96372965322007,319.5471087747675C418.1050955414012,284.48038819247876,427.0966029723991,264.4237767893247,436.23796886058034,270.5378083299636C445.3793347487615,276.6518398706025,454.67055909412596,308.9365143550344,463.8119249823071,311.54063890012134C472.9532908704883,314.14476344520824,481.9447983014862,287.0683380509503,491.0861641896674,273.8212697128993C500.22753007784854,260.57420137484837,509.518754423213,261.15649009300444,518.8099787685775,264.01940962393854C528.101203113942,266.8823291548726,537.3924274593064,272.02587949858474,546.5337933474875,276.668014557218C555.6751592356687,281.31014961585123,564.6666666666666,285.45086938940557,573.8080325548477,283.4613829357056C582.949398443029,281.47189648200566,592.2406227883935,273.3522038010513,601.3819886765746,265.70157703194496C610.5233545647558,258.0509502628386,619.5148619957537,250.86938940558025,628.6562278839348,253.21471896482004C637.7975937721161,255.56004852405985,647.0888181174805,267.43226849979783,656.380042462845,269.64820056611404C665.6712668082096,271.86413263243026,674.962491153574,264.42377678932473,683.8041401273886,258.1965224423777C692.6457891012033,251.9692680954307,701.0378627034679,246.95511524464214,709.8795116772825,246.2919530934088C718.721160651097,245.62879094217547,728.0123849964615,249.31661949049737,737.1537508846426,255.28507885159726C746.2951167728238,261.25353821269715,755.2866242038217,269.502628386575,764.4279900920028,269.9393449251921C773.569355980184,270.37606146380915,782.8605803255485,263.0004043671654,792.0019462137296,262.6769106348565C801.1433121019109,262.3534169025475,810.1348195329086,269.0820865345734,819.2761854210898,270.1496158511929C828.4175513092711,271.21714516781236,837.7087756546356,266.6235341690255,842.3543878273177,264.326728669632L847,262.0299231702386L847,267.65871411241403L842.3543878273177,269.92317023857663C837.7087756546356,272.1876263647392,828.4175513092711,276.71653861706426,819.27618542109,275.7784067933684C810.1348195329086,274.84027496967246,801.1433121019109,268.4350990699555,792.0019462137298,269.2438334007279C782.8605803255485,270.05256773150023,773.569355980184,278.0752122927618,764.4279900920028,278.0266882329155C755.2866242038217,277.97816417306916,746.2951167728238,269.8584714921148,737.1537508846426,265.7986251516377C728.0123849964615,261.7387788111605,718.721160651097,261.7387788111605,709.8795116772825,261.3344116457743C701.0378627034679,260.9300444803882,692.6457891012033,260.12131014961585,683.8041401273886,263.566518398706C674.962491153574,267.0117266477962,665.6712668082096,274.7108774767489,656.380042462845,272.689041649818C647.0888181174805,270.6672058228872,637.7975937721161,258.9243833400728,628.6562278839348,256.5143550343712C619.5148619957537,254.10432672866963,610.5233545647558,261.02709260008083,601.3819886765746,268.6777193691872C592.2406227883935,276.32834613829357,582.949398443029,284.706833805095,573.8080325548477,287.6668014557218C564.6666666666666,290.62676910634855,555.6751592356687,288.16821674080063,546.5337933474875,283.6878285483219C537.3924274593064,279.2074403558431,528.101203113942,272.70521633643347,518.8099787685775,269.3247068338051C509.518754423213,265.9441973311767,500.22753007784854,265.6854023453296,491.0861641896674,278.9648200566114C481.9447983014862,292.24423776789325,472.9532908704883,319.06186817630413,463.8119249823071,316.3606955115245C454.67055909412596,313.6595228467449,445.3793347487615,281.4395471087748,436.23796886058034,275.4225636878286C427.0966029723991,269.4055802668823,418.1050955414012,289.59158916295996,408.96372965322007,324.6906591184796C399.8223637650389,359.7897290739991,390.53113941967445,409.8018600889607,381.6894904458599,405.88758592802265C372.8478414720453,401.97331176708457,364.45576786978063,344.1326324302466,355.614118895966,315.8592802264456C346.77246992215146,287.5859280226445,337.481245576787,288.8799029518803,328.1900212314225,281.48807116862105C318.89879688605805,274.0962393853619,309.6075725406935,258.01860088960774,300.46620665251237,251.98544278204608C291.32484076433116,245.95228467448442,282.3333333333333,249.96360695511524,273.1919674451521,254.4601698342095C264.05060155697095,258.95673271330367,254.7593772116065,263.93853619086127,245.61801132342532,269.8908208653457C236.47664543524414,275.84310553983016,227.4851380042463,282.7658714112414,218.3437721160651,287.3109583501819C209.20240622788393,291.8560452891225,199.91118188251946,294.0234532955924,190.619957537155,285.53174282248284C181.32873319179052,277.04003234937323,172.03750884642605,257.8892033966842,162.89614295824487,250.33562474727054C153.7547770700637,242.78204609785686,144.7632696390658,246.82571775171857,135.62190375088466,250.5297209866559C126.48053786270346,254.2337242215932,117.18931351733899,257.5980590376061,108.04794762915782,258.55236554791753C98.90658174097665,259.50667205822884,89.91507430997876,258.0509502628386,80.7737084217976,260.04043671653864C71.63234253361641,262.0299231702386,62.34111818825195,267.4646178730287,53.49946921443737,272.1552769915083C44.65782024062278,276.84593610998786,36.2657466383581,280.7925596441569,27.424097664543524,285.6287909421755C18.582448690728945,290.46502224019406,9.291224345364473,296.1908613020623,4.645612172682236,299.0537808329963L0,301.91670036393043Z" fill="rgb(148, 105, 191)" title="environment"></path><path class="layer" d="M0,301.91670036393043L4.645612172682236,299.0537808329963C9.291224345364473,296.1908613020623,18.582448690728945,290.46502224019406,27.424097664543524,285.6287909421755C36.2657466383581,280.7925596441569,44.65782024062278,276.84593610998786,53.49946921443736,272.1552769915083C62.34111818825195,267.4646178730287,71.63234253361641,262.0299231702386,80.7737084217976,260.04043671653864C89.91507430997876,258.0509502628386,98.90658174097665,259.50667205822884,108.04794762915782,258.5523655479175C117.18931351733899,257.5980590376061,126.48053786270346,254.2337242215932,135.62190375088466,250.5297209866559C144.7632696390658,246.82571775171857,153.7547770700637,242.78204609785686,162.89614295824487,250.33562474727054C172.03750884642605,257.8892033966842,181.32873319179052,277.04003234937323,190.619957537155,285.5317428224828C199.91118188251946,294.0234532955924,209.20240622788393,291.8560452891225,218.3437721160651,287.3109583501819C227.4851380042463,282.7658714112414,236.47664543524414,275.84310553983016,245.61801132342532,269.8908208653457C254.7593772116065,263.93853619086127,264.05060155697095,258.95673271330367,273.1919674451521,254.4601698342095C282.3333333333333,249.96360695511524,291.32484076433116,245.95228467448442,300.4662066525123,251.98544278204608C309.6075725406935,258.01860088960774,318.89879688605805,274.0962393853619,328.1900212314225,281.48807116862105C337.481245576787,288.8799029518803,346.77246992215146,287.5859280226445,355.614118895966,315.8592802264456C364.45576786978063,344.1326324302466,372.8478414720453,401.97331176708457,381.6894904458599,405.88758592802265C390.53113941967445,409.8018600889607,399.8223637650389,359.7897290739991,408.96372965322007,324.6906591184796C418.1050955414012,289.59158916295996,427.0966029723991,269.4055802668823,436.23796886058034,275.4225636878286C445.3793347487615,281.4395471087748,454.67055909412596,313.6595228467449,463.8119249823071,316.3606955115245C472.9532908704883,319.06186817630413,481.9447983014862,292.24423776789325,491.0861641896674,278.9648200566114C500.22753007784854,265.6854023453296,509.518754423213,265.9441973311767,518.8099787685775,269.3247068338051C528.101203113942,272.70521633643347,537.3924274593064,279.2074403558431,546.5337933474875,283.6878285483219C555.6751592356687,288.16821674080063,564.6666666666666,290.62676910634855,573.8080325548477,287.6668014557218C582.949398443029,284.706833805095,592.2406227883935,276.32834613829357,601.3819886765746,268.6777193691872C610.5233545647558,261.02709260008083,619.5148619957537,254.10432672866963,628.6562278839348,256.51435503437125C637.7975937721161,258.9243833400728,647.0888181174805,270.6672058228872,656.380042462845,272.689041649818C665.6712668082096,274.7108774767489,674.962491153574,267.0117266477962,683.8041401273886,263.566518398706C692.6457891012033,260.12131014961585,701.0378627034679,260.9300444803882,709.8795116772825,261.3344116457743C718.721160651097,261.7387788111605,728.0123849964615,261.7387788111605,737.1537508846426,265.7986251516377C746.2951167728238,269.8584714921148,755.2866242038217,277.97816417306916,764.4279900920028,278.0266882329155C773.569355980184,278.0752122927618,782.8605803255485,270.05256773150023,792.0019462137296,269.2438334007279C801.1433121019109,268.4350990699555,810.1348195329086,274.84027496967246,819.2761854210898,275.77840679336833C828.4175513092711,276.71653861706426,837.7087756546356,272.1876263647392,842.3543878273177,269.92317023857663L847,267.65871411241403L847,269.79377274565303L842.3543878273177,271.9611807521229C837.7087756546356,274.1285887585928,828.4175513092711,278.46340477153257,819.27618542109,277.46057420137487C810.1348195329086,276.45774363121717,801.1433121019109,270.117266477962,792.0019462137298,271.24949454104325C782.8605803255485,272.38172260412455,773.569355980184,280.98665588354226,764.4279900920028,280.8410837040032C755.2866242038217,280.69551152446417,746.2951167728238,271.7994338859684,737.1537508846426,267.5778406793368C728.0123849964615,263.3562474727052,718.721160651097,263.8091386979377,709.8795116772825,263.6312171451678C701.0378627034679,263.45329559239786,692.6457891012033,262.64456126162554,683.8041401273886,265.8633238980995C674.962491153574,269.0820865345734,665.6712668082096,276.3283461382936,656.380042462845,273.9830165790538C647.0888181174805,271.637687019814,637.7975937721161,259.7007682976143,628.6562278839348,257.2907399919127C619.5148619957537,254.88071168621104,610.5233545647558,261.99757379700765,601.3819886765746,269.7452486858067C592.2406227883935,277.49292357460575,582.949398443029,285.8714112414072,573.8080325548477,289.1872219975738C564.6666666666666,292.5030327537404,555.6751592356687,290.75616659927215,546.5337933474875,286.4375252729479C537.3924274593064,282.11888394662355,528.101203113942,275.2284674484432,518.8099787685775,271.3950667205823C509.518754423213,267.56166599272143,500.22753007784854,266.78528103517993,491.0861641896674,280.03234937323094C481.9447983014862,293.27941771128184,472.9532908704883,320.54993934492524,463.8119249823071,318.52810351799434C454.67055909412596,316.5062676910635,445.3793347487615,285.1920744035585,436.23796886058034,279.0780428629195C427.0966029723991,272.9640113222806,418.1050955414012,292.0501415285079,408.96372965322007,326.6639708855641C399.8223637650389,361.2778002426203,390.53113941967445,411.41932875050543,381.6894904458599,407.6668014557219C372.8478414720453,403.9142741609382,364.45576786978063,346.26769106348564,355.614118895966,317.96198948645366C346.77246992215146,289.65628790942174,337.481245576787,290.6914678528103,328.1900212314225,283.13788920339664C318.89879688605805,275.58431055398296,309.6075725406935,259.4419733117671,300.46620665251237,253.34411645774358C291.32484076433116,247.24625960372018,282.3333333333333,251.1928831378892,273.1919674451521,255.65709664375254C264.05060155697095,260.1213101496159,254.7593772116065,265.1031136271735,245.61801132342532,271.5082895268904C236.47664543524414,277.9134654266074,227.4851380042463,285.74201374848366,218.3437721160651,290.642943792964C209.20240622788393,295.5438738374444,199.91118188251946,297.5171856045289,190.619957537155,292.0339668418924C181.32873319179052,286.5507480792559,172.03750884642605,273.6109987868985,162.89614295824487,267.67488879902953C153.7547770700637,261.73877881116056,144.7632696390658,262.80630812778,135.62190375088466,265.3780832996361C126.48053786270346,267.9498584714922,117.18931351733899,272.02587949858474,108.04794762915782,271.2656692276587C98.90658174097665,270.50545895673275,89.91507430997876,264.9090173877881,80.7737084217976,266.8985038414881C71.63234253361641,268.88799029518805,62.34111818825195,278.46340477153257,53.49946921443737,284.2539425798625C44.65782024062278,290.0444803881925,36.2657466383581,292.0501415285079,27.424097664543524,294.49251920744035C18.582448690728945,296.9348968863728,9.291224345364473,299.8139911039224,4.645612172682236,301.25353821269715L0,302.6930853214719Z" fill="rgb(191, 105, 191)" title="healthcare"></path><path class="layer" d="M0,302.6930853214719L4.645612172682236,301.25353821269715C9.291224345364473,299.8139911039224,18.582448690728945,296.9348968863728,27.424097664543524,294.49251920744035C36.2657466383581,292.0501415285079,44.65782024062278,290.0444803881925,53.49946921443736,284.2539425798625C62.34111818825195,278.46340477153257,71.63234253361641,268.88799029518805,80.7737084217976,266.8985038414881C89.91507430997876,264.9090173877881,98.90658174097665,270.50545895673275,108.04794762915782,271.2656692276587C117.18931351733899,272.02587949858474,126.48053786270346,267.9498584714922,135.62190375088466,265.3780832996361C144.7632696390658,262.80630812778,153.7547770700637,261.73877881116056,162.89614295824487,267.67488879902953C172.03750884642605,273.6109987868985,181.32873319179052,286.5507480792559,190.619957537155,292.0339668418924C199.91118188251946,297.5171856045289,209.20240622788393,295.5438738374444,218.3437721160651,290.642943792964C227.4851380042463,285.74201374848366,236.47664543524414,277.9134654266074,245.61801132342532,271.50828952689045C254.7593772116065,265.1031136271735,264.05060155697095,260.1213101496159,273.1919674451521,255.65709664375254C282.3333333333333,251.1928831378892,291.32484076433116,247.24625960372018,300.4662066525123,253.34411645774358C309.6075725406935,259.4419733117671,318.89879688605805,275.58431055398296,328.1900212314225,283.13788920339664C337.481245576787,290.6914678528103,346.77246992215146,289.65628790942174,355.614118895966,317.96198948645366C364.45576786978063,346.26769106348564,372.8478414720453,403.9142741609382,381.6894904458599,407.6668014557218C390.53113941967445,411.41932875050543,399.8223637650389,361.2778002426203,408.96372965322007,326.6639708855641C418.1050955414012,292.0501415285079,427.0966029723991,272.9640113222806,436.23796886058034,279.0780428629195C445.3793347487615,285.1920744035585,454.67055909412596,316.5062676910635,463.8119249823071,318.5281035179944C472.9532908704883,320.54993934492524,481.9447983014862,293.27941771128184,491.0861641896674,280.0323493732309C500.22753007784854,266.78528103517993,509.518754423213,267.56166599272143,518.8099787685775,271.3950667205823C528.101203113942,275.2284674484432,537.3924274593064,282.11888394662355,546.5337933474875,286.4375252729479C555.6751592356687,290.75616659927215,564.6666666666666,292.5030327537404,573.8080325548477,289.1872219975738C582.949398443029,285.8714112414072,592.2406227883935,277.49292357460575,601.3819886765746,269.7452486858067C610.5233545647558,261.99757379700765,619.5148619957537,254.88071168621104,628.6562278839348,257.29073999191263C637.7975937721161,259.7007682976143,647.0888181174805,271.637687019814,656.380042462845,273.9830165790538C665.6712668082096,276.3283461382936,674.962491153574,269.0820865345734,683.8041401273886,265.8633238980995C692.6457891012033,262.64456126162554,701.0378627034679,263.45329559239786,709.8795116772825,263.6312171451678C718.721160651097,263.8091386979377,728.0123849964615,263.3562474727052,737.1537508846426,267.5778406793368C746.2951167728238,271.7994338859684,755.2866242038217,280.69551152446417,764.4279900920028,280.8410837040032C773.569355980184,280.98665588354226,782.8605803255485,272.38172260412455,792.0019462137296,271.24949454104325C801.1433121019109,270.117266477962,810.1348195329086,276.45774363121717,819.2761854210898,277.46057420137487C828.4175513092711,278.46340477153257,837.7087756546356,274.1285887585928,842.3543878273177,271.9611807521229L847,269.79377274565303L847,289.0093004448039L842.3543878273177,291.56490093004453C837.7087756546356,294.1205014152851,828.4175513092711,299.23170238576625,819.27618542109,298.48766680145576C810.1348195329086,297.74363121714515,801.1433121019109,291.1443590780429,792.0019462137298,292.6000808734331C782.8605803255485,294.05580266882333,773.569355980184,303.566518398706,764.4279900920028,304.10028305701576C755.2866242038217,304.6340477153255,746.2951167728238,296.1908613020623,737.1537508846426,291.9692680954306C728.0123849964615,287.747674888799,718.721160651097,287.747674888799,709.8795116772825,286.63162151233314C701.0378627034679,285.51556813586734,692.6457891012033,283.2834613829357,683.8041401273886,285.4346947027901C674.962491153574,287.58592802264457,665.6712668082096,294.1205014152851,656.380042462845,290.5782450465022C647.0888181174805,287.03598867771933,637.7975937721161,273.4169025475131,628.6562278839348,270.553983016579C619.5148619957537,267.691063485645,610.5233545647558,275.584310553983,601.3819886765746,284.9171047310959C592.2406227883935,294.2498989082087,582.949398443029,305.02224019409624,573.8080325548477,308.01455721795395C564.6666666666666,311.00687424181154,555.6751592356687,306.2191670036393,546.5337933474875,300.73594824100286C537.3924274593064,295.25272947836635,528.101203113942,289.0739991912656,518.8099787685775,285.8875859280226C509.518754423213,282.70117266477956,500.22753007784854,282.50707642539425,491.0861641896674,296.04528912252323C481.9447983014862,309.5835018196522,472.9532908704883,336.8540234532956,463.8119249823071,336.87019813991105C454.67055909412596,336.8863728265265,445.3793347487615,309.64820056611404,436.23796886058034,305.47513141932876C427.0966029723991,301.3020622725435,418.1050955414012,320.1940962393854,408.96372965322007,353.12575818843516C399.8223637650389,386.0574201374848,390.53113941967445,433.0287100687424,381.6894904458599,427.2058228871815C372.8478414720453,421.3829357056207,364.45576786978063,362.76587141124145,355.614118895966,333.10149615851196C346.77246992215146,303.4371209057825,337.481245576787,302.7254346947028,328.1900212314225,296.8216740800647C318.89879688605805,290.91791346542664,309.6075725406935,279.82207844723007,300.46620665251237,275.63283461382935C291.32484076433116,271.4435907804286,282.3333333333333,274.1609381318237,273.1919674451521,277.8164173069147C264.05060155697095,281.47189648200566,254.7593772116065,286.0655074807925,245.61801132342532,291.72664779619896C236.47664543524414,297.3877881116053,227.4851380042463,304.1164577436312,218.3437721160651,308.98503841488076C209.20240622788393,313.8536190861302,199.91118188251946,316.8621107966033,190.619957537155,311.4435907804286C181.32873319179052,306.02507076425394,172.03750884642605,292.1795390214315,162.89614295824487,285.69348968863727C153.7547770700637,279.20744035584306,144.7632696390658,280.0808734330772,135.62190375088466,282.29680549939343C126.48053786270346,284.51273756570964,117.18931351733899,288.0711686211079,108.04794762915782,292.6162555600485C98.90658174097665,297.1613424989891,89.91507430997876,302.69308532147187,80.7737084217976,305.556004852406C71.63234253361641,308.4189243833401,62.34111818825195,308.6130206227254,53.49946921443737,308.9041649818035C44.65782024062278,309.1953093408815,36.2657466383581,309.5835018196522,27.424097664543524,308.6938940558027C18.582448690728945,307.8042862919531,9.291224345364473,305.6368782854832,4.645612172682236,304.55317428224834L0,303.46947027901336Z" fill="rgb(191, 105, 148)" title="other"></path><g class="x axis" transform="translate(0,480)" fill="none" font-size="10" font-family="sans-serif" text-anchor="middle" style="stroke-width: 1px; font-size: 10px; font-family: Arial, Helvetica;"><path class="domain" stroke="#000" d="M0.5,6V0.5H847.5V6" style="shape-rendering: crispedges; fill: none; stroke: rgb(204, 204, 204);"></path><g class="tick" opacity="1" transform="translate(0.6873230714791224,0)"><line stroke="#000" y2="6" style="shape-rendering: crispedges; fill: none; stroke: rgb(204, 204, 204);"></line><text fill="#000" y="9" dy="0.71em">2017</text></g><g class="tick" opacity="1" transform="translate(81.57342533616419,0)"><line stroke="#000" y2="6" style="shape-rendering: crispedges; fill: none; stroke: rgb(204, 204, 204);"></line><text fill="#000" y="9" dy="0.71em">April</text></g><g class="tick" opacity="1" transform="translate(163.39614295824487,0)"><line stroke="#000" y2="6" style="shape-rendering: crispedges; fill: none; stroke: rgb(204, 204, 204);"></line><text fill="#000" y="9" dy="0.71em">July</text></g><g class="tick" opacity="1" transform="translate(246.11801132342535,0)"><line stroke="#000" y2="6" style="shape-rendering: crispedges; fill: none; stroke: rgb(204, 204, 204);"></line><text fill="#000" y="9" dy="0.71em">October</text></g><g class="tick" opacity="1" transform="translate(328.87734430290163,0)"><line stroke="#000" y2="6" style="shape-rendering: crispedges; fill: none; stroke: rgb(204, 204, 204);"></line><text fill="#000" y="9" dy="0.71em">2018</text></g><g class="tick" opacity="1" transform="translate(409.7634465675867,0)"><line stroke="#000" y2="6" style="shape-rendering: crispedges; fill: none; stroke: rgb(204, 204, 204);"></line><text fill="#000" y="9" dy="0.71em">April</text></g><g class="tick" opacity="1" transform="translate(491.5861641896674,0)"><line stroke="#000" y2="6" style="shape-rendering: crispedges; fill: none; stroke: rgb(204, 204, 204);"></line><text fill="#000" y="9" dy="0.71em">July</text></g><g class="tick" opacity="1" transform="translate(574.3080325548478,0)"><line stroke="#000" y2="6" style="shape-rendering: crispedges; fill: none; stroke: rgb(204, 204, 204);"></line><text fill="#000" y="9" dy="0.71em">October</text></g><g class="tick" opacity="1" transform="translate(657.0673655343242,0)"><line stroke="#000" y2="6" style="shape-rendering: crispedges; fill: none; stroke: rgb(204, 204, 204);"></line><text fill="#000" y="9" dy="0.71em">2019</text></g><g class="tick" opacity="1" transform="translate(737.9534677990092,0)"><line stroke="#000" y2="6" style="shape-rendering: crispedges; fill: none; stroke: rgb(204, 204, 204);"></line><text fill="#000" y="9" dy="0.71em">April</text></g><g class="tick" opacity="1" transform="translate(819.7761854210898,0)"><line stroke="#000" y2="6" style="shape-rendering: crispedges; fill: none; stroke: rgb(204, 204, 204);"></line><text fill="#000" y="9" dy="0.71em">July</text></g></g></g></svg>