<svg width="847" height="500" xmlns="http://www.w3.org/2000/svg" version="1.1"><g><path class="layer" d="M0,304.188393608074L4.645612172682236,302.72497897392765C9.291224345364473,301.26156433978133,18.582448690728945,298.33473507148864,27.424097664543524,293.4903280067283C36.2657466383581,288.64592094196803,44.65782024062278,281.8839360807401,53.49946921443736,276.56854499579475C62.34111818825195,271.25315391084945,71.63234253361641,267.3843566021867,80.7737084217976,263.6164844407065C89.91507430997876,259.84861227922624,98.90658174097665,256.18166526492854,108.04794762915782,253.91084945332213C117.18931351733899,251.64003364171572,126.48053786270346,250.76534903280063,135.62190375088466,250.89991589571068C144.7632696390658,251.0344827586207,153.7547770700637,252.17830109335577,162.89614295824487,243.49873843566024C172.03750884642605,234.8191757779647,181.32873319179052,216.31623212783856,190.619957537155,214.04541631623215C199.91118188251946,211.77460050462574,209.20240622788393,225.73591253153913,218.3437721160651,229.94112699747689C227.4851380042463,234.14634146341464,236.47664543524414,228.59545836837677,245.61801132342532,227.4684608915055C254.7593772116065,226.34146341463415,264.05060155697095,229.63835155592938,273.1919674451521,232.5147182506308C282.3333333333333,235.3910849453322,291.32484076433116,237.84693019343987,300.4662066525123,243.22960470984017C309.6075725406935,248.61227922624053,318.89879688605805,256.92178301093355,328.1900212314225,251.0008410428932C337.481245576787,245.07989907485285,346.77246992215146,224.9285113540791,355.614118895966,186.17325483599666C364.45576786978063,147.41799831791425,372.8478414720453,90.05887300252316,381.6894904458599,85.31539108494535C390.53113941967445,80.57190916736754,399.8223637650389,128.444070647603,408.96372965322007,161.8166526492851C418.1050955414012,195.18923465096717,427.0966029723991,214.06223717409588,436.23796886058034,238.2842724978974C445.3793347487615,262.50630782169895,454.67055909412596,292.0773759461733,463.8119249823071,293.8940285954584C472.9532908704883,295.71068124474345,481.9447983014862,269.7729184188393,491.0861641896674,254.2304457527334C500.22753007784854,238.68797308662738,509.518754423213,233.54079058031957,518.8099787685775,232.81749369217832C528.101203113942,232.09419680403698,537.3924274593064,235.79478553406224,546.5337933474875,237.4936921783011C555.6751592356687,239.19259882253996,564.6666666666666,238.88982338099245,573.8080325548477,241.90075693860388C582.949398443029,244.91169049621533,592.2406227883935,251.2363330529857,601.3819886765746,250.96719932716573C610.5233545647558,250.69806560134566,619.5148619957537,243.83515559293525,628.6562278839348,242.74179983179144C637.7975937721161,241.64844407064757,647.0888181174805,246.32464255677039,656.380042462845,247.97308662741798C665.6712668082096,249.62153069806558,674.962491153574,248.24222035323797,683.8041401273886,246.52649285113537C692.6457891012033,244.81076534903278,701.0378627034679,242.75862068965515,709.8795116772825,241.04289318755255C718.721160651097,239.32716568544996,728.0123849964615,237.94785534062237,737.1537508846426,240.55508830950376C746.2951167728238,243.1623212783852,755.2866242038217,249.7560975609756,764.4279900920028,249.92430613961312C773.569355980184,250.0925147182506,782.8605803255485,243.8351555929352,792.0019462137296,246.12279226240534C801.1433121019109,248.41042893187554,810.1348195329086,259.24306139613117,819.2761854210898,257.93103448275866C828.4175513092711,256.61900756938604,837.7087756546356,243.1623212783852,842.3543878273177,236.43397813288482L847,229.70563498738437L847,253.72582001682085L842.3543878273177,256.71993271656856C837.7087756546356,259.7140454163162,828.4175513092711,265.70227081581163,819.27618542109,264.322960470984C810.1348195329086,262.94365012615646,801.1433121019109,254.1968040370059,792.0019462137298,251.97645079899075C782.8605803255485,249.7560975609756,773.569355980184,254.06223717409588,764.4279900920028,253.22119428090835C755.2866242038217,252.38015138772076,746.2951167728238,246.39192598822538,737.1537508846426,244.15475189234652C728.0123849964615,241.91757779646764,718.721160651097,243.4314550042052,709.8795116772825,244.9116904962153C701.0378627034679,246.39192598822538,692.6457891012033,247.83851976450796,683.8041401273886,249.25147182506305C674.962491153574,250.66442388561816,665.6712668082096,252.04373423044572,656.380042462845,250.22708158116063C647.0888181174805,248.41042893187554,637.7975937721161,243.3978132884777,628.6562278839348,244.49116904962148C619.5148619957537,245.58452481076532,610.5233545647558,252.7838519764508,601.3819886765746,253.22119428090832C592.2406227883935,253.65853658536585,582.949398443029,247.33389402859544,573.8080325548477,244.3566021867115C564.6666666666666,241.3793103448276,555.6751592356687,241.74936921783012,546.5337933474875,240.62237174095878C537.3924274593064,239.49537426408747,528.101203113942,236.87132043734232,518.8099787685775,238.23380992430612C509.518754423213,239.59629941127,500.22753007784854,244.94533221194283,491.0861641896674,261.49705634987384C481.9447983014862,278.0487804878049,472.9532908704883,305.80319596299415,463.8119249823071,304.255677039529C454.67055909412596,302.70815811606394,445.3793347487615,271.8587047939445,436.23796886058034,262.70815811606394C427.0966029723991,253.55761143818336,418.1050955414012,266.10597140454166,408.96372965322007,299.5794785534062C399.8223637650389,333.0529857022708,390.53113941967445,387.4516400336417,381.6894904458599,383.7510513036164C372.8478414720453,380.05046257359123,364.45576786978063,318.2506307821699,355.614118895966,289.04962153069806C346.77246992215146,259.84861227922624,337.481245576787,263.24642556770397,328.1900212314225,260.7232968881413C318.89879688605805,258.20016820857865,309.6075725406935,249.7560975609756,300.46620665251237,244.23885618166528C291.32484076433116,238.7216148023549,282.3333333333333,236.13120269133728,273.1919674451521,233.69217830109335C264.05060155697095,231.25315391084948,254.7593772116065,228.9655172413793,245.61801132342532,230.12615643397814C236.47664543524414,231.28679562657695,227.4851380042463,235.89571068124474,218.3437721160651,231.21951219512198C209.20240622788393,226.54331370899914,199.91118188251946,212.5820016820858,190.619957537155,214.92010092514718C181.32873319179052,217.25820016820862,172.03750884642605,235.89571068124474,162.89614295824487,244.87804878048777C153.7547770700637,253.86038687973087,144.7632696390658,253.1875525651808,135.62190375088466,253.0529857022708C126.48053786270346,252.9184188393608,117.18931351733899,253.32211942809082,108.04794762915782,255.3910849453322C98.90658174097665,257.46005046257363,89.91507430997876,261.19428090832633,80.7737084217976,264.9957947855341C71.63234253361641,268.79730866274184,62.34111818825195,272.66610597140453,53.49946921443737,277.7460050462574C44.65782024062278,282.82590412111017,36.2657466383581,289.11690496215306,27.424097664543524,293.7258200168208C18.582448690728945,298.33473507148864,9.291224345364473,301.26156433978133,4.645612172682236,302.72497897392765L0,304.188393608074Z" fill="rgb(191, 105, 105)" title="guns"></path><path class="layer" d="M0,271.2867956265769L4.645612172682236,266.29100084104283C9.291224345364473,261.2952060555088,18.582448690728945,251.30361648444068,27.424097664543524,249.4533221194281C36.2657466383581,247.6030277544155,44.65782024062278,253.8940285954584,53.49946921443736,256.013456686291C62.34111818825195,258.13288477712365,71.63234253361641,256.080740117746,80.7737084217976,250.32800672834313C89.91507430997876,244.5752733389403,98.90658174097665,235.12195121951217,108.04794762915782,233.3557611438183C117.18931351733899,231.58957106812446,126.48053786270346,237.51051303616484,135.62190375088466,241.21110176619007C144.7632696390658,244.9116904962153,153.7547770700637,246.39192598822538,162.89614295824487,237.2413793103448C172.03750884642605,228.0908326324642,181.32873319179052,208.309503784693,190.619957537155,198.97392767031116C199.91118188251946,189.6383515559293,209.20240622788393,190.74852817493692,218.3437721160651,195.62657695542467C227.4851380042463,200.50462573591253,236.47664543524414,209.15054667788058,245.61801132342532,214.95374264087468C254.7593772116065,220.7569386038688,264.05060155697095,223.71740958788897,273.1919674451521,225.98822539949538C282.3333333333333,228.2590412111018,291.32484076433116,229.8402018502944,300.4662066525123,234.14634146341461C309.6075725406935,238.45248107653492,318.89879688605805,245.48359966358285,328.1900212314225,239.76450798990746C337.481245576787,234.04541631623215,346.77246992215146,215.5761143818335,355.614118895966,176.68629100084104C364.45576786978063,137.7964676198486,372.8478414720453,78.48612279226239,381.6894904458599,73.64171572750209C390.53113941967445,68.79730866274178,399.8223637650389,118.4188393608074,408.96372965322007,152.69974768713203C418.1050955414012,186.9806560134567,427.0966029723991,205.92094196804035,436.23796886058034,200.20185029436502C445.3793347487615,194.48275862068962,454.67055909412596,164.10428931875524,463.8119249823071,163.80151387720773C472.9532908704883,163.4987384356602,481.9447983014862,193.27165685449958,491.0861641896674,207.63666947014295C500.22753007784854,222.00168208578634,509.518754423213,220.9587888982338,518.8099787685775,223.09503784693018C528.101203113942,225.2312867956266,537.3924274593064,230.5466778805719,546.5337933474875,232.68292682926833C555.6751592356687,234.8191757779647,564.6666666666666,233.77628259041214,573.8080325548477,236.55172413793105C582.949398443029,239.32716568544996,592.2406227883935,245.92094196804035,601.3819886765746,245.78637510513036C610.5233545647558,245.65180824222034,619.5148619957537,238.78889823380987,628.6562278839348,237.59461732548357C637.7975937721161,236.40033641715726,647.0888181174805,240.87468460891503,656.380042462845,238.6879730866274C665.6712668082096,236.50126156433976,674.962491153574,227.6534903280067,683.8041401273886,226.13961312026913C692.6457891012033,224.62573591253155,701.0378627034679,230.4457527333894,709.8795116772825,232.5315391084945C718.721160651097,234.61732548359964,728.0123849964615,232.96888141295207,737.1537508846426,234.83599663582842C746.2951167728238,236.70311185870477,755.2866242038217,242.08578637510513,764.4279900920028,241.78301093355756C773.569355980184,241.4802354920101,782.8605803255485,235.49201009251473,792.0019462137296,228.19175777964676C801.1433121019109,220.8915054667788,810.1348195329086,212.27922624053826,819.2761854210898,210.2943650126156C828.4175513092711,208.30950378469302,837.7087756546356,212.95206055508834,842.3543878273177,215.27333894028595L847,217.59461732548363L847,229.70563498738437L842.3543878273177,236.4339781328848C837.7087756546356,243.1623212783852,828.4175513092711,256.61900756938604,819.27618542109,257.93103448275866C810.1348195329086,259.24306139613117,801.1433121019109,248.41042893187554,792.0019462137298,246.12279226240537C782.8605803255485,243.8351555929352,773.569355980184,250.0925147182506,764.4279900920028,249.92430613961312C755.2866242038217,249.7560975609756,746.2951167728238,243.1623212783852,737.1537508846426,240.55508830950382C728.0123849964615,237.94785534062237,718.721160651097,239.32716568544996,709.8795116772825,241.04289318755255C701.0378627034679,242.75862068965515,692.6457891012033,244.81076534903278,683.8041401273886,246.52649285113537C674.962491153574,248.24222035323797,665.6712668082096,249.62153069806558,656.380042462845,247.97308662741798C647.0888181174805,246.32464255677039,637.7975937721161,241.64844407064757,628.6562278839348,242.74179983179138C619.5148619957537,243.83515559293525,610.5233545647558,250.69806560134566,601.3819886765746,250.96719932716573C592.2406227883935,251.2363330529857,582.949398443029,244.91169049621533,573.8080325548477,241.9007569386039C564.6666666666666,238.88982338099245,555.6751592356687,239.19259882253996,546.5337933474875,237.4936921783011C537.3924274593064,235.79478553406224,528.101203113942,232.09419680403698,518.8099787685775,232.81749369217832C509.518754423213,233.54079058031957,500.22753007784854,238.68797308662738,491.0861641896674,254.2304457527334C481.9447983014862,269.7729184188393,472.9532908704883,295.71068124474345,463.8119249823071,293.8940285954584C454.67055909412596,292.0773759461733,445.3793347487615,262.50630782169895,436.23796886058034,238.2842724978974C427.0966029723991,214.06223717409588,418.1050955414012,195.18923465096717,408.96372965322007,161.8166526492851C399.8223637650389,128.444070647603,390.53113941967445,80.57190916736754,381.6894904458599,85.31539108494535C372.8478414720453,90.05887300252316,364.45576786978063,147.41799831791425,355.614118895966,186.17325483599666C346.77246992215146,224.9285113540791,337.481245576787,245.07989907485285,328.1900212314225,251.0008410428932C318.89879688605805,256.92178301093355,309.6075725406935,248.61227922624053,300.46620665251237,243.22960470984017C291.32484076433116,237.84693019343987,282.3333333333333,235.3910849453322,273.1919674451521,232.5147182506308C264.05060155697095,229.63835155592938,254.7593772116065,226.34146341463415,245.61801132342532,227.4684608915055C236.47664543524414,228.59545836837677,227.4851380042463,234.14634146341464,218.3437721160651,229.94112699747689C209.20240622788393,225.73591253153913,199.91118188251946,211.77460050462574,190.619957537155,214.04541631623215C181.32873319179052,216.31623212783856,172.03750884642605,234.8191757779647,162.89614295824487,243.49873843566024C153.7547770700637,252.17830109335577,144.7632696390658,251.0344827586207,135.62190375088466,250.89991589571068C126.48053786270346,250.76534903280063,117.18931351733899,251.64003364171572,108.04794762915782,253.91084945332213C98.90658174097665,256.18166526492854,89.91507430997876,259.84861227922624,80.7737084217976,263.6164844407065C71.63234253361641,267.3843566021867,62.34111818825195,271.25315391084945,53.49946921443737,276.56854499579475C44.65782024062278,281.8839360807401,36.2657466383581,288.64592094196803,27.424097664543524,293.4903280067283C18.582448690728945,298.33473507148864,9.291224345364473,301.26156433978133,4.645612172682236,302.72497897392765L0,304.188393608074Z" fill="rgb(191, 152, 105)" title="immigration"></path><path class="layer" d="M0,183.48191757779648L4.645612172682236,189.7224558452481C9.291224345364473,195.96299411269976,18.582448690728945,208.444070647603,27.424097664543524,217.69554247266612C36.2657466383581,226.94701429772917,44.65782024062278,232.96888141295207,53.49946921443736,236.9386038687973C62.34111818825195,240.90832632464256,71.63234253361641,242.82590412111017,80.7737084217976,240.20185029436502C89.91507430997876,237.57779646761983,98.90658174097665,230.4121110176619,108.04794762915782,229.7560975609756C117.18931351733899,229.10008410428932,126.48053786270346,234.95374264087468,135.62190375088466,238.58704793944491C144.7632696390658,242.22035323801515,153.7547770700637,243.63330529857024,162.89614295824487,234.44911690496215C172.03750884642605,225.26492851135404,181.32873319179052,205.48359966358282,190.619957537155,196.01345668629097C199.91118188251946,186.54331370899914,209.20240622788393,187.3843566021867,218.3437721160651,191.48864592094193C227.4851380042463,195.5929352396972,236.47664543524414,202.96047098402013,245.61801132342532,209.06644238856177C254.7593772116065,215.1724137931034,264.05060155697095,220.01682085786373,273.1919674451521,223.22960470984017C282.3333333333333,226.44238856181664,291.32484076433116,228.02354920100925,300.4662066525123,222.3717409587889C309.6075725406935,216.71993271656856,318.89879688605805,203.83515559293525,328.1900212314225,197.81328847771238C337.481245576787,191.79142136248947,346.77246992215146,192.63246425567704,355.614118895966,162.55677039529016C364.45576786978063,132.48107653490328,372.8478414720453,71.48864592094195,381.6894904458599,65.90412111017659C390.53113941967445,60.31959629941124,399.8223637650389,110.14297729184186,408.96372965322007,145.53406223717408C418.1050955414012,180.9251471825063,427.0966029723991,201.8839360807401,436.23796886058034,197.07317073170734C445.3793347487615,192.26240538267453,454.67055909412596,161.6820857863751,463.8119249823071,161.5475189234651C472.9532908704883,161.41295206055509,481.9447983014862,191.7241379310345,491.0861641896674,206.02186711522288C500.22753007784854,220.31959629941124,509.518754423213,218.60386879730865,518.8099787685775,217.40958788898232C528.101203113942,216.21530698065598,537.3924274593064,215.54247266610597,546.5337933474875,213.20437342304456C555.6751592356687,210.86627417998318,564.6666666666666,206.86291000841047,573.8080325548477,212.32968881412955C582.949398443029,217.7964676198486,592.2406227883935,232.73338940285953,601.3819886765746,237.30866274179982C610.5233545647558,241.8839360807401,619.5148619957537,236.09756097560975,628.6562278839348,229.0496215306981C637.7975937721161,222.00168208578637,647.0888181174805,213.69217830109338,656.380042462845,211.0344827586207C665.6712668082096,208.37678721614805,674.962491153574,211.37089991589573,683.8041401273886,215.30698065601348C692.6457891012033,219.24306139613122,701.0378627034679,224.121110176619,709.8795116772825,225.3658536585366C718.721160651097,226.61059714045416,728.0123849964615,224.22203532380152,737.1537508846426,217.8805719091674C746.2951167728238,211.53910849453322,755.2866242038217,201.24474348191757,764.4279900920028,201.5475189234651C773.569355980184,201.85029436501262,782.8605803255485,212.75021026072332,792.0019462137296,214.53322119428094C801.1433121019109,216.31623212783856,810.1348195329086,208.9823380992431,819.2761854210898,207.53574432296054C828.4175513092711,206.08915054667793,837.7087756546356,210.52985702270817,842.3543878273177,212.75021026072332L847,214.97056349873844L847,217.59461732548363L842.3543878273177,215.27333894028595C837.7087756546356,212.95206055508834,828.4175513092711,208.30950378469302,819.27618542109,210.2943650126156C810.1348195329086,212.27922624053826,801.1433121019109,220.8915054667788,792.0019462137298,228.19175777964676C782.8605803255485,235.49201009251473,773.569355980184,241.4802354920101,764.4279900920028,241.78301093355762C755.2866242038217,242.08578637510513,746.2951167728238,236.70311185870477,737.1537508846426,234.83599663582842C728.0123849964615,232.96888141295207,718.721160651097,234.61732548359964,709.8795116772825,232.5315391084945C701.0378627034679,230.4457527333894,692.6457891012033,224.62573591253155,683.8041401273886,226.13961312026913C674.962491153574,227.6534903280067,665.6712668082096,236.50126156433976,656.380042462845,238.68797308662738C647.0888181174805,240.87468460891503,637.7975937721161,236.40033641715726,628.6562278839348,237.59461732548357C619.5148619957537,238.78889823380987,610.5233545647558,245.65180824222034,601.3819886765746,245.78637510513033C592.2406227883935,245.92094196804035,582.949398443029,239.32716568544996,573.8080325548477,236.55172413793105C564.6666666666666,233.77628259041214,555.6751592356687,234.8191757779647,546.5337933474875,232.68292682926833C537.3924274593064,230.5466778805719,528.101203113942,225.2312867956266,518.8099787685775,223.09503784693018C509.518754423213,220.9587888982338,500.22753007784854,222.00168208578634,491.0861641896674,207.63666947014295C481.9447983014862,193.27165685449958,472.9532908704883,163.4987384356602,463.8119249823071,163.80151387720773C454.67055909412596,164.10428931875524,445.3793347487615,194.48275862068962,436.23796886058034,200.20185029436502C427.0966029723991,205.92094196804035,418.1050955414012,186.9806560134567,408.96372965322007,152.69974768713203C399.8223637650389,118.4188393608074,390.53113941967445,68.79730866274178,381.6894904458599,73.64171572750209C372.8478414720453,78.48612279226239,364.45576786978063,137.7964676198486,355.614118895966,176.68629100084104C346.77246992215146,215.5761143818335,337.481245576787,234.04541631623215,328.1900212314225,239.76450798990746C318.89879688605805,245.48359966358285,309.6075725406935,238.45248107653492,300.46620665251237,234.14634146341461C291.32484076433116,229.8402018502944,282.3333333333333,228.2590412111018,273.1919674451521,225.98822539949538C264.05060155697095,223.71740958788897,254.7593772116065,220.7569386038688,245.61801132342532,214.95374264087468C236.47664543524414,209.15054667788058,227.4851380042463,200.50462573591253,218.3437721160651,195.62657695542472C209.20240622788393,190.74852817493692,199.91118188251946,189.6383515559293,190.619957537155,198.97392767031116C181.32873319179052,208.309503784693,172.03750884642605,228.0908326324642,162.89614295824487,237.2413793103448C153.7547770700637,246.39192598822538,144.7632696390658,244.9116904962153,135.62190375088466,241.21110176619007C126.48053786270346,237.51051303616484,117.18931351733899,231.58957106812446,108.04794762915782,233.35576114381834C98.90658174097665,235.12195121951217,89.91507430997876,244.5752733389403,80.7737084217976,250.32800672834313C71.63234253361641,256.080740117746,62.34111818825195,258.13288477712365,53.49946921443737,256.013456686291C44.65782024062278,253.8940285954584,36.2657466383581,247.6030277544155,27.424097664543524,249.4533221194281C18.582448690728945,251.30361648444068,9.291224345364473,261.2952060555088,4.645612172682236,266.2910008410429L0,271.2867956265769Z" fill="rgb(183, 191, 105)" title="women"></path><path class="layer" d="M0,304.188393608074L4.645612172682236,302.72497897392765C9.291224345364473,301.26156433978133,18.582448690728945,298.33473507148864,27.424097664543524,293.7258200168208C36.2657466383581,289.11690496215306,44.65782024062278,282.82590412111017,53.49946921443736,277.7460050462574C62.34111818825195,272.66610597140453,71.63234253361641,268.79730866274184,80.7737084217976,264.9957947855341C89.91507430997876,261.19428090832633,98.90658174097665,257.46005046257363,108.04794762915782,255.3910849453322C117.18931351733899,253.32211942809082,126.48053786270346,252.9184188393608,135.62190375088466,253.0529857022708C144.7632696390658,253.1875525651808,153.7547770700637,253.86038687973087,162.89614295824487,244.87804878048777C172.03750884642605,235.89571068124474,181.32873319179052,217.25820016820862,190.619957537155,214.92010092514718C199.91118188251946,212.5820016820858,209.20240622788393,226.54331370899914,218.3437721160651,231.21951219512195C227.4851380042463,235.89571068124474,236.47664543524414,231.28679562657695,245.61801132342532,230.12615643397817C254.7593772116065,228.9655172413793,264.05060155697095,231.25315391084948,273.1919674451521,233.69217830109335C282.3333333333333,236.13120269133728,291.32484076433116,238.7216148023549,300.4662066525123,244.23885618166528C309.6075725406935,249.7560975609756,318.89879688605805,258.20016820857865,328.1900212314225,260.7232968881413C337.481245576787,263.24642556770397,346.77246992215146,259.84861227922624,355.614118895966,289.04962153069806C364.45576786978063,318.2506307821699,372.8478414720453,380.05046257359123,381.6894904458599,383.7510513036165C390.53113941967445,387.4516400336417,399.8223637650389,333.0529857022708,408.96372965322007,299.5794785534062C418.1050955414012,266.10597140454166,427.0966029723991,253.55761143818336,436.23796886058034,262.70815811606394C445.3793347487615,271.8587047939445,454.67055909412596,302.70815811606394,463.8119249823071,304.255677039529C472.9532908704883,305.80319596299415,481.9447983014862,278.0487804878049,491.0861641896674,261.49705634987384C500.22753007784854,244.94533221194283,509.518754423213,239.59629941127,518.8099787685775,238.23380992430612C528.101203113942,236.87132043734232,537.3924274593064,239.49537426408747,546.5337933474875,240.62237174095878C555.6751592356687,241.74936921783012,564.6666666666666,241.3793103448276,573.8080325548477,244.3566021867115C582.949398443029,247.33389402859544,592.2406227883935,253.65853658536585,601.3819886765746,253.22119428090832C610.5233545647558,252.7838519764508,619.5148619957537,245.58452481076532,628.6562278839348,244.49116904962148C637.7975937721161,243.3978132884777,647.0888181174805,248.41042893187554,656.380042462845,250.2270815811606C665.6712668082096,252.04373423044572,674.962491153574,250.66442388561816,683.8041401273886,249.25147182506305C692.6457891012033,247.83851976450796,701.0378627034679,246.39192598822538,709.8795116772825,244.91169049621533C718.721160651097,243.4314550042052,728.0123849964615,241.91757779646764,737.1537508846426,244.15475189234652C746.2951167728238,246.39192598822538,755.2866242038217,252.38015138772076,764.4279900920028,253.22119428090835C773.569355980184,254.06223717409588,782.8605803255485,249.7560975609756,792.0019462137296,251.97645079899075C801.1433121019109,254.1968040370059,810.1348195329086,262.94365012615646,819.2761854210898,264.322960470984C828.4175513092711,265.70227081581163,837.7087756546356,259.7140454163162,842.3543878273177,256.7199327165685L847,253.72582001682085L847,263.4146341463414L842.3543878273177,266.0050462573591C837.7087756546356,268.59545836837674,828.4175513092711,273.7762825904121,819.27618542109,271.69049621530695C810.1348195329086,269.60470984020185,801.1433121019109,260.2523128679563,792.0019462137298,258.46930193439863C782.8605803255485,256.68629100084104,773.569355980184,262.4726661059714,764.4279900920028,262.00168208578634C755.2866242038217,261.53069806560137,746.2951167728238,254.80235492010092,737.1537508846426,252.228763666947C728.0123849964615,249.6551724137931,718.721160651097,251.2363330529857,709.8795116772825,252.7838519764508C701.0378627034679,254.3313708999159,692.6457891012033,255.84524810765348,683.8041401273886,260.08410428931876C674.962491153574,264.322960470984,665.6712668082096,271.286795626577,656.380042462845,268.69638351555926C647.0888181174805,266.1059714045416,637.7975937721161,253.96131202691336,628.6562278839348,252.161480235492C619.5148619957537,250.36164844407065,610.5233545647558,258.9066442388562,601.3819886765746,260.4205214465938C592.2406227883935,261.9343986543314,582.949398443029,256.41715727502105,573.8080325548477,253.9781328847771C564.6666666666666,251.53910849453322,555.6751592356687,252.17830109335577,546.5337933474875,251.9932716568545C537.3924274593064,251.80824222035324,528.101203113942,250.79899074852815,518.8099787685775,251.58957106812446C509.518754423213,252.38015138772076,500.22753007784854,254.97056349873844,491.0861641896674,270.37846930193444C481.9447983014862,285.7863751051304,472.9532908704883,314.0117746005046,463.8119249823071,312.497897392767C454.67055909412596,310.98402018502946,445.3793347487615,279.73086627418,436.23796886058034,271.3204373423045C427.0966029723991,262.91000841042893,418.1050955414012,277.3423044575273,408.96372965322007,311.2195121951219C399.8223637650389,345.09671993271655,390.53113941967445,398.4188393608074,381.6894904458599,394.0790580319597C372.8478414720453,389.7392767031119,364.45576786978063,327.73759461732556,355.614118895966,300.55508830950384C346.77246992215146,273.37258200168213,337.481245576787,281.00925147182505,328.1900212314225,277.8805719091674C318.89879688605805,274.7518923465097,309.6075725406935,260.8578637510513,300.46620665251237,254.2977291841884C291.32484076433116,247.7375946173255,282.3333333333333,248.51135407905804,273.1919674451521,249.77291841883937C264.05060155697095,251.0344827586207,254.7593772116065,252.7838519764508,245.61801132342532,257.0731707317073C236.47664543524414,261.36248948696385,227.4851380042463,268.1917577796468,218.3437721160651,275.82842724978974C209.20240622788393,283.4650967199328,199.91118188251946,291.90916736753576,190.619957537155,289.6383515559294C181.32873319179052,287.367535744323,172.03750884642605,274.38183347350713,162.89614295824487,267.8889823380992C153.7547770700637,261.3961312026913,144.7632696390658,261.3961312026913,135.62190375088466,262.10260723296886C126.48053786270346,262.8090832632464,117.18931351733899,264.2220353238015,108.04794762915782,265.9209419680404C98.90658174097665,267.6198486122792,89.91507430997876,269.60470984020185,80.7737084217976,272.66610597140453C71.63234253361641,275.7275021026073,62.34111818825195,279.86543313709006,53.49946921443737,284.6425567703953C44.65782024062278,289.4196804037006,36.2657466383581,294.8359966358284,27.424097664543524,298.4020185029436C18.582448690728945,301.9680403700589,9.291224345364473,303.68376787216147,4.645612172682236,304.5416316232128L0,305.3994953742641Z" fill="rgb(136, 191, 105)" title="race_confed"></path><path class="layer" d="M0,176.82085786375103L4.645612172682236,179.66358284272496C9.291224345364473,182.5063078216989,18.582448690728945,188.19175777964676,27.424097664543524,192.90159798149708C36.2657466383581,197.61143818334736,44.65782024062278,201.34566862910012,53.49946921443736,205.04625735912532C62.34111818825195,208.74684608915058,71.63234253361641,212.41379310344828,80.7737084217976,214.3313708999159C89.91507430997876,216.2489486963835,98.90658174097665,216.41715727502103,108.04794762915782,217.91421362489484C117.18931351733899,219.41126997476871,126.48053786270346,222.23717409587888,135.62190375088466,225.5677039529016C144.7632696390658,228.89823380992428,153.7547770700637,232.73338940285953,162.89614295824487,224.65937762825902C172.03750884642605,216.58536585365854,181.32873319179052,196.6021867115223,190.619957537155,187.90580319596302C199.91118188251946,179.2094196804037,209.20240622788393,181.79983179142133,218.3437721160651,186.67788057190913C227.4851380042463,191.55592935239693,236.47664543524414,198.7216148023549,245.61801132342532,204.390243902439C254.7593772116065,210.05887300252311,264.05060155697095,214.23044575273335,273.1919674451521,217.94785534062234C282.3333333333333,221.66526492851133,291.32484076433116,224.92851135407906,300.4662066525123,219.3439865433137C309.6075725406935,213.75946173254837,318.89879688605805,199.32716568544996,328.1900212314225,193.1370899915896C337.481245576787,186.9470142977292,346.77246992215146,188.99915895710683,355.614118895966,159.36080740117748C364.45576786978063,129.7224558452481,372.8478414720453,68.39360807401177,381.6894904458599,62.94365012615642C390.53113941967445,57.49369217830107,399.8223637650389,107.92262405382671,408.96372965322007,143.51555929352392C418.1050955414012,179.10849453322115,427.0966029723991,199.86543313708998,436.23796886058034,194.51640033641715C445.3793347487615,189.16736753574432,454.67055909412596,157.71236333052983,463.8119249823071,156.06391925988223C472.9532908704883,154.41547518923463,481.9447983014862,182.57359125315386,491.0861641896674,196.50126156433976C500.22753007784854,210.4289318755256,509.518754423213,210.12615643397808,518.8099787685775,207.4852817493692C528.101203113942,204.8444070647603,537.3924274593064,199.86543313708998,546.5337933474875,194.43229604709845C555.6751592356687,188.99915895710683,564.6666666666666,183.11185870479395,573.8080325548477,185.01261564339782C582.949398443029,186.9133725820017,592.2406227883935,196.6021867115223,601.3819886765746,205.38267451640036C610.5233545647558,214.16316232127838,619.5148619957537,222.03532380151387,628.6562278839348,219.36080740117748C637.7975937721161,216.68629100084104,647.0888181174805,203.46509671993272,656.380042462845,200.53826745164005C665.6712668082096,197.61143818334736,674.962491153574,204.9789739276703,683.8041401273886,210.89991589571068C692.6457891012033,216.82085786375103,701.0378627034679,221.29520605550883,709.8795116772825,221.49705634987382C718.721160651097,221.69890664423883,728.0123849964615,217.62825904121107,737.1537508846426,211.4213624894869C746.2951167728238,205.2144659377628,755.2866242038217,196.87132043734223,764.4279900920028,196.77039529015977C773.569355980184,196.66947014297725,782.8605803255485,204.81076534903278,792.0019462137296,205.3153910849453C801.1433121019109,205.82001682085783,810.1348195329086,198.68797308662738,819.2761854210898,197.71236333052988C828.4175513092711,196.7367535744323,837.7087756546356,201.91757779646764,842.3543878273177,204.50798990748527L847,207.09840201850295L847,214.97056349873844L842.3543878273177,212.75021026072332C837.7087756546356,210.52985702270817,828.4175513092711,206.08915054667793,819.27618542109,207.53574432296054C810.1348195329086,208.9823380992431,801.1433121019109,216.31623212783856,792.0019462137298,214.53322119428094C782.8605803255485,212.75021026072332,773.569355980184,201.85029436501262,764.4279900920028,201.5475189234651C755.2866242038217,201.24474348191757,746.2951167728238,211.53910849453322,737.1537508846426,217.8805719091674C728.0123849964615,224.22203532380152,718.721160651097,226.61059714045416,709.8795116772825,225.36585365853657C701.0378627034679,224.121110176619,692.6457891012033,219.24306139613122,683.8041401273886,215.30698065601348C674.962491153574,211.37089991589573,665.6712668082096,208.37678721614805,656.380042462845,211.03448275862073C647.0888181174805,213.69217830109338,637.7975937721161,222.00168208578637,628.6562278839348,229.0496215306981C619.5148619957537,236.09756097560975,610.5233545647558,241.8839360807401,601.3819886765746,237.30866274179982C592.2406227883935,232.73338940285953,582.949398443029,217.7964676198486,573.8080325548477,212.32968881412955C564.6666666666666,206.86291000841047,555.6751592356687,210.86627417998318,546.5337933474875,213.20437342304456C537.3924274593064,215.54247266610597,528.101203113942,216.21530698065598,518.8099787685775,217.40958788898232C509.518754423213,218.60386879730865,500.22753007784854,220.31959629941124,491.0861641896674,206.02186711522288C481.9447983014862,191.7241379310345,472.9532908704883,161.41295206055509,463.8119249823071,161.5475189234651C454.67055909412596,161.6820857863751,445.3793347487615,192.26240538267453,436.23796886058034,197.07317073170734C427.0966029723991,201.8839360807401,418.1050955414012,180.9251471825063,408.96372965322007,145.53406223717408C399.8223637650389,110.14297729184186,390.53113941967445,60.31959629941124,381.6894904458599,65.90412111017659C372.8478414720453,71.48864592094195,364.45576786978063,132.48107653490328,355.614118895966,162.55677039529016C346.77246992215146,192.63246425567704,337.481245576787,191.79142136248947,328.1900212314225,197.81328847771238C318.89879688605805,203.83515559293525,309.6075725406935,216.71993271656856,300.46620665251237,222.3717409587889C291.32484076433116,228.02354920100925,282.3333333333333,226.44238856181664,273.1919674451521,223.22960470984017C264.05060155697095,220.01682085786373,254.7593772116065,215.1724137931034,245.61801132342532,209.06644238856177C236.47664543524414,202.96047098402013,227.4851380042463,195.5929352396972,218.3437721160651,191.48864592094193C209.20240622788393,187.3843566021867,199.91118188251946,186.54331370899914,190.619957537155,196.01345668629097C181.32873319179052,205.48359966358282,172.03750884642605,225.26492851135404,162.89614295824487,234.44911690496215C153.7547770700637,243.63330529857024,144.7632696390658,242.22035323801515,135.62190375088466,238.58704793944491C126.48053786270346,234.95374264087468,117.18931351733899,229.10008410428932,108.04794762915782,229.7560975609756C98.90658174097665,230.4121110176619,89.91507430997876,237.57779646761983,80.7737084217976,240.20185029436502C71.63234253361641,242.82590412111017,62.34111818825195,240.90832632464256,53.49946921443737,236.9386038687973C44.65782024062278,232.96888141295207,36.2657466383581,226.94701429772917,27.424097664543524,217.69554247266606C18.582448690728945,208.444070647603,9.291224345364473,195.96299411269976,4.645612172682236,189.7224558452481L0,183.48191757779648Z" fill="rgb(105, 191, 121)" title="executive"></path><path class="layer" d="M0,305.3994953742641L4.645612172682236,304.5416316232128C9.291224345364473,303.68376787216147,18.582448690728945,301.9680403700589,27.424097664543524,298.4020185029436C36.2657466383581,294.8359966358284,44.65782024062278,289.4196804037006,53.49946921443736,284.64255677039534C62.34111818825195,279.86543313709006,71.63234253361641,275.7275021026073,80.7737084217976,272.66610597140453C89.91507430997876,269.60470984020185,98.90658174097665,267.6198486122792,108.04794762915782,265.9209419680404C117.18931351733899,264.2220353238015,126.48053786270346,262.8090832632464,135.62190375088466,262.10260723296886C144.7632696390658,261.3961312026913,153.7547770700637,261.3961312026913,162.89614295824487,267.8889823380992C172.03750884642605,274.38183347350713,181.32873319179052,287.367535744323,190.619957537155,289.6383515559294C199.91118188251946,291.90916736753576,209.20240622788393,283.4650967199328,218.3437721160651,275.82842724978974C227.4851380042463,268.1917577796468,236.47664543524414,261.36248948696385,245.61801132342532,257.0731707317073C254.7593772116065,252.7838519764508,264.05060155697095,251.0344827586207,273.1919674451521,249.77291841883937C282.3333333333333,248.51135407905804,291.32484076433116,247.7375946173255,300.4662066525123,254.2977291841884C309.6075725406935,260.8578637510513,318.89879688605805,274.7518923465097,328.1900212314225,277.8805719091674C337.481245576787,281.00925147182505,346.77246992215146,273.37258200168213,355.614118895966,300.55508830950384C364.45576786978063,327.73759461732556,372.8478414720453,389.7392767031119,381.6894904458599,394.0790580319596C390.53113941967445,398.4188393608074,399.8223637650389,345.09671993271655,408.96372965322007,311.2195121951219C418.1050955414012,277.3423044575273,427.0966029723991,262.91000841042893,436.23796886058034,271.3204373423045C445.3793347487615,279.73086627418,454.67055909412596,310.98402018502946,463.8119249823071,312.497897392767C472.9532908704883,314.0117746005046,481.9447983014862,285.7863751051304,491.0861641896674,270.37846930193444C500.22753007784854,254.97056349873844,509.518754423213,252.38015138772076,518.8099787685775,251.58957106812446C528.101203113942,250.79899074852815,537.3924274593064,251.80824222035324,546.5337933474875,251.9932716568545C555.6751592356687,252.17830109335577,564.6666666666666,251.53910849453322,573.8080325548477,253.97813288477712C582.949398443029,256.41715727502105,592.2406227883935,261.9343986543314,601.3819886765746,260.4205214465938C610.5233545647558,258.9066442388562,619.5148619957537,250.36164844407065,628.6562278839348,252.16148023549204C637.7975937721161,253.96131202691336,647.0888181174805,266.1059714045416,656.380042462845,268.69638351555926C665.6712668082096,271.286795626577,674.962491153574,264.322960470984,683.8041401273886,260.08410428931876C692.6457891012033,255.84524810765348,701.0378627034679,254.3313708999159,709.8795116772825,252.7838519764508C718.721160651097,251.2363330529857,728.0123849964615,249.6551724137931,737.1537508846426,252.228763666947C746.2951167728238,254.80235492010092,755.2866242038217,261.53069806560137,764.4279900920028,262.00168208578634C773.569355980184,262.4726661059714,782.8605803255485,256.68629100084104,792.0019462137296,258.46930193439863C801.1433121019109,260.2523128679563,810.1348195329086,269.60470984020185,819.2761854210898,271.69049621530695C828.4175513092711,273.7762825904121,837.7087756546356,268.59545836837674,842.3543878273177,266.0050462573591L847,263.4146341463414L847,272.497897392767L842.3543878273177,275.2228763666947C837.7087756546356,277.94785534062237,828.4175513092711,283.3978132884777,819.27618542109,281.8166526492851C810.1348195329086,280.2354920100925,801.1433121019109,271.623212783852,792.0019462137298,270.4793944491169C782.8605803255485,269.3355761143818,773.569355980184,275.6602186711522,764.4279900920028,274.5164003364171C755.2866242038217,273.372582001682,746.2951167728238,264.7603027754415,737.1537508846426,261.31202691337256C728.0123849964615,257.8637510513036,718.721160651097,259.5794785534062,709.8795116772825,260.5550883095038C701.0378627034679,261.53069806560137,692.6457891012033,261.7661900756938,683.8041401273886,265.5340622371741C674.962491153574,269.3019343986543,665.6712668082096,276.6021867115223,656.380042462845,274.24726661059714C647.0888181174805,271.892346509672,637.7975937721161,259.8822539949537,628.6562278839348,257.7460050462574C619.5148619957537,255.60975609756096,610.5233545647558,263.34735071488643,601.3819886765746,266.8797308662742C592.2406227883935,270.41211101766186,582.949398443029,269.7392767031119,573.8080325548477,268.51135407905804C564.6666666666666,267.2834314550042,555.6751592356687,265.5004205214466,546.5337933474875,263.9697224558452C537.3924274593064,262.4390243902439,528.101203113942,261.1606391925988,518.8099787685775,261.2111017661901C509.518754423213,261.2615643397814,500.22753007784854,262.64087468460895,491.0861641896674,277.6114381833474C481.9447983014862,292.5820016820858,472.9532908704883,321.14381833473504,463.8119249823071,319.56265769554244C454.67055909412596,317.98149705634984,445.3793347487615,286.25735912531536,436.23796886058034,277.4432296047098C427.0966029723991,268.62910008410427,418.1050955414012,282.72497897392765,408.96372965322007,316.5349032800673C399.8223637650389,350.3448275862069,390.53113941967445,403.86879730866275,381.6894904458599,400.74011774600507C372.8478414720453,397.6114381833474,364.45576786978063,337.8301093355761,355.614118895966,310.1429772918419C346.77246992215146,282.45584524810766,337.481245576787,286.8629100084104,328.1900212314225,282.3549201009251C318.89879688605805,277.84693019343985,309.6075725406935,264.4238856181665,300.46620665251237,258.4356602186711C291.32484076433116,252.44743481917575,282.3333333333333,253.89402859545837,273.1919674451521,255.2565180824222C264.05060155697095,256.61900756938604,254.7593772116065,257.8973927670311,245.61801132342532,262.2539949537426C236.47664543524414,266.6105971404541,227.4851380042463,274.0454163162321,218.3437721160651,281.6820857863751C209.20240622788393,289.31875525651805,199.91118188251946,297.157275021026,190.619957537155,294.2136248948696C181.32873319179052,291.2699747687132,172.03750884642605,277.54415475189234,162.89614295824487,271.017661900757C153.7547770700637,264.49116904962153,144.7632696390658,265.1640033641716,135.62190375088466,266.61059714045416C126.48053786270346,268.0571909167368,117.18931351733899,270.27754415475187,108.04794762915782,272.04373423044575C98.90658174097665,273.80992430613964,89.91507430997876,275.12195121951225,80.7737084217976,277.7796467619849C71.63234253361641,280.43734230445756,62.34111818825195,284.44070647603024,53.49946921443737,288.4777123633305C44.65782024062278,292.5147182506308,36.2657466383581,296.5853658536585,27.424097664543524,299.4112699747687C18.582448690728945,302.2371740958789,9.291224345364473,303.8183347350715,4.645612172682236,304.60891505466776L0,305.3994953742641Z" fill="rgb(105, 191, 167)" title="collective_bargaining"></path><path class="layer" d="M0,305.3994953742641L4.645612172682236,304.60891505466776C9.291224345364473,303.8183347350715,18.582448690728945,302.2371740958789,27.424097664543524,299.4112699747687C36.2657466383581,296.5853658536585,44.65782024062278,292.5147182506308,53.49946921443736,288.4777123633305C62.34111818825195,284.44070647603024,71.63234253361641,280.43734230445756,80.7737084217976,277.7796467619849C89.91507430997876,275.12195121951225,98.90658174097665,273.80992430613964,108.04794762915782,272.04373423044575C117.18931351733899,270.27754415475187,126.48053786270346,268.0571909167368,135.62190375088466,266.6105971404542C144.7632696390658,265.1640033641716,153.7547770700637,264.49116904962153,162.89614295824487,271.017661900757C172.03750884642605,277.54415475189234,181.32873319179052,291.2699747687132,190.619957537155,294.2136248948696C199.91118188251946,297.157275021026,209.20240622788393,289.31875525651805,218.3437721160651,281.68208578637507C227.4851380042463,274.0454163162321,236.47664543524414,266.6105971404541,245.61801132342532,262.2539949537426C254.7593772116065,257.8973927670311,264.05060155697095,256.61900756938604,273.1919674451521,255.2565180824222C282.3333333333333,253.89402859545837,291.32484076433116,252.44743481917575,300.4662066525123,258.4356602186711C309.6075725406935,264.4238856181665,318.89879688605805,277.84693019343985,328.1900212314225,282.3549201009251C337.481245576787,286.8629100084104,346.77246992215146,282.45584524810766,355.614118895966,310.1429772918419C364.45576786978063,337.8301093355761,372.8478414720453,397.6114381833474,381.6894904458599,400.74011774600507C390.53113941967445,403.86879730866275,399.8223637650389,350.3448275862069,408.96372965322007,316.5349032800673C418.1050955414012,282.72497897392765,427.0966029723991,268.62910008410427,436.23796886058034,277.4432296047098C445.3793347487615,286.25735912531536,454.67055909412596,317.98149705634984,463.8119249823071,319.56265769554244C472.9532908704883,321.14381833473504,481.9447983014862,292.5820016820858,491.0861641896674,277.6114381833474C500.22753007784854,262.64087468460895,509.518754423213,261.2615643397814,518.8099787685775,261.2111017661901C528.101203113942,261.1606391925988,537.3924274593064,262.4390243902439,546.5337933474875,263.9697224558452C555.6751592356687,265.5004205214466,564.6666666666666,267.2834314550042,573.8080325548477,268.511354079058C582.949398443029,269.7392767031119,592.2406227883935,270.41211101766186,601.3819886765746,266.8797308662742C610.5233545647558,263.34735071488643,619.5148619957537,255.60975609756096,628.6562278839348,257.7460050462573C637.7975937721161,259.8822539949537,647.0888181174805,271.892346509672,656.380042462845,274.24726661059714C665.6712668082096,276.6021867115223,674.962491153574,269.3019343986543,683.8041401273886,265.5340622371741C692.6457891012033,261.7661900756938,701.0378627034679,261.53069806560137,709.8795116772825,260.5550883095038C718.721160651097,259.5794785534062,728.0123849964615,257.8637510513036,737.1537508846426,261.31202691337256C746.2951167728238,264.7603027754415,755.2866242038217,273.372582001682,764.4279900920028,274.5164003364171C773.569355980184,275.6602186711522,782.8605803255485,269.3355761143818,792.0019462137296,270.4793944491169C801.1433121019109,271.623212783852,810.1348195329086,280.2354920100925,819.2761854210898,281.8166526492851C828.4175513092711,283.3978132884777,837.7087756546356,277.94785534062237,842.3543878273177,275.2228763666947L847,272.497897392767L847,274.5164003364172L842.3543878273177,277.2077375946173C837.7087756546356,279.8990748528175,828.4175513092711,285.28174936921783,819.27618542109,284.44070647603024C810.1348195329086,283.5996635828427,801.1433121019109,276.5349032800673,792.0019462137298,277.8132884777124C782.8605803255485,279.09167367535747,773.569355980184,288.713204373423,764.4279900920028,288.88141295206054C755.2866242038217,289.04962153069806,746.2951167728238,279.7645079899075,737.1537508846426,275.20605550883096C728.0123849964615,270.6476030277544,718.721160651097,270.8158116063919,709.8795116772825,270.34482758620686C701.0378627034679,269.87384356602183,692.6457891012033,268.7636669470143,683.8041401273886,271.79142136248953C674.962491153574,274.8191757779647,665.6712668082096,281.98486122792264,656.380042462845,279.25988225399493C647.0888181174805,276.5349032800673,637.7975937721161,263.919259882254,628.6562278839348,261.5138772077376C619.5148619957537,259.1084945332212,610.5233545647558,266.9133725820017,601.3819886765746,270.98402018502946C592.2406227883935,275.0546677880572,582.949398443029,275.39108494533224,573.8080325548477,274.4322960470984C564.6666666666666,273.4735071488646,555.6751592356687,271.2195121951219,546.5337933474875,269.2851135407905C537.3924274593064,267.35071488645923,528.101203113942,265.7359125315391,518.8099787685775,265.07989907485285C509.518754423213,264.42388561816654,500.22753007784854,264.72666105971405,491.0861641896674,279.42809083263245C481.9447983014862,294.1295206055509,472.9532908704883,323.2296047098402,463.8119249823071,322.9941126997477C454.67055909412596,322.7586206896552,445.3793347487615,293.18755256518085,436.23796886058034,287.83851976450796C427.0966029723991,282.48948696383513,418.1050955414012,301.36248948696385,408.96372965322007,336.2489486963835C399.8223637650389,371.1354079058032,390.53113941967445,422.03532380151387,381.6894904458599,417.5946173254836C372.8478414720453,413.1539108494533,364.45576786978063,353.3725820016821,355.614118895966,323.86879730866275C346.77246992215146,294.3650126156434,337.481245576787,295.13877207737596,328.1900212314225,288.4104289318755C318.89879688605805,281.6820857863751,309.6075725406935,267.45164003364175,300.46620665251237,261.16063919259886C291.32484076433116,254.86963835155598,282.3333333333333,256.5180824222036,273.1919674451521,258.41883936080745C264.05060155697095,260.31959629941133,254.7593772116065,262.4726661059714,245.61801132342532,267.1320437342304C236.47664543524414,271.7914213624895,227.4851380042463,278.9571068124474,218.3437721160651,285.9882253994954C209.20240622788393,293.01934398654333,199.91118188251946,299.91589571068124,190.619957537155,296.7031118587048C181.32873319179052,293.49032800672836,172.03750884642605,280.1682085786375,162.89614295824487,273.9108494533221C153.7547770700637,267.65349032800674,144.7632696390658,268.4608915054668,135.62190375088466,270.7148864592094C126.48053786270346,272.96888141295204,117.18931351733899,276.6694701429773,108.04794762915782,278.77207737594614C98.90658174097665,280.87468460891506,89.91507430997876,281.3793103448276,80.7737084217976,284.17157275021026C71.63234253361641,286.9638351555929,62.34111818825195,292.04373423044575,53.49946921443737,295.57611438183346C44.65782024062278,299.1084945332212,36.2657466383581,301.0933557611438,27.424097664543524,302.50630782169895C18.582448690728945,303.919259882254,9.291224345364473,304.7603027754415,4.645612172682236,305.18082422203537L0,305.6013456686291Z" fill="rgb(105, 167, 191)" title="education"></path><path class="layer" d="M0,175.20605550883096L4.645612172682236,176.87132043734232C9.291224345364473,178.53658536585365,18.582448690728945,181.86711522287638,27.424097664543524,185.16400336417158C36.2657466383581,188.46089150546678,44.65782024062278,191.72413793103445,53.49946921443736,193.74264087468455C62.34111818825195,195.76114381833472,71.63234253361641,196.53490328006728,80.7737084217976,199.05803195962994C89.91507430997876,201.5811606391926,98.90658174097665,205.85365853658536,108.04794762915782,209.60470984020185C117.18931351733899,213.3557611438183,126.48053786270346,216.58536585365854,135.62190375088466,220.25231286795625C144.7632696390658,223.91925988225398,153.7547770700637,228.02354920100925,162.89614295824487,219.88225399495374C172.03750884642605,211.7409587888982,181.32873319179052,191.35407905803197,190.619957537155,182.5567703952902C199.91118188251946,173.75946173254837,209.20240622788393,176.55172413793102,218.3437721160651,181.2615643397813C227.4851380042463,185.9714045416316,236.47664543524414,192.59882253994954,245.61801132342532,198.40201850294366C254.7593772116065,204.20521446593776,264.05060155697095,209.18418839360808,273.1919674451521,213.4398654331371C282.3333333333333,217.69554247266612,291.32484076433116,221.22792262405383,300.4662066525123,215.946173254836C309.6075725406935,210.66442388561813,318.89879688605805,196.56854499579478,328.1900212314225,189.73927670311184C337.481245576787,182.9100084104289,346.77246992215146,183.34735071488646,355.614118895966,153.23801513877208C364.45576786978063,123.1286795626577,372.8478414720453,62.472666105971406,381.6894904458599,57.325483599663585C390.53113941967445,52.17830109335576,399.8223637650389,102.53994953742641,408.96372965322007,138.16652649285112C418.1050955414012,173.79310344827584,427.0966029723991,194.68460891505467,436.23796886058034,189.43650126156433C445.3793347487615,184.188393608074,454.67055909412596,152.80067283431455,463.8119249823071,151.05130361648443C472.9532908704883,149.30193439865434,481.9447983014862,177.1909167367536,491.0861641896674,191.15222876366695C500.22753007784854,205.11354079058034,509.518754423213,205.14718250630781,518.8099787685775,201.96804037005884C528.101203113942,198.78889823380987,537.3924274593064,192.3969722455845,546.5337933474875,187.1320437342304C555.6751592356687,181.86711522287632,564.6666666666666,177.7291841883936,573.8080325548477,180.63919259882252C582.949398443029,183.54920100925145,592.2406227883935,193.5071488645921,601.3819886765746,202.28763666947017C610.5233545647558,211.06812447434822,619.5148619957537,218.6711522287637,628.6562278839348,215.92935239697226C637.7975937721161,213.18755256518088,647.0888181174805,200.1009251471825,656.380042462845,197.37594617325485C665.6712668082096,194.65096719932717,674.962491153574,202.28763666947012,683.8041401273886,205.3153910849453C692.6457891012033,208.34314550042052,701.0378627034679,206.76198486122792,709.8795116772825,205.85365853658539C718.721160651097,204.94533221194283,728.0123849964615,204.70984020185028,737.1537508846426,200.4878048780488C746.2951167728238,196.26576955424727,755.2866242038217,188.05719091673677,764.4279900920028,188.35996635828428C773.569355980184,188.6627417998318,782.8605803255485,197.47687132043734,792.0019462137296,198.48612279226242C801.1433121019109,199.49537426408747,810.1348195329086,192.69974768713203,819.2761854210898,191.8587047939445C828.4175513092711,191.01766190075693,837.7087756546356,196.13120269133728,842.3543878273177,198.6879730866274L847,201.24474348191757L847,207.09840201850295L842.3543878273177,204.50798990748527C837.7087756546356,201.91757779646764,828.4175513092711,196.7367535744323,819.27618542109,197.71236333052983C810.1348195329086,198.68797308662738,801.1433121019109,205.82001682085783,792.0019462137298,205.3153910849453C782.8605803255485,204.81076534903278,773.569355980184,196.66947014297725,764.4279900920028,196.77039529015977C755.2866242038217,196.87132043734223,746.2951167728238,205.2144659377628,737.1537508846426,211.4213624894869C728.0123849964615,217.62825904121107,718.721160651097,221.69890664423883,709.8795116772825,221.49705634987382C701.0378627034679,221.29520605550883,692.6457891012033,216.82085786375103,683.8041401273886,210.89991589571068C674.962491153574,204.9789739276703,665.6712668082096,197.61143818334736,656.380042462845,200.53826745164005C647.0888181174805,203.46509671993272,637.7975937721161,216.68629100084104,628.6562278839348,219.36080740117748C619.5148619957537,222.03532380151387,610.5233545647558,214.16316232127838,601.3819886765746,205.38267451640036C592.2406227883935,196.6021867115223,582.949398443029,186.9133725820017,573.8080325548477,185.01261564339782C564.6666666666666,183.11185870479395,555.6751592356687,188.99915895710683,546.5337933474875,194.4322960470984C537.3924274593064,199.86543313708998,528.101203113942,204.8444070647603,518.8099787685775,207.4852817493692C509.518754423213,210.12615643397808,500.22753007784854,210.4289318755256,491.0861641896674,196.50126156433976C481.9447983014862,182.57359125315386,472.9532908704883,154.41547518923463,463.8119249823071,156.06391925988223C454.67055909412596,157.71236333052983,445.3793347487615,189.16736753574432,436.23796886058034,194.51640033641715C427.0966029723991,199.86543313708998,418.1050955414012,179.10849453322115,408.96372965322007,143.51555929352392C399.8223637650389,107.92262405382671,390.53113941967445,57.49369217830107,381.6894904458599,62.94365012615642C372.8478414720453,68.39360807401177,364.45576786978063,129.7224558452481,355.614118895966,159.36080740117748C346.77246992215146,188.99915895710683,337.481245576787,186.9470142977292,328.1900212314225,193.1370899915896C318.89879688605805,199.32716568544996,309.6075725406935,213.75946173254837,300.46620665251237,219.34398654331372C291.32484076433116,224.92851135407906,282.3333333333333,221.66526492851133,273.1919674451521,217.94785534062234C264.05060155697095,214.23044575273335,254.7593772116065,210.05887300252311,245.61801132342532,204.39024390243904C236.47664543524414,198.7216148023549,227.4851380042463,191.55592935239693,218.3437721160651,186.67788057190913C209.20240622788393,181.79983179142133,199.91118188251946,179.2094196804037,190.619957537155,187.905803195963C181.32873319179052,196.6021867115223,172.03750884642605,216.58536585365854,162.89614295824487,224.65937762825902C153.7547770700637,232.73338940285953,144.7632696390658,228.89823380992428,135.62190375088466,225.56770395290155C126.48053786270346,222.23717409587888,117.18931351733899,219.41126997476871,108.04794762915782,217.91421362489484C98.90658174097665,216.41715727502103,89.91507430997876,216.2489486963835,80.7737084217976,214.3313708999159C71.63234253361641,212.41379310344828,62.34111818825195,208.74684608915058,53.49946921443737,205.04625735912532C44.65782024062278,201.34566862910012,36.2657466383581,197.61143818334736,27.424097664543524,192.90159798149708C18.582448690728945,188.19175777964676,9.291224345364473,182.5063078216989,4.645612172682236,179.66358284272496L0,176.82085786375103Z" fill="rgb(105, 121, 191)" title="environment"></path><path class="layer" d="M0,305.6013456686291L4.645612172682236,305.38267451640036C9.291224345364473,305.1640033641716,18.582448690728945,304.7266610597141,27.424097664543524,303.8183347350715C36.2657466383581,302.91000841042893,44.65782024062278,301.53069806560137,53.49946921443736,298.36837678721616C62.34111818825195,295.20605550883096,71.63234253361641,290.2607232968881,80.7737084217976,287.83851976450796C89.91507430997876,285.4163162321278,98.90658174097665,285.51724137931035,108.04794762915782,283.582842724979C117.18931351733899,281.6484440706476,126.48053786270346,277.6787216148023,135.62190375088466,275.1892346509672C144.7632696390658,272.69974768713206,153.7547770700637,271.69049621530695,162.89614295824487,278.14970563498736C172.03750884642605,284.60891505466776,181.32873319179052,298.5365853658537,190.619957537155,304.17157275021026C199.91118188251946,309.80656013456684,209.20240622788393,307.1488645920942,218.3437721160651,302.0689655172414C227.4851380042463,296.98906644238855,236.47664543524414,289.48696383515556,245.61801132342532,283.2464255677039C254.7593772116065,277.00588730025225,264.05060155697095,272.026913372582,273.1919674451521,267.80487804878044C282.3333333333333,263.58284272497895,291.32484076433116,260.11774600504623,300.4662066525123,265.46677880571906C309.6075725406935,270.8158116063919,318.89879688605805,284.97897392767027,328.1900212314225,291.9764507989907C337.481245576787,298.9739276703112,346.77246992215146,298.80571909167367,355.614118895966,328.94869638351554C364.45576786978063,359.09167367535747,372.8478414720453,419.54583683767873,381.6894904458599,424.524810765349C390.53113941967445,429.5037846930193,399.8223637650389,379.0075693860387,408.96372965322007,343.88561816652646C418.1050955414012,308.7636669470143,427.0966029723991,289.01597981497054,436.23796886058034,294.3313708999159C445.3793347487615,299.64676198486126,454.67055909412596,330.02523128679564,463.8119249823071,330.56349873843567C472.9532908704883,331.1017661900757,481.9447983014862,301.79983179142135,491.0861641896674,287.1993271656855C500.22753007784854,272.59882253994954,509.518754423213,272.69974768713206,518.8099787685775,273.42304457527337C528.101203113942,274.1463414634147,537.3924274593064,275.4920100925147,546.5337933474875,277.05634987384354C555.6751592356687,278.6206896551724,564.6666666666666,280.40370058873003,573.8080325548477,280.5550883095038C582.949398443029,280.70647603027754,592.2406227883935,279.22624053826746,601.3819886765746,274.5836837678722C610.5233545647558,269.9411269974769,619.5148619957537,262.1362489486964,628.6562278839348,264.8780487804878C637.7975937721161,267.6198486122792,647.0888181174805,280.9083263246426,656.380042462845,283.9697224558452C665.6712668082096,287.03111858704796,674.962491153574,279.86543313708995,683.8041401273886,277.0731707317073C692.6457891012033,274.2809083263246,701.0378627034679,275.8620689655172,709.8795116772825,276.5349032800673C718.721160651097,277.2077375946173,728.0123849964615,276.97224558452484,737.1537508846426,281.36248948696385C746.2951167728238,285.75273338940286,755.2866242038217,294.76871320437346,764.4279900920028,294.5668629100084C773.569355980184,294.36501261564337,782.8605803255485,284.9453322119428,792.0019462137296,283.5996635828427C801.1433121019109,282.2539949537426,810.1348195329086,288.982338099243,819.2761854210898,289.8906644238856C828.4175513092711,290.7989907485282,837.7087756546356,285.88730025231285,842.3543878273177,283.43145500420525L847,280.9756097560976L847,280.9756097560976L842.3543878273177,283.43145500420525C837.7087756546356,285.88730025231285,828.4175513092711,290.7989907485282,819.27618542109,289.8906644238856C810.1348195329086,288.982338099243,801.1433121019109,282.2539949537426,792.0019462137298,283.59966358284277C782.8605803255485,284.9453322119428,773.569355980184,294.36501261564337,764.4279900920028,294.5668629100084C755.2866242038217,294.76871320437346,746.2951167728238,285.75273338940286,737.1537508846426,281.36248948696385C728.0123849964615,276.97224558452484,718.721160651097,277.2077375946173,709.8795116772825,276.5349032800673C701.0378627034679,275.8620689655172,692.6457891012033,274.2809083263246,683.8041401273886,277.0731707317073C674.962491153574,279.86543313708995,665.6712668082096,287.03111858704796,656.380042462845,283.9697224558452C647.0888181174805,280.9083263246426,637.7975937721161,267.6198486122792,628.6562278839348,264.8780487804878C619.5148619957537,262.1362489486964,610.5233545647558,269.9411269974769,601.3819886765746,278.82253994953743C592.2406227883935,287.70395290159803,582.949398443029,297.6619007569386,573.8080325548477,300.94196804037006C564.6666666666666,304.2220353238015,555.6751592356687,300.82422203532377,546.5337933474875,295.72750210260716C537.3924274593064,290.63078216989067,528.101203113942,283.8351555929352,518.8099787685775,280.1850294365012C509.518754423213,276.5349032800673,500.22753007784854,276.0302775441548,491.0861641896674,289.9579478553406C481.9447983014862,303.8856181665265,472.9532908704883,332.24558452481074,463.8119249823071,331.20269133725816C454.67055909412596,330.15979814970564,445.3793347487615,299.7140454163162,436.23796886058034,294.36501261564337C427.0966029723991,289.01597981497054,418.1050955414012,308.7636669470143,408.96372965322007,343.88561816652646C399.8223637650389,379.0075693860387,390.53113941967445,429.5037846930193,381.6894904458599,424.524810765349C372.8478414720453,419.54583683767873,364.45576786978063,359.09167367535747,355.614118895966,328.94869638351554C346.77246992215146,298.80571909167367,337.481245576787,298.9739276703112,328.1900212314225,291.9764507989907C318.89879688605805,284.97897392767027,309.6075725406935,270.8158116063919,300.46620665251237,265.46677880571906C291.32484076433116,260.11774600504623,282.3333333333333,263.58284272497895,273.1919674451521,267.80487804878044C264.05060155697095,272.026913372582,254.7593772116065,277.00588730025225,245.61801132342532,283.28006728343144C236.47664543524414,289.55424726661056,227.4851380042463,297.12363330529854,218.3437721160651,302.20353238015133C209.20240622788393,307.2834314550042,199.91118188251946,309.8738435660219,190.619957537155,304.2052144659378C181.32873319179052,298.5365853658537,172.03750884642605,284.60891505466776,162.89614295824487,278.14970563498736C153.7547770700637,271.69049621530695,144.7632696390658,272.69974768713206,135.62190375088466,275.1892346509672C126.48053786270346,277.6787216148023,117.18931351733899,281.6484440706476,108.04794762915782,283.6164844407065C98.90658174097665,285.58452481076534,89.91507430997876,285.5508830950378,80.7737084217976,288.0740117746005C71.63234253361641,290.59714045416314,62.34111818825195,295.677039529016,53.49946921443737,298.83936080740114C44.65782024062278,302.00168208578634,36.2657466383581,303.24642556770397,27.424097664543524,304.05382674516403C18.582448690728945,304.86122792262404,9.291224345364473,305.2312867956266,4.645612172682236,305.4163162321278L0,305.6013456686291Z" fill="rgb(136, 105, 191)" title="supreme_court"></path><path class="layer" d="M0,174.3986543313709L4.645612172682236,174.58368376787215C9.291224345364473,174.7687132043734,18.582448690728945,175.13877207737596,27.424097664543524,175.946173254836C36.2657466383581,176.753574432296,44.65782024062278,177.99831791421357,53.49946921443736,181.16063919259878C62.34111818825195,184.322960470984,71.63234253361641,189.40285954583683,80.7737084217976,191.9259882253995C89.91507430997876,194.44911690496215,98.90658174097665,194.41547518923463,108.04794762915782,196.38351555929353C117.18931351733899,198.35155592935237,126.48053786270346,202.32127838519764,135.62190375088466,204.81076534903278C144.7632696390658,207.30025231286797,153.7547770700637,208.30950378469302,162.89614295824487,201.85029436501262C172.03750884642605,195.3910849453322,181.32873319179052,181.46341463414635,190.619957537155,175.79478553406224C199.91118188251946,170.12615643397814,209.20240622788393,172.7165685449958,218.3437721160651,177.7964676198486C227.4851380042463,182.87636669470143,236.47664543524414,190.4457527333894,245.61801132342532,196.71993271656854C254.7593772116065,202.99411269974766,264.05060155697095,207.97308662741798,273.1919674451521,212.19512195121948C282.3333333333333,216.41715727502103,291.32484076433116,219.88225399495377,300.4662066525123,214.53322119428094C309.6075725406935,209.1841883936081,318.89879688605805,195.0210260723297,328.1900212314225,188.02354920100925C337.481245576787,181.02607232968884,346.77246992215146,181.1942809083263,355.614118895966,151.05130361648446C364.45576786978063,120.90832632464257,372.8478414720453,60.45416316232129,381.6894904458599,55.47518923465097C390.53113941967445,50.49621530698065,399.8223637650389,100.9924306139613,408.96372965322007,136.11438183347352C418.1050955414012,171.2363330529857,427.0966029723991,190.9840201850294,436.23796886058034,185.63498738435658C445.3793347487615,180.28595458368375,454.67055909412596,149.84020185029436,463.8119249823071,148.7973086627418C472.9532908704883,147.75441547518923,481.9447983014862,176.11438183347352,491.0861641896674,190.04205214465938C500.22753007784854,203.96972245584524,509.518754423213,203.46509671993272,518.8099787685775,199.81497056349872C528.101203113942,196.16484440706472,537.3924274593064,189.3692178301093,546.5337933474875,184.27249789739275C555.6751592356687,179.17577796467617,564.6666666666666,175.7779646761985,573.8080325548477,179.05803195962994C582.949398443029,182.3380992430614,592.2406227883935,192.29604709840206,601.3819886765746,201.1774600504626C610.5233545647558,210.05887300252314,619.5148619957537,217.86375105130364,628.6562278839348,215.1219512195122C637.7975937721161,212.38015138772076,647.0888181174805,199.09167367535744,656.380042462845,196.03027754415473C665.6712668082096,192.96888141295207,674.962491153574,200.13456686291,683.8041401273886,202.92682926829266C692.6457891012033,205.71909167367536,701.0378627034679,204.1379310344828,709.8795116772825,203.46509671993272C718.721160651097,202.79226240538267,728.0123849964615,203.0277544154752,737.1537508846426,198.63751051303612C746.2951167728238,194.2472666105971,755.2866242038217,185.23128679562657,764.4279900920028,185.43313708999156C773.569355980184,185.6349873843566,782.8605803255485,195.05466778805717,792.0019462137296,196.40033641715726C801.1433121019109,197.74600504625735,810.1348195329086,191.01766190075696,819.2761854210898,190.1093355761144C828.4175513092711,189.20100925147185,837.7087756546356,194.11269974768717,842.3543878273177,196.5685449957948L847,199.02439024390247L847,201.24474348191757L842.3543878273177,198.6879730866274C837.7087756546356,196.13120269133728,828.4175513092711,191.01766190075693,819.27618542109,191.8587047939445C810.1348195329086,192.69974768713203,801.1433121019109,199.49537426408747,792.0019462137298,198.48612279226242C782.8605803255485,197.47687132043734,773.569355980184,188.6627417998318,764.4279900920028,188.35996635828428C755.2866242038217,188.05719091673677,746.2951167728238,196.26576955424727,737.1537508846426,200.4878048780488C728.0123849964615,204.70984020185028,718.721160651097,204.94533221194283,709.8795116772825,205.85365853658536C701.0378627034679,206.76198486122792,692.6457891012033,208.34314550042052,683.8041401273886,205.31539108494533C674.962491153574,202.28763666947012,665.6712668082096,194.65096719932717,656.380042462845,197.37594617325485C647.0888181174805,200.1009251471825,637.7975937721161,213.18755256518088,628.6562278839348,215.92935239697226C619.5148619957537,218.6711522287637,610.5233545647558,211.06812447434822,601.3819886765746,202.28763666947017C592.2406227883935,193.5071488645921,582.949398443029,183.54920100925145,573.8080325548477,180.63919259882252C564.6666666666666,177.7291841883936,555.6751592356687,181.86711522287632,546.5337933474875,187.13204373423045C537.3924274593064,192.3969722455845,528.101203113942,198.78889823380987,518.8099787685775,201.96804037005884C509.518754423213,205.14718250630781,500.22753007784854,205.11354079058034,491.0861641896674,191.152228763667C481.9447983014862,177.1909167367536,472.9532908704883,149.30193439865434,463.8119249823071,151.05130361648443C454.67055909412596,152.80067283431455,445.3793347487615,184.188393608074,436.23796886058034,189.43650126156433C427.0966029723991,194.68460891505467,418.1050955414012,173.79310344827584,408.96372965322007,138.16652649285115C399.8223637650389,102.53994953742641,390.53113941967445,52.17830109335576,381.6894904458599,57.325483599663585C372.8478414720453,62.472666105971406,364.45576786978063,123.1286795626577,355.614118895966,153.23801513877206C346.77246992215146,183.34735071488646,337.481245576787,182.9100084104289,328.1900212314225,189.73927670311184C318.89879688605805,196.56854499579478,309.6075725406935,210.66442388561813,300.46620665251237,215.946173254836C291.32484076433116,221.22792262405383,282.3333333333333,217.69554247266612,273.1919674451521,213.43986543313704C264.05060155697095,209.18418839360808,254.7593772116065,204.20521446593776,245.61801132342532,198.40201850294366C236.47664543524414,192.59882253994954,227.4851380042463,185.9714045416316,218.3437721160651,181.26156433978133C209.20240622788393,176.55172413793102,199.91118188251946,173.75946173254837,190.619957537155,182.55677039529016C181.32873319179052,191.35407905803197,172.03750884642605,211.7409587888982,162.89614295824487,219.88225399495374C153.7547770700637,228.02354920100925,144.7632696390658,223.91925988225398,135.62190375088466,220.25231286795625C126.48053786270346,216.58536585365854,117.18931351733899,213.3557611438183,108.04794762915782,209.60470984020185C98.90658174097665,205.85365853658536,89.91507430997876,201.5811606391926,80.7737084217976,199.05803195962994C71.63234253361641,196.53490328006728,62.34111818825195,195.76114381833472,53.49946921443737,193.74264087468455C44.65782024062278,191.72413793103445,36.2657466383581,188.46089150546678,27.424097664543524,185.16400336417158C18.582448690728945,181.86711522287638,9.291224345364473,178.53658536585365,4.645612172682236,176.87132043734232L0,175.20605550883096Z" fill="rgb(183, 105, 191)" title="healthcare"></path><path class="layer" d="M0,305.6013456686291L4.645612172682236,305.18082422203537C9.291224345364473,304.7603027754415,18.582448690728945,303.919259882254,27.424097664543524,302.50630782169895C36.2657466383581,301.0933557611438,44.65782024062278,299.1084945332212,53.49946921443736,295.57611438183346C62.34111818825195,292.04373423044575,71.63234253361641,286.9638351555929,80.7737084217976,284.17157275021026C89.91507430997876,281.3793103448276,98.90658174097665,280.87468460891506,108.04794762915782,278.77207737594614C117.18931351733899,276.6694701429773,126.48053786270346,272.96888141295204,135.62190375088466,270.7148864592094C144.7632696390658,268.4608915054668,153.7547770700637,267.65349032800674,162.89614295824487,273.9108494533221C172.03750884642605,280.1682085786375,181.32873319179052,293.49032800672836,190.619957537155,296.70311185870486C199.91118188251946,299.91589571068124,209.20240622788393,293.01934398654333,218.3437721160651,285.9882253994954C227.4851380042463,278.9571068124474,236.47664543524414,271.7914213624895,245.61801132342532,267.1320437342304C254.7593772116065,262.4726661059714,264.05060155697095,260.31959629941133,273.1919674451521,258.41883936080745C282.3333333333333,256.5180824222036,291.32484076433116,254.86963835155598,300.4662066525123,261.16063919259886C309.6075725406935,267.45164003364175,318.89879688605805,281.6820857863751,328.1900212314225,288.4104289318755C337.481245576787,295.13877207737596,346.77246992215146,294.3650126156434,355.614118895966,323.86879730866275C364.45576786978063,353.3725820016821,372.8478414720453,413.1539108494533,381.6894904458599,417.5946173254836C390.53113941967445,422.03532380151387,399.8223637650389,371.1354079058032,408.96372965322007,336.24894869638354C418.1050955414012,301.36248948696385,427.0966029723991,282.48948696383513,436.23796886058034,287.83851976450796C445.3793347487615,293.18755256518085,454.67055909412596,322.7586206896552,463.8119249823071,322.99411269974775C472.9532908704883,323.2296047098402,481.9447983014862,294.1295206055509,491.0861641896674,279.42809083263245C500.22753007784854,264.72666105971405,509.518754423213,264.42388561816654,518.8099787685775,265.0798990748528C528.101203113942,265.7359125315391,537.3924274593064,267.35071488645923,546.5337933474875,269.2851135407905C555.6751592356687,271.2195121951219,564.6666666666666,273.4735071488646,573.8080325548477,274.4322960470984C582.949398443029,275.39108494533224,592.2406227883935,275.0546677880572,601.3819886765746,270.98402018502946C610.5233545647558,266.9133725820017,619.5148619957537,259.1084945332212,628.6562278839348,261.5138772077376C637.7975937721161,263.919259882254,647.0888181174805,276.5349032800673,656.380042462845,279.25988225399493C665.6712668082096,281.98486122792264,674.962491153574,274.8191757779647,683.8041401273886,271.7914213624895C692.6457891012033,268.7636669470143,701.0378627034679,269.87384356602183,709.8795116772825,270.34482758620686C718.721160651097,270.8158116063919,728.0123849964615,270.6476030277544,737.1537508846426,275.20605550883096C746.2951167728238,279.7645079899075,755.2866242038217,289.04962153069806,764.4279900920028,288.88141295206054C773.569355980184,288.713204373423,782.8605803255485,279.09167367535747,792.0019462137296,277.8132884777124C801.1433121019109,276.5349032800673,810.1348195329086,283.5996635828427,819.2761854210898,284.44070647603024C828.4175513092711,285.28174936921783,837.7087756546356,279.8990748528175,842.3543878273177,277.20773759461736L847,274.5164003364172L847,280.9756097560976L842.3543878273177,283.43145500420525C837.7087756546356,285.88730025231285,828.4175513092711,290.7989907485282,819.27618542109,289.8906644238856C810.1348195329086,288.982338099243,801.1433121019109,282.2539949537426,792.0019462137298,283.59966358284277C782.8605803255485,284.9453322119428,773.569355980184,294.36501261564337,764.4279900920028,294.5668629100084C755.2866242038217,294.76871320437346,746.2951167728238,285.75273338940286,737.1537508846426,281.36248948696385C728.0123849964615,276.97224558452484,718.721160651097,277.2077375946173,709.8795116772825,276.5349032800673C701.0378627034679,275.8620689655172,692.6457891012033,274.2809083263246,683.8041401273886,277.0731707317073C674.962491153574,279.86543313708995,665.6712668082096,287.03111858704796,656.380042462845,283.9697224558452C647.0888181174805,280.9083263246426,637.7975937721161,267.6198486122792,628.6562278839348,264.8780487804878C619.5148619957537,262.1362489486964,610.5233545647558,269.9411269974769,601.3819886765746,274.5836837678722C592.2406227883935,279.22624053826746,582.949398443029,280.70647603027754,573.8080325548477,280.5550883095038C564.6666666666666,280.40370058873003,555.6751592356687,278.6206896551724,546.5337933474875,277.05634987384354C537.3924274593064,275.4920100925147,528.101203113942,274.1463414634147,518.8099787685775,273.42304457527337C509.518754423213,272.69974768713206,500.22753007784854,272.59882253994954,491.0861641896674,287.1993271656855C481.9447983014862,301.79983179142135,472.9532908704883,331.1017661900757,463.8119249823071,330.56349873843567C454.67055909412596,330.02523128679564,445.3793347487615,299.64676198486126,436.23796886058034,294.3313708999159C427.0966029723991,289.01597981497054,418.1050955414012,308.7636669470143,408.96372965322007,343.88561816652646C399.8223637650389,379.0075693860387,390.53113941967445,429.5037846930193,381.6894904458599,424.524810765349C372.8478414720453,419.54583683767873,364.45576786978063,359.09167367535747,355.614118895966,328.94869638351554C346.77246992215146,298.80571909167367,337.481245576787,298.9739276703112,328.1900212314225,291.9764507989907C318.89879688605805,284.97897392767027,309.6075725406935,270.8158116063919,300.46620665251237,265.46677880571906C291.32484076433116,260.11774600504623,282.3333333333333,263.58284272497895,273.1919674451521,267.80487804878044C264.05060155697095,272.026913372582,254.7593772116065,277.00588730025225,245.61801132342532,283.2464255677039C236.47664543524414,289.48696383515556,227.4851380042463,296.98906644238855,218.3437721160651,302.0689655172414C209.20240622788393,307.1488645920942,199.91118188251946,309.80656013456684,190.619957537155,304.17157275021026C181.32873319179052,298.5365853658537,172.03750884642605,284.60891505466776,162.89614295824487,278.14970563498736C153.7547770700637,271.69049621530695,144.7632696390658,272.69974768713206,135.62190375088466,275.1892346509672C126.48053786270346,277.6787216148023,117.18931351733899,281.6484440706476,108.04794762915782,283.582842724979C98.90658174097665,285.51724137931035,89.91507430997876,285.4163162321278,80.7737084217976,287.83851976450796C71.63234253361641,290.2607232968881,62.34111818825195,295.20605550883096,53.49946921443737,298.36837678721616C44.65782024062278,301.53069806560137,36.2657466383581,302.91000841042893,27.424097664543524,303.8183347350715C18.582448690728945,304.7266610597141,9.291224345364473,305.1640033641716,4.645612172682236,305.38267451640036L0,305.6013456686291Z" fill="rgb(191, 105, 152)" title="police"></path><g class="x axis" transform="translate(0,480)" fill="none" font-size="10" font-family="sans-serif" text-anchor="middle" style="stroke-width: 1px; font-size: 10px; font-family: Arial, Helvetica;"><path class="domain" stroke="#000" d="M0.5,6V0.5H847.5V6" style="shape-rendering: crispedges; fill: none; stroke: rgb(204, 204, 204);"></path><g class="tick" opacity="1" transform="translate(0.6873230714791224,0)"><line stroke="#000" y2="6" style="shape-rendering: crispedges; fill: none; stroke: rgb(204, 204, 204);"></line><text fill="#000" y="9" dy="0.71em">2017</text></g><g class="tick" opacity="1" transform="translate(81.57342533616419,0)"><line stroke="#000" y2="6" style="shape-rendering: crispedges; fill: none; stroke: rgb(204, 204, 204);"></line><text fill="#000" y="9" dy="0.71em">April</text></g><g class="tick" opacity="1" transform="translate(163.39614295824487,0)"><line stroke="#000" y2="6" style="shape-rendering: crispedges; fill: none; stroke: rgb(204, 204, 204);"></line><text fill="#000" y="9" dy="0.71em">July</text></g><g class="tick" opacity="1" transform="translate(246.11801132342535,0)"><line stroke="#000" y2="6" style="shape-rendering: crispedges; fill: none; stroke: rgb(204, 204, 204);"></line><text fill="#000" y="9" dy="0.71em">October</text></g><g class="tick" opacity="1" transform="translate(328.87734430290163,0)"><line stroke="#000" y2="6" style="shape-rendering: crispedges; fill: none; stroke: rgb(204, 204, 204);"></line><text fill="#000" y="9" dy="0.71em">2018</text></g><g class="tick" opacity="1" transform="translate(409.7634465675867,0)"><line stroke="#000" y2="6" style="shape-rendering: crispedges; fill: none; stroke: rgb(204, 204, 204);"></line><text fill="#000" y="9" dy="0.71em">April</text></g><g class="tick" opacity="1" transform="translate(491.5861641896674,0)"><line stroke="#000" y2="6" style="shape-rendering: crispedges; fill: none; stroke: rgb(204, 204, 204);"></line><text fill="#000" y="9" dy="0.71em">July</text></g><g class="tick" opacity="1" transform="translate(574.3080325548478,0)"><line stroke="#000" y2="6" style="shape-rendering: crispedges; fill: none; stroke: rgb(204, 204, 204);"></line><text fill="#000" y="9" dy="0.71em">October</text></g><g class="tick" opacity="1" transform="translate(657.0673655343242,0)"><line stroke="#000" y2="6" style="shape-rendering: crispedges; fill: none; stroke: rgb(204, 204, 204);"></line><text fill="#000" y="9" dy="0.71em">2019</text></g><g class="tick" opacity="1" transform="translate(737.9534677990092,0)"><line stroke="#000" y2="6" style="shape-rendering: crispedges; fill: none; stroke: rgb(204, 204, 204);"></line><text fill="#000" y="9" dy="0.71em">April</text></g><g class="tick" opacity="1" transform="translate(819.7761854210898,0)"><line stroke="#000" y2="6" style="shape-rendering: crispedges; fill: none; stroke: rgb(204, 204, 204);"></line><text fill="#000" y="9" dy="0.71em">July</text></g></g></g></svg>