<svg xmlns="http://www.w3.org/2000/svg" viewBox="0 0 557.85 849.98"><defs><style>.cls-1{fill:#ababb7;}.cls-2,.cls-3,.cls-4,.cls-5,.cls-53{fill:none;}.cls-2,.cls-20,.cls-21,.cls-37,.cls-4,.cls-45{stroke:#fff;}.cls-2,.cls-3{stroke-width:0.69px;}.cls-3{stroke:#cbcbca;}.cls-4{stroke-width:2px;}.cls-20,.cls-21,.cls-22,.cls-25,.cls-36,.cls-37,.cls-38,.cls-40,.cls-44,.cls-45,.cls-46,.cls-47,.cls-50,.cls-52,.cls-6,.cls-7{isolation:isolate;}.cls-6{font-size:8.28px;}.cls-22,.cls-25,.cls-31,.cls-44,.cls-46,.cls-52,.cls-59,.cls-6,.cls-7{fill:#fff;}.cls-22,.cls-25,.cls-31,.cls-36,.cls-38,.cls-40,.cls-44,.cls-50,.cls-52,.cls-54,.cls-56,.cls-59,.cls-6,.cls-60,.cls-61,.cls-7{font-family:Roboto-Regular, Roboto;}.cls-56,.cls-7{font-size:16px;}.cls-8{fill:#5e9a63;}.cls-47,.cls-9{fill:#244d4e;}.cls-10{fill:#52c7eb;}.cls-11{fill:#318ea4;}.cls-12{fill:#b8c3e4;}.cls-13{fill:#467bbe;}.cls-14{fill:#6c429a;}.cls-15{fill:#e386b7;}.cls-16{fill:#b21f71;}.cls-17{fill:#5c3d5e;}.cls-18{fill:#af5da3;}.cls-19{fill:#707589;}.cls-20,.cls-21,.cls-37,.cls-45{fill:#d6d6d6;opacity:0.57;}.cls-20,.cls-21,.cls-37,.cls-45,.cls-53{stroke-miterlimit:10;}.cls-20{stroke-width:0.75px;}.cls-21{stroke-width:0.66px;}.cls-22,.cls-36,.cls-38,.cls-46,.cls-47,.cls-50{font-size:10px;}.cls-23{letter-spacing:-0.02em;}.cls-24{letter-spacing:-0.02em;}.cls-25{font-size:8px;}.cls-26{letter-spacing:0.02em;}.cls-27{letter-spacing:-0.02em;}.cls-28{letter-spacing:-0.04em;}.cls-29{letter-spacing:-0.05em;}.cls-30{letter-spacing:-0.01em;}.cls-31{font-size:9px;}.cls-32{letter-spacing:-0.02em;}.cls-33{letter-spacing:-0.04em;}.cls-34{letter-spacing:-0.05em;}.cls-35{letter-spacing:-0.01em;}.cls-37{stroke-width:0.53px;}.cls-38,.cls-40{fill:#231f20;}.cls-39{letter-spacing:-0.06em;}.cls-40,.cls-44,.cls-59,.cls-60{font-size:9px;}.cls-41{letter-spacing:-0.01em;}.cls-42{letter-spacing:-0.01em;}.cls-43{letter-spacing:-0.02em;}.cls-45{stroke-width:0.94px;}.cls-46,.cls-47{font-family:Roboto-Bold, Roboto;font-weight:700;}.cls-48{letter-spacing:-0.06em;}.cls-49{letter-spacing:-0.11em;}.cls-50{fill:#010101;}.cls-51{letter-spacing:-0.01em;}.cls-52{font-size:10px;}.cls-53{stroke:#010101;}.cls-54{font-size:10px;}.cls-55{letter-spacing:-0.01em;}.cls-57{fill:#42a3c2;}.cls-58{letter-spacing:-0.01em;}.cls-61{font-size:20px;}</style></defs><title>vertical_streamgraph_for_site</title><g id="background"><rect class="cls-1" width="557.85" height="849.98"/></g><g id="grid"><path class="cls-2" d="M23.3,201.2h3.8V817.1" transform="translate(3.25)"/><path class="cls-2" d="M517.3,201.2h3.8V817.1" transform="translate(3.25)"/><line class="cls-3" x1="30.74" y1="201.3" x2="26.64" y2="201.3"/><line class="cls-3" x1="30.74" y1="256.7" x2="26.64" y2="256.7"/><line class="cls-3" x1="30.74" y1="312.7" x2="26.64" y2="312.7"/><line class="cls-3" x1="30.74" y1="369.3" x2="26.64" y2="369.3"/><line class="cls-3" x1="30.74" y1="426" x2="26.64" y2="426"/><line class="cls-3" x1="30.74" y1="481.4" x2="26.64" y2="481.4"/><line class="cls-3" x1="30.74" y1="537.4" x2="26.64" y2="537.4"/><line class="cls-3" x1="30.74" y1="594" x2="26.64" y2="594"/><line class="cls-3" x1="30.74" y1="612.9" x2="26.64" y2="612.9"/><line class="cls-3" x1="30.74" y1="631.8" x2="26.64" y2="631.8"/><line class="cls-3" x1="30.74" y1="556.3" x2="26.64" y2="556.3"/><line class="cls-3" x1="30.74" y1="575.1" x2="26.64" y2="575.1"/><line class="cls-3" x1="30.74" y1="500.2" x2="26.64" y2="500.2"/><line class="cls-3" x1="30.74" y1="519.1" x2="26.64" y2="519.1"/><line class="cls-3" x1="30.74" y1="444.5" x2="26.64" y2="444.5"/><line class="cls-3" x1="30.74" y1="462.9" x2="26.64" y2="462.9"/><line class="cls-3" x1="30.74" y1="388.2" x2="26.64" y2="388.2"/><line class="cls-3" x1="30.74" y1="407.1" x2="26.64" y2="407.1"/><line class="cls-3" x1="30.74" y1="331.6" x2="26.64" y2="331.6"/><line class="cls-3" x1="30.74" y1="350.5" x2="26.64" y2="350.5"/><line class="cls-3" x1="30.74" y1="275.4" x2="26.64" y2="275.4"/><line class="cls-3" x1="30.74" y1="294" x2="26.64" y2="294"/><line class="cls-3" x1="30.74" y1="219.8" x2="26.64" y2="219.8"/><line class="cls-3" x1="30.74" y1="238.2" x2="26.64" y2="238.2"/><line class="cls-3" x1="30.54" y1="669.1" x2="26.44" y2="669.1"/><line class="cls-3" x1="30.54" y1="687.6" x2="26.44" y2="687.6"/><line class="cls-3" x1="30.54" y1="724.7" x2="26.44" y2="724.7"/><line class="cls-3" x1="30.54" y1="743.4" x2="26.44" y2="743.4"/><line class="cls-3" x1="30.74" y1="650.7" x2="26.64" y2="650.7"/><line class="cls-3" x1="30.74" y1="706" x2="26.64" y2="706"/><line class="cls-3" x1="30.74" y1="762" x2="26.64" y2="762"/><line class="cls-4" x1="543.84" y1="201.3" x2="26.64" y2="201.3"/><line class="cls-2" x1="528.85" y1="256.7" x2="26.55" y2="256.7"/><line class="cls-2" x1="528.85" y1="312.7" x2="26.55" y2="312.7"/><line class="cls-2" x1="528.85" y1="369.3" x2="26.55" y2="369.3"/><line class="cls-4" x1="543.85" y1="426" x2="26.55" y2="426"/><line class="cls-2" x1="528.85" y1="481.4" x2="26.55" y2="481.4"/><line class="cls-2" x1="528.85" y1="537.4" x2="26.55" y2="537.4"/><line class="cls-2" x1="528.85" y1="594" x2="26.55" y2="594"/><line class="cls-2" x1="528.85" y1="612.9" x2="26.55" y2="612.9"/><line class="cls-2" x1="528.85" y1="631.8" x2="26.55" y2="631.8"/><line class="cls-2" x1="528.85" y1="556.3" x2="26.55" y2="556.3"/><line class="cls-2" x1="528.85" y1="575.1" x2="26.55" y2="575.1"/><line class="cls-2" x1="528.85" y1="500.2" x2="26.55" y2="500.2"/><line class="cls-2" x1="528.65" y1="519.1" x2="26.55" y2="519.1"/><line class="cls-2" x1="528.85" y1="444.5" x2="26.55" y2="444.5"/><line class="cls-2" x1="528.85" y1="462.9" x2="26.55" y2="462.9"/><line class="cls-2" x1="528.85" y1="388.2" x2="26.55" y2="388.2"/><line class="cls-2" x1="528.85" y1="407.1" x2="26.55" y2="407.1"/><line class="cls-2" x1="528.85" y1="331.6" x2="26.55" y2="331.6"/><line class="cls-2" x1="528.85" y1="350.5" x2="26.55" y2="350.5"/><line class="cls-2" x1="528.85" y1="275.4" x2="26.55" y2="275.4"/><line class="cls-2" x1="528.85" y1="294" x2="26.55" y2="294"/><line class="cls-2" x1="528.85" y1="219.8" x2="26.55" y2="219.8"/><line class="cls-2" x1="528.85" y1="238.2" x2="26.55" y2="238.2"/><line class="cls-2" x1="528.65" y1="669.1" x2="26.45" y2="669.1"/><line class="cls-2" x1="528.65" y1="687.6" x2="26.45" y2="687.6"/><line class="cls-2" x1="528.65" y1="724.7" x2="26.45" y2="724.7"/><line class="cls-2" x1="528.65" y1="743.4" x2="26.45" y2="743.4"/><line class="cls-4" x1="543.85" y1="650.7" x2="26.55" y2="650.7"/><line class="cls-2" x1="528.85" y1="706" x2="26.55" y2="706"/><line class="cls-2" x1="528.85" y1="762" x2="26.55" y2="762"/><line class="cls-2" x1="379.85" y1="780.3" x2="26.55" y2="780.3"/><line class="cls-2" x1="528.85" y1="780.6" x2="26.55" y2="780.6"/><line class="cls-2" x1="379.85" y1="798.8" x2="26.55" y2="798.8"/><line class="cls-2" x1="528.85" y1="799" x2="26.55" y2="799"/><line class="cls-2" x1="528.85" y1="817.2" x2="26.55" y2="817.2"/><path class="cls-2" d="M394.9,781" transform="translate(3.25)"/><path class="cls-2" d="M394.9,201.2" transform="translate(3.25)"/><rect class="cls-5" x="6.05" y="198" width="14" height="12.9"/><text class="cls-6" transform="translate(10.8 204.24)">J</text><rect class="cls-5" x="6.05" y="216.5" width="14" height="12.9"/><text class="cls-6" transform="translate(10.8 222.7)">F</text><rect class="cls-5" x="6.05" y="234.9" width="14" height="12.9"/><text class="cls-6" transform="translate(9.47 241.16)">M</text><rect class="cls-5" x="6.05" y="253.4" width="14" height="12.9"/><text class="cls-6" transform="translate(10.39 259.62)">A</text><rect class="cls-5" x="6.05" y="272.1" width="14" height="12.9"/><text class="cls-6" transform="translate(9.47 278.29)">M</text><rect class="cls-5" x="6.05" y="290.7" width="14" height="12.9"/><text class="cls-6" transform="translate(10.8 296.96)">J</text><rect class="cls-5" x="6.05" y="309.4" width="14" height="12.9"/><text class="cls-6" transform="translate(10.8 315.63)">J</text><rect class="cls-5" x="6.05" y="328.3" width="14" height="12.9"/><text class="cls-6" transform="translate(10.39 334.51)">A</text><rect class="cls-5" x="6.05" y="347.2" width="14" height="12.9"/><text class="cls-6" transform="translate(10.63 353.38)">S</text><rect class="cls-5" x="6.05" y="366" width="14" height="12.9"/><text class="cls-6" transform="translate(10.24 372.26)">O</text><rect class="cls-5" x="6.05" y="384.9" width="14" height="12.9"/><text class="cls-6" transform="translate(10.14 391.14)">N</text><rect class="cls-5" x="6.05" y="403.8" width="14" height="12.9"/><text class="cls-6" transform="translate(10.37 410.03)">D</text><rect class="cls-5" x="6.05" y="422" width="14" height="12.9"/><text class="cls-6" transform="translate(10.8 428.24)">J</text><rect class="cls-5" x="6.05" y="440.5" width="14" height="12.9"/><text class="cls-6" transform="translate(10.8 446.7)">F</text><rect class="cls-5" x="6.05" y="458.9" width="14" height="12.9"/><text class="cls-6" transform="translate(9.47 465.15)">M</text><rect class="cls-5" x="6.05" y="477.4" width="14" height="12.9"/><text class="cls-6" transform="translate(10.39 483.61)">A</text><rect class="cls-5" x="6.05" y="496.1" width="14" height="12.9"/><text class="cls-6" transform="translate(9.47 502.28)">M</text><rect class="cls-5" x="6.05" y="514.7" width="14" height="12.9"/><text class="cls-6" transform="translate(10.8 520.95)">J</text><rect class="cls-5" x="6.05" y="533.4" width="14" height="12.9"/><text class="cls-6" transform="translate(10.8 539.62)">J</text><rect class="cls-5" x="6.05" y="552.3" width="14" height="12.9"/><text class="cls-6" transform="translate(10.39 558.5)">A</text><rect class="cls-5" x="6.05" y="571.2" width="14" height="12.9"/><text class="cls-6" transform="translate(10.63 577.38)">S</text><rect class="cls-5" x="6.05" y="590" width="14" height="12.9"/><text class="cls-6" transform="translate(10.24 596.25)">O</text><rect class="cls-5" x="6.05" y="608.9" width="14" height="12.9"/><text class="cls-6" transform="translate(10.14 615.14)">N</text><rect class="cls-5" x="6.05" y="627.8" width="14" height="12.9"/><text class="cls-6" transform="translate(10.37 634.02)">D</text><rect class="cls-5" x="6.05" y="646.6" width="14" height="12.9"/><text class="cls-6" transform="translate(10.8 652.79)">J</text><rect class="cls-5" x="6.05" y="665" width="14" height="12.9"/><text class="cls-6" transform="translate(10.8 671.24)">F</text><rect class="cls-5" x="6.05" y="683.5" width="14" height="12.9"/><text class="cls-6" transform="translate(9.47 689.7)">M</text><rect class="cls-5" x="6.05" y="701.9" width="14" height="12.9"/><text class="cls-6" transform="translate(10.39 708.16)">A</text><rect class="cls-5" x="6.05" y="720.6" width="14" height="12.9"/><text class="cls-6" transform="translate(9.47 726.83)">M</text><rect class="cls-5" x="6.05" y="739.3" width="14" height="12.9"/><text class="cls-6" transform="translate(10.8 745.5)">J</text><rect class="cls-5" x="6.05" y="758" width="14" height="12.9"/><text class="cls-6" transform="translate(10.8 764.17)">J</text><rect class="cls-5" x="6.05" y="778.8" width="14" height="12.9"/><text class="cls-6" transform="translate(10.39 785.05)">A</text><rect class="cls-5" x="6.05" y="795.5" width="14" height="12.9"/><text class="cls-6" transform="translate(10.63 801.76)">S</text><rect class="cls-5" x="6.05" y="813.8" width="14" height="12.9"/><text class="cls-6" transform="translate(10.24 820.04)">O</text><rect class="cls-5" x="543.85" y="198" width="14" height="12.9"/><text class="cls-6" transform="translate(548.57 204.24)">J</text><rect class="cls-5" x="543.85" y="216.5" width="14" height="12.9"/><text class="cls-6" transform="translate(548.56 222.7)">F</text><rect class="cls-5" x="543.85" y="234.9" width="14" height="12.9"/><text class="cls-6" transform="translate(547.24 241.16)">M</text><rect class="cls-5" x="543.85" y="253.4" width="14" height="12.9"/><text class="cls-6" transform="translate(548.15 259.62)">A</text><rect class="cls-5" x="543.85" y="272.1" width="14" height="12.9"/><text class="cls-6" transform="translate(547.24 278.29)">M</text><rect class="cls-5" x="543.85" y="290.7" width="14" height="12.9"/><text class="cls-6" transform="translate(548.57 296.96)">J</text><rect class="cls-5" x="543.85" y="309.4" width="14" height="12.9"/><text class="cls-6" transform="translate(548.57 315.63)">J</text><rect class="cls-5" x="543.85" y="328.3" width="14" height="12.9"/><text class="cls-6" transform="translate(548.15 334.51)">A</text><rect class="cls-5" x="543.85" y="347.2" width="14" height="12.9"/><text class="cls-6" transform="translate(548.39 353.38)">S</text><rect class="cls-5" x="543.85" y="366" width="14" height="12.9"/><text class="cls-6" transform="translate(548 372.26)">O</text><rect class="cls-5" x="543.85" y="384.9" width="14" height="12.9"/><text class="cls-6" transform="translate(547.9 391.14)">N</text><rect class="cls-5" x="543.85" y="403.8" width="14" height="12.9"/><text class="cls-6" transform="translate(548.13 410.03)">D</text><rect class="cls-5" x="543.85" y="422" width="14" height="12.9"/><text class="cls-6" transform="translate(548.57 428.24)">J</text><rect class="cls-5" x="543.85" y="440.5" width="14" height="12.9"/><text class="cls-6" transform="translate(548.56 446.7)">F</text><rect class="cls-5" x="543.85" y="458.9" width="14" height="12.9"/><text class="cls-6" transform="translate(547.24 465.15)">M</text><rect class="cls-5" x="543.85" y="477.4" width="14" height="12.9"/><text class="cls-6" transform="translate(548.15 483.61)">A</text><rect class="cls-5" x="543.85" y="496.1" width="14" height="12.9"/><text class="cls-6" transform="translate(547.24 502.28)">M</text><rect class="cls-5" x="543.85" y="514.7" width="14" height="12.9"/><text class="cls-6" transform="translate(548.56 520.95)">J</text><rect class="cls-5" x="543.85" y="533.4" width="14" height="12.9"/><text class="cls-6" transform="translate(548.56 539.62)">J</text><rect class="cls-5" x="543.85" y="552.3" width="14" height="12.9"/><text class="cls-6" transform="translate(548.15 558.5)">A</text><rect class="cls-5" x="543.85" y="571.2" width="14" height="12.9"/><text class="cls-6" transform="translate(548.39 577.38)">S</text><rect class="cls-5" x="543.85" y="590" width="14" height="12.9"/><text class="cls-6" transform="translate(548 596.25)">O</text><rect class="cls-5" x="543.85" y="608.9" width="14" height="12.9"/><text class="cls-6" transform="translate(547.9 615.14)">N</text><rect class="cls-5" x="543.85" y="627.8" width="14" height="12.9"/><text class="cls-6" transform="translate(548.14 634.02)">D</text><rect class="cls-5" x="543.85" y="646.6" width="14" height="12.9"/><text class="cls-6" transform="translate(548.56 652.79)">J</text><rect class="cls-5" x="543.85" y="665" width="14" height="12.9"/><text class="cls-6" transform="translate(548.56 671.24)">F</text><rect class="cls-5" x="543.85" y="683.5" width="14" height="12.9"/><text class="cls-6" transform="translate(547.24 689.7)">M</text><rect class="cls-5" x="543.85" y="701.9" width="14" height="12.9"/><text class="cls-6" transform="translate(548.15 708.16)">A</text><rect class="cls-5" x="543.85" y="720.6" width="14" height="12.9"/><text class="cls-6" transform="translate(547.24 726.83)">M</text><rect class="cls-5" x="543.85" y="739.3" width="14" height="12.9"/><text class="cls-6" transform="translate(548.57 745.5)">J</text><rect class="cls-5" x="543.85" y="758" width="14" height="12.9"/><text class="cls-6" transform="translate(548.57 764.17)">J</text><rect class="cls-5" x="543.85" y="778.8" width="14" height="12.9"/><text class="cls-6" transform="translate(548.15 785.05)">A</text><rect class="cls-5" x="543.85" y="795.5" width="14" height="12.9"/><text class="cls-6" transform="translate(548.39 801.76)">S</text><rect class="cls-5" x="543.85" y="813.8" width="14" height="12.9"/><text class="cls-6" transform="translate(548 820.04)">O</text><text class="cls-7" transform="translate(479.37 216.79)">2017</text><text class="cls-7" transform="translate(479.37 442.05)">2018</text><text class="cls-7" transform="translate(479.37 666.53)">2019</text></g><g id="stream-chart"><g id="stream"><path id="supreme-court-stream" class="cls-8" d="M179.26,203.3c-1.8,3.2-5.5,9.5-6.9,15.6s-.5,11.8.2,17.8,1.2,12.5,5,18.7,10.7,12.4,15.1,18.7,6.3,12.6,8.5,18.9,5,12.5-1.9,18.7-23.5,12.6-29.7,19-2.1,12.7,3.9,19,14,12.4,20.7,18.7A129.7,129.7,0,0,1,211,387.3c4.5,6.3,8.1,12.5,3.2,18.7s-18.4,12.6-25.6,19-8.2,12.8-44.5,18.8-107.8,11.8-115,17.8,50,12.4,90.2,18.7,63.6,12.4,57.9,18.7-40.2,12.6-39.6,18.9,36.5,12.5,54.5,18.7,18.2,12.6,17.7,19-1.7,12.8-4.8,19-8,12.5-8.6,18.7,3,12.6,10,18.9,17.5,12.5,14.1,18.7-20.5,12.6-25.1,19,3.1,12.8,5.7,18.8-.1,11.7-1.5,17.8-1.7,12.5-6.7,18.7-14.9,12.4-14.8,18.7,10.2,12.6,11.7,18.9-5.4,12.5-5.7,18.7,6.1,12.6,6.2,19-6,12.7-5.9,19,6.3,12.4,9.4,15.5l3.1,3.1h0l-3.1-3.1c-3.1-3.1-9.3-9.3-9.4-15.5s6-12.6,5.9-19-6.5-12.7-6.2-19,7.3-12.4,5.7-18.7-11.6-12.6-11.7-18.9,9.8-12.4,14.8-18.7,5.3-12.7,6.7-18.7,4.1-11.8,1.5-17.8-10.3-12.4-5.7-18.8,21.7-12.8,25.1-19-7-12.5-19-18.7-25.5-12.6-28.9-18.9,3.4-12.5,10.6-18.7,14.8-12.6,18.7-19,4.3-12.7-13-19-52-12.5-52.1-18.7,34.7-12.6,40.3-18.9-17.7-12.4-57.9-18.7S21.76,467.6,29,461.6s78.7-11.7,115-17.8,37.3-12.4,44.5-18.8,20.7-12.8,25.6-19,1.4-12.5-3.2-18.7A130.72,130.72,0,0,0,194,368.4c-6.8-6.3-14.9-12.5-20.9-18.7s-10.1-12.6-3.8-19,22.8-12.7,29.7-19,4.2-12.4,1.9-18.7-4-12.6-8.5-18.9-11.5-12.5-15.4-18.7-4.6-12.7-5.3-18.7-1.4-11.7.1-17.8,5.2-12.4,7.1-15.6l1.9-3.2Z" transform="translate(3.25)"/><path id="women-stream" class="cls-9" d="M180.76,200.1,284,200l-15,3.2c-15,3.2-45,9.5-59.4,15.6s-13.1,11.8-14.6,17.8-5.7,12.5-5.6,18.7,4.4,12.5,7.5,18.7,5,12.7,7.4,18.9,5.4,12.5-1.5,18.7-23.5,12.6-29.6,19-1.7,12.7,5.2,19,16.5,12.4,22.8,18.7,9.6,12.6,13.1,18.9,7,12.5,13.8,18.7,16.8,12.6,9.9,19-30.6,12.8-77.2,18.8-116.3,11.8-122.6,17.8,50.5,12.4,89.5,18.7,59.9,12.4,53.2,18.7-41.1,12.7-40.6,18.9,35.7,12.5,53.8,18.7,19,12.6,22.4,19,9.2,12.8,11.4,19,.7,12.5-3.1,18.7-10,12.7-8.5,18.9,10.6,12.5,14.1,18.7,1.4,12.7-2.7,19-10.2,12.8-14,18.8a36.36,36.36,0,0,0-5.8,17.8c-.4,6.1.3,12.5,4.9,18.7s13.2,12.4,12.6,18.7-10.3,12.6-19.3,18.9-17.4,12.5-18.4,18.7,5.6,12.6,5.8,19-6,12.7-4.6,19,10.5,12.4,15,15.5l4.5,3.1h-11.8l-3.1-3.1c-3.1-3.1-9.3-9.3-9.4-15.5s6-12.6,5.9-19-6.5-12.7-6.2-19,7.3-12.4,5.7-18.7-11.6-12.6-11.7-18.9,9.8-12.4,14.8-18.7,5.3-12.7,6.7-18.7,4.1-11.8,1.5-17.8-10.3-12.4-5.7-18.8,21.8-12.7,25.1-19-7.1-12.5-14.1-18.7-10.6-12.6-10-18.9,5.5-12.5,8.6-18.7a50.75,50.75,0,0,0,4.8-19c.5-6.4.3-12.7-17.7-19s-53.9-12.5-54.5-18.7,34-12.6,39.6-18.9-17.7-12.4-57.9-18.7-97.4-12.7-90.2-18.7,78.7-11.7,115-17.8,37.3-12.4,44.5-18.8,20.7-12.8,25.6-19,1.4-12.5-3.2-18.7a129.7,129.7,0,0,0-16.8-18.9c-6.7-6.3-14.7-12.5-20.7-18.7s-10.1-12.6-3.9-19,22.8-12.7,29.7-19,4.2-12.4,1.9-18.7-4.1-12.7-8.5-18.9-11.4-12.3-15.1-18.6-4.3-12.7-5-18.7-1.6-11.7-.2-17.8,5.1-12.4,6.9-15.6l1.8-3.2Z" transform="translate(3.25)"/><path id="police-stream" class="cls-10" d="M268.26,203.3c-14.8,3.2-44.3,9.5-58.1,15.6s-11.8,11.8-12.8,17.8-5,12.5-4.5,18.7,5.5,12.4,8.8,18.7,4.9,12.6,7,18.9,4.8,12.5-1.8,18.7-22.5,12.6-25.8,19,6.1,12.8,15.3,19,18.2,12.4,22.8,18.7,4.6,12.6,5.3,18.9,2.2,12.5,7.9,18.7,15.5,12.6,9,19-29.5,12.8-75.4,18.8-114.7,11.8-120.4,17.8S97.36,474,136,480.3s58.5,12.5,51.8,18.7-40.1,12.6-39.3,18.9,35.8,12.5,54,18.7,19.6,12.6,23.1,19,8.9,12.7,10.7,19-.3,12.4-5,18.7-12.2,12.7-11.4,18.9,10,12.5,13.9,18.7,2.6,12.7-1.1,19-9.8,12.8-13.3,18.8a34.69,34.69,0,0,0-4.7,17.8c-.1,6.1.5,12.5,4.9,18.7s12.6,12.4,12,18.7-10,12.6-19.1,18.9-17.8,12.5-18.7,18.7,6.1,12.6,6.2,19-6.8,12.8-5.8,19,9.9,12.4,14.4,15.5l4.5,3.1h-5l-4.5-3.1c-4.5-3.1-13.6-9.3-15-15.5s4.8-12.6,4.6-19-6.8-12.8-5.8-19,9.3-12.4,18.4-18.7,18.8-12.6,19.3-18.9-8-12.5-12.6-18.7-5.3-12.7-4.9-18.7a37.76,37.76,0,0,1,5.8-17.8c3.8-6.1,9.9-12.4,14-18.8s6.2-12.8,2.7-19-12.6-12.4-14.1-18.7,4.7-12.7,8.5-18.9,5.3-12.5,3.1-18.7-8-12.6-11.4-19-4.3-12.8-22.4-19-53.3-12.5-53.8-18.7,33.9-12.7,40.6-18.9-14.3-12.4-53.2-18.7-95.9-12.7-89.5-18.7,76-11.7,122.6-17.8,70.3-12.4,77.2-18.8-3.1-12.7-9.9-19-10.3-12.5-13.8-18.7-6.7-12.6-13.1-18.9-15.9-12.5-22.8-18.7-11.3-12.6-5.2-19,22.7-12.8,29.6-19,3.9-12.5,1.5-18.7-4.3-12.7-7.4-18.9-7.4-12.5-7.5-18.7,4.1-12.7,5.6-18.7.2-11.7,14.6-17.8,44.4-12.4,59.4-15.6l15-3.2Z" transform="translate(3.25)"/><path id="education-stream" class="cls-11" d="M282.66,200.1h.6L269,203.3c-14.3,3.2-42.9,9.5-55,15.6s-7.8,11.8-8.3,17.8-5.7,12.5-5.4,18.7,6.3,12.5,9.2,18.7,2.7,12.7,3.9,18.9,3.7,12.5-3.2,18.7-23.3,12.6-26.3,19,7.5,12.8,17.5,19,19.5,12.4,23.6,18.7,3,12.6,3.1,18.9,1.3,12.5,7.3,18.7,16.9,12.6,12.9,19-22.6,12.8-66.4,18.8-112.5,11.8-116.7,17.8,56.3,12.4,93.7,18.7,51.7,12.4,40.9,18.7-46.7,12.7-47.5,18.9,33.6,12.5,52.1,18.7,21.2,12.6,25.5,19,10.2,12.7,12.4,19,.8,12.5-4.3,18.7-13.7,12.7-13.5,18.9,9.3,12.5,13.5,18.7,3.6,12.7.3,19-9.2,12.8-11.9,18.8-2,11.7-.5,17.8a40.66,40.66,0,0,0,9.7,18.7c5.8,6.3,14.8,12.4,12.6,18.7s-15.5,12.6-27.4,18.9-22.5,12.5-24.2,18.7,5.4,12.6,6.3,19-4.4,12.7-2.8,19,9.9,12.4,14.1,15.5l4.2,3.1h-5.7l-4.5-3.1c-4.5-3.1-13.4-9.3-14.4-15.5s5.9-12.6,5.8-19-7.1-12.7-6.2-19,9.6-12.4,18.7-18.7,18.5-12.6,19.1-18.9-7.6-12.5-12-18.7-5.1-12.7-4.9-18.7,1.2-11.8,4.7-17.8,9.6-12.4,13.3-18.8,5-12.7,1.1-19-13.1-12.4-13.9-18.7,6.7-12.6,11.4-18.9,6.8-12.5,5-18.7-7.2-12.6-10.7-19-4.9-12.7-23.1-19-53.2-12.5-54-18.7,32.5-12.6,39.3-18.9-13.1-12.4-51.8-18.7-96.1-12.7-90.4-18.7,74.5-11.7,120.4-17.8,68.9-12.4,75.4-18.8-3.3-12.7-9-19-7.2-12.5-7.9-18.7-.8-12.7-5.3-18.9-13.6-12.5-22.8-18.7-18.6-12.6-15.3-19,19.2-12.7,25.8-19,3.9-12.4,1.8-18.7-3.7-12.6-7-18.9-8.3-12.5-8.8-18.7,3.5-12.7,4.5-18.7-1-11.7,12.8-17.8,43.3-12.4,58.1-15.6l14.8-3.2Z" transform="translate(3.25)"/><path id="executive-stream" class="cls-12" d="M282.86,200.1H291l-10.4,3.2c-10.4,3.2-31.1,9.5-37.9,15.6s.2,11.8.1,17.8-7.4,12.5-12.4,18.7-7.7,12.5-7.4,18.7,3.7,12.6,5.3,18.9,1.2,12.5-7,18.7-24.4,12.6-28.3,19,4.5,12.8,13.6,19,18.8,12.4,23.5,18.7,4.3,12.6,3.8,18.9-1.3,12.5,4.7,18.7,18.7,12.6,14.9,19-23.9,12.8-68.2,18.8-112.7,11.8-117,17.8,55.5,12.4,92.6,18.7,51.7,12.4,41.5,18.7-45.1,12.7-44.1,18.9,37.9,12.5,56.9,18.7,20,12.6,26,19,16.9,12.8,22.8,19,6.6,12.4,5.7,18.7a40.46,40.46,0,0,1-8.1,18.9c-4.7,6.3-11.7,12.5-12.6,18.7s4.3,12.6,1.3,19-14,12.8-19,18.8-3.9,11.7-1.2,17.8a72.91,72.91,0,0,0,12.7,18.7c5.6,6.3,12.3,12.4,10.6,18.7s-11.7,12.6-21.8,18.9-20.2,12.5-22.5,18.7,3.3,12.6,2.5,19-7.9,12.7-4.4,19,17.4,12.4,24.4,15.5l7,3.1H218l-4.2-3.1c-4.2-3.1-12.5-9.3-14.1-15.5s3.7-12.6,2.8-19-8-12.8-6.3-19,12.2-12.4,24.2-18.7,25.3-12.6,27.4-18.9-6.9-12.4-12.6-18.7a41.63,41.63,0,0,1-9.7-18.7c-1.6-6-2.2-11.8.5-17.8s8.6-12.4,11.9-18.8,3.9-12.8-.3-19-13.3-12.5-13.5-18.7,8.4-12.7,13.5-18.9,6.5-12.5,4.3-18.7-8.1-12.6-12.4-19-7-12.8-25.5-19-52.9-12.5-52.1-18.7,36.7-12.6,47.5-18.9-3.5-12.4-40.9-18.7-97.8-12.7-93.7-18.7,72.9-11.7,116.7-17.8,62.4-12.4,66.4-18.8S241,412.3,235,406s-7.2-12.5-7.3-18.7,1.1-12.6-3.1-18.9S211,355.9,201,349.7s-20.5-12.6-17.5-19,19.4-12.7,26.3-19,4.4-12.5,3.2-18.7-1-12.6-3.9-18.9-8.8-12.4-9.2-18.7,4.9-12.7,5.4-18.7-3.8-11.7,8.3-17.8,40.7-12.4,55-15.6l14.3-3.2Z" transform="translate(3.25)"/><path id="immigration-stream" class="cls-13" d="M290.86,200.1h38.4l-6.2,3.2c-6.2,3.2-18.5,9.5-28.9,15.6s-18.7,11.8-27.6,17.8-18.3,12.5-20.9,18.7,1.6,12.4,1.3,18.7-4.9,12.6-7.6,18.9-3.4,12.5-11.1,18.7-22.3,12.6-17.9,19,27.9,12.7,36.2,19,1.4,12.4-2.1,18.7-3.4,12.6-3.2,18.9.5,12.5,7.7,18.7,21.4,12.6,17.4,19-26.1,12.8-70.2,18.8S86,455.6,81.76,461.6s53.5,12.5,89.6,18.7,50.5,12.5,75.5,18.7,60.4,12.7,63.9,18.9-25,12.5-41.1,18.7-19.9,12.6-17.3,19,11.6,12.7,17,19,7,12.5,6.4,18.7-3.4,12.7-8.3,18.9-11.8,12.5-12.6,18.7,4.6,12.6,6.1,19-.8,12.8-6,18.8-13.3,11.7-15.1,17.8,3,12.5,9.4,18.7,14.5,12.4,13.4,18.7-11.5,12.7-10.3,18.9,13.9,12.4,12.4,18.7-17.1,12.6-29.5,19-21.3,12.8-19.2,19,15.3,12.4,21.9,15.5l6.6,3.1h-6.1l-7-3.1c-7-3.1-20.9-9.3-24.4-15.5s3.6-12.6,4.4-19-4.8-12.8-2.5-19,12.4-12.5,22.5-18.7,20.1-12.6,21.8-18.9-5.1-12.4-10.6-18.7-10-12.7-12.7-18.7-3.8-11.8,1.2-17.8,16-12.4,19-18.8-2.2-12.8-1.3-19,7.9-12.4,12.6-18.7a41.33,41.33,0,0,0,8.1-18.9c.9-6.3.2-12.5-5.7-18.7s-16.8-12.6-22.8-19-7-12.7-26-19-55.9-12.5-56.9-18.7,33.9-12.7,44.1-18.9-4.4-12.4-41.5-18.7-96.9-12.7-92.6-18.7,72.7-11.7,117-17.8,64.4-12.4,68.2-18.8-8.9-12.7-14.9-19-5.2-12.5-4.7-18.7.9-12.6-3.8-18.9-14.4-12.5-23.5-18.7-17.5-12.6-13.6-19,20.1-12.7,28.3-19,8.5-12.5,7-18.7-5-12.6-5.3-18.9,2.4-12.5,7.4-18.7,12.3-12.7,12.4-18.7-6.9-11.7-.1-17.8,27.6-12.4,37.9-15.6l10.4-3.2Z" transform="translate(3.25)"/><path id="guns-stream" class="cls-14" d="M323.16,203.3c-6.2,3.2-18.5,9.5-28.6,15.6s-17.9,11.8-26.5,17.8-17.9,12.5-20.6,18.7,1.4,12.4,1.4,18.7-4.1,12.7-6.8,18.9-4,12.5-12,18.7-22.8,12.6-18.5,19,27.9,12.7,36.7,19,3,12.4-.5,18.7-4.6,12.6-4.9,18.9.1,12.5,7.5,18.7,21.7,12.6,27.6,19,3.4,12.8,38.9,18.8,109.1,11.8,114.8,17.8-56.4,12.4-98.6,18.7-64.6,12.5-57.4,18.7,44.2,12.6,47.4,18.9-27.4,12.5-44.7,18.7-21.3,12.6-19.4,19,9.7,12.7,14.4,19,6.2,12.5,5.6,18.7-3.5,12.6-8.6,18.9-12.4,12.5-13.2,18.7,5,12.7,6.7,19-.5,12.8-5.4,18.8-12.3,11.7-13.8,17.8,3.1,12.5,9.1,18.7,13.4,12.4,13.1,18.7-8.3,12.6-7.3,18.9,11.3,12.4,13,18.7-5.2,12.6-17,19-28.6,12.7-31,19,9.6,12.4,15.6,15.5l6,3.1h-1.4l-6.6-3.1c-6.6-3.1-19.8-9.3-21.9-15.5s6.9-12.6,19.2-19,28-12.7,29.5-19-11.2-12.4-12.4-18.7,9.2-12.6,10.3-18.9-7-12.5-13.4-18.7-11.1-12.7-9.4-18.7,9.9-11.8,15.1-17.8,7.5-12.4,6-18.8-6.9-12.7-6.1-19,7.7-12.5,12.6-18.7,7.7-12.7,8.3-18.9-1.1-12.5-6.4-18.7-14.4-12.6-17-19,1.2-12.8,17.3-19,44.6-12.5,41.1-18.7-38.9-12.7-63.9-18.9-39.4-12.4-75.5-18.7S77.76,467.6,82,461.6s70.3-11.7,114.4-17.8,66.2-12.4,70.2-18.8-10.2-12.7-17.4-19-7.5-12.5-7.7-18.7-.2-12.6,3.2-18.9,10.4-12.5,2.1-18.7-31.7-12.6-36.2-19,10.2-12.8,17.9-19,8.4-12.4,11.1-18.7,7.3-12.7,7.6-18.9-3.9-12.4-1.3-18.7,12-12.7,20.9-18.7,17.2-11.7,27.6-17.8,22.7-12.4,28.9-15.6l6.2-3.2Z" transform="translate(3.25)"/><path id="race-stream" class="cls-15" d="M329.46,200.1h1.3l-5.5,3.2c-5.4,3.2-16.4,9.5-25.2,15.6s-15.7,11.8-23.9,17.8-17.9,12.5-19.7,18.7,4.2,12.4,4.7,18.7-4.8,12.7-8.5,18.9-5.7,12.5,4.4,18.7,32.3,12.6,42.1,19,7,12.7,1.4,19-14.1,12.5-21.2,18.7a126.63,126.63,0,0,0-17.6,18.9c-4.7,6.3-8.2,12.5.4,18.7s29.3,12.6,35.9,19-.9,12.8,32.3,18.8,106.9,11.8,113.4,17.8-54.2,12.4-97,18.7-67.3,12.4-61,18.7,43.8,12.7,46.9,18.9-28,12.5-43.9,18.7-16.7,12.6-14.1,19,8.3,12.7,11.9,19,4.8,12.4,3.5,18.7-5,12.6-11.4,18.9-15.3,12.5-12.7,18.7,16.8,12.6,19.4,19-6.2,12.8-14.3,18.8-15.6,11.8-17.1,17.8,2.9,12.5,9.3,18.7,14.7,12.4,14,18.7-10.6,12.6-10.1,18.9,11.5,12.5,14,18.7-3.4,12.6-15.4,19-30.1,12.7-32.7,19,10.3,12.4,16.7,15.5l6.4,3.1h-9.9l-6-3.1c-6-3.1-18-9.3-15.6-15.5s19.2-12.6,31-19,18.7-12.7,17-19-11.9-12.4-13-18.7,7-12.6,7.3-18.9-7.1-12.5-13.1-18.7-10.6-12.7-9.1-18.7,8.9-11.8,13.8-17.8,7.1-12.4,5.4-18.8-7.5-12.8-6.7-19,8.1-12.4,13.2-18.7,8-12.6,8.6-18.9-.9-12.5-5.6-18.7-12.5-12.6-14.4-19,2.1-12.7,19.4-19,47.9-12.5,44.7-18.7-40.1-12.6-47.4-18.9,15.1-12.4,57.4-18.7,104.3-12.7,98.6-18.7-79.3-11.7-114.8-17.8-33-12.4-38.9-18.8-20.2-12.7-27.6-19-7.8-12.5-7.5-18.7,1.4-12.6,4.9-18.9,9.3-12.5.5-18.7-32.3-12.6-36.7-19,10.5-12.8,18.5-19,9.3-12.4,12-18.7,6.8-12.6,6.8-18.9-4.1-12.5-1.4-18.7,12-12.7,20.6-18.7,16.4-11.7,26.5-17.8,22.4-12.4,28.6-15.6l6.2-3.2Z" transform="translate(3.25)"/><path id="collective-bargaining-stream" class="cls-16" d="M325.46,203.3c-5.3,3.2-16.1,9.5-24.1,15.6s-13.2,11.8-20.6,17.8-16.9,12.5-18.2,18.7,5.6,12.5,5.9,18.7-5.9,12.6-10.4,18.9-7.3,12.5,2.8,18.7,33.3,12.6,43.8,19,8.5,12.8,2.9,19-14.8,12.4-22,18.7a123.67,123.67,0,0,0-17.3,18.9c-4.8,6.3-9.1,12.5-1.2,18.7s28.1,12.6,36.3,19,4.5,12.8,38.3,18.8,104.9,11.8,110,17.8-56,12.4-98.6,18.7-66.8,12.4-60,18.7,44.8,12.7,48,18.9-28.3,12.5-43.7,18.7-14.7,12.6-11.3,19,9.6,12.7,14.7,19,9.2,12.5,6.5,18.7-12.2,12.6-20.9,18.9-16.7,12.5-13.7,18.7,16.9,12.6,19.3,19-6.8,12.8-14.4,18.8-13.5,11.7-14.4,17.8,3.4,12.5,10.8,18.7,18,12.4,18,18.7-10.5,12.6-10.7,18.9,9.9,12.4,11.8,18.7-4.3,12.6-16.2,19-29.4,12.7-31.5,19,11.2,12.4,17.9,15.5l6.7,3.1h-13.7l-6.4-3.1c-6.5-3.1-19.3-9.3-16.7-15.5s20.7-12.6,32.7-19,17.9-12.8,15.4-19-13.4-12.4-14-18.7,9.3-12.6,10.1-18.9-7.6-12.4-14-18.7-10.8-12.7-9.3-18.7,9-11.8,17.1-17.8,16.9-12.4,14.3-18.8-16.8-12.7-19.4-19,6.3-12.5,12.7-18.7,10.1-12.6,11.4-18.9,0-12.5-3.5-18.7-9.3-12.6-11.9-19-1.8-12.7,14.1-19,47-12.5,43.9-18.7-40.5-12.6-46.9-18.9,18.3-12.4,61-18.7,103.5-12.7,97-18.7-80.2-11.7-113.4-17.8-25.7-12.4-32.3-18.8-27.3-12.8-35.9-19-5.1-12.5-.4-18.7a117.25,117.25,0,0,1,17.6-18.9c7.2-6.3,15.6-12.5,21.2-18.7s8.4-12.6-1.4-19-32-12.8-42.1-19-8-12.4-4.4-18.7,8.9-12.6,8.5-18.9-6.5-12.4-4.7-18.7,11.5-12.6,19.7-18.7,15.1-11.7,23.9-17.8,19.7-12.4,25.2-15.6l5.5-3.2Z" transform="translate(3.25)"/><path id="environment-stream" class="cls-17" d="M330.86,200.1h1.8l-4,3.2c-4,3.2-12,9.5-18.3,15.6s-11,11.8-16.4,17.8-11.6,12.5-13.6,18.7.1,12.4-2.2,18.7-9,12.6-13.9,18.9-8,12.5,2.2,18.7,33.9,12.6,44.5,19,8.2,12.7,2.8,19-13.9,12.4-21.3,18.7a169.73,169.73,0,0,0-19,18.9c-5.5,6.3-10.1,12.5-2.5,18.7s27.3,12.6,36.3,19,7.2,12.8,41.5,18.8,104.7,11.8,109.4,17.8-56.3,12.4-98.9,18.7S292.16,492.7,299,499s44.7,12.7,48,18.9-27.9,12.5-43.4,18.7-15.2,12.6-11.1,19,11.9,12.8,16.8,19,6.9,12.5,3,18.7-13.7,12.7-22.4,18.9-16.4,12.5-13.3,18.7,16.9,12.7,19,19-7.4,12.8-11.6,18.8-3,11.7-2.5,17.8.4,12.5,5.5,18.7,15.3,12.5,14.8,18.7-11.9,12.6-12.7,18.9,8.9,12.5,10.7,18.7-4.4,12.6-4.8,19,4.9,12.8,2.9,19S286.56,811.9,282,815l-4.6,3.1H270l-6.7-3.1c-6.7-3.1-20-9.3-17.9-15.5s19.6-12.6,31.5-19,18.1-12.7,16.2-19-12-12.5-11.8-18.7S292,730.2,292,723.9s-10.6-12.4-18-18.7-11.7-12.7-10.8-18.7,6.8-11.8,14.4-17.8,16.8-12.4,14.4-18.8-16.3-12.7-19.3-19,5-12.5,13.7-18.7,18.2-12.6,20.9-18.9-1.4-12.5-6.5-18.7-11.3-12.6-14.7-19-4.1-12.8,11.3-19,46.9-12.5,43.7-18.7-41.1-12.6-48-18.9,17.4-12.4,60-18.7,103.7-12.7,98.6-18.7-76.2-11.7-110-17.8-30.1-12.4-38.3-18.8-28.4-12.8-36.3-19-3.6-12.5,1.2-18.7a123.67,123.67,0,0,1,17.3-18.9c7.2-6.3,16.4-12.5,22-18.7s7.6-12.6-2.9-19-33.6-12.7-43.8-19-7.3-12.5-2.8-18.7,10.7-12.7,10.4-18.9-7.2-12.5-5.9-18.7,10.8-12.6,18.2-18.7,12.6-11.7,20.6-17.8,18.7-12.4,24.1-15.6l5.4-3.2Z" transform="translate(3.25)"/><path id="healthcare-stream" class="cls-18" d="M332.76,200.1h1l-2.3,3.2a171.33,171.33,0,0,0-10.2,15.6c-3.4,6-5.7,11.8-12.4,17.8s-18,12.5-20,18.7,5.1,12.4,4.9,18.7-7.7,12.6-11.3,18.9-3.1,12.5,5.2,18.7,24.3,12.6,31.3,19,4.8,12.7-1,19-15.5,12.5-23.4,18.7a141.26,141.26,0,0,0-19.5,18.9c-5.4,6.3-9.9,12.5-2.3,18.7s27.5,12.6,36.7,19,7.8,12.8,42.1,18.8,104.5,11.8,109,17.8S404,474,361.86,480.3s-65.2,12.5-58.3,18.7,43.6,12.6,46.1,18.9-29.3,12.5-44.7,18.7-14.5,12.6-9.9,19,12.9,12.8,17.6,19,5.8,12.5,1.5,18.7-14.1,12.6-22.9,18.9-16.7,12.5-13.6,18.7,17.1,12.6,19.6,19-6.5,12.8-10.4,18.8-2.8,11.8-2.5,17.8-.4,12.5,4.9,18.7,16.5,12.4,16.1,18.7-12.4,12.6-13.6,18.9,8.4,12.5,10.3,18.7-4.1,12.6-4.7,19,4,12.8,2.3,19-9.6,12.4-13.6,15.5l-4,3.1h-4.5l4.6-3.1c4.6-3.1,13.9-9.3,15.9-15.5s-3.3-12.6-2.9-19,6.6-12.8,4.8-19-11.5-12.4-10.7-18.7,12.2-12.6,12.7-18.9-9.7-12.4-14.8-18.7-5-12.7-5.5-18.7-1.7-11.8,2.5-17.8,13.7-12.4,11.6-18.8-15.9-12.8-19-19,4.6-12.5,13.3-18.7,18.5-12.6,22.4-18.9,1.9-12.5-3-18.7-12.7-12.6-16.8-19-4.4-12.8,11.1-19,46.7-12.5,43.4-18.7-41.3-12.7-48-18.9,17.6-12.4,60.3-18.7,103.6-12.7,98.9-18.7-75.1-11.7-109.4-17.8-32.5-12.4-41.5-18.8-28.8-12.7-36.3-19-2.9-12.5,2.5-18.7a178.66,178.66,0,0,1,19-18.9c7.3-6.3,15.9-12.5,21.3-18.7s7.9-12.6-2.8-19-34.3-12.7-44.6-19-7.1-12.4-2.2-18.7,11.6-12.7,13.9-18.9.2-12.4,2.2-18.7,8.2-12.7,13.6-18.7,10.1-11.7,16.4-17.8,14.3-12.4,18.3-15.6l4-3.2Z" transform="translate(3.25)"/><path id="other-stream" class="cls-19" d="M333.76,200.1h1l1.9,3.2c1.8,3.2,5.6,9.5,7.1,15.6s.8,11.8.1,17.8-1.4,12.5-5.3,18.7-11,12.5-15.4,18.7-6.3,12.6-8.5,18.9-5,12.5,1.9,18.7,23.4,12.6,29.7,19,2.2,12.8-3.8,19-14.1,12.5-20.9,18.7a130.72,130.72,0,0,0-16.9,18.9c-4.5,6.3-8.1,12.5-3.2,18.7s18.4,12.6,25.6,19,8.2,12.8,44.5,18.8,107.8,11.8,115,17.8-49.9,12.4-90.2,18.7-63.6,12.4-57.9,18.7,40.4,12.6,40.3,18.9-34.9,12.5-52.1,18.7-16.9,12.6-13,19,11.5,12.7,18.7,19,14,12.4,10.7,18.7-16.9,12.7-28.9,18.9-22.4,12.5-19,18.7,20.5,12.7,25.1,19-3.1,12.8-5.7,18.8.1,11.7,1.5,17.8,1.6,12.5,6.7,18.7,14.9,12.4,14.8,18.7-10.2,12.6-11.7,18.9,5.4,12.5,5.7,18.7-6,12.6-6.2,19,6,12.7,5.9,19-6.3,12.4-9.4,15.5l-3.1,3.1h-36.7l4-3.1c4-3.1,11.9-9.3,13.6-15.5s-2.9-12.6-2.3-19,6.6-12.7,4.7-19-11.5-12.4-10.3-18.7,13.2-12.6,13.6-18.9-10.8-12.4-16.1-18.7-4.6-12.7-4.9-18.7-1.4-11.8,2.5-17.8,12.9-12.4,10.4-18.8-16.5-12.7-19.6-19,4.8-12.5,13.6-18.7,18.6-12.7,22.9-18.9,3.2-12.5-1.5-18.7-13-12.6-17.6-19-5.5-12.7,9.9-19,47.2-12.5,44.7-18.7-39.2-12.7-46.1-18.9,16.2-12.4,58.3-18.7,103.2-12.7,98.7-18.7-74.7-11.7-109-17.8-32.9-12.4-42.1-18.8-29.1-12.8-36.7-19-3.1-12.5,2.3-18.7a141.26,141.26,0,0,1,19.5-18.9c7.9-6.3,17.5-12.5,23.4-18.7s8-12.6,1-19-23-12.7-31.3-19-8.7-12.4-5.2-18.7,11.1-12.6,11.3-18.9-7-12.4-4.9-18.7,13.3-12.7,20-18.7,9-11.7,12.4-17.8a171.33,171.33,0,0,1,10.2-15.6l2.3-3.2Z" transform="translate(3.25)"/><g id="annotations"><rect class="cls-20" x="334.01" y="275.4" width="65.52" height="41.5"/><rect class="cls-21" x="91.11" y="351.62" width="79.6" height="31.01"/><rect class="cls-5" x="177.71" y="512.8" width="133.4" height="14.8"/><text class="cls-22" transform="translate(178.95 520.31)">Immig<tspan class="cls-23" x="28.29" y="0">r</tspan><tspan x="31.47" y="0">ant family sepa</tspan><tspan class="cls-23" x="99.41" y="0">r</tspan><tspan x="102.6" y="0">ation</tspan></text><rect class="cls-5" x="257.61" y="791" width="35.6" height="22.8"/><text class="cls-22" transform="translate(259.91 798.49)">Climate </text><text class="cls-22" transform="translate(262.76 810.49)">Strike</text><rect class="cls-5" x="213.11" y="749.7" width="53.7" height="22.8"/><text class="cls-22" transform="translate(226.94 757.21)"><tspan class="cls-24">F</tspan><tspan x="5.36" y="0">amily </tspan></text><text class="cls-22" transform="translate(213.48 769.21)">sepa<tspan class="cls-23" x="21.5" y="0">r</tspan><tspan x="24.69" y="0">ation</tspan></text><rect class="cls-5" x="247.27" y="293.19" width="26.4" height="88.8" transform="translate(-78.43 592.05) rotate(-88.99)"/><rect class="cls-5" x="178.81" y="704.9" width="50.4" height="26.4"/><text class="cls-25" transform="translate(196.74 710.88)">State </text><text class="cls-25" transform="translate(189.09 720.48)">abo<tspan class="cls-26" x="13.4" y="0">r</tspan><tspan x="16.3" y="0" xml:space="preserve">tion     </tspan></text><text class="cls-25" transform="translate(183.92 730.08)">restrictions</text><rect class="cls-5" x="175.21" y="203.4" width="51.1" height="26.8"/><text class="cls-22" transform="translate(186.64 209.91)"><tspan class="cls-27">W</tspan><tspan x="8.72" y="0">ome</tspan><tspan class="cls-28" x="28.49" y="0">n</tspan><tspan class="cls-29" x="33.61" y="0">’</tspan><tspan x="35.06" y="0">s </tspan></text><text class="cls-22" transform="translate(177.26 220.91)">Ma<tspan class="cls-30" x="14.17" y="0">r</tspan><tspan x="17.46" y="0">ch</tspan></text><text class="cls-31" transform="translate(204.85 422)"><tspan class="cls-32">W</tspan><tspan x="7.85" y="0">ome</tspan><tspan class="cls-33" x="25.64" y="0">n</tspan><tspan class="cls-34" x="30.25" y="0">’</tspan><tspan x="31.55" y="0">s </tspan></text><text class="cls-31" transform="translate(198.01 431.45)">Ma<tspan class="cls-35" x="12.75" y="0">r</tspan><tspan x="15.71" y="0">ch</tspan></text><rect class="cls-5" x="191.92" y="643.71" width="44.5" height="30.1" transform="translate(-405.53 355.83) rotate(-46.06)"/><text class="cls-25" transform="translate(201.55 656.25) rotate(-32.17)"><tspan class="cls-27">W</tspan><tspan x="6.98" y="0">ome</tspan><tspan class="cls-28" x="22.79" y="0">n</tspan><tspan class="cls-29" x="26.89" y="0">’</tspan><tspan x="28.05" y="0">s </tspan></text><text class="cls-25" transform="translate(206.75 664.73) rotate(-32.17)">Ma<tspan class="cls-30" x="11.34" y="0">r</tspan><tspan x="13.97" y="0">ch</tspan></text><rect class="cls-5" x="295.01" y="245.8" width="44.5" height="35.1"/><text class="cls-22" transform="translate(299.02 253.35)">Ma<tspan class="cls-30" x="14.17" y="0">r</tspan><tspan x="17.46" y="0" xml:space="preserve">ch for  </tspan></text><text class="cls-22" transform="translate(296.42 265.35)">Science</text><rect class="cls-5" x="330.61" y="280.9" width="66.3" height="41.4"/><text class="cls-36" transform="translate(337.75 287.13)">Affordable </text><text class="cls-36" transform="translate(337.75 299.13)">Care Act </text><text class="cls-36" transform="translate(337.75 311.13)">repeal effo<tspan class="cls-26" x="47.88" y="0">r</tspan><tspan x="51.5" y="0">ts</tspan></text><rect class="cls-37" x="330.95" y="674.1" width="49" height="27.3"/><text class="cls-36" transform="translate(335.15 685.58)">Climate </text><text class="cls-36" transform="translate(335.15 697.58)">Strike</text><rect class="cls-5" x="206.81" y="230.2" width="28.9" height="22.9"/><text class="cls-38" transform="translate(217.4 237.75)"><tspan class="cls-39">T</tspan><tspan x="5.42" y="0">ax </tspan></text><text class="cls-38" transform="translate(207.48 249.75)">Ma<tspan class="cls-30" x="14.17" y="0">r</tspan><tspan x="17.46" y="0">ch</tspan></text><rect class="cls-5" x="205.13" y="598.22" width="58.4" height="22.9" transform="translate(-0.5 1.46) rotate(-0.35)"/><text class="cls-40" transform="translate(232.24 607.52) rotate(0.35)">#P<tspan class="cls-41" x="11.22" y="0">r</tspan><tspan x="14.18" y="0">otect</tspan></text><text class="cls-40" transform="translate(223.37 617.52) rotate(0.35)"><tspan xml:space="preserve">  Mueller</tspan></text><rect class="cls-5" x="237.34" y="222.14" width="63.3" height="13.8" transform="translate(-81.01 223.47) rotate(-39.51)"/><text class="cls-22" transform="matrix(0.85, -0.53, 0.53, 0.85, 253.26, 238.18)">Muslim bans</text><rect class="cls-5" x="170.71" y="453.8" width="175.8" height="55.2"/><text class="cls-22" transform="translate(191.04 461.25)">Ma<tspan class="cls-30" x="14.17" y="0">r</tspan><tspan x="17.46" y="0">ch </tspan><tspan class="cls-42" x="30.68" y="0">F</tspan><tspan x="36.1" y="0">or Our Lives and National </tspan></text><text class="cls-22" transform="translate(231.68 473.25)">School <tspan class="cls-43" x="32.98" y="0">W</tspan><tspan x="41.69" y="0">alkout</tspan></text><rect class="cls-5" x="270.11" y="384.8" width="34.4" height="19.8"/><text class="cls-44" transform="translate(283.21 391.57)"><tspan class="cls-39">T</tspan><tspan x="4.87" y="0">ax </tspan></text><text class="cls-44" transform="translate(274.81 402.37)">reform</text><rect class="cls-5" x="77.91" y="568.8" width="71.9" height="52.5"/><rect class="cls-45" x="71.19" y="566.2" width="82.62" height="52.3"/><rect class="cls-8" x="72.5" y="568.37" width="75.06" height="11.13" transform="translate(223.31 1147.87) rotate(-180)"/><text class="cls-46" transform="translate(79.3 577.35)">Supreme Cou<tspan class="cls-26" x="60.77" y="0">r</tspan><tspan x="64.66" y="0">t,</tspan></text><text class="cls-47" transform="translate(79.96 589.35)">wome<tspan class="cls-48" x="27.07" y="0">n</tspan><tspan class="cls-49" x="32.08" y="0">’</tspan><tspan x="33.24" y="0">s rights:</tspan></text><text class="cls-50" transform="translate(97.88 601.35)">K<tspan class="cls-51" x="6.27" y="0">av</tspan><tspan x="16.41" y="0">anaugh </tspan></text><text class="cls-50" transform="translate(99.5 613.35)">nomination</text><rect class="cls-5" x="204.51" y="316.16" width="19.8" height="68.1" transform="translate(-189.14 294.24) rotate(-50.69)"/><text class="cls-52" transform="matrix(0.75, 0.66, -0.66, 0.75, 198.79, 332.34)">Defend DACA</text><path class="cls-53" d="M171.56,587.7c-7.4-.9-12.1-2.4-12.1-4,0-2,7.2-3.7,17.8-4.6,4.9-.4,10.5-.6,16.5-.6,18.9,0,34.2,2.4,34.2,5.3" transform="translate(3.25)"/><line class="cls-53" x1="154.81" y1="583.8" x2="162.81" y2="583.8"/><path class="cls-53" d="M199.52,367.6c-2.18,0-6.6-2.4-6.6-4,0-1.94,3.34-2.76,6.3-3.6a37.59,37.59,0,0,1,6.91-.6c9,0,11.22,1.94,9.68,4.51" transform="translate(3.25)"/><line class="cls-53" x1="170.71" y1="363.5" x2="196.17" y2="363.5"/><path class="cls-53" d="M281.56,295a4.59,4.59,0,0,1,1.3,2.6c0,1.9-6.3,3.4-12.9,3.4s-10.9-1.5-10.9-3.4c0-1,1.2-2,3.4-2.6" transform="translate(3.25)"/><line class="cls-53" x1="334.21" y1="297.6" x2="286.01" y2="297.6"/><path class="cls-53" d="M281.46,688.3a4.08,4.08,0,0,1,1.3,2.5c0,1.9-6.3,3.4-12.9,3.4-4.8,0-8.9-1.5-8.9-3.4,0-1-.1-2.2,2.1-2.8" transform="translate(3.25)"/><line class="cls-53" x1="330.81" y1="690.8" x2="285.91" y2="690.8"/><text class="cls-54" transform="translate(219.16 330.4)">Unite the Right</text><text class="cls-54" transform="translate(238.11 341.37)">(Charlottesville)</text><text class="cls-54" transform="translate(99.31 364.09)">St. Louis police <tspan x="30.91" y="12">p</tspan><tspan class="cls-55" x="36.52" y="12">r</tspan><tspan x="39.81" y="12">otests</tspan></text></g></g><g id="legend"><text class="cls-56" transform="translate(126.98 170.38)">Click on a color or stream <tspan class="cls-41" x="185.64" y="0">t</tspan><tspan x="190.71" y="0">o see more detail.</tspan></text><rect id="police-legend" class="cls-57" x="91.11" y="114.49" width="57.52" height="23.38"/><text class="cls-44" transform="translate(107.57 128.22)"><tspan class="cls-58">P</tspan><tspan x="5.62" y="0">olice</tspan></text><rect id="executive-legend" class="cls-12" x="168.18" y="114.49" width="57.52" height="23.38"/><text class="cls-40" transform="translate(177.81 123.41)">Executive<tspan x="5.41" y="10.8">b</tspan><tspan class="cls-23" x="10.46" y="10.8">r</tspan><tspan x="13.33" y="10.8">anch</tspan></text><rect id="guns-legend" class="cls-14" x="245.26" y="114.49" width="57.52" height="23.38"/><text class="cls-44" transform="translate(263.66 128.22)">Guns</text><rect id="healthcare-legend" class="cls-18" x="398.08" y="114.49" width="57.52" height="23.38"/><text class="cls-44" transform="translate(405.04 128.22)">Healthcare</text><rect id="collective-bargaining-legend" class="cls-16" x="322.78" y="114.49" width="57.52" height="23.38"/><text class="cls-59" transform="translate(331.99 122.83)">Collective <tspan x="-1.6" y="10.8">bargaining</tspan></text><rect id="education-legend" class="cls-11" x="126.51" y="82.17" width="57.52" height="23.38"/><text class="cls-44" transform="translate(135.27 96.49)">Education</text><rect id="environment-legend" class="cls-17" x="370.77" y="82.17" width="57.52" height="23.38"/><text class="cls-44" transform="translate(374.41 96.49)">Envi<tspan class="cls-41" x="16.62" y="0">r</tspan><tspan x="19.58" y="0">onment</tspan></text><rect id="immigration-legend" class="cls-13" x="203.48" y="83.13" width="57.52" height="21.45"/><text class="cls-44" transform="translate(208.02 95.9)">Immig<tspan class="cls-23" x="25.46" y="0">r</tspan><tspan x="28.33" y="0">ation</tspan></text><rect id="other-legend" class="cls-19" x="446.75" y="82.17" width="57.52" height="23.38"/><text class="cls-44" transform="translate(464.55 95.9)">Other</text><rect id="race-confed-legend" class="cls-15" x="277.7" y="82.19" width="77.33" height="23.38"/><text class="cls-60" transform="translate(284.87 91.38)">Racial justice or <tspan x="-2.33" y="10.8">white supremacy</tspan></text><rect id="women-legend" class="cls-9" x="50.39" y="82.17" width="57.52" height="23.38"/><text class="cls-59" transform="translate(61.05 91.32)"><tspan class="cls-27">W</tspan><tspan x="7.85" y="0">ome</tspan><tspan class="cls-28" x="25.64" y="0">n</tspan><tspan class="cls-29" x="30.25" y="0">’</tspan><tspan x="31.56" y="0">s </tspan><tspan x="6.69" y="10.8">rights</tspan></text><text class="cls-22" transform="translate(30.39 193.21)">P<tspan class="cls-41" x="6.31" y="0">r</tspan><tspan x="9.59" y="0">otests per month</tspan></text><text class="cls-22" transform="translate(30.39 832.81)">P<tspan class="cls-41" x="6.31" y="0">r</tspan><tspan x="9.59" y="0">otests per month</tspan></text></g></g><g id="title"><text class="cls-61" transform="translate(116.71 50.5)">When Americans P<tspan class="cls-41" x="168.4" y="0">r</tspan><tspan x="174.97" y="0">otested About...</tspan></text><text x="3.25"/></g></svg>