<?xml version="1.0" encoding="utf-8"?>
<!-- Generator: Adobe Illustrator 23.1.1, SVG Export Plug-In . SVG Version: 6.00 Build 0)  -->
<svg version="1.1" xmlns="http://www.w3.org/2000/svg" xmlns:xlink="http://www.w3.org/1999/xlink" x="0px" y="0px"
	 viewBox="0 0 424.5 342" style="enable-background:new 0 0 424.5 342;" xml:space="preserve">
<style type="text/css">
	.st0{fill:#707589;}
	.st1{fill:none;stroke:#FFFFFF;stroke-width:1.07;stroke-linejoin:round;stroke-miterlimit:10;}
	.st2{opacity:0.369;fill:none;stroke:#FFFFFF;stroke-width:1.07;stroke-linejoin:round;stroke-miterlimit:10;}
	.st3{opacity:0.102;fill:none;stroke:#FFFFFF;stroke-width:1.07;stroke-linejoin:round;stroke-miterlimit:10;}
	.st4{opacity:0.278;fill:none;stroke:#FFFFFF;stroke-width:1.07;stroke-linejoin:round;stroke-miterlimit:10;}
	.st5{opacity:0.729;fill:none;stroke:#FFFFFF;stroke-width:1.07;stroke-linejoin:round;stroke-miterlimit:10;}
	.st6{opacity:0.188;fill:none;stroke:#FFFFFF;stroke-width:1.07;stroke-linejoin:round;stroke-miterlimit:10;}
	.st7{opacity:0.459;fill:none;stroke:#FFFFFF;stroke-width:1.07;stroke-linejoin:round;stroke-miterlimit:10;}
	.st8{opacity:0.549;fill:none;stroke:#FFFFFF;stroke-width:1.07;stroke-linejoin:round;stroke-miterlimit:10;}
	.st9{fill:#FFFFFF;}
	.st10{font-family:'MyriadPro-Regular';}
	.st11{font-size:1.57px;}
</style>
<g id="map">
	<path class="st0" d="M69.4,277.2c0.8,1.4,0.6,2.2-1.1,2.8c-1.1,0.4-2.1,1.3-3.1,1.9c-0.6,0.4-1.3,0.6-2.1,1c0.3-2.7,0-5.2,2.5-6.8
		c-1.6,0.1-2.3,0.8-3.3,2.7c-0.7,1.3-1.7,2.5-2.6,4c0.2,0.2,0.7,0.5,1.4,1.1c-4.2,4.5-8.7,8.4-14.2,11.4c-0.6-0.7-1.5-0.5-2.8,0.2
		c-1.5,0.9-3.5,1.2-5.2,1.7c-0.1-0.3-0.3-0.5-0.4-0.8c0.8-0.5,1.7-0.9,2.5-1.4c0.8-0.4,1.7-0.8,2.6-1.2c0.6-0.3,1-1,1.6-1
		c2.9-0.3,4.8-2.2,6.6-4.1c1-1.1,1.4-2.6,2.4-4.5c-1.5,0.2-2.3,0.3-3.5,0.4c-1.2-1.4-1.3-2-4.6-0.6c0-1.6,0-3.1,0-4.7
		c-3.4,0.6-4.2-0.2-4.6-3.6c-0.2-1.4-1.5-2.7-0.2-4.3c0.8-0.9,1.3-2.1,2.2-2.8c0.5-0.4,1.6-0.3,2.4-0.1c1.1-0.5,2.6-0.7,3.2-1.5
		c0.6-0.7,0.2-2.2,0.3-3.1c-1.6,0-3.4,0-5.2,0c-1.4,0-2.3-0.6-2.5-2.2c-0.1-0.9-0.8-1.7-1.4-2.8c1.9-0.7,3.8-1.5,6-2.4
		c0.2,2.3,1.3,2.8,3.3,2.1c-1.6-2.3-3.2-4.5-4.6-6.7c-0.3-0.5-0.7-1.3-0.5-1.7c0.3-0.5,1.1-0.8,1.7-1.1c0.7-0.3,1.9-0.3,2.1-0.7
		c0.9-2.2,2.6-3.2,4.5-4.1c1.3-0.6,2.7-1.1,4.6-1.8c1.3,0.6,3,1.9,4.9,2.3c2.8,0.6,5.8,0.9,8.7,0.7c2.2-0.1,4,0.5,4.5,2.8
		c1.9,9.4,3.8,18.8,5.7,28.5c0.9-0.2,1.8-0.5,2.4-0.6c1.5,1.2,2.9,2.3,4.3,3.3c0.9-1.1,1.7-2.9,2.5-2.9c1.1,0,2.2,1.3,3.2,2.1
		c1.1,0.8,2.2,1.6,3.1,2.6c1.6,1.7,3.2,3.3,5.8,3.6c1.6,0.2,2.2,2.7,1.3,4.8c-0.8,0.2-2.5-2-2.6,0.8c0,0-1.8,0.4-2.3,0
		c-1.4-1.3-2.5-2.8-3.8-4.4c-0.2,0.6-0.3,0.9-0.4,1.5c-1.2-1.3-2.1-2.6-3.3-3.5c-2.1-1.6-4.3-3.1-6.5-4.5c-2.5-1.5-5.3-1.4-8.2-1.2
		c-1.5,0.1-3.1-1-4.7-1.6c-0.7-0.2-1.5-0.3-2.3-0.5C69.5,276.8,69.4,277,69.4,277.2z"/>
	<path class="st0" d="M62.1,285c0.2,0.2,0.5,0.3,0.6,0.5c0.7,1.4-1.4,5-2.9,5.1c-0.4,0-1.1-0.4-1.3-0.8c-0.2-0.4-0.2-1.2,0-1.6
		c0.9-1,2-1.9,3-2.8C61.6,285.2,61.8,285.2,62.1,285z"/>
	<path class="st0" d="M38,266.6c-1.9,0.6-4.2-0.7-4.9-2.8C35,264.8,36.3,265.6,38,266.6z"/>
	<path class="st0" d="M37.6,276.9c0.9,0.2,1.8,0.3,2.7,0.5c-0.1,0.4-0.2,0.9-0.4,1.3c-0.8-0.2-1.7-0.5-2.5-0.7
		C37.5,277.6,37.5,277.2,37.6,276.9z"/>
	<path class="st0" d="M146.2,298c-1-0.2-2.3-0.7-1.7-2.9c0.1-0.5-0.1-1.1-0.4-1.6c-0.7-1.5-1.3-2.8,0.2-4.3c0.6-0.6,0.3-2,0.5-3.2
		c3.9,1.1,7.2,2.9,9.1,7.2C151.8,294.7,149.3,296.1,146.2,298z"/>
	<path class="st0" d="M140.6,283.3c-0.2-0.2-0.6-0.4-0.9-0.7c-0.5-0.5-1-1.1-1.5-1.7c-0.2-0.3-0.3-0.8-0.4-1.2
		c0.4-0.1,0.9-0.3,1.3-0.2c1.1,0.2,2.2,0.5,3.2,0.9c0.5,0.2,0.8,0.9,1.2,1.3c-0.5,0.4-1,0.8-1.5,1.1
		C141.7,283,141.2,283.1,140.6,283.3z"/>
	<path class="st0" d="M115.7,269.4c-1,0.7-1.7,1.6-2.3,1.5c-0.8-0.1-1.6-0.9-2.4-1.5c1-0.6,1.9-1.3,3-1.7
		C114.2,267.7,114.8,268.7,115.7,269.4z"/>
	<path class="st0" d="M127.1,272.6c0.1,1.3,0.4,2.3,0.2,3.2c0,0.3-1.3,0.8-1.5,0.6c-0.7-0.6-1.3-1.4-2-2.3
		C125,273.6,125.7,273.3,127.1,272.6z"/>
	<path class="st0" d="M179.4,262.6c0.5-0.4-0.2,1.2,0.8,0.9c-0.1,0.1-0.1,1.4,0.3,0.3c1,1.9,3.9,3.5,5,7c0.2,5.5,7.8,9.6,7.7,14.8
		c1.6,6,6,11.9,13.8,11.8c1,0.1,1.7,1.3,3.6,1.2l-0.1,0c1,0.7,2.2-1.9,1.6-0.6c-0.2-0.1-0.1-0.4-0.6,0.1c-0.4-2.4-2.6-5.3-1.8-11.4
		c-1.2,1.3-3.9-4-0.9-0.5l-0.1-0.3c0.6-0.2,1.7-1.3,0.5,0.2c0.9,0.7,2-1.9,2.2-3.5c-0.8,0.9-0.5-0.2-0.9-1.3
		c-0.1,0.1-0.7,0.4-1.2-0.4c1.1-0.6,5.2,2.4,2.5-1.8c0.1,0.1,1-0.4,0.4-0.8c1.3,1.1,2.8-2.3,2.2,0.4c1.7,0,0.3-3,1.2-2.3
		c-2.2-1.1,5.6,1,1.7-0.8c0.1-0.2-0.2-0.1,0.6-0.5c-0.4-0.8-1.2,0.2-1.2-1.6c0.1,0.3,0.6-0.5,0.7,0.5l0.3-0.2c0-0.2,0.2,1.3,0.5,0.2
		c-0.1-0.1,0.4,0.4-0.2,0.7c0.3,0.2-0.1,0.1,0.8-0.3c0.3,0.2-0.8-0.7-0.1-1c-0.1,0.3,0.6,1.6,1,0c0,0.1,0,0,0.1,0.4
		c0.1,0,0.1-0.1,0.5-0.6c0,0.2,0-0.1-0.2,1.1c-0.1-0.1,1.1,0.2-0.1,0.2c3.5-0.5,5.2-2.3-1,1.8c1.3-0.8,6.7-2.8,9.8-6.1
		c-2-0.5,3,0,1.3-5.9l-0.1,0.1c5.8-1.4-0.9,0.8,3.9,1.7c-5.2,3.1,3.3-1.8,7.6-2.2c2.3-1.5,11.2,4.6,11.4,0.5
		c1.5-5.5,7.3,7.2,12.5,3.8c-0.3-3.2,4.5,5.4,4.1-2.6c1.5-0.2,1.3,2,3,1.4c2.4,1.7,3.7,4,4.8,1.2c0.6-1.1-4.3-0.9-4.6-3.9
		c1.5-1.2,3.2-2.2,3.2-4.4c0.4-1.8-7.2,4-4.2,0.6c0-0.3,0.7-1.8-0.2-0.7c-0.1-0.1-0.1,0-0.1-0.4c-1.7,2.6-10.1-0.2-2.5-1.4
		c1.3,0.7,3.9,2.4,5.6-0.1c2.5-2.4,10.1,2.1,10.2-4.9c2.9,2.8-1.7,7.8,4.5,3.4c-1.3,1.5,3-0.2,1.9-2c0.9,1,3.6-0.3,0.3,1.9
		c1.6-1.1,12.6-2.1,5.2-1c0.6-0.2,7,2.9,5.9,1.1c-1,0.7-0.8-1,0.8-0.1c-0.1,0.2,0.1,0.2-0.3,0.6c-0.7,0.8,2-0.4,3.4,4.1
		c-0.5,0.2-0.5,0-0.6-1.6c-1.5,2.9,2.7,1.3,4.2,0.5c-1.3,1,5.7-2.1,3.4-2c0.3-0.3,0.5-0.6,1.1-1.3c1-2,14.2,7.9,14.5,11.3
		c0.3,2-2.4,8.9,1.1,8.6c-2.3-5.7,1.2,0,1.1-1.6c2.5-1.4-2.2,4.3-0.4,4.4c1.1,1,1.7,5.3,4.3,5.1c-1.7-1.6,1.1-1.7,0.4-1.1
		c0.6,3.1,0.8,3.1,4.6,8.7c0.1-1.1,11.2,7.4,4.9,5c0.1,2.9,4.5-0.1,6.2-0.1c0.8-1.7,0.2-3.9,1.5-6c1.6-11.8-13-29.4-17.3-42.2
		c0.1,0.4,1.2-6,0.3-3c-1.6-1.9,1,0.1-0.2-2.7c0.8,0,0.6-0.9,1.4-0.9c0.8-0.9-1.4-1.7,0.5-1.6c0.3-0.6,0.1-1-0.5-1.5
		c1.4-1.9,3.9-3.7,2-6.9c2.2,2.1,1.6,0.4,2.8-0.9l0,0.1c0.3-0.4,1.8,0.2,1.6-1.2c-0.4,0.7,7.6-5,6.2-8.1c0.8,2.2,1.1-4.1,4.9-5.3
		c0.8-1.4,4.2,0.4,3.9-2.7c0.3,3.3,3.1-8.4,3.7-5.8c-1,1.4,2.4,0.2,1.1-1.4c0.2,1.1,3.4,0,3-0.4c0.2-0.5,0.3-0.5,1,0.1
		c0.2-0.3,0.8-0.1,2-2c0.3-0.2-1.5-1.5-1.4-0.5c-1.5-0.4,0.6,0.9-1.2,0.4c0.1,0,0.6,0.6,0,0.5c-0.4-1.2-0.2,1.4-3.4-1.1
		c-0.4-2.1,3.3,3.7,3.6-2.1c1.7-0.4-1.4-1-2.1-0.8c-3.5-1.9,1.2,0.5,1.4-1.3c-1.2-0.4,0.2-0.6,1-0.8c-1.4,1.9,0.2,0.9,1.6,1.6
		c1.3-0.3,1.7-0.8,2.5-2.9c1.1,1.1,0.5-0.8,1-1c-0.5-0.7,0.2-1.5-1.5-2.2c0.2,0.2-0.4,0.1-0.1,0.6c-1.5-0.6,0.6,3.6-1.6,2.2
		c0.9,0.3,0.6-1.5,0.2-2.3c-0.8-1.9-5.3,4.7-5.6-2.7c0.5-0.1,1.2,4.9,2.4,2c1.1-0.3,0.6-1.4,2-0.7c0.8-0.6,0.8-0.5-0.4-1.4
		c0.8-0.4,2.4,1.6,1.4-0.4c0.7-0.1,0.6,1.1,1.6,1.6c0.1-1.2-4.5-5.1-1.7-3.5c0.1,0-1-2.6,0.2-0.6c-1.2-0.6,6.4,10.3,2.7,4.5
		c-1.9-1.4-2.8-10.6-7.4-6.5c-0.1-1.9-5.1-2.1-3.5-3.4c1.3,0.5,2.7,2.5,4.6,1.9c0-0.1,0.2-1-0.5-0.6l0-0.1l0,0
		c0.6-0.7-4.2-1.5-3.8-3.2c3.1,3.7,1.9-0.2,3.9,1.1c-0.2-2.6-2.1-1.1-5.9-5.5c3.9,4.3,8.3,1.8,1.9-1.1c-1.1-0.2-2.6-0.3-3.4-2
		c-0.5-1.5,1.4,0.9,4.5,1.4c2.4,1,0.4-0.9-1.9-2.8c4.3,2,0.3,0.8,0.3-4.8c1,0,0.3-1.1-1.2-2.2c1.3-0.1,0.9,0.1,1.8-0.9
		c-0.6-1,0.9,0,0.8-1c1.2-0.1-0.3-1.5,1.4-1.9c0.1,0-0.1,0.4,0,1c0.6-1.2,1.2,0.6-0.9,1.6c-0.7,2.4,1.7,2.8-0.2,5.5
		c0.7-0.5,0.8,0.7,1.6-0.3c0.9,2.6-0.5-0.1-0.7,1.9c2-0.5-2.4,0.4,2,2.5c0-2.3,0.4,1.1,0.9-1.1c0.5,0.4,0.4,3.9,1.8,3.2
		c1.3-0.9-0.3,1.8-0.4,3.2c-0.7,0.6-0.5,7.8,0.8,2.1c0.5-6.2,5.4-5.7,2-11.9c0,0,1.3-0.2,0.3-0.6c0,0,0.3,0,0.2-0.4
		c2.9,1.9-6.4-5.9-4.5-8.3c-0.2,4.1,5.8,2.2,5.5,5.9c1.7-3.5,3.9-6.4,3.7-11.1c0.3,0.2,0.2,0.9,0.5,2.3c-0.1-1.2,0.6-4.4-0.8-6.3
		c0,0.2-0.1,0.1,0.1,0.6c-0.3-0.2-1.2,0.2-2-0.3c1.7-0.6,0.4-2.4,1.7-4.2l0.3,0.8c-0.1-0.1-0.1,0-0.2-0.3l0.7,0.2
		c-0.5-0.7,0.7-0.8,0.6-2.1c1.3,0.3,4-3.6,4.8-3.1c0.8-0.7,3.2-0.2,3.4-1.5c1.1,0.6,1.3-0.3,3.4-0.9l0,0.3c0.5-0.3,1.1-0.4,2.2-1.6
		c0.1,1.1,0.6-4.7,0.9-0.6c0.7,1.2,0.6-1.5,1-0.3c0.1,0,0.3-0.4,0.6-0.9c-0.1,0.1,0.7,0.7,0.6,0c0.5,0.4,2-5.2,2.2-0.7
		c2.3-0.5,7.6-5,1.8-5c4.7,0.1-1.1,5.9-2.5,0.8c-0.4-0.7-1-1.5-2.5-2c0.4,1.4-1.9,0-0.9-0.6c2.7-5.6,0.4,1.2,0.2-6.7
		c1.7-0.6,0.8-7.3,3.3-7.7c1.1-1.4-0.2,2.5,2.1-1.6c1.5,1.1,0.1-0.9,2.2-1.2c0,3.5,1.6-9.1,1.8-4.4c0.2,0.2,0.4-0.9,0.8,0.1
		c0.1,0.1-1-0.3-0.5,0.4c-0.9,0.1,0.9,0.6,1.1,0.4c0.6,0.2,0.8-0.1,0.1-1.1c0.3-0.2,0.5-0.3,0.6-1.1c0.1,0.5,0.9,1.1,0.9-0.4
		c0.6,0.4,1.2-0.8,1.9,1.1c0.2-0.3,0.3-0.6,0.2-1.5c0.4,0.8,0.9,0.3,0.7-0.9c0.4-0.2,2,0.7,1.6-1.1c0,0.1,0.1-0.1,0.5,0.1
		c-0.1,0.2,0.3-1.1,0.3-0.1c0.5,0.3,0-2,0.8-0.6c0.6,0,1.2-1,1.4-2.2c-2.5,0.6,0.8-2-2.5-2.7c-1.6,2-0.7-3.1-3.9-3.4
		c-3.1-1.4-0.4-11.3-6.8-13.4c-7.4,6.9-5.7-9-9.7,11c-1.6,5.3,0.7,10.1-6,12.4c1.4,7.6-25.8-0.9-28,17.4l-0.3,0.4
		c0,2,2.2,3.1-3.8,7.4c-0.2-0.2-2.8-0.4-3.7,0.9c-1.3-1.2-12.4-1.1-9.1,4.1c2.6,0.7-1.8,5.3-6.5,8.6c-0.1,0,0.2-0.1,0.1-0.4
		c-9.3,5.6-9.7,10.4-22.5,7.6c0.2,0.3,3.9-12.9,4.9-8.8c1.3-3-0.8-21.7-8.4-8.3c-4.8-2.9,2.4-1.9,1.5-13.4
		c-10.4-8.8-11.3-6.4-14.9,3.9c-0.6-0.8,0.1-2.5,0.1-3.9c-2.7,2.7-5,6.6-5,11.9c-1.2,5.5,5.9,8.1,0.5,18.3c-9.6,12.6-11.8-17-5.8-28
		c1.1-0.5,0.6-4-0.3-0.9c-0.8-0.1-1.2,1.6-1.4,3.1c-1.4-1.2-1.8,1.7-4,3.2c-1,1,6.7-16.2,6-11.1c5-4.8-0.8,2.8,3.9-1.1
		c1.6-4,10.3-2.2,15.6-3.2c-3.6-6.8-8.9-0.6-7.4-6.3c-6.6,0.4-12.9,7.3-17.7,1c-2.3-0.7-2.6-1.9-4.7,1c-0.3-0.4,0.3-1.2,0-2.2
		c1.2-0.5,1.5-3.2,4-3.9c-4.4-1.7-12.4,10.1-19.7,8.3c3.5-6.9-3.8,1.1-7.6-1c1.8-2.3,9.6-9.4,16.2-12c-7.8-1.2-14.2,0.2-20.2-3.2
		c1.3-3.4-7.7,1.5-12.4-3.3c-0.4-1.4,0.1-5.1-2.9-4.7c-47.6,10.3-114.5-7.7-168.4-20l0,0.2c-1.2,0.3,0.9,2.1,0.7,2.5
		c0.2,0.3,0.2,2.5-1,2c0.2-1.1-1.4,0.4,0.1,0.3c1,1-0.2,2.9,1.2,3.9c-0.8,0.4-1.4,1.5-2.2,2.8c0.2,0.8-0.1,2.2-0.9,3.6
		c0,0-0.2-0.1-0.6-0.7C58,80.7,56.7,83,56,81.3l-0.1,0.4c-0.1,0.1,0.2-0.2-0.4-0.3c-0.1,0.3,0,0.1-0.2,0.9c-0.5,0.2,0.4-0.8-0.6-0.6
		c0.1,0,0,0,0.6-0.5c-0.2-0.1-0.1-0.2-0.9,0.2c0,0-0.1-0.3,0.6-0.6l-0.6-0.2c0,0.2,0-0.5,0.5-0.3l-0.2,0.2c0.2,0.1,1.2-0.2,1.7-1.1
		c0.3,1.3-1.3,2.5,1.2,0.3c0,0.3-1,0.7,0.1,1.2c-0.3-1.3,2.3-1.6,0.1-2.8c0-0.1-0.2-0.1,0-0.5c0.7,0.8,0.3,0.1,0.6-0.9
		c0-0.2,0.1,0.9,0.6,0c0.3,0.7,1-0.7,0-1.7C59,75,59.2,75.1,59.1,76c0.8-0.6-7.4,3.5-2.6,2.9c-3.7,1.1-0.9-1.2,0.8-3.4l0.2,0.4
		c0-0.1,0.1,0.1,0.2-0.5c0,0.2,0.3,0.2-0.1,0.7c0.7-0.4,1.7-1,1.3-2.8L58.7,74l-0.1-0.3l-0.3,0.2c0.1-1.2,0.4-1.1-0.7,0.1
		c0,0,0.4-0.5-0.3-1c-0.1,0,0.1,0.1-0.3,0.4c-0.6-1.7-4.4-1.6-9.4-6c-1.2,3.7,0.9,7.8-0.1,13.1c0.6-0.6,0.4-0.6,2,0.5
		c0.2,0.3-1.6-0.3-1.7,0.7c-0.2,0,0-0.3-0.4-0.7c-0.4,1.3-0.1,1.6,1.2,2.2c-0.1-0.2-0.4,0.4-1,0.5c-0.1-0.3,0.6,2.2-0.9,2.2
		c-0.3,0.3,0.6-1,0.3-2.4c-0.2,0.2-0.5,1.5-0.8,2.9c0.5,0.5,3.5,0.4,3.7,2.1c-0.6-0.8-1.4,0-2.7-0.8c0,0,0.1,0.1,0.2,0.5
		c-0.4,0.3-0.3-0.8-1.2-0.9c0.6,1.9-1.5,3.6-1.1,6.6c-3.4,8.9-13.5,21.9-11.4,33.7l-0.2-0.1c0.2,1-0.4,1.4-1.1,3.1l-0.2-0.3
		c0.4,3.9-6.2,2.1-1.6,13.4c-3,4.6,1.5,12,1.8,15.1c0.4,0.4-1.6,2.8,0.1,1.4c0,0.5,0.6,0.9,1.2,1.8c1.7,1.5,1.3,1.1,1.9-1.4
		c-0.1,0-0.1,0-0.2-0.2c1,0,1.4,0.1,2.3,1.5c-0.2-0.1,0-0.1-0.7-0.3l0.1,0c-2.1-0.1-0.7,3.4,0.4,5.7c-0.5,0.2-3.3-2.3-2-3
		c-0.1-0.2,0.2-0.6-0.4-0.9c-2.4,2.9-1.1,6.4,2.1,9.8c-5.1,3.9,3.2,11.2,2.8,15.5c4.6,3.8-5.7,6.4,6.6,9.9
		c6.4,5,15.2,11.2,15.3,20.5c-0.6-0.3-0.2-1.1-0.4,0.8c5.4,0.6,11.4,1.3,18.2,2c-4.5,0.7,22.1,19.3,39.7,19.6
		c7.3,2.5,13.1-6.5,22.7-0.1c1.7,4.4,7.1,7.3,10.3,12c1.1,2.2,0,8.8,7.4,12.4c2.9,0.7,2.9,4.5,7.2,0.6c-0.3-0.8,0.8-2,1.2-3.5
		l0.2,0.1c1.6-3.1,5.9-1.2,9.6-0.8C178.7,262.2,178.8,262.8,179.4,262.6z"/>
	<path class="st0" d="M397.1,137c-0.4,0.1-0.4,0-1.2-0.1c-0.2-1-0.3,1.1-1.2,1.1C394.3,138.6,396.9,137.9,397.1,137z"/>
	<path class="st0" d="M400,137.4c-1.8-0.2-0.3,1.1,0.7-0.2c-0.3-0.5-1.3-1-0.5-0.3C400.2,137,400.4,137.2,400,137.4z"/>
	<polygon class="st0" points="375,147.7 374.9,147.5 375,147.4 374.9,147.4 374.8,147.4 374.7,147.8 374.6,148.1 374.5,148.6 
		374.6,148.7 374.7,148.6 374.8,148.4 374.9,148.3 374.9,148.2 374.9,147.9 375,147.8 	"/>
	<polygon class="st0" points="373.2,151 373.5,150.9 373.8,150.7 373.9,150.4 374.1,150.2 374.4,149.8 374.5,149.6 374.1,149.2 
		373.5,149.6 	"/>
	<path class="st0" d="M384.5,144.7l0.2,0.2c-0.1,0,0.1,0.2-0.5,0.3c-0.7-0.8,0.1-1.6,1.4-3.1c-1.8,2.1-6.1,3.1-7.9,4.3
		c0-0.4-1-0.3-0.9,0.7c-0.5-0.8-0.4,1.1-1,0.4c-3.5,3.9,2.3,0.2-0.2,2.3c1.3-0.5,3.3-1.6,4.8-2.7c2.2-0.5,5.5-3.3-0.1,1.1
		c1.9-1.1,12.1-7.6,5.1-4.9C385,143.6,385.1,144.1,384.5,144.7z"/>
	<path class="st0" d="M58,68.7c0,0,0.1,0.2,0.4,0.6c-0.2,0,0,0.2-0.3,0.7C57.5,70.1,57.1,67.2,58,68.7z"/>
	<path class="st0" d="M58.8,70.5c0-0.4-0.6-0.6,0.3-1.2C58.8,69.6,59.7,70.6,58.8,70.5z"/>
	<path class="st0" d="M59.6,68.8c-0.3,0.1,0.1-0.2-0.4-0.7c0,0.1-0.1,0,0,0.8c-0.3,0.2,0-0.5-0.7-0.2c-0.1-0.3,0.3-0.4,0.7-0.9
		C59.3,67.8,60.6,68.3,59.6,68.8z"/>
	<path class="st0" d="M59.1,72.7c0.1-0.1-0.2,0.3,0.5,0.4c-0.9,1.8,3.3,4.8-0.4-0.7c-0.1-0.2,0.3,0.2,0.5-0.4
		c0.2,0.1,0.2,0.1,0.9,0.1c0.2-0.1-0.4-0.5-0.3-0.9C60.3,71,58.6,71.3,59.1,72.7z"/>
</g>
<g id="const">
	<polyline class="st1" points="390.9,129 386,130.8 381.2,132.5 376.3,134.2 371.5,135.9 366.6,137.6 361.7,139.2 356.7,140.8 
		351.8,142.3 346.8,143.8 341.8,145.3 336.8,146.7 331.8,148.1 326.8,149.5 321.8,150.8 316.7,152.1 311.7,153.3 306.6,154.5 
		301.5,155.7 296.4,156.8 291.2,157.9 286.1,159 281,160 275.8,161 270.6,161.9 265.5,162.8 260.3,163.7 255.1,164.5 249.8,165.3 
		244.6,166.1 239.4,166.8 234.1,167.4 228.9,168.1 223.6,168.7 218.4,169.2 213.1,169.7 207.8,170.2 202.5,170.6 197.2,171 
		191.9,171.4 186.5,171.7 181.2,172 175.9,172.2 170.5,172.4 165.2,172.5 159.8,172.6 154.5,172.7 149.1,172.7 143.8,172.7 
		138.4,172.7 133,172.6 127.6,172.4 122.3,172.3 116.9,172.1 111.5,171.8 106.1,171.5 100.7,171.2 95.3,170.8 89.9,170.4 
		84.5,169.9 79.1,169.4 73.7,168.8 68.3,168.2 62.9,167.6 57.5,166.9 52.1,166.2 46.7,165.5 41.3,164.7 35.9,163.8 	"/>
	<polyline class="st2" points="338.5,135.1 333.6,136.6 328.7,138.2 323.8,139.7 318.9,141.2 314,142.6 309,144 304.1,145.4 
		299.1,146.7 294.1,148 289.1,149.2 284.1,150.5 279,151.7 274,152.8 268.9,153.9 263.8,155 258.7,156 253.6,157 248.5,158 
		243.3,158.9 238.2,159.8 233,160.6 227.8,161.4 222.7,162.2 217.5,162.9 212.2,163.6 207,164.3 201.8,164.9 196.6,165.4 191.3,166 
		186,166.5 180.8,166.9 175.5,167.4 170.2,167.7 164.9,168.1 159.6,168.4 154.3,168.6 148.9,168.8 143.6,169 138.3,169.1 
		132.9,169.2 127.6,169.3 122.2,169.3 116.9,169.2 111.5,169.2 106.1,169.1 100.7,168.9 95.4,168.7 90,168.5 84.6,168.2 79.2,167.9 
		73.8,167.5 68.4,167.1 63,166.7 57.6,166.2 52.2,165.7 46.8,165.1 41.3,164.5 35.9,163.8 	"/>
	<polyline class="st1" points="310.3,143.5 305.3,144.9 300.3,146.3 295.3,147.6 290.2,148.9 285.2,150.1 280.1,151.3 275.1,152.5 
		270,153.6 264.9,154.7 259.7,155.7 254.6,156.7 249.5,157.7 244.3,158.6 239.1,159.5 233.9,160.4 228.7,161.2 223.5,162 
		218.3,162.7 213.1,163.4 207.8,164.1 202.6,164.7 197.3,165.3 192,165.9 186.8,166.4 181.5,166.8 176.2,167.2 170.8,167.6 
		165.5,168 160.2,168.3 154.8,168.5 149.5,168.8 144.1,168.9 138.8,169.1 133.4,169.2 128,169.2 122.7,169.2 117.3,169.2 
		111.9,169.1 106.5,169 101.1,168.9 95.7,168.7 90.2,168.5 84.8,168.2 79.4,167.9 74,167.5 68.5,167.1 63.1,166.7 57.7,166.2 
		52.2,165.7 46.8,165.1 41.4,164.5 35.9,163.8 	"/>
	<polyline class="st3" points="46,107.5 48.3,102.7 50.6,97.8 52.9,93 55.2,88.1 57.4,83.3 59.7,78.5 	"/>
	<polyline class="st4" points="277.6,140.9 272.7,142.3 267.7,143.6 262.7,144.9 257.7,146.2 252.7,147.4 247.7,148.6 242.6,149.8 
		237.5,150.9 232.5,151.9 227.4,153 222.3,154 217.1,154.9 212,155.9 206.8,156.7 201.7,157.6 196.5,158.4 191.3,159.1 186.1,159.9 
		180.8,160.6 175.6,161.2 170.3,161.8 165.1,162.4 159.8,162.9 154.5,163.4 149.2,163.9 143.9,164.3 138.6,164.6 133.3,165 
		127.9,165.3 122.6,165.5 117.2,165.7 111.9,165.9 106.5,166 101.1,166.1 95.7,166.1 90.3,166.1 84.9,166.1 79.5,166 74.1,165.9 
		68.6,165.7 63.2,165.5 57.7,165.3 52.3,165 46.8,164.6 41.4,164.2 35.9,163.8 	"/>
	<polyline class="st5" points="241.9,125.1 237.2,126.8 232.4,128.4 227.6,130 222.8,131.6 218,133.2 213.1,134.7 208.2,136.2 
		203.3,137.6 198.4,139 193.4,140.4 188.4,141.7 183.4,143 178.4,144.3 173.4,145.5 168.3,146.7 163.2,147.9 158.1,149 153,150.1 
		147.9,151.1 142.7,152.1 137.5,153.1 132.3,154 127.1,154.9 121.9,155.8 116.6,156.6 111.4,157.3 106.1,158.1 100.8,158.8 
		95.5,159.4 90.1,160 84.8,160.6 79.4,161.1 74,161.6 68.6,162 63.2,162.4 57.8,162.8 52.3,163.1 46.9,163.4 41.4,163.6 35.9,163.8 
			"/>
	<polyline class="st6" points="380.8,141.4 375.3,141.3 369.8,141.2 364.3,141 358.9,140.8 353.4,140.5 347.9,140.2 342.5,139.8 
		337.1,139.4 331.7,139 326.3,138.5 320.9,138 315.5,137.4 310.1,136.8 304.8,136.1 299.5,135.4 294.2,134.7 288.9,133.9 
		283.6,133.1 278.3,132.2 273.1,131.3 267.8,130.4 262.6,129.4 257.4,128.4 252.3,127.3 247.1,126.2 241.9,125.1 	"/>
	<polyline class="st7" points="334.6,158.6 339.5,156.3 344.3,154 349.1,151.6 353.8,149.3 358.6,146.8 363.3,144.4 368,141.9 
		372.6,139.4 377.2,136.8 381.8,134.2 386.4,131.6 390.9,129 	"/>
	<line class="st6" x1="390.3" y1="135.2" x2="390.9" y2="129"/>
	<polyline class="st8" points="264.2,181.9 259,182.3 253.8,182.7 248.6,183 243.4,183.3 238.2,183.6 233,183.8 227.8,183.9 
		222.6,184.1 217.4,184.2 212.2,184.2 207,184.3 201.8,184.3 196.5,184.2 191.3,184.1 186.1,184 180.9,183.8 175.7,183.6 
		170.5,183.4 165.3,183.1 160.1,182.8 154.8,182.4 149.6,182.1 144.4,181.6 139.2,181.1 134,180.6 128.8,180.1 123.6,179.5 
		118.4,178.9 113.2,178.2 108,177.6 102.8,176.8 97.7,176 92.5,175.2 87.3,174.4 82.2,173.5 77,172.6 71.8,171.6 66.7,170.6 
		61.5,169.6 56.4,168.5 51.3,167.4 46.2,166.2 41,165.1 35.9,163.8 	"/>
	<polyline class="st8" points="62,217.6 59.4,212.8 56.9,207.9 54.4,203 51.9,198.1 49.5,193.3 47.2,188.4 44.8,183.5 42.5,178.6 
		40.3,173.7 38.1,168.8 35.9,163.8 	"/>
	<polyline class="st1" points="35.9,163.8 41.4,164.5 46.8,165.1 52.2,165.7 57.7,166.2 63.1,166.7 68.5,167.1 74,167.5 79.4,167.9 
		84.8,168.2 90.2,168.5 95.7,168.7 101.1,168.9 106.5,169 111.9,169.1 117.3,169.2 122.7,169.2 128,169.2 133.4,169.2 138.8,169.1 
		144.1,168.9 149.5,168.8 154.8,168.5 160.2,168.3 165.5,168 170.8,167.6 176.2,167.2 181.5,166.8 186.8,166.4 192,165.9 
		197.3,165.3 202.6,164.7 207.8,164.1 213.1,163.4 218.3,162.7 223.5,162 228.7,161.2 233.9,160.4 239.1,159.5 244.3,158.6 
		249.5,157.7 254.6,156.7 259.7,155.7 264.9,154.7 270,153.6 275.1,152.5 280.1,151.3 285.2,150.1 290.2,148.9 295.3,147.6 
		300.3,146.3 305.3,144.9 310.3,143.5 	"/>
	<polyline class="st1" points="35.9,163.8 41.3,164.7 46.7,165.5 52.1,166.2 57.5,166.9 62.9,167.6 68.3,168.2 73.7,168.8 
		79.1,169.4 84.5,169.9 89.9,170.4 95.3,170.8 100.7,171.2 106.1,171.5 111.5,171.8 116.9,172.1 122.3,172.3 127.6,172.4 133,172.6 
		138.4,172.7 143.8,172.7 149.1,172.7 154.5,172.7 159.8,172.6 165.2,172.5 170.5,172.4 175.9,172.2 181.2,172 186.5,171.7 
		191.9,171.4 197.2,171 202.5,170.6 207.8,170.2 213.1,169.7 218.4,169.2 223.6,168.7 228.9,168.1 234.1,167.4 239.4,166.8 
		244.6,166.1 249.8,165.3 255.1,164.5 260.3,163.7 265.5,162.8 270.6,161.9 275.8,161 281,160 286.1,159 291.2,157.9 296.4,156.8 
		301.5,155.7 306.6,154.5 311.7,153.3 316.7,152.1 321.8,150.8 326.8,149.5 331.8,148.1 336.8,146.7 341.8,145.3 346.8,143.8 
		351.8,142.3 356.7,140.8 361.7,139.2 366.6,137.6 371.5,135.9 376.3,134.2 381.2,132.5 386,130.8 390.9,129 	"/>
	<polyline class="st5" points="35.9,163.8 41.4,163.6 46.9,163.4 52.3,163.1 57.8,162.8 63.2,162.4 68.6,162 74,161.6 79.4,161.1 
		84.8,160.6 90.1,160 95.5,159.4 100.8,158.8 106.1,158.1 111.4,157.3 116.6,156.6 121.9,155.8 127.1,154.9 132.3,154 137.5,153.1 
		142.7,152.1 147.9,151.1 153,150.1 158.1,149 163.2,147.9 168.3,146.7 173.4,145.5 178.4,144.3 183.4,143 188.4,141.7 193.4,140.4 
		198.4,139 203.3,137.6 208.2,136.2 213.1,134.7 218,133.2 222.8,131.6 227.6,130 232.4,128.4 237.2,126.8 241.9,125.1 	"/>
	<polyline class="st8" points="59.7,78.5 58.3,83.4 56.9,88.4 55.6,93.3 54.2,98.3 52.8,103.3 51.4,108.3 50,113.3 48.6,118.4 
		47.2,123.4 45.8,128.4 44.4,133.5 43,138.5 41.6,143.6 40.2,148.6 38.8,153.7 37.3,158.8 35.9,163.8 	"/>
	<text transform="matrix(1 0 0 1 305.4321 139.1899)" class="st9 st10 st11">●</text>
	<circle class="st9" cx="310.1" cy="143.3" r="2.4"/>
	<circle class="st9" cx="305.8" cy="138" r="2.4"/>
	<circle class="st9" cx="277.5" cy="141.4" r="2.4"/>
	<circle class="st9" cx="242.7" cy="124.7" r="2.4"/>
	<circle class="st9" cx="306.1" cy="168.6" r="2.4"/>
	<circle class="st9" cx="264.9" cy="181.6" r="2.4"/>
	<circle class="st9" cx="62" cy="218.3" r="2.4"/>
	<circle class="st9" cx="35.4" cy="163.9" r="2.4"/>
	<circle class="st9" cx="59.3" cy="78.5" r="2.4"/>
	<circle class="st9" cx="46" cy="107.5" r="2.4"/>
	<circle class="st9" cx="335" cy="158" r="2.4"/>
	<circle class="st9" cx="338.8" cy="135.5" r="2.4"/>
	<circle class="st9" cx="390.2" cy="128.2" r="2.4"/>
	<circle class="st9" cx="380.6" cy="132.4" r="2.4"/>
	<circle class="st9" cx="389.8" cy="137" r="2.4"/>
	<circle class="st9" cx="380.8" cy="142.2" r="2.4"/>
</g>
</svg>
