<?xml version="1.0" encoding="utf-8"?>
<!-- Generator: Adobe Illustrator 23.1.1, SVG Export Plug-In . SVG Version: 6.00 Build 0)  -->
<svg version="1.1" xmlns="http://www.w3.org/2000/svg" xmlns:xlink="http://www.w3.org/1999/xlink" x="0px" y="0px"
	 viewBox="0 0 421.7 280.1" style="enable-background:new 0 0 421.7 280.1;" xml:space="preserve">
<style type="text/css">
	.st0{fill:#707589;}
	.st1{fill:#333333;}
	.st2{opacity:0.459;fill:none;stroke:#FFFFFF;stroke-width:1.07;stroke-linejoin:round;stroke-miterlimit:10;}
	.st3{opacity:0.639;fill:none;stroke:#FFFFFF;stroke-width:1.07;stroke-linejoin:round;stroke-miterlimit:10;}
	.st4{fill:none;stroke:#FFFFFF;stroke-width:1.07;stroke-linejoin:round;stroke-miterlimit:10;}
	.st5{fill:#FFFFFF;}
</style>
<g id="map">
	<path class="st0" d="M63.7,231.9c0.8,1.4,0.6,2.2-1.1,2.8c-1.1,0.4-2.1,1.3-3.1,1.9c-0.6,0.4-1.3,0.6-2.1,1c0.3-2.7,0-5.2,2.5-6.8
		c-1.6,0.1-2.3,0.8-3.3,2.7c-0.7,1.3-1.7,2.5-2.6,4c0.2,0.2,0.7,0.5,1.4,1.1c-4.2,4.5-8.7,8.4-14.2,11.4c-0.6-0.7-1.5-0.5-2.8,0.2
		c-1.5,0.9-3.5,1.2-5.2,1.7c-0.1-0.3-0.3-0.5-0.4-0.8c0.8-0.5,1.7-0.9,2.5-1.4c0.8-0.4,1.7-0.8,2.6-1.2c0.6-0.3,1-1,1.6-1
		c2.9-0.3,4.8-2.2,6.6-4.1c1-1.1,1.4-2.6,2.4-4.5c-1.5,0.2-2.3,0.3-3.5,0.4c-1.2-1.4-1.3-2-4.6-0.6c0-1.6,0-3.1,0-4.7
		c-3.4,0.6-4.2-0.2-4.6-3.6c-0.2-1.4-1.5-2.7-0.2-4.3c0.8-0.9,1.3-2.1,2.2-2.8c0.5-0.4,1.6-0.3,2.4-0.1c1.1-0.5,2.6-0.7,3.2-1.5
		c0.6-0.7,0.2-2.2,0.3-3.1c-1.6,0-3.4,0-5.2,0c-1.4,0-2.3-0.6-2.5-2.2c-0.1-0.9-0.8-1.7-1.4-2.8c1.9-0.7,3.8-1.5,6-2.4
		c0.2,2.3,1.3,2.8,3.3,2.1c-1.6-2.3-3.2-4.5-4.6-6.7c-0.3-0.5-0.7-1.3-0.5-1.7c0.3-0.5,1.1-0.8,1.7-1.1c0.7-0.3,1.9-0.3,2.1-0.7
		c0.9-2.2,2.6-3.2,4.5-4.1c1.3-0.6,2.7-1.1,4.6-1.8c1.3,0.6,3,1.9,4.9,2.3c2.8,0.6,5.8,0.9,8.7,0.7c2.2-0.1,4,0.5,4.5,2.8
		c1.9,9.4,3.8,18.8,5.7,28.5c0.9-0.2,1.8-0.5,2.4-0.6c1.5,1.2,2.9,2.3,4.3,3.3c0.9-1.1,1.7-2.9,2.5-2.9c1.1,0,2.2,1.3,3.2,2.1
		c1.1,0.8,2.2,1.6,3.1,2.6c1.6,1.7,3.2,3.3,5.8,3.6c1.6,0.2,2.2,2.7,1.3,4.8c-0.8,0.2-2.5-2-2.6,0.8c0,0-1.8,0.4-2.3,0
		c-1.4-1.3-2.5-2.8-3.8-4.4c-0.2,0.6-0.3,0.9-0.4,1.5c-1.2-1.3-2.1-2.6-3.3-3.5c-2.1-1.6-4.3-3.1-6.5-4.5c-2.5-1.5-5.3-1.4-8.2-1.2
		c-1.5,0.1-3.1-1-4.7-1.6c-0.7-0.2-1.5-0.3-2.3-0.5C63.8,231.4,63.7,231.7,63.7,231.9z"/>
	<path class="st0" d="M56.4,239.7c0.2,0.2,0.5,0.3,0.6,0.5c0.7,1.4-1.4,5-2.9,5.1c-0.4,0-1.1-0.4-1.3-0.8c-0.2-0.4-0.2-1.2,0-1.6
		c0.9-1,2-1.9,3-2.8C55.9,239.9,56.1,239.8,56.4,239.7z"/>
	<path class="st0" d="M32.3,221.2c-1.9,0.6-4.2-0.7-4.9-2.8C29.3,219.5,30.6,220.2,32.3,221.2z"/>
	<path class="st0" d="M31.9,231.5c0.9,0.2,1.8,0.3,2.7,0.5c-0.1,0.4-0.2,0.9-0.4,1.3c-0.8-0.2-1.7-0.5-2.5-0.7
		C31.8,232.3,31.8,231.9,31.9,231.5z"/>
	<path class="st0" d="M140.5,252.7c-1-0.2-2.3-0.7-1.7-2.9c0.1-0.5-0.1-1.1-0.4-1.6c-0.7-1.5-1.3-2.8,0.2-4.3c0.6-0.6,0.3-2,0.5-3.2
		c3.9,1.1,7.2,2.9,9.1,7.2C146.1,249.3,143.6,250.8,140.5,252.7z"/>
	<path class="st0" d="M134.9,238c-0.2-0.2-0.6-0.4-0.9-0.7c-0.5-0.5-1-1.1-1.5-1.7c-0.2-0.3-0.3-0.8-0.4-1.2
		c0.4-0.1,0.9-0.3,1.3-0.2c1.1,0.2,2.2,0.5,3.2,0.9c0.5,0.2,0.8,0.9,1.2,1.3c-0.5,0.4-1,0.8-1.5,1.1
		C136,237.7,135.6,237.8,134.9,238z"/>
	<path class="st0" d="M110,224.1c-1,0.7-1.7,1.6-2.3,1.5c-0.8-0.1-1.6-0.9-2.4-1.5c1-0.6,1.9-1.3,3-1.7
		C108.5,222.4,109.2,223.3,110,224.1z"/>
	<path class="st0" d="M121.4,227.3c0.1,1.3,0.4,2.3,0.2,3.2c0,0.3-1.3,0.8-1.5,0.6c-0.7-0.6-1.3-1.4-2-2.3
		C119.3,228.3,120.1,228,121.4,227.3z"/>
	<path class="st0" d="M173.7,217.3c0.5-0.4-0.2,1.2,0.8,0.9c-0.1,0.1-0.1,1.4,0.3,0.3c1,1.9,3.9,3.5,5,7c0.2,5.5,7.8,9.6,7.7,14.8
		c1.6,6,6,11.9,13.8,11.8c1,0.1,1.7,1.3,3.6,1.2l-0.1,0c1,0.7,2.2-1.9,1.6-0.6c-0.2-0.1-0.1-0.4-0.6,0.1c-0.4-2.4-2.6-5.3-1.8-11.4
		c-1.2,1.3-3.9-4-0.9-0.5l-0.1-0.3c0.6-0.2,1.7-1.3,0.5,0.2c0.9,0.7,2-1.9,2.2-3.5c-0.8,0.9-0.5-0.2-0.9-1.3
		c-0.1,0.1-0.7,0.4-1.2-0.4c1.1-0.6,5.2,2.4,2.5-1.8c0.1,0.1,1-0.4,0.4-0.8c1.3,1.1,2.8-2.3,2.2,0.4c1.7,0,0.3-3,1.2-2.3
		c-2.2-1.1,5.6,1,1.7-0.8c0.1-0.2-0.2-0.1,0.6-0.5c-0.4-0.8-1.2,0.2-1.2-1.6c0.1,0.3,0.6-0.5,0.7,0.5l0.3-0.1c0-0.2,0.2,1.3,0.5,0.2
		c-0.1-0.1,0.4,0.4-0.2,0.7c0.3,0.2-0.1,0.1,0.8-0.3c0.3,0.2-0.8-0.7-0.1-1c-0.1,0.3,0.6,1.6,1,0c0,0.1,0,0,0.1,0.4
		c0.1,0,0.1-0.1,0.5-0.6c0,0.2,0-0.1-0.2,1.1c-0.1-0.1,1.1,0.2-0.1,0.2c3.5-0.5,5.2-2.3-1,1.8c1.3-0.8,6.7-2.8,9.8-6.1
		c-2-0.5,3,0,1.3-5.9l-0.1,0.1c5.8-1.4-0.9,0.8,3.9,1.7c-5.2,3.1,3.3-1.8,7.6-2.2c2.3-1.5,11.2,4.6,11.4,0.5
		c1.5-5.5,7.3,7.2,12.5,3.8c-0.3-3.2,4.5,5.4,4.1-2.6c1.5-0.2,1.3,2,3,1.4c2.4,1.7,3.7,4,4.8,1.2c0.6-1.1-4.3-0.9-4.6-3.9
		c1.5-1.2,3.2-2.2,3.2-4.4c0.4-1.8-7.2,4-4.2,0.6c0-0.3,0.7-1.8-0.2-0.7c-0.1-0.1-0.1,0-0.1-0.4c-1.7,2.6-10.1-0.2-2.5-1.4
		c1.3,0.7,3.9,2.4,5.6-0.1c2.5-2.4,10.1,2.1,10.2-4.9c2.9,2.8-1.7,7.8,4.5,3.4c-1.3,1.5,3-0.2,1.9-2c0.9,1,3.6-0.3,0.3,1.9
		c1.6-1.1,12.6-2.1,5.2-1c0.6-0.2,7,2.9,5.9,1.1c-1,0.7-0.8-1,0.8-0.1c-0.1,0.2,0.1,0.2-0.3,0.6c-0.7,0.8,2-0.4,3.4,4.1
		c-0.5,0.2-0.5,0-0.6-1.6c-1.5,2.9,2.7,1.3,4.2,0.5c-1.3,1,5.7-2.1,3.4-2c0.3-0.3,0.5-0.6,1.1-1.3c1-2,14.2,7.9,14.5,11.3
		c0.3,2-2.4,8.9,1.1,8.6c-2.3-5.7,1.2,0,1.1-1.6c2.5-1.4-2.2,4.3-0.4,4.4c1.1,1,1.7,5.3,4.3,5.1c-1.7-1.6,1.1-1.7,0.4-1.1
		c0.6,3.1,0.8,3.1,4.6,8.7c0.1-1.1,11.2,7.4,4.9,5c0.1,2.9,4.5-0.1,6.2-0.1c0.8-1.7,0.2-3.9,1.5-6c1.6-11.8-13-29.4-17.3-42.2
		c0.1,0.4,1.2-6,0.3-3c-1.6-1.9,1,0.1-0.2-2.7c0.8,0,0.6-0.9,1.4-0.9c0.8-0.9-1.4-1.7,0.5-1.6c0.3-0.6,0.1-1-0.5-1.5
		c1.4-1.9,3.9-3.7,2-6.9c2.2,2.1,1.6,0.4,2.8-0.9l0,0.1c0.3-0.4,1.8,0.2,1.6-1.2c-0.4,0.7,7.6-5,6.2-8.1c0.8,2.2,1.1-4.1,4.9-5.3
		c0.8-1.4,4.2,0.4,3.9-2.7c0.3,3.3,3.1-8.4,3.7-5.8c-1,1.4,2.4,0.2,1.1-1.4c0.2,1.1,3.4,0,3-0.4c0.2-0.5,0.3-0.5,1,0.1
		c0.2-0.3,0.8-0.1,2-2c0.3-0.2-1.5-1.5-1.4-0.5c-1.5-0.4,0.6,0.9-1.2,0.4c0.1,0,0.6,0.6,0,0.5c-0.4-1.2-0.2,1.4-3.4-1.1
		c-0.4-2.1,3.3,3.7,3.6-2.1c1.7-0.4-1.4-1-2.1-0.8c-3.5-1.9,1.2,0.5,1.4-1.3c-1.2-0.4,0.2-0.6,1-0.8c-1.4,1.9,0.2,0.9,1.6,1.6
		c1.3-0.3,1.7-0.8,2.5-2.9c1.1,1.1,0.5-0.8,1-1c-0.5-0.7,0.2-1.5-1.5-2.2c0.2,0.2-0.4,0.1-0.1,0.6c-1.5-0.6,0.6,3.6-1.6,2.2
		c0.9,0.3,0.6-1.5,0.2-2.3c-0.8-1.9-5.3,4.7-5.6-2.7c0.5-0.1,1.2,4.9,2.4,2c1.1-0.3,0.6-1.4,2-0.7c0.8-0.6,0.8-0.5-0.4-1.4
		c0.8-0.4,2.4,1.6,1.4-0.4c0.7-0.1,0.6,1.1,1.6,1.6c0.1-1.2-4.5-5.1-1.7-3.5c0.1,0-1-2.6,0.2-0.6c-1.2-0.6,6.4,10.3,2.7,4.5
		c-1.9-1.4-2.8-10.6-7.4-6.5c-0.1-1.9-5.1-2.1-3.5-3.4c1.3,0.5,2.7,2.5,4.6,1.9c0-0.1,0.2-1-0.5-0.6l0-0.1l0,0
		c0.6-0.7-4.2-1.5-3.8-3.2c3.1,3.7,1.9-0.2,3.9,1.1c-0.2-2.6-2.1-1.1-5.9-5.5c3.9,4.3,8.3,1.8,1.9-1.1c-1.1-0.2-2.6-0.3-3.4-2
		c-0.5-1.5,1.4,0.9,4.5,1.4c2.4,1,0.4-0.9-1.9-2.8c4.3,2,0.3,0.8,0.3-4.8c1,0,0.3-1.1-1.2-2.2c1.3-0.1,0.9,0.1,1.8-0.9
		c-0.6-1,0.9,0,0.8-1c1.2-0.1-0.3-1.5,1.4-1.9c0.1,0-0.1,0.4,0,1c0.6-1.2,1.2,0.6-0.9,1.6c-0.7,2.4,1.7,2.8-0.2,5.5
		c0.7-0.5,0.8,0.7,1.6-0.3c0.9,2.6-0.5-0.1-0.7,1.9c2-0.5-2.4,0.4,2,2.5c0-2.3,0.4,1.1,0.9-1.1c0.5,0.4,0.4,3.9,1.8,3.2
		c1.3-0.9-0.3,1.8-0.4,3.2c-0.7,0.6-0.5,7.8,0.8,2.1c0.5-6.2,5.4-5.7,2-11.9c0,0,1.3-0.2,0.3-0.6c0,0,0.3,0,0.2-0.4
		c2.9,1.9-6.4-5.9-4.5-8.3c-0.2,4.1,5.8,2.2,5.5,5.9c1.7-3.5,3.9-6.4,3.7-11.1c0.3,0.2,0.2,0.9,0.5,2.3c-0.1-1.2,0.6-4.4-0.8-6.3
		c0,0.2-0.1,0.1,0.1,0.6c-0.3-0.2-1.2,0.2-2-0.3c1.7-0.6,0.4-2.4,1.7-4.2l0.3,0.8c-0.1-0.1-0.1,0-0.2-0.3l0.7,0.2
		c-0.5-0.7,0.7-0.8,0.6-2.1c1.3,0.3,4-3.6,4.8-3.1c0.8-0.7,3.2-0.2,3.4-1.5c1.1,0.6,1.3-0.3,3.4-0.9l0,0.3c0.5-0.3,1.1-0.4,2.2-1.6
		c0.1,1.1,0.6-4.7,0.9-0.6c0.7,1.2,0.6-1.5,1-0.3c0.1,0,0.3-0.4,0.6-0.9c-0.1,0.1,0.7,0.7,0.6,0c0.5,0.4,2-5.2,2.2-0.7
		c2.3-0.5,7.6-5,1.8-5c4.7,0.1-1.1,5.9-2.5,0.8c-0.4-0.7-1-1.5-2.5-2c0.4,1.4-1.9,0-0.9-0.6c2.7-5.6,0.4,1.2,0.2-6.7
		c1.7-0.6,0.8-7.3,3.3-7.7c1.1-1.4-0.2,2.5,2.1-1.6c1.5,1.1,0.1-0.9,2.2-1.2c0,3.5,1.6-9.1,1.8-4.4c0.2,0.2,0.4-0.9,0.8,0.1
		c0.1,0.1-1-0.3-0.5,0.4c-0.9,0.1,0.9,0.6,1.1,0.4c0.6,0.2,0.8-0.1,0.1-1.1c0.3-0.2,0.5-0.3,0.6-1.1c0.1,0.5,0.9,1.1,0.9-0.4
		c0.6,0.4,1.2-0.8,1.9,1.1c0.2-0.3,0.3-0.6,0.2-1.5c0.4,0.8,0.9,0.3,0.7-0.9c0.4-0.2,2,0.7,1.6-1.1c0,0.1,0.1-0.1,0.5,0.1
		c-0.1,0.2,0.3-1.1,0.3-0.1c0.5,0.3,0-2,0.8-0.6c0.6,0,1.2-1,1.4-2.2c-2.5,0.6,0.8-2-2.5-2.7c-1.6,2-0.7-3.1-3.9-3.4
		c-3.1-1.4-0.4-11.3-6.8-13.4c-7.4,6.9-5.7-9-9.7,11c-1.6,5.3,0.7,10.1-6,12.4c1.4,7.6-25.8-0.9-28,17.4l-0.3,0.4
		c0,2,2.2,3.1-3.8,7.4c-0.2-0.2-2.8-0.4-3.7,0.9c-1.3-1.2-12.4-1.1-9.1,4.1c2.6,0.7-1.8,5.3-6.5,8.6c-0.1,0,0.2-0.1,0.1-0.4
		c-9.3,5.6-9.7,10.4-22.5,7.6c0.2,0.3,3.9-12.9,4.9-8.8c1.3-3-0.8-21.7-8.4-8.3c-4.8-2.9,2.4-1.9,1.5-13.4
		c-10.4-8.8-11.3-6.4-14.9,3.9c-0.6-0.8,0.1-2.5,0.1-3.9c-2.7,2.7-5,6.6-5,11.9c-1.2,5.5,5.9,8.1,0.5,18.3c-9.6,12.6-11.8-17-5.8-28
		c1.1-0.5,0.6-4-0.3-0.9c-0.8-0.1-1.2,1.6-1.4,3.1c-1.4-1.2-1.8,1.7-4,3.2c-1,1,6.7-16.2,6-11.1c5-4.8-0.8,2.8,3.9-1.1
		c1.6-4,10.3-2.2,15.6-3.2c-3.6-6.8-8.9-0.6-7.4-6.3c-6.6,0.4-12.9,7.3-17.7,1c-2.3-0.7-2.6-1.9-4.7,1c-0.3-0.4,0.3-1.2,0-2.2
		c1.2-0.5,1.5-3.2,4-3.9c-4.4-1.7-12.4,10.1-19.7,8.3c3.5-6.9-3.8,1.1-7.6-1c1.8-2.3,9.6-9.4,16.2-12c-7.8-1.2-14.2,0.2-20.2-3.2
		c1.3-3.4-7.7,1.5-12.4-3.3c-0.4-1.4,0.1-5.1-2.9-4.7C176,50.8,109,32.7,55.2,20.4l0,0.2c-1.2,0.3,0.9,2.1,0.7,2.5
		c0.2,0.3,0.2,2.5-1,2c0.2-1.1-1.4,0.4,0.1,0.3c1,1-0.2,2.9,1.2,3.9c-0.8,0.4-1.4,1.5-2.2,2.8c0.2,0.8-0.1,2.2-0.9,3.6
		c0,0-0.2-0.1-0.6-0.7c-0.1,0.2-1.5,2.5-2.2,0.8l-0.1,0.4c-0.1,0.1,0.2-0.2-0.4-0.3c-0.1,0.3,0,0.1-0.2,0.9
		c-0.5,0.2,0.4-0.8-0.6-0.6c0.1,0,0,0,0.6-0.5c-0.2-0.1-0.1-0.2-0.9,0.2c0,0-0.1-0.3,0.6-0.6l-0.6-0.2c0,0.2,0-0.5,0.5-0.3l-0.2,0.2
		c0.2,0.1,1.2-0.2,1.7-1.1c0.3,1.3-1.3,2.5,1.2,0.3c0,0.3-1,0.7,0.1,1.2c-0.3-1.3,2.3-1.6,0.1-2.8c0-0.1-0.2-0.1,0-0.5
		c0.7,0.8,0.3,0.1,0.6-0.9c0-0.2,0.1,0.9,0.6,0c0.3,0.7,1-0.7,0-1.7c-0.2,0.1,0.1,0.2-0.1,1.1c0.8-0.6-7.4,3.5-2.6,2.9
		c-3.7,1.1-0.9-1.2,0.8-3.4l0.2,0.4c0-0.1,0.1,0.1,0.2-0.5c0,0.2,0.3,0.2-0.1,0.7c0.7-0.4,1.7-1,1.3-2.8L53,28.7l-0.1-0.3l-0.3,0.2
		c0.1-1.2,0.4-1.1-0.7,0.1c0,0,0.4-0.5-0.3-1c-0.1,0,0.1,0.1-0.3,0.4c-0.6-1.7-4.4-1.6-9.4-6c-1.2,3.7,0.9,7.8-0.1,13.1
		c0.6-0.6,0.4-0.6,2,0.5c0.2,0.3-1.6-0.3-1.7,0.7c-0.2,0,0-0.3-0.4-0.7c-0.4,1.3-0.1,1.6,1.2,2.2c-0.1-0.2-0.4,0.4-1,0.5
		c-0.1-0.3,0.6,2.2-0.9,2.2c-0.3,0.3,0.6-1,0.3-2.4c-0.2,0.2-0.5,1.5-0.8,2.9c0.5,0.5,3.5,0.4,3.7,2.1c-0.6-0.8-1.4,0-2.7-0.8
		c0,0,0.1,0.1,0.2,0.5c-0.4,0.3-0.3-0.8-1.2-0.9c0.6,1.9-1.5,3.6-1.1,6.6C36.2,57.3,26,70.3,28.1,82.2l-0.2-0.1
		c0.2,1-0.4,1.4-1.1,3.1L26.7,85c0.4,3.9-6.2,2.1-1.6,13.4c-3,4.6,1.5,12,1.8,15.1c0.4,0.4-1.6,2.8,0.1,1.4c0,0.5,0.6,0.9,1.2,1.8
		c1.7,1.5,1.3,1.1,1.9-1.4c-0.1,0-0.1,0-0.2-0.2c1,0,1.4,0.1,2.3,1.5c-0.2-0.1,0-0.1-0.7-0.3l0.1,0c-2.1-0.1-0.7,3.4,0.4,5.7
		c-0.5,0.2-3.3-2.3-2-3c-0.1-0.2,0.2-0.6-0.4-0.9c-2.4,2.9-1.1,6.4,2.1,9.8c-5.1,3.9,3.2,11.2,2.8,15.5c4.6,3.8-5.7,6.4,6.6,9.9
		c6.4,5,15.2,11.2,15.3,20.5c-0.6-0.3-0.2-1.1-0.4,0.8c5.4,0.6,11.4,1.3,18.2,2c-4.5,0.7,22.1,19.3,39.7,19.6
		c7.3,2.5,13.1-6.5,22.7-0.1c1.7,4.4,7.1,7.3,10.3,12c1.1,2.2,0,8.8,7.4,12.4c2.9,0.7,2.9,4.5,7.2,0.6c-0.3-0.8,0.8-2,1.2-3.5
		l0.2,0.1c1.6-3.1,5.9-1.2,9.6-0.8C173,216.8,173.2,217.5,173.7,217.3z"/>
	<path class="st0" d="M391.4,91.6c-0.4,0.1-0.4,0-1.2-0.1c-0.2-1-0.3,1.1-1.2,1.1C388.7,93.3,391.2,92.5,391.4,91.6z"/>
	<path class="st0" d="M394.3,92.1c-1.8-0.2-0.3,1.1,0.7-0.2c-0.3-0.5-1.3-1-0.5-0.3C394.5,91.7,394.7,91.9,394.3,92.1z"/>
	<polygon class="st0" points="369.3,102.3 369.2,102.2 369.3,102.1 369.2,102 369.1,102.1 369,102.5 368.9,102.8 368.8,103.2 
		368.9,103.3 369,103.3 369.1,103.1 369.2,103 369.2,102.8 369.2,102.6 369.3,102.5 	"/>
	<polygon class="st0" points="367.5,105.7 367.8,105.6 368.1,105.4 368.2,105.1 368.4,104.9 368.7,104.5 368.8,104.3 368.4,103.8 
		367.8,104.3 	"/>
	<path class="st0" d="M378.8,99.4l0.2,0.2c-0.1,0,0.1,0.2-0.5,0.3c-0.7-0.8,0.1-1.6,1.4-3.1c-1.8,2.1-6.1,3.1-7.9,4.3
		c0-0.4-1-0.3-0.9,0.7c-0.5-0.8-0.4,1.1-1,0.4c-3.5,3.9,2.3,0.2-0.2,2.3c1.3-0.5,3.3-1.6,4.8-2.7c2.2-0.5,5.5-3.3-0.1,1.1
		c1.9-1.1,12.1-7.6,5.1-4.9C379.3,98.3,379.5,98.8,378.8,99.4z"/>
	<path class="st0" d="M52.3,23.4c0,0,0.1,0.2,0.4,0.6c-0.2,0,0,0.2-0.3,0.7C51.8,24.8,51.4,21.8,52.3,23.4z"/>
	<path class="st0" d="M53.1,25.2c0-0.4-0.6-0.6,0.3-1.2C53.1,24.2,54,25.3,53.1,25.2z"/>
	<path class="st0" d="M53.9,23.5c-0.3,0.1,0.1-0.2-0.4-0.7c0,0.1-0.1,0,0,0.8c-0.3,0.2,0-0.5-0.7-0.2c-0.1-0.3,0.3-0.4,0.7-0.9
		C53.6,22.5,54.9,23,53.9,23.5z"/>
	<path class="st0" d="M53.4,27.4c0.1-0.1-0.2,0.3,0.5,0.4c-0.9,1.8,3.3,4.8-0.4-0.7c-0.1-0.2,0.3,0.2,0.5-0.4
		c0.2,0.1,0.2,0.1,0.9,0.1c0.2-0.1-0.4-0.5-0.3-0.9C54.6,25.7,52.9,26,53.4,27.4z"/>
</g>
<g id="Layer_1">
	<g>
		<polygon class="st1" points="369.7,102.6 369.6,102.5 369.7,102.4 369.6,102.3 369.5,102.4 369.4,102.8 369.3,103.1 369.2,103.5 
			369.3,103.6 369.4,103.6 369.5,103.4 369.6,103.3 369.6,103.1 369.6,102.9 369.7,102.8 		"/>
		<polyline class="st2" points="40.7,62.5 45.8,64 51,65.5 56.2,67 61.4,68.4 66.6,69.7 71.9,71 77.1,72.3 82.4,73.5 87.6,74.7 
			92.9,75.9 98.2,77 103.5,78 108.8,79.1 114.1,80 119.4,81 124.7,81.9 130.1,82.7 135.4,83.5 140.8,84.3 146.1,85 151.5,85.7 
			156.8,86.3 162.2,86.9 167.6,87.4 173,87.9 178.4,88.4 183.8,88.8 189.1,89.1 194.5,89.5 199.9,89.7 205.3,90 210.7,90.2 
			216.2,90.3 221.6,90.4 227,90.5 232.4,90.5 237.8,90.5 243.2,90.4 248.6,90.3 254,90.1 259.4,89.9 264.8,89.7 270.2,89.4 
			275.6,89.1 281,88.7 286.4,88.3 291.8,87.8 297.2,87.3 302.6,86.7 308,86.1 313.4,85.5 318.7,84.8 324.1,84.1 329.5,83.3 
			334.8,82.5 340.2,81.6 345.5,80.7 350.9,79.8 356.2,78.8 361.5,77.8 366.8,76.7 372.1,75.6 377.4,74.4 382.7,73.2 388,72 		"/>
		<polyline class="st3" points="287,95.7 291.7,98 296.5,100.4 301.3,102.7 306.2,104.9 311,107.2 315.9,109.4 320.9,111.6 
			325.9,113.7 330.9,115.8 335.9,117.9 341,119.9 346.1,121.9 351.2,123.9 		"/>
		<polyline class="st3" points="218.1,113.9 223.3,114.8 228.6,115.6 233.8,116.4 239,117.2 244.3,117.9 249.5,118.6 254.8,119.2 
			260.1,119.8 265.4,120.4 270.7,120.9 276,121.4 281.3,121.8 286.6,122.2 292,122.6 297.3,122.9 302.7,123.2 308,123.4 
			313.4,123.6 318.8,123.8 324.2,123.9 329.6,124 335,124 340.4,124 345.8,124 351.2,123.9 		"/>
		<polyline class="st4" points="388,72 385.2,76.3 382.3,80.7 379.4,85.1 376.4,89.4 373.4,93.8 370.4,98.1 367.3,102.4 
			364.2,106.7 361,111 357.8,115.3 354.5,119.6 351.2,123.9 		"/>
		<polyline class="st2" points="345,154.1 346.3,148 347.6,142 348.9,135.9 350.1,129.9 351.2,123.9 		"/>
		<polyline class="st2" points="108.3,108.6 113.5,109.8 118.6,111 123.7,112.1 128.9,113.2 134,114.3 139.2,115.3 144.4,116.3 
			149.6,117.3 154.8,118.2 160,119 165.2,119.9 170.4,120.7 175.6,121.4 180.9,122.1 186.1,122.8 191.4,123.4 196.7,124 
			201.9,124.6 207.2,125.1 212.5,125.6 217.8,126 223.1,126.4 228.4,126.8 233.7,127.1 239,127.4 244.3,127.6 249.7,127.8 255,128 
			260.3,128.1 265.7,128.2 271,128.2 276.3,128.2 281.7,128.1 287,128.1 292.4,127.9 297.7,127.8 303.1,127.6 308.4,127.3 
			313.8,127 319.1,126.7 324.5,126.3 329.8,125.9 335.2,125.5 340.5,125 345.9,124.4 351.2,123.9 		"/>
		<polyline class="st4" points="351.2,123.9 354.5,119.6 357.8,115.3 361,111 364.2,106.7 367.3,102.4 370.4,98.1 373.4,93.8 
			376.4,89.4 379.4,85.1 382.3,80.7 385.2,76.3 388,72 		"/>
	</g>
	<circle class="st5" cx="345.3" cy="154" r="2.4"/>
	<circle class="st5" cx="351.2" cy="124.6" r="2.4"/>
	<circle class="st5" cx="389" cy="72.6" r="2.4"/>
	<circle class="st5" cx="287.4" cy="95.8" r="2.4"/>
	<circle class="st5" cx="333.4" cy="90.5" r="2.4"/>
	<circle class="st5" cx="218" cy="114.1" r="2.4"/>
	<circle class="st5" cx="108.5" cy="108.3" r="2.4"/>
	<circle class="st5" cx="60.6" cy="228.3" r="2.4"/>
	<circle class="st5" cx="40.9" cy="62.5" r="2.4"/>
	<line class="st3" x1="333.4" y1="90.5" x2="351.2" y2="123.9"/>
	<line class="st3" x1="60.6" y1="228.3" x2="351.2" y2="123.9"/>
</g>
</svg>
