<?xml version="1.0" encoding="utf-8"?>
<!-- Generator: Adobe Illustrator 23.1.1, SVG Export Plug-In . SVG Version: 6.00 Build 0)  -->
<svg version="1.1" xmlns="http://www.w3.org/2000/svg" xmlns:xlink="http://www.w3.org/1999/xlink" x="0px" y="0px"
	 viewBox="0 0 428.8 281.5" style="enable-background:new 0 0 428.8 281.5;" xml:space="preserve">
<style type="text/css">
	.st0{fill:#707589;}
	
		.st1{opacity:0.4;clip-path:url(#SVGID_2_);fill:none;stroke:#FFFFFF;stroke-width:1.07;stroke-linejoin:round;stroke-miterlimit:10;}
	
		.st2{opacity:0.102;clip-path:url(#SVGID_2_);fill:none;stroke:#FFFFFF;stroke-width:1.07;stroke-linejoin:round;stroke-miterlimit:10;}
	
		.st3{opacity:0.702;clip-path:url(#SVGID_2_);fill:none;stroke:#FFFFFF;stroke-width:1.07;stroke-linejoin:round;stroke-miterlimit:10;}
	.st4{clip-path:url(#SVGID_2_);fill:none;stroke:#FFFFFF;stroke-width:1.07;stroke-linejoin:round;stroke-miterlimit:10;}
	.st5{fill:#FFFFFF;}
</style>
<g id="map">
	<path class="st0" d="M67.9,240.2c0.8,1.4,0.6,2.2-1.1,2.8c-1.1,0.4-2.1,1.3-3.1,1.9c-0.6,0.4-1.3,0.6-2.1,1c0.3-2.7,0-5.2,2.5-6.8
		c-1.6,0.1-2.3,0.8-3.3,2.7c-0.7,1.3-1.7,2.5-2.6,4c0.2,0.2,0.7,0.5,1.4,1.1c-4.2,4.5-8.7,8.4-14.2,11.4c-0.6-0.7-1.5-0.5-2.8,0.2
		c-1.5,0.9-3.5,1.2-5.2,1.7c-0.1-0.3-0.3-0.5-0.4-0.8c0.8-0.5,1.7-0.9,2.5-1.4c0.8-0.4,1.7-0.8,2.6-1.2c0.6-0.3,1-1,1.6-1
		c2.9-0.3,4.8-2.2,6.6-4.1c1-1.1,1.4-2.6,2.4-4.5c-1.5,0.2-2.3,0.3-3.5,0.4c-1.2-1.4-1.3-2-4.6-0.6c0-1.6,0-3.1,0-4.7
		c-3.4,0.6-4.2-0.2-4.6-3.6c-0.2-1.4-1.5-2.7-0.2-4.3c0.8-0.9,1.3-2.1,2.2-2.8c0.5-0.4,1.6-0.3,2.4-0.1c1.1-0.5,2.6-0.7,3.2-1.5
		c0.6-0.7,0.2-2.2,0.3-3.1c-1.6,0-3.4,0-5.2,0c-1.4,0-2.3-0.6-2.5-2.2c-0.1-0.9-0.8-1.7-1.4-2.8c1.9-0.7,3.8-1.5,6-2.4
		c0.2,2.3,1.3,2.8,3.3,2.1c-1.6-2.3-3.2-4.5-4.6-6.7c-0.3-0.5-0.7-1.3-0.5-1.7c0.3-0.5,1.1-0.8,1.7-1.1c0.7-0.3,1.9-0.3,2.1-0.7
		c0.9-2.2,2.6-3.2,4.5-4.1c1.3-0.6,2.7-1.1,4.6-1.8c1.3,0.6,3,1.9,4.9,2.3c2.8,0.6,5.8,0.9,8.7,0.7c2.2-0.1,4,0.5,4.5,2.8
		c1.9,9.4,3.8,18.8,5.7,28.5c0.9-0.2,1.8-0.5,2.4-0.6c1.5,1.2,2.9,2.3,4.3,3.3c0.9-1.1,1.7-2.9,2.5-2.9c1.1,0,2.2,1.3,3.2,2.1
		c1.1,0.8,2.2,1.6,3.1,2.6c1.6,1.7,3.2,3.3,5.8,3.6c1.6,0.2,2.2,2.7,1.3,4.8c-0.8,0.2-2.5-2-2.6,0.8c0,0-1.8,0.4-2.3,0
		c-1.4-1.3-2.5-2.8-3.8-4.4c-0.2,0.6-0.3,0.9-0.4,1.5c-1.2-1.3-2.1-2.6-3.3-3.5c-2.1-1.6-4.3-3.1-6.5-4.5c-2.5-1.5-5.3-1.4-8.2-1.2
		c-1.5,0.1-3.1-1-4.7-1.6c-0.7-0.2-1.5-0.3-2.3-0.5C68,239.8,67.9,240,67.9,240.2z"/>
	<path class="st0" d="M60.6,248c0.2,0.2,0.5,0.3,0.6,0.5c0.7,1.4-1.4,5-2.9,5.1c-0.4,0-1.1-0.4-1.3-0.8c-0.2-0.4-0.2-1.2,0-1.6
		c0.9-1,2-1.9,3-2.8C60.1,248.2,60.3,248.2,60.6,248z"/>
	<path class="st0" d="M36.5,229.6c-1.9,0.6-4.2-0.7-4.9-2.8C33.5,227.8,34.8,228.5,36.5,229.6z"/>
	<path class="st0" d="M36.1,239.8c0.9,0.2,1.8,0.3,2.7,0.5c-0.1,0.4-0.2,0.9-0.4,1.3c-0.8-0.2-1.7-0.5-2.5-0.7
		C36,240.6,36,240.2,36.1,239.8z"/>
	<path class="st0" d="M144.7,261c-1-0.2-2.3-0.7-1.7-2.9c0.1-0.5-0.1-1.1-0.4-1.6c-0.7-1.5-1.3-2.8,0.2-4.3c0.6-0.6,0.3-2,0.5-3.2
		c3.9,1.1,7.2,2.9,9.1,7.2C150.3,257.6,147.8,259.1,144.7,261z"/>
	<path class="st0" d="M139.1,246.3c-0.2-0.2-0.6-0.4-0.9-0.7c-0.5-0.5-1-1.1-1.5-1.7c-0.2-0.3-0.3-0.8-0.4-1.2
		c0.4-0.1,0.9-0.3,1.3-0.2c1.1,0.2,2.2,0.5,3.2,0.9c0.5,0.2,0.8,0.9,1.2,1.3c-0.5,0.4-1,0.8-1.5,1.1
		C140.2,246,139.7,246.1,139.1,246.3z"/>
	<path class="st0" d="M114.2,232.4c-1,0.7-1.7,1.6-2.3,1.5c-0.8-0.1-1.6-0.9-2.4-1.5c1-0.6,1.9-1.3,3-1.7
		C112.7,230.7,113.4,231.6,114.2,232.4z"/>
	<path class="st0" d="M125.6,235.6c0.1,1.3,0.4,2.3,0.2,3.2c0,0.3-1.3,0.8-1.5,0.6c-0.7-0.6-1.3-1.4-2-2.3
		C123.5,236.6,124.3,236.3,125.6,235.6z"/>
	<path class="st0" d="M177.9,225.6c0.5-0.4-0.2,1.2,0.8,0.9c-0.1,0.1-0.1,1.4,0.3,0.3c1,1.9,3.9,3.5,5,7c0.2,5.5,7.8,9.6,7.7,14.8
		c1.6,6,6,11.9,13.8,11.8c1,0.1,1.7,1.3,3.6,1.2l-0.1,0c1,0.7,2.2-1.9,1.6-0.6c-0.2-0.1-0.1-0.4-0.6,0.1c-0.4-2.4-2.6-5.3-1.8-11.4
		c-1.2,1.3-3.9-4-0.9-0.5l-0.1-0.3c0.6-0.2,1.7-1.3,0.5,0.2c0.9,0.7,2-1.9,2.2-3.5c-0.8,0.9-0.5-0.2-0.9-1.3
		c-0.1,0.1-0.7,0.4-1.2-0.4c1.1-0.6,5.2,2.4,2.5-1.8c0.1,0.1,1-0.4,0.4-0.8c1.3,1.1,2.8-2.3,2.2,0.4c1.7,0,0.3-3,1.2-2.3
		c-2.2-1.1,5.6,1,1.7-0.8c0.1-0.2-0.2-0.1,0.6-0.5c-0.4-0.8-1.2,0.2-1.2-1.6c0.1,0.3,0.6-0.5,0.7,0.5l0.3-0.1c0-0.2,0.2,1.3,0.5,0.2
		c-0.1-0.1,0.4,0.4-0.2,0.7c0.3,0.2-0.1,0.1,0.8-0.3c0.3,0.2-0.8-0.7-0.1-1c-0.1,0.3,0.6,1.6,1,0c0,0.1,0,0,0.1,0.4
		c0.1,0,0.1-0.1,0.5-0.6c0,0.2,0-0.1-0.2,1.1c-0.1-0.1,1.1,0.2-0.1,0.2c3.5-0.5,5.2-2.3-1,1.8c1.3-0.8,6.7-2.8,9.8-6.1
		c-2-0.5,3,0,1.3-5.9l-0.1,0.1c5.8-1.4-0.9,0.8,3.9,1.7c-5.2,3.1,3.3-1.8,7.6-2.2c2.3-1.5,11.2,4.6,11.4,0.5
		c1.5-5.5,7.3,7.2,12.5,3.8c-0.3-3.2,4.5,5.4,4.1-2.6c1.5-0.2,1.3,2,3,1.4c2.4,1.7,3.7,4,4.8,1.2c0.6-1.1-4.3-0.9-4.6-3.9
		c1.5-1.2,3.2-2.2,3.2-4.4c0.4-1.8-7.2,4-4.2,0.6c0-0.3,0.7-1.8-0.2-0.7c-0.1-0.1-0.1,0-0.1-0.4c-1.7,2.6-10.1-0.2-2.5-1.4
		c1.3,0.7,3.9,2.4,5.6-0.1c2.5-2.4,10.1,2.1,10.2-4.9c2.9,2.8-1.7,7.8,4.5,3.4c-1.3,1.5,3-0.2,1.9-2c0.9,1,3.6-0.3,0.3,1.9
		c1.6-1.1,12.6-2.1,5.2-1c0.6-0.2,7,2.9,5.9,1.1c-1,0.7-0.8-1,0.8-0.1c-0.1,0.2,0.1,0.2-0.3,0.6c-0.7,0.8,2-0.4,3.4,4.1
		c-0.5,0.2-0.5,0-0.6-1.6c-1.5,2.9,2.7,1.3,4.2,0.5c-1.3,1,5.7-2.1,3.4-2c0.3-0.3,0.5-0.6,1.1-1.3c1-2,14.2,7.9,14.5,11.3
		c0.3,2-2.4,8.9,1.1,8.6c-2.3-5.7,1.2,0,1.1-1.6c2.5-1.4-2.2,4.3-0.4,4.4c1.1,1,1.7,5.3,4.3,5.1c-1.7-1.6,1.1-1.7,0.4-1.1
		c0.6,3.1,0.8,3.1,4.6,8.7c0.1-1.1,11.2,7.4,4.9,5c0.1,2.9,4.5-0.1,6.2-0.1c0.8-1.7,0.2-3.9,1.5-6c1.6-11.8-13-29.4-17.3-42.2
		c0.1,0.4,1.2-6,0.3-3c-1.6-1.9,1,0.1-0.2-2.7c0.8,0,0.6-0.9,1.4-0.9c0.8-0.9-1.4-1.7,0.5-1.6c0.3-0.6,0.1-1-0.5-1.5
		c1.4-1.9,3.9-3.7,2-6.9c2.2,2.1,1.6,0.4,2.8-0.9l0,0.1c0.3-0.4,1.8,0.2,1.6-1.2c-0.4,0.7,7.6-5,6.2-8.1c0.8,2.2,1.1-4.1,4.9-5.3
		c0.8-1.4,4.2,0.4,3.9-2.7c0.3,3.3,3.1-8.4,3.7-5.8c-1,1.4,2.4,0.2,1.1-1.4c0.2,1.1,3.4,0,3-0.4c0.2-0.5,0.3-0.5,1,0.1
		c0.2-0.3,0.8-0.1,2-2c0.3-0.2-1.5-1.5-1.4-0.5c-1.5-0.4,0.6,0.9-1.2,0.4c0.1,0,0.6,0.6,0,0.5c-0.4-1.2-0.2,1.4-3.4-1.1
		c-0.4-2.1,3.3,3.7,3.6-2.1c1.7-0.4-1.4-1-2.1-0.8c-3.5-1.9,1.2,0.5,1.4-1.3c-1.2-0.4,0.2-0.6,1-0.8c-1.4,1.9,0.2,0.9,1.6,1.6
		c1.3-0.3,1.7-0.8,2.5-2.9c1.1,1.1,0.5-0.8,1-1c-0.5-0.7,0.2-1.5-1.5-2.2c0.2,0.2-0.4,0.1-0.1,0.6c-1.5-0.6,0.6,3.6-1.6,2.2
		c0.9,0.3,0.6-1.5,0.2-2.3c-0.8-1.9-5.3,4.7-5.6-2.7c0.5-0.1,1.2,4.9,2.4,2c1.1-0.3,0.6-1.4,2-0.7c0.8-0.6,0.8-0.5-0.4-1.4
		c0.8-0.4,2.4,1.6,1.4-0.4c0.7-0.1,0.6,1.1,1.6,1.6c0.1-1.2-4.5-5.1-1.7-3.5c0.1,0-1-2.6,0.2-0.6c-1.2-0.6,6.4,10.3,2.7,4.5
		c-1.9-1.4-2.8-10.6-7.4-6.5c-0.1-1.9-5.1-2.1-3.5-3.4c1.3,0.5,2.7,2.5,4.6,1.9c0-0.1,0.2-1-0.5-0.6l0-0.1l0,0
		c0.6-0.7-4.2-1.5-3.8-3.2c3.1,3.7,1.9-0.2,3.9,1.1c-0.2-2.6-2.1-1.1-5.9-5.5c3.9,4.3,8.3,1.8,1.9-1.1c-1.1-0.2-2.6-0.3-3.4-2
		c-0.5-1.5,1.4,0.9,4.5,1.4c2.4,1,0.4-0.9-1.9-2.8c4.3,2,0.3,0.8,0.3-4.8c1,0,0.3-1.1-1.2-2.2c1.3-0.1,0.9,0.1,1.8-0.9
		c-0.6-1,0.9,0,0.8-1c1.2-0.1-0.3-1.5,1.4-1.9c0.1,0-0.1,0.4,0,1c0.6-1.2,1.2,0.6-0.9,1.6c-0.7,2.4,1.7,2.8-0.2,5.5
		c0.7-0.5,0.8,0.7,1.6-0.3c0.9,2.6-0.5-0.1-0.7,1.9c2-0.5-2.4,0.4,2,2.5c0-2.3,0.4,1.1,0.9-1.1c0.5,0.4,0.4,3.9,1.8,3.2
		c1.3-0.9-0.3,1.8-0.4,3.2c-0.7,0.6-0.5,7.8,0.8,2.1c0.5-6.2,5.4-5.7,2-11.9c0,0,1.3-0.2,0.3-0.6c0,0,0.3,0,0.2-0.4
		c2.9,1.9-6.4-5.9-4.5-8.3c-0.2,4.1,5.8,2.2,5.5,5.9c1.7-3.5,3.9-6.4,3.7-11.1c0.3,0.2,0.2,0.9,0.5,2.3c-0.1-1.2,0.6-4.4-0.8-6.3
		c0,0.2-0.1,0.1,0.1,0.6c-0.3-0.2-1.2,0.2-2-0.3c1.7-0.6,0.4-2.4,1.7-4.2l0.3,0.8c-0.1-0.1-0.1,0-0.2-0.3l0.7,0.2
		c-0.5-0.7,0.7-0.8,0.6-2.1c1.3,0.3,4-3.6,4.8-3.1c0.8-0.7,3.2-0.2,3.4-1.5c1.1,0.6,1.3-0.3,3.4-0.9l0,0.3c0.5-0.3,1.1-0.4,2.2-1.6
		c0.1,1.1,0.6-4.7,0.9-0.6c0.7,1.2,0.6-1.5,1-0.3c0.1,0,0.3-0.4,0.6-0.9c-0.1,0.1,0.7,0.7,0.6,0c0.5,0.4,2-5.2,2.2-0.7
		c2.3-0.5,7.6-5,1.8-5c4.7,0.1-1.1,5.9-2.5,0.8c-0.4-0.7-1-1.5-2.5-2c0.4,1.4-1.9,0-0.9-0.6c2.7-5.6,0.4,1.2,0.2-6.7
		c1.7-0.6,0.8-7.3,3.3-7.7c1.1-1.4-0.2,2.5,2.1-1.6c1.5,1.1,0.1-0.9,2.2-1.2c0,3.5,1.6-9.1,1.8-4.4c0.2,0.2,0.4-0.9,0.8,0.1
		c0.1,0.1-1-0.3-0.5,0.4c-0.9,0.1,0.9,0.6,1.1,0.4c0.6,0.2,0.8-0.1,0.1-1.1c0.3-0.2,0.5-0.3,0.6-1.1c0.1,0.5,0.9,1.1,0.9-0.4
		c0.6,0.4,1.2-0.8,1.9,1.1c0.2-0.3,0.3-0.6,0.2-1.5c0.4,0.8,0.9,0.3,0.7-0.9c0.4-0.2,2,0.7,1.6-1.1c0,0.1,0.1-0.1,0.5,0.1
		c-0.1,0.2,0.3-1.1,0.3-0.1c0.5,0.3,0-2,0.8-0.6c0.6,0,1.2-1,1.4-2.2c-2.5,0.6,0.8-2-2.5-2.7c-1.6,2-0.7-3.1-3.9-3.4
		c-3.1-1.4-0.4-11.3-6.8-13.4c-7.4,6.9-5.7-9-9.7,11c-1.6,5.3,0.7,10.1-6,12.4c1.4,7.6-25.8-0.9-28,17.4l-0.3,0.4
		c0,2,2.2,3.1-3.8,7.4c-0.2-0.2-2.8-0.4-3.7,0.9c-1.3-1.2-12.4-1.1-9.1,4.1c2.6,0.7-1.8,5.3-6.5,8.6c-0.1,0,0.2-0.1,0.1-0.4
		c-9.3,5.6-9.7,10.4-22.5,7.6c0.2,0.3,3.9-12.9,4.9-8.8c1.3-3-0.8-21.7-8.4-8.3c-4.8-2.9,2.4-1.9,1.5-13.4
		c-10.4-8.8-11.3-6.4-14.9,3.9c-0.6-0.8,0.1-2.5,0.1-3.9c-2.7,2.7-5,6.6-5,11.9c-1.2,5.5,5.9,8.1,0.5,18.3c-9.6,12.6-11.8-17-5.8-28
		c1.1-0.5,0.6-4-0.3-0.9c-0.8-0.1-1.2,1.6-1.4,3.1c-1.4-1.2-1.8,1.7-4,3.2c-1,1,6.7-16.2,6-11.1c5-4.8-0.8,2.8,3.9-1.1
		c1.6-4,10.3-2.2,15.6-3.2c-3.6-6.8-8.9-0.6-7.4-6.3c-6.6,0.4-12.9,7.3-17.7,1c-2.3-0.7-2.6-1.9-4.7,1c-0.3-0.4,0.3-1.2,0-2.2
		c1.2-0.5,1.5-3.2,4-3.9C270,62.9,262,74.8,254.7,73c3.5-6.9-3.8,1.1-7.6-1c1.8-2.3,9.6-9.4,16.2-12c-7.8-1.2-14.2,0.2-20.2-3.2
		c1.3-3.4-7.7,1.5-12.4-3.3c-0.4-1.4,0.1-5.1-2.9-4.7c-47.6,10.3-114.5-7.7-168.4-20l0,0.2c-1.2,0.3,0.9,2.1,0.7,2.5
		c0.2,0.3,0.2,2.5-1,2c0.2-1.1-1.4,0.4,0.1,0.3c1,1-0.2,2.9,1.2,3.9c-0.8,0.4-1.4,1.5-2.2,2.8c0.2,0.8-0.1,2.2-0.9,3.6
		c0,0-0.2-0.1-0.6-0.7c-0.1,0.2-1.5,2.5-2.2,0.8l-0.1,0.4c-0.1,0.1,0.2-0.2-0.4-0.3c-0.1,0.3,0,0.1-0.2,0.9
		c-0.5,0.2,0.4-0.8-0.6-0.6c0.1,0,0,0,0.6-0.5c-0.2-0.1-0.1-0.2-0.9,0.2c0,0-0.1-0.3,0.6-0.6l-0.6-0.2c0,0.2,0-0.5,0.5-0.3l-0.2,0.2
		c0.2,0.1,1.2-0.2,1.7-1.1c0.3,1.3-1.3,2.5,1.2,0.3c0,0.3-1,0.7,0.1,1.2c-0.3-1.3,2.3-1.6,0.1-2.8c0-0.1-0.2-0.1,0-0.5
		c0.7,0.8,0.3,0.1,0.6-0.9c0-0.2,0.1,0.9,0.6,0c0.3,0.7,1-0.7,0-1.7c-0.2,0.1,0.1,0.2-0.1,1.1c0.8-0.6-7.4,3.5-2.6,2.9
		c-3.7,1.1-0.9-1.2,0.8-3.4l0.2,0.4c0-0.1,0.1,0.1,0.2-0.5c0,0.2,0.3,0.2-0.1,0.7c0.7-0.4,1.7-1,1.3-2.8L57.2,37l-0.1-0.3l-0.3,0.2
		c0.1-1.2,0.4-1.1-0.7,0.1c0,0,0.4-0.5-0.3-1c-0.1,0,0.1,0.1-0.3,0.4c-0.6-1.7-4.4-1.6-9.4-6c-1.2,3.7,0.9,7.8-0.1,13.1
		c0.6-0.6,0.4-0.6,2,0.5c0.2,0.3-1.6-0.3-1.7,0.7c-0.2,0,0-0.3-0.4-0.7c-0.4,1.3-0.1,1.6,1.2,2.2c-0.1-0.2-0.4,0.4-1,0.5
		c-0.1-0.3,0.6,2.2-0.9,2.2c-0.3,0.3,0.6-1,0.3-2.4c-0.2,0.2-0.5,1.5-0.8,2.9c0.5,0.5,3.5,0.4,3.7,2.1c-0.6-0.8-1.4,0-2.7-0.8
		c0,0,0.1,0.1,0.2,0.5c-0.4,0.3-0.3-0.8-1.2-0.9c0.6,1.9-1.5,3.6-1.1,6.6c-3.4,8.9-13.5,21.9-11.4,33.7l-0.2-0.1
		c0.2,1-0.4,1.4-1.1,3.1l-0.2-0.3c0.4,3.9-6.2,2.1-1.6,13.4c-3,4.6,1.5,12,1.8,15.1c0.4,0.4-1.6,2.8,0.1,1.4c0,0.5,0.6,0.9,1.2,1.8
		c1.7,1.5,1.3,1.1,1.9-1.4c-0.1,0-0.1,0-0.2-0.2c1,0,1.4,0.1,2.3,1.5c-0.2-0.1,0-0.1-0.7-0.3l0.1,0c-2.1-0.1-0.7,3.4,0.4,5.7
		c-0.5,0.2-3.3-2.3-2-3c-0.1-0.2,0.2-0.6-0.4-0.9c-2.4,2.9-1.1,6.4,2.1,9.8c-5.1,3.9,3.2,11.2,2.8,15.5c4.6,3.8-5.7,6.4,6.6,9.9
		c6.4,5,15.2,11.2,15.3,20.5c-0.6-0.3-0.2-1.1-0.4,0.8c5.4,0.6,11.4,1.3,18.2,2c-4.5,0.7,22.1,19.3,39.7,19.6
		c7.3,2.5,13.1-6.5,22.7-0.1c1.7,4.4,7.1,7.3,10.3,12c1.1,2.2,0,8.8,7.4,12.4c2.9,0.7,2.9,4.5,7.2,0.6c-0.3-0.8,0.8-2,1.2-3.5
		l0.2,0.1c1.6-3.1,5.9-1.2,9.6-0.8C177.2,225.1,177.4,225.8,177.9,225.6z"/>
	<path class="st0" d="M395.6,100c-0.4,0.1-0.4,0-1.2-0.1c-0.2-1-0.3,1.1-1.2,1.1C392.8,101.6,395.4,100.9,395.6,100z"/>
	<path class="st0" d="M398.5,100.4c-1.8-0.2-0.3,1.1,0.7-0.2c-0.3-0.5-1.3-1-0.5-0.3C398.7,100,398.9,100.2,398.5,100.4z"/>
	<polygon class="st0" points="373.5,110.7 373.4,110.5 373.5,110.4 373.4,110.4 373.3,110.4 373.2,110.8 373.1,111.1 373,111.6 
		373.1,111.7 373.2,111.6 373.3,111.4 373.4,111.3 373.4,111.2 373.4,110.9 373.5,110.8 	"/>
	<polygon class="st0" points="371.7,114 372,113.9 372.3,113.7 372.4,113.4 372.6,113.2 372.9,112.8 373,112.6 372.6,112.2 
		372,112.6 	"/>
	<path class="st0" d="M383,107.7l0.2,0.2c-0.1,0,0.1,0.2-0.5,0.3c-0.7-0.8,0.1-1.6,1.4-3.1c-1.8,2.1-6.1,3.1-7.9,4.3
		c0-0.4-1-0.3-0.9,0.7c-0.5-0.8-0.4,1.1-1,0.4c-3.5,3.9,2.3,0.2-0.2,2.3c1.3-0.5,3.3-1.6,4.8-2.7c2.2-0.5,5.5-3.3-0.1,1.1
		c1.9-1.1,12.1-7.6,5.1-4.9C383.5,106.6,383.7,107.1,383,107.7z"/>
	<path class="st0" d="M56.5,31.7c0,0,0.1,0.2,0.4,0.6c-0.2,0,0,0.2-0.3,0.7C56,33.1,55.6,30.2,56.5,31.7z"/>
	<path class="st0" d="M57.3,33.5c0-0.4-0.6-0.6,0.3-1.2C57.3,32.6,58.2,33.6,57.3,33.5z"/>
	<path class="st0" d="M58.1,31.8c-0.3,0.1,0.1-0.2-0.4-0.7c0,0.1-0.1,0,0,0.8c-0.3,0.2,0-0.5-0.7-0.2c-0.1-0.3,0.3-0.4,0.7-0.9
		C57.8,30.8,59.1,31.3,58.1,31.8z"/>
	<path class="st0" d="M57.6,35.7c0.1-0.1-0.2,0.3,0.5,0.4c-0.9,1.8,3.3,4.8-0.4-0.7c-0.1-0.2,0.3,0.2,0.5-0.4
		c0.2,0.1,0.2,0.1,0.9,0.1c0.2-0.1-0.4-0.5-0.3-0.9C58.8,34,57.1,34.3,57.6,35.7z"/>
</g>
<g id="constellation">
	<g>
		<defs>
			<polyline id="SVGID_1_" points="-46.2,0 -46.2,281.5 503.2,281.5 503.2,0 			"/>
		</defs>
		<clipPath id="SVGID_2_">
			<use xlink:href="#SVGID_1_"  style="overflow:visible;"/>
		</clipPath>
		<polyline class="st1" points="363.7,113.9 370,110.3 376.2,106.6 		"/>
		<polyline class="st1" points="157.1,129.2 162.4,129.6 167.7,129.9 173.1,130.2 178.4,130.5 183.8,130.7 189.1,130.9 194.5,131 
			199.8,131.1 205.2,131.2 210.5,131.2 215.8,131.2 221.2,131.1 226.5,131 231.9,130.8 237.2,130.6 242.5,130.4 247.9,130.1 
			253.2,129.8 258.5,129.5 263.8,129.1 269.1,128.6 274.5,128.2 279.8,127.6 285.1,127.1 290.4,126.5 295.6,125.9 300.9,125.2 
			306.2,124.5 311.5,123.7 316.7,122.9 322,122.1 327.2,121.2 332.5,120.3 337.7,119.3 342.9,118.3 348.1,117.3 353.4,116.2 
			358.5,115.1 363.7,113.9 		"/>
		<polyline class="st1" points="376.2,106.6 370,110.3 363.7,113.9 		"/>
		<line class="st1" x1="335.9" y1="248.7" x2="329.8" y2="242.3"/>
		<polyline class="st2" points="343.2,190.1 342,195.4 340.7,200.6 339.4,205.9 338.2,211.1 336.8,216.3 335.5,221.5 334.1,226.8 
			332.7,232 331.3,237.1 329.8,242.3 		"/>
		<polyline class="st3" points="304.5,131.2 306.3,136.2 308,141.2 309.8,146.2 311.5,151.3 313.3,156.3 315.1,161.3 316.9,166.3 
			318.8,171.3 320.6,176.3 322.5,181.3 324.4,186.3 326.3,191.3 328.2,196.3 330.2,201.3 332.1,206.3 334.1,211.2 336.1,216.2 
			338.1,221.1 340.1,226.1 342.1,231 344.2,235.9 346.3,240.8 348.3,245.7 350.4,250.6 		"/>
		<polyline class="st4" points="350.4,250.6 344.9,248.9 339.5,247.1 334,245.3 328.6,243.5 323.2,241.6 317.8,239.7 312.5,237.7 
			307.2,235.7 301.9,233.7 296.6,231.6 291.4,229.5 286.2,227.4 281,225.2 275.9,223 270.8,220.8 265.7,218.5 260.7,216.2 
			255.6,213.9 250.7,211.5 245.7,209.1 240.8,206.7 235.9,204.2 231,201.7 226.2,199.2 221.4,196.6 216.6,194 211.9,191.4 
			207.2,188.8 202.5,186.1 197.9,183.4 193.3,180.6 188.7,177.9 184.2,175.1 179.6,172.3 175.2,169.4 170.7,166.5 166.3,163.6 
			162,160.7 157.6,157.8 153.3,154.8 149.1,151.8 144.8,148.8 140.6,145.7 136.5,142.6 132.4,139.5 128.3,136.4 124.2,133.3 
			120.2,130.1 116.2,126.9 112.2,123.7 108.3,120.5 104.5,117.2 100.6,114 96.8,110.7 93,107.4 89.3,104 85.6,100.7 81.9,97.3 
			78.3,93.9 74.7,90.5 71.2,87.1 67.7,83.7 64.2,80.2 60.7,76.8 57.3,73.3 54,69.8 50.6,66.3 47.3,62.8 		"/>
		<polyline class="st3" points="350.4,250.6 348.3,245.7 346.3,240.8 344.2,235.9 342.1,231 340.1,226.1 338.1,221.1 336.1,216.2 
			334.1,211.2 332.1,206.3 330.2,201.3 328.2,196.3 326.3,191.3 324.4,186.3 322.5,181.3 320.6,176.3 318.8,171.3 316.9,166.3 
			315.1,161.3 313.3,156.3 311.5,151.3 309.8,146.2 308,141.2 306.3,136.2 304.5,131.2 		"/>
		<polyline class="st3" points="350.4,250.6 350.8,245.3 351.1,240.1 351.4,234.8 351.7,229.5 352,224.2 352.3,218.9 352.6,213.6 
			352.8,208.3 353.1,203 353.3,197.7 353.5,192.4 353.7,187.1 353.8,181.8 354,176.4 354.1,171.1 354.3,165.8 354.4,160.5 
			354.5,155.2 354.6,149.9 354.6,144.6 		"/>
		<line class="st1" x1="329.8" y1="242.3" x2="335.9" y2="248.7"/>
		<polyline class="st1" points="221.8,121.8 224.9,125.7 228,129.7 231.1,133.6 234.3,137.5 237.6,141.4 240.8,145.3 244.1,149.2 
			247.5,153.1 250.8,156.9 254.2,160.8 257.7,164.6 261.1,168.4 264.7,172.2 268.2,175.9 271.8,179.7 275.4,183.4 279,187.2 
			282.7,190.9 286.4,194.6 290.2,198.2 294,201.9 297.8,205.5 301.6,209.1 305.5,212.7 309.4,216.2 313.4,219.8 317.4,223.3 
			321.4,226.8 325.4,230.3 329.5,233.7 333.6,237.2 337.8,240.6 342,243.9 346.2,247.3 350.4,250.6 		"/>
		<polyline class="st1" points="55.6,116 60.9,117.1 66.1,118.1 71.4,119.1 76.7,120 82,120.9 87.2,121.8 92.5,122.6 97.8,123.3 
			103.1,124.1 108.4,124.8 113.7,125.4 119,126 124.3,126.6 129.6,127.1 134.9,127.6 140.3,128 145.6,128.4 150.9,128.8 
			156.2,129.1 161.5,129.4 166.8,129.7 172.2,129.9 177.5,130 182.8,130.1 188.1,130.2 193.4,130.3 198.7,130.3 204,130.2 
			209.4,130.1 214.7,130 220,129.9 225.3,129.7 230.6,129.4 235.8,129.1 241.1,128.8 246.4,128.5 251.7,128.1 257,127.6 
			262.2,127.1 267.5,126.6 272.8,126 278,125.4 283.2,124.8 288.5,124.1 293.7,123.4 298.9,122.6 304.2,121.9 309.4,121 
			314.6,120.1 319.7,119.2 324.9,118.3 330.1,117.3 335.3,116.2 340.4,115.2 345.5,114.1 350.7,112.9 355.8,111.7 360.9,110.5 
			366,109.2 371.1,107.9 376.2,106.6 		"/>
		<polyline class="st3" points="354.6,144.6 354.6,149.9 354.5,155.2 354.4,160.5 354.3,165.8 354.1,171.1 354,176.4 353.8,181.8 
			353.7,187.1 353.5,192.4 353.3,197.7 353.1,203 352.8,208.3 352.6,213.6 352.3,218.9 352,224.2 351.7,229.5 351.4,234.8 
			351.1,240.1 350.8,245.3 350.4,250.6 		"/>
		<polyline class="st4" points="47.3,62.8 50.6,66.3 54,69.8 57.3,73.3 60.7,76.8 64.2,80.2 67.7,83.7 71.2,87.1 74.7,90.5 
			78.3,93.9 81.9,97.3 85.6,100.7 89.3,104 93,107.4 96.8,110.7 100.6,114 104.5,117.2 108.3,120.5 112.2,123.7 116.2,126.9 
			120.2,130.1 124.2,133.3 128.3,136.4 132.4,139.5 136.5,142.6 140.6,145.7 144.8,148.8 149.1,151.8 153.3,154.8 157.6,157.8 
			162,160.7 166.3,163.6 170.7,166.5 175.2,169.4 179.6,172.3 184.2,175.1 188.7,177.9 193.3,180.6 197.9,183.4 202.5,186.1 
			207.2,188.8 211.9,191.4 216.6,194 221.4,196.6 226.2,199.2 231,201.7 235.9,204.2 240.8,206.7 245.7,209.1 250.7,211.5 
			255.6,213.9 260.7,216.2 265.7,218.5 270.8,220.8 275.9,223 281,225.2 286.2,227.4 291.4,229.5 296.6,231.6 301.9,233.7 
			307.2,235.7 312.5,237.7 317.8,239.7 323.2,241.6 328.6,243.5 334,245.3 339.5,247.1 344.9,248.9 350.4,250.6 		"/>
		<polyline class="st1" points="33.1,120.9 37.1,123.8 41.2,126.7 45.2,129.6 49.3,132.4 53.4,135.2 57.6,138 61.8,140.7 66,143.5 
			70.2,146.2 74.4,148.8 78.7,151.5 83,154.1 87.4,156.7 91.8,159.3 96.2,161.9 100.6,164.4 105,166.9 109.5,169.4 114,171.8 
			118.5,174.2 123.1,176.6 127.7,179 132.3,181.3 136.9,183.6 141.6,185.9 146.3,188.2 151,190.4 155.7,192.6 160.5,194.7 
			165.3,196.9 170.1,198.9 174.9,201 179.8,203.1 184.7,205.1 189.6,207 194.5,209 199.5,210.9 204.5,212.8 209.5,214.6 
			214.5,216.4 219.6,218.2 224.6,220 229.7,221.7 234.8,223.4 240,225 245.1,226.6 250.3,228.2 255.5,229.8 260.7,231.3 266,232.8 
			271.3,234.2 276.5,235.6 281.8,237 287.2,238.3 292.5,239.6 297.9,240.9 303.3,242.1 308.7,243.3 314.1,244.5 319.5,245.6 
			325,246.6 330.4,247.7 335.9,248.7 		"/>
	</g>
	<circle class="st5" cx="222.7" cy="121.9" r="2.4"/>
	<circle class="st5" cx="157.3" cy="129" r="2.4"/>
	<circle class="st5" cx="55.3" cy="115.9" r="2.4"/>
	<circle class="st5" cx="47.4" cy="63" r="2.4"/>
	<circle class="st5" cx="33.5" cy="121.9" r="2.4"/>
	<circle class="st5" cx="303.7" cy="147.6" r="2.4"/>
	<circle class="st5" cx="354.5" cy="145.2" r="2.4"/>
	<circle class="st5" cx="375.6" cy="107.1" r="2.4"/>
	<circle class="st5" cx="363.6" cy="114" r="2.4"/>
	<circle class="st5" cx="342.6" cy="191.6" r="2.4"/>
	<circle class="st5" cx="351.1" cy="250.8" r="2.4"/>
	<circle class="st5" cx="335.6" cy="248.6" r="2.4"/>
	<circle class="st5" cx="330" cy="242.7" r="2.4"/>
	<circle class="st5" cx="304.4" cy="131.4" r="2.4"/>
</g>
</svg>
