<?xml version="1.0" encoding="utf-8"?>
<!-- Generator: Adobe Illustrator 23.1.1, SVG Export Plug-In . SVG Version: 6.00 Build 0)  -->
<svg version="1.1" xmlns="http://www.w3.org/2000/svg" xmlns:xlink="http://www.w3.org/1999/xlink" x="0px" y="0px"
	 viewBox="0 0 418.8 284.6" style="enable-background:new 0 0 418.8 284.6;" xml:space="preserve">
<style type="text/css">
	.st0{fill:#707589;}
	.st1{opacity:0.549;fill:none;stroke:#FFFFFF;stroke-width:1.07;stroke-linejoin:round;stroke-miterlimit:10;}
	.st2{fill:none;stroke:#FFFFFF;stroke-width:1.07;stroke-linejoin:round;stroke-miterlimit:10;}
	.st3{opacity:0.102;fill:none;stroke:#FFFFFF;stroke-width:1.07;stroke-linejoin:round;stroke-miterlimit:10;}
	.st4{fill:#FFFFFF;}
</style>
<g id="map">
	<path class="st0" d="M62.5,235.7c0.8,1.4,0.6,2.2-1.1,2.8c-1.1,0.4-2.1,1.3-3.1,1.9c-0.6,0.4-1.3,0.6-2.1,1c0.3-2.7,0-5.2,2.5-6.8
		c-1.6,0.1-2.3,0.8-3.3,2.7c-0.7,1.3-1.7,2.5-2.6,4c0.2,0.2,0.7,0.5,1.4,1.1c-4.2,4.5-8.7,8.4-14.2,11.4c-0.6-0.7-1.5-0.5-2.8,0.2
		c-1.5,0.9-3.5,1.2-5.2,1.7c-0.1-0.3-0.3-0.5-0.4-0.8c0.8-0.5,1.7-0.9,2.5-1.4c0.8-0.4,1.7-0.8,2.6-1.2c0.6-0.3,1-1,1.6-1
		c2.9-0.3,4.8-2.2,6.6-4.1c1-1.1,1.4-2.6,2.4-4.5c-1.5,0.2-2.3,0.3-3.5,0.4c-1.2-1.4-1.3-2-4.6-0.6c0-1.6,0-3.1,0-4.7
		c-3.4,0.6-4.2-0.2-4.6-3.6c-0.2-1.4-1.5-2.7-0.2-4.3c0.8-0.9,1.3-2.1,2.2-2.8c0.5-0.4,1.6-0.3,2.4-0.1c1.1-0.5,2.6-0.7,3.2-1.5
		c0.6-0.7,0.2-2.2,0.3-3.1c-1.6,0-3.4,0-5.2,0c-1.4,0-2.3-0.6-2.5-2.2c-0.1-0.9-0.8-1.7-1.4-2.8c1.9-0.7,3.8-1.5,6-2.4
		c0.2,2.3,1.3,2.8,3.3,2.1c-1.6-2.3-3.2-4.5-4.6-6.7c-0.3-0.5-0.7-1.3-0.5-1.7c0.3-0.5,1.1-0.8,1.7-1.1c0.7-0.3,1.9-0.3,2.1-0.7
		c0.9-2.2,2.6-3.2,4.5-4.1c1.3-0.6,2.7-1.1,4.6-1.8c1.3,0.6,3,1.9,4.9,2.3c2.8,0.6,5.8,0.9,8.7,0.7c2.2-0.1,4,0.5,4.5,2.8
		c1.9,9.4,3.8,18.8,5.7,28.5c0.9-0.2,1.8-0.5,2.4-0.6c1.5,1.2,2.9,2.3,4.3,3.3c0.9-1.1,1.7-2.9,2.5-2.9c1.1,0,2.2,1.3,3.2,2.1
		c1.1,0.8,2.2,1.6,3.1,2.6c1.6,1.7,3.2,3.3,5.8,3.6c1.6,0.2,2.2,2.7,1.3,4.8c-0.8,0.2-2.5-2-2.6,0.8c0,0-1.8,0.4-2.3,0
		c-1.4-1.3-2.5-2.8-3.8-4.4c-0.2,0.6-0.3,0.9-0.4,1.5c-1.2-1.3-2.1-2.6-3.3-3.5c-2.1-1.6-4.3-3.1-6.5-4.5c-2.5-1.5-5.3-1.4-8.2-1.2
		c-1.5,0.1-3.1-1-4.7-1.6c-0.7-0.2-1.5-0.3-2.3-0.5C62.6,235.3,62.6,235.5,62.5,235.7z"/>
	<path class="st0" d="M55.2,243.5c0.2,0.2,0.5,0.3,0.6,0.5c0.7,1.4-1.4,5-2.9,5.1c-0.4,0-1.1-0.4-1.3-0.8c-0.2-0.4-0.2-1.2,0-1.6
		c0.9-1,2-1.9,3-2.8C54.7,243.7,54.9,243.7,55.2,243.5z"/>
	<path class="st0" d="M31.2,225c-1.9,0.6-4.2-0.7-4.9-2.8C28.1,223.3,29.4,224,31.2,225z"/>
	<path class="st0" d="M30.7,235.3c0.9,0.2,1.8,0.3,2.7,0.5c-0.1,0.4-0.2,0.9-0.4,1.3c-0.8-0.2-1.7-0.5-2.5-0.7
		C30.6,236.1,30.7,235.7,30.7,235.3z"/>
	<path class="st0" d="M139.3,256.5c-1-0.2-2.3-0.7-1.7-2.9c0.1-0.5-0.1-1.1-0.4-1.6c-0.7-1.5-1.3-2.8,0.2-4.3c0.6-0.6,0.3-2,0.5-3.2
		c3.9,1.1,7.2,2.9,9.1,7.2C144.9,253.1,142.4,254.6,139.3,256.5z"/>
	<path class="st0" d="M133.7,241.8c-0.2-0.2-0.6-0.4-0.9-0.7c-0.5-0.5-1-1.1-1.5-1.7c-0.2-0.3-0.3-0.8-0.4-1.2
		c0.4-0.1,0.9-0.3,1.3-0.2c1.1,0.2,2.2,0.5,3.2,0.9c0.5,0.2,0.8,0.9,1.2,1.3c-0.5,0.4-1,0.8-1.5,1.1
		C134.8,241.5,134.4,241.6,133.7,241.8z"/>
	<path class="st0" d="M108.8,227.9c-1,0.7-1.7,1.6-2.3,1.5c-0.8-0.1-1.6-0.9-2.4-1.5c1-0.6,1.9-1.3,3-1.7
		C107.3,226.2,108,227.1,108.8,227.9z"/>
	<path class="st0" d="M120.2,231.1c0.1,1.3,0.4,2.3,0.2,3.2c0,0.3-1.3,0.8-1.5,0.6c-0.7-0.6-1.3-1.4-2-2.3
		C118.1,232.1,118.9,231.8,120.2,231.1z"/>
	<path class="st0" d="M172.5,221.1c0.5-0.4-0.2,1.2,0.8,0.9c-0.1,0.1-0.1,1.4,0.3,0.3c1,1.9,3.9,3.5,5,7c0.2,5.5,7.8,9.6,7.7,14.8
		c1.6,6,6,11.9,13.8,11.8c1,0.1,1.7,1.3,3.6,1.2l-0.1,0c1,0.7,2.2-1.9,1.6-0.6c-0.2-0.1-0.1-0.4-0.6,0.1c-0.4-2.4-2.6-5.3-1.8-11.4
		c-1.2,1.3-3.9-4-0.9-0.5l-0.1-0.3c0.6-0.2,1.7-1.3,0.5,0.2c0.9,0.7,2-1.9,2.2-3.5c-0.8,0.9-0.5-0.2-0.9-1.3
		c-0.1,0.1-0.7,0.4-1.2-0.4c1.1-0.6,5.2,2.4,2.5-1.8c0.1,0.1,1-0.4,0.4-0.8c1.3,1.1,2.8-2.3,2.2,0.4c1.7,0,0.3-3,1.2-2.3
		c-2.2-1.1,5.6,1,1.7-0.8c0.1-0.2-0.2-0.1,0.6-0.5c-0.4-0.8-1.2,0.2-1.2-1.6c0.1,0.3,0.6-0.5,0.7,0.5l0.3-0.1c0-0.2,0.2,1.3,0.5,0.2
		c-0.1-0.1,0.4,0.4-0.2,0.7c0.3,0.2-0.1,0.1,0.8-0.3c0.3,0.2-0.8-0.7-0.1-1c-0.1,0.3,0.6,1.6,1,0c0,0.1,0,0,0.1,0.4
		c0.1,0,0.1-0.1,0.5-0.6c0,0.2,0-0.1-0.2,1.1c-0.1-0.1,1.1,0.2-0.1,0.2c3.5-0.5,5.2-2.3-1,1.8c1.3-0.8,6.7-2.8,9.8-6.1
		c-2-0.5,3,0,1.3-5.9l-0.1,0.1c5.8-1.4-0.9,0.8,3.9,1.7c-5.2,3.1,3.3-1.8,7.6-2.2c2.3-1.5,11.2,4.6,11.4,0.5
		c1.5-5.5,7.3,7.2,12.5,3.8c-0.3-3.2,4.5,5.4,4.1-2.6c1.5-0.2,1.3,2,3,1.4c2.4,1.7,3.7,4,4.8,1.2c0.6-1.1-4.3-0.9-4.6-3.9
		c1.5-1.2,3.2-2.2,3.2-4.4c0.4-1.8-7.2,4-4.2,0.6c0-0.3,0.7-1.8-0.2-0.7c-0.1-0.1-0.1,0-0.1-0.4c-1.7,2.6-10.1-0.2-2.5-1.4
		c1.3,0.7,3.9,2.4,5.6-0.1c2.5-2.4,10.1,2.1,10.2-4.9c2.9,2.8-1.7,7.8,4.5,3.4c-1.3,1.5,3-0.2,1.9-2c0.9,1,3.6-0.3,0.3,1.9
		c1.6-1.1,12.6-2.1,5.2-1c0.6-0.2,7,2.9,5.9,1.1c-1,0.7-0.8-1,0.8-0.1c-0.1,0.2,0.1,0.2-0.3,0.6c-0.7,0.8,2-0.4,3.4,4.1
		c-0.5,0.2-0.5,0-0.6-1.6c-1.5,2.9,2.7,1.3,4.2,0.5c-1.3,1,5.7-2.1,3.4-2c0.3-0.3,0.5-0.6,1.1-1.3c1-2,14.2,7.9,14.5,11.3
		c0.3,2-2.4,8.9,1.1,8.6c-2.3-5.7,1.2,0,1.1-1.6c2.5-1.4-2.2,4.3-0.4,4.4c1.1,1,1.7,5.3,4.3,5.1c-1.7-1.6,1.1-1.7,0.4-1.1
		c0.6,3.1,0.8,3.1,4.6,8.7c0.1-1.1,11.2,7.4,4.9,5c0.1,2.9,4.5-0.1,6.2-0.1c0.8-1.7,0.2-3.9,1.5-6c1.6-11.8-13-29.4-17.3-42.2
		c0.1,0.4,1.2-6,0.3-3c-1.6-1.9,1,0.1-0.2-2.7c0.8,0,0.6-0.9,1.4-0.9c0.8-0.9-1.4-1.7,0.5-1.6c0.3-0.6,0.1-1-0.5-1.5
		c1.4-1.9,3.9-3.7,2-6.9c2.2,2.1,1.6,0.4,2.8-0.9l0,0.1c0.3-0.4,1.8,0.2,1.6-1.2c-0.4,0.7,7.6-5,6.2-8.1c0.8,2.2,1.1-4.1,4.9-5.3
		c0.8-1.4,4.2,0.4,3.9-2.7c0.3,3.3,3.1-8.4,3.7-5.8c-1,1.4,2.4,0.2,1.1-1.4c0.2,1.1,3.4,0,3-0.4c0.2-0.5,0.3-0.5,1,0.1
		c0.2-0.3,0.8-0.1,2-2c0.3-0.2-1.5-1.5-1.4-0.5c-1.5-0.4,0.6,0.9-1.2,0.4c0.1,0,0.6,0.6,0,0.5c-0.4-1.2-0.2,1.4-3.4-1.1
		c-0.4-2.1,3.3,3.7,3.6-2.1c1.7-0.4-1.4-1-2.1-0.8c-3.5-1.9,1.2,0.5,1.4-1.3c-1.2-0.4,0.2-0.6,1-0.8c-1.4,1.9,0.2,0.9,1.6,1.6
		c1.3-0.3,1.7-0.8,2.5-2.9c1.1,1.1,0.5-0.8,1-1c-0.5-0.7,0.2-1.5-1.5-2.2c0.2,0.2-0.4,0.1-0.1,0.6c-1.5-0.6,0.6,3.6-1.6,2.2
		c0.9,0.3,0.6-1.5,0.2-2.3c-0.8-1.9-5.3,4.7-5.6-2.7c0.5-0.1,1.2,4.9,2.4,2c1.1-0.3,0.6-1.4,2-0.7c0.8-0.6,0.8-0.5-0.4-1.4
		c0.8-0.4,2.4,1.6,1.4-0.4c0.7-0.1,0.6,1.1,1.6,1.6c0.1-1.2-4.5-5.1-1.7-3.5c0.1,0-1-2.6,0.2-0.6c-1.2-0.6,6.4,10.3,2.7,4.5
		c-1.9-1.4-2.8-10.6-7.4-6.5c-0.1-1.9-5.1-2.1-3.5-3.4c1.3,0.5,2.7,2.5,4.6,1.9c0-0.1,0.2-1-0.5-0.6l0-0.1l0,0
		c0.6-0.7-4.2-1.5-3.8-3.2c3.1,3.7,1.9-0.2,3.9,1.1c-0.2-2.6-2.1-1.1-5.9-5.5c3.9,4.3,8.3,1.8,1.9-1.1c-1.1-0.2-2.6-0.3-3.4-2
		c-0.5-1.5,1.4,0.9,4.5,1.4c2.4,1,0.4-0.9-1.9-2.8c4.3,2,0.3,0.8,0.3-4.8c1,0,0.3-1.1-1.2-2.2c1.3-0.1,0.9,0.1,1.8-0.9
		c-0.6-1,0.9,0,0.8-1c1.2-0.1-0.3-1.5,1.4-1.9c0.1,0-0.1,0.4,0,1c0.6-1.2,1.2,0.6-0.9,1.6c-0.7,2.4,1.7,2.8-0.2,5.5
		c0.7-0.5,0.8,0.7,1.6-0.3c0.9,2.6-0.5-0.1-0.7,1.9c2-0.5-2.4,0.4,2,2.5c0-2.3,0.4,1.1,0.9-1.1c0.5,0.4,0.4,3.9,1.8,3.2
		c1.3-0.9-0.3,1.8-0.4,3.2c-0.7,0.6-0.5,7.8,0.8,2.1c0.5-6.2,5.4-5.7,2-11.9c0,0,1.3-0.2,0.3-0.6c0,0,0.3,0,0.2-0.4
		c2.9,1.9-6.4-5.9-4.5-8.3c-0.2,4.1,5.8,2.2,5.5,5.9c1.7-3.5,3.9-6.4,3.7-11.1c0.3,0.2,0.2,0.9,0.5,2.3c-0.1-1.2,0.6-4.4-0.8-6.3
		c0,0.2-0.1,0.1,0.1,0.6c-0.3-0.2-1.2,0.2-2-0.3c1.7-0.6,0.4-2.4,1.7-4.2l0.3,0.8c-0.1-0.1-0.1,0-0.2-0.3l0.7,0.2
		c-0.5-0.7,0.7-0.8,0.6-2.1c1.3,0.3,4-3.6,4.8-3.1c0.8-0.7,3.2-0.2,3.4-1.5c1.1,0.6,1.3-0.3,3.4-0.9l0,0.3c0.5-0.3,1.1-0.4,2.2-1.6
		c0.1,1.1,0.6-4.7,0.9-0.6c0.7,1.2,0.6-1.5,1-0.3c0.1,0,0.3-0.4,0.6-0.9c-0.1,0.1,0.7,0.7,0.6,0c0.5,0.4,2-5.2,2.2-0.7
		c2.3-0.5,7.6-5,1.8-5c4.7,0.1-1.1,5.9-2.5,0.8c-0.4-0.7-1-1.5-2.5-2c0.4,1.4-1.9,0-0.9-0.6c2.7-5.6,0.4,1.2,0.2-6.7
		c1.7-0.6,0.8-7.3,3.3-7.7c1.1-1.4-0.2,2.5,2.1-1.6c1.5,1.1,0.1-0.9,2.2-1.2c0,3.5,1.6-9.1,1.8-4.4c0.2,0.2,0.4-0.9,0.8,0.1
		c0.1,0.1-1-0.3-0.5,0.4c-0.9,0.1,0.9,0.6,1.1,0.4c0.6,0.2,0.8-0.1,0.1-1.1c0.3-0.2,0.5-0.3,0.6-1.1c0.1,0.5,0.9,1.1,0.9-0.4
		c0.6,0.4,1.2-0.8,1.9,1.1c0.2-0.3,0.3-0.6,0.2-1.5c0.4,0.8,0.9,0.3,0.7-0.9c0.4-0.2,2,0.7,1.6-1.1c0,0.1,0.1-0.1,0.5,0.1
		c-0.1,0.2,0.3-1.1,0.3-0.1c0.5,0.3,0-2,0.8-0.6c0.6,0,1.2-1,1.4-2.2c-2.5,0.6,0.8-2-2.5-2.7c-1.6,2-0.7-3.1-3.9-3.4
		c-3.1-1.4-0.4-11.3-6.8-13.4c-7.4,6.9-5.7-9-9.7,11c-1.6,5.3,0.7,10.1-6,12.4c1.4,7.6-25.8-0.9-28,17.4l-0.3,0.4
		c0,2,2.2,3.1-3.8,7.4c-0.2-0.2-2.8-0.4-3.7,0.9c-1.3-1.2-12.4-1.1-9.1,4.1c2.6,0.7-1.8,5.3-6.5,8.6c-0.1,0,0.2-0.1,0.1-0.4
		c-9.3,5.6-9.7,10.4-22.5,7.6c0.2,0.3,3.9-12.9,4.9-8.8c1.3-3-0.8-21.7-8.4-8.3c-4.8-2.9,2.4-1.9,1.5-13.4
		c-10.4-8.8-11.3-6.4-14.9,3.9c-0.6-0.8,0.1-2.5,0.1-3.9c-2.7,2.7-5,6.6-5,11.9c-1.2,5.5,5.9,8.1,0.5,18.3c-9.6,12.6-11.8-17-5.8-28
		c1.1-0.5,0.6-4-0.3-0.9c-0.8-0.1-1.2,1.6-1.4,3.1c-1.4-1.2-1.8,1.7-4,3.2c-1,1,6.7-16.2,6-11.1c5-4.8-0.8,2.8,3.9-1.1
		c1.6-4,10.3-2.2,15.6-3.2c-3.6-6.8-8.9-0.6-7.4-6.3c-6.6,0.4-12.9,7.3-17.7,1c-2.3-0.7-2.6-1.9-4.7,1c-0.3-0.4,0.3-1.2,0-2.2
		c1.2-0.5,1.5-3.2,4-3.9c-4.4-1.7-12.4,10.1-19.7,8.3c3.5-6.9-3.8,1.1-7.6-1c1.8-2.3,9.6-9.4,16.2-12c-7.8-1.2-14.2,0.2-20.2-3.2
		c1.3-3.4-7.7,1.5-12.4-3.3c-0.4-1.4,0.1-5.1-2.9-4.7c-47.6,10.3-114.5-7.7-168.4-20l0,0.2c-1.2,0.3,0.9,2.1,0.7,2.5
		c0.2,0.3,0.2,2.5-1,2c0.2-1.1-1.4,0.4,0.1,0.3c1,1-0.2,2.9,1.2,3.9c-0.8,0.4-1.4,1.5-2.2,2.8c0.2,0.8-0.1,2.2-0.9,3.6
		c0,0-0.2-0.1-0.6-0.7c-0.1,0.2-1.5,2.5-2.2,0.8L49,40.2c-0.1,0.1,0.2-0.2-0.4-0.3c-0.1,0.3,0,0.1-0.2,0.9c-0.5,0.2,0.4-0.8-0.6-0.6
		c0.1,0,0,0,0.6-0.5c-0.2-0.1-0.1-0.2-0.9,0.2c0,0-0.1-0.3,0.6-0.6L47.6,39c0,0.2,0-0.5,0.5-0.3l-0.2,0.2c0.2,0.1,1.2-0.2,1.7-1.1
		c0.3,1.3-1.3,2.5,1.2,0.3c0,0.3-1,0.7,0.1,1.2c-0.3-1.3,2.3-1.6,0.1-2.8c0-0.1-0.2-0.1,0-0.5c0.7,0.8,0.3,0.1,0.6-0.9
		c0-0.2,0.1,0.9,0.6,0c0.3,0.7,1-0.7,0-1.7c-0.2,0.1,0.1,0.2-0.1,1.1c0.8-0.6-7.4,3.5-2.6,2.9c-3.7,1.1-0.9-1.2,0.8-3.4l0.2,0.4
		c0-0.1,0.1,0.1,0.2-0.5c0,0.2,0.3,0.2-0.1,0.7c0.7-0.4,1.7-1,1.3-2.8l-0.2,0.7l-0.1-0.3l-0.3,0.2c0.1-1.2,0.4-1.1-0.7,0.1
		c0,0,0.4-0.5-0.3-1c-0.1,0,0.1,0.1-0.3,0.4c-0.6-1.7-4.4-1.6-9.4-6c-1.2,3.7,0.9,7.8-0.1,13.1c0.6-0.6,0.4-0.6,2,0.5
		c0.2,0.3-1.6-0.3-1.7,0.7c-0.2,0,0-0.3-0.4-0.7c-0.4,1.3-0.1,1.6,1.2,2.2c-0.1-0.2-0.4,0.4-1,0.5c-0.1-0.3,0.6,2.2-0.9,2.2
		c-0.3,0.3,0.6-1,0.3-2.4c-0.2,0.2-0.5,1.5-0.8,2.9c0.5,0.5,3.5,0.4,3.7,2.1c-0.6-0.8-1.4,0-2.7-0.8c0,0,0.1,0.1,0.2,0.5
		c-0.4,0.3-0.3-0.8-1.2-0.9c0.6,1.9-1.5,3.6-1.1,6.6C35,61.1,24.9,74.1,27,86l-0.2-0.1c0.2,1-0.4,1.4-1.1,3.1l-0.2-0.3
		c0.4,3.9-6.2,2.1-1.6,13.4c-3,4.6,1.5,12,1.8,15.1c0.4,0.4-1.6,2.8,0.1,1.4c0,0.5,0.6,0.9,1.2,1.8c1.7,1.5,1.3,1.1,1.9-1.4
		c-0.1,0-0.1,0-0.2-0.2c1,0,1.4,0.1,2.3,1.5c-0.2-0.1,0-0.1-0.7-0.3l0.1,0c-2.1-0.1-0.7,3.4,0.4,5.7c-0.5,0.2-3.3-2.3-2-3
		c-0.1-0.2,0.2-0.6-0.4-0.9c-2.4,2.9-1.1,6.4,2.1,9.8c-5.1,3.9,3.2,11.2,2.8,15.5c4.6,3.8-5.7,6.4,6.6,9.9
		c6.4,5,15.2,11.2,15.3,20.5c-0.6-0.3-0.2-1.1-0.4,0.8c5.4,0.6,11.4,1.3,18.2,2c-4.5,0.7,22.1,19.3,39.7,19.6
		c7.3,2.5,13.1-6.5,22.7-0.1c1.7,4.4,7.1,7.3,10.3,12c1.1,2.2,0,8.8,7.4,12.4c2.9,0.7,2.9,4.5,7.2,0.6c-0.3-0.8,0.8-2,1.2-3.5
		l0.2,0.1c1.6-3.1,5.9-1.2,9.6-0.8C171.9,220.6,172,221.3,172.5,221.1z"/>
	<path class="st0" d="M390.3,95.4c-0.4,0.1-0.4,0-1.2-0.1c-0.2-1-0.3,1.1-1.2,1.1C387.5,97.1,390.1,96.3,390.3,95.4z"/>
	<path class="st0" d="M393.2,95.9c-1.8-0.2-0.3,1.1,0.7-0.2c-0.3-0.5-1.3-1-0.5-0.3C393.3,95.5,393.5,95.7,393.2,95.9z"/>
	<polygon class="st0" points="368.1,106.1 368.1,106 368.1,105.9 368,105.8 367.9,105.9 367.8,106.3 367.7,106.6 367.6,107 
		367.7,107.1 367.8,107.1 368,106.9 368,106.8 368,106.7 368,106.4 368.1,106.3 	"/>
	<polygon class="st0" points="366.4,109.5 366.7,109.4 366.9,109.2 367.1,108.9 367.3,108.7 367.5,108.3 367.6,108.1 367.3,107.7 
		366.6,108.1 	"/>
	<path class="st0" d="M377.6,103.2l0.2,0.2c-0.1,0,0.1,0.2-0.5,0.3c-0.7-0.8,0.1-1.6,1.4-3.1c-1.8,2.1-6.1,3.1-7.9,4.3
		c0-0.4-1-0.3-0.9,0.7c-0.5-0.8-0.4,1.1-1,0.4c-3.5,3.9,2.3,0.2-0.2,2.3c1.3-0.5,3.3-1.6,4.8-2.7c2.2-0.5,5.5-3.3-0.1,1.1
		c1.9-1.1,12.1-7.6,5.1-4.9C378.2,102.1,378.3,102.6,377.6,103.2z"/>
	<path class="st0" d="M51.1,27.2c0,0,0.1,0.2,0.4,0.6c-0.2,0,0,0.2-0.3,0.7C50.7,28.6,50.3,25.6,51.1,27.2z"/>
	<path class="st0" d="M51.9,29c0-0.4-0.6-0.6,0.3-1.2C51.9,28.1,52.8,29.1,51.9,29z"/>
	<path class="st0" d="M52.7,27.3c-0.3,0.1,0.1-0.2-0.4-0.7c0,0.1-0.1,0,0,0.8c-0.3,0.2,0-0.5-0.7-0.2c-0.1-0.3,0.3-0.4,0.7-0.9
		C52.4,26.3,53.7,26.8,52.7,27.3z"/>
	<path class="st0" d="M52.3,31.2c0.1-0.1-0.2,0.3,0.5,0.4c-0.9,1.8,3.3,4.8-0.4-0.7c-0.1-0.2,0.3,0.2,0.5-0.4
		c0.2,0.1,0.2,0.1,0.9,0.1c0.2-0.1-0.4-0.5-0.3-0.9C53.4,29.5,51.8,29.8,52.3,31.2z"/>
</g>
<g id="constellation">
	<g>
		<polyline class="st1" points="393.2,62.1 389.7,68.5 386.1,74.9 		"/>
		<polyline class="st1" points="365.6,71.9 372.4,73 379.3,74 386.1,74.9 		"/>
		<polyline class="st2" points="386.1,74.9 383.3,79.3 380.4,83.7 377.5,88 374.6,92.4 371.6,96.7 368.5,101.1 365.5,105.4 
			362.3,109.7 359.2,114 355.9,118.3 352.7,122.6 349.4,126.8 		"/>
		<polyline class="st2" points="106.5,111.6 111.6,112.8 116.7,113.9 121.9,115.1 127,116.2 132.2,117.3 137.3,118.3 142.5,119.3 
			147.7,120.2 152.9,121.1 158.1,122 163.3,122.8 168.5,123.6 173.8,124.4 179,125.1 184.3,125.8 189.5,126.4 194.8,127 
			200.1,127.6 205.4,128.1 210.6,128.6 215.9,129 221.2,129.4 226.5,129.8 231.8,130.1 237.2,130.3 242.5,130.6 247.8,130.8 
			253.1,130.9 258.5,131.1 263.8,131.1 269.1,131.2 274.5,131.2 279.8,131.1 285.2,131 290.5,130.9 295.9,130.7 301.2,130.5 
			306.6,130.3 311.9,130 317.3,129.7 322.6,129.3 328,128.9 333.3,128.4 338.7,127.9 344,127.4 349.4,126.8 		"/>
		<polyline class="st2" points="349.4,126.8 352.7,122.6 355.9,118.3 359.2,114 362.3,109.7 365.5,105.4 368.5,101.1 371.6,96.7 
			374.6,92.4 377.5,88 380.4,83.7 383.3,79.3 386.1,74.9 		"/>
		<polyline class="st2" points="349.4,126.8 344,127.4 338.7,127.9 333.3,128.4 328,128.9 322.6,129.3 317.3,129.7 311.9,130 
			306.6,130.3 301.2,130.5 295.9,130.7 290.5,130.9 285.2,131 279.8,131.1 274.5,131.2 269.1,131.2 263.8,131.1 258.5,131.1 
			253.1,130.9 247.8,130.8 242.5,130.6 237.2,130.3 231.8,130.1 226.5,129.8 221.2,129.4 215.9,129 210.6,128.6 205.4,128.1 
			200.1,127.6 194.8,127 189.5,126.4 184.3,125.8 179,125.1 173.8,124.4 168.5,123.6 163.3,122.8 158.1,122 152.9,121.1 
			147.7,120.2 142.5,119.3 137.3,118.3 132.2,117.3 127,116.2 121.9,115.1 116.7,113.9 111.6,112.8 106.5,111.6 		"/>
		<line class="st3" x1="341.5" y1="125.9" x2="349.4" y2="126.8"/>
	</g>
	<circle class="st4" cx="107.1" cy="111.3" r="2.4"/>
	<circle class="st4" cx="55.9" cy="233.1" r="2.4"/>
	<circle class="st4" cx="350.1" cy="126.5" r="2.4"/>
	<circle class="st4" cx="365.4" cy="72.2" r="2.4"/>
	<circle class="st4" cx="385.5" cy="74.7" r="2.4"/>
	<circle class="st4" cx="392.8" cy="62.2" r="2.4"/>
	<circle class="st4" cx="341" cy="126" r="2.4"/>
	<line class="st2" x1="350.1" y1="126.5" x2="55.9" y2="233.5"/>
</g>
</svg>
