<?xml version="1.0" encoding="utf-8"?>
<!-- Generator: Adobe Illustrator 23.1.1, SVG Export Plug-In . SVG Version: 6.00 Build 0)  -->
<svg version="1.1" xmlns="http://www.w3.org/2000/svg" xmlns:xlink="http://www.w3.org/1999/xlink" x="0px" y="0px"
	 viewBox="0 0 420.2 275.8" style="enable-background:new 0 0 420.2 275.8;" xml:space="preserve">
<style type="text/css">
	.st0{fill:#707589;}
	.st1{fill:none;stroke:#FFFFFF;stroke-width:1.07;stroke-linejoin:round;stroke-miterlimit:10;}
	.st2{opacity:0.4;fill:none;stroke:#FFFFFF;stroke-width:1.07;stroke-linejoin:round;stroke-miterlimit:10;}
	.st3{opacity:0.102;fill:none;stroke:#FFFFFF;stroke-width:1.07;stroke-linejoin:round;stroke-miterlimit:10;}
	.st4{fill:#FFFFFF;}
</style>
<g id="map">
	<path class="st0" d="M64.9,243.2c0.8,1.4,0.6,2.2-1.1,2.8c-1.1,0.4-2.1,1.3-3.1,1.9c-0.6,0.4-1.3,0.6-2.1,1c0.3-2.7,0-5.2,2.5-6.8
		c-1.6,0.1-2.3,0.8-3.3,2.7c-0.7,1.3-1.7,2.5-2.6,4c0.2,0.2,0.7,0.5,1.4,1.1c-4.2,4.5-8.7,8.4-14.2,11.4c-0.6-0.7-1.5-0.5-2.8,0.2
		c-1.5,0.9-3.5,1.2-5.2,1.7c-0.1-0.3-0.3-0.5-0.4-0.8c0.8-0.5,1.7-0.9,2.5-1.4c0.8-0.4,1.7-0.8,2.6-1.2c0.6-0.3,1-1,1.6-1
		c2.9-0.3,4.8-2.2,6.6-4.1c1-1.1,1.4-2.6,2.4-4.5c-1.5,0.2-2.3,0.3-3.5,0.4c-1.2-1.4-1.3-2-4.6-0.6c0-1.6,0-3.1,0-4.7
		c-3.4,0.6-4.2-0.2-4.6-3.6c-0.2-1.4-1.5-2.7-0.2-4.3c0.8-0.9,1.3-2.1,2.2-2.8c0.5-0.4,1.6-0.3,2.4-0.1c1.1-0.5,2.6-0.7,3.2-1.5
		c0.6-0.7,0.2-2.2,0.3-3.1c-1.6,0-3.4,0-5.2,0c-1.4,0-2.3-0.6-2.5-2.2c-0.1-0.9-0.8-1.7-1.4-2.8c1.9-0.7,3.8-1.5,6-2.4
		c0.2,2.3,1.3,2.8,3.3,2.1c-1.6-2.3-3.2-4.5-4.6-6.7c-0.3-0.5-0.7-1.3-0.5-1.7c0.3-0.5,1.1-0.8,1.7-1.1c0.7-0.3,1.9-0.3,2.1-0.7
		c0.9-2.2,2.6-3.2,4.5-4.1c1.3-0.6,2.7-1.1,4.6-1.8c1.3,0.6,3,1.9,4.9,2.3c2.8,0.6,5.8,0.9,8.7,0.7c2.2-0.1,4,0.5,4.5,2.8
		c1.9,9.4,3.8,18.8,5.7,28.5c0.9-0.2,1.8-0.5,2.4-0.6c1.5,1.2,2.9,2.3,4.3,3.3c0.9-1.1,1.7-2.9,2.5-2.9c1.1,0,2.2,1.3,3.2,2.1
		c1.1,0.8,2.2,1.6,3.1,2.6c1.6,1.7,3.2,3.3,5.8,3.6c1.6,0.2,2.2,2.7,1.3,4.8c-0.8,0.2-2.5-2-2.6,0.8c0,0-1.8,0.4-2.3,0
		c-1.4-1.3-2.5-2.8-3.8-4.4c-0.2,0.6-0.3,0.9-0.4,1.5c-1.2-1.3-2.1-2.6-3.3-3.5c-2.1-1.6-4.3-3.1-6.5-4.5c-2.5-1.5-5.3-1.4-8.2-1.2
		c-1.5,0.1-3.1-1-4.7-1.6c-0.7-0.2-1.5-0.3-2.3-0.5C65.1,242.8,65,243,64.9,243.2z"/>
	<path class="st0" d="M57.7,251c0.2,0.2,0.5,0.3,0.6,0.5c0.7,1.4-1.4,5-2.9,5.1c-0.4,0-1.1-0.4-1.3-0.8c-0.2-0.4-0.2-1.2,0-1.6
		c0.9-1,2-1.9,3-2.8C57.2,251.3,57.4,251.2,57.7,251z"/>
	<path class="st0" d="M33.6,232.6c-1.9,0.6-4.2-0.7-4.9-2.8C30.6,230.8,31.9,231.6,33.6,232.6z"/>
	<path class="st0" d="M33.2,242.9c0.9,0.2,1.8,0.3,2.7,0.5c-0.1,0.4-0.2,0.9-0.4,1.3c-0.8-0.2-1.7-0.5-2.5-0.7
		C33.1,243.6,33.1,243.2,33.2,242.9z"/>
	<path class="st0" d="M141.8,264.1c-1-0.2-2.3-0.7-1.7-2.9c0.1-0.5-0.1-1.1-0.4-1.6c-0.7-1.5-1.3-2.8,0.2-4.3c0.6-0.6,0.3-2,0.5-3.2
		c3.9,1.1,7.2,2.9,9.1,7.2C147.4,260.7,144.9,262.2,141.8,264.1z"/>
	<path class="st0" d="M136.2,249.3c-0.2-0.2-0.6-0.4-0.9-0.7c-0.5-0.5-1-1.1-1.5-1.7c-0.2-0.3-0.3-0.8-0.4-1.2
		c0.4-0.1,0.9-0.3,1.3-0.2c1.1,0.2,2.2,0.5,3.2,0.9c0.5,0.2,0.8,0.9,1.2,1.3c-0.5,0.4-1,0.8-1.5,1.1
		C137.3,249.1,136.8,249.1,136.2,249.3z"/>
	<path class="st0" d="M111.2,235.4c-1,0.7-1.7,1.6-2.3,1.5c-0.8-0.1-1.6-0.9-2.4-1.5c1-0.6,1.9-1.3,3-1.7
		C109.8,233.8,110.4,234.7,111.2,235.4z"/>
	<path class="st0" d="M122.7,238.7c0.1,1.3,0.4,2.3,0.2,3.2c0,0.3-1.3,0.8-1.5,0.6c-0.7-0.6-1.3-1.4-2-2.3
		C120.6,239.7,121.3,239.3,122.7,238.7z"/>
	<path class="st0" d="M175,228.6c0.5-0.4-0.2,1.2,0.8,0.9c-0.1,0.1-0.1,1.4,0.3,0.3c1,1.9,3.9,3.5,5,7c0.2,5.5,7.8,9.6,7.7,14.8
		c1.6,6,6,11.9,13.8,11.8c1,0.1,1.7,1.3,3.6,1.2l-0.1,0c1,0.7,2.2-1.9,1.6-0.6c-0.2-0.1-0.1-0.4-0.6,0.1c-0.4-2.4-2.6-5.3-1.8-11.4
		c-1.2,1.3-3.9-4-0.9-0.5l-0.1-0.3c0.6-0.2,1.7-1.3,0.5,0.2c0.9,0.7,2-1.9,2.2-3.6c-0.8,0.9-0.5-0.2-0.9-1.3
		c-0.1,0.1-0.7,0.4-1.2-0.4c1.1-0.6,5.2,2.4,2.5-1.8c0.1,0.1,1-0.4,0.4-0.8c1.3,1.1,2.8-2.3,2.2,0.4c1.7,0,0.3-3,1.2-2.3
		c-2.2-1.1,5.6,1,1.7-0.8c0.1-0.2-0.2-0.1,0.6-0.5c-0.4-0.8-1.2,0.2-1.2-1.6c0.1,0.3,0.6-0.5,0.7,0.5l0.3-0.1c0-0.2,0.2,1.3,0.5,0.2
		c-0.1-0.1,0.4,0.4-0.2,0.7c0.3,0.2-0.1,0.1,0.8-0.3c0.3,0.2-0.8-0.7-0.1-1c-0.1,0.3,0.6,1.6,1,0c0,0.1,0,0,0.1,0.4
		c0.1,0,0.1-0.1,0.5-0.6c0,0.2,0-0.1-0.2,1.1c-0.1-0.1,1.1,0.2-0.1,0.2c3.5-0.5,5.2-2.3-1,1.8c1.3-0.8,6.7-2.8,9.8-6.1
		c-2-0.5,3,0,1.3-5.9l-0.1,0.1c5.8-1.4-0.9,0.8,3.9,1.7c-5.2,3.1,3.3-1.8,7.6-2.2c2.3-1.5,11.2,4.6,11.4,0.5
		c1.5-5.5,7.3,7.2,12.5,3.8c-0.3-3.2,4.5,5.4,4.1-2.6c1.5-0.2,1.3,2,3,1.4c2.4,1.7,3.7,4,4.8,1.2c0.6-1.1-4.3-0.9-4.6-3.9
		c1.5-1.2,3.2-2.2,3.2-4.4c0.4-1.8-7.2,4-4.2,0.6c0-0.3,0.7-1.8-0.2-0.7c-0.1-0.1-0.1,0-0.1-0.4c-1.7,2.6-10.1-0.2-2.5-1.4
		c1.3,0.7,3.9,2.4,5.6-0.1c2.5-2.4,10.1,2.1,10.2-4.9c2.9,2.8-1.7,7.8,4.5,3.4c-1.3,1.5,3-0.2,1.9-2c0.9,1,3.6-0.3,0.3,1.9
		c1.6-1.1,12.6-2.1,5.2-1c0.6-0.2,7,2.9,5.9,1.1c-1,0.7-0.8-1,0.8-0.1c-0.1,0.2,0.1,0.2-0.3,0.6c-0.7,0.8,2-0.4,3.4,4.1
		c-0.5,0.2-0.5,0-0.6-1.6c-1.5,2.9,2.7,1.3,4.2,0.5c-1.3,1,5.7-2.1,3.4-2c0.3-0.3,0.5-0.6,1.1-1.3c1-2,14.2,7.9,14.5,11.3
		c0.3,2-2.4,8.9,1.1,8.6c-2.3-5.7,1.2,0,1.1-1.6c2.5-1.4-2.2,4.3-0.4,4.4c1.1,1,1.7,5.3,4.3,5.1c-1.7-1.6,1.1-1.7,0.4-1.1
		c0.6,3.1,0.8,3.1,4.6,8.7c0.1-1.1,11.2,7.4,4.9,5c0.1,2.9,4.5-0.1,6.2-0.1c0.8-1.7,0.2-3.9,1.5-6c1.6-11.8-13-29.4-17.3-42.2
		c0.1,0.4,1.2-6,0.3-3c-1.6-1.9,1,0.1-0.2-2.7c0.8,0,0.6-0.9,1.4-0.9c0.8-0.9-1.4-1.7,0.5-1.6c0.3-0.6,0.1-1-0.5-1.5
		c1.4-1.9,3.9-3.7,2-6.9c2.2,2.1,1.6,0.4,2.8-0.9l0,0.1c0.3-0.4,1.8,0.2,1.6-1.2c-0.4,0.7,7.6-5,6.2-8.1c0.8,2.2,1.1-4.1,4.9-5.3
		c0.8-1.4,4.2,0.4,3.9-2.7c0.3,3.3,3.1-8.4,3.7-5.8c-1,1.4,2.4,0.2,1.1-1.4c0.2,1.1,3.4,0,3-0.4c0.2-0.5,0.3-0.5,1,0.1
		c0.2-0.3,0.8-0.1,2-2c0.3-0.2-1.5-1.5-1.4-0.5c-1.5-0.4,0.6,0.9-1.2,0.4c0.1,0,0.6,0.6,0,0.5c-0.4-1.2-0.2,1.4-3.4-1.1
		c-0.4-2.1,3.3,3.7,3.6-2.1c1.7-0.4-1.4-1-2.1-0.8c-3.5-1.9,1.2,0.5,1.4-1.3c-1.2-0.4,0.2-0.6,1-0.8c-1.4,1.9,0.2,0.9,1.6,1.6
		c1.3-0.3,1.7-0.8,2.5-2.9c1.1,1.1,0.5-0.8,1-1c-0.5-0.7,0.2-1.5-1.5-2.2c0.2,0.2-0.4,0.1-0.1,0.6c-1.5-0.6,0.6,3.6-1.6,2.2
		c0.9,0.3,0.6-1.5,0.2-2.3c-0.8-1.9-5.3,4.7-5.6-2.7c0.5-0.1,1.2,4.9,2.4,2c1.1-0.3,0.6-1.4,2-0.7c0.8-0.6,0.8-0.5-0.4-1.4
		c0.8-0.4,2.4,1.6,1.4-0.4c0.7-0.1,0.6,1.1,1.6,1.6c0.1-1.2-4.5-5.1-1.7-3.5c0.1,0-1-2.6,0.2-0.6c-1.2-0.6,6.4,10.3,2.7,4.5
		c-1.9-1.4-2.8-10.6-7.4-6.5c-0.1-1.9-5.1-2.1-3.5-3.4c1.3,0.5,2.7,2.5,4.6,1.9c0-0.1,0.2-1-0.5-0.6l0-0.1l0,0
		c0.6-0.7-4.2-1.5-3.8-3.2c3.1,3.7,1.9-0.2,3.9,1.1c-0.2-2.6-2.1-1.1-5.9-5.5c3.9,4.3,8.3,1.8,1.9-1.1c-1.1-0.2-2.6-0.3-3.4-2
		c-0.5-1.5,1.4,0.9,4.5,1.4c2.4,1,0.4-0.9-1.9-2.8c4.3,2,0.3,0.8,0.3-4.8c1,0,0.3-1.1-1.2-2.2c1.3-0.1,0.9,0.1,1.8-0.9
		c-0.6-1,0.9,0,0.8-1c1.2-0.1-0.3-1.5,1.4-1.9c0.1,0-0.1,0.4,0,1c0.6-1.2,1.2,0.6-0.9,1.6c-0.7,2.4,1.7,2.8-0.2,5.5
		c0.7-0.5,0.8,0.7,1.6-0.3c0.9,2.6-0.5-0.1-0.7,1.9c2-0.5-2.4,0.4,2,2.5c0-2.3,0.4,1.1,0.9-1.1c0.5,0.4,0.4,3.9,1.8,3.2
		c1.3-0.9-0.3,1.8-0.4,3.2c-0.7,0.6-0.5,7.8,0.8,2.1c0.5-6.2,5.4-5.7,2-11.9c0,0,1.3-0.2,0.3-0.6c0,0,0.3,0,0.2-0.4
		c2.9,1.9-6.4-5.9-4.5-8.3c-0.2,4.1,5.8,2.2,5.5,5.9c1.7-3.5,3.9-6.4,3.7-11.1c0.3,0.2,0.2,0.9,0.5,2.3c-0.1-1.2,0.6-4.4-0.8-6.3
		c0,0.2-0.1,0.1,0.1,0.6c-0.3-0.2-1.2,0.2-2-0.3c1.7-0.6,0.4-2.4,1.7-4.2l0.3,0.8c-0.1-0.1-0.1,0-0.2-0.3l0.7,0.2
		c-0.5-0.7,0.7-0.8,0.6-2.1c1.3,0.3,4-3.6,4.8-3.1c0.8-0.7,3.2-0.2,3.4-1.5c1.1,0.6,1.3-0.3,3.4-0.9l0,0.3c0.5-0.3,1.1-0.4,2.2-1.6
		c0.1,1.1,0.6-4.7,0.9-0.6c0.7,1.2,0.6-1.5,1-0.3c0.1,0,0.3-0.4,0.6-0.9c-0.1,0.1,0.7,0.7,0.6,0c0.5,0.4,2-5.2,2.2-0.7
		c2.3-0.5,7.6-5,1.8-5c4.7,0.1-1.1,5.9-2.5,0.8c-0.4-0.7-1-1.5-2.5-2c0.4,1.4-1.9,0-0.9-0.6c2.7-5.6,0.4,1.2,0.2-6.7
		c1.7-0.6,0.8-7.3,3.3-7.7c1.1-1.4-0.2,2.5,2.1-1.6c1.5,1.1,0.1-0.9,2.2-1.2c0,3.5,1.6-9.1,1.8-4.4c0.2,0.2,0.4-0.9,0.8,0.1
		c0.1,0.1-1-0.3-0.5,0.4c-0.9,0.1,0.9,0.6,1.1,0.4c0.6,0.2,0.8-0.1,0.1-1.1c0.3-0.2,0.5-0.3,0.6-1.1c0.1,0.5,0.9,1.1,0.9-0.4
		c0.6,0.4,1.2-0.8,1.9,1.1c0.2-0.3,0.3-0.6,0.2-1.5c0.4,0.8,0.9,0.3,0.7-0.9c0.4-0.2,2,0.7,1.6-1.1c0,0.1,0.1-0.1,0.5,0.1
		c-0.1,0.2,0.3-1.1,0.3-0.1c0.5,0.3,0-2,0.8-0.6c0.6,0,1.2-1,1.4-2.2c-2.5,0.6,0.8-2-2.5-2.7c-1.6,2-0.7-3.1-3.9-3.4
		c-3.1-1.4-0.4-11.3-6.8-13.4c-7.4,6.9-5.7-9-9.7,11c-1.6,5.3,0.7,10.1-6,12.4c1.4,7.6-25.8-0.9-28,17.4l-0.3,0.4
		c0,2,2.2,3.1-3.8,7.4c-0.2-0.2-2.8-0.4-3.7,0.9c-1.3-1.2-12.4-1.1-9.1,4.1c2.6,0.7-1.8,5.3-6.5,8.6c-0.1,0,0.2-0.1,0.1-0.4
		c-9.3,5.6-9.7,10.4-22.5,7.6c0.2,0.3,3.9-12.9,4.9-8.8c1.3-3-0.8-21.7-8.4-8.3c-4.8-2.9,2.4-1.9,1.5-13.4
		c-10.4-8.8-11.3-6.4-14.9,3.9c-0.6-0.8,0.1-2.5,0.1-3.9c-2.7,2.7-5,6.6-5,11.9c-1.2,5.5,5.9,8.1,0.5,18.3c-9.6,12.6-11.8-17-5.8-28
		c1.1-0.5,0.6-4-0.3-0.9c-0.8-0.1-1.2,1.6-1.4,3.1c-1.4-1.2-1.8,1.7-4,3.2c-1,1,6.7-16.2,6-11.1c5-4.8-0.8,2.8,3.9-1.1
		c1.6-4,10.3-2.2,15.6-3.2c-3.6-6.8-8.9-0.6-7.4-6.3c-6.6,0.4-12.9,7.3-17.7,1c-2.3-0.7-2.6-1.9-4.7,1c-0.3-0.4,0.3-1.2,0-2.2
		c1.2-0.5,1.5-3.2,4-3.9c-4.4-1.7-12.4,10.1-19.7,8.3c3.5-6.9-3.8,1.1-7.6-1c1.8-2.3,9.6-9.4,16.2-12c-7.8-1.2-14.2,0.2-20.2-3.2
		c1.3-3.4-7.7,1.5-12.4-3.3c-0.4-1.4,0.1-5.1-2.9-4.7c-47.6,10.3-114.5-7.7-168.4-20l0,0.2c-1.2,0.3,0.9,2.1,0.7,2.5
		c0.2,0.3,0.2,2.5-1,2c0.2-1.1-1.4,0.4,0.1,0.3c1,1-0.2,2.9,1.2,3.9c-0.8,0.4-1.4,1.5-2.2,2.8c0.2,0.8-0.1,2.2-0.9,3.6
		c0,0-0.2-0.1-0.6-0.7c-0.1,0.2-1.5,2.5-2.2,0.8l-0.1,0.4c-0.1,0.1,0.2-0.2-0.4-0.3c-0.1,0.3,0,0.1-0.2,0.9
		c-0.5,0.2,0.4-0.8-0.6-0.6c0.1,0,0,0,0.6-0.5c-0.2-0.1-0.1-0.2-0.9,0.2c0,0-0.1-0.3,0.6-0.6L50,46.6c0,0.2,0-0.5,0.5-0.3l-0.2,0.2
		c0.2,0.1,1.2-0.2,1.7-1.1c0.3,1.3-1.3,2.5,1.2,0.3c0,0.3-1,0.7,0.1,1.2c-0.3-1.3,2.3-1.6,0.1-2.8c0-0.1-0.2-0.1,0-0.5
		c0.7,0.8,0.3,0.1,0.6-0.9c0-0.2,0.1,0.9,0.6,0c0.3,0.7,1-0.7,0-1.7c-0.2,0.1,0.1,0.2-0.1,1.1c0.8-0.6-7.4,3.5-2.6,2.9
		c-3.7,1.1-0.9-1.2,0.8-3.4l0.2,0.4c0-0.1,0.1,0.1,0.2-0.5c0,0.2,0.3,0.2-0.1,0.7c0.7-0.4,1.7-1,1.3-2.8L54.3,40l-0.1-0.3l-0.3,0.2
		c0.1-1.2,0.4-1.1-0.7,0.1c0,0,0.4-0.5-0.3-1c-0.1,0,0.1,0.1-0.3,0.4c-0.6-1.7-4.4-1.6-9.4-6c-1.2,3.7,0.9,7.8-0.1,13.1
		c0.6-0.6,0.4-0.6,2,0.5c0.2,0.3-1.6-0.3-1.7,0.7c-0.2,0,0-0.3-0.4-0.7c-0.4,1.3-0.1,1.6,1.2,2.2c-0.1-0.2-0.4,0.4-1,0.5
		c-0.1-0.3,0.6,2.2-0.9,2.2c-0.3,0.3,0.6-1,0.3-2.4c-0.2,0.2-0.5,1.5-0.8,2.9c0.5,0.5,3.5,0.4,3.7,2.1c-0.6-0.8-1.4,0-2.7-0.8
		c0,0,0.1,0.1,0.2,0.5c-0.4,0.3-0.3-0.8-1.2-0.9c0.6,1.9-1.5,3.6-1.1,6.6c-3.4,8.9-13.5,21.9-11.4,33.7l-0.2-0.1
		c0.2,1-0.4,1.4-1.1,3.1L28,96.3c0.4,3.9-6.2,2.1-1.6,13.4c-3,4.6,1.5,12,1.8,15.1c0.4,0.4-1.6,2.8,0.1,1.4c0,0.5,0.6,0.9,1.2,1.8
		c1.7,1.5,1.3,1.1,1.9-1.4c-0.1,0-0.1,0-0.2-0.2c1,0,1.4,0.1,2.3,1.5c-0.2-0.1,0-0.1-0.7-0.3l0.1,0c-2.1-0.1-0.7,3.4,0.4,5.7
		c-0.5,0.2-3.3-2.3-2-3c-0.1-0.2,0.2-0.6-0.4-0.9c-2.4,2.9-1.1,6.4,2.1,9.8c-5.1,3.9,3.2,11.2,2.8,15.5c4.6,3.8-5.7,6.4,6.6,9.9
		c6.4,5,15.2,11.2,15.3,20.5c-0.6-0.3-0.2-1.1-0.4,0.8c5.4,0.6,11.4,1.3,18.2,2c-4.5,0.7,22.1,19.3,39.7,19.6
		c7.3,2.5,13.1-6.5,22.7-0.1c1.7,4.4,7.1,7.3,10.3,12c1.1,2.2,0,8.8,7.4,12.4c2.9,0.7,2.9,4.5,7.2,0.6c-0.3-0.8,0.8-2,1.2-3.5
		l0.2,0.1c1.6-3.1,5.9-1.2,9.6-0.8C174.3,228.2,174.4,228.8,175,228.6z"/>
	<path class="st0" d="M392.7,103c-0.4,0.1-0.4,0-1.2-0.1c-0.2-1-0.3,1.1-1.2,1.1C389.9,104.6,392.5,103.9,392.7,103z"/>
	<path class="st0" d="M395.6,103.4c-1.8-0.2-0.3,1.1,0.7-0.2c-0.3-0.5-1.3-1-0.5-0.3C395.8,103,396,103.2,395.6,103.4z"/>
	<polygon class="st0" points="370.6,113.7 370.5,113.5 370.5,113.4 370.5,113.4 370.4,113.4 370.3,113.8 370.2,114.1 370.1,114.6 
		370.2,114.7 370.3,114.6 370.4,114.5 370.5,114.3 370.5,114.2 370.5,114 370.6,113.8 	"/>
	<polygon class="st0" points="368.8,117 369.1,116.9 369.4,116.7 369.5,116.5 369.7,116.2 370,115.8 370.1,115.6 369.7,115.2 
		369.1,115.7 	"/>
	<path class="st0" d="M380.1,110.7l0.2,0.2c-0.1,0,0.1,0.2-0.5,0.3c-0.7-0.8,0.1-1.6,1.4-3.1c-1.8,2.1-6.1,3.1-7.9,4.3
		c0-0.4-1-0.3-0.9,0.7c-0.5-0.8-0.4,1.1-1,0.4c-3.5,3.9,2.3,0.2-0.2,2.3c1.3-0.5,3.3-1.6,4.8-2.7c2.2-0.5,5.5-3.3-0.1,1.1
		c1.9-1.1,12.1-7.6,5.1-4.9C380.6,109.6,380.7,110.2,380.1,110.7z"/>
	<path class="st0" d="M53.6,34.7c0,0,0.1,0.2,0.4,0.6c-0.2,0,0,0.2-0.3,0.7C53.1,36.1,52.7,33.2,53.6,34.7z"/>
	<path class="st0" d="M54.3,36.5c0-0.4-0.6-0.6,0.3-1.2C54.4,35.6,55.2,36.7,54.3,36.5z"/>
	<path class="st0" d="M55.2,34.8c-0.3,0.1,0.1-0.2-0.4-0.7c0,0.1-0.1,0,0,0.8c-0.3,0.2,0-0.5-0.7-0.2c-0.1-0.3,0.3-0.4,0.7-0.9
		C54.9,33.9,56.2,34.4,55.2,34.8z"/>
	<path class="st0" d="M54.7,38.7c0.1-0.1-0.2,0.3,0.5,0.4c-0.9,1.8,3.3,4.8-0.4-0.7c-0.1-0.2,0.3,0.2,0.5-0.4
		c0.2,0.1,0.2,0.1,0.9,0.1c0.2-0.1-0.4-0.5-0.3-0.9C55.8,37.1,54.2,37.3,54.7,38.7z"/>
</g>
<g id="Layer_1">
	<g>
		<polyline class="st1" points="303,111 297.6,111.2 292.2,111.4 286.9,111.6 281.5,111.7 276.2,111.8 270.8,111.9 265.5,111.9 
			260.1,111.9 254.8,111.8 249.5,111.7 244.1,111.5 238.8,111.3 233.5,111 228.1,110.8 222.8,110.4 217.5,110.1 212.2,109.6 
			206.9,109.2 201.6,108.7 196.3,108.2 191,107.6 185.8,107 180.5,106.3 175.2,105.6 170,104.9 164.8,104.1 159.5,103.2 
			154.3,102.4 149.1,101.5 143.9,100.5 138.7,99.5 133.5,98.5 128.3,97.4 123.2,96.3 118,95.2 112.9,94 107.7,92.8 102.6,91.5 
			97.5,90.2 92.4,88.8 87.4,87.4 82.3,86 77.3,84.6 72.2,83 67.2,81.5 62.2,79.9 57.2,78.3 52.2,76.6 47.3,74.9 42.3,73.2 		"/>
		<polyline class="st2" points="373.6,80.8 368.7,83.2 363.8,85.5 358.9,87.8 353.9,90.1 349,92.4 344,94.6 338.9,96.8 333.9,98.9 
			328.8,101 323.7,103.1 318.5,105.1 313.4,107.1 308.2,109 303,111 		"/>
		<polyline class="st1" points="42.3,73.2 47.3,74.9 52.2,76.6 57.2,78.3 62.2,79.9 67.2,81.5 72.2,83 77.3,84.6 82.3,86 87.4,87.4 
			92.4,88.8 97.5,90.2 102.6,91.5 107.7,92.8 112.9,94 118,95.2 123.2,96.3 128.3,97.4 133.5,98.5 138.7,99.5 143.9,100.5 
			149.1,101.5 154.3,102.4 159.5,103.2 164.8,104.1 170,104.9 175.2,105.6 180.5,106.3 185.8,107 191,107.6 196.3,108.2 
			201.6,108.7 206.9,109.2 212.2,109.6 217.5,110.1 222.8,110.4 228.1,110.8 233.5,111 238.8,111.3 244.1,111.5 249.5,111.7 
			254.8,111.8 260.1,111.9 265.5,111.9 270.8,111.9 276.2,111.8 281.5,111.7 286.9,111.6 292.2,111.4 297.6,111.2 303,111 		"/>
		<polyline class="st2" points="297,107.4 292.4,109.4 287.8,111.3 283.1,113.2 278.4,115.1 273.7,116.9 269,118.7 264.2,120.4 
			259.4,122.2 254.6,123.9 249.8,125.5 245,127.2 240.1,128.8 235.2,130.3 230.3,131.9 225.4,133.4 220.4,134.8 215.4,136.3 
			210.4,137.7 205.4,139 200.4,140.3 195.3,141.6 190.2,142.9 185.2,144.1 180,145.3 174.9,146.4 169.8,147.5 164.6,148.6 
			159.4,149.6 154.2,150.6 149,151.6 143.7,152.5 138.5,153.4 133.2,154.2 127.9,155 122.6,155.8 117.3,156.5 112,157.2 
			106.6,157.8 101.2,158.4 95.9,159 90.5,159.5 85.1,160 79.6,160.5 74.2,160.9 68.7,161.2 63.3,161.6 57.8,161.8 52.3,162.1 
			46.8,162.3 41.3,162.5 		"/>
		<polyline class="st2" points="214.9,128.4 220.3,127.4 225.6,126.4 231,125.4 236.3,124.3 241.7,123.2 247,122.1 252.3,120.9 
			257.6,119.7 262.8,118.4 268.1,117.1 273.3,115.8 278.5,114.4 283.7,112.9 288.9,111.5 294,110 299.1,108.4 304.2,106.8 
			309.3,105.2 314.4,103.6 319.5,101.9 324.5,100.1 329.5,98.4 334.5,96.5 339.4,94.7 344.4,92.8 349.3,90.9 354.2,88.9 359.1,86.9 
			363.9,84.9 368.8,82.9 373.6,80.8 		"/>
		<polyline class="st3" points="51.4,47.7 50.8,52.8 50.2,58 49.7,63.1 49.1,68.2 48.6,73.4 48.1,78.6 47.6,83.8 47,89 46.6,94.2 
			46.1,99.4 45.6,104.6 45.2,109.8 44.7,115.1 44.3,120.3 43.9,125.6 43.5,130.8 43.1,136.1 42.7,141.4 42.3,146.6 42,151.9 
			41.6,157.2 41.3,162.5 		"/>
		<polyline class="st2" points="41.3,162.5 46.8,162.3 52.3,162.1 57.8,161.8 63.3,161.6 68.7,161.2 74.2,160.9 79.6,160.5 
			85.1,160 90.5,159.5 95.9,159 101.2,158.4 106.6,157.8 112,157.2 117.3,156.5 122.6,155.8 127.9,155 133.2,154.2 138.5,153.4 
			143.7,152.5 149,151.6 154.2,150.6 159.4,149.6 164.6,148.6 169.8,147.5 174.9,146.4 180,145.3 185.2,144.1 190.2,142.9 
			195.3,141.6 200.4,140.3 205.4,139 210.4,137.7 215.4,136.3 220.4,134.8 225.4,133.4 230.3,131.9 235.2,130.3 240.1,128.8 
			245,127.2 249.8,125.5 254.6,123.9 259.4,122.2 264.2,120.4 269,118.7 273.7,116.9 278.4,115.1 283.1,113.2 287.8,111.3 
			292.4,109.4 297,107.4 		"/>
		<polyline class="st3" points="264.1,136.9 258.6,135.6 253.1,134.3 247.7,133 242.3,131.6 236.9,130.1 231.5,128.7 226.1,127.1 
			220.8,125.6 215.5,124 210.2,122.3 205,120.7 199.7,118.9 194.5,117.2 189.3,115.4 184.2,113.5 179.1,111.7 174,109.7 
			168.9,107.8 163.8,105.8 158.8,103.8 153.8,101.7 148.8,99.6 143.9,97.5 139,95.3 134.1,93.1 129.3,90.9 124.4,88.6 119.6,86.3 
			114.9,83.9 110.1,81.6 105.4,79.1 100.8,76.7 96.1,74.2 91.5,71.7 86.9,69.2 82.4,66.6 77.8,64 73.3,61.4 68.9,58.7 64.5,56 
			60.1,53.3 55.7,50.5 51.4,47.7 		"/>
		<polyline class="st3" points="238.9,161.4 235.3,156.7 231.8,152 228.3,147.3 224.9,142.6 221.5,137.9 218.2,133.1 214.9,128.4 		
			"/>
	</g>
	<circle class="st4" cx="239.3" cy="161.5" r="2.4"/>
	<circle class="st4" cx="214.9" cy="128.6" r="2.4"/>
	<circle class="st4" cx="42.5" cy="73.6" r="2.4"/>
	<circle class="st4" cx="42.5" cy="161.5" r="2.4"/>
	<circle class="st4" cx="58.4" cy="240.6" r="2.4"/>
	<circle class="st4" cx="51.3" cy="47.9" r="2.4"/>
	<circle class="st4" cx="264.2" cy="136.7" r="2.4"/>
	<circle class="st4" cx="303.1" cy="111" r="2.4"/>
	<circle class="st4" cx="373.7" cy="80.8" r="2.4"/>
	<circle class="st4" cx="297" cy="106.9" r="2.4"/>
	<line class="st2" x1="303.3" y1="111" x2="58.4" y2="240.6"/>
</g>
</svg>
