<?xml version="1.0" encoding="utf-8"?>
<!-- Generator: Adobe Illustrator 23.1.1, SVG Export Plug-In . SVG Version: 6.00 Build 0)  -->
<svg version="1.1" id="Layer_1" xmlns="http://www.w3.org/2000/svg" xmlns:xlink="http://www.w3.org/1999/xlink" x="0px" y="0px"
	 viewBox="0 0 668.75 488.43" style="enable-background:new 0 0 668.75 488.43;" xml:space="preserve">
<style type="text/css">
	.st0{fill:none;stroke:#FFFFFF;stroke-width:0.396;stroke-linejoin:round;stroke-miterlimit:10;}
	.st1{fill:none;stroke:#FFFFFF;stroke-width:0.9853;stroke-linejoin:round;stroke-miterlimit:10;}
	.st2{fill:#FFFFFF;}
	.st3{font-family:'Roboto';}
	.st4{font-size:8px;}
	.st5{opacity:0.3;fill:#FFFFFF;enable-background:new    ;}
	.st6{opacity:0.3;fill:#2E8EA4;enable-background:new    ;}
	.st7{fill:none;stroke:#2E8EA4;stroke-width:10.0401;stroke-miterlimit:10;}
	.st8{fill:none;stroke:#000000;stroke-width:10.0378;stroke-linejoin:round;stroke-miterlimit:10;}
	.st9{fill:none;stroke:#FFFFFF;stroke-width:0.4986;stroke-linejoin:round;stroke-miterlimit:10;}
	.st10{fill:#237183;}
	.st11{fill:none;stroke:#FFFFFF;stroke-width:0.43;stroke-linejoin:round;stroke-miterlimit:10;}
	.st12{font-size:9px;}
	.st13{fill:none;stroke:#FFFFFF;stroke-width:1.07;stroke-linejoin:round;stroke-miterlimit:10;}
	.st14{fill:none;}
	.st15{font-size:10.0046px;}
	.st16{fill:#2E8EA4;}
	.st17{font-size:10px;}
	.st18{fill:none;stroke:#2E8EA4;stroke-miterlimit:10;}
	.st19{font-size:17px;}
	.st20{fill:none;stroke:#000000;stroke-miterlimit:10;}
</style>
<g id="newscaffold">
	<line class="st0" x1="84.31" y1="259.31" x2="635.94" y2="259.31"/>
	<line class="st0" x1="100.87" y1="259.31" x2="100.87" y2="267.04"/>
	<line class="st1" x1="84.31" y1="259.31" x2="84.31" y2="279.25"/>
	<line class="st0" x1="115.82" y1="259.31" x2="115.82" y2="267.04"/>
	<line class="st0" x1="132.37" y1="259.31" x2="132.37" y2="267.04"/>
	<line class="st0" x1="148.4" y1="259.31" x2="148.4" y2="267.04"/>
	<line class="st0" x1="164.95" y1="259.31" x2="164.95" y2="267.04"/>
	<line class="st0" x1="180.97" y1="259.31" x2="180.97" y2="267.04"/>
	<line class="st0" x1="197.53" y1="259.31" x2="197.53" y2="267.04"/>
	<line class="st0" x1="214.08" y1="259.31" x2="214.08" y2="267.04"/>
	<line class="st0" x1="230.1" y1="259.31" x2="230.1" y2="267.04"/>
	<line class="st0" x1="246.65" y1="259.31" x2="246.65" y2="267.04"/>
	<line class="st0" x1="262.67" y1="259.31" x2="262.67" y2="267.04"/>
	<line class="st0" x1="279.22" y1="259.31" x2="279.22" y2="267.04"/>
	<line class="st0" x1="295.78" y1="259.31" x2="295.78" y2="267.04"/>
	<line class="st0" x1="310.73" y1="259.31" x2="310.73" y2="267.04"/>
	<line class="st0" x1="327.29" y1="259.31" x2="327.29" y2="267.04"/>
	<line class="st0" x1="343.31" y1="259.31" x2="343.31" y2="267.04"/>
	<line class="st0" x1="359.86" y1="259.31" x2="359.86" y2="267.04"/>
	<line class="st0" x1="375.88" y1="259.31" x2="375.88" y2="267.04"/>
	<line class="st0" x1="392.44" y1="259.31" x2="392.44" y2="267.04"/>
	<line class="st0" x1="408.99" y1="259.31" x2="408.99" y2="267.04"/>
	<line class="st0" x1="425.01" y1="259.31" x2="425.01" y2="267.04"/>
	<line class="st0" x1="441.57" y1="259.31" x2="441.57" y2="267.04"/>
	<line class="st0" x1="457.59" y1="259.31" x2="457.59" y2="267.04"/>
	<line class="st0" x1="474.14" y1="259.31" x2="474.14" y2="267.04"/>
	<line class="st0" x1="490.7" y1="259.31" x2="490.7" y2="267.04"/>
	<line class="st0" x1="505.65" y1="259.31" x2="505.65" y2="267.04"/>
	<line class="st0" x1="522.21" y1="259.31" x2="522.21" y2="267.04"/>
	<line class="st0" x1="538.23" y1="259.31" x2="538.23" y2="267.04"/>
	<line class="st0" x1="554.78" y1="259.31" x2="554.78" y2="267.04"/>
	<line class="st0" x1="570.8" y1="259.31" x2="570.8" y2="267.04"/>
	<line class="st0" x1="587.36" y1="259.31" x2="587.36" y2="267.04"/>
	<line class="st0" x1="603.9" y1="259.31" x2="603.9" y2="267.04"/>
	<line class="st0" x1="619.92" y1="259.31" x2="619.92" y2="267.04"/>
	<line class="st1" x1="279.22" y1="279.25" x2="279.22" y2="259.31"/>
	<line class="st1" x1="474.14" y1="279.25" x2="474.14" y2="259.31"/>
	<g>
		<text transform="matrix(1.0171 0 0 1 91.0356 272.3374)" class="st2 st3 st4">J</text>
		<text transform="matrix(1.0171 0 0 1 106.0996 272.3374)" class="st2 st3 st4">F</text>
		<text transform="matrix(1.0171 0 0 1 120.5991 272.3374)" class="st2 st3 st4">M</text>
		<text transform="matrix(1.0171 0 0 1 137.4668 272.3374)" class="st2 st3 st4">A</text>
		<text transform="matrix(1.0171 0 0 1 152.7769 272.3374)" class="st2 st3 st4">M</text>
		<text transform="matrix(1.0171 0 0 1 170.4629 272.3374)" class="st2 st3 st4">J</text>
		<text transform="matrix(1.0171 0 0 1 186.5518 272.3374)" class="st2 st3 st4">J</text>
		<text transform="matrix(1.0171 0 0 1 202.8394 272.3374)" class="st2 st3 st4">A</text>
		<text transform="matrix(1.0171 0 0 1 219.4087 272.3374)" class="st2 st3 st4">S</text>
		<text transform="matrix(1.0171 0 0 1 235.7476 272.3374)" class="st2 st3 st4">O</text>
		<text transform="matrix(1.0171 0 0 1 251.6304 272.3374)" class="st2 st3 st4">N</text>
		<text transform="matrix(1.0171 0 0 1 268.1836 272.3374)" class="st2 st3 st4">D</text>
		<text transform="matrix(1.0171 0 0 1 285.4204 272.3374)" class="st2 st3 st4">J</text>
		<text transform="matrix(1.0171 0 0 1 300.4839 272.3374)" class="st2 st3 st4">F</text>
		<text transform="matrix(1.0171 0 0 1 314.9834 272.3374)" class="st2 st3 st4">M</text>
		<text transform="matrix(1.0171 0 0 1 331.8506 272.3374)" class="st2 st3 st4">A</text>
		<text transform="matrix(1.0171 0 0 1 347.1611 272.3374)" class="st2 st3 st4">M</text>
		<text transform="matrix(1.0171 0 0 1 364.8477 272.3374)" class="st2 st3 st4">J</text>
		<text transform="matrix(1.0171 0 0 1 380.9365 272.3374)" class="st2 st3 st4">J</text>
		<text transform="matrix(1.0171 0 0 1 397.2236 272.3374)" class="st2 st3 st4">A</text>
		<text transform="matrix(1.0171 0 0 1 413.7939 272.3374)" class="st2 st3 st4">S</text>
		<text transform="matrix(1.0171 0 0 1 430.1318 272.3374)" class="st2 st3 st4">O</text>
		<text transform="matrix(1.0171 0 0 1 446.0146 272.3374)" class="st2 st3 st4">N</text>
		<text transform="matrix(1.0171 0 0 1 462.5684 272.3374)" class="st2 st3 st4">D</text>
		<text transform="matrix(1.0171 0 0 1 481.0459 272.3374)" class="st2 st3 st4">J</text>
		<text transform="matrix(1.0171 0 0 1 496.1084 272.3374)" class="st2 st3 st4">F</text>
		<text transform="matrix(1.0171 0 0 1 510.6084 272.3374)" class="st2 st3 st4">M</text>
		<text transform="matrix(1.0171 0 0 1 527.4756 272.3374)" class="st2 st3 st4">A</text>
		<text transform="matrix(1.0171 0 0 1 542.7861 272.3374)" class="st2 st3 st4">M</text>
		<text transform="matrix(1.0171 0 0 1 560.4727 272.3374)" class="st2 st3 st4">J</text>
		<text transform="matrix(1.0171 0 0 1 576.5615 272.3374)" class="st2 st3 st4">J</text>
		<text transform="matrix(1.0171 0 0 1 592.8486 272.3374)" class="st2 st3 st4">A</text>
		<text transform="matrix(1.0171 0 0 1 609.4189 272.3374)" class="st2 st3 st4">S</text>
		<text transform="matrix(1.0171 0 0 1 625.7568 272.3374)" class="st2 st3 st4">O</text>
	</g>
</g>
<g id="timeline">
	<rect x="305.69" y="9.14" class="st5" width="6.91" height="321.33"/>
	<rect x="497.88" y="9.14" class="st6" width="0.5" height="321.33"/>
	<rect x="326.45" y="9.14" class="st5" width="5.33" height="341.8"/>
	<rect x="326.45" y="9.14" class="st5" width="0.5" height="331.6"/>
	<rect x="349.86" y="9.14" class="st5" width="0.5" height="382.89"/>
	<rect x="486.52" y="9.14" class="st5" width="0.5" height="413.83"/>
	<rect x="494" y="9.14" class="st5" width="1.58" height="372.66"/>
	<rect x="536.03" y="9.14" class="st5" width="0.5" height="382.93"/>
	<rect x="536.05" y="9.14" class="st5" width="0.5" height="423.63"/>
	<rect x="537.09" y="9.14" class="st5" width="0.5" height="434.25"/>
	<rect x="539.75" y="9.14" class="st5" width="0.5" height="444.52"/>
	<rect x="335.48" y="9.14" class="st5" width="2.09" height="352.13"/>
	<rect x="339.16" y="9.14" class="st5" width="3.74" height="361.44"/>
	<rect x="339.71" y="9.14" class="st5" width="7.99" height="372.28"/>
	<rect x="479.1" y="9.14" class="st5" width="4.25" height="403.45"/>
	<rect x="499.05" y="9.14" class="st5" width="3.74" height="403.45"/>
	<rect x="625.91" y="9.14" class="st5" width="7.42" height="454.16"/>
	<rect x="382.84" y="9.14" class="st5" width="20.23" height="393.19"/>
	<line class="st7" x1="305.69" y1="325.34" x2="312.6" y2="325.34"/>
	<line class="st7" x1="498.25" y1="325.34" x2="498.78" y2="325.34"/>
	<line class="st8" x1="326.43" y1="335.6" x2="326.97" y2="335.6"/>
	<line class="st8" x1="326.43" y1="345.87" x2="331.75" y2="345.87"/>
	<line class="st8" x1="335.48" y1="356.13" x2="337.6" y2="356.13"/>
	<line class="st8" x1="339.2" y1="366.4" x2="342.92" y2="366.4"/>
	<line class="st8" x1="339.74" y1="376.66" x2="347.71" y2="376.66"/>
	<line class="st8" x1="493.99" y1="376.66" x2="495.59" y2="376.66"/>
	<line class="st8" x1="349.84" y1="386.93" x2="350.37" y2="386.93"/>
	<line class="st8" x1="536.02" y1="386.93" x2="536.54" y2="386.93"/>
	<line class="st8" x1="403.03" y1="397.2" x2="382.82" y2="397.2"/>
	<line class="st8" x1="479.09" y1="407.46" x2="483.35" y2="407.46"/>
	<line class="st8" x1="499.31" y1="407.46" x2="503.03" y2="407.46"/>
	<line class="st8" x1="525.37" y1="407.46" x2="525.37" y2="407.46"/>
	<line class="st8" x1="486.54" y1="417.73" x2="487.08" y2="417.73"/>
	<line class="st8" x1="536.02" y1="427.99" x2="536.54" y2="427.99"/>
	<line class="st8" x1="537.08" y1="438.25" x2="537.61" y2="438.25"/>
	<line class="st8" x1="539.74" y1="448.52" x2="540.27" y2="448.52"/>
	<line class="st8" x1="625.91" y1="458.78" x2="633.36" y2="458.78"/>
	<line class="st9" x1="304.98" y1="320.2" x2="635.62" y2="320.2"/>
	<line class="st9" x1="326.45" y1="330.47" x2="635.62" y2="330.47"/>
	<line class="st9" x1="326.45" y1="340.74" x2="635.62" y2="340.74"/>
	<line class="st9" x1="335.48" y1="351" x2="635.62" y2="351"/>
	<line class="st9" x1="339.2" y1="361.27" x2="635.62" y2="361.27"/>
	<line class="st9" x1="339.74" y1="371.53" x2="635.62" y2="371.53"/>
	<line class="st9" x1="350.37" y1="381.79" x2="635.62" y2="381.79"/>
	<line class="st9" x1="382.82" y1="392.06" x2="635.62" y2="392.06"/>
	<line class="st9" x1="478.44" y1="402.32" x2="635.62" y2="402.32"/>
	<line class="st9" x1="486.52" y1="412.59" x2="635.62" y2="412.59"/>
	<line class="st9" x1="536.08" y1="422.86" x2="635.62" y2="422.86"/>
	<line class="st9" x1="537.08" y1="433.12" x2="635.62" y2="433.12"/>
	<line class="st9" x1="539.52" y1="443.39" x2="635.62" y2="443.39"/>
	<line class="st9" x1="625.91" y1="453.65" x2="635.62" y2="453.65"/>
	<text transform="matrix(1.031 0 0 1 610.8457 461.5024)" class="st2 st3 st4">IL</text>
	<text transform="matrix(1.031 0 0 1 523.1523 451.2358)" class="st2 st3 st4">OR</text>
	<text transform="matrix(1.031 0 0 1 524.1074 440.9712)" class="st2 st3 st4">TN</text>
	<text transform="matrix(1.031 0 0 1 520.3369 430.7133)" class="st2 st3 st4">SC</text>
	<text transform="matrix(1.031 0 0 1 473.5654 420.4467)" class="st2 st3 st4">VA</text>
	<text transform="matrix(1.031 0 0 1 460.1846 410.1801)" class="st2 st3 st4">CA</text>
	<text transform="matrix(1.031 0 0 1 363.2383 399.9145)" class="st2 st3 st4">WA</text>
	<text transform="matrix(1.031 0 0 1 334.416 389.6499)" class="st2 st3 st4">NC</text>
	<text transform="matrix(1.031 0 0 1 324.0908 379.3833)" class="st2 st3 st4">CO</text>
	<text transform="matrix(1.031 0 0 1 325.9229 369.1157)" class="st2 st3 st4">AZ</text>
	<text transform="matrix(1.031 0 0 1 321.8574 358.851)" class="st2 st3 st4">GA</text>
	<text transform="matrix(1.031 0 0 1 311.9541 348.5844)" class="st2 st3 st4">OK</text>
	<text transform="matrix(1.031 0 0 1 312.2217 338.3276)" class="st2 st3 st4">KY</text>
	<g>
		<text transform="matrix(1 0 0 1 285.571 328.0608)" class="st10 st3 st4">WV</text>
	</g>
</g>
<g>
	<rect x="94.65" y="252.77" width="2.69" height="6.54"/>
	<rect x="98.39" y="246.24" width="2.69" height="13.07"/>
	<rect x="102.12" y="246.24" width="2.69" height="13.07"/>
	<rect x="105.86" y="226.63" width="2.69" height="32.68"/>
	<rect x="109.6" y="233.17" width="2.69" height="26.14"/>
	<rect x="113.33" y="220.1" width="2.69" height="39.21"/>
	<rect x="117.07" y="220.1" width="2.69" height="39.21"/>
	<rect x="120.8" y="161.28" width="2.69" height="98.03"/>
	<rect x="124.54" y="174.35" width="2.69" height="84.96"/>
	<rect x="128.28" y="239.7" width="2.69" height="19.61"/>
	<rect x="132.01" y="187.42" width="2.69" height="71.89"/>
	<rect x="135.75" y="220.1" width="2.69" height="39.21"/>
	<rect x="139.49" y="213.56" width="2.69" height="45.75"/>
	<rect x="143.22" y="239.7" width="2.69" height="19.61"/>
	<rect x="146.96" y="207.03" width="2.69" height="52.28"/>
	<rect x="150.69" y="154.75" width="2.69" height="104.56"/>
	<rect x="154.43" y="193.96" width="2.69" height="65.35"/>
	<rect x="158.17" y="233.17" width="2.69" height="26.14"/>
	<rect x="161.9" y="252.77" width="2.69" height="6.54"/>
	<rect x="165.64" y="213.56" width="2.69" height="45.75"/>
	<rect x="169.38" y="226.63" width="2.69" height="32.68"/>
	<rect x="173.11" y="246.24" width="2.69" height="13.07"/>
	<rect x="176.85" y="239.7" width="2.69" height="19.61"/>
	<rect x="184.32" y="252.77" width="2.69" height="6.54"/>
	<rect x="188.06" y="187.42" width="2.69" height="71.89"/>
	<rect x="191.79" y="239.7" width="2.69" height="19.61"/>
	<rect x="195.53" y="252.77" width="2.69" height="6.54"/>
	<rect x="199.27" y="246.24" width="2.69" height="13.07"/>
	<rect x="203" y="246.24" width="2.69" height="13.07"/>
	<rect x="206.74" y="246.24" width="2.69" height="13.07"/>
	<rect x="210.47" y="239.7" width="2.69" height="19.61"/>
	<rect x="217.95" y="207.03" width="2.69" height="52.28"/>
	<rect x="221.68" y="239.7" width="2.69" height="19.61"/>
	<rect x="225.42" y="180.89" width="2.69" height="78.42"/>
	<rect x="229.15" y="233.17" width="2.69" height="26.14"/>
	<rect x="232.89" y="193.96" width="2.69" height="65.35"/>
	<rect x="236.63" y="220.1" width="2.69" height="39.21"/>
	<rect x="240.36" y="220.1" width="2.69" height="39.21"/>
	<rect x="244.1" y="252.77" width="2.69" height="6.54"/>
	<rect x="247.84" y="246.24" width="2.69" height="13.07"/>
	<rect x="251.57" y="213.56" width="2.69" height="45.75"/>
	<rect x="259.04" y="233.17" width="2.69" height="26.14"/>
	<rect x="262.78" y="226.63" width="2.69" height="32.68"/>
	<rect x="266.52" y="233.17" width="2.69" height="26.14"/>
	<rect x="270.25" y="246.24" width="2.69" height="13.07"/>
	<rect x="277.73" y="246.24" width="2.69" height="13.07"/>
	<rect x="281.46" y="239.7" width="2.69" height="19.61"/>
	<rect x="285.2" y="246.24" width="2.69" height="13.07"/>
	<rect x="288.93" y="174.35" width="2.69" height="84.96"/>
	<rect x="292.67" y="161.28" width="2.69" height="98.03"/>
	<rect x="296.41" y="154.75" width="2.69" height="104.56"/>
	<rect x="300.14" y="122.07" width="2.69" height="137.24"/>
	<rect x="303.88" y="102.47" width="2.69" height="156.84"/>
	<rect x="307.62" y="161.28" width="2.69" height="98.03"/>
	<rect x="311.35" y="187.42" width="2.69" height="71.89"/>
	<rect x="315.09" y="161.28" width="2.69" height="98.03"/>
	<rect x="318.82" y="141.68" width="2.69" height="117.63"/>
	<rect x="322.56" y="115.54" width="2.69" height="143.77"/>
	<rect x="326.3" y="56.72" width="2.69" height="202.59"/>
	<rect x="330.03" y="24.05" width="2.69" height="235.26"/>
	<rect x="333.77" y="141.68" width="2.69" height="117.63"/>
	<rect x="337.51" y="63.26" width="2.69" height="196.05"/>
	<rect x="341.24" y="213.56" width="2.69" height="45.75"/>
	<rect x="344.98" y="148.21" width="2.69" height="111.1"/>
	<rect x="348.71" y="187.42" width="2.69" height="71.89"/>
	<rect x="352.45" y="220.1" width="2.69" height="39.21"/>
	<rect x="356.19" y="220.1" width="2.69" height="39.21"/>
	<rect x="359.92" y="246.24" width="2.69" height="13.07"/>
	<rect x="363.66" y="239.7" width="2.69" height="19.61"/>
	<rect x="367.39" y="220.1" width="2.69" height="39.21"/>
	<rect x="371.13" y="252.77" width="2.69" height="6.54"/>
	<rect x="382.34" y="246.24" width="2.69" height="13.07"/>
	<rect x="386.08" y="252.77" width="2.69" height="6.54"/>
	<rect x="389.81" y="246.24" width="2.69" height="13.07"/>
	<rect x="393.55" y="239.7" width="2.69" height="19.61"/>
	<rect x="397.28" y="246.24" width="2.69" height="13.07"/>
	<rect x="401.02" y="193.96" width="2.69" height="65.35"/>
	<rect x="404.76" y="220.1" width="2.69" height="39.21"/>
	<rect x="408.49" y="246.24" width="2.69" height="13.07"/>
	<rect x="412.23" y="187.42" width="2.69" height="71.89"/>
	<rect x="415.97" y="226.63" width="2.69" height="32.68"/>
	<rect x="419.7" y="207.03" width="2.69" height="52.28"/>
	<rect x="423.44" y="193.96" width="2.69" height="65.35"/>
	<rect x="427.17" y="226.63" width="2.69" height="32.68"/>
	<rect x="430.91" y="213.56" width="2.69" height="45.75"/>
	<rect x="434.65" y="200.49" width="2.69" height="58.82"/>
	<rect x="438.38" y="239.7" width="2.69" height="19.61"/>
	<rect x="442.12" y="239.7" width="2.69" height="19.61"/>
	<rect x="445.86" y="213.56" width="2.69" height="45.75"/>
	<rect x="449.59" y="246.24" width="2.69" height="13.07"/>
	<rect x="453.33" y="226.63" width="2.69" height="32.68"/>
	<rect x="457.06" y="213.56" width="2.69" height="45.75"/>
	<rect x="460.8" y="226.63" width="2.69" height="32.68"/>
	<rect x="464.54" y="233.17" width="2.69" height="26.14"/>
	<rect x="468.27" y="252.77" width="2.69" height="6.54"/>
	<rect x="472.01" y="252.77" width="2.69" height="6.54"/>
	<rect x="475.75" y="246.24" width="2.69" height="13.07"/>
	<rect x="479.48" y="220.1" width="2.69" height="39.21"/>
	<rect x="483.22" y="187.42" width="2.69" height="71.89"/>
	<rect x="486.95" y="220.1" width="2.69" height="39.21"/>
	<rect x="490.69" y="233.17" width="2.69" height="26.14"/>
	<rect x="494.43" y="226.63" width="2.69" height="32.68"/>
	<rect x="498.16" y="187.42" width="2.69" height="71.89"/>
	<rect x="501.9" y="200.49" width="2.69" height="58.82"/>
	<rect x="505.63" y="128.61" width="2.69" height="130.7"/>
	<rect x="509.37" y="200.49" width="2.69" height="58.82"/>
	<rect x="513.11" y="193.96" width="2.69" height="65.35"/>
	<rect x="516.84" y="207.03" width="2.69" height="52.28"/>
	<rect x="520.58" y="167.82" width="2.69" height="91.49"/>
	<rect x="524.32" y="148.21" width="2.69" height="111.1"/>
	<rect x="528.05" y="128.61" width="2.69" height="130.7"/>
	<rect x="531.79" y="154.75" width="2.69" height="104.56"/>
	<rect x="535.52" y="148.21" width="2.69" height="111.1"/>
	<rect x="539.26" y="109" width="2.69" height="150.31"/>
	<rect x="543" y="115.54" width="2.69" height="143.77"/>
	<rect x="546.73" y="148.21" width="2.69" height="111.1"/>
	<rect x="550.47" y="220.1" width="2.69" height="39.21"/>
	<rect x="554.21" y="233.17" width="2.69" height="26.14"/>
	<rect x="557.94" y="200.49" width="2.69" height="58.82"/>
	<rect x="561.68" y="187.42" width="2.69" height="71.89"/>
	<rect x="565.41" y="207.03" width="2.69" height="52.28"/>
	<rect x="569.15" y="252.77" width="2.69" height="6.54"/>
	<rect x="572.89" y="252.77" width="2.69" height="6.54"/>
	<rect x="576.62" y="233.17" width="2.69" height="26.14"/>
	<rect x="580.36" y="246.24" width="2.69" height="13.07"/>
	<rect x="584.1" y="246.24" width="2.69" height="13.07"/>
	<rect x="587.83" y="252.77" width="2.69" height="6.54"/>
	<rect x="591.57" y="252.77" width="2.69" height="6.54"/>
	<rect x="595.3" y="239.7" width="2.69" height="19.61"/>
	<rect x="599.04" y="233.17" width="2.69" height="26.14"/>
	<rect x="602.78" y="226.63" width="2.69" height="32.68"/>
	<rect x="606.51" y="180.89" width="2.69" height="78.42"/>
	<rect x="610.25" y="207.03" width="2.69" height="52.28"/>
	<rect x="613.98" y="220.1" width="2.69" height="39.21"/>
	<rect x="617.72" y="239.7" width="2.69" height="19.61"/>
	<rect x="621.46" y="252.77" width="2.69" height="6.54"/>
	<rect x="625.19" y="226.63" width="2.69" height="32.68"/>
	<rect x="628.93" y="180.89" width="2.69" height="78.42"/>
	<rect x="632.67" y="246.24" width="2.69" height="13.07"/>
	<line class="st11" x1="84.26" y1="259.31" x2="635.62" y2="259.31"/>
	<line class="st11" x1="84.26" y1="259.31" x2="635.62" y2="259.31"/>
	<line class="st11" x1="84.26" y1="259.31" x2="635.62" y2="259.31"/>
	<line class="st11" x1="84.26" y1="259.31" x2="635.62" y2="259.31"/>
	<line class="st11" x1="84.26" y1="259.31" x2="635.62" y2="259.31"/>
	<line class="st11" x1="84.26" y1="259.31" x2="635.62" y2="259.31"/>
	<line class="st11" x1="84.26" y1="259.31" x2="635.62" y2="259.31"/>
	<line class="st11" x1="84.26" y1="259.31" x2="635.62" y2="259.31"/>
	<line class="st11" x1="84.26" y1="259.31" x2="635.62" y2="259.31"/>
	<line class="st11" x1="84.26" y1="259.31" x2="635.62" y2="259.31"/>
	<line class="st11" x1="84.26" y1="259.31" x2="635.62" y2="259.31"/>
	<line class="st11" x1="84.26" y1="259.31" x2="635.62" y2="259.31"/>
	<line class="st11" x1="84.26" y1="259.31" x2="635.62" y2="259.31"/>
	<line class="st11" x1="84.26" y1="259.31" x2="635.62" y2="259.31"/>
	<line class="st11" x1="84.26" y1="259.31" x2="635.62" y2="259.31"/>
	<line class="st11" x1="84.26" y1="259.31" x2="635.62" y2="259.31"/>
	<line class="st11" x1="84.26" y1="259.31" x2="635.62" y2="259.31"/>
	<line class="st11" x1="84.26" y1="259.31" x2="635.62" y2="259.31"/>
	<line class="st11" x1="84.26" y1="259.31" x2="635.62" y2="259.31"/>
	<line class="st11" x1="84.26" y1="259.31" x2="635.62" y2="259.31"/>
	<line class="st11" x1="84.26" y1="259.31" x2="635.62" y2="259.31"/>
	<line class="st11" x1="84.26" y1="259.31" x2="635.62" y2="259.31"/>
	<line class="st11" x1="84.26" y1="259.31" x2="635.62" y2="259.31"/>
	<line class="st11" x1="84.26" y1="259.31" x2="635.62" y2="259.31"/>
	<line class="st11" x1="84.26" y1="259.31" x2="635.62" y2="259.31"/>
	<line class="st11" x1="84.26" y1="259.31" x2="635.62" y2="259.31"/>
	<line class="st11" x1="84.26" y1="259.31" x2="635.62" y2="259.31"/>
	<line class="st11" x1="84.26" y1="259.31" x2="635.62" y2="259.31"/>
	<line class="st11" x1="84.26" y1="259.31" x2="635.62" y2="259.31"/>
	<line class="st11" x1="84.26" y1="259.31" x2="635.62" y2="259.31"/>
	<line class="st11" x1="84.26" y1="259.31" x2="635.62" y2="259.31"/>
	<line class="st11" x1="84.26" y1="259.31" x2="635.62" y2="259.31"/>
	<line class="st11" x1="84.26" y1="259.31" x2="635.62" y2="259.31"/>
	<line class="st11" x1="84.26" y1="259.31" x2="635.62" y2="259.31"/>
	<line class="st11" x1="84.26" y1="259.31" x2="635.62" y2="259.31"/>
	<line class="st11" x1="84.26" y1="259.31" x2="635.62" y2="259.31"/>
	<line class="st11" x1="84.26" y1="259.31" x2="635.62" y2="259.31"/>
	<line class="st11" x1="84.26" y1="259.31" x2="635.62" y2="259.31"/>
	<line class="st11" x1="84.26" y1="259.31" x2="635.62" y2="259.31"/>
	<line class="st11" x1="84.26" y1="259.31" x2="635.62" y2="259.31"/>
	<line class="st11" x1="84.26" y1="259.31" x2="635.62" y2="259.31"/>
	<line class="st11" x1="84.26" y1="259.31" x2="635.62" y2="259.31"/>
	<line class="st11" x1="84.26" y1="259.31" x2="635.62" y2="259.31"/>
	<line class="st11" x1="84.26" y1="259.31" x2="635.62" y2="259.31"/>
	<line class="st11" x1="84.26" y1="259.31" x2="635.62" y2="259.31"/>
	<line class="st11" x1="84.26" y1="259.31" x2="635.62" y2="259.31"/>
	<line class="st11" x1="84.26" y1="259.31" x2="635.62" y2="259.31"/>
	<line class="st11" x1="84.26" y1="259.31" x2="635.62" y2="259.31"/>
	<line class="st11" x1="84.26" y1="259.31" x2="635.62" y2="259.31"/>
	<line class="st11" x1="84.26" y1="259.31" x2="635.62" y2="259.31"/>
	<line class="st11" x1="84.26" y1="259.31" x2="635.62" y2="259.31"/>
	<line class="st11" x1="84.26" y1="259.31" x2="635.62" y2="259.31"/>
	<line class="st11" x1="84.26" y1="259.31" x2="635.62" y2="259.31"/>
	<line class="st11" x1="84.26" y1="259.31" x2="635.62" y2="259.31"/>
	<line class="st11" x1="84.26" y1="259.31" x2="635.62" y2="259.31"/>
	<line class="st11" x1="84.26" y1="259.31" x2="635.62" y2="259.31"/>
	<line class="st11" x1="84.26" y1="259.31" x2="635.62" y2="259.31"/>
	<line class="st11" x1="84.26" y1="259.31" x2="635.62" y2="259.31"/>
	<line class="st11" x1="84.26" y1="259.31" x2="635.62" y2="259.31"/>
	<line class="st11" x1="84.26" y1="259.31" x2="635.62" y2="259.31"/>
	<line class="st11" x1="84.26" y1="259.31" x2="635.62" y2="259.31"/>
	<line class="st11" x1="84.26" y1="259.31" x2="635.62" y2="259.31"/>
	<line class="st11" x1="84.26" y1="259.31" x2="635.62" y2="259.31"/>
	<line class="st11" x1="84.26" y1="259.31" x2="635.62" y2="259.31"/>
	<line class="st11" x1="84.26" y1="259.31" x2="635.62" y2="259.31"/>
	<line class="st11" x1="84.26" y1="259.31" x2="635.62" y2="259.31"/>
	<line class="st11" x1="84.26" y1="259.31" x2="635.62" y2="259.31"/>
	<line class="st11" x1="84.26" y1="259.31" x2="635.62" y2="259.31"/>
	<line class="st11" x1="84.26" y1="259.31" x2="635.62" y2="259.31"/>
	<line class="st11" x1="84.26" y1="259.31" x2="635.62" y2="259.31"/>
	<line class="st11" x1="84.26" y1="259.31" x2="635.62" y2="259.31"/>
	<line class="st11" x1="84.26" y1="259.31" x2="635.62" y2="259.31"/>
	<line class="st11" x1="84.26" y1="259.31" x2="635.62" y2="259.31"/>
	<line class="st11" x1="84.26" y1="259.31" x2="635.62" y2="259.31"/>
	<line class="st11" x1="84.26" y1="259.31" x2="635.62" y2="259.31"/>
	<line class="st11" x1="84.26" y1="259.31" x2="635.62" y2="259.31"/>
	<line class="st11" x1="84.26" y1="259.31" x2="635.62" y2="259.31"/>
	<line class="st11" x1="84.26" y1="259.31" x2="635.62" y2="259.31"/>
	<line class="st11" x1="84.26" y1="259.31" x2="635.62" y2="259.31"/>
	<line class="st11" x1="84.26" y1="259.31" x2="635.62" y2="259.31"/>
	<line class="st11" x1="84.26" y1="259.31" x2="635.62" y2="259.31"/>
	<line class="st11" x1="84.26" y1="259.31" x2="635.62" y2="259.31"/>
	<line class="st11" x1="84.26" y1="259.31" x2="635.62" y2="259.31"/>
	<line class="st11" x1="84.26" y1="259.31" x2="635.62" y2="259.31"/>
	<line class="st11" x1="84.26" y1="259.31" x2="635.62" y2="259.31"/>
	<line class="st11" x1="84.26" y1="259.31" x2="635.62" y2="259.31"/>
	<line class="st11" x1="84.26" y1="259.31" x2="635.62" y2="259.31"/>
	<line class="st11" x1="84.26" y1="259.31" x2="635.62" y2="259.31"/>
	<line class="st11" x1="84.26" y1="259.31" x2="635.62" y2="259.31"/>
	<line class="st11" x1="84.26" y1="259.31" x2="635.62" y2="259.31"/>
	<line class="st11" x1="84.26" y1="259.31" x2="635.62" y2="259.31"/>
	<line class="st11" x1="84.26" y1="259.31" x2="635.62" y2="259.31"/>
	<line class="st11" x1="84.26" y1="259.31" x2="635.62" y2="259.31"/>
	<line class="st11" x1="84.26" y1="259.31" x2="635.62" y2="259.31"/>
	<line class="st11" x1="84.26" y1="259.31" x2="635.62" y2="259.31"/>
	<line class="st11" x1="84.26" y1="259.31" x2="635.62" y2="259.31"/>
	<line class="st11" x1="84.26" y1="259.31" x2="635.62" y2="259.31"/>
	<line class="st11" x1="84.26" y1="259.31" x2="635.62" y2="259.31"/>
	<line class="st11" x1="84.26" y1="259.31" x2="635.62" y2="259.31"/>
	<line class="st11" x1="84.26" y1="259.31" x2="635.62" y2="259.31"/>
	<line class="st11" x1="84.26" y1="259.31" x2="635.62" y2="259.31"/>
	<line class="st11" x1="84.26" y1="259.31" x2="635.62" y2="259.31"/>
	<line class="st11" x1="84.26" y1="259.31" x2="635.62" y2="259.31"/>
	<line class="st11" x1="84.26" y1="259.31" x2="635.62" y2="259.31"/>
	<line class="st11" x1="84.26" y1="259.31" x2="635.62" y2="259.31"/>
	<line class="st11" x1="84.26" y1="259.31" x2="635.62" y2="259.31"/>
	<line class="st11" x1="84.26" y1="259.31" x2="635.62" y2="259.31"/>
	<line class="st11" x1="84.26" y1="259.31" x2="635.62" y2="259.31"/>
	<line class="st11" x1="84.26" y1="259.31" x2="635.62" y2="259.31"/>
	<line class="st11" x1="84.26" y1="259.31" x2="635.62" y2="259.31"/>
	<line class="st11" x1="84.26" y1="259.31" x2="635.62" y2="259.31"/>
	<line class="st11" x1="84.26" y1="259.31" x2="635.62" y2="259.31"/>
	<line class="st11" x1="84.26" y1="259.31" x2="635.62" y2="259.31"/>
	<line class="st11" x1="84.26" y1="259.31" x2="635.62" y2="259.31"/>
	<line class="st11" x1="84.26" y1="259.31" x2="635.62" y2="259.31"/>
	<line class="st11" x1="84.26" y1="259.31" x2="635.62" y2="259.31"/>
	<line class="st11" x1="84.26" y1="259.31" x2="635.62" y2="259.31"/>
	<line class="st11" x1="84.26" y1="259.31" x2="635.62" y2="259.31"/>
	<line class="st11" x1="84.26" y1="259.31" x2="635.62" y2="259.31"/>
	<line class="st11" x1="84.26" y1="259.31" x2="635.62" y2="259.31"/>
	<line class="st11" x1="84.26" y1="259.31" x2="635.62" y2="259.31"/>
	<line class="st11" x1="84.26" y1="259.31" x2="635.62" y2="259.31"/>
	<line class="st11" x1="84.26" y1="259.31" x2="635.62" y2="259.31"/>
	<line class="st11" x1="84.26" y1="259.31" x2="635.62" y2="259.31"/>
	<line class="st11" x1="84.26" y1="259.31" x2="635.62" y2="259.31"/>
	<line class="st11" x1="84.26" y1="259.31" x2="635.62" y2="259.31"/>
	<line class="st11" x1="84.26" y1="259.31" x2="635.62" y2="259.31"/>
	<line class="st11" x1="84.26" y1="259.31" x2="635.62" y2="259.31"/>
	<line class="st11" x1="84.26" y1="259.31" x2="635.62" y2="259.31"/>
	<line class="st11" x1="84.26" y1="259.31" x2="635.62" y2="259.31"/>
	<line class="st11" x1="84.26" y1="259.31" x2="635.62" y2="259.31"/>
	<line class="st11" x1="84.26" y1="259.31" x2="635.62" y2="259.31"/>
	<line class="st11" x1="84.26" y1="259.31" x2="635.62" y2="259.31"/>
	<line class="st11" x1="84.26" y1="259.31" x2="635.62" y2="259.31"/>
	<line class="st11" x1="84.26" y1="259.31" x2="635.62" y2="259.31"/>
	<line class="st11" x1="84.26" y1="259.31" x2="635.62" y2="259.31"/>
	<line class="st11" x1="84.26" y1="259.31" x2="635.62" y2="259.31"/>
	<line class="st11" x1="84.26" y1="259.31" x2="635.62" y2="259.31"/>
	<line class="st11" x1="84.26" y1="259.31" x2="635.62" y2="259.31"/>
	<text transform="matrix(1 0 0 1 44.5084 262.5403)" class="st2 st3 st12">0</text>
	<text transform="matrix(1 0 0 1 39.5084 197.1907)" class="st2 st3 st12">10</text>
	<text transform="matrix(1 0 0 1 39.5084 131.8406)" class="st2 st3 st12">20</text>
	<text transform="matrix(1 0 0 1 39.5084 66.491)" class="st2 st3 st12">30</text>
	<line class="st13" x1="51.71" y1="259.31" x2="56.69" y2="259.31"/>
	<line class="st13" x1="51.71" y1="193.96" x2="56.69" y2="193.96"/>
	<line class="st13" x1="51.71" y1="128.61" x2="56.69" y2="128.61"/>
	<line class="st13" x1="51.71" y1="63.26" x2="56.69" y2="63.26"/>
	<text transform="matrix(1 0 0 1 174.9523 291.6204)" class="st2 st3 st12">2017</text>
	<text transform="matrix(1 0 0 1 367.7386 291.6204)" class="st2 st3 st12">2018</text>
	<text transform="matrix(1 0 0 1 548.0787 291.6204)" class="st2 st3 st12">2019</text>
	<path class="st11" d="M635.62,259.74"/>
	<line class="st11" x1="635.62" y1="259.74" x2="635.62" y2="267.04"/>
	<rect x="39.51" y="7.19" class="st14" width="84.24" height="48.89"/>
	<text transform="matrix(1 0 0 1 39.5085 14.6901)" class="st2 st3 st15">Education-related </text>
	<text transform="matrix(1 0 0 1 39.5085 26.7001)" class="st2 st3 st15">protests per week</text>
	<rect x="207.08" y="17.4" class="st14" width="87.48" height="39.97"/>
	<text transform="matrix(1 0 0 1 219.7476 24.9072)" class="st2 st3 st15">Translucent bars </text>
	<text transform="matrix(1 0 0 1 215.4676 36.9172)" class="st2 st3 st15">indicate a teacher </text>
	<text transform="matrix(1 0 0 1 215.3876 48.9172)" class="st2 st3 st15">strike is occurring</text>
	<path class="st16" d="M94.29,258.86h3.36H94.29z"/>
	<path class="st16" d="M98.03,258.86h3.36H98.03z"/>
	<path class="st16" d="M101.76,258.86h3.36H101.76z"/>
	<path class="st16" d="M105.49,258.86h3.36H105.49z"/>
	<path class="st16" d="M109.23,258.86h3.36H109.23z"/>
	<path class="st16" d="M112.97,258.86h3.36H112.97z"/>
	<path class="st16" d="M116.7,258.86h3.36H116.7z"/>
	<path class="st16" d="M120.44,258.86h3.36H120.44z"/>
	<path class="st16" d="M124.18,258.86h3.36H124.18z"/>
	<path class="st16" d="M127.91,258.86h3.36H127.91z"/>
	<path class="st16" d="M131.64,258.86H135H131.64z"/>
	<path class="st16" d="M135.38,258.86h3.36H135.38z"/>
	<path class="st16" d="M139.12,258.86h3.36H139.12z"/>
	<path class="st16" d="M142.86,258.86h3.36H142.86z"/>
	<path class="st16" d="M146.6,258.86h3.36H146.6z"/>
	<path class="st16" d="M150.33,258.86h3.36H150.33z"/>
	<path class="st16" d="M154.06,258.86h3.36H154.06z"/>
	<path class="st16" d="M157.8,258.86h3.36H157.8z"/>
	<path class="st16" d="M161.54,258.86h3.36H161.54z"/>
	<path class="st16" d="M165.28,258.86h3.36H165.28z"/>
	<path class="st16" d="M169.01,258.86h3.36H169.01z"/>
	<path class="st16" d="M172.75,258.86h3.36H172.75z"/>
	<path class="st16" d="M176.48,258.86h3.36H176.48z"/>
	<path class="st16" d="M183.95,258.86h3.36H183.95z"/>
	<path class="st16" d="M187.69,258.86h3.36H187.69z"/>
	<path class="st16" d="M191.43,258.86h3.36H191.43z"/>
	<path class="st16" d="M195.17,258.86h3.36H195.17z"/>
	<path class="st16" d="M198.89,258.86h3.36H198.89z"/>
	<path class="st16" d="M202.63,258.86h3.36H202.63z"/>
	<path class="st16" d="M206.37,258.86h3.36H206.37z"/>
	<path class="st16" d="M210.11,258.86h3.36H210.11z"/>
	<path class="st16" d="M217.58,258.86h3.36H217.58z"/>
	<path class="st16" d="M221.31,258.86h3.36H221.31z"/>
	<path class="st16" d="M225.05,258.86h3.36H225.05z"/>
	<path class="st16" d="M228.79,258.86h3.36H228.79z"/>
	<path class="st16" d="M232.52,258.86h3.36H232.52z"/>
	<path class="st16" d="M236.26,258.86h3.36H236.26z"/>
	<path class="st16" d="M240,258.86h3.36H240z"/>
	<path class="st16" d="M243.74,258.86h3.36H243.74z"/>
	<path class="st16" d="M247.47,258.86h3.36H247.47z"/>
	<path class="st16" d="M251.2,258.86h3.36H251.2z"/>
	<path class="st16" d="M258.68,258.86h3.36H258.68z"/>
	<path class="st16" d="M262.42,258.86h3.36H262.42z"/>
	<path class="st16" d="M266.16,258.86h3.36H266.16z"/>
	<path class="st16" d="M269.88,258.86h3.36H269.88z"/>
	<path class="st16" d="M277.36,258.86h3.36H277.36z"/>
	<path class="st16" d="M281.1,258.86h3.36H281.1z"/>
	<path class="st16" d="M284.83,258.86h3.36H284.83z"/>
	<rect x="288.91" y="252.37" class="st10" width="2.69" height="6.5"/>
	<rect x="292.63" y="180.92" class="st10" width="2.69" height="77.94"/>
	<rect x="296.37" y="187.42" class="st10" width="2.69" height="71.45"/>
	<rect x="300.11" y="219.89" class="st10" width="2.69" height="38.97"/>
	<rect x="303.85" y="161.44" class="st10" width="2.69" height="97.43"/>
	<rect x="307.59" y="232.88" class="st10" width="2.69" height="25.98"/>
	<rect x="311.32" y="252.37" class="st10" width="2.69" height="6.5"/>
	<path class="st16" d="M314.72,258.86h3.36H314.72z"/>
	<path class="st16" d="M318.45,258.86h3.36H318.45z"/>
	<path class="st16" d="M322.19,258.86h3.36H322.19z"/>
	<path class="st16" d="M325.93,258.86h3.36H325.93z"/>
	<path class="st16" d="M329.67,258.86h3.36H329.67z"/>
	<path class="st16" d="M333.41,258.86h3.36H333.41z"/>
	<path class="st16" d="M337.14,258.86h3.36H337.14z"/>
	<path class="st16" d="M340.87,258.86h3.36H340.87z"/>
	<path class="st16" d="M344.61,258.86h3.36H344.61z"/>
	<path class="st16" d="M348.35,258.86h3.36H348.35z"/>
	<path class="st16" d="M352.08,258.86h3.36H352.08z"/>
	<path class="st16" d="M355.82,258.86h3.36H355.82z"/>
	<path class="st16" d="M359.56,258.86h3.36H359.56z"/>
	<path class="st16" d="M363.29,258.86h3.36H363.29z"/>
	<path class="st16" d="M367.02,258.86h3.36H367.02z"/>
	<path class="st16" d="M370.76,258.86h3.36H370.76z"/>
	<path class="st16" d="M381.98,258.86h3.36H381.98z"/>
	<path class="st16" d="M385.7,258.86h3.36H385.7z"/>
	<path class="st16" d="M389.44,258.86h3.36H389.44z"/>
	<path class="st16" d="M393.18,258.86h3.36H393.18z"/>
	<path class="st16" d="M396.92,258.86h3.36H396.92z"/>
	<path class="st16" d="M400.65,258.86h3.36H400.65z"/>
	<path class="st16" d="M404.39,258.86h3.36H404.39z"/>
	<path class="st16" d="M408.12,258.86h3.36H408.12z"/>
	<rect x="412.19" y="252.37" class="st10" width="2.69" height="6.5"/>
	<path class="st16" d="M415.6,258.86h3.36H415.6z"/>
	<path class="st16" d="M419.33,258.86h3.36H419.33z"/>
	<path class="st16" d="M423.07,258.86h3.36H423.07z"/>
	<path class="st16" d="M426.81,258.86h3.36H426.81z"/>
	<path class="st16" d="M430.55,258.86h3.36H430.55z"/>
	<rect x="434.61" y="252.37" class="st10" width="2.69" height="6.5"/>
	<path class="st16" d="M438.01,258.86h3.36H438.01z"/>
	<path class="st16" d="M441.75,258.86h3.36H441.75z"/>
	<path class="st16" d="M445.49,258.86h3.36H445.49z"/>
	<path class="st16" d="M449.23,258.86h3.36H449.23z"/>
	<path class="st16" d="M452.96,258.86h3.36H452.96z"/>
	<path class="st16" d="M456.69,258.86h3.36H456.69z"/>
	<path class="st16" d="M460.43,258.86h3.36H460.43z"/>
	<path class="st16" d="M464.17,258.86h3.36H464.17z"/>
	<path class="st16" d="M467.9,258.86h3.36H467.9z"/>
	<path class="st16" d="M471.64,258.86H475H471.64z"/>
	<path class="st16" d="M475.38,258.86h3.36H475.38z"/>
	<path class="st16" d="M479.11,258.86h3.36H479.11z"/>
	<rect x="483.18" y="252.37" class="st10" width="2.69" height="6.5"/>
	<rect x="486.92" y="252.37" class="st10" width="2.69" height="6.5"/>
	<rect x="490.66" y="252.37" class="st10" width="2.69" height="6.5"/>
	<path class="st16" d="M494.06,258.86h3.36H494.06z"/>
	<rect x="498.13" y="245.87" class="st10" width="2.69" height="12.99"/>
	<path class="st16" d="M501.52,258.86h3.36H501.52z"/>
	<path class="st16" d="M505.26,258.86h3.36H505.26z"/>
	<path class="st16" d="M509,258.86h3.36H509z"/>
	<path class="st16" d="M512.74,258.86h3.36H512.74z"/>
	<path class="st16" d="M516.48,258.86h3.36H516.48z"/>
	<path class="st16" d="M520.21,258.86h3.36H520.21z"/>
	<path class="st16" d="M523.95,258.86h3.36H523.95z"/>
	<path class="st16" d="M527.68,258.86h3.36H527.68z"/>
	<path class="st16" d="M531.42,258.86h3.36H531.42z"/>
	<path class="st16" d="M535.15,258.86h3.36H535.15z"/>
	<path class="st16" d="M538.89,258.86h3.36H538.89z"/>
	<path class="st16" d="M542.63,258.86h3.36H542.63z"/>
	<path class="st16" d="M546.37,258.86h3.36H546.37z"/>
	<path class="st16" d="M550.09,258.86h3.36H550.09z"/>
	<path class="st16" d="M553.83,258.86h3.36H553.83z"/>
	<path class="st16" d="M557.57,258.86h3.36H557.57z"/>
	<path class="st16" d="M561.31,258.86h3.36H561.31z"/>
	<path class="st16" d="M565.05,258.86h3.36H565.05z"/>
	<path class="st16" d="M568.78,258.86h3.36H568.78z"/>
	<path class="st16" d="M572.51,258.86h3.36H572.51z"/>
	<path class="st16" d="M576.25,258.86h3.36H576.25z"/>
	<path class="st16" d="M579.99,258.86h3.36H579.99z"/>
	<path class="st16" d="M583.73,258.86h3.36H583.73z"/>
	<path class="st16" d="M587.46,258.86h3.36H587.46z"/>
	<path class="st16" d="M591.2,258.86h3.36H591.2z"/>
	<path class="st16" d="M594.93,258.86h3.36H594.93z"/>
	<path class="st16" d="M598.67,258.86h3.36H598.67z"/>
	<rect x="206.58" y="144.97" class="st14" width="75.06" height="32.93"/>
	<text transform="matrix(1 0 0 1 214.6414 150.9692)" class="st3 st4">Education protests </text>
	<text transform="matrix(1 0 0 1 214.6314 162.9692)" class="st3 st4">in </text>
	<text transform="matrix(1 0 0 1 222.9714 162.9692)" class="st10 st3 st17">West Virginia</text>
	<rect x="188.07" y="360.2" class="st14" width="69.84" height="32.93"/>
	<text transform="matrix(1 0 0 1 205.2606 366.1972)" class="st3 st4">West Virginia’s </text>
	<text transform="matrix(1 0 0 1 188.3806 375.7972)" class="st3 st4">initial teacher strike </text>
	<text transform="matrix(1 0 0 1 205.5606 385.3972)" class="st3 st4">(Feb 22-Mar 7)</text>
	<g>
		<g>
			<path class="st18" d="M257.43,165.98c0.52,3.23,19.67,39.7,30.27,43.93"/>
			<g>
				<path class="st16" d="M287.46,209.79c-0.51-0.78-0.56-2.12-0.4-3.01c0.64,1.37,1.58,2.64,2.85,3.51c-1.5,0.27-2.83,1.14-4,2.1
					C286.18,211.46,286.65,210.36,287.46,209.79z"/>
			</g>
		</g>
	</g>
	<rect x="21.31" y="-36.39" class="st14" width="647.43" height="36.39"/>
	<rect x="375.88" y="517.21" class="st14" width="259.5" height="36.3"/>
	<text transform="matrix(1 0 0 1 386.3775 484.2059)" class="st2 st3 st4">Includes multi-district teacher strikes or teacher strikes in major cities.</text>
	<g>
		<rect x="89" y="316.55" class="st14" width="125.07" height="44.72"/>
		<text transform="matrix(1 0 0 1 89.0046 329.2984)" class="st2 st3 st19">Teacher Strikes </text>
		<text transform="matrix(1 0 0 1 89.0046 349.6984)" class="st2 st3 st19">by State</text>
	</g>
	<g>
		<g>
			<path class="st20" d="M263.04,367.17c3.23-0.52,39.7-19.67,43.93-30.27"/>
			<g>
				<path d="M306.85,337.14c-0.78,0.51-2.12,0.56-3.01,0.4c1.37-0.64,2.64-1.58,3.51-2.85c0.27,1.5,1.14,2.83,2.1,4
					C308.52,338.42,307.42,337.96,306.85,337.14z"/>
			</g>
		</g>
	</g>
	<rect x="226.77" y="419.95" class="st14" width="114.77" height="39.38"/>
	<text transform="matrix(1 0 0 1 249.313 425.9536)" class="st3 st4">Washington state schools </text>
	<text transform="matrix(1 0 0 1 234.463 435.5536)" class="st3 st4">missed their first day of school </text>
	<text transform="matrix(1 0 0 1 228.313 445.1536)" class="st3 st4">due to a teacher strike lasting in </text>
	<text transform="matrix(1 0 0 1 284.483 454.7536)" class="st3 st4">July and August</text>
	<g>
		<g>
			<path class="st20" d="M348.35,430.71c3.21-0.52,37.95-11.59,42.22-21.06"/>
			<g>
				<path d="M390.43,409.89c-0.79,0.5-2.13,0.52-3.01,0.35c1.38-0.62,2.67-1.53,3.56-2.78c0.24,1.51,1.09,2.85,2.03,4.04
					C392.08,411.2,390.99,410.71,390.43,409.89z"/>
			</g>
		</g>
	</g>
</g>
</svg>
