<?xml version="1.0" encoding="utf-8"?>
<!-- Generator: Adobe Illustrator 23.1.1, SVG Export Plug-In . SVG Version: 6.00 Build 0)  -->
<svg version="1.1" xmlns="http://www.w3.org/2000/svg" xmlns:xlink="http://www.w3.org/1999/xlink" x="0px" y="0px"
	 viewBox="0 0 557.7 760" style="enable-background:new 0 0 557.7 760;" xml:space="preserve">
<style type="text/css">
	.st0{fill:none;stroke:#FFFFFF;stroke-width:0.6873;}
	.st1{fill:none;stroke:#CBCBCA;stroke-width:0.6873;}
	.st2{fill:none;stroke:#FFFFFF;stroke-width:2;}
	.st3{fill:none;}
	.st4{fill:#FFFFFF;}
	.st5{font-family:'Roboto';}
	.st6{font-size:8.278px;}
	.st7{font-size:18px;}
	.st8{fill:#5E9A63;}
	.st9{fill:#244D4E;}
	.st10{fill:#52C7EB;}
	.st11{fill:#318EA4;}
	.st12{fill:#B8C3E4;}
	.st13{fill:#467BBE;}
	.st14{fill:#6C429A;}
	.st15{fill:#E386B7;}
	.st16{fill:#B21F71;}
	.st17{fill:#5C3D5E;}
	.st18{fill:#AF5DA3;}
	.st19{fill:#707589;}
	.st20{opacity:0.57;fill:#D6D6D6;stroke:#FFFFFF;stroke-width:0.7742;stroke-miterlimit:10;}
	.st21{font-size:10px;}
	.st22{fill:#010101;}
	.st23{font-size:9.9992px;}
	.st24{font-size:8px;}
	.st25{font-size:8.9994px;}
	.st26{opacity:0.57;fill:#D6D6D6;stroke:#FFFFFF;stroke-width:0.6211;stroke-miterlimit:10;}
	.st27{fill:#231F20;}
	.st28{font-size:9px;}
	.st29{opacity:0.57;fill:#D6D6D6;stroke:#FFFFFF;stroke-width:0.9639;stroke-miterlimit:10;}
	.st30{font-size:9.9994px;}
	.st31{fill:none;stroke:#010101;stroke-miterlimit:10;}
	.st32{font-size:14px;}
	.st33{fill:none;stroke:#000000;stroke-width:0.8978;stroke-miterlimit:10;}
	.st34{fill:none;stroke:#FFFFFF;stroke-width:0.8978;stroke-miterlimit:10;}
	.st35{fill:none;stroke:#000000;stroke-miterlimit:10;}
	.st36{fill:none;stroke:#FFFFFF;stroke-miterlimit:10;}
	.st37{fill:none;stroke:#FFFFFF;stroke-width:1.0127;stroke-miterlimit:10;}
	.st38{font-weight: bold;}
</style>
<g id="Layer_2">
</g>
<g id="chart">
	<g id="grid">
		<g transform="translate(0,480)">
			<path class="st0" d="M23.3-405.8h3.8v615.9"/>
			<path class="st0" d="M517.3-405.8h3.8v615.9"/>
			<g transform="translate(0.6873230714791224,0)">
				<line class="st1" x1="26.8" y1="-405.7" x2="22.7" y2="-405.7"/>
				<line class="st1" x1="26.8" y1="-350.3" x2="22.7" y2="-350.3"/>
				<line class="st1" x1="26.8" y1="-294.3" x2="22.7" y2="-294.3"/>
				<line class="st1" x1="26.8" y1="-237.7" x2="22.7" y2="-237.7"/>
				<line class="st1" x1="26.8" y1="-181" x2="22.7" y2="-181"/>
				<line class="st1" x1="26.8" y1="-125.6" x2="22.7" y2="-125.6"/>
				<line class="st1" x1="26.8" y1="-69.6" x2="22.7" y2="-69.6"/>
				<line class="st1" x1="26.8" y1="-13" x2="22.7" y2="-13"/>
				<line class="st1" x1="26.8" y1="5.9" x2="22.7" y2="5.9"/>
				<line class="st1" x1="26.8" y1="24.8" x2="22.7" y2="24.8"/>
				<line class="st1" x1="26.8" y1="-50.7" x2="22.7" y2="-50.7"/>
				<line class="st1" x1="26.8" y1="-31.9" x2="22.7" y2="-31.9"/>
				<line class="st1" x1="26.8" y1="-106.8" x2="22.7" y2="-106.8"/>
				<line class="st1" x1="26.8" y1="-87.9" x2="22.7" y2="-87.9"/>
				<line class="st1" x1="26.8" y1="-162.5" x2="22.7" y2="-162.5"/>
				<line class="st1" x1="26.8" y1="-144.1" x2="22.7" y2="-144.1"/>
				<line class="st1" x1="26.8" y1="-218.8" x2="22.7" y2="-218.8"/>
				<line class="st1" x1="26.8" y1="-199.9" x2="22.7" y2="-199.9"/>
				<line class="st1" x1="26.8" y1="-275.4" x2="22.7" y2="-275.4"/>
				<line class="st1" x1="26.8" y1="-256.5" x2="22.7" y2="-256.5"/>
				<line class="st1" x1="26.8" y1="-331.6" x2="22.7" y2="-331.6"/>
				<line class="st1" x1="26.8" y1="-313" x2="22.7" y2="-313"/>
				<line class="st1" x1="26.8" y1="-387.2" x2="22.7" y2="-387.2"/>
				<line class="st1" x1="26.8" y1="-368.8" x2="22.7" y2="-368.8"/>
				<line class="st1" x1="26.6" y1="62.1" x2="22.5" y2="62.1"/>
				<line class="st1" x1="26.6" y1="80.6" x2="22.5" y2="80.6"/>
				<line class="st1" x1="26.6" y1="117.7" x2="22.5" y2="117.7"/>
				<line class="st1" x1="26.6" y1="136.4" x2="22.5" y2="136.4"/>
				<line class="st1" x1="26.8" y1="43.7" x2="22.7" y2="43.7"/>
				<line class="st1" x1="26.8" y1="99" x2="22.7" y2="99"/>
				<line class="st1" x1="26.8" y1="155" x2="22.7" y2="155"/>
				<line class="st2" x1="539.9" y1="-405.7" x2="22.7" y2="-405.7"/>
			</g>
			<line class="st0" x1="525.6" y1="-350.3" x2="23.3" y2="-350.3"/>
			<line class="st0" x1="525.6" y1="-294.3" x2="23.3" y2="-294.3"/>
			<line class="st0" x1="525.6" y1="-237.7" x2="23.3" y2="-237.7"/>
			<line class="st2" x1="540.6" y1="-181" x2="23.3" y2="-181"/>
			<line class="st0" x1="525.6" y1="-125.6" x2="23.3" y2="-125.6"/>
			<line class="st0" x1="525.6" y1="-69.6" x2="23.3" y2="-69.6"/>
			<line class="st0" x1="525.6" y1="-13" x2="23.3" y2="-13"/>
			<line class="st0" x1="525.6" y1="5.9" x2="23.3" y2="5.9"/>
			<line class="st0" x1="525.6" y1="24.8" x2="23.3" y2="24.8"/>
			<line class="st0" x1="525.6" y1="-50.7" x2="23.3" y2="-50.7"/>
			<line class="st0" x1="525.6" y1="-31.9" x2="23.3" y2="-31.9"/>
			<line class="st0" x1="525.6" y1="-106.8" x2="23.3" y2="-106.8"/>
			<line class="st0" x1="525.4" y1="-87.9" x2="23.3" y2="-87.9"/>
			<line class="st0" x1="525.6" y1="-162.5" x2="23.3" y2="-162.5"/>
			<line class="st0" x1="525.6" y1="-144.1" x2="23.3" y2="-144.1"/>
			<line class="st0" x1="525.6" y1="-218.8" x2="23.3" y2="-218.8"/>
			<line class="st0" x1="525.6" y1="-199.9" x2="23.3" y2="-199.9"/>
			<line class="st0" x1="525.6" y1="-275.4" x2="23.3" y2="-275.4"/>
			<line class="st0" x1="525.6" y1="-256.5" x2="23.3" y2="-256.5"/>
			<line class="st0" x1="525.6" y1="-331.6" x2="23.3" y2="-331.6"/>
			<line class="st0" x1="525.6" y1="-313" x2="23.3" y2="-313"/>
			<line class="st0" x1="525.6" y1="-387.2" x2="23.3" y2="-387.2"/>
			<line class="st0" x1="525.6" y1="-368.8" x2="23.3" y2="-368.8"/>
			<line class="st0" x1="525.4" y1="62.1" x2="23.2" y2="62.1"/>
			<line class="st0" x1="525.4" y1="80.6" x2="23.2" y2="80.6"/>
			<line class="st0" x1="525.4" y1="117.7" x2="23.2" y2="117.7"/>
			<line class="st0" x1="525.4" y1="136.4" x2="23.2" y2="136.4"/>
			<line class="st2" x1="540.6" y1="43.7" x2="23.3" y2="43.7"/>
			<line class="st0" x1="525.6" y1="99" x2="23.3" y2="99"/>
			<line class="st0" x1="525.6" y1="155" x2="23.3" y2="155"/>
			<line class="st0" x1="376.6" y1="173.3" x2="23.3" y2="173.3"/>
			<line class="st0" x1="525.6" y1="173.6" x2="23.3" y2="173.6"/>
			<line class="st0" x1="376.6" y1="191.8" x2="23.3" y2="191.8"/>
			<line class="st0" x1="525.6" y1="192" x2="23.3" y2="192"/>
			<line class="st0" x1="525.6" y1="210.2" x2="23.3" y2="210.2"/>
			<path class="st0" d="M394.9,174"/>
			<path class="st0" d="M394.9-405.8"/>
		</g>
		<g>
			<rect x="2.8" y="71" class="st3" width="14" height="12.9"/>
			<text transform="matrix(1 0 0 1 7.5533 77.244)" class="st4 st5 st6">J</text>
			<rect x="2.8" y="89.5" class="st3" width="14" height="12.9"/>
			<text transform="matrix(1 0 0 1 7.5496 95.7013)" class="st4 st5 st6">F</text>
			<rect x="2.8" y="107.9" class="st3" width="14" height="12.9"/>
			<text transform="matrix(1 0 0 1 6.2232 114.1587)" class="st4 st5 st6">M</text>
			<rect x="2.8" y="126.4" class="st3" width="14" height="12.9"/>
			<text transform="matrix(1 0 0 1 7.1369 132.6159)" class="st4 st5 st6">A</text>
			<rect x="2.8" y="145.1" class="st3" width="14" height="12.9"/>
			<text transform="matrix(1 0 0 1 6.2232 151.287)" class="st4 st5 st6">M</text>
			<rect x="2.8" y="163.7" class="st3" width="14" height="12.9"/>
			<text transform="matrix(1 0 0 1 7.5532 169.958)" class="st4 st5 st6">J</text>
			<rect x="2.8" y="182.4" class="st3" width="14" height="12.9"/>
			<text transform="matrix(1 0 0 1 7.5535 188.6291)" class="st4 st5 st6">J</text>
			<rect x="2.8" y="201.3" class="st3" width="14" height="12.9"/>
			<text transform="matrix(1 0 0 1 7.1368 207.5052)" class="st4 st5 st6">A</text>
			<rect x="2.8" y="220.2" class="st3" width="14" height="12.9"/>
			<text transform="matrix(1 0 0 1 7.3816 226.3816)" class="st4 st5 st6">S</text>
			<rect x="2.8" y="239" class="st3" width="14" height="12.9"/>
			<text transform="matrix(1 0 0 1 6.9913 245.2577)" class="st4 st5 st6">O</text>
			<rect x="2.8" y="257.9" class="st3" width="14" height="12.9"/>
			<text transform="matrix(1 0 0 1 6.8863 264.1424)" class="st4 st5 st6">N</text>
			<rect x="2.8" y="276.8" class="st3" width="14" height="12.9"/>
			<text transform="matrix(1 0 0 1 7.1226 283.0273)" class="st4 st5 st6">D</text>
			<rect x="2.8" y="295" class="st3" width="14" height="12.9"/>
			<text transform="matrix(1 0 0 1 7.5532 301.2387)" class="st4 st5 st6">J</text>
			<rect x="2.8" y="313.5" class="st3" width="14" height="12.9"/>
			<text transform="matrix(1 0 0 1 7.5495 319.696)" class="st4 st5 st6">F</text>
			<rect x="2.8" y="331.9" class="st3" width="14" height="12.9"/>
			<text transform="matrix(1 0 0 1 6.2235 338.1533)" class="st4 st5 st6">M</text>
			<rect x="2.8" y="350.4" class="st3" width="14" height="12.9"/>
			<text transform="matrix(1 0 0 1 7.1368 356.6106)" class="st4 st5 st6">A</text>
			<rect x="2.8" y="369.1" class="st3" width="14" height="12.9"/>
			<text transform="matrix(1 0 0 1 6.2231 375.2817)" class="st4 st5 st6">M</text>
			<rect x="2.8" y="387.7" class="st3" width="14" height="12.9"/>
			<text transform="matrix(1 0 0 1 7.5526 393.9527)" class="st4 st5 st6">J</text>
			<rect x="2.8" y="406.4" class="st3" width="14" height="12.9"/>
			<text transform="matrix(1 0 0 1 7.5525 412.6238)" class="st4 st5 st6">J</text>
			<rect x="2.8" y="425.3" class="st3" width="14" height="12.9"/>
			<text transform="matrix(1 0 0 1 7.1372 431.5)" class="st4 st5 st6">A</text>
			<rect x="2.8" y="444.2" class="st3" width="14" height="12.9"/>
			<text transform="matrix(1 0 0 1 7.3821 450.3762)" class="st4 st5 st6">S</text>
			<rect x="2.8" y="463" class="st3" width="14" height="12.9"/>
			<text transform="matrix(1 0 0 1 6.9912 469.2524)" class="st4 st5 st6">O</text>
			<rect x="2.8" y="481.9" class="st3" width="14" height="12.9"/>
			<text transform="matrix(1 0 0 1 6.8867 488.1372)" class="st4 st5 st6">N</text>
			<rect x="2.8" y="500.8" class="st3" width="14" height="12.9"/>
			<text transform="matrix(1 0 0 1 7.1231 507.0219)" class="st4 st5 st6">D</text>
			<rect x="2.8" y="519.6" class="st3" width="14" height="12.9"/>
			<text transform="matrix(1 0 0 1 7.5525 525.7858)" class="st4 st5 st6">J</text>
			<rect x="2.8" y="538" class="st3" width="14" height="12.9"/>
			<text transform="matrix(1 0 0 1 7.5493 544.2432)" class="st4 st5 st6">F</text>
			<rect x="2.8" y="556.5" class="st3" width="14" height="12.9"/>
			<text transform="matrix(1 0 0 1 6.2238 562.7004)" class="st4 st5 st6">M</text>
			<rect x="2.8" y="574.9" class="st3" width="14" height="12.9"/>
			<text transform="matrix(1 0 0 1 7.1366 581.1578)" class="st4 st5 st6">A</text>
			<rect x="2.8" y="593.6" class="st3" width="14" height="12.9"/>
			<text transform="matrix(1 0 0 1 6.2234 599.8289)" class="st4 st5 st6">M</text>
			<rect x="2.8" y="612.3" class="st3" width="14" height="12.9"/>
			<text transform="matrix(1 0 0 1 7.5533 618.4999)" class="st4 st5 st6">J</text>
			<rect x="2.8" y="631" class="st3" width="14" height="12.9"/>
			<text transform="matrix(1 0 0 1 7.5531 637.171)" class="st4 st5 st6">J</text>
			<rect x="2.8" y="651.8" class="st3" width="14" height="12.9"/>
			<text transform="matrix(1 0 0 1 7.1369 658.0472)" class="st4 st5 st6">A</text>
			<rect x="2.8" y="668.5" class="st3" width="14" height="12.9"/>
			<text transform="matrix(1 0 0 1 7.3821 674.7551)" class="st4 st5 st6">S</text>
			<rect x="2.8" y="686.8" class="st3" width="14" height="12.9"/>
			<text transform="matrix(1 0 0 1 6.9914 693.0405)" class="st4 st5 st6">O</text>
		</g>
		<g>
			<rect x="540.6" y="71" class="st3" width="14" height="12.9"/>
			<text transform="matrix(1 0 0 1 545.3152 77.244)" class="st4 st5 st6">J</text>
			<rect x="540.6" y="89.5" class="st3" width="14" height="12.9"/>
			<text transform="matrix(1 0 0 1 545.3115 95.7013)" class="st4 st5 st6">F</text>
			<rect x="540.6" y="107.9" class="st3" width="14" height="12.9"/>
			<text transform="matrix(1 0 0 1 543.9851 114.1587)" class="st4 st5 st6">M</text>
			<rect x="540.6" y="126.4" class="st3" width="14" height="12.9"/>
			<text transform="matrix(1 0 0 1 544.8988 132.6159)" class="st4 st5 st6">A</text>
			<rect x="540.6" y="145.1" class="st3" width="14" height="12.9"/>
			<text transform="matrix(1 0 0 1 543.9851 151.287)" class="st4 st5 st6">M</text>
			<rect x="540.6" y="163.7" class="st3" width="14" height="12.9"/>
			<text transform="matrix(1 0 0 1 545.3151 169.958)" class="st4 st5 st6">J</text>
			<rect x="540.6" y="182.4" class="st3" width="14" height="12.9"/>
			<text transform="matrix(1 0 0 1 545.3154 188.6291)" class="st4 st5 st6">J</text>
			<rect x="540.6" y="201.3" class="st3" width="14" height="12.9"/>
			<text transform="matrix(1 0 0 1 544.8986 207.5052)" class="st4 st5 st6">A</text>
			<rect x="540.6" y="220.2" class="st3" width="14" height="12.9"/>
			<text transform="matrix(1 0 0 1 545.1435 226.3816)" class="st4 st5 st6">S</text>
			<rect x="540.6" y="239" class="st3" width="14" height="12.9"/>
			<text transform="matrix(1 0 0 1 544.7532 245.2577)" class="st4 st5 st6">O</text>
			<rect x="540.6" y="257.9" class="st3" width="14" height="12.9"/>
			<text transform="matrix(1 0 0 1 544.6482 264.1424)" class="st4 st5 st6">N</text>
			<rect x="540.6" y="276.8" class="st3" width="14" height="12.9"/>
			<text transform="matrix(1 0 0 1 544.8845 283.0273)" class="st4 st5 st6">D</text>
			<rect x="540.6" y="295" class="st3" width="14" height="12.9"/>
			<text transform="matrix(1 0 0 1 545.3151 301.2387)" class="st4 st5 st6">J</text>
			<rect x="540.6" y="313.5" class="st3" width="14" height="12.9"/>
			<text transform="matrix(1 0 0 1 545.3114 319.696)" class="st4 st5 st6">F</text>
			<rect x="540.6" y="331.9" class="st3" width="14" height="12.9"/>
			<text transform="matrix(1 0 0 1 543.9854 338.1533)" class="st4 st5 st6">M</text>
			<rect x="540.6" y="350.4" class="st3" width="14" height="12.9"/>
			<text transform="matrix(1 0 0 1 544.8987 356.6106)" class="st4 st5 st6">A</text>
			<rect x="540.6" y="369.1" class="st3" width="14" height="12.9"/>
			<text transform="matrix(1 0 0 1 543.9851 375.2817)" class="st4 st5 st6">M</text>
			<rect x="540.6" y="387.7" class="st3" width="14" height="12.9"/>
			<text transform="matrix(1 0 0 1 545.3145 393.9527)" class="st4 st5 st6">J</text>
			<rect x="540.6" y="406.4" class="st3" width="14" height="12.9"/>
			<text transform="matrix(1 0 0 1 545.3144 412.6238)" class="st4 st5 st6">J</text>
			<rect x="540.6" y="425.3" class="st3" width="14" height="12.9"/>
			<text transform="matrix(1 0 0 1 544.8992 431.5)" class="st4 st5 st6">A</text>
			<rect x="540.6" y="444.2" class="st3" width="14" height="12.9"/>
			<text transform="matrix(1 0 0 1 545.1441 450.3762)" class="st4 st5 st6">S</text>
			<rect x="540.6" y="463" class="st3" width="14" height="12.9"/>
			<text transform="matrix(1 0 0 1 544.7533 469.2524)" class="st4 st5 st6">O</text>
			<rect x="540.6" y="481.9" class="st3" width="14" height="12.9"/>
			<text transform="matrix(1 0 0 1 544.6488 488.1372)" class="st4 st5 st6">N</text>
			<rect x="540.6" y="500.8" class="st3" width="14" height="12.9"/>
			<text transform="matrix(1 0 0 1 544.8851 507.0219)" class="st4 st5 st6">D</text>
			<rect x="540.6" y="519.6" class="st3" width="14" height="12.9"/>
			<text transform="matrix(1 0 0 1 545.3145 525.7858)" class="st4 st5 st6">J</text>
			<rect x="540.6" y="538" class="st3" width="14" height="12.9"/>
			<text transform="matrix(1 0 0 1 545.3112 544.2432)" class="st4 st5 st6">F</text>
			<rect x="540.6" y="556.5" class="st3" width="14" height="12.9"/>
			<text transform="matrix(1 0 0 1 543.9858 562.7004)" class="st4 st5 st6">M</text>
			<rect x="540.6" y="574.9" class="st3" width="14" height="12.9"/>
			<text transform="matrix(1 0 0 1 544.8986 581.1578)" class="st4 st5 st6">A</text>
			<rect x="540.6" y="593.6" class="st3" width="14" height="12.9"/>
			<text transform="matrix(1 0 0 1 543.9854 599.8289)" class="st4 st5 st6">M</text>
			<rect x="540.6" y="612.3" class="st3" width="14" height="12.9"/>
			<text transform="matrix(1 0 0 1 545.3153 618.4999)" class="st4 st5 st6">J</text>
			<rect x="540.6" y="631" class="st3" width="14" height="12.9"/>
			<text transform="matrix(1 0 0 1 545.3151 637.171)" class="st4 st5 st6">J</text>
			<rect x="540.6" y="651.8" class="st3" width="14" height="12.9"/>
			<text transform="matrix(1 0 0 1 544.8989 658.0472)" class="st4 st5 st6">A</text>
			<rect x="540.6" y="668.5" class="st3" width="14" height="12.9"/>
			<text transform="matrix(1 0 0 1 545.144 674.7551)" class="st4 st5 st6">S</text>
			<rect x="540.6" y="686.8" class="st3" width="14" height="12.9"/>
			<text transform="matrix(1 0 0 1 544.7534 693.0405)" class="st4 st5 st6">O</text>
		</g>
		<text transform="matrix(1 0 0 1 476.1185 90.787)" class="st4 st5 st7">2017</text>
		<text transform="matrix(1 0 0 1 476.1185 315.0526)" class="st4 st5 st7">2018</text>
		<text transform="matrix(1 0 0 1 476.1184 540.5283)" class="st4 st5 st7">2019</text>
	</g>
	<g id="stream">
		<path id="supreme-court-stream" class="st8" d="M352.6,73.1l1.9,3.2c1.9,3.2,5.6,9.5,7.1,15.6c1.5,6.1,0.8,11.8,0.1,17.8
			s-1.4,12.4-5.3,18.7c-3.9,6.2-10.9,12.4-15.4,18.7s-6.2,12.6-8.5,18.9s-5,12.4,1.9,18.7s23.5,12.6,29.7,19
			c6.3,6.4,2.2,12.7-3.8,19c-6,6.2-14.1,12.4-20.9,18.7s-12.3,12.6-16.9,18.9c-4.6,6.2-8.1,12.4-3.2,18.7c4.9,6.2,18.4,12.6,25.6,19
			c7.2,6.4,8.2,12.7,44.5,18.8c36.3,6.1,107.8,11.8,115,17.8s-50,12.4-90.2,18.7s-63.5,12.4-57.9,18.7s40.3,12.6,40.3,18.9
			c-0.1,6.2-34.8,12.4-52.1,18.7s-16.9,12.6-13,19c3.9,6.4,11.5,12.7,18.7,19c7.2,6.2,14,12.4,10.6,18.7s-16.9,12.6-28.9,18.9
			c-12,6.2-22.4,12.4-19,18.7c3.4,6.2,20.5,12.6,25.1,19c4.6,6.4-3.1,12.7-5.7,18.8c-2.6,6,0.1,11.8,1.5,17.8s1.7,12.4,6.7,18.7
			s14.9,12.4,14.8,18.7s-10.1,12.6-11.7,18.9s5.4,12.4,5.7,18.7s-6.1,12.6-6.2,19s6,12.7,5.9,19c-0.1,6.2-6.3,12.4-9.4,15.5
			l-3.1,3.1l0,0l3.1-3.1c3.1-3.1,9.3-9.2,9.4-15.5s-6-12.6-5.9-19c0.1-6.4,6.5-12.7,6.2-19c-0.3-6.2-7.2-12.4-5.7-18.7
			s11.6-12.6,11.7-18.9s-9.8-12.4-14.8-18.7c-5-6.2-5.3-12.6-6.7-18.7s-4.1-11.8-1.5-17.8s10.4-12.4,5.7-18.8
			c-4.6-6.4-21.8-12.7-25.1-19c-3.4-6.2,7.1-12.4,14.1-18.7s10.6-12.6,10-18.9c-0.6-6.2-5.6-12.4-8.6-18.7c-3.1-6.2-4.2-12.6-4.8-19
			c-0.5-6.4-0.4-12.7,17.7-19c18-6.2,53.9-12.4,54.5-18.7s-33.9-12.6-39.6-18.9s17.7-12.4,57.9-18.7s97.4-12.6,90.2-18.7
			c-7.2-6-78.8-11.8-115-17.8c-36.3-6-37.3-12.4-44.5-18.8c-7.2-6.4-20.7-12.7-25.6-19c-4.9-6.2-1.3-12.4,3.2-18.7
			c4.5-6.3,10.1-12.6,16.8-18.9s14.7-12.4,20.7-18.7s10.1-12.6,3.9-19s-22.8-12.7-29.7-19c-6.9-6.2-4.1-12.4-1.9-18.7
			s4.1-12.6,8.5-18.9s11.4-12.4,15.1-18.7c3.8-6.2,4.3-12.6,5-18.7c0.7-6,1.6-11.8,0.2-17.8c-1.4-6.1-5.1-12.4-6.9-15.6L352.6,73.1z
			"/>
		<path id="women-stream" class="st9" d="M352.6,73.1l1.8,3.2c1.8,3.2,5.5,9.5,6.9,15.6c1.4,6.1,0.5,11.8-0.2,17.8s-1.3,12.4-5,18.7
			S345.4,140.8,341,147c-4.4,6.2-6.2,12.6-8.5,18.9s-5,12.4,1.9,18.7s23.5,12.6,29.7,19s2.1,12.7-3.9,19c-6,6.2-14,12.4-20.7,18.7
			s-12.3,12.6-16.8,18.9c-4.6,6.2-8.1,12.4-3.2,18.7c4.9,6.2,18.4,12.6,25.6,19c7.2,6.4,8.2,12.7,44.5,18.8
			c36.3,6.1,107.8,11.8,115,17.8s-50,12.4-90.2,18.7s-63.5,12.4-57.9,18.7s40.2,12.6,39.6,18.9c-0.6,6.2-36.5,12.4-54.5,18.7
			s-18.2,12.6-17.7,19c0.5,6.4,1.7,12.7,4.8,19c3.1,6.2,8,12.4,8.6,18.7s-3,12.6-10,18.9c-7,6.2-17.4,12.4-14.1,18.7
			s20.5,12.6,25.1,19c4.6,6.4-3.1,12.7-5.7,18.8c-2.6,6,0.1,11.8,1.5,17.8s1.7,12.4,6.7,18.7s14.9,12.4,14.8,18.7
			s-10.1,12.6-11.7,18.9s5.4,12.4,5.7,18.7s-6.1,12.6-6.2,19s6,12.7,5.9,19c-0.1,6.2-6.3,12.4-9.4,15.5l-3.1,3.1H325l4.5-3.1
			c4.5-3.1,13.6-9.2,15-15.5s-4.8-12.6-4.6-19s6.7-12.7,5.8-19c-1-6.2-9.4-12.4-18.4-18.7s-18.7-12.6-19.3-18.9s7.9-12.4,12.6-18.7
			c4.6-6.2,5.3-12.6,4.9-18.7s-2-11.8-5.8-17.8c-3.8-6-9.9-12.4-14-18.8c-4.1-6.3-6.2-12.7-2.7-19c3.5-6.2,12.7-12.4,14.1-18.7
			c1.5-6.2-4.6-12.6-8.5-18.9c-3.8-6.2-5.3-12.4-3.1-18.7c2.2-6.2,8-12.6,11.4-19c3.4-6.4,4.3-12.7,22.4-19
			c18.1-6.2,53.4-12.4,53.8-18.7c0.5-6.2-33.9-12.6-40.6-18.9s14.2-12.4,53.2-18.7s95.9-12.6,89.5-18.7c-6.3-6-75.9-11.8-122.6-17.8
			c-46.6-6-70.3-12.4-77.2-18.8c-6.9-6.4,3.1-12.7,9.9-19c6.8-6.2,10.4-12.4,13.8-18.7c3.5-6.3,6.8-12.6,13.1-18.9
			s15.9-12.4,22.8-18.7s11.4-12.6,5.2-19c-6.1-6.4-22.8-12.7-29.6-19c-6.9-6.2-3.9-12.4-1.5-18.7c2.4-6.2,4.3-12.6,7.4-18.9
			c3.1-6.2,7.4-12.4,7.5-18.7c0.1-6.2-4.1-12.6-5.6-18.7c-1.5-6-0.2-11.8-14.6-17.8c-14.4-6.1-44.4-12.4-59.4-15.6l-15-3.2
			L352.6,73.1L352.6,73.1z"/>
		<path id="police-stream" class="st10" d="M249.7,73.1l15,3.2c15,3.2,45,9.5,59.4,15.6c14.4,6.1,13.1,11.8,14.6,17.8
			s5.6,12.4,5.6,18.7c-0.1,6.2-4.4,12.4-7.5,18.7c-3.1,6.2-5,12.6-7.4,18.9c-2.4,6.2-5.3,12.4,1.5,18.7c6.9,6.2,23.5,12.6,29.6,19
			s1.7,12.7-5.2,19c-6.9,6.2-16.4,12.4-22.8,18.7s-9.7,12.6-13.1,18.9c-3.5,6.2-7,12.4-13.8,18.7s-16.8,12.6-9.9,19
			c6.9,6.4,30.6,12.7,77.2,18.8c46.6,6.1,116.2,11.8,122.6,17.8s-50.6,12.4-89.5,18.7s-59.9,12.4-53.2,18.7
			c6.7,6.2,41,12.6,40.6,18.9c-0.5,6.2-35.7,12.4-53.8,18.7c-18.1,6.2-19,12.6-22.4,19c-3.4,6.4-9.2,12.7-11.4,19
			c-2.2,6.2-0.7,12.4,3.1,18.7c3.8,6.2,10,12.6,8.5,18.9s-10.6,12.4-14.1,18.7c-3.5,6.2-1.4,12.6,2.7,19c4.1,6.4,10.2,12.7,14,18.8
			c3.8,6,5.3,11.8,5.8,17.8c0.4,6-0.3,12.4-4.9,18.7c-4.6,6.2-13.1,12.4-12.6,18.7s10.2,12.6,19.3,18.9s17.5,12.4,18.4,18.7
			c1,6.2-5.6,12.6-5.8,19s6,12.7,4.6,19c-1.4,6.2-10.5,12.4-15,15.5l-4.5,3.1h-5l4.5-3.1c4.5-3.1,13.4-9.2,14.4-15.5
			c1-6.2-5.9-12.6-5.8-19c0.1-6.4,7.1-12.7,6.2-19c-0.9-6.2-9.6-12.4-18.7-18.7s-18.5-12.6-19.1-18.9s7.6-12.4,12-18.7
			c4.4-6.2,5-12.6,4.9-18.7s-1.2-11.8-4.7-17.8s-9.6-12.4-13.3-18.8c-3.7-6.3-5-12.7-1.1-19c3.9-6.2,13-12.4,13.9-18.7
			c0.8-6.2-6.7-12.6-11.4-18.9s-6.8-12.4-5-18.7s7.3-12.6,10.7-19c3.5-6.4,4.9-12.7,23.1-19c18.2-6.2,53.2-12.4,54-18.7
			s-32.6-12.6-39.3-18.9c-6.7-6.2,13.2-12.4,51.8-18.7s96.1-12.6,90.4-18.7c-5.7-6-74.5-11.8-120.4-17.8
			c-45.9-6-68.9-12.4-75.4-18.8c-6.5-6.4,3.4-12.7,9-19c5.7-6.2,7.1-12.4,7.9-18.7c0.7-6.3,0.7-12.6,5.3-18.9s13.6-12.4,22.8-18.7
			c9.2-6.2,18.6-12.6,15.3-19s-19.2-12.7-25.8-19c-6.6-6.2-3.9-12.4-1.8-18.7s3.7-12.6,7-18.9s8.3-12.4,8.8-18.7
			c0.5-6.2-3.5-12.6-4.5-18.7c-1-6,1-11.8-12.8-17.8c-13.8-6.1-43.3-12.4-58.1-15.6L249.7,73.1z"/>
		<path id="education-stream" class="st11" d="M249.7,73.1l14.8,3.2c14.8,3.2,44.3,9.5,58.1,15.6c13.8,6.1,11.8,11.8,12.8,17.8
			s5,12.4,4.5,18.7c-0.5,6.2-5.5,12.4-8.8,18.7s-4.9,12.6-7,18.9s-4.8,12.4,1.8,18.7s22.5,12.6,25.8,19c3.3,6.4-6.1,12.7-15.3,19
			c-9.2,6.2-18.3,12.4-22.8,18.7c-4.5,6.2-4.5,12.6-5.3,18.9c-0.7,6.2-2.2,12.4-7.9,18.7s-15.6,12.6-9,19
			c6.5,6.4,29.5,12.7,75.4,18.8c45.9,6.1,114.7,11.8,120.4,17.8s-51.7,12.4-90.4,18.7s-58.6,12.4-51.8,18.7s40.1,12.6,39.3,18.9
			c-0.8,6.2-35.8,12.4-54,18.7s-19.6,12.6-23.1,19c-3.5,6.4-9,12.7-10.7,19c-1.8,6.2,0.3,12.4,5,18.7s12.2,12.6,11.4,18.9
			s-10,12.4-13.9,18.7s-2.6,12.6,1.1,19c3.7,6.4,9.8,12.7,13.3,18.8c3.5,6,4.5,11.8,4.7,17.8s-0.5,12.4-4.9,18.7
			c-4.4,6.2-12.6,12.4-12,18.7s10,12.6,19.1,18.9s17.8,12.4,18.7,18.7s-6.1,12.6-6.2,19s6.8,12.7,5.8,19c-1,6.2-9.9,12.4-14.4,15.5
			l-4.5,3.1h-5.7l4.2-3.1c4.2-3.1,12.5-9.2,14.1-15.5s-3.7-12.6-2.8-19s8-12.7,6.3-19c-1.7-6.2-12.3-12.4-24.2-18.7
			s-25.2-12.6-27.4-18.9s6.8-12.4,12.6-18.7c5.7-6.2,8.2-12.6,9.7-18.7s2.1-11.8-0.5-17.8c-2.7-6-8.6-12.4-11.9-18.8
			c-3.3-6.3-3.9-12.7,0.3-19c4.2-6.2,13.3-12.4,13.5-18.7c0.2-6.2-8.5-12.6-13.5-18.9c-5.1-6.2-6.5-12.4-4.3-18.7s8.1-12.6,12.4-19
			c4.3-6.4,7-12.7,25.5-19c18.5-6.2,52.9-12.4,52.1-18.7c-0.8-6.2-36.7-12.6-47.5-18.9s3.5-12.4,40.9-18.7s97.9-12.6,93.7-18.7
			c-4.2-6-73-11.8-116.7-17.8c-43.8-6-62.5-12.4-66.4-18.8c-4-6.4,6.9-12.7,12.9-19c6-6.2,7.2-12.4,7.3-18.7
			c0.1-6.3-1-12.6,3.1-18.9s13.6-12.4,23.6-18.7c10-6.2,20.5-12.6,17.5-19c-3-6.4-19.4-12.7-26.3-19c-6.9-6.2-4.4-12.4-3.2-18.7
			c1.2-6.2,1-12.6,3.9-18.9c2.9-6.2,8.9-12.4,9.2-18.7c0.3-6.2-5-12.6-5.4-18.7c-0.5-6,3.9-11.8-8.3-17.8
			c-12.1-6.1-40.7-12.4-55-15.6l-14.3-3.2L249.7,73.1L249.7,73.1z"/>
		<path id="executive-stream" class="st12" d="M249.5,73.1l14.3,3.2c14.3,3.2,42.9,9.5,55,15.6c12.1,6.1,7.8,11.8,8.3,17.8
			s5.8,12.4,5.4,18.7s-6.3,12.4-9.2,18.7s-2.7,12.6-3.9,18.9c-1.2,6.2-3.7,12.4,3.2,18.7s23.3,12.6,26.3,19s-7.5,12.7-17.5,19
			c-10,6.2-19.4,12.4-23.6,18.7s-3.1,12.6-3.1,18.9c-0.1,6.2-1.3,12.4-7.3,18.7s-16.9,12.6-12.9,19c4,6.4,22.7,12.7,66.4,18.8
			c43.8,6.1,112.6,11.8,116.7,17.8s-56.3,12.4-93.7,18.7s-51.7,12.4-40.9,18.7s46.7,12.6,47.5,18.9c0.8,6.2-33.6,12.4-52.1,18.7
			c-18.5,6.2-21.2,12.6-25.5,19c-4.3,6.4-10.2,12.7-12.4,19c-2.2,6.2-0.8,12.4,4.3,18.7c5.1,6.2,13.7,12.6,13.5,18.9
			c-0.2,6.2-9.3,12.4-13.5,18.7c-4.2,6.2-3.6,12.6-0.3,19c3.3,6.4,9.2,12.7,11.9,18.8c2.7,6,2.1,11.8,0.5,17.8
			c-1.5,6-4,12.4-9.7,18.7s-14.7,12.4-12.6,18.7s15.4,12.6,27.4,18.9s22.5,12.4,24.2,18.7c1.7,6.2-5.4,12.6-6.3,19
			c-0.9,6.4,4.3,12.7,2.8,19c-1.6,6.2-9.9,12.4-14.1,15.5l-4.2,3.1h-20.6l7-3.1c7-3.1,20.9-9.2,24.4-15.5s-3.6-12.6-4.4-19
			c-0.8-6.4,4.8-12.7,2.5-19c-2.3-6.2-12.4-12.4-22.5-18.7s-20.1-12.6-21.8-18.9s5-12.4,10.6-18.7c5.6-6.2,10-12.6,12.7-18.7
			s3.8-11.8-1.2-17.8c-5-6-16-12.4-19-18.8c-3-6.4,2.2-12.7,1.3-19c-0.9-6.2-7.9-12.4-12.6-18.7c-4.7-6.2-7.2-12.6-8.1-18.9
			s-0.1-12.4,5.7-18.7c5.9-6.2,16.8-12.6,22.8-19c6-6.4,7-12.7,26-19c19-6.2,55.9-12.4,56.9-18.7c1-6.2-33.9-12.6-44.1-18.9
			s4.4-12.4,41.5-18.7s96.9-12.6,92.6-18.7c-4.3-6-72.7-11.8-117-17.8c-44.3-6-64.4-12.4-68.2-18.8c-3.8-6.4,8.9-12.7,14.9-19
			c6-6.2,5.2-12.4,4.7-18.7c-0.5-6.3-0.9-12.6,3.8-18.9s14.4-12.4,23.5-18.7c9.1-6.2,17.5-12.6,13.6-19c-3.9-6.4-20-12.7-28.3-19
			c-8.2-6.2-8.6-12.4-7-18.7s4.9-12.6,5.3-18.9c0.3-6.2-2.4-12.4-7.4-18.7c-5-6.2-12.2-12.6-12.4-18.7c-0.1-6,6.9-11.8,0.1-17.8
			c-6.8-6.1-27.5-12.4-37.9-15.6l-10.4-3.2H249.5L249.5,73.1z"/>
		<path id="immigration-stream" class="st13" d="M241.5,73.1l10.4,3.2c10.3,3.2,31.1,9.5,37.9,15.6c6.8,6.1-0.2,11.8-0.1,17.8
			s7.4,12.4,12.4,18.7c5,6.2,7.7,12.4,7.4,18.7s-3.7,12.6-5.3,18.9c-1.5,6.2-1.2,12.4,7,18.7s24.4,12.6,28.3,19s-4.6,12.7-13.6,19
			c-9.1,6.2-18.8,12.4-23.5,18.7s-4.4,12.6-3.8,18.9c0.5,6.2,1.3,12.4-4.7,18.7s-18.6,12.6-14.9,19c3.8,6.4,23.9,12.7,68.2,18.8
			c44.3,6.1,112.7,11.8,117,17.8s-55.5,12.4-92.6,18.7s-51.7,12.4-41.5,18.7c10.2,6.2,45.1,12.6,44.1,18.9
			c-1,6.2-37.9,12.4-56.9,18.7s-20,12.6-26,19c-6,6.4-17,12.7-22.8,19c-5.9,6.2-6.6,12.4-5.7,18.7c0.9,6.2,3.4,12.6,8.1,18.9
			s11.7,12.4,12.6,18.7c0.9,6.2-4.2,12.6-1.3,19c3,6.4,14,12.7,19,18.8c5,6,3.9,11.8,1.2,17.8c-2.7,6-7.2,12.4-12.7,18.7
			s-12.3,12.4-10.6,18.7s11.7,12.6,21.8,18.9c10.1,6.2,20.2,12.4,22.5,18.7c2.3,6.2-3.2,12.6-2.5,19c0.8,6.4,7.8,12.7,4.4,19
			c-3.5,6.2-17.4,12.4-24.4,15.5l-7,3.1h-6.1l6.6-3.1c6.6-3.1,19.8-9.2,21.9-15.5c2.1-6.2-6.8-12.6-19.2-19s-28-12.7-29.5-19
			s11.2-12.4,12.4-18.7c1.2-6.2-9.2-12.6-10.3-18.9s7-12.4,13.4-18.7c6.4-6.2,11.2-12.6,9.4-18.7s-9.9-11.8-15.1-17.8
			s-7.5-12.4-6-18.8c1.5-6.4,6.9-12.7,6.1-19c-0.8-6.2-7.7-12.4-12.6-18.7c-4.9-6.2-7.7-12.6-8.3-18.9c-0.6-6.2,1-12.4,6.4-18.7
			s14.4-12.6,17-19c2.6-6.4-1.1-12.7-17.3-19c-16.1-6.2-44.6-12.4-41.1-18.7c3.5-6.2,38.9-12.6,63.9-18.9
			c25-6.2,39.4-12.4,75.5-18.7c36.1-6.2,93.8-12.6,89.6-18.7c-4.2-6-70.3-11.8-114.4-17.8c-44.1-6-66.2-12.4-70.2-18.8
			c-4-6.4,10.2-12.7,17.4-19c7.2-6.2,7.5-12.4,7.7-18.7c0.2-6.3,0.3-12.6-3.2-18.9s-10.4-12.4-2.1-18.7s31.8-12.6,36.2-19
			s-10.2-12.7-17.9-19c-7.7-6.2-8.4-12.4-11.1-18.7s-7.3-12.6-7.6-18.9s3.9-12.4,1.3-18.7c-2.6-6.2-12-12.6-20.9-18.7
			c-8.9-6-17.2-11.8-27.6-17.8c-10.4-6.1-22.7-12.4-28.9-15.6l-6.2-3.2L241.5,73.1L241.5,73.1z"/>
		<path id="guns-stream" class="st14" d="M202.9,73.1l6.2,3.2c6.2,3.2,18.5,9.5,28.9,15.6c10.4,6.1,18.7,11.8,27.6,17.8
			s18.3,12.4,20.9,18.7s-1.5,12.4-1.3,18.7c0.3,6.2,4.9,12.6,7.6,18.9s3.4,12.4,11.1,18.7c7.7,6.2,22.4,12.6,17.9,19
			s-27.9,12.7-36.2,19c-8.3,6.2-1.3,12.4,2.1,18.7s3.4,12.6,3.2,18.9c-0.2,6.2-0.5,12.4-7.7,18.7s-21.4,12.6-17.4,19
			c4,6.4,26.1,12.7,70.2,18.8c44.1,6.1,110.2,11.8,114.4,17.8s-53.5,12.4-89.6,18.7s-50.6,12.4-75.5,18.7
			c-25,6.2-60.4,12.6-63.9,18.9c-3.5,6.2,25,12.4,41.1,18.7c16.1,6.2,19.9,12.6,17.3,19c-2.6,6.4-11.7,12.7-17,19
			c-5.3,6.2-7,12.4-6.4,18.7c0.6,6.2,3.5,12.6,8.3,18.9c4.9,6.2,11.8,12.4,12.6,18.7s-4.6,12.6-6.1,19c-1.5,6.4,0.8,12.7,6,18.8
			c5.2,6,13.4,11.8,15.1,17.8c1.7,6-3,12.4-9.4,18.7c-6.4,6.2-14.5,12.4-13.4,18.7s11.5,12.6,10.3,18.9s-13.9,12.4-12.4,18.7
			s17.2,12.6,29.5,19s21.3,12.7,19.2,19c-2.1,6.2-15.3,12.4-21.9,15.5l-6.6,3.1h-1.4l6-3.1c6-3.1,18-9.2,15.6-15.5s-19.1-12.6-31-19
			c-11.8-6.4-18.7-12.7-17-19s12-12.4,13-18.7s-7-12.6-7.3-18.9s7.1-12.4,13.1-18.7c6-6.2,10.6-12.6,9.1-18.7s-8.9-11.8-13.8-17.8
			s-7.2-12.4-5.4-18.8c1.7-6.3,7.5-12.7,6.7-19c-0.8-6.2-8.1-12.4-13.2-18.7s-7.9-12.6-8.6-18.9c-0.6-6.2,0.9-12.4,5.6-18.7
			s12.5-12.6,14.4-19c1.9-6.4-2.1-12.7-19.4-19c-17.3-6.2-47.9-12.4-44.7-18.7s40.1-12.6,47.4-18.9c7.2-6.2-15.2-12.4-57.4-18.7
			s-104.3-12.6-98.6-18.7c5.7-6,79.3-11.8,114.8-17.8c35.5-6,33-12.4,38.9-18.8c5.9-6.4,20.2-12.7,27.6-19
			c7.4-6.2,7.8-12.4,7.5-18.7c-0.3-6.3-1.4-12.6-4.9-18.9s-9.3-12.4-0.5-18.7s32.3-12.6,36.7-19c4.3-6.4-10.5-12.7-18.5-19
			c-8-6.2-9.3-12.4-12-18.7c-2.7-6.2-6.8-12.6-6.8-18.9s4-12.4,1.4-18.7c-2.7-6.2-12-12.6-20.6-18.7c-8.6-6-16.4-11.8-26.5-17.8
			c-10.1-6.1-22.4-12.4-28.6-15.6L202.9,73.1z"/>
		<path id="race-stream" class="st15" d="M202.9,73.1l6.2,3.2c6.2,3.2,18.5,9.5,28.6,15.6c10.1,6.1,17.9,11.8,26.5,17.8
			s18,12.4,20.6,18.7c2.7,6.2-1.4,12.4-1.4,18.7s4.1,12.6,6.8,18.9s3.9,12.4,12,18.7c8,6.2,22.9,12.6,18.5,19s-27.8,12.7-36.7,19
			c-8.8,6.2-3,12.4,0.5,18.7s4.6,12.6,4.9,18.9c0.3,6.2-0.1,12.4-7.5,18.7s-21.7,12.6-27.6,19c-5.9,6.4-3.4,12.7-38.9,18.8
			c-35.5,6.1-109.1,11.8-114.8,17.8c-5.7,6,56.3,12.4,98.6,18.7s64.7,12.4,57.4,18.7s-44.2,12.6-47.4,18.9
			c-3.2,6.2,27.4,12.4,44.7,18.7s21.3,12.6,19.4,19c-1.9,6.4-9.7,12.7-14.4,19c-4.7,6.2-6.2,12.4-5.6,18.7s3.5,12.6,8.6,18.9
			s12.4,12.4,13.2,18.7c0.8,6.2-5,12.6-6.7,19c-1.7,6.4,0.5,12.7,5.4,18.8c4.9,6,12.3,11.8,13.8,17.8s-3.1,12.4-9.1,18.7
			c-6,6.2-13.4,12.4-13.1,18.7s8.4,12.6,7.3,18.9s-11.3,12.4-13,18.7s5.2,12.6,17,19c11.8,6.4,28.6,12.7,31,19
			c2.4,6.2-9.6,12.4-15.6,15.5l-6,3.1h-9.9l6.4-3.1c6.4-3.1,19.3-9.2,16.7-15.5s-20.7-12.6-32.7-19c-12-6.4-17.9-12.7-15.4-19
			c2.5-6.2,13.5-12.4,14-18.7s-9.4-12.6-10.1-18.9s7.6-12.4,14-18.7c6.4-6.2,10.8-12.6,9.3-18.7c-1.5-6-9-11.8-17.1-17.8
			c-8.1-6-17-12.4-14.3-18.8c2.6-6.4,16.8-12.7,19.4-19c2.6-6.2-6.3-12.4-12.7-18.7s-10.1-12.6-11.4-18.9s-0.1-12.4,3.5-18.7
			s9.4-12.6,11.9-19c2.6-6.4,1.9-12.7-14.1-19c-15.9-6.2-47.1-12.4-43.9-18.7c3.1-6.2,40.6-12.6,46.9-18.9s-18.2-12.4-61-18.7
			s-103.5-12.6-97-18.7c6.5-6,80.2-11.8,113.4-17.8c33.2-6,25.7-12.4,32.3-18.8c6.6-6.4,27.3-12.7,35.9-19
			c8.6-6.2,5.1-12.4,0.4-18.7c-4.7-6.3-10.5-12.6-17.6-18.9c-7.1-6.2-15.6-12.4-21.2-18.7s-8.4-12.6,1.4-19s32-12.7,42.1-19
			c10.1-6.2,8-12.4,4.4-18.7c-3.7-6.2-9-12.6-8.5-18.9s6.5-12.4,4.7-18.7c-1.8-6.2-11.5-12.6-19.7-18.7c-8.2-6-15-11.8-23.9-17.8
			c-8.8-6.1-19.8-12.4-25.2-15.6l-5.5-3.2H202.9L202.9,73.1z"/>
		<path id="collective-bargaining-stream" class="st16" d="M201.5,73.1l5.5,3.2c5.5,3.2,16.4,9.5,25.2,15.6
			c8.8,6.1,15.6,11.8,23.9,17.8c8.2,6.1,17.9,12.4,19.7,18.7s-4.3,12.4-4.7,18.7s4.9,12.6,8.5,18.9s5.7,12.4-4.4,18.7
			c-10.1,6.2-32.3,12.6-42.1,19s-7,12.7-1.4,19c5.6,6.2,14,12.4,21.2,18.7c7.1,6.2,13,12.6,17.6,18.9c4.7,6.2,8.2,12.4-0.4,18.7
			c-8.6,6.2-29.3,12.6-35.9,19c-6.6,6.4,0.8,12.7-32.3,18.8c-33.2,6.1-106.9,11.8-113.4,17.8c-6.5,6,54.3,12.4,97,18.7
			s67.4,12.4,61,18.7s-43.8,12.6-46.9,18.9c-3.1,6.2,28,12.4,43.9,18.7s16.6,12.6,14.1,19c-2.6,6.4-8.4,12.7-11.9,19
			c-3.5,6.2-4.8,12.4-3.5,18.7s5.1,12.6,11.4,18.9c6.4,6.2,15.3,12.4,12.7,18.7s-16.7,12.6-19.4,19c-2.6,6.4,6.2,12.7,14.3,18.8
			c8.1,6,15.6,11.8,17.1,17.8c1.5,6-2.9,12.4-9.3,18.7s-14.8,12.4-14,18.7s10.7,12.6,10.1,18.9s-11.5,12.4-14,18.7
			c-2.5,6.2,3.4,12.6,15.4,19s30.1,12.7,32.7,19c2.6,6.2-10.2,12.4-16.7,15.5l-6.4,3.1h-13.7l6.7-3.1c6.7-3.1,20-9.2,17.9-15.5
			s-19.6-12.6-31.5-19c-11.9-6.4-18.1-12.7-16.2-19s12-12.4,11.8-18.7s-10.7-12.6-10.7-18.9s10.6-12.4,18-18.7
			c7.4-6.2,11.7-12.6,10.8-18.7s-6.8-11.8-14.4-17.8c-7.6-6-16.8-12.4-14.4-18.8c2.4-6.4,16.3-12.7,19.3-19c3-6.2-5-12.4-13.7-18.7
			s-18.2-12.6-20.9-18.9c-2.7-6.2,1.4-12.4,6.5-18.7s11.3-12.6,14.7-19c3.4-6.4,4.1-12.7-11.3-19c-15.4-6.2-47-12.4-43.7-18.7
			c3.2-6.2,41.2-12.6,48-18.9s-17.4-12.4-60-18.7s-103.7-12.6-98.6-18.7c5.1-6,76.2-11.8,110-17.8c33.8-6,30.1-12.4,38.3-18.8
			c8.2-6.4,28.4-12.7,36.3-19c7.9-6.2,3.6-12.4-1.2-18.7c-4.8-6.3-10.1-12.6-17.3-18.9s-16.4-12.4-22-18.7c-5.6-6.2-7.6-12.6,2.9-19
			s33.6-12.7,43.8-19c10.1-6.2,7.3-12.4,2.8-18.7s-10.8-12.6-10.4-18.9c0.3-6.2,7.2-12.4,5.9-18.7c-1.3-6.2-10.9-12.6-18.2-18.7
			c-7.4-6-12.6-11.8-20.6-17.8c-8-6.1-18.8-12.4-24.1-15.6L201.5,73.1z"/>
		<path id="environment-stream" class="st17" d="M201.5,73.1l5.4,3.2c5.4,3.2,16.1,9.5,24.1,15.6c8,6.1,13.2,11.8,20.6,17.8
			c7.4,6.1,16.9,12.4,18.2,18.7c1.3,6.2-5.6,12.4-5.9,18.7c-0.3,6.2,5.9,12.6,10.4,18.9c4.5,6.2,7.4,12.4-2.8,18.7
			s-33.2,12.6-43.8,19c-10.5,6.4-8.5,12.7-2.9,19c5.6,6.2,14.8,12.4,22,18.7s12.5,12.6,17.3,18.9c4.8,6.2,9.1,12.4,1.2,18.7
			c-7.9,6.2-28.1,12.6-36.3,19c-8.2,6.4-4.6,12.7-38.3,18.8c-33.8,6.1-104.9,11.8-110,17.8c-5.1,6,56,12.4,98.6,18.7
			s66.9,12.4,60,18.7s-44.8,12.6-48,18.9c-3.2,6.2,28.3,12.4,43.7,18.7c15.4,6.2,14.7,12.6,11.3,19c-3.4,6.4-9.6,12.7-14.7,19
			c-5.1,6.2-9.2,12.4-6.5,18.7s12.2,12.6,20.9,18.9c8.7,6.2,16.7,12.4,13.7,18.7s-16.9,12.6-19.3,19c-2.4,6.4,6.9,12.7,14.4,18.8
			c7.6,6,13.5,11.8,14.4,17.8s-3.4,12.4-10.8,18.7s-18,12.4-18,18.7s10.5,12.6,10.7,18.9c0.2,6.2-9.9,12.4-11.8,18.7
			s4.3,12.6,16.2,19c11.9,6.4,29.4,12.7,31.5,19c2.1,6.2-11.2,12.4-17.9,15.5l-6.7,3.1H255l-4.6-3.1c-4.6-3.1-14-9.2-15.9-15.5
			c-2-6.2,3.3-12.6,2.9-19s-6.6-12.7-4.8-19c1.8-6.2,11.5-12.4,10.7-18.7s-12.1-12.6-12.7-18.9c-0.5-6.2,9.7-12.4,14.8-18.7
			c5.1-6.2,5-12.6,5.5-18.7s1.7-11.8-2.5-17.8s-13.7-12.4-11.6-18.8c2.1-6.3,15.9-12.7,19-19c3.1-6.2-4.6-12.4-13.3-18.7
			c-8.7-6.2-18.5-12.6-22.4-18.9c-3.9-6.2-1.9-12.4,3-18.7c4.9-6.2,12.7-12.6,16.8-19c4.1-6.4,4.4-12.7-11.1-19
			c-15.5-6.2-46.7-12.4-43.4-18.7c3.3-6.2,41.2-12.6,48-18.9s-17.7-12.4-60.3-18.7s-103.6-12.6-98.9-18.7
			c4.7-6,75.1-11.8,109.4-17.8c34.3-6,32.5-12.4,41.5-18.8c9-6.4,28.7-12.7,36.3-19c7.6-6.2,3-12.4-2.5-18.7
			c-5.4-6.3-11.6-12.6-19-18.9s-15.9-12.4-21.3-18.7s-7.8-12.6,2.8-19s34.3-12.7,44.5-19c10.2-6.2,7.1-12.4,2.2-18.7
			s-11.6-12.6-13.9-18.9s-0.2-12.4-2.2-18.7c-2-6.2-8.2-12.6-13.6-18.7c-5.4-6-10.1-11.8-16.4-17.8c-6.3-6.1-14.3-12.4-18.3-15.6
			l-4-3.2H201.5L201.5,73.1z"/>
		<path id="healthcare-stream" class="st18" d="M199.6,73.1l4,3.2c4,3.2,12,9.5,18.3,15.6c6.3,6.1,11,11.8,16.4,17.8
			s11.6,12.4,13.6,18.7s-0.1,12.4,2.2,18.7c2.3,6.2,9,12.6,13.9,18.9s8.1,12.4-2.2,18.7s-33.9,12.6-44.6,19s-8.3,12.7-2.8,19
			c5.4,6.2,14,12.4,21.3,18.7s13.6,12.6,19,18.9c5.4,6.2,10,12.4,2.5,18.7s-27.3,12.6-36.3,19c-9,6.4-7.2,12.7-41.5,18.8
			c-34.3,6.1-104.7,11.8-109.4,17.8s56.2,12.4,98.9,18.7s67.1,12.4,60.3,18.7c-6.7,6.2-44.6,12.6-48,18.9
			c-3.3,6.2,27.9,12.4,43.4,18.7c15.5,6.2,15.1,12.6,11.1,19c-4.1,6.4-11.9,12.7-16.8,19c-4.9,6.2-6.9,12.4-3,18.7
			s13.7,12.6,22.4,18.9c8.7,6.2,16.4,12.4,13.3,18.7c-3.1,6.2-16.9,12.6-19,19c-2.1,6.4,7.4,12.7,11.6,18.8c4.2,6,3.1,11.8,2.5,17.8
			c-0.5,6-0.4,12.4-5.5,18.7s-15.3,12.4-14.8,18.7s11.9,12.6,12.7,18.9s-8.9,12.4-10.7,18.7c-1.8,6.2,4.4,12.6,4.8,19
			s-4.9,12.7-2.9,19c2,6.2,11.3,12.4,15.9,15.5l4.6,3.1h-4.5l-4-3.1c-4-3.1-11.9-9.2-13.6-15.5c-1.7-6.2,2.9-12.6,2.3-19
			s-6.6-12.7-4.7-19c1.9-6.2,11.5-12.4,10.3-18.7s-13.2-12.6-13.6-18.9s10.8-12.4,16.1-18.7c5.3-6.2,4.6-12.6,4.9-18.7
			c0.3-6,1.4-11.8-2.5-17.8s-12.9-12.4-10.4-18.8c2.5-6.4,16.6-12.7,19.6-19c3.1-6.2-4.8-12.4-13.6-18.7s-18.6-12.6-22.9-18.9
			c-4.3-6.2-3.2-12.4,1.5-18.7c4.7-6.2,13-12.6,17.6-19c4.6-6.4,5.6-12.7-9.9-19c-15.4-6.2-47.2-12.4-44.7-18.7s39.3-12.6,46.1-18.9
			c6.9-6.2-16.2-12.4-58.3-18.7s-103.2-12.6-98.7-18.7c4.5-6,74.7-11.8,109-17.8c34.3-6,32.9-12.4,42.1-18.8
			c9.2-6.4,29-12.7,36.7-19c7.6-6.2,3.1-12.4-2.3-18.7c-5.4-6.3-11.6-12.6-19.5-18.9c-7.9-6.2-17.6-12.4-23.4-18.7s-8-12.6-1-19
			c7-6.4,23.1-12.7,31.3-19c8.3-6.2,8.8-12.4,5.2-18.7s-11.1-12.6-11.3-18.9s6.9-12.4,4.9-18.7c-2-6.2-13.2-12.6-20-18.7
			c-6.7-6-9-11.8-12.4-17.8c-3.4-6.1-7.9-12.4-10.2-15.6l-2.3-3.2L199.6,73.1L199.6,73.1z"/>
		<path id="other-stream" class="st19" d="M198.6,73.1l2.3,3.2c2.3,3.2,6.8,9.5,10.2,15.6c3.4,6.1,5.7,11.8,12.4,17.8
			s17.9,12.4,20,18.7s-5.1,12.4-4.9,18.7s7.8,12.6,11.3,18.9s3.1,12.4-5.2,18.7s-24.4,12.6-31.3,19c-7,6.4-4.9,12.7,1,19
			c5.9,6.2,15.5,12.4,23.4,18.7s14.1,12.6,19.5,18.9c5.4,6.2,9.9,12.4,2.3,18.7c-7.6,6.2-27.5,12.6-36.7,19
			c-9.2,6.4-7.7,12.7-42.1,18.8c-34.3,6.1-104.5,11.8-109,17.8c-4.5,6,56.6,12.4,98.7,18.7s65.1,12.4,58.3,18.7
			c-6.9,6.2-43.6,12.6-46.1,18.9c-2.5,6.2,29.3,12.4,44.7,18.7s14.5,12.6,9.9,19c-4.6,6.4-12.9,12.7-17.6,19
			c-4.7,6.2-5.9,12.4-1.5,18.7c4.3,6.2,14.1,12.6,22.9,18.9c8.8,6.2,16.7,12.4,13.6,18.7s-17.1,12.6-19.6,19
			c-2.5,6.4,6.5,12.7,10.4,18.8c3.9,6,2.8,11.8,2.5,17.8s0.4,12.4-4.9,18.7s-16.5,12.4-16.1,18.7s12.4,12.6,13.6,18.9
			s-8.4,12.4-10.3,18.7s4.1,12.6,4.7,19s-4,12.7-2.3,19c1.7,6.2,9.6,12.4,13.6,15.5l4,3.1h-36.7l-3.1-3.1c-3.1-3.1-9.3-9.2-9.4-15.5
			s6.1-12.6,5.9-19s-6.5-12.7-6.2-19c0.3-6.2,7.2-12.4,5.7-18.7s-11.6-12.6-11.7-18.9s9.8-12.4,14.8-18.7c5.1-6.2,5.3-12.6,6.7-18.7
			s4.1-11.8,1.5-17.8s-10.4-12.4-5.7-18.8c4.6-6.3,21.8-12.7,25.1-19c3.4-6.2-7.1-12.4-19-18.7c-12-6.2-25.6-12.6-28.9-18.9
			s3.5-12.4,10.7-18.7s14.8-12.6,18.7-19c3.9-6.4,4.3-12.7-13-19c-17.2-6.2-52-12.4-52.1-18.7s34.6-12.6,40.3-18.9
			s-17.6-12.4-57.9-18.7s-97.4-12.6-90.2-18.7c7.2-6,78.8-11.8,115-17.8c36.3-6,37.3-12.4,44.5-18.8c7.2-6.4,20.7-12.7,25.6-19
			c4.9-6.2,1.3-12.4-3.2-18.7c-4.6-6.3-10.1-12.6-16.9-18.9c-6.8-6.2-14.8-12.4-20.9-18.7c-6-6.2-10.1-12.6-3.8-19
			c6.3-6.4,22.8-12.7,29.7-19c6.9-6.2,4.1-12.4,1.9-18.7s-4.1-12.6-8.5-18.9c-4.4-6.2-11.5-12.4-15.4-18.7
			c-3.9-6.2-4.6-12.6-5.3-18.7c-0.7-6-1.4-11.8,0.1-17.8c1.5-6.1,5.3-12.4,7.1-15.6l1.9-3.2L198.6,73.1L198.6,73.1z"/>
		<g id="annotations">
			<rect x="131.7" y="148.4" class="st20" width="69.9" height="41.5"/>
			<rect x="224.5" y="385.8" class="st3" width="133.4" height="14.8"/>
			<text transform="matrix(1 0 0 1 228.5663 393.3088)" class="st4 st5 st21">Immigrant family separation</text>
			<rect x="242.4" y="664" class="st3" width="35.6" height="22.8"/>
			<text transform="matrix(1 0 0 1 243.0967 671.4947)" class="st4 st5 st21">Climate </text>
			<text transform="matrix(1 0 0 1 247.4767 683.4947)" class="st4 st5 st21">Strike</text>
			<rect x="268.8" y="622.7" class="st3" width="53.7" height="22.8"/>
			<text transform="matrix(1 0 0 1 281.0428 630.212)" class="st4 st5 st21">Family </text>
			<text transform="matrix(1 0 0 1 272.0828 642.212)" class="st4 st5 st21">separation</text>

				<rect x="227.5" y="197.4" transform="matrix(0.9998 -1.770077e-02 1.770077e-02 0.9998 -3.6852 4.846)" class="st3" width="88.8" height="26.4"/>
			<text transform="matrix(0.9998 -1.770077e-02 1.770077e-02 0.9998 227.4251 205.3961)" class="st22 st5 st23">       Unite the Right </text>
			<text transform="matrix(0.9998 -1.770077e-02 1.770077e-02 0.9998 227.6375 217.3938)" class="st22 st5 st23">(Charlottesville)</text>
			<g>
				<rect x="306.4" y="577.9" class="st3" width="50.4" height="26.4"/>
				<text transform="matrix(1 0 0 1 322.3227 583.8802)" class="st4 st5 st24">State </text>
				<text transform="matrix(1 0 0 1 316.7827 593.4803)" class="st4 st5 st24">abortion     </text>
				<text transform="matrix(1 0 0 1 311.5127 603.0803)" class="st4 st5 st24">restrictions</text>
			</g>
			<rect x="309.3" y="76.4" class="st3" width="51.1" height="26.8"/>
			<text transform="matrix(1 0 0 1 309.2696 83.9067)" class="st4 st5 st21">Women’s </text>
			<text transform="matrix(1 0 0 1 309.2696 95.9067)" class="st4 st5 st21">         March</text>

				<rect x="309.4" y="272.2" transform="matrix(1.840056e-02 -0.9998 0.9998 1.840056e-02 16.4355 620.8738)" class="st3" width="30.1" height="59.8"/>
			<text transform="matrix(0.9998 1.840056e-02 -1.840056e-02 0.9998 294.7176 293.2007)" class="st4 st5 st25">Women’s </text>
			<text transform="matrix(0.9998 1.840056e-02 -1.840056e-02 0.9998 294.5189 303.9987)" class="st4 st5 st25">         March</text>

				<rect x="303.2" y="509.5" transform="matrix(0.72 -0.6939 0.6939 0.72 -279.9281 369.7301)" class="st3" width="30.1" height="44.5"/>
			<text transform="matrix(0.694 0.72 -0.72 0.694 309.4056 509.4774)" class="st4 st5 st24">Women’s </text>
			<text transform="matrix(0.694 0.72 -0.72 0.694 302.4935 516.14)" class="st4 st5 st24">March</text>
			<rect x="196.1" y="118.8" class="st3" width="44.5" height="35.1"/>
			<text transform="matrix(1 0 0 1 196.1142 126.3513)" class="st4 st5 st21">March for  </text>
			<text transform="matrix(1 0 0 1 196.1142 138.3513)" class="st4 st5 st21">   Science</text>
			<rect x="138.7" y="153.9" class="st3" width="66.3" height="41.4"/>
			<text transform="matrix(1 0 0 1 152.4124 161.1291)" class="st5 st21">Affordable </text>
			<text transform="matrix(1 0 0 1 159.0924 173.1291)" class="st5 st21">Care Act </text>
			<text transform="matrix(1 0 0 1 139.6324 185.1291)" class="st5 st21">repeal efforts</text>
			<rect x="154.4" y="554.4" class="st3" width="43" height="24.5"/>
			<rect x="157.5" y="537.5" class="st26" width="49" height="38.2"/>
			<text transform="matrix(1 0 0 1 165.5762 554.5838)" class="st5 st21">Climate </text>
			<text transform="matrix(1 0 0 1 173.9062 566.5838)" class="st5 st21">Strike</text>
			<rect x="299.9" y="103.2" class="st3" width="28.9" height="22.9"/>
			<text transform="matrix(1 0 0 1 299.9241 110.7505)" class="st27 st5 st21">Tax </text>
			<text transform="matrix(1 0 0 1 299.9241 122.7505)" class="st27 st5 st21">March</text>

				<rect x="286.5" y="453.5" transform="matrix(6.164458e-03 -1 1 6.164458e-03 -186.5111 777.6418)" class="st3" width="22.9" height="58.4"/>
			<text transform="matrix(1 6.160000e-03 -6.160000e-03 1 268.7938 478.5156)" class="st27 st5 st21">#Protect</text>
			<text transform="matrix(1 6.160000e-03 -6.160000e-03 1 268.7198 490.5156)" class="st27 st5 st21">  Mueller</text>

				<rect x="256.5" y="70.4" transform="matrix(0.6362 -0.7715 0.7715 0.6362 17.0648 240.3318)" class="st3" width="13.8" height="63.3"/>
			<text transform="matrix(0.7715 0.6362 -0.6362 0.7715 238.5937 82.4112)" class="st4 st5 st21">Muslim bans</text>
			<g>
				<rect x="189.1" y="326.8" class="st3" width="175.8" height="55.2"/>
				<text transform="matrix(1 0 0 1 202.908 334.2539)" class="st4 st5 st21">March For Our Lives and National </text>
				<text transform="matrix(1 0 0 1 242.328 346.2539)" class="st4 st5 st21">School Walkout</text>
			</g>
			<g>
				<rect x="231.1" y="257.8" class="st3" width="34.4" height="19.8"/>
				<text transform="matrix(1 0 0 1 240.9386 264.5674)" class="st4 st5 st28">Tax </text>
				<text transform="matrix(1 0 0 1 234.7985 275.3673)" class="st4 st5 st28">reform</text>
			</g>
			<rect x="385.8" y="441.8" class="st3" width="71.9" height="52.5"/>
			<rect x="381.8" y="438.2" class="st29" width="86" height="52.3"/>
			<text transform="matrix(1 0 0 1 385.8248 449.3469)" class="st8 st5 st21 st38">Supreme Court,</text>
			<text transform="matrix(1 0 0 1 385.8248 461.3469)" class="st9 st5 st21 st38">women’s rights:</text>
			<text transform="matrix(1 0 0 1 385.8248 473.3469)" class="st22 st5 st21">Kavanaugh </text>
			<text transform="matrix(1 0 0 1 385.8248 485.3469)" class="st22 st5 st21">nomination</text>

				<rect x="283.9" y="213.3" transform="matrix(0.7737 -0.6335 0.6335 0.7737 -69.4444 251.9437)" class="st3" width="68.1" height="19.8"/>
			<text transform="matrix(0.7737 -0.6335 0.6335 0.7737 290.1403 242.8911)" class="st4 st5 st30">Defend DACA</text>
			<path class="st31" d="M305.4,456.8c0-2.9,15.3-5.3,34.2-5.3c6,0,11.6,0.2,16.5,0.6c10.6,0.9,17.8,2.6,17.8,4.6
				c0,1.6-4.7,3.1-12.1,4"/>
			<line class="st31" x1="373.8" y1="456.8" x2="381.8" y2="456.8"/>
			<path class="st31" d="M269.9,168c2.2,0.6,3.4,1.6,3.4,2.6c0,1.9-4.3,3.4-10.9,3.4c-6.6,0-12.9-1.5-12.9-3.4
				c0-0.5,0.6-2.1,1.3-2.6"/>
			<line class="st31" x1="249.6" y1="170.6" x2="201.4" y2="170.6"/>
			<path class="st31" d="M269.3,561c2.2,0.6,2.1,1.8,2.1,2.8c0,1.9-4.1,3.4-8.9,3.4c-6.6,0-12.9-1.5-12.9-3.4c0-0.5,0.6-2.1,1.3-2.5
				"/>
			<line class="st31" x1="249.7" y1="563.8" x2="204.8" y2="563.8"/>
		</g>
		<text transform="matrix(1 0 0 1 27.14 748.2505)" class="st4 st5 st32">Protests per month</text>
	</g>
	<g id="bar-charts">
		<g id="immigration-bar">
			<g>
				<g>
					<g>
						<text transform="matrix(1 0 0 1 23.335 724.0016)" class="st4 st5 st32">0</text>
						<text transform="matrix(1 0 0 1 97.4814 724.0016)" class="st4 st5 st32">200</text>
						<text transform="matrix(1 0 0 1 179.4893 724.0016)" class="st4 st5 st32">400</text>
						<text transform="matrix(1 0 0 1 261.4971 724.0016)" class="st4 st5 st32">600</text>
						<text transform="matrix(1 0 0 1 343.5049 724.0016)" class="st4 st5 st32">800</text>
						<text transform="matrix(1 0 0 1 421.582 724.0016)" class="st4 st5 st32">1000</text>
					</g>
					<g>
						<text transform="matrix(1 0 0 1 23.335 47.7148)" class="st4 st5 st32">0</text>
						<text transform="matrix(1 0 0 1 97.4814 47.7148)" class="st4 st5 st32">200</text>
						<text transform="matrix(1 0 0 1 179.4893 47.7148)" class="st4 st5 st32">400</text>
						<text transform="matrix(1 0 0 1 261.4971 47.7148)" class="st4 st5 st32">600</text>
						<text transform="matrix(1 0 0 1 343.5049 47.7148)" class="st4 st5 st32">800</text>
						<text transform="matrix(1 0 0 1 421.582 47.7148)" class="st4 st5 st32">1000</text>
					</g>
					<line class="st3" x1="27.3" y1="699.3" x2="437.3" y2="699.3"/>
					<g>
						<g>
							<line class="st33" x1="27.3" y1="699.3" x2="27.3" y2="683.4"/>
							<line class="st34" x1="109.3" y1="706.3" x2="109.3" y2="694.4"/>
							<line class="st34" x1="191.3" y1="706.3" x2="191.3" y2="694.4"/>
							<line class="st34" x1="273.3" y1="706.3" x2="273.3" y2="694.4"/>
							<line class="st34" x1="355.3" y1="706.3" x2="355.3" y2="694.4"/>
							<line class="st34" x1="437.3" y1="706.3" x2="437.3" y2="694.4"/>
							<line class="st34" x1="27.5" y1="706.3" x2="27.5" y2="694.4"/>
							<line class="st34" x1="109.3" y1="67.1" x2="109.3" y2="55.2"/>
							<line class="st34" x1="191.3" y1="67.1" x2="191.3" y2="55.2"/>
							<line class="st34" x1="273.3" y1="67.1" x2="273.3" y2="55.2"/>
							<line class="st34" x1="355.3" y1="67.1" x2="355.3" y2="55.2"/>
							<line class="st34" x1="437.3" y1="67.1" x2="437.3" y2="55.2"/>
							<line class="st34" x1="27.5" y1="67.1" x2="27.5" y2="55.2"/>
						</g>
						<g>
						</g>
					</g>
				</g>
				<g>
					<line class="st34" x1="27.3" y1="699.3" x2="27.3" y2="65.3"/>
					<g>
						<g>
							<line class="st3" x1="27.3" y1="690" x2="37.5" y2="690"/>
							<line class="st3" x1="27.3" y1="671.3" x2="37.5" y2="671.3"/>
							<line class="st3" x1="27.3" y1="652.7" x2="37.5" y2="652.7"/>
							<line class="st3" x1="27.3" y1="634" x2="37.5" y2="634"/>
							<line class="st3" x1="27.3" y1="615.4" x2="37.5" y2="615.4"/>
							<line class="st3" x1="27.3" y1="596.7" x2="37.5" y2="596.7"/>
							<line class="st3" x1="27.3" y1="578.1" x2="37.5" y2="578.1"/>
							<line class="st3" x1="27.3" y1="559.4" x2="37.5" y2="559.4"/>
							<line class="st3" x1="27.3" y1="540.8" x2="37.5" y2="540.8"/>
							<line class="st3" x1="27.3" y1="522.1" x2="37.5" y2="522.1"/>
							<line class="st3" x1="27.3" y1="503.5" x2="37.5" y2="503.5"/>
							<line class="st3" x1="27.3" y1="484.8" x2="37.5" y2="484.8"/>
							<line class="st3" x1="27.3" y1="466.2" x2="37.5" y2="466.2"/>
							<line class="st3" x1="27.3" y1="447.6" x2="37.5" y2="447.6"/>
							<line class="st3" x1="27.3" y1="428.9" x2="37.5" y2="428.9"/>
							<line class="st3" x1="27.3" y1="410.3" x2="37.5" y2="410.3"/>
							<line class="st3" x1="27.3" y1="391.6" x2="37.5" y2="391.6"/>
							<line class="st3" x1="27.3" y1="373" x2="37.5" y2="373"/>
							<line class="st3" x1="27.3" y1="354.3" x2="37.5" y2="354.3"/>
							<line class="st3" x1="27.3" y1="335.7" x2="37.5" y2="335.7"/>
							<line class="st3" x1="27.3" y1="317" x2="37.5" y2="317"/>
							<line class="st3" x1="27.3" y1="298.4" x2="37.5" y2="298.4"/>
							<line class="st3" x1="27.3" y1="279.7" x2="37.5" y2="279.7"/>
							<line class="st3" x1="27.3" y1="261.1" x2="37.5" y2="261.1"/>
							<line class="st3" x1="27.3" y1="242.4" x2="37.5" y2="242.4"/>
							<line class="st3" x1="27.3" y1="223.8" x2="37.5" y2="223.8"/>
							<line class="st3" x1="27.3" y1="205.1" x2="37.5" y2="205.1"/>
							<line class="st3" x1="27.3" y1="186.5" x2="37.5" y2="186.5"/>
							<line class="st3" x1="27.3" y1="167.8" x2="37.5" y2="167.8"/>
							<line class="st3" x1="27.3" y1="149.2" x2="37.5" y2="149.2"/>
							<line class="st3" x1="27.3" y1="130.6" x2="37.5" y2="130.6"/>
							<line class="st3" x1="27.3" y1="111.9" x2="37.5" y2="111.9"/>
							<line class="st3" x1="27.3" y1="93.3" x2="37.5" y2="93.3"/>
							<line class="st3" x1="27.3" y1="74.6" x2="37.5" y2="74.6"/>
						</g>
						<g>
						</g>
					</g>
				</g>
				<g>
					<g>
						<g>
							<rect x="27.3" y="67.9" class="st13" width="66.8" height="13.4"/>
							<rect x="27.3" y="86.5" class="st13" width="110.3" height="13.4"/>
							<rect x="27.3" y="105.2" class="st13" width="30.3" height="13.4"/>
							<rect x="27.3" y="123.8" class="st13" width="19.3" height="13.4"/>
							<rect x="27.3" y="142.5" class="st13" width="54.9" height="13.4"/>
							<rect x="27.3" y="161.1" class="st13" width="13.1" height="13.4"/>
							<rect x="27.3" y="179.8" class="st13" width="11.1" height="13.4"/>
							<rect x="27.3" y="198.4" class="st13" width="18.9" height="13.4"/>
							<rect x="27.3" y="217.1" class="st13" width="97.2" height="13.4"/>
							<rect x="27.3" y="235.7" class="st13" width="10.7" height="13.4"/>
							<rect x="27.3" y="254.4" class="st13" width="12.7" height="13.4"/>
							<rect x="27.3" y="273" class="st13" width="18" height="13.4"/>
							<rect x="27.3" y="291.7" class="st13" width="25.8" height="13.4"/>
							<rect x="27.3" y="310.3" class="st13" width="15.6" height="13.4"/>
							<rect x="27.3" y="329" class="st13" width="27.5" height="13.4"/>
							<rect x="27.3" y="347.6" class="st13" width="16.8" height="13.4"/>
							<rect x="27.3" y="366.3" class="st13" width="16.4" height="13.4"/>
							<rect x="27.3" y="384.9" class="st13" width="382.2" height="13.4"/>
							<rect x="27.3" y="403.5" class="st13" width="42.2" height="13.4"/>
							<rect x="27.3" y="422.2" class="st13" width="17.2" height="13.4"/>
							<rect x="27.3" y="440.8" class="st13" width="7.4" height="13.4"/>
							<rect x="27.3" y="459.5" class="st13" width="11.9" height="13.4"/>
							<rect x="27.3" y="478.1" class="st13" width="10.3" height="13.4"/>
							<rect x="27.3" y="496.8" class="st13" width="10.3" height="13.4"/>
							<rect x="27.3" y="515.4" class="st13" width="11.5" height="13.4"/>
							<rect x="27.3" y="534.1" class="st13" width="57" height="13.4"/>
							<rect x="27.3" y="552.7" class="st13" width="9" height="13.4"/>
							<rect x="27.3" y="571.4" class="st13" width="10.7" height="13.4"/>
							<rect x="27.3" y="590" class="st13" width="18" height="13.4"/>
							<rect x="27.3" y="608.7" class="st13" width="16.4" height="13.4"/>
							<rect x="27.3" y="627.3" class="st13" width="134.9" height="13.4"/>
							<rect x="27.3" y="646" class="st13" width="24.6" height="13.4"/>
							<rect x="27.3" y="664.6" class="st13" width="14.8" height="13.4"/>
							<rect x="27.3" y="683.2" class="st13" width="10.7" height="13.4"/>
						</g>
					</g>
				</g>
				<g>
					<g>
					</g>
				</g>
			</g>
		</g>
		<g id="guns-bar">
			<g>
				<g>
					<g>
						<text transform="matrix(1 0 0 1 23.335 725.0016)" class="st4 st5 st32">0</text>
						<text transform="matrix(1 0 0 1 97.4814 725.0016)" class="st4 st5 st32">500</text>
						<text transform="matrix(1 0 0 1 175.5586 725.0016)" class="st4 st5 st32">1000</text>
						<text transform="matrix(1 0 0 1 257.5669 725.0016)" class="st4 st5 st32">1500</text>
						<text transform="matrix(1 0 0 1 339.5742 725.0016)" class="st4 st5 st32">2000</text>
						<text transform="matrix(1 0 0 1 421.582 725.0016)" class="st4 st5 st32">2500</text>
					</g>
					<line class="st3" x1="27.3" y1="699.3" x2="437.3" y2="699.3"/>
					<g>
						<g>
							<line class="st35" x1="27.3" y1="699.3" x2="27.3" y2="683.4"/>
							<line class="st36" x1="109.3" y1="705.3" x2="109.3" y2="692.4"/>
							<line class="st36" x1="27.1" y1="705.3" x2="27.1" y2="692.4"/>
							<line class="st36" x1="191.3" y1="705.3" x2="191.3" y2="692.4"/>
							<line class="st36" x1="273.3" y1="705.3" x2="273.3" y2="692.4"/>
							<line class="st36" x1="355.3" y1="705.3" x2="355.3" y2="692.4"/>
							<line class="st36" x1="437.3" y1="705.3" x2="437.3" y2="692.4"/>
							<g>
								<text transform="matrix(1 0 0 1 23.335 53.5675)" class="st4 st5 st32">0</text>
								<text transform="matrix(1 0 0 1 97.4814 53.5675)" class="st4 st5 st32">500</text>
								<text transform="matrix(1 0 0 1 175.5586 53.5675)" class="st4 st5 st32">1000</text>
								<text transform="matrix(1 0 0 1 257.5669 53.5675)" class="st4 st5 st32">1500</text>
								<text transform="matrix(1 0 0 1 339.5742 53.5675)" class="st4 st5 st32">2000</text>
								<text transform="matrix(1 0 0 1 421.582 53.5675)" class="st4 st5 st32">2500</text>
							</g>
							<line class="st36" x1="109.3" y1="72.6" x2="109.3" y2="59.8"/>
							<line class="st36" x1="27.1" y1="72.6" x2="27.1" y2="59.8"/>
							<line class="st36" x1="191.3" y1="72.6" x2="191.3" y2="59.8"/>
							<line class="st36" x1="273.3" y1="72.6" x2="273.3" y2="59.8"/>
							<line class="st36" x1="355.3" y1="72.6" x2="355.3" y2="59.8"/>
							<line class="st36" x1="437.3" y1="72.6" x2="437.3" y2="59.8"/>
						</g>
						<g>
						</g>
					</g>
				</g>
				<g>
					<line class="st37" x1="27.3" y1="699.3" x2="27.3" y2="65.3"/>
					<g>
						<g>
							<line class="st3" x1="27.3" y1="690" x2="37.5" y2="690"/>
							<line class="st3" x1="27.3" y1="671.3" x2="37.5" y2="671.3"/>
							<line class="st3" x1="27.3" y1="652.7" x2="37.5" y2="652.7"/>
							<line class="st3" x1="27.3" y1="634" x2="37.5" y2="634"/>
							<line class="st3" x1="27.3" y1="615.4" x2="37.5" y2="615.4"/>
							<line class="st3" x1="27.3" y1="596.7" x2="37.5" y2="596.7"/>
							<line class="st3" x1="27.3" y1="578.1" x2="37.5" y2="578.1"/>
							<line class="st3" x1="27.3" y1="559.4" x2="37.5" y2="559.4"/>
							<line class="st3" x1="27.3" y1="540.8" x2="37.5" y2="540.8"/>
							<line class="st3" x1="27.3" y1="522.1" x2="37.5" y2="522.1"/>
							<line class="st3" x1="27.3" y1="503.5" x2="37.5" y2="503.5"/>
							<line class="st3" x1="27.3" y1="484.8" x2="37.5" y2="484.8"/>
							<line class="st3" x1="27.3" y1="466.2" x2="37.5" y2="466.2"/>
							<line class="st3" x1="27.3" y1="447.6" x2="37.5" y2="447.6"/>
							<line class="st3" x1="27.3" y1="428.9" x2="37.5" y2="428.9"/>
							<line class="st3" x1="27.3" y1="410.3" x2="37.5" y2="410.3"/>
							<line class="st3" x1="27.3" y1="391.6" x2="37.5" y2="391.6"/>
							<line class="st3" x1="27.3" y1="373" x2="37.5" y2="373"/>
							<line class="st3" x1="27.3" y1="354.3" x2="37.5" y2="354.3"/>
							<line class="st3" x1="27.3" y1="335.7" x2="37.5" y2="335.7"/>
							<line class="st3" x1="27.3" y1="317" x2="37.5" y2="317"/>
							<line class="st3" x1="27.3" y1="298.4" x2="37.5" y2="298.4"/>
							<line class="st3" x1="27.3" y1="279.7" x2="37.5" y2="279.7"/>
							<line class="st3" x1="27.3" y1="261.1" x2="37.5" y2="261.1"/>
							<line class="st3" x1="27.3" y1="242.4" x2="37.5" y2="242.4"/>
							<line class="st3" x1="27.3" y1="223.8" x2="37.5" y2="223.8"/>
							<line class="st3" x1="27.3" y1="205.1" x2="37.5" y2="205.1"/>
							<line class="st3" x1="27.3" y1="186.5" x2="37.5" y2="186.5"/>
							<line class="st3" x1="27.3" y1="167.8" x2="37.5" y2="167.8"/>
							<line class="st3" x1="27.3" y1="149.2" x2="37.5" y2="149.2"/>
							<line class="st3" x1="27.3" y1="130.6" x2="37.5" y2="130.6"/>
							<line class="st3" x1="27.3" y1="111.9" x2="37.5" y2="111.9"/>
							<line class="st3" x1="27.3" y1="93.3" x2="37.5" y2="93.3"/>
							<line class="st3" x1="27.3" y1="74.6" x2="37.5" y2="74.6"/>
						</g>
						<g>
						</g>
					</g>
				</g>
				<g>
					<g>
						<g>
							<rect x="27.3" y="67.9" class="st14" width="0" height="13.4"/>
							<rect x="27.3" y="86.5" class="st14" width="0" height="13.4"/>
							<rect x="27.3" y="105.2" class="st14" width="1.1" height="13.4"/>
							<rect x="27.3" y="123.8" class="st14" width="1.1" height="13.4"/>
							<rect x="27.3" y="142.5" class="st14" width="1" height="13.4"/>
							<rect x="27.3" y="161.1" class="st14" width="2.1" height="13.4"/>
							<rect x="27.3" y="179.8" class="st14" width="1" height="13.4"/>
							<rect x="27.3" y="198.4" class="st14" width="0.7" height="13.4"/>
							<rect x="27.3" y="217.1" class="st14" width="0.7" height="13.4"/>
							<rect x="27.3" y="235.7" class="st14" width="3" height="13.4"/>
							<rect x="27.3" y="254.4" class="st14" width="0.5" height="13.4"/>
							<rect x="27.3" y="273" class="st14" width="0.8" height="13.4"/>
							<rect x="27.3" y="291.7" class="st14" width="1.1" height="13.4"/>
							<rect x="27.3" y="310.3" class="st14" width="42" height="13.4"/>
							<rect x="27.3" y="329" class="st14" width="332.5" height="13.4"/>
							<rect x="27.3" y="347.6" class="st14" width="83.3" height="13.4"/>
							<rect x="27.3" y="366.3" class="st14" width="6.6" height="13.4"/>
							<rect x="27.3" y="384.9" class="st14" width="9.7" height="13.4"/>
							<rect x="27.3" y="403.5" class="st14" width="5.2" height="13.4"/>
							<rect x="27.3" y="422.2" class="st14" width="4.8" height="13.4"/>
							<rect x="27.3" y="440.8" class="st14" width="2.1" height="13.4"/>
							<rect x="27.3" y="459.5" class="st14" width="2" height="13.4"/>
							<rect x="27.3" y="478.1" class="st14" width="2" height="13.4"/>
							<rect x="27.3" y="496.8" class="st14" width="1.1" height="13.4"/>
							<rect x="27.3" y="515.4" class="st14" width="2" height="13.4"/>
							<rect x="27.3" y="534.1" class="st14" width="2" height="13.4"/>
							<rect x="27.3" y="552.7" class="st14" width="3.4" height="13.4"/>
							<rect x="27.3" y="571.4" class="st14" width="3.1" height="13.4"/>
							<rect x="27.3" y="590" class="st14" width="1.6" height="13.4"/>
							<rect x="27.3" y="608.7" class="st14" width="6.4" height="13.4"/>
							<rect x="27.3" y="627.3" class="st14" width="1.3" height="13.4"/>
							<rect x="27.3" y="646" class="st14" width="19.7" height="13.4"/>
							<rect x="27.3" y="664.6" class="st14" width="3.4" height="13.4"/>
							<rect x="27.3" y="683.2" class="st14" width="1" height="13.4"/>
						</g>
					</g>
				</g>
				<g>
					<g>
					</g>
				</g>
			</g>
		</g>
		<text id="return" transform="matrix(1 0 0 1 199.9949 19.8241)" class="st4 st5 st32">Return</text>
	</g>
	<text transform="matrix(1 0 0 1 27.14 19.824)" class="st4 st5 st32">Protests per month</text>
</g>
</svg>
