<?xml version="1.0" encoding="utf-8"?>
<!-- Generator: Adobe Illustrator 23.1.1, SVG Export Plug-In . SVG Version: 6.00 Build 0)  -->
<svg version="1.1" xmlns="http://www.w3.org/2000/svg" xmlns:xlink="http://www.w3.org/1999/xlink" x="0px" y="0px"
	 viewBox="0 0 792 612" style="enable-background:new 0 0 792 612;" xml:space="preserve">
<style type="text/css">
	.st0{fill:none;stroke:#E6E5E4;stroke-width:0.6669;}
	.st1{fill:none;stroke:#CCCCCC;stroke-width:0.6669;}
	.st2{fill:none;stroke:#A9AAAB;stroke-width:0.6669;}
	.st3{fill:none;}
	.st4{fill:#A9AAAB;}
	.st5{font-family:'MyriadPro-Regular';}
	.st6{font-size:8px;}
	.st7{font-size:12px;}
	.st8{fill:#51C8ED;}
	.st9{fill:#234D4E;}
	.st10{fill:#43A5C3;}
	.st11{fill:#308FA5;}
	.st12{fill:#4C6DA5;}
	.st13{fill:#6C4199;}
	.st14{fill:#E588B8;}
	.st15{fill:#B41F71;}
	.st16{fill:#5C3D5E;}
	.st17{fill:#B05DA5;}
	.st18{fill:#6F7589;}
	.st19{font-size:20px;}
	.st20{fill:none;stroke:#FFFFFF;stroke-miterlimit:10;}
	.st21{fill:none;stroke:#6F7589;stroke-miterlimit:10;}
	.st22{fill:none;stroke:#B05DA5;stroke-miterlimit:10;}
	.st23{fill:none;stroke:#5C3D5E;stroke-miterlimit:10;}
	.st24{fill:none;stroke:#B41F71;stroke-miterlimit:10;}
	.st25{fill:none;stroke:#51C8ED;stroke-miterlimit:10;}
	.st26{fill:none;stroke:#234D4E;stroke-miterlimit:10;}
	.st27{fill:none;stroke:#E588B8;stroke-miterlimit:10;}
	.st28{fill:none;stroke:#308FA5;stroke-miterlimit:10;}
	.st29{fill:#FFFFFF;}
	.st30{fill:#010101;}
	.st31{fill:#95CF95;}
	.st32{fill:#5E9B63;}
	.st33{fill:#B9C4E4;}
	.st34{fill:#467ABE;}
</style>
<g id="Layer_1">
	<g transform="translate(0,480)">
		<path class="st0" d="M116.4,2.33v-3.67h564.84v3.67"/>
		<g transform="translate(0.6873230714791224,0)">
			<line class="st1" x1="115.83" y1="-1.67" x2="115.83" y2="2.33"/>
			<line class="st1" x1="169.77" y1="-1.67" x2="169.77" y2="2.33"/>
			<line class="st1" x1="224.34" y1="-1.67" x2="224.34" y2="2.33"/>
			<line class="st1" x1="279.5" y1="-1.67" x2="279.5" y2="2.33"/>
			<line class="st1" x1="334.69" y1="-1.67" x2="334.69" y2="2.33"/>
			<line class="st1" x1="388.63" y1="-1.67" x2="388.63" y2="2.33"/>
			<line class="st1" x1="443.2" y1="-1.67" x2="443.2" y2="2.33"/>
			<line class="st1" x1="498.36" y1="-1.67" x2="498.36" y2="2.33"/>
			<line class="st1" x1="516.76" y1="-1.67" x2="516.76" y2="2.33"/>
			<line class="st1" x1="535.16" y1="-1.67" x2="535.16" y2="2.33"/>
			<line class="st1" x1="461.59" y1="-1.67" x2="461.59" y2="2.33"/>
			<line class="st1" x1="479.97" y1="-1.67" x2="479.97" y2="2.33"/>
			<line class="st1" x1="407.02" y1="-1.67" x2="407.02" y2="2.33"/>
			<line class="st1" x1="425.41" y1="-1.67" x2="425.41" y2="2.33"/>
			<line class="st1" x1="352.67" y1="-1.67" x2="352.67" y2="2.33"/>
			<line class="st1" x1="370.65" y1="-1.67" x2="370.65" y2="2.33"/>
			<line class="st1" x1="297.9" y1="-1.67" x2="297.9" y2="2.33"/>
			<line class="st1" x1="316.3" y1="-1.67" x2="316.3" y2="2.33"/>
			<line class="st1" x1="242.73" y1="-1.67" x2="242.73" y2="2.33"/>
			<line class="st1" x1="261.12" y1="-1.67" x2="261.12" y2="2.33"/>
			<line class="st1" x1="187.96" y1="-1.67" x2="187.96" y2="2.33"/>
			<line class="st1" x1="206.15" y1="-1.67" x2="206.15" y2="2.33"/>
			<line class="st1" x1="133.81" y1="-1.67" x2="133.81" y2="2.33"/>
			<line class="st1" x1="151.79" y1="-1.67" x2="151.79" y2="2.33"/>
			<line class="st1" x1="571.53" y1="-1.51" x2="571.53" y2="2.49"/>
			<line class="st1" x1="589.51" y1="-1.51" x2="589.51" y2="2.49"/>
			<line class="st1" x1="625.68" y1="-1.51" x2="625.68" y2="2.49"/>
			<line class="st1" x1="643.87" y1="-1.51" x2="643.87" y2="2.49"/>
			<line class="st1" x1="553.55" y1="-1.67" x2="553.55" y2="2.33"/>
			<line class="st1" x1="607.49" y1="-1.67" x2="607.49" y2="2.33"/>
			<line class="st1" x1="662.06" y1="-1.67" x2="662.06" y2="2.33"/>
			<line class="st2" x1="115.83" y1="-353.62" x2="115.83" y2="2.33"/>
		</g>
		<line class="st0" x1="170.46" y1="-339.12" x2="170.46" y2="2.33"/>
		<line class="st0" x1="225.03" y1="-339.12" x2="225.03" y2="2.33"/>
		<line class="st0" x1="280.19" y1="-339.12" x2="280.19" y2="2.33"/>
		<line class="st2" x1="335.38" y1="-353.62" x2="335.38" y2="2.33"/>
		<line class="st0" x1="389.32" y1="-339.12" x2="389.32" y2="2.33"/>
		<line class="st0" x1="443.89" y1="-339.12" x2="443.89" y2="2.33"/>
		<line class="st0" x1="499.05" y1="-339.12" x2="499.05" y2="2.33"/>
		<line class="st0" x1="517.45" y1="-339.12" x2="517.45" y2="2.33"/>
		<line class="st0" x1="535.84" y1="-339.12" x2="535.84" y2="2.33"/>
		<line class="st0" x1="462.27" y1="-339.12" x2="462.27" y2="2.33"/>
		<line class="st0" x1="480.66" y1="-339.12" x2="480.66" y2="2.33"/>
		<line class="st0" x1="407.71" y1="-339.12" x2="407.71" y2="2.33"/>
		<line class="st0" x1="426.1" y1="-339.12" x2="426.1" y2="2.33"/>
		<line class="st0" x1="353.36" y1="-339.12" x2="353.36" y2="2.33"/>
		<line class="st0" x1="371.34" y1="-339.12" x2="371.34" y2="2.33"/>
		<line class="st0" x1="298.59" y1="-339.12" x2="298.59" y2="2.33"/>
		<line class="st0" x1="316.98" y1="-339.12" x2="316.98" y2="2.33"/>
		<line class="st0" x1="243.41" y1="-339.12" x2="243.41" y2="2.33"/>
		<line class="st0" x1="261.8" y1="-339.12" x2="261.8" y2="2.33"/>
		<line class="st0" x1="188.65" y1="-339.12" x2="188.65" y2="2.33"/>
		<line class="st0" x1="206.84" y1="-339.12" x2="206.84" y2="2.33"/>
		<line class="st0" x1="134.5" y1="-339.12" x2="134.5" y2="2.33"/>
		<line class="st0" x1="152.48" y1="-339.12" x2="152.48" y2="2.33"/>
		<line class="st0" x1="572.22" y1="-338.95" x2="572.22" y2="2.49"/>
		<line class="st0" x1="590.2" y1="-338.95" x2="590.2" y2="2.49"/>
		<line class="st0" x1="626.37" y1="-338.95" x2="626.37" y2="2.49"/>
		<line class="st0" x1="644.56" y1="-338.95" x2="644.56" y2="2.49"/>
		<line class="st2" x1="554.24" y1="-353.62" x2="554.24" y2="2.33"/>
		<line class="st0" x1="608.18" y1="-339.12" x2="608.18" y2="2.33"/>
		<line class="st0" x1="662.74" y1="-339.12" x2="662.74" y2="2.33"/>
		<line class="st0" x1="680.55" y1="-339.12" x2="680.55" y2="2.33"/>
		<path class="st0" d="M681.23-356.77"/>
		<path class="st0" d="M116.4-356.77"/>
	</g>
	<g>
		<rect x="109.71" y="488.67" class="st3" width="13.63" height="12.44"/>
		<text transform="matrix(1 0 0 1 115.0422 494.3498)" class="st4 st5 st6">J</text>
		<rect x="127.69" y="488.67" class="st3" width="13.63" height="12.44"/>
		<text transform="matrix(1 0 0 1 132.554 494.3498)" class="st4 st5 st6">F</text>
		<rect x="145.67" y="488.67" class="st3" width="13.63" height="12.44"/>
		<text transform="matrix(1 0 0 1 149.2656 494.3488)" class="st4 st5 st6">M</text>
		<rect x="163.65" y="488.67" class="st3" width="13.63" height="12.44"/>
		<text transform="matrix(1 0 0 1 168.0137 494.3488)" class="st4 st5 st6">A</text>
		<rect x="181.84" y="488.67" class="st3" width="13.63" height="12.44"/>
		<text transform="matrix(1 0 0 1 185.4339 494.3488)" class="st4 st5 st6">M</text>
		<rect x="200.02" y="488.67" class="st3" width="13.63" height="12.44"/>
		<text transform="matrix(1 0 0 1 205.358 494.3488)" class="st4 st5 st6">J</text>
		<rect x="218.21" y="488.67" class="st3" width="13.63" height="12.44"/>
		<text transform="matrix(1 0 0 1 223.5463 494.3488)" class="st4 st5 st6">J</text>
		<rect x="236.6" y="488.67" class="st3" width="13.63" height="12.44"/>
		<text transform="matrix(1 0 0 1 240.9666 494.3488)" class="st4 st5 st6">A</text>
		<rect x="254.99" y="488.67" class="st3" width="13.63" height="12.44"/>
		<text transform="matrix(1 0 0 1 259.8309 494.3488)" class="st4 st5 st6">S</text>
		<rect x="273.38" y="488.67" class="st3" width="13.63" height="12.44"/>
		<text transform="matrix(1 0 0 1 277.4348 494.3488)" class="st4 st5 st6">O</text>
		<rect x="291.77" y="488.67" class="st3" width="13.63" height="12.44"/>
		<text transform="matrix(1 0 0 1 295.9553 494.3488)" class="st4 st5 st6">N</text>
		<rect x="310.17" y="488.67" class="st3" width="13.63" height="12.44"/>
		<text transform="matrix(1 0 0 1 314.3201 494.3488)" class="st4 st5 st6">D</text>
		<rect x="327.91" y="488.67" class="st3" width="13.63" height="12.44"/>
		<text transform="matrix(1 0 0 1 333.2452 494.3498)" class="st4 st5 st6">J</text>
		<rect x="345.89" y="488.67" class="st3" width="13.63" height="12.44"/>
		<text transform="matrix(1 0 0 1 350.757 494.3498)" class="st4 st5 st6">F</text>
		<rect x="363.87" y="488.67" class="st3" width="13.63" height="12.44"/>
		<text transform="matrix(1 0 0 1 367.4686 494.3488)" class="st4 st5 st6">M</text>
		<rect x="381.85" y="488.67" class="st3" width="13.63" height="12.44"/>
		<text transform="matrix(1 0 0 1 386.2167 494.3488)" class="st4 st5 st6">A</text>
		<rect x="400.04" y="488.67" class="st3" width="13.63" height="12.44"/>
		<text transform="matrix(1 0 0 1 403.6369 494.3488)" class="st4 st5 st6">M</text>
		<rect x="418.23" y="488.67" class="st3" width="13.63" height="12.44"/>
		<text transform="matrix(1 0 0 1 423.561 494.3488)" class="st4 st5 st6">J</text>
		<rect x="436.42" y="488.67" class="st3" width="13.63" height="12.44"/>
		<text transform="matrix(1 0 0 1 441.7493 494.3488)" class="st4 st5 st6">J</text>
		<rect x="454.8" y="488.67" class="st3" width="13.63" height="12.44"/>
		<text transform="matrix(1 0 0 1 459.1697 494.3488)" class="st4 st5 st6">A</text>
		<rect x="473.19" y="488.67" class="st3" width="13.63" height="12.44"/>
		<text transform="matrix(1 0 0 1 478.0339 494.3488)" class="st4 st5 st6">S</text>
		<rect x="491.58" y="488.67" class="st3" width="13.63" height="12.44"/>
		<text transform="matrix(1 0 0 1 495.6378 494.3488)" class="st4 st5 st6">O</text>
		<rect x="509.98" y="488.67" class="st3" width="13.63" height="12.44"/>
		<text transform="matrix(1 0 0 1 514.1583 494.3488)" class="st4 st5 st6">N</text>
		<rect x="528.37" y="488.67" class="st3" width="13.63" height="12.44"/>
		<text transform="matrix(1 0 0 1 532.5231 494.3488)" class="st4 st5 st6">D</text>
		<rect x="548.6" y="488.67" class="st3" width="13.63" height="12.44"/>
		<text transform="matrix(1 0 0 1 553.9347 494.3498)" class="st4 st5 st6">J</text>
		<rect x="566.58" y="488.67" class="st3" width="13.63" height="12.44"/>
		<text transform="matrix(1 0 0 1 571.4465 494.3498)" class="st4 st5 st6">F</text>
		<rect x="584.56" y="488.67" class="st3" width="13.63" height="12.44"/>
		<text transform="matrix(1 0 0 1 588.158 494.3488)" class="st4 st5 st6">M</text>
		<rect x="602.54" y="488.67" class="st3" width="13.63" height="12.44"/>
		<text transform="matrix(1 0 0 1 606.9062 494.3488)" class="st4 st5 st6">A</text>
		<rect x="620.73" y="488.67" class="st3" width="13.63" height="12.44"/>
		<text transform="matrix(1 0 0 1 624.3264 494.3488)" class="st4 st5 st6">M</text>
		<rect x="638.92" y="488.67" class="st3" width="13.63" height="12.44"/>
		<text transform="matrix(1 0 0 1 644.2505 494.3488)" class="st4 st5 st6">J</text>
		<rect x="657.11" y="488.67" class="st3" width="13.63" height="12.44"/>
		<text transform="matrix(1 0 0 1 662.4388 494.3488)" class="st4 st5 st6">J</text>
		<rect x="675.49" y="488.67" class="st3" width="13.63" height="12.44"/>
		<text transform="matrix(1 0 0 1 679.8591 494.3488)" class="st4 st5 st6">A</text>
	</g>
	<rect x="183.6" y="506.34" class="st3" width="60.1" height="20.09"/>
	<text transform="matrix(1 0 0 1 201.3412 514.8556)" class="st4 st5 st7">2017</text>
	<rect x="401.81" y="506.34" class="st3" width="60.1" height="20.09"/>
	<text transform="matrix(1 0 0 1 419.5443 514.8556)" class="st4 st5 st7">2018</text>
	<rect x="590.68" y="506.34" class="st3" width="60.1" height="20.09"/>
	<text transform="matrix(1 0 0 1 608.4169 514.8556)" class="st4 st5 st7">2019</text>
	<rect x="183.6" y="109.67" class="st3" width="60.1" height="20.09"/>
	<text transform="matrix(1 0 0 1 201.3412 118.19)" class="st4 st5 st7">2017</text>
	<rect x="401.81" y="109.67" class="st3" width="60.1" height="20.09"/>
	<text transform="matrix(1 0 0 1 419.5443 118.19)" class="st4 st5 st7">2018</text>
	<rect x="590.68" y="109.67" class="st3" width="60.1" height="20.09"/>
	<text transform="matrix(1 0 0 1 608.4169 118.19)" class="st4 st5 st7">2019</text>
	<path class="st8" d="M116.06,257.26l3.1-0.72c3.1-0.72,9.29-2.15,15.19-2.4s11.49,0.66,17.39,1.2c5.9,0.54,12.09,0.7,18.19,3.31
		c6.1,2.61,12.09,7.66,18.19,11.57s12.29,6.66,18.39,8.32s12.09,2.23,18.19-3.03s12.29-16.33,18.49-18.89
		c6.2-2.55,12.39,3.42,18.49,9.05c6.1,5.63,12.09,10.93,18.19,14.36c6.1,3.43,12.29,5,18.39,6.19c6.1,1.19,12.09,2,18.19-2.26
		c6.1-4.26,12.29-13.58,18.49-18.29c6.2-4.72,12.39-4.82,18.29-29.09c5.9-24.27,11.49-72.69,17.39-77.12
		c5.9-4.43,12.09,35.13,18.19,62.45c6.1,27.32,12.09,42.4,18.19,38.91c6.1-3.49,12.29-25.54,18.39-24.87
		c6.1,0.66,12.09,24.04,18.19,35.97s12.29,12.42,18.49,12.16c6.2-0.26,12.39-1.26,18.49-3.3c6.1-2.04,12.09-5.12,18.19-6.03
		s12.29,0.36,18.39,4.3c6.1,3.93,12.09,10.52,18.19,8.4c6.1-2.12,12.29-12.96,18.49-15.65c6.2-2.69,12.39,2.77,18.29,4.76
		c5.9,1.99,11.49,0.5,17.39-0.27c5.9-0.77,12.09-0.82,18.19-4.49s12.09-10.93,18.19-10.51c6.1,0.42,12.29,8.53,18.39,9.69
		s12.09-4.62,18.19-5.19s12.29,4.08,15.39,6.4l3.1,2.32v1.62l-3.1-2.35c-3.1-2.35-9.29-7.05-15.39-5.89s-12.09,8.19-18.19,8.97
		c-6.1,0.78-12.29-4.67-18.39-4.04c-6.1,0.63-12.09,7.36-18.19,10.13c-6.1,2.77-12.29,1.58-18.19,1.19
		c-5.9-0.39-11.49,0.01-17.39-2.57c-5.9-2.58-12.09-8.15-18.29-5.76c-6.2,2.39-12.39,12.74-18.49,14.65
		c-6.1,1.91-12.09-4.63-18.19-8.13c-6.1-3.5-12.29-3.96-18.39-2.84s-12.09,3.82-18.19,5.54c-6.1,1.72-12.29,2.45-18.49,2.13
		c-6.2-0.31-12.39-1.66-18.49-13.81c-6.1-12.15-12.09-35.09-18.19-34.67c-6.1,0.42-12.29,24.2-18.39,30.47
		c-6.1,6.27-12.09-4.97-18.19-31.43c-6.1-26.45-12.29-68.12-18.19-64.74c-5.9,3.38-11.49,51.8-17.39,74.61
		c-5.9,22.81-12.09,20-18.29,22.93c-6.2,2.93-12.39,11.61-18.49,15.62c-6.1,4.01-12.09,3.36-18.19,2.61
		c-6.1-0.76-12.29-1.62-18.39-4.81c-6.1-3.19-12.09-8.7-18.19-14.82c-6.1-6.12-12.29-12.85-18.49-10.51
		c-6.2,2.34-12.39,13.74-18.49,19.21c-6.1,5.47-12.09,5.01-18.19,4s-12.29-2.58-18.39-6.21c-6.1-3.63-12.09-9.34-18.19-11.84
		s-12.29-1.8-18.19-2.74c-5.9-0.95-11.49-3.54-17.39-4.42c-5.9-0.88-12.09-0.04-15.19,0.38l-3.1,0.42V257.26z"/>
	<rect x="72.36" y="208.46" class="st3" width="29.9" height="9.24"/>
	<text transform="matrix(1 0 0 1 82.2582 214.1362)" class="st9 st5 st6">Police</text>
	<rect x="52.03" y="228.68" class="st3" width="50.23" height="9.24"/>
	<text transform="matrix(1 0 0 1 68.6108 234.3571)" class="st10 st5 st6">Education</text>
	<rect x="52.03" y="258.48" class="st3" width="50.23" height="9.24"/>
	<text transform="matrix(1 0 0 1 70.2426 264.1636)" class="st11 st5 st6">Executive</text>
	<rect x="52.03" y="273.12" class="st3" width="50.23" height="9.24"/>
	<text transform="matrix(1 0 0 1 60.8344 278.801)" class="st12 st5 st6">Immigration</text>
	<rect x="40.54" y="322.57" class="st3" width="61.72" height="17"/>
	<text transform="matrix(1 0 0 1 50.2431 328.2455)" class="st13 st5 st6">Women’s rights</text>
	<rect x="43.43" y="346.54" class="st3" width="58.83" height="20.67"/>
	<text transform="matrix(1 0 0 1 53.0351 352.2203)"><tspan x="0" y="0" class="st14 st5 st6">Racial justice &amp; </tspan><tspan x="-7.96" y="9.6" class="st14 st5 st6">white supremacy</tspan></text>
	<rect x="43.43" y="380.18" class="st3" width="58.83" height="19.61"/>
	<text transform="matrix(1 0 0 1 69.4828 385.8636)"><tspan x="0" y="0" class="st15 st5 st6">Collective </tspan><tspan x="-3.67" y="9.6" class="st15 st5 st6">bargaining</tspan></text>
	<rect x="43.43" y="405.77" class="st3" width="58.83" height="8.61"/>
	<text transform="matrix(1 0 0 1 58.9467 411.449)" class="st16 st5 st6">Environment</text>
	<rect x="43.43" y="423.35" class="st3" width="58.83" height="12.19"/>
	<text transform="matrix(1 0 0 1 66.1386 429.0321)" class="st17 st5 st6">Healthcare</text>
	<rect x="43.43" y="440.51" class="st3" width="58.83" height="12.19"/>
	<text transform="matrix(1 0 0 1 83.0346 446.1953)" class="st18 st5 st6">Other</text>
	<rect x="697" y="237.55" class="st3" width="29.9" height="9.24"/>
	<text transform="matrix(1 0 0 1 696.9992 243.2286)" class="st9 st5 st6">Police</text>
	<rect x="697" y="252.88" class="st3" width="50.23" height="9.24"/>
	<text transform="matrix(1 0 0 1 696.9993 258.5564)" class="st10 st5 st6">Education</text>
	<rect x="697" y="267.74" class="st3" width="50.23" height="9.24"/>
	<text transform="matrix(1 0 0 1 696.9993 273.4177)" class="st11 st5 st6">Executive</text>
	<rect x="697" y="283.64" class="st3" width="50.23" height="9.24"/>
	<text transform="matrix(1 0 0 1 696.9993 289.3201)" class="st12 st5 st6">Immigration</text>
	<rect x="697" y="309.57" class="st3" width="61.72" height="17"/>
	<text transform="matrix(1 0 0 1 696.9995 315.2454)" class="st13 st5 st6">Women’s rights</text>
	<rect x="697" y="323.57" class="st3" width="58.83" height="20.67"/>
	<text transform="matrix(1 0 0 1 696.9995 329.2458)"><tspan x="0" y="0" class="st14 st5 st6">Racial justice &amp; </tspan><tspan x="0" y="9.6" class="st14 st5 st6">white supremacy</tspan></text>
	<rect x="697" y="346.53" class="st3" width="58.83" height="19.61"/>
	<text transform="matrix(1 0 0 1 696.9995 352.2146)"><tspan x="0" y="0" class="st15 st5 st6">Collective </tspan><tspan x="0" y="9.6" class="st15 st5 st6">bargaining</tspan></text>
	<rect x="697" y="369.31" class="st3" width="58.83" height="8.61"/>
	<text transform="matrix(1 0 0 1 696.9995 374.9879)" class="st16 st5 st6">Environment</text>
	<rect x="697" y="383.84" class="st3" width="58.83" height="12.19"/>
	<text transform="matrix(1 0 0 1 696.9995 389.5247)" class="st17 st5 st6">Healthcare</text>
	<rect x="697" y="399.95" class="st3" width="58.83" height="12.19"/>
	<text transform="matrix(1 0 0 1 696.9995 405.6308)" class="st18 st5 st6">Other</text>
	<rect x="591.08" y="534.73" class="st3" width="93.31" height="38.49"/>
	<text transform="matrix(1 0 0 1 608.3927 540.4079)" class="st4 st5 st6">Source: CountLove.org</text>
	<rect x="525.11" y="524.38" class="st3" width="159.27" height="38.49"/>
	<text transform="matrix(1 0 0 1 529.6115 530.0584)" class="st4 st5 st6">Data from January 15, 2017 to August 31, 2019</text>
	<rect x="591.08" y="546.91" class="st3" width="93.31" height="15.71"/>
	<text transform="matrix(1 0 0 1 597.0089 552.5917)" class="st4 st5 st6">Graphics by Alyssa Fowers</text>
	<rect x="33.25" y="70.6" class="st3" width="475.59" height="76.28"/>
	<text transform="matrix(1 0 0 1 33.2525 79.1202)"><tspan x="0" y="0" class="st5 st7">Each stripe represents a topic, and the height of the stripes repre is determined by the number </tspan><tspan x="0" y="14.4" class="st5 st7">of related protests  per month. Protests about multiple topics are included in multiple stripes.</tspan></text>
	<rect x="33.25" y="45.89" class="st3" width="579.47" height="19.06"/>
	<text transform="matrix(1 0 0 1 33.2527 60.0936)" class="st5 st19">Gun control, immigration, and scandal drive Americans to protest</text>
	<path class="st20" d="M483.19,378c4.73,0.16,20.47,0.92,24.49,2.36c4.03,1.43,20.08,1.53,27.12-1.18s12.44-6.5,14.7-7.99"/>
	<g>
		<path id="SVGID_x5F_1_x5F_" class="st3" d="M152.27,274.39c2.82-0.51,31.49-2.63,37.84,2.7"/>
		<text>		<textPath  xlink:href="#SVGID_x5F_1_x5F_" startOffset="0.391%">
<tspan  class="st29 st5 st6">Tax</tspan>		</textPath>
</text>
	</g>
	<path class="st21" d="M116.06,363.29c-4.4,0,5.19,81.24-11.45,81.24"/>
	<path class="st22" d="M116.06,362.22c-4.4,0,0.09,64.55-11.8,64.55"/>
	<path class="st23" d="M116.06,361.22c-4.4,0-7.33,48.86-11.45,48.86"/>
	<path class="st24" d="M116.06,360.22c-4.72,0-6.33,27.39-11.45,27.39"/>
	<path class="st25" d="M116.06,258.48c-4.72,0-5.13-26.18-11.9-26.18"/>
	<path class="st26" d="M116.06,256.48c-4.72,0-2.32-43.4-11.01-43.4"/>
	<path class="st21" d="M680.17,343.22c4.4,0-1.63,60.12,11.45,60.12"/>
	<path class="st22" d="M680.17,333.87c4.4,0,1.9,52.6,11.8,52.6"/>
	<path class="st23" d="M680.17,331.05c4.4,0,5.73,40.14,11.45,40.14"/>
	<path class="st24" d="M680.17,326.56c5.97,0,6.33,27.39,11.45,27.39"/>
	<path class="st27" d="M680.17,317.81c4.72,0,6.33,13.7,11.45,13.7"/>
	<path class="st25" d="M680.17,274.53c4.72,0,5.13-19.01,11.9-19.01"/>
	<path class="st28" d="M680.17,280.14c4.72,0,5.13-9.5,11.9-9.5"/>
	<path class="st26" d="M680.17,270.64c4.72,0,2.32-30.23,11.01-30.23"/>
</g>
<g id="other">
	<path id="other-stream" class="st18" d="M116.06,362.64l3.1-1.2c3.1-1.2,9.29-3.61,15.19-5.65c5.9-2.04,11.49-3.72,17.39-8.55
		c5.9-4.84,12.09-12.84,18.19-14.5c6.1-1.66,12.09,3.01,18.19,3.65s12.29-2.77,18.39-4.92c6.1-2.15,12.09-3.04,18.19,1.92
		c6.1,4.96,12.29,15.77,18.49,20.35c6.2,4.58,12.39,2.93,18.49-1.16c6.1-4.09,12.09-10.63,18.19-15.98
		c6.1-5.35,12.29-9.51,18.39-13.24c6.1-3.73,12.09-7.03,18.19-1.93c6.1,5.09,12.29,18.58,18.49,24.89
		c6.2,6.31,12.39,5.44,18.29,29.09c5.9,23.64,11.49,71.8,17.39,74.93c5.9,3.13,12.09-38.75,18.19-67.66
		c6.1-28.91,12.09-44.86,18.19-39.75c6.1,5.11,12.29,31.26,18.39,32.95c6.1,1.69,12.09-21.09,18.19-32.16s12.29-10.42,18.49-7.21
		c6.2,3.2,12.39,8.96,18.49,12.56c6.1,3.61,12.09,5.07,18.19,2.3c6.1-2.77,12.29-9.77,18.39-16.24c6.1-6.47,12.09-12.42,18.19-10.4
		c6.1,2.01,12.29,11.98,18.49,13.94c6.2,1.96,12.39-4.09,18.29-6.78c5.9-2.69,11.49-2.01,17.39-1.86c5.9,0.15,12.09-0.23,18.19,3.3
		c6.1,3.53,12.09,10.96,18.19,11.08s12.29-7.07,18.39-8.01s12.09,4.35,18.19,5.19s12.29-2.78,15.39-4.59l3.1-1.81v16.05l-3.1,2.13
		c-3.1,2.13-9.29,6.4-15.39,5.78s-12.09-6.13-18.19-4.92s-12.29,9.16-18.39,9.61c-6.1,0.45-12.09-6.61-18.19-10.13
		c-6.1-3.53-12.29-3.53-18.19-4.46c-5.9-0.93-11.49-2.8-17.39-1c-5.9,1.8-12.09,7.26-18.29,4.3c-6.2-2.96-12.39-14.33-18.49-16.73
		c-6.1-2.39-12.09,4.2-18.19,12c-6.1,7.8-12.29,16.79-18.39,19.29c-6.1,2.5-12.09-1.5-18.19-6.08s-12.29-9.74-18.49-12.4
		c-6.2-2.66-12.39-2.82-18.49,8.48c-6.1,11.31-12.09,34.09-18.19,34.1c-6.1,0.01-12.29-22.74-18.39-26.22
		c-6.1-3.49-12.09,12.29-18.19,39.8c-6.1,27.51-12.29,66.74-18.19,61.88c-5.9-4.86-11.49-53.83-17.39-78.61
		c-5.9-24.78-12.09-25.37-18.29-30.3c-6.2-4.93-12.39-14.2-18.49-17.7s-12.09-1.23-18.19,1.82c-6.1,3.05-12.29,6.89-18.39,11.62
		c-6.1,4.73-12.09,10.35-18.19,14.42c-6.1,4.07-12.29,6.58-18.49,2.05c-6.2-4.53-12.39-16.09-18.49-21.51
		c-6.1-5.42-12.09-4.69-18.19-2.84c-6.1,1.85-12.29,4.82-18.39,8.62s-12.09,8.42-18.19,10.81s-12.29,2.55-18.19,2.8
		c-5.9,0.24-11.49,0.57-17.39-0.18c-5.9-0.74-12.09-2.55-15.19-3.46l-3.1-0.91V362.64z"/>
	<path id="SVGID_x5F_2_x5F_" class="st3" d="M146.25,359.65c16.65,2.85,34.95-5.58,48.69-14.12"/>
	<text>	<textPath  xlink:href="#SVGID_x5F_2_x5F_" startOffset="12.346%">
<tspan  class="st29 st5 st6">for Science</tspan>	</textPath>
</text>
	<path id="SVGID_x5F_3_x5F_" class="st3" d="M143.45,350.55c16.65,2.85,34.95-5.58,48.69-14.12"/>
	<text>	<textPath  xlink:href="#SVGID_x5F_3_x5F_" startOffset="23.828%">
<tspan  class="st29 st5 st6">March</tspan>	</textPath>
</text>
	<g>
		<path id="SVGID_x5F_4_x5F_" class="st3" d="M293.59,336.42c23.13-10.08,32.64,9.07,32.96,9.22"/>
		<text>		<textPath  xlink:href="#SVGID_x5F_4_x5F_" startOffset="0.024%">
<tspan  class="st29 st5 st6">Tax reform</tspan>		</textPath>
</text>
	</g>
</g>
<g id="healthcare">
	<path id="healthcare-stream" class="st17" d="M116.06,362l3.1-2.39c3.1-2.39,9.29-7.17,15.19-11.21
		c5.9-4.04,11.49-7.34,17.39-11.25c5.9-3.92,12.09-8.46,18.19-10.12c6.1-1.66,12.09-0.45,18.19-1.24c6.1-0.8,12.29-3.61,18.39-6.7
		s12.09-6.47,18.19-0.16c6.1,6.31,12.29,22.31,18.49,29.4c6.2,7.09,12.39,5.28,18.49,1.49c6.1-3.8,12.09-9.58,18.19-14.55
		c6.1-4.97,12.29-9.13,18.39-12.89c6.1-3.76,12.09-7.11,18.19-2.07s12.29,18.47,18.49,24.64c6.2,6.17,12.39,5.09,18.29,28.71
		c5.9,23.62,11.49,71.93,17.39,75.2c5.9,3.27,12.09-38.51,18.19-67.82c6.1-29.32,12.09-46.18,18.19-41.15
		c6.1,5.03,12.29,31.94,18.39,34.2c6.1,2.26,12.09-20.14,18.19-31.24s12.29-10.88,18.49-8.05c6.2,2.82,12.39,8.26,18.49,12
		s12.09,5.8,18.19,3.32c6.1-2.47,12.29-9.47,18.39-15.86c6.1-6.39,12.09-12.17,18.19-10.16s12.29,11.82,18.49,13.51
		c6.2,1.69,12.39-4.74,18.29-7.62c5.9-2.88,11.49-2.2,17.39-1.86c5.9,0.34,12.09,0.34,18.19,3.73c6.1,3.39,12.09,10.17,18.19,10.21
		c6.1,0.04,12.29-6.66,18.39-7.34s12.09,4.67,18.19,5.46s12.29-3,15.39-4.89l3.1-1.89v1.78l-3.1,1.81
		c-3.1,1.81-9.29,5.43-15.39,4.59s-12.09-6.13-18.19-5.19s-12.29,8.13-18.39,8.01s-12.09-7.55-18.19-11.08
		c-6.1-3.53-12.29-3.15-18.19-3.3c-5.9-0.15-11.49-0.82-17.39,1.86c-5.9,2.69-12.09,8.74-18.29,6.78
		c-6.2-1.96-12.39-11.93-18.49-13.94c-6.1-2.01-12.09,3.93-18.19,10.4c-6.1,6.47-12.29,13.47-18.39,16.24
		c-6.1,2.77-12.09,1.31-18.19-2.3c-6.1-3.61-12.29-9.36-18.49-12.56c-6.2-3.2-12.39-3.85-18.49,7.21s-12.09,33.84-18.19,32.16
		c-6.1-1.69-12.29-27.85-18.39-32.95c-6.1-5.11-12.09,10.84-18.19,39.75c-6.1,28.91-12.29,70.8-18.19,67.66
		c-5.9-3.13-11.49-51.29-17.39-74.93c-5.9-23.64-12.09-22.78-18.29-29.09c-6.2-6.31-12.39-19.79-18.49-24.89
		c-6.1-5.09-12.09-1.8-18.19,1.93c-6.1,3.73-12.29,7.89-18.39,13.24c-6.1,5.35-12.09,11.89-18.19,15.98
		c-6.1,4.09-12.29,5.74-18.49,1.16c-6.2-4.58-12.39-15.39-18.49-20.35c-6.1-4.96-12.09-4.07-18.19-1.92
		c-6.1,2.15-12.29,5.55-18.39,4.92s-12.09-5.31-18.19-3.65c-6.1,1.66-12.29,9.66-18.19,14.5c-5.9,4.84-11.49,6.51-17.39,8.55
		c-5.9,2.04-12.09,4.45-15.19,5.65l-3.1,1.2V362z"/>
	<g>
		<path id="SVGID_x5F_5_x5F_" class="st3" d="M161.74,334.75c4.89-1.42,13.48-4.06,20.59-1.51c7.11,2.56,17.01-1.23,26.02-4.08
			c9-2.84,9.57-1.13,16.48,3.5s9.09,13.45,14.55,17.46"/>
		<text>		<textPath  xlink:href="#SVGID_x5F_5_x5F_" startOffset="0%">
<tspan  class="st29 st5 st6">Obamacare repeal effort</tspan>		</textPath>
</text>
	</g>
</g>
<g id="collective-bargaining">
	<path id="collective-bargaining-stream" class="st15" d="M116.06,360.7l3.1-3.39c3.1-3.39,9.29-10.17,15.19-15.94
		c5.9-5.77,11.49-10.52,17.39-16.39c5.9-5.86,12.09-12.84,18.19-14.33c6.1-1.5,12.09,2.47,18.19,3.54s12.29-0.77,18.39-3
		c6.1-2.23,12.09-4.85,18.19,1.38c6.1,6.23,12.29,21.31,18.49,27.78c6.2,6.47,12.39,4.34,18.49,0.41
		c6.1-3.93,12.09-9.66,18.19-14.47c6.1-4.81,12.29-8.7,18.39-11.94c6.1-3.24,12.09-5.84,18.19-0.09
		c6.1,5.74,12.29,19.82,18.49,24.37c6.2,4.55,12.39-0.42,18.29,22.41c5.9,22.83,11.49,73.47,17.39,77.96
		c5.9,4.49,12.09-37.18,18.19-66.53c6.1-29.35,12.09-46.37,18.19-41.59c6.1,4.78,12.29,31.37,18.39,33.49
		c6.1,2.12,12.09-20.23,18.19-31.64c6.1-11.42,12.29-11.9,18.49-10.11c6.2,1.8,12.39,5.88,18.49,8.67s12.09,4.31,18.19,3.62
		s12.29-3.58,18.39-8.35c6.1-4.77,12.09-11.42,18.19-9.73s12.29,11.71,18.49,13.75c6.2,2.04,12.39-3.9,18.29-9.48
		c5.9-5.58,11.49-10.8,17.39-11.81c5.9-1.01,12.09,2.18,18.19,6.46s12.09,9.66,18.19,9.48s12.29-5.9,18.39-5.66
		s12.09,6.46,18.19,7.76s12.29-2.32,15.39-4.13l3.1-1.81v7.3l-3.1,1.92c-3.1,1.92-9.29,5.76-15.39,4.86
		c-6.1-0.89-12.09-6.51-18.19-6.24s-12.29,6.43-18.39,6.07s-12.09-7.26-18.19-12.24c-6.1-4.99-12.29-8.07-18.19-7.51
		c-5.9,0.55-11.49,4.74-17.39,9.94c-5.9,5.2-12.09,11.42-18.29,9.57c-6.2-1.85-12.39-11.77-18.49-13.73
		c-6.1-1.96-12.09,4.04-18.19,10.43c-6.1,6.39-12.29,13.17-18.39,14.83s-12.09-1.8-18.19-5.67c-6.1-3.88-12.29-8.17-18.49-10.57
		c-6.2-2.39-12.39-2.88-18.49,8.19s-12.09,33.68-18.19,31.51c-6.1-2.18-12.29-29.14-18.39-34.25c-6.1-5.11-12.09,11.65-18.19,40.94
		c-6.1,29.29-12.29,71.12-18.19,67.61c-5.9-3.51-11.49-52.37-17.39-75.61c-5.9-23.24-12.09-20.86-18.29-26.52
		c-6.2-5.66-12.39-19.36-18.49-24.64s-12.09-2.15-18.19,1.18c-6.1,3.32-12.29,6.84-18.39,11.7c-6.1,4.86-12.09,11.08-18.19,15.01
		c-6.1,3.93-12.29,5.58-18.49-1.43c-6.2-7.01-12.39-22.68-18.49-28.94s-12.09-3.09-18.19-0.27s-12.29,5.31-18.39,4.3
		s-12.09-5.53-18.19-4.35s-12.29,8.04-18.19,13.31c-5.9,5.27-11.49,8.94-17.39,14.12c-5.9,5.17-12.09,11.85-15.19,15.19
		L116.06,360.7z"/>
</g>
<g id="environment">
	<path id="environment-stream" class="st16" d="M116.06,360.7l3.1-3.34c3.1-3.34,9.29-10.01,15.19-15.19
		c5.9-5.17,11.49-8.85,17.39-14.12c5.9-5.27,12.09-12.13,18.19-13.31s12.09,3.34,18.19,4.35s12.29-1.47,18.39-4.3
		s12.09-5.99,18.19,0.27s12.29,21.93,18.49,28.94c6.2,7.01,12.39,5.36,18.49,1.43c6.1-3.93,12.09-10.15,18.19-15.01
		c6.1-4.86,12.29-8.38,18.39-11.7c6.1-3.32,12.09-6.46,18.19-1.18s12.29,18.98,18.49,24.64c6.2,5.66,12.39,3.28,18.29,26.52
		c5.9,23.24,11.49,72.09,17.39,75.61c5.9,3.51,12.09-38.32,18.19-67.61c6.1-29.29,12.09-46.04,18.19-40.94
		c6.1,5.11,12.29,32.07,18.39,34.25c6.1,2.18,12.09-20.44,18.19-31.51s12.29-10.58,18.49-8.19c6.2,2.39,12.39,6.69,18.49,10.57
		c6.1,3.88,12.09,7.34,18.19,5.67s12.29-8.44,18.39-14.83c6.1-6.39,12.09-12.39,18.19-10.43c6.1,1.96,12.29,11.88,18.49,13.73
		c6.2,1.85,12.39-4.36,18.29-9.57c5.9-5.2,11.49-9.39,17.39-9.94c5.9-0.55,12.09,2.53,18.19,7.51c6.1,4.99,12.09,11.88,18.19,12.24
		s12.29-5.8,18.39-6.07s12.09,5.35,18.19,6.24c6.1,0.89,12.29-2.95,15.39-4.86l3.1-1.92v4.7l-3.1,1.89
		c-3.1,1.89-9.29,5.67-15.39,4.89s-12.09-6.13-18.19-5.46s-12.29,7.38-18.39,7.34c-6.1-0.04-12.09-6.82-18.19-10.21
		c-6.1-3.39-12.29-3.39-18.19-3.73c-5.9-0.34-11.49-1.01-17.39,1.86c-5.9,2.88-12.09,9.31-18.29,7.62
		c-6.2-1.69-12.39-11.5-18.49-13.51s-12.09,3.77-18.19,10.16c-6.1,6.39-12.29,13.39-18.39,15.86c-6.1,2.47-12.09,0.42-18.19-3.32
		s-12.29-9.17-18.49-12c-6.2-2.82-12.39-3.04-18.49,8.05s-12.09,33.49-18.19,31.24c-6.1-2.26-12.29-29.17-18.39-34.2
		c-6.1-5.03-12.09,11.84-18.19,41.15c-6.1,29.32-12.29,71.09-18.19,67.82c-5.9-3.27-11.49-51.58-17.39-75.2
		c-5.9-23.62-12.09-22.54-18.29-28.71c-6.2-6.17-12.39-19.6-18.49-24.64s-12.09-1.69-18.19,2.07c-6.1,3.76-12.29,7.92-18.39,12.89
		c-6.1,4.97-12.09,10.75-18.19,14.55c-6.1,3.8-12.29,5.61-18.49-1.49c-6.2-7.09-12.39-23.09-18.49-29.4
		c-6.1-6.31-12.09-2.93-18.19,0.16s-12.29,5.9-18.39,6.7c-6.1,0.8-12.09-0.42-18.19,1.24c-6.1,1.66-12.29,6.2-18.19,10.12
		c-5.9,3.92-11.49,7.21-17.39,11.25c-5.9,4.04-12.09,8.82-15.19,11.21l-3.1,2.39V360.7z"/>
</g>
<g id="women">
	<path id="women-stream" class="st13" d="M116.06,289.2l3.1,5.15c3.1,5.15,9.29,15.44,15.19,17.75s11.49-3.36,17.39-7.98
		c5.9-4.62,12.09-8.19,18.19-7.77c6.1,0.42,12.09,4.82,18.19,6.49s12.29,0.58,18.39-1.03c6.1-1.61,12.09-3.74,18.19-9.97
		c6.1-6.23,12.29-16.55,18.49-13.89c6.2,2.66,12.39,18.31,18.49,23.64c6.1,5.34,12.09,0.36,18.19-1.69s12.29-1.19,18.39-0.7
		c6.1,0.49,12.09,0.59,18.19-2.5c6.1-3.09,12.29-9.39,18.49-5.57c6.2,3.82,12.39,17.77,18.29,49.3
		c5.9,31.53,11.49,80.66,17.39,84.04c5.9,3.38,12.09-38.99,18.19-67.12c6.1-28.13,12.09-42.02,18.19-35.91s12.29,32.21,18.39,34.49
		c6.1,2.28,12.09-19.25,18.19-31.64c6.1-12.39,12.29-15.63,18.49-16.97c6.2-1.34,12.39-0.77,18.49-0.81s12.09-0.69,18.19,1.22
		c6.1,1.91,12.29,6.36,18.39,6.24c6.1-0.12,12.09-4.82,18.19-10.16c6.1-5.34,12.29-11.31,18.49-10.27
		c6.2,1.04,12.39,9.09,18.29,10.16c5.9,1.07,11.49-4.85,17.39-6.49c5.9-1.63,12.09,1.01,18.19-1.57s12.09-10.39,18.19-9.78
		c6.1,0.61,12.29,9.63,18.39,17.52s12.09,14.65,18.19,15.81c6.1,1.16,12.29-3.27,15.39-5.49l3.1-2.22v2.11l-3.1,2.13
		c-3.1,2.13-9.29,6.4-15.39,5.67c-6.1-0.73-12.09-6.46-18.19-7.05s-12.29,3.95-18.39,3.82c-6.1-0.12-12.09-4.9-18.19-8.92
		s-12.29-7.26-18.19-6.3c-5.9,0.96-11.49,6.12-17.39,9.43c-5.9,3.31-12.09,4.77-18.29,3.35c-6.2-1.42-12.39-5.72-18.49-5.08
		s-12.09,6.2-18.19,10.11c-6.1,3.9-12.29,6.15-18.39,6.4c-6.1,0.26-12.09-1.47-18.19-5.03s-12.29-8.93-18.49-10.27
		c-6.2-1.34-12.39,1.36-18.49,13.7c-6.1,12.34-12.09,34.3-18.19,32.16c-6.1-2.15-12.29-28.41-18.39-33.79
		c-6.1-5.38-12.09,10.13-18.19,39.15c-6.1,29.02-12.29,71.55-18.19,67.58c-5.9-3.97-11.49-54.45-17.39-78.9
		c-5.9-24.45-12.09-22.89-18.29-26.95c-6.2-4.07-12.39-13.77-18.49-18.67s-12.09-5.01-18.19-4.74c-6.1,0.27-12.29,0.92-18.39,3.22
		c-6.1,2.3-12.09,6.24-18.19,0.28c-6.1-5.96-12.29-21.82-18.49-24.59c-6.2-2.77-12.39,7.55-18.49,13.75s-12.09,8.28-18.19,9.84
		c-6.1,1.55-12.29,2.58-18.39,1.81s-12.09-3.34-18.19-1.24c-6.1,2.09-12.29,8.85-18.19,14.96c-5.9,6.11-11.49,11.57-17.39,18.17
		c-5.9,6.61-12.09,14.36-15.19,18.24l-3.1,3.88V289.2z"/>
	<rect x="118.52" y="313.25" class="st3" width="35.61" height="19.85"/>
	<text transform="matrix(1 0 0 1 118.5215 318.9312)"><tspan x="0" y="0" class="st29 st5 st6">Women’s </tspan><tspan x="0" y="9.6" class="st29 st5 st6">March</tspan></text>

		<rect x="548.38" y="292.65" transform="matrix(0.3212 -0.947 0.947 0.3212 84.9632 739.4422)" class="st3" width="19.85" height="35.61"/>
	<text transform="matrix(0.947 0.3212 -0.3212 0.947 542.8403 300.686)"><tspan x="0" y="0" class="st29 st5 st6">Women’s </tspan><tspan x="0" y="9.6" class="st29 st5 st6">March</tspan></text>

		<rect x="325.46" y="294.51" transform="matrix(0.5373 -0.8434 0.8434 0.5373 -108.2134 427.3868)" class="st3" width="19.85" height="35.61"/>
	<text transform="matrix(0.8434 0.5373 -0.5373 0.8434 322.6098 299.208)"><tspan x="0" y="0" class="st29 st5 st6">Women’s </tspan><tspan x="0" y="9.6" class="st29 st5 st6">March</tspan></text>
	<g>
		<rect x="601.18" y="289.41" class="st3" width="50.37" height="26.4"/>
		<text transform="matrix(1 0 0 1 617.8154 295.0854)"><tspan x="0" y="0" class="st29 st5 st6">State </tspan><tspan x="-5.83" y="9.6" class="st29 st5 st6">abortion     </tspan><tspan x="-9.96" y="19.2" class="st29 st5 st6">restrictions</tspan></text>
	</g>
</g>
<g id="race">
	<path id="race-stream" class="st14" d="M116.06,359.73l3.1-3.88c3.1-3.88,9.29-11.63,15.19-18.24c5.9-6.61,11.49-12.07,17.39-18.17
		c5.9-6.11,12.09-12.86,18.19-14.96c6.1-2.09,12.09,0.47,18.19,1.24s12.29-0.26,18.39-1.81c6.1-1.55,12.09-3.63,18.19-9.84
		s12.29-16.52,18.49-13.75c6.2,2.77,12.39,18.63,18.49,24.59c6.1,5.96,12.09,2.01,18.19-0.28c6.1-2.3,12.29-2.95,18.39-3.22
		c6.1-0.27,12.09-0.16,18.19,4.74s12.29,14.61,18.49,18.67c6.2,4.07,12.39,2.5,18.29,26.95c5.9,24.45,11.49,74.93,17.39,78.9
		c5.9,3.97,12.09-38.56,18.19-67.58c6.1-29.02,12.09-44.53,18.19-39.15c6.1,5.38,12.29,31.64,18.39,33.79
		c6.1,2.15,12.09-19.82,18.19-32.16c6.1-12.34,12.29-15.04,18.49-13.7c6.2,1.34,12.39,6.71,18.49,10.27s12.09,5.28,18.19,5.03
		c6.1-0.26,12.29-2.5,18.39-6.4c6.1-3.9,12.09-9.47,18.19-10.11s12.29,3.66,18.49,5.08c6.2,1.42,12.39-0.04,18.29-3.35
		c5.9-3.31,11.49-8.47,17.39-9.43c5.9-0.96,12.09,2.28,18.19,6.3s12.09,8.8,18.19,8.92c6.1,0.12,12.29-4.42,18.39-3.82
		s12.09,6.32,18.19,7.05c6.1,0.73,12.29-3.54,15.39-5.67l3.1-2.13v7.78l-3.1,1.81c-3.1,1.81-9.29,5.43-15.39,4.13
		s-12.09-7.51-18.19-7.76s-12.29,5.49-18.39,5.66s-12.09-5.2-18.19-9.48s-12.29-7.47-18.19-6.46c-5.9,1.01-11.49,6.23-17.39,11.81
		c-5.9,5.58-12.09,11.52-18.29,9.48c-6.2-2.04-12.39-12.07-18.49-13.75s-12.09,4.96-18.19,9.73c-6.1,4.77-12.29,7.66-18.39,8.35
		s-12.09-0.82-18.19-3.62s-12.29-6.88-18.49-8.67c-6.2-1.8-12.39-1.31-18.49,10.11c-6.1,11.42-12.09,33.76-18.19,31.64
		c-6.1-2.12-12.29-28.71-18.39-33.49c-6.1-4.78-12.09,12.24-18.19,41.59c-6.1,29.35-12.29,71.01-18.19,66.53
		c-5.9-4.49-11.49-55.12-17.39-77.96c-5.9-22.83-12.09-17.86-18.29-22.41c-6.2-4.55-12.39-18.63-18.49-24.37
		c-6.1-5.74-12.09-3.15-18.19,0.09c-6.1,3.24-12.29,7.13-18.39,11.94c-6.1,4.81-12.09,10.54-18.19,14.47
		c-6.1,3.93-12.29,6.07-18.49-0.41c-6.2-6.47-12.39-21.55-18.49-27.78c-6.1-6.23-12.09-3.61-18.19-1.38
		c-6.1,2.23-12.29,4.07-18.39,3s-12.09-5.04-18.19-3.54c-6.1,1.5-12.29,8.47-18.19,14.33c-5.9,5.86-11.49,10.62-17.39,16.39
		c-5.9,5.77-12.09,12.55-15.19,15.94l-3.1,3.39V359.73z"/>
	<rect x="230.55" y="296.25" class="st3" width="60.61" height="26.4"/>
	<text transform="matrix(1 0 0 1 230.5475 301.9333)"><tspan x="0" y="0" class="st30 st5 st6">Unite </tspan><tspan x="0" y="9.6" class="st30 st5 st6">the Right </tspan><tspan x="0" y="19.2" class="st30 st5 st6">(Charlottesville)</tspan></text>
</g>
<g id="supreme-court">
	<path id="supreme-court-stream" class="st31" d="M116.06,257.26l3.1-0.91c3.1-0.91,9.29-2.72,15.19-3.46
		c5.9-0.74,11.49-0.42,17.39-0.18c5.9,0.24,12.09,0.41,18.19,2.8c6.1,2.39,12.09,7.01,18.19,10.81s12.29,6.77,18.39,8.62
		c6.1,1.85,12.09,2.58,18.19-2.84c6.1-5.42,12.29-16.98,18.49-21.51c6.2-4.53,12.39-2.01,18.49,2.05
		c6.1,4.07,12.09,9.69,18.19,14.42c6.1,4.73,12.29,8.57,18.39,11.62c6.1,3.05,12.09,5.32,18.19,1.82s12.29-12.77,18.49-17.7
		c6.2-4.93,12.39-5.53,18.29-30.3c5.9-24.78,11.49-73.74,17.39-78.61c5.9-4.86,12.09,34.37,18.19,61.88
		c6.1,27.51,12.09,43.29,18.19,39.8s12.29-26.24,18.39-26.22c6.1,0.01,12.09,22.79,18.19,34.1c6.1,11.31,12.29,11.15,18.49,8.48
		c6.2-2.66,12.39-7.82,18.49-12.4c6.1-4.58,12.09-8.58,18.19-6.08c6.1,2.5,12.29,11.5,18.39,19.29c6.1,7.8,12.09,14.39,18.19,12
		s12.29-13.77,18.49-16.73c6.2-2.96,12.39,2.5,18.29,4.3c5.9,1.8,11.49-0.07,17.39-1c5.9-0.93,12.09-0.93,18.19-4.46
		c6.1-3.53,12.09-10.58,18.19-10.13c6.1,0.45,12.29,8.39,18.39,9.61c6.1,1.22,12.09-4.3,18.19-4.92s12.29,3.65,15.39,5.78l3.1,2.13
		l0,0l-3.1-2.13c-3.1-2.13-9.29-6.4-15.39-5.78s-12.09,6.13-18.19,4.92c-6.1-1.22-12.29-9.16-18.39-9.61
		c-6.1-0.45-12.09,6.61-18.19,10.13c-6.1,3.53-12.29,3.53-18.19,4.46c-5.9,0.93-11.49,2.8-17.39,1c-5.9-1.8-12.09-7.26-18.29-4.3
		c-6.2,2.96-12.39,14.33-18.49,16.73s-12.09-4.2-18.19-8.59c-6.1-4.39-12.29-6.58-18.39-6.32s-12.09,2.96-18.19,4.7
		s-12.29,2.53-18.49,2.84c-6.2,0.31-12.39,0.15-18.49-11.7c-6.1-11.85-12.09-35.38-18.19-35.8c-6.1-0.42-12.29,22.28-18.39,25.74
		s-12.09-12.32-18.19-39.83c-6.1-27.51-12.29-66.74-18.19-61.88c-5.9,4.86-11.49,53.83-17.39,78.61
		c-5.9,24.78-12.09,25.37-18.29,30.3c-6.2,4.93-12.39,14.2-18.49,17.7s-12.09,1.23-18.19-1.82c-6.1-3.05-12.29-6.89-18.39-11.59
		s-12.09-10.27-18.19-14.33c-6.1-4.07-12.29-6.63-18.49-2.13c-6.2,4.5-12.39,16.06-18.49,21.48c-6.1,5.42-12.09,4.69-18.19,2.84
		c-6.1-1.85-12.29-4.82-18.39-8.59c-6.1-3.77-12.09-8.34-18.19-10.65s-12.29-2.36-18.19-2.61c-5.9-0.24-11.49-0.68-17.39-0.01
		c-5.9,0.66-12.09,2.42-15.19,3.3L116.06,257.26z"/>

		<rect x="450.03" y="228.2" transform="matrix(0.861 -0.5086 0.5086 0.861 -59.3587 277.9336)" class="st3" width="57.58" height="38.74"/>
	<text transform="matrix(0.861 -0.5086 0.5086 0.861 447.0689 250.4203)"><tspan x="0" y="0" class="st32 st5 st6">Supreme Court: </tspan><tspan x="0" y="9.6" class="st30 st5 st6">Kavanaugh </tspan><tspan x="0" y="19.2" class="st30 st5 st6">nomination</tspan></text>
</g>
<g id="executive">
	<path id="executive-stream" class="st11" d="M116.06,257.42l3.1-0.42c3.1-0.42,9.29-1.26,15.19-0.38
		c5.9,0.88,11.49,3.47,17.39,4.42c5.9,0.95,12.09,0.24,18.19,2.74s12.09,8.2,18.19,11.84c6.1,3.63,12.29,5.2,18.39,6.21
		s12.09,1.47,18.19-4c6.1-5.47,12.29-16.87,18.49-19.21c6.2-2.34,12.39,4.39,18.49,10.51c6.1,6.12,12.09,11.63,18.19,14.82
		c6.1,3.19,12.29,4.05,18.39,4.81c6.1,0.76,12.09,1.41,18.19-2.61c6.1-4.01,12.29-12.69,18.49-15.62
		c6.2-2.93,12.39-0.12,18.29-22.93c5.9-22.81,11.49-71.23,17.39-74.61c5.9-3.38,12.09,38.29,18.19,64.74
		c6.1,26.45,12.09,37.69,18.19,31.43c6.1-6.27,12.29-30.05,18.39-30.47c6.1-0.42,12.09,22.52,18.19,34.67
		c6.1,12.15,12.29,13.5,18.49,13.81c6.2,0.31,12.39-0.42,18.49-2.13c6.1-1.72,12.09-4.42,18.19-5.54s12.29-0.66,18.39,2.84
		c6.1,3.5,12.09,10.04,18.19,8.13c6.1-1.9,12.29-12.25,18.49-14.65c6.2-2.39,12.39,3.18,18.29,5.76c5.9,2.58,11.49,2.18,17.39,2.57
		c5.9,0.39,12.09,1.58,18.19-1.19c6.1-2.77,12.09-9.5,18.19-10.13c6.1-0.64,12.29,4.82,18.39,4.04c6.1-0.78,12.09-7.81,18.19-8.97
		s12.29,3.54,15.39,5.89l3.1,2.35v6.32l-3.1-2.05c-3.1-2.05-9.29-6.16-15.39-4.62s-12.09,8.73-18.19,8.48
		c-6.1-0.24-12.29-7.92-18.39-7.61c-6.1,0.31-12.09,8.61-18.19,11.48s-12.29,0.34-18.19-0.89c-5.9-1.23-11.49-1.15-17.39-2.13
		c-5.9-0.99-12.09-3.04-18.29-0.86c-6.2,2.18-12.39,8.58-18.49,14s-12.09,9.85-18.19,9.73c-6.1-0.12-12.29-4.8-18.39-6.54
		c-6.1-1.74-12.09-0.55-18.19-1.32s-12.29-3.5-18.49-4.97c-6.2-1.47-12.39-1.69-18.49-14.13c-6.1-12.44-12.09-37.11-18.19-37.91
		c-6.1-0.8-12.29,22.28-18.39,28.12c-6.1,5.84-12.09-5.57-18.19-31.86c-6.1-26.29-12.29-67.47-18.19-63.99
		c-5.9,3.49-11.49,51.64-17.39,74.8c-5.9,23.16-12.09,21.32-18.29,24.12c-6.2,2.8-12.39,10.23-18.49,14.29s-12.09,4.77-18.19,4.42
		c-6.1-0.35-12.29-1.76-18.39-5.3c-6.1-3.54-12.09-9.21-18.19-14.71c-6.1-5.5-12.29-10.82-18.49-7.86
		c-6.2,2.96-12.39,14.2-18.49,20.56s-12.09,7.85-18.19,6.59s-12.29-5.26-18.39-7.16c-6.1-1.91-12.09-1.72-18.19-0.57
		s-12.29,3.26-18.19,2.09c-5.9-1.16-11.49-5.59-17.39-10.12c-5.9-4.53-12.09-9.15-15.19-11.46l-3.1-2.31V257.42z"/>
	<g>
		<path id="SVGID_x5F_6_x5F_" class="st3" d="M470.07,296.54c4.73,0.16,27.8-3.01,35.52-2.35c14.53,1.24,19.99,7.21,32.61-1.42"/>
		<text>		<textPath  xlink:href="#SVGID_x5F_6_x5F_" startOffset="9.668%">
<tspan  class="st29 st5 st6">#ProtectMueller</tspan>		</textPath>
</text>
	</g>
	<g>
		<path id="SVGID_x5F_7_x5F_" class="st3" d="M152.27,281.82c2.82-0.51,31.49-2.63,37.84,2.7"/>
		<text>		<textPath  xlink:href="#SVGID_x5F_7_x5F_" startOffset="0.391%">
<tspan  class="st29 st5 st6">March</tspan>		</textPath>
</text>
	</g>
</g>
<g id="immigration">
	<path id="immigration-stream" class="st33" d="M116.06,262.77l3.1,2.31c3.1,2.31,9.29,6.93,15.19,11.46
		c5.9,4.53,11.49,8.96,17.39,10.12c5.9,1.16,12.09-0.95,18.19-2.09s12.09-1.34,18.19,0.57c6.1,1.9,12.29,5.9,18.39,7.16
		s12.09-0.23,18.19-6.59s12.29-17.6,18.49-20.56c6.2-2.96,12.39,2.36,18.49,7.86c6.1,5.5,12.09,11.17,18.19,14.71
		c6.1,3.54,12.29,4.94,18.39,5.3c6.1,0.35,12.09-0.35,18.19-4.42s12.29-11.5,18.49-14.29c6.2-2.8,12.39-0.96,18.29-24.12
		c5.9-23.16,11.49-71.31,17.39-74.8c5.9-3.49,12.09,37.69,18.19,63.99c6.1,26.29,12.09,37.69,18.19,31.86
		c6.1-5.84,12.29-28.91,18.39-28.12c6.1,0.8,12.09,25.47,18.19,37.91c6.1,12.44,12.29,12.66,18.49,14.13
		c6.2,1.47,12.39,4.2,18.49,4.97s12.09-0.42,18.19,1.32c6.1,1.74,12.29,6.42,18.39,6.54c6.1,0.12,12.09-4.31,18.19-9.73
		s12.29-11.82,18.49-14c6.2-2.18,12.39-0.12,18.29,0.86c5.9,0.99,11.49,0.91,17.39,2.13c5.9,1.23,12.09,3.77,18.19,0.89
		s12.09-11.17,18.19-11.48c6.1-0.31,12.29,7.36,18.39,7.61c6.1,0.24,12.09-6.94,18.19-8.48s12.29,2.57,15.39,4.62l3.1,2.05v9.73
		l-3.1,5.22c-3.1,5.22-9.29,15.65-15.39,16.65c-6.1,1-12.09-7.43-18.19-15.38s-12.29-15.4-18.39-15.47s-12.09,7.26-18.19,9.54
		c-6.1,2.28-12.29-0.47-18.19,1.35c-5.9,1.82-11.49,8.23-17.39,7.4c-5.9-0.82-12.09-8.88-18.29-9.78
		c-6.2-0.91-12.39,5.34-18.49,10.67s-12.09,9.77-18.19,9.75c-6.1-0.01-12.29-4.47-18.39-6.4s-12.09-1.34-18.19-1.76
		c-6.1-0.42-12.29-1.85-18.49-1.03c-6.2,0.82-12.39,3.9-18.49,15.48s-12.09,31.66-18.19,29.16c-6.1-2.5-12.29-27.58-18.39-45.79
		s-12.09-29.56-18.19-55.12c-6.1-25.56-12.29-65.34-18.19-61.93c-5.9,3.4-11.49,49.99-17.39,73.04
		c-5.9,23.05-12.09,22.56-18.29,25.52c-6.2,2.96-12.39,9.36-18.49,12.56c-6.1,3.2-12.09,3.2-18.19,2.36
		c-6.1-0.84-12.29-2.51-18.39-0.49s-12.09,7.76-18.19,2.8c-6.1-4.96-12.29-20.6-18.49-23.32c-6.2-2.72-12.39,7.5-18.49,13.48
		c-6.1,5.99-12.09,7.74-18.19,9.35c-6.1,1.61-12.29,3.07-18.39,1.57c-6.1-1.5-12.09-5.96-18.19-6.4s-12.29,3.12-18.19,7.93
		c-5.9,4.81-11.49,10.86-17.39,8.74s-12.09-12.42-15.19-17.56l-3.1-5.15V262.77z"/>
	<rect x="409.75" y="283" class="st3" width="35.61" height="45.69"/>
	<text transform="matrix(1 0 0 1 409.9693 288.6815)"><tspan x="0" y="0" class="st30 st5 st6">Immigrant </tspan><tspan x="7.38" y="9.6" class="st30 st5 st6">family </tspan><tspan x="-0.12" y="19.2" class="st30 st5 st6">separation</tspan></text>

		<rect x="645.29" y="281.5" transform="matrix(0.9844 -0.1762 0.1762 0.9844 -42.6369 121.5551)" class="st3" width="35.61" height="38.69"/>
	<text transform="matrix(0.9843 -0.1762 0.1762 0.9843 643.1094 290.555)"><tspan x="0" y="0" class="st30 st5 st6">Family </tspan><tspan x="0" y="9.6" class="st30 st5 st6">separation</tspan></text>
	<path id="SVGID_x5F_8_x5F_" class="st3" d="M118.2,283.23c6.87,7.94,22.54,18.72,58.48,8.1"/>
	<text>	<textPath  xlink:href="#SVGID_x5F_8_x5F_" startOffset="2.000000e-03%">
<tspan  class="st5 st6">Muslim bans</tspan>	</textPath>
</text>
	<path id="SVGID_x5F_9_x5F_" class="st3" d="M239.41,271.38c7.87,0.46,21.44,26.01,44.78,23.76"/>
	<text>	<textPath  xlink:href="#SVGID_x5F_9_x5F_" startOffset="0%">
<tspan  class="st5 st6">#DefendDACA</tspan>	</textPath>
</text>
</g>
<g id="guns">
	<path id="gun-stream" class="st34" d="M116.06,289.2l3.1,5.15c3.1,5.15,9.29,15.44,15.19,17.56s11.49-3.93,17.39-8.74
		c5.9-4.81,12.09-8.38,18.19-7.93s12.09,4.9,18.19,6.4c6.1,1.5,12.29,0.04,18.39-1.57c6.1-1.61,12.09-3.36,18.19-9.35
		c6.1-5.99,12.29-16.2,18.49-13.48c6.2,2.72,12.39,18.36,18.49,23.32c6.1,4.96,12.09-0.77,18.19-2.8s12.29-0.35,18.39,0.49
		c6.1,0.84,12.09,0.84,18.19-2.36c6.1-3.2,12.29-9.61,18.49-12.56c6.2-2.96,12.39-2.47,18.29-25.52
		c5.9-23.05,11.49-69.63,17.39-73.04c5.9-3.4,12.09,36.37,18.19,61.93c6.1,25.56,12.09,36.91,18.19,55.12s12.29,43.29,18.39,45.79
		c6.1,2.5,12.09-17.58,18.19-29.16s12.29-14.66,18.49-15.48c6.2-0.82,12.39,0.61,18.49,1.03c6.1,0.42,12.09-0.18,18.19,1.76
		s12.29,6.39,18.39,6.4c6.1,0.01,12.09-4.42,18.19-9.75s12.29-11.58,18.49-10.67c6.2,0.91,12.39,8.96,18.29,9.78
		c5.9,0.82,11.49-5.58,17.39-7.4c5.9-1.82,12.09,0.93,18.19-1.35c6.1-2.28,12.09-9.61,18.19-9.54s12.29,7.53,18.39,15.47
		s12.09,16.38,18.19,15.38c6.1-1,12.29-11.43,15.39-16.65l3.1-5.22v19.29l-3.1,2.22c-3.1,2.22-9.29,6.65-15.39,5.49
		c-6.1-1.16-12.09-7.92-18.19-15.81s-12.29-16.92-18.39-17.52c-6.1-0.61-12.09,7.2-18.19,9.78s-12.29-0.07-18.19,1.57
		c-5.9,1.63-11.49,7.55-17.39,6.49c-5.9-1.07-12.09-9.12-18.29-10.16c-6.2-1.04-12.39,4.93-18.49,10.27
		c-6.1,5.34-12.09,10.04-18.19,10.16c-6.1,0.12-12.29-4.34-18.39-6.24c-6.1-1.9-12.09-1.26-18.19-1.22s-12.29-0.53-18.49,0.81
		c-6.2,1.34-12.39,4.58-18.49,16.97c-6.1,12.39-12.09,33.93-18.19,31.64c-6.1-2.28-12.29-28.39-18.39-34.49s-12.09,7.78-18.19,35.91
		c-6.1,28.13-12.29,70.5-18.19,67.12c-5.9-3.38-11.49-52.5-17.39-84.04c-5.9-31.53-12.09-45.48-18.29-49.3
		c-6.2-3.82-12.39,2.47-18.49,5.57c-6.1,3.09-12.09,2.99-18.19,2.5c-6.1-0.49-12.29-1.35-18.39,0.7s-12.09,7.03-18.19,1.69
		c-6.1-5.34-12.29-20.98-18.49-23.64c-6.2-2.66-12.39,7.66-18.49,13.89c-6.1,6.23-12.09,8.36-18.19,9.97
		c-6.1,1.61-12.29,2.69-18.39,1.03s-12.09-6.07-18.19-6.49c-6.1-0.42-12.29,3.15-18.19,7.77c-5.9,4.62-11.49,10.3-17.39,7.98
		s-12.09-12.61-15.19-17.75L116.06,289.2z"/>
	<rect x="697" y="297.84" class="st3" width="50.23" height="9.24"/>
	<text transform="matrix(1 0 0 1 696.9993 303.5239)" class="st34 st5 st6">Guns</text>
	<rect x="52.03" y="286.34" class="st3" width="50.23" height="9.24"/>
	<text transform="matrix(1 0 0 1 85.0746 292.0238)" class="st34 st5 st6">Guns</text>
	<g>
		<rect x="349.45" y="277.72" class="st3" width="45.59" height="55.23"/>
		<text transform="matrix(1 0 0 1 355.48 283.3973)"><tspan x="0" y="0" class="st29 st5 st6">March For </tspan><tspan x="1.31" y="9.6" class="st29 st5 st6">Our Lives </tspan><tspan x="10.36" y="19.2" class="st29 st5 st6">and</tspan><tspan x="2.66" y="28.8" class="st29 st5 st6">National </tspan><tspan x="5.44" y="38.4" class="st29 st5 st6">School </tspan><tspan x="2.91" y="48" class="st29 st5 st6">Walkout</tspan></text>
	</g>
</g>
<g id="police">
	<path id="police-stream" class="st9" d="M116.06,257.26l3.1-0.88c3.1-0.88,9.29-2.63,15.19-3.3c5.9-0.66,11.49-0.23,17.39,0.01
		c5.9,0.24,12.09,0.3,18.19,2.61s12.09,6.88,18.19,10.65c6.1,3.77,12.29,6.74,18.39,8.59c6.1,1.85,12.09,2.58,18.19-2.84
		c6.1-5.42,12.29-16.98,18.49-21.48c6.2-4.5,12.39-1.93,18.49,2.13c6.1,4.07,12.09,9.63,18.19,14.33s12.29,8.54,18.39,11.59
		c6.1,3.05,12.09,5.32,18.19,1.82s12.29-12.77,18.49-17.7c6.2-4.93,12.39-5.53,18.29-30.3c5.9-24.78,11.49-73.74,17.39-78.61
		c5.9-4.86,12.09,34.37,18.19,61.88c6.1,27.51,12.09,43.29,18.19,39.83s12.29-26.16,18.39-25.74c6.1,0.42,12.09,23.95,18.19,35.8
		c6.1,11.85,12.29,12.01,18.49,11.7c6.2-0.31,12.39-1.09,18.49-2.84s12.09-4.45,18.19-4.7s12.29,1.93,18.39,6.32
		c6.1,4.39,12.09,10.98,18.19,8.59s12.29-13.77,18.49-16.73c6.2-2.96,12.39,2.5,18.29,4.3c5.9,1.8,11.49-0.07,17.39-1
		c5.9-0.93,12.09-0.93,18.19-4.46c6.1-3.53,12.09-10.58,18.19-10.13c6.1,0.45,12.29,8.39,18.39,9.61c6.1,1.22,12.09-4.3,18.19-4.92
		s12.29,3.65,15.39,5.78l3.1,2.13v5.19l-3.1-2.32c-3.1-2.32-9.29-6.97-15.39-6.4s-12.09,6.35-18.19,5.19s-12.29-9.27-18.39-9.69
		c-6.1-0.42-12.09,6.85-18.19,10.51s-12.29,3.72-18.19,4.49c-5.9,0.77-11.49,2.26-17.39,0.27c-5.9-1.99-12.09-7.44-18.29-4.76
		c-6.2,2.69-12.39,13.52-18.49,15.65c-6.1,2.12-12.09-4.47-18.19-8.4c-6.1-3.93-12.29-5.2-18.39-4.3s-12.09,3.99-18.19,6.03
		c-6.1,2.04-12.29,3.04-18.49,3.3c-6.2,0.26-12.39-0.23-18.49-12.16s-12.09-35.3-18.19-35.97c-6.1-0.66-12.29,21.39-18.39,24.87
		c-6.1,3.49-12.09-11.59-18.19-38.91c-6.1-27.32-12.29-66.88-18.19-62.45c-5.9,4.43-11.49,52.85-17.39,77.12
		c-5.9,24.27-12.09,24.37-18.29,29.09c-6.2,4.72-12.39,14.04-18.49,18.29c-6.1,4.26-12.09,3.45-18.19,2.26
		c-6.1-1.19-12.29-2.76-18.39-6.19c-6.1-3.43-12.09-8.73-18.19-14.36c-6.1-5.63-12.29-11.61-18.49-9.05
		c-6.2,2.55-12.39,13.63-18.49,18.89s-12.09,4.69-18.19,3.03s-12.29-4.42-18.39-8.32s-12.09-8.96-18.19-11.57
		c-6.1-2.61-12.29-2.77-18.19-3.31c-5.9-0.54-11.49-1.46-17.39-1.2s-12.09,1.69-15.19,2.4L116.06,257.26z"/>
</g>
</svg>
