<?xml version="1.0" encoding="utf-8"?>
<!-- Generator: Adobe Illustrator 23.1.1, SVG Export Plug-In . SVG Version: 6.00 Build 0)  -->
<svg version="1.1" id="Layer_1" xmlns="http://www.w3.org/2000/svg" xmlns:xlink="http://www.w3.org/1999/xlink" x="0px" y="0px"
	 viewBox="0 0 648 427.83" style="enable-background:new 0 0 648 427.83;" xml:space="preserve">
<style type="text/css">
	.st0{fill:none;stroke:#FFFFFF;stroke-width:0.3926;stroke-linejoin:round;stroke-miterlimit:10;}
	.st1{fill:none;stroke:#FFFFFF;stroke-width:0.5;stroke-linejoin:round;stroke-miterlimit:10;}
	.st2{fill:#FFFFFF;}
	.st3{font-family:'Roboto';}
	.st4{font-size:8px;}
	.st5{fill:none;stroke:#FFFFFF;stroke-width:0.977;stroke-linejoin:round;stroke-miterlimit:10;}
	.st6{font-size:10px;}
	.st7{fill:none;}
	.st8{font-size:10.0046px;}
	.st9{font-size:24px;}
	.st10{font-style: italic;}
</style>
<rect x="101.67" y="353.32" width="2.65" height="0.4"/>
<line class="st0" x1="73.06" y1="353.72" x2="615.4" y2="353.72"/>
<rect x="105.34" y="353.52" width="2.65" height="0.2"/>
<rect x="112.69" y="353.52" width="2.65" height="0.2"/>
<rect x="116.37" y="353.12" width="2.65" height="0.6"/>
<rect x="120.04" y="353.52" width="2.65" height="0.2"/>
<rect x="123.72" y="353.32" width="2.65" height="0.4"/>
<rect x="127.39" y="353.52" width="2.65" height="0.2"/>
<rect x="131.07" y="353.12" width="2.65" height="0.6"/>
<rect x="134.74" y="353.32" width="2.65" height="0.4"/>
<rect x="138.42" y="353.52" width="2.65" height="0.2"/>
<rect x="142.09" y="353.32" width="2.65" height="0.4"/>
<rect x="145.77" y="353.52" width="2.65" height="0.2"/>
<rect x="149.44" y="351.71" width="2.65" height="2.01"/>
<rect x="156.79" y="353.32" width="2.65" height="0.4"/>
<rect x="160.47" y="353.52" width="2.65" height="0.2"/>
<rect x="167.82" y="353.12" width="2.65" height="0.6"/>
<rect x="171.49" y="353.12" width="2.65" height="0.6"/>
<rect x="182.52" y="353.52" width="2.65" height="0.2"/>
<rect x="186.19" y="353.52" width="2.65" height="0.2"/>
<rect x="193.54" y="353.32" width="2.65" height="0.4"/>
<rect x="204.57" y="353.52" width="2.65" height="0.2"/>
<rect x="208.24" y="353.32" width="2.65" height="0.4"/>
<rect x="211.92" y="353.52" width="2.65" height="0.2"/>
<rect x="215.59" y="351.1" width="2.65" height="2.62"/>
<rect x="219.27" y="352.71" width="2.65" height="1.01"/>
<rect x="230.29" y="353.52" width="2.65" height="0.2"/>
<rect x="233.97" y="353.52" width="2.65" height="0.2"/>
<rect x="237.64" y="353.52" width="2.65" height="0.2"/>
<rect x="248.67" y="353.52" width="2.65" height="0.2"/>
<rect x="252.34" y="353.12" width="2.65" height="0.6"/>
<rect x="256.02" y="353.52" width="2.65" height="0.2"/>
<rect x="263.37" y="353.52" width="2.65" height="0.2"/>
<rect x="267.04" y="353.32" width="2.65" height="0.4"/>
<rect x="270.72" y="353.32" width="2.65" height="0.4"/>
<rect x="278.07" y="353.32" width="2.65" height="0.4"/>
<rect x="281.75" y="353.52" width="2.65" height="0.2"/>
<rect x="285.42" y="347.88" width="2.65" height="5.84"/>
<rect x="289.1" y="313.46" width="2.65" height="40.26"/>
<rect x="292.77" y="343.86" width="2.65" height="9.86"/>
<rect x="296.45" y="347.07" width="2.65" height="6.64"/>
<rect x="300.12" y="77.95" width="2.65" height="275.77"/>
<rect x="303.8" y="235.76" width="2.65" height="117.95"/>
<rect x="307.47" y="350.7" width="2.65" height="3.02"/>
<rect x="311.15" y="350.9" width="2.65" height="2.82"/>
<rect x="314.82" y="344.86" width="2.65" height="8.85"/>
<rect x="318.5" y="265.55" width="2.65" height="88.17"/>
<rect x="322.17" y="351.91" width="2.65" height="1.81"/>
<rect x="325.85" y="350.09" width="2.65" height="3.63"/>
<rect x="329.52" y="353.32" width="2.65" height="0.4"/>
<rect x="333.2" y="351.91" width="2.65" height="1.81"/>
<rect x="336.87" y="351.91" width="2.65" height="1.81"/>
<rect x="340.55" y="346.07" width="2.65" height="7.65"/>
<rect x="344.22" y="352.91" width="2.65" height="0.81"/>
<rect x="347.9" y="350.9" width="2.65" height="2.82"/>
<rect x="351.57" y="352.51" width="2.65" height="1.21"/>
<rect x="355.25" y="353.12" width="2.65" height="0.6"/>
<rect x="358.92" y="351.1" width="2.65" height="2.62"/>
<rect x="362.6" y="352.91" width="2.65" height="0.81"/>
<rect x="366.27" y="352.71" width="2.65" height="1.01"/>
<rect x="369.95" y="352.31" width="2.65" height="1.41"/>
<rect x="373.62" y="350.3" width="2.65" height="3.42"/>
<rect x="377.3" y="352.71" width="2.65" height="1.01"/>
<rect x="380.97" y="353.12" width="2.65" height="0.6"/>
<rect x="384.65" y="353.12" width="2.65" height="0.6"/>
<rect x="388.32" y="352.71" width="2.65" height="1.01"/>
<rect x="392" y="353.32" width="2.65" height="0.4"/>
<rect x="395.67" y="353.32" width="2.65" height="0.4"/>
<rect x="399.35" y="352.91" width="2.65" height="0.81"/>
<rect x="403.02" y="353.32" width="2.65" height="0.4"/>
<rect x="406.7" y="353.52" width="2.65" height="0.2"/>
<rect x="410.37" y="352.71" width="2.65" height="1.01"/>
<rect x="414.05" y="353.32" width="2.65" height="0.4"/>
<rect x="417.72" y="352.91" width="2.65" height="0.81"/>
<rect x="421.4" y="352.31" width="2.65" height="1.41"/>
<rect x="428.75" y="353.12" width="2.65" height="0.6"/>
<rect x="432.42" y="353.32" width="2.65" height="0.4"/>
<rect x="439.77" y="353.32" width="2.65" height="0.4"/>
<rect x="443.45" y="352.71" width="2.65" height="1.01"/>
<rect x="458.15" y="352.91" width="2.65" height="0.81"/>
<rect x="461.83" y="353.12" width="2.65" height="0.6"/>
<rect x="465.5" y="352.71" width="2.65" height="1.01"/>
<rect x="472.85" y="353.52" width="2.65" height="0.2"/>
<rect x="476.53" y="352.91" width="2.65" height="0.81"/>
<rect x="480.2" y="353.12" width="2.65" height="0.6"/>
<rect x="483.88" y="352.71" width="2.65" height="1.01"/>
<rect x="487.55" y="352.71" width="2.65" height="1.01"/>
<rect x="491.23" y="352.71" width="2.65" height="1.01"/>
<rect x="494.9" y="352.31" width="2.65" height="1.41"/>
<rect x="498.58" y="353.12" width="2.65" height="0.6"/>
<rect x="502.25" y="352.51" width="2.65" height="1.21"/>
<rect x="505.93" y="353.12" width="2.65" height="0.6"/>
<rect x="509.6" y="353.12" width="2.65" height="0.6"/>
<rect x="513.28" y="352.31" width="2.65" height="1.41"/>
<rect x="516.95" y="353.32" width="2.65" height="0.4"/>
<rect x="520.63" y="352.91" width="2.65" height="0.81"/>
<rect x="524.3" y="353.12" width="2.65" height="0.6"/>
<rect x="527.98" y="353.52" width="2.65" height="0.2"/>
<rect x="531.65" y="352.91" width="2.65" height="0.81"/>
<rect x="535.33" y="347.48" width="2.65" height="6.24"/>
<rect x="539" y="352.91" width="2.65" height="0.81"/>
<rect x="550.03" y="353.52" width="2.65" height="0.2"/>
<rect x="553.7" y="353.32" width="2.65" height="0.4"/>
<rect x="557.38" y="353.32" width="2.65" height="0.4"/>
<rect x="561.05" y="353.12" width="2.65" height="0.6"/>
<rect x="564.73" y="351.1" width="2.65" height="2.62"/>
<rect x="568.4" y="344.86" width="2.65" height="8.85"/>
<rect x="572.08" y="342.25" width="2.65" height="11.47"/>
<rect x="575.75" y="352.51" width="2.65" height="1.21"/>
<rect x="583.1" y="353.52" width="2.65" height="0.2"/>
<rect x="586.78" y="352.51" width="2.65" height="1.21"/>
<rect x="590.45" y="352.11" width="2.65" height="1.61"/>
<rect x="594.13" y="352.51" width="2.65" height="1.21"/>
<rect x="597.8" y="353.32" width="2.65" height="0.4"/>
<rect x="605.15" y="353.12" width="2.65" height="0.6"/>
<rect x="608.83" y="353.52" width="2.65" height="0.2"/>
<line class="st0" x1="89.34" y1="353.72" x2="89.34" y2="361.45"/>
<line class="st0" x1="104.04" y1="353.72" x2="104.04" y2="361.45"/>
<line class="st0" x1="120.31" y1="353.72" x2="120.31" y2="361.45"/>
<line class="st0" x1="136.07" y1="353.72" x2="136.07" y2="361.45"/>
<line class="st0" x1="152.34" y1="353.72" x2="152.34" y2="361.45"/>
<line class="st0" x1="168.09" y1="353.72" x2="168.09" y2="361.45"/>
<line class="st0" x1="184.37" y1="353.72" x2="184.37" y2="361.45"/>
<line class="st0" x1="200.64" y1="353.72" x2="200.64" y2="361.45"/>
<line class="st0" x1="216.39" y1="353.72" x2="216.39" y2="361.45"/>
<line class="st0" x1="232.67" y1="353.72" x2="232.67" y2="361.45"/>
<line class="st0" x1="248.42" y1="353.72" x2="248.42" y2="361.45"/>
<line class="st0" x1="264.69" y1="353.72" x2="264.69" y2="361.45"/>
<line class="st0" x1="280.97" y1="353.72" x2="280.97" y2="361.45"/>
<line class="st0" x1="295.67" y1="353.72" x2="295.67" y2="361.45"/>
<line class="st0" x1="311.95" y1="353.72" x2="311.95" y2="361.45"/>
<line class="st0" x1="327.7" y1="353.72" x2="327.7" y2="361.45"/>
<line class="st0" x1="343.97" y1="353.72" x2="343.97" y2="361.45"/>
<line class="st0" x1="359.72" y1="353.72" x2="359.72" y2="361.45"/>
<line class="st0" x1="376" y1="353.72" x2="376" y2="361.45"/>
<line class="st0" x1="392.27" y1="353.72" x2="392.27" y2="361.45"/>
<line class="st0" x1="408.02" y1="353.72" x2="408.02" y2="361.45"/>
<line class="st0" x1="424.3" y1="353.72" x2="424.3" y2="361.45"/>
<line class="st0" x1="440.05" y1="353.72" x2="440.05" y2="361.45"/>
<line class="st0" x1="456.32" y1="353.72" x2="456.32" y2="361.45"/>
<line class="st0" x1="472.6" y1="353.72" x2="472.6" y2="361.45"/>
<line class="st0" x1="487.3" y1="353.72" x2="487.3" y2="361.45"/>
<line class="st0" x1="503.58" y1="353.72" x2="503.58" y2="361.45"/>
<line class="st0" x1="519.33" y1="353.72" x2="519.33" y2="361.45"/>
<line class="st0" x1="535.6" y1="353.72" x2="535.6" y2="361.45"/>
<line class="st0" x1="551.35" y1="353.72" x2="551.35" y2="361.45"/>
<line class="st0" x1="567.63" y1="353.72" x2="567.63" y2="361.45"/>
<line class="st0" x1="583.9" y1="353.72" x2="583.9" y2="361.45"/>
<line class="st0" x1="599.65" y1="353.72" x2="599.65" y2="361.45"/>
<line class="st1" x1="427.45" y1="353.72" x2="427.45" y2="170.68"/>
<line class="st1" x1="421.67" y1="353.72" x2="421.67" y2="114.87"/>
<line class="st1" x1="336.62" y1="353.72" x2="336.62" y2="294.74"/>
<line class="st1" x1="287.79" y1="353.72" x2="287.79" y2="77.95"/>
<line class="st1" x1="239.49" y1="353.72" x2="239.49" y2="140.42"/>
<line class="st1" x1="216.39" y1="353.72" x2="216.39" y2="219.7"/>
<line class="st1" x1="234.77" y1="353.72" x2="234.77" y2="175.63"/>
<line class="st1" x1="565.53" y1="353.72" x2="565.53" y2="300.08"/>
<line class="st1" x1="569.2" y1="353.72" x2="569.2" y2="188.83"/>
<line class="st1" x1="568.68" y1="353.72" x2="568.68" y2="244.12"/>
<line class="st1" x1="583.38" y1="353.72" x2="583.38" y2="77.95"/>
<text transform="matrix(1 0 0 1 33.77 356.4196)" class="st2 st3 st4">0</text>
<text transform="matrix(1 0 0 1 23.7598 316.1598)" class="st2 st3 st4">200</text>
<text transform="matrix(1 0 0 1 23.7598 275.9001)" class="st2 st3 st4">400</text>
<text transform="matrix(1 0 0 1 23.7598 235.6393)" class="st2 st3 st4">600</text>
<text transform="matrix(1 0 0 1 23.7598 195.3874)" class="st2 st3 st4">800</text>
<text transform="matrix(1 0 0 1 18.7598 155.1266)" class="st2 st3 st4">1000</text>
<text transform="matrix(1 0 0 1 18.7598 114.8664)" class="st2 st3 st4">1200</text>
<line class="st0" x1="40.96" y1="353.72" x2="45.95" y2="353.72"/>
<line class="st0" x1="40.96" y1="313.47" x2="45.95" y2="313.47"/>
<line class="st0" x1="40.96" y1="273.21" x2="45.95" y2="273.21"/>
<line class="st0" x1="40.96" y1="232.95" x2="45.95" y2="232.95"/>
<line class="st0" x1="40.96" y1="192.69" x2="45.95" y2="192.69"/>
<line class="st0" x1="40.96" y1="152.43" x2="45.95" y2="152.43"/>
<line class="st0" x1="40.96" y1="112.17" x2="45.95" y2="112.17"/>
<line class="st5" x1="73.06" y1="374.77" x2="73.06" y2="353.72"/>
<line class="st5" x1="264.69" y1="374.77" x2="264.69" y2="353.72"/>
<line class="st5" x1="456.32" y1="374.77" x2="456.32" y2="353.72"/>
<text transform="matrix(1 0 0 1 63.0601 387.9841)" class="st2 st3 st6">2017</text>
<text transform="matrix(1 0 0 1 254.6899 387.9841)" class="st2 st3 st6">2018</text>
<text transform="matrix(1 0 0 1 446.3203 387.9841)" class="st2 st3 st6">2019</text>
<rect x="-2.63" y="74.45" class="st7" width="52.79" height="39.97"/>
<text transform="matrix(1 0 0 1 12.5961 81.9563)"><tspan x="0" y="0" class="st2 st3 st8">Protests </tspan><tspan x="-2.41" y="12.01" class="st2 st3 st8">per week</tspan></text>
<rect x="13.06" y="14.47" class="st7" width="602.5" height="39.97"/>
<text transform="matrix(1 0 0 1 13.0618 32.4722)" class="st2 st3 st9">Gun-related protests spike after Parkland, then fade</text>
<g>
	<text transform="matrix(1 0 0 1 79.6733 366.7457)" class="st2 st3 st4">J</text>
	<text transform="matrix(1 0 0 1 94.483 366.7457)" class="st2 st3 st4">F</text>
	<text transform="matrix(1 0 0 1 108.7386 366.7457)" class="st2 st3 st4">M</text>
	<text transform="matrix(1 0 0 1 125.3217 366.7457)" class="st2 st3 st4">A</text>
	<text transform="matrix(1 0 0 1 140.3741 366.7457)" class="st2 st3 st4">M</text>
	<text transform="matrix(1 0 0 1 157.762 366.7457)" class="st2 st3 st4">J</text>
	<text transform="matrix(1 0 0 1 173.5798 366.7457)" class="st2 st3 st4">J</text>
	<text transform="matrix(1 0 0 1 189.5928 366.7457)" class="st2 st3 st4">A</text>
	<text transform="matrix(1 0 0 1 205.8833 366.7457)" class="st2 st3 st4">S</text>
	<text transform="matrix(1 0 0 1 221.9469 366.7457)" class="st2 st3 st4">O</text>
	<text transform="matrix(1 0 0 1 237.5618 366.7457)" class="st2 st3 st4">N</text>
	<text transform="matrix(1 0 0 1 253.8363 366.7457)" class="st2 st3 st4">D</text>
	<text transform="matrix(1 0 0 1 270.7825 366.7457)" class="st2 st3 st4">J</text>
	<text transform="matrix(1 0 0 1 285.5922 366.7457)" class="st2 st3 st4">F</text>
	<text transform="matrix(1 0 0 1 299.8478 366.7457)" class="st2 st3 st4">M</text>
	<text transform="matrix(1 0 0 1 316.4309 366.7457)" class="st2 st3 st4">A</text>
	<text transform="matrix(1 0 0 1 331.4833 366.7457)" class="st2 st3 st4">M</text>
	<text transform="matrix(1 0 0 1 348.8712 366.7457)" class="st2 st3 st4">J</text>
	<text transform="matrix(1 0 0 1 364.689 366.7457)" class="st2 st3 st4">J</text>
	<text transform="matrix(1 0 0 1 380.702 366.7457)" class="st2 st3 st4">A</text>
	<text transform="matrix(1 0 0 1 396.9925 366.7457)" class="st2 st3 st4">S</text>
	<text transform="matrix(1 0 0 1 413.056 366.7457)" class="st2 st3 st4">O</text>
	<text transform="matrix(1 0 0 1 428.671 366.7457)" class="st2 st3 st4">N</text>
	<text transform="matrix(1 0 0 1 444.9455 366.7457)" class="st2 st3 st4">D</text>
	<text transform="matrix(1 0 0 1 463.1111 366.7457)" class="st2 st3 st4">J</text>
	<text transform="matrix(1 0 0 1 477.9208 366.7457)" class="st2 st3 st4">F</text>
	<text transform="matrix(1 0 0 1 492.1764 366.7457)" class="st2 st3 st4">M</text>
	<text transform="matrix(1 0 0 1 508.7595 366.7457)" class="st2 st3 st4">A</text>
	<text transform="matrix(1 0 0 1 523.8119 366.7457)" class="st2 st3 st4">M</text>
	<text transform="matrix(1 0 0 1 541.1998 366.7457)" class="st2 st3 st4">J</text>
	<text transform="matrix(1 0 0 1 557.0176 366.7457)" class="st2 st3 st4">J</text>
	<text transform="matrix(1 0 0 1 573.0306 366.7457)" class="st2 st3 st4">A</text>
	<text transform="matrix(1 0 0 1 589.3211 366.7457)" class="st2 st3 st4">S</text>
	<text transform="matrix(1 0 0 1 605.3846 366.7457)" class="st2 st3 st4">O</text>
</g>
<rect x="141" y="224.74" class="st7" width="67" height="25.14"/>
<text transform="matrix(1 0 0 1 161.6758 232.2426)"><tspan x="0" y="0" class="st2 st3 st6">Las Vegas </tspan><tspan x="-19.57" y="12" class="st2 st3 st6">mass shooting</tspan></text>
<rect x="162.32" y="175.17" class="st7" width="67" height="36.3"/>
<text transform="matrix(1 0 0 1 180.2657 182.6737)"><tspan x="0" y="0" class="st2 st3 st6">Texas First </tspan><tspan x="-16.47" y="12" class="st2 st3 st6">Baptist Church </tspan><tspan x="10.16" y="24" class="st2 st3 st6">shooting</tspan></text>
<rect x="156.79" y="122.27" class="st7" width="77.35" height="36.3"/>
<text transform="matrix(1 0 0 1 161.687 129.7721)"><tspan x="0" y="0" class="st2 st3 st6">Rancho Tehama </tspan><tspan x="6.57" y="12" class="st2 st3 st6">mass shooting</tspan></text>
<rect x="204.59" y="74.97" class="st7" width="77.35" height="36.3"/>
<text transform="matrix(1 0 0 1 210.5079 82.4651)"><tspan x="0" y="0" class="st2 st3 st6">Parkland school </tspan><tspan x="32.54" y="12" class="st2 st3 st6">shooting</tspan></text>
<rect x="306.87" y="77.95" class="st7" width="77.35" height="36.3"/>
<text transform="matrix(1 0 0 1 306.8715 85.4497)"><tspan x="0" y="0" class="st3 st6">#Enough! School </tspan><tspan x="0" y="12" class="st3 st6">Walkout (1,370 </tspan><tspan x="0" y="24" class="st3 st6">protests)</tspan></text>
<rect x="310.49" y="237.29" class="st7" width="94.83" height="36.3"/>
<text transform="matrix(1 0 0 1 310.4862 244.7928)" class="st3 st6">March For Our Lives</text>
<rect x="326.21" y="264.67" class="st7" width="94.83" height="22.49"/>
<text transform="matrix(1 0 0 1 326.2082 272.1731)"><tspan x="0" y="0" class="st3 st6">National School </tspan><tspan x="0" y="12" class="st3 st6">Walkout</tspan></text>
<rect x="425.81" y="114.87" class="st7" width="77.35" height="36.3"/>
<text transform="matrix(1 0 0 1 425.8055 122.3665)"><tspan x="0" y="0" class="st2 st3 st6">Tree of Life </tspan><tspan x="0" y="12" class="st2 st3 st6">synagogue </tspan><tspan x="0" y="24" class="st2 st3 st6">shooting</tspan></text>
<rect x="433.93" y="170.68" class="st7" width="77.35" height="36.3"/>
<text transform="matrix(1 0 0 1 433.9265 178.1752)"><tspan x="0" y="0" class="st2 st3 st6">Borderline Bar &amp; </tspan><tspan x="0" y="12" class="st2 st3 st6">Grill mass </tspan><tspan x="0" y="24" class="st2 st3 st6">shooting</tspan></text>
<rect x="484.61" y="300.08" class="st7" width="77.35" height="36.3"/>
<text transform="matrix(1 0 0 1 508.271 307.5794)"><tspan x="0" y="0" class="st2 st3 st6">Gilroy Garlic </tspan><tspan x="-7.7" y="12" class="st2 st3 st6">Festival mass </tspan><tspan x="14.79" y="24" class="st2 st3 st6">shooting</tspan></text>
<rect x="487.28" y="246.52" class="st7" width="77.35" height="36.3"/>
<text transform="matrix(1 0 0 1 491.3608 254.0232)"><tspan x="0" y="0" class="st2 st3 st6">El Paso Walmart </tspan><tspan x="7.38" y="12" class="st2 st3 st6">mass shooting</tspan></text>
<rect x="488.31" y="188.83" class="st7" width="77.35" height="36.3"/>
<text transform="matrix(1 0 0 1 534.4388 196.326)"><tspan x="0" y="0" class="st2 st3 st6">Dayton </tspan><tspan x="-34.67" y="12" class="st2 st3 st6">mass shooting</tspan></text>
<rect x="503.65" y="77.57" class="st7" width="77.35" height="36.3"/>
<text transform="matrix(1 0 0 1 508.8551 85.0725)"><tspan x="0" y="0" class="st2 st3 st6">Odessa-Midland </tspan><tspan x="6.26" y="12" class="st2 st3 st6">mass shooting</tspan></text>
<rect x="487.2" y="398.6" class="st7" width="133.2" height="36.3"/>
<text transform="matrix(1 0 0 1 525.0432 404.6)"><tspan x="0" y="0" class="st2 st3 st4 st10">Data source: countlove.org</tspan><tspan x="-0.12" y="9.6" class="st2 st3 st4">Graphics by Alyssa Fowers</tspan></text>
</svg>
