<?xml version="1.0" encoding="utf-8"?>
<!-- Generator: Adobe Illustrator 23.1.1, SVG Export Plug-In . SVG Version: 6.00 Build 0)  -->
<svg version="1.1" id="Layer_1" xmlns="http://www.w3.org/2000/svg" xmlns:xlink="http://www.w3.org/1999/xlink" x="0px" y="0px"
	 viewBox="0 0 619.9 448.6" style="enable-background:new 0 0 619.9 448.6;" xml:space="preserve">
<style type="text/css">
	.st0{fill:none;stroke:#FFFFFF;stroke-width:0.396;stroke-linejoin:round;stroke-miterlimit:10;}
	.st1{fill:none;stroke:#FFFFFF;stroke-width:0.9853;stroke-linejoin:round;stroke-miterlimit:10;}
	.st2{fill:#FFFFFF;}
	.st3{font-family:'Roboto';}
	.st4{font-size:8px;}
	.st5{opacity:0.3;fill:#FFFFFF;enable-background:new    ;}
	.st6{fill:none;stroke:#2E8EA4;stroke-width:10.0401;stroke-miterlimit:10;}
	.st7{fill:none;stroke:#000000;stroke-width:10.0378;stroke-linejoin:round;stroke-miterlimit:10;}
	.st8{fill:none;stroke:#FFFFFF;stroke-width:0.4986;stroke-linejoin:round;stroke-miterlimit:10;}
	.st9{fill:#237183;}
	.st10{fill:none;stroke:#FFFFFF;stroke-width:0.43;stroke-linejoin:round;stroke-miterlimit:10;}
	.st11{font-size:9px;}
	.st12{font-size:10.0046px;}
	.st13{fill:#2E8EA4;}
	.st14{font-size:10px;}
	.st15{fill:none;stroke:#FFFFFF;stroke-width:0.9954;stroke-linejoin:round;stroke-miterlimit:10;}
	.st16{fill:none;}
	.st17{fill:none;stroke:#2E8EA4;stroke-miterlimit:10;}
	.st18{font-size:17px;}
	.st19{fill:none;stroke:#000000;stroke-miterlimit:10;}
</style>
<g id="newscaffold">
	<line class="st0" x1="58.5" y1="227.7" x2="610.1" y2="227.7"/>
	<line class="st0" x1="75" y1="227.7" x2="75" y2="235.4"/>
	<line class="st1" x1="58.5" y1="227.7" x2="58.5" y2="247.6"/>
	<line class="st0" x1="90" y1="227.7" x2="90" y2="235.4"/>
	<line class="st0" x1="106.5" y1="227.7" x2="106.5" y2="235.4"/>
	<line class="st0" x1="122.6" y1="227.7" x2="122.6" y2="235.4"/>
	<line class="st0" x1="139.1" y1="227.7" x2="139.1" y2="235.4"/>
	<line class="st0" x1="155.1" y1="227.7" x2="155.1" y2="235.4"/>
	<line class="st0" x1="171.7" y1="227.7" x2="171.7" y2="235.4"/>
	<line class="st0" x1="188.2" y1="227.7" x2="188.2" y2="235.4"/>
	<line class="st0" x1="204.3" y1="227.7" x2="204.3" y2="235.4"/>
	<line class="st0" x1="220.8" y1="227.7" x2="220.8" y2="235.4"/>
	<line class="st0" x1="236.8" y1="227.7" x2="236.8" y2="235.4"/>
	<line class="st0" x1="253.4" y1="227.7" x2="253.4" y2="235.4"/>
	<line class="st0" x1="270" y1="227.7" x2="270" y2="235.4"/>
	<line class="st0" x1="284.9" y1="227.7" x2="284.9" y2="235.4"/>
	<line class="st0" x1="301.5" y1="227.7" x2="301.5" y2="235.4"/>
	<line class="st0" x1="317.5" y1="227.7" x2="317.5" y2="235.4"/>
	<line class="st0" x1="334" y1="227.7" x2="334" y2="235.4"/>
	<line class="st0" x1="350" y1="227.7" x2="350" y2="235.4"/>
	<line class="st0" x1="366.6" y1="227.7" x2="366.6" y2="235.4"/>
	<line class="st0" x1="383.2" y1="227.7" x2="383.2" y2="235.4"/>
	<line class="st0" x1="399.2" y1="227.7" x2="399.2" y2="235.4"/>
	<line class="st0" x1="415.7" y1="227.7" x2="415.7" y2="235.4"/>
	<line class="st0" x1="431.8" y1="227.7" x2="431.8" y2="235.4"/>
	<line class="st0" x1="448.3" y1="227.7" x2="448.3" y2="235.4"/>
	<line class="st0" x1="464.9" y1="227.7" x2="464.9" y2="235.4"/>
	<line class="st0" x1="479.8" y1="227.7" x2="479.8" y2="235.4"/>
	<line class="st0" x1="496.4" y1="227.7" x2="496.4" y2="235.4"/>
	<line class="st0" x1="512.4" y1="227.7" x2="512.4" y2="235.4"/>
	<line class="st0" x1="529" y1="227.7" x2="529" y2="235.4"/>
	<line class="st0" x1="545" y1="227.7" x2="545" y2="235.4"/>
	<line class="st0" x1="561.5" y1="227.7" x2="561.5" y2="235.4"/>
	<line class="st0" x1="578.1" y1="227.7" x2="578.1" y2="235.4"/>
	<line class="st0" x1="594.1" y1="227.7" x2="594.1" y2="235.4"/>
	<line class="st1" x1="253.4" y1="247.6" x2="253.4" y2="227.7"/>
	<line class="st1" x1="448.3" y1="247.6" x2="448.3" y2="227.7"/>
	<g>
		<text transform="matrix(1.0171 0 0 1 65.2041 240.6973)" class="st2 st3 st4">J</text>
		<text transform="matrix(1.0171 0 0 1 80.2681 240.6973)" class="st2 st3 st4">F</text>
		<text transform="matrix(1.0171 0 0 1 94.7676 240.6973)" class="st2 st3 st4">M</text>
		<text transform="matrix(1.0171 0 0 1 111.6353 240.6973)" class="st2 st3 st4">A</text>
		<text transform="matrix(1.0171 0 0 1 126.9453 240.6973)" class="st2 st3 st4">M</text>
		<text transform="matrix(1.0171 0 0 1 144.6313 240.6973)" class="st2 st3 st4">J</text>
		<text transform="matrix(1.0171 0 0 1 160.7202 240.6973)" class="st2 st3 st4">J</text>
		<text transform="matrix(1.0171 0 0 1 177.0078 240.6973)" class="st2 st3 st4">A</text>
		<text transform="matrix(1.0171 0 0 1 193.5771 240.6973)" class="st2 st3 st4">S</text>
		<text transform="matrix(1.0171 0 0 1 209.916 240.6973)" class="st2 st3 st4">O</text>
		<text transform="matrix(1.0171 0 0 1 225.7988 240.6973)" class="st2 st3 st4">N</text>
		<text transform="matrix(1.0171 0 0 1 242.3521 240.6973)" class="st2 st3 st4">D</text>
		<text transform="matrix(1.0171 0 0 1 259.5889 240.6973)" class="st2 st3 st4">J</text>
		<text transform="matrix(1.0171 0 0 1 274.6523 240.6973)" class="st2 st3 st4">F</text>
		<text transform="matrix(1.0171 0 0 1 289.1519 240.6973)" class="st2 st3 st4">M</text>
		<text transform="matrix(1.0171 0 0 1 306.0195 240.6973)" class="st2 st3 st4">A</text>
		<text transform="matrix(1.0171 0 0 1 321.3301 240.6973)" class="st2 st3 st4">M</text>
		<text transform="matrix(1.0171 0 0 1 339.0166 240.6973)" class="st2 st3 st4">J</text>
		<text transform="matrix(1.0171 0 0 1 355.1055 240.6973)" class="st2 st3 st4">J</text>
		<text transform="matrix(1.0171 0 0 1 371.3926 240.6973)" class="st2 st3 st4">A</text>
		<text transform="matrix(1.0171 0 0 1 387.9629 240.6973)" class="st2 st3 st4">S</text>
		<text transform="matrix(1.0171 0 0 1 404.3008 240.6973)" class="st2 st3 st4">O</text>
		<text transform="matrix(1.0171 0 0 1 420.1836 240.6973)" class="st2 st3 st4">N</text>
		<text transform="matrix(1.0171 0 0 1 436.7373 240.6973)" class="st2 st3 st4">D</text>
		<text transform="matrix(1.0171 0 0 1 455.2148 240.6973)" class="st2 st3 st4">J</text>
		<text transform="matrix(1.0171 0 0 1 470.2773 240.6973)" class="st2 st3 st4">F</text>
		<text transform="matrix(1.0171 0 0 1 484.7773 240.6973)" class="st2 st3 st4">M</text>
		<text transform="matrix(1.0171 0 0 1 501.6445 240.6973)" class="st2 st3 st4">A</text>
		<text transform="matrix(1.0171 0 0 1 516.9551 240.6973)" class="st2 st3 st4">M</text>
		<text transform="matrix(1.0171 0 0 1 534.6416 240.6973)" class="st2 st3 st4">J</text>
		<text transform="matrix(1.0171 0 0 1 550.7305 240.6973)" class="st2 st3 st4">J</text>
		<text transform="matrix(1.0171 0 0 1 567.0176 240.6973)" class="st2 st3 st4">A</text>
		<text transform="matrix(1.0171 0 0 1 583.5879 240.6973)" class="st2 st3 st4">S</text>
		<text transform="matrix(1.0171 0 0 1 599.9258 240.6973)" class="st2 st3 st4">O</text>
	</g>
</g>
<g id="timeline">
	<rect x="279.9" y="1.9" class="st5" width="6.9" height="289.6"/>
	<rect x="472" y="1.9" class="st5" width="0.5" height="300.6"/>
	<rect x="300.6" y="1.9" class="st5" width="5.3" height="310.4"/>
	<rect x="300.6" y="1.9" class="st5" width="0.5" height="310"/>
	<rect x="324" y="1.9" class="st5" width="0.5" height="351.2"/>
	<rect x="460.7" y="1.9" class="st5" width="0.5" height="381.7"/>
	<rect x="468.2" y="1.9" class="st5" width="1.6" height="340.8"/>
	<rect x="510.2" y="1.9" class="st5" width="0.5" height="391.7"/>
	<rect x="510.2" y="1.9" class="st5" width="0.5" height="351"/>
	<rect x="511.3" y="1.9" class="st5" width="0.5" height="401.5"/>
	<rect x="513.9" y="1.9" class="st5" width="0.5" height="411.9"/>
	<rect x="309.6" y="1.9" class="st5" width="2.1" height="319.9"/>
	<rect x="313.3" y="1.9" class="st5" width="3.7" height="330.5"/>
	<rect x="313.9" y="1.9" class="st5" width="8" height="340.5"/>
	<rect x="453.3" y="1.9" class="st5" width="4.2" height="371.1"/>
	<rect x="473.2" y="1.9" class="st5" width="3.7" height="371.1"/>
	<rect x="600.1" y="1.9" class="st5" width="7.4" height="422.8"/>
	<rect x="357" y="1.9" class="st5" width="20.2" height="361.7"/>
	<line class="st6" x1="279.9" y1="286.7" x2="286.8" y2="286.7"/>
	<line class="st6" x1="472.4" y1="286.7" x2="473" y2="286.7"/>
	<line class="st7" x1="300.6" y1="297" x2="301.1" y2="297"/>
	<line class="st7" x1="300.6" y1="307.2" x2="305.9" y2="307.2"/>
	<line class="st7" x1="309.6" y1="317.5" x2="311.8" y2="317.5"/>
	<line class="st7" x1="313.4" y1="327.8" x2="317.1" y2="327.8"/>
	<line class="st7" x1="313.9" y1="338" x2="321.9" y2="338"/>
	<line class="st7" x1="468.2" y1="338" x2="469.8" y2="338"/>
	<line class="st7" x1="324" y1="348.3" x2="324.5" y2="348.3"/>
	<line class="st7" x1="510.2" y1="348.3" x2="510.7" y2="348.3"/>
	<line class="st7" x1="377.2" y1="358.6" x2="357" y2="358.6"/>
	<line class="st7" x1="453.3" y1="368.8" x2="457.5" y2="368.8"/>
	<line class="st7" x1="473.5" y1="368.8" x2="477.2" y2="368.8"/>
	<line class="st7" x1="499.5" y1="368.8" x2="499.5" y2="368.8"/>
	<line class="st7" x1="460.7" y1="379.1" x2="461.2" y2="379.1"/>
	<line class="st7" x1="510.2" y1="389.4" x2="510.7" y2="389.4"/>
	<line class="st7" x1="511.2" y1="399.6" x2="511.8" y2="399.6"/>
	<line class="st7" x1="513.9" y1="409.9" x2="514.4" y2="409.9"/>
	<line class="st7" x1="600.1" y1="420.1" x2="607.5" y2="420.1"/>
	<line class="st8" x1="279.1" y1="281.6" x2="609.8" y2="281.6"/>
	<line class="st8" x1="300.6" y1="291.8" x2="609.8" y2="291.8"/>
	<line class="st8" x1="300.6" y1="302.1" x2="609.8" y2="302.1"/>
	<line class="st8" x1="309.6" y1="312.4" x2="609.8" y2="312.4"/>
	<line class="st8" x1="313.4" y1="322.6" x2="609.8" y2="322.6"/>
	<line class="st8" x1="313.9" y1="332.9" x2="609.8" y2="332.9"/>
	<line class="st8" x1="324.5" y1="343.1" x2="609.8" y2="343.1"/>
	<line class="st8" x1="357" y1="353.4" x2="609.8" y2="353.4"/>
	<line class="st8" x1="452.6" y1="363.7" x2="609.8" y2="363.7"/>
	<line class="st8" x1="460.7" y1="374" x2="609.8" y2="374"/>
	<line class="st8" x1="510.2" y1="384.2" x2="609.8" y2="384.2"/>
	<line class="st8" x1="511.2" y1="394.5" x2="609.8" y2="394.5"/>
	<line class="st8" x1="513.7" y1="404.8" x2="609.8" y2="404.8"/>
	<line class="st8" x1="600.1" y1="415" x2="609.8" y2="415"/>
	<text transform="matrix(1.031 0 0 1 585.0146 422.8613)" class="st2 st3 st4">IL</text>
	<text transform="matrix(1.031 0 0 1 497.3213 412.5947)" class="st2 st3 st4">OR</text>
	<text transform="matrix(1.031 0 0 1 498.2764 402.3301)" class="st2 st3 st4">TN</text>
	<text transform="matrix(1.031 0 0 1 494.5059 392.0732)" class="st2 st3 st4">SC</text>
	<text transform="matrix(1.031 0 0 1 447.7344 381.8066)" class="st2 st3 st4">VA</text>
	<text transform="matrix(1.031 0 0 1 434.3535 371.54)" class="st2 st3 st4">CA</text>
	<text transform="matrix(1.031 0 0 1 337.4072 361.2744)" class="st2 st3 st4">WA</text>
	<text transform="matrix(1.031 0 0 1 308.585 351.0098)" class="st2 st3 st4">NC</text>
	<text transform="matrix(1.031 0 0 1 298.2593 340.7432)" class="st2 st3 st4">CO</text>
	<text transform="matrix(1.031 0 0 1 300.0913 330.4756)" class="st2 st3 st4">AZ</text>
	<text transform="matrix(1.031 0 0 1 296.0259 320.2114)" class="st2 st3 st4">GA</text>
	<text transform="matrix(1.031 0 0 1 286.1226 309.9448)" class="st2 st3 st4">OK</text>
	<text transform="matrix(1.031 0 0 1 286.3901 299.6875)" class="st2 st3 st4">KY</text>
	<g>
		<text transform="matrix(1 0 0 1 259.7395 289.4209)" class="st9 st3 st4">WV</text>
	</g>
</g>
<g>
	<line class="st10" x1="58.4" y1="227.7" x2="609.8" y2="227.7"/>
	<line class="st10" x1="58.4" y1="227.7" x2="609.8" y2="227.7"/>
	<line class="st10" x1="58.4" y1="227.7" x2="609.8" y2="227.7"/>
	<line class="st10" x1="58.4" y1="227.7" x2="609.8" y2="227.7"/>
	<line class="st10" x1="58.4" y1="227.7" x2="609.8" y2="227.7"/>
	<line class="st10" x1="58.4" y1="227.7" x2="609.8" y2="227.7"/>
	<line class="st10" x1="58.4" y1="227.7" x2="609.8" y2="227.7"/>
	<line class="st10" x1="58.4" y1="227.7" x2="609.8" y2="227.7"/>
	<line class="st10" x1="58.4" y1="227.7" x2="609.8" y2="227.7"/>
	<line class="st10" x1="58.4" y1="227.7" x2="609.8" y2="227.7"/>
	<line class="st10" x1="58.4" y1="227.7" x2="609.8" y2="227.7"/>
	<line class="st10" x1="58.4" y1="227.7" x2="609.8" y2="227.7"/>
	<line class="st10" x1="58.4" y1="227.7" x2="609.8" y2="227.7"/>
	<line class="st10" x1="58.4" y1="227.7" x2="609.8" y2="227.7"/>
	<line class="st10" x1="58.4" y1="227.7" x2="609.8" y2="227.7"/>
	<line class="st10" x1="58.4" y1="227.7" x2="609.8" y2="227.7"/>
	<line class="st10" x1="58.4" y1="227.7" x2="609.8" y2="227.7"/>
	<line class="st10" x1="58.4" y1="227.7" x2="609.8" y2="227.7"/>
	<line class="st10" x1="58.4" y1="227.7" x2="609.8" y2="227.7"/>
	<line class="st10" x1="58.4" y1="227.7" x2="609.8" y2="227.7"/>
	<line class="st10" x1="58.4" y1="227.7" x2="609.8" y2="227.7"/>
	<line class="st10" x1="58.4" y1="227.7" x2="609.8" y2="227.7"/>
	<line class="st10" x1="58.4" y1="227.7" x2="609.8" y2="227.7"/>
	<line class="st10" x1="58.4" y1="227.7" x2="609.8" y2="227.7"/>
	<line class="st10" x1="58.4" y1="227.7" x2="609.8" y2="227.7"/>
	<line class="st10" x1="58.4" y1="227.7" x2="609.8" y2="227.7"/>
	<line class="st10" x1="58.4" y1="227.7" x2="609.8" y2="227.7"/>
	<line class="st10" x1="58.4" y1="227.7" x2="609.8" y2="227.7"/>
	<line class="st10" x1="58.4" y1="227.7" x2="609.8" y2="227.7"/>
	<line class="st10" x1="58.4" y1="227.7" x2="609.8" y2="227.7"/>
	<line class="st10" x1="58.4" y1="227.7" x2="609.8" y2="227.7"/>
	<line class="st10" x1="58.4" y1="227.7" x2="609.8" y2="227.7"/>
	<line class="st10" x1="58.4" y1="227.7" x2="609.8" y2="227.7"/>
	<line class="st10" x1="58.4" y1="227.7" x2="609.8" y2="227.7"/>
	<line class="st10" x1="58.4" y1="227.7" x2="609.8" y2="227.7"/>
	<line class="st10" x1="58.4" y1="227.7" x2="609.8" y2="227.7"/>
	<line class="st10" x1="58.4" y1="227.7" x2="609.8" y2="227.7"/>
	<line class="st10" x1="58.4" y1="227.7" x2="609.8" y2="227.7"/>
	<line class="st10" x1="58.4" y1="227.7" x2="609.8" y2="227.7"/>
	<line class="st10" x1="58.4" y1="227.7" x2="609.8" y2="227.7"/>
	<line class="st10" x1="58.4" y1="227.7" x2="609.8" y2="227.7"/>
	<line class="st10" x1="58.4" y1="227.7" x2="609.8" y2="227.7"/>
	<line class="st10" x1="58.4" y1="227.7" x2="609.8" y2="227.7"/>
	<line class="st10" x1="58.4" y1="227.7" x2="609.8" y2="227.7"/>
	<line class="st10" x1="58.4" y1="227.7" x2="609.8" y2="227.7"/>
	<line class="st10" x1="58.4" y1="227.7" x2="609.8" y2="227.7"/>
	<line class="st10" x1="58.4" y1="227.7" x2="609.8" y2="227.7"/>
	<line class="st10" x1="58.4" y1="227.7" x2="609.8" y2="227.7"/>
	<line class="st10" x1="58.4" y1="227.7" x2="609.8" y2="227.7"/>
	<line class="st10" x1="58.4" y1="227.7" x2="609.8" y2="227.7"/>
	<line class="st10" x1="58.4" y1="227.7" x2="609.8" y2="227.7"/>
	<line class="st10" x1="58.4" y1="227.7" x2="609.8" y2="227.7"/>
	<line class="st10" x1="58.4" y1="227.7" x2="609.8" y2="227.7"/>
	<line class="st10" x1="58.4" y1="227.7" x2="609.8" y2="227.7"/>
	<line class="st10" x1="58.4" y1="227.7" x2="609.8" y2="227.7"/>
	<line class="st10" x1="58.4" y1="227.7" x2="609.8" y2="227.7"/>
	<line class="st10" x1="58.4" y1="227.7" x2="609.8" y2="227.7"/>
	<line class="st10" x1="58.4" y1="227.7" x2="609.8" y2="227.7"/>
	<line class="st10" x1="58.4" y1="227.7" x2="609.8" y2="227.7"/>
	<line class="st10" x1="58.4" y1="227.7" x2="609.8" y2="227.7"/>
	<line class="st10" x1="58.4" y1="227.7" x2="609.8" y2="227.7"/>
	<line class="st10" x1="58.4" y1="227.7" x2="609.8" y2="227.7"/>
	<line class="st10" x1="58.4" y1="227.7" x2="609.8" y2="227.7"/>
	<line class="st10" x1="58.4" y1="227.7" x2="609.8" y2="227.7"/>
	<line class="st10" x1="58.4" y1="227.7" x2="609.8" y2="227.7"/>
	<line class="st10" x1="58.4" y1="227.7" x2="609.8" y2="227.7"/>
	<line class="st10" x1="58.4" y1="227.7" x2="609.8" y2="227.7"/>
	<line class="st10" x1="58.4" y1="227.7" x2="609.8" y2="227.7"/>
	<line class="st10" x1="58.4" y1="227.7" x2="609.8" y2="227.7"/>
	<line class="st10" x1="58.4" y1="227.7" x2="609.8" y2="227.7"/>
	<line class="st10" x1="58.4" y1="227.7" x2="609.8" y2="227.7"/>
	<line class="st10" x1="58.4" y1="227.7" x2="609.8" y2="227.7"/>
	<line class="st10" x1="58.4" y1="227.7" x2="609.8" y2="227.7"/>
	<line class="st10" x1="58.4" y1="227.7" x2="609.8" y2="227.7"/>
	<line class="st10" x1="58.4" y1="227.7" x2="609.8" y2="227.7"/>
	<line class="st10" x1="58.4" y1="227.7" x2="609.8" y2="227.7"/>
	<line class="st10" x1="58.4" y1="227.7" x2="609.8" y2="227.7"/>
	<line class="st10" x1="58.4" y1="227.7" x2="609.8" y2="227.7"/>
	<line class="st10" x1="58.4" y1="227.7" x2="609.8" y2="227.7"/>
	<line class="st10" x1="58.4" y1="227.7" x2="609.8" y2="227.7"/>
	<line class="st10" x1="58.4" y1="227.7" x2="609.8" y2="227.7"/>
	<line class="st10" x1="58.4" y1="227.7" x2="609.8" y2="227.7"/>
	<line class="st10" x1="58.4" y1="227.7" x2="609.8" y2="227.7"/>
	<line class="st10" x1="58.4" y1="227.7" x2="609.8" y2="227.7"/>
	<line class="st10" x1="58.4" y1="227.7" x2="609.8" y2="227.7"/>
	<line class="st10" x1="58.4" y1="227.7" x2="609.8" y2="227.7"/>
	<line class="st10" x1="58.4" y1="227.7" x2="609.8" y2="227.7"/>
	<line class="st10" x1="58.4" y1="227.7" x2="609.8" y2="227.7"/>
	<line class="st10" x1="58.4" y1="227.7" x2="609.8" y2="227.7"/>
	<line class="st10" x1="58.4" y1="227.7" x2="609.8" y2="227.7"/>
	<line class="st10" x1="58.4" y1="227.7" x2="609.8" y2="227.7"/>
	<line class="st10" x1="58.4" y1="227.7" x2="609.8" y2="227.7"/>
	<line class="st10" x1="58.4" y1="227.7" x2="609.8" y2="227.7"/>
	<line class="st10" x1="58.4" y1="227.7" x2="609.8" y2="227.7"/>
	<line class="st10" x1="58.4" y1="227.7" x2="609.8" y2="227.7"/>
	<line class="st10" x1="58.4" y1="227.7" x2="609.8" y2="227.7"/>
	<line class="st10" x1="58.4" y1="227.7" x2="609.8" y2="227.7"/>
	<line class="st10" x1="58.4" y1="227.7" x2="609.8" y2="227.7"/>
	<line class="st10" x1="58.4" y1="227.7" x2="609.8" y2="227.7"/>
	<line class="st10" x1="58.4" y1="227.7" x2="609.8" y2="227.7"/>
	<line class="st10" x1="58.4" y1="227.7" x2="609.8" y2="227.7"/>
	<line class="st10" x1="58.4" y1="227.7" x2="609.8" y2="227.7"/>
	<line class="st10" x1="58.4" y1="227.7" x2="609.8" y2="227.7"/>
	<line class="st10" x1="58.4" y1="227.7" x2="609.8" y2="227.7"/>
	<line class="st10" x1="58.4" y1="227.7" x2="609.8" y2="227.7"/>
	<line class="st10" x1="58.4" y1="227.7" x2="609.8" y2="227.7"/>
	<line class="st10" x1="58.4" y1="227.7" x2="609.8" y2="227.7"/>
	<line class="st10" x1="58.4" y1="227.7" x2="609.8" y2="227.7"/>
	<line class="st10" x1="58.4" y1="227.7" x2="609.8" y2="227.7"/>
	<line class="st10" x1="58.4" y1="227.7" x2="609.8" y2="227.7"/>
	<line class="st10" x1="58.4" y1="227.7" x2="609.8" y2="227.7"/>
	<line class="st10" x1="58.4" y1="227.7" x2="609.8" y2="227.7"/>
	<line class="st10" x1="58.4" y1="227.7" x2="609.8" y2="227.7"/>
	<line class="st10" x1="58.4" y1="227.7" x2="609.8" y2="227.7"/>
	<line class="st10" x1="58.4" y1="227.7" x2="609.8" y2="227.7"/>
	<line class="st10" x1="58.4" y1="227.7" x2="609.8" y2="227.7"/>
	<line class="st10" x1="58.4" y1="227.7" x2="609.8" y2="227.7"/>
	<line class="st10" x1="58.4" y1="227.7" x2="609.8" y2="227.7"/>
	<line class="st10" x1="58.4" y1="227.7" x2="609.8" y2="227.7"/>
	<line class="st10" x1="58.4" y1="227.7" x2="609.8" y2="227.7"/>
	<line class="st10" x1="58.4" y1="227.7" x2="609.8" y2="227.7"/>
	<line class="st10" x1="58.4" y1="227.7" x2="609.8" y2="227.7"/>
	<line class="st10" x1="58.4" y1="227.7" x2="609.8" y2="227.7"/>
	<line class="st10" x1="58.4" y1="227.7" x2="609.8" y2="227.7"/>
	<line class="st10" x1="58.4" y1="227.7" x2="609.8" y2="227.7"/>
	<line class="st10" x1="58.4" y1="227.7" x2="609.8" y2="227.7"/>
	<line class="st10" x1="58.4" y1="227.7" x2="609.8" y2="227.7"/>
	<line class="st10" x1="58.4" y1="227.7" x2="609.8" y2="227.7"/>
	<line class="st10" x1="58.4" y1="227.7" x2="609.8" y2="227.7"/>
	<line class="st10" x1="58.4" y1="227.7" x2="609.8" y2="227.7"/>
	<line class="st10" x1="58.4" y1="227.7" x2="609.8" y2="227.7"/>
	<line class="st10" x1="58.4" y1="227.7" x2="609.8" y2="227.7"/>
	<line class="st10" x1="58.4" y1="227.7" x2="609.8" y2="227.7"/>
	<line class="st10" x1="58.4" y1="227.7" x2="609.8" y2="227.7"/>
	<line class="st10" x1="58.4" y1="227.7" x2="609.8" y2="227.7"/>
	<line class="st10" x1="58.4" y1="227.7" x2="609.8" y2="227.7"/>
	<line class="st10" x1="58.4" y1="227.7" x2="609.8" y2="227.7"/>
	<line class="st10" x1="58.4" y1="227.7" x2="609.8" y2="227.7"/>
	<line class="st10" x1="58.4" y1="227.7" x2="609.8" y2="227.7"/>
	<text transform="matrix(1 0 0 1 149.1208 259.9805)" class="st2 st3 st11">2017</text>
	<text transform="matrix(1 0 0 1 341.9071 259.9805)" class="st2 st3 st11">2018</text>
	<text transform="matrix(1 0 0 1 522.2472 259.9805)" class="st2 st3 st11">2019</text>
	<path class="st10" d="M609.8,228.1"/>
	<line class="st10" x1="609.8" y1="228.1" x2="609.8" y2="235.4"/>
	<text transform="matrix(1 0 0 1 9.5959 9.7301)" class="st2 st3 st12">Education-</text>
	<text transform="matrix(1 0 0 1 23.5559 21.7401)" class="st2 st3 st12">related </text>
	<text transform="matrix(1 0 0 1 17.4658 33.74)" class="st2 st3 st12">protests </text>
	<text transform="matrix(1 0 0 1 16.8358 45.75)" class="st2 st3 st12">per week</text>
	<text transform="matrix(1 0 0 1 193.9161 10.7301)" class="st2 st3 st12">Translucent bars </text>
	<text transform="matrix(1 0 0 1 189.6361 22.74)" class="st2 st3 st12">indicate a teacher </text>
	<text transform="matrix(1 0 0 1 189.5561 34.74)" class="st2 st3 st12">strike is occurring</text>
	<path class="st13" d="M68.5,227.2h3.4H68.5z"/>
	<path class="st13" d="M72.2,227.2h3.4H72.2z"/>
	<path class="st13" d="M75.9,227.2h3.4H75.9z"/>
	<path class="st13" d="M79.7,227.2H83H79.7z"/>
	<path class="st13" d="M83.4,227.2h3.4H83.4z"/>
	<path class="st13" d="M87.1,227.2h3.4H87.1z"/>
	<path class="st13" d="M90.9,227.2h3.4H90.9z"/>
	<path class="st13" d="M94.6,227.2H98H94.6z"/>
	<path class="st13" d="M98.3,227.2h3.4H98.3z"/>
	<path class="st13" d="M102.1,227.2h3.4H102.1z"/>
	<path class="st13" d="M105.8,227.2h3.4H105.8z"/>
	<path class="st13" d="M109.6,227.2h3.4H109.6z"/>
	<path class="st13" d="M113.3,227.2h3.4H113.3z"/>
	<path class="st13" d="M117,227.2h3.4H117z"/>
	<path class="st13" d="M120.8,227.2h3.4H120.8z"/>
	<path class="st13" d="M124.5,227.2h3.4H124.5z"/>
	<path class="st13" d="M128.2,227.2h3.4H128.2z"/>
	<path class="st13" d="M132,227.2h3.4H132z"/>
	<path class="st13" d="M135.7,227.2h3.4H135.7z"/>
	<path class="st13" d="M139.4,227.2h3.4H139.4z"/>
	<path class="st13" d="M143.2,227.2h3.4H143.2z"/>
	<path class="st13" d="M146.9,227.2h3.4H146.9z"/>
	<path class="st13" d="M150.6,227.2h3.4H150.6z"/>
	<path class="st13" d="M158.1,227.2h3.4H158.1z"/>
	<path class="st13" d="M161.9,227.2h3.4H161.9z"/>
	<path class="st13" d="M165.6,227.2h3.4H165.6z"/>
	<path class="st13" d="M169.3,227.2h3.4H169.3z"/>
	<path class="st13" d="M173.1,227.2h3.4H173.1z"/>
	<path class="st13" d="M176.8,227.2h3.4H176.8z"/>
	<path class="st13" d="M180.5,227.2h3.4H180.5z"/>
	<path class="st13" d="M184.3,227.2h3.4H184.3z"/>
	<path class="st13" d="M191.8,227.2h3.4H191.8z"/>
	<path class="st13" d="M195.5,227.2h3.4H195.5z"/>
	<path class="st13" d="M199.2,227.2h3.4H199.2z"/>
	<path class="st13" d="M203,227.2h3.4H203z"/>
	<path class="st13" d="M206.7,227.2h3.4H206.7z"/>
	<path class="st13" d="M210.4,227.2h3.4H210.4z"/>
	<path class="st13" d="M214.2,227.2h3.4H214.2z"/>
	<path class="st13" d="M217.9,227.2h3.4H217.9z"/>
	<path class="st13" d="M221.6,227.2h3.4H221.6z"/>
	<path class="st13" d="M225.4,227.2h3.4H225.4z"/>
	<path class="st13" d="M232.9,227.2h3.4H232.9z"/>
	<path class="st13" d="M236.6,227.2h3.4H236.6z"/>
	<path class="st13" d="M240.3,227.2h3.4H240.3z"/>
	<path class="st13" d="M244.1,227.2h3.4H244.1z"/>
	<path class="st13" d="M251.5,227.2h3.4H251.5z"/>
	<path class="st13" d="M255.3,227.2h3.4H255.3z"/>
	<path class="st13" d="M259,227.2h3.4H259z"/>
	<path class="st13" d="M288.9,227.2h3.4H288.9z"/>
	<path class="st13" d="M292.6,227.2h3.4H292.6z"/>
	<path class="st13" d="M296.4,227.2h3.4H296.4z"/>
	<path class="st13" d="M300.1,227.2h3.4H300.1z"/>
	<path class="st13" d="M303.8,227.2h3.4H303.8z"/>
	<path class="st13" d="M307.6,227.2h3.4H307.6z"/>
	<path class="st13" d="M311.3,227.2h3.4H311.3z"/>
	<path class="st13" d="M315,227.2h3.4H315z"/>
	<path class="st13" d="M318.8,227.2h3.4H318.8z"/>
	<path class="st13" d="M322.5,227.2h3.4H322.5z"/>
	<path class="st13" d="M326.2,227.2h3.4H326.2z"/>
	<path class="st13" d="M330,227.2h3.4H330z"/>
	<path class="st13" d="M333.7,227.2h3.4H333.7z"/>
	<path class="st13" d="M337.5,227.2h3.4H337.5z"/>
	<path class="st13" d="M341.2,227.2h3.4H341.2z"/>
	<path class="st13" d="M344.9,227.2h3.4H344.9z"/>
	<path class="st13" d="M356.1,227.2h3.4H356.1z"/>
	<path class="st13" d="M359.9,227.2h3.4H359.9z"/>
	<path class="st13" d="M363.6,227.2h3.4H363.6z"/>
	<path class="st13" d="M367.4,227.2h3.4H367.4z"/>
	<path class="st13" d="M371.1,227.2h3.4H371.1z"/>
	<path class="st13" d="M374.8,227.2h3.4H374.8z"/>
	<path class="st13" d="M378.6,227.2h3.4H378.6z"/>
	<path class="st13" d="M382.3,227.2h3.4H382.3z"/>
	<path class="st13" d="M389.8,227.2h3.4H389.8z"/>
	<path class="st13" d="M393.5,227.2h3.4H393.5z"/>
	<path class="st13" d="M397.2,227.2h3.4H397.2z"/>
	<path class="st13" d="M401,227.2h3.4H401z"/>
	<path class="st13" d="M404.7,227.2h3.4H404.7z"/>
	<path class="st13" d="M412.2,227.2h3.4H412.2z"/>
	<path class="st13" d="M415.9,227.2h3.4H415.9z"/>
	<path class="st13" d="M419.7,227.2h3.4H419.7z"/>
	<path class="st13" d="M423.4,227.2h3.4H423.4z"/>
	<path class="st13" d="M427.1,227.2h3.4H427.1z"/>
	<path class="st13" d="M430.9,227.2h3.4H430.9z"/>
	<path class="st13" d="M434.6,227.2h3.4H434.6z"/>
	<path class="st13" d="M438.3,227.2h3.4H438.3z"/>
	<path class="st13" d="M442.1,227.2h3.4H442.1z"/>
	<path class="st13" d="M445.8,227.2h3.4H445.8z"/>
	<path class="st13" d="M449.5,227.2h3.4H449.5z"/>
	<path class="st13" d="M453.3,227.2h3.4H453.3z"/>
	<path class="st13" d="M468.2,227.2h3.4H468.2z"/>
	<g>
		<rect x="68.8" y="222" width="2.7" height="5.7"/>
		<rect x="72.6" y="216.4" width="2.7" height="11.3"/>
		<rect x="76.3" y="216.4" width="2.7" height="11.3"/>
		<rect x="80" y="199.4" width="2.7" height="28.3"/>
		<rect x="83.8" y="205" width="2.7" height="22.6"/>
		<rect x="87.5" y="193.7" width="2.7" height="33.9"/>
		<rect x="91.2" y="193.7" width="2.7" height="33.9"/>
		<rect x="95" y="142.8" width="2.7" height="84.8"/>
		<rect x="98.7" y="154.1" width="2.7" height="73.5"/>
		<rect x="102.4" y="210.7" width="2.7" height="17"/>
		<rect x="106.2" y="165.5" width="2.7" height="62.2"/>
		<rect x="109.9" y="193.7" width="2.7" height="33.9"/>
		<rect x="113.7" y="188.1" width="2.7" height="39.6"/>
		<rect x="117.4" y="210.7" width="2.7" height="17"/>
		<rect x="121.1" y="182.4" width="2.7" height="45.2"/>
		<rect x="124.9" y="137.2" width="2.7" height="90.5"/>
		<rect x="128.6" y="171.1" width="2.7" height="56.6"/>
		<rect x="132.3" y="205" width="2.7" height="22.6"/>
		<rect x="136.1" y="222" width="2.7" height="5.7"/>
		<rect x="139.8" y="188.1" width="2.7" height="39.6"/>
		<rect x="143.6" y="199.4" width="2.7" height="28.3"/>
		<rect x="147.3" y="216.4" width="2.7" height="11.3"/>
		<rect x="151" y="210.7" width="2.7" height="17"/>
		<rect x="158.5" y="222" width="2.7" height="5.7"/>
		<rect x="162.2" y="165.5" width="2.7" height="62.2"/>
		<rect x="166" y="210.7" width="2.7" height="17"/>
		<rect x="169.7" y="222" width="2.7" height="5.7"/>
		<rect x="173.4" y="216.4" width="2.7" height="11.3"/>
		<rect x="177.2" y="216.4" width="2.7" height="11.3"/>
		<rect x="180.9" y="216.4" width="2.7" height="11.3"/>
		<rect x="184.6" y="210.7" width="2.7" height="17"/>
		<rect x="192.1" y="182.4" width="2.7" height="45.2"/>
		<rect x="195.9" y="210.7" width="2.7" height="17"/>
		<rect x="199.6" y="159.8" width="2.7" height="67.9"/>
		<rect x="203.3" y="205" width="2.7" height="22.6"/>
		<rect x="207.1" y="171.1" width="2.7" height="56.6"/>
		<rect x="210.8" y="193.7" width="2.7" height="33.9"/>
		<rect x="214.5" y="193.7" width="2.7" height="33.9"/>
		<rect x="218.3" y="222" width="2.7" height="5.7"/>
		<rect x="222" y="216.4" width="2.7" height="11.3"/>
		<rect x="225.7" y="188.1" width="2.7" height="39.6"/>
		<rect x="233.2" y="205" width="2.7" height="22.6"/>
		<rect x="236.9" y="199.4" width="2.7" height="28.3"/>
		<rect x="240.7" y="205" width="2.7" height="22.6"/>
		<rect x="244.4" y="216.4" width="2.7" height="11.3"/>
		<rect x="251.9" y="216.4" width="2.7" height="11.3"/>
		<rect x="255.6" y="210.7" width="2.7" height="17"/>
		<rect x="259.4" y="216.4" width="2.7" height="11.3"/>
		<rect x="263.1" y="154.1" width="2.7" height="73.5"/>
		<rect x="266.8" y="142.8" width="2.7" height="84.8"/>
		<rect x="270.6" y="137.2" width="2.7" height="90.5"/>
		<rect x="274.3" y="108.9" width="2.7" height="118.8"/>
		<rect x="278" y="91.9" width="2.7" height="135.7"/>
		<rect x="281.8" y="142.8" width="2.7" height="84.8"/>
		<rect x="285.5" y="165.5" width="2.7" height="62.2"/>
		<rect x="289.3" y="142.8" width="2.7" height="84.8"/>
		<rect x="293" y="125.9" width="2.7" height="101.8"/>
		<rect x="296.7" y="103.3" width="2.7" height="124.4"/>
		<rect x="300.5" y="52.4" width="2.7" height="175.3"/>
		<rect x="304.2" y="24.1" width="2.7" height="203.6"/>
		<rect x="307.9" y="125.9" width="2.7" height="101.8"/>
		<rect x="311.7" y="58" width="2.7" height="169.6"/>
		<rect x="315.4" y="188.1" width="2.7" height="39.6"/>
		<rect x="319.1" y="131.5" width="2.7" height="96.1"/>
		<rect x="322.9" y="165.5" width="2.7" height="62.2"/>
		<rect x="326.6" y="193.7" width="2.7" height="33.9"/>
		<rect x="330.4" y="193.7" width="2.7" height="33.9"/>
		<rect x="334.1" y="216.4" width="2.7" height="11.3"/>
		<rect x="337.8" y="210.7" width="2.7" height="17"/>
		<rect x="341.6" y="193.7" width="2.7" height="33.9"/>
		<rect x="345.3" y="222" width="2.7" height="5.7"/>
		<rect x="356.5" y="216.4" width="2.7" height="11.3"/>
		<rect x="360.2" y="222" width="2.7" height="5.7"/>
		<rect x="364" y="216.4" width="2.7" height="11.3"/>
		<rect x="367.7" y="210.7" width="2.7" height="17"/>
		<rect x="371.5" y="216.4" width="2.7" height="11.3"/>
		<rect x="375.2" y="171.1" width="2.7" height="56.6"/>
		<rect x="378.9" y="193.7" width="2.7" height="33.9"/>
		<rect x="382.7" y="216.4" width="2.7" height="11.3"/>
		<rect x="386.4" y="165.5" width="2.7" height="62.2"/>
		<rect x="390.1" y="199.4" width="2.7" height="28.3"/>
		<rect x="393.9" y="182.4" width="2.7" height="45.2"/>
		<rect x="397.6" y="171.1" width="2.7" height="56.6"/>
		<rect x="401.3" y="199.4" width="2.7" height="28.3"/>
		<rect x="405.1" y="188.1" width="2.7" height="39.6"/>
		<rect x="408.8" y="176.8" width="2.7" height="50.9"/>
		<rect x="412.5" y="210.7" width="2.7" height="17"/>
		<rect x="416.3" y="210.7" width="2.7" height="17"/>
		<rect x="420" y="188.1" width="2.7" height="39.6"/>
		<rect x="423.8" y="216.4" width="2.7" height="11.3"/>
		<rect x="427.5" y="199.4" width="2.7" height="28.3"/>
		<rect x="431.2" y="188.1" width="2.7" height="39.6"/>
		<rect x="435" y="199.4" width="2.7" height="28.3"/>
		<rect x="438.7" y="205" width="2.7" height="22.6"/>
		<rect x="442.4" y="222" width="2.7" height="5.7"/>
		<rect x="446.2" y="222" width="2.7" height="5.7"/>
		<rect x="449.9" y="216.4" width="2.7" height="11.3"/>
		<rect x="453.6" y="193.7" width="2.7" height="33.9"/>
		<rect x="457.4" y="165.5" width="2.7" height="62.2"/>
		<rect x="461.1" y="193.7" width="2.7" height="33.9"/>
		<rect x="464.9" y="205" width="2.7" height="22.6"/>
		<rect x="468.6" y="199.4" width="2.7" height="28.3"/>
		<rect x="472.3" y="165.5" width="2.7" height="62.2"/>
		<rect x="476.1" y="176.8" width="2.7" height="50.9"/>
		<rect x="479.8" y="114.6" width="2.7" height="113.1"/>
		<rect x="483.5" y="176.8" width="2.7" height="50.9"/>
		<rect x="487.3" y="171.1" width="2.7" height="56.6"/>
		<rect x="491" y="182.4" width="2.7" height="45.2"/>
		<rect x="494.8" y="148.5" width="2.7" height="79.2"/>
		<rect x="498.5" y="131.5" width="2.7" height="96.1"/>
		<rect x="502.2" y="114.6" width="2.7" height="113.1"/>
		<rect x="506" y="137.2" width="2.7" height="90.5"/>
		<rect x="509.7" y="131.5" width="2.7" height="96.1"/>
		<rect x="513.4" y="97.6" width="2.7" height="130.1"/>
		<rect x="517.2" y="103.3" width="2.7" height="124.4"/>
		<rect x="520.9" y="131.5" width="2.7" height="96.1"/>
		<rect x="524.6" y="193.7" width="2.7" height="33.9"/>
		<rect x="528.4" y="205" width="2.7" height="22.6"/>
		<rect x="532.1" y="176.8" width="2.7" height="50.9"/>
		<rect x="535.8" y="165.5" width="2.7" height="62.2"/>
		<rect x="539.6" y="182.4" width="2.7" height="45.2"/>
		<rect x="543.3" y="222" width="2.7" height="5.7"/>
		<rect x="547.1" y="222" width="2.7" height="5.7"/>
		<rect x="550.8" y="205" width="2.7" height="22.6"/>
		<rect x="554.5" y="216.4" width="2.7" height="11.3"/>
		<rect x="558.3" y="216.4" width="2.7" height="11.3"/>
		<rect x="562" y="222" width="2.7" height="5.7"/>
		<rect x="565.7" y="222" width="2.7" height="5.7"/>
		<rect x="569.5" y="210.7" width="2.7" height="17"/>
		<rect x="573.2" y="205" width="2.7" height="22.6"/>
		<rect x="577" y="199.4" width="2.7" height="28.3"/>
		<rect x="580.7" y="159.8" width="2.7" height="67.9"/>
		<rect x="584.4" y="182.4" width="2.7" height="45.2"/>
		<rect x="588.2" y="193.7" width="2.7" height="33.9"/>
		<rect x="591.9" y="210.7" width="2.7" height="17"/>
		<rect x="595.6" y="222" width="2.7" height="5.7"/>
		<rect x="599.4" y="199.4" width="2.7" height="28.3"/>
		<rect x="603.1" y="159.8" width="2.7" height="67.9"/>
		<rect x="606.8" y="216.4" width="2.7" height="11.3"/>
		<text transform="matrix(1 0 0 1 40.6168 230.4656)" class="st2 st3 st14">0</text>
		<text transform="matrix(1 0 0 1 35.6168 173.9148)" class="st2 st3 st14">10</text>
		<text transform="matrix(1 0 0 1 35.6168 117.364)" class="st2 st3 st14">20</text>
		<text transform="matrix(1 0 0 1 35.6168 60.8133)" class="st2 st3 st14">30</text>
		<line class="st15" x1="50.8" y1="227.7" x2="55.8" y2="227.7"/>
		<line class="st15" x1="50.8" y1="171.1" x2="55.8" y2="171.1"/>
		<line class="st15" x1="50.8" y1="114.6" x2="55.8" y2="114.6"/>
		<line class="st15" x1="50.8" y1="58" x2="55.8" y2="58"/>
		<rect x="263.1" y="221.7" class="st9" width="2.7" height="5.6"/>
		<rect x="266.8" y="159.8" class="st9" width="2.7" height="67.4"/>
		<rect x="270.5" y="165.5" class="st9" width="2.7" height="61.8"/>
		<rect x="274.3" y="193.6" class="st9" width="2.7" height="33.7"/>
		<rect x="278" y="143" class="st9" width="2.7" height="84.3"/>
		<rect x="281.8" y="204.8" class="st9" width="2.7" height="22.5"/>
		<rect x="285.5" y="221.7" class="st9" width="2.7" height="5.6"/>
		<rect x="386.4" y="221.7" class="st9" width="2.7" height="5.6"/>
		<rect x="408.8" y="221.7" class="st9" width="2.7" height="5.6"/>
		<rect x="457.4" y="221.7" class="st9" width="2.7" height="5.6"/>
		<rect x="461.1" y="221.7" class="st9" width="2.7" height="5.6"/>
		<rect x="464.8" y="221.7" class="st9" width="2.7" height="5.6"/>
		<rect x="472.3" y="216" class="st9" width="2.7" height="11.2"/>
	</g>
	<path class="st13" d="M475.7,227.2h3.4H475.7z"/>
	<path class="st13" d="M479.4,227.2h3.4H479.4z"/>
	<path class="st13" d="M483.2,227.2h3.4H483.2z"/>
	<path class="st13" d="M486.9,227.2h3.4H486.9z"/>
	<path class="st13" d="M490.6,227.2h3.4H490.6z"/>
	<path class="st13" d="M494.4,227.2h3.4H494.4z"/>
	<path class="st13" d="M498.1,227.2h3.4H498.1z"/>
	<path class="st13" d="M501.9,227.2h3.4H501.9z"/>
	<path class="st13" d="M505.6,227.2h3.4H505.6z"/>
	<path class="st13" d="M509.3,227.2h3.4H509.3z"/>
	<path class="st13" d="M513.1,227.2h3.4H513.1z"/>
	<path class="st13" d="M516.8,227.2h3.4H516.8z"/>
	<path class="st13" d="M520.5,227.2h3.4H520.5z"/>
	<path class="st13" d="M524.3,227.2h3.4H524.3z"/>
	<path class="st13" d="M528,227.2h3.4H528z"/>
	<path class="st13" d="M531.7,227.2h3.4H531.7z"/>
	<path class="st13" d="M535.5,227.2h3.4H535.5z"/>
	<path class="st13" d="M539.2,227.2h3.4H539.2z"/>
	<path class="st13" d="M543,227.2h3.4H543z"/>
	<path class="st13" d="M546.7,227.2h3.4H546.7z"/>
	<path class="st13" d="M550.4,227.2h3.4H550.4z"/>
	<path class="st13" d="M554.2,227.2h3.4H554.2z"/>
	<path class="st13" d="M557.9,227.2h3.4H557.9z"/>
	<path class="st13" d="M561.6,227.2h3.4H561.6z"/>
	<path class="st13" d="M565.4,227.2h3.4H565.4z"/>
	<path class="st13" d="M569.1,227.2h3.4H569.1z"/>
	<path class="st13" d="M572.8,227.2h3.4H572.8z"/>
	<rect x="180.8" y="113.3" class="st16" width="75.1" height="32.9"/>
	<text transform="matrix(1 0 0 1 174.8097 119.3293)" class="st3 st14">Education protests </text>
	<text transform="matrix(1 0 0 1 186.7999 131.3293)" class="st3 st14">in </text>
	<text transform="matrix(1 0 0 1 197.1399 131.3293)" class="st9 st3 st14">West Virginia</text>
	<rect x="162.2" y="321.6" class="st16" width="69.8" height="32.9"/>
	<text transform="matrix(1 0 0 1 174.0035 321.5572)" class="st3 st14">West Virginia’s </text>
	<text transform="matrix(1 0 0 1 152.0361 332.1572)" class="st3 st14">initial teacher strike </text>
	<text transform="matrix(1 0 0 1 175.9812 343.7572)" class="st3 st14">(Feb 22-Mar 7)</text>
	<g>
		<g>
			<path class="st17" d="M231.6,134.4c0.5,3.2,19.7,39.7,30.3,43.9"/>
			<g>
				<path class="st13" d="M261.6,178.1c-0.5-0.8-0.6-2.1-0.4-3c0.6,1.4,1.6,2.6,2.9,3.5c-1.5,0.3-2.8,1.1-4,2.1
					C260.4,179.8,260.8,178.7,261.6,178.1z"/>
			</g>
		</g>
	</g>
	<rect x="350" y="478.6" class="st16" width="259.5" height="36.3"/>
	<text transform="matrix(1 0 0 1 360.546 439.5658)" class="st2 st3 st4">Includes multi-district teacher strikes or teacher strikes in major cities.</text>
	<g>
		<rect x="63.2" y="277.9" class="st16" width="125.1" height="44.7"/>
		<text transform="matrix(1 0 0 1 63.1731 290.6585)" class="st2 st3 st18">Teacher Strikes </text>
		<text transform="matrix(1 0 0 1 63.1731 311.0585)" class="st2 st3 st18">by State</text>
	</g>
	<g>
		<g>
			<path class="st19" d="M247.2,324.5c3.2-0.5,29.7-15.7,33.9-26.3"/>
			<g>
				<path d="M281,298.5c-0.8,0.5-2.1,0.6-3,0.4c1.4-0.6,2.6-1.6,3.5-2.9c0.3,1.5,1.1,2.8,2.1,4C282.7,299.8,281.6,299.3,281,298.5z"
					/>
			</g>
		</g>
	</g>
	<rect x="200.9" y="381.3" class="st16" width="114.8" height="39.4"/>
	<text transform="matrix(1 0 0 1 208.9806 386.3136)" class="st3 st14">Washington state schools </text>
	<text transform="matrix(1 0 0 1 186.8815 396.9136)" class="st3 st14">missed their first day of school </text>
	<text transform="matrix(1 0 0 1 214.8944 407.5136)" class="st3 st14">due to a teacher strike in </text>
	<text transform="matrix(1 0 0 1 255.216 417.1136)" class="st3 st14">July and August</text>
	<g>
		<g>
			<path class="st19" d="M330.5,392.1c3.2-0.5,30-11.6,34.2-21.1"/>
			<g>
				<path d="M364.6,371.3c-0.8,0.5-2.1,0.5-3,0.4c1.4-0.6,2.7-1.5,3.6-2.8c0.2,1.5,1.1,2.9,2,4C366.2,372.6,365.2,372.1,364.6,371.3
					z"/>
			</g>
		</g>
	</g>
</g>
</svg>
