<?xml version="1.0" encoding="utf-8"?>
<!-- Generator: Adobe Illustrator 23.1.1, SVG Export Plug-In . SVG Version: 6.00 Build 0)  -->
<svg version="1.1" id="Layer_1" xmlns="http://www.w3.org/2000/svg" xmlns:xlink="http://www.w3.org/1999/xlink" x="0px" y="0px"
	 viewBox="0 0 619.88 448.57" style="enable-background:new 0 0 619.88 448.57;" xml:space="preserve">
<style type="text/css">
	.st0{fill:none;stroke:#FFFFFF;stroke-width:0.396;stroke-linejoin:round;stroke-miterlimit:10;}
	.st1{fill:none;stroke:#FFFFFF;stroke-width:0.9853;stroke-linejoin:round;stroke-miterlimit:10;}
	.st2{fill:#FFFFFF;}
	.st3{font-family:'Roboto';}
	.st4{font-size:8px;}
	.st5{opacity:0.3;fill:#FFFFFF;enable-background:new    ;}
	.st6{fill:none;stroke:#2E8EA4;stroke-width:10.0401;stroke-miterlimit:10;}
	.st7{fill:none;stroke:#000000;stroke-width:10.0378;stroke-linejoin:round;stroke-miterlimit:10;}
	.st8{fill:none;stroke:#FFFFFF;stroke-width:0.4986;stroke-linejoin:round;stroke-miterlimit:10;}
	.st9{fill:#237183;}
	.st10{fill:none;stroke:#FFFFFF;stroke-width:0.43;stroke-linejoin:round;stroke-miterlimit:10;}
	.st11{font-size:9px;}
	.st12{font-size:10.0046px;}
	.st13{fill:#2E8EA4;}
	.st14{font-size:10px;}
	.st15{fill:none;stroke:#FFFFFF;stroke-width:0.9954;stroke-linejoin:round;stroke-miterlimit:10;}
	.st16{fill:none;}
	.st17{fill:none;stroke:#2E8EA4;stroke-miterlimit:10;}
	.st18{font-size:17px;}
	.st19{fill:none;stroke:#000000;stroke-miterlimit:10;}
</style>
<g id="newscaffold">
	<line class="st0" x1="58.48" y1="227.67" x2="610.11" y2="227.67"/>
	<line class="st0" x1="75.04" y1="227.67" x2="75.04" y2="235.4"/>
	<line class="st1" x1="58.48" y1="227.67" x2="58.48" y2="247.61"/>
	<line class="st0" x1="89.99" y1="227.67" x2="89.99" y2="235.4"/>
	<line class="st0" x1="106.54" y1="227.67" x2="106.54" y2="235.4"/>
	<line class="st0" x1="122.57" y1="227.67" x2="122.57" y2="235.4"/>
	<line class="st0" x1="139.12" y1="227.67" x2="139.12" y2="235.4"/>
	<line class="st0" x1="155.14" y1="227.67" x2="155.14" y2="235.4"/>
	<line class="st0" x1="171.7" y1="227.67" x2="171.7" y2="235.4"/>
	<line class="st0" x1="188.25" y1="227.67" x2="188.25" y2="235.4"/>
	<line class="st0" x1="204.27" y1="227.67" x2="204.27" y2="235.4"/>
	<line class="st0" x1="220.82" y1="227.67" x2="220.82" y2="235.4"/>
	<line class="st0" x1="236.84" y1="227.67" x2="236.84" y2="235.4"/>
	<line class="st0" x1="253.39" y1="227.67" x2="253.39" y2="235.4"/>
	<line class="st0" x1="269.95" y1="227.67" x2="269.95" y2="235.4"/>
	<line class="st0" x1="284.9" y1="227.67" x2="284.9" y2="235.4"/>
	<line class="st0" x1="301.46" y1="227.67" x2="301.46" y2="235.4"/>
	<line class="st0" x1="317.48" y1="227.67" x2="317.48" y2="235.4"/>
	<line class="st0" x1="334.03" y1="227.67" x2="334.03" y2="235.4"/>
	<line class="st0" x1="350.05" y1="227.67" x2="350.05" y2="235.4"/>
	<line class="st0" x1="366.61" y1="227.67" x2="366.61" y2="235.4"/>
	<line class="st0" x1="383.16" y1="227.67" x2="383.16" y2="235.4"/>
	<line class="st0" x1="399.18" y1="227.67" x2="399.18" y2="235.4"/>
	<line class="st0" x1="415.74" y1="227.67" x2="415.74" y2="235.4"/>
	<line class="st0" x1="431.76" y1="227.67" x2="431.76" y2="235.4"/>
	<line class="st0" x1="448.31" y1="227.67" x2="448.31" y2="235.4"/>
	<line class="st0" x1="464.87" y1="227.67" x2="464.87" y2="235.4"/>
	<line class="st0" x1="479.82" y1="227.67" x2="479.82" y2="235.4"/>
	<line class="st0" x1="496.38" y1="227.67" x2="496.38" y2="235.4"/>
	<line class="st0" x1="512.4" y1="227.67" x2="512.4" y2="235.4"/>
	<line class="st0" x1="528.95" y1="227.67" x2="528.95" y2="235.4"/>
	<line class="st0" x1="544.97" y1="227.67" x2="544.97" y2="235.4"/>
	<line class="st0" x1="561.53" y1="227.67" x2="561.53" y2="235.4"/>
	<line class="st0" x1="578.07" y1="227.67" x2="578.07" y2="235.4"/>
	<line class="st0" x1="594.09" y1="227.67" x2="594.09" y2="235.4"/>
	<line class="st1" x1="253.39" y1="247.61" x2="253.39" y2="227.67"/>
	<line class="st1" x1="448.31" y1="247.61" x2="448.31" y2="227.67"/>
	<g>
		<text transform="matrix(1.0171 0 0 1 65.2041 240.6973)" class="st2 st3 st4">J</text>
		<text transform="matrix(1.0171 0 0 1 80.2681 240.6973)" class="st2 st3 st4">F</text>
		<text transform="matrix(1.0171 0 0 1 94.7676 240.6973)" class="st2 st3 st4">M</text>
		<text transform="matrix(1.0171 0 0 1 111.6353 240.6973)" class="st2 st3 st4">A</text>
		<text transform="matrix(1.0171 0 0 1 126.9453 240.6973)" class="st2 st3 st4">M</text>
		<text transform="matrix(1.0171 0 0 1 144.6313 240.6973)" class="st2 st3 st4">J</text>
		<text transform="matrix(1.0171 0 0 1 160.7202 240.6973)" class="st2 st3 st4">J</text>
		<text transform="matrix(1.0171 0 0 1 177.0078 240.6973)" class="st2 st3 st4">A</text>
		<text transform="matrix(1.0171 0 0 1 193.5771 240.6973)" class="st2 st3 st4">S</text>
		<text transform="matrix(1.0171 0 0 1 209.916 240.6973)" class="st2 st3 st4">O</text>
		<text transform="matrix(1.0171 0 0 1 225.7988 240.6973)" class="st2 st3 st4">N</text>
		<text transform="matrix(1.0171 0 0 1 242.3521 240.6973)" class="st2 st3 st4">D</text>
		<text transform="matrix(1.0171 0 0 1 259.5889 240.6973)" class="st2 st3 st4">J</text>
		<text transform="matrix(1.0171 0 0 1 274.6523 240.6973)" class="st2 st3 st4">F</text>
		<text transform="matrix(1.0171 0 0 1 289.1519 240.6973)" class="st2 st3 st4">M</text>
		<text transform="matrix(1.0171 0 0 1 306.0195 240.6973)" class="st2 st3 st4">A</text>
		<text transform="matrix(1.0171 0 0 1 321.3301 240.6973)" class="st2 st3 st4">M</text>
		<text transform="matrix(1.0171 0 0 1 339.0166 240.6973)" class="st2 st3 st4">J</text>
		<text transform="matrix(1.0171 0 0 1 355.1055 240.6973)" class="st2 st3 st4">J</text>
		<text transform="matrix(1.0171 0 0 1 371.3926 240.6973)" class="st2 st3 st4">A</text>
		<text transform="matrix(1.0171 0 0 1 387.9629 240.6973)" class="st2 st3 st4">S</text>
		<text transform="matrix(1.0171 0 0 1 404.3008 240.6973)" class="st2 st3 st4">O</text>
		<text transform="matrix(1.0171 0 0 1 420.1836 240.6973)" class="st2 st3 st4">N</text>
		<text transform="matrix(1.0171 0 0 1 436.7373 240.6973)" class="st2 st3 st4">D</text>
		<text transform="matrix(1.0171 0 0 1 455.2148 240.6973)" class="st2 st3 st4">J</text>
		<text transform="matrix(1.0171 0 0 1 470.2773 240.6973)" class="st2 st3 st4">F</text>
		<text transform="matrix(1.0171 0 0 1 484.7773 240.6973)" class="st2 st3 st4">M</text>
		<text transform="matrix(1.0171 0 0 1 501.6445 240.6973)" class="st2 st3 st4">A</text>
		<text transform="matrix(1.0171 0 0 1 516.9551 240.6973)" class="st2 st3 st4">M</text>
		<text transform="matrix(1.0171 0 0 1 534.6416 240.6973)" class="st2 st3 st4">J</text>
		<text transform="matrix(1.0171 0 0 1 550.7305 240.6973)" class="st2 st3 st4">J</text>
		<text transform="matrix(1.0171 0 0 1 567.0176 240.6973)" class="st2 st3 st4">A</text>
		<text transform="matrix(1.0171 0 0 1 583.5879 240.6973)" class="st2 st3 st4">S</text>
		<text transform="matrix(1.0171 0 0 1 599.9258 240.6973)" class="st2 st3 st4">O</text>
	</g>
</g>
<g id="timeline">
	<rect x="279.86" y="1.86" class="st5" width="6.91" height="300.6"/>
	<rect x="472.05" y="1.86" class="st5" width="0.5" height="300.6"/>
	<rect x="300.62" y="1.86" class="st5" width="5.33" height="319.43"/>
	<rect x="300.62" y="1.86" class="st5" width="0.5" height="310.05"/>
	<rect x="324.03" y="1.86" class="st5" width="0.5" height="357.23"/>
	<rect x="460.69" y="1.86" class="st5" width="0.5" height="385.7"/>
	<rect x="468.17" y="1.86" class="st5" width="1.58" height="347.82"/>
	<rect x="510.2" y="1.86" class="st5" width="0.5" height="357.27"/>
	<rect x="510.22" y="1.86" class="st5" width="0.5" height="394.71"/>
	<rect x="511.26" y="1.86" class="st5" width="0.5" height="404.48"/>
	<rect x="513.92" y="1.86" class="st5" width="0.5" height="413.93"/>
	<rect x="309.65" y="1.86" class="st5" width="2.09" height="328.94"/>
	<rect x="313.33" y="1.86" class="st5" width="3.74" height="337.5"/>
	<rect x="313.88" y="1.86" class="st5" width="7.99" height="347.47"/>
	<rect x="453.27" y="1.86" class="st5" width="4.25" height="376.15"/>
	<rect x="473.22" y="1.86" class="st5" width="3.74" height="376.15"/>
	<rect x="600.08" y="1.86" class="st5" width="7.42" height="422.8"/>
	<rect x="357.01" y="1.86" class="st5" width="20.23" height="366.71"/>
	<line class="st6" x1="279.86" y1="286.71" x2="286.77" y2="286.71"/>
	<line class="st6" x1="472.42" y1="286.71" x2="472.95" y2="286.71"/>
	<line class="st7" x1="300.6" y1="296.96" x2="301.14" y2="296.96"/>
	<line class="st7" x1="300.6" y1="307.24" x2="305.92" y2="307.24"/>
	<line class="st7" x1="309.65" y1="317.49" x2="311.77" y2="317.49"/>
	<line class="st7" x1="313.37" y1="327.77" x2="317.09" y2="327.77"/>
	<line class="st7" x1="313.91" y1="338.03" x2="321.88" y2="338.03"/>
	<line class="st7" x1="468.16" y1="338.03" x2="469.76" y2="338.03"/>
	<line class="st7" x1="324.01" y1="348.3" x2="324.54" y2="348.3"/>
	<line class="st7" x1="510.19" y1="348.3" x2="510.71" y2="348.3"/>
	<line class="st7" x1="377.2" y1="358.57" x2="356.99" y2="358.57"/>
	<line class="st7" x1="453.26" y1="368.83" x2="457.52" y2="368.83"/>
	<line class="st7" x1="473.48" y1="368.83" x2="477.2" y2="368.83"/>
	<line class="st7" x1="499.54" y1="368.83" x2="499.54" y2="368.83"/>
	<line class="st7" x1="460.71" y1="379.1" x2="461.25" y2="379.1"/>
	<line class="st7" x1="510.19" y1="389.36" x2="510.71" y2="389.36"/>
	<line class="st7" x1="511.25" y1="399.62" x2="511.78" y2="399.62"/>
	<line class="st7" x1="513.91" y1="409.89" x2="514.44" y2="409.89"/>
	<line class="st7" x1="600.08" y1="420.15" x2="607.53" y2="420.15"/>
	<line class="st8" x1="279.15" y1="281.57" x2="609.79" y2="281.57"/>
	<line class="st8" x1="300.62" y1="291.84" x2="609.79" y2="291.84"/>
	<line class="st8" x1="300.62" y1="302.11" x2="609.79" y2="302.11"/>
	<line class="st8" x1="309.65" y1="312.37" x2="609.79" y2="312.37"/>
	<line class="st8" x1="313.37" y1="322.64" x2="609.79" y2="322.64"/>
	<line class="st8" x1="313.91" y1="332.9" x2="609.79" y2="332.9"/>
	<line class="st8" x1="324.54" y1="343.15" x2="609.79" y2="343.15"/>
	<line class="st8" x1="356.99" y1="353.43" x2="609.79" y2="353.43"/>
	<line class="st8" x1="452.61" y1="363.68" x2="609.79" y2="363.68"/>
	<line class="st8" x1="460.69" y1="373.96" x2="609.79" y2="373.96"/>
	<line class="st8" x1="510.25" y1="384.23" x2="609.79" y2="384.23"/>
	<line class="st8" x1="511.25" y1="394.49" x2="609.79" y2="394.49"/>
	<line class="st8" x1="513.69" y1="404.76" x2="609.79" y2="404.76"/>
	<line class="st8" x1="600.08" y1="415.02" x2="609.79" y2="415.02"/>
	<text transform="matrix(1.031 0 0 1 585.0146 422.8613)" class="st2 st3 st4">IL</text>
	<text transform="matrix(1.031 0 0 1 497.3213 412.5947)" class="st2 st3 st4">OR</text>
	<text transform="matrix(1.031 0 0 1 498.2764 402.3301)" class="st2 st3 st4">TN</text>
	<text transform="matrix(1.031 0 0 1 494.5059 392.0732)" class="st2 st3 st4">SC</text>
	<text transform="matrix(1.031 0 0 1 447.7344 381.8066)" class="st2 st3 st4">VA</text>
	<text transform="matrix(1.031 0 0 1 434.3535 371.54)" class="st2 st3 st4">CA</text>
	<text transform="matrix(1.031 0 0 1 337.4072 361.2744)" class="st2 st3 st4">WA</text>
	<text transform="matrix(1.031 0 0 1 308.585 351.0098)" class="st2 st3 st4">NC</text>
	<text transform="matrix(1.031 0 0 1 298.2593 340.7432)" class="st2 st3 st4">CO</text>
	<text transform="matrix(1.031 0 0 1 300.0913 330.4756)" class="st2 st3 st4">AZ</text>
	<text transform="matrix(1.031 0 0 1 296.0259 320.2114)" class="st2 st3 st4">GA</text>
	<text transform="matrix(1.031 0 0 1 286.1226 309.9448)" class="st2 st3 st4">OK</text>
	<text transform="matrix(1.031 0 0 1 286.3901 299.6875)" class="st2 st3 st4">KY</text>
	<g>
		<text transform="matrix(1 0 0 1 259.7395 289.4209)" class="st9 st3 st4">WV</text>
	</g>
</g>
<g>
	<line class="st10" x1="58.43" y1="227.67" x2="609.79" y2="227.67"/>
	<line class="st10" x1="58.43" y1="227.67" x2="609.79" y2="227.67"/>
	<line class="st10" x1="58.43" y1="227.67" x2="609.79" y2="227.67"/>
	<line class="st10" x1="58.43" y1="227.67" x2="609.79" y2="227.67"/>
	<line class="st10" x1="58.43" y1="227.67" x2="609.79" y2="227.67"/>
	<line class="st10" x1="58.43" y1="227.67" x2="609.79" y2="227.67"/>
	<line class="st10" x1="58.43" y1="227.67" x2="609.79" y2="227.67"/>
	<line class="st10" x1="58.43" y1="227.67" x2="609.79" y2="227.67"/>
	<line class="st10" x1="58.43" y1="227.67" x2="609.79" y2="227.67"/>
	<line class="st10" x1="58.43" y1="227.67" x2="609.79" y2="227.67"/>
	<line class="st10" x1="58.43" y1="227.67" x2="609.79" y2="227.67"/>
	<line class="st10" x1="58.43" y1="227.67" x2="609.79" y2="227.67"/>
	<line class="st10" x1="58.43" y1="227.67" x2="609.79" y2="227.67"/>
	<line class="st10" x1="58.43" y1="227.67" x2="609.79" y2="227.67"/>
	<line class="st10" x1="58.43" y1="227.67" x2="609.79" y2="227.67"/>
	<line class="st10" x1="58.43" y1="227.67" x2="609.79" y2="227.67"/>
	<line class="st10" x1="58.43" y1="227.67" x2="609.79" y2="227.67"/>
	<line class="st10" x1="58.43" y1="227.67" x2="609.79" y2="227.67"/>
	<line class="st10" x1="58.43" y1="227.67" x2="609.79" y2="227.67"/>
	<line class="st10" x1="58.43" y1="227.67" x2="609.79" y2="227.67"/>
	<line class="st10" x1="58.43" y1="227.67" x2="609.79" y2="227.67"/>
	<line class="st10" x1="58.43" y1="227.67" x2="609.79" y2="227.67"/>
	<line class="st10" x1="58.43" y1="227.67" x2="609.79" y2="227.67"/>
	<line class="st10" x1="58.43" y1="227.67" x2="609.79" y2="227.67"/>
	<line class="st10" x1="58.43" y1="227.67" x2="609.79" y2="227.67"/>
	<line class="st10" x1="58.43" y1="227.67" x2="609.79" y2="227.67"/>
	<line class="st10" x1="58.43" y1="227.67" x2="609.79" y2="227.67"/>
	<line class="st10" x1="58.43" y1="227.67" x2="609.79" y2="227.67"/>
	<line class="st10" x1="58.43" y1="227.67" x2="609.79" y2="227.67"/>
	<line class="st10" x1="58.43" y1="227.67" x2="609.79" y2="227.67"/>
	<line class="st10" x1="58.43" y1="227.67" x2="609.79" y2="227.67"/>
	<line class="st10" x1="58.43" y1="227.67" x2="609.79" y2="227.67"/>
	<line class="st10" x1="58.43" y1="227.67" x2="609.79" y2="227.67"/>
	<line class="st10" x1="58.43" y1="227.67" x2="609.79" y2="227.67"/>
	<line class="st10" x1="58.43" y1="227.67" x2="609.79" y2="227.67"/>
	<line class="st10" x1="58.43" y1="227.67" x2="609.79" y2="227.67"/>
	<line class="st10" x1="58.43" y1="227.67" x2="609.79" y2="227.67"/>
	<line class="st10" x1="58.43" y1="227.67" x2="609.79" y2="227.67"/>
	<line class="st10" x1="58.43" y1="227.67" x2="609.79" y2="227.67"/>
	<line class="st10" x1="58.43" y1="227.67" x2="609.79" y2="227.67"/>
	<line class="st10" x1="58.43" y1="227.67" x2="609.79" y2="227.67"/>
	<line class="st10" x1="58.43" y1="227.67" x2="609.79" y2="227.67"/>
	<line class="st10" x1="58.43" y1="227.67" x2="609.79" y2="227.67"/>
	<line class="st10" x1="58.43" y1="227.67" x2="609.79" y2="227.67"/>
	<line class="st10" x1="58.43" y1="227.67" x2="609.79" y2="227.67"/>
	<line class="st10" x1="58.43" y1="227.67" x2="609.79" y2="227.67"/>
	<line class="st10" x1="58.43" y1="227.67" x2="609.79" y2="227.67"/>
	<line class="st10" x1="58.43" y1="227.67" x2="609.79" y2="227.67"/>
	<line class="st10" x1="58.43" y1="227.67" x2="609.79" y2="227.67"/>
	<line class="st10" x1="58.43" y1="227.67" x2="609.79" y2="227.67"/>
	<line class="st10" x1="58.43" y1="227.67" x2="609.79" y2="227.67"/>
	<line class="st10" x1="58.43" y1="227.67" x2="609.79" y2="227.67"/>
	<line class="st10" x1="58.43" y1="227.67" x2="609.79" y2="227.67"/>
	<line class="st10" x1="58.43" y1="227.67" x2="609.79" y2="227.67"/>
	<line class="st10" x1="58.43" y1="227.67" x2="609.79" y2="227.67"/>
	<line class="st10" x1="58.43" y1="227.67" x2="609.79" y2="227.67"/>
	<line class="st10" x1="58.43" y1="227.67" x2="609.79" y2="227.67"/>
	<line class="st10" x1="58.43" y1="227.67" x2="609.79" y2="227.67"/>
	<line class="st10" x1="58.43" y1="227.67" x2="609.79" y2="227.67"/>
	<line class="st10" x1="58.43" y1="227.67" x2="609.79" y2="227.67"/>
	<line class="st10" x1="58.43" y1="227.67" x2="609.79" y2="227.67"/>
	<line class="st10" x1="58.43" y1="227.67" x2="609.79" y2="227.67"/>
	<line class="st10" x1="58.43" y1="227.67" x2="609.79" y2="227.67"/>
	<line class="st10" x1="58.43" y1="227.67" x2="609.79" y2="227.67"/>
	<line class="st10" x1="58.43" y1="227.67" x2="609.79" y2="227.67"/>
	<line class="st10" x1="58.43" y1="227.67" x2="609.79" y2="227.67"/>
	<line class="st10" x1="58.43" y1="227.67" x2="609.79" y2="227.67"/>
	<line class="st10" x1="58.43" y1="227.67" x2="609.79" y2="227.67"/>
	<line class="st10" x1="58.43" y1="227.67" x2="609.79" y2="227.67"/>
	<line class="st10" x1="58.43" y1="227.67" x2="609.79" y2="227.67"/>
	<line class="st10" x1="58.43" y1="227.67" x2="609.79" y2="227.67"/>
	<line class="st10" x1="58.43" y1="227.67" x2="609.79" y2="227.67"/>
	<line class="st10" x1="58.43" y1="227.67" x2="609.79" y2="227.67"/>
	<line class="st10" x1="58.43" y1="227.67" x2="609.79" y2="227.67"/>
	<line class="st10" x1="58.43" y1="227.67" x2="609.79" y2="227.67"/>
	<line class="st10" x1="58.43" y1="227.67" x2="609.79" y2="227.67"/>
	<line class="st10" x1="58.43" y1="227.67" x2="609.79" y2="227.67"/>
	<line class="st10" x1="58.43" y1="227.67" x2="609.79" y2="227.67"/>
	<line class="st10" x1="58.43" y1="227.67" x2="609.79" y2="227.67"/>
	<line class="st10" x1="58.43" y1="227.67" x2="609.79" y2="227.67"/>
	<line class="st10" x1="58.43" y1="227.67" x2="609.79" y2="227.67"/>
	<line class="st10" x1="58.43" y1="227.67" x2="609.79" y2="227.67"/>
	<line class="st10" x1="58.43" y1="227.67" x2="609.79" y2="227.67"/>
	<line class="st10" x1="58.43" y1="227.67" x2="609.79" y2="227.67"/>
	<line class="st10" x1="58.43" y1="227.67" x2="609.79" y2="227.67"/>
	<line class="st10" x1="58.43" y1="227.67" x2="609.79" y2="227.67"/>
	<line class="st10" x1="58.43" y1="227.67" x2="609.79" y2="227.67"/>
	<line class="st10" x1="58.43" y1="227.67" x2="609.79" y2="227.67"/>
	<line class="st10" x1="58.43" y1="227.67" x2="609.79" y2="227.67"/>
	<line class="st10" x1="58.43" y1="227.67" x2="609.79" y2="227.67"/>
	<line class="st10" x1="58.43" y1="227.67" x2="609.79" y2="227.67"/>
	<line class="st10" x1="58.43" y1="227.67" x2="609.79" y2="227.67"/>
	<line class="st10" x1="58.43" y1="227.67" x2="609.79" y2="227.67"/>
	<line class="st10" x1="58.43" y1="227.67" x2="609.79" y2="227.67"/>
	<line class="st10" x1="58.43" y1="227.67" x2="609.79" y2="227.67"/>
	<line class="st10" x1="58.43" y1="227.67" x2="609.79" y2="227.67"/>
	<line class="st10" x1="58.43" y1="227.67" x2="609.79" y2="227.67"/>
	<line class="st10" x1="58.43" y1="227.67" x2="609.79" y2="227.67"/>
	<line class="st10" x1="58.43" y1="227.67" x2="609.79" y2="227.67"/>
	<line class="st10" x1="58.43" y1="227.67" x2="609.79" y2="227.67"/>
	<line class="st10" x1="58.43" y1="227.67" x2="609.79" y2="227.67"/>
	<line class="st10" x1="58.43" y1="227.67" x2="609.79" y2="227.67"/>
	<line class="st10" x1="58.43" y1="227.67" x2="609.79" y2="227.67"/>
	<line class="st10" x1="58.43" y1="227.67" x2="609.79" y2="227.67"/>
	<line class="st10" x1="58.43" y1="227.67" x2="609.79" y2="227.67"/>
	<line class="st10" x1="58.43" y1="227.67" x2="609.79" y2="227.67"/>
	<line class="st10" x1="58.43" y1="227.67" x2="609.79" y2="227.67"/>
	<line class="st10" x1="58.43" y1="227.67" x2="609.79" y2="227.67"/>
	<line class="st10" x1="58.43" y1="227.67" x2="609.79" y2="227.67"/>
	<line class="st10" x1="58.43" y1="227.67" x2="609.79" y2="227.67"/>
	<line class="st10" x1="58.43" y1="227.67" x2="609.79" y2="227.67"/>
	<line class="st10" x1="58.43" y1="227.67" x2="609.79" y2="227.67"/>
	<line class="st10" x1="58.43" y1="227.67" x2="609.79" y2="227.67"/>
	<line class="st10" x1="58.43" y1="227.67" x2="609.79" y2="227.67"/>
	<line class="st10" x1="58.43" y1="227.67" x2="609.79" y2="227.67"/>
	<line class="st10" x1="58.43" y1="227.67" x2="609.79" y2="227.67"/>
	<line class="st10" x1="58.43" y1="227.67" x2="609.79" y2="227.67"/>
	<line class="st10" x1="58.43" y1="227.67" x2="609.79" y2="227.67"/>
	<line class="st10" x1="58.43" y1="227.67" x2="609.79" y2="227.67"/>
	<line class="st10" x1="58.43" y1="227.67" x2="609.79" y2="227.67"/>
	<line class="st10" x1="58.43" y1="227.67" x2="609.79" y2="227.67"/>
	<line class="st10" x1="58.43" y1="227.67" x2="609.79" y2="227.67"/>
	<line class="st10" x1="58.43" y1="227.67" x2="609.79" y2="227.67"/>
	<line class="st10" x1="58.43" y1="227.67" x2="609.79" y2="227.67"/>
	<line class="st10" x1="58.43" y1="227.67" x2="609.79" y2="227.67"/>
	<line class="st10" x1="58.43" y1="227.67" x2="609.79" y2="227.67"/>
	<line class="st10" x1="58.43" y1="227.67" x2="609.79" y2="227.67"/>
	<line class="st10" x1="58.43" y1="227.67" x2="609.79" y2="227.67"/>
	<line class="st10" x1="58.43" y1="227.67" x2="609.79" y2="227.67"/>
	<line class="st10" x1="58.43" y1="227.67" x2="609.79" y2="227.67"/>
	<line class="st10" x1="58.43" y1="227.67" x2="609.79" y2="227.67"/>
	<line class="st10" x1="58.43" y1="227.67" x2="609.79" y2="227.67"/>
	<line class="st10" x1="58.43" y1="227.67" x2="609.79" y2="227.67"/>
	<line class="st10" x1="58.43" y1="227.67" x2="609.79" y2="227.67"/>
	<line class="st10" x1="58.43" y1="227.67" x2="609.79" y2="227.67"/>
	<line class="st10" x1="58.43" y1="227.67" x2="609.79" y2="227.67"/>
	<line class="st10" x1="58.43" y1="227.67" x2="609.79" y2="227.67"/>
	<line class="st10" x1="58.43" y1="227.67" x2="609.79" y2="227.67"/>
	<line class="st10" x1="58.43" y1="227.67" x2="609.79" y2="227.67"/>
	<text transform="matrix(1 0 0 1 149.1208 259.9805)" class="st2 st3 st11">2017</text>
	<text transform="matrix(1 0 0 1 341.9071 259.9805)" class="st2 st3 st11">2018</text>
	<text transform="matrix(1 0 0 1 522.2472 259.9805)" class="st2 st3 st11">2019</text>
	<path class="st10" d="M609.79,228.1"/>
	<line class="st10" x1="609.79" y1="228.1" x2="609.79" y2="235.4"/>
	<text transform="matrix(1 0 0 1 9.5959 9.7301)" class="st2 st3 st12">Education-</text>
	<text transform="matrix(1 0 0 1 23.5559 21.7401)" class="st2 st3 st12">related </text>
	<text transform="matrix(1 0 0 1 17.4658 33.74)" class="st2 st3 st12">protests </text>
	<text transform="matrix(1 0 0 1 16.8358 45.75)" class="st2 st3 st12">per week</text>
	<text transform="matrix(1 0 0 1 193.9161 10.7301)" class="st2 st3 st12">Translucent bars </text>
	<text transform="matrix(1 0 0 1 189.6361 22.74)" class="st2 st3 st12">indicate a teacher </text>
	<text transform="matrix(1 0 0 1 189.5561 34.74)" class="st2 st3 st12">strike is occurring</text>
	<path class="st13" d="M68.46,227.22h3.36H68.46z"/>
	<path class="st13" d="M72.2,227.22h3.36H72.2z"/>
	<path class="st13" d="M75.93,227.22h3.36H75.93z"/>
	<path class="st13" d="M79.66,227.22h3.36H79.66z"/>
	<path class="st13" d="M83.4,227.22h3.36H83.4z"/>
	<path class="st13" d="M87.14,227.22h3.36H87.14z"/>
	<path class="st13" d="M90.87,227.22h3.36H90.87z"/>
	<path class="st13" d="M94.61,227.22h3.36H94.61z"/>
	<path class="st13" d="M98.35,227.22h3.36H98.35z"/>
	<path class="st13" d="M102.08,227.22h3.36H102.08z"/>
	<path class="st13" d="M105.81,227.22h3.36H105.81z"/>
	<path class="st13" d="M109.55,227.22h3.36H109.55z"/>
	<path class="st13" d="M113.29,227.22h3.36H113.29z"/>
	<path class="st13" d="M117.03,227.22h3.36H117.03z"/>
	<path class="st13" d="M120.77,227.22h3.36H120.77z"/>
	<path class="st13" d="M124.5,227.22h3.36H124.5z"/>
	<path class="st13" d="M128.23,227.22h3.36H128.23z"/>
	<path class="st13" d="M131.97,227.22h3.36H131.97z"/>
	<path class="st13" d="M135.71,227.22h3.36H135.71z"/>
	<path class="st13" d="M139.45,227.22h3.36H139.45z"/>
	<path class="st13" d="M143.18,227.22h3.36H143.18z"/>
	<path class="st13" d="M146.92,227.22h3.36H146.92z"/>
	<path class="st13" d="M150.65,227.22h3.36H150.65z"/>
	<path class="st13" d="M158.12,227.22h3.36H158.12z"/>
	<path class="st13" d="M161.86,227.22h3.36H161.86z"/>
	<path class="st13" d="M165.6,227.22h3.36H165.6z"/>
	<path class="st13" d="M169.34,227.22h3.36H169.34z"/>
	<path class="st13" d="M173.06,227.22h3.36H173.06z"/>
	<path class="st13" d="M176.8,227.22h3.36H176.8z"/>
	<path class="st13" d="M180.54,227.22h3.36H180.54z"/>
	<path class="st13" d="M184.28,227.22h3.36H184.28z"/>
	<path class="st13" d="M191.75,227.22h3.36H191.75z"/>
	<path class="st13" d="M195.48,227.22h3.36H195.48z"/>
	<path class="st13" d="M199.22,227.22h3.36H199.22z"/>
	<path class="st13" d="M202.96,227.22h3.36H202.96z"/>
	<path class="st13" d="M206.69,227.22h3.36H206.69z"/>
	<path class="st13" d="M210.43,227.22h3.36H210.43z"/>
	<path class="st13" d="M214.17,227.22h3.36H214.17z"/>
	<path class="st13" d="M217.91,227.22h3.36H217.91z"/>
	<path class="st13" d="M221.64,227.22H225H221.64z"/>
	<path class="st13" d="M225.37,227.22h3.36H225.37z"/>
	<path class="st13" d="M232.85,227.22h3.36H232.85z"/>
	<path class="st13" d="M236.59,227.22h3.36H236.59z"/>
	<path class="st13" d="M240.33,227.22h3.36H240.33z"/>
	<path class="st13" d="M244.05,227.22h3.36H244.05z"/>
	<path class="st13" d="M251.53,227.22h3.36H251.53z"/>
	<path class="st13" d="M255.27,227.22h3.36H255.27z"/>
	<path class="st13" d="M259,227.22h3.36H259z"/>
	<path class="st13" d="M288.89,227.22h3.36H288.89z"/>
	<path class="st13" d="M292.62,227.22h3.36H292.62z"/>
	<path class="st13" d="M296.36,227.22h3.36H296.36z"/>
	<path class="st13" d="M300.1,227.22h3.36H300.1z"/>
	<path class="st13" d="M303.84,227.22h3.36H303.84z"/>
	<path class="st13" d="M307.58,227.22h3.36H307.58z"/>
	<path class="st13" d="M311.31,227.22h3.36H311.31z"/>
	<path class="st13" d="M315.04,227.22h3.36H315.04z"/>
	<path class="st13" d="M318.78,227.22h3.36H318.78z"/>
	<path class="st13" d="M322.52,227.22h3.36H322.52z"/>
	<path class="st13" d="M326.25,227.22h3.36H326.25z"/>
	<path class="st13" d="M329.99,227.22h3.36H329.99z"/>
	<path class="st13" d="M333.73,227.22h3.36H333.73z"/>
	<path class="st13" d="M337.46,227.22h3.36H337.46z"/>
	<path class="st13" d="M341.19,227.22h3.36H341.19z"/>
	<path class="st13" d="M344.93,227.22h3.36H344.93z"/>
	<path class="st13" d="M356.15,227.22h3.36H356.15z"/>
	<path class="st13" d="M359.87,227.22h3.36H359.87z"/>
	<path class="st13" d="M363.61,227.22h3.36H363.61z"/>
	<path class="st13" d="M367.35,227.22h3.36H367.35z"/>
	<path class="st13" d="M371.09,227.22h3.36H371.09z"/>
	<path class="st13" d="M374.82,227.22h3.36H374.82z"/>
	<path class="st13" d="M378.56,227.22h3.36H378.56z"/>
	<path class="st13" d="M382.29,227.22h3.36H382.29z"/>
	<path class="st13" d="M389.77,227.22h3.36H389.77z"/>
	<path class="st13" d="M393.5,227.22h3.36H393.5z"/>
	<path class="st13" d="M397.24,227.22h3.36H397.24z"/>
	<path class="st13" d="M400.98,227.22h3.36H400.98z"/>
	<path class="st13" d="M404.72,227.22h3.36H404.72z"/>
	<path class="st13" d="M412.18,227.22h3.36H412.18z"/>
	<path class="st13" d="M415.92,227.22h3.36H415.92z"/>
	<path class="st13" d="M419.66,227.22h3.36H419.66z"/>
	<path class="st13" d="M423.4,227.22h3.36H423.4z"/>
	<path class="st13" d="M427.13,227.22h3.36H427.13z"/>
	<path class="st13" d="M430.86,227.22h3.36H430.86z"/>
	<path class="st13" d="M434.6,227.22h3.36H434.6z"/>
	<path class="st13" d="M438.34,227.22h3.36H438.34z"/>
	<path class="st13" d="M442.07,227.22h3.36H442.07z"/>
	<path class="st13" d="M445.81,227.22h3.36H445.81z"/>
	<path class="st13" d="M449.55,227.22h3.36H449.55z"/>
	<path class="st13" d="M453.28,227.22h3.36H453.28z"/>
	<path class="st13" d="M468.23,227.22h3.36H468.23z"/>
	<g>
		<rect x="68.82" y="222.01" width="2.69" height="5.66"/>
		<rect x="72.56" y="216.35" width="2.69" height="11.31"/>
		<rect x="76.29" y="216.35" width="2.69" height="11.31"/>
		<rect x="80.03" y="199.39" width="2.69" height="28.28"/>
		<rect x="83.77" y="205.04" width="2.69" height="22.62"/>
		<rect x="87.5" y="193.74" width="2.69" height="33.93"/>
		<rect x="91.24" y="193.74" width="2.69" height="33.93"/>
		<rect x="94.97" y="142.83" width="2.69" height="84.83"/>
		<rect x="98.71" y="154.14" width="2.69" height="73.52"/>
		<rect x="102.45" y="210.71" width="2.69" height="16.97"/>
		<rect x="106.18" y="165.46" width="2.69" height="62.21"/>
		<rect x="109.92" y="193.74" width="2.69" height="33.93"/>
		<rect x="113.66" y="188.08" width="2.69" height="39.59"/>
		<rect x="117.39" y="210.71" width="2.69" height="16.97"/>
		<rect x="121.13" y="182.42" width="2.69" height="45.24"/>
		<rect x="124.86" y="137.18" width="2.69" height="90.48"/>
		<rect x="128.6" y="171.11" width="2.69" height="56.55"/>
		<rect x="132.34" y="205.04" width="2.69" height="22.62"/>
		<rect x="136.07" y="222.01" width="2.69" height="5.66"/>
		<rect x="139.81" y="188.08" width="2.69" height="39.59"/>
		<rect x="143.55" y="199.39" width="2.69" height="28.28"/>
		<rect x="147.28" y="216.35" width="2.69" height="11.31"/>
		<rect x="151.02" y="210.71" width="2.69" height="16.97"/>
		<rect x="158.49" y="222.01" width="2.69" height="5.66"/>
		<rect x="162.23" y="165.46" width="2.69" height="62.21"/>
		<rect x="165.96" y="210.71" width="2.69" height="16.97"/>
		<rect x="169.7" y="222.01" width="2.69" height="5.66"/>
		<rect x="173.44" y="216.35" width="2.69" height="11.31"/>
		<rect x="177.17" y="216.35" width="2.69" height="11.31"/>
		<rect x="180.91" y="216.35" width="2.69" height="11.31"/>
		<rect x="184.64" y="210.71" width="2.69" height="16.97"/>
		<rect x="192.12" y="182.42" width="2.69" height="45.24"/>
		<rect x="195.85" y="210.71" width="2.69" height="16.97"/>
		<rect x="199.59" y="159.8" width="2.69" height="67.86"/>
		<rect x="203.32" y="205.04" width="2.69" height="22.62"/>
		<rect x="207.06" y="171.11" width="2.69" height="56.55"/>
		<rect x="210.8" y="193.74" width="2.69" height="33.93"/>
		<rect x="214.53" y="193.74" width="2.69" height="33.93"/>
		<rect x="218.27" y="222.01" width="2.69" height="5.66"/>
		<rect x="222.01" y="216.35" width="2.69" height="11.31"/>
		<rect x="225.74" y="188.08" width="2.69" height="39.59"/>
		<rect x="233.21" y="205.04" width="2.69" height="22.62"/>
		<rect x="236.95" y="199.39" width="2.69" height="28.28"/>
		<rect x="240.69" y="205.04" width="2.69" height="22.62"/>
		<rect x="244.42" y="216.35" width="2.69" height="11.31"/>
		<rect x="251.9" y="216.35" width="2.69" height="11.31"/>
		<rect x="255.63" y="210.71" width="2.69" height="16.97"/>
		<rect x="259.37" y="216.35" width="2.69" height="11.31"/>
		<rect x="263.1" y="154.14" width="2.69" height="73.52"/>
		<rect x="266.84" y="142.83" width="2.69" height="84.83"/>
		<rect x="270.58" y="137.18" width="2.69" height="90.48"/>
		<rect x="274.31" y="108.9" width="2.69" height="118.76"/>
		<rect x="278.05" y="91.94" width="2.69" height="135.72"/>
		<rect x="281.79" y="142.83" width="2.69" height="84.83"/>
		<rect x="285.52" y="165.46" width="2.69" height="62.21"/>
		<rect x="289.26" y="142.83" width="2.69" height="84.83"/>
		<rect x="292.99" y="125.88" width="2.69" height="101.79"/>
		<rect x="296.73" y="103.26" width="2.69" height="124.41"/>
		<rect x="300.47" y="52.36" width="2.69" height="175.31"/>
		<rect x="304.2" y="24.09" width="2.69" height="203.58"/>
		<rect x="307.94" y="125.88" width="2.69" height="101.79"/>
		<rect x="311.68" y="58.01" width="2.69" height="169.65"/>
		<rect x="315.41" y="188.08" width="2.69" height="39.59"/>
		<rect x="319.15" y="131.52" width="2.69" height="96.14"/>
		<rect x="322.88" y="165.46" width="2.69" height="62.21"/>
		<rect x="326.62" y="193.74" width="2.69" height="33.93"/>
		<rect x="330.36" y="193.74" width="2.69" height="33.93"/>
		<rect x="334.09" y="216.35" width="2.69" height="11.31"/>
		<rect x="337.83" y="210.71" width="2.69" height="16.97"/>
		<rect x="341.56" y="193.74" width="2.69" height="33.93"/>
		<rect x="345.3" y="222.01" width="2.69" height="5.66"/>
		<rect x="356.51" y="216.35" width="2.69" height="11.31"/>
		<rect x="360.25" y="222.01" width="2.69" height="5.66"/>
		<rect x="363.98" y="216.35" width="2.69" height="11.31"/>
		<rect x="367.72" y="210.71" width="2.69" height="16.97"/>
		<rect x="371.45" y="216.35" width="2.69" height="11.31"/>
		<rect x="375.19" y="171.11" width="2.69" height="56.55"/>
		<rect x="378.93" y="193.74" width="2.69" height="33.93"/>
		<rect x="382.66" y="216.35" width="2.69" height="11.31"/>
		<rect x="386.4" y="165.46" width="2.69" height="62.21"/>
		<rect x="390.14" y="199.39" width="2.69" height="28.28"/>
		<rect x="393.87" y="182.42" width="2.69" height="45.24"/>
		<rect x="397.61" y="171.11" width="2.69" height="56.55"/>
		<rect x="401.34" y="199.39" width="2.69" height="28.28"/>
		<rect x="405.08" y="188.08" width="2.69" height="39.59"/>
		<rect x="408.82" y="176.77" width="2.69" height="50.9"/>
		<rect x="412.55" y="210.71" width="2.69" height="16.97"/>
		<rect x="416.29" y="210.71" width="2.69" height="16.97"/>
		<rect x="420.03" y="188.08" width="2.69" height="39.59"/>
		<rect x="423.76" y="216.35" width="2.69" height="11.31"/>
		<rect x="427.5" y="199.39" width="2.69" height="28.28"/>
		<rect x="431.23" y="188.08" width="2.69" height="39.59"/>
		<rect x="434.97" y="199.39" width="2.69" height="28.28"/>
		<rect x="438.71" y="205.04" width="2.69" height="22.62"/>
		<rect x="442.44" y="222.01" width="2.69" height="5.66"/>
		<rect x="446.18" y="222.01" width="2.69" height="5.66"/>
		<rect x="449.92" y="216.35" width="2.69" height="11.31"/>
		<rect x="453.65" y="193.74" width="2.69" height="33.93"/>
		<rect x="457.39" y="165.46" width="2.69" height="62.21"/>
		<rect x="461.12" y="193.74" width="2.69" height="33.93"/>
		<rect x="464.86" y="205.04" width="2.69" height="22.62"/>
		<rect x="468.6" y="199.39" width="2.69" height="28.28"/>
		<rect x="472.33" y="165.46" width="2.69" height="62.21"/>
		<rect x="476.07" y="176.77" width="2.69" height="50.9"/>
		<rect x="479.8" y="114.57" width="2.69" height="113.1"/>
		<rect x="483.54" y="176.77" width="2.69" height="50.9"/>
		<rect x="487.28" y="171.11" width="2.69" height="56.55"/>
		<rect x="491.01" y="182.42" width="2.69" height="45.24"/>
		<rect x="494.75" y="148.49" width="2.69" height="79.17"/>
		<rect x="498.49" y="131.52" width="2.69" height="96.14"/>
		<rect x="502.22" y="114.57" width="2.69" height="113.1"/>
		<rect x="505.96" y="137.18" width="2.69" height="90.48"/>
		<rect x="509.69" y="131.52" width="2.69" height="96.14"/>
		<rect x="513.43" y="97.6" width="2.69" height="130.07"/>
		<rect x="517.17" y="103.26" width="2.69" height="124.41"/>
		<rect x="520.9" y="131.52" width="2.69" height="96.14"/>
		<rect x="524.64" y="193.74" width="2.69" height="33.93"/>
		<rect x="528.38" y="205.04" width="2.69" height="22.62"/>
		<rect x="532.11" y="176.77" width="2.69" height="50.9"/>
		<rect x="535.85" y="165.46" width="2.69" height="62.21"/>
		<rect x="539.58" y="182.42" width="2.69" height="45.24"/>
		<rect x="543.32" y="222.01" width="2.69" height="5.66"/>
		<rect x="547.06" y="222.01" width="2.69" height="5.66"/>
		<rect x="550.79" y="205.04" width="2.69" height="22.62"/>
		<rect x="554.53" y="216.35" width="2.69" height="11.31"/>
		<rect x="558.27" y="216.35" width="2.69" height="11.31"/>
		<rect x="562" y="222.01" width="2.69" height="5.66"/>
		<rect x="565.74" y="222.01" width="2.69" height="5.66"/>
		<rect x="569.47" y="210.71" width="2.69" height="16.97"/>
		<rect x="573.21" y="205.04" width="2.69" height="22.62"/>
		<rect x="576.95" y="199.39" width="2.69" height="28.28"/>
		<rect x="580.68" y="159.8" width="2.69" height="67.86"/>
		<rect x="584.42" y="182.42" width="2.69" height="45.24"/>
		<rect x="588.15" y="193.74" width="2.69" height="33.93"/>
		<rect x="591.89" y="210.71" width="2.69" height="16.97"/>
		<rect x="595.63" y="222.01" width="2.69" height="5.66"/>
		<rect x="599.36" y="199.39" width="2.69" height="28.28"/>
		<rect x="603.1" y="159.8" width="2.69" height="67.86"/>
		<rect x="606.84" y="216.35" width="2.69" height="11.31"/>
		<text transform="matrix(1 0 0 1 40.6168 230.4656)" class="st2 st3 st14">0</text>
		<text transform="matrix(1 0 0 1 35.6168 173.9148)" class="st2 st3 st14">10</text>
		<text transform="matrix(1 0 0 1 35.6168 117.364)" class="st2 st3 st14">20</text>
		<text transform="matrix(1 0 0 1 35.6168 60.8133)" class="st2 st3 st14">30</text>
		<line class="st15" x1="50.82" y1="227.67" x2="55.8" y2="227.67"/>
		<line class="st15" x1="50.82" y1="171.11" x2="55.8" y2="171.11"/>
		<line class="st15" x1="50.82" y1="114.57" x2="55.8" y2="114.57"/>
		<line class="st15" x1="50.82" y1="58.01" x2="55.8" y2="58.01"/>
		<rect x="263.08" y="221.66" class="st9" width="2.69" height="5.62"/>
		<rect x="266.8" y="159.83" class="st9" width="2.69" height="67.45"/>
		<rect x="270.54" y="165.46" class="st9" width="2.69" height="61.83"/>
		<rect x="274.28" y="193.55" class="st9" width="2.69" height="33.72"/>
		<rect x="278.02" y="142.97" class="st9" width="2.69" height="84.31"/>
		<rect x="281.76" y="204.79" class="st9" width="2.69" height="22.48"/>
		<rect x="285.49" y="221.66" class="st9" width="2.69" height="5.62"/>
		<rect x="386.36" y="221.66" class="st9" width="2.69" height="5.62"/>
		<rect x="408.78" y="221.66" class="st9" width="2.69" height="5.62"/>
		<rect x="457.35" y="221.66" class="st9" width="2.69" height="5.62"/>
		<rect x="461.09" y="221.66" class="st9" width="2.69" height="5.62"/>
		<rect x="464.83" y="221.66" class="st9" width="2.69" height="5.62"/>
		<rect x="472.3" y="216.03" class="st9" width="2.69" height="11.24"/>
	</g>
	<path class="st13" d="M475.69,227.22h3.36H475.69z"/>
	<path class="st13" d="M479.43,227.22h3.36H479.43z"/>
	<path class="st13" d="M483.17,227.22h3.36H483.17z"/>
	<path class="st13" d="M486.91,227.22h3.36H486.91z"/>
	<path class="st13" d="M490.65,227.22h3.36H490.65z"/>
	<path class="st13" d="M494.38,227.22h3.36H494.38z"/>
	<path class="st13" d="M498.12,227.22h3.36H498.12z"/>
	<path class="st13" d="M501.85,227.22h3.36H501.85z"/>
	<path class="st13" d="M505.59,227.22h3.36H505.59z"/>
	<path class="st13" d="M509.32,227.22h3.36H509.32z"/>
	<path class="st13" d="M513.06,227.22h3.36H513.06z"/>
	<path class="st13" d="M516.8,227.22h3.36H516.8z"/>
	<path class="st13" d="M520.54,227.22h3.36H520.54z"/>
	<path class="st13" d="M524.26,227.22h3.36H524.26z"/>
	<path class="st13" d="M528,227.22h3.36H528z"/>
	<path class="st13" d="M531.74,227.22h3.36H531.74z"/>
	<path class="st13" d="M535.48,227.22h3.36H535.48z"/>
	<path class="st13" d="M539.22,227.22h3.36H539.22z"/>
	<path class="st13" d="M542.95,227.22h3.36H542.95z"/>
	<path class="st13" d="M546.68,227.22h3.36H546.68z"/>
	<path class="st13" d="M550.42,227.22h3.36H550.42z"/>
	<path class="st13" d="M554.16,227.22h3.36H554.16z"/>
	<path class="st13" d="M557.9,227.22h3.36H557.9z"/>
	<path class="st13" d="M561.63,227.22h3.36H561.63z"/>
	<path class="st13" d="M565.37,227.22h3.36H565.37z"/>
	<path class="st13" d="M569.1,227.22h3.36H569.1z"/>
	<path class="st13" d="M572.84,227.22h3.36H572.84z"/>
	<rect x="180.75" y="113.33" class="st16" width="75.06" height="32.93"/>
	<text transform="matrix(1 0 0 1 174.8097 119.3293)" class="st3 st14">Education protests </text>
	<text transform="matrix(1 0 0 1 186.7999 131.3293)" class="st3 st14">in </text>
	<text transform="matrix(1 0 0 1 197.1399 131.3293)" class="st9 st3 st14">West Virginia</text>
	<rect x="162.24" y="321.57" class="st16" width="69.84" height="32.93"/>
	<text transform="matrix(1 0 0 1 174.0035 321.5572)" class="st3 st14">West Virginia’s </text>
	<text transform="matrix(1 0 0 1 152.0361 332.1572)" class="st3 st14">initial teacher strike </text>
	<text transform="matrix(1 0 0 1 175.9812 343.7572)" class="st3 st14">(Feb 22-Mar 7)</text>
	<g>
		<g>
			<path class="st17" d="M231.6,134.35c0.52,3.23,19.67,39.7,30.27,43.93"/>
			<g>
				<path class="st13" d="M261.63,178.15c-0.51-0.78-0.56-2.12-0.4-3.01c0.64,1.37,1.58,2.64,2.85,3.51c-1.5,0.27-2.83,1.14-4,2.1
					C260.35,179.82,260.82,178.72,261.63,178.15z"/>
			</g>
		</g>
	</g>
	<rect x="350.05" y="478.58" class="st16" width="259.5" height="36.3"/>
	<text transform="matrix(1 0 0 1 360.546 439.5658)" class="st2 st3 st4">Includes multi-district teacher strikes or teacher strikes in major cities.</text>
	<g>
		<rect x="63.17" y="277.92" class="st16" width="125.07" height="44.72"/>
		<text transform="matrix(1 0 0 1 63.1731 290.6585)" class="st2 st3 st18">Teacher Strikes </text>
		<text transform="matrix(1 0 0 1 63.1731 311.0585)" class="st2 st3 st18">by State</text>
	</g>
	<g>
		<g>
			<path class="st19" d="M247.21,324.54c3.23-0.52,29.7-15.67,33.93-26.27"/>
			<g>
				<path d="M281.02,298.51c-0.78,0.51-2.12,0.56-3.01,0.4c1.37-0.64,2.64-1.58,3.51-2.85c0.27,1.5,1.14,2.83,2.1,4
					C282.69,299.79,281.59,299.33,281.02,298.51z"/>
			</g>
		</g>
	</g>
	<rect x="200.94" y="381.32" class="st16" width="114.77" height="39.38"/>
	<text transform="matrix(1 0 0 1 208.9806 387.3136)" class="st3 st14">Washington state schools </text>
	<text transform="matrix(1 0 0 1 186.8815 396.9136)" class="st3 st14">missed their first day of school </text>
	<text transform="matrix(1 0 0 1 214.8944 406.5136)" class="st3 st14">due to a teacher strike in </text>
	<text transform="matrix(1 0 0 1 255.216 416.1136)" class="st3 st14">July and August</text>
	<g>
		<g>
			<path class="st19" d="M330.52,392.08c3.21-0.52,29.95-11.59,34.22-21.06"/>
			<g>
				<path d="M364.6,371.26c-0.79,0.5-2.13,0.52-3.01,0.35c1.38-0.62,2.67-1.53,3.56-2.78c0.24,1.51,1.09,2.85,2.03,4.04
					C366.25,372.57,365.16,372.08,364.6,371.26z"/>
			</g>
		</g>
	</g>
</g>
</svg>
