<?xml version="1.0" encoding="utf-8"?>
<!-- Generator: Adobe Illustrator 23.1.1, SVG Export Plug-In . SVG Version: 6.00 Build 0)  -->
<svg version="1.1" id="Layer_1" xmlns="http://www.w3.org/2000/svg" xmlns:xlink="http://www.w3.org/1999/xlink" x="0px" y="0px"
	 viewBox="0 0 648 330" style="enable-background:new 0 0 648 330;" xml:space="preserve">
<style type="text/css">
	.st0{fill:none;stroke:#FFFFFF;stroke-width:0.3926;stroke-linejoin:round;stroke-miterlimit:10;}
	.st1{fill:none;stroke:#FFFFFF;stroke-width:0.5;stroke-linejoin:round;stroke-miterlimit:10;}
	.st2{fill:#FFFFFF;}
	.st3{font-family:'Roboto';}
	.st4{font-size:8px;}
	.st5{fill:none;stroke:#FFFFFF;stroke-width:0.977;stroke-linejoin:round;stroke-miterlimit:10;}
	.st6{font-size:10px;}
	.st7{fill:none;}
	.st8{font-size:10.0046px;}
</style>
<rect x="101.67" y="290.32" width="2.65" height="0.4"/>
<line class="st0" x1="73.06" y1="290.72" x2="615.4" y2="290.72"/>
<rect x="105.34" y="290.52" width="2.65" height="0.2"/>
<rect x="112.69" y="290.52" width="2.65" height="0.2"/>
<rect x="116.37" y="290.12" width="2.65" height="0.6"/>
<rect x="120.04" y="290.52" width="2.65" height="0.2"/>
<rect x="123.72" y="290.32" width="2.65" height="0.4"/>
<rect x="127.39" y="290.52" width="2.65" height="0.2"/>
<rect x="131.07" y="290.12" width="2.65" height="0.6"/>
<rect x="134.74" y="290.32" width="2.65" height="0.4"/>
<rect x="138.42" y="290.52" width="2.65" height="0.2"/>
<rect x="142.09" y="290.32" width="2.65" height="0.4"/>
<rect x="145.77" y="290.52" width="2.65" height="0.2"/>
<rect x="149.44" y="288.71" width="2.65" height="2.01"/>
<rect x="156.79" y="290.32" width="2.65" height="0.4"/>
<rect x="160.47" y="290.52" width="2.65" height="0.2"/>
<rect x="167.82" y="290.12" width="2.65" height="0.6"/>
<rect x="171.49" y="290.12" width="2.65" height="0.6"/>
<rect x="182.52" y="290.52" width="2.65" height="0.2"/>
<rect x="186.19" y="290.52" width="2.65" height="0.2"/>
<rect x="193.54" y="290.32" width="2.65" height="0.4"/>
<rect x="204.57" y="290.52" width="2.65" height="0.2"/>
<rect x="208.24" y="290.32" width="2.65" height="0.4"/>
<rect x="211.92" y="290.52" width="2.65" height="0.2"/>
<rect x="215.59" y="288.1" width="2.65" height="2.62"/>
<rect x="219.27" y="289.71" width="2.65" height="1.01"/>
<rect x="230.29" y="290.52" width="2.65" height="0.2"/>
<rect x="233.97" y="290.52" width="2.65" height="0.2"/>
<rect x="237.64" y="290.52" width="2.65" height="0.2"/>
<rect x="248.67" y="290.52" width="2.65" height="0.2"/>
<rect x="252.34" y="290.12" width="2.65" height="0.6"/>
<rect x="256.02" y="290.52" width="2.65" height="0.2"/>
<rect x="263.37" y="290.52" width="2.65" height="0.2"/>
<rect x="267.04" y="290.32" width="2.65" height="0.4"/>
<rect x="270.72" y="290.32" width="2.65" height="0.4"/>
<rect x="278.07" y="290.32" width="2.65" height="0.4"/>
<rect x="281.75" y="290.52" width="2.65" height="0.2"/>
<rect x="285.42" y="284.88" width="2.65" height="5.84"/>
<rect x="289.1" y="250.46" width="2.65" height="40.26"/>
<rect x="292.77" y="280.86" width="2.65" height="9.86"/>
<rect x="296.45" y="284.07" width="2.65" height="6.64"/>
<rect x="300.12" y="14.95" width="2.65" height="275.77"/>
<rect x="303.8" y="172.76" width="2.65" height="117.95"/>
<rect x="307.47" y="287.7" width="2.65" height="3.02"/>
<rect x="311.15" y="287.9" width="2.65" height="2.82"/>
<rect x="314.82" y="281.86" width="2.65" height="8.85"/>
<rect x="318.5" y="202.55" width="2.65" height="88.17"/>
<rect x="322.17" y="288.91" width="2.65" height="1.81"/>
<rect x="325.85" y="287.09" width="2.65" height="3.63"/>
<rect x="329.52" y="290.32" width="2.65" height="0.4"/>
<rect x="333.2" y="288.91" width="2.65" height="1.81"/>
<rect x="336.87" y="288.91" width="2.65" height="1.81"/>
<rect x="340.55" y="283.07" width="2.65" height="7.65"/>
<rect x="344.22" y="289.91" width="2.65" height="0.81"/>
<rect x="347.9" y="287.9" width="2.65" height="2.82"/>
<rect x="351.57" y="289.51" width="2.65" height="1.21"/>
<rect x="355.25" y="290.12" width="2.65" height="0.6"/>
<rect x="358.92" y="288.1" width="2.65" height="2.62"/>
<rect x="362.6" y="289.91" width="2.65" height="0.81"/>
<rect x="366.27" y="289.71" width="2.65" height="1.01"/>
<rect x="369.95" y="289.31" width="2.65" height="1.41"/>
<rect x="373.62" y="287.3" width="2.65" height="3.42"/>
<rect x="377.3" y="289.71" width="2.65" height="1.01"/>
<rect x="380.97" y="290.12" width="2.65" height="0.6"/>
<rect x="384.65" y="290.12" width="2.65" height="0.6"/>
<rect x="388.32" y="289.71" width="2.65" height="1.01"/>
<rect x="392" y="290.32" width="2.65" height="0.4"/>
<rect x="395.67" y="290.32" width="2.65" height="0.4"/>
<rect x="399.35" y="289.91" width="2.65" height="0.81"/>
<rect x="403.02" y="290.32" width="2.65" height="0.4"/>
<rect x="406.7" y="290.52" width="2.65" height="0.2"/>
<rect x="410.37" y="289.71" width="2.65" height="1.01"/>
<rect x="414.05" y="290.32" width="2.65" height="0.4"/>
<rect x="417.72" y="289.91" width="2.65" height="0.81"/>
<rect x="421.4" y="289.31" width="2.65" height="1.41"/>
<rect x="428.75" y="290.12" width="2.65" height="0.6"/>
<rect x="432.42" y="290.32" width="2.65" height="0.4"/>
<rect x="439.77" y="290.32" width="2.65" height="0.4"/>
<rect x="443.45" y="289.71" width="2.65" height="1.01"/>
<rect x="458.15" y="289.91" width="2.65" height="0.81"/>
<rect x="461.83" y="290.12" width="2.65" height="0.6"/>
<rect x="465.5" y="289.71" width="2.65" height="1.01"/>
<rect x="472.85" y="290.52" width="2.65" height="0.2"/>
<rect x="476.53" y="289.91" width="2.65" height="0.81"/>
<rect x="480.2" y="290.12" width="2.65" height="0.6"/>
<rect x="483.88" y="289.71" width="2.65" height="1.01"/>
<rect x="487.55" y="289.71" width="2.65" height="1.01"/>
<rect x="491.23" y="289.71" width="2.65" height="1.01"/>
<rect x="494.9" y="289.31" width="2.65" height="1.41"/>
<rect x="498.58" y="290.12" width="2.65" height="0.6"/>
<rect x="502.25" y="289.51" width="2.65" height="1.21"/>
<rect x="505.93" y="290.12" width="2.65" height="0.6"/>
<rect x="509.6" y="290.12" width="2.65" height="0.6"/>
<rect x="513.28" y="289.31" width="2.65" height="1.41"/>
<rect x="516.95" y="290.32" width="2.65" height="0.4"/>
<rect x="520.63" y="289.91" width="2.65" height="0.81"/>
<rect x="524.3" y="290.12" width="2.65" height="0.6"/>
<rect x="527.98" y="290.52" width="2.65" height="0.2"/>
<rect x="531.65" y="289.91" width="2.65" height="0.81"/>
<rect x="535.33" y="284.48" width="2.65" height="6.24"/>
<rect x="539" y="289.91" width="2.65" height="0.81"/>
<rect x="550.03" y="290.52" width="2.65" height="0.2"/>
<rect x="553.7" y="290.32" width="2.65" height="0.4"/>
<rect x="557.38" y="290.32" width="2.65" height="0.4"/>
<rect x="561.05" y="290.12" width="2.65" height="0.6"/>
<rect x="564.73" y="288.1" width="2.65" height="2.62"/>
<rect x="568.4" y="281.86" width="2.65" height="8.85"/>
<rect x="572.08" y="279.25" width="2.65" height="11.47"/>
<rect x="575.75" y="289.51" width="2.65" height="1.21"/>
<rect x="583.1" y="290.52" width="2.65" height="0.2"/>
<rect x="586.78" y="289.51" width="2.65" height="1.21"/>
<rect x="590.45" y="289.11" width="2.65" height="1.61"/>
<rect x="594.13" y="289.51" width="2.65" height="1.21"/>
<rect x="597.8" y="290.32" width="2.65" height="0.4"/>
<rect x="605.15" y="290.12" width="2.65" height="0.6"/>
<rect x="608.83" y="290.52" width="2.65" height="0.2"/>
<line class="st0" x1="89.34" y1="290.72" x2="89.34" y2="298.45"/>
<line class="st0" x1="104.04" y1="290.72" x2="104.04" y2="298.45"/>
<line class="st0" x1="120.31" y1="290.72" x2="120.31" y2="298.45"/>
<line class="st0" x1="136.07" y1="290.72" x2="136.07" y2="298.45"/>
<line class="st0" x1="152.34" y1="290.72" x2="152.34" y2="298.45"/>
<line class="st0" x1="168.09" y1="290.72" x2="168.09" y2="298.45"/>
<line class="st0" x1="184.37" y1="290.72" x2="184.37" y2="298.45"/>
<line class="st0" x1="200.64" y1="290.72" x2="200.64" y2="298.45"/>
<line class="st0" x1="216.39" y1="290.72" x2="216.39" y2="298.45"/>
<line class="st0" x1="232.67" y1="290.72" x2="232.67" y2="298.45"/>
<line class="st0" x1="248.42" y1="290.72" x2="248.42" y2="298.45"/>
<line class="st0" x1="264.69" y1="290.72" x2="264.69" y2="298.45"/>
<line class="st0" x1="280.97" y1="290.72" x2="280.97" y2="298.45"/>
<line class="st0" x1="295.67" y1="290.72" x2="295.67" y2="298.45"/>
<line class="st0" x1="311.95" y1="290.72" x2="311.95" y2="298.45"/>
<line class="st0" x1="327.7" y1="290.72" x2="327.7" y2="298.45"/>
<line class="st0" x1="343.97" y1="290.72" x2="343.97" y2="298.45"/>
<line class="st0" x1="359.72" y1="290.72" x2="359.72" y2="298.45"/>
<line class="st0" x1="376" y1="290.72" x2="376" y2="298.45"/>
<line class="st0" x1="392.27" y1="290.72" x2="392.27" y2="298.45"/>
<line class="st0" x1="408.02" y1="290.72" x2="408.02" y2="298.45"/>
<line class="st0" x1="424.3" y1="290.72" x2="424.3" y2="298.45"/>
<line class="st0" x1="440.05" y1="290.72" x2="440.05" y2="298.45"/>
<line class="st0" x1="456.32" y1="290.72" x2="456.32" y2="298.45"/>
<line class="st0" x1="472.6" y1="290.72" x2="472.6" y2="298.45"/>
<line class="st0" x1="487.3" y1="290.72" x2="487.3" y2="298.45"/>
<line class="st0" x1="503.58" y1="290.72" x2="503.58" y2="298.45"/>
<line class="st0" x1="519.33" y1="290.72" x2="519.33" y2="298.45"/>
<line class="st0" x1="535.6" y1="290.72" x2="535.6" y2="298.45"/>
<line class="st0" x1="551.35" y1="290.72" x2="551.35" y2="298.45"/>
<line class="st0" x1="567.63" y1="290.72" x2="567.63" y2="298.45"/>
<line class="st0" x1="583.9" y1="290.72" x2="583.9" y2="298.45"/>
<line class="st0" x1="599.65" y1="290.72" x2="599.65" y2="298.45"/>
<line class="st1" x1="427.45" y1="290.72" x2="427.45" y2="107.68"/>
<line class="st1" x1="421.67" y1="290.72" x2="421.67" y2="51.87"/>
<line class="st1" x1="336.62" y1="290.72" x2="336.62" y2="231.74"/>
<line class="st1" x1="287.79" y1="290.72" x2="287.79" y2="14.95"/>
<line class="st1" x1="239.49" y1="290.72" x2="239.49" y2="77.42"/>
<line class="st1" x1="216.39" y1="290.72" x2="216.39" y2="156.7"/>
<line class="st1" x1="234.77" y1="290.72" x2="234.77" y2="112.63"/>
<line class="st1" x1="565.53" y1="290.72" x2="565.53" y2="237.08"/>
<line class="st1" x1="569.2" y1="290.72" x2="569.2" y2="125.83"/>
<line class="st1" x1="568.68" y1="290.72" x2="568.68" y2="181.12"/>
<line class="st1" x1="583.38" y1="290.72" x2="583.38" y2="14.95"/>
<text transform="matrix(1 0 0 1 33.77 293.4196)" class="st2 st3 st4">0</text>
<text transform="matrix(1 0 0 1 23.7598 253.1598)" class="st2 st3 st4">200</text>
<text transform="matrix(1 0 0 1 23.7598 212.9001)" class="st2 st3 st4">400</text>
<text transform="matrix(1 0 0 1 23.7598 172.6393)" class="st2 st3 st4">600</text>
<text transform="matrix(1 0 0 1 23.7598 132.3874)" class="st2 st3 st4">800</text>
<text transform="matrix(1 0 0 1 18.7598 92.1266)" class="st2 st3 st4">1000</text>
<text transform="matrix(1 0 0 1 18.7598 51.8664)" class="st2 st3 st4">1200</text>
<line class="st0" x1="40.96" y1="290.72" x2="45.95" y2="290.72"/>
<line class="st0" x1="40.96" y1="250.47" x2="45.95" y2="250.47"/>
<line class="st0" x1="40.96" y1="210.21" x2="45.95" y2="210.21"/>
<line class="st0" x1="40.96" y1="169.95" x2="45.95" y2="169.95"/>
<line class="st0" x1="40.96" y1="129.69" x2="45.95" y2="129.69"/>
<line class="st0" x1="40.96" y1="89.43" x2="45.95" y2="89.43"/>
<line class="st0" x1="40.96" y1="49.17" x2="45.95" y2="49.17"/>
<line class="st5" x1="73.06" y1="311.77" x2="73.06" y2="290.72"/>
<line class="st5" x1="264.69" y1="311.77" x2="264.69" y2="290.72"/>
<line class="st5" x1="456.32" y1="311.77" x2="456.32" y2="290.72"/>
<text transform="matrix(1 0 0 1 63.0601 324.9841)" class="st2 st3 st6">2017</text>
<text transform="matrix(1 0 0 1 254.6899 324.9841)" class="st2 st3 st6">2018</text>
<text transform="matrix(1 0 0 1 446.3203 324.9841)" class="st2 st3 st6">2019</text>
<rect x="-2.63" y="11.45" class="st7" width="52.79" height="39.97"/>
<text transform="matrix(1 0 0 1 12.5961 20.9563)" class="st2 st3 st8">protests </text>
<text transform="matrix(1 0 0 1 -9.155273e-05 8.9565)" class="st2 st3 st8">Gun-related</text>
<text transform="matrix(1 0 0 1 10.1861 33.9663)" class="st2 st3 st8">per week</text>
<rect x="13.06" y="-48.53" class="st7" width="602.5" height="39.97"/>
<g>
	<text transform="matrix(1 0 0 1 79.6733 303.7457)" class="st2 st3 st4">J</text>
	<text transform="matrix(1 0 0 1 94.483 303.7457)" class="st2 st3 st4">F</text>
	<text transform="matrix(1 0 0 1 108.7386 303.7457)" class="st2 st3 st4">M</text>
	<text transform="matrix(1 0 0 1 125.3217 303.7457)" class="st2 st3 st4">A</text>
	<text transform="matrix(1 0 0 1 140.3741 303.7457)" class="st2 st3 st4">M</text>
	<text transform="matrix(1 0 0 1 157.762 303.7457)" class="st2 st3 st4">J</text>
	<text transform="matrix(1 0 0 1 173.5798 303.7457)" class="st2 st3 st4">J</text>
	<text transform="matrix(1 0 0 1 189.5928 303.7457)" class="st2 st3 st4">A</text>
	<text transform="matrix(1 0 0 1 205.8833 303.7457)" class="st2 st3 st4">S</text>
	<text transform="matrix(1 0 0 1 221.9469 303.7457)" class="st2 st3 st4">O</text>
	<text transform="matrix(1 0 0 1 237.5618 303.7457)" class="st2 st3 st4">N</text>
	<text transform="matrix(1 0 0 1 253.8363 303.7457)" class="st2 st3 st4">D</text>
	<text transform="matrix(1 0 0 1 270.7825 303.7457)" class="st2 st3 st4">J</text>
	<text transform="matrix(1 0 0 1 285.5922 303.7457)" class="st2 st3 st4">F</text>
	<text transform="matrix(1 0 0 1 299.8478 303.7457)" class="st2 st3 st4">M</text>
	<text transform="matrix(1 0 0 1 316.4309 303.7457)" class="st2 st3 st4">A</text>
	<text transform="matrix(1 0 0 1 331.4833 303.7457)" class="st2 st3 st4">M</text>
	<text transform="matrix(1 0 0 1 348.8712 303.7457)" class="st2 st3 st4">J</text>
	<text transform="matrix(1 0 0 1 364.689 303.7457)" class="st2 st3 st4">J</text>
	<text transform="matrix(1 0 0 1 380.702 303.7457)" class="st2 st3 st4">A</text>
	<text transform="matrix(1 0 0 1 396.9925 303.7457)" class="st2 st3 st4">S</text>
	<text transform="matrix(1 0 0 1 413.056 303.7457)" class="st2 st3 st4">O</text>
	<text transform="matrix(1 0 0 1 428.671 303.7457)" class="st2 st3 st4">N</text>
	<text transform="matrix(1 0 0 1 444.9455 303.7457)" class="st2 st3 st4">D</text>
	<text transform="matrix(1 0 0 1 463.1111 303.7457)" class="st2 st3 st4">J</text>
	<text transform="matrix(1 0 0 1 477.9208 303.7457)" class="st2 st3 st4">F</text>
	<text transform="matrix(1 0 0 1 492.1764 303.7457)" class="st2 st3 st4">M</text>
	<text transform="matrix(1 0 0 1 508.7595 303.7457)" class="st2 st3 st4">A</text>
	<text transform="matrix(1 0 0 1 523.8119 303.7457)" class="st2 st3 st4">M</text>
	<text transform="matrix(1 0 0 1 541.1998 303.7457)" class="st2 st3 st4">J</text>
	<text transform="matrix(1 0 0 1 557.0176 303.7457)" class="st2 st3 st4">J</text>
	<text transform="matrix(1 0 0 1 573.0306 303.7457)" class="st2 st3 st4">A</text>
	<text transform="matrix(1 0 0 1 589.3211 303.7457)" class="st2 st3 st4">S</text>
	<text transform="matrix(1 0 0 1 605.3846 303.7457)" class="st2 st3 st4">O</text>
</g>
<rect x="141" y="161.74" class="st7" width="67" height="25.14"/>
<text transform="matrix(1 0 0 1 161.6758 169.2426)" class="st2 st3 st6">Las Vegas </text>
<text transform="matrix(1 0 0 1 142.1058 181.2426)" class="st2 st3 st6">mass shooting</text>
<rect x="162.32" y="112.17" class="st7" width="67" height="36.3"/>
<text transform="matrix(1 0 0 1 180.2657 119.6737)" class="st2 st3 st6">Texas First </text>
<text transform="matrix(1 0 0 1 163.7957 131.6737)" class="st2 st3 st6">Baptist Church </text>
<text transform="matrix(1 0 0 1 190.4257 143.6737)" class="st2 st3 st6">shooting</text>
<rect x="156.79" y="59.27" class="st7" width="77.35" height="36.3"/>
<text transform="matrix(1 0 0 1 161.687 66.7721)" class="st2 st3 st6">Rancho Tehama </text>
<text transform="matrix(1 0 0 1 168.257 78.7721)" class="st2 st3 st6">mass shooting</text>
<rect x="204.59" y="11.97" class="st7" width="77.35" height="36.3"/>
<text transform="matrix(1 0 0 1 210.5079 19.4651)" class="st2 st3 st6">Parkland school </text>
<text transform="matrix(1 0 0 1 243.0479 31.4651)" class="st2 st3 st6">shooting</text>
<rect x="306.87" y="14.95" class="st7" width="77.35" height="36.3"/>
<text transform="matrix(1 0 0 1 306.8715 22.4497)" class="st3 st6">#Enough! School </text>
<text transform="matrix(1 0 0 1 306.8715 34.4497)" class="st3 st6">Walkout (1,370 </text>
<text transform="matrix(1 0 0 1 306.8715 46.4497)" class="st3 st6">protests)</text>
<rect x="310.49" y="174.29" class="st7" width="94.83" height="36.3"/>
<text transform="matrix(1 0 0 1 310.4862 181.7928)" class="st3 st6">March For Our Lives</text>
<rect x="326.21" y="201.67" class="st7" width="94.83" height="22.49"/>
<text transform="matrix(1 0 0 1 326.2082 209.1731)" class="st3 st6">National School </text>
<text transform="matrix(1 0 0 1 326.2082 221.1731)" class="st3 st6">Walkout</text>
<rect x="425.81" y="51.87" class="st7" width="77.35" height="36.3"/>
<text transform="matrix(1 0 0 1 425.8055 59.3665)" class="st2 st3 st6">Tree of Life </text>
<text transform="matrix(1 0 0 1 425.8055 71.3665)" class="st2 st3 st6">synagogue </text>
<text transform="matrix(1 0 0 1 425.8055 83.3665)" class="st2 st3 st6">shooting</text>
<rect x="433.93" y="107.68" class="st7" width="77.35" height="36.3"/>
<text transform="matrix(1 0 0 1 433.9265 115.1752)" class="st2 st3 st6">Borderline Bar &amp; </text>
<text transform="matrix(1 0 0 1 433.9265 127.1752)" class="st2 st3 st6">Grill mass </text>
<text transform="matrix(1 0 0 1 433.9265 139.1752)" class="st2 st3 st6">shooting</text>
<rect x="484.61" y="237.08" class="st7" width="77.35" height="36.3"/>
<text transform="matrix(1 0 0 1 508.271 244.5794)" class="st2 st3 st6">Gilroy Garlic </text>
<text transform="matrix(1 0 0 1 500.571 256.5794)" class="st2 st3 st6">Festival mass </text>
<text transform="matrix(1 0 0 1 523.061 268.5794)" class="st2 st3 st6">shooting</text>
<rect x="487.28" y="183.52" class="st7" width="77.35" height="36.3"/>
<text transform="matrix(1 0 0 1 491.3608 191.0232)" class="st2 st3 st6">El Paso Walmart </text>
<text transform="matrix(1 0 0 1 498.7408 203.0232)" class="st2 st3 st6">mass shooting</text>
<rect x="488.31" y="125.83" class="st7" width="77.35" height="36.3"/>
<text transform="matrix(1 0 0 1 534.4388 133.326)" class="st2 st3 st6">Dayton </text>
<text transform="matrix(1 0 0 1 499.7688 145.326)" class="st2 st3 st6">mass shooting</text>
<rect x="503.65" y="14.57" class="st7" width="77.35" height="36.3"/>
<text transform="matrix(1 0 0 1 508.8551 22.0725)" class="st2 st3 st6">Odessa-Midland </text>
<text transform="matrix(1 0 0 1 515.1151 34.0725)" class="st2 st3 st6">mass shooting</text>
<rect x="487.2" y="335.6" class="st7" width="133.2" height="36.3"/>
</svg>
