<?xml version="1.0" encoding="utf-8"?>
<!-- Generator: Adobe Illustrator 23.1.1, SVG Export Plug-In . SVG Version: 6.00 Build 0)  -->
<svg version="1.1" id="Layer_1" xmlns="http://www.w3.org/2000/svg" xmlns:xlink="http://www.w3.org/1999/xlink" x="0px" y="0px"
	 viewBox="0 0 648 288.01" style="enable-background:new 0 0 648 288.01;" xml:space="preserve">
<style type="text/css">
	.st0{fill:#FFFFFF;}
	.st1{font-family:'Roboto';}
	.st2{font-size:10px;}
	.st3{font-size:8px;}
	.st4{fill:none;stroke:#FFFFFF;stroke-width:0.3926;stroke-linejoin:round;stroke-miterlimit:10;}
	.st5{fill:none;stroke:#FFFFFF;stroke-width:0.977;stroke-linejoin:round;stroke-miterlimit:10;}
	.st6{fill:#104181;}
	.st7{fill:none;stroke:#000000;stroke-width:0.5;stroke-linejoin:round;stroke-miterlimit:10;}
	.st8{fill:none;stroke:#FFFFFF;stroke-width:0.5;stroke-miterlimit:10;}
</style>
<g id="Layer_6">
</g>
<g>
	<g>
		<text transform="matrix(1 0 0 1 26.0577 28.8749)" class="st0 st1 st2">protests </text>
	</g>
	<g>
		<text transform="matrix(1 0 0 1 13.4615 16.8751)" class="st0 st1 st2">Gun-related</text>
	</g>
	<g>
		<text transform="matrix(1 0 0 1 23.6477 41.8849)" class="st0 st1 st2">per week</text>
	</g>
	<g id="x-axis">
		<g id="x-axis-labels">
			<text transform="matrix(1 0 0 1 63.0601 282.9976)" class="st0 st1 st2">2017</text>
			<text transform="matrix(1 0 0 1 254.6899 282.9976)" class="st0 st1 st2">2018</text>
			<text transform="matrix(1 0 0 1 446.3203 282.9976)" class="st0 st1 st2">2019</text>
			<g>
				<text transform="matrix(1 0 0 1 79.6733 261.7592)" class="st0 st1 st3">J</text>
				<text transform="matrix(1 0 0 1 94.483 261.7592)" class="st0 st1 st3">F</text>
				<text transform="matrix(1 0 0 1 108.7386 261.7592)" class="st0 st1 st3">M</text>
				<text transform="matrix(1 0 0 1 125.3217 261.7592)" class="st0 st1 st3">A</text>
				<text transform="matrix(1 0 0 1 140.3741 261.7592)" class="st0 st1 st3">M</text>
				<text transform="matrix(1 0 0 1 157.762 261.7592)" class="st0 st1 st3">J</text>
				<text transform="matrix(1 0 0 1 173.5798 261.7592)" class="st0 st1 st3">J</text>
				<text transform="matrix(1 0 0 1 189.5928 261.7592)" class="st0 st1 st3">A</text>
				<text transform="matrix(1 0 0 1 205.8833 261.7592)" class="st0 st1 st3">S</text>
				<text transform="matrix(1 0 0 1 221.9469 261.7592)" class="st0 st1 st3">O</text>
				<text transform="matrix(1 0 0 1 237.5618 261.7592)" class="st0 st1 st3">N</text>
				<text transform="matrix(1 0 0 1 253.8363 261.7592)" class="st0 st1 st3">D</text>
				<text transform="matrix(1 0 0 1 270.7825 261.7592)" class="st0 st1 st3">J</text>
				<text transform="matrix(1 0 0 1 285.5922 261.7592)" class="st0 st1 st3">F</text>
				<text transform="matrix(1 0 0 1 299.8478 261.7592)" class="st0 st1 st3">M</text>
				<text transform="matrix(1 0 0 1 316.4309 261.7592)" class="st0 st1 st3">A</text>
				<text transform="matrix(1 0 0 1 331.4833 261.7592)" class="st0 st1 st3">M</text>
				<text transform="matrix(1 0 0 1 348.8712 261.7592)" class="st0 st1 st3">J</text>
				<text transform="matrix(1 0 0 1 364.689 261.7592)" class="st0 st1 st3">J</text>
				<text transform="matrix(1 0 0 1 380.702 261.7592)" class="st0 st1 st3">A</text>
				<text transform="matrix(1 0 0 1 396.9925 261.7592)" class="st0 st1 st3">S</text>
				<text transform="matrix(1 0 0 1 413.056 261.7592)" class="st0 st1 st3">O</text>
				<text transform="matrix(1 0 0 1 428.671 261.7592)" class="st0 st1 st3">N</text>
				<text transform="matrix(1 0 0 1 444.9455 261.7592)" class="st0 st1 st3">D</text>
				<text transform="matrix(1 0 0 1 463.1111 261.7592)" class="st0 st1 st3">J</text>
				<text transform="matrix(1 0 0 1 477.9208 261.7592)" class="st0 st1 st3">F</text>
				<text transform="matrix(1 0 0 1 492.1764 261.7592)" class="st0 st1 st3">M</text>
				<text transform="matrix(1 0 0 1 508.7595 261.7592)" class="st0 st1 st3">A</text>
				<text transform="matrix(1 0 0 1 523.8119 261.7592)" class="st0 st1 st3">M</text>
				<text transform="matrix(1 0 0 1 541.1998 261.7592)" class="st0 st1 st3">J</text>
				<text transform="matrix(1 0 0 1 557.0176 261.7592)" class="st0 st1 st3">J</text>
				<text transform="matrix(1 0 0 1 573.0306 261.7592)" class="st0 st1 st3">A</text>
				<text transform="matrix(1 0 0 1 589.3211 261.7592)" class="st0 st1 st3">S</text>
				<text transform="matrix(1 0 0 1 605.3846 261.7592)" class="st0 st1 st3">O</text>
			</g>
		</g>
		<g id="x-axis-grid">
			<line class="st4" x1="73.06" y1="248.73" x2="615.4" y2="248.73"/>
			<line class="st4" x1="89.34" y1="248.73" x2="89.34" y2="256.46"/>
			<line class="st4" x1="104.04" y1="248.73" x2="104.04" y2="256.46"/>
			<line class="st4" x1="120.31" y1="248.73" x2="120.31" y2="256.46"/>
			<line class="st4" x1="136.07" y1="248.73" x2="136.07" y2="256.46"/>
			<line class="st4" x1="152.34" y1="248.73" x2="152.34" y2="256.46"/>
			<line class="st4" x1="168.09" y1="248.73" x2="168.09" y2="256.46"/>
			<line class="st4" x1="184.37" y1="248.73" x2="184.37" y2="256.46"/>
			<line class="st4" x1="200.64" y1="248.73" x2="200.64" y2="256.46"/>
			<line class="st4" x1="216.39" y1="248.73" x2="216.39" y2="256.46"/>
			<line class="st4" x1="232.67" y1="248.73" x2="232.67" y2="256.46"/>
			<line class="st4" x1="248.42" y1="248.73" x2="248.42" y2="256.46"/>
			<line class="st4" x1="280.97" y1="248.73" x2="280.97" y2="256.46"/>
			<line class="st4" x1="295.67" y1="248.73" x2="295.67" y2="256.46"/>
			<line class="st4" x1="311.95" y1="248.73" x2="311.95" y2="256.46"/>
			<line class="st4" x1="327.7" y1="248.73" x2="327.7" y2="256.46"/>
			<line class="st4" x1="343.97" y1="248.73" x2="343.97" y2="256.46"/>
			<line class="st4" x1="359.72" y1="248.73" x2="359.72" y2="256.46"/>
			<line class="st4" x1="376" y1="248.73" x2="376" y2="256.46"/>
			<line class="st4" x1="392.27" y1="248.73" x2="392.27" y2="256.46"/>
			<line class="st4" x1="408.02" y1="248.73" x2="408.02" y2="256.46"/>
			<line class="st4" x1="424.3" y1="248.73" x2="424.3" y2="256.46"/>
			<line class="st4" x1="440.05" y1="248.73" x2="440.05" y2="256.46"/>
			<line class="st4" x1="472.6" y1="248.73" x2="472.6" y2="256.46"/>
			<line class="st4" x1="487.3" y1="248.73" x2="487.3" y2="256.46"/>
			<line class="st4" x1="503.58" y1="248.73" x2="503.58" y2="256.46"/>
			<line class="st4" x1="519.33" y1="248.73" x2="519.33" y2="256.46"/>
			<line class="st4" x1="535.6" y1="248.73" x2="535.6" y2="256.46"/>
			<line class="st4" x1="551.35" y1="248.73" x2="551.35" y2="256.46"/>
			<line class="st4" x1="567.63" y1="248.73" x2="567.63" y2="256.46"/>
			<line class="st4" x1="583.9" y1="248.73" x2="583.9" y2="256.46"/>
			<line class="st4" x1="599.65" y1="248.73" x2="599.65" y2="256.46"/>
			<line class="st5" x1="73.06" y1="269.78" x2="73.06" y2="248.73"/>
			<line class="st5" x1="264.69" y1="269.78" x2="264.69" y2="248.73"/>
			<line class="st5" x1="456.32" y1="269.78" x2="456.32" y2="248.73"/>
		</g>
	</g>
	<g id="bars">
		<g>
			<rect x="101.67" y="249.03" class="st6" width="2.65" height="0.32"/>
			<rect x="105.34" y="249.19" class="st6" width="2.65" height="0.16"/>
			<rect x="112.69" y="249.19" class="st6" width="2.65" height="0.16"/>
			<rect x="116.37" y="248.87" class="st6" width="2.65" height="0.47"/>
			<rect x="120.04" y="249.19" class="st6" width="2.65" height="0.16"/>
			<rect x="123.72" y="249.03" class="st6" width="2.65" height="0.32"/>
			<rect x="127.39" y="249.19" class="st6" width="2.65" height="0.16"/>
			<rect x="131.07" y="248.87" class="st6" width="2.65" height="0.47"/>
			<rect x="134.74" y="249.03" class="st6" width="2.65" height="0.32"/>
			<rect x="138.42" y="249.19" class="st6" width="2.65" height="0.16"/>
			<rect x="142.09" y="249.03" class="st6" width="2.65" height="0.32"/>
			<rect x="145.77" y="249.19" class="st6" width="2.65" height="0.16"/>
			<rect x="149.44" y="247.76" class="st6" width="2.65" height="1.59"/>
			<rect x="156.79" y="249.03" class="st6" width="2.65" height="0.32"/>
			<rect x="160.47" y="249.19" class="st6" width="2.65" height="0.16"/>
			<rect x="167.82" y="248.87" class="st6" width="2.65" height="0.47"/>
			<rect x="171.49" y="248.87" class="st6" width="2.65" height="0.47"/>
			<rect x="182.52" y="249.19" class="st6" width="2.65" height="0.16"/>
			<rect x="186.19" y="249.19" class="st6" width="2.65" height="0.16"/>
			<rect x="193.54" y="249.03" class="st6" width="2.65" height="0.32"/>
			<rect x="204.57" y="249.19" class="st6" width="2.65" height="0.16"/>
			<rect x="208.24" y="249.03" class="st6" width="2.65" height="0.32"/>
			<rect x="211.92" y="249.19" class="st6" width="2.65" height="0.16"/>
			<rect x="215.59" y="247.28" class="st6" width="2.65" height="2.07"/>
			<rect x="219.27" y="248.55" class="st6" width="2.65" height="0.8"/>
			<rect x="230.29" y="249.19" class="st6" width="2.65" height="0.16"/>
			<rect x="233.97" y="249.19" class="st6" width="2.65" height="0.16"/>
			<rect x="237.64" y="249.19" class="st6" width="2.65" height="0.16"/>
			<rect x="248.67" y="249.19" class="st6" width="2.65" height="0.16"/>
			<rect x="252.34" y="248.87" class="st6" width="2.65" height="0.47"/>
			<rect x="256.02" y="249.19" class="st6" width="2.65" height="0.16"/>
			<rect x="263.37" y="249.19" class="st6" width="2.65" height="0.16"/>
			<rect x="267.04" y="249.03" class="st6" width="2.65" height="0.32"/>
			<rect x="270.72" y="249.03" class="st6" width="2.65" height="0.32"/>
			<rect x="278.07" y="249.03" class="st6" width="2.65" height="0.32"/>
			<rect x="281.75" y="249.19" class="st6" width="2.65" height="0.16"/>
			<rect x="285.42" y="244.73" class="st6" width="2.65" height="4.61"/>
			<rect x="289.1" y="217.57" class="st6" width="2.65" height="31.78"/>
			<rect x="292.77" y="241.56" class="st6" width="2.65" height="7.78"/>
			<rect x="296.45" y="244.09" class="st6" width="2.65" height="5.24"/>
			<rect x="300.12" y="31.68" class="st6" width="2.65" height="217.67"/>
			<rect x="303.8" y="156.24" class="st6" width="2.65" height="93.1"/>
			<rect x="307.47" y="246.96" class="st6" width="2.65" height="2.38"/>
			<rect x="311.15" y="247.12" class="st6" width="2.65" height="2.23"/>
			<rect x="314.82" y="242.35" class="st6" width="2.65" height="6.99"/>
			<rect x="318.5" y="179.75" class="st6" width="2.65" height="69.59"/>
			<rect x="322.17" y="247.92" class="st6" width="2.65" height="1.43"/>
			<rect x="325.85" y="246.48" class="st6" width="2.65" height="2.87"/>
			<rect x="329.52" y="249.03" class="st6" width="2.65" height="0.32"/>
			<rect x="333.2" y="247.92" class="st6" width="2.65" height="1.43"/>
			<rect x="336.87" y="247.92" class="st6" width="2.65" height="1.43"/>
			<rect x="340.55" y="243.31" class="st6" width="2.65" height="6.04"/>
			<rect x="344.22" y="248.7" class="st6" width="2.65" height="0.64"/>
			<rect x="347.9" y="247.12" class="st6" width="2.65" height="2.23"/>
			<rect x="351.57" y="248.39" class="st6" width="2.65" height="0.96"/>
			<rect x="355.25" y="248.87" class="st6" width="2.65" height="0.47"/>
			<rect x="358.92" y="247.28" class="st6" width="2.65" height="2.07"/>
			<rect x="362.6" y="248.7" class="st6" width="2.65" height="0.64"/>
			<rect x="366.27" y="248.55" class="st6" width="2.65" height="0.8"/>
			<rect x="369.95" y="248.23" class="st6" width="2.65" height="1.11"/>
			<rect x="373.62" y="246.64" class="st6" width="2.65" height="2.7"/>
			<rect x="377.3" y="248.55" class="st6" width="2.65" height="0.8"/>
			<rect x="380.97" y="248.87" class="st6" width="2.65" height="0.47"/>
			<rect x="384.65" y="248.87" class="st6" width="2.65" height="0.47"/>
			<rect x="388.32" y="248.55" class="st6" width="2.65" height="0.8"/>
			<rect x="392" y="249.03" class="st6" width="2.65" height="0.32"/>
			<rect x="395.67" y="249.03" class="st6" width="2.65" height="0.32"/>
			<rect x="399.35" y="248.7" class="st6" width="2.65" height="0.64"/>
			<rect x="403.02" y="249.03" class="st6" width="2.65" height="0.32"/>
			<rect x="406.7" y="249.19" class="st6" width="2.65" height="0.16"/>
			<rect x="410.37" y="248.55" class="st6" width="2.65" height="0.8"/>
			<rect x="414.05" y="249.03" class="st6" width="2.65" height="0.32"/>
			<rect x="417.72" y="248.7" class="st6" width="2.65" height="0.64"/>
			<rect x="421.4" y="248.23" class="st6" width="2.65" height="1.11"/>
			<rect x="428.75" y="248.87" class="st6" width="2.65" height="0.47"/>
			<rect x="432.42" y="249.03" class="st6" width="2.65" height="0.32"/>
			<rect x="439.77" y="249.03" class="st6" width="2.65" height="0.32"/>
			<rect x="443.45" y="248.55" class="st6" width="2.65" height="0.8"/>
			<rect x="458.15" y="248.7" class="st6" width="2.65" height="0.64"/>
			<rect x="461.83" y="248.87" class="st6" width="2.65" height="0.47"/>
			<rect x="465.5" y="248.55" class="st6" width="2.65" height="0.8"/>
			<rect x="472.85" y="249.19" class="st6" width="2.65" height="0.16"/>
			<rect x="476.53" y="248.7" class="st6" width="2.65" height="0.64"/>
			<rect x="480.2" y="248.87" class="st6" width="2.65" height="0.47"/>
			<rect x="483.88" y="248.55" class="st6" width="2.65" height="0.8"/>
			<rect x="487.55" y="248.55" class="st6" width="2.65" height="0.8"/>
			<rect x="491.23" y="248.55" class="st6" width="2.65" height="0.8"/>
			<rect x="494.9" y="248.23" class="st6" width="2.65" height="1.11"/>
			<rect x="498.58" y="248.87" class="st6" width="2.65" height="0.47"/>
			<rect x="502.25" y="248.39" class="st6" width="2.65" height="0.96"/>
			<rect x="505.93" y="248.87" class="st6" width="2.65" height="0.47"/>
			<rect x="509.6" y="248.87" class="st6" width="2.65" height="0.47"/>
			<rect x="513.28" y="248.23" class="st6" width="2.65" height="1.11"/>
			<rect x="516.95" y="249.03" class="st6" width="2.65" height="0.32"/>
			<rect x="520.63" y="248.7" class="st6" width="2.65" height="0.64"/>
			<rect x="524.3" y="248.87" class="st6" width="2.65" height="0.47"/>
			<rect x="527.98" y="249.19" class="st6" width="2.65" height="0.16"/>
			<rect x="531.65" y="248.7" class="st6" width="2.65" height="0.64"/>
			<rect x="535.33" y="244.42" class="st6" width="2.65" height="4.93"/>
			<rect x="539" y="248.7" class="st6" width="2.65" height="0.64"/>
			<rect x="550.03" y="249.19" class="st6" width="2.65" height="0.16"/>
			<rect x="553.7" y="249.03" class="st6" width="2.65" height="0.32"/>
			<rect x="557.38" y="249.03" class="st6" width="2.65" height="0.32"/>
			<rect x="561.05" y="248.87" class="st6" width="2.65" height="0.47"/>
			<rect x="564.73" y="247.28" class="st6" width="2.65" height="2.07"/>
			<rect x="568.4" y="242.35" class="st6" width="2.65" height="6.99"/>
			<rect x="572.08" y="240.29" class="st6" width="2.65" height="9.05"/>
			<rect x="575.75" y="248.39" class="st6" width="2.65" height="0.96"/>
			<rect x="583.1" y="249.19" class="st6" width="2.65" height="0.16"/>
			<rect x="586.78" y="248.39" class="st6" width="2.65" height="0.96"/>
			<rect x="590.45" y="248.07" class="st6" width="2.65" height="1.27"/>
			<rect x="594.13" y="248.39" class="st6" width="2.65" height="0.96"/>
			<rect x="597.8" y="249.03" class="st6" width="2.65" height="0.32"/>
			<rect x="605.15" y="248.87" class="st6" width="2.65" height="0.47"/>
			<rect x="608.83" y="249.19" class="st6" width="2.65" height="0.16"/>
		</g>
	</g>
	<g id="annotations">
		<text transform="matrix(1 0 0 1 165.6759 164.2822)" class="st1 st2">Las Vegas </text>
		<text transform="matrix(1 0 0 1 146.1058 176.2822)" class="st1 st2">mass shooting</text>
		<text transform="matrix(1 0 0 1 180.2657 115.7133)" class="st1 st2">Texas First </text>
		<text transform="matrix(1 0 0 1 163.7957 127.7133)" class="st1 st2">Baptist Church </text>
		<text transform="matrix(1 0 0 1 190.4257 139.7133)" class="st1 st2">shooting</text>
		<text transform="matrix(1 0 0 1 161.687 78.8117)" class="st1 st2">Rancho Tehama </text>
		<text transform="matrix(1 0 0 1 168.257 90.8117)" class="st1 st2">mass shooting</text>
		<text transform="matrix(1 0 0 1 210.5079 42.1927)" class="st1 st2">Parkland school </text>
		<text transform="matrix(1 0 0 1 243.0479 54.1927)" class="st1 st2">shooting</text>
		<text transform="matrix(1 0 0 1 306.8715 39.4334)" class="st0 st1 st2">#Enough! School </text>
		<text transform="matrix(1 0 0 1 306.8715 51.4334)" class="st0 st1 st2">Walkout (1,370 </text>
		<text transform="matrix(1 0 0 1 306.8715 63.4334)" class="st0 st1 st2">protests)</text>
		<text transform="matrix(1 0 0 1 310.7999 164.288)" class="st0 st1 st2">March For Our Lives</text>
		<text transform="matrix(1 0 0 1 324.8502 187.753)" class="st0 st1 st2">National School </text>
		<text transform="matrix(1 0 0 1 324.8502 199.753)" class="st0 st1 st2">Walkout</text>
		<text transform="matrix(1 0 0 1 423.4677 36.8765)" class="st1 st2">Tree of Life </text>
		<text transform="matrix(1 0 0 1 339.5198 218.5927)" class="st1 st2">Santa Fe</text>
		<text transform="matrix(1 0 0 1 339.5201 230.593)" class="st1 st2">school shooting</text>
		<text transform="matrix(1 0 0 1 423.4677 48.8765)" class="st1 st2">synagogue </text>
		<text transform="matrix(1 0 0 1 423.4677 60.8765)" class="st1 st2">shooting</text>
		<text transform="matrix(1 0 0 1 433.9265 83.087)" class="st1 st2">Borderline Bar &amp; </text>
		<text transform="matrix(1 0 0 1 433.9265 95.087)" class="st1 st2">Grill mass </text>
		<text transform="matrix(1 0 0 1 433.9265 107.087)" class="st1 st2">shooting</text>
		<text transform="matrix(1 0 0 1 508.271 194.5366)" class="st1 st2">Gilroy Garlic </text>
		<text transform="matrix(1 0 0 1 500.571 206.5366)" class="st1 st2">Festival mass </text>
		<text transform="matrix(1 0 0 1 523.061 218.5366)" class="st1 st2">shooting</text>
		<text transform="matrix(1 0 0 1 491.3608 159.9881)" class="st1 st2">El Paso Walmart </text>
		<text transform="matrix(1 0 0 1 498.7408 171.9881)" class="st1 st2">mass shooting</text>
		<text transform="matrix(1 0 0 1 534.4388 119.9902)" class="st1 st2">Dayton </text>
		<text transform="matrix(1 0 0 1 499.7688 131.9902)" class="st1 st2">mass shooting</text>
		<text transform="matrix(1 0 0 1 508.8551 34.4379)" class="st1 st2">Odessa-Midland </text>
		<text transform="matrix(1 0 0 1 515.1151 46.4379)" class="st1 st2">mass shooting</text>
		<line class="st7" x1="427.45" y1="248.73" x2="427.45" y2="75.59"/>
		<line class="st7" x1="421.67" y1="248.73" x2="419.33" y2="29.38"/>
		<line class="st7" x1="336.62" y1="248.73" x2="336.62" y2="209.67"/>
		<line class="st7" x1="287.79" y1="248.73" x2="287.79" y2="31.68"/>
		<line class="st7" x1="239.49" y1="248.73" x2="239.49" y2="72.46"/>
		<line class="st7" x1="216.39" y1="248.73" x2="216.39" y2="155.74"/>
		<line class="st7" x1="234.77" y1="248.73" x2="234.77" y2="107.67"/>
		<line class="st7" x1="565.53" y1="248.73" x2="565.53" y2="187.04"/>
		<line class="st7" x1="569.2" y1="248.73" x2="569.2" y2="112.49"/>
		<line class="st7" x1="568.68" y1="248.73" x2="568.68" y2="150.08"/>
		<line class="st7" x1="583.38" y1="248.73" x2="583.38" y2="27.32"/>
	</g>
	<g id="y-axis">
		<g>
			<text transform="matrix(1 0 0 1 44.2317 252.4744)" class="st0 st1 st2">0</text>
		</g>
		<g>
			<text transform="matrix(1 0 0 1 34.2214 220.6971)" class="st0 st1 st2">200</text>
		</g>
		<g>
			<text transform="matrix(1 0 0 1 34.2214 188.9197)" class="st0 st1 st2">400</text>
		</g>
		<g>
			<text transform="matrix(1 0 0 1 34.2214 157.1424)" class="st0 st1 st2">600</text>
		</g>
		<g>
			<text transform="matrix(1 0 0 1 34.2214 125.3709)" class="st0 st1 st2">800</text>
		</g>
		<g>
			<text transform="matrix(1 0 0 1 29.2214 93.593)" class="st0 st1 st2">1000</text>
		</g>
		<g>
			<text transform="matrix(1 0 0 1 29.2214 61.8157)" class="st0 st1 st2">1200</text>
		</g>
		<line class="st8" x1="56.42" y1="249.34" x2="61.41" y2="249.34"/>
		<line class="st8" x1="56.42" y1="217.57" x2="61.41" y2="217.57"/>
		<line class="st8" x1="56.42" y1="185.8" x2="61.41" y2="185.8"/>
		<line class="st8" x1="56.42" y1="154.02" x2="61.41" y2="154.02"/>
		<line class="st8" x1="56.42" y1="122.24" x2="61.41" y2="122.24"/>
		<line class="st8" x1="56.42" y1="90.46" x2="61.41" y2="90.46"/>
		<line class="st8" x1="56.42" y1="58.69" x2="61.41" y2="58.69"/>
	</g>
</g>
</svg>
