<?xml version="1.0" encoding="utf-8"?>
<!-- Generator: Adobe Illustrator 23.1.1, SVG Export Plug-In . SVG Version: 6.00 Build 0)  -->
<svg version="1.1" id="Layer_1" xmlns="http://www.w3.org/2000/svg" xmlns:xlink="http://www.w3.org/1999/xlink" x="0px" y="0px"
	 viewBox="0 0 648 288" style="enable-background:new 0 0 648 288;" xml:space="preserve">
<style type="text/css">
	.st0{fill:#FFFFFF;}
	.st1{font-family:'Roboto';}
	.st2{font-size:10px;}
	.st3{font-size:8px;}
	.st4{fill:none;stroke:#FFFFFF;stroke-width:0.3926;stroke-linejoin:round;stroke-miterlimit:10;}
	.st5{fill:none;stroke:#FFFFFF;stroke-width:0.977;stroke-linejoin:round;stroke-miterlimit:10;}
	.st6{fill:#104181;}
	.st7{fill:none;stroke:#000000;stroke-width:0.5;stroke-linejoin:round;stroke-miterlimit:10;}
	.st8{fill:none;stroke:#FFFFFF;stroke-width:0.5;stroke-miterlimit:10;}
</style>
<g id="Layer_6">
</g>
<g>
	<g>
		<text transform="matrix(1 0 0 1 26.0577 28.8749)" class="st0 st1 st2">protests </text>
	</g>
	<g>
		<text transform="matrix(1 0 0 1 13.4615 16.8751)" class="st0 st1 st2">Gun-related</text>
	</g>
	<g>
		<text transform="matrix(1 0 0 1 23.6477 41.8849)" class="st0 st1 st2">per week</text>
	</g>
	<g id="x-axis">
		<g id="x-axis-labels">
			<text transform="matrix(1 0 0 1 156.5896 282.9976)" class="st0 st1 st2">2017</text>
			<text transform="matrix(1 0 0 1 349.0145 282.9976)" class="st0 st1 st2">2018</text>
			<text transform="matrix(1 0 0 1 524.0696 282.9976)" class="st0 st1 st2">2019</text>
			<g>
				<text transform="matrix(1 0 0 1 79.6733 261.7592)" class="st0 st1 st3">J</text>
				<text transform="matrix(1 0 0 1 94.483 261.7592)" class="st0 st1 st3">F</text>
				<text transform="matrix(1 0 0 1 108.7386 261.7592)" class="st0 st1 st3">M</text>
				<text transform="matrix(1 0 0 1 125.3217 261.7592)" class="st0 st1 st3">A</text>
				<text transform="matrix(1 0 0 1 140.3741 261.7592)" class="st0 st1 st3">M</text>
				<text transform="matrix(1 0 0 1 157.762 261.7592)" class="st0 st1 st3">J</text>
				<text transform="matrix(1 0 0 1 173.5798 261.7592)" class="st0 st1 st3">J</text>
				<text transform="matrix(1 0 0 1 189.5928 261.7592)" class="st0 st1 st3">A</text>
				<text transform="matrix(1 0 0 1 205.8833 261.7592)" class="st0 st1 st3">S</text>
				<text transform="matrix(1 0 0 1 221.9469 261.7592)" class="st0 st1 st3">O</text>
				<text transform="matrix(1 0 0 1 237.5618 261.7592)" class="st0 st1 st3">N</text>
				<text transform="matrix(1 0 0 1 253.8363 261.7592)" class="st0 st1 st3">D</text>
				<text transform="matrix(1 0 0 1 270.7825 261.7592)" class="st0 st1 st3">J</text>
				<text transform="matrix(1 0 0 1 285.5922 261.7592)" class="st0 st1 st3">F</text>
				<text transform="matrix(1 0 0 1 299.8478 261.7592)" class="st0 st1 st3">M</text>
				<text transform="matrix(1 0 0 1 316.4309 261.7592)" class="st0 st1 st3">A</text>
				<text transform="matrix(1 0 0 1 331.4833 261.7592)" class="st0 st1 st3">M</text>
				<text transform="matrix(1 0 0 1 348.8712 261.7592)" class="st0 st1 st3">J</text>
				<text transform="matrix(1 0 0 1 364.689 261.7592)" class="st0 st1 st3">J</text>
				<text transform="matrix(1 0 0 1 380.702 261.7592)" class="st0 st1 st3">A</text>
				<text transform="matrix(1 0 0 1 396.9925 261.7592)" class="st0 st1 st3">S</text>
				<text transform="matrix(1 0 0 1 413.056 261.7592)" class="st0 st1 st3">O</text>
				<text transform="matrix(1 0 0 1 428.671 261.7592)" class="st0 st1 st3">N</text>
				<text transform="matrix(1 0 0 1 444.9455 261.7592)" class="st0 st1 st3">D</text>
				<text transform="matrix(1 0 0 1 463.1111 261.7592)" class="st0 st1 st3">J</text>
				<text transform="matrix(1 0 0 1 477.9208 261.7592)" class="st0 st1 st3">F</text>
				<text transform="matrix(1 0 0 1 492.1764 261.7592)" class="st0 st1 st3">M</text>
				<text transform="matrix(1 0 0 1 508.7595 261.7592)" class="st0 st1 st3">A</text>
				<text transform="matrix(1 0 0 1 523.8119 261.7592)" class="st0 st1 st3">M</text>
				<text transform="matrix(1 0 0 1 541.1998 261.7592)" class="st0 st1 st3">J</text>
				<text transform="matrix(1 0 0 1 557.0176 261.7592)" class="st0 st1 st3">J</text>
				<text transform="matrix(1 0 0 1 573.0306 261.7592)" class="st0 st1 st3">A</text>
				<text transform="matrix(1 0 0 1 589.3211 261.7592)" class="st0 st1 st3">S</text>
				<text transform="matrix(1 0 0 1 605.3846 261.7592)" class="st0 st1 st3">O</text>
			</g>
		</g>
		<g id="x-axis-grid">
			<line class="st4" x1="73.1" y1="248.7" x2="615.4" y2="248.7"/>
			<line class="st4" x1="89.3" y1="248.7" x2="89.3" y2="256.5"/>
			<line class="st4" x1="104" y1="248.7" x2="104" y2="256.5"/>
			<line class="st4" x1="120.3" y1="248.7" x2="120.3" y2="256.5"/>
			<line class="st4" x1="136.1" y1="248.7" x2="136.1" y2="256.5"/>
			<line class="st4" x1="152.3" y1="248.7" x2="152.3" y2="256.5"/>
			<line class="st4" x1="168.1" y1="248.7" x2="168.1" y2="256.5"/>
			<line class="st4" x1="184.4" y1="248.7" x2="184.4" y2="256.5"/>
			<line class="st4" x1="200.6" y1="248.7" x2="200.6" y2="256.5"/>
			<line class="st4" x1="216.4" y1="248.7" x2="216.4" y2="256.5"/>
			<line class="st4" x1="232.7" y1="248.7" x2="232.7" y2="256.5"/>
			<line class="st4" x1="248.4" y1="248.7" x2="248.4" y2="256.5"/>
			<line class="st4" x1="281" y1="248.7" x2="281" y2="256.5"/>
			<line class="st4" x1="295.7" y1="248.7" x2="295.7" y2="256.5"/>
			<line class="st4" x1="312" y1="248.7" x2="312" y2="256.5"/>
			<line class="st4" x1="327.7" y1="248.7" x2="327.7" y2="256.5"/>
			<line class="st4" x1="344" y1="248.7" x2="344" y2="256.5"/>
			<line class="st4" x1="359.7" y1="248.7" x2="359.7" y2="256.5"/>
			<line class="st4" x1="376" y1="248.7" x2="376" y2="256.5"/>
			<line class="st4" x1="392.3" y1="248.7" x2="392.3" y2="256.5"/>
			<line class="st4" x1="408" y1="248.7" x2="408" y2="256.5"/>
			<line class="st4" x1="424.3" y1="248.7" x2="424.3" y2="256.5"/>
			<line class="st4" x1="440" y1="248.7" x2="440" y2="256.5"/>
			<line class="st4" x1="472.6" y1="248.7" x2="472.6" y2="256.5"/>
			<line class="st4" x1="487.3" y1="248.7" x2="487.3" y2="256.5"/>
			<line class="st4" x1="503.6" y1="248.7" x2="503.6" y2="256.5"/>
			<line class="st4" x1="519.3" y1="248.7" x2="519.3" y2="256.5"/>
			<line class="st4" x1="535.6" y1="248.7" x2="535.6" y2="256.5"/>
			<line class="st4" x1="551.3" y1="248.7" x2="551.3" y2="256.5"/>
			<line class="st4" x1="567.6" y1="248.7" x2="567.6" y2="256.5"/>
			<line class="st4" x1="583.9" y1="248.7" x2="583.9" y2="256.5"/>
			<line class="st4" x1="599.7" y1="248.7" x2="599.7" y2="256.5"/>
			<line class="st5" x1="73.1" y1="269.8" x2="73.1" y2="248.7"/>
			<line class="st5" x1="264.7" y1="269.8" x2="264.7" y2="248.7"/>
			<line class="st5" x1="456.3" y1="269.8" x2="456.3" y2="248.7"/>
		</g>
	</g>
	<g id="bars">
		<g>
			<rect x="101.7" y="249" class="st6" width="2.7" height="0.3"/>
			<rect x="105.3" y="249.2" class="st6" width="2.7" height="0.2"/>
			<rect x="112.7" y="249.2" class="st6" width="2.7" height="0.2"/>
			<rect x="116.4" y="248.9" class="st6" width="2.7" height="0.5"/>
			<rect x="120" y="249.2" class="st6" width="2.7" height="0.2"/>
			<rect x="123.7" y="249" class="st6" width="2.7" height="0.3"/>
			<rect x="127.4" y="249.2" class="st6" width="2.6" height="0.2"/>
			<rect x="131.1" y="248.9" class="st6" width="2.6" height="0.5"/>
			<rect x="134.7" y="249" class="st6" width="2.6" height="0.3"/>
			<rect x="138.4" y="249.2" class="st6" width="2.6" height="0.2"/>
			<rect x="142.1" y="249" class="st6" width="2.6" height="0.3"/>
			<rect x="145.8" y="249.2" class="st6" width="2.6" height="0.2"/>
			<rect x="149.4" y="247.8" class="st6" width="2.6" height="1.6"/>
			<rect x="156.8" y="249" class="st6" width="2.6" height="0.3"/>
			<rect x="160.5" y="249.2" class="st6" width="2.6" height="0.2"/>
			<rect x="167.8" y="248.9" class="st6" width="2.6" height="0.5"/>
			<rect x="171.5" y="248.9" class="st6" width="2.6" height="0.5"/>
			<rect x="182.5" y="249.2" class="st6" width="2.6" height="0.2"/>
			<rect x="186.2" y="249.2" class="st6" width="2.6" height="0.2"/>
			<rect x="193.5" y="249" class="st6" width="2.6" height="0.3"/>
			<rect x="204.6" y="249.2" class="st6" width="2.6" height="0.2"/>
			<rect x="208.2" y="249" class="st6" width="2.6" height="0.3"/>
			<rect x="211.9" y="249.2" class="st6" width="2.6" height="0.2"/>
			<rect x="215.6" y="247.3" class="st6" width="2.6" height="2.1"/>
			<rect x="219.3" y="248.6" class="st6" width="2.6" height="0.8"/>
			<rect x="230.3" y="249.2" class="st6" width="2.6" height="0.2"/>
			<rect x="234" y="249.2" class="st6" width="2.6" height="0.2"/>
			<rect x="237.6" y="249.2" class="st6" width="2.6" height="0.2"/>
			<rect x="248.7" y="249.2" class="st6" width="2.6" height="0.2"/>
			<rect x="252.3" y="248.9" class="st6" width="2.6" height="0.5"/>
			<rect x="256" y="249.2" class="st6" width="2.6" height="0.2"/>
			<rect x="263.4" y="249.2" class="st6" width="2.6" height="0.2"/>
			<rect x="267" y="249" class="st6" width="2.6" height="0.3"/>
			<rect x="270.7" y="249" class="st6" width="2.6" height="0.3"/>
			<rect x="278.1" y="249" class="st6" width="2.6" height="0.3"/>
			<rect x="281.8" y="249.2" class="st6" width="2.6" height="0.2"/>
			<rect x="285.4" y="244.7" class="st6" width="2.6" height="4.6"/>
			<rect x="289.1" y="217.6" class="st6" width="2.6" height="31.8"/>
			<rect x="292.8" y="241.6" class="st6" width="2.6" height="7.8"/>
			<rect x="296.5" y="244.1" class="st6" width="2.6" height="5.2"/>
			<rect x="300.1" y="31.7" class="st6" width="2.6" height="217.7"/>
			<rect x="303.8" y="156.2" class="st6" width="2.6" height="93.1"/>
			<rect x="307.5" y="247" class="st6" width="2.6" height="2.4"/>
			<rect x="311.1" y="247.1" class="st6" width="2.6" height="2.2"/>
			<rect x="314.8" y="242.4" class="st6" width="2.6" height="7"/>
			<rect x="318.5" y="179.8" class="st6" width="2.6" height="69.6"/>
			<rect x="322.2" y="247.9" class="st6" width="2.6" height="1.4"/>
			<rect x="325.9" y="246.5" class="st6" width="2.6" height="2.9"/>
			<rect x="329.5" y="249" class="st6" width="2.6" height="0.3"/>
			<rect x="333.2" y="247.9" class="st6" width="2.6" height="1.4"/>
			<rect x="336.9" y="247.9" class="st6" width="2.6" height="1.4"/>
			<rect x="340.5" y="243.3" class="st6" width="2.6" height="6"/>
			<rect x="344.2" y="248.7" class="st6" width="2.6" height="0.6"/>
			<rect x="347.9" y="247.1" class="st6" width="2.6" height="2.2"/>
			<rect x="351.6" y="248.4" class="st6" width="2.6" height="1"/>
			<rect x="355.2" y="248.9" class="st6" width="2.6" height="0.5"/>
			<rect x="358.9" y="247.3" class="st6" width="2.6" height="2.1"/>
			<rect x="362.6" y="248.7" class="st6" width="2.6" height="0.6"/>
			<rect x="366.3" y="248.6" class="st6" width="2.6" height="0.8"/>
			<rect x="370" y="248.2" class="st6" width="2.6" height="1.1"/>
			<rect x="373.6" y="246.6" class="st6" width="2.6" height="2.7"/>
			<rect x="377.3" y="248.6" class="st6" width="2.6" height="0.8"/>
			<rect x="381" y="248.9" class="st6" width="2.6" height="0.5"/>
			<rect x="384.6" y="248.9" class="st6" width="2.6" height="0.5"/>
			<rect x="388.3" y="248.6" class="st6" width="2.6" height="0.8"/>
			<rect x="392" y="249" class="st6" width="2.6" height="0.3"/>
			<rect x="395.7" y="249" class="st6" width="2.6" height="0.3"/>
			<rect x="399.4" y="248.7" class="st6" width="2.6" height="0.6"/>
			<rect x="403" y="249" class="st6" width="2.6" height="0.3"/>
			<rect x="406.7" y="249.2" class="st6" width="2.6" height="0.2"/>
			<rect x="410.4" y="248.6" class="st6" width="2.6" height="0.8"/>
			<rect x="414" y="249" class="st6" width="2.6" height="0.3"/>
			<rect x="417.7" y="248.7" class="st6" width="2.6" height="0.6"/>
			<rect x="421.4" y="248.2" class="st6" width="2.6" height="1.1"/>
			<rect x="428.8" y="248.9" class="st6" width="2.6" height="0.5"/>
			<rect x="432.4" y="249" class="st6" width="2.6" height="0.3"/>
			<rect x="439.8" y="249" class="st6" width="2.6" height="0.3"/>
			<rect x="443.5" y="248.6" class="st6" width="2.6" height="0.8"/>
			<rect x="458.1" y="248.7" class="st6" width="2.6" height="0.6"/>
			<rect x="461.8" y="248.9" class="st6" width="2.6" height="0.5"/>
			<rect x="465.5" y="248.6" class="st6" width="2.6" height="0.8"/>
			<rect x="472.9" y="249.2" class="st6" width="2.6" height="0.2"/>
			<rect x="476.5" y="248.7" class="st6" width="2.6" height="0.6"/>
			<rect x="480.2" y="248.9" class="st6" width="2.6" height="0.5"/>
			<rect x="483.9" y="248.6" class="st6" width="2.6" height="0.8"/>
			<rect x="487.5" y="248.6" class="st6" width="2.6" height="0.8"/>
			<rect x="491.2" y="248.6" class="st6" width="2.6" height="0.8"/>
			<rect x="494.9" y="248.2" class="st6" width="2.6" height="1.1"/>
			<rect x="498.6" y="248.9" class="st6" width="2.6" height="0.5"/>
			<rect x="502.2" y="248.4" class="st6" width="2.6" height="1"/>
			<rect x="505.9" y="248.9" class="st6" width="2.6" height="0.5"/>
			<rect x="509.6" y="248.9" class="st6" width="2.6" height="0.5"/>
			<rect x="513.3" y="248.2" class="st6" width="2.7" height="1.1"/>
			<rect x="517" y="249" class="st6" width="2.7" height="0.3"/>
			<rect x="520.6" y="248.7" class="st6" width="2.7" height="0.6"/>
			<rect x="524.3" y="248.9" class="st6" width="2.7" height="0.5"/>
			<rect x="528" y="249.2" class="st6" width="2.7" height="0.2"/>
			<rect x="531.7" y="248.7" class="st6" width="2.7" height="0.6"/>
			<rect x="535.3" y="244.4" class="st6" width="2.7" height="4.9"/>
			<rect x="539" y="248.7" class="st6" width="2.7" height="0.6"/>
			<rect x="550" y="249.2" class="st6" width="2.7" height="0.2"/>
			<rect x="553.7" y="249" class="st6" width="2.7" height="0.3"/>
			<rect x="557.4" y="249" class="st6" width="2.7" height="0.3"/>
			<rect x="561" y="248.9" class="st6" width="2.7" height="0.5"/>
			<rect x="564.7" y="247.3" class="st6" width="2.7" height="2.1"/>
			<rect x="568.4" y="242.4" class="st6" width="2.7" height="7"/>
			<rect x="572.1" y="240.3" class="st6" width="2.7" height="9.1"/>
			<rect x="575.8" y="248.4" class="st6" width="2.7" height="1"/>
			<rect x="583.1" y="249.2" class="st6" width="2.7" height="0.2"/>
			<rect x="586.8" y="248.4" class="st6" width="2.7" height="1"/>
			<rect x="590.5" y="248.1" class="st6" width="2.7" height="1.3"/>
			<rect x="594.1" y="248.4" class="st6" width="2.7" height="1"/>
			<rect x="597.8" y="249" class="st6" width="2.7" height="0.3"/>
			<rect x="605.2" y="248.9" class="st6" width="2.7" height="0.5"/>
			<rect x="608.8" y="249.2" class="st6" width="2.7" height="0.2"/>
		</g>
	</g>
	<g id="annotations">
		<text transform="matrix(1 0 0 1 165.6759 164.2822)" class="st1 st2">Las Vegas </text>
		<text transform="matrix(1 0 0 1 146.1058 176.2822)" class="st1 st2">mass shooting</text>
		<text transform="matrix(1 0 0 1 180.2657 115.7133)" class="st1 st2">Texas First </text>
		<text transform="matrix(1 0 0 1 163.7957 127.7133)" class="st1 st2">Baptist Church </text>
		<text transform="matrix(1 0 0 1 190.4257 139.7133)" class="st1 st2">shooting</text>
		<text transform="matrix(1 0 0 1 161.687 78.8117)" class="st1 st2">Rancho Tehama </text>
		<text transform="matrix(1 0 0 1 168.257 90.8117)" class="st1 st2">mass shooting</text>
		<text transform="matrix(1 0 0 1 210.5079 42.1927)" class="st1 st2">Parkland school </text>
		<text transform="matrix(1 0 0 1 243.0479 54.1927)" class="st1 st2">shooting</text>
		<text transform="matrix(1 0 0 1 306.8715 39.4334)" class="st0 st1 st2">#Enough! School </text>
		<text transform="matrix(1 0 0 1 306.8715 51.4334)" class="st0 st1 st2">Walkout (1,370 </text>
		<text transform="matrix(1 0 0 1 306.8715 63.4334)" class="st0 st1 st2">protests)</text>
		<text transform="matrix(1 0 0 1 310.7999 164.288)" class="st0 st1 st2">March For Our Lives</text>
		<text transform="matrix(1 0 0 1 324.8502 187.753)" class="st0 st1 st2">National School </text>
		<text transform="matrix(1 0 0 1 324.8502 199.753)" class="st0 st1 st2">Walkout</text>
		<text transform="matrix(1 0 0 1 423.4677 36.8765)" class="st1 st2">Tree of Life </text>
		<text transform="matrix(1 0 0 1 339.5198 218.5927)" class="st1 st2">Santa Fe</text>
		<text transform="matrix(1 0 0 1 339.5201 230.593)" class="st1 st2">school shooting</text>
		<text transform="matrix(1 0 0 1 423.4677 48.8765)" class="st1 st2">synagogue </text>
		<text transform="matrix(1 0 0 1 423.4677 60.8765)" class="st1 st2">shooting</text>
		<text transform="matrix(1 0 0 1 433.9265 83.087)" class="st1 st2">Borderline Bar &amp; </text>
		<text transform="matrix(1 0 0 1 433.9265 95.087)" class="st1 st2">Grill mass </text>
		<text transform="matrix(1 0 0 1 433.9265 107.087)" class="st1 st2">shooting</text>
		<text transform="matrix(1 0 0 1 508.271 194.5366)" class="st1 st2">Gilroy Garlic </text>
		<text transform="matrix(1 0 0 1 500.571 206.5366)" class="st1 st2">Festival mass </text>
		<text transform="matrix(1 0 0 1 523.061 218.5366)" class="st1 st2">shooting</text>
		<text transform="matrix(1 0 0 1 491.3608 159.9881)" class="st1 st2">El Paso Walmart </text>
		<text transform="matrix(1 0 0 1 498.7408 171.9881)" class="st1 st2">mass shooting</text>
		<text transform="matrix(1 0 0 1 534.4388 119.9902)" class="st1 st2">Dayton </text>
		<text transform="matrix(1 0 0 1 499.7688 131.9902)" class="st1 st2">mass shooting</text>
		<text transform="matrix(1 0 0 1 508.8551 34.4379)" class="st1 st2">Odessa-Midland </text>
		<text transform="matrix(1 0 0 1 515.1151 46.4379)" class="st1 st2">mass shooting</text>
		<line class="st7" x1="427.5" y1="248.7" x2="427.5" y2="75.6"/>
		<line class="st7" x1="421.7" y1="248.7" x2="419.3" y2="29.4"/>
		<line class="st7" x1="336.6" y1="248.7" x2="336.6" y2="209.7"/>
		<line class="st7" x1="287.8" y1="248.7" x2="287.8" y2="31.7"/>
		<line class="st7" x1="239.5" y1="248.7" x2="239.5" y2="72.5"/>
		<line class="st7" x1="216.4" y1="248.7" x2="216.4" y2="155.7"/>
		<line class="st7" x1="234.8" y1="248.7" x2="234.8" y2="107.7"/>
		<line class="st7" x1="565.5" y1="248.7" x2="565.5" y2="187"/>
		<line class="st7" x1="569.2" y1="248.7" x2="569.2" y2="112.5"/>
		<line class="st7" x1="568.7" y1="248.7" x2="568.7" y2="150.1"/>
		<line class="st7" x1="583.4" y1="248.7" x2="583.4" y2="27.3"/>
	</g>
	<g id="y-axis">
		<g>
			<text transform="matrix(1 0 0 1 44.2317 252.4744)" class="st0 st1 st2">0</text>
		</g>
		<g>
			<text transform="matrix(1 0 0 1 34.2214 220.6971)" class="st0 st1 st2">200</text>
		</g>
		<g>
			<text transform="matrix(1 0 0 1 34.2214 188.9197)" class="st0 st1 st2">400</text>
		</g>
		<g>
			<text transform="matrix(1 0 0 1 34.2214 157.1424)" class="st0 st1 st2">600</text>
		</g>
		<g>
			<text transform="matrix(1 0 0 1 34.2214 125.3709)" class="st0 st1 st2">800</text>
		</g>
		<g>
			<text transform="matrix(1 0 0 1 29.2214 93.593)" class="st0 st1 st2">1000</text>
		</g>
		<g>
			<text transform="matrix(1 0 0 1 29.2214 61.8157)" class="st0 st1 st2">1200</text>
		</g>
		<line class="st8" x1="56.4" y1="249.3" x2="61.4" y2="249.3"/>
		<line class="st8" x1="56.4" y1="217.6" x2="61.4" y2="217.6"/>
		<line class="st8" x1="56.4" y1="185.8" x2="61.4" y2="185.8"/>
		<line class="st8" x1="56.4" y1="154" x2="61.4" y2="154"/>
		<line class="st8" x1="56.4" y1="122.2" x2="61.4" y2="122.2"/>
		<line class="st8" x1="56.4" y1="90.5" x2="61.4" y2="90.5"/>
		<line class="st8" x1="56.4" y1="58.7" x2="61.4" y2="58.7"/>
	</g>
</g>
</svg>
