<?xml version="1.0" encoding="utf-8"?>
<!-- Generator: Adobe Illustrator 23.1.1, SVG Export Plug-In . SVG Version: 6.00 Build 0)  -->
<svg version="1.1" id="Layer_1" xmlns="http://www.w3.org/2000/svg" xmlns:xlink="http://www.w3.org/1999/xlink" x="0px" y="0px"
	 viewBox="0 0 612 219.44" style="enable-background:new 0 0 612 219.44;" xml:space="preserve">
<style type="text/css">
	.st0{fill:url(#gradient_1_);}
	.st1{fill:#FFFFFF;}
	.st2{font-family:'Titillium Web';}
	.st3{font-size:34px;}
	.st4{font-size:19px;}
	.st5{fill:none;stroke:#FFFFFF;stroke-width:0.1994;stroke-linejoin:round;stroke-miterlimit:10;}
	.st6{font-family:'ArialMT';}
	.st7{font-size:0.4448px;}
	.st8{fill:none;stroke:#FFFFFF;stroke-width:0.1634;stroke-linejoin:round;stroke-miterlimit:10;}
	.st9{fill:none;stroke:#FFFFFF;stroke-width:0.1625;stroke-linejoin:round;stroke-miterlimit:10;}

		.st10{opacity:0.102;fill:none;stroke:#FFFFFF;stroke-width:0.1625;stroke-linejoin:round;stroke-miterlimit:10;enable-background:new    ;}
	.st11{fill:none;stroke:#FFFFFF;stroke-width:0.1686;stroke-linejoin:round;stroke-miterlimit:10;}
	.st12{font-size:0.8147px;}
	.st13{fill:none;stroke:#FFFFFF;stroke-width:0.1686;stroke-linecap:round;stroke-linejoin:round;stroke-miterlimit:10;}
	.st14{font-size:0.536px;}
	.st15{fill:none;stroke:#FFFFFF;stroke-width:0.2146;stroke-linejoin:round;stroke-miterlimit:10;}
	.st16{font-size:0.5121px;}
	.st17{fill:none;stroke:#FFFFFF;stroke-width:0.2146;stroke-linecap:round;stroke-linejoin:round;stroke-miterlimit:10;}
	.st18{font-size:0.3369px;}
	.st19{fill:none;stroke:#FFFFFF;stroke-width:0.2304;stroke-linejoin:round;stroke-miterlimit:10;}

		.st20{opacity:0.702;fill:none;stroke:#FFFFFF;stroke-width:0.2304;stroke-linejoin:round;stroke-miterlimit:10;enable-background:new    ;}
	.st21{fill:none;stroke:#FFFFFF;stroke-width:0.1802;stroke-linejoin:round;stroke-miterlimit:10;}
	.st22{fill:none;stroke:#FFFFFF;stroke-width:0.2297;stroke-linejoin:round;stroke-miterlimit:10;}
	.st23{fill:none;stroke:#FFFFFF;stroke-width:0.2763;stroke-linejoin:round;stroke-miterlimit:10;}
	.st24{fill:none;stroke:#FFFFFF;stroke-width:0.18;stroke-linejoin:round;stroke-miterlimit:10;}
	.st25{fill:#333333;}
	.st26{fill:none;stroke:#FFFFFF;stroke-width:0.2956;stroke-linejoin:round;stroke-miterlimit:10;}
</style>
<g>
	<g>

			<linearGradient id="gradient_1_" gradientUnits="userSpaceOnUse" x1="306" y1="808.9046" x2="306" y2="589.4646" gradientTransform="matrix(1 0 0 1 0 -570)">
			<stop  offset="0" style="stop-color:#ABACB7"/>
			<stop  offset="0.1134" style="stop-color:#A7A8B4"/>
			<stop  offset="0.218" style="stop-color:#9C9DAB"/>
			<stop  offset="0.319" style="stop-color:#8C8D9E"/>
			<stop  offset="0.4174" style="stop-color:#777A8E"/>
			<stop  offset="0.4396" style="stop-color:#71758A"/>
			<stop  offset="0.5665" style="stop-color:#5B5F70"/>
			<stop  offset="0.8574" style="stop-color:#191A26"/>
			<stop  offset="0.929" style="stop-color:#000000"/>
		</linearGradient>
		<rect id="gradient" class="st0" width="612" height="219.44"/>
		<text transform="matrix(1 0 0 1 202.2492 94.5617)" class="st1 st2 st3">Constellations </text>
		<text transform="matrix(1 0 0 1 236.1592 135.3617)" class="st1 st2 st3">of Protest</text>
		<text id="byline" transform="matrix(1 0 0 1 201.7082 187.9283)" class="st2 st4">a project by Alyssa Fowers</text>
	</g>
</g>
<g id="new-icons">
	<g id="const">
		<polyline class="st5" points="463.71,121.06 462.8,121.38 461.91,121.71 461.01,122.01 460.09,122.33 459.18,122.66
			458.28,122.94 457.35,123.24 456.44,123.52 455.5,123.8 454.57,124.08 453.64,124.34 452.71,124.62 451.77,124.87 450.84,125.11
			449.89,125.36 448.96,125.57 448,125.8 447.05,126.01 446.1,126.22 445.14,126.43 444.18,126.64 443.23,126.83 442.27,127.02
			441.3,127.17 440.34,127.34 439.38,127.5 438.41,127.67 437.43,127.8 436.45,127.97 435.47,128.09 434.49,128.2 433.51,128.35
			432.54,128.43 431.55,128.53 430.58,128.62 429.6,128.72 428.6,128.81 427.62,128.88 426.62,128.95 425.61,129 424.64,129.07
			423.63,129.09 422.64,129.13 421.65,129.16 420.66,129.18 419.65,129.18 418.65,129.18 417.67,129.18 416.64,129.18
			415.65,129.18 414.64,129.13 413.67,129.11 412.64,129.09 411.64,129.02 410.64,128.98 409.63,128.9 408.63,128.83 407.61,128.76
			406.61,128.67 405.6,128.58 404.61,128.46 403.6,128.35 402.57,128.25 401.58,128.11 400.57,127.97 399.57,127.86 398.57,127.69
			397.54,127.53 		"/>
		<polyline class="st5" points="453.94,122.19 453.03,122.47 452.13,122.75 451.22,123.04 450.29,123.31 449.38,123.59
			448.44,123.85 447.54,124.1 446.61,124.34 445.68,124.6 444.74,124.81 443.81,125.06 442.86,125.27 441.93,125.48 440.97,125.69
			440.04,125.9 439.08,126.09 438.12,126.27 437.17,126.46 436.22,126.62 435.26,126.79 434.28,126.94 433.32,127.08 432.37,127.23
			431.4,127.36 430.41,127.5 429.44,127.62 428.48,127.74 427.5,127.83 426.52,127.95 425.52,128.04 424.56,128.11 423.57,128.2
			422.58,128.25 421.59,128.35 420.6,128.39 419.63,128.43 418.6,128.46 417.63,128.51 416.64,128.53 415.62,128.53 414.64,128.55
			413.64,128.55 412.64,128.53 411.64,128.53 410.64,128.53 409.63,128.48 408.63,128.43 407.63,128.41 406.63,128.35 405.63,128.3
			404.63,128.23 403.6,128.16 402.6,128.07 401.6,127.97 400.59,127.88 399.6,127.78 398.57,127.67 397.54,127.53 		"/>
		<polyline class="st5" points="448.7,123.75 447.77,124.01 446.84,124.26 445.91,124.52 444.95,124.75 444.02,124.99
			443.07,125.19 442.14,125.44 441.18,125.64 440.22,125.82 439.26,126.01 438.31,126.2 437.36,126.39 436.4,126.57 435.42,126.73
			434.45,126.9 433.49,127.04 432.51,127.21 431.55,127.32 430.58,127.46 429.6,127.59 428.62,127.69 427.65,127.8 426.64,127.92
			425.69,128.01 424.68,128.09 423.71,128.16 422.7,128.25 421.7,128.32 420.72,128.37 419.72,128.41 418.72,128.46 417.72,128.48
			416.74,128.53 415.71,128.53 414.72,128.53 413.73,128.53 412.74,128.53 411.71,128.53 410.7,128.51 409.71,128.48 408.7,128.43
			407.68,128.41 406.68,128.35 405.65,128.3 404.65,128.23 403.62,128.16 402.62,128.07 401.62,127.97 400.59,127.88 399.6,127.78
			398.57,127.67 397.54,127.53 		"/>
		<polyline class="st5" points="399.43,117.04 399.87,116.14 400.29,115.23 400.71,114.34 401.16,113.43 401.55,112.53 402,111.64
					"/>
		<polyline class="st5" points="442.6,123.27 441.69,123.52 440.76,123.78 439.83,124.01 438.9,124.24 437.97,124.47 437.03,124.71
			436.08,124.92 435.12,125.13 434.19,125.32 433.23,125.53 432.3,125.71 431.32,125.88 430.37,126.06 429.42,126.2 428.46,126.39
			427.48,126.53 426.52,126.67 425.55,126.81 424.56,126.94 423.59,127.04 422.61,127.15 421.63,127.27 420.66,127.36
			419.65,127.46 418.68,127.55 417.67,127.62 416.7,127.69 415.71,127.76 414.69,127.8 413.71,127.86 412.71,127.88 411.71,127.92
			410.7,127.95 409.71,127.97 408.7,127.97 407.7,127.97 406.68,127.97 405.67,127.95 404.67,127.92 403.65,127.88 402.65,127.86
			401.62,127.8 400.62,127.76 399.6,127.69 398.57,127.59 397.54,127.53 		"/>
		<polyline class="st5" points="435.93,120.33 435.07,120.64 434.16,120.93 433.28,121.24 432.39,121.54 431.49,121.82
			430.58,122.1 429.67,122.38 428.76,122.66 427.83,122.92 426.9,123.17 425.97,123.4 425.04,123.66 424.1,123.9 423.17,124.13
			422.24,124.34 421.29,124.57 420.33,124.78 419.37,124.99 418.41,125.17 417.46,125.36 416.49,125.55 415.53,125.71
			414.55,125.88 413.57,126.04 412.59,126.2 411.61,126.32 410.64,126.48 409.66,126.6 408.66,126.71 407.65,126.83 406.68,126.94
			405.65,127.04 404.65,127.13 403.65,127.21 402.65,127.27 401.64,127.34 400.62,127.42 399.6,127.46 398.57,127.5 397.54,127.53
					"/>
		<polyline class="st5" points="461.84,123.36 460.82,123.33 459.79,123.31 458.76,123.29 457.74,123.24 456.72,123.19
			455.69,123.12 454.69,123.06 453.69,122.98 452.69,122.92 451.68,122.82 450.66,122.73 449.66,122.62 448.65,122.49
			447.68,122.38 446.67,122.24 445.7,122.1 444.69,121.96 443.72,121.82 442.74,121.63 441.76,121.47 440.78,121.31 439.8,121.12
			438.82,120.93 437.89,120.72 436.92,120.51 435.93,120.33 		"/>
		<polyline class="st5" points="453.22,126.57 454.13,126.13 455.04,125.71 455.92,125.27 456.81,124.83 457.69,124.36
			458.58,123.92 459.44,123.46 460.3,122.98 461.16,122.49 462.03,122.01 462.87,121.54 463.71,121.06 		"/>
		<line class="st5" x1="463.61" y1="122.19" x2="463.71" y2="121.06"/>
		<polyline class="st5" points="440.1,130.9 439.13,130.98 438.18,131.04 437.19,131.11 436.22,131.17 435.26,131.23 434.28,131.26
			433.32,131.28 432.35,131.32 431.37,131.32 430.41,131.32 429.44,131.35 428.48,131.35 427.48,131.32 426.52,131.32 425.55,131.3
			424.56,131.26 423.61,131.23 422.64,131.19 421.68,131.14 420.7,131.07 419.72,131 418.74,130.96 417.77,130.86 416.81,130.77
			415.83,130.67 414.87,130.58 413.9,130.46 412.92,130.35 411.96,130.21 410.99,130.11 410.03,129.95 409.08,129.81 408.09,129.65
			407.14,129.51 406.19,129.34 405.21,129.18 404.25,129 403.3,128.81 402.32,128.62 401.37,128.41 400.44,128.2 399.48,127.97
			398.5,127.78 397.54,127.53 		"/>
		<polyline class="st5" points="402.42,137.57 401.92,136.66 401.46,135.76 400.99,134.84 400.53,133.93 400.08,133.02
			399.66,132.12 399.22,131.21 398.78,130.3 398.38,129.36 397.96,128.46 397.54,127.53 		"/>
		<polyline class="st5" points="397.54,127.53 398.57,127.67 399.6,127.78 400.59,127.88 401.62,127.97 402.62,128.07
			403.62,128.16 404.65,128.23 405.65,128.3 406.68,128.35 407.68,128.41 408.7,128.43 409.71,128.48 410.7,128.51 411.71,128.53
			412.74,128.53 413.73,128.53 414.72,128.53 415.71,128.53 416.74,128.53 417.72,128.48 418.72,128.46 419.72,128.41
			420.72,128.37 421.7,128.32 422.7,128.25 423.71,128.16 424.68,128.09 425.69,128.01 426.64,127.92 427.65,127.8 428.62,127.69
			429.6,127.59 430.58,127.46 431.55,127.32 432.51,127.21 433.49,127.04 434.45,126.9 435.42,126.73 436.4,126.57 437.36,126.39
			438.31,126.2 439.26,126.01 440.22,125.82 441.18,125.64 442.14,125.44 443.07,125.19 444.02,124.99 444.95,124.75 445.91,124.52
			446.84,124.26 447.77,124.01 448.7,123.75 		"/>
		<polyline class="st5" points="397.54,127.53 398.57,127.69 399.57,127.86 400.57,127.97 401.58,128.11 402.57,128.25
			403.6,128.35 404.61,128.46 405.6,128.58 406.61,128.67 407.61,128.76 408.63,128.83 409.63,128.9 410.64,128.98 411.64,129.02
			412.64,129.09 413.67,129.11 414.64,129.13 415.65,129.18 416.64,129.18 417.67,129.18 418.65,129.18 419.65,129.18
			420.66,129.18 421.65,129.16 422.64,129.13 423.63,129.09 424.64,129.07 425.61,129 426.62,128.95 427.62,128.88 428.6,128.81
			429.6,128.72 430.58,128.62 431.55,128.53 432.54,128.43 433.51,128.35 434.49,128.2 435.47,128.09 436.45,127.97 437.43,127.8
			438.41,127.67 439.38,127.5 440.34,127.34 441.3,127.17 442.27,127.02 443.23,126.83 444.18,126.64 445.14,126.43 446.1,126.22
			447.05,126.01 448,125.8 448.96,125.57 449.89,125.36 450.84,125.11 451.77,124.87 452.71,124.62 453.64,124.34 454.57,124.08
			455.5,123.8 456.44,123.52 457.35,123.24 458.28,122.94 459.18,122.66 460.09,122.33 461.01,122.01 461.91,121.71 462.8,121.38
			463.71,121.06 		"/>
		<polyline class="st5" points="397.54,127.53 398.57,127.5 399.6,127.46 400.62,127.42 401.64,127.34 402.65,127.27 403.65,127.21
			404.65,127.13 405.65,127.04 406.68,126.94 407.65,126.83 408.66,126.71 409.66,126.6 410.64,126.48 411.61,126.32 412.59,126.2
			413.57,126.04 414.55,125.88 415.53,125.71 416.49,125.55 417.46,125.36 418.41,125.17 419.37,124.99 420.33,124.78
			421.29,124.57 422.24,124.34 423.17,124.13 424.1,123.9 425.04,123.66 425.97,123.4 426.9,123.17 427.83,122.92 428.76,122.66
			429.67,122.38 430.58,122.1 431.49,121.82 432.39,121.54 433.28,121.24 434.16,120.93 435.07,120.64 435.93,120.33 		"/>
		<polyline class="st5" points="402,111.64 401.73,112.55 401.46,113.48 401.22,114.39 400.97,115.32 400.71,116.25 400.44,117.18
			400.17,118.12 399.92,119.07 399.66,120 399.41,120.93 399.13,121.89 398.87,122.82 398.61,123.78 398.36,124.71 398.1,125.64
			397.83,126.6 397.54,127.53 		"/>
		<text transform="matrix(0.9868 0 0 1 447.7539 122.983)" class="st1 st6 st7">●</text>
		<ellipse class="st1" cx="448.65" cy="123.71" rx="0.67" ry="0.68"/>
		<ellipse class="st1" cx="447.87" cy="122.73" rx="0.67" ry="0.68"/>
		<ellipse class="st1" cx="442.58" cy="123.36" rx="0.67" ry="0.68"/>
		<ellipse class="st1" cx="436.1" cy="120.24" rx="0.67" ry="0.68"/>
		<ellipse class="st1" cx="447.91" cy="128.43" rx="0.67" ry="0.67"/>
		<ellipse class="st1" cx="440.22" cy="130.86" rx="0.67" ry="0.67"/>
		<ellipse class="st1" cx="402.42" cy="137.68" rx="0.67" ry="0.67"/>
		<ellipse class="st1" cx="397.45" cy="127.55" rx="0.67" ry="0.67"/>
		<ellipse class="st1" cx="401.92" cy="111.64" rx="0.67" ry="0.68"/>
		<ellipse class="st1" cx="399.43" cy="117.04" rx="0.67" ry="0.68"/>
		<ellipse class="st1" cx="453.29" cy="126.46" rx="0.67" ry="0.67"/>
		<ellipse class="st1" cx="454.02" cy="122.26" rx="0.67" ry="0.68"/>
		<ellipse class="st1" cx="463.59" cy="120.89" rx="0.67" ry="0.68"/>
		<ellipse class="st1" cx="461.79" cy="121.68" rx="0.67" ry="0.68"/>
		<ellipse class="st1" cx="463.52" cy="122.54" rx="0.67" ry="0.68"/>
		<ellipse class="st1" cx="461.84" cy="123.5" rx="0.67" ry="0.68"/>
	</g>
	<g>
		<g>
			<polyline class="st8" points="77.59,97.31 76.69,97.35 75.81,97.37 74.96,97.41 74.08,97.43 73.2,97.43 72.32,97.45 71.46,97.45
				70.56,97.45 69.71,97.43 68.85,97.43 67.95,97.39 67.09,97.35 66.24,97.31 65.33,97.27 64.48,97.21 63.62,97.17 62.74,97.09
				61.88,97.03 61.01,96.94 60.15,96.86 59.29,96.76 58.44,96.66 57.57,96.53 56.69,96.43 55.85,96.31 55,96.19 54.15,96.04
				53.28,95.9 52.43,95.76 51.59,95.59 50.73,95.43 49.89,95.27 49.04,95.08 48.2,94.9 47.36,94.74 46.53,94.53 45.67,94.33
				44.83,94.12 44.01,93.92 43.17,93.67 42.35,93.45 41.52,93.22 40.71,93 39.86,92.74 39.05,92.49 38.23,92.23 37.41,91.96
				36.6,91.69 35.8,91.41 34.98,91.14 			"/>
			<polyline class="st8" points="89.11,92.37 88.31,92.77 87.52,93.14 86.72,93.51 85.91,93.9 85.1,94.27 84.29,94.63 83.46,94.98
				82.64,95.33 81.8,95.68 80.96,96.02 80.12,96.35 79.28,96.67 78.43,96.98 77.59,97.31 			"/>
			<polyline class="st8" points="34.98,91.14 35.8,91.41 36.6,91.69 37.41,91.96 38.23,92.23 39.05,92.49 39.86,92.74 40.71,93
				41.52,93.22 42.35,93.45 43.17,93.67 44.01,93.92 44.83,94.12 45.67,94.33 46.53,94.53 47.36,94.74 48.2,94.9 49.04,95.08
				49.89,95.27 50.73,95.43 51.59,95.59 52.43,95.76 53.28,95.9 54.15,96.04 55,96.19 55.85,96.31 56.69,96.43 57.57,96.53
				58.44,96.66 59.29,96.76 60.15,96.86 61.01,96.94 61.88,97.03 62.74,97.09 63.62,97.17 64.48,97.21 65.33,97.27 66.24,97.31
				67.09,97.35 67.95,97.39 68.85,97.43 69.71,97.43 70.56,97.45 71.46,97.45 72.32,97.45 73.2,97.43 74.08,97.43 74.96,97.41
				75.81,97.37 76.69,97.35 77.59,97.31 			"/>
			<polyline class="st8" points="76.61,96.72 75.86,97.04 75.1,97.35 74.32,97.68 73.57,97.99 72.79,98.27 72.03,98.58 71.24,98.84
				70.47,99.15 69.66,99.41 68.89,99.68 68.11,99.97 67.3,100.21 66.5,100.45 65.7,100.72 64.91,100.96 64.09,101.19 63.27,101.44
				62.46,101.68 61.64,101.89 60.82,102.09 59.99,102.31 59.15,102.52 58.33,102.73 57.49,102.91 56.66,103.09 55.82,103.27
				54.96,103.46 54.12,103.62 53.27,103.78 52.43,103.95 51.55,104.09 50.71,104.23 49.83,104.38 48.98,104.5 48.1,104.62
				47.24,104.74 46.38,104.87 45.48,104.95 44.6,105.05 43.75,105.16 42.86,105.24 41.97,105.31 41.07,105.4 40.19,105.46
				39.3,105.52 38.42,105.58 37.52,105.61 36.62,105.67 35.72,105.68 34.82,105.73 			"/>
			<polyline class="st8" points="63.19,100.15 64.07,99.99 64.93,99.82 65.82,99.66 66.68,99.48 67.56,99.31 68.44,99.13
				69.29,98.92 70.16,98.74 71.01,98.52 71.88,98.31 72.73,98.08 73.58,97.86 74.43,97.62 75.28,97.39 76.12,97.15 76.94,96.88
				77.78,96.61 78.61,96.37 79.45,96.1 80.29,95.82 81.11,95.53 81.92,95.25 82.74,94.94 83.54,94.66 84.35,94.33 85.15,94.02
				85.94,93.7 86.74,93.37 87.53,93.04 88.34,92.71 89.11,92.37 			"/>
			<polyline class="st8" points="36.48,86.98 36.37,87.79 36.27,88.65 36.19,89.49 36.08,90.32 36,91.16 35.92,92.02 35.85,92.86
				35.76,93.72 35.68,94.57 35.6,95.41 35.51,96.27 35.46,97.11 35.37,97.99 35.31,98.82 35.25,99.7 35.19,100.54 35.11,101.41
				35.04,102.28 34.98,103.13 34.94,103.99 34.86,104.87 34.82,105.73 			"/>
			<polyline class="st8" points="34.82,105.73 35.72,105.68 36.62,105.67 37.52,105.61 38.42,105.58 39.3,105.52 40.19,105.46
				41.07,105.4 41.97,105.31 42.86,105.24 43.75,105.16 44.6,105.05 45.48,104.95 46.38,104.87 47.24,104.74 48.1,104.62
				48.98,104.5 49.83,104.38 50.71,104.23 51.55,104.09 52.43,103.95 53.27,103.78 54.12,103.62 54.96,103.46 55.82,103.27
				56.66,103.09 57.49,102.91 58.33,102.73 59.15,102.52 59.99,102.31 60.82,102.09 61.64,101.89 62.46,101.68 63.27,101.44
				64.09,101.19 64.91,100.96 65.7,100.72 66.5,100.45 67.3,100.21 68.11,99.97 68.89,99.68 69.66,99.41 70.47,99.15 71.24,98.84
				72.03,98.58 72.79,98.27 73.57,97.99 74.32,97.68 75.1,97.35 75.86,97.04 76.61,96.72 			"/>
			<polyline class="st8" points="71.22,101.54 70.32,101.33 69.42,101.11 68.54,100.9 67.67,100.68 66.78,100.44 65.9,100.21
				65.01,99.94 64.15,99.7 63.3,99.43 62.42,99.15 61.58,98.9 60.7,98.59 59.86,98.33 59.01,98.02 58.17,97.72 57.33,97.43
				56.51,97.11 55.67,96.78 54.83,96.45 54.02,96.13 53.2,95.8 52.39,95.45 51.59,95.11 50.79,94.74 49.97,94.39 49.2,94.02
				48.4,93.65 47.6,93.27 46.85,92.88 46.05,92.51 45.3,92.1 44.55,91.72 43.76,91.3 43.03,90.9 42.27,90.49 41.54,90.06
				40.79,89.63 40.05,89.2 39.33,88.78 38.62,88.33 37.88,87.88 37.17,87.43 36.48,86.98 			"/>
			<polyline class="st8" points="67.11,105.54 66.52,104.79 65.95,104.01 65.38,103.24 64.82,102.48 64.28,101.7 63.72,100.93
				63.19,100.15 			"/>
		</g>
		<ellipse class="st1" cx="67.17" cy="105.56" rx="0.59" ry="0.59"/>
		<ellipse class="st1" cx="63.19" cy="100.19" rx="0.59" ry="0.59"/>
		<ellipse class="st1" cx="35.03" cy="91.21" rx="0.59" ry="0.59"/>
		<ellipse class="st1" cx="35.03" cy="105.56" rx="0.59" ry="0.59"/>
		<ellipse class="st1" cx="37.62" cy="118.49" rx="0.59" ry="0.59"/>
		<ellipse class="st1" cx="36.45" cy="87" rx="0.59" ry="0.59"/>
		<ellipse class="st1" cx="71.24" cy="101.52" rx="0.59" ry="0.59"/>
		<ellipse class="st1" cx="77.59" cy="97.31" rx="0.59" ry="0.59"/>
		<ellipse class="st1" cx="89.13" cy="92.37" rx="0.59" ry="0.59"/>
		<ellipse class="st1" cx="76.61" cy="96.64" rx="0.59" ry="0.59"/>
		<line class="st8" x1="77.64" y1="97.31" x2="37.62" y2="118.49"/>
	</g>
	<g id="constellation">
		<g>
			<polyline class="st9" points="514.15,58.36 513.59,59.39 513,60.43 			"/>
			<polyline class="st9" points="509.67,59.94 510.79,60.13 511.9,60.28 513,60.43 			"/>
			<polyline class="st9" points="513,60.43 512.55,61.16 512.08,61.87 511.62,62.56 511.13,63.27 510.64,63.98 510.16,64.69
				509.67,65.38 509.14,66.1 508.64,66.79 508.1,67.5 507.58,68.19 507.04,68.88 			"/>
			<polyline class="st9" points="467.57,66.4 468.38,66.61 469.21,66.76 470.07,66.97 470.9,67.15 471.73,67.33 472.57,67.5
				473.42,67.66 474.26,67.8 475.11,67.94 475.94,68.08 476.8,68.23 477.65,68.35 478.5,68.47 479.35,68.59 480.21,68.71
				481.07,68.8 481.91,68.9 482.77,69 483.64,69.08 484.48,69.16 485.35,69.22 486.2,69.28 487.08,69.37 487.93,69.4 488.8,69.45
				489.67,69.49 490.53,69.53 491.39,69.53 492.28,69.57 493.13,69.57 493.99,69.59 494.88,69.59 495.73,69.57 496.6,69.55
				497.47,69.53 498.35,69.51 499.21,69.47 500.08,69.45 500.96,69.39 501.82,69.34 502.68,69.28 503.57,69.2 504.43,69.13
				505.3,69.04 506.17,68.96 507.04,68.88 			"/>
			<polyline class="st9" points="507.04,68.88 507.58,68.19 508.1,67.5 508.64,66.79 509.14,66.1 509.67,65.38 510.16,64.69
				510.64,63.98 511.13,63.27 511.62,62.56 512.08,61.87 512.55,61.16 513,60.43 			"/>
			<polyline class="st9" points="507.04,68.88 506.17,68.96 505.3,69.04 504.43,69.13 503.57,69.2 502.68,69.28 501.82,69.34
				500.96,69.39 500.08,69.45 499.21,69.47 498.35,69.51 497.47,69.53 496.6,69.55 495.73,69.57 494.88,69.59 493.99,69.59
				493.13,69.57 492.28,69.57 491.39,69.53 490.53,69.53 489.67,69.49 488.8,69.45 487.93,69.4 487.08,69.37 486.2,69.28
				485.35,69.22 484.48,69.16 483.64,69.08 482.77,69 481.91,68.9 481.07,68.8 480.21,68.71 479.35,68.59 478.5,68.47 477.65,68.35
				476.8,68.23 475.94,68.08 475.11,67.94 474.26,67.8 473.42,67.66 472.57,67.5 471.73,67.33 470.9,67.15 470.07,66.97
				469.21,66.76 468.38,66.61 467.57,66.4 			"/>
			<line class="st10" x1="505.77" y1="68.71" x2="507.04" y2="68.88"/>
		</g>
		<ellipse class="st1" cx="467.65" cy="66.36" rx="0.59" ry="0.59"/>
		<ellipse class="st1" cx="459.35" cy="86.15" rx="0.59" ry="0.59"/>
		<ellipse class="st1" cx="507.15" cy="68.82" rx="0.59" ry="0.59"/>
		<ellipse class="st1" cx="509.65" cy="60" rx="0.59" ry="0.59"/>
		<ellipse class="st1" cx="512.92" cy="60.4" rx="0.59" ry="0.59"/>
		<ellipse class="st1" cx="514.09" cy="58.38" rx="0.59" ry="0.59"/>
		<path class="st1" d="M505.69,68.14c0.33,0,0.59,0.27,0.59,0.59c0,0.33-0.27,0.59-0.59,0.59c-0.33,0-0.59-0.27-0.59-0.59
			C505.1,68.41,505.36,68.14,505.69,68.14z"/>
		<line class="st9" x1="507.15" y1="68.82" x2="459.35" y2="86.21"/>
	</g>
	<g id="constellation_1_">
		<g>
			<polyline class="st11" points="568.88,22.97 568.06,23.21 567.22,23.42 566.4,23.63 565.55,23.84 564.71,24.05 563.87,24.22
				563.03,24.41 562.18,24.6 561.32,24.77 560.48,24.93 559.61,25.1 558.77,25.25 557.91,25.4 557.04,25.57 556.18,25.69
				555.31,25.82 554.45,25.94 553.59,26.07 552.7,26.16 551.84,26.28 550.95,26.37 550.09,26.47 549.2,26.56 548.32,26.62
				547.46,26.7 546.57,26.77 545.69,26.83 544.8,26.87 543.92,26.91 543.01,26.96 542.15,27 541.24,27.02 540.36,27.04
				539.47,27.06 538.56,27.06 537.68,27.06 536.77,27.04 535.89,27.02 534.98,27 534.08,26.98 533.19,26.94 532.31,26.91
				531.38,26.85 530.5,26.81 529.59,26.75 528.68,26.66 527.78,26.58 526.89,26.49 525.99,26.41 525.08,26.32 524.17,26.22
				523.29,26.11 			"/>
			<polyline class="st11" points="580.05,17.71 579.25,18.04 578.47,18.36 577.67,18.68 576.89,18.99 576.07,19.31 575.27,19.6
				574.45,19.92 573.64,20.19 572.84,20.49 572,20.76 571.18,21.04 570.36,21.29 569.54,21.56 568.71,21.82 567.87,22.07
				567.03,22.3 566.19,22.53 565.34,22.78 564.5,23 563.66,23.21 562.79,23.44 561.95,23.63 561.09,23.84 560.22,24.03
				559.36,24.22 558.5,24.39 557.63,24.55 556.75,24.72 555.88,24.89 555,25.06 554.13,25.19 553.25,25.33 552.36,25.48
				551.48,25.59 550.6,25.71 549.71,25.82 548.83,25.92 547.92,26.03 547.03,26.13 546.13,26.22 545.24,26.3 544.34,26.37
				543.43,26.43 542.53,26.49 541.62,26.56 540.73,26.58 539.81,26.64 538.9,26.66 538,26.68 537.09,26.7 536.18,26.7 535.26,26.72
				534.33,26.7 533.42,26.7 532.5,26.68 531.59,26.66 530.66,26.62 529.74,26.58 528.83,26.53 527.9,26.49 526.98,26.41
				526.05,26.35 525.12,26.28 524.22,26.2 523.29,26.11 			"/>
			<polyline class="st11" points="575.9,28.6 576.55,27.88 577.23,27.17 577.88,26.43 578.49,25.71 579.14,24.98 			"/>
			<polyline class="st11" points="575.79,31.89 576.3,30.96 576.78,30.03 577.27,29.11 			"/>
			<polyline class="st11" points="575.79,31.89 574.97,31.42 574.17,30.96 573.35,30.47 572.57,30.01 571.77,29.53 570.99,29.04
				570.23,28.56 569.45,28.05 568.69,27.57 567.93,27.06 567.18,26.56 566.44,26.03 565.68,25.52 564.96,25 564.25,24.47
				563.51,23.94 562.81,23.4 562.1,22.87 561.38,22.34 560.71,21.77 560.03,21.25 559.34,20.68 558.66,20.13 558.01,19.58 			"/>
			<polyline class="st11" points="581.57,21.67 581.17,22.45 580.77,23.25 580.34,24.05 579.92,24.83 579.48,25.61 579.04,26.41
				578.6,27.19 578.15,27.97 577.69,28.77 577.23,29.53 576.76,30.33 576.28,31.11 575.79,31.89 			"/>
			<polyline class="st11" points="573.79,41.05 574.11,40.21 574.45,39.37 574.76,38.54 575.08,37.7 575.37,36.86 575.69,36.02
				575.98,35.15 576.28,34.31 576.55,33.47 576.85,32.62 577.12,31.78 577.39,30.92 577.65,30.07 577.9,29.23 578.17,28.37
				578.41,27.53 578.66,26.68 578.91,25.82 579.14,24.98 			"/>
			<polyline class="st11" points="562.23,34.56 561.32,34.5 560.43,34.39 559.53,34.31 558.62,34.2 557.76,34.1 556.85,33.99
				555.97,33.87 555.06,33.74 554.2,33.59 553.29,33.47 552.43,33.32 551.52,33.17 550.66,33 549.77,32.86 548.91,32.69
				548.05,32.5 547.16,32.31 546.3,32.14 545.43,31.95 544.57,31.74 543.71,31.55 542.84,31.32 542,31.11 541.14,30.88
				540.29,30.64 539.43,30.41 538.59,30.18 537.74,29.93 536.9,29.67 536.06,29.4 535.24,29.15 534.39,28.87 533.57,28.6
				532.73,28.3 531.91,28.01 531.09,27.74 530.28,27.42 529.44,27.12 528.64,26.83 527.84,26.49 527.02,26.18 526.22,25.84
				525.42,25.5 524.64,25.17 			"/>
			<polyline class="st11" points="558.01,19.58 558.83,19.88 559.68,20.17 560.52,20.45 561.36,20.74 562.2,21.01 563.07,21.27
				563.91,21.54 564.77,21.79 565.66,22.05 566.52,22.28 567.39,22.53 568.27,22.76 569.16,22.97 570.06,23.21 570.93,23.4
				571.83,23.63 572.74,23.8 573.64,23.99 574.53,24.18 575.46,24.36 576.38,24.53 577.29,24.68 578.22,24.83 579.14,24.98 			"/>
			<polyline class="st11" points="558.01,19.58 558.66,20.13 559.34,20.68 560.03,21.25 560.71,21.77 561.38,22.34 562.1,22.87
				562.81,23.4 563.51,23.94 564.25,24.47 564.96,25 565.68,25.52 566.44,26.03 567.18,26.56 567.93,27.06 568.69,27.57
				569.45,28.05 570.23,28.56 570.99,29.04 571.77,29.53 572.57,30.01 573.35,30.47 574.17,30.96 574.97,31.42 575.79,31.89 			"/>
			<polyline class="st11" points="566.19,32.81 566.8,33.49 567.41,34.2 568.02,34.9 568.63,35.59 569.26,36.29 569.89,36.99
				570.53,37.68 571.16,38.35 571.81,39.03 572.46,39.7 573.12,40.38 573.79,41.05 			"/>
			<polyline class="st11" points="581.42,22.32 580.83,23.04 580.24,23.73 579.65,24.45 579.04,25.14 578.43,25.84 577.82,26.53
				577.18,27.23 576.55,27.93 575.9,28.6 			"/>
			<polyline class="st11" points="562.56,42.51 562.35,41.62 562.14,40.74 561.97,39.85 561.76,38.97 561.55,38.08 561.38,37.2
				561.19,36.33 561,35.43 560.81,34.56 560.62,33.66 560.46,32.79 560.29,31.89 560.1,31.02 559.93,30.14 559.76,29.25
				559.59,28.37 559.42,27.48 559.25,26.6 559.09,25.73 558.94,24.83 558.77,23.96 558.6,23.08 558.45,22.19 558.31,21.33
				558.16,20.45 558.01,19.58 			"/>
			<polyline class="st11" points="579.14,24.98 578.22,24.83 577.29,24.68 576.38,24.53 575.46,24.36 574.53,24.18 573.64,23.99
				572.74,23.8 571.83,23.63 570.93,23.4 570.06,23.21 569.16,22.97 568.27,22.76 567.39,22.53 566.52,22.28 565.66,22.05
				564.77,21.79 563.91,21.54 563.07,21.27 562.2,21.01 561.36,20.74 560.52,20.45 559.68,20.17 558.83,19.88 558.01,19.58 			"/>
			<polyline class="st11" points="579.14,24.98 578.91,25.82 578.66,26.68 578.41,27.53 578.17,28.37 577.9,29.23 577.65,30.07
				577.39,30.92 577.12,31.78 576.85,32.62 576.55,33.47 576.28,34.31 575.98,35.15 575.69,36.02 575.37,36.86 575.08,37.7
				574.76,38.54 574.45,39.37 574.11,40.21 573.79,41.05 			"/>
			<polyline class="st11" points="579.14,24.98 578.28,25.21 577.42,25.42 576.55,25.63 575.71,25.82 574.85,26.03 573.98,26.22
				573.1,26.41 572.25,26.58 571.37,26.75 570.51,26.91 569.64,27.06 568.76,27.21 567.87,27.36 567.01,27.5 566.12,27.63
				565.26,27.76 564.35,27.86 563.49,27.99 562.58,28.09 561.72,28.18 560.81,28.26 559.95,28.35 559.04,28.43 558.16,28.52
				557.27,28.58 556.39,28.64 555.48,28.68 554.6,28.75 553.71,28.77 552.81,28.81 551.92,28.83 551.02,28.85 550.13,28.85
				549.23,28.85 548.32,28.85 547.43,28.85 546.55,28.85 545.64,28.83 544.74,28.79 543.85,28.77 542.95,28.73 542.06,28.68
				541.16,28.62 540.25,28.56 539.37,28.49 538.46,28.41 537.55,28.35 536.67,28.24 535.76,28.16 534.88,28.05 533.99,27.93
				533.07,27.82 532.18,27.69 531.3,27.57 530.39,27.42 529.51,27.29 528.6,27.15 527.71,27 526.83,26.83 525.94,26.66
				525.06,26.49 524.15,26.3 523.29,26.11 			"/>
			<polyline class="st11" points="573.62,25.23 574.53,25.21 575.46,25.17 576.38,25.14 577.31,25.1 578.22,25.06 579.14,24.98
				"/>
			<polyline class="st11" points="526.07,14.59 526.91,14.86 527.78,15.12 528.64,15.37 529.51,15.6 530.37,15.83 531.23,16.06
				532.12,16.3 532.98,16.51 533.87,16.72 534.75,16.91 535.62,17.1 536.5,17.29 537.38,17.48 538.27,17.64 539.15,17.81
				540.04,17.96 540.92,18.11 541.83,18.25 542.69,18.4 543.6,18.51 544.49,18.63 545.39,18.74 546.3,18.87 547.18,18.95
				548.07,19.06 548.97,19.14 549.88,19.2 550.76,19.29 551.69,19.33 552.58,19.41 553.48,19.43 554.39,19.5 555.29,19.52
				556.18,19.54 557.08,19.56 558.01,19.58 			"/>
			<polyline class="st11" points="577.27,29.11 576.78,30.03 576.3,30.96 575.79,31.89 			"/>
			<line class="st11" x1="524.64" y1="25.17" x2="523.29" y2="26.11"/>
			<polyline class="st11" points="561.74,29.15 560.88,29.21 559.99,29.27 559.11,29.34 558.24,29.38 557.36,29.44 556.49,29.46
				555.61,29.51 554.72,29.53 553.86,29.53 552.98,29.55 552.11,29.55 551.23,29.55 550.34,29.53 549.48,29.53 548.59,29.51
				547.71,29.48 546.82,29.44 545.96,29.4 545.07,29.36 544.19,29.29 543.33,29.25 542.44,29.19 541.56,29.11 540.67,29.02
				539.81,28.94 538.92,28.85 538.04,28.75 537.17,28.64 536.31,28.54 535.43,28.43 534.56,28.28 533.68,28.18 532.81,28.03
				531.93,27.88 531.06,27.74 530.2,27.59 529.34,27.42 528.45,27.25 527.59,27.08 526.72,26.89 525.86,26.7 525,26.51
				524.13,26.32 523.29,26.11 			"/>
			<polyline class="st11" points="523.29,26.11 524.15,26.3 525.06,26.49 525.94,26.66 526.83,26.83 527.71,27 528.6,27.15
				529.51,27.29 530.39,27.42 531.3,27.57 532.18,27.69 533.07,27.82 533.99,27.93 534.88,28.05 535.76,28.16 536.67,28.24
				537.55,28.35 538.46,28.41 539.37,28.49 540.25,28.56 541.16,28.62 542.06,28.68 542.95,28.73 543.85,28.77 544.74,28.79
				545.64,28.83 546.55,28.85 547.43,28.85 548.32,28.85 549.23,28.85 550.13,28.85 551.02,28.85 551.92,28.83 552.81,28.81
				553.71,28.77 554.6,28.75 555.48,28.68 556.39,28.64 557.27,28.58 558.16,28.52 559.04,28.43 559.95,28.35 560.81,28.26
				561.72,28.18 562.58,28.09 563.49,27.99 564.35,27.86 565.26,27.76 566.12,27.63 567.01,27.5 567.87,27.36 568.76,27.21
				569.64,27.06 570.51,26.91 571.37,26.75 572.25,26.58 573.1,26.41 573.98,26.22 574.85,26.03 575.71,25.82 576.55,25.63
				577.42,25.42 578.28,25.21 579.14,24.98 			"/>
			<text transform="matrix(0.9868 0 0 1 568.6143 23.248)" class="st1 st6 st12">●</text>
			<text transform="matrix(1 0 0 1 568.6953 23.1729)" class="st13 st6 st14">●</text>
		</g>
		<ellipse class="st1" cx="526.69" cy="26.5" rx="0.54" ry="0.54"/>
		<ellipse class="st1" cx="527.96" cy="25.52" rx="0.54" ry="0.54"/>
		<ellipse class="st1" cx="529.25" cy="16.25" rx="0.54" ry="0.54"/>
		<ellipse class="st1" cx="528.31" cy="18.08" rx="0.54" ry="0.54"/>
		<ellipse class="st1" cx="557.3" cy="20.66" rx="0.54" ry="0.54"/>
		<ellipse class="st1" cx="560.7" cy="29.09" rx="0.54" ry="0.54"/>
		<ellipse class="st1" cx="561.07" cy="33.86" rx="0.54" ry="0.54"/>
		<ellipse class="st1" cx="564.57" cy="32.21" rx="0.54" ry="0.54"/>
		<ellipse class="st1" cx="571.13" cy="39.44" rx="0.54" ry="0.54"/>
		<ellipse class="st1" cx="561.27" cy="40.98" rx="0.54" ry="0.54"/>
		<ellipse class="st1" cx="572.99" cy="31.49" rx="0.54" ry="0.54"/>
		<ellipse class="st1" cx="574.25" cy="29.09" rx="0.54" ry="0.54"/>
		<ellipse class="st1" cx="573.1" cy="28.63" rx="0.54" ry="0.54"/>
		<ellipse class="st1" cx="577.86" cy="23.27" rx="0.54" ry="0.54"/>
		<ellipse class="st1" cx="578.01" cy="22.42" rx="0.54" ry="0.54"/>
		<ellipse class="st1" cx="575.84" cy="25.44" rx="0.54" ry="0.54"/>
		<ellipse class="st1" cx="576.72" cy="19.1" rx="0.54" ry="0.54"/>
		<ellipse class="st1" cx="570.99" cy="25.63" rx="0.54" ry="0.54"/>
	</g>
	<g id="constellation_2_">
		<g>
			<polyline class="st15" points="418.33,30.15 418.11,31.28 417.92,32.43 417.71,33.59 417.49,34.74 417.28,35.89 			"/>
			<polyline class="st15" points="403.74,39.49 402.79,38.81 401.86,38.15 400.92,37.47 399.98,36.8 399.07,36.11 398.16,35.44
				397.27,34.74 396.39,34.04 395.5,33.32 394.62,32.62 393.76,31.89 392.9,31.17 392.04,30.47 391.21,29.75 390.38,29 			"/>
			<polyline class="st15" points="410.49,56.36 409.71,55.47 408.93,54.62 408.18,53.73 407.43,52.85 406.68,51.96 405.93,51.08
				405.21,50.19 404.49,49.28 403.76,48.39 403.06,47.51 402.34,46.59 401.67,45.68 400.97,44.77 400.3,43.85 399.61,42.95
				398.93,42.03 398.29,41.12 397.62,40.19 396.97,39.27 396.33,38.33 395.71,37.42 395.1,36.48 394.48,35.54 393.86,34.63
				393.28,33.69 392.68,32.75 392.09,31.82 391.51,30.88 390.94,29.93 390.38,29 			"/>
			<polyline class="st15" points="390.38,29 391.42,29.4 392.49,29.75 393.57,30.12 394.64,30.5 395.74,30.82 396.82,31.17
				397.92,31.52 399.01,31.84 400.11,32.16 401.24,32.46 402.34,32.75 403.47,33.08 404.59,33.35 405.72,33.61 406.84,33.88
				408,34.15 409.12,34.39 410.28,34.63 411.46,34.87 412.61,35.09 413.76,35.3 414.92,35.51 416.1,35.7 417.28,35.89 			"/>
			<polyline class="st15" points="417.28,35.89 416.1,35.7 414.92,35.51 413.76,35.3 412.61,35.09 411.46,34.87 410.28,34.63
				409.12,34.39 408,34.15 406.84,33.88 405.72,33.61 404.59,33.35 403.47,33.08 402.34,32.75 401.24,32.46 400.11,32.16
				399.01,31.84 397.92,31.52 396.82,31.17 395.74,30.82 394.64,30.5 393.57,30.12 392.49,29.75 391.42,29.4 390.38,29 			"/>
			<polyline class="st15" points="360.23,49.28 359.29,48.55 358.35,47.85 357.44,47.13 356.53,46.38 355.62,45.65 354.7,44.93
				353.82,44.21 352.93,43.46 352.08,42.71 351.18,41.96 350.33,41.18 349.5,40.43 348.64,39.65 347.81,38.87 346.98,38.12
				346.17,37.31 			"/>
			<polyline class="st15" points="410.28,36.19 411.43,36.19 412.61,36.13 413.76,36.08 414.95,36.02 416.1,35.97 417.28,35.89
				"/>
			<polyline class="st15" points="347.89,36.13 349.07,36.11 350.25,36.08 351.43,36.02 352.61,35.97 353.76,35.92 354.92,35.84
				356.1,35.75 357.28,35.65 358.43,35.57 359.58,35.46 360.71,35.33 361.89,35.22 363.02,35.09 364.17,34.95 365.32,34.79
				366.45,34.63 367.58,34.47 368.71,34.28 369.83,34.1 370.93,33.91 372.06,33.72 373.16,33.5 374.29,33.26 375.38,33.05
				376.48,32.81 377.58,32.54 378.66,32.33 379.75,32.03 380.86,31.79 381.93,31.49 383,31.22 384.07,30.93 385.12,30.61
				386.2,30.31 387.24,29.99 388.29,29.67 389.36,29.32 390.38,29 			"/>
			<polyline class="st15" points="395.15,41.2 396.28,41.01 397.41,40.8 398.53,40.61 399.66,40.4 400.78,40.16 401.91,39.94
				403.01,39.73 404.14,39.46 405.24,39.19 406.36,38.95 407.49,38.68 408.56,38.41 409.66,38.12 410.76,37.82 411.86,37.52
				412.96,37.21 414.04,36.91 415.11,36.56 416.21,36.24 417.28,35.89 			"/>
			<polyline class="st15" points="346.17,37.31 347.3,37.55 348.42,37.79 349.55,38.01 350.71,38.22 351.83,38.44 352.99,38.66
				354.11,38.84 355.24,39 356.39,39.19 357.52,39.35 358.67,39.51 359.79,39.65 360.93,39.78 362.08,39.92 363.21,40.05
				364.36,40.16 365.51,40.26 366.64,40.37 367.79,40.45 368.95,40.5 370.07,40.58 371.22,40.64 372.35,40.69 373.51,40.75
				374.66,40.8 375.79,40.8 376.91,40.82 378.1,40.82 379.22,40.82 380.35,40.82 381.5,40.8 382.62,40.8 383.78,40.77 384.9,40.72
				386.03,40.67 387.18,40.61 388.31,40.56 389.46,40.48 390.59,40.37 391.71,40.29 392.85,40.19 393.97,40.07 395.1,39.97
				396.22,39.83 397.35,39.73 398.48,39.56 399.61,39.41 400.73,39.27 401.83,39.08 402.96,38.92 404.06,38.73 405.18,38.54
				406.31,38.33 407.41,38.12 408.51,37.91 409.63,37.69 410.71,37.47 411.81,37.23 412.91,36.96 414.04,36.72 415.11,36.45
				416.18,36.19 417.28,35.89 			"/>
			<text transform="matrix(0.9868 0 0 1 410.3027 56.5063)" class="st1 st6 st16">●</text>
			<text transform="matrix(1 0 0 1 410.3535 56.4595)" class="st17 st6 st18">●</text>
		</g>
		<ellipse class="st1" cx="395.04" cy="41.23" rx="0.78" ry="0.78"/>
		<ellipse class="st1" cx="360.23" cy="49.28" rx="0.78" ry="0.78"/>
		<ellipse class="st1" cx="346.17" cy="37.31" rx="0.78" ry="0.78"/>
		<ellipse class="st1" cx="347.89" cy="36.13" rx="0.78" ry="0.78"/>
		<ellipse class="st1" cx="390.38" cy="29.13" rx="0.78" ry="0.78"/>
		<ellipse class="st1" cx="403.74" cy="39.49" rx="0.78" ry="0.78"/>
		<ellipse class="st1" cx="410.36" cy="36.19" rx="0.78" ry="0.78"/>
		<ellipse class="st1" cx="417.28" cy="35.89" rx="0.78" ry="0.78"/>
		<ellipse class="st1" cx="418.33" cy="30.37" rx="0.78" ry="0.78"/>
	</g>
	<g id="constellation_3_">
		<polyline class="st19" points="56.4,43.01 57.13,43.98 57.85,44.95 58.58,45.89 59.31,46.86 60.09,47.83 60.85,48.77 61.63,49.72
					"/>
		<polyline class="st20" points="103.09,52.89 102.4,53.97 101.7,55.02 100.97,56.09 		"/>
		<polyline class="st19" points="101.35,50.47 100.21,50.6 99.08,50.71 97.96,50.82 96.82,50.92 95.69,51.01 94.57,51.11
			93.4,51.19 92.3,51.25 91.15,51.3 90.01,51.33 88.89,51.38 87.73,51.43 86.62,51.43 85.47,51.43 84.34,51.43 83.18,51.43
			82.05,51.43 80.92,51.43 79.76,51.38 78.66,51.33 77.5,51.3 76.37,51.25 75.22,51.19 74.08,51.11 72.95,51.01 71.83,50.92
			70.69,50.84 69.54,50.71 68.41,50.6 67.27,50.47 66.14,50.36 65.02,50.19 63.88,50.04 62.75,49.9 61.63,49.72 		"/>
		<polyline class="st19" points="113.72,50.36 112.6,50.44 111.46,50.47 110.33,50.5 109.21,50.55 108.07,50.55 106.97,50.57
			105.84,50.57 104.71,50.55 103.58,50.55 102.45,50.52 101.35,50.47 		"/>
		<line class="st19" x1="114.83" y1="47.96" x2="101.35" y2="50.47"/>
		<polyline class="st20" points="100.97,56.09 101.7,55.02 102.4,53.97 103.09,52.89 		"/>
		<polyline class="st19" points="61.63,49.72 62.75,49.9 63.88,50.04 65.02,50.19 66.14,50.36 67.27,50.47 68.41,50.6 69.54,50.71
			70.69,50.84 71.83,50.92 72.95,51.01 74.08,51.11 75.22,51.19 76.37,51.25 77.5,51.3 78.66,51.33 79.76,51.38 80.92,51.43
			82.05,51.43 83.18,51.43 84.34,51.43 85.47,51.43 86.62,51.43 87.73,51.43 88.89,51.38 90.01,51.33 91.15,51.3 92.3,51.25
			93.4,51.19 94.57,51.11 95.69,51.01 96.82,50.92 97.96,50.82 99.08,50.71 100.21,50.6 101.35,50.47 		"/>
		<ellipse class="st1" cx="61.63" cy="49.72" rx="0.78" ry="0.78"/>
		<ellipse class="st1" cx="101.18" cy="50.55" rx="0.78" ry="0.78"/>
		<ellipse class="st1" cx="113.72" cy="50.36" rx="0.78" ry="0.78"/>
		<ellipse class="st1" cx="103.09" cy="52.89" rx="0.78" ry="0.78"/>
		<ellipse class="st1" cx="100.97" cy="56.09" rx="0.78" ry="0.78"/>
		<ellipse class="st1" cx="114.83" cy="47.96" rx="0.78" ry="0.78"/>
		<ellipse class="st1" cx="56.4" cy="43.01" rx="0.78" ry="0.78"/>
	</g>
	<g>
		<g>
			<polyline class="st21" points="79.47,192.57 78.57,192.7 77.66,192.83 76.76,192.93 75.85,193.06 74.93,193.14 74.02,193.25
				73.11,193.33 72.19,193.42 71.26,193.5 70.34,193.56 69.43,193.65 68.48,193.69 67.55,193.74 66.63,193.77 65.7,193.82 			"/>
			<polyline class="st21" points="109.5,191.78 110.2,191.14 110.9,190.51 111.56,189.88 112.26,189.23 112.91,188.6 113.59,187.95
				114.26,187.29 114.89,186.63 115.52,185.98 116.18,185.31 116.79,184.66 117.42,183.99 118.05,183.31 118.64,182.64
				119.23,181.96 119.82,181.29 120.41,180.6 121,179.92 			"/>
			<polyline class="st21" points="90.38,200.81 89.5,200.66 88.61,200.49 87.73,200.31 86.84,200.13 85.96,199.97 85.12,199.76
				84.23,199.56 83.35,199.38 82.51,199.14 81.65,198.93 80.76,198.7 79.9,198.49 79.05,198.26 78.21,198.02 77.35,197.78
				76.51,197.52 75.64,197.27 74.8,197.02 73.96,196.76 73.11,196.49 72.29,196.22 71.45,195.93 70.63,195.65 69.79,195.35
				68.96,195.06 68.15,194.74 67.32,194.45 66.5,194.13 65.7,193.82 			"/>
			<polyline class="st21" points="90.38,200.81 89.5,200.62 88.61,200.41 87.73,200.2 86.87,199.97 86,199.76 85.12,199.52
				84.28,199.29 83.41,199.04 82.55,198.79 81.68,198.54 80.82,198.28 79.98,198.02 79.13,197.75 			"/>
			<polyline class="st21" points="122.22,179.66 121.25,179.66 120.32,179.66 119.36,179.64 118.39,179.62 117.47,179.58
				116.51,179.54 115.57,179.5 114.62,179.43 113.67,179.37 			"/>
			<polyline class="st21" points="118.05,176.36 117.34,176.8 116.62,177.24 115.91,177.68 115.19,178.13 114.43,178.55
				113.72,178.99 112.98,179.41 112.24,179.82 111.48,180.24 110.72,180.63 109.97,181.01 109.21,181.43 108.45,181.81
				107.67,182.19 106.87,182.59 106.09,182.95 105.32,183.33 104.51,183.71 103.73,184.04 102.91,184.4 102.14,184.76 101.29,185.1
				100.49,185.43 99.67,185.77 98.85,186.08 98,186.41 97.19,186.74 96.34,187.04 95.52,187.35 94.66,187.65 93.82,187.95
				92.95,188.24 92.11,188.51 91.25,188.76 90.38,189.04 89.5,189.31 88.66,189.57 87.77,189.81 86.89,190.04 86,190.28
				85.12,190.53 84.21,190.74 83.33,190.95 82.43,191.18 81.52,191.37 80.61,191.58 79.7,191.78 78.8,191.97 77.87,192.13
				76.94,192.3 76.04,192.47 75.11,192.64 74.19,192.78 73.24,192.91 72.32,193.06 71.39,193.19 70.44,193.32 69.5,193.42
				68.54,193.54 67.6,193.65 66.65,193.74 65.7,193.82 			"/>
			<polyline class="st21" points="79.13,197.75 78.29,197.54 77.43,197.36 76.57,197.12 75.73,196.91 74.88,196.68 74.02,196.45
				73.18,196.2 72.34,195.96 71.49,195.72 70.67,195.46 69.83,195.21 69.01,194.93 68.17,194.66 67.34,194.39 66.5,194.11
				65.7,193.82 			"/>
			<polyline class="st21" points="79.13,197.75 79.98,198.02 80.82,198.28 81.68,198.54 82.55,198.79 83.41,199.04 84.28,199.29
				85.12,199.52 86,199.76 86.87,199.97 87.73,200.2 88.61,200.41 89.5,200.62 90.38,200.81 			"/>
			<polyline class="st21" points="79.13,197.75 78.55,197.02 77.98,196.28 77.41,195.54 76.86,194.79 76.29,194.05 75.77,193.32
				75.22,192.55 74.69,191.79 74.17,191.04 73.66,190.28 73.16,189.52 72.65,188.76 72.14,187.98 71.64,187.23 71.18,186.45
				70.71,185.69 70.23,184.91 69.79,184.13 69.32,183.37 68.86,182.59 68.44,181.81 68.02,181.04 67.6,180.26 67.18,179.5
				66.76,178.7 66.35,177.92 65.96,177.14 65.57,176.38 65.2,175.58 64.82,174.8 64.44,174.02 64.08,173.24 			"/>
			<polyline class="st21" points="104.49,180.84 103.73,181.26 103,181.67 102.24,182.07 101.48,182.45 100.72,182.85 99.96,183.21
				99.18,183.58 98.42,183.96 97.63,184.32 96.85,184.68 96.07,185.06 95.27,185.4 94.47,185.73 93.65,186.07 92.84,186.41
				92.03,186.74 91.2,187.06 90.41,187.38 89.56,187.69 88.74,188 87.9,188.3 87.05,188.6 86.21,188.87 85.37,189.16 84.5,189.44
				83.66,189.71 82.78,189.99 81.92,190.24 81.05,190.49 80.19,190.74 79.31,190.98 78.42,191.21 77.54,191.44 76.65,191.67
				75.77,191.88 74.87,192.09 73.96,192.3 73.05,192.49 72.14,192.68 71.22,192.87 70.31,193.04 69.41,193.2 68.48,193.38
				67.55,193.52 66.63,193.67 65.7,193.82 			"/>
			<polyline class="st21" points="119.57,180.32 118.81,180.7 118.05,181.1 117.29,181.48 116.54,181.85 115.78,182.22
				115.02,182.59 114.24,182.95 113.46,183.29 112.66,183.65 111.9,183.99 111.11,184.32 110.3,184.66 109.52,184.99 108.71,185.31
				107.93,185.64 107.1,185.94 106.31,186.24 105.48,186.55 104.66,186.85 103.84,187.14 103.01,187.41 102.2,187.69 101.36,187.98
				100.53,188.24 99.69,188.51 98.85,188.76 98,189.02 97.14,189.25 96.3,189.48 95.44,189.71 94.58,189.94 93.71,190.17
				92.84,190.36 91.98,190.59 91.1,190.79 90.23,190.98 89.35,191.16 88.49,191.35 87.6,191.54 86.72,191.71 85.82,191.88
				84.95,192.02 84.02,192.18 83.14,192.32 82.25,192.47 81.35,192.6 80.45,192.72 79.54,192.83 78.63,192.96 77.71,193.06
				76.8,193.14 75.89,193.25 74.97,193.33 74.06,193.4 73.13,193.48 72.21,193.56 71.28,193.61 70.36,193.65 69.43,193.71
				68.51,193.74 67.58,193.77 66.63,193.79 65.7,193.82 			"/>
			<line class="st21" x1="78.8" y1="196.85" x2="79.13" y2="197.75"/>
			<polyline class="st21" points="89.5,207.02 88.82,206.37 88.15,205.74 87.47,205.1 86.81,204.43 86.15,203.78 85.49,203.12
				84.86,202.47 84.21,201.8 83.58,201.15 82.95,200.47 82.34,199.79 81.73,199.1 81.11,198.43 80.51,197.73 79.91,197.06
				79.33,196.37 78.76,195.67 78.17,194.97 77.62,194.28 77.06,193.56 76.51,192.87 75.94,192.15 75.41,191.46 74.88,190.74
				74.33,190.03 73.83,189.33 73.33,188.6 72.82,187.88 72.32,187.16 71.81,186.45 71.33,185.73 70.86,184.99 70.37,184.28
				69.92,183.54 69.45,182.8 69.01,182.09 68.54,181.35 68.1,180.61 67.68,179.88 67.26,179.16 66.84,178.4 66.42,177.66
				66.02,176.93 65.62,176.22 65.24,175.46 64.84,174.72 64.46,173.98 64.08,173.24 			"/>
			<polyline class="st21" points="102.01,180.91 101.39,181.48 100.79,182.07 100.13,182.64 99.52,183.21 98.85,183.79
				98.21,184.36 97.56,184.93 96.91,185.48 96.23,186.05 95.57,186.6 94.87,187.16 94.19,187.69 93.48,188.24 92.78,188.76
				92.09,189.31 91.37,189.86 90.65,190.36 89.92,190.89 89.18,191.42 88.46,191.94 87.73,192.45 86.97,192.96 86.21,193.46
				85.46,193.97 84.68,194.45 83.9,194.93 83.12,195.41 82.34,195.9 81.56,196.37 80.74,196.85 79.96,197.29 79.13,197.75 			"/>
			<polyline class="st21" points="63.74,191.06 63.72,190.17 63.72,189.26 63.72,188.37 63.72,187.48 63.72,186.57 63.72,185.66
				63.72,184.78 63.74,183.88 63.77,182.99 63.77,182.11 63.8,181.2 63.8,180.32 63.83,179.41 63.87,178.52 63.89,177.65
				63.93,176.76 63.98,175.88 64,175.01 64.04,174.11 64.08,173.24 			"/>
			<polyline class="st21" points="64.08,173.24 64.44,174.02 64.82,174.8 65.2,175.58 65.57,176.38 65.96,177.14 66.35,177.92
				66.76,178.7 67.18,179.5 67.6,180.26 68.02,181.04 68.44,181.81 68.86,182.59 69.32,183.37 69.79,184.13 70.23,184.91
				70.71,185.69 71.18,186.45 71.64,187.23 72.14,187.98 72.65,188.76 73.16,189.52 73.66,190.28 74.17,191.04 74.69,191.79
				75.22,192.55 75.77,193.32 76.29,194.05 76.86,194.79 77.41,195.54 77.98,196.28 78.55,197.02 79.13,197.75 			"/>
			<polyline class="st21" points="121,179.92 120.18,180.21 119.36,180.5 118.56,180.78 117.71,181.07 116.9,181.35 116.07,181.6
				115.25,181.85 114.43,182.11 113.59,182.36 112.75,182.61 111.9,182.85 111.06,183.06 110.22,183.29 109.37,183.5 108.53,183.71
				107.69,183.92 106.83,184.13 105.98,184.3 105.12,184.49 104.26,184.66 103.4,184.85 102.53,185.01 101.67,185.16 100.81,185.31
				99.95,185.48 99.06,185.6 98.2,185.73 97.33,185.88 96.44,185.98 95.57,186.11 94.68,186.21 93.8,186.32 92.93,186.41
				92.03,186.49 91.16,186.57 90.26,186.65 89.39,186.74 88.49,186.78 87.6,186.85 86.72,186.91 85.82,186.93 84.93,186.97
				84.02,186.99 83.14,187.01 82.25,187.04 81.35,187.06 80.45,187.06 79.56,187.06 78.65,187.04 77.75,187.01 76.86,186.99
				75.94,186.96 75.05,186.91 74.15,186.87 73.24,186.83 72.34,186.76 71.45,186.7 70.55,186.63 69.64,186.55 68.73,186.47
				67.83,186.36 66.92,186.26 66.02,186.15 65.13,186.05 64.23,185.92 63.3,185.82 62.42,185.66 61.51,185.52 			"/>
			<polyline class="st21" points="114.26,190.7 113.42,190.91 112.58,191.12 111.74,191.35 110.87,191.54 110.01,191.73
				109.15,191.94 108.28,192.13 107.44,192.3 106.58,192.47 105.71,192.64 104.85,192.81 103.99,192.98 103.13,193.12
				102.24,193.25 101.37,193.4 100.49,193.52 99.61,193.65 98.75,193.77 97.86,193.88 96.99,193.98 96.11,194.09 95.23,194.19
				94.34,194.28 93.46,194.37 92.57,194.43 91.69,194.49 90.8,194.57 89.92,194.64 89.01,194.68 88.13,194.74 87.23,194.76
				86.34,194.81 85.46,194.83 84.55,194.85 83.66,194.87 82.76,194.87 81.88,194.87 80.99,194.87 80.06,194.85 79.18,194.83
				78.29,194.83 77.39,194.79 76.49,194.74 75.6,194.7 74.69,194.66 73.79,194.6 72.9,194.53 71.98,194.47 71.09,194.41
				70.21,194.32 69.28,194.24 68.4,194.13 67.49,194.03 66.59,193.92 65.7,193.82 			"/>
			<polyline class="st21" points="113.67,179.37 112.76,179.46 111.86,179.54 110.96,179.6 110.05,179.66 109.13,179.75
				108.22,179.79 107.29,179.84 106.39,179.88 105.48,179.92 104.57,179.92 103.67,179.94 102.77,179.96 101.86,179.96
				100.95,179.94 100.03,179.94 99.12,179.92 98.21,179.9 97.33,179.84 96.41,179.82 95.5,179.75 94.61,179.71 93.71,179.64
				92.81,179.56 91.92,179.5 91.01,179.41 90.11,179.31 89.22,179.2 88.32,179.1 87.44,178.99 86.55,178.86 85.64,178.74
				84.78,178.59 83.87,178.44 83.01,178.3 82.1,178.15 81.24,177.98 80.36,177.81 79.47,177.62 78.61,177.43 77.72,177.24
				76.86,177.06 76,176.85 75.11,176.64 74.25,176.4 73.41,176.19 72.55,175.96 71.69,175.71 70.82,175.46 69.98,175.2
				69.11,174.95 68.27,174.69 67.43,174.4 66.59,174.13 65.75,173.85 64.9,173.54 64.08,173.24 			"/>
			<polyline class="st21" points="65.7,193.82 66.5,194.11 67.34,194.39 68.17,194.66 69.01,194.93 69.83,195.21 70.67,195.46
				71.49,195.72 72.34,195.96 73.18,196.2 74.02,196.45 74.88,196.68 75.73,196.91 76.57,197.12 77.43,197.36 78.29,197.54
				79.13,197.75 			"/>
			<polyline class="st21" points="65.7,193.82 66.5,194.13 67.32,194.45 68.15,194.74 68.96,195.06 69.79,195.35 70.63,195.65
				71.45,195.93 72.29,196.22 73.11,196.49 73.96,196.76 74.8,197.02 75.64,197.27 76.51,197.52 77.35,197.78 78.21,198.02
				79.05,198.26 79.9,198.49 80.76,198.7 81.65,198.93 82.51,199.14 83.35,199.38 84.23,199.56 85.12,199.76 85.96,199.97
				86.84,200.13 87.73,200.31 88.61,200.49 89.5,200.66 90.38,200.81 			"/>
			<polyline class="st21" points="61.51,185.52 61.89,186.36 62.29,187.18 62.69,188.03 63.09,188.85 63.51,189.69 63.93,190.51
				64.37,191.35 64.79,192.18 65.24,192.99 65.7,193.82 			"/>
			<polyline class="st21" points="62.81,190.3 62.88,189.39 62.9,188.51 62.96,187.58 63.03,186.68 63.07,185.77 63.14,184.89
				63.2,183.96 63.24,183.08 63.3,182.17 63.38,181.26 63.45,180.36 63.53,179.48 63.59,178.57 63.68,177.68 63.74,176.8
				63.83,175.89 63.91,175.01 64,174.13 64.08,173.24 			"/>
			<polyline class="st21" points="73.34,196.2 72.48,195.96 71.64,195.72 70.8,195.46 69.94,195.21 69.07,194.93 68.23,194.66
				67.39,194.39 66.54,194.11 65.7,193.82 			"/>
		</g>
		<ellipse class="st1" cx="89.5" cy="207.12" rx="0.61" ry="0.61"/>
		<ellipse class="st1" cx="90.42" cy="200.89" rx="0.61" ry="0.61"/>
		<ellipse class="st1" cx="102.05" cy="180.93" rx="0.61" ry="0.61"/>
		<ellipse class="st1" cx="104.57" cy="180.83" rx="0.61" ry="0.61"/>
		<ellipse class="st1" cx="113.65" cy="179.33" rx="0.61" ry="0.61"/>
		<ellipse class="st1" cx="119.53" cy="180.34" rx="0.61" ry="0.61"/>
		<ellipse class="st1" cx="114.3" cy="190.76" rx="0.61" ry="0.61"/>
		<ellipse class="st1" cx="109.52" cy="191.75" rx="0.61" ry="0.61"/>
		<ellipse class="st1" cx="121.04" cy="180" rx="0.61" ry="0.61"/>
		<ellipse class="st1" cx="122.22" cy="179.6" rx="0.61" ry="0.61"/>
		<ellipse class="st1" cx="118.03" cy="176.38" rx="0.61" ry="0.61"/>
		<ellipse class="st1" cx="79.07" cy="197.75" rx="0.61" ry="0.61"/>
		<ellipse class="st1" cx="78.76" cy="196.74" rx="0.61" ry="0.61"/>
		<ellipse class="st1" cx="79.47" cy="192.62" rx="0.61" ry="0.61"/>
		<ellipse class="st1" cx="73.39" cy="196.17" rx="0.61" ry="0.61"/>
		<ellipse class="st1" cx="65.66" cy="193.77" rx="0.61" ry="0.61"/>
		<ellipse class="st1" cx="63.72" cy="191.04" rx="0.61" ry="0.61"/>
		<ellipse class="st1" cx="62.8" cy="190.28" rx="0.61" ry="0.61"/>
		<ellipse class="st1" cx="61.51" cy="185.48" rx="0.61" ry="0.61"/>
		<ellipse class="st1" cx="64.14" cy="173.18" rx="0.61" ry="0.61"/>
	</g>
	<g id="constellation_4_">
		<g>
			<g>
				<g>
					<polyline class="st22" points="193.46,123.88 194.8,123.1 196.14,122.3 					"/>
				</g>
			</g>
			<g>
				<g>
					<polyline class="st22" points="149.1,127.16 150.22,127.24 151.38,127.32 152.53,127.37 153.65,127.42 154.81,127.47
						155.96,127.54 157.12,127.54 158.24,127.56 159.43,127.59 160.55,127.59 161.68,127.59 162.86,127.56 163.99,127.54
						165.15,127.5 166.3,127.45 167.43,127.42 168.58,127.35 169.74,127.29 170.86,127.21 171.99,127.13 173.14,127.03
						174.29,126.94 175.43,126.81 176.57,126.7 177.71,126.57 178.83,126.46 179.96,126.3 181.11,126.14 182.24,125.97
						183.37,125.82 184.49,125.63 185.62,125.43 186.75,125.25 187.88,125.04 188.98,124.82 190.1,124.61 191.23,124.36
						192.33,124.12 193.46,123.88 					"/>
				</g>
			</g>
			<g>
				<g>
					<polyline class="st22" points="196.14,122.3 194.8,123.1 193.46,123.88 					"/>
				</g>
			</g>
			<g>
				<g>
					<line class="st22" x1="187.47" y1="152.82" x2="186.16" y2="151.44"/>
				</g>
			</g>
			<g>
				<g>
					<polyline class="st22" points="189.05,140.23 188.79,141.38 188.52,142.48 188.23,143.64 187.98,144.73 187.66,145.86
						187.4,146.97 187.1,148.11 186.8,149.22 186.48,150.32 186.16,151.44 					"/>
				</g>
			</g>
			<g>
				<g>
					<polyline class="st22" points="180.74,127.59 181.11,128.66 181.49,129.73 181.86,130.8 182.24,131.91 182.62,132.98
						183.02,134.05 183.39,135.12 183.8,136.2 184.2,137.28 184.6,138.35 185.01,139.42 185.41,140.5 185.84,141.57 186.26,142.64
						186.67,143.72 187.1,144.76 187.53,145.84 187.96,146.88 188.39,147.96 188.82,149 189.27,150.08 189.7,151.12 190.13,152.17
						190.59,153.21 					"/>
				</g>
			</g>
			<g>
				<g>
					<polyline class="st22" points="190.59,153.21 189.41,152.87 188.25,152.46 187.07,152.09 185.92,151.68 184.76,151.29
						183.58,150.88 182.45,150.46 181.33,150.02 180.18,149.59 179.05,149.13 177.92,148.68 176.82,148.25 175.69,147.77
						174.6,147.28 173.49,146.83 172.42,146.32 171.35,145.84 170.24,145.35 169.19,144.82 168.12,144.3 167.05,143.79 166,143.26
						164.96,142.72 163.94,142.19 162.89,141.62 161.87,141.06 160.85,140.52 159.86,139.96 158.84,139.37 157.85,138.81
						156.85,138.18 155.88,137.62 154.92,137.01 153.93,136.42 152.99,135.8 152.02,135.15 151.05,134.54 150.15,133.92
						149.2,133.3 148.26,132.66 147.38,132.01 146.44,131.37 145.55,130.7 144.66,130.02 143.78,129.36 142.89,128.71
						142.04,128.04 141.18,127.35 140.32,126.67 139.46,125.97 138.6,125.28 137.79,124.58 136.96,123.88 136.13,123.18
						135.32,122.49 134.52,121.74 133.74,121.04 132.94,120.31 132.16,119.58 131.41,118.83 130.65,118.12 129.9,117.39
						129.15,116.64 128.4,115.91 127.65,115.16 126.96,114.41 126.23,113.65 125.5,112.9 					"/>
				</g>
			</g>
			<g>
				<g>
					<polyline class="st22" points="190.59,153.21 190.13,152.17 189.7,151.12 189.27,150.08 188.82,149 188.39,147.96
						187.96,146.88 187.53,145.84 187.1,144.76 186.67,143.72 186.26,142.64 185.84,141.57 185.41,140.5 185.01,139.42
						184.6,138.35 184.2,137.28 183.8,136.2 183.39,135.12 183.02,134.05 182.62,132.98 182.24,131.91 181.86,130.8 181.49,129.73
						181.11,128.66 180.74,127.59 					"/>
				</g>
			</g>
			<g>
				<g>
					<polyline class="st22" points="190.59,153.21 190.67,152.09 190.75,150.96 190.8,149.83 190.88,148.68 190.94,147.55
						190.99,146.43 191.07,145.27 191.1,144.15 191.18,142.99 191.21,141.87 191.26,140.74 191.31,139.58 191.31,138.46
						191.36,137.3 191.4,136.15 191.42,135.02 191.45,133.86 191.48,132.74 191.5,131.61 191.5,130.46 					"/>
				</g>
			</g>
			<g>
				<g>
					<line class="st22" x1="186.16" y1="151.44" x2="187.47" y2="152.82"/>
				</g>
			</g>
			<g>
				<g>
					<polyline class="st22" points="162.97,125.57 163.65,126.4 164.31,127.26 164.98,128.1 165.65,128.93 166.38,129.78
						167.05,130.62 167.78,131.45 168.5,132.28 169.19,133.11 169.95,133.95 170.7,134.75 171.42,135.58 172.2,136.39
						172.95,137.19 173.71,138 174.48,138.81 175.26,139.61 176.07,140.41 176.85,141.19 177.68,141.97 178.49,142.77
						179.29,143.52 180.12,144.3 180.95,145.09 181.79,145.84 182.64,146.61 183.51,147.36 184.36,148.11 185.22,148.87
						186.11,149.59 186.99,150.34 187.88,151.07 188.79,151.8 189.7,152.52 190.59,153.21 					"/>
				</g>
			</g>
			<g>
				<g>
					<polyline class="st22" points="127.3,124.31 128.43,124.55 129.56,124.77 130.68,124.99 131.84,125.17 132.96,125.38
						134.09,125.57 135.22,125.74 136.35,125.89 137.5,126.06 138.62,126.21 139.78,126.35 140.9,126.46 142.04,126.59
						143.19,126.7 144.32,126.81 145.47,126.89 146.63,126.99 147.75,127.08 148.91,127.13 150.03,127.21 151.16,127.26
						152.34,127.32 153.47,127.32 154.6,127.35 155.75,127.37 156.88,127.4 158.03,127.4 159.16,127.37 160.32,127.35
						161.47,127.32 162.6,127.32 163.72,127.26 164.88,127.21 165.98,127.13 167.13,127.08 168.26,126.99 169.41,126.91
						170.54,126.81 171.67,126.7 172.79,126.59 173.92,126.46 175.04,126.35 176.18,126.21 177.3,126.06 178.43,125.92
						179.53,125.74 180.68,125.6 181.79,125.38 182.91,125.19 184.01,125.01 185.11,124.82 186.24,124.61 187.34,124.36
						188.44,124.15 189.54,123.9 190.67,123.66 191.74,123.4 192.84,123.13 193.94,122.86 195.05,122.59 196.14,122.3 					"/>
				</g>
			</g>
			<g>
				<g>
					<polyline class="st22" points="191.5,130.46 191.5,131.61 191.48,132.74 191.45,133.86 191.42,135.02 191.4,136.15
						191.36,137.3 191.31,138.46 191.31,139.58 191.26,140.74 191.21,141.87 191.18,142.99 191.1,144.15 191.07,145.27
						190.99,146.43 190.94,147.55 190.88,148.68 190.8,149.83 190.75,150.96 190.67,152.09 190.59,153.21 					"/>
				</g>
			</g>
			<g>
				<g>
					<polyline class="st22" points="125.5,112.9 126.23,113.65 126.96,114.41 127.65,115.16 128.4,115.91 129.15,116.64
						129.9,117.39 130.65,118.12 131.41,118.83 132.16,119.58 132.94,120.31 133.74,121.04 134.52,121.74 135.32,122.49
						136.13,123.18 136.96,123.88 137.79,124.58 138.6,125.28 139.46,125.97 140.32,126.67 141.18,127.35 142.04,128.04
						142.89,128.71 143.78,129.36 144.66,130.02 145.55,130.7 146.44,131.37 147.38,132.01 148.26,132.66 149.2,133.3
						150.15,133.92 151.05,134.54 152.02,135.15 152.99,135.8 153.93,136.42 154.92,137.01 155.88,137.62 156.85,138.18
						157.85,138.81 158.84,139.37 159.86,139.96 160.85,140.52 161.87,141.06 162.89,141.62 163.94,142.19 164.96,142.72
						166,143.26 167.05,143.79 168.12,144.3 169.19,144.82 170.24,145.35 171.35,145.84 172.42,146.32 173.49,146.83 174.6,147.28
						175.69,147.77 176.82,148.25 177.92,148.68 179.05,149.13 180.18,149.59 181.33,150.02 182.45,150.46 183.58,150.88
						184.76,151.29 185.92,151.68 187.07,152.09 188.25,152.46 189.41,152.87 190.59,153.21 					"/>
				</g>
			</g>
			<g>
				<g>
					<polyline class="st22" points="122.47,125.38 123.32,126 124.22,126.62 125.07,127.24 125.93,127.86 126.82,128.44
						127.73,129.04 128.61,129.63 129.53,130.21 130.44,130.8 131.33,131.37 132.26,131.93 133.18,132.5 134.12,133.06
						135.06,133.62 136.02,134.19 136.96,134.73 137.9,135.26 138.86,135.8 139.83,136.31 140.8,136.82 141.8,137.33 142.79,137.84
						143.76,138.35 144.74,138.83 145.76,139.34 146.76,139.83 147.78,140.31 148.8,140.76 149.82,141.22 150.84,141.7
						151.88,142.13 152.9,142.57 153.95,143.01 155.03,143.45 156.07,143.85 157.12,144.28 158.19,144.71 159.26,145.11
						160.34,145.49 161.42,145.89 162.51,146.26 163.59,146.65 164.69,147.02 165.76,147.4 166.89,147.72 167.99,148.06
						169.09,148.42 170.21,148.76 171.35,149.08 172.47,149.4 173.6,149.71 174.73,150 175.85,150.29 177.03,150.59 178.17,150.85
						179.31,151.15 180.47,151.39 181.65,151.66 182.81,151.9 183.96,152.14 185.14,152.36 186.29,152.6 187.47,152.82 					"/>
				</g>
			</g>
		</g>
		<ellipse class="st1" cx="163.19" cy="125.6" rx="0.78" ry="0.78"/>
		<ellipse class="st1" cx="149.12" cy="127.1" rx="0.78" ry="0.78"/>
		<ellipse class="st1" cx="127.22" cy="124.31" rx="0.78" ry="0.78"/>
		<ellipse class="st1" cx="125.53" cy="112.93" rx="0.78" ry="0.78"/>
		<ellipse class="st1" cx="122.55" cy="125.6" rx="0.78" ry="0.78"/>
		<ellipse class="st1" cx="180.58" cy="131.1" rx="0.78" ry="0.78"/>
		<ellipse class="st1" cx="191.48" cy="130.6" rx="0.78" ry="0.78"/>
		<ellipse class="st1" cx="196.01" cy="122.4" rx="0.78" ry="0.78"/>
		<ellipse class="st1" cx="193.43" cy="123.88" rx="0.78" ry="0.78"/>
		<ellipse class="st1" cx="188.93" cy="140.55" rx="0.78" ry="0.78"/>
		<ellipse class="st1" cx="190.75" cy="153.27" rx="0.78" ry="0.78"/>
		<ellipse class="st1" cx="187.42" cy="152.79" rx="0.78" ry="0.78"/>
		<ellipse class="st1" cx="186.21" cy="151.53" rx="0.78" ry="0.78"/>
		<ellipse class="st1" cx="180.71" cy="127.64" rx="0.78" ry="0.78"/>
	</g>
	<g>
		<g>
			<polyline class="st23" points="540.28,151.9 539.07,152.6 537.86,153.29 536.66,153.98 535.41,154.67 534.2,155.32
				532.96,155.98 531.67,156.61 530.44,157.26 529.16,157.88 527.88,158.54 526.6,159.12 525.32,159.75 524.01,160.33
				522.73,160.92 521.42,161.51 520.11,162.1 518.76,162.64 517.45,163.2 516.1,163.75 514.76,164.27 513.41,164.79 512.06,165.3
				510.72,165.82 509.33,166.31 507.95,166.83 506.57,167.27 505.19,167.76 503.78,168.21 502.36,168.66 500.94,169.11
				499.53,169.52 498.15,169.97 496.7,170.38 495.25,170.76 493.83,171.14 492.38,171.52 490.93,171.9 489.48,172.25 488.03,172.62
				486.54,172.94 485.05,173.29 483.61,173.59 482.12,173.87 480.6,174.18 479.11,174.45 477.63,174.73 476.11,175.01
				474.63,175.25 473.11,175.53 471.59,175.74 470.07,175.94 468.55,176.15 466.99,176.35 465.48,176.52 			"/>
			<polyline class="st23" points="541.83,155.6 540.59,156.22 539.35,156.85 538.1,157.43 536.86,158.05 535.58,158.68
				534.34,159.23 533.06,159.82 531.78,160.4 530.47,160.95 529.19,161.51 527.88,162.06 526.6,162.57 525.29,163.09 523.98,163.65
				522.63,164.13 521.32,164.61 519.98,165.13 518.62,165.58 517.27,166.1 515.93,166.55 514.58,167 513.2,167.45 511.82,167.89
				510.44,168.31 509.06,168.72 507.67,169.14 506.3,169.52 504.92,169.9 503.5,170.28 502.08,170.66 500.67,171.01 499.25,171.38
				497.87,171.7 496.42,172.04 494.97,172.35 493.55,172.66 492.11,172.94 490.69,173.25 489.2,173.52 487.79,173.8 486.3,174.04
				484.85,174.28 483.37,174.52 481.88,174.77 480.43,174.97 478.94,175.18 477.46,175.39 475.97,175.53 474.49,175.74 473,175.91
				471.49,176.04 469.96,176.18 468.48,176.32 466.96,176.43 465.48,176.52 			"/>
			<polyline class="st23" points="527.33,165.37 525.77,165.69 524.18,165.99 522.59,166.27 521.04,166.51 			"/>
			<polyline class="st23" points="521.04,166.51 519.7,166.96 518.35,167.38 517.01,167.79 515.66,168.21 514.27,168.62
				512.92,169.03 511.55,169.42 510.17,169.8 508.78,170.14 507.4,170.52 506.02,170.83 504.61,171.21 503.22,171.52 501.81,171.83
				500.39,172.15 498.98,172.45 497.56,172.77 496.14,173.04 494.69,173.29 493.31,173.56 491.86,173.8 490.41,174.04
				488.96,174.28 487.51,174.49 486.1,174.7 484.61,174.9 483.2,175.08 481.71,175.25 480.26,175.42 478.81,175.6 477.32,175.74
				475.84,175.87 474.39,176.01 472.9,176.11 471.42,176.22 469.93,176.32 468.45,176.39 466.96,176.49 465.48,176.52 			"/>
			<polyline class="st23" points="511.41,154.95 510.27,155.67 509.06,156.43 507.92,157.15 506.71,157.88 505.5,158.61
				504.29,159.33 503.08,160.05 501.88,160.74 500.63,161.43 499.39,162.12 498.11,162.82 496.87,163.51 495.59,164.17
				494.28,164.79 493,165.44 491.68,166.1 490.41,166.72 489.1,167.35 487.79,167.97 486.4,168.55 485.09,169.18 483.74,169.72
				482.4,170.32 481.02,170.9 479.63,171.45 478.25,172 476.87,172.56 475.49,173.07 474.08,173.59 472.66,174.11 471.21,174.63
				469.79,175.11 468.35,175.6 466.93,176.08 465.48,176.52 			"/>
			<polyline class="st23" points="495.9,174.43 494.48,174.63 493.04,174.84 491.62,175.01 490.2,175.18 488.75,175.36
				487.33,175.49 485.85,175.63 484.44,175.77 482.99,175.87 481.54,175.98 480.08,176.08 478.64,176.18 477.19,176.26
				475.73,176.35 474.25,176.39 472.8,176.46 471.35,176.49 469.86,176.49 468.41,176.52 466.93,176.52 465.48,176.52 			"/>
			<polyline class="st23" points="465.48,176.52 466.96,176.49 468.45,176.39 469.93,176.32 471.42,176.22 472.9,176.11
				474.39,176.01 475.84,175.87 477.32,175.74 478.81,175.6 480.26,175.42 481.71,175.25 483.2,175.08 484.61,174.9 486.1,174.7
				487.51,174.49 488.96,174.28 490.41,174.04 491.86,173.8 493.31,173.56 494.69,173.29 496.14,173.04 497.56,172.77
				498.98,172.45 500.39,172.15 501.81,171.83 503.22,171.52 504.61,171.21 506.02,170.83 507.4,170.52 508.78,170.14 510.17,169.8
				511.55,169.42 512.92,169.03 514.27,168.62 515.66,168.21 517.01,167.79 518.35,167.38 519.7,166.96 521.04,166.51 			"/>
			<polyline class="st23" points="534.23,170.9 532.72,170.45 531.23,170 529.78,169.55 528.26,169.03 526.81,168.58 525.36,168.07
				523.91,167.55 522.46,167.03 521.04,166.51 			"/>
			<polyline class="st23" points="542.77,152.63 541.66,153.67 540.52,154.67 539.38,155.67 538.21,156.67 537.07,157.67
				535.89,158.68 534.72,159.64 533.51,160.61 532.3,161.58 531.09,162.54 529.84,163.51 528.61,164.44 527.33,165.37 			"/>
			<polyline class="st23" points="467.14,179.95 466.3,178.26 465.48,176.52 			"/>
			<polyline class="st23" points="499.08,172.77 497.49,173.59 495.9,174.43 			"/>
		</g>
		<ellipse class="st1" cx="465.55" cy="176.49" rx="1" ry="1"/>
		<ellipse class="st1" cx="467.27" cy="179.95" rx="1" ry="1"/>
		<ellipse class="st1" cx="495.79" cy="174.28" rx="1" ry="1"/>
		<ellipse class="st1" cx="499.04" cy="172.66" rx="1" ry="1"/>
		<ellipse class="st1" cx="534.41" cy="171.01" rx="1.01" ry="1"/>
		<ellipse class="st1" cx="541.8" cy="155.74" rx="1.01" ry="1"/>
		<ellipse class="st1" cx="542.84" cy="152.77" rx="1.01" ry="1"/>
		<ellipse class="st1" cx="540.14" cy="152.11" rx="1.01" ry="1"/>
		<ellipse class="st1" cx="527.47" cy="165.3" rx="1.01" ry="1"/>
		<ellipse class="st1" cx="521.08" cy="166.48" rx="1.01" ry="1"/>
		<ellipse class="st1" cx="511.27" cy="155.01" rx="1.01" ry="1"/>
	</g>
	<g id="constellation_5_">
		<g>
			<polyline class="st24" points="588.23,106.05 587.15,106.39 586.07,106.73 584.98,107.04 			"/>
			<polyline class="st24" points="584.98,107.04 584.96,108.1 584.94,109.16 584.9,110.24 			"/>
			<line class="st24" x1="577.49" y1="120.23" x2="578.1" y2="120.05"/>
			<line class="st24" x1="584.2" y1="106.84" x2="584.98" y2="107.04"/>
			<polyline class="st24" points="561.77,105.74 562.73,105.9 563.66,106.01 564.62,106.14 565.57,106.28 566.51,106.39
				567.48,106.48 568.42,106.59 569.39,106.68 570.36,106.77 571.3,106.84 572.27,106.91 573.26,106.98 574.23,107.02 575.2,107.07
				576.16,107.09 577.13,107.11 578.12,107.13 579.11,107.16 580.08,107.16 581.07,107.16 582.04,107.13 583.03,107.11
				584.02,107.09 584.98,107.04 			"/>
			<polyline class="st24" points="585.59,109.7 585.3,108.37 584.98,107.04 			"/>
			<polyline class="st24" points="581.11,114.54 581.57,113.7 582.02,112.87 582.47,112.04 582.91,111.21 583.34,110.37
				583.77,109.54 584.17,108.71 584.6,107.88 584.98,107.04 			"/>
			<polyline class="st24" points="576.77,136.63 577.13,135.71 577.45,134.81 577.78,133.89 578.12,132.96 578.44,132.04
				578.75,131.12 579.04,130.22 579.36,129.3 579.65,128.35 579.95,127.43 580.24,126.51 580.53,125.58 580.8,124.64 581.07,123.74
				581.34,122.79 581.59,121.87 581.84,120.95 582.08,120 582.33,119.08 582.58,118.16 582.8,117.21 583.03,116.29 583.25,115.37
				583.45,114.45 583.68,113.5 583.88,112.58 584.06,111.66 584.27,110.73 584.47,109.81 584.65,108.89 584.83,107.97
				584.98,107.04 			"/>
			<polyline class="st24" points="527,101.1 527.95,101.37 528.89,101.62 529.82,101.89 530.78,102.14 531.7,102.39 532.67,102.61
				533.62,102.84 534.56,103.04 535.53,103.26 536.48,103.47 537.44,103.65 538.41,103.83 539.35,104.01 540.32,104.16
				541.31,104.32 542.26,104.48 543.23,104.61 544.19,104.75 545.18,104.88 546.15,105 547.12,105.11 548.09,105.2 549.05,105.29
				550.04,105.38 551.01,105.47 552,105.54 552.97,105.58 553.93,105.65 554.92,105.67 555.89,105.72 556.88,105.74 557.87,105.74
				558.84,105.76 559.83,105.76 560.8,105.74 561.77,105.74 			"/>
			<polyline class="st24" points="584.9,110.24 583.97,110.49 583.07,110.73 582.15,110.96 581.23,111.21 580.3,111.41
				579.38,111.63 578.46,111.86 577.54,112.04 576.59,112.24 575.69,112.44 574.75,112.62 573.8,112.78 572.88,112.96
				571.93,113.12 571.01,113.28 570.07,113.41 569.12,113.57 568.18,113.68 567.23,113.82 566.29,113.93 565.34,114.02
				564.38,114.13 563.45,114.22 562.48,114.31 561.54,114.38 560.57,114.47 559.63,114.54 558.68,114.58 557.72,114.65
				556.77,114.67 555.8,114.72 554.84,114.74 553.89,114.76 552.92,114.78 551.95,114.78 551.01,114.78 550.04,114.76
				549.08,114.76 548.13,114.74 547.16,114.69 546.2,114.65 545.25,114.63 544.28,114.56 543.32,114.49 542.37,114.45 541.4,114.36
				540.43,114.29 539.49,114.2 538.52,114.09 537.55,113.97 			"/>
			<line class="st24" x1="578.1" y1="120.05" x2="577.49" y2="120.23"/>
			<polyline class="st24" points="525.92,104.3 526.6,104.93 527.27,105.56 527.97,106.19 528.67,106.82 529.36,107.45
				530.06,108.06 530.78,108.66 531.5,109.27 532.24,109.88 532.99,110.49 533.73,111.07 534.47,111.68 535.24,112.24 536,112.83
				536.79,113.41 537.55,113.97 			"/>
			<polyline class="st24" points="537.55,113.97 538.52,114.09 539.49,114.2 540.43,114.29 541.4,114.36 542.37,114.45
				543.32,114.49 544.28,114.56 545.25,114.63 546.2,114.65 547.16,114.69 548.13,114.74 549.08,114.76 550.04,114.76
				551.01,114.78 551.95,114.78 552.92,114.78 553.89,114.76 554.84,114.74 555.8,114.72 556.77,114.67 557.72,114.65
				558.68,114.58 559.63,114.54 560.57,114.47 561.54,114.38 562.48,114.31 563.45,114.22 564.38,114.13 565.34,114.02
				566.29,113.93 567.23,113.82 568.18,113.68 569.12,113.57 570.07,113.41 571.01,113.28 571.93,113.12 572.88,112.96
				573.8,112.78 574.75,112.62 575.69,112.44 576.59,112.24 577.54,112.04 578.46,111.86 579.38,111.63 580.3,111.41 581.23,111.21
				582.15,110.96 583.07,110.73 583.97,110.49 584.9,110.24 			"/>
			<polyline class="st24" points="537.55,113.97 536.79,113.41 536,112.83 535.24,112.24 534.47,111.68 533.73,111.07
				532.99,110.49 532.24,109.88 531.5,109.27 530.78,108.66 530.06,108.06 529.36,107.45 528.67,106.82 527.97,106.19
				527.27,105.56 526.6,104.93 525.92,104.3 			"/>
			<polyline class="st24" points="525.2,121.76 526.06,121.26 526.91,120.77 527.79,120.3 528.62,119.78 529.48,119.28
				530.31,118.79 531.14,118.25 531.95,117.73 532.78,117.21 533.59,116.7 534.41,116.16 535.19,115.62 536,115.08 536.79,114.54
				537.55,113.97 			"/>
			<line class="st24" x1="585.7" y1="110.26" x2="584.9" y2="110.24"/>
		</g>
		<ellipse class="st1" cx="537.62" cy="114.02" rx="0.65" ry="0.65"/>
		<ellipse class="st1" cx="561.72" cy="105.74" rx="0.65" ry="0.65"/>
		<ellipse class="st1" cx="577.18" cy="120.05" rx="0.65" ry="0.65"/>
		<ellipse class="st1" cx="578.39" cy="120.05" rx="0.65" ry="0.65"/>
		<ellipse class="st1" cx="576.75" cy="136.63" rx="0.65" ry="0.65"/>
		<ellipse class="st1" cx="581.14" cy="114.56" rx="0.65" ry="0.65"/>
		<ellipse class="st1" cx="584.9" cy="110.24" rx="0.65" ry="0.65"/>
		<ellipse class="st1" cx="585.64" cy="110.33" rx="0.65" ry="0.65"/>
		<ellipse class="st1" cx="585.64" cy="109.79" rx="0.65" ry="0.65"/>
		<ellipse class="st1" cx="584.04" cy="106.77" rx="0.65" ry="0.65"/>
		<ellipse class="st1" cx="584.96" cy="107.09" rx="0.65" ry="0.65"/>
		<ellipse class="st1" cx="588.29" cy="106.01" rx="0.65" ry="0.65"/>
		<ellipse class="st1" cx="525.7" cy="104.28" rx="0.65" ry="0.65"/>
		<ellipse class="st1" cx="527" cy="101.06" rx="0.65" ry="0.65"/>
		<ellipse class="st1" cx="525.25" cy="121.67" rx="0.65" ry="0.65"/>
	</g>
	<g>
		<g>
			<polygon class="st25" points="252.06,29.69 252.02,29.65 252.06,29.65 252.02,29.62 252,29.65 251.96,29.76 251.92,29.83
				251.92,29.93 251.92,29.96 251.96,29.96 252,29.93 252.02,29.89 252.02,29.83 252.02,29.79 252.06,29.76 			"/>
			<polyline class="st26" points="161.17,18.6 162.55,19.02 164,19.43 165.45,19.84 166.87,20.26 168.32,20.61 169.76,20.95
				171.22,21.33 172.67,21.64 174.12,21.99 175.57,22.33 177.05,22.61 178.5,22.88 179.96,23.2 181.44,23.44 182.89,23.71
				184.38,23.99 185.86,24.19 187.31,24.4 188.79,24.64 190.28,24.82 191.76,25.03 193.22,25.2 194.73,25.37 196.22,25.51
				197.7,25.65 199.19,25.78 200.67,25.89 202.16,25.96 203.64,26.06 205.13,26.13 206.61,26.2 208.13,26.27 209.65,26.3
				211.13,26.34 212.62,26.34 214.11,26.34 215.59,26.34 217.11,26.34 218.6,26.3 220.08,26.23 221.57,26.2 223.05,26.13
				224.57,26.06 226.06,25.96 227.54,25.85 229.03,25.75 230.51,25.61 232.03,25.48 233.51,25.3 235,25.13 236.49,24.96
				237.97,24.79 239.46,24.58 240.94,24.37 242.39,24.13 243.91,23.89 245.37,23.65 246.85,23.41 248.33,23.13 249.78,22.85
				251.23,22.54 252.71,22.23 254.17,21.92 255.65,21.57 257.1,21.22 			"/>
			<polyline class="st26" points="229.2,27.79 230.51,28.41 231.83,29.1 233.14,29.72 234.52,30.34 235.83,30.97 237.18,31.59
				238.55,32.17 239.94,32.76 241.32,33.35 242.7,33.94 244.12,34.49 245.54,35.04 246.95,35.59 			"/>
			<polyline class="st26" points="210.18,32.83 211.59,33.07 213.07,33.28 214.49,33.52 215.93,33.73 217.39,33.94 218.84,34.11
				220.29,34.28 221.78,34.45 223.22,34.63 224.71,34.76 226.16,34.9 227.61,35.01 229.1,35.11 230.58,35.21 232.03,35.32
				233.55,35.38 235,35.45 236.49,35.49 237.97,35.56 239.49,35.59 240.98,35.59 242.46,35.59 243.95,35.59 245.43,35.59
				246.95,35.59 			"/>
			<polyline class="st26" points="257.1,21.22 256.35,22.44 255.51,23.65 254.72,24.85 253.89,26.06 253.06,27.27 252.23,28.45
				251.37,29.65 250.54,30.82 249.64,32 248.75,33.21 247.85,34.39 246.95,35.59 			"/>
			<polyline class="st26" points="245.22,43.92 245.57,42.22 245.95,40.57 246.29,38.91 246.64,37.25 246.95,35.59 			"/>
			<polyline class="st26" points="179.82,31.35 181.27,31.69 182.68,32 184.1,32.31 185.51,32.62 186.93,32.93 188.38,33.21
				189.8,33.49 191.24,33.76 192.66,34 194.11,34.21 195.57,34.49 196.98,34.69 198.43,34.9 199.88,35.08 201.33,35.28
				202.78,35.45 204.26,35.59 205.68,35.77 207.17,35.9 208.62,36.04 210.07,36.15 211.55,36.28 213,36.39 214.49,36.46
				215.93,36.56 217.39,36.59 218.9,36.67 220.36,36.7 221.81,36.73 223.33,36.76 224.78,36.76 226.23,36.76 227.75,36.73
				229.2,36.73 230.69,36.7 232.17,36.67 233.66,36.59 235.11,36.52 236.59,36.42 238.07,36.35 239.56,36.25 241.01,36.15
				242.53,36.01 243.98,35.87 245.46,35.73 246.95,35.59 			"/>
			<polyline class="st26" points="246.95,35.59 247.85,34.39 248.75,33.21 249.64,32 250.54,30.82 251.37,29.65 252.23,28.45
				253.06,27.27 253.89,26.06 254.72,24.85 255.51,23.65 256.35,22.44 257.1,21.22 			"/>
		</g>
		<ellipse class="st1" cx="245.29" cy="43.88" rx="1" ry="1.01"/>
		<ellipse class="st1" cx="246.95" cy="35.77" rx="1" ry="1.01"/>
		<ellipse class="st1" cx="257.38" cy="21.4" rx="1" ry="1"/>
		<ellipse class="st1" cx="229.3" cy="27.82" rx="1" ry="1.01"/>
		<ellipse class="st1" cx="242.01" cy="26.34" rx="1" ry="1.01"/>
		<ellipse class="st1" cx="210.14" cy="32.86" rx="1" ry="1.01"/>
		<ellipse class="st1" cx="179.88" cy="31.27" rx="1" ry="1.01"/>
		<ellipse class="st1" cx="166.66" cy="64.43" rx="1" ry="1"/>
		<ellipse class="st1" cx="161.2" cy="18.6" rx="1" ry="1.01"/>
		<line class="st26" x1="242.01" y1="26.34" x2="246.95" y2="35.59"/>
		<line class="st26" x1="166.66" y1="64.43" x2="246.95" y2="35.59"/>
	</g>
</g>
</svg>
