<?xml version="1.0" encoding="utf-8"?>
<!-- Generator: Adobe Illustrator 23.1.1, SVG Export Plug-In . SVG Version: 6.00 Build 0)  -->
<svg version="1.1" id="Layer_1" xmlns="http://www.w3.org/2000/svg" xmlns:xlink="http://www.w3.org/1999/xlink" x="0px" y="0px"
	 viewBox="0 0 612 219.44" style="enable-background:new 0 0 612 219.44;" xml:space="preserve">
<style type="text/css">
	.st0{fill:url(#gradient_1_);}
	.st1{fill:#FFFFFF;}
	.st2{font-family:'Titillium Web';}
	.st3{font-size:34px;}
	.st4{fill:none;stroke:#FFFFFF;stroke-width:0.2456;stroke-linejoin:round;stroke-miterlimit:10;}
	.st5{font-family:'MyriadPro-Regular';}
	.st6{font-size:0.5479px;}
	.st7{fill:none;stroke:#FFFFFF;stroke-width:0.2286;stroke-linejoin:round;stroke-miterlimit:10;}
	.st8{fill:none;stroke:#FFFFFF;stroke-width:0.3033;stroke-linejoin:round;stroke-miterlimit:10;}

		.st9{opacity:0.102;fill:none;stroke:#FFFFFF;stroke-width:0.3033;stroke-linejoin:round;stroke-miterlimit:10;enable-background:new    ;}
	.st10{fill:none;stroke:#FFFFFF;stroke-width:0.1686;stroke-linejoin:round;stroke-miterlimit:10;}
	.st11{font-size:0.8147px;}
	.st12{fill:none;stroke:#FFFFFF;stroke-width:0.1686;stroke-linecap:round;stroke-linejoin:round;stroke-miterlimit:10;}
	.st13{font-size:0.536px;}
	.st14{fill:none;stroke:#FFFFFF;stroke-width:0.3304;stroke-linejoin:round;stroke-miterlimit:10;}
	.st15{font-size:0.7886px;}
	.st16{fill:none;stroke:#FFFFFF;stroke-width:0.3304;stroke-linecap:round;stroke-linejoin:round;stroke-miterlimit:10;}
	.st17{font-size:0.5187px;}
	.st18{fill:none;stroke:#FFFFFF;stroke-width:0.4175;stroke-linejoin:round;stroke-miterlimit:10;}

		.st19{opacity:0.702;fill:none;stroke:#FFFFFF;stroke-width:0.4175;stroke-linejoin:round;stroke-miterlimit:10;enable-background:new    ;}
	.st20{fill:none;stroke:#FFFFFF;stroke-width:0.1946;stroke-linejoin:round;stroke-miterlimit:10;}
	.st21{fill:none;stroke:#FFFFFF;stroke-width:0.2606;stroke-linejoin:round;stroke-miterlimit:10;}
	.st22{fill:none;stroke:#FFFFFF;stroke-width:0.3242;stroke-linejoin:round;stroke-miterlimit:10;}
	.st23{fill:none;stroke:#FFFFFF;stroke-width:0.2167;stroke-linejoin:round;stroke-miterlimit:10;}
	.st24{fill:#333333;}
	.st25{fill:none;stroke:#FFFFFF;stroke-width:0.2558;stroke-linejoin:round;stroke-miterlimit:10;}
	.st26{font-size:23px;}
	.st27{font-size:13px;}
</style>
<g>
	<g>

			<linearGradient id="gradient_1_" gradientUnits="userSpaceOnUse" x1="306.03" y1="-1156.9933" x2="306.03" y2="-936.5533" gradientTransform="matrix(1 0 0 -1 0 -918)">
			<stop  offset="0.1031" style="stop-color:#ABACB7"/>
			<stop  offset="0.1672" style="stop-color:#8F91A1"/>
			<stop  offset="0.224" style="stop-color:#7D8093"/>
			<stop  offset="0.2654" style="stop-color:#777A8E"/>
			<stop  offset="0.4511" style="stop-color:#5B5F70"/>
			<stop  offset="0.6778" style="stop-color:#191A26"/>
			<stop  offset="0.747" style="stop-color:#14151F"/>
			<stop  offset="0.8477" style="stop-color:#08080C"/>
			<stop  offset="0.8954" style="stop-color:#000000"/>
		</linearGradient>
		<rect id="gradient" x="0.03" y="-1" class="st0" width="612" height="220.44"/>
		<text transform="matrix(1 0 0 1 197.9185 140.4249)" class="st1 st2 st3">Points of Light:</text>
	</g>
</g>
<g id="new-icons">
	<g id="const">
		<polyline class="st4" points="531.03,126.27 529.91,126.66 528.81,127.07 527.71,127.44 526.57,127.83 525.45,128.24
			524.34,128.59 523.2,128.96 522.08,129.3 520.92,129.64 519.77,129.99 518.63,130.31 517.48,130.65 516.32,130.96 515.18,131.26
			514.01,131.57 512.86,131.83 511.68,132.11 510.51,132.37 509.34,132.63 508.16,132.88 506.97,133.14 505.8,133.38 504.62,133.61
			503.43,133.8 502.24,134.01 501.06,134.2 499.87,134.41 498.66,134.57 497.45,134.78 496.25,134.93 495.04,135.06 493.83,135.25
			492.64,135.35 491.42,135.47 490.22,135.58 489.02,135.71 487.78,135.82 486.58,135.9 485.35,135.99 484.1,136.05 482.91,136.14
			481.66,136.16 480.44,136.21 479.22,136.25 478,136.27 476.76,136.27 475.53,136.27 474.32,136.27 473.05,136.27 471.83,136.27
			470.59,136.21 469.39,136.19 468.12,136.16 466.89,136.07 465.66,136.03 464.42,135.93 463.19,135.84 461.93,135.75 460.7,135.64
			459.45,135.53 458.23,135.38 456.99,135.25 455.72,135.13 454.5,134.95 453.26,134.78 452.03,134.65 450.79,134.44 449.53,134.24
					"/>
		<polyline class="st4" points="519,127.66 517.88,128.01 516.77,128.35 515.65,128.71 514.5,129.04 513.38,129.39 512.22,129.71
			511.11,130.01 509.97,130.31 508.82,130.63 507.66,130.89 506.52,131.2 505.35,131.46 504.2,131.71 503.02,131.97 501.88,132.23
			500.69,132.47 499.51,132.69 498.34,132.92 497.17,133.12 495.99,133.33 494.78,133.51 493.6,133.69 492.43,133.87 491.23,134.03
			490.01,134.2 488.82,134.35 487.64,134.5 486.43,134.61 485.22,134.76 483.99,134.87 482.81,134.95 481.59,135.06 480.37,135.13
			479.15,135.25 477.93,135.3 476.73,135.35 475.47,135.38 474.27,135.45 473.05,135.47 471.8,135.47 470.59,135.5 469.36,135.5
			468.12,135.47 466.89,135.47 465.66,135.47 464.42,135.41 463.19,135.35 461.95,135.32 460.72,135.25 459.49,135.19 458.26,135.1
			456.99,135.02 455.76,134.9 454.53,134.78 453.28,134.67 452.06,134.55 450.79,134.41 449.53,134.24 		"/>
		<polyline class="st4" points="512.54,129.58 511.4,129.9 510.25,130.21 509.11,130.53 507.92,130.82 506.78,131.11 505.61,131.36
			504.46,131.66 503.28,131.91 502.1,132.13 500.91,132.37 499.74,132.6 498.57,132.84 497.39,133.06 496.18,133.25 494.99,133.46
			493.81,133.64 492.6,133.85 491.42,133.98 490.22,134.15 489.02,134.31 487.81,134.44 486.61,134.57 485.37,134.72 484.2,134.83
			482.96,134.93 481.76,135.02 480.52,135.13 479.28,135.21 478.08,135.27 476.85,135.32 475.61,135.38 474.38,135.41
			473.18,135.47 471.91,135.47 470.69,135.47 469.47,135.47 468.25,135.47 466.98,135.47 465.74,135.45 464.52,135.41
			463.27,135.35 462.02,135.32 460.78,135.25 459.51,135.19 458.28,135.1 457.01,135.02 455.78,134.9 454.55,134.78 453.28,134.67
			452.06,134.55 450.79,134.41 449.53,134.24 		"/>
		<polyline class="st4" points="451.85,121.32 452.4,120.21 452.91,119.09 453.43,117.99 453.98,116.87 454.46,115.76
			455.02,114.67 		"/>
		<polyline class="st4" points="505.03,128.99 503.91,129.3 502.76,129.62 501.62,129.9 500.47,130.19 499.33,130.47 498.17,130.77
			497,131.02 495.82,131.28 494.67,131.52 493.49,131.78 492.34,132 491.13,132.21 489.96,132.43 488.79,132.6 487.61,132.84
			486.4,133.01 485.22,133.18 484.03,133.35 482.81,133.51 481.61,133.64 480.41,133.77 479.2,133.92 478,134.03 476.76,134.15
			475.56,134.26 474.32,134.35 473.13,134.44 471.91,134.52 470.65,134.57 469.44,134.65 468.21,134.67 466.98,134.72
			465.74,134.76 464.52,134.78 463.27,134.78 462.04,134.78 460.78,134.78 459.54,134.76 458.31,134.72 457.05,134.67
			455.82,134.65 454.55,134.57 453.32,134.52 452.06,134.44 450.79,134.31 449.53,134.24 		"/>
		<polyline class="st4" points="496.81,125.37 495.75,125.75 494.63,126.11 493.55,126.49 492.45,126.86 491.34,127.21
			490.22,127.55 489.1,127.9 487.98,128.24 486.84,128.56 485.69,128.87 484.54,129.15 483.4,129.47 482.24,129.77 481.1,130.05
			479.95,130.31 478.78,130.59 477.6,130.85 476.41,131.11 475.23,131.33 474.06,131.57 472.87,131.8 471.68,132 470.48,132.21
			469.27,132.4 468.06,132.6 466.86,132.75 465.66,132.95 464.45,133.09 463.22,133.23 461.98,133.38 460.78,133.51 459.51,133.64
			458.28,133.75 457.05,133.85 455.82,133.92 454.58,134.01 453.32,134.1 452.06,134.15 450.79,134.2 449.53,134.24 		"/>
		<polyline class="st4" points="528.73,129.1 527.47,129.07 526.2,129.04 524.93,129.02 523.68,128.96 522.42,128.89 521.15,128.81
			519.92,128.73 518.69,128.63 517.46,128.56 516.21,128.44 514.96,128.33 513.73,128.19 512.48,128.03 511.29,127.9 510.04,127.72
			508.85,127.55 507.6,127.38 506.41,127.21 505.2,126.97 503.99,126.77 502.79,126.58 501.58,126.34 500.37,126.11 499.23,125.85
			498.03,125.59 496.81,125.37 		"/>
		<polyline class="st4" points="518.11,133.06 519.23,132.51 520.35,132 521.44,131.46 522.53,130.91 523.62,130.33 524.71,129.79
			525.77,129.23 526.83,128.63 527.89,128.03 528.96,127.44 530,126.86 531.03,126.27 		"/>
		<line class="st4" x1="530.91" y1="127.66" x2="531.03" y2="126.27"/>
		<polyline class="st4" points="501.95,138.39 500.75,138.49 499.58,138.56 498.36,138.65 497.17,138.72 495.99,138.8
			494.78,138.83 493.6,138.86 492.4,138.91 491.2,138.91 490.01,138.91 488.82,138.94 487.64,138.94 486.4,138.91 485.22,138.91
			484.03,138.88 482.81,138.83 481.64,138.8 480.44,138.75 479.26,138.69 478.05,138.6 476.85,138.51 475.64,138.46 474.44,138.34
			473.26,138.23 472.05,138.11 470.87,138 469.68,137.85 468.47,137.71 467.29,137.54 466.09,137.42 464.91,137.22 463.74,137.05
			462.52,136.85 461.35,136.68 460.18,136.47 458.97,136.27 457.79,136.05 456.62,135.82 455.41,135.58 454.24,135.32 453.1,135.06
			451.91,134.78 450.71,134.55 449.53,134.24 		"/>
		<polyline class="st4" points="455.54,146.61 454.92,145.49 454.35,144.38 453.77,143.24 453.21,142.12 452.65,141 452.14,139.89
			451.59,138.77 451.05,137.65 450.56,136.49 450.04,135.38 449.53,134.24 		"/>
		<polyline class="st4" points="449.53,134.24 450.79,134.41 452.06,134.55 453.28,134.67 454.55,134.78 455.78,134.9
			457.01,135.02 458.28,135.1 459.51,135.19 460.78,135.25 462.02,135.32 463.27,135.35 464.52,135.41 465.74,135.45 466.98,135.47
			468.25,135.47 469.47,135.47 470.69,135.47 471.91,135.47 473.18,135.47 474.38,135.41 475.61,135.38 476.85,135.32
			478.08,135.27 479.28,135.21 480.52,135.13 481.76,135.02 482.96,134.93 484.2,134.83 485.37,134.72 486.61,134.57 487.81,134.44
			489.02,134.31 490.22,134.15 491.42,133.98 492.6,133.85 493.81,133.64 494.99,133.46 496.18,133.25 497.39,133.06 498.57,132.84
			499.74,132.6 500.91,132.37 502.1,132.13 503.28,131.91 504.46,131.66 505.61,131.36 506.78,131.11 507.92,130.82 509.11,130.53
			510.25,130.21 511.4,129.9 512.54,129.58 		"/>
		<polyline class="st4" points="449.53,134.24 450.79,134.44 452.03,134.65 453.26,134.78 454.5,134.95 455.72,135.13
			456.99,135.25 458.23,135.38 459.45,135.53 460.7,135.64 461.93,135.75 463.19,135.84 464.42,135.93 465.66,136.03 466.89,136.07
			468.12,136.16 469.39,136.19 470.59,136.21 471.83,136.27 473.05,136.27 474.32,136.27 475.53,136.27 476.76,136.27 478,136.27
			479.22,136.25 480.44,136.21 481.66,136.16 482.91,136.14 484.1,136.05 485.35,135.99 486.58,135.9 487.78,135.82 489.02,135.71
			490.22,135.58 491.42,135.47 492.64,135.35 493.83,135.25 495.04,135.06 496.25,134.93 497.45,134.78 498.66,134.57
			499.87,134.41 501.06,134.2 502.24,134.01 503.43,133.8 504.62,133.61 505.8,133.38 506.97,133.14 508.16,132.88 509.34,132.63
			510.51,132.37 511.68,132.11 512.86,131.83 514.01,131.57 515.18,131.26 516.32,130.96 517.48,130.65 518.63,130.31
			519.77,129.99 520.92,129.64 522.08,129.3 523.2,128.96 524.34,128.59 525.45,128.24 526.57,127.83 527.71,127.44 528.81,127.07
			529.91,126.66 531.03,126.27 		"/>
		<polyline class="st4" points="449.53,134.24 450.79,134.2 452.06,134.15 453.32,134.1 454.58,134.01 455.82,133.92 457.05,133.85
			458.28,133.75 459.51,133.64 460.78,133.51 461.98,133.38 463.22,133.23 464.45,133.09 465.66,132.95 466.86,132.75 468.06,132.6
			469.27,132.4 470.48,132.21 471.68,132 472.87,131.8 474.06,131.57 475.23,131.33 476.41,131.11 477.6,130.85 478.78,130.59
			479.95,130.31 481.1,130.05 482.24,129.77 483.4,129.47 484.54,129.15 485.69,128.87 486.84,128.56 487.98,128.24 489.1,127.9
			490.22,127.55 491.34,127.21 492.45,126.86 493.55,126.49 494.63,126.11 495.75,125.75 496.81,125.37 		"/>
		<polyline class="st4" points="455.02,114.67 454.69,115.79 454.35,116.93 454.06,118.05 453.75,119.2 453.43,120.35 453.1,121.49
			452.76,122.65 452.46,123.82 452.14,124.96 451.83,126.11 451.48,127.29 451.16,128.44 450.84,129.62 450.54,130.77
			450.21,131.91 449.88,133.09 449.53,134.24 		"/>
		<text transform="matrix(0.9868 0 0 1 511.377 128.6377)" class="st1 st5 st6">●</text>
		<path class="st1" d="M512.48,128.69c0.46,0,0.83,0.38,0.83,0.84s-0.37,0.84-0.83,0.84s-0.83-0.38-0.83-0.84
			S512.02,128.69,512.48,128.69z"/>
		<ellipse class="st1" cx="511.52" cy="128.33" rx="0.83" ry="0.84"/>
		<ellipse class="st1" cx="505" cy="129.1" rx="0.83" ry="0.84"/>
		<ellipse class="st1" cx="497.02" cy="125.26" rx="0.83" ry="0.84"/>
		<path class="st1" d="M511.57,134.52c0.46,0,0.83,0.37,0.83,0.83s-0.37,0.83-0.83,0.83s-0.83-0.37-0.83-0.83
			S511.11,134.52,511.57,134.52z"/>
		<ellipse class="st1" cx="502.1" cy="138.34" rx="0.83" ry="0.83"/>
		<ellipse class="st1" cx="455.54" cy="146.74" rx="0.83" ry="0.83"/>
		<ellipse class="st1" cx="449.41" cy="134.26" rx="0.83" ry="0.83"/>
		<ellipse class="st1" cx="454.92" cy="114.67" rx="0.83" ry="0.84"/>
		<ellipse class="st1" cx="451.85" cy="121.32" rx="0.83" ry="0.84"/>
		<ellipse class="st1" cx="518.2" cy="132.92" rx="0.83" ry="0.83"/>
		<ellipse class="st1" cx="519.1" cy="127.75" rx="0.83" ry="0.84"/>
		<ellipse class="st1" cx="530.88" cy="126.06" rx="0.83" ry="0.84"/>
		<ellipse class="st1" cx="528.67" cy="127.03" rx="0.83" ry="0.84"/>
		<ellipse class="st1" cx="530.8" cy="128.09" rx="0.83" ry="0.84"/>
		<ellipse class="st1" cx="528.73" cy="129.28" rx="0.83" ry="0.84"/>
	</g>
	<g>
		<g>
			<polyline class="st7" points="89.12,25.21 87.87,25.27 86.63,25.3 85.45,25.35 84.21,25.38 82.98,25.38 81.75,25.41 80.55,25.41
				79.29,25.41 78.1,25.38 76.9,25.38 75.64,25.32 74.44,25.27 73.25,25.21 71.97,25.16 70.78,25.07 69.58,25.02 68.35,24.91
				67.15,24.82 65.93,24.7 64.73,24.58 63.52,24.44 62.33,24.3 61.12,24.12 59.89,23.98 58.71,23.81 57.52,23.65 56.33,23.44
				55.12,23.24 53.93,23.04 52.75,22.81 51.55,22.58 50.37,22.36 49.18,22.09 48.01,21.84 46.83,21.62 45.67,21.32 44.47,21.04
				43.29,20.75 42.15,20.47 40.97,20.12 39.82,19.81 38.66,19.49 37.53,19.18 36.34,18.82 35.21,18.47 34.06,18.11 32.91,17.73
				31.78,17.35 30.66,16.96 29.51,16.58 			"/>
			<polyline class="st7" points="105.24,18.3 104.12,18.86 103.02,19.38 101.9,19.9 100.76,20.44 99.63,20.96 98.5,21.46
				97.34,21.95 96.19,22.44 95.01,22.93 93.84,23.41 92.66,23.87 91.49,24.32 90.3,24.75 89.12,25.21 			"/>
			<polyline class="st7" points="29.51,16.58 30.66,16.96 31.78,17.35 32.91,17.73 34.06,18.11 35.21,18.47 36.34,18.82
				37.53,19.18 38.66,19.49 39.82,19.81 40.97,20.12 42.15,20.47 43.29,20.75 44.47,21.04 45.67,21.32 46.83,21.62 48.01,21.84
				49.18,22.09 50.37,22.36 51.55,22.58 52.75,22.81 53.93,23.04 55.12,23.24 56.33,23.44 57.52,23.65 58.71,23.81 59.89,23.98
				61.12,24.12 62.33,24.3 63.52,24.44 64.73,24.58 65.93,24.7 67.15,24.82 68.35,24.91 69.58,25.02 70.78,25.07 71.97,25.16
				73.25,25.21 74.44,25.27 75.64,25.32 76.9,25.38 78.1,25.38 79.29,25.41 80.55,25.41 81.75,25.41 82.98,25.38 84.21,25.38
				85.45,25.35 86.63,25.3 87.87,25.27 89.12,25.21 			"/>
			<polyline class="st7" points="87.75,24.39 86.7,24.84 85.64,25.27 84.55,25.73 83.5,26.16 82.41,26.56 81.35,26.99 80.24,27.35
				79.16,27.79 78.03,28.15 76.95,28.53 75.86,28.93 74.73,29.27 73.61,29.61 72.49,29.98 71.39,30.32 70.24,30.64 69.09,30.99
				67.96,31.33 66.81,31.62 65.66,31.9 64.5,32.21 63.33,32.5 62.18,32.8 61.01,33.05 59.84,33.3 58.67,33.55 57.47,33.82
				56.29,34.04 55.1,34.26 53.93,34.5 52.7,34.7 51.52,34.89 50.29,35.1 49.1,35.27 47.87,35.44 46.67,35.61 45.46,35.79 44.2,35.9
				42.97,36.04 41.78,36.19 40.54,36.31 39.29,36.4 38.03,36.53 36.8,36.61 35.56,36.7 34.33,36.78 33.07,36.82 31.81,36.91
				30.55,36.92 29.29,36.99 			"/>
			<polyline class="st7" points="68.98,29.19 70.21,28.96 71.41,28.72 72.66,28.5 73.86,28.25 75.09,28.01 76.32,27.76 77.51,27.47
				78.73,27.21 79.92,26.91 81.14,26.61 82.33,26.29 83.51,25.98 84.7,25.65 85.89,25.32 87.07,24.99 88.22,24.61 89.39,24.23
				90.55,23.9 91.73,23.52 92.9,23.13 94.05,22.72 95.18,22.33 96.33,21.9 97.45,21.51 98.58,21.04 99.7,20.61 100.81,20.16
				101.93,19.7 103.03,19.24 104.16,18.78 105.24,18.3 			"/>
			<polyline class="st7" points="31.61,10.76 31.46,11.89 31.32,13.1 31.21,14.27 31.05,15.43 30.94,16.61 30.83,17.81 30.73,18.99
				30.61,20.19 30.49,21.38 30.38,22.55 30.26,23.76 30.19,24.93 30.06,26.16 29.98,27.33 29.89,28.56 29.81,29.73 29.7,30.95
				29.6,32.17 29.51,33.35 29.46,34.56 29.35,35.79 29.29,36.99 			"/>
			<polyline class="st7" points="29.29,36.99 30.55,36.92 31.81,36.91 33.07,36.82 34.33,36.78 35.56,36.7 36.8,36.61 38.03,36.53
				39.29,36.4 40.54,36.31 41.78,36.19 42.97,36.04 44.2,35.9 45.46,35.79 46.67,35.61 47.87,35.44 49.1,35.27 50.29,35.1
				51.52,34.89 52.7,34.7 53.93,34.5 55.1,34.26 56.29,34.04 57.47,33.82 58.67,33.55 59.84,33.3 61.01,33.05 62.18,32.8
				63.33,32.5 64.5,32.21 65.66,31.9 66.81,31.62 67.96,31.33 69.09,30.99 70.24,30.64 71.39,30.32 72.49,29.98 73.61,29.61
				74.73,29.27 75.86,28.93 76.95,28.53 78.03,28.15 79.16,27.79 80.24,27.35 81.35,26.99 82.41,26.56 83.5,26.16 84.55,25.73
				85.64,25.27 86.7,24.84 87.75,24.39 			"/>
			<polyline class="st7" points="80.21,31.13 78.95,30.84 77.69,30.53 76.46,30.24 75.25,29.93 74,29.59 72.77,29.27 71.53,28.89
				70.32,28.56 69.13,28.18 67.9,27.79 66.73,27.44 65.5,27 64.32,26.64 63.13,26.21 61.96,25.79 60.78,25.38 59.63,24.93
				58.46,24.47 57.28,24.01 56.15,23.56 55,23.1 53.87,22.61 52.75,22.14 51.63,21.62 50.49,21.13 49.41,20.61 48.29,20.09
				47.17,19.56 46.12,19.02 45,18.5 43.95,17.92 42.9,17.39 41.8,16.81 40.78,16.25 39.71,15.67 38.69,15.07 37.64,14.47
				36.61,13.87 35.6,13.28 34.61,12.65 33.57,12.02 32.58,11.39 31.61,10.76 			"/>
			<polyline class="st7" points="74.46,36.73 73.64,35.68 72.84,34.59 72.04,33.51 71.26,32.45 70.5,31.35 69.72,30.28 68.98,29.19
							"/>
		</g>
		<ellipse class="st1" cx="74.55" cy="36.75" rx="0.83" ry="0.83"/>
		<ellipse class="st1" cx="68.98" cy="29.24" rx="0.83" ry="0.83"/>
		<ellipse class="st1" cx="29.58" cy="16.68" rx="0.83" ry="0.83"/>
		<ellipse class="st1" cx="29.58" cy="36.75" rx="0.83" ry="0.83"/>
		<ellipse class="st1" cx="33.21" cy="54.84" rx="0.83" ry="0.83"/>
		<ellipse class="st1" cx="31.57" cy="10.79" rx="0.83" ry="0.83"/>
		<ellipse class="st1" cx="80.24" cy="31.1" rx="0.83" ry="0.83"/>
		<ellipse class="st1" cx="89.12" cy="25.21" rx="0.83" ry="0.83"/>
		<ellipse class="st1" cx="105.27" cy="18.3" rx="0.83" ry="0.83"/>
		<ellipse class="st1" cx="87.75" cy="24.28" rx="0.83" ry="0.83"/>
		<line class="st7" x1="89.19" y1="25.21" x2="33.21" y2="54.84"/>
	</g>
	<g id="constellation">
		<g>
			<polyline class="st8" points="595.4,154.7 594.36,156.62 593.26,158.56 			"/>
			<polyline class="st8" points="587.04,157.65 589.13,158 591.2,158.28 593.26,158.56 			"/>
			<polyline class="st8" points="593.26,158.56 592.42,159.92 591.54,161.25 590.68,162.54 589.77,163.86 588.85,165.19
				587.96,166.51 587.04,167.8 586.05,169.14 585.12,170.43 584.11,171.75 583.14,173.04 582.13,174.33 			"/>
			<polyline class="st8" points="508.47,169.7 509.98,170.09 511.53,170.37 513.14,170.77 514.68,171.1 516.23,171.44 517.8,171.75
				519.39,172.05 520.96,172.31 522.54,172.58 524.09,172.84 525.7,173.12 527.28,173.34 528.87,173.57 530.46,173.79
				532.06,174.01 533.67,174.18 535.23,174.37 536.84,174.55 538.46,174.7 540.03,174.85 541.65,174.96 543.24,175.08
				544.88,175.24 546.47,175.3 548.09,175.39 549.72,175.47 551.32,175.54 552.93,175.54 554.59,175.62 556.17,175.62
				557.78,175.66 559.44,175.66 561.03,175.62 562.65,175.58 564.27,175.54 565.91,175.51 567.52,175.43 569.14,175.39
				570.79,175.28 572.39,175.19 574,175.08 575.66,174.93 577.26,174.8 578.89,174.63 580.51,174.48 582.13,174.33 			"/>
			<polyline class="st8" points="582.13,174.33 583.14,173.04 584.11,171.75 585.12,170.43 586.05,169.14 587.04,167.8
				587.96,166.51 588.85,165.19 589.77,163.86 590.68,162.54 591.54,161.25 592.42,159.92 593.26,158.56 			"/>
			<polyline class="st8" points="582.13,174.33 580.51,174.48 578.89,174.63 577.26,174.8 575.66,174.93 574,175.08 572.39,175.19
				570.79,175.28 569.14,175.39 567.52,175.43 565.91,175.51 564.27,175.54 562.65,175.58 561.03,175.62 559.44,175.66
				557.78,175.66 556.17,175.62 554.59,175.62 552.93,175.54 551.32,175.54 549.72,175.47 548.09,175.39 546.47,175.3
				544.88,175.24 543.24,175.08 541.65,174.96 540.03,174.85 538.46,174.7 536.84,174.55 535.23,174.37 533.67,174.18
				532.06,174.01 530.46,173.79 528.87,173.57 527.28,173.34 525.7,173.12 524.09,172.84 522.54,172.58 520.96,172.31
				519.39,172.05 517.8,171.75 516.23,171.44 514.68,171.1 513.14,170.77 511.53,170.37 509.98,170.09 508.47,169.7 			"/>
			<line class="st9" x1="579.76" y1="174.01" x2="582.13" y2="174.33"/>
		</g>
		<ellipse class="st1" cx="508.62" cy="169.63" rx="1.1" ry="1.1"/>
		<ellipse class="st1" cx="493.13" cy="206.56" rx="1.1" ry="1.1"/>
		<ellipse class="st1" cx="582.34" cy="174.22" rx="1.1" ry="1.1"/>
		<ellipse class="st1" cx="587" cy="157.76" rx="1.1" ry="1.1"/>
		<ellipse class="st1" cx="593.11" cy="158.5" rx="1.1" ry="1.1"/>
		<ellipse class="st1" cx="595.29" cy="154.73" rx="1.1" ry="1.1"/>
		<path class="st1" d="M579.61,172.95c0.62,0,1.1,0.5,1.1,1.1c0,0.62-0.5,1.1-1.1,1.1c-0.62,0-1.1-0.5-1.1-1.1
			S579,172.95,579.61,172.95z"/>
		<line class="st8" x1="582.34" y1="174.22" x2="493.13" y2="206.67"/>
	</g>
	<g id="constellation_1_">
		<g>
			<polyline class="st10" points="574.9,94.92 574.08,95.16 573.24,95.37 572.42,95.58 571.57,95.79 570.73,96 569.89,96.17
				569.05,96.36 568.2,96.55 567.34,96.72 566.5,96.88 565.63,97.05 564.79,97.2 563.93,97.35 563.06,97.52 562.2,97.64
				561.33,97.77 560.47,97.89 559.61,98.02 558.72,98.11 557.86,98.23 556.97,98.32 556.11,98.42 555.22,98.51 554.34,98.57
				553.48,98.65 552.59,98.72 551.71,98.78 550.82,98.82 549.94,98.86 549.03,98.91 548.17,98.95 547.26,98.97 546.38,98.99
				545.49,99.01 544.58,99.01 543.7,99.01 542.79,98.99 541.91,98.97 541,98.95 540.1,98.93 539.21,98.89 538.33,98.86 537.4,98.8
				536.52,98.76 535.61,98.7 534.7,98.61 533.8,98.53 532.91,98.44 532.01,98.36 531.1,98.27 530.19,98.17 529.31,98.06 			"/>
			<polyline class="st10" points="586.07,89.66 585.27,89.99 584.49,90.31 583.69,90.63 582.91,90.94 582.09,91.26 581.29,91.55
				580.47,91.87 579.66,92.14 578.86,92.44 578.02,92.71 577.2,92.99 576.38,93.24 575.56,93.51 574.73,93.77 573.89,94.02
				573.05,94.25 572.21,94.48 571.36,94.73 570.52,94.95 569.68,95.16 568.81,95.39 567.97,95.58 567.11,95.79 566.24,95.98
				565.38,96.17 564.52,96.34 563.65,96.5 562.77,96.67 561.9,96.84 561.02,97.01 560.15,97.14 559.27,97.28 558.38,97.43
				557.5,97.54 556.62,97.66 555.73,97.77 554.85,97.87 553.94,97.98 553.05,98.08 552.15,98.17 551.26,98.25 550.36,98.32
				549.45,98.38 548.55,98.44 547.64,98.51 546.75,98.53 545.83,98.59 544.92,98.61 544.02,98.63 543.11,98.65 542.2,98.65
				541.28,98.67 540.35,98.65 539.44,98.65 538.52,98.63 537.61,98.61 536.68,98.57 535.76,98.53 534.85,98.48 533.92,98.44
				533,98.36 532.07,98.3 531.14,98.23 530.24,98.15 529.31,98.06 			"/>
			<polyline class="st10" points="581.92,100.55 582.57,99.83 583.25,99.12 583.9,98.38 584.51,97.66 585.16,96.93 			"/>
			<polyline class="st10" points="581.81,103.84 582.32,102.91 582.8,101.98 583.29,101.06 			"/>
			<polyline class="st10" points="581.81,103.84 580.99,103.37 580.19,102.91 579.37,102.42 578.59,101.96 577.79,101.48
				577.01,100.99 576.25,100.51 575.47,100 574.71,99.52 573.95,99.01 573.2,98.51 572.46,97.98 571.7,97.47 570.98,96.95
				570.27,96.42 569.53,95.89 568.83,95.35 568.12,94.82 567.4,94.29 566.73,93.72 566.05,93.2 565.36,92.63 564.68,92.08
				564.03,91.53 			"/>
			<polyline class="st10" points="587.59,93.62 587.19,94.4 586.79,95.2 586.36,96 585.94,96.78 585.5,97.56 585.06,98.36
				584.62,99.14 584.17,99.92 583.71,100.72 583.25,101.48 582.78,102.28 582.3,103.06 581.81,103.84 			"/>
			<polyline class="st10" points="579.81,113 580.13,112.16 580.47,111.32 580.78,110.49 581.1,109.65 581.39,108.81 581.71,107.97
				582,107.1 582.3,106.26 582.57,105.42 582.87,104.57 583.14,103.73 583.41,102.87 583.67,102.02 583.92,101.18 584.19,100.32
				584.43,99.48 584.68,98.63 584.93,97.77 585.16,96.93 			"/>
			<polyline class="st10" points="568.25,106.51 567.34,106.45 566.45,106.34 565.55,106.26 564.64,106.15 563.78,106.05
				562.87,105.94 561.99,105.82 561.08,105.69 560.22,105.54 559.31,105.42 558.45,105.27 557.54,105.12 556.68,104.95
				555.79,104.81 554.93,104.64 554.07,104.45 553.18,104.26 552.32,104.09 551.45,103.9 550.59,103.69 549.73,103.5 548.86,103.27
				548.02,103.06 547.16,102.83 546.31,102.59 545.45,102.36 544.61,102.13 543.76,101.88 542.92,101.62 542.08,101.35
				541.26,101.1 540.41,100.82 539.59,100.55 538.75,100.25 537.93,99.96 537.11,99.69 536.3,99.37 535.46,99.07 534.66,98.78
				533.86,98.44 533.04,98.13 532.24,97.79 531.44,97.45 530.66,97.12 			"/>
			<polyline class="st10" points="564.03,91.53 564.85,91.83 565.7,92.12 566.54,92.4 567.38,92.69 568.22,92.96 569.09,93.22
				569.93,93.49 570.79,93.74 571.68,94 572.54,94.23 573.41,94.48 574.29,94.71 575.18,94.92 576.08,95.16 576.95,95.35
				577.85,95.58 578.76,95.75 579.66,95.94 580.55,96.13 581.48,96.31 582.4,96.48 583.31,96.63 584.24,96.78 585.16,96.93 			"/>
			<polyline class="st10" points="564.03,91.53 564.68,92.08 565.36,92.63 566.05,93.2 566.73,93.72 567.4,94.29 568.12,94.82
				568.83,95.35 569.53,95.89 570.27,96.42 570.98,96.95 571.7,97.47 572.46,97.98 573.2,98.51 573.95,99.01 574.71,99.52
				575.47,100 576.25,100.51 577.01,100.99 577.79,101.48 578.59,101.96 579.37,102.42 580.19,102.91 580.99,103.37 581.81,103.84
							"/>
			<polyline class="st10" points="572.21,104.76 572.82,105.44 573.43,106.15 574.04,106.85 574.65,107.54 575.28,108.24
				575.91,108.94 576.55,109.63 577.18,110.3 577.83,110.98 578.48,111.65 579.14,112.33 579.81,113 			"/>
			<polyline class="st10" points="587.44,94.27 586.85,94.99 586.26,95.68 585.67,96.4 585.06,97.09 584.45,97.79 583.84,98.48
				583.2,99.18 582.57,99.88 581.92,100.55 			"/>
			<polyline class="st10" points="568.58,114.46 568.37,113.57 568.16,112.69 567.99,111.8 567.78,110.92 567.57,110.03
				567.4,109.15 567.21,108.28 567.02,107.38 566.83,106.51 566.64,105.61 566.48,104.74 566.31,103.84 566.12,102.97
				565.95,102.09 565.78,101.2 565.61,100.32 565.44,99.43 565.27,98.55 565.11,97.68 564.96,96.78 564.79,95.91 564.62,95.03
				564.47,94.14 564.33,93.28 564.18,92.4 564.03,91.53 			"/>
			<polyline class="st10" points="585.16,96.93 584.24,96.78 583.31,96.63 582.4,96.48 581.48,96.31 580.55,96.13 579.66,95.94
				578.76,95.75 577.85,95.58 576.95,95.35 576.08,95.16 575.18,94.92 574.29,94.71 573.41,94.48 572.54,94.23 571.68,94
				570.79,93.74 569.93,93.49 569.09,93.22 568.22,92.96 567.38,92.69 566.54,92.4 565.7,92.12 564.85,91.83 564.03,91.53 			"/>
			<polyline class="st10" points="585.16,96.93 584.93,97.77 584.68,98.63 584.43,99.48 584.19,100.32 583.92,101.18 583.67,102.02
				583.41,102.87 583.14,103.73 582.87,104.57 582.57,105.42 582.3,106.26 582,107.1 581.71,107.97 581.39,108.81 581.1,109.65
				580.78,110.49 580.47,111.32 580.13,112.16 579.81,113 			"/>
			<polyline class="st10" points="585.16,96.93 584.3,97.16 583.44,97.37 582.57,97.58 581.73,97.77 580.87,97.98 580,98.17
				579.12,98.36 578.27,98.53 577.39,98.7 576.53,98.86 575.66,99.01 574.78,99.16 573.89,99.31 573.03,99.45 572.14,99.58
				571.28,99.71 570.37,99.81 569.51,99.94 568.6,100.04 567.74,100.13 566.83,100.21 565.97,100.3 565.06,100.38 564.18,100.47
				563.29,100.53 562.41,100.59 561.5,100.63 560.62,100.7 559.73,100.72 558.83,100.76 557.94,100.78 557.04,100.8 556.15,100.8
				555.25,100.8 554.34,100.8 553.45,100.8 552.57,100.8 551.66,100.78 550.76,100.74 549.87,100.72 548.97,100.68 548.08,100.63
				547.18,100.57 546.27,100.51 545.39,100.44 544.48,100.36 543.57,100.3 542.69,100.19 541.78,100.11 540.9,100 540.01,99.88
				539.09,99.77 538.2,99.64 537.32,99.52 536.41,99.37 535.53,99.24 534.62,99.1 533.73,98.95 532.85,98.78 531.96,98.61
				531.08,98.44 530.17,98.25 529.31,98.06 			"/>
			<polyline class="st10" points="579.64,97.18 580.55,97.16 581.48,97.12 582.4,97.09 583.33,97.05 584.24,97.01 585.16,96.93
				"/>
			<polyline class="st10" points="532.09,86.54 532.93,86.81 533.8,87.07 534.66,87.32 535.53,87.55 536.39,87.78 537.25,88.01
				538.14,88.25 539,88.46 539.89,88.67 540.77,88.86 541.64,89.05 542.52,89.24 543.4,89.43 544.29,89.59 545.17,89.76
				546.06,89.91 546.94,90.06 547.85,90.2 548.71,90.35 549.62,90.46 550.51,90.58 551.41,90.69 552.32,90.82 553.2,90.9
				554.09,91.01 554.99,91.09 555.9,91.15 556.78,91.24 557.71,91.28 558.6,91.36 559.5,91.38 560.41,91.45 561.31,91.47
				562.2,91.49 563.1,91.51 564.03,91.53 			"/>
			<polyline class="st10" points="583.29,101.06 582.8,101.98 582.32,102.91 581.81,103.84 			"/>
			<line class="st10" x1="530.66" y1="97.12" x2="529.31" y2="98.06"/>
			<polyline class="st10" points="567.76,101.1 566.9,101.16 566.01,101.22 565.13,101.29 564.26,101.33 563.38,101.39
				562.51,101.41 561.63,101.46 560.74,101.48 559.88,101.48 559,101.5 558.13,101.5 557.25,101.5 556.36,101.48 555.5,101.48
				554.61,101.46 553.73,101.43 552.84,101.39 551.98,101.35 551.09,101.31 550.21,101.24 549.35,101.2 548.46,101.14
				547.58,101.06 546.69,100.97 545.83,100.89 544.94,100.8 544.06,100.7 543.19,100.59 542.33,100.49 541.45,100.38 540.58,100.23
				539.7,100.13 538.83,99.98 537.95,99.83 537.08,99.69 536.22,99.54 535.36,99.37 534.47,99.2 533.61,99.03 532.74,98.84
				531.88,98.65 531.02,98.46 530.15,98.27 529.31,98.06 			"/>
			<polyline class="st10" points="529.31,98.06 530.17,98.25 531.08,98.44 531.96,98.61 532.85,98.78 533.73,98.95 534.62,99.1
				535.53,99.24 536.41,99.37 537.32,99.52 538.2,99.64 539.09,99.77 540.01,99.88 540.9,100 541.78,100.11 542.69,100.19
				543.57,100.3 544.48,100.36 545.39,100.44 546.27,100.51 547.18,100.57 548.08,100.63 548.97,100.68 549.87,100.72
				550.76,100.74 551.66,100.78 552.57,100.8 553.45,100.8 554.34,100.8 555.25,100.8 556.15,100.8 557.04,100.8 557.94,100.78
				558.83,100.76 559.73,100.72 560.62,100.7 561.5,100.63 562.41,100.59 563.29,100.53 564.18,100.47 565.06,100.38 565.97,100.3
				566.83,100.21 567.74,100.13 568.6,100.04 569.51,99.94 570.37,99.81 571.28,99.71 572.14,99.58 573.03,99.45 573.89,99.31
				574.78,99.16 575.66,99.01 576.53,98.86 577.39,98.7 578.27,98.53 579.12,98.36 580,98.17 580.87,97.98 581.73,97.77
				582.57,97.58 583.44,97.37 584.3,97.16 585.16,96.93 			"/>
			<text transform="matrix(0.9868 0 0 1 574.6328 95.1953)" class="st1 st5 st11">●</text>
			<text transform="matrix(1 0 0 1 574.7137 95.1201)" class="st12 st5 st13">●</text>
		</g>
		<ellipse class="st1" cx="532.71" cy="98.45" rx="0.54" ry="0.54"/>
		<ellipse class="st1" cx="533.98" cy="97.47" rx="0.54" ry="0.54"/>
		<ellipse class="st1" cx="535.27" cy="88.2" rx="0.54" ry="0.54"/>
		<ellipse class="st1" cx="534.33" cy="90.03" rx="0.54" ry="0.54"/>
		<ellipse class="st1" cx="563.32" cy="92.61" rx="0.54" ry="0.54"/>
		<ellipse class="st1" cx="566.72" cy="101.04" rx="0.54" ry="0.54"/>
		<ellipse class="st1" cx="567.09" cy="105.81" rx="0.54" ry="0.54"/>
		<ellipse class="st1" cx="570.59" cy="104.16" rx="0.54" ry="0.54"/>
		<ellipse class="st1" cx="577.15" cy="111.39" rx="0.54" ry="0.54"/>
		<ellipse class="st1" cx="567.29" cy="112.93" rx="0.54" ry="0.54"/>
		<ellipse class="st1" cx="579.01" cy="103.44" rx="0.54" ry="0.54"/>
		<ellipse class="st1" cx="580.27" cy="101.04" rx="0.54" ry="0.54"/>
		<ellipse class="st1" cx="579.12" cy="100.58" rx="0.54" ry="0.54"/>
		<ellipse class="st1" cx="583.88" cy="95.22" rx="0.54" ry="0.54"/>
		<ellipse class="st1" cx="584.03" cy="94.37" rx="0.54" ry="0.54"/>
		<ellipse class="st1" cx="581.86" cy="97.39" rx="0.54" ry="0.54"/>
		<ellipse class="st1" cx="582.74" cy="91.05" rx="0.54" ry="0.54"/>
		<ellipse class="st1" cx="577.01" cy="97.58" rx="0.54" ry="0.54"/>
	</g>
	<g id="constellation_2_">
		<g>
			<polyline class="st14" points="162.99,80.09 162.65,81.83 162.36,83.6 162.04,85.39 161.69,87.15 161.37,88.93 			"/>
			<polyline class="st14" points="140.52,94.47 139.06,93.42 137.63,92.41 136.18,91.36 134.73,90.33 133.33,89.27 131.93,88.24
				130.56,87.15 129.21,86.08 127.84,84.97 126.48,83.89 125.16,82.77 123.83,81.66 122.51,80.58 121.23,79.47 119.95,78.32 			"/>
			<polyline class="st14" points="150.92,120.45 149.71,119.07 148.51,117.77 147.36,116.4 146.21,115.04 145.05,113.67
				143.89,112.32 142.79,110.94 141.68,109.54 140.55,108.17 139.47,106.82 138.36,105.41 137.33,104 136.26,102.6 135.22,101.18
				134.17,99.8 133.12,98.38 132.13,96.98 131.1,95.55 130.1,94.13 129.12,92.68 128.16,91.28 127.22,89.83 126.27,88.39
				125.31,86.99 124.41,85.54 123.49,84.09 122.59,82.65 121.69,81.21 120.81,79.74 119.95,78.32 			"/>
			<polyline class="st14" points="119.95,78.32 121.55,78.93 123.2,79.47 124.87,80.04 126.51,80.62 128.2,81.12 129.87,81.66
				131.56,82.19 133.24,82.69 134.93,83.18 136.68,83.64 138.36,84.09 140.11,84.6 141.83,85.02 143.57,85.41 145.29,85.83
				147.09,86.25 148.81,86.61 150.59,86.99 152.41,87.36 154.18,87.69 155.95,88.01 157.74,88.34 159.55,88.64 161.37,88.93 			"/>
			<polyline class="st14" points="161.37,88.93 159.55,88.64 157.74,88.34 155.95,88.01 154.18,87.69 152.41,87.36 150.59,86.99
				148.81,86.61 147.09,86.25 145.29,85.83 143.57,85.41 141.83,85.02 140.11,84.6 138.36,84.09 136.68,83.64 134.93,83.18
				133.24,82.69 131.56,82.19 129.87,81.66 128.2,81.12 126.51,80.62 124.87,80.04 123.2,79.47 121.55,78.93 119.95,78.32 			"/>
			<polyline class="st14" points="73.52,109.54 72.08,108.42 70.63,107.34 69.23,106.23 67.83,105.08 66.43,103.95 65.01,102.84
				63.66,101.74 62.28,100.58 60.98,99.43 59.59,98.27 58.28,97.07 57,95.92 55.68,94.71 54.4,93.52 53.13,92.36 51.87,91.11 			"/>
			<polyline class="st14" points="150.59,89.39 152.36,89.39 154.18,89.29 155.95,89.22 157.79,89.12 159.55,89.05 161.37,88.93
				"/>
			<polyline class="st14" points="54.53,89.29 56.34,89.27 58.16,89.22 59.98,89.12 61.79,89.05 63.56,88.97 65.35,88.85
				67.16,88.71 68.98,88.56 70.76,88.43 72.52,88.26 74.26,88.07 76.08,87.89 77.82,87.69 79.59,87.48 81.36,87.23 83.1,86.99
				84.84,86.74 86.59,86.44 88.31,86.17 90,85.88 91.74,85.58 93.44,85.25 95.18,84.87 96.85,84.55 98.55,84.18 100.24,83.76
				101.9,83.44 103.58,82.98 105.29,82.61 106.94,82.15 108.58,81.73 110.23,81.29 111.85,80.79 113.52,80.33 115.11,79.84
				116.73,79.35 118.38,78.81 119.95,78.32 			"/>
			<polyline class="st14" points="127.3,97.1 129.04,96.81 130.78,96.49 132.5,96.2 134.24,95.87 135.97,95.5 137.71,95.17
				139.4,94.84 141.14,94.42 142.83,94 144.56,93.64 146.3,93.22 147.95,92.81 149.64,92.36 151.34,91.9 153.02,91.44 154.72,90.96
				156.38,90.5 158.03,89.96 159.72,89.46 161.37,88.93 			"/>
			<polyline class="st14" points="51.87,91.11 53.61,91.48 55.34,91.85 57.08,92.19 58.87,92.51 60.59,92.85 62.38,93.19
				64.1,93.47 65.84,93.71 67.62,94 69.35,94.25 71.12,94.5 72.85,94.71 74.6,94.92 76.37,95.13 78.11,95.33 79.89,95.5
				81.65,95.65 83.39,95.82 85.17,95.95 86.95,96.03 88.68,96.15 90.45,96.24 92.19,96.32 93.98,96.41 95.74,96.49 97.48,96.49
				99.21,96.52 101.04,96.52 102.76,96.52 104.5,96.52 106.28,96.49 108,96.49 109.79,96.44 111.51,96.36 113.25,96.28 115.03,96.2
				116.76,96.12 118.53,95.99 120.27,95.82 122,95.7 123.76,95.55 125.48,95.36 127.22,95.21 128.94,94.99 130.69,94.84
				132.43,94.58 134.17,94.35 135.89,94.13 137.58,93.84 139.32,93.6 141.02,93.3 142.74,93.01 144.48,92.68 146.17,92.36
				147.87,92.03 149.6,91.7 151.26,91.36 152.95,90.99 154.65,90.57 156.38,90.21 158.03,89.79 159.68,89.39 161.37,88.93 			"/>
			<text transform="matrix(0.9868 0 0 1 150.6279 120.6719)" class="st1 st5 st15">●</text>
			<text transform="matrix(1 0 0 1 150.7051 120.5977)" class="st16 st5 st17">●</text>
		</g>
		<ellipse class="st1" cx="127.13" cy="97.15" rx="1.2" ry="1.2"/>
		<ellipse class="st1" cx="73.52" cy="109.54" rx="1.2" ry="1.2"/>
		<ellipse class="st1" cx="51.87" cy="91.11" rx="1.2" ry="1.2"/>
		<ellipse class="st1" cx="54.53" cy="89.29" rx="1.2" ry="1.2"/>
		<ellipse class="st1" cx="119.95" cy="78.52" rx="1.2" ry="1.2"/>
		<ellipse class="st1" cx="140.52" cy="94.47" rx="1.2" ry="1.2"/>
		<ellipse class="st1" cx="150.71" cy="89.39" rx="1.2" ry="1.2"/>
		<ellipse class="st1" cx="161.37" cy="88.93" rx="1.2" ry="1.2"/>
		<ellipse class="st1" cx="162.99" cy="80.43" rx="1.2" ry="1.2"/>
	</g>
	<g id="constellation_3_">
		<polyline class="st18" points="310.99,19.11 312.32,20.87 313.62,22.62 314.94,24.33 316.27,26.08 317.68,27.84 319.06,29.55
			320.47,31.27 		"/>
		<polyline class="st19" points="395.6,37.01 394.35,38.97 393.08,40.87 391.75,42.81 		"/>
		<polyline class="st18" points="392.44,32.63 390.38,32.86 388.33,33.06 386.3,33.26 384.23,33.44 382.19,33.6 380.16,33.79
			378.04,33.93 376.04,34.04 373.96,34.13 371.89,34.18 369.87,34.28 367.76,34.37 365.75,34.37 363.67,34.37 361.62,34.37
			359.52,34.37 357.47,34.37 355.42,34.37 353.32,34.28 351.33,34.18 349.23,34.13 347.18,34.04 345.09,33.93 343.03,33.79
			340.98,33.6 338.95,33.44 336.89,33.3 334.8,33.06 332.75,32.86 330.69,32.63 328.64,32.43 326.61,32.12 324.55,31.85
			322.5,31.59 320.47,31.27 		"/>
		<polyline class="st18" points="414.86,32.43 412.83,32.57 410.76,32.63 408.72,32.68 406.69,32.77 404.62,32.77 402.63,32.81
			400.58,32.81 398.53,32.77 396.48,32.77 394.44,32.72 392.44,32.63 		"/>
		<line class="st18" x1="416.87" y1="28.08" x2="392.44" y2="32.63"/>
		<polyline class="st19" points="391.75,42.81 393.08,40.87 394.35,38.97 395.6,37.01 		"/>
		<polyline class="st18" points="320.47,31.27 322.5,31.59 324.55,31.85 326.61,32.12 328.64,32.43 330.69,32.63 332.75,32.86
			334.8,33.06 336.89,33.3 338.95,33.44 340.98,33.6 343.03,33.79 345.09,33.93 347.18,34.04 349.23,34.13 351.33,34.18
			353.32,34.28 355.42,34.37 357.47,34.37 359.52,34.37 361.62,34.37 363.67,34.37 365.75,34.37 367.76,34.37 369.87,34.28
			371.89,34.18 373.96,34.13 376.04,34.04 378.04,33.93 380.16,33.79 382.19,33.6 384.23,33.44 386.3,33.26 388.33,33.06
			390.38,32.86 392.44,32.63 		"/>
		<ellipse class="st1" cx="320.47" cy="31.27" rx="1.41" ry="1.41"/>
		<ellipse class="st1" cx="392.14" cy="32.77" rx="1.41" ry="1.41"/>
		<ellipse class="st1" cx="414.86" cy="32.43" rx="1.41" ry="1.41"/>
		<ellipse class="st1" cx="395.6" cy="37.01" rx="1.41" ry="1.41"/>
		<ellipse class="st1" cx="391.75" cy="42.81" rx="1.41" ry="1.41"/>
		<ellipse class="st1" cx="416.87" cy="28.08" rx="1.41" ry="1.41"/>
		<ellipse class="st1" cx="310.99" cy="19.11" rx="1.41" ry="1.41"/>
	</g>
	<g>
		<g>
			<polyline class="st20" points="275.7,82.2 274.73,82.33 273.75,82.48 272.77,82.59 271.79,82.73 270.8,82.81 269.82,82.93
				268.83,83.02 267.84,83.11 266.83,83.2 265.84,83.27 264.86,83.36 263.83,83.4 262.83,83.46 261.83,83.49 260.83,83.55 			"/>
			<polyline class="st20" points="308.14,81.34 308.89,80.65 309.64,79.97 310.36,79.29 311.11,78.59 311.82,77.91 312.55,77.21
				313.28,76.49 313.95,75.78 314.64,75.08 315.35,74.35 316.01,73.65 316.69,72.93 317.37,72.19 318.01,71.47 318.64,70.74
				319.28,70.01 319.92,69.26 320.56,68.54 			"/>
			<polyline class="st20" points="287.48,91.09 286.53,90.93 285.57,90.75 284.62,90.55 283.66,90.36 282.71,90.19 281.8,89.96
				280.84,89.75 279.89,89.55 278.98,89.29 278.05,89.07 277.09,88.81 276.17,88.59 275.25,88.34 274.34,88.09 273.41,87.82
				272.5,87.54 271.56,87.27 270.65,87 269.75,86.72 268.83,86.43 267.95,86.14 267.04,85.83 266.16,85.52 265.25,85.2
				264.35,84.88 263.48,84.54 262.58,84.23 261.69,83.88 260.83,83.55 			"/>
			<polyline class="st20" points="287.48,91.09 286.53,90.89 285.57,90.66 284.62,90.44 283.69,90.19 282.76,89.96 281.8,89.7
				280.9,89.45 279.95,89.19 279.03,88.92 278.09,88.65 277.16,88.36 276.25,88.09 275.34,87.79 			"/>
			<polyline class="st20" points="321.88,68.25 320.83,68.25 319.82,68.25 318.78,68.23 317.73,68.21 316.74,68.17 315.71,68.12
				314.69,68.08 313.66,68 312.64,67.94 			"/>
			<polyline class="st20" points="317.37,64.69 316.6,65.17 315.83,65.64 315.06,66.11 314.28,66.6 313.46,67.05 312.69,67.53
				311.89,67.98 311.09,68.43 310.27,68.88 309.45,69.3 308.64,69.71 307.82,70.17 307,70.58 306.16,70.98 305.3,71.42
				304.45,71.81 303.62,72.21 302.74,72.63 301.9,72.99 301.02,73.37 300.19,73.76 299.27,74.13 298.4,74.48 297.52,74.85
				296.63,75.18 295.72,75.54 294.84,75.9 293.92,76.23 293.04,76.56 292.1,76.88 291.2,77.21 290.26,77.52 289.35,77.81
				288.42,78.08 287.48,78.38 286.53,78.68 285.62,78.96 284.66,79.22 283.72,79.47 282.76,79.72 281.8,80 280.82,80.22
				279.87,80.45 278.9,80.7 277.91,80.9 276.93,81.13 275.95,81.34 274.98,81.55 273.97,81.72 272.97,81.9 271.99,82.09
				270.99,82.28 270,82.42 268.97,82.57 267.98,82.73 266.97,82.87 265.94,83 264.93,83.11 263.9,83.24 262.88,83.36 261.85,83.46
				260.83,83.55 			"/>
			<polyline class="st20" points="275.34,87.79 274.43,87.56 273.49,87.37 272.57,87.11 271.66,86.88 270.74,86.64 269.82,86.39
				268.91,86.12 268,85.86 267.08,85.6 266.2,85.32 265.29,85.05 264.4,84.74 263.5,84.45 262.6,84.16 261.69,83.86 260.83,83.55
							"/>
			<polyline class="st20" points="275.34,87.79 276.25,88.09 277.16,88.36 278.09,88.65 279.03,88.92 279.95,89.19 280.9,89.45
				281.8,89.7 282.76,89.96 283.69,90.19 284.62,90.44 285.57,90.66 286.53,90.89 287.48,91.09 			"/>
			<polyline class="st20" points="275.34,87.79 274.71,87 274.09,86.2 273.47,85.41 272.88,84.59 272.26,83.8 271.7,83
				271.11,82.17 270.54,81.35 269.98,80.54 269.42,79.72 268.89,78.9 268.33,78.08 267.79,77.24 267.25,76.43 266.74,75.58
				266.24,74.77 265.72,73.92 265.25,73.08 264.74,72.26 264.24,71.42 263.79,70.58 263.34,69.75 262.88,68.9 262.43,68.08
				261.98,67.22 261.53,66.37 261.11,65.53 260.69,64.71 260.29,63.85 259.88,63 259.46,62.16 259.08,61.32 			"/>
			<polyline class="st20" points="302.73,69.53 301.9,69.98 301.11,70.42 300.3,70.86 299.47,71.27 298.65,71.7 297.83,72.09
				296.99,72.49 296.17,72.9 295.32,73.28 294.47,73.68 293.63,74.08 292.77,74.46 291.9,74.81 291.01,75.18 290.14,75.54
				289.26,75.9 288.37,76.25 287.52,76.59 286.6,76.92 285.71,77.26 284.81,77.59 283.88,77.91 282.98,78.2 282.07,78.51
				281.13,78.82 280.23,79.11 279.28,79.41 278.34,79.68 277.4,79.95 276.48,80.22 275.53,80.48 274.56,80.72 273.62,80.97
				272.66,81.23 271.7,81.45 270.73,81.68 269.75,81.9 268.77,82.11 267.79,82.31 266.79,82.52 265.81,82.71 264.84,82.88
				263.83,83.07 262.83,83.22 261.83,83.38 260.83,83.55 			"/>
			<polyline class="st20" points="319.01,68.97 318.19,69.37 317.37,69.81 316.55,70.22 315.74,70.62 314.92,71.02 314.1,71.42
				313.26,71.81 312.41,72.18 311.54,72.56 310.73,72.93 309.88,73.28 309,73.65 308.16,74.01 307.28,74.35 306.44,74.71
				305.54,75.04 304.69,75.36 303.79,75.69 302.91,76.02 302.02,76.33 301.13,76.63 300.25,76.92 299.34,77.24 298.45,77.52
				297.54,77.81 296.63,78.08 295.72,78.37 294.78,78.61 293.88,78.86 292.95,79.11 292.02,79.36 291.08,79.6 290.14,79.81
				289.21,80.05 288.26,80.27 287.32,80.48 286.37,80.67 285.44,80.88 284.48,81.08 283.53,81.27 282.56,81.45 281.62,81.61
				280.62,81.77 279.66,81.93 278.7,82.09 277.73,82.23 276.76,82.36 275.77,82.48 274.79,82.62 273.8,82.73 272.82,82.81
				271.83,82.93 270.84,83.02 269.85,83.09 268.86,83.18 267.86,83.27 266.85,83.32 265.86,83.36 264.86,83.43 263.86,83.46
				262.86,83.49 261.83,83.51 260.83,83.55 			"/>
			<line class="st20" x1="274.98" y1="86.82" x2="275.34" y2="87.79"/>
			<polyline class="st20" points="286.53,97.81 285.8,97.1 285.08,96.42 284.34,95.73 283.63,95 282.92,94.3 282.2,93.59
				281.53,92.89 280.82,92.16 280.14,91.46 279.46,90.73 278.8,89.99 278.14,89.25 277.47,88.52 276.82,87.77 276.17,87.04
				275.55,86.3 274.94,85.54 274.3,84.79 273.71,84.04 273.1,83.27 272.5,82.52 271.89,81.74 271.32,80.99 270.74,80.22
				270.15,79.45 269.61,78.69 269.07,77.91 268.52,77.13 267.98,76.36 267.43,75.58 266.91,74.81 266.4,74.01 265.87,73.24
				265.38,72.45 264.88,71.65 264.4,70.88 263.9,70.08 263.42,69.28 262.97,68.49 262.51,67.71 262.06,66.89 261.6,66.09
				261.18,65.3 260.74,64.54 260.33,63.72 259.9,62.92 259.49,62.11 259.08,61.32 			"/>
			<polyline class="st20" points="300.05,69.6 299.38,70.22 298.73,70.86 298.02,71.47 297.35,72.09 296.63,72.72 295.94,73.33
				295.24,73.95 294.54,74.54 293.8,75.15 293.09,75.75 292.33,76.36 291.6,76.92 290.83,77.52 290.07,78.08 289.33,78.68
				288.55,79.27 287.77,79.81 286.99,80.38 286.18,80.96 285.41,81.52 284.62,82.06 283.8,82.62 282.98,83.16 282.17,83.71
				281.33,84.23 280.48,84.74 279.64,85.26 278.8,85.79 277.96,86.3 277.07,86.82 276.23,87.29 275.34,87.79 			"/>
			<polyline class="st20" points="258.71,80.56 258.69,79.6 258.69,78.62 258.69,77.66 258.69,76.7 258.69,75.72 258.69,74.73
				258.69,73.79 258.71,72.81 258.74,71.85 258.74,70.9 258.78,69.91 258.78,68.97 258.81,67.98 258.85,67.02 258.87,66.08
				258.92,65.12 258.97,64.17 258.99,63.23 259.03,62.26 259.08,61.32 			"/>
			<polyline class="st20" points="259.08,61.32 259.46,62.16 259.88,63 260.29,63.85 260.69,64.71 261.11,65.53 261.53,66.37
				261.98,67.22 262.43,68.08 262.88,68.9 263.34,69.75 263.79,70.58 264.24,71.42 264.74,72.26 265.25,73.08 265.72,73.92
				266.24,74.77 266.74,75.58 267.25,76.43 267.79,77.24 268.33,78.08 268.89,78.9 269.42,79.72 269.98,80.54 270.54,81.35
				271.11,82.17 271.7,83 272.26,83.8 272.88,84.59 273.47,85.41 274.09,86.2 274.71,87 275.34,87.79 			"/>
			<polyline class="st20" points="320.56,68.54 319.67,68.85 318.78,69.16 317.92,69.46 317,69.77 316.12,70.08 315.23,70.35
				314.35,70.62 313.46,70.9 312.55,71.17 311.65,71.44 310.73,71.7 309.82,71.92 308.91,72.18 307.99,72.4 307.09,72.63
				306.18,72.85 305.25,73.08 304.34,73.26 303.4,73.47 302.47,73.65 301.55,73.86 300.61,74.03 299.68,74.19 298.75,74.35
				297.82,74.54 296.86,74.67 295.93,74.81 294.99,74.97 294.03,75.08 293.09,75.22 292.13,75.33 291.18,75.45 290.24,75.54
				289.26,75.63 288.33,75.72 287.36,75.8 286.42,75.9 285.44,75.94 284.48,76.02 283.53,76.09 282.56,76.1 281.6,76.14
				280.62,76.17 279.66,76.19 278.7,76.23 277.73,76.25 276.76,76.25 275.8,76.25 274.81,76.23 273.84,76.19 272.88,76.17
				271.89,76.14 270.92,76.09 269.96,76.04 268.97,76 268,75.92 267.04,75.85 266.07,75.78 265.08,75.69 264.1,75.61 263.13,75.49
				262.14,75.38 261.18,75.26 260.21,75.15 259.24,75.02 258.23,74.91 257.29,74.73 256.3,74.58 			"/>
			<polyline class="st20" points="313.28,80.18 312.37,80.4 311.46,80.63 310.55,80.88 309.61,81.08 308.68,81.29 307.76,81.52
				306.82,81.72 305.91,81.9 304.98,82.09 304.04,82.28 303.11,82.46 302.18,82.64 301.26,82.79 300.3,82.93 299.36,83.09
				298.4,83.22 297.46,83.36 296.52,83.49 295.56,83.61 294.62,83.72 293.67,83.84 292.72,83.94 291.76,84.04 290.81,84.14
				289.85,84.2 288.9,84.27 287.94,84.36 286.99,84.43 286,84.47 285.06,84.54 284.08,84.56 283.12,84.61 282.17,84.63
				281.19,84.66 280.23,84.68 279.25,84.68 278.31,84.68 277.34,84.68 276.34,84.66 275.39,84.63 274.43,84.63 273.45,84.59
				272.48,84.54 271.52,84.5 270.54,84.45 269.56,84.39 268.6,84.31 267.61,84.25 266.65,84.18 265.7,84.09 264.69,84 263.75,83.88
				262.76,83.78 261.79,83.65 260.83,83.55 			"/>
			<polyline class="st20" points="312.64,67.94 311.65,68.03 310.69,68.12 309.71,68.19 308.73,68.25 307.74,68.35 306.75,68.39
				305.75,68.45 304.77,68.49 303.79,68.54 302.81,68.54 301.84,68.56 300.86,68.58 299.88,68.58 298.9,68.56 297.91,68.56
				296.92,68.54 295.94,68.51 294.99,68.45 294,68.43 293.01,68.35 292.05,68.3 291.08,68.23 290.11,68.14 289.15,68.08
				288.17,67.98 287.19,67.87 286.23,67.76 285.26,67.65 284.31,67.53 283.35,67.39 282.36,67.26 281.44,67.09 280.45,66.93
				279.52,66.78 278.54,66.62 277.62,66.44 276.66,66.26 275.7,66.05 274.77,65.84 273.81,65.64 272.88,65.44 271.95,65.22
				270.99,64.99 270.07,64.73 269.15,64.5 268.22,64.26 267.3,63.99 266.36,63.72 265.45,63.43 264.51,63.16 263.61,62.89
				262.7,62.57 261.79,62.28 260.88,61.98 259.97,61.64 259.08,61.32 			"/>
			<polyline class="st20" points="260.83,83.55 261.69,83.86 262.6,84.16 263.5,84.45 264.4,84.74 265.29,85.05 266.2,85.32
				267.08,85.6 268,85.86 268.91,86.12 269.82,86.39 270.74,86.64 271.66,86.88 272.57,87.11 273.49,87.37 274.43,87.56
				275.34,87.79 			"/>
			<polyline class="st20" points="260.83,83.55 261.69,83.88 262.58,84.23 263.48,84.54 264.35,84.88 265.25,85.2 266.16,85.52
				267.04,85.83 267.95,86.14 268.83,86.43 269.75,86.72 270.65,87 271.56,87.27 272.5,87.54 273.41,87.82 274.34,88.09
				275.25,88.34 276.17,88.59 277.09,88.81 278.05,89.07 278.98,89.29 279.89,89.55 280.84,89.75 281.8,89.96 282.71,90.19
				283.66,90.36 284.62,90.55 285.57,90.75 286.53,90.93 287.48,91.09 			"/>
			<polyline class="st20" points="256.3,74.58 256.71,75.49 257.15,76.38 257.58,77.3 258.01,78.18 258.46,79.09 258.92,79.97
				259.39,80.88 259.84,81.77 260.33,82.65 260.83,83.55 			"/>
			<polyline class="st20" points="257.71,79.74 257.78,78.76 257.8,77.81 257.87,76.81 257.94,75.83 257.99,74.85 258.07,73.9
				258.13,72.9 258.17,71.94 258.23,70.96 258.32,69.98 258.4,69.01 258.48,68.06 258.55,67.07 258.65,66.11 258.71,65.17
				258.81,64.18 258.9,63.23 258.99,62.28 259.08,61.32 			"/>
			<polyline class="st20" points="269.08,86.12 268.15,85.86 267.25,85.6 266.34,85.32 265.41,85.05 264.47,84.74 263.56,84.45
				262.65,84.16 261.74,83.86 260.83,83.55 			"/>
		</g>
		<ellipse class="st1" cx="286.53" cy="97.91" rx="0.66" ry="0.66"/>
		<ellipse class="st1" cx="287.52" cy="91.18" rx="0.66" ry="0.66"/>
		<ellipse class="st1" cx="300.09" cy="69.62" rx="0.66" ry="0.66"/>
		<ellipse class="st1" cx="302.81" cy="69.52" rx="0.66" ry="0.66"/>
		<ellipse class="st1" cx="312.61" cy="67.9" rx="0.66" ry="0.66"/>
		<ellipse class="st1" cx="318.97" cy="68.99" rx="0.66" ry="0.66"/>
		<ellipse class="st1" cx="313.32" cy="80.24" rx="0.66" ry="0.66"/>
		<ellipse class="st1" cx="308.16" cy="81.31" rx="0.66" ry="0.66"/>
		<ellipse class="st1" cx="320.6" cy="68.62" rx="0.66" ry="0.66"/>
		<ellipse class="st1" cx="321.88" cy="68.19" rx="0.66" ry="0.66"/>
		<ellipse class="st1" cx="317.35" cy="64.71" rx="0.66" ry="0.66"/>
		<ellipse class="st1" cx="275.27" cy="87.79" rx="0.66" ry="0.66"/>
		<ellipse class="st1" cx="274.94" cy="86.7" rx="0.66" ry="0.66"/>
		<ellipse class="st1" cx="275.7" cy="82.25" rx="0.66" ry="0.66"/>
		<ellipse class="st1" cx="269.13" cy="86.08" rx="0.66" ry="0.66"/>
		<ellipse class="st1" cx="260.78" cy="83.49" rx="0.66" ry="0.66"/>
		<ellipse class="st1" cx="258.69" cy="80.54" rx="0.66" ry="0.66"/>
		<ellipse class="st1" cx="257.69" cy="79.72" rx="0.66" ry="0.66"/>
		<ellipse class="st1" cx="256.3" cy="74.54" rx="0.66" ry="0.66"/>
		<ellipse class="st1" cx="259.14" cy="61.26" rx="0.66" ry="0.66"/>
	</g>
	<g id="constellation_4_">
		<g>
			<g>
				<g>
					<polyline class="st21" points="119.84,153.28 121.37,152.39 122.88,151.48 					"/>
				</g>
			</g>
			<g>
				<g>
					<polyline class="st21" points="69.52,156.99 70.79,157.09 72.11,157.17 73.4,157.24 74.68,157.29 75.99,157.35 77.3,157.43
						78.62,157.43 79.88,157.45 81.23,157.49 82.51,157.49 83.79,157.49 85.13,157.45 86.41,157.43 87.73,157.38 89.03,157.32
						90.31,157.29 91.62,157.21 92.93,157.14 94.21,157.05 95.49,156.96 96.79,156.85 98.1,156.75 99.39,156.59 100.69,156.47
						101.98,156.33 103.25,156.2 104.53,156.02 105.83,155.84 107.11,155.64 108.39,155.48 109.67,155.26 110.95,155.04
						112.23,154.83 113.51,154.59 114.76,154.34 116.03,154.1 117.31,153.82 118.56,153.55 119.84,153.28 					"/>
				</g>
			</g>
			<g>
				<g>
					<polyline class="st21" points="122.88,151.48 121.37,152.39 119.84,153.28 					"/>
				</g>
			</g>
			<g>
				<g>
					<line class="st21" x1="113.04" y1="186.11" x2="111.56" y2="184.54"/>
				</g>
			</g>
			<g>
				<g>
					<polyline class="st21" points="114.84,171.82 114.54,173.13 114.24,174.37 113.91,175.69 113.62,176.93 113.26,178.21
						112.97,179.47 112.63,180.77 112.29,182.02 111.93,183.27 111.56,184.54 					"/>
				</g>
			</g>
			<g>
				<g>
					<polyline class="st21" points="105.41,157.49 105.83,158.7 106.26,159.91 106.68,161.12 107.11,162.39 107.54,163.6
						107.99,164.81 108.42,166.03 108.89,167.26 109.34,168.48 109.79,169.69 110.26,170.9 110.71,172.13 111.2,173.34
						111.68,174.56 112.14,175.79 112.63,176.96 113.11,178.19 113.61,179.37 114.09,180.59 114.58,181.77 115.09,183
						115.57,184.18 116.07,185.36 116.59,186.55 					"/>
				</g>
			</g>
			<g>
				<g>
					<polyline class="st21" points="116.59,186.55 115.24,186.16 113.93,185.69 112.59,185.28 111.29,184.81 109.97,184.37
						108.64,183.9 107.35,183.42 106.08,182.93 104.77,182.45 103.49,181.92 102.21,181.41 100.96,180.92 99.68,180.38
						98.44,179.82 97.19,179.31 95.97,178.73 94.76,178.19 93.5,177.63 92.31,177.03 91.1,176.44 89.88,175.86 88.69,175.26
						87.51,174.65 86.35,174.05 85.17,173.4 84.01,172.76 82.84,172.15 81.73,171.52 80.57,170.85 79.44,170.21 78.31,169.5
						77.21,168.87 76.12,168.17 75,167.5 73.93,166.8 72.83,166.06 71.73,165.37 70.71,164.67 69.63,163.96 68.56,163.24
						67.57,162.5 66.5,161.77 65.49,161.01 64.48,160.24 63.48,159.5 62.48,158.75 61.51,158 60.54,157.21 59.56,156.44
						58.58,155.64 57.61,154.86 56.69,154.07 55.75,153.28 54.8,152.48 53.88,151.7 52.97,150.84 52.09,150.06 51.18,149.22
						50.3,148.39 49.45,147.54 48.58,146.74 47.73,145.92 46.89,145.06 46.04,144.24 45.18,143.38 44.4,142.53 43.57,141.67
						42.75,140.81 					"/>
				</g>
			</g>
			<g>
				<g>
					<polyline class="st21" points="116.59,186.55 116.07,185.36 115.57,184.18 115.09,183 114.58,181.77 114.09,180.59
						113.61,179.37 113.11,178.19 112.63,176.96 112.14,175.79 111.68,174.56 111.2,173.34 110.71,172.13 110.26,170.9
						109.79,169.69 109.34,168.48 108.89,167.26 108.42,166.03 107.99,164.81 107.54,163.6 107.11,162.39 106.68,161.12
						106.26,159.91 105.83,158.7 105.41,157.49 					"/>
				</g>
			</g>
			<g>
				<g>
					<polyline class="st21" points="116.59,186.55 116.68,185.28 116.77,184 116.83,182.71 116.92,181.41 116.98,180.13
						117.04,178.86 117.13,177.54 117.17,176.27 117.25,174.95 117.29,173.68 117.35,172.4 117.4,171.08 117.4,169.82 117.46,168.5
						117.5,167.19 117.53,165.91 117.56,164.6 117.6,163.32 117.62,162.04 117.62,160.74 					"/>
				</g>
			</g>
			<g>
				<g>
					<line class="st21" x1="111.56" y1="184.54" x2="113.04" y2="186.11"/>
				</g>
			</g>
			<g>
				<g>
					<polyline class="st21" points="85.25,155.19 86.02,156.14 86.78,157.11 87.53,158.06 88.29,159 89.12,159.97 89.88,160.92
						90.71,161.86 91.52,162.8 92.31,163.75 93.17,164.7 94.03,165.61 94.84,166.55 95.72,167.46 96.57,168.37 97.44,169.29
						98.31,170.21 99.2,171.12 100.11,172.03 101,172.91 101.94,173.79 102.86,174.7 103.77,175.55 104.71,176.44 105.65,177.34
						106.6,178.19 107.57,179.06 108.56,179.91 109.52,180.77 110.5,181.62 111.5,182.45 112.5,183.29 113.51,184.12 114.54,184.95
						115.57,185.76 116.59,186.55 					"/>
				</g>
			</g>
			<g>
				<g>
					<polyline class="st21" points="44.79,153.76 46.07,154.03 47.35,154.28 48.62,154.53 49.93,154.74 51.21,154.97 52.49,155.19
						53.77,155.38 55.05,155.56 56.36,155.75 57.63,155.92 58.94,156.07 60.21,156.2 61.51,156.35 62.81,156.47 64.09,156.59
						65.4,156.69 66.72,156.8 67.98,156.91 69.3,156.96 70.57,157.05 71.85,157.11 73.2,157.17 74.48,157.17 75.76,157.21
						77.06,157.24 78.34,157.27 79.65,157.27 80.93,157.24 82.25,157.21 83.55,157.17 84.84,157.17 86.1,157.11 87.42,157.05
						88.66,156.96 89.97,156.91 91.25,156.8 92.56,156.72 93.84,156.59 95.13,156.47 96.39,156.35 97.67,156.2 98.94,156.07
						100.24,155.92 101.51,155.75 102.79,155.59 104.04,155.38 105.34,155.23 106.6,154.97 107.87,154.76 109.12,154.56
						110.37,154.34 111.65,154.1 112.9,153.82 114.14,153.58 115.39,153.29 116.68,153.03 117.89,152.73 119.14,152.42
						120.39,152.12 121.64,151.81 122.88,151.48 					"/>
				</g>
			</g>
			<g>
				<g>
					<polyline class="st21" points="117.62,160.74 117.62,162.04 117.6,163.32 117.56,164.6 117.53,165.91 117.5,167.19
						117.46,168.5 117.4,169.82 117.4,171.08 117.35,172.4 117.29,173.68 117.25,174.95 117.17,176.27 117.13,177.54 117.04,178.86
						116.98,180.13 116.92,181.41 116.83,182.71 116.77,184 116.68,185.28 116.59,186.55 					"/>
				</g>
			</g>
			<g>
				<g>
					<polyline class="st21" points="42.75,140.81 43.57,141.67 44.4,142.53 45.18,143.38 46.04,144.24 46.89,145.06 47.73,145.92
						48.58,146.74 49.45,147.54 50.3,148.39 51.18,149.22 52.09,150.06 52.97,150.84 53.88,151.7 54.8,152.48 55.75,153.28
						56.69,154.07 57.61,154.86 58.58,155.64 59.56,156.44 60.54,157.21 61.51,158 62.48,158.75 63.48,159.5 64.48,160.24
						65.49,161.01 66.5,161.77 67.57,162.5 68.56,163.24 69.63,163.96 70.71,164.67 71.73,165.37 72.83,166.06 73.93,166.8
						75,167.5 76.12,168.17 77.21,168.87 78.31,169.5 79.44,170.21 80.57,170.85 81.73,171.52 82.84,172.15 84.01,172.76
						85.17,173.4 86.35,174.05 87.51,174.65 88.69,175.26 89.88,175.86 91.1,176.44 92.31,177.03 93.5,177.63 94.76,178.19
						95.97,178.73 97.19,179.31 98.44,179.82 99.68,180.38 100.96,180.92 102.21,181.41 103.49,181.92 104.77,182.45 106.08,182.93
						107.35,183.42 108.64,183.9 109.97,184.37 111.29,184.81 112.59,185.28 113.93,185.69 115.24,186.16 116.59,186.55 					"/>
				</g>
			</g>
			<g>
				<g>
					<polyline class="st21" points="39.31,154.97 40.27,155.68 41.29,156.39 42.25,157.09 43.23,157.79 44.24,158.45 45.28,159.13
						46.27,159.8 47.32,160.46 48.35,161.12 49.35,161.77 50.41,162.41 51.46,163.06 52.52,163.69 53.59,164.33 54.68,164.97
						55.75,165.58 56.81,166.18 57.9,166.8 59,167.38 60.1,167.96 61.24,168.54 62.36,169.11 63.46,169.69 64.57,170.23
						65.73,170.81 66.87,171.37 68.02,171.91 69.18,172.43 70.33,172.95 71.49,173.49 72.67,173.98 73.83,174.48 75.02,174.98
						76.25,175.47 77.42,175.93 78.62,176.42 79.83,176.9 81.04,177.36 82.26,177.79 83.49,178.25 84.73,178.66 85.95,179.1
						87.2,179.53 88.41,179.96 89.7,180.32 90.95,180.71 92.2,181.11 93.46,181.5 94.76,181.87 96.03,182.23 97.31,182.58
						98.59,182.91 99.86,183.23 101.21,183.57 102.5,183.88 103.79,184.21 105.1,184.48 106.44,184.79 107.76,185.06 109.07,185.34
						110.4,185.58 111.71,185.86 113.04,186.11 					"/>
				</g>
			</g>
		</g>
		<ellipse class="st1" cx="85.5" cy="155.23" rx="0.88" ry="0.88"/>
		<ellipse class="st1" cx="69.54" cy="156.92" rx="0.88" ry="0.88"/>
		<ellipse class="st1" cx="44.7" cy="153.76" rx="0.88" ry="0.88"/>
		<ellipse class="st1" cx="42.78" cy="140.85" rx="0.88" ry="0.88"/>
		<ellipse class="st1" cx="39.39" cy="155.23" rx="0.88" ry="0.88"/>
		<ellipse class="st1" cx="105.23" cy="161.46" rx="0.88" ry="0.88"/>
		<ellipse class="st1" cx="117.6" cy="160.9" rx="0.88" ry="0.88"/>
		<ellipse class="st1" cx="122.74" cy="151.6" rx="0.88" ry="0.88"/>
		<ellipse class="st1" cx="119.81" cy="153.28" rx="0.88" ry="0.88"/>
		<ellipse class="st1" cx="114.71" cy="172.18" rx="0.88" ry="0.88"/>
		<ellipse class="st1" cx="116.77" cy="186.62" rx="0.88" ry="0.88"/>
		<ellipse class="st1" cx="112.99" cy="186.07" rx="0.88" ry="0.88"/>
		<ellipse class="st1" cx="111.62" cy="184.65" rx="0.88" ry="0.88"/>
		<ellipse class="st1" cx="105.38" cy="157.54" rx="0.88" ry="0.88"/>
	</g>
	<g>
		<g>
			<polyline class="st22" points="486.58,61.46 485.16,62.28 483.74,63.09 482.33,63.9 480.86,64.71 479.44,65.48 477.98,66.25
				476.48,66.99 475.03,67.75 473.53,68.48 472.02,69.25 470.52,69.93 469.02,70.67 467.49,71.35 465.98,72.05 464.44,72.74
				462.9,73.43 461.32,74.06 459.79,74.72 458.2,75.37 456.63,75.98 455.04,76.59 453.46,77.19 451.89,77.8 450.26,78.37
				448.64,78.98 447.02,79.49 445.4,80.07 443.75,80.6 442.08,81.13 440.42,81.66 438.75,82.14 437.14,82.66 435.44,83.15
				433.73,83.59 432.07,84.04 430.37,84.49 428.67,84.93 426.96,85.34 425.26,85.78 423.51,86.15 421.77,86.56 420.07,86.92
				418.33,87.24 416.54,87.6 414.8,87.93 413.06,88.25 411.27,88.58 409.54,88.86 407.75,89.19 405.97,89.43 404.19,89.67
				402.4,89.92 400.57,90.15 398.8,90.35 			"/>
			<polyline class="st22" points="488.39,65.8 486.94,66.53 485.49,67.27 484.02,67.95 482.56,68.68 481.06,69.42 479.61,70.06
				478.11,70.75 476.6,71.43 475.06,72.08 473.56,72.74 472.02,73.39 470.52,73.98 468.99,74.6 467.45,75.25 465.86,75.81
				464.32,76.38 462.76,76.98 461.16,77.52 459.57,78.12 458.01,78.65 456.42,79.18 454.8,79.71 453.18,80.23 451.56,80.72
				449.94,81.2 448.31,81.69 446.7,82.14 445.08,82.58 443.42,83.03 441.75,83.47 440.09,83.88 438.43,84.32 436.81,84.7
				435.11,85.09 433.4,85.46 431.74,85.82 430.05,86.15 428.38,86.51 426.63,86.83 424.98,87.16 423.23,87.44 421.53,87.72
				419.79,88.01 418.05,88.3 416.35,88.53 414.59,88.78 412.86,89.02 411.11,89.19 409.37,89.43 407.62,89.64 405.86,89.79
				404.06,89.95 402.32,90.12 400.54,90.25 398.8,90.35 			"/>
			<polyline class="st22" points="471.38,77.27 469.55,77.65 467.68,77.99 465.82,78.32 464,78.61 			"/>
			<polyline class="st22" points="464,78.61 462.43,79.13 460.84,79.62 459.27,80.11 457.68,80.6 456.05,81.08 454.47,81.56
				452.87,82.02 451.24,82.46 449.61,82.87 447.99,83.31 446.37,83.67 444.72,84.12 443.09,84.49 441.43,84.85 439.77,85.22
				438.11,85.58 436.45,85.95 434.78,86.27 433.08,86.56 431.46,86.88 429.76,87.16 428.05,87.44 426.35,87.72 424.65,87.97
				422.99,88.22 421.25,88.45 419.6,88.66 417.85,88.86 416.14,89.06 414.44,89.27 412.69,89.43 410.96,89.59 409.25,89.76
				407.51,89.87 405.77,90 404.02,90.12 402.29,90.2 400.54,90.31 398.8,90.35 			"/>
			<polyline class="st22" points="452.7,65.04 451.36,65.88 449.94,66.78 448.61,67.62 447.19,68.48 445.77,69.33 444.34,70.18
				442.92,71.02 441.51,71.84 440.04,72.64 438.59,73.46 437.09,74.27 435.64,75.09 434.13,75.86 432.6,76.59 431.1,77.35
				429.55,78.12 428.05,78.85 426.52,79.59 424.98,80.32 423.35,81 421.81,81.74 420.23,82.37 418.65,83.08 417.04,83.75
				415.4,84.4 413.79,85.04 412.17,85.71 410.54,86.3 408.89,86.92 407.23,87.52 405.53,88.14 403.86,88.7 402.17,89.27
				400.5,89.84 398.8,90.35 			"/>
			<polyline class="st22" points="434.5,87.9 432.83,88.14 431.14,88.38 429.47,88.58 427.81,88.78 426.11,88.99 424.44,89.14
				422.7,89.31 421.05,89.47 419.35,89.59 417.64,89.72 415.93,89.84 414.24,89.95 412.55,90.05 410.83,90.15 409.09,90.2
				407.39,90.28 405.69,90.31 403.94,90.31 402.24,90.35 400.5,90.35 398.8,90.35 			"/>
			<polyline class="st22" points="398.8,90.35 400.54,90.31 402.29,90.2 404.02,90.12 405.77,90 407.51,89.87 409.25,89.76
				410.96,89.59 412.69,89.43 414.44,89.27 416.14,89.06 417.85,88.86 419.6,88.66 421.25,88.45 422.99,88.22 424.65,87.97
				426.35,87.72 428.05,87.44 429.76,87.16 431.46,86.88 433.08,86.56 434.78,86.27 436.45,85.95 438.11,85.58 439.77,85.22
				441.43,84.85 443.09,84.49 444.72,84.12 446.37,83.67 447.99,83.31 449.61,82.87 451.24,82.46 452.87,82.02 454.47,81.56
				456.05,81.08 457.68,80.6 459.27,80.11 460.84,79.62 462.43,79.13 464,78.61 			"/>
			<polyline class="st22" points="479.48,83.75 477.7,83.23 475.96,82.7 474.26,82.17 472.47,81.56 470.77,81.03 469.07,80.44
				467.37,79.82 465.66,79.22 464,78.61 			"/>
			<polyline class="st22" points="489.5,62.31 488.19,63.54 486.86,64.71 485.52,65.88 484.15,67.06 482.81,68.23 481.42,69.42
				480.05,70.54 478.63,71.68 477.21,72.82 475.79,73.95 474.32,75.09 472.88,76.18 471.38,77.27 			"/>
			<polyline class="st22" points="400.75,94.38 399.76,92.4 398.8,90.35 			"/>
			<polyline class="st22" points="438.23,85.95 436.36,86.92 434.5,87.9 			"/>
		</g>
		<ellipse class="st1" cx="398.88" cy="90.31" rx="1.17" ry="1.17"/>
		<ellipse class="st1" cx="400.9" cy="94.38" rx="1.17" ry="1.17"/>
		<ellipse class="st1" cx="434.37" cy="87.72" rx="1.17" ry="1.17"/>
		<ellipse class="st1" cx="438.18" cy="85.82" rx="1.17" ry="1.17"/>
		<ellipse class="st1" cx="479.69" cy="83.88" rx="1.19" ry="1.17"/>
		<ellipse class="st1" cx="488.36" cy="65.97" rx="1.19" ry="1.17"/>
		<ellipse class="st1" cx="489.58" cy="62.48" rx="1.19" ry="1.17"/>
		<ellipse class="st1" cx="486.41" cy="61.71" rx="1.19" ry="1.17"/>
		<ellipse class="st1" cx="471.55" cy="77.19" rx="1.19" ry="1.17"/>
		<ellipse class="st1" cx="464.05" cy="78.57" rx="1.19" ry="1.17"/>
		<path class="st1" d="M452.53,63.94c0.65,0,1.19,0.52,1.19,1.17s-0.53,1.17-1.19,1.17c-0.65,0-1.19-0.52-1.19-1.17
			S451.88,63.94,452.53,63.94z"/>
	</g>
	<g id="constellation_5_">
		<g>
			<polyline class="st23" points="549.26,17.55 547.96,17.96 546.66,18.37 545.35,18.74 			"/>
			<polyline class="st23" points="545.35,18.74 545.32,20.02 545.3,21.29 545.25,22.59 			"/>
			<line class="st23" x1="536.33" y1="34.62" x2="537.06" y2="34.41"/>
			<line class="st23" x1="544.41" y1="18.5" x2="545.35" y2="18.74"/>
			<polyline class="st23" points="517.4,17.18 518.55,17.37 519.67,17.5 520.83,17.66 521.97,17.83 523.11,17.96 524.27,18.07
				525.41,18.2 526.57,18.31 527.74,18.42 528.87,18.5 530.04,18.58 531.23,18.67 532.4,18.72 533.57,18.78 534.73,18.8
				535.89,18.83 537.09,18.85 538.28,18.89 539.45,18.89 540.64,18.89 541.81,18.85 543,18.83 544.19,18.8 545.35,18.74 			"/>
			<polyline class="st23" points="546.08,21.94 545.73,20.34 545.35,18.74 			"/>
			<polyline class="st23" points="540.69,27.77 541.24,26.76 541.78,25.76 542.32,24.76 542.85,23.76 543.37,22.75 543.89,21.75
				544.37,20.75 544.89,19.75 545.35,18.74 			"/>
			<polyline class="st23" points="535.46,54.37 535.89,53.26 536.28,52.18 536.68,51.07 537.09,49.95 537.47,48.85 537.84,47.74
				538.19,46.65 538.58,45.55 538.93,44.4 539.29,43.29 539.64,42.19 539.99,41.07 540.31,39.93 540.64,38.85 540.96,37.71
				541.26,36.6 541.56,35.49 541.85,34.35 542.15,33.24 542.46,32.13 542.72,30.99 543,29.88 543.26,28.77 543.5,27.66
				543.78,26.52 544.02,25.41 544.24,24.3 544.49,23.18 544.73,22.08 544.95,20.97 545.17,19.86 545.35,18.74 			"/>
			<polyline class="st23" points="475.53,11.59 476.67,11.91 477.8,12.21 478.92,12.54 480.08,12.84 481.19,13.14 482.36,13.41
				483.5,13.68 484.63,13.92 485.8,14.19 486.94,14.44 488.1,14.66 489.27,14.88 490.4,15.09 491.57,15.27 492.76,15.47
				493.9,15.66 495.07,15.82 496.23,15.98 497.42,16.14 498.59,16.28 499.76,16.42 500.92,16.53 502.08,16.63 503.27,16.74
				504.44,16.85 505.63,16.94 506.8,16.98 507.96,17.07 509.15,17.09 510.32,17.15 511.51,17.18 512.7,17.18 513.87,17.2
				515.06,17.2 516.23,17.18 517.4,17.18 			"/>
			<polyline class="st23" points="545.25,22.59 544.13,22.9 543.05,23.18 541.94,23.46 540.83,23.76 539.71,24 538.6,24.27
				537.49,24.55 536.39,24.76 535.24,25 534.16,25.24 533.03,25.46 531.88,25.65 530.78,25.87 529.63,26.06 528.52,26.26
				527.39,26.41 526.25,26.6 525.12,26.74 523.97,26.91 522.84,27.04 521.7,27.15 520.54,27.28 519.42,27.39 518.25,27.5
				517.12,27.58 515.95,27.69 514.82,27.77 513.68,27.82 512.52,27.9 511.38,27.93 510.21,27.99 509.05,28.01 507.91,28.04
				506.74,28.06 505.57,28.06 504.44,28.06 503.27,28.04 502.12,28.04 500.97,28.01 499.8,27.95 498.65,27.9 497.5,27.88
				496.34,27.8 495.18,27.71 494.04,27.66 492.87,27.56 491.7,27.47 490.57,27.36 489.4,27.23 488.23,27.09 			"/>
			<line class="st23" x1="537.06" y1="34.41" x2="536.33" y2="34.62"/>
			<polyline class="st23" points="474.23,15.44 475.05,16.2 475.85,16.96 476.7,17.72 477.54,18.48 478.37,19.23 479.21,19.97
				480.08,20.69 480.95,21.43 481.84,22.16 482.74,22.9 483.63,23.59 484.52,24.33 485.45,25 486.37,25.71 487.32,26.41
				488.23,27.09 			"/>
			<polyline class="st23" points="488.23,27.09 489.4,27.23 490.57,27.36 491.7,27.47 492.87,27.56 494.04,27.66 495.18,27.71
				496.34,27.8 497.5,27.88 498.65,27.9 499.8,27.95 500.97,28.01 502.12,28.04 503.27,28.04 504.44,28.06 505.57,28.06
				506.74,28.06 507.91,28.04 509.05,28.01 510.21,27.99 511.38,27.93 512.52,27.9 513.68,27.82 514.82,27.77 515.95,27.69
				517.12,27.58 518.25,27.5 519.42,27.39 520.54,27.28 521.7,27.15 522.84,27.04 523.97,26.91 525.12,26.74 526.25,26.6
				527.39,26.41 528.52,26.26 529.63,26.06 530.78,25.87 531.88,25.65 533.03,25.46 534.16,25.24 535.24,25 536.39,24.76
				537.49,24.55 538.6,24.27 539.71,24 540.83,23.76 541.94,23.46 543.05,23.18 544.13,22.9 545.25,22.59 			"/>
			<polyline class="st23" points="488.23,27.09 487.32,26.41 486.37,25.71 485.45,25 484.52,24.33 483.63,23.59 482.74,22.9
				481.84,22.16 480.95,21.43 480.08,20.69 479.21,19.97 478.37,19.23 477.54,18.48 476.7,17.72 475.85,16.96 475.05,16.2
				474.23,15.44 			"/>
			<polyline class="st23" points="473.36,36.47 474.4,35.86 475.42,35.27 476.48,34.71 477.48,34.08 478.52,33.48 479.51,32.89
				480.51,32.24 481.49,31.61 482.49,30.99 483.46,30.37 484.45,29.72 485.39,29.07 486.37,28.42 487.32,27.77 488.23,27.09 			"/>
			<line class="st23" x1="546.21" y1="22.62" x2="545.25" y2="22.59"/>
		</g>
		<ellipse class="st1" cx="488.32" cy="27.15" rx="0.78" ry="0.78"/>
		<ellipse class="st1" cx="517.34" cy="17.18" rx="0.78" ry="0.78"/>
		<ellipse class="st1" cx="535.95" cy="34.41" rx="0.78" ry="0.78"/>
		<ellipse class="st1" cx="537.41" cy="34.41" rx="0.78" ry="0.78"/>
		<ellipse class="st1" cx="535.44" cy="54.37" rx="0.78" ry="0.78"/>
		<ellipse class="st1" cx="540.72" cy="27.8" rx="0.78" ry="0.78"/>
		<ellipse class="st1" cx="545.25" cy="22.59" rx="0.78" ry="0.78"/>
		<ellipse class="st1" cx="546.14" cy="22.7" rx="0.78" ry="0.78"/>
		<ellipse class="st1" cx="546.14" cy="22.05" rx="0.78" ry="0.78"/>
		<ellipse class="st1" cx="544.21" cy="18.42" rx="0.78" ry="0.78"/>
		<ellipse class="st1" cx="545.32" cy="18.8" rx="0.78" ry="0.78"/>
		<ellipse class="st1" cx="549.33" cy="17.5" rx="0.78" ry="0.78"/>
		<ellipse class="st1" cx="473.96" cy="15.42" rx="0.78" ry="0.78"/>
		<ellipse class="st1" cx="475.53" cy="11.54" rx="0.78" ry="0.78"/>
		<ellipse class="st1" cx="473.42" cy="36.36" rx="0.78" ry="0.78"/>
	</g>
	<g>
		<g>
			<polygon class="st24" points="234.9,23.85 234.86,23.82 234.9,23.82 234.86,23.79 234.85,23.82 234.81,23.91 234.78,23.97
				234.78,24.06 234.78,24.09 234.81,24.09 234.85,24.06 234.86,24.03 234.86,23.97 234.86,23.94 234.9,23.91 			"/>
			<polyline class="st25" points="156.25,14.26 157.45,14.62 158.7,14.98 159.96,15.33 161.19,15.69 162.44,16 163.69,16.29
				164.95,16.62 166.2,16.89 167.46,17.19 168.71,17.48 169.99,17.73 171.25,17.96 172.51,18.24 173.79,18.44 175.05,18.68
				176.34,18.92 177.62,19.09 178.87,19.28 180.15,19.48 181.44,19.64 182.72,19.82 183.99,19.97 185.29,20.11 186.58,20.24
				187.86,20.36 189.15,20.47 190.43,20.56 191.72,20.63 193,20.71 194.29,20.77 195.57,20.83 196.89,20.89 198.2,20.92
				199.48,20.95 200.77,20.95 202.06,20.95 203.34,20.95 204.66,20.95 205.95,20.92 207.23,20.86 208.52,20.83 209.8,20.77
				211.11,20.71 212.4,20.63 213.68,20.53 214.97,20.44 216.25,20.32 217.57,20.21 218.85,20.05 220.14,19.91 221.43,19.76
				222.71,19.61 223.99,19.43 225.28,19.25 226.53,19.04 227.85,18.83 229.11,18.63 230.39,18.42 231.67,18.18 232.92,17.93
				234.18,17.67 235.46,17.4 236.72,17.13 238,16.83 239.26,16.52 			"/>
			<polyline class="st25" points="215.12,22.21 216.25,22.75 217.39,23.34 218.53,23.88 219.72,24.42 220.85,24.96 222.02,25.5
				223.21,26 224.41,26.51 225.6,27.02 226.8,27.53 228.03,28.01 229.26,28.48 230.48,28.96 			"/>
			<polyline class="st25" points="198.66,26.57 199.88,26.78 201.16,26.96 202.39,27.17 203.64,27.35 204.9,27.53 206.15,27.68
				207.41,27.82 208.7,27.97 209.94,28.13 211.23,28.24 212.49,28.36 213.74,28.46 215.03,28.54 216.31,28.63 217.57,28.72
				218.88,28.78 220.14,28.84 221.43,28.87 222.71,28.93 224.02,28.96 225.31,28.96 226.59,28.96 227.88,28.96 229.16,28.96
				230.48,28.96 			"/>
			<polyline class="st25" points="239.26,16.52 238.61,17.58 237.88,18.63 237.2,19.66 236.48,20.71 235.76,21.76 235.04,22.78
				234.3,23.82 233.58,24.83 232.8,25.85 232.03,26.9 231.25,27.92 230.48,28.96 			"/>
			<polyline class="st25" points="228.98,36.17 229.28,34.69 229.61,33.27 229.9,31.83 230.21,30.39 230.48,28.96 			"/>
			<polyline class="st25" points="172.39,25.29 173.65,25.58 174.87,25.85 176.09,26.12 177.31,26.39 178.54,26.66 179.8,26.9
				181.03,27.14 182.27,27.37 183.5,27.58 184.76,27.76 186.02,28.01 187.24,28.18 188.49,28.36 189.75,28.52 191,28.69
				192.26,28.84 193.54,28.96 194.77,29.11 196.06,29.23 197.31,29.35 198.56,29.44 199.85,29.55 201.1,29.65 202.39,29.71
				203.64,29.8 204.9,29.82 206.21,29.89 207.47,29.92 208.72,29.94 210.04,29.97 211.29,29.97 212.55,29.97 213.86,29.94
				215.12,29.94 216.41,29.92 217.69,29.89 218.98,29.82 220.23,29.76 221.51,29.68 222.79,29.62 224.08,29.53 225.34,29.44
				226.65,29.32 227.91,29.2 229.19,29.08 230.48,28.96 			"/>
			<polyline class="st25" points="230.48,28.96 231.25,27.92 232.03,26.9 232.8,25.85 233.58,24.83 234.3,23.82 235.04,22.78
				235.76,21.76 236.48,20.71 237.2,19.66 237.88,18.63 238.61,17.58 239.26,16.52 			"/>
		</g>
		<ellipse class="st1" cx="229.04" cy="36.13" rx="0.87" ry="0.87"/>
		<ellipse class="st1" cx="230.48" cy="29.11" rx="0.87" ry="0.87"/>
		<ellipse class="st1" cx="239.5" cy="16.68" rx="0.87" ry="0.87"/>
		<ellipse class="st1" cx="215.2" cy="22.23" rx="0.87" ry="0.87"/>
		<ellipse class="st1" cx="226.2" cy="20.95" rx="0.87" ry="0.87"/>
		<ellipse class="st1" cx="198.63" cy="26.6" rx="0.87" ry="0.87"/>
		<ellipse class="st1" cx="172.44" cy="25.22" rx="0.87" ry="0.87"/>
		<ellipse class="st1" cx="161" cy="53.91" rx="0.87" ry="0.87"/>
		<ellipse class="st1" cx="156.28" cy="14.26" rx="0.87" ry="0.87"/>
		<line class="st25" x1="226.2" y1="20.95" x2="230.48" y2="28.96"/>
		<line class="st25" x1="161" y1="53.91" x2="230.48" y2="28.96"/>
	</g>
</g>
<g>
	<text transform="matrix(1 0 0 1 152.8346 175.6478)" class="st1 st2 st26">34 Months of American Protest</text>
</g>
<g>
	<text transform="matrix(1 0 0 1 232.3639 206.6604)" class="st2 st27">a project by Alyssa Fowers</text>
</g>
</svg>
