<?xml version="1.0" encoding="utf-8"?>
<!-- Generator: Adobe Illustrator 23.1.1, SVG Export Plug-In . SVG Version: 6.00 Build 0)  -->
<svg version="1.1" id="Layer_1" xmlns="http://www.w3.org/2000/svg" xmlns:xlink="http://www.w3.org/1999/xlink" x="0px" y="0px"
	 viewBox="0 0 612 219.4" style="enable-background:new 0 0 612 219.4;" xml:space="preserve">
<style type="text/css">
	.st0{fill:url(#gradient_1_);}
	.st1{fill:#FFFFFF;}
	.st2{font-family:'Titillium Web';}
	.st3{font-size:34px;}
	.st4{fill:none;stroke:#FFFFFF;stroke-width:0.2456;stroke-linejoin:round;stroke-miterlimit:10;}
	.st5{font-family:'ArialMT';}
	.st6{font-size:0.5479px;}
	.st7{fill:none;stroke:#FFFFFF;stroke-width:0.2286;stroke-linejoin:round;stroke-miterlimit:10;}
	.st8{fill:none;stroke:#FFFFFF;stroke-width:0.3033;stroke-linejoin:round;stroke-miterlimit:10;}

		.st9{opacity:0.102;fill:none;stroke:#FFFFFF;stroke-width:0.3033;stroke-linejoin:round;stroke-miterlimit:10;enable-background:new    ;}
	.st10{fill:none;stroke:#FFFFFF;stroke-width:0.1686;stroke-linejoin:round;stroke-miterlimit:10;}
	.st11{font-size:0.8147px;}
	.st12{fill:none;stroke:#FFFFFF;stroke-width:0.1686;stroke-linecap:round;stroke-linejoin:round;stroke-miterlimit:10;}
	.st13{font-size:0.536px;}
	.st14{fill:none;stroke:#FFFFFF;stroke-width:0.3304;stroke-linejoin:round;stroke-miterlimit:10;}
	.st15{font-size:0.7886px;}
	.st16{fill:none;stroke:#FFFFFF;stroke-width:0.3304;stroke-linecap:round;stroke-linejoin:round;stroke-miterlimit:10;}
	.st17{font-size:0.5187px;}
	.st18{fill:none;stroke:#FFFFFF;stroke-width:0.4175;stroke-linejoin:round;stroke-miterlimit:10;}

		.st19{opacity:0.702;fill:none;stroke:#FFFFFF;stroke-width:0.4175;stroke-linejoin:round;stroke-miterlimit:10;enable-background:new    ;}
	.st20{fill:none;stroke:#FFFFFF;stroke-width:0.1946;stroke-linejoin:round;stroke-miterlimit:10;}
	.st21{fill:none;stroke:#FFFFFF;stroke-width:0.2606;stroke-linejoin:round;stroke-miterlimit:10;}
	.st22{fill:none;stroke:#FFFFFF;stroke-width:0.3242;stroke-linejoin:round;stroke-miterlimit:10;}
	.st23{fill:none;stroke:#FFFFFF;stroke-width:0.2167;stroke-linejoin:round;stroke-miterlimit:10;}
	.st24{fill:#333333;}
	.st25{fill:none;stroke:#FFFFFF;stroke-width:0.2558;stroke-linejoin:round;stroke-miterlimit:10;}
	.st26{font-size:23px;}
	.st27{font-size:13px;}
</style>
<g>
	<g>

			<linearGradient id="gradient_1_" gradientUnits="userSpaceOnUse" x1="306.0299" y1="-1726.9933" x2="306.0299" y2="-1506.5532" gradientTransform="matrix(1 0 0 -1 0 -1488)">
			<stop  offset="0.1031" style="stop-color:#ABACB7"/>
			<stop  offset="0.1672" style="stop-color:#8F91A1"/>
			<stop  offset="0.224" style="stop-color:#7D8093"/>
			<stop  offset="0.2654" style="stop-color:#777A8E"/>
			<stop  offset="0.4511" style="stop-color:#5B5F70"/>
			<stop  offset="0.6778" style="stop-color:#191A26"/>
			<stop  offset="0.747" style="stop-color:#14151F"/>
			<stop  offset="0.8477" style="stop-color:#08080C"/>
			<stop  offset="0.8954" style="stop-color:#000000"/>
		</linearGradient>
		<rect id="gradient" x="0" y="-1" class="st0" width="612" height="220.4"/>
		<text transform="matrix(1 0 0 1 193.5788 140.4249)" class="st1 st2 st3">Points of Light:</text>
	</g>
</g>
<g id="new-icons">
	<g id="const">
		<polyline class="st4" points="531,126.3 529.9,126.7 528.8,127.1 527.7,127.4 526.6,127.8 525.5,128.2 524.3,128.6 523.2,129
			522.1,129.3 520.9,129.6 519.8,130 518.6,130.3 517.5,130.6 516.3,131 515.2,131.3 514,131.6 512.9,131.8 511.7,132.1
			510.5,132.4 509.3,132.6 508.2,132.9 507,133.1 505.8,133.4 504.6,133.6 503.4,133.8 502.2,134 501.1,134.2 499.9,134.4
			498.7,134.6 497.5,134.8 496.2,134.9 495,135.1 493.8,135.2 492.6,135.4 491.4,135.5 490.2,135.6 489,135.7 487.8,135.8
			486.6,135.9 485.4,136 484.1,136.1 482.9,136.1 481.7,136.2 480.4,136.2 479.2,136.2 478,136.3 476.8,136.3 475.5,136.3
			474.3,136.3 473,136.3 471.8,136.3 470.6,136.2 469.4,136.2 468.1,136.2 466.9,136.1 465.7,136 464.4,135.9 463.2,135.8
			461.9,135.8 460.7,135.6 459.5,135.5 458.2,135.4 457,135.2 455.7,135.1 454.5,134.9 453.3,134.8 452,134.6 450.8,134.4
			449.5,134.2 		"/>
		<polyline class="st4" points="519,127.7 517.9,128 516.8,128.4 515.7,128.7 514.5,129 513.4,129.4 512.2,129.7 511.1,130
			510,130.3 508.8,130.6 507.7,130.9 506.5,131.2 505.4,131.5 504.2,131.7 503,132 501.9,132.2 500.7,132.5 499.5,132.7
			498.3,132.9 497.2,133.1 496,133.3 494.8,133.5 493.6,133.7 492.4,133.9 491.2,134 490,134.2 488.8,134.4 487.6,134.5
			486.4,134.6 485.2,134.8 484,134.9 482.8,134.9 481.6,135.1 480.4,135.1 479.1,135.2 477.9,135.3 476.7,135.4 475.5,135.4
			474.3,135.4 473,135.5 471.8,135.5 470.6,135.5 469.4,135.5 468.1,135.5 466.9,135.5 465.7,135.5 464.4,135.4 463.2,135.4
			462,135.3 460.7,135.2 459.5,135.2 458.3,135.1 457,135 455.8,134.9 454.5,134.8 453.3,134.7 452.1,134.6 450.8,134.4
			449.5,134.2 		"/>
		<polyline class="st4" points="512.5,129.6 511.4,129.9 510.2,130.2 509.1,130.5 507.9,130.8 506.8,131.1 505.6,131.4 504.5,131.7
			503.3,131.9 502.1,132.1 500.9,132.4 499.7,132.6 498.6,132.8 497.4,133.1 496.2,133.2 495,133.5 493.8,133.6 492.6,133.9
			491.4,134 490.2,134.1 489,134.3 487.8,134.4 486.6,134.6 485.4,134.7 484.2,134.8 483,134.9 481.8,135 480.5,135.1 479.3,135.2
			478.1,135.3 476.9,135.3 475.6,135.4 474.4,135.4 473.2,135.5 471.9,135.5 470.7,135.5 469.5,135.5 468.2,135.5 467,135.5
			465.7,135.4 464.5,135.4 463.3,135.4 462,135.3 460.8,135.2 459.5,135.2 458.3,135.1 457,135 455.8,134.9 454.5,134.8
			453.3,134.7 452.1,134.6 450.8,134.4 449.5,134.2 		"/>
		<polyline class="st4" points="451.9,121.3 452.4,120.2 452.9,119.1 453.4,118 454,116.9 454.5,115.8 455,114.7 		"/>
		<polyline class="st4" points="505,129 503.9,129.3 502.8,129.6 501.6,129.9 500.5,130.2 499.3,130.5 498.2,130.8 497,131
			495.8,131.3 494.7,131.5 493.5,131.8 492.3,132 491.1,132.2 490,132.4 488.8,132.6 487.6,132.8 486.4,133 485.2,133.2 484,133.4
			482.8,133.5 481.6,133.6 480.4,133.8 479.2,133.9 478,134 476.8,134.1 475.6,134.3 474.3,134.4 473.1,134.4 471.9,134.5
			470.6,134.6 469.4,134.6 468.2,134.7 467,134.7 465.7,134.8 464.5,134.8 463.3,134.8 462,134.8 460.8,134.8 459.5,134.8
			458.3,134.7 457,134.7 455.8,134.6 454.5,134.6 453.3,134.5 452.1,134.4 450.8,134.3 449.5,134.2 		"/>
		<polyline class="st4" points="496.8,125.4 495.8,125.8 494.6,126.1 493.5,126.5 492.5,126.9 491.3,127.2 490.2,127.6 489.1,127.9
			488,128.2 486.8,128.6 485.7,128.9 484.5,129.1 483.4,129.5 482.2,129.8 481.1,130.1 480,130.3 478.8,130.6 477.6,130.9
			476.4,131.1 475.2,131.3 474.1,131.6 472.9,131.8 471.7,132 470.5,132.2 469.3,132.4 468.1,132.6 466.9,132.8 465.7,132.9
			464.5,133.1 463.2,133.2 462,133.4 460.8,133.5 459.5,133.6 458.3,133.8 457,133.9 455.8,133.9 454.6,134 453.3,134.1
			452.1,134.1 450.8,134.2 449.5,134.2 		"/>
		<polyline class="st4" points="528.7,129.1 527.5,129.1 526.2,129 524.9,129 523.7,129 522.4,128.9 521.2,128.8 519.9,128.7
			518.7,128.6 517.5,128.6 516.2,128.4 515,128.3 513.7,128.2 512.5,128 511.3,127.9 510,127.7 508.9,127.6 507.6,127.4
			506.4,127.2 505.2,127 504,126.8 502.8,126.6 501.6,126.3 500.4,126.1 499.2,125.8 498,125.6 496.8,125.4 		"/>
		<polyline class="st4" points="518.1,133.1 519.2,132.5 520.3,132 521.4,131.5 522.5,130.9 523.6,130.3 524.7,129.8 525.8,129.2
			526.8,128.6 527.9,128 529,127.4 530,126.9 531,126.3 		"/>
		<line class="st4" x1="530.9" y1="127.7" x2="531" y2="126.3"/>
		<polyline class="st4" points="502,138.4 500.8,138.5 499.6,138.6 498.4,138.6 497.2,138.7 496,138.8 494.8,138.8 493.6,138.9
			492.4,138.9 491.2,138.9 490,138.9 488.8,138.9 487.6,138.9 486.4,138.9 485.2,138.9 484,138.9 482.8,138.8 481.6,138.8
			480.4,138.8 479.3,138.7 478,138.6 476.9,138.5 475.6,138.5 474.4,138.3 473.3,138.2 472,138.1 470.9,138 469.7,137.9
			468.5,137.7 467.3,137.5 466.1,137.4 464.9,137.2 463.7,137.1 462.5,136.9 461.4,136.7 460.2,136.5 459,136.3 457.8,136.1
			456.6,135.8 455.4,135.6 454.2,135.3 453.1,135.1 451.9,134.8 450.7,134.6 449.5,134.2 		"/>
		<polyline class="st4" points="455.5,146.6 454.9,145.5 454.4,144.4 453.8,143.2 453.2,142.1 452.6,141 452.1,139.9 451.6,138.8
			451,137.6 450.6,136.5 450,135.4 449.5,134.2 		"/>
		<polyline class="st4" points="449.5,134.2 450.8,134.4 452.1,134.6 453.3,134.7 454.5,134.8 455.8,134.9 457,135 458.3,135.1
			459.5,135.2 460.8,135.2 462,135.3 463.3,135.4 464.5,135.4 465.7,135.4 467,135.5 468.2,135.5 469.5,135.5 470.7,135.5
			471.9,135.5 473.2,135.5 474.4,135.4 475.6,135.4 476.9,135.3 478.1,135.3 479.3,135.2 480.5,135.1 481.8,135 483,134.9
			484.2,134.8 485.4,134.7 486.6,134.6 487.8,134.4 489,134.3 490.2,134.1 491.4,134 492.6,133.9 493.8,133.6 495,133.5
			496.2,133.2 497.4,133.1 498.6,132.8 499.7,132.6 500.9,132.4 502.1,132.1 503.3,131.9 504.5,131.7 505.6,131.4 506.8,131.1
			507.9,130.8 509.1,130.5 510.2,130.2 511.4,129.9 512.5,129.6 		"/>
		<polyline class="st4" points="449.5,134.2 450.8,134.4 452,134.6 453.3,134.8 454.5,134.9 455.7,135.1 457,135.2 458.2,135.4
			459.5,135.5 460.7,135.6 461.9,135.8 463.2,135.8 464.4,135.9 465.7,136 466.9,136.1 468.1,136.2 469.4,136.2 470.6,136.2
			471.8,136.3 473,136.3 474.3,136.3 475.5,136.3 476.8,136.3 478,136.3 479.2,136.2 480.4,136.2 481.7,136.2 482.9,136.1
			484.1,136.1 485.4,136 486.6,135.9 487.8,135.8 489,135.7 490.2,135.6 491.4,135.5 492.6,135.4 493.8,135.2 495,135.1
			496.2,134.9 497.5,134.8 498.7,134.6 499.9,134.4 501.1,134.2 502.2,134 503.4,133.8 504.6,133.6 505.8,133.4 507,133.1
			508.2,132.9 509.3,132.6 510.5,132.4 511.7,132.1 512.9,131.8 514,131.6 515.2,131.3 516.3,131 517.5,130.6 518.6,130.3
			519.8,130 520.9,129.6 522.1,129.3 523.2,129 524.3,128.6 525.5,128.2 526.6,127.8 527.7,127.4 528.8,127.1 529.9,126.7
			531,126.3 		"/>
		<polyline class="st4" points="449.5,134.2 450.8,134.2 452.1,134.1 453.3,134.1 454.6,134 455.8,133.9 457,133.9 458.3,133.8
			459.5,133.6 460.8,133.5 462,133.4 463.2,133.2 464.5,133.1 465.7,132.9 466.9,132.8 468.1,132.6 469.3,132.4 470.5,132.2
			471.7,132 472.9,131.8 474.1,131.6 475.2,131.3 476.4,131.1 477.6,130.9 478.8,130.6 480,130.3 481.1,130.1 482.2,129.8
			483.4,129.5 484.5,129.1 485.7,128.9 486.8,128.6 488,128.2 489.1,127.9 490.2,127.6 491.3,127.2 492.5,126.9 493.5,126.5
			494.6,126.1 495.8,125.8 496.8,125.4 		"/>
		<polyline class="st4" points="455,114.7 454.7,115.8 454.4,116.9 454.1,118.1 453.8,119.2 453.4,120.3 453.1,121.5 452.8,122.7
			452.5,123.8 452.1,125 451.8,126.1 451.5,127.3 451.2,128.4 450.8,129.6 450.5,130.8 450.2,131.9 449.9,133.1 449.5,134.2 		"/>
		<text transform="matrix(0.9868 0 0 1 511.377 128.6377)" class="st1 st5 st6">●</text>
		<path class="st1" d="M512.5,128.7c0.5,0,0.8,0.4,0.8,0.8s-0.4,0.8-0.8,0.8s-0.8-0.4-0.8-0.8S512,128.7,512.5,128.7z"/>
		<ellipse class="st1" cx="511.5" cy="128.3" rx="0.8" ry="0.8"/>
		<ellipse class="st1" cx="505" cy="129.1" rx="0.8" ry="0.8"/>
		<ellipse class="st1" cx="497" cy="125.3" rx="0.8" ry="0.8"/>
		<path class="st1" d="M511.6,134.5c0.5,0,0.8,0.4,0.8,0.8s-0.4,0.8-0.8,0.8s-0.8-0.4-0.8-0.8S511.1,134.5,511.6,134.5z"/>
		<ellipse class="st1" cx="502.1" cy="138.3" rx="0.8" ry="0.8"/>
		<ellipse class="st1" cx="455.5" cy="146.7" rx="0.8" ry="0.8"/>
		<ellipse class="st1" cx="449.4" cy="134.3" rx="0.8" ry="0.8"/>
		<ellipse class="st1" cx="454.9" cy="114.7" rx="0.8" ry="0.8"/>
		<ellipse class="st1" cx="451.9" cy="121.3" rx="0.8" ry="0.8"/>
		<ellipse class="st1" cx="518.2" cy="132.9" rx="0.8" ry="0.8"/>
		<ellipse class="st1" cx="519.1" cy="127.8" rx="0.8" ry="0.8"/>
		<ellipse class="st1" cx="530.9" cy="126.1" rx="0.8" ry="0.8"/>
		<ellipse class="st1" cx="528.7" cy="127" rx="0.8" ry="0.8"/>
		<ellipse class="st1" cx="530.8" cy="128.1" rx="0.8" ry="0.8"/>
		<ellipse class="st1" cx="528.7" cy="129.3" rx="0.8" ry="0.8"/>
	</g>
	<g>
		<g>
			<polyline class="st7" points="89.1,25.2 87.9,25.3 86.6,25.3 85.4,25.4 84.2,25.4 83,25.4 81.8,25.4 80.6,25.4 79.3,25.4
				78.1,25.4 76.9,25.4 75.6,25.3 74.4,25.3 73.2,25.2 72,25.2 70.8,25.1 69.6,25 68.3,24.9 67.2,24.8 65.9,24.7 64.7,24.6
				63.5,24.4 62.3,24.3 61.1,24.1 59.9,24 58.7,23.8 57.5,23.6 56.3,23.4 55.1,23.2 53.9,23 52.8,22.8 51.5,22.6 50.4,22.4
				49.2,22.1 48,21.8 46.8,21.6 45.7,21.3 44.5,21 43.3,20.8 42.2,20.5 41,20.1 39.8,19.8 38.7,19.5 37.5,19.2 36.3,18.8 35.2,18.5
				34.1,18.1 32.9,17.7 31.8,17.4 30.7,17 29.5,16.6 			"/>
			<polyline class="st7" points="105.2,18.3 104.1,18.9 103,19.4 101.9,19.9 100.8,20.4 99.6,21 98.5,21.5 97.3,22 96.2,22.4
				95,22.9 93.8,23.4 92.7,23.9 91.5,24.3 90.3,24.8 89.1,25.2 			"/>
			<polyline class="st7" points="29.5,16.6 30.7,17 31.8,17.4 32.9,17.7 34.1,18.1 35.2,18.5 36.3,18.8 37.5,19.2 38.7,19.5
				39.8,19.8 41,20.1 42.2,20.5 43.3,20.8 44.5,21 45.7,21.3 46.8,21.6 48,21.8 49.2,22.1 50.4,22.4 51.5,22.6 52.8,22.8 53.9,23
				55.1,23.2 56.3,23.4 57.5,23.6 58.7,23.8 59.9,24 61.1,24.1 62.3,24.3 63.5,24.4 64.7,24.6 65.9,24.7 67.2,24.8 68.3,24.9
				69.6,25 70.8,25.1 72,25.2 73.2,25.2 74.4,25.3 75.6,25.3 76.9,25.4 78.1,25.4 79.3,25.4 80.6,25.4 81.8,25.4 83,25.4 84.2,25.4
				85.4,25.4 86.6,25.3 87.9,25.3 89.1,25.2 			"/>
			<polyline class="st7" points="87.8,24.4 86.7,24.8 85.6,25.3 84.6,25.7 83.5,26.2 82.4,26.6 81.3,27 80.2,27.4 79.2,27.8
				78,28.1 76.9,28.5 75.9,28.9 74.7,29.3 73.6,29.6 72.5,30 71.4,30.3 70.2,30.6 69.1,31 68,31.3 66.8,31.6 65.7,31.9 64.5,32.2
				63.3,32.5 62.2,32.8 61,33 59.8,33.3 58.7,33.5 57.5,33.8 56.3,34 55.1,34.3 53.9,34.5 52.7,34.7 51.5,34.9 50.3,35.1 49.1,35.3
				47.9,35.4 46.7,35.6 45.5,35.8 44.2,35.9 43,36 41.8,36.2 40.5,36.3 39.3,36.4 38,36.5 36.8,36.6 35.6,36.7 34.3,36.8 33.1,36.8
				31.8,36.9 30.5,36.9 29.3,37 			"/>
			<polyline class="st7" points="69,29.2 70.2,29 71.4,28.7 72.7,28.5 73.9,28.2 75.1,28 76.3,27.8 77.5,27.5 78.7,27.2 79.9,26.9
				81.1,26.6 82.3,26.3 83.5,26 84.7,25.6 85.9,25.3 87.1,25 88.2,24.6 89.4,24.2 90.6,23.9 91.7,23.5 92.9,23.1 94.1,22.7
				95.2,22.3 96.3,21.9 97.4,21.5 98.6,21 99.7,20.6 100.8,20.2 101.9,19.7 103,19.2 104.2,18.8 105.2,18.3 			"/>
			<polyline class="st7" points="31.6,10.8 31.5,11.9 31.3,13.1 31.2,14.3 31,15.4 30.9,16.6 30.8,17.8 30.7,19 30.6,20.2
				30.5,21.4 30.4,22.5 30.3,23.8 30.2,24.9 30.1,26.2 30,27.3 29.9,28.6 29.8,29.7 29.7,31 29.6,32.2 29.5,33.3 29.5,34.6
				29.4,35.8 29.3,37 			"/>
			<polyline class="st7" points="29.3,37 30.5,36.9 31.8,36.9 33.1,36.8 34.3,36.8 35.6,36.7 36.8,36.6 38,36.5 39.3,36.4
				40.5,36.3 41.8,36.2 43,36 44.2,35.9 45.5,35.8 46.7,35.6 47.9,35.4 49.1,35.3 50.3,35.1 51.5,34.9 52.7,34.7 53.9,34.5
				55.1,34.3 56.3,34 57.5,33.8 58.7,33.5 59.8,33.3 61,33 62.2,32.8 63.3,32.5 64.5,32.2 65.7,31.9 66.8,31.6 68,31.3 69.1,31
				70.2,30.6 71.4,30.3 72.5,30 73.6,29.6 74.7,29.3 75.9,28.9 76.9,28.5 78,28.1 79.2,27.8 80.2,27.4 81.3,27 82.4,26.6 83.5,26.2
				84.6,25.7 85.6,25.3 86.7,24.8 87.8,24.4 			"/>
			<polyline class="st7" points="80.2,31.1 78.9,30.8 77.7,30.5 76.5,30.2 75.2,29.9 74,29.6 72.8,29.3 71.5,28.9 70.3,28.6
				69.1,28.2 67.9,27.8 66.7,27.4 65.5,27 64.3,26.6 63.1,26.2 62,25.8 60.8,25.4 59.6,24.9 58.5,24.5 57.3,24 56.2,23.6 55,23.1
				53.9,22.6 52.8,22.1 51.6,21.6 50.5,21.1 49.4,20.6 48.3,20.1 47.2,19.6 46.1,19 45,18.5 44,17.9 42.9,17.4 41.8,16.8 40.8,16.2
				39.7,15.7 38.7,15.1 37.6,14.5 36.6,13.9 35.6,13.3 34.6,12.6 33.6,12 32.6,11.4 31.6,10.8 			"/>
			<polyline class="st7" points="74.5,36.7 73.6,35.7 72.8,34.6 72,33.5 71.3,32.5 70.5,31.4 69.7,30.3 69,29.2 			"/>
		</g>
		<ellipse class="st1" cx="74.6" cy="36.8" rx="0.8" ry="0.8"/>
		<ellipse class="st1" cx="69" cy="29.2" rx="0.8" ry="0.8"/>
		<ellipse class="st1" cx="29.6" cy="16.7" rx="0.8" ry="0.8"/>
		<ellipse class="st1" cx="29.6" cy="36.8" rx="0.8" ry="0.8"/>
		<ellipse class="st1" cx="33.2" cy="54.8" rx="0.8" ry="0.8"/>
		<ellipse class="st1" cx="31.6" cy="10.8" rx="0.8" ry="0.8"/>
		<ellipse class="st1" cx="80.2" cy="31.1" rx="0.8" ry="0.8"/>
		<ellipse class="st1" cx="89.1" cy="25.2" rx="0.8" ry="0.8"/>
		<ellipse class="st1" cx="105.3" cy="18.3" rx="0.8" ry="0.8"/>
		<ellipse class="st1" cx="87.8" cy="24.3" rx="0.8" ry="0.8"/>
		<line class="st7" x1="89.2" y1="25.2" x2="33.2" y2="54.8"/>
	</g>
	<g id="constellation">
		<g>
			<polyline class="st8" points="595.4,154.7 594.4,156.6 593.3,158.6 			"/>
			<polyline class="st8" points="587,157.6 589.1,158 591.2,158.3 593.3,158.6 			"/>
			<polyline class="st8" points="593.3,158.6 592.4,159.9 591.5,161.2 590.7,162.5 589.8,163.9 588.8,165.2 588,166.5 587,167.8
				586,169.1 585.1,170.4 584.1,171.8 583.1,173 582.1,174.3 			"/>
			<polyline class="st8" points="508.5,169.7 510,170.1 511.5,170.4 513.1,170.8 514.7,171.1 516.2,171.4 517.8,171.8 519.4,172.1
				521,172.3 522.5,172.6 524.1,172.8 525.7,173.1 527.3,173.3 528.9,173.6 530.5,173.8 532.1,174 533.7,174.2 535.2,174.4
				536.8,174.6 538.5,174.7 540,174.9 541.7,175 543.2,175.1 544.9,175.2 546.5,175.3 548.1,175.4 549.7,175.5 551.3,175.5
				552.9,175.5 554.6,175.6 556.2,175.6 557.8,175.7 559.4,175.7 561,175.6 562.7,175.6 564.3,175.5 565.9,175.5 567.5,175.4
				569.1,175.4 570.8,175.3 572.4,175.2 574,175.1 575.7,174.9 577.3,174.8 578.9,174.6 580.5,174.5 582.1,174.3 			"/>
			<polyline class="st8" points="582.1,174.3 583.1,173 584.1,171.8 585.1,170.4 586,169.1 587,167.8 588,166.5 588.8,165.2
				589.8,163.9 590.7,162.5 591.5,161.2 592.4,159.9 593.3,158.6 			"/>
			<polyline class="st8" points="582.1,174.3 580.5,174.5 578.9,174.6 577.3,174.8 575.7,174.9 574,175.1 572.4,175.2 570.8,175.3
				569.1,175.4 567.5,175.4 565.9,175.5 564.3,175.5 562.7,175.6 561,175.6 559.4,175.7 557.8,175.7 556.2,175.6 554.6,175.6
				552.9,175.5 551.3,175.5 549.7,175.5 548.1,175.4 546.5,175.3 544.9,175.2 543.2,175.1 541.7,175 540,174.9 538.5,174.7
				536.8,174.6 535.2,174.4 533.7,174.2 532.1,174 530.5,173.8 528.9,173.6 527.3,173.3 525.7,173.1 524.1,172.8 522.5,172.6
				521,172.3 519.4,172.1 517.8,171.8 516.2,171.4 514.7,171.1 513.1,170.8 511.5,170.4 510,170.1 508.5,169.7 			"/>
			<line class="st9" x1="579.8" y1="174" x2="582.1" y2="174.3"/>
		</g>
		<ellipse class="st1" cx="508.6" cy="169.6" rx="1.1" ry="1.1"/>
		<ellipse class="st1" cx="493.1" cy="206.6" rx="1.1" ry="1.1"/>
		<ellipse class="st1" cx="582.3" cy="174.2" rx="1.1" ry="1.1"/>
		<ellipse class="st1" cx="587" cy="157.8" rx="1.1" ry="1.1"/>
		<ellipse class="st1" cx="593.1" cy="158.5" rx="1.1" ry="1.1"/>
		<ellipse class="st1" cx="595.3" cy="154.7" rx="1.1" ry="1.1"/>
		<path class="st1" d="M579.6,172.9c0.6,0,1.1,0.5,1.1,1.1c0,0.6-0.5,1.1-1.1,1.1c-0.6,0-1.1-0.5-1.1-1.1S579,172.9,579.6,172.9z"/>
		<line class="st8" x1="582.3" y1="174.2" x2="493.1" y2="206.7"/>
	</g>
	<g id="constellation_1_">
		<g>
			<polyline class="st10" points="574.9,94.9 574.1,95.2 573.2,95.4 572.4,95.6 571.6,95.8 570.7,96 569.9,96.2 569,96.4
				568.2,96.6 567.3,96.7 566.5,96.9 565.6,97.1 564.8,97.2 563.9,97.3 563.1,97.5 562.2,97.6 561.3,97.8 560.5,97.9 559.6,98
				558.7,98.1 557.9,98.2 557,98.3 556.1,98.4 555.2,98.5 554.3,98.6 553.5,98.7 552.6,98.7 551.7,98.8 550.8,98.8 549.9,98.9
				549,98.9 548.2,98.9 547.3,99 546.4,99 545.5,99 544.6,99 543.7,99 542.8,99 541.9,99 541,98.9 540.1,98.9 539.2,98.9
				538.3,98.9 537.4,98.8 536.5,98.8 535.6,98.7 534.7,98.6 533.8,98.5 532.9,98.4 532,98.4 531.1,98.3 530.2,98.2 529.3,98.1
				"/>
			<polyline class="st10" points="586.1,89.7 585.3,90 584.5,90.3 583.7,90.6 582.9,90.9 582.1,91.3 581.3,91.6 580.5,91.9
				579.7,92.1 578.9,92.4 578,92.7 577.2,93 576.4,93.2 575.6,93.5 574.7,93.8 573.9,94 573,94.2 572.2,94.5 571.4,94.7 570.5,94.9
				569.7,95.2 568.8,95.4 568,95.6 567.1,95.8 566.2,96 565.4,96.2 564.5,96.3 563.7,96.5 562.8,96.7 561.9,96.8 561,97 560.2,97.1
				559.3,97.3 558.4,97.4 557.5,97.5 556.6,97.7 555.7,97.8 554.8,97.9 553.9,98 553,98.1 552.2,98.2 551.3,98.2 550.4,98.3
				549.5,98.4 548.5,98.4 547.6,98.5 546.8,98.5 545.8,98.6 544.9,98.6 544,98.6 543.1,98.7 542.2,98.7 541.3,98.7 540.3,98.7
				539.4,98.7 538.5,98.6 537.6,98.6 536.7,98.6 535.8,98.5 534.8,98.5 533.9,98.4 533,98.4 532.1,98.3 531.1,98.2 530.2,98.2
				529.3,98.1 			"/>
			<polyline class="st10" points="581.9,100.6 582.6,99.8 583.2,99.1 583.9,98.4 584.5,97.7 585.2,96.9 			"/>
			<polyline class="st10" points="581.8,103.8 582.3,102.9 582.8,102 583.3,101.1 			"/>
			<polyline class="st10" points="581.8,103.8 581,103.4 580.2,102.9 579.4,102.4 578.6,102 577.8,101.5 577,101 576.2,100.5
				575.5,100 574.7,99.5 574,99 573.2,98.5 572.5,98 571.7,97.5 571,96.9 570.3,96.4 569.5,95.9 568.8,95.3 568.1,94.8 567.4,94.3
				566.7,93.7 566,93.2 565.4,92.6 564.7,92.1 564,91.5 			"/>
			<polyline class="st10" points="587.6,93.6 587.2,94.4 586.8,95.2 586.4,96 585.9,96.8 585.5,97.6 585.1,98.4 584.6,99.1
				584.2,99.9 583.7,100.7 583.2,101.5 582.8,102.3 582.3,103.1 581.8,103.8 			"/>
			<polyline class="st10" points="579.8,113 580.1,112.2 580.5,111.3 580.8,110.5 581.1,109.7 581.4,108.8 581.7,108 582,107.1
				582.3,106.3 582.6,105.4 582.9,104.6 583.1,103.7 583.4,102.9 583.7,102 583.9,101.2 584.2,100.3 584.4,99.5 584.7,98.6
				584.9,97.8 585.2,96.9 			"/>
			<polyline class="st10" points="568.2,106.5 567.3,106.4 566.5,106.3 565.5,106.3 564.6,106.2 563.8,106.1 562.9,105.9 562,105.8
				561.1,105.7 560.2,105.5 559.3,105.4 558.5,105.3 557.5,105.1 556.7,104.9 555.8,104.8 554.9,104.6 554.1,104.4 553.2,104.3
				552.3,104.1 551.5,103.9 550.6,103.7 549.7,103.5 548.9,103.3 548,103.1 547.2,102.8 546.3,102.6 545.5,102.4 544.6,102.1
				543.8,101.9 542.9,101.6 542.1,101.3 541.3,101.1 540.4,100.8 539.6,100.6 538.8,100.2 537.9,100 537.1,99.7 536.3,99.4
				535.5,99.1 534.7,98.8 533.9,98.4 533,98.1 532.2,97.8 531.4,97.4 530.7,97.1 			"/>
			<polyline class="st10" points="564,91.5 564.8,91.8 565.7,92.1 566.5,92.4 567.4,92.7 568.2,93 569.1,93.2 569.9,93.5
				570.8,93.7 571.7,94 572.5,94.2 573.4,94.5 574.3,94.7 575.2,94.9 576.1,95.2 577,95.3 577.8,95.6 578.8,95.8 579.7,95.9
				580.5,96.1 581.5,96.3 582.4,96.5 583.3,96.6 584.2,96.8 585.2,96.9 			"/>
			<polyline class="st10" points="564,91.5 564.7,92.1 565.4,92.6 566,93.2 566.7,93.7 567.4,94.3 568.1,94.8 568.8,95.3
				569.5,95.9 570.3,96.4 571,96.9 571.7,97.5 572.5,98 573.2,98.5 574,99 574.7,99.5 575.5,100 576.2,100.5 577,101 577.8,101.5
				578.6,102 579.4,102.4 580.2,102.9 581,103.4 581.8,103.8 			"/>
			<polyline class="st10" points="572.2,104.8 572.8,105.4 573.4,106.2 574,106.8 574.7,107.5 575.3,108.2 575.9,108.9 576.5,109.6
				577.2,110.3 577.8,111 578.5,111.7 579.1,112.3 579.8,113 			"/>
			<polyline class="st10" points="587.4,94.3 586.8,95 586.3,95.7 585.7,96.4 585.1,97.1 584.5,97.8 583.8,98.5 583.2,99.2
				582.6,99.9 581.9,100.6 			"/>
			<polyline class="st10" points="568.6,114.5 568.4,113.6 568.2,112.7 568,111.8 567.8,110.9 567.6,110 567.4,109.2 567.2,108.3
				567,107.4 566.8,106.5 566.6,105.6 566.5,104.7 566.3,103.8 566.1,103 566,102.1 565.8,101.2 565.6,100.3 565.4,99.4 565.3,98.6
				565.1,97.7 565,96.8 564.8,95.9 564.6,95 564.5,94.1 564.3,93.3 564.2,92.4 564,91.5 			"/>
			<polyline class="st10" points="585.2,96.9 584.2,96.8 583.3,96.6 582.4,96.5 581.5,96.3 580.5,96.1 579.7,95.9 578.8,95.8
				577.8,95.6 577,95.3 576.1,95.2 575.2,94.9 574.3,94.7 573.4,94.5 572.5,94.2 571.7,94 570.8,93.7 569.9,93.5 569.1,93.2
				568.2,93 567.4,92.7 566.5,92.4 565.7,92.1 564.8,91.8 564,91.5 			"/>
			<polyline class="st10" points="585.2,96.9 584.9,97.8 584.7,98.6 584.4,99.5 584.2,100.3 583.9,101.2 583.7,102 583.4,102.9
				583.1,103.7 582.9,104.6 582.6,105.4 582.3,106.3 582,107.1 581.7,108 581.4,108.8 581.1,109.7 580.8,110.5 580.5,111.3
				580.1,112.2 579.8,113 			"/>
			<polyline class="st10" points="585.2,96.9 584.3,97.2 583.4,97.4 582.6,97.6 581.7,97.8 580.9,98 580,98.2 579.1,98.4
				578.3,98.5 577.4,98.7 576.5,98.9 575.7,99 574.8,99.2 573.9,99.3 573,99.4 572.1,99.6 571.3,99.7 570.4,99.8 569.5,99.9
				568.6,100 567.7,100.1 566.8,100.2 566,100.3 565.1,100.4 564.2,100.5 563.3,100.5 562.4,100.6 561.5,100.6 560.6,100.7
				559.7,100.7 558.8,100.8 557.9,100.8 557,100.8 556.2,100.8 555.2,100.8 554.3,100.8 553.5,100.8 552.6,100.8 551.7,100.8
				550.8,100.7 549.9,100.7 549,100.7 548.1,100.6 547.2,100.6 546.3,100.5 545.4,100.4 544.5,100.4 543.6,100.3 542.7,100.2
				541.8,100.1 540.9,100 540,99.9 539.1,99.8 538.2,99.6 537.3,99.5 536.4,99.4 535.5,99.2 534.6,99.1 533.7,98.9 532.8,98.8
				532,98.6 531.1,98.4 530.2,98.2 529.3,98.1 			"/>
			<polyline class="st10" points="579.6,97.2 580.5,97.2 581.5,97.1 582.4,97.1 583.3,97.1 584.2,97 585.2,96.9 			"/>
			<polyline class="st10" points="532.1,86.5 532.9,86.8 533.8,87.1 534.7,87.3 535.5,87.6 536.4,87.8 537.2,88 538.1,88.2
				539,88.5 539.9,88.7 540.8,88.9 541.6,89.1 542.5,89.2 543.4,89.4 544.3,89.6 545.2,89.8 546.1,89.9 546.9,90.1 547.8,90.2
				548.7,90.3 549.6,90.5 550.5,90.6 551.4,90.7 552.3,90.8 553.2,90.9 554.1,91 555,91.1 555.9,91.2 556.8,91.2 557.7,91.3
				558.6,91.4 559.5,91.4 560.4,91.4 561.3,91.5 562.2,91.5 563.1,91.5 564,91.5 			"/>
			<polyline class="st10" points="583.3,101.1 582.8,102 582.3,102.9 581.8,103.8 			"/>
			<line class="st10" x1="530.7" y1="97.1" x2="529.3" y2="98.1"/>
			<polyline class="st10" points="567.8,101.1 566.9,101.2 566,101.2 565.1,101.3 564.3,101.3 563.4,101.4 562.5,101.4 561.6,101.5
				560.7,101.5 559.9,101.5 559,101.5 558.1,101.5 557.2,101.5 556.4,101.5 555.5,101.5 554.6,101.5 553.7,101.4 552.8,101.4
				552,101.3 551.1,101.3 550.2,101.2 549.3,101.2 548.5,101.1 547.6,101.1 546.7,101 545.8,100.9 544.9,100.8 544.1,100.7
				543.2,100.6 542.3,100.5 541.5,100.4 540.6,100.2 539.7,100.1 538.8,100 538,99.8 537.1,99.7 536.2,99.5 535.4,99.4 534.5,99.2
				533.6,99 532.7,98.8 531.9,98.7 531,98.5 530.2,98.3 529.3,98.1 			"/>
			<polyline class="st10" points="529.3,98.1 530.2,98.2 531.1,98.4 532,98.6 532.8,98.8 533.7,98.9 534.6,99.1 535.5,99.2
				536.4,99.4 537.3,99.5 538.2,99.6 539.1,99.8 540,99.9 540.9,100 541.8,100.1 542.7,100.2 543.6,100.3 544.5,100.4 545.4,100.4
				546.3,100.5 547.2,100.6 548.1,100.6 549,100.7 549.9,100.7 550.8,100.7 551.7,100.8 552.6,100.8 553.5,100.8 554.3,100.8
				555.2,100.8 556.2,100.8 557,100.8 557.9,100.8 558.8,100.8 559.7,100.7 560.6,100.7 561.5,100.6 562.4,100.6 563.3,100.5
				564.2,100.5 565.1,100.4 566,100.3 566.8,100.2 567.7,100.1 568.6,100 569.5,99.9 570.4,99.8 571.3,99.7 572.1,99.6 573,99.4
				573.9,99.3 574.8,99.2 575.7,99 576.5,98.9 577.4,98.7 578.3,98.5 579.1,98.4 580,98.2 580.9,98 581.7,97.8 582.6,97.6
				583.4,97.4 584.3,97.2 585.2,96.9 			"/>
			<text transform="matrix(0.9868 0 0 1 574.6328 95.1953)" class="st1 st5 st11">●</text>
			<text transform="matrix(1 0 0 1 574.7137 95.1201)" class="st12 st5 st13">●</text>
		</g>
		<ellipse class="st1" cx="532.7" cy="98.4" rx="0.5" ry="0.5"/>
		<ellipse class="st1" cx="534" cy="97.5" rx="0.5" ry="0.5"/>
		<ellipse class="st1" cx="535.3" cy="88.2" rx="0.5" ry="0.5"/>
		<ellipse class="st1" cx="534.3" cy="90" rx="0.5" ry="0.5"/>
		<ellipse class="st1" cx="563.3" cy="92.6" rx="0.5" ry="0.5"/>
		<ellipse class="st1" cx="566.7" cy="101" rx="0.5" ry="0.5"/>
		<ellipse class="st1" cx="567.1" cy="105.8" rx="0.5" ry="0.5"/>
		<ellipse class="st1" cx="570.6" cy="104.2" rx="0.5" ry="0.5"/>
		<ellipse class="st1" cx="577.2" cy="111.4" rx="0.5" ry="0.5"/>
		<ellipse class="st1" cx="567.3" cy="112.9" rx="0.5" ry="0.5"/>
		<ellipse class="st1" cx="579" cy="103.4" rx="0.5" ry="0.5"/>
		<ellipse class="st1" cx="580.3" cy="101" rx="0.5" ry="0.5"/>
		<ellipse class="st1" cx="579.1" cy="100.6" rx="0.5" ry="0.5"/>
		<ellipse class="st1" cx="583.9" cy="95.2" rx="0.5" ry="0.5"/>
		<ellipse class="st1" cx="584" cy="94.4" rx="0.5" ry="0.5"/>
		<ellipse class="st1" cx="581.9" cy="97.4" rx="0.5" ry="0.5"/>
		<ellipse class="st1" cx="582.7" cy="91.1" rx="0.5" ry="0.5"/>
		<ellipse class="st1" cx="577" cy="97.6" rx="0.5" ry="0.5"/>
	</g>
	<g id="constellation_2_">
		<g>
			<polyline class="st14" points="163,80.1 162.6,81.8 162.4,83.6 162,85.4 161.7,87.2 161.4,88.9 			"/>
			<polyline class="st14" points="140.5,94.5 139.1,93.4 137.6,92.4 136.2,91.4 134.7,90.3 133.3,89.3 131.9,88.2 130.6,87.2
				129.2,86.1 127.8,85 126.5,83.9 125.2,82.8 123.8,81.7 122.5,80.6 121.2,79.5 119.9,78.3 			"/>
			<polyline class="st14" points="150.9,120.4 149.7,119.1 148.5,117.8 147.4,116.4 146.2,115 145.1,113.7 143.9,112.3 142.8,110.9
				141.7,109.5 140.6,108.2 139.5,106.8 138.4,105.4 137.3,104 136.3,102.6 135.2,101.2 134.2,99.8 133.1,98.4 132.1,97 131.1,95.6
				130.1,94.1 129.1,92.7 128.2,91.3 127.2,89.8 126.3,88.4 125.3,87 124.4,85.5 123.5,84.1 122.6,82.7 121.7,81.2 120.8,79.7
				119.9,78.3 			"/>
			<polyline class="st14" points="119.9,78.3 121.6,78.9 123.2,79.5 124.9,80 126.5,80.6 128.2,81.1 129.9,81.7 131.6,82.2
				133.2,82.7 134.9,83.2 136.7,83.6 138.4,84.1 140.1,84.6 141.8,85 143.6,85.4 145.3,85.8 147.1,86.2 148.8,86.6 150.6,87
				152.4,87.4 154.2,87.7 155.9,88 157.7,88.3 159.6,88.6 161.4,88.9 			"/>
			<polyline class="st14" points="161.4,88.9 159.6,88.6 157.7,88.3 155.9,88 154.2,87.7 152.4,87.4 150.6,87 148.8,86.6
				147.1,86.2 145.3,85.8 143.6,85.4 141.8,85 140.1,84.6 138.4,84.1 136.7,83.6 134.9,83.2 133.2,82.7 131.6,82.2 129.9,81.7
				128.2,81.1 126.5,80.6 124.9,80 123.2,79.5 121.6,78.9 119.9,78.3 			"/>
			<polyline class="st14" points="73.5,109.5 72.1,108.4 70.6,107.3 69.2,106.2 67.8,105.1 66.4,103.9 65,102.8 63.7,101.7
				62.3,100.6 61,99.4 59.6,98.3 58.3,97.1 57,95.9 55.7,94.7 54.4,93.5 53.1,92.4 51.9,91.1 			"/>
			<polyline class="st14" points="150.6,89.4 152.4,89.4 154.2,89.3 155.9,89.2 157.8,89.1 159.6,89.1 161.4,88.9 			"/>
			<polyline class="st14" points="54.5,89.3 56.3,89.3 58.2,89.2 60,89.1 61.8,89.1 63.6,89 65.3,88.8 67.2,88.7 69,88.6 70.8,88.4
				72.5,88.3 74.3,88.1 76.1,87.9 77.8,87.7 79.6,87.5 81.4,87.2 83.1,87 84.8,86.7 86.6,86.4 88.3,86.2 90,85.9 91.7,85.6
				93.4,85.2 95.2,84.9 96.8,84.6 98.6,84.2 100.2,83.8 101.9,83.4 103.6,83 105.3,82.6 106.9,82.2 108.6,81.7 110.2,81.3
				111.8,80.8 113.5,80.3 115.1,79.8 116.7,79.3 118.4,78.8 119.9,78.3 			"/>
			<polyline class="st14" points="127.3,97.1 129,96.8 130.8,96.5 132.5,96.2 134.2,95.9 136,95.5 137.7,95.2 139.4,94.8
				141.1,94.4 142.8,94 144.6,93.6 146.3,93.2 147.9,92.8 149.6,92.4 151.3,91.9 153,91.4 154.7,91 156.4,90.5 158,90 159.7,89.5
				161.4,88.9 			"/>
			<polyline class="st14" points="51.9,91.1 53.6,91.5 55.3,91.8 57.1,92.2 58.9,92.5 60.6,92.8 62.4,93.2 64.1,93.5 65.8,93.7
				67.6,94 69.3,94.2 71.1,94.5 72.8,94.7 74.6,94.9 76.4,95.1 78.1,95.3 79.9,95.5 81.7,95.7 83.4,95.8 85.2,95.9 86.9,96
				88.7,96.2 90.4,96.2 92.2,96.3 94,96.4 95.7,96.5 97.5,96.5 99.2,96.5 101,96.5 102.8,96.5 104.5,96.5 106.3,96.5 108,96.5
				109.8,96.4 111.5,96.4 113.2,96.3 115,96.2 116.8,96.1 118.5,96 120.3,95.8 122,95.7 123.8,95.6 125.5,95.4 127.2,95.2 128.9,95
				130.7,94.8 132.4,94.6 134.2,94.3 135.9,94.1 137.6,93.8 139.3,93.6 141,93.3 142.7,93 144.5,92.7 146.2,92.4 147.9,92
				149.6,91.7 151.3,91.4 152.9,91 154.6,90.6 156.4,90.2 158,89.8 159.7,89.4 161.4,88.9 			"/>
			<text transform="matrix(0.9868 0 0 1 150.6279 120.6719)" class="st1 st5 st15">●</text>
			<text transform="matrix(1 0 0 1 150.7051 120.5977)" class="st16 st5 st17">●</text>
		</g>
		<ellipse class="st1" cx="127.1" cy="97.2" rx="1.2" ry="1.2"/>
		<ellipse class="st1" cx="73.5" cy="109.5" rx="1.2" ry="1.2"/>
		<ellipse class="st1" cx="51.9" cy="91.1" rx="1.2" ry="1.2"/>
		<ellipse class="st1" cx="54.5" cy="89.3" rx="1.2" ry="1.2"/>
		<ellipse class="st1" cx="119.9" cy="78.5" rx="1.2" ry="1.2"/>
		<ellipse class="st1" cx="140.5" cy="94.5" rx="1.2" ry="1.2"/>
		<ellipse class="st1" cx="150.7" cy="89.4" rx="1.2" ry="1.2"/>
		<ellipse class="st1" cx="161.4" cy="88.9" rx="1.2" ry="1.2"/>
		<ellipse class="st1" cx="163" cy="80.4" rx="1.2" ry="1.2"/>
	</g>
	<g id="constellation_3_">
		<polyline class="st18" points="311,19.1 312.3,20.9 313.6,22.6 314.9,24.3 316.3,26.1 317.7,27.8 319.1,29.5 320.5,31.3 		"/>
		<polyline class="st19" points="395.6,37 394.4,39 393.1,40.9 391.8,42.8 		"/>
		<polyline class="st18" points="392.4,32.6 390.4,32.9 388.3,33.1 386.3,33.3 384.2,33.4 382.2,33.6 380.2,33.8 378,33.9 376,34
			374,34.1 371.9,34.2 369.9,34.3 367.8,34.4 365.8,34.4 363.7,34.4 361.6,34.4 359.5,34.4 357.5,34.4 355.4,34.4 353.3,34.3
			351.3,34.2 349.2,34.1 347.2,34 345.1,33.9 343,33.8 341,33.6 339,33.4 336.9,33.3 334.8,33.1 332.8,32.9 330.7,32.6 328.6,32.4
			326.6,32.1 324.5,31.9 322.5,31.6 320.5,31.3 		"/>
		<polyline class="st18" points="414.9,32.4 412.8,32.6 410.8,32.6 408.7,32.7 406.7,32.8 404.6,32.8 402.6,32.8 400.6,32.8
			398.5,32.8 396.5,32.8 394.4,32.7 392.4,32.6 		"/>
		<line class="st18" x1="416.9" y1="28.1" x2="392.4" y2="32.6"/>
		<polyline class="st19" points="391.8,42.8 393.1,40.9 394.4,39 395.6,37 		"/>
		<polyline class="st18" points="320.5,31.3 322.5,31.6 324.5,31.9 326.6,32.1 328.6,32.4 330.7,32.6 332.8,32.9 334.8,33.1
			336.9,33.3 339,33.4 341,33.6 343,33.8 345.1,33.9 347.2,34 349.2,34.1 351.3,34.2 353.3,34.3 355.4,34.4 357.5,34.4 359.5,34.4
			361.6,34.4 363.7,34.4 365.8,34.4 367.8,34.4 369.9,34.3 371.9,34.2 374,34.1 376,34 378,33.9 380.2,33.8 382.2,33.6 384.2,33.4
			386.3,33.3 388.3,33.1 390.4,32.9 392.4,32.6 		"/>
		<ellipse class="st1" cx="320.5" cy="31.3" rx="1.4" ry="1.4"/>
		<ellipse class="st1" cx="392.1" cy="32.8" rx="1.4" ry="1.4"/>
		<ellipse class="st1" cx="414.9" cy="32.4" rx="1.4" ry="1.4"/>
		<ellipse class="st1" cx="395.6" cy="37" rx="1.4" ry="1.4"/>
		<ellipse class="st1" cx="391.8" cy="42.8" rx="1.4" ry="1.4"/>
		<ellipse class="st1" cx="416.9" cy="28.1" rx="1.4" ry="1.4"/>
		<ellipse class="st1" cx="311" cy="19.1" rx="1.4" ry="1.4"/>
	</g>
	<g>
		<g>
			<polyline class="st20" points="275.7,82.2 274.7,82.3 273.8,82.5 272.8,82.6 271.8,82.7 270.8,82.8 269.8,82.9 268.8,83
				267.8,83.1 266.8,83.2 265.8,83.3 264.9,83.4 263.8,83.4 262.8,83.5 261.8,83.5 260.8,83.6 			"/>
			<polyline class="st20" points="308.1,81.3 308.9,80.7 309.6,80 310.4,79.3 311.1,78.6 311.8,77.9 312.5,77.2 313.3,76.5
				314,75.8 314.6,75.1 315.4,74.3 316,73.7 316.7,72.9 317.4,72.2 318,71.5 318.6,70.7 319.3,70 319.9,69.3 320.6,68.5 			"/>
			<polyline class="st20" points="287.5,91.1 286.5,90.9 285.6,90.8 284.6,90.6 283.7,90.4 282.7,90.2 281.8,90 280.8,89.8
				279.9,89.6 279,89.3 278,89.1 277.1,88.8 276.2,88.6 275.2,88.3 274.3,88.1 273.4,87.8 272.5,87.5 271.6,87.3 270.6,87
				269.8,86.7 268.8,86.4 268,86.1 267,85.8 266.2,85.5 265.2,85.2 264.4,84.9 263.5,84.5 262.6,84.2 261.7,83.9 260.8,83.6 			"/>
			<polyline class="st20" points="287.5,91.1 286.5,90.9 285.6,90.7 284.6,90.4 283.7,90.2 282.8,90 281.8,89.7 280.9,89.4
				280,89.2 279,88.9 278.1,88.7 277.2,88.4 276.2,88.1 275.3,87.8 			"/>
			<polyline class="st20" points="321.9,68.2 320.8,68.2 319.8,68.2 318.8,68.2 317.7,68.2 316.7,68.2 315.7,68.1 314.7,68.1
				313.7,68 312.6,67.9 			"/>
			<polyline class="st20" points="317.4,64.7 316.6,65.2 315.8,65.6 315.1,66.1 314.3,66.6 313.5,67.1 312.7,67.5 311.9,68
				311.1,68.4 310.3,68.9 309.5,69.3 308.6,69.7 307.8,70.2 307,70.6 306.2,71 305.3,71.4 304.5,71.8 303.6,72.2 302.7,72.6
				301.9,73 301,73.4 300.2,73.8 299.3,74.1 298.4,74.5 297.5,74.8 296.6,75.2 295.7,75.5 294.8,75.9 293.9,76.2 293,76.6
				292.1,76.9 291.2,77.2 290.3,77.5 289.4,77.8 288.4,78.1 287.5,78.4 286.5,78.7 285.6,79 284.7,79.2 283.7,79.5 282.8,79.7
				281.8,80 280.8,80.2 279.9,80.4 278.9,80.7 277.9,80.9 276.9,81.1 276,81.3 275,81.6 274,81.7 273,81.9 272,82.1 271,82.3
				270,82.4 269,82.6 268,82.7 267,82.9 265.9,83 264.9,83.1 263.9,83.2 262.9,83.4 261.9,83.5 260.8,83.6 			"/>
			<polyline class="st20" points="275.3,87.8 274.4,87.6 273.5,87.4 272.6,87.1 271.7,86.9 270.7,86.6 269.8,86.4 268.9,86.1
				268,85.9 267.1,85.6 266.2,85.3 265.3,85.1 264.4,84.7 263.5,84.4 262.6,84.2 261.7,83.9 260.8,83.6 			"/>
			<polyline class="st20" points="275.3,87.8 276.2,88.1 277.2,88.4 278.1,88.7 279,88.9 280,89.2 280.9,89.4 281.8,89.7 282.8,90
				283.7,90.2 284.6,90.4 285.6,90.7 286.5,90.9 287.5,91.1 			"/>
			<polyline class="st20" points="275.3,87.8 274.7,87 274.1,86.2 273.5,85.4 272.9,84.6 272.3,83.8 271.7,83 271.1,82.2
				270.5,81.3 270,80.5 269.4,79.7 268.9,78.9 268.3,78.1 267.8,77.2 267.2,76.4 266.7,75.6 266.2,74.8 265.7,73.9 265.2,73.1
				264.7,72.3 264.2,71.4 263.8,70.6 263.3,69.8 262.9,68.9 262.4,68.1 262,67.2 261.5,66.4 261.1,65.5 260.7,64.7 260.3,63.8
				259.9,63 259.5,62.2 259.1,61.3 			"/>
			<polyline class="st20" points="302.7,69.5 301.9,70 301.1,70.4 300.3,70.9 299.5,71.3 298.6,71.7 297.8,72.1 297,72.5
				296.2,72.9 295.3,73.3 294.5,73.7 293.6,74.1 292.8,74.5 291.9,74.8 291,75.2 290.1,75.5 289.3,75.9 288.4,76.2 287.5,76.6
				286.6,76.9 285.7,77.3 284.8,77.6 283.9,77.9 283,78.2 282.1,78.5 281.1,78.8 280.2,79.1 279.3,79.4 278.3,79.7 277.4,79.9
				276.5,80.2 275.5,80.5 274.6,80.7 273.6,81 272.7,81.2 271.7,81.4 270.7,81.7 269.8,81.9 268.8,82.1 267.8,82.3 266.8,82.5
				265.8,82.7 264.8,82.9 263.8,83.1 262.8,83.2 261.8,83.4 260.8,83.6 			"/>
			<polyline class="st20" points="319,69 318.2,69.4 317.4,69.8 316.5,70.2 315.7,70.6 314.9,71 314.1,71.4 313.3,71.8 312.4,72.2
				311.5,72.6 310.7,72.9 309.9,73.3 309,73.7 308.2,74 307.3,74.3 306.4,74.7 305.5,75 304.7,75.4 303.8,75.7 302.9,76 302,76.3
				301.1,76.6 300.2,76.9 299.3,77.2 298.5,77.5 297.5,77.8 296.6,78.1 295.7,78.4 294.8,78.6 293.9,78.9 293,79.1 292,79.4
				291.1,79.6 290.1,79.8 289.2,80.1 288.3,80.3 287.3,80.5 286.4,80.7 285.4,80.9 284.5,81.1 283.5,81.3 282.6,81.4 281.6,81.6
				280.6,81.8 279.7,81.9 278.7,82.1 277.7,82.2 276.8,82.4 275.8,82.5 274.8,82.6 273.8,82.7 272.8,82.8 271.8,82.9 270.8,83
				269.9,83.1 268.9,83.2 267.9,83.3 266.9,83.3 265.9,83.4 264.9,83.4 263.9,83.5 262.9,83.5 261.8,83.5 260.8,83.6 			"/>
			<line class="st20" x1="275" y1="86.8" x2="275.3" y2="87.8"/>
			<polyline class="st20" points="286.5,97.8 285.8,97.1 285.1,96.4 284.3,95.7 283.6,95 282.9,94.3 282.2,93.6 281.5,92.9
				280.8,92.2 280.1,91.5 279.5,90.7 278.8,90 278.1,89.2 277.5,88.5 276.8,87.8 276.2,87 275.5,86.3 274.9,85.5 274.3,84.8
				273.7,84 273.1,83.3 272.5,82.5 271.9,81.7 271.3,81 270.7,80.2 270.1,79.4 269.6,78.7 269.1,77.9 268.5,77.1 268,76.4
				267.4,75.6 266.9,74.8 266.4,74 265.9,73.2 265.4,72.4 264.9,71.7 264.4,70.9 263.9,70.1 263.4,69.3 263,68.5 262.5,67.7
				262.1,66.9 261.6,66.1 261.2,65.3 260.7,64.5 260.3,63.7 259.9,62.9 259.5,62.1 259.1,61.3 			"/>
			<polyline class="st20" points="300,69.6 299.4,70.2 298.7,70.9 298,71.5 297.4,72.1 296.6,72.7 295.9,73.3 295.2,73.9
				294.5,74.5 293.8,75.2 293.1,75.8 292.3,76.4 291.6,76.9 290.8,77.5 290.1,78.1 289.3,78.7 288.5,79.3 287.8,79.8 287,80.4
				286.2,81 285.4,81.5 284.6,82.1 283.8,82.6 283,83.2 282.2,83.7 281.3,84.2 280.5,84.7 279.6,85.3 278.8,85.8 278,86.3
				277.1,86.8 276.2,87.3 275.3,87.8 			"/>
			<polyline class="st20" points="258.7,80.6 258.7,79.6 258.7,78.6 258.7,77.7 258.7,76.7 258.7,75.7 258.7,74.7 258.7,73.8
				258.7,72.8 258.7,71.8 258.7,70.9 258.8,69.9 258.8,69 258.8,68 258.9,67 258.9,66.1 258.9,65.1 259,64.2 259,63.2 259,62.3
				259.1,61.3 			"/>
			<polyline class="st20" points="259.1,61.3 259.5,62.2 259.9,63 260.3,63.8 260.7,64.7 261.1,65.5 261.5,66.4 262,67.2
				262.4,68.1 262.9,68.9 263.3,69.8 263.8,70.6 264.2,71.4 264.7,72.3 265.2,73.1 265.7,73.9 266.2,74.8 266.7,75.6 267.2,76.4
				267.8,77.2 268.3,78.1 268.9,78.9 269.4,79.7 270,80.5 270.5,81.3 271.1,82.2 271.7,83 272.3,83.8 272.9,84.6 273.5,85.4
				274.1,86.2 274.7,87 275.3,87.8 			"/>
			<polyline class="st20" points="320.6,68.5 319.7,68.8 318.8,69.2 317.9,69.5 317,69.8 316.1,70.1 315.2,70.3 314.4,70.6
				313.5,70.9 312.5,71.2 311.6,71.4 310.7,71.7 309.8,71.9 308.9,72.2 308,72.4 307.1,72.6 306.2,72.8 305.2,73.1 304.3,73.3
				303.4,73.5 302.5,73.7 301.5,73.9 300.6,74 299.7,74.2 298.8,74.3 297.8,74.5 296.9,74.7 295.9,74.8 295,75 294,75.1 293.1,75.2
				292.1,75.3 291.2,75.4 290.2,75.5 289.3,75.6 288.3,75.7 287.4,75.8 286.4,75.9 285.4,75.9 284.5,76 283.5,76.1 282.6,76.1
				281.6,76.1 280.6,76.2 279.7,76.2 278.7,76.2 277.7,76.2 276.8,76.2 275.8,76.2 274.8,76.2 273.8,76.2 272.9,76.2 271.9,76.1
				270.9,76.1 270,76 269,76 268,75.9 267,75.8 266.1,75.8 265.1,75.7 264.1,75.6 263.1,75.5 262.1,75.4 261.2,75.3 260.2,75.2
				259.2,75 258.2,74.9 257.3,74.7 256.3,74.6 			"/>
			<polyline class="st20" points="313.3,80.2 312.4,80.4 311.5,80.6 310.5,80.9 309.6,81.1 308.7,81.3 307.8,81.5 306.8,81.7
				305.9,81.9 305,82.1 304,82.3 303.1,82.5 302.2,82.6 301.3,82.8 300.3,82.9 299.4,83.1 298.4,83.2 297.5,83.4 296.5,83.5
				295.6,83.6 294.6,83.7 293.7,83.8 292.7,83.9 291.8,84 290.8,84.1 289.9,84.2 288.9,84.3 287.9,84.4 287,84.4 286,84.5
				285.1,84.5 284.1,84.6 283.1,84.6 282.2,84.6 281.2,84.7 280.2,84.7 279.2,84.7 278.3,84.7 277.3,84.7 276.3,84.7 275.4,84.6
				274.4,84.6 273.5,84.6 272.5,84.5 271.5,84.5 270.5,84.4 269.6,84.4 268.6,84.3 267.6,84.2 266.6,84.2 265.7,84.1 264.7,84
				263.8,83.9 262.8,83.8 261.8,83.7 260.8,83.6 			"/>
			<polyline class="st20" points="312.6,67.9 311.6,68 310.7,68.1 309.7,68.2 308.7,68.2 307.7,68.3 306.8,68.4 305.8,68.4
				304.8,68.5 303.8,68.5 302.8,68.5 301.8,68.6 300.9,68.6 299.9,68.6 298.9,68.6 297.9,68.6 296.9,68.5 295.9,68.5 295,68.4
				294,68.4 293,68.3 292,68.3 291.1,68.2 290.1,68.1 289.1,68.1 288.2,68 287.2,67.9 286.2,67.8 285.3,67.7 284.3,67.5 283.4,67.4
				282.4,67.3 281.4,67.1 280.5,66.9 279.5,66.8 278.5,66.6 277.6,66.4 276.7,66.3 275.7,66.1 274.8,65.8 273.8,65.6 272.9,65.4
				272,65.2 271,65 270.1,64.7 269.1,64.5 268.2,64.3 267.3,64 266.4,63.7 265.5,63.4 264.5,63.2 263.6,62.9 262.7,62.6 261.8,62.3
				260.9,62 260,61.6 259.1,61.3 			"/>
			<polyline class="st20" points="260.8,83.6 261.7,83.9 262.6,84.2 263.5,84.4 264.4,84.7 265.3,85.1 266.2,85.3 267.1,85.6
				268,85.9 268.9,86.1 269.8,86.4 270.7,86.6 271.7,86.9 272.6,87.1 273.5,87.4 274.4,87.6 275.3,87.8 			"/>
			<polyline class="st20" points="260.8,83.6 261.7,83.9 262.6,84.2 263.5,84.5 264.4,84.9 265.2,85.2 266.2,85.5 267,85.8
				268,86.1 268.8,86.4 269.8,86.7 270.6,87 271.6,87.3 272.5,87.5 273.4,87.8 274.3,88.1 275.2,88.3 276.2,88.6 277.1,88.8
				278,89.1 279,89.3 279.9,89.6 280.8,89.8 281.8,90 282.7,90.2 283.7,90.4 284.6,90.6 285.6,90.8 286.5,90.9 287.5,91.1 			"/>
			<polyline class="st20" points="256.3,74.6 256.7,75.5 257.1,76.4 257.6,77.3 258,78.2 258.5,79.1 258.9,80 259.4,80.9
				259.8,81.8 260.3,82.7 260.8,83.6 			"/>
			<polyline class="st20" points="257.7,79.7 257.8,78.8 257.8,77.8 257.9,76.8 257.9,75.8 258,74.8 258.1,73.9 258.1,72.9
				258.2,71.9 258.2,71 258.3,70 258.4,69 258.5,68.1 258.5,67.1 258.6,66.1 258.7,65.2 258.8,64.2 258.9,63.2 259,62.3 259.1,61.3
							"/>
			<polyline class="st20" points="269.1,86.1 268.1,85.9 267.2,85.6 266.3,85.3 265.4,85.1 264.5,84.7 263.6,84.4 262.6,84.2
				261.7,83.9 260.8,83.6 			"/>
		</g>
		<ellipse class="st1" cx="286.5" cy="97.9" rx="0.7" ry="0.7"/>
		<ellipse class="st1" cx="287.5" cy="91.2" rx="0.7" ry="0.7"/>
		<ellipse class="st1" cx="300.1" cy="69.6" rx="0.7" ry="0.7"/>
		<ellipse class="st1" cx="302.8" cy="69.5" rx="0.7" ry="0.7"/>
		<ellipse class="st1" cx="312.6" cy="67.9" rx="0.7" ry="0.7"/>
		<ellipse class="st1" cx="319" cy="69" rx="0.7" ry="0.7"/>
		<ellipse class="st1" cx="313.3" cy="80.2" rx="0.7" ry="0.7"/>
		<ellipse class="st1" cx="308.2" cy="81.3" rx="0.7" ry="0.7"/>
		<ellipse class="st1" cx="320.6" cy="68.6" rx="0.7" ry="0.7"/>
		<ellipse class="st1" cx="321.9" cy="68.2" rx="0.7" ry="0.7"/>
		<ellipse class="st1" cx="317.4" cy="64.7" rx="0.7" ry="0.7"/>
		<ellipse class="st1" cx="275.3" cy="87.8" rx="0.7" ry="0.7"/>
		<ellipse class="st1" cx="274.9" cy="86.7" rx="0.7" ry="0.7"/>
		<ellipse class="st1" cx="275.7" cy="82.2" rx="0.7" ry="0.7"/>
		<ellipse class="st1" cx="269.1" cy="86.1" rx="0.7" ry="0.7"/>
		<ellipse class="st1" cx="260.8" cy="83.5" rx="0.7" ry="0.7"/>
		<ellipse class="st1" cx="258.7" cy="80.5" rx="0.7" ry="0.7"/>
		<ellipse class="st1" cx="257.7" cy="79.7" rx="0.7" ry="0.7"/>
		<ellipse class="st1" cx="256.3" cy="74.5" rx="0.7" ry="0.7"/>
		<ellipse class="st1" cx="259.1" cy="61.3" rx="0.7" ry="0.7"/>
	</g>
	<g id="constellation_4_">
		<g>
			<g>
				<g>
					<polyline class="st21" points="119.8,153.3 121.4,152.4 122.9,151.5 					"/>
				</g>
			</g>
			<g>
				<g>
					<polyline class="st21" points="69.5,157 70.8,157.1 72.1,157.2 73.4,157.2 74.7,157.3 76,157.4 77.3,157.4 78.6,157.4
						79.9,157.4 81.2,157.5 82.5,157.5 83.8,157.5 85.1,157.4 86.4,157.4 87.7,157.4 89,157.3 90.3,157.3 91.6,157.2 92.9,157.1
						94.2,157.1 95.5,157 96.8,156.9 98.1,156.8 99.4,156.6 100.7,156.5 102,156.3 103.2,156.2 104.5,156 105.8,155.8 107.1,155.6
						108.4,155.5 109.7,155.3 110.9,155 112.2,154.8 113.5,154.6 114.8,154.3 116,154.1 117.3,153.8 118.6,153.6 119.8,153.3
						"/>
				</g>
			</g>
			<g>
				<g>
					<polyline class="st21" points="122.9,151.5 121.4,152.4 119.8,153.3 					"/>
				</g>
			</g>
			<g>
				<g>
					<line class="st21" x1="113" y1="186.1" x2="111.6" y2="184.5"/>
				</g>
			</g>
			<g>
				<g>
					<polyline class="st21" points="114.8,171.8 114.5,173.1 114.2,174.4 113.9,175.7 113.6,176.9 113.3,178.2 113,179.5
						112.6,180.8 112.3,182 111.9,183.3 111.6,184.5 					"/>
				</g>
			</g>
			<g>
				<g>
					<polyline class="st21" points="105.4,157.5 105.8,158.7 106.3,159.9 106.7,161.1 107.1,162.4 107.5,163.6 108,164.8 108.4,166
						108.9,167.3 109.3,168.5 109.8,169.7 110.3,170.9 110.7,172.1 111.2,173.3 111.7,174.6 112.1,175.8 112.6,177 113.1,178.2
						113.6,179.4 114.1,180.6 114.6,181.8 115.1,183 115.6,184.2 116.1,185.4 116.6,186.6 					"/>
				</g>
			</g>
			<g>
				<g>
					<polyline class="st21" points="116.6,186.6 115.2,186.2 113.9,185.7 112.6,185.3 111.3,184.8 110,184.4 108.6,183.9
						107.3,183.4 106.1,182.9 104.8,182.4 103.5,181.9 102.2,181.4 101,180.9 99.7,180.4 98.4,179.8 97.2,179.3 96,178.7
						94.8,178.2 93.5,177.6 92.3,177 91.1,176.4 89.9,175.9 88.7,175.3 87.5,174.6 86.3,174.1 85.2,173.4 84,172.8 82.8,172.1
						81.7,171.5 80.6,170.9 79.4,170.2 78.3,169.5 77.2,168.9 76.1,168.2 75,167.5 73.9,166.8 72.8,166.1 71.7,165.4 70.7,164.7
						69.6,164 68.6,163.2 67.6,162.5 66.5,161.8 65.5,161 64.5,160.2 63.5,159.5 62.5,158.8 61.5,158 60.5,157.2 59.6,156.4
						58.6,155.6 57.6,154.9 56.7,154.1 55.8,153.3 54.8,152.5 53.9,151.7 53,150.8 52.1,150.1 51.2,149.2 50.3,148.4 49.5,147.5
						48.6,146.7 47.7,145.9 46.9,145.1 46,144.2 45.2,143.4 44.4,142.5 43.6,141.7 42.8,140.8 					"/>
				</g>
			</g>
			<g>
				<g>
					<polyline class="st21" points="116.6,186.6 116.1,185.4 115.6,184.2 115.1,183 114.6,181.8 114.1,180.6 113.6,179.4
						113.1,178.2 112.6,177 112.1,175.8 111.7,174.6 111.2,173.3 110.7,172.1 110.3,170.9 109.8,169.7 109.3,168.5 108.9,167.3
						108.4,166 108,164.8 107.5,163.6 107.1,162.4 106.7,161.1 106.3,159.9 105.8,158.7 105.4,157.5 					"/>
				</g>
			</g>
			<g>
				<g>
					<polyline class="st21" points="116.6,186.6 116.7,185.3 116.8,184 116.8,182.7 116.9,181.4 117,180.1 117,178.9 117.1,177.5
						117.2,176.3 117.2,174.9 117.3,173.7 117.3,172.4 117.4,171.1 117.4,169.8 117.5,168.5 117.5,167.2 117.5,165.9 117.6,164.6
						117.6,163.3 117.6,162 117.6,160.7 					"/>
				</g>
			</g>
			<g>
				<g>
					<line class="st21" x1="111.6" y1="184.5" x2="113" y2="186.1"/>
				</g>
			</g>
			<g>
				<g>
					<polyline class="st21" points="85.2,155.2 86,156.1 86.8,157.1 87.5,158.1 88.3,159 89.1,160 89.9,160.9 90.7,161.9
						91.5,162.8 92.3,163.8 93.2,164.7 94,165.6 94.8,166.6 95.7,167.5 96.6,168.4 97.4,169.3 98.3,170.2 99.2,171.1 100.1,172
						101,172.9 101.9,173.8 102.9,174.7 103.8,175.6 104.7,176.4 105.7,177.3 106.6,178.2 107.6,179.1 108.6,179.9 109.5,180.8
						110.5,181.6 111.5,182.4 112.5,183.3 113.5,184.1 114.5,184.9 115.6,185.8 116.6,186.6 					"/>
				</g>
			</g>
			<g>
				<g>
					<polyline class="st21" points="44.8,153.8 46.1,154 47.3,154.3 48.6,154.5 49.9,154.7 51.2,155 52.5,155.2 53.8,155.4
						55,155.6 56.4,155.8 57.6,155.9 58.9,156.1 60.2,156.2 61.5,156.4 62.8,156.5 64.1,156.6 65.4,156.7 66.7,156.8 68,156.9
						69.3,157 70.6,157.1 71.8,157.1 73.2,157.2 74.5,157.2 75.8,157.2 77.1,157.2 78.3,157.3 79.7,157.3 80.9,157.2 82.2,157.2
						83.6,157.2 84.8,157.2 86.1,157.1 87.4,157.1 88.7,157 90,156.9 91.2,156.8 92.6,156.7 93.8,156.6 95.1,156.5 96.4,156.4
						97.7,156.2 98.9,156.1 100.2,155.9 101.5,155.8 102.8,155.6 104,155.4 105.3,155.2 106.6,155 107.9,154.8 109.1,154.6
						110.4,154.3 111.7,154.1 112.9,153.8 114.1,153.6 115.4,153.3 116.7,153 117.9,152.7 119.1,152.4 120.4,152.1 121.6,151.8
						122.9,151.5 					"/>
				</g>
			</g>
			<g>
				<g>
					<polyline class="st21" points="117.6,160.7 117.6,162 117.6,163.3 117.6,164.6 117.5,165.9 117.5,167.2 117.5,168.5
						117.4,169.8 117.4,171.1 117.3,172.4 117.3,173.7 117.2,174.9 117.2,176.3 117.1,177.5 117,178.9 117,180.1 116.9,181.4
						116.8,182.7 116.8,184 116.7,185.3 116.6,186.6 					"/>
				</g>
			</g>
			<g>
				<g>
					<polyline class="st21" points="42.8,140.8 43.6,141.7 44.4,142.5 45.2,143.4 46,144.2 46.9,145.1 47.7,145.9 48.6,146.7
						49.5,147.5 50.3,148.4 51.2,149.2 52.1,150.1 53,150.8 53.9,151.7 54.8,152.5 55.8,153.3 56.7,154.1 57.6,154.9 58.6,155.6
						59.6,156.4 60.5,157.2 61.5,158 62.5,158.8 63.5,159.5 64.5,160.2 65.5,161 66.5,161.8 67.6,162.5 68.6,163.2 69.6,164
						70.7,164.7 71.7,165.4 72.8,166.1 73.9,166.8 75,167.5 76.1,168.2 77.2,168.9 78.3,169.5 79.4,170.2 80.6,170.9 81.7,171.5
						82.8,172.1 84,172.8 85.2,173.4 86.3,174.1 87.5,174.6 88.7,175.3 89.9,175.9 91.1,176.4 92.3,177 93.5,177.6 94.8,178.2
						96,178.7 97.2,179.3 98.4,179.8 99.7,180.4 101,180.9 102.2,181.4 103.5,181.9 104.8,182.4 106.1,182.9 107.3,183.4
						108.6,183.9 110,184.4 111.3,184.8 112.6,185.3 113.9,185.7 115.2,186.2 116.6,186.6 					"/>
				</g>
			</g>
			<g>
				<g>
					<polyline class="st21" points="39.3,155 40.3,155.7 41.3,156.4 42.2,157.1 43.2,157.8 44.2,158.4 45.3,159.1 46.3,159.8
						47.3,160.5 48.3,161.1 49.3,161.8 50.4,162.4 51.5,163.1 52.5,163.7 53.6,164.3 54.7,165 55.8,165.6 56.8,166.2 57.9,166.8
						59,167.4 60.1,168 61.2,168.5 62.4,169.1 63.5,169.7 64.6,170.2 65.7,170.8 66.9,171.4 68,171.9 69.2,172.4 70.3,172.9
						71.5,173.5 72.7,174 73.8,174.5 75,175 76.2,175.5 77.4,175.9 78.6,176.4 79.8,176.9 81,177.4 82.3,177.8 83.5,178.2
						84.7,178.7 85.9,179.1 87.2,179.5 88.4,180 89.7,180.3 90.9,180.7 92.2,181.1 93.5,181.5 94.8,181.9 96,182.2 97.3,182.6
						98.6,182.9 99.9,183.2 101.2,183.6 102.5,183.9 103.8,184.2 105.1,184.5 106.4,184.8 107.8,185.1 109.1,185.3 110.4,185.6
						111.7,185.9 113,186.1 					"/>
				</g>
			</g>
		</g>
		<ellipse class="st1" cx="85.5" cy="155.2" rx="0.9" ry="0.9"/>
		<ellipse class="st1" cx="69.5" cy="156.9" rx="0.9" ry="0.9"/>
		<ellipse class="st1" cx="44.7" cy="153.8" rx="0.9" ry="0.9"/>
		<ellipse class="st1" cx="42.8" cy="140.9" rx="0.9" ry="0.9"/>
		<ellipse class="st1" cx="39.4" cy="155.2" rx="0.9" ry="0.9"/>
		<ellipse class="st1" cx="105.2" cy="161.5" rx="0.9" ry="0.9"/>
		<ellipse class="st1" cx="117.6" cy="160.9" rx="0.9" ry="0.9"/>
		<ellipse class="st1" cx="122.7" cy="151.6" rx="0.9" ry="0.9"/>
		<ellipse class="st1" cx="119.8" cy="153.3" rx="0.9" ry="0.9"/>
		<ellipse class="st1" cx="114.7" cy="172.2" rx="0.9" ry="0.9"/>
		<ellipse class="st1" cx="116.8" cy="186.6" rx="0.9" ry="0.9"/>
		<ellipse class="st1" cx="113" cy="186.1" rx="0.9" ry="0.9"/>
		<ellipse class="st1" cx="111.6" cy="184.6" rx="0.9" ry="0.9"/>
		<ellipse class="st1" cx="105.4" cy="157.5" rx="0.9" ry="0.9"/>
	</g>
	<g>
		<g>
			<polyline class="st22" points="486.6,61.5 485.2,62.3 483.7,63.1 482.3,63.9 480.9,64.7 479.4,65.5 478,66.2 476.5,67 475,67.8
				473.5,68.5 472,69.2 470.5,69.9 469,70.7 467.5,71.3 466,72.1 464.4,72.7 462.9,73.4 461.3,74.1 459.8,74.7 458.2,75.4 456.6,76
				455,76.6 453.5,77.2 451.9,77.8 450.3,78.4 448.6,79 447,79.5 445.4,80.1 443.8,80.6 442.1,81.1 440.4,81.7 438.8,82.1
				437.1,82.7 435.4,83.2 433.7,83.6 432.1,84 430.4,84.5 428.7,84.9 427,85.3 425.3,85.8 423.5,86.2 421.8,86.6 420.1,86.9
				418.3,87.2 416.5,87.6 414.8,87.9 413.1,88.2 411.3,88.6 409.5,88.9 407.8,89.2 406,89.4 404.2,89.7 402.4,89.9 400.6,90.2
				398.8,90.3 			"/>
			<polyline class="st22" points="488.4,65.8 486.9,66.5 485.5,67.3 484,67.9 482.6,68.7 481.1,69.4 479.6,70.1 478.1,70.8
				476.6,71.4 475.1,72.1 473.6,72.7 472,73.4 470.5,74 469,74.6 467.5,75.2 465.9,75.8 464.3,76.4 462.8,77 461.2,77.5 459.6,78.1
				458,78.7 456.4,79.2 454.8,79.7 453.2,80.2 451.6,80.7 449.9,81.2 448.3,81.7 446.7,82.1 445.1,82.6 443.4,83 441.8,83.5
				440.1,83.9 438.4,84.3 436.8,84.7 435.1,85.1 433.4,85.5 431.7,85.8 430,86.2 428.4,86.5 426.6,86.8 425,87.2 423.2,87.4
				421.5,87.7 419.8,88 418,88.3 416.4,88.5 414.6,88.8 412.9,89 411.1,89.2 409.4,89.4 407.6,89.6 405.9,89.8 404.1,89.9
				402.3,90.1 400.5,90.2 398.8,90.3 			"/>
			<polyline class="st22" points="471.4,77.3 469.5,77.7 467.7,78 465.8,78.3 464,78.6 			"/>
			<polyline class="st22" points="464,78.6 462.4,79.1 460.8,79.6 459.3,80.1 457.7,80.6 456,81.1 454.5,81.6 452.9,82 451.2,82.5
				449.6,82.9 448,83.3 446.4,83.7 444.7,84.1 443.1,84.5 441.4,84.8 439.8,85.2 438.1,85.6 436.5,85.9 434.8,86.3 433.1,86.6
				431.5,86.9 429.8,87.2 428,87.4 426.4,87.7 424.6,88 423,88.2 421.2,88.4 419.6,88.7 417.9,88.9 416.1,89.1 414.4,89.3
				412.7,89.4 411,89.6 409.2,89.8 407.5,89.9 405.8,90 404,90.1 402.3,90.2 400.5,90.3 398.8,90.3 			"/>
			<polyline class="st22" points="452.7,65 451.4,65.9 449.9,66.8 448.6,67.6 447.2,68.5 445.8,69.3 444.3,70.2 442.9,71
				441.5,71.8 440,72.6 438.6,73.5 437.1,74.3 435.6,75.1 434.1,75.9 432.6,76.6 431.1,77.3 429.5,78.1 428,78.8 426.5,79.6
				425,80.3 423.4,81 421.8,81.7 420.2,82.4 418.6,83.1 417,83.8 415.4,84.4 413.8,85 412.2,85.7 410.5,86.3 408.9,86.9 407.2,87.5
				405.5,88.1 403.9,88.7 402.2,89.3 400.5,89.8 398.8,90.3 			"/>
			<polyline class="st22" points="434.5,87.9 432.8,88.1 431.1,88.4 429.5,88.6 427.8,88.8 426.1,89 424.4,89.1 422.7,89.3
				421,89.5 419.4,89.6 417.6,89.7 415.9,89.8 414.2,89.9 412.5,90.1 410.8,90.2 409.1,90.2 407.4,90.3 405.7,90.3 403.9,90.3
				402.2,90.3 400.5,90.3 398.8,90.3 			"/>
			<polyline class="st22" points="398.8,90.3 400.5,90.3 402.3,90.2 404,90.1 405.8,90 407.5,89.9 409.2,89.8 411,89.6 412.7,89.4
				414.4,89.3 416.1,89.1 417.9,88.9 419.6,88.7 421.2,88.4 423,88.2 424.6,88 426.4,87.7 428,87.4 429.8,87.2 431.5,86.9
				433.1,86.6 434.8,86.3 436.5,85.9 438.1,85.6 439.8,85.2 441.4,84.8 443.1,84.5 444.7,84.1 446.4,83.7 448,83.3 449.6,82.9
				451.2,82.5 452.9,82 454.5,81.6 456,81.1 457.7,80.6 459.3,80.1 460.8,79.6 462.4,79.1 464,78.6 			"/>
			<polyline class="st22" points="479.5,83.8 477.7,83.2 476,82.7 474.3,82.2 472.5,81.6 470.8,81 469.1,80.4 467.4,79.8
				465.7,79.2 464,78.6 			"/>
			<polyline class="st22" points="489.5,62.3 488.2,63.5 486.9,64.7 485.5,65.9 484.1,67.1 482.8,68.2 481.4,69.4 480,70.5
				478.6,71.7 477.2,72.8 475.8,73.9 474.3,75.1 472.9,76.2 471.4,77.3 			"/>
			<polyline class="st22" points="400.8,94.4 399.8,92.4 398.8,90.3 			"/>
			<polyline class="st22" points="438.2,85.9 436.4,86.9 434.5,87.9 			"/>
		</g>
		<ellipse class="st1" cx="398.9" cy="90.3" rx="1.2" ry="1.2"/>
		<ellipse class="st1" cx="400.9" cy="94.4" rx="1.2" ry="1.2"/>
		<ellipse class="st1" cx="434.4" cy="87.7" rx="1.2" ry="1.2"/>
		<ellipse class="st1" cx="438.2" cy="85.8" rx="1.2" ry="1.2"/>
		<ellipse class="st1" cx="479.7" cy="83.9" rx="1.2" ry="1.2"/>
		<ellipse class="st1" cx="488.4" cy="66" rx="1.2" ry="1.2"/>
		<ellipse class="st1" cx="489.6" cy="62.5" rx="1.2" ry="1.2"/>
		<ellipse class="st1" cx="486.4" cy="61.7" rx="1.2" ry="1.2"/>
		<ellipse class="st1" cx="471.5" cy="77.2" rx="1.2" ry="1.2"/>
		<ellipse class="st1" cx="464" cy="78.6" rx="1.2" ry="1.2"/>
		<path class="st1" d="M452.5,63.9c0.6,0,1.2,0.5,1.2,1.2s-0.5,1.2-1.2,1.2c-0.6,0-1.2-0.5-1.2-1.2S451.9,63.9,452.5,63.9z"/>
	</g>
	<g id="constellation_5_">
		<g>
			<polyline class="st23" points="549.3,17.5 548,18 546.7,18.4 545.3,18.7 			"/>
			<polyline class="st23" points="545.3,18.7 545.3,20 545.3,21.3 545.2,22.6 			"/>
			<line class="st23" x1="536.3" y1="34.6" x2="537.1" y2="34.4"/>
			<line class="st23" x1="544.4" y1="18.5" x2="545.3" y2="18.7"/>
			<polyline class="st23" points="517.4,17.2 518.5,17.4 519.7,17.5 520.8,17.7 522,17.8 523.1,18 524.3,18.1 525.4,18.2
				526.6,18.3 527.7,18.4 528.9,18.5 530,18.6 531.2,18.7 532.4,18.7 533.6,18.8 534.7,18.8 535.9,18.8 537.1,18.9 538.3,18.9
				539.5,18.9 540.6,18.9 541.8,18.9 543,18.8 544.2,18.8 545.3,18.7 			"/>
			<polyline class="st23" points="546.1,21.9 545.7,20.3 545.3,18.7 			"/>
			<polyline class="st23" points="540.7,27.8 541.2,26.8 541.8,25.8 542.3,24.8 542.8,23.8 543.4,22.8 543.9,21.8 544.4,20.8
				544.9,19.8 545.3,18.7 			"/>
			<polyline class="st23" points="535.5,54.4 535.9,53.3 536.3,52.2 536.7,51.1 537.1,50 537.5,48.8 537.8,47.7 538.2,46.7
				538.6,45.5 538.9,44.4 539.3,43.3 539.6,42.2 540,41.1 540.3,39.9 540.6,38.8 541,37.7 541.3,36.6 541.6,35.5 541.8,34.3
				542.2,33.2 542.5,32.1 542.7,31 543,29.9 543.3,28.8 543.5,27.7 543.8,26.5 544,25.4 544.2,24.3 544.5,23.2 544.7,22.1 545,21
				545.2,19.9 545.3,18.7 			"/>
			<polyline class="st23" points="475.5,11.6 476.7,11.9 477.8,12.2 478.9,12.5 480.1,12.8 481.2,13.1 482.4,13.4 483.5,13.7
				484.6,13.9 485.8,14.2 486.9,14.4 488.1,14.7 489.3,14.9 490.4,15.1 491.6,15.3 492.8,15.5 493.9,15.7 495.1,15.8 496.2,16
				497.4,16.1 498.6,16.3 499.8,16.4 500.9,16.5 502.1,16.6 503.3,16.7 504.4,16.9 505.6,16.9 506.8,17 508,17.1 509.1,17.1
				510.3,17.1 511.5,17.2 512.7,17.2 513.9,17.2 515.1,17.2 516.2,17.2 517.4,17.2 			"/>
			<polyline class="st23" points="545.2,22.6 544.1,22.9 543,23.2 541.9,23.5 540.8,23.8 539.7,24 538.6,24.3 537.5,24.5
				536.4,24.8 535.2,25 534.2,25.2 533,25.5 531.9,25.6 530.8,25.9 529.6,26.1 528.5,26.3 527.4,26.4 526.2,26.6 525.1,26.7
				524,26.9 522.8,27 521.7,27.1 520.5,27.3 519.4,27.4 518.2,27.5 517.1,27.6 516,27.7 514.8,27.8 513.7,27.8 512.5,27.9
				511.4,27.9 510.2,28 509,28 507.9,28 506.7,28.1 505.6,28.1 504.4,28.1 503.3,28 502.1,28 501,28 499.8,28 498.6,27.9
				497.5,27.9 496.3,27.8 495.2,27.7 494,27.7 492.9,27.6 491.7,27.5 490.6,27.4 489.4,27.2 488.2,27.1 			"/>
			<line class="st23" x1="537.1" y1="34.4" x2="536.3" y2="34.6"/>
			<polyline class="st23" points="474.2,15.4 475,16.2 475.9,17 476.7,17.7 477.5,18.5 478.4,19.2 479.2,20 480.1,20.7 481,21.4
				481.8,22.2 482.7,22.9 483.6,23.6 484.5,24.3 485.5,25 486.4,25.7 487.3,26.4 488.2,27.1 			"/>
			<polyline class="st23" points="488.2,27.1 489.4,27.2 490.6,27.4 491.7,27.5 492.9,27.6 494,27.7 495.2,27.7 496.3,27.8
				497.5,27.9 498.6,27.9 499.8,28 501,28 502.1,28 503.3,28 504.4,28.1 505.6,28.1 506.7,28.1 507.9,28 509,28 510.2,28
				511.4,27.9 512.5,27.9 513.7,27.8 514.8,27.8 516,27.7 517.1,27.6 518.2,27.5 519.4,27.4 520.5,27.3 521.7,27.1 522.8,27
				524,26.9 525.1,26.7 526.2,26.6 527.4,26.4 528.5,26.3 529.6,26.1 530.8,25.9 531.9,25.6 533,25.5 534.2,25.2 535.2,25
				536.4,24.8 537.5,24.5 538.6,24.3 539.7,24 540.8,23.8 541.9,23.5 543,23.2 544.1,22.9 545.2,22.6 			"/>
			<polyline class="st23" points="488.2,27.1 487.3,26.4 486.4,25.7 485.5,25 484.5,24.3 483.6,23.6 482.7,22.9 481.8,22.2
				481,21.4 480.1,20.7 479.2,20 478.4,19.2 477.5,18.5 476.7,17.7 475.9,17 475,16.2 474.2,15.4 			"/>
			<polyline class="st23" points="473.4,36.5 474.4,35.9 475.4,35.3 476.5,34.7 477.5,34.1 478.5,33.5 479.5,32.9 480.5,32.2
				481.5,31.6 482.5,31 483.5,30.4 484.5,29.7 485.4,29.1 486.4,28.4 487.3,27.8 488.2,27.1 			"/>
			<line class="st23" x1="546.2" y1="22.6" x2="545.2" y2="22.6"/>
		</g>
		<ellipse class="st1" cx="488.3" cy="27.1" rx="0.8" ry="0.8"/>
		<ellipse class="st1" cx="517.3" cy="17.2" rx="0.8" ry="0.8"/>
		<ellipse class="st1" cx="536" cy="34.4" rx="0.8" ry="0.8"/>
		<ellipse class="st1" cx="537.4" cy="34.4" rx="0.8" ry="0.8"/>
		<ellipse class="st1" cx="535.4" cy="54.4" rx="0.8" ry="0.8"/>
		<ellipse class="st1" cx="540.7" cy="27.8" rx="0.8" ry="0.8"/>
		<ellipse class="st1" cx="545.2" cy="22.6" rx="0.8" ry="0.8"/>
		<ellipse class="st1" cx="546.1" cy="22.7" rx="0.8" ry="0.8"/>
		<ellipse class="st1" cx="546.1" cy="22" rx="0.8" ry="0.8"/>
		<ellipse class="st1" cx="544.2" cy="18.4" rx="0.8" ry="0.8"/>
		<ellipse class="st1" cx="545.3" cy="18.8" rx="0.8" ry="0.8"/>
		<ellipse class="st1" cx="549.3" cy="17.5" rx="0.8" ry="0.8"/>
		<ellipse class="st1" cx="474" cy="15.4" rx="0.8" ry="0.8"/>
		<ellipse class="st1" cx="475.5" cy="11.5" rx="0.8" ry="0.8"/>
		<ellipse class="st1" cx="473.4" cy="36.4" rx="0.8" ry="0.8"/>
	</g>
	<g>
		<g>
			<polygon class="st24" points="234.9,23.9 234.9,23.8 234.9,23.8 234.9,23.8 234.9,23.8 234.8,23.9 234.8,24 234.8,24.1
				234.8,24.1 234.8,24.1 234.9,24.1 234.9,24 234.9,24 234.9,23.9 234.9,23.9 			"/>
			<polyline class="st25" points="156.2,14.3 157.4,14.6 158.7,15 160,15.3 161.2,15.7 162.4,16 163.7,16.3 164.9,16.6 166.2,16.9
				167.5,17.2 168.7,17.5 170,17.7 171.2,18 172.5,18.2 173.8,18.4 175.1,18.7 176.3,18.9 177.6,19.1 178.9,19.3 180.1,19.5
				181.4,19.6 182.7,19.8 184,20 185.3,20.1 186.6,20.2 187.9,20.4 189.1,20.5 190.4,20.6 191.7,20.6 193,20.7 194.3,20.8
				195.6,20.8 196.9,20.9 198.2,20.9 199.5,21 200.8,21 202.1,21 203.3,21 204.7,21 205.9,20.9 207.2,20.9 208.5,20.8 209.8,20.8
				211.1,20.7 212.4,20.6 213.7,20.5 215,20.4 216.2,20.3 217.6,20.2 218.9,20 220.1,19.9 221.4,19.8 222.7,19.6 224,19.4
				225.3,19.2 226.5,19 227.9,18.8 229.1,18.6 230.4,18.4 231.7,18.2 232.9,17.9 234.2,17.7 235.5,17.4 236.7,17.1 238,16.8
				239.3,16.5 			"/>
			<polyline class="st25" points="215.1,22.2 216.2,22.8 217.4,23.3 218.5,23.9 219.7,24.4 220.9,25 222,25.5 223.2,26 224.4,26.5
				225.6,27 226.8,27.5 228,28 229.3,28.5 230.5,29 			"/>
			<polyline class="st25" points="198.7,26.6 199.9,26.8 201.2,27 202.4,27.2 203.6,27.4 204.9,27.5 206.1,27.7 207.4,27.8
				208.7,28 209.9,28.1 211.2,28.2 212.5,28.4 213.7,28.5 215,28.5 216.3,28.6 217.6,28.7 218.9,28.8 220.1,28.8 221.4,28.9
				222.7,28.9 224,29 225.3,29 226.6,29 227.9,29 229.2,29 230.5,29 			"/>
			<polyline class="st25" points="239.3,16.5 238.6,17.6 237.9,18.6 237.2,19.7 236.5,20.7 235.8,21.8 235,22.8 234.3,23.8
				233.6,24.8 232.8,25.9 232,26.9 231.2,27.9 230.5,29 			"/>
			<polyline class="st25" points="229,36.2 229.3,34.7 229.6,33.3 229.9,31.8 230.2,30.4 230.5,29 			"/>
			<polyline class="st25" points="172.4,25.3 173.6,25.6 174.9,25.9 176.1,26.1 177.3,26.4 178.5,26.7 179.8,26.9 181,27.1
				182.3,27.4 183.5,27.6 184.8,27.8 186,28 187.2,28.2 188.5,28.4 189.8,28.5 191,28.7 192.3,28.8 193.5,29 194.8,29.1 196.1,29.2
				197.3,29.4 198.6,29.4 199.9,29.5 201.1,29.6 202.4,29.7 203.6,29.8 204.9,29.8 206.2,29.9 207.5,29.9 208.7,29.9 210,30
				211.3,30 212.6,30 213.9,29.9 215.1,29.9 216.4,29.9 217.7,29.9 219,29.8 220.2,29.8 221.5,29.7 222.8,29.6 224.1,29.5
				225.3,29.4 226.6,29.3 227.9,29.2 229.2,29.1 230.5,29 			"/>
			<polyline class="st25" points="230.5,29 231.2,27.9 232,26.9 232.8,25.9 233.6,24.8 234.3,23.8 235,22.8 235.8,21.8 236.5,20.7
				237.2,19.7 237.9,18.6 238.6,17.6 239.3,16.5 			"/>
		</g>
		<ellipse class="st1" cx="229" cy="36.1" rx="0.9" ry="0.9"/>
		<ellipse class="st1" cx="230.5" cy="29.1" rx="0.9" ry="0.9"/>
		<ellipse class="st1" cx="239.5" cy="16.7" rx="0.9" ry="0.9"/>
		<ellipse class="st1" cx="215.2" cy="22.2" rx="0.9" ry="0.9"/>
		<ellipse class="st1" cx="226.2" cy="21" rx="0.9" ry="0.9"/>
		<ellipse class="st1" cx="198.6" cy="26.6" rx="0.9" ry="0.9"/>
		<ellipse class="st1" cx="172.4" cy="25.2" rx="0.9" ry="0.9"/>
		<ellipse class="st1" cx="161" cy="53.9" rx="0.9" ry="0.9"/>
		<ellipse class="st1" cx="156.3" cy="14.3" rx="0.9" ry="0.9"/>
		<line class="st25" x1="226.2" y1="21" x2="230.5" y2="29"/>
		<line class="st25" x1="161" y1="53.9" x2="230.5" y2="29"/>
	</g>
</g>
<g>
	<text transform="matrix(1 0 0 1 216.6309 175.6478)" class="st1 st2 st26">Protest in America</text>
</g>
<g>
	<text transform="matrix(1 0 0 1 231.9939 211.6604)" class="st2 st27">a project by Alyssa Fowers</text>
</g>
</svg>
