<?xml version="1.0" encoding="utf-8"?>
<!-- Generator: Adobe Illustrator 23.1.1, SVG Export Plug-In . SVG Version: 6.00 Build 0)  -->
<svg version="1.1" id="Layer_1" xmlns="http://www.w3.org/2000/svg" xmlns:xlink="http://www.w3.org/1999/xlink" x="0px" y="0px"
	 viewBox="0 0 783.98 614.94" style="enable-background:new 0 0 783.98 614.94;" xml:space="preserve">
<style type="text/css">
	.st0{fill:none;stroke:#FFFFFF;stroke-width:0.7646;}
	.st1{fill:none;stroke:#CBCBCA;stroke-width:0.7646;}
	.st2{fill:none;stroke:#FFFFFF;stroke-width:2.2249;}
	.st3{fill:none;}
	.st4{fill:#FFFFFF;}
	.st5{font-family:'Roboto';}
	.st6{font-size:8.278px;}
	.st7{font-size:12.417px;}
	.st8{enable-background:new    ;}
	.st9{fill:#9E6A76;}
	.st10{fill:#004552;}
	.st11{fill:#57214B;}
	.st12{fill:#030304;}
	.st13{fill:#F4E3D2;}
	.st14{fill:#608797;}
	.st15{fill:#104181;}
	.st16{fill:#7C67A6;}
	.st17{fill:#0D285B;}
	.st18{fill:#13655B;}
	.st19{fill:#492F78;}
	.st20{fill:#6F7488;}
	.st21{font-size:10px;}
	.st22{opacity:0.57;fill:#FFFFFF;stroke:#13655B;stroke-miterlimit:10;enable-background:new    ;}
	.st23{font-family:'Roboto';font-weight:bold;}
	.st24{font-size:8px;}
	.st25{font-size:9px;}
	.st26{fill:#231F20;}
	.st27{opacity:0.57;fill:#FFFFFF;stroke:#9E6A76;stroke-miterlimit:10;}
	.st28{opacity:0.57;fill:#FFFFFF;stroke:#57214B;stroke-miterlimit:10;enable-background:new    ;}
	.st29{opacity:0.57;fill:#FFFFFF;stroke:#004552;stroke-miterlimit:10;enable-background:new    ;}
	.st30{opacity:0.57;fill:#FFFFFF;stroke:#492F78;stroke-miterlimit:10;enable-background:new    ;}
	.st31{fill:none;stroke:#000000;stroke-miterlimit:10;}
	.st32{font-size:10.003px;}
	.st33{font-size:9.9684px;}
	.st34{fill:#707589;}
</style>
<g id="stream-grid">
	<g transform="translate(0,480)">
		<path class="st0" d="M13.99,91.6v-3.8h762.25"/>
		<path class="st0" d="M776.24-388.29"/>
		<g transform="translate(0.6873230714791224,0)">
			<line class="st1" x1="13.46" y1="87.46" x2="13.46" y2="91.6"/>
			<line class="st1" x1="81.99" y1="87.46" x2="81.99" y2="91.6"/>
			<line class="st1" x1="151.31" y1="87.46" x2="151.31" y2="91.6"/>
			<line class="st1" x1="221.39" y1="87.46" x2="221.39" y2="91.6"/>
			<line class="st1" x1="291.5" y1="87.46" x2="291.5" y2="91.6"/>
			<line class="st1" x1="360.03" y1="87.46" x2="360.03" y2="91.6"/>
			<line class="st1" x1="429.35" y1="87.46" x2="429.35" y2="91.6"/>
			<line class="st1" x1="499.43" y1="87.46" x2="499.43" y2="91.6"/>
			<line class="st1" x1="522.8" y1="87.46" x2="522.8" y2="91.6"/>
			<line class="st1" x1="546.17" y1="87.46" x2="546.17" y2="91.6"/>
			<line class="st1" x1="452.71" y1="87.46" x2="452.71" y2="91.6"/>
			<line class="st1" x1="476.07" y1="87.46" x2="476.07" y2="91.6"/>
			<line class="st1" x1="383.39" y1="87.46" x2="383.39" y2="91.6"/>
			<line class="st1" x1="406.75" y1="87.46" x2="406.75" y2="91.6"/>
			<line class="st1" x1="314.34" y1="87.46" x2="314.34" y2="91.6"/>
			<line class="st1" x1="337.19" y1="87.46" x2="337.19" y2="91.6"/>
			<line class="st1" x1="244.76" y1="87.46" x2="244.76" y2="91.6"/>
			<line class="st1" x1="268.13" y1="87.46" x2="268.13" y2="91.6"/>
			<line class="st1" x1="174.67" y1="87.46" x2="174.67" y2="91.6"/>
			<line class="st1" x1="198.03" y1="87.46" x2="198.03" y2="91.6"/>
			<line class="st1" x1="105.09" y1="87.46" x2="105.09" y2="91.6"/>
			<line class="st1" x1="128.2" y1="87.46" x2="128.2" y2="91.6"/>
			<line class="st1" x1="36.3" y1="87.46" x2="36.3" y2="91.6"/>
			<line class="st1" x1="59.14" y1="87.46" x2="59.14" y2="91.6"/>
			<line class="st1" x1="592.38" y1="87.63" x2="592.38" y2="91.77"/>
			<line class="st1" x1="615.23" y1="87.63" x2="615.23" y2="91.77"/>
			<line class="st1" x1="661.18" y1="87.63" x2="661.18" y2="91.77"/>
			<line class="st1" x1="684.28" y1="87.63" x2="684.28" y2="91.77"/>
			<line class="st1" x1="569.54" y1="87.46" x2="569.54" y2="91.6"/>
			<line class="st1" x1="638.07" y1="87.46" x2="638.07" y2="91.6"/>
			<line class="st1" x1="707.39" y1="87.46" x2="707.39" y2="91.6"/>
			<line class="st2" x1="13.46" y1="-171.89" x2="13.46" y2="91.6"/>
		</g>
		<line class="st0" x1="82.67" y1="-168.57" x2="82.67" y2="91.6"/>
		<line class="st0" x1="151.99" y1="-168.57" x2="151.99" y2="91.6"/>
		<line class="st0" x1="222.08" y1="-168.57" x2="222.08" y2="91.6"/>
		<line class="st2" x1="292.19" y1="-171.89" x2="292.19" y2="91.6"/>
		<line class="st0" x1="360.71" y1="-168.57" x2="360.71" y2="91.6"/>
		<line class="st0" x1="430.03" y1="-168.57" x2="430.03" y2="91.6"/>
		<line class="st0" x1="500.12" y1="-168.57" x2="500.12" y2="91.6"/>
		<line class="st0" x1="523.49" y1="-168.57" x2="523.49" y2="91.6"/>
		<line class="st0" x1="546.86" y1="-168.57" x2="546.86" y2="91.6"/>
		<line class="st0" x1="453.4" y1="-168.57" x2="453.4" y2="91.6"/>
		<line class="st0" x1="476.76" y1="-168.57" x2="476.76" y2="91.6"/>
		<line class="st0" x1="384.08" y1="-168.57" x2="384.08" y2="91.6"/>
		<line class="st0" x1="407.44" y1="-168.39" x2="407.44" y2="91.6"/>
		<line class="st0" x1="315.03" y1="-168.57" x2="315.03" y2="91.6"/>
		<line class="st0" x1="337.87" y1="-168.57" x2="337.87" y2="91.6"/>
		<line class="st0" x1="245.45" y1="-168.57" x2="245.45" y2="91.6"/>
		<line class="st0" x1="268.82" y1="-168.57" x2="268.82" y2="91.6"/>
		<line class="st0" x1="175.35" y1="-168.57" x2="175.35" y2="91.6"/>
		<line class="st0" x1="198.71" y1="-168.57" x2="198.71" y2="91.6"/>
		<line class="st0" x1="105.78" y1="-168.57" x2="105.78" y2="91.6"/>
		<line class="st0" x1="128.89" y1="-168.57" x2="128.89" y2="91.6"/>
		<line class="st0" x1="36.99" y1="-168.57" x2="36.99" y2="91.6"/>
		<line class="st0" x1="59.83" y1="-168.57" x2="59.83" y2="91.6"/>
		<line class="st0" x1="593.07" y1="-168.39" x2="593.07" y2="91.77"/>
		<line class="st0" x1="615.91" y1="-168.39" x2="615.91" y2="91.77"/>
		<line class="st0" x1="661.86" y1="-168.39" x2="661.86" y2="91.77"/>
		<line class="st0" x1="684.97" y1="-168.39" x2="684.97" y2="91.77"/>
		<line class="st2" x1="570.23" y1="-171.89" x2="570.23" y2="91.6"/>
		<line class="st0" x1="638.76" y1="-168.57" x2="638.76" y2="91.6"/>
		<line class="st0" x1="708.08" y1="-168.57" x2="708.08" y2="91.6"/>
		<line class="st0" x1="730.69" y1="-224.67" x2="730.69" y2="91.6"/>
		<line class="st0" x1="730.99" y1="-168.57" x2="730.99" y2="91.6"/>
		<line class="st0" x1="753.61" y1="-224.67" x2="753.61" y2="91.6"/>
		<line class="st0" x1="753.77" y1="-168.57" x2="753.77" y2="91.6"/>
		<line class="st0" x1="776.38" y1="-168.57" x2="776.38" y2="91.6"/>
		<path class="st0" d="M731.56-279.98"/>
		<path class="st0" d="M13.99-279.98"/>
	</g>
	<g>
		<rect x="5.49" y="578.16" class="st3" width="17.31" height="12.88"/>
		<text transform="matrix(1 0 0 1 11.8629 584.3693)" class="st4 st5 st6">J</text>
		<rect x="28.33" y="578.16" class="st3" width="17.31" height="12.88"/>
		<text transform="matrix(1 0 0 1 34.7017 584.3693)" class="st4 st5 st6">F</text>
		<rect x="51.17" y="578.16" class="st3" width="17.31" height="12.88"/>
		<text transform="matrix(1 0 0 1 56.2178 584.3683)" class="st4 st5 st6">M</text>
		<rect x="74.02" y="578.16" class="st3" width="17.31" height="12.88"/>
		<text transform="matrix(1 0 0 1 79.9737 584.3683)" class="st4 st5 st6">A</text>
		<rect x="97.12" y="578.16" class="st3" width="17.31" height="12.88"/>
		<text transform="matrix(1 0 0 1 102.1661 584.3683)" class="st4 st5 st6">M</text>
		<rect x="120.23" y="578.16" class="st3" width="17.31" height="12.88"/>
		<text transform="matrix(1 0 0 1 126.6031 584.3683)" class="st4 st5 st6">J</text>
		<rect x="143.34" y="578.16" class="st3" width="17.31" height="12.88"/>
		<text transform="matrix(1 0 0 1 149.7091 584.3683)" class="st4 st5 st6">J</text>
		<rect x="166.7" y="578.16" class="st3" width="17.31" height="12.88"/>
		<text transform="matrix(1 0 0 1 172.6529 584.3683)" class="st4 st5 st6">A</text>
		<rect x="190.06" y="578.16" class="st3" width="17.31" height="12.88"/>
		<text transform="matrix(1 0 0 1 196.2589 584.3683)" class="st4 st5 st6">S</text>
		<rect x="213.42" y="578.16" class="st3" width="17.31" height="12.88"/>
		<text transform="matrix(1 0 0 1 219.2296 584.3683)" class="st4 st5 st6">O</text>
		<rect x="236.79" y="578.16" class="st3" width="17.31" height="12.88"/>
		<text transform="matrix(1 0 0 1 242.4947 584.3683)" class="st4 st5 st6">N</text>
		<rect x="260.16" y="578.16" class="st3" width="17.31" height="12.88"/>
		<text transform="matrix(1 0 0 1 266.1026 584.3683)" class="st4 st5 st6">D</text>
		<rect x="282.7" y="578.16" class="st3" width="17.31" height="12.88"/>
		<text transform="matrix(1 0 0 1 289.0714 584.3693)" class="st4 st5 st6">J</text>
		<rect x="305.54" y="578.16" class="st3" width="17.31" height="12.88"/>
		<text transform="matrix(1 0 0 1 311.9097 584.3693)" class="st4 st5 st6">F</text>
		<rect x="328.38" y="578.16" class="st3" width="17.31" height="12.88"/>
		<text transform="matrix(1 0 0 1 333.4254 584.3683)" class="st4 st5 st6">M</text>
		<rect x="351.22" y="578.16" class="st3" width="17.31" height="12.88"/>
		<text transform="matrix(1 0 0 1 357.1817 584.3683)" class="st4 st5 st6">A</text>
		<rect x="374.33" y="578.16" class="st3" width="17.31" height="12.88"/>
		<text transform="matrix(1 0 0 1 379.3741 584.3683)" class="st4 st5 st6">M</text>
		<rect x="397.44" y="578.16" class="st3" width="17.31" height="12.88"/>
		<text transform="matrix(1 0 0 1 403.8101 584.3683)" class="st4 st5 st6">J</text>
		<rect x="420.54" y="578.16" class="st3" width="17.31" height="12.88"/>
		<text transform="matrix(1 0 0 1 426.9156 584.3683)" class="st4 st5 st6">J</text>
		<rect x="443.91" y="578.16" class="st3" width="17.31" height="12.88"/>
		<text transform="matrix(1 0 0 1 449.8609 584.3683)" class="st4 st5 st6">A</text>
		<rect x="467.27" y="578.16" class="st3" width="17.31" height="12.88"/>
		<text transform="matrix(1 0 0 1 473.4644 584.3683)" class="st4 st5 st6">S</text>
		<rect x="490.63" y="578.16" class="st3" width="17.31" height="12.88"/>
		<text transform="matrix(1 0 0 1 496.4361 584.3683)" class="st4 st5 st6">O</text>
		<rect x="514" y="578.16" class="st3" width="17.31" height="12.88"/>
		<text transform="matrix(1 0 0 1 519.7026 584.3683)" class="st4 st5 st6">N</text>
		<rect x="537.37" y="578.16" class="st3" width="17.31" height="12.88"/>
		<text transform="matrix(1 0 0 1 543.3101 584.3683)" class="st4 st5 st6">D</text>
		<rect x="560.59" y="578.16" class="st3" width="17.31" height="12.88"/>
		<text transform="matrix(1 0 0 1 566.9614 584.3693)" class="st4 st5 st6">J</text>
		<rect x="583.43" y="578.16" class="st3" width="17.31" height="12.88"/>
		<text transform="matrix(1 0 0 1 589.7993 584.3693)" class="st4 st5 st6">F</text>
		<rect x="606.27" y="578.16" class="st3" width="17.31" height="12.88"/>
		<text transform="matrix(1 0 0 1 611.317 584.3683)" class="st4 st5 st6">M</text>
		<rect x="629.12" y="578.16" class="st3" width="17.31" height="12.88"/>
		<text transform="matrix(1 0 0 1 635.0728 584.3683)" class="st4 st5 st6">A</text>
		<rect x="652.22" y="578.16" class="st3" width="17.31" height="12.88"/>
		<text transform="matrix(1 0 0 1 657.2651 584.3683)" class="st4 st5 st6">M</text>
		<rect x="675.33" y="578.16" class="st3" width="17.31" height="12.88"/>
		<text transform="matrix(1 0 0 1 681.7017 584.3683)" class="st4 st5 st6">J</text>
		<rect x="698.44" y="578.16" class="st3" width="17.31" height="12.88"/>
		<text transform="matrix(1 0 0 1 704.809 584.3683)" class="st4 st5 st6">J</text>
		<rect x="724.27" y="578.16" class="st3" width="17.31" height="12.88"/>
		<text transform="matrix(1 0 0 1 730.2271 584.3683)" class="st4 st5 st6">A</text>
		<rect x="744.95" y="578.16" class="st3" width="17.31" height="12.88"/>
		<text transform="matrix(1 0 0 1 751.15 584.3683)" class="st4 st5 st6">S</text>
		<rect x="767.58" y="578.16" class="st3" width="17.31" height="12.88"/>
		<text transform="matrix(1 0 0 1 773.3881 584.3683)" class="st4 st5 st6">O</text>
	</g>
	<rect x="99.37" y="596.44" class="st3" width="76.35" height="20.79"/>
	<text transform="matrix(1 0 0 1 123.5987 605.7531)" class="st4 st5 st7">2017</text>
	<text transform="matrix(1 0 0 1 18.6486 121.92)" class="st8"><tspan x="0" y="0" class="st4 st5 st7">Height indicates</tspan><tspan x="0" y="14.9" class="st4 st5 st7">number of protests </tspan><tspan x="0" y="29.8" class="st4 st5 st7">per month</tspan></text>
	<rect x="376.57" y="596.44" class="st3" width="76.35" height="20.79"/>
	<text transform="matrix(1 0 0 1 400.8052 605.7531)" class="st4 st5 st7">2018</text>
	<rect x="616.52" y="596.44" class="st3" width="76.35" height="20.79"/>
	<text transform="matrix(1 0 0 1 640.7515 605.7531)" class="st4 st5 st7">2019</text>
</g>
<g>
	<g id="stream">
		<path id="supreme_x5F_court-stream" class="st9" d="M12.66,242.29l3.93-1.87c3.93-1.87,11.8-5.62,19.29-7.14s14.59-0.81,22.08-0.1
			s15.35,1.42,23.09,5.3s15.35,10.94,23.09,15.38s15.61,6.25,23.35,8.54c7.74,2.29,15.35,5.05,23.09-1.85
			c7.74-6.9,15.61-23.46,23.47-29.73c7.87-6.27,15.73-2.25,23.47,3.79c7.74,6.03,15.35,14.08,23.09,20.86s15.61,12.3,23.35,16.86
			s15.35,8.14,23.09,3.21s15.61-18.37,23.47-25.59s15.73-8.2,23.22-44.47s14.6-107.85,22.09-115.05s15.35,49.97,23.09,90.21
			s15.35,63.54,23.09,57.86s15.61-40.33,23.35-40.28c7.74,0.06,15.35,34.83,23.09,52.06s15.61,16.91,23.47,12.97
			c7.87-3.94,15.73-11.51,23.47-18.71c7.74-7.2,15.35-14.02,23.09-10.65s15.61,16.93,23.35,28.92
			c7.74,11.99,15.35,22.39,23.09,19.04c7.74-3.35,15.61-20.46,23.47-25.12c7.87-4.65,15.73,3.15,23.22,5.74
			c7.49,2.58,14.59-0.06,22.08-1.5s15.35-1.68,23.09-6.72c7.74-5.05,15.35-14.9,23.09-14.81c7.74,0.1,15.61,10.15,23.35,11.71
			s15.35-5.38,23.09-5.66c7.74-0.28,15.61,6.11,23.47,6.25s15.73-5.97,23.47-5.91s15.35,6.29,19.16,9.4l3.81,3.11l0,0l-3.81-3.11
			c-3.81-3.11-11.42-9.34-19.16-9.4s-15.61,6.05-23.47,5.91s-15.73-6.53-23.47-6.25s-15.35,7.22-23.09,5.66
			c-7.74-1.56-15.61-11.61-23.35-11.71s-15.35,9.76-23.09,14.81c-7.74,5.05-15.61,5.28-23.09,6.72c-7.49,1.44-14.59,4.08-22.08,1.5
			c-7.49-2.58-15.35-10.39-23.22-5.74s-15.73,21.76-23.47,25.12c-7.74,3.35-15.35-7.06-23.09-14.08
			c-7.74-7.02-15.61-10.65-23.35-9.99c-7.74,0.65-15.35,5.58-23.09,8.63c-7.74,3.06-15.61,4.24-23.47,4.75
			c-7.87,0.51-15.73,0.35-23.47-17.66c-7.74-18.02-15.35-53.9-23.09-54.55c-7.74-0.65-15.61,33.93-23.35,39.57
			c-7.74,5.64-15.35-17.66-23.09-57.9s-15.61-97.41-23.09-90.21c-7.49,7.2-14.59,78.76-22.08,115.03s-15.35,37.26-23.22,44.47
			c-7.87,7.21-15.73,20.66-23.47,25.59s-15.35,1.34-23.09-3.21c-7.74-4.55-15.61-10.07-23.35-16.82s-15.35-14.71-23.09-20.74
			s-15.61-10.13-23.47-3.9c-7.87,6.23-15.73,22.79-23.47,29.69c-7.74,6.9-15.35,4.14-23.09,1.85c-7.74-2.29-15.61-4.1-23.35-8.5
			c-7.74-4.4-15.35-11.37-23.09-15.14s-15.61-4.32-23.09-5.03c-7.49-0.71-14.59-1.58-22.08-0.18s-15.35,5.07-19.29,6.9L12.66,242.29
			z"/>
		<path id="women-stream" class="st10" d="M12.66,242.29l3.93-1.83c3.93-1.83,11.8-5.5,19.29-6.9s14.59-0.53,22.08,0.18
			s15.35,1.26,23.09,5.03s15.35,10.74,23.09,15.14s15.61,6.21,23.35,8.5c7.74,2.29,15.35,5.05,23.09-1.85
			c7.74-6.9,15.61-23.46,23.47-29.69c7.87-6.23,15.73-2.13,23.47,3.9s15.35,14,23.09,20.74s15.61,12.26,23.35,16.82
			s15.35,8.14,23.09,3.21s15.61-18.37,23.47-25.59c7.86-7.22,15.73-8.2,23.22-44.47s14.6-107.85,22.09-115.05
			s15.35,49.97,23.09,90.21s15.35,63.54,23.09,57.9s15.61-40.22,23.35-39.57c7.74,0.65,15.35,36.53,23.09,54.55
			s15.61,18.18,23.47,17.66c7.87-0.51,15.73-1.7,23.47-4.75c7.74-3.06,15.35-7.98,23.09-8.63c7.74-0.65,15.61,2.98,23.35,9.99
			s15.35,17.43,23.09,14.08c7.74-3.35,15.61-20.46,23.47-25.12c7.87-4.65,15.73,3.15,23.22,5.74c7.49,2.58,14.59-0.06,22.08-1.5
			s15.35-1.68,23.09-6.72c7.74-5.05,15.35-14.9,23.09-14.81c7.74,0.1,15.61,10.15,23.35,11.71s15.35-5.38,23.09-5.66
			c7.74-0.28,15.61,6.11,23.47,6.25s15.73-5.97,23.47-5.91s15.35,6.29,19.16,9.4l3.81,3.11v11.59l-3.81-4.53
			c-3.81-4.53-11.42-13.6-19.16-15.04s-15.61,4.75-23.47,4.57s-15.73-6.72-23.47-5.78c-7.74,0.95-15.35,9.38-23.09,18.43
			c-7.74,9.05-15.61,18.71-23.35,19.28s-15.35-7.94-23.09-12.56c-7.74-4.61-15.61-5.32-23.09-4.91c-7.49,0.41-14.59,1.95-22.08,5.76
			c-7.49,3.8-15.35,9.88-23.22,13.98s-15.73,6.23-23.47,2.72c-7.74-3.51-15.35-12.66-23.09-14.15c-7.74-1.5-15.61,4.65-23.35,8.46
			c-7.74,3.8-15.35,5.26-23.09,3.08c-7.74-2.19-15.61-8.02-23.47-11.41c-7.87-3.39-15.73-4.34-23.47-22.43
			c-7.74-18.1-15.35-53.35-23.09-53.8s-15.61,33.89-23.35,40.59c-7.74,6.7-15.35-14.23-23.09-53.17s-15.61-95.87-23.09-89.54
			c-7.49,6.33-14.59,75.92-22.08,122.56s-15.35,70.34-23.22,77.2c-7.87,6.86-15.73-3.11-23.47-9.9
			c-7.74-6.78-15.35-10.37-23.09-13.82c-7.74-3.45-15.61-6.76-23.35-13.15c-7.74-6.39-15.35-15.85-23.09-22.79
			c-7.74-6.94-15.61-11.36-23.47-5.24c-7.87,6.11-15.73,22.75-23.47,29.61c-7.74,6.86-15.35,3.94-23.09,1.54
			c-7.74-2.41-15.61-4.3-23.35-7.39c-7.74-3.1-15.35-7.39-23.09-7.45s-15.61,4.12-23.09,5.58c-7.48,1.46-14.59,0.2-22.08,14.57
			C28.4,285.19,20.54,315.2,16.6,330.2l-3.93,15V242.29H12.66z"/>
		<path id="police-stream" class="st11" d="M12.66,345.2l3.93-15c3.93-15,11.8-45.01,19.29-59.38
			c7.49-14.37,14.59-13.11,22.08-14.57c7.49-1.46,15.35-5.64,23.09-5.58s15.35,4.36,23.09,7.45c7.74,3.1,15.61,4.99,23.35,7.39
			c7.74,2.41,15.35,5.32,23.09-1.54c7.74-6.86,15.61-23.5,23.47-29.61c7.87-6.11,15.73-1.7,23.47,5.24s15.35,16.4,23.09,22.79
			s15.61,9.7,23.35,13.15c7.74,3.45,15.35,7.04,23.09,13.82c7.74,6.78,15.61,16.76,23.47,9.9c7.87-6.86,15.73-30.56,23.22-77.2
			s14.59-116.23,22.08-122.56c7.49-6.33,15.35,50.61,23.09,89.54s15.35,59.87,23.09,53.17s15.61-41.04,23.35-40.59
			c7.74,0.45,15.35,35.7,23.09,53.8s15.61,19.04,23.47,22.43c7.87,3.39,15.73,9.23,23.47,11.41c7.74,2.19,15.35,0.73,23.09-3.08
			c7.74-3.8,15.61-9.96,23.35-8.46s15.35,10.65,23.09,14.15c7.74,3.51,15.61,1.38,23.47-2.72s15.73-10.17,23.22-13.98
			c7.49-3.8,14.59-5.34,22.08-5.76c7.49-0.41,15.35,0.3,23.09,4.91c7.74,4.61,15.35,13.13,23.09,12.56
			c7.74-0.57,15.61-10.23,23.35-19.28c7.74-9.05,15.35-17.49,23.09-18.43c7.74-0.95,15.61,5.6,23.47,5.78s15.73-6.01,23.47-4.57
			s15.35,10.51,19.16,15.04l3.81,4.53v4.97l-3.81-4.46c-3.81-4.46-11.42-13.37-19.16-14.37c-7.74-1-15.61,5.89-23.47,5.84
			c-7.87-0.06-15.73-7.08-23.47-6.21s-15.35,9.62-23.09,18.71c-7.74,9.09-15.61,18.51-23.35,19.12
			c-7.74,0.61-15.35-7.59-23.09-12.01c-7.74-4.42-15.61-5.05-23.09-4.87c-7.49,0.18-14.59,1.16-22.08,4.69s-15.35,9.6-23.22,13.31
			c-7.87,3.71-15.73,5.05-23.47,1.14c-7.74-3.9-15.35-13.05-23.09-13.88c-7.74-0.83-15.61,6.66-23.35,11.41
			c-7.74,4.75-15.35,6.76-23.09,5.01s-15.61-7.27-23.47-10.74c-7.87-3.47-15.73-4.89-23.47-23.1
			c-7.74-18.22-15.35-53.23-23.09-54.04S389.74,243.06,382,249.8c-7.74,6.74-15.35-13.17-23.09-51.83s-15.61-96.07-23.09-90.37
			c-7.49,5.7-14.59,74.5-22.08,120.39s-15.35,68.88-23.22,75.42c-7.87,6.54-15.73-3.35-23.47-9.03s-15.35-7.14-23.09-7.87
			c-7.74-0.73-15.61-0.73-23.35-5.26s-15.35-13.6-23.09-22.83c-7.74-9.23-15.61-18.61-23.47-15.34
			c-7.87,3.27-15.73,19.2-23.47,25.83c-7.74,6.62-15.35,3.94-23.09,1.81s-15.61-3.71-23.35-7c-7.74-3.29-15.35-8.3-23.09-8.79
			c-7.74-0.49-15.61,3.53-23.09,4.55c-7.48,1.02-14.59-0.95-22.08,12.83s-15.35,43.31-19.29,58.08L12.66,345.2z"/>
		<path id="education-stream" class="st12" d="M12.66,345.2l3.93-14.77c3.93-14.77,11.8-44.3,19.29-58.08s14.59-11.81,22.08-12.83
			c7.49-1.02,15.35-5.05,23.09-4.55c7.74,0.49,15.35,5.5,23.09,8.79c7.74,3.29,15.61,4.87,23.35,7s15.35,4.81,23.09-1.81
			s15.61-22.55,23.47-25.83c7.87-3.27,15.73,6.11,23.47,15.34c7.74,9.23,15.35,18.29,23.09,22.83c7.74,4.53,15.61,4.53,23.35,5.26
			c7.74,0.73,15.35,2.19,23.09,7.87s15.61,15.57,23.47,9.03c7.87-6.54,15.73-29.53,23.22-75.42s14.59-114.69,22.08-120.39
			s15.35,51.71,23.09,90.37s15.35,58.57,23.09,51.83s15.61-40.14,23.35-39.33c7.74,0.81,15.35,35.82,23.09,54.04
			s15.61,19.63,23.47,23.1c7.87,3.47,15.73,8.99,23.47,10.74s15.35-0.26,23.09-5.01s15.61-12.24,23.35-11.41
			c7.74,0.83,15.35,9.98,23.09,13.88c7.74,3.9,15.61,2.56,23.47-1.14c7.86-3.7,15.73-9.78,23.22-13.31s14.59-4.51,22.08-4.69
			c7.49-0.18,15.35,0.45,23.09,4.87c7.74,4.42,15.35,12.62,23.09,12.01c7.74-0.61,15.61-10.03,23.35-19.12s15.35-17.84,23.09-18.71
			c7.74-0.87,15.61,6.15,23.47,6.21c7.87,0.06,15.73-6.84,23.47-5.84c7.74,1,15.35,9.92,19.16,14.37l3.81,4.46v5.68l-3.81-4.18
			c-3.81-4.18-11.42-12.54-19.16-14.1c-7.74-1.56-15.61,3.69-23.47,2.76c-7.86-0.93-15.73-8.02-23.47-6.29
			c-7.74,1.73-15.35,12.3-23.09,24.23c-7.74,11.93-15.61,25.21-23.35,27.36s-15.35-6.84-23.09-12.56
			c-7.74-5.72-15.61-8.16-23.09-9.68c-7.49-1.52-14.59-2.11-22.08,0.55s-15.35,8.58-23.22,11.85c-7.87,3.27-15.73,3.9-23.47-0.32
			s-15.35-13.29-23.09-13.48s-15.61,8.48-23.35,13.54c-7.74,5.07-15.35,6.53-23.09,4.3c-7.74-2.23-15.61-8.14-23.47-12.44
			c-7.87-4.3-15.73-6.98-23.47-25.51s-15.35-52.91-23.09-52.14s-15.61,36.69-23.35,47.49c-7.74,10.8-15.35-3.51-23.09-40.91
			s-15.61-97.88-23.09-93.72c-7.49,4.16-14.59,72.96-22.08,116.73s-15.35,62.49-23.22,66.44s-15.73-6.9-23.47-12.93
			s-15.35-7.25-23.09-7.31s-15.61,1.04-23.35-3.13c-7.74-4.17-15.35-13.64-23.09-23.62c-7.74-9.98-15.61-20.46-23.47-17.51
			c-7.87,2.96-15.73,19.36-23.47,26.3s-15.35,4.42-23.09,3.23s-15.61-1.03-23.35-3.92c-7.74-2.9-15.35-8.85-23.09-9.19
			s-15.61,4.95-23.09,5.42s-14.59-3.86-22.08,8.26s-15.35,40.71-19.29,55l-3.93,14.29C12.66,345.45,12.66,345.2,12.66,345.2z"/>
		<path id="executive-stream" class="st13" d="M12.66,345.43l3.93-14.29c3.93-14.29,11.8-42.88,19.29-55s14.59-7.79,22.08-8.26
			s15.35-5.76,23.09-5.42s15.35,6.29,23.09,9.19c7.74,2.9,15.61,2.74,23.35,3.92s15.35,3.71,23.09-3.23s15.61-23.34,23.47-26.3
			c7.87-2.96,15.73,7.53,23.47,17.51c7.74,9.98,15.35,19.44,23.09,23.62c7.74,4.18,15.61,3.08,23.35,3.13
			c7.74,0.05,15.35,1.28,23.09,7.31s15.61,16.88,23.47,12.93c7.86-3.95,15.73-22.67,23.22-66.44s14.59-112.57,22.08-116.73
			s15.35,56.32,23.09,93.72S374.26,272.8,382,262c7.74-10.8,15.61-46.72,23.35-47.49c7.74-0.77,15.35,33.61,23.09,52.14
			s15.61,21.21,23.47,25.51c7.87,4.3,15.73,10.21,23.47,12.44c7.74,2.23,15.35,0.77,23.09-4.3s15.61-13.74,23.35-13.54
			s15.35,9.27,23.09,13.48c7.74,4.22,15.61,3.59,23.47,0.32s15.73-9.19,23.22-11.85s14.59-2.07,22.08-0.55
			c7.49,1.52,15.35,3.96,23.09,9.68c7.74,5.72,15.35,14.71,23.09,12.56c7.74-2.15,15.61-15.44,23.35-27.36
			c7.74-11.93,15.35-22.49,23.09-24.23c7.74-1.73,15.61,5.36,23.47,6.29s15.73-4.32,23.47-2.76c7.74,1.56,15.35,9.92,19.16,14.1
			l3.81,4.18v20.58l-3.81-6.98c-3.81-6.98-11.42-20.94-19.16-24.39c-7.74-3.45-15.61,3.61-23.47,4.38
			c-7.86,0.77-15.73-4.75-23.47-2.46c-7.74,2.29-15.35,12.38-23.09,22.45c-7.74,10.07-15.61,20.13-23.35,21.8
			c-7.74,1.68-15.35-5.03-23.09-10.59c-7.74-5.56-15.61-9.98-23.09-12.72c-7.49-2.74-14.59-3.8-22.08,1.18
			c-7.49,4.99-15.35,16.03-23.22,18.98c-7.87,2.96-15.73-2.17-23.47-1.26s-15.35,7.85-23.09,12.58s-15.61,7.25-23.35,8.14
			c-7.74,0.89-15.35,0.14-23.09-5.72c-7.74-5.85-15.61-16.82-23.47-22.81c-7.87-5.99-15.73-7.02-23.47-25.98
			s-15.35-55.87-23.09-56.87c-7.74-1.01-15.61,33.89-23.35,44.06c-7.74,10.17-15.35-4.38-23.09-41.54s-15.61-96.93-23.09-92.62
			c-7.49,4.32-14.59,72.72-22.08,117s-15.35,64.42-23.22,68.17s-15.73-8.91-23.47-14.86c-7.74-5.95-15.35-5.2-23.09-4.67
			c-7.74,0.53-15.61,0.85-23.35-3.84s-15.35-14.39-23.09-23.46c-7.74-9.07-15.61-17.51-23.47-13.64
			c-7.87,3.86-15.73,20.03-23.47,28.27c-7.74,8.24-15.35,8.56-23.09,7.02c-7.74-1.54-15.61-4.93-23.35-5.26
			c-7.74-0.34-15.35,2.39-23.09,7.37c-7.74,4.99-15.61,12.24-23.09,12.36s-14.59-6.9-22.08-0.06c-7.49,6.84-15.35,27.54-19.29,37.89
			l-3.93,10.35C12.66,353.47,12.66,345.43,12.66,345.43z"/>
		<path id="immigration-stream" class="st14" d="M12.66,353.48l3.93-10.35c3.93-10.35,11.8-31.05,19.29-37.89
			c7.49-6.84,14.59,0.18,22.08,0.06s15.35-7.37,23.09-12.36c7.74-4.99,15.35-7.71,23.09-7.37c7.74,0.34,15.61,3.73,23.35,5.26
			c7.74,1.54,15.35,1.22,23.09-7.02c7.74-8.24,15.61-24.41,23.47-28.27c7.87-3.86,15.73,4.57,23.47,13.64
			c7.74,9.07,15.35,18.77,23.09,23.46c7.74,4.69,15.61,4.38,23.35,3.84c7.74-0.53,15.35-1.28,23.09,4.67
			c7.74,5.95,15.61,18.61,23.47,14.86c7.87-3.75,15.73-23.89,23.22-68.17s14.59-112.68,22.08-117c7.49-4.32,15.35,55.45,23.09,92.62
			S374.26,275.17,382,265c7.74-10.17,15.61-45.07,23.35-44.06c7.74,1.01,15.35,37.91,23.09,56.87s15.61,19.99,23.47,25.98
			c7.87,5.99,15.73,16.95,23.47,22.81c7.74,5.85,15.35,6.6,23.09,5.72c7.74-0.89,15.61-3.41,23.35-8.14s15.35-11.67,23.09-12.58
			c7.74-0.91,15.61,4.22,23.47,1.26c7.87-2.96,15.73-14,23.22-18.98c7.49-4.99,14.59-3.92,22.08-1.18
			c7.49,2.74,15.35,7.16,23.09,12.72c7.74,5.56,15.35,12.26,23.09,10.59c7.74-1.68,15.61-11.73,23.35-21.8
			c7.74-10.07,15.35-20.17,23.09-22.45c7.74-2.29,15.61,3.23,23.47,2.46s15.73-7.83,23.47-4.38c7.74,3.45,15.35,17.41,19.16,24.39
			l3.81,6.98v6.15l-3.81-6.58c-3.81-6.58-11.42-19.75-19.16-21.86c-7.74-2.11-15.61,6.84-23.47,19.16
			c-7.87,12.32-15.73,28.01-23.47,29.51s-15.35-11.2-23.09-12.36c-7.74-1.16-15.61,9.21-23.35,10.33s-15.35-7-23.09-13.43
			c-7.74-6.43-15.61-11.16-23.09-9.44c-7.49,1.72-14.59,9.88-22.08,15.1s-15.35,7.51-23.22,5.97s-15.73-6.9-23.47-6.11
			s-15.35,7.73-23.09,12.62c-7.74,4.89-15.61,7.73-23.35,8.34c-7.74,0.61-15.35-1.01-23.09-6.35s-15.61-14.41-23.47-17.05
			c-7.87-2.64-15.73,1.14-23.47,17.27c-7.74,16.13-15.35,44.59-23.09,41.1s-15.61-38.93-23.35-63.89
			c-7.74-24.96-15.35-39.43-23.09-75.52c-7.74-36.1-15.61-93.82-23.09-89.62c-7.49,4.2-14.59,70.32-22.08,114.44
			s-15.35,66.24-23.22,70.22s-15.73-10.17-23.47-17.39s-15.35-7.49-23.09-7.67c-7.74-0.18-15.61-0.26-23.35,3.17
			s-15.35,10.37-23.09,2.09c-7.74-8.28-15.61-31.78-23.47-36.19c-7.87-4.42-15.73,10.25-23.47,17.94s-15.35,8.4-23.09,11.08
			c-7.74,2.68-15.61,7.33-23.35,7.59s-15.35-3.88-23.09-1.26s-15.61,12.01-23.09,20.88s-14.59,17.23-22.08,27.58
			s-15.35,22.69-19.29,28.86l-3.93,6.17V353.48z"/>
		<path id="guns-stream_1_" class="st15" d="M12.66,392.04l3.93-6.17c3.93-6.17,11.8-18.51,19.29-28.86s14.59-18.71,22.08-27.58
			s15.35-18.25,23.09-20.88s15.35,1.52,23.09,1.26c7.74-0.26,15.61-4.91,23.35-7.59s15.35-3.39,23.09-11.08s15.61-22.36,23.47-17.94
			c7.87,4.42,15.73,27.91,23.47,36.19s15.35,1.34,23.09-2.09c7.74-3.43,15.61-3.35,23.35-3.17c7.74,0.18,15.35,0.45,23.09,7.67
			s15.61,21.37,23.47,17.39s15.73-26.1,23.22-70.22s14.6-110.24,22.09-114.44c7.49-4.2,15.35,53.52,23.09,89.62
			s15.35,50.57,23.09,75.52c7.74,24.96,15.61,60.4,23.35,63.89c7.74,3.49,15.35-24.98,23.09-41.1
			c7.74-16.13,15.61-19.91,23.47-17.27c7.87,2.64,15.73,11.71,23.47,17.05s15.35,6.96,23.09,6.35s15.61-3.45,23.35-8.34
			c7.74-4.89,15.35-11.83,23.09-12.62c7.74-0.79,15.61,4.57,23.47,6.11c7.87,1.54,15.73-0.75,23.22-5.97s14.59-13.39,22.08-15.1
			c7.49-1.72,15.35,3.02,23.09,9.44c7.74,6.43,15.35,14.55,23.09,13.43c7.74-1.12,15.61-11.49,23.35-10.33s15.35,13.86,23.09,12.36
			c7.74-1.5,15.61-17.19,23.47-29.51c7.87-12.32,15.73-21.27,23.47-19.16c7.74,2.11,15.35,15.28,19.16,21.86l3.81,6.58v1.42
			l-3.81-5.99c-3.81-5.99-11.42-17.98-19.16-15.59c-7.74,2.39-15.61,19.14-23.47,30.95s-15.73,18.67-23.47,16.97
			s-15.35-11.95-23.09-13.03c-7.74-1.08-15.61,7-23.35,7.33c-7.74,0.34-15.35-7.08-23.09-13.07c-7.74-5.99-15.61-10.57-23.09-9.13
			c-7.49,1.44-14.59,8.89-22.08,13.76s-15.35,7.16-23.22,5.42s-15.73-7.49-23.47-6.7c-7.74,0.79-15.35,8.12-23.09,13.21
			c-7.74,5.09-15.61,7.92-23.35,8.58c-7.74,0.65-15.35-0.89-23.09-5.56s-15.61-12.48-23.47-14.37c-7.87-1.89-15.73,2.13-23.47,19.44
			s-15.35,47.9-23.09,44.73c-7.74-3.17-15.61-40.12-23.35-47.37c-7.74-7.25-15.35,15.18-23.09,57.43s-15.61,104.31-23.09,98.57
			c-7.49-5.74-14.59-79.27-22.08-114.79s-15.35-33.04-23.22-38.95s-15.73-20.23-23.47-27.6s-15.35-7.81-23.09-7.47
			c-7.74,0.34-15.61,1.44-23.35,4.91s-15.35,9.3-23.09,0.47c-7.74-8.83-15.61-32.33-23.47-36.67c-7.87-4.34-15.73,10.49-23.47,18.53
			c-7.74,8.04-15.35,9.3-23.09,11.99c-7.74,2.68-15.61,6.78-23.35,6.8s-15.35-4.04-23.09-1.38s-15.61,12.05-23.09,20.64
			c-7.48,8.59-14.59,16.4-22.08,26.48s-15.35,22.41-19.29,28.58L12.66,392.04z"/>
		<path id="race_x5F_confed-stream" class="st16" d="M12.66,392.04l3.93-6.17c3.93-6.17,11.8-18.51,19.29-28.58
			c7.49-10.07,14.59-17.88,22.08-26.48s15.35-17.98,23.09-20.64c7.74-2.66,15.35,1.4,23.09,1.38s15.61-4.12,23.35-6.8
			c7.74-2.68,15.35-3.94,23.09-11.99c7.74-8.04,15.61-22.87,23.47-18.53c7.87,4.34,15.73,27.84,23.47,36.67s15.35,3,23.09-0.47
			c7.74-3.47,15.61-4.57,23.35-4.91s15.35,0.1,23.09,7.47s15.61,21.69,23.47,27.6c7.87,5.91,15.73,3.43,23.22,38.95
			s14.59,109.06,22.08,114.79c7.49,5.74,15.35-56.32,23.09-98.57s15.35-64.68,23.09-57.43s15.61,44.2,23.35,47.37
			c7.74,3.17,15.35-27.42,23.09-44.73s15.61-21.33,23.47-19.44c7.87,1.89,15.73,9.7,23.47,14.37c7.74,4.67,15.35,6.21,23.09,5.56
			s15.61-3.49,23.35-8.58s15.35-12.42,23.09-13.21c7.74-0.79,15.61,4.97,23.47,6.7s15.73-0.55,23.22-5.42
			c7.49-4.87,14.59-12.32,22.08-13.76s15.35,3.13,23.09,9.13c7.74,5.99,15.35,13.41,23.09,13.07c7.74-0.34,15.61-8.42,23.35-7.33
			c7.74,1.08,15.35,11.34,23.09,13.03c7.74,1.7,15.61-5.17,23.47-16.97c7.86-11.8,15.73-28.57,23.47-30.95
			c7.74-2.38,15.35,9.6,19.16,15.59l3.81,5.99v9.94l-3.81-6.43c-3.81-6.43-11.42-19.28-19.16-16.66s-15.61,20.72-23.47,32.72
			c-7.87,12.01-15.73,17.92-23.47,15.4s-15.35-13.48-23.09-14.02c-7.74-0.53-15.61,9.36-23.35,10.13s-15.35-7.59-23.09-13.98
			c-7.74-6.39-15.61-10.8-23.09-9.29c-7.49,1.52-14.59,8.97-22.08,17.11s-15.35,16.97-23.22,14.33s-15.73-16.76-23.47-19.36
			s-15.35,6.31-23.09,12.66c-7.74,6.35-15.61,10.13-23.35,11.41c-7.74,1.28-15.35,0.06-23.09-3.47s-15.61-9.36-23.47-11.93
			c-7.87-2.56-15.73-1.85-23.47,14.08s-15.35,47.08-23.09,43.94c-7.74-3.13-15.61-40.55-23.35-46.94
			c-7.74-6.39-15.35,18.26-23.09,60.97s-15.61,103.52-23.09,97.03c-7.49-6.49-14.59-80.25-22.08-113.41s-15.35-25.71-23.22-32.33
			s-15.73-27.32-23.47-35.92c-7.74-8.6-15.35-5.09-23.09-0.41s-15.61,10.51-23.35,17.64c-7.74,7.14-15.35,15.57-23.09,21.17
			c-7.74,5.6-15.61,8.36-23.47-1.38c-7.87-9.74-15.73-31.98-23.47-42.07s-15.35-8.04-23.09-4.38c-7.74,3.67-15.61,8.95-23.35,8.54
			s-15.35-6.53-23.09-4.73s-15.61,11.49-23.09,19.73c-7.48,8.24-14.59,15.02-22.08,23.87s-15.35,19.77-19.29,25.23l-3.93,5.46
			C12.66,393.4,12.66,392.04,12.66,392.04z"/>
		<path id="guns-stream" class="st17" d="M12.66,393.46l3.93-5.46c3.93-5.46,11.8-16.38,19.29-25.23s14.59-15.63,22.08-23.87
			s15.35-17.94,23.09-19.73s15.35,4.32,23.09,4.73s15.61-4.87,23.35-8.54s15.35-5.72,23.09,4.38c7.74,10.09,15.61,32.33,23.47,42.07
			c7.87,9.74,15.73,6.98,23.47,1.38s15.35-14.04,23.09-21.17c7.74-7.14,15.61-12.97,23.35-17.64c7.74-4.67,15.35-8.18,23.09,0.41
			c7.74,8.6,15.61,29.29,23.47,35.92s15.73-0.83,23.22,32.33s14.59,106.93,22.08,113.41c7.49,6.49,15.35-54.31,23.09-97.03
			s15.35-67.36,23.09-60.97c7.74,6.39,15.61,43.8,23.35,46.94c7.74,3.13,15.35-28.01,23.09-43.94s15.61-16.64,23.47-14.08
			c7.87,2.56,15.73,8.4,23.47,11.93s15.35,4.75,23.09,3.47s15.61-5.07,23.35-11.41s15.35-15.26,23.09-12.66
			c7.74,2.6,15.61,16.72,23.47,19.36c7.87,2.64,15.73-6.19,23.22-14.33c7.49-8.14,14.59-15.59,22.08-17.11s15.35,2.9,23.09,9.29
			c7.74,6.39,15.35,14.75,23.09,13.98c7.74-0.77,15.61-10.67,23.35-10.13c7.74,0.53,15.35,11.49,23.09,14.02
			c7.74,2.52,15.61-3.39,23.47-15.4c7.87-12.01,15.73-30.1,23.47-32.72s15.35,10.23,19.16,16.66l3.81,6.43v13.72l-3.81-6.66
			c-3.81-6.66-11.42-19.99-19.16-17.88c-7.74,2.11-15.61,19.65-23.47,31.54s-15.73,18.12-23.47,16.18
			c-7.74-1.93-15.35-12.03-23.09-11.81c-7.74,0.22-15.61,10.74-23.35,10.72s-15.35-10.59-23.09-18
			c-7.74-7.41-15.61-11.67-23.09-10.82c-7.49,0.85-14.59,6.8-22.08,14.39c-7.49,7.59-15.35,16.82-23.22,14.45
			s-15.73-16.32-23.47-19.32s-15.35,4.97-23.09,13.68c-7.74,8.71-15.61,18.18-23.35,20.88c-7.74,2.7-15.35-1.36-23.09-6.47
			c-7.74-5.11-15.61-11.26-23.47-14.69c-7.87-3.43-15.73-4.14-23.47,11.28s-15.35,46.96-23.09,43.74
			c-7.74-3.21-15.61-41.18-23.35-48.04c-7.74-6.86-15.35,17.39-23.09,60.03s-15.61,103.67-23.09,98.61
			c-7.49-5.07-14.59-76.23-22.08-109.98s-15.35-30.08-23.22-38.32c-7.87-8.24-15.73-28.39-23.47-36.31s-15.35-3.63-23.09,1.16
			c-7.74,4.79-15.61,10.07-23.35,17.29s-15.35,16.36-23.09,21.96c-7.74,5.6-15.61,7.65-23.47-2.88
			c-7.87-10.53-15.73-33.63-23.47-43.76s-15.35-7.29-23.09-2.76s-15.61,10.76-23.35,10.43c-7.74-0.34-15.35-7.23-23.09-5.91
			s-15.61,10.86-23.09,18.24c-7.49,7.37-14.59,12.58-22.08,20.56s-15.35,18.75-19.29,24.13L12.66,393.46z"/>
		<path id="environment-stream" class="st18" d="M12.66,393.46l3.93-5.38c3.93-5.38,11.8-16.15,19.29-24.13s14.59-13.19,22.08-20.56
			s15.35-16.91,23.09-18.24c7.74-1.32,15.35,5.58,23.09,5.91c7.74,0.34,15.61-5.89,23.35-10.43c7.74-4.53,15.35-7.37,23.09,2.76
			s15.61,33.24,23.47,43.76c7.87,10.53,15.73,8.48,23.47,2.88s15.35-14.75,23.09-21.96c7.74-7.21,15.61-12.5,23.35-17.29
			s15.35-9.09,23.09-1.16c7.74,7.92,15.61,28.07,23.47,36.31c7.87,8.24,15.73,4.57,23.22,38.32s14.59,104.92,22.08,109.98
			c7.49,5.07,15.35-55.97,23.09-98.61s15.35-66.89,23.09-60.03c7.74,6.86,15.61,44.83,23.35,48.04
			c7.74,3.21,15.35-28.33,23.09-43.74c7.74-15.42,15.61-14.71,23.47-11.28c7.87,3.43,15.73,9.58,23.47,14.69
			c7.74,5.11,15.35,9.17,23.09,6.47s15.61-12.16,23.35-20.88s15.35-16.68,23.09-13.68c7.74,3,15.61,16.95,23.47,19.32
			c7.87,2.37,15.73-6.86,23.22-14.45s14.59-13.54,22.08-14.39s15.35,3.41,23.09,10.82c7.74,7.41,15.35,17.98,23.09,18
			c7.74,0.02,15.61-10.51,23.35-10.72c7.74-0.22,15.35,9.88,23.09,11.81c7.74,1.93,15.61-4.3,23.47-16.18s15.73-29.43,23.47-31.54
			s15.35,11.22,19.16,17.88l3.81,6.66v7.57l-3.81,4.65c-3.81,4.65-11.42,13.96-19.16,15.95c-7.74,1.99-15.61-3.33-23.47-2.92
			c-7.87,0.41-15.73,6.56-23.47,4.79s-15.35-11.47-23.09-10.67c-7.74,0.81-15.61,12.12-23.35,12.66
			c-7.74,0.53-15.35-9.72-23.09-14.81c-7.74-5.09-15.61-5.01-23.09-5.54c-7.49-0.53-14.59-1.68-22.08,2.52
			c-7.49,4.2-15.35,13.74-23.22,11.61s-15.73-15.93-23.47-19c-7.74-3.08-15.35,4.57-23.09,13.29c-7.74,8.71-15.61,18.49-23.35,22.38
			c-7.74,3.88-15.35,1.87-23.09-3.04s-15.61-12.72-23.47-16.78c-7.87-4.06-15.73-4.38-23.47,11.08s-15.35,46.68-23.09,43.35
			s-15.61-41.22-23.35-47.96c-7.74-6.74-15.35,17.66-23.09,60.34s-15.61,103.64-23.09,98.92c-7.49-4.71-14.59-75.09-22.08-109.39
			s-15.35-32.53-23.22-41.52s-15.73-28.74-23.47-36.31s-15.35-2.96-23.09,2.46s-15.61,11.65-23.35,19.02s-15.35,15.89-23.09,21.33
			c-7.74,5.44-15.61,7.81-23.47-2.84c-7.87-10.65-15.73-34.3-23.47-44.55s-15.35-7.1-23.09-2.17s-15.61,11.63-23.35,13.94
			s-15.35,0.22-23.09,2.25s-15.61,8.18-23.09,13.58s-14.59,10.05-22.08,16.38s-15.35,14.33-19.29,18.33l-3.93,4V393.46z"/>
		<path id="healthcare-stream" class="st19" d="M12.66,395.35l3.93-4c3.93-4,11.8-12.01,19.29-18.33
			c7.49-6.33,14.59-10.98,22.08-16.38s15.35-11.55,23.09-13.58s15.35,0.06,23.09-2.25s15.61-9.01,23.35-13.94s15.35-8.08,23.09,2.17
			s15.61,33.91,23.47,44.55c7.87,10.65,15.73,8.28,23.47,2.84s15.35-13.96,23.09-21.33c7.74-7.37,15.61-13.6,23.35-19.02
			s15.35-10.03,23.09-2.46s15.61,27.32,23.47,36.31c7.87,8.99,15.73,7.22,23.22,41.52s14.59,104.68,22.08,109.39
			c7.49,4.71,15.35-56.24,23.09-98.92s15.35-67.09,23.09-60.34c7.74,6.74,15.61,44.63,23.35,47.96c7.74,3.33,15.35-27.9,23.09-43.35
			c7.74-15.46,15.61-15.14,23.47-11.08c7.87,4.06,15.73,11.87,23.47,16.78s15.35,6.92,23.09,3.04s15.61-13.66,23.35-22.38
			c7.74-8.71,15.35-16.36,23.09-13.29c7.74,3.08,15.61,16.88,23.47,19s15.73-7.41,23.22-11.61c7.49-4.2,14.59-3.06,22.08-2.52
			c7.49,0.53,15.35,0.45,23.09,5.54c7.74,5.09,15.35,15.34,23.09,14.81c7.74-0.53,15.61-11.85,23.35-12.66s15.35,8.89,23.09,10.67
			c7.74,1.77,15.61-4.38,23.47-4.79c7.87-0.41,15.73,4.91,23.47,2.92s15.35-11.3,19.16-15.95l3.81-4.65v4.49l-3.81,3.98
			c-3.81,3.98-11.42,11.95-19.16,13.62c-7.74,1.68-15.61-2.94-23.47-2.29c-7.87,0.65-15.73,6.56-23.47,4.71
			s-15.35-11.47-23.09-10.27c-7.74,1.2-15.61,13.23-23.35,13.64s-15.35-10.78-23.09-16.07c-7.74-5.28-15.61-4.65-23.09-4.91
			c-7.49-0.26-14.59-1.4-22.08,2.52s-15.35,12.91-23.22,10.39s-15.73-16.56-23.47-19.63c-7.74-3.08-15.35,4.81-23.09,13.64
			s-15.61,18.61-23.35,22.93c-7.74,4.32-15.35,3.17-23.09-1.54c-7.74-4.71-15.61-12.99-23.47-17.6c-7.87-4.61-15.73-5.56-23.47,9.86
			s-15.35,47.19-23.09,44.69s-15.61-39.29-23.35-46.15c-7.74-6.86-15.35,16.2-23.09,58.29s-15.61,103.2-23.09,98.69
			c-7.49-4.51-14.59-74.66-22.08-109s-15.35-32.88-23.22-42.07s-15.73-29.02-23.47-36.67s-15.35-3.11-23.09,2.27
			c-7.74,5.38-15.61,11.61-23.35,19.54c-7.74,7.92-15.35,17.55-23.09,23.42c-7.74,5.87-15.61,8-23.47,1.03
			c-7.87-6.98-15.73-23.07-23.47-31.34c-7.74-8.28-15.35-8.75-23.09-5.2s-15.61,11.12-23.35,11.34s-15.35-6.92-23.09-4.89
			s-15.61,13.23-23.09,19.97c-7.49,6.74-14.59,9.03-22.08,12.44s-15.35,7.94-19.29,10.21l-3.93,2.27
			C12.66,396.33,12.66,395.35,12.66,395.35z"/>
		<path id="other-stream" class="st20" d="M12.66,396.29l3.93-2.27c3.93-2.27,11.8-6.8,19.29-10.21s14.59-5.7,22.08-12.44
			s15.35-17.94,23.09-19.97s15.35,5.11,23.09,4.89s15.61-7.79,23.35-11.34s15.35-3.08,23.09,5.2s15.61,24.37,23.47,31.34
			c7.87,6.98,15.73,4.85,23.47-1.03c7.74-5.87,15.35-15.5,23.09-23.42c7.74-7.92,15.61-14.15,23.35-19.54
			c7.74-5.38,15.35-9.92,23.09-2.27s15.61,27.48,23.47,36.67c7.87,9.19,15.73,7.73,23.22,42.07s14.59,104.48,22.08,109
			c7.49,4.51,15.35-56.6,23.09-98.69s15.35-65.15,23.09-58.29s15.61,43.65,23.35,46.15c7.74,2.5,15.35-29.27,23.09-44.69
			s15.61-14.47,23.47-9.86c7.87,4.61,15.73,12.89,23.47,17.6s15.35,5.85,23.09,1.54c7.74-4.32,15.61-14.1,23.35-22.93
			s15.35-16.72,23.09-13.64c7.74,3.08,15.61,17.11,23.47,19.63c7.87,2.52,15.73-6.47,23.22-10.39s14.59-2.78,22.08-2.52
			s15.35-0.37,23.09,4.91c7.74,5.28,15.35,16.48,23.09,16.07c7.74-0.41,15.61-12.44,23.35-13.64s15.35,8.42,23.09,10.27
			c7.74,1.85,15.61-4.06,23.47-4.71c7.87-0.65,15.73,3.96,23.47,2.29c7.74-1.68,15.35-9.64,19.16-13.62l3.81-3.98v36.67l-3.81,3.11
			c-3.81,3.11-11.42,9.34-19.16,9.4s-15.61-6.05-23.47-5.91c-7.87,0.14-15.73,6.53-23.47,6.25s-15.35-7.22-23.09-5.66
			c-7.74,1.56-15.61,11.61-23.35,11.71s-15.35-9.76-23.09-14.81c-7.74-5.05-15.61-5.28-23.09-6.72c-7.49-1.44-14.59-4.08-22.08-1.5
			s-15.35,10.39-23.22,5.74c-7.87-4.65-15.73-21.76-23.47-25.12c-7.74-3.35-15.35,7.06-23.09,19.04
			c-7.74,11.99-15.61,25.55-23.35,28.92c-7.74,3.37-15.35-3.45-23.09-10.65c-7.74-7.2-15.61-14.77-23.47-18.71
			c-7.87-3.94-15.73-4.26-23.47,12.97s-15.35,52-23.09,52.06s-15.61-34.6-23.35-40.28c-7.74-5.68-15.35,17.62-23.09,57.86
			s-15.61,97.41-23.09,90.21c-7.49-7.2-14.59-78.76-22.08-115.03s-15.35-37.26-23.22-44.47c-7.87-7.22-15.73-20.66-23.47-25.59
			s-15.35-1.34-23.09,3.21c-7.74,4.55-15.61,10.07-23.35,16.86c-7.74,6.78-15.35,14.82-23.09,20.86
			c-7.74,6.03-15.61,10.05-23.47,3.79c-7.87-6.27-15.73-22.83-23.47-29.73s-15.35-4.14-23.09-1.85s-15.61,4.1-23.35,8.54
			s-15.35,11.49-23.09,15.38c-7.74,3.88-15.61,4.59-23.09,5.3s-14.59,1.42-22.08-0.1c-7.49-1.52-15.35-5.26-19.29-7.14l-3.93-1.87
			C12.66,397.21,12.66,396.29,12.66,396.29z"/>
	</g>
	<g id="annotations">
		<text transform="matrix(1 0 0 1 20.539 334.7733)" class="st4 st5 st21">Muslim </text>
		<text transform="matrix(1 0 0 1 20.539 346.7733)" class="st4 st5 st21">bans</text>
		<rect x="379.08" y="281.96" class="st3" width="56.31" height="45.69"/>
		<text transform="matrix(1 0 0 1 384.2846 289.4635)" class="st4 st5 st21">Immigrant </text>
		<text transform="matrix(1 0 0 1 393.6046 301.4635)" class="st4 st5 st21">family</text>
		<text transform="matrix(1 0 0 1 383.6146 313.4634)" class="st4 st5 st21">separation</text>
		<rect x="571.89" y="397.96" class="st22" width="69.06" height="26.75"/>
		<rect x="575.57" y="401.28" class="st3" width="66.36" height="26.14"/>
		<text transform="matrix(1 0 0 1 575.5691 408.7758)" class="st18 st23 st21">Environment:</text>
		<text transform="matrix(1 0 0 1 635.269 408.7758)" class="st5 st21"> </text>
		<text transform="matrix(1 0 0 1 575.5691 420.7758)" class="st5 st21">Climate Strike</text>
		<rect x="150.56" y="299.77" class="st3" width="98.55" height="45.66"/>
		<text transform="matrix(1 0 0 1 150.5549 307.2688)" class="st4 st5 st21">   Unite </text>
		<text transform="matrix(1 0 0 1 155.5549 319.2687)" class="st4 st5 st21">the Right </text>
		<text transform="matrix(1 0 0 1 150.5549 328.8683)" class="st4 st5 st24">    (Charlottesville)</text>
		<g>
			<rect x="627.45" y="244.86" class="st3" width="62.33" height="38.95"/>
			<text transform="matrix(1 0 0 1 648.1714 251.6051)" class="st4 st5 st25">State </text>
			<text transform="matrix(1 0 0 1 641.9414 262.4051)" class="st4 st5 st25">abortion     </text>
			<text transform="matrix(1 0 0 1 636.0114 273.2051)" class="st4 st5 st25">restrictions</text>
		</g>
		<rect x="13.54" y="240.8" class="st3" width="55.08" height="31.61"/>
		<text transform="matrix(1 0 0 1 13.5386 248.2984)" class="st4 st5 st21">  Women’s </text>
		<text transform="matrix(1 0 0 1 13.5386 260.2984)" class="st4 st5 st21">March</text>
		<rect x="58.09" y="372.18" class="st3" width="55.08" height="27.62"/>
		<text transform="matrix(1 0 0 1 58.0904 379.6759)" class="st4 st5 st21">March for </text>
		<text transform="matrix(1 0 0 1 58.0904 391.6759)" class="st4 st5 st21">Science</text>
		<rect x="42" y="276.41" class="st3" width="55.08" height="12.75"/>
		<text transform="matrix(1 0 0 1 41.9996 283.9088)" class="st26 st5 st21">Tax March</text>
		<polygon class="st3" points="533.42,328.06 490.19,328.26 490.01,304.01 533.24,303.81 		"/>
		<text transform="matrix(1 -4.783629e-03 7.326383e-03 1 490.066 311.5169)" class="st26 st5 st21">#Protect</text>
		<text transform="matrix(1 -4.783629e-03 7.326383e-03 1 490.1539 323.5169)" class="st26 st5 st21">Mueller</text>
		<g>
			<rect x="299.89" y="300.62" class="st3" width="77.62" height="53.47"/>
			<text transform="matrix(1 0 0 1 306.8786 308.1142)" class="st4 st5 st21">March For Our </text>
			<text transform="matrix(1 0 0 1 322.7986 320.1141)" class="st4 st5 st21">Lives &amp;</text>
			<text transform="matrix(1 0 0 1 303.5286 332.1141)" class="st4 st5 st21">National School </text>
			<text transform="matrix(1 0 0 1 320.5486 344.1141)" class="st4 st5 st21">Walkout</text>
		</g>
		<rect x="448.82" y="147" class="st27" width="79.25" height="50.92"/>
		<rect x="452.95" y="151.41" class="st3" width="88.94" height="48.61"/>
		<text transform="matrix(1 0 0 1 452.9532 158.9075)" class="st9 st23 st21">Supreme Court</text>
		<text transform="matrix(1 0 0 1 520.7532 158.9075)" class="st23 st21">, </text>
		<text transform="matrix(1 0 0 1 452.9532 170.9075)" class="st10 st23 st21">women’s rights</text>
		<text transform="matrix(1 0 0 1 521.6732 170.9075)" class="st23 st21">:</text>
		<text transform="matrix(1 0 0 1 452.9532 182.9075)" class="st5 st21">Kavanaugh </text>
		<text transform="matrix(1 0 0 1 452.9532 194.9075)" class="st5 st21">nomination</text>
		<rect x="165.46" y="163.47" class="st28" width="48.5" height="55.18"/>
		<rect x="222.13" y="175.6" class="st29" width="82.36" height="41.46"/>
		<rect x="170.82" y="168" class="st3" width="41" height="46.1"/>
		<text transform="matrix(1 0 0 1 170.8182 175.5014)" class="st11 st23 st21">Police:</text>
		<text transform="matrix(1 0 0 1 170.8182 187.5014)" class="st5 st21">St. Louis </text>
		<text transform="matrix(1 0 0 1 170.8182 199.5014)" class="st5 st21">police </text>
		<text transform="matrix(1 0 0 1 170.8182 211.5015)" class="st5 st21">protests</text>
		<rect x="225.94" y="179.8" class="st3" width="79.88" height="37.26"/>
		<text transform="matrix(1 0 0 1 225.9406 187.2967)" class="st10 st23 st21">Women’s Rights:</text>
		<text transform="matrix(1 0 0 1 225.9406 199.2967)" class="st5 st21">Women’s March, </text>
		<text transform="matrix(1 0 0 1 225.9406 211.2968)" class="st5 st21">March for Life</text>
		<rect x="544.7" y="184.79" class="st29" width="82.36" height="41.46"/>
		<rect x="548.52" y="188.98" class="st3" width="79.88" height="37.26"/>
		<text transform="matrix(1 0 0 1 548.5184 196.4808)" class="st10 st23 st21">Women’s Rights:</text>
		<text transform="matrix(1 0 0 1 548.5184 208.4808)" class="st5 st21">Women’s March, </text>
		<text transform="matrix(1 0 0 1 548.5184 220.4808)" class="st5 st21">March for Life</text>
		<rect x="85.51" y="419.41" class="st30" width="85.18" height="42.08"/>
		<rect x="89.52" y="423.45" class="st3" width="78.3" height="38.05"/>
		<text transform="matrix(1 0 0 1 89.5144 430.949)" class="st19 st23 st21">Healthcare:</text>
		<text transform="matrix(1 0 0 1 89.5144 442.949)" class="st5 st21">Affordable Care </text>
		<text transform="matrix(1 0 0 1 89.5144 454.949)" class="st5 st21">Act repeal efforts</text>
		<path class="st31" d="M487.53,289.56c-3.61,0-6.54-15.32-6.54-34.23c0-5.96,0.29-11.57,0.8-16.45c1.11-10.6,3.26-17.78,5.74-17.78
			c2,0,3.78,4.68,4.98,12.07"/>
		<line class="st31" x1="487.53" y1="221.11" x2="487.53" y2="197.94"/>
		<path class="st31" d="M288.24,300.28c-3.61,0-6.54-14.5-6.54-32.38c0-5.64,0.29-10.94,0.8-15.56c1.11-10.02,3.26-16.82,5.74-16.82
			c2,0,3.78,4.43,4.98,11.42"/>
		<line class="st31" x1="288.24" y1="236.03" x2="288.24" y2="217.51"/>
		<path class="st31" d="M132.98,322.6c2.52,0,4.56,5.95,4.56,13.29c0,2.31-0.2,4.49-0.56,6.39c-0.78,4.11-2.28,6.9-4,6.9
			c-1.39,0-2.64-1.82-3.48-4.68"/>
		<line class="st31" x1="132.98" y1="349.17" x2="132.98" y2="419.41"/>
		<path class="st31" d="M567.13,289.91c-3.61,0-6.54-7.36-6.54-19.7c0-3.89,0.29-7.55,0.8-10.74c1.11-6.92,3.26-11.61,5.74-11.61
			c2,0,3.78,3.06,4.98,7.88"/>
		<line class="st31" x1="567.13" y1="247.84" x2="567.13" y2="226.77"/>
		<path class="st31" d="M618.11,324.67c2.3,0,4.17,3.89,4.17,10.42c0,2.06-0.19,4-0.51,5.68c-0.71,3.66-2.08,7.14-3.66,7.14
			c-1.27,0-2.41-1.62-3.18-4.17"/>
		<line class="st31" x1="617.61" y1="347.01" x2="617.61" y2="397.96"/>
		<text transform="matrix(0.6728 0.7399 -0.7399 0.6728 170.6952 261.3297)" class="st4 st5 st32">#DefendDACA</text>
		<text transform="matrix(1 0 0 1 229.4085 353.4744)" class="st4 st5 st21">Tax reform</text>
		<rect x="673.31" y="284.44" class="st3" width="59.53" height="29.6"/>
		<text transform="matrix(1 0 0 1 684.7031 291.9342)" class="st4 st5 st21">   Family </text>
		<text transform="matrix(1 0 0 1 679.4531 303.9342)" class="st4 st5 st21">separation</text>
		<rect x="723.84" y="325.74" class="st3" width="59.53" height="29.6"/>
		<text transform="matrix(1 0 0 1 736.5397 333.2393)" class="st4 st5 st21">Climate </text>
		<text transform="matrix(1 0 0 1 740.9197 345.2393)" class="st4 st5 st21">Strike</text>
		<path class="st31" d="M205.93,268.82c-2.1,0-3.8-4.97-3.8-11.1c0-1.93,0.17-3.75,0.47-5.33c0.65-3.43,1.9-5.76,3.33-5.76
			c1.16,0,2.2,1.52,2.9,3.91"/>
		<line class="st31" x1="205.93" y1="247.63" x2="205.93" y2="219.44"/>
	</g>
</g>
<g>
	<g>
		<g>
			<rect id="education-legend_2_" x="220.83" y="49.71" class="st12" width="63.71" height="25.9"/>
			<g>
				<text transform="matrix(1 0 0 1 230.5397 65.5643)" class="st4 st5 st33">Education</text>
			</g>
		</g>
		<g>
			<rect id="environment-legend_2_" x="504.59" y="49.71" class="st18" width="63.71" height="25.9"/>
			<text transform="matrix(1 0 0 1 508.5656 65.5643)" class="st4 st5 st33">Environment</text>
		</g>
		<g>
			<rect id="immigration-legend_2_" x="308.1" y="50.78" class="st14" width="63.71" height="23.76"/>
			<text transform="matrix(1 0 0 1 313.0226 64.912)" class="st4 st5 st33">Immigration</text>
		</g>
		<g>
			<rect id="other-legend_2_" x="591.86" y="49.71" class="st34" width="63.71" height="25.9"/>
			<text transform="matrix(1 0 0 1 611.5885 64.9178)" class="st4 st5 st33">Other</text>
		</g>
		<g>
			<rect id="race-confed-legend_2_" x="395.37" y="49.71" class="st16" width="85.65" height="25.9"/>
			<rect x="400.15" y="52.41" class="st3" width="76.56" height="22.65"/>
			<text transform="matrix(1 0 0 1 403.3192 59.8798)" class="st4 st5 st33">Racial justice or </text>
			<text transform="matrix(1 0 0 1 400.7391 71.8417)" class="st4 st5 st33">white supremacy</text>
		</g>
		<g>
			<rect id="women-legend_2_" x="133.55" y="49.71" class="st10" width="63.71" height="25.9"/>
			<rect x="142.76" y="52.38" class="st3" width="45.29" height="19.95"/>
			<text transform="matrix(1 0 0 1 144.8136 59.8465)" class="st4 st5 st33">Women’s </text>
			<text transform="matrix(1 0 0 1 152.7657 71.8085)" class="st4 st5 st33">rights</text>
		</g>
	</g>
	<g>
		<g>
			<rect x="153.06" y="13.67" class="st3" width="45.29" height="19.95"/>
			<g>
				<rect id="women-legend_1_" x="143.85" y="11" class="st9" width="63.71" height="25.9"/>
				<text transform="matrix(1 0 0 1 155.8696 21.1348)" class="st8"><tspan x="0" y="0" class="st4 st5 st33">Supreme</tspan><tspan x="7.69" y="11.96" class="st4 st5 st33">Court</tspan></text>
			</g>
		</g>
		<g>
			<rect id="police-legend_2_" x="231.39" y="11" class="st11" width="63.71" height="25.9"/>
			<g>
				<text transform="matrix(1 0 0 1 249.5946 26.206)" class="st4 st5 st33">Police</text>
			</g>
		</g>
		<g>
			<rect id="executive-legend_2_" x="318.94" y="11" class="st13" width="63.71" height="25.9"/>
			<g>
				<text transform="matrix(1 0 0 1 329.5955 20.8721)" class="st26 st5 st33">Executive</text>
				<text transform="matrix(1 0 0 1 335.4881 32.835)" class="st26 st5 st33">branch</text>
			</g>
		</g>
		<g>
			<rect id="guns-legend_2_" x="406.48" y="11" class="st15" width="63.71" height="25.9"/>
			<g>
				<text transform="matrix(1 0 0 1 426.8625 26.206)" class="st4 st5 st33">Guns</text>
			</g>
		</g>
		<g>
			<g>
				<rect id="healthcare-legend_2_" x="581.56" y="11" class="st19" width="63.71" height="25.9"/>
			</g>
			<text transform="matrix(1 0 0 1 589.2764 26.206)" class="st4 st5 st33">Healthcare</text>
		</g>
		<g>
			<rect id="collective-bargaining-legend_2_" x="494.02" y="11" class="st17" width="63.71" height="25.9"/>
			<rect x="495.46" y="12.76" class="st3" width="60.83" height="22.37"/>
			<text transform="matrix(1 0 0 1 504.2252 20.2285)" class="st4 st5 st33">Collective </text>
			<text transform="matrix(1 0 0 1 502.4528 32.1904)" class="st4 st5 st33">bargaining</text>
		</g>
	</g>
</g>
</svg>
