<?xml version="1.0" encoding="utf-8"?>
<!-- Generator: Adobe Illustrator 23.1.1, SVG Export Plug-In . SVG Version: 6.00 Build 0)  -->
<svg version="1.1" id="Layer_1" xmlns="http://www.w3.org/2000/svg" xmlns:xlink="http://www.w3.org/1999/xlink" x="0px" y="0px"
	 viewBox="0 0 762.07 614.94" style="enable-background:new 0 0 762.07 614.94;" xml:space="preserve">
<style type="text/css">
	.st0{fill:none;stroke:#FFFFFF;stroke-width:0.7646;}
	.st1{fill:none;stroke:#CBCBCA;stroke-width:0.7646;}
	.st2{fill:none;stroke:#FFFFFF;stroke-width:2.2249;}
	.st3{fill:none;}
	.st4{fill:#FFFFFF;}
	.st5{font-family:'Roboto';}
	.st6{font-size:8.278px;}
	.st7{font-size:12.417px;}
	.st8{fill:#9E6A76;}
	.st9{fill:#004552;}
	.st10{fill:#57214B;}
	.st11{fill:#030304;}
	.st12{fill:#F4E3D2;}
	.st13{fill:#608797;}
	.st14{fill:#104181;}
	.st15{fill:#7C67A6;}
	.st16{fill:#0D285B;}
	.st17{fill:#13655B;}
	.st18{fill:#492F78;}
	.st19{fill:#6F7488;}
	.st20{font-size:10px;}
	.st21{fill:#ABABB7;enable-background:new    ;}
	.st22{font-family:'Roboto';font-weight: bold;}
	.st23{font-size:8px;}
	.st24{font-size:9px;}
	.st25{fill:#231F20;}
	.st26{fill:none;stroke:#000000;stroke-miterlimit:10;}
	.st27{font-size:10.0036px;}
	.st28{font-size:9.9684px;}
	.st29{fill:#707589;}
</style>
<g id="stream-grid">
	<g transform="translate(0,480)">
		<path class="st0" d="M-0.16,91.6v-3.8h762.25"/>
		<path class="st0" d="M762.09-388.29"/>
		<g transform="translate(0.6873230714791224,0)">
			<line class="st1" x1="-0.69" y1="87.46" x2="-0.69" y2="91.6"/>
			<line class="st1" x1="67.84" y1="87.46" x2="67.84" y2="91.6"/>
			<line class="st1" x1="137.16" y1="87.46" x2="137.16" y2="91.6"/>
			<line class="st1" x1="207.24" y1="87.46" x2="207.24" y2="91.6"/>
			<line class="st1" x1="277.35" y1="87.46" x2="277.35" y2="91.6"/>
			<line class="st1" x1="345.88" y1="87.46" x2="345.88" y2="91.6"/>
			<line class="st1" x1="415.2" y1="87.46" x2="415.2" y2="91.6"/>
			<line class="st1" x1="485.28" y1="87.46" x2="485.28" y2="91.6"/>
			<line class="st1" x1="508.65" y1="87.46" x2="508.65" y2="91.6"/>
			<line class="st1" x1="532.02" y1="87.46" x2="532.02" y2="91.6"/>
			<line class="st1" x1="438.56" y1="87.46" x2="438.56" y2="91.6"/>
			<line class="st1" x1="461.92" y1="87.46" x2="461.92" y2="91.6"/>
			<line class="st1" x1="369.24" y1="87.46" x2="369.24" y2="91.6"/>
			<line class="st1" x1="392.6" y1="87.46" x2="392.6" y2="91.6"/>
			<line class="st1" x1="300.19" y1="87.46" x2="300.19" y2="91.6"/>
			<line class="st1" x1="323.04" y1="87.46" x2="323.04" y2="91.6"/>
			<line class="st1" x1="230.61" y1="87.46" x2="230.61" y2="91.6"/>
			<line class="st1" x1="253.98" y1="87.46" x2="253.98" y2="91.6"/>
			<line class="st1" x1="160.52" y1="87.46" x2="160.52" y2="91.6"/>
			<line class="st1" x1="183.88" y1="87.46" x2="183.88" y2="91.6"/>
			<line class="st1" x1="90.94" y1="87.46" x2="90.94" y2="91.6"/>
			<line class="st1" x1="114.05" y1="87.46" x2="114.05" y2="91.6"/>
			<line class="st1" x1="22.15" y1="87.46" x2="22.15" y2="91.6"/>
			<line class="st1" x1="44.99" y1="87.46" x2="44.99" y2="91.6"/>
			<line class="st1" x1="578.23" y1="87.63" x2="578.23" y2="91.77"/>
			<line class="st1" x1="601.08" y1="87.63" x2="601.08" y2="91.77"/>
			<line class="st1" x1="647.03" y1="87.63" x2="647.03" y2="91.77"/>
			<line class="st1" x1="670.13" y1="87.63" x2="670.13" y2="91.77"/>
			<line class="st1" x1="555.39" y1="87.46" x2="555.39" y2="91.6"/>
			<line class="st1" x1="623.92" y1="87.46" x2="623.92" y2="91.6"/>
			<line class="st1" x1="693.24" y1="87.46" x2="693.24" y2="91.6"/>
			<line class="st2" x1="-0.69" y1="-171.89" x2="-0.69" y2="91.6"/>
		</g>
		<line class="st0" x1="68.52" y1="-168.57" x2="68.52" y2="91.6"/>
		<line class="st0" x1="137.84" y1="-168.57" x2="137.84" y2="91.6"/>
		<line class="st0" x1="207.93" y1="-168.57" x2="207.93" y2="91.6"/>
		<line class="st2" x1="278.04" y1="-171.89" x2="278.04" y2="91.6"/>
		<line class="st0" x1="346.56" y1="-168.57" x2="346.56" y2="91.6"/>
		<line class="st0" x1="415.88" y1="-168.57" x2="415.88" y2="91.6"/>
		<line class="st0" x1="485.97" y1="-168.57" x2="485.97" y2="91.6"/>
		<line class="st0" x1="509.34" y1="-168.57" x2="509.34" y2="91.6"/>
		<line class="st0" x1="532.71" y1="-168.57" x2="532.71" y2="91.6"/>
		<line class="st0" x1="439.25" y1="-168.57" x2="439.25" y2="91.6"/>
		<line class="st0" x1="462.61" y1="-168.57" x2="462.61" y2="91.6"/>
		<line class="st0" x1="369.93" y1="-168.57" x2="369.93" y2="91.6"/>
		<line class="st0" x1="393.29" y1="-168.39" x2="393.29" y2="91.6"/>
		<line class="st0" x1="300.88" y1="-168.57" x2="300.88" y2="91.6"/>
		<line class="st0" x1="323.72" y1="-168.57" x2="323.72" y2="91.6"/>
		<line class="st0" x1="231.3" y1="-168.57" x2="231.3" y2="91.6"/>
		<line class="st0" x1="254.67" y1="-168.57" x2="254.67" y2="91.6"/>
		<line class="st0" x1="161.2" y1="-168.57" x2="161.2" y2="91.6"/>
		<line class="st0" x1="184.56" y1="-168.57" x2="184.56" y2="91.6"/>
		<line class="st0" x1="91.63" y1="-168.57" x2="91.63" y2="91.6"/>
		<line class="st0" x1="114.74" y1="-168.57" x2="114.74" y2="91.6"/>
		<line class="st0" x1="22.84" y1="-168.57" x2="22.84" y2="91.6"/>
		<line class="st0" x1="45.68" y1="-168.57" x2="45.68" y2="91.6"/>
		<line class="st0" x1="578.92" y1="-168.39" x2="578.92" y2="91.77"/>
		<line class="st0" x1="601.76" y1="-168.39" x2="601.76" y2="91.77"/>
		<line class="st0" x1="647.71" y1="-168.39" x2="647.71" y2="91.77"/>
		<line class="st0" x1="670.82" y1="-168.39" x2="670.82" y2="91.77"/>
		<line class="st2" x1="556.08" y1="-171.89" x2="556.08" y2="91.6"/>
		<line class="st0" x1="624.61" y1="-168.57" x2="624.61" y2="91.6"/>
		<line class="st0" x1="693.93" y1="-168.57" x2="693.93" y2="91.6"/>
		<line class="st0" x1="716.54" y1="-224.67" x2="716.54" y2="91.6"/>
		<line class="st0" x1="716.84" y1="-168.57" x2="716.84" y2="91.6"/>
		<line class="st0" x1="739.46" y1="-224.67" x2="739.46" y2="91.6"/>
		<line class="st0" x1="739.62" y1="-168.57" x2="739.62" y2="91.6"/>
		<line class="st0" x1="762.23" y1="-168.57" x2="762.23" y2="91.6"/>
		<path class="st0" d="M717.41-279.98"/>
		<path class="st0" d="M-0.16-279.98"/>
	</g>
	<g>
		<rect x="-8.66" y="578.16" class="st3" width="17.31" height="12.88"/>
		<text transform="matrix(1 0 0 1 -2.2844 584.3693)" class="st4 st5 st6">J</text>
		<rect x="14.18" y="578.16" class="st3" width="17.31" height="12.88"/>
		<text transform="matrix(1 0 0 1 20.5544 584.3693)" class="st4 st5 st6">F</text>
		<rect x="37.02" y="578.16" class="st3" width="17.31" height="12.88"/>
		<text transform="matrix(1 0 0 1 42.0705 584.3683)" class="st4 st5 st6">M</text>
		<rect x="59.87" y="578.16" class="st3" width="17.31" height="12.88"/>
		<text transform="matrix(1 0 0 1 65.8264 584.3683)" class="st4 st5 st6">A</text>
		<rect x="82.97" y="578.16" class="st3" width="17.31" height="12.88"/>
		<text transform="matrix(1 0 0 1 88.0188 584.3683)" class="st4 st5 st6">M</text>
		<rect x="106.08" y="578.16" class="st3" width="17.31" height="12.88"/>
		<text transform="matrix(1 0 0 1 112.4558 584.3683)" class="st4 st5 st6">J</text>
		<rect x="129.19" y="578.16" class="st3" width="17.31" height="12.88"/>
		<text transform="matrix(1 0 0 1 135.5618 584.3683)" class="st4 st5 st6">J</text>
		<rect x="152.55" y="578.16" class="st3" width="17.31" height="12.88"/>
		<text transform="matrix(1 0 0 1 158.5056 584.3683)" class="st4 st5 st6">A</text>
		<rect x="175.91" y="578.16" class="st3" width="17.31" height="12.88"/>
		<text transform="matrix(1 0 0 1 182.1116 584.3683)" class="st4 st5 st6">S</text>
		<rect x="199.27" y="578.16" class="st3" width="17.31" height="12.88"/>
		<text transform="matrix(1 0 0 1 205.0823 584.3683)" class="st4 st5 st6">O</text>
		<rect x="222.64" y="578.16" class="st3" width="17.31" height="12.88"/>
		<text transform="matrix(1 0 0 1 228.3474 584.3683)" class="st4 st5 st6">N</text>
		<rect x="246.01" y="578.16" class="st3" width="17.31" height="12.88"/>
		<text transform="matrix(1 0 0 1 251.9553 584.3683)" class="st4 st5 st6">D</text>
		<rect x="268.55" y="578.16" class="st3" width="17.31" height="12.88"/>
		<text transform="matrix(1 0 0 1 274.9241 584.3693)" class="st4 st5 st6">J</text>
		<rect x="291.39" y="578.16" class="st3" width="17.31" height="12.88"/>
		<text transform="matrix(1 0 0 1 297.7624 584.3693)" class="st4 st5 st6">F</text>
		<rect x="314.23" y="578.16" class="st3" width="17.31" height="12.88"/>
		<text transform="matrix(1 0 0 1 319.2781 584.3683)" class="st4 st5 st6">M</text>
		<rect x="337.07" y="578.16" class="st3" width="17.31" height="12.88"/>
		<text transform="matrix(1 0 0 1 343.0344 584.3683)" class="st4 st5 st6">A</text>
		<rect x="360.18" y="578.16" class="st3" width="17.31" height="12.88"/>
		<text transform="matrix(1 0 0 1 365.2268 584.3683)" class="st4 st5 st6">M</text>
		<rect x="383.29" y="578.16" class="st3" width="17.31" height="12.88"/>
		<text transform="matrix(1 0 0 1 389.6628 584.3683)" class="st4 st5 st6">J</text>
		<rect x="406.39" y="578.16" class="st3" width="17.31" height="12.88"/>
		<text transform="matrix(1 0 0 1 412.7683 584.3683)" class="st4 st5 st6">J</text>
		<rect x="429.76" y="578.16" class="st3" width="17.31" height="12.88"/>
		<text transform="matrix(1 0 0 1 435.7136 584.3683)" class="st4 st5 st6">A</text>
		<rect x="453.12" y="578.16" class="st3" width="17.31" height="12.88"/>
		<text transform="matrix(1 0 0 1 459.3171 584.3683)" class="st4 st5 st6">S</text>
		<rect x="476.48" y="578.16" class="st3" width="17.31" height="12.88"/>
		<text transform="matrix(1 0 0 1 482.2888 584.3683)" class="st4 st5 st6">O</text>
		<rect x="499.85" y="578.16" class="st3" width="17.31" height="12.88"/>
		<text transform="matrix(1 0 0 1 505.5553 584.3683)" class="st4 st5 st6">N</text>
		<rect x="523.22" y="578.16" class="st3" width="17.31" height="12.88"/>
		<text transform="matrix(1 0 0 1 529.1628 584.3683)" class="st4 st5 st6">D</text>
		<rect x="546.44" y="578.16" class="st3" width="17.31" height="12.88"/>
		<text transform="matrix(1 0 0 1 552.8141 584.3693)" class="st4 st5 st6">J</text>
		<rect x="569.28" y="578.16" class="st3" width="17.31" height="12.88"/>
		<text transform="matrix(1 0 0 1 575.652 584.3693)" class="st4 st5 st6">F</text>
		<rect x="592.12" y="578.16" class="st3" width="17.31" height="12.88"/>
		<text transform="matrix(1 0 0 1 597.1697 584.3683)" class="st4 st5 st6">M</text>
		<rect x="614.97" y="578.16" class="st3" width="17.31" height="12.88"/>
		<text transform="matrix(1 0 0 1 620.9255 584.3683)" class="st4 st5 st6">A</text>
		<rect x="638.07" y="578.16" class="st3" width="17.31" height="12.88"/>
		<text transform="matrix(1 0 0 1 643.1177 584.3683)" class="st4 st5 st6">M</text>
		<rect x="661.18" y="578.16" class="st3" width="17.31" height="12.88"/>
		<text transform="matrix(1 0 0 1 667.5544 584.3683)" class="st4 st5 st6">J</text>
		<rect x="684.29" y="578.16" class="st3" width="17.31" height="12.88"/>
		<text transform="matrix(1 0 0 1 690.6617 584.3683)" class="st4 st5 st6">J</text>
		<rect x="710.12" y="578.16" class="st3" width="17.31" height="12.88"/>
		<text transform="matrix(1 0 0 1 716.0798 584.3683)" class="st4 st5 st6">A</text>
		<rect x="730.8" y="578.16" class="st3" width="17.31" height="12.88"/>
		<text transform="matrix(1 0 0 1 737.0027 584.3683)" class="st4 st5 st6">S</text>
		<rect x="753.43" y="578.16" class="st3" width="17.31" height="12.88"/>
		<text transform="matrix(1 0 0 1 759.2408 584.3683)" class="st4 st5 st6">O</text>
	</g>
	<rect x="85.22" y="596.44" class="st3" width="76.35" height="20.79"/>
	<text transform="matrix(1 0 0 1 109.4514 605.7531)" class="st4 st5 st7">2017</text>
	<text transform="matrix(1 0 0 1 4.5013 121.92)" class="st4 st5 st7">Height indicates</text>
	<text transform="matrix(1 0 0 1 4.5013 136.82)" class="st4 st5 st7">number of protests </text>
	<text transform="matrix(1 0 0 1 4.5013 151.72)" class="st4 st5 st7">per month</text>
	<rect x="362.42" y="596.44" class="st3" width="76.35" height="20.79"/>
	<text transform="matrix(1 0 0 1 386.6579 605.7531)" class="st4 st5 st7">2018</text>
	<rect x="602.37" y="596.44" class="st3" width="76.35" height="20.79"/>
	<text transform="matrix(1 0 0 1 626.6042 605.7531)" class="st4 st5 st7">2019</text>
</g>
<g>
	<g id="stream">
		<path id="supreme_x5F_court-stream" class="st8" d="M-1.49,242.29l3.93-1.87c3.93-1.87,11.8-5.62,19.29-7.14s14.59-0.81,22.08-0.1
			s15.35,1.42,23.09,5.3s15.35,10.94,23.09,15.38c7.74,4.44,15.61,6.25,23.35,8.54s15.35,5.05,23.09-1.85s15.61-23.46,23.47-29.73
			c7.87-6.27,15.73-2.25,23.47,3.79c7.74,6.03,15.35,14.08,23.09,20.86c7.74,6.78,15.61,12.3,23.35,16.86s15.35,8.14,23.09,3.21
			c7.74-4.93,15.61-18.37,23.47-25.59s15.73-8.2,23.22-44.47s14.6-107.85,22.09-115.05s15.35,49.97,23.09,90.21
			s15.35,63.54,23.09,57.86s15.61-40.33,23.35-40.28c7.74,0.06,15.35,34.83,23.09,52.06s15.61,16.91,23.47,12.97
			c7.87-3.94,15.73-11.51,23.47-18.71s15.35-14.02,23.09-10.65s15.61,16.93,23.35,28.92c7.74,11.99,15.35,22.39,23.09,19.04
			c7.74-3.35,15.61-20.46,23.47-25.12c7.87-4.65,15.73,3.15,23.22,5.74c7.49,2.58,14.59-0.06,22.08-1.5s15.35-1.68,23.09-6.72
			c7.74-5.05,15.35-14.9,23.09-14.81c7.74,0.1,15.61,10.15,23.35,11.71s15.35-5.38,23.09-5.66c7.74-0.28,15.61,6.11,23.47,6.25
			s15.73-5.97,23.47-5.91s15.35,6.29,19.16,9.4l3.81,3.11l0,0l-3.81-3.11c-3.81-3.11-11.42-9.34-19.16-9.4s-15.61,6.05-23.47,5.91
			s-15.73-6.53-23.47-6.25s-15.35,7.22-23.09,5.66c-7.74-1.56-15.61-11.61-23.35-11.71s-15.35,9.76-23.09,14.81
			c-7.74,5.05-15.61,5.28-23.09,6.72c-7.49,1.44-14.59,4.08-22.08,1.5s-15.35-10.39-23.22-5.74c-7.87,4.65-15.73,21.76-23.47,25.12
			c-7.74,3.35-15.35-7.06-23.09-14.08c-7.74-7.02-15.61-10.65-23.35-9.99c-7.74,0.65-15.35,5.58-23.09,8.63
			c-7.74,3.06-15.61,4.24-23.47,4.75c-7.87,0.51-15.73,0.35-23.47-17.66c-7.74-18.02-15.35-53.9-23.09-54.55
			c-7.74-0.65-15.61,33.93-23.35,39.57c-7.74,5.64-15.35-17.66-23.09-57.9s-15.61-97.41-23.09-90.21
			c-7.49,7.2-14.59,78.76-22.08,115.03s-15.35,37.26-23.22,44.47c-7.87,7.21-15.73,20.66-23.47,25.59
			c-7.74,4.93-15.35,1.34-23.09-3.21c-7.74-4.55-15.61-10.07-23.35-16.82s-15.35-14.71-23.09-20.74s-15.61-10.13-23.47-3.9
			c-7.87,6.23-15.73,22.79-23.47,29.69s-15.35,4.14-23.09,1.85s-15.61-4.1-23.35-8.5s-15.35-11.37-23.09-15.14
			s-15.61-4.32-23.09-5.03c-7.49-0.71-14.59-1.58-22.08-0.18s-15.35,5.07-19.29,6.9L-1.49,242.29z"/>
		<path id="women-stream" class="st9" d="M-1.49,242.29l3.93-1.83c3.93-1.83,11.8-5.5,19.29-6.9s14.59-0.53,22.08,0.18
			s15.35,1.26,23.09,5.03s15.35,10.74,23.09,15.14c7.74,4.4,15.61,6.21,23.35,8.5c7.74,2.29,15.35,5.05,23.09-1.85
			s15.61-23.46,23.47-29.69c7.87-6.23,15.73-2.13,23.47,3.9s15.35,14,23.09,20.74s15.61,12.26,23.35,16.82s15.35,8.14,23.09,3.21
			c7.74-4.93,15.61-18.37,23.47-25.59c7.86-7.22,15.73-8.2,23.22-44.47s14.6-107.85,22.09-115.05s15.35,49.97,23.09,90.21
			s15.35,63.54,23.09,57.9s15.61-40.22,23.35-39.57c7.74,0.65,15.35,36.53,23.09,54.55s15.61,18.18,23.47,17.66
			c7.87-0.51,15.73-1.7,23.47-4.75c7.74-3.06,15.35-7.98,23.09-8.63s15.61,2.98,23.35,9.99c7.74,7.01,15.35,17.43,23.09,14.08
			c7.74-3.35,15.61-20.46,23.47-25.12c7.87-4.65,15.73,3.15,23.22,5.74c7.49,2.58,14.59-0.06,22.08-1.5s15.35-1.68,23.09-6.72
			c7.74-5.05,15.35-14.9,23.09-14.81c7.74,0.1,15.61,10.15,23.35,11.71s15.35-5.38,23.09-5.66c7.74-0.28,15.61,6.11,23.47,6.25
			s15.73-5.97,23.47-5.91s15.35,6.29,19.16,9.4l3.81,3.11v11.59l-3.81-4.53c-3.81-4.53-11.42-13.6-19.16-15.04
			s-15.61,4.75-23.47,4.57s-15.73-6.72-23.47-5.78c-7.74,0.95-15.35,9.38-23.09,18.43c-7.74,9.05-15.61,18.71-23.35,19.28
			s-15.35-7.94-23.09-12.56c-7.74-4.61-15.61-5.32-23.09-4.91c-7.49,0.41-14.59,1.95-22.08,5.76c-7.49,3.8-15.35,9.88-23.22,13.98
			s-15.73,6.23-23.47,2.72s-15.35-12.66-23.09-14.15c-7.74-1.5-15.61,4.65-23.35,8.46c-7.74,3.8-15.35,5.26-23.09,3.08
			c-7.74-2.19-15.61-8.02-23.47-11.41c-7.87-3.39-15.73-4.34-23.47-22.43c-7.74-18.1-15.35-53.35-23.09-53.8
			s-15.61,33.89-23.35,40.59c-7.74,6.7-15.35-14.23-23.09-53.17s-15.61-95.87-23.09-89.54c-7.49,6.33-14.59,75.92-22.08,122.56
			s-15.35,70.34-23.22,77.2s-15.73-3.11-23.47-9.9c-7.74-6.78-15.35-10.37-23.09-13.82c-7.74-3.45-15.61-6.76-23.35-13.15
			c-7.74-6.39-15.35-15.85-23.09-22.79c-7.74-6.94-15.61-11.36-23.47-5.24c-7.87,6.11-15.73,22.75-23.47,29.61
			c-7.74,6.86-15.35,3.94-23.09,1.54c-7.74-2.41-15.61-4.3-23.35-7.39c-7.74-3.1-15.35-7.39-23.09-7.45s-15.61,4.12-23.09,5.58
			c-7.48,1.46-14.59,0.2-22.08,14.57C14.25,285.19,6.39,315.2,2.45,330.2l-3.93,15V242.29H-1.49z"/>
		<path id="police-stream" class="st10" d="M-1.49,345.2l3.93-15c3.93-15,11.8-45.01,19.29-59.38s14.59-13.11,22.08-14.57
			c7.49-1.46,15.35-5.64,23.09-5.58s15.35,4.36,23.09,7.45c7.74,3.1,15.61,4.99,23.35,7.39c7.74,2.41,15.35,5.32,23.09-1.54
			c7.74-6.86,15.61-23.5,23.47-29.61c7.87-6.11,15.73-1.7,23.47,5.24s15.35,16.4,23.09,22.79s15.61,9.7,23.35,13.15
			c7.74,3.45,15.35,7.04,23.09,13.82c7.74,6.78,15.61,16.76,23.47,9.9c7.87-6.86,15.73-30.56,23.22-77.2s14.59-116.23,22.08-122.56
			c7.49-6.33,15.35,50.61,23.09,89.54s15.35,59.87,23.09,53.17s15.61-41.04,23.35-40.59c7.74,0.45,15.35,35.7,23.09,53.8
			s15.61,19.04,23.47,22.43c7.87,3.39,15.73,9.23,23.47,11.41c7.74,2.19,15.35,0.73,23.09-3.08c7.74-3.8,15.61-9.96,23.35-8.46
			c7.74,1.5,15.35,10.65,23.09,14.15c7.74,3.51,15.61,1.38,23.47-2.72s15.73-10.17,23.22-13.98c7.49-3.8,14.59-5.34,22.08-5.76
			c7.49-0.41,15.35,0.3,23.09,4.91c7.74,4.61,15.35,13.13,23.09,12.56c7.74-0.57,15.61-10.23,23.35-19.28s15.35-17.49,23.09-18.43
			c7.74-0.95,15.61,5.6,23.47,5.78s15.73-6.01,23.47-4.57s15.35,10.51,19.16,15.04l3.81,4.53v4.97l-3.81-4.46
			c-3.81-4.46-11.42-13.37-19.16-14.37s-15.61,5.89-23.47,5.84c-7.87-0.06-15.73-7.08-23.47-6.21c-7.74,0.87-15.35,9.62-23.09,18.71
			c-7.74,9.09-15.61,18.51-23.35,19.12s-15.35-7.59-23.09-12.01c-7.74-4.42-15.61-5.05-23.09-4.87c-7.49,0.18-14.59,1.16-22.08,4.69
			s-15.35,9.6-23.22,13.31s-15.73,5.05-23.47,1.14c-7.74-3.9-15.35-13.05-23.09-13.88c-7.74-0.83-15.61,6.66-23.35,11.41
			c-7.74,4.75-15.35,6.76-23.09,5.01s-15.61-7.27-23.47-10.74c-7.87-3.47-15.73-4.89-23.47-23.1
			c-7.74-18.22-15.35-53.23-23.09-54.04s-15.61,32.59-23.35,39.33s-15.35-13.17-23.09-51.83s-15.61-96.07-23.09-90.37
			c-7.49,5.7-14.59,74.5-22.08,120.39s-15.35,68.88-23.22,75.42c-7.87,6.54-15.73-3.35-23.47-9.03c-7.74-5.68-15.35-7.14-23.09-7.87
			c-7.74-0.73-15.61-0.73-23.35-5.26s-15.35-13.6-23.09-22.83c-7.74-9.23-15.61-18.61-23.47-15.34
			c-7.87,3.27-15.73,19.2-23.47,25.83c-7.74,6.62-15.35,3.94-23.09,1.81s-15.61-3.71-23.35-7s-15.35-8.3-23.09-8.79
			c-7.74-0.49-15.61,3.53-23.09,4.55s-14.59-0.95-22.08,12.83S6.38,315.62,2.44,330.39L-1.49,345.2z"/>
		<path id="education-stream" class="st11" d="M-1.49,345.2l3.93-14.77c3.93-14.77,11.8-44.3,19.29-58.08s14.59-11.81,22.08-12.83
			s15.35-5.05,23.09-4.55c7.74,0.49,15.35,5.5,23.09,8.79s15.61,4.87,23.35,7s15.35,4.81,23.09-1.81s15.61-22.55,23.47-25.83
			c7.87-3.27,15.73,6.11,23.47,15.34s15.35,18.29,23.09,22.83c7.74,4.53,15.61,4.53,23.35,5.26s15.35,2.19,23.09,7.87
			c7.74,5.68,15.61,15.57,23.47,9.03c7.87-6.54,15.73-29.53,23.22-75.42s14.59-114.69,22.08-120.39s15.35,51.71,23.09,90.37
			s15.35,58.57,23.09,51.83s15.61-40.14,23.35-39.33c7.74,0.81,15.35,35.82,23.09,54.04s15.61,19.63,23.47,23.1
			c7.87,3.47,15.73,8.99,23.47,10.74s15.35-0.26,23.09-5.01s15.61-12.24,23.35-11.41c7.74,0.83,15.35,9.98,23.09,13.88
			c7.74,3.9,15.61,2.56,23.47-1.14s15.73-9.78,23.22-13.31s14.59-4.51,22.08-4.69s15.35,0.45,23.09,4.87
			c7.74,4.42,15.35,12.62,23.09,12.01c7.74-0.61,15.61-10.03,23.35-19.12s15.35-17.84,23.09-18.71c7.74-0.87,15.61,6.15,23.47,6.21
			c7.87,0.06,15.73-6.84,23.47-5.84s15.35,9.92,19.16,14.37l3.81,4.46v5.68l-3.81-4.18c-3.81-4.18-11.42-12.54-19.16-14.1
			s-15.61,3.69-23.47,2.76s-15.73-8.02-23.47-6.29c-7.74,1.73-15.35,12.3-23.09,24.23c-7.74,11.93-15.61,25.21-23.35,27.36
			s-15.35-6.84-23.09-12.56c-7.74-5.72-15.61-8.16-23.09-9.68c-7.49-1.52-14.59-2.11-22.08,0.55s-15.35,8.58-23.22,11.85
			c-7.87,3.27-15.73,3.9-23.47-0.32s-15.35-13.29-23.09-13.48c-7.74-0.19-15.61,8.48-23.35,13.54c-7.74,5.07-15.35,6.53-23.09,4.3
			s-15.61-8.14-23.47-12.44c-7.87-4.3-15.73-6.98-23.47-25.51s-15.35-52.91-23.09-52.14s-15.61,36.69-23.35,47.49
			c-7.74,10.8-15.35-3.51-23.09-40.91s-15.61-97.88-23.09-93.72c-7.49,4.16-14.59,72.96-22.08,116.73s-15.35,62.49-23.22,66.44
			s-15.73-6.9-23.47-12.93c-7.74-6.03-15.35-7.25-23.09-7.31s-15.61,1.04-23.35-3.13s-15.35-13.64-23.09-23.62
			c-7.74-9.98-15.61-20.46-23.47-17.51c-7.87,2.96-15.73,19.36-23.47,26.3s-15.35,4.42-23.09,3.23s-15.61-1.03-23.35-3.92
			c-7.74-2.9-15.35-8.85-23.09-9.19s-15.61,4.95-23.09,5.42s-14.59-3.86-22.08,8.26s-15.35,40.71-19.29,55l-3.93,14.29
			C-1.49,345.45-1.49,345.2-1.49,345.2z"/>
		<path id="executive-stream" class="st12" d="M-1.49,345.43l3.93-14.29c3.93-14.29,11.8-42.88,19.29-55s14.59-7.79,22.08-8.26
			s15.35-5.76,23.09-5.42s15.35,6.29,23.09,9.19s15.61,2.74,23.35,3.92s15.35,3.71,23.09-3.23s15.61-23.34,23.47-26.3
			c7.87-2.96,15.73,7.53,23.47,17.51c7.74,9.98,15.35,19.44,23.09,23.62c7.74,4.18,15.61,3.08,23.35,3.13
			c7.74,0.05,15.35,1.28,23.09,7.31c7.74,6.03,15.61,16.88,23.47,12.93c7.86-3.95,15.73-22.67,23.22-66.44
			s14.59-112.57,22.08-116.73s15.35,56.32,23.09,93.72s15.35,51.71,23.09,40.91c7.74-10.8,15.61-46.72,23.35-47.49
			c7.74-0.77,15.35,33.61,23.09,52.14s15.61,21.21,23.47,25.51c7.87,4.3,15.73,10.21,23.47,12.44s15.35,0.77,23.09-4.3
			s15.61-13.74,23.35-13.54c7.74,0.2,15.35,9.27,23.09,13.48c7.74,4.22,15.61,3.59,23.47,0.32s15.73-9.19,23.22-11.85
			s14.59-2.07,22.08-0.55c7.49,1.52,15.35,3.96,23.09,9.68c7.74,5.72,15.35,14.71,23.09,12.56c7.74-2.15,15.61-15.44,23.35-27.36
			c7.74-11.93,15.35-22.49,23.09-24.23c7.74-1.73,15.61,5.36,23.47,6.29s15.73-4.32,23.47-2.76s15.35,9.92,19.16,14.1l3.81,4.18
			v20.58l-3.81-6.98c-3.81-6.98-11.42-20.94-19.16-24.39c-7.74-3.45-15.61,3.61-23.47,4.38c-7.86,0.77-15.73-4.75-23.47-2.46
			s-15.35,12.38-23.09,22.45c-7.74,10.07-15.61,20.13-23.35,21.8c-7.74,1.68-15.35-5.03-23.09-10.59
			c-7.74-5.56-15.61-9.98-23.09-12.72c-7.49-2.74-14.59-3.8-22.08,1.18c-7.49,4.99-15.35,16.03-23.22,18.98
			c-7.87,2.96-15.73-2.17-23.47-1.26s-15.35,7.85-23.09,12.58c-7.74,4.73-15.61,7.25-23.35,8.14c-7.74,0.89-15.35,0.14-23.09-5.72
			c-7.74-5.85-15.61-16.82-23.47-22.81c-7.87-5.99-15.73-7.02-23.47-25.98s-15.35-55.87-23.09-56.87
			c-7.74-1.01-15.61,33.89-23.35,44.06c-7.74,10.17-15.35-4.38-23.09-41.54s-15.61-96.93-23.09-92.62
			c-7.49,4.32-14.59,72.72-22.08,117s-15.35,64.42-23.22,68.17s-15.73-8.91-23.47-14.86c-7.74-5.95-15.35-5.2-23.09-4.67
			c-7.74,0.53-15.61,0.85-23.35-3.84s-15.35-14.39-23.09-23.46c-7.74-9.07-15.61-17.51-23.47-13.64
			c-7.87,3.86-15.73,20.03-23.47,28.27s-15.35,8.56-23.09,7.02s-15.61-4.93-23.35-5.26c-7.74-0.34-15.35,2.39-23.09,7.37
			c-7.74,4.99-15.61,12.24-23.09,12.36s-14.59-6.9-22.08-0.06S6.38,332.77,2.44,343.12l-3.93,10.35
			C-1.49,353.47-1.49,345.43-1.49,345.43z"/>
		<path id="immigration-stream" class="st13" d="M-1.49,353.48l3.93-10.35c3.93-10.35,11.8-31.05,19.29-37.89
			c7.49-6.84,14.59,0.18,22.08,0.06s15.35-7.37,23.09-12.36s15.35-7.71,23.09-7.37s15.61,3.73,23.35,5.26
			c7.74,1.54,15.35,1.22,23.09-7.02s15.61-24.41,23.47-28.27c7.87-3.86,15.73,4.57,23.47,13.64s15.35,18.77,23.09,23.46
			c7.74,4.69,15.61,4.38,23.35,3.84c7.74-0.53,15.35-1.28,23.09,4.67c7.74,5.95,15.61,18.61,23.47,14.86
			c7.87-3.75,15.73-23.89,23.22-68.17s14.59-112.68,22.08-117c7.49-4.32,15.35,55.45,23.09,92.62s15.35,51.71,23.09,41.54
			c7.74-10.17,15.61-45.07,23.35-44.06c7.74,1.01,15.35,37.91,23.09,56.87s15.61,19.99,23.47,25.98
			c7.87,5.99,15.73,16.95,23.47,22.81c7.74,5.85,15.35,6.6,23.09,5.72c7.74-0.89,15.61-3.41,23.35-8.14
			c7.74-4.73,15.35-11.67,23.09-12.58c7.74-0.91,15.61,4.22,23.47,1.26c7.87-2.96,15.73-14,23.22-18.98
			c7.49-4.99,14.59-3.92,22.08-1.18c7.49,2.74,15.35,7.16,23.09,12.72c7.74,5.56,15.35,12.26,23.09,10.59
			c7.74-1.68,15.61-11.73,23.35-21.8c7.74-10.07,15.35-20.17,23.09-22.45c7.74-2.29,15.61,3.23,23.47,2.46s15.73-7.83,23.47-4.38
			c7.74,3.45,15.35,17.41,19.16,24.39l3.81,6.98v6.15l-3.81-6.58c-3.81-6.58-11.42-19.75-19.16-21.86
			c-7.74-2.11-15.61,6.84-23.47,19.16c-7.87,12.32-15.73,28.01-23.47,29.51s-15.35-11.2-23.09-12.36
			c-7.74-1.16-15.61,9.21-23.35,10.33s-15.35-7-23.09-13.43c-7.74-6.43-15.61-11.16-23.09-9.44c-7.49,1.72-14.59,9.88-22.08,15.1
			s-15.35,7.51-23.22,5.97s-15.73-6.9-23.47-6.11s-15.35,7.73-23.09,12.62c-7.74,4.89-15.61,7.73-23.35,8.34
			c-7.74,0.61-15.35-1.01-23.09-6.35s-15.61-14.41-23.47-17.05c-7.87-2.64-15.73,1.14-23.47,17.27
			c-7.74,16.13-15.35,44.59-23.09,41.1s-15.61-38.93-23.35-63.89c-7.74-24.96-15.35-39.43-23.09-75.52
			c-7.74-36.1-15.61-93.82-23.09-89.62c-7.49,4.2-14.59,70.32-22.08,114.44s-15.35,66.24-23.22,70.22s-15.73-10.17-23.47-17.39
			c-7.74-7.22-15.35-7.49-23.09-7.67c-7.74-0.18-15.61-0.26-23.35,3.17s-15.35,10.37-23.09,2.09c-7.74-8.28-15.61-31.78-23.47-36.19
			c-7.87-4.42-15.73,10.25-23.47,17.94s-15.35,8.4-23.09,11.08s-15.61,7.33-23.35,7.59s-15.35-3.88-23.09-1.26
			s-15.61,12.01-23.09,20.88s-14.59,17.23-22.08,27.58S6.38,379.72,2.44,385.89l-3.93,6.17L-1.49,353.48L-1.49,353.48z"/>
		<path id="guns-stream_1_" class="st14" d="M-1.49,392.04l3.93-6.17c3.93-6.17,11.8-18.51,19.29-28.86s14.59-18.71,22.08-27.58
			s15.35-18.25,23.09-20.88s15.35,1.52,23.09,1.26c7.74-0.26,15.61-4.91,23.35-7.59s15.35-3.39,23.09-11.08s15.61-22.36,23.47-17.94
			c7.87,4.42,15.73,27.91,23.47,36.19s15.35,1.34,23.09-2.09c7.74-3.43,15.61-3.35,23.35-3.17s15.35,0.45,23.09,7.67
			c7.74,7.22,15.61,21.37,23.47,17.39s15.73-26.1,23.22-70.22s14.6-110.24,22.09-114.44c7.49-4.2,15.35,53.52,23.09,89.62
			s15.35,50.57,23.09,75.52c7.74,24.96,15.61,60.4,23.35,63.89c7.74,3.49,15.35-24.98,23.09-41.1
			c7.74-16.13,15.61-19.91,23.47-17.27c7.87,2.64,15.73,11.71,23.47,17.05s15.35,6.96,23.09,6.35s15.61-3.45,23.35-8.34
			c7.74-4.89,15.35-11.83,23.09-12.62c7.74-0.79,15.61,4.57,23.47,6.11c7.87,1.54,15.73-0.75,23.22-5.97s14.59-13.39,22.08-15.1
			c7.49-1.72,15.35,3.02,23.09,9.44c7.74,6.43,15.35,14.55,23.09,13.43c7.74-1.12,15.61-11.49,23.35-10.33s15.35,13.86,23.09,12.36
			c7.74-1.5,15.61-17.19,23.47-29.51c7.87-12.32,15.73-21.27,23.47-19.16s15.35,15.28,19.16,21.86l3.81,6.58v1.42l-3.81-5.99
			c-3.81-5.99-11.42-17.98-19.16-15.59s-15.61,19.14-23.47,30.95s-15.73,18.67-23.47,16.97s-15.35-11.95-23.09-13.03
			c-7.74-1.08-15.61,7-23.35,7.33c-7.74,0.34-15.35-7.08-23.09-13.07c-7.74-5.99-15.61-10.57-23.09-9.13
			c-7.49,1.44-14.59,8.89-22.08,13.76s-15.35,7.16-23.22,5.42s-15.73-7.49-23.47-6.7c-7.74,0.79-15.35,8.12-23.09,13.21
			c-7.74,5.09-15.61,7.92-23.35,8.58c-7.74,0.65-15.35-0.89-23.09-5.56s-15.61-12.48-23.47-14.37c-7.87-1.89-15.73,2.13-23.47,19.44
			s-15.35,47.9-23.09,44.73c-7.74-3.17-15.61-40.12-23.35-47.37c-7.74-7.25-15.35,15.18-23.09,57.43s-15.61,104.31-23.09,98.57
			c-7.49-5.74-14.59-79.27-22.08-114.79s-15.35-33.04-23.22-38.95s-15.73-20.23-23.47-27.6c-7.74-7.37-15.35-7.81-23.09-7.47
			c-7.74,0.34-15.61,1.44-23.35,4.91s-15.35,9.3-23.09,0.47c-7.74-8.83-15.61-32.33-23.47-36.67c-7.87-4.34-15.73,10.49-23.47,18.53
			s-15.35,9.3-23.09,11.99c-7.74,2.68-15.61,6.78-23.35,6.8s-15.35-4.04-23.09-1.38s-15.61,12.05-23.09,20.64
			s-14.59,16.4-22.08,26.48S6.39,379.71,2.45,385.88L-1.49,392.04z"/>
		<path id="race_x5F_confed-stream" class="st15" d="M-1.49,392.04l3.93-6.17c3.93-6.17,11.8-18.51,19.29-28.58
			c7.49-10.07,14.59-17.88,22.08-26.48s15.35-17.98,23.09-20.64s15.35,1.4,23.09,1.38s15.61-4.12,23.35-6.8s15.35-3.94,23.09-11.99
			c7.74-8.04,15.61-22.87,23.47-18.53c7.87,4.34,15.73,27.84,23.47,36.67s15.35,3,23.09-0.47c7.74-3.47,15.61-4.57,23.35-4.91
			s15.35,0.1,23.09,7.47c7.74,7.37,15.61,21.69,23.47,27.6c7.87,5.91,15.73,3.43,23.22,38.95s14.59,109.06,22.08,114.79
			c7.49,5.74,15.35-56.32,23.09-98.57s15.35-64.68,23.09-57.43s15.61,44.2,23.35,47.37c7.74,3.17,15.35-27.42,23.09-44.73
			s15.61-21.33,23.47-19.44c7.87,1.89,15.73,9.7,23.47,14.37c7.74,4.67,15.35,6.21,23.09,5.56s15.61-3.49,23.35-8.58
			c7.74-5.09,15.35-12.42,23.09-13.21c7.74-0.79,15.61,4.97,23.47,6.7s15.73-0.55,23.22-5.42c7.49-4.87,14.59-12.32,22.08-13.76
			s15.35,3.13,23.09,9.13c7.74,5.99,15.35,13.41,23.09,13.07c7.74-0.34,15.61-8.42,23.35-7.33c7.74,1.08,15.35,11.34,23.09,13.03
			c7.74,1.7,15.61-5.17,23.47-16.97s15.73-28.57,23.47-30.95s15.35,9.6,19.16,15.59l3.81,5.99v9.94l-3.81-6.43
			c-3.81-6.43-11.42-19.28-19.16-16.66s-15.61,20.72-23.47,32.72c-7.87,12.01-15.73,17.92-23.47,15.4s-15.35-13.48-23.09-14.02
			c-7.74-0.53-15.61,9.36-23.35,10.13s-15.35-7.59-23.09-13.98c-7.74-6.39-15.61-10.8-23.09-9.29c-7.49,1.52-14.59,8.97-22.08,17.11
			S562.1,350.64,554.23,348s-15.73-16.76-23.47-19.36s-15.35,6.31-23.09,12.66c-7.74,6.35-15.61,10.13-23.35,11.41
			c-7.74,1.28-15.35,0.06-23.09-3.47s-15.61-9.36-23.47-11.93c-7.87-2.56-15.73-1.85-23.47,14.08s-15.35,47.08-23.09,43.94
			c-7.74-3.13-15.61-40.55-23.35-46.94c-7.74-6.39-15.35,18.26-23.09,60.97s-15.61,103.52-23.09,97.03
			c-7.49-6.49-14.59-80.25-22.08-113.41s-15.35-25.71-23.22-32.33s-15.73-27.32-23.47-35.92c-7.74-8.6-15.35-5.09-23.09-0.41
			s-15.61,10.51-23.35,17.64c-7.74,7.14-15.35,15.57-23.09,21.17c-7.74,5.6-15.61,8.36-23.47-1.38
			c-7.87-9.74-15.73-31.98-23.47-42.07s-15.35-8.04-23.09-4.38c-7.74,3.67-15.61,8.95-23.35,8.54s-15.35-6.53-23.09-4.73
			s-15.61,11.49-23.09,19.73c-7.48,8.24-14.59,15.02-22.08,23.87S6.38,382.48,2.44,387.94l-3.93,5.46
			C-1.49,393.4-1.49,392.04-1.49,392.04z"/>
		<path id="guns-stream" class="st16" d="M-1.49,393.46L2.44,388c3.93-5.46,11.8-16.38,19.29-25.23s14.59-15.63,22.08-23.87
			s15.35-17.94,23.09-19.73s15.35,4.32,23.09,4.73s15.61-4.87,23.35-8.54s15.35-5.72,23.09,4.38c7.74,10.09,15.61,32.33,23.47,42.07
			c7.87,9.74,15.73,6.98,23.47,1.38s15.35-14.04,23.09-21.17c7.74-7.14,15.61-12.97,23.35-17.64c7.74-4.67,15.35-8.18,23.09,0.41
			c7.74,8.6,15.61,29.29,23.47,35.92s15.73-0.83,23.22,32.33s14.59,106.93,22.08,113.41c7.49,6.49,15.35-54.31,23.09-97.03
			s15.35-67.36,23.09-60.97c7.74,6.39,15.61,43.8,23.35,46.94c7.74,3.13,15.35-28.01,23.09-43.94s15.61-16.64,23.47-14.08
			c7.87,2.56,15.73,8.4,23.47,11.93s15.35,4.75,23.09,3.47s15.61-5.07,23.35-11.41c7.74-6.34,15.35-15.26,23.09-12.66
			c7.74,2.6,15.61,16.72,23.47,19.36c7.87,2.64,15.73-6.19,23.22-14.33c7.49-8.14,14.59-15.59,22.08-17.11s15.35,2.9,23.09,9.29
			c7.74,6.39,15.35,14.75,23.09,13.98c7.74-0.77,15.61-10.67,23.35-10.13c7.74,0.53,15.35,11.49,23.09,14.02
			c7.74,2.52,15.61-3.39,23.47-15.4c7.87-12.01,15.73-30.1,23.47-32.72s15.35,10.23,19.16,16.66l3.81,6.43v13.72l-3.81-6.66
			c-3.81-6.66-11.42-19.99-19.16-17.88s-15.61,19.65-23.47,31.54s-15.73,18.12-23.47,16.18c-7.74-1.93-15.35-12.03-23.09-11.81
			c-7.74,0.22-15.61,10.74-23.35,10.72s-15.35-10.59-23.09-18c-7.74-7.41-15.61-11.67-23.09-10.82c-7.49,0.85-14.59,6.8-22.08,14.39
			c-7.49,7.59-15.35,16.82-23.22,14.45s-15.73-16.32-23.47-19.32s-15.35,4.97-23.09,13.68c-7.74,8.71-15.61,18.18-23.35,20.88
			c-7.74,2.7-15.35-1.36-23.09-6.47c-7.74-5.11-15.61-11.26-23.47-14.69c-7.87-3.43-15.73-4.14-23.47,11.28
			s-15.35,46.96-23.09,43.74c-7.74-3.21-15.61-41.18-23.35-48.04c-7.74-6.86-15.35,17.39-23.09,60.03s-15.61,103.67-23.09,98.61
			c-7.49-5.07-14.59-76.23-22.08-109.98s-15.35-30.08-23.22-38.32c-7.87-8.24-15.73-28.39-23.47-36.31
			c-7.74-7.92-15.35-3.63-23.09,1.16c-7.74,4.79-15.61,10.07-23.35,17.29s-15.35,16.36-23.09,21.96c-7.74,5.6-15.61,7.65-23.47-2.88
			c-7.87-10.53-15.73-33.63-23.47-43.76s-15.35-7.29-23.09-2.76s-15.61,10.76-23.35,10.43c-7.74-0.34-15.35-7.23-23.09-5.91
			s-15.61,10.86-23.09,18.24c-7.49,7.37-14.59,12.58-22.08,20.56S6.38,382.75,2.44,388.13L-1.49,393.46z"/>
		<path id="environment-stream" class="st17" d="M-1.49,393.46l3.93-5.38c3.93-5.38,11.8-16.15,19.29-24.13s14.59-13.19,22.08-20.56
			s15.35-16.91,23.09-18.24c7.74-1.32,15.35,5.58,23.09,5.91c7.74,0.34,15.61-5.89,23.35-10.43c7.74-4.53,15.35-7.37,23.09,2.76
			s15.61,33.24,23.47,43.76c7.87,10.53,15.73,8.48,23.47,2.88s15.35-14.75,23.09-21.96c7.74-7.21,15.61-12.5,23.35-17.29
			s15.35-9.09,23.09-1.16c7.74,7.92,15.61,28.07,23.47,36.31c7.87,8.24,15.73,4.57,23.22,38.32s14.59,104.92,22.08,109.98
			c7.49,5.07,15.35-55.97,23.09-98.61s15.35-66.89,23.09-60.03c7.74,6.86,15.61,44.83,23.35,48.04
			c7.74,3.21,15.35-28.33,23.09-43.74c7.74-15.42,15.61-14.71,23.47-11.28c7.87,3.43,15.73,9.58,23.47,14.69
			c7.74,5.11,15.35,9.17,23.09,6.47s15.61-12.16,23.35-20.88c7.74-8.72,15.35-16.68,23.09-13.68c7.74,3,15.61,16.95,23.47,19.32
			c7.87,2.37,15.73-6.86,23.22-14.45s14.59-13.54,22.08-14.39s15.35,3.41,23.09,10.82c7.74,7.41,15.35,17.98,23.09,18
			c7.74,0.02,15.61-10.51,23.35-10.72c7.74-0.22,15.35,9.88,23.09,11.81c7.74,1.93,15.61-4.3,23.47-16.18s15.73-29.43,23.47-31.54
			s15.35,11.22,19.16,17.88l3.81,6.66v7.57l-3.81,4.65c-3.81,4.65-11.42,13.96-19.16,15.95c-7.74,1.99-15.61-3.33-23.47-2.92
			c-7.87,0.41-15.73,6.56-23.47,4.79s-15.35-11.47-23.09-10.67c-7.74,0.81-15.61,12.12-23.35,12.66
			c-7.74,0.53-15.35-9.72-23.09-14.81c-7.74-5.09-15.61-5.01-23.09-5.54c-7.49-0.53-14.59-1.68-22.08,2.52
			c-7.49,4.2-15.35,13.74-23.22,11.61s-15.73-15.93-23.47-19c-7.74-3.08-15.35,4.57-23.09,13.29c-7.74,8.71-15.61,18.49-23.35,22.38
			c-7.74,3.88-15.35,1.87-23.09-3.04s-15.61-12.72-23.47-16.78c-7.87-4.06-15.73-4.38-23.47,11.08s-15.35,46.68-23.09,43.35
			s-15.61-41.22-23.35-47.96c-7.74-6.74-15.35,17.66-23.09,60.34s-15.61,103.64-23.09,98.92c-7.49-4.71-14.59-75.09-22.08-109.39
			s-15.35-32.53-23.22-41.52s-15.73-28.74-23.47-36.31c-7.74-7.57-15.35-2.96-23.09,2.46s-15.61,11.65-23.35,19.02
			s-15.35,15.89-23.09,21.33c-7.74,5.44-15.61,7.81-23.47-2.84c-7.87-10.65-15.73-34.3-23.47-44.55s-15.35-7.1-23.09-2.17
			s-15.61,11.63-23.35,13.94S74.64,341,66.9,343.03s-15.61,8.18-23.09,13.58s-14.59,10.05-22.08,16.38S6.38,387.32,2.44,391.32
			l-3.93,4L-1.49,393.46L-1.49,393.46z"/>
		<path id="healthcare-stream" class="st18" d="M-1.49,395.35l3.93-4c3.93-4,11.8-12.01,19.29-18.33
			c7.49-6.33,14.59-10.98,22.08-16.38s15.35-11.55,23.09-13.58s15.35,0.06,23.09-2.25s15.61-9.01,23.35-13.94s15.35-8.08,23.09,2.17
			s15.61,33.91,23.47,44.55c7.87,10.65,15.73,8.28,23.47,2.84s15.35-13.96,23.09-21.33c7.74-7.37,15.61-13.6,23.35-19.02
			s15.35-10.03,23.09-2.46c7.74,7.57,15.61,27.32,23.47,36.31c7.87,8.99,15.73,7.22,23.22,41.52s14.59,104.68,22.08,109.39
			c7.49,4.71,15.35-56.24,23.09-98.92s15.35-67.09,23.09-60.34c7.74,6.74,15.61,44.63,23.35,47.96c7.74,3.33,15.35-27.9,23.09-43.35
			c7.74-15.46,15.61-15.14,23.47-11.08c7.87,4.06,15.73,11.87,23.47,16.78s15.35,6.92,23.09,3.04s15.61-13.66,23.35-22.38
			c7.74-8.71,15.35-16.36,23.09-13.29c7.74,3.08,15.61,16.88,23.47,19s15.73-7.41,23.22-11.61c7.49-4.2,14.59-3.06,22.08-2.52
			c7.49,0.53,15.35,0.45,23.09,5.54c7.74,5.09,15.35,15.34,23.09,14.81c7.74-0.53,15.61-11.85,23.35-12.66s15.35,8.89,23.09,10.67
			c7.74,1.77,15.61-4.38,23.47-4.79c7.87-0.41,15.73,4.91,23.47,2.92s15.35-11.3,19.16-15.95l3.81-4.65v4.49l-3.81,3.98
			c-3.81,3.98-11.42,11.95-19.16,13.62c-7.74,1.68-15.61-2.94-23.47-2.29c-7.87,0.65-15.73,6.56-23.47,4.71
			s-15.35-11.47-23.09-10.27c-7.74,1.2-15.61,13.23-23.35,13.64s-15.35-10.78-23.09-16.07c-7.74-5.28-15.61-4.65-23.09-4.91
			c-7.49-0.26-14.59-1.4-22.08,2.52s-15.35,12.91-23.22,10.39s-15.73-16.56-23.47-19.63c-7.74-3.08-15.35,4.81-23.09,13.64
			c-7.74,8.83-15.61,18.61-23.35,22.93c-7.74,4.32-15.35,3.17-23.09-1.54c-7.74-4.71-15.61-12.99-23.47-17.6
			c-7.87-4.61-15.73-5.56-23.47,9.86s-15.35,47.19-23.09,44.69s-15.61-39.29-23.35-46.15c-7.74-6.86-15.35,16.2-23.09,58.29
			s-15.61,103.2-23.09,98.69c-7.49-4.51-14.59-74.66-22.08-109s-15.35-32.88-23.22-42.07s-15.73-29.02-23.47-36.67
			c-7.74-7.65-15.35-3.11-23.09,2.27c-7.74,5.38-15.61,11.61-23.35,19.54c-7.74,7.92-15.35,17.55-23.09,23.42
			c-7.74,5.87-15.61,8-23.47,1.03c-7.87-6.98-15.73-23.07-23.47-31.34c-7.74-8.28-15.35-8.75-23.09-5.2s-15.61,11.12-23.35,11.34
			s-15.35-6.92-23.09-4.89s-15.61,13.23-23.09,19.97c-7.49,6.74-14.59,9.03-22.08,12.44s-15.35,7.94-19.29,10.21l-3.93,2.27
			C-1.49,396.33-1.49,395.35-1.49,395.35z"/>
		<path id="other-stream" class="st19" d="M-1.49,396.29l3.93-2.27c3.93-2.27,11.8-6.8,19.29-10.21s14.59-5.7,22.08-12.44
			s15.35-17.94,23.09-19.97s15.35,5.11,23.09,4.89s15.61-7.79,23.35-11.34s15.35-3.08,23.09,5.2s15.61,24.37,23.47,31.34
			c7.87,6.98,15.73,4.85,23.47-1.03c7.74-5.87,15.35-15.5,23.09-23.42c7.74-7.92,15.61-14.15,23.35-19.54
			c7.74-5.38,15.35-9.92,23.09-2.27c7.74,7.65,15.61,27.48,23.47,36.67c7.87,9.19,15.73,7.73,23.22,42.07s14.59,104.48,22.08,109
			c7.49,4.51,15.35-56.6,23.09-98.69s15.35-65.15,23.09-58.29s15.61,43.65,23.35,46.15c7.74,2.5,15.35-29.27,23.09-44.69
			s15.61-14.47,23.47-9.86c7.87,4.61,15.73,12.89,23.47,17.6s15.35,5.85,23.09,1.54c7.74-4.32,15.61-14.1,23.35-22.93
			c7.74-8.83,15.35-16.72,23.09-13.64c7.74,3.08,15.61,17.11,23.47,19.63c7.87,2.52,15.73-6.47,23.22-10.39s14.59-2.78,22.08-2.52
			s15.35-0.37,23.09,4.91c7.74,5.28,15.35,16.48,23.09,16.07c7.74-0.41,15.61-12.44,23.35-13.64s15.35,8.42,23.09,10.27
			c7.74,1.85,15.61-4.06,23.47-4.71c7.87-0.65,15.73,3.96,23.47,2.29c7.74-1.68,15.35-9.64,19.16-13.62l3.81-3.98v36.67l-3.81,3.11
			c-3.81,3.11-11.42,9.34-19.16,9.4s-15.61-6.05-23.47-5.91c-7.87,0.14-15.73,6.53-23.47,6.25s-15.35-7.22-23.09-5.66
			c-7.74,1.56-15.61,11.61-23.35,11.71s-15.35-9.76-23.09-14.81c-7.74-5.05-15.61-5.28-23.09-6.72c-7.49-1.44-14.59-4.08-22.08-1.5
			s-15.35,10.39-23.22,5.74c-7.87-4.65-15.73-21.76-23.47-25.12c-7.74-3.35-15.35,7.06-23.09,19.04
			c-7.74,11.99-15.61,25.55-23.35,28.92c-7.74,3.37-15.35-3.45-23.09-10.65c-7.74-7.2-15.61-14.77-23.47-18.71
			c-7.87-3.94-15.73-4.26-23.47,12.97s-15.35,52-23.09,52.06s-15.61-34.6-23.35-40.28c-7.74-5.68-15.35,17.62-23.09,57.86
			s-15.61,97.41-23.09,90.21c-7.49-7.2-14.59-78.76-22.08-115.03s-15.35-37.26-23.22-44.47c-7.87-7.22-15.73-20.66-23.47-25.59
			c-7.74-4.93-15.35-1.34-23.09,3.21c-7.74,4.55-15.61,10.07-23.35,16.86c-7.74,6.78-15.35,14.82-23.09,20.86
			c-7.74,6.03-15.61,10.05-23.47,3.79c-7.87-6.27-15.73-22.83-23.47-29.73s-15.35-4.14-23.09-1.85s-15.61,4.1-23.35,8.54
			s-15.35,11.49-23.09,15.38c-7.74,3.88-15.61,4.59-23.09,5.3s-14.59,1.42-22.08-0.1c-7.49-1.52-15.35-5.26-19.29-7.14l-3.93-1.87
			C-1.49,397.21-1.49,396.29-1.49,396.29z"/>
	</g>
	<g id="annotations">
		<text transform="matrix(1 0 0 1 6.3917 334.7733)" class="st4 st5 st20">Muslim </text>
		<text transform="matrix(1 0 0 1 6.3917 346.7733)" class="st4 st5 st20">bans</text>
		<rect x="364.93" y="281.96" class="st3" width="56.31" height="45.69"/>
		<text transform="matrix(1 0 0 1 370.1373 289.4635)" class="st4 st5 st20">Immigrant </text>
		<text transform="matrix(1 0 0 1 379.4573 301.4635)" class="st4 st5 st20">family</text>
		<text transform="matrix(1 0 0 1 369.4673 313.4634)" class="st4 st5 st20">separation</text>
		<rect x="557.74" y="397.96" class="st21" width="69.06" height="26.75"/>
		<rect x="561.42" y="401.28" class="st3" width="66.36" height="26.14"/>
		<text transform="matrix(1 0 0 1 561.4218 408.7758)" class="st17 st22 st20">Environment:</text>
		<text transform="matrix(1 0 0 1 621.1216 408.7758)" class="st5 st20"> </text>
		<text transform="matrix(1 0 0 1 561.4218 420.7758)" class="st5 st20">Climate Strike</text>
		<rect x="136.41" y="299.77" class="st3" width="98.55" height="45.66"/>
		<text transform="matrix(1 0 0 1 136.4076 307.2688)" class="st4 st5 st20">   Unite </text>
		<text transform="matrix(1 0 0 1 141.4076 319.2687)" class="st4 st5 st20">the Right </text>
		<text transform="matrix(1 0 0 1 136.4076 328.8683)" class="st4 st5 st23">    (Charlottesville)</text>
		<g>
			<rect x="613.3" y="244.86" class="st3" width="62.33" height="38.95"/>
			<text transform="matrix(1 0 0 1 634.024 251.6051)" class="st4 st5 st24">State </text>
			<text transform="matrix(1 0 0 1 627.7941 262.4051)" class="st4 st5 st24">abortion     </text>
			<text transform="matrix(1 0 0 1 621.8641 273.2051)" class="st4 st5 st24">restrictions</text>
		</g>
		<rect x="-0.61" y="240.8" class="st3" width="55.08" height="31.61"/>
		<text transform="matrix(1 0 0 1 -0.6087 248.2984)" class="st4 st5 st20">  Women’s </text>
		<text transform="matrix(1 0 0 1 -0.6087 260.2984)" class="st4 st5 st20">March</text>
		<rect x="43.94" y="372.18" class="st3" width="55.08" height="27.62"/>
		<text transform="matrix(1 0 0 1 43.9431 379.6759)" class="st4 st5 st20">March for </text>
		<text transform="matrix(1 0 0 1 43.9431 391.6759)" class="st4 st5 st20">Science</text>
		<rect x="27.85" y="276.41" class="st3" width="55.08" height="12.75"/>
		<text transform="matrix(1 0 0 1 27.8523 283.9088)" class="st25 st5 st20">Tax March</text>
		<polygon class="st3" points="519.27,328.06 476.04,328.26 475.86,304.01 519.09,303.81 		"/>
		<text transform="matrix(1 -4.783629e-03 7.326383e-03 1 475.9187 311.5169)" class="st25 st5 st20">#Protect</text>
		<text transform="matrix(1 -4.783629e-03 7.326383e-03 1 476.0066 323.5169)" class="st25 st5 st20">Mueller</text>
		<g>
			<rect x="285.74" y="300.62" class="st3" width="77.62" height="53.47"/>
			<text transform="matrix(1 0 0 1 292.7313 308.1142)" class="st4 st5 st20">March For Our </text>
			<text transform="matrix(1 0 0 1 308.6513 320.1141)" class="st4 st5 st20">Lives &amp;</text>
			<text transform="matrix(1 0 0 1 289.3813 332.1141)" class="st4 st5 st20">National School </text>
			<text transform="matrix(1 0 0 1 306.4013 344.1141)" class="st4 st5 st20">Walkout</text>
		</g>
		<rect x="438.8" y="151.41" class="st3" width="88.94" height="48.61"/>
		<text transform="matrix(1 0 0 1 438.8059 158.9075)" class="st8 st22 st20">Supreme Court</text>
		<text transform="matrix(1 0 0 1 506.6059 158.9075)" class="st22 st20">, </text>
		<text transform="matrix(1 0 0 1 438.8059 170.9075)" class="st9 st22 st20">women’s rights</text>
		<text transform="matrix(1 0 0 1 507.5259 170.9075)" class="st22 st20">:</text>
		<text transform="matrix(1 0 0 1 438.8059 182.9075)" class="st5 st20">Kavanaugh </text>
		<text transform="matrix(1 0 0 1 438.8059 194.9075)" class="st5 st20">nomination</text>
		<rect x="156.67" y="168" class="st3" width="41" height="46.1"/>
		<text transform="matrix(1 0 0 1 156.6709 175.5014)" class="st10 st22 st20">Police:</text>
		<text transform="matrix(1 0 0 1 156.6709 187.5014)" class="st5 st20">St. Louis </text>
		<text transform="matrix(1 0 0 1 156.6709 199.5014)" class="st5 st20">police </text>
		<text transform="matrix(1 0 0 1 156.6709 211.5015)" class="st5 st20">protests</text>
		<rect x="211.79" y="179.8" class="st3" width="79.88" height="37.26"/>
		<text transform="matrix(1 0 0 1 211.7933 187.2967)" class="st9 st22 st20">Women’s Rights:</text>
		<text transform="matrix(1 0 0 1 211.7933 199.2967)" class="st5 st20">Women’s March, </text>
		<text transform="matrix(1 0 0 1 211.7933 211.2968)" class="st5 st20">March for Life</text>
		<rect x="534.37" y="188.98" class="st3" width="79.88" height="37.26"/>
		<text transform="matrix(1 0 0 1 534.371 196.4808)" class="st9 st22 st20">Women’s Rights:</text>
		<text transform="matrix(1 0 0 1 534.371 208.4808)" class="st5 st20">Women’s March, </text>
		<text transform="matrix(1 0 0 1 534.371 220.4808)" class="st5 st20">March for Life</text>
		<rect x="71.36" y="419.41" class="st21" width="85.18" height="42.08"/>
		<rect x="75.37" y="423.45" class="st3" width="78.3" height="38.05"/>
		<text transform="matrix(1 0 0 1 75.3671 430.949)" class="st18 st22 st20">Healthcare:</text>
		<text transform="matrix(1 0 0 1 75.3671 442.949)" class="st5 st20">Affordable Care </text>
		<text transform="matrix(1 0 0 1 75.3671 454.949)" class="st5 st20">Act repeal efforts</text>
		<path class="st26" d="M473.38,289.56c-3.61,0-6.54-15.32-6.54-34.23c0-5.96,0.29-11.57,0.8-16.45c1.11-10.6,3.26-17.78,5.74-17.78
			c2,0,3.78,4.68,4.98,12.07"/>
		<line class="st26" x1="473.38" y1="221.11" x2="473.38" y2="197.94"/>
		<path class="st26" d="M274.09,300.28c-3.61,0-6.54-14.5-6.54-32.38c0-5.64,0.29-10.94,0.8-15.56c1.11-10.02,3.26-16.82,5.74-16.82
			c2,0,3.78,4.43,4.98,11.42"/>
		<line class="st26" x1="274.09" y1="236.03" x2="274.09" y2="217.51"/>
		<path class="st26" d="M118.83,322.6c2.52,0,4.56,5.95,4.56,13.29c0,2.31-0.2,4.49-0.56,6.39c-0.78,4.11-2.28,6.9-4,6.9
			c-1.39,0-2.64-1.82-3.48-4.68"/>
		<line class="st26" x1="118.83" y1="349.17" x2="118.83" y2="419.41"/>
		<path class="st26" d="M552.98,289.91c-3.61,0-6.54-7.36-6.54-19.7c0-3.89,0.29-7.55,0.8-10.74c1.11-6.92,3.26-11.61,5.74-11.61
			c2,0,3.78,3.06,4.98,7.88"/>
		<line class="st26" x1="552.98" y1="247.84" x2="552.98" y2="226.77"/>
		<path class="st26" d="M603.96,324.67c2.3,0,4.17,3.89,4.17,10.42c0,2.06-0.19,4-0.51,5.68c-0.71,3.66-2.08,7.14-3.66,7.14
			c-1.27,0-2.41-1.62-3.18-4.17"/>
		<line class="st26" x1="603.46" y1="347.01" x2="603.46" y2="397.96"/>
		<text transform="matrix(0.6728 0.7399 -0.7399 0.6728 156.5484 261.3296)" class="st4 st5 st27">#DefendDACA</text>
		<text transform="matrix(1 0 0 1 215.2612 353.4744)" class="st4 st5 st20">Tax reform</text>
		<rect x="659.16" y="284.44" class="st3" width="59.53" height="29.6"/>
		<text transform="matrix(1 0 0 1 670.5558 291.9342)" class="st4 st5 st20">   Family </text>
		<text transform="matrix(1 0 0 1 665.3058 303.9342)" class="st4 st5 st20">separation</text>
		<rect x="709.69" y="325.74" class="st3" width="59.53" height="29.6"/>
		<text transform="matrix(1 0 0 1 722.3923 333.2393)" class="st4 st5 st20">Climate </text>
		<text transform="matrix(1 0 0 1 726.7723 345.2393)" class="st4 st5 st20">Strike</text>
		<path class="st26" d="M191.78,268.82c-2.1,0-3.8-4.97-3.8-11.1c0-1.93,0.17-3.75,0.47-5.33c0.65-3.43,1.9-5.76,3.33-5.76
			c1.16,0,2.2,1.52,2.9,3.91"/>
		<line class="st26" x1="191.78" y1="247.63" x2="191.78" y2="219.44"/>
	</g>
</g>
<g>
	<g>
		<rect id="education-legend_2_" x="333.98" y="12.97" class="st11" width="25.9" height="25.9"/>
		<g>
			<text transform="matrix(1 0 0 1 367.967 28.9232)" class="st4 st5 st28">Education</text>
		</g>
	</g>
	<g>
		<rect id="immigration-legend_2_" x="515.31" y="14.04" class="st13" width="25.9" height="23.76"/>
		<text transform="matrix(1 0 0 1 547.4212 26.9933)" class="st4 st5 st28">Immigration</text>
	</g>
	<g>
		<rect id="women-legend_2_" x="168.63" y="12.12" class="st9" width="25.9" height="25.9"/>
		<text transform="matrix(1 0 0 1 200.4034 25.0668)" class="st4 st5 st28">Women’s </text>
		<text transform="matrix(1 0 0 1 201.5095 37.0288)" class="st4 st5 st28">rights</text>
	</g>
	<g>
		<g>
			<rect id="women-legend_1_" x="85.69" y="12.97" class="st8" width="25.9" height="25.9"/>
			<text transform="matrix(1 0 0 1 117.6432 23.1083)" class="st5 st28">Supreme</text>
			<text transform="matrix(1 0 0 1 117.6432 35.0682)" class="st5 st28">Court</text>
		</g>
	</g>
	<g>
		<rect id="police-legend_2_" x="258.19" y="12.97" class="st10" width="25.9" height="25.9"/>
		<g>
			<text transform="matrix(1 0 0 1 291.506 28.1794)" class="st5 st28">Police</text>
		</g>
	</g>
	<g>
		<rect id="executive-legend_2_" x="427.47" y="12.97" class="st12" width="25.9" height="25.9"/>
		<g>
			<text transform="matrix(1 0 0 1 457.7019 22.8455)" class="st25 st5 st28">Executive</text>
			<text transform="matrix(1 0 0 1 457.7021 34.8084)" class="st25 st5 st28">branch</text>
		</g>
	</g>
	<g>
		<rect id="guns-legend_2_" x="616.3" y="12.97" class="st14" width="25.9" height="25.9"/>
		<g>
			<text transform="matrix(1 0 0 1 645.8777 28.1794)" class="st5 st28">Guns</text>
		</g>
	</g>
</g>
<g>
	<g>
		<rect id="environment-legend_2_" x="361.01" y="53.14" class="st17" width="25.9" height="25.9"/>
		<text transform="matrix(1 0 0 1 392.5373 70.0403)" class="st4 st5 st28">Environment</text>
	</g>
	<g>
		<rect id="other-legend_2_" x="563.71" y="50.88" class="st29" width="25.9" height="25.9"/>
		<text transform="matrix(1 0 0 1 596.9475 67.8346)" class="st4 st5 st28">Other</text>
	</g>
	<g>
		<g>
			<rect id="race-confed-legend_2_" x="133.29" y="53.14" class="st15" width="25.9" height="25.9"/>
			<text transform="matrix(1 0 0 1 167.1738 63.8344)" class="st4 st5 st28">Racial justice or </text>
			<text transform="matrix(1 0 0 1 167.5317 75.7963)" class="st4 st5 st28">white supremacy</text>
		</g>
	</g>
	<g>
		<g>
			<rect id="healthcare-legend_2_" x="466.52" y="53.14" class="st18" width="25.9" height="25.9"/>
		</g>
		<text transform="matrix(1 0 0 1 497.1068 66.0905)" class="st5 st28">Healthcare</text>
	</g>
	<g>
		<rect x="261.24" y="54.9" class="st3" width="60.83" height="22.37"/>
		<g>
			<rect id="collective-bargaining-legend_2_" x="266.02" y="53.14" class="st16" width="25.9" height="25.9"/>
			<text transform="matrix(1 0 0 1 295.614 62.3691)" class="st5 st28">Collective </text>
			<text transform="matrix(1 0 0 1 295.8416 74.331)" class="st5 st28">bargaining</text>
		</g>
	</g>
</g>
</svg>
