<?xml version="1.0" encoding="utf-8"?>
<!-- Generator: Adobe Illustrator 23.1.1, SVG Export Plug-In . SVG Version: 6.00 Build 0)  -->
<svg version="1.1" id="Layer_1" xmlns="http://www.w3.org/2000/svg" xmlns:xlink="http://www.w3.org/1999/xlink" x="0px" y="0px"
	 viewBox="0 0 1260.1 726.2" style="enable-background:new 0 0 1260.1 726.2;" xml:space="preserve">
<style type="text/css">
	.st0{fill:#BCBCBC;}
	.st1{fill:#010101;}
	.st2{fill:#E3E3E7;}
	.st3{fill:#B8B8B8;}
	.st4{fill:#040405;}
	.st5{fill:#09090A;}
	.st6{fill:#070707;}
	.st7{fill:#0C0C0D;}
	.st8{fill:#040404;}
	.st9{fill:#050506;}
	.st10{fill:#606060;}
	.st11{fill:#626268;}
	.st12{fill:#FAFAFA;}
	.st13{fill:#121213;}
	.st14{fill:#606068;}
	.st15{fill:#6D6D71;}
	.st16{fill:#5A5A5B;}
	.st17{fill:#F6F6F6;}
	.st18{fill:#0F0F10;}
	.st19{fill:#0D0D0E;}
	.st20{fill:#131315;}
	.st21{fill:#080809;}
	.st22{fill:#1A1A1C;}
	.st23{fill:#6F6F71;}
	.st24{fill:#222225;}
	.st25{fill:#58585F;}
	.st26{fill:#5B5B5D;}
	.st27{fill:#646465;}
	.st28{fill:#4E4E4E;}
	.st29{fill:#656568;}
	.st30{fill:#4F4F50;}
	.st31{fill:#2B2B2E;}
	.st32{fill:#030303;}
	.st33{fill:#606061;}
	.st34{fill:#BABABA;}
	.st35{fill:#B7B7B7;}
	.st36{fill:#FCFCFC;}
	.st37{fill:#F7F7F7;}
	.st38{fill:#EEEEEE;}
	.st39{fill:#333335;}
	.st40{fill:#F8F8F8;}
	.st41{fill:#4C4C4C;}
	.st42{fill:#646464;}
	.st43{fill:#414141;}
	.st44{fill:#4A4A4A;}
	.st45{fill:#6A6A6A;}
	.st46{fill:#4B4B4B;}
	.st47{fill:#4E4E4F;}
	.st48{fill:#535353;}
	.st49{fill:#616161;}
	.st50{fill:#636363;}
	.st51{fill:#5F5F5F;}
	.st52{fill:#525252;}
	.st53{fill:#575757;}
	.st54{fill:#545454;}
	.st55{fill:#555555;}
	.st56{fill:#4D4D4D;}
	.st57{fill:#5A5A5A;}
	.st58{fill:#565656;}
	.st59{fill:#6A6A72;}
	.st60{fill:#444445;}
	.st61{fill:#5B5B5B;}
	.st62{fill:#474747;}
	.st63{fill:#505050;}
	.st64{fill:#515151;}
	.st65{font-family:'Roboto'; font-weight: bold;}
	.st66{font-size:24px;}
	.st67{font-family:'Roboto';}
</style>
<g>
	<path d="M27.6,280.9c0-1.8,0-3.6,0-5.6c-0.6,0.4-1.2,0.6-1.4,1c-0.9,1.6-0.9,4.1-3.9,3.6c-2.9-0.5-5.1-3.1-4.7-5
		c2-8.4-3.3-14.4-6.3-20.9c-2.7-6-1.8-12-0.1-17c2.6-7.6,1.8-14.1-1.9-20.4c-2.7-4.5-2.6-8.1,1.2-11.5c6.1-5.3,8-13,10.4-19.9
		c1.7-5,1.1-11,0.6-16.6c-0.3-3.3-0.1-6.7,1.1-9.8c0.9-2.5,1.9-5,0.8-7.7c-0.7-1.6,0.4-2.4,1.2-3.5c9.4-12.8,16.5-26.8,21.3-42
		c1.9-6,5.5-11.4,7.3-17.4c0.4-1.4,1.2-2.8,1.4-4.3c0.9-5.9,1.2-12.2,9.8-11.2c-0.4-1.8-1.3-2.4-2-2.2c-2.1,0.5-3.7,0.1-4.5-1.9
		c-0.8-1.9,0.5-3.2,1.9-4.1c1.2-0.8,1.5-1.6,0.9-2.8c-1.6-3.4-0.9-6.8-0.2-10.3c1.2-5.9-0.4-11.9,1-17.8c0.3-1.4-0.5-2.6-1.1-3.8
		c-1.7-3.6-0.9-7.2,0.7-10.5c1-2.1,2.3-3.6,4.6-0.6c4.4,5.6,10.9,7.5,17.4,9.6c3.2,1,7.6,2.4,7.9,7c0.2,2.3,3.5,2.8,2.4,5.4
		c-0.3,2.2-1.4,4.4-0.7,6.7c2.5-1.3,0.6-3.9,1.8-5.6c2.5-3.2,4.4-6.3,4.1-10.9c-0.3-3.3-0.5-6.9,1.4-10.2c0.6-1.2,0.6-3.1-1.3-4.3
		c-1.6-1-3-3-1.7-5.1c1.2-2,3.1-0.6,4.5-0.2c28.6,7.3,57.1,14.8,85.7,22.1c24,6.1,48.5,9.7,72.8,14.6c44.3,9,89.2,12.9,134,18
		c29.1,3.3,58.5,3.3,87.8,5c21.9,1.3,43.9,2.2,65.9,2c4.3,0,6.5-0.7,5.8-5.6c-0.2-1.3-1.3-3.7,1.4-3.9c2.3-0.2,3.7,1.3,4.1,3.5
		c0.2,0.8,0.4,1.6,0.5,2.5c0.7,5.6,0.8,11.2,9.1,11.3c2.5,0,6.2-0.1,8.5,3c0.7,1,3,0.1,4.6-0.8c5.3-3,8.9-2.4,13.3,1.6
		c1.7,1.5,4.4,1.8,4.9,4.6c0,0.2,1,0.6,1.2,0.4c5.6-4,8.2,0.8,11.4,3.9c2.4,2.3,5.1,0.9,7.4-0.2c2.9-1.4,5.2-5.8,8.9-0.9
		c0.5,0.7,2.9,0,4.2-0.3c5.1-1.1,9.2,3.3,15.1,1.7c-2.9,3.3-5.8,4.9-8.8,5.9c-7,2.1-12.5,6.3-17,11.8c-3.8,4.7-8,8.8-12.6,12.8
		c-1,0.8-3.1,1.5-1.8,3.4c1,1.5,2.8,1.4,4.1,0.9c4.7-1.8,9.2-3.8,13.8-5.7c1-0.4,1.9-1.7,3.1-0.8c1.4,1,0,2-0.2,3
		c-0.5,2.5,4.8,6.1,7.9,5.3c1.4-0.4,2.9-1,4.1-1.8c9.8-6.4,21.4-9.9,28.6-20.2c2-2.8,3.9-2.6,7.2-0.9c-1.8,4.8-7.8,7.6-6.5,14.5
		c2.6-2.8,5.6-3.7,8.9-2.9c3.3,0.8,6.1,2.6,7.8,5.7c1.5,2.7,4,2.6,6.8,3.3c7.1,1.8,11.2-2.3,16.1-5.6c2.1-1.4,5-1.5,7.7-1.6
		c1.3-0.1,2.9,0.1,3.9-0.5c4.4-2.9,7.8-3.8,8.4,3.2c0.1,1.3,1.3,1.3,2.3,1.4c2.2,0.3,4.4-0.6,6.6-0.7c1.9-0.1,3.9-3.2,6.1-1.9
		c1.9,1.1,0.8,4,1.3,6.1c1.1,4.7,3.1,5.6,7.4,3.5c1.1-0.5,2.3-0.6,3.3,0.2c0.6,0.5,1.3,1.1,1,2.1c-0.5,1.4-1.8,1.8-2.8,1.4
		c-5.3-1.7-10.5,2.2-16-0.3c-3.2-1.4-1.2,2.9-2.7,4.1c-1.3,0-2.1-1.1-3.2-1.8c-4.8-3.3-7.7-3.2-12.4,0.6c-0.7,0.6-1.8,1.1-2.7,1.2
		c-4.3,0.4-8.6,0.2-10.6,5.5c-0.4,1-3.1,3.2-4-0.6c-0.1-0.3-1.7-0.5-1.7-0.5c-1.7,4.3-7.9,4-8.7,9.6c-0.7,4.7-3.1,9.7-5.8,13.2
		c-2.3,3-3.8,5.9-5,9.2c-0.3,0.7-0.1,1.6-0.3,3.6c7.1-5.7,10.1-13.7,15.6-19.8c1.7,2.7,0.1,4.1-0.6,5.7c-2.9,6.3-6.1,12.7-5.3,19.9
		c0.3,2.4-2.1,3.4-1.9,5.4c0.9,10.3-6,20.7,0.6,30.9c0.6,0.9,0.6,2.3,0.5,3.4c-1,6.5,0.7,12.4,4.1,17.9c0,1.7,1.1,2.8,2.1,4
		c1.5,5.2,5.6,3.5,8.6,2.6c2.9-0.9,5.8-2.8,7.4-5.7c5.8-10.7,9.8-22,3.3-33.5c-4-7-3.7-14.5-5.2-21.8c-0.3-1.6,0.7-2.9,1.3-4.2
		c0.9-2,2-3.8,1.9-6.1c-0.2-5.9,0.5-11.4,6.8-14.4c1-0.5,0.9-2.2,3-2.6c0,2,0,3.8,0,5.7c0,0.9-1.3,2,0.2,2.5
		c1.4,0.5,2.1-0.7,2.6-1.7c1.2-2.5,1.6-5.1,1-7.8c-0.7-3.2-0.3-5.6,3.3-6.6c2.1-0.5,2-1.8,1.1-3.3c-1.8-2.9-0.2-5.2,1.6-7.1
		c1.7-1.7,3.9-1,6-0.1c6.3,2.4,12.7,4.5,19.1,6.8c3.2,1.1,5.7,2.8,3.8,6.7c-0.4,0.9-0.4,1.6,0.3,2.2c3.1,3.1,3.1,7.2,3.4,11.1
		c0.2,2.6-1.4,4.6-1.8,6.7c-1.1,4.9-5.9,7.1-6.8,11.8c-0.4,2.2-0.4,3.8,2,4.8c2.2,0.9,3.9,0.8,5-1.3c1.2-2.2,2.2-4.5,3.4-6.6
		c2.7-4.9,8.7-6.3,10.6-2c4.4,9.6,9.2,19.4,8.2,30.6c-0.2,2.7-0.5,2.9-3.2,1.7c-2-0.9-1.9,0.6-2.1,1.5c-2,7.1-4.3,14.2-8.3,20.5
		c-0.7,1.1-0.9,2.3,0.6,2.9c3.1,1.2,6.2,2.5,9.3,3.3c0.7,0.2,1.9-1.7,3-0.5c4.3,4.6,8.3,2.2,12.3-0.4c2-1.3,4.2-0.8,6.3-0.9
		c1.8-0.2,2.1-1.8,3-3c3.8-4.2,8.2-7.8,13.3-10.4c10-4.9,17.9-12.6,26-20c2.3-2.1,2.2-5.8,5-7.8c1.1-0.8-0.7-2.6-1.6-3.8
		c-4.9-6.3-4.8-7.1,2.4-10.4c6.6-2.9,13-3.8,20.6-2.6c5.2,0.8,12.5-0.9,16.7-6.7c1.1-1.6,2-3.5,4.2-4c1.6-0.4,1.5-1.6,1.2-2.8
		c-0.6-2.3-1.2-4.5-0.5-6.9c0.3-0.9,0-1.7-0.8-2.1c-6.3-2.8-2.6-5.5,0.1-7.9c3.9-3.4,5.4-8.3,8.2-12.4c4.4-6.5,9.7-10.5,17.8-12.1
		c15.6-3.1,31-7.4,46.4-11.4c1.2-0.3,3.3-0.3,3.2-1.9c-0.3-4.3,2.6-5.9,5.6-7.8c6.5-4,6.1-11.8,9.3-17.6c1.2-2.2-1.9-4.1-1.3-6.6
		c1.7-6.6,0.4-13.7,2.9-20.2c1.8-4.8,3.4-9.7,5-14.6c0.4-1.2,0.7-2.2,2.2-2.1c1.1,0.1,1.8,0.5,2.1,1.7c1.6,5.2,3.9,3.3,6.7,0.9
		c5.6-4.8,8-4.9,13.3-1.8c1.8,1.1,3,2.5,3.6,4.5c2.7,9.1,5.5,18.1,8.3,27.2c0.5,1.5,0.3,3.8,2.7,3.4c5-0.8,5.4,3.3,6.4,6.1
		c1,2.9,1.7,4.3,5.3,3.9c3.7-0.5,4.3,3.8,6.1,6c1.3,1.6-0.2,3.9-1.6,4.7c-5.2,3.1-9.4,7.1-12.3,12.4c-1-0.8-1.9-1.5-2.7-2.1
		c-0.7,0.2-1.1,0.5-0.8,1.1c1.4,3.3,0.5,5.1-3.2,3.8c-1.9-0.7-2,1.5-3.4,1.3c-1.2-0.2-2.7,2.1-3.7-0.4c-0.4-0.9-0.7-2.1-2.1-1.2
		c-0.8,0.5-0.8,1.3-0.4,2.2c1.3,2.7-1.2,5.4,0.1,8.3c0.3,0.6-0.6,2.2-1.3,2.5c-4.4,1.7-6.6,5.7-9.7,8.8c-0.6,0.6-1.8,0.8-2.7-0.1
		c-0.7-1.5-0.4-2.9,0.3-4.3c4.4-8.3,8-17,12.9-25.1c0.4-0.7,1.4-1.7,0.6-2c-1.4-0.5-1,1.1-1.4,1.9c-4.3,9.4-8.4,18.9-14.1,27.6
		c-0.4,0.9-0.8,1.8-1.3,2.8c-1.4,1.9-3.4,2.8-5.7,3c-15.6-1.8-31.3-3.8-46.8-6c-1,0-1.8-0.5-2.7-1c-1-0.6-1.9-1.3-3.1-0.5
		c-0.4,0.3-0.6,0.8-0.3,1.3c0.9,1.5,2.2,0.8,3.4,0.5c0.5-0.1,0.9-0.2,1.4-0.3c16.1,2.1,32.3,3.9,48.4,6.2c1.3,0.7,1.8,1.8,1.8,3.3
		c-1.4,4.2-4.3,7.5-6.7,11.1c-5.1,7.8-10.3,15.5-15.5,23.3c-1.1,1.6-2,3.5-3.9,4.4c-3.8-0.9-2.2,1.3-1.7,3c-0.7,3-2.5,5.4-4.1,7.9
		c-18.6,27.7-36.8,55.6-55.2,83.4c-0.9,1.4-1.7,2.8-3.1,3.9c-4.9-0.2-8.5,2.2-11.8,5.5c-3.7,0.1-7.4,0.7-11-0.5
		c-2.2-2.1-4.6-0.7-7-0.4c-17.1,0.3-34.2-1.7-51.2-2.2c-11.1-0.3-22.2-1-33.3-1.9c-13.9-1-27.7-1.5-41.6-2.1
		c-4.3-0.2-8.6-0.8-12.9-0.8c-3-0.1-6,0.3-9-0.5c-3.6-0.9-7.2-0.3-10.8-0.5c-15.8-1.4-31.7-1.2-47.6-2.9c-6.4-0.7-12.9-0.7-19.3-0.8
		c-10.1-0.3-20.2-0.9-30.3-1.5c-14.9-0.9-29.7-1.5-44.6-2.5c-9.9-0.7-19.8-1.7-29.8-1.3c-0.5,0-1,0-1.4-0.1c-2-0.4-4.1-0.8-5.2-2.9
		c-1,2.5-3.3,1.9-5.2,2c-17.6-0.7-35.2-1.4-52.7-2.9c-6.3-0.5-12.6-0.7-18.9-0.8c-10-0.3-19.9-0.9-29.9-1.5
		c-15.1-0.9-30.2-1-45.2-2.7c-6.6-0.7-13.3-0.6-19.9-0.9c-9.6-0.4-19.3-0.9-28.9-1.5c-14.7-0.9-29.5-1-44.1-2.6
		c-6.9-0.8-13.9-0.6-20.9-0.9c-10-0.3-19.9-1.8-29.9-1.3c-1.8,0.1-3-1.2-4.5-1.9c-0.8-0.3-1.6-0.4-2.2,0.4c-0.3,0.4-0.4,0.9-0.2,1.4
		c0.3,1,1.1,1.2,2,1c1.6-0.3,3.1-1.1,4.8-0.9c16.8-0.1,33.5,1.7,50.3,2.2c11.7,0.3,23.5,1.3,35.2,1.9c19.2,1,38.4,2.2,57.6,3
		c12.1,0.6,24.2,1.3,36.3,2c19.2,1.1,38.4,2.1,57.6,3c11.9,0.6,23.8,1.2,35.8,2c21.2,1.4,42.4,1.9,63.5,3.7
		c6.8,0.6,13.6,0.7,20.4,0.9c10.1,0.3,20.3,0.9,30.3,1.5c14.5,0.9,29.1,1.5,43.7,2.5c10.9,0.8,21.9,1.8,32.8,1.3
		c4.2,1,8.4,1.1,12.6,0.9c3,0.1,6.1-0.3,9.1,0.7c7.1,1,14.2,0.7,21.3,1c10.7,0.5,21.5,0.9,32.3,1.5c13.9,0.8,27.8,1.1,41.6,2.6
		c6.9,0.8,13.9,0.7,20.9,0.9c10.6,0.4,21.2,1.9,31.8,1.3c1.8,0.1,3.5,0.2,5.3,0.5c3.7,0.9,7.5,0.1,11.2,0.7c1.1,0.5,1.8,1.3,1.8,2.6
		c-1.3,2-3.5,2.4-5.5,3.1c-20.5,7.8-40.9,15.8-61.3,23.7c-2.5,1-4.9,2-7.6,2.2c-2.3-1.2-3.5-0.3-4.2,1.9
		c-12.5,5.8-25.6,10.3-38.5,15.3c-28.5,11.1-57.1,22.1-85.6,33.1c-43.3,16.7-86.5,33.5-129.8,50.2c-33.4,12.9-66.7,25.8-100,38.7
		c-42.1,16.4-84.4,32.6-126.5,49c-2.5,1-5,1.7-7.6,2.3c-0.6,0-1-0.2-1.3-0.7c-0.9-2.4-2.1-4.6-4.5-5.7c-2.5-1.2-3.9-3.1-4.6-5.6
		c-1-3.6-3.6-5-7-5.4c-10.1-1.2-20.1-2.1-30.2-3.5c-2.8-0.4-2.9,0.7-3.2,2.7c-1.3,8.5-1.3,8.4-10,7.1c-16.1-2.4-32.2-4.8-48.3-7.1
		c-2.6-0.4-4.8-1.2-7-2.5c-21.5-12.6-43-25.3-64.6-37.8c-3.3-1.9-6.6-3.5-2.1-8.2c-10.4-1.3-20.1-2.6-29.8-3.8
		c-6.1-0.8-12.2-1.4-18.3-2.2c-3.3-0.4-3.5-1-1.5-3.6c0.3-0.5,0.6-1.7,0.5-1.7c-4.3-1.9-1.5-5.6-2-8.3c-1.7-8.6-7.4-14.7-13-20.8
		c-0.9-1-1.8-0.2-2.7-0.3c-1.4-0.2-2.5-0.4-2.4-2.8c0.1-3.6-0.5-6.9-5.9-7.1c-3.5-0.1-7-3.1-8.3-6.3c-1.2-3-3.2-4.9-5.3-6.9
		c-1.7-1.6-4.1-1.1-6.1-1.9c-2.9-2-6-3.4-9.6-3.8c-4-0.5-5.5-3.3-3.9-6.8c1.4-3-0.1-6.6,2.2-9.3c0.2-0.3,0.2-1.2-0.1-1.4
		c-4.8-3.2-2.2-9.3-5.4-13.3c-3.8-4.6-4.4-10.8-6.9-16.2c-0.7-1.5-1.4-3-2.2-4.4c-2-3.7-1.9-6.9,1.4-10c3.5-3.4,2.7-6.8-1.6-9
		c-3-1.5-5.1-4.6-4.6-7.6c0.7-4.4-1.1-8.9,0.9-13.1c2.7-0.7,5.1-2,7.7-3.2C29.6,281.3,28.3,282,27.6,280.9z"/>
	<path d="M909.5,305.9c0,0.6,0,1.7,0.7,1.6c4.7-0.7,8,2.4,11.8,4c2.7,1.1,3.6,2.5,2.8,5.2c-0.6,2.2-0.3,4.2,1.4,6
		c1.2,1.3,1.6,2.8,0.3,4.4c-1.1,1.4-1.4,3.2,0.1,4.5c3.7,3.2,0.6,3.6-1.7,4.5c1.2,1,2.9,0.8,3.9,0.4c5.6-2.1,7.7,1.1,9.5,5.4
		c1.6,3.8,3.6,7.4,5.5,11.4c-7.1,0.6-11.4,5.7-17.6,8.2c2.8,2.1,4.8-0.6,7-0.6c3-0.1,5.9-0.9,9.2-0.8c2.2,0.1,2.8,0.5,3.5,2
		c0.9,1.8,2.2,4.1,0.3,5.4c-2.5,1.8-3.4,4.4-4.8,6.8c-0.7,1.3-1.7,1.9-3.1,2.3c-1.8,0.6-4.1,0.1-4.5,3c-0.4,2.7,1.5,3.9,3,5.3
		c1.2,1.1,3.8,1.1,2.1,3.8c-1.3,2-0.6,4.9-4.7,5.2c-9.9,0.6-20.3,10.8-22.1,20.9c-0.5,2.9-0.4,5.1-5.1,5
		c-8.5-0.3-17.5,9.9-17.6,18.6c-0.1,4.2-1.1,7.1-5.7,8.6c-3,0.9-4.3,4.8-5.9,7.3c-3.3,5.2-8.6,8.4-12.4,13.2
		c-3.9,4.9-7.7,9.8-9.2,15.6c-1.9,8-5,15.9-4.1,24.5c1,9.4,4.3,18.2,8.5,26.4c3.7,7.2,7.9,14.2,13.2,20.5c3.4,4,7.4,7.7,6.9,14
		c-0.2,2.7,1.6,5.3,3.3,7.6c5.3,7.3,9.9,15.2,13.2,23.5c3.5,9,3.9,18.9,3,28.4c-0.3,3.5-2.6,6.9-2.4,11c0.1,1.4-1,4.8-4.8,4.3
		c-1.7-0.2-3.6,2.1-5.6,2.9c-6.2,2.5-5.6,2.2-7.9-4.2c-1.6-4.4-3.7-11.3-8.9-10.8c-7.5,0.6-8.1-3.8-9.8-8.4
		c-0.7-1.8-2.2-2.9-3.6-4.1c-2.5-2.2-4.1-4.7-3.9-8.2c0.1-1,0.6-2.6-1.2-2.7c-1.9,0-0.4,1.5-0.7,2.1c-1,1.6-2,1.1-3-0.1
		c-3.5-4.2-6-9.2-10.4-12.7c-1.3-1-0.3-2.1,0.2-3.1c1.3-2.5,2.5-5.1,3.7-7.6c-1.4-1.2-2.6-0.2-3.8,0.2c-1.3,0.5-1.1,3.8-3.4,2
		c-1.7-1.3-2.7-3.2-2.3-5.7c1-6.2,2-12.5,1-18.9c-0.8-4.9-2.8-8.5-8.2-10.7c-4.1-1.8-8.6-4.6-11.2-9c-3.6-6.2-14-11.7-18.9-9.4
		c-3.3,1.5-5,5.5-8.7,7c-1.5,0.6-2.7,2.1-4.2,2.7c-2.3,0.9-4.8,1.4-7.2,2c-3.8,1-2.5-3.1-4.3-4.3c-9.5-6-19.2-11.5-31.1-9.1
		c-4.2,0.8-8.5,1.8-12.5,3.2c-8.6,2.9-11.8,1.6-14.3-7.6c-1.1-0.4-1.3,0.6-1.9,1.1c-2.3,1.9,1.7,8.3-5.3,7.1
		c-3.3-0.6-6.7,1.8-10.5,0.2c-5.2-2.1-9,2.3-13.2,4.5c-2.2,1.2-4.1,2.8-6.2,4.2c-1.1,0.7-2.4,1.3-2.1,3c0.2,1,1.2,1.1,1.9,1.3
		c1.4,0.3,3,1.3,3.9-0.7c0.7-1.6,1.3-2.8,3.2-1.2c1.4,1.1,3.3,1.9,2.9,4.2c-0.3,1.9-1.8,2.8-3.2,2.4c-3.7-1-4,1.5-4.5,3.8
		c-0.6,3.3,2.3,3.5,4.2,4.4c2.6,1.2,6-0.5,8.1,2.8c1,1.6,3,2.5,0.8,4.7c-1.8,1.9-4.2,1.8-5.2,0.5c-2.6-3.4-6-4.4-9.8-5.1
		c-1.1-0.2-1.7-0.8-1.9-1.9c-0.2-1,0.1-2.7-1.9-1.9c-1.1,0.4-2,1.1-1.9,2.6c0.1,1,0,2-0.3,2.9c-1.2,2.6-2.5,4.6-5.3,1.3
		c-2-2.4-4.5-2.6-6.7,0.1c-3,3.8-9.6,3.6-11.9-0.7c-1.8-3.5-4.1-5.9-8.1-6.3c-1.6-0.2-1.6-1.5-2.1-2.4c-0.4-0.7-0.5-1.8-1.4-1.9
		c-2.3-0.2-4.7,0.8-6.7-1.6c-0.3-0.4-3.7,0.9-3.9,2.8c-0.4,3.8-3,3.9-5.6,3.8c-2-0.1-4.2-0.2-5.9-1.1c-11.5-6.3-22.9-3-34.3,0.3
		c-1.6,0.5-3.2,1-4.7,1.5c-2.4,0.8-5,0-5.5-1.9c-1.4-5.2-4.2-0.8-5.4-0.5c-2,0.6-1.3,2.6,0.1,4.3c1.4,1.7,1.5,4,0,6
		c-8.3,10.7-18.7,17.1-32.7,16.5c-2-0.1-2.3-2.3-4.3-2.7c-0.2,2,1.5,2.7,2.3,4c0.6,1,2.6,1.8,1.5,3.2c-0.8,1.1-2.5,2-4,1.4
		c-2.7-1.1-2.9,0-3.8,2.4c-1.6,4.3-6.3,6.6-8.3,11c-1.1,2.5-2.6,5-3.7,7.6c-0.8,1.8-0.6,4.5-3.7,4.6c-0.9,0-1.3,1.6-0.8,2
		c3.8,2.8,1.1,4.9-0.4,7.3c-0.5,0.8-0.8,2.1-0.4,2.9c2.8,5.9,3.7,12.4,5.9,18.5c0.5,1.3,2,2.9-0.2,3.7c-2,0.6-4.2,2.9-6.4,0.6
		c-1.5-1.6-3.1-2.9-5.1-2.7c-6.9,0.6-12.9-2.4-18.6-5.4s-12.2-5-14.4-13.4c-1.6-6.1-4.6-11.9-4.7-18.5c0-0.7-0.6-1.9-1.2-2.1
		c-8.3-3.2-8.3-12.9-14.6-18.1c-4.3-3.6-6.5-10.8-7.5-16.8c-1.2-7.3-6.9-10.1-11-14.6c-0.8-0.8-2.3-1.3-2.6-2.2
		c-1.5-4.9-5.5-5.6-9.7-6.2c-4.1-0.6-8.6-2-12.1-1.7c-4.6,0.4-10.7,2.4-12.3,8.6c-1,3.6-3.2,6.4-5.5,9.1c-2.1,2.4-4.2,2.9-6.4,0.9
		c-4.4-3.9-10.2-5.8-14.7-9.4c-4.6-3.7-10-7.2-11.8-13.5c-0.3-1.1-0.9-2.3-0.7-3.4c1.2-6-3.6-10.5-4-16.1c-0.1-1.6-1.7-2.9-3.3-3.6
		c-5.6-2.5-8.6-7.4-11.6-12.3c2.3-2.8,5.8-3.1,8.8-4.3c40.4-15.6,80.7-31.2,121.1-46.8c34-13.2,68.1-26.3,102.1-39.5
		c2.3-0.9,4.7-3.4,7.4-0.6c0,12.4,0,24.7,0,37.1c0-12.3,0-24.6,0-36.8c-0.4-3.1,2.2-3.4,4.1-4.1c17.7-7.1,35.6-13.9,53.4-20.7
		c32.2-12.4,64.4-24.9,96.6-37.4c28-10.8,56-21.7,84-32.5c27.7-10.7,55.4-21.3,83.1-32.1c1.6-0.6,3-1.4,4.8-1
		c2.3,0.9,4.4,2.2,6.5,3.4c0.3,0.4,0.5,0.8,0.5,1.3c-1.4,4.7-1.4,4.7,4.6,4.7C909.4,304.1,910,304.8,909.5,305.9z"/>
	<path d="M145.7,583c-10.7,3.9-21.4,7.9-32.1,11.8c-1.9,0.3-3.5,1.3-5.2,1.8c-3.9,3.3-7.5,6.8-8.9,12.1c-0.3,1.3-1.8,2.5-3.1,3.6
		c-1.7,1.3-6.3,3.1-0.6,5.6c1.5,0.6,0.5,1.7-0.1,2.8c-2.5,4.4-7.4,6.1-10.5,9.7c-3.3,3.8-8.9,5.6-11.2,9.3c-3.8,6.2-10,5.2-15.1,7.2
		c-2.3,0.9-4.4,1.5-6.3,3.1c-2.3,0.1-2.3-1.3-2-3c2.7-2.4,5-5.6,9.4-3.6c0.4,0.2,1.3,0.2,1.3,0.1c2.5-6.8,11.1-6.7,14.2-12.9
		c1.8-3.5,1.2-7.9,3.9-11.3c-2.2,3.2-6.8-3.1-8.4,3c-1.3-2.5-2.6-4.3-5.2-5.3c-3.2-1.2-4.6,1.8-7.1,2.1c-1.3-3.7,1.3-7.5-0.3-11.2
		c-0.7-1.7-1.1-2.1-3-1.3c-4.7,1.9-9.7-2.7-9.1-7.9c0.1-1.1,0.4-2.7-0.2-3.3c-4.3-4.4-1.3-7.6,1.5-10.9c1.2-1.4,2.5-2.6,3.1-4.4
		c0.9-2.4,2.5-4.2,5.2-1.6c0.1,0.1,0.2,0.3,0.4,0.3c3.6,0,6.4-2.4,9.9-3c1.8-0.3,1.4-3,0.9-4.9c-0.2-0.8-0.5-1.6-0.4-2.4
		c0.1-1.1,2.7-1.8,0.9-3.2c-1.5-1.2-3.1,0.3-4.6,0.8c-5,1.7-9.7-0.3-14.4-1.5c-0.8-0.2-1.2-1.1-1.2-2c0.3-3.2-0.2-5.8-3.6-7.4
		c-1.6-0.8-0.5-1.8,0.8-2.3c3.6-1.4,7.1-3,10.7-4.2c2-0.7,3.9-1.6,3.7,2.6c-0.2,3.2,4,2.4,6.2,2.4c1.3,0,1.8-0.9,1.6-3.3
		c-0.3-3.9-1.5-4.9-4.6-5.6c-0.9-0.2-1.7-0.9-1.9-2.1c-0.4-3.8-3.2-6-5.6-8.5c-0.8-0.9-2.6-1.6-1.2-3.7c1.1-1.5,1.5-3,4-2.6
		c3.9,0.7,6.6-1,8.1-4.9c2.2-5.9,8.3-6.8,13.1-9c2-0.9,4.4-0.9,5.9-2.9c0.8-1.1,2-1.8,2.9-0.6c2.3,3.2,5.4,3.1,8.7,2.8
		c1-0.1,2,0.2,2.3,1.5c0.3,1.6,2,2.4,2.9,2.3c6.8-1.3,13.1,2.4,19.6,2.1c3.5-0.2,6.7-1.7,10.3,0.3c2,1.1,2.9,2.2,3.3,4.4
		c3.5,18.3,7.2,36.6,10.9,54.8c0.2,1.1,0.7,2.2,1,3.3C147,582.7,146.6,583.1,145.7,583z"/>
	<path d="M903.6,298.5l-0.1-0.4c5.2-3.1,6.9-7.4,4.4-13.1c2.1-5.1,5.6-9.4,8.7-13.9c9.7-14.3,18.7-29,28.5-43.3
		c1.2-1.8,2.1-3.8,3.9-5.2c3-0.1,2.6-2.3,2.7-4.2c5.7-9.6,12.2-18.6,18.2-28c8.4-13.4,17.4-26.3,26.1-39.4c0.6-1,1.2-2,2.5-2.2
		c1.1,0.2,1.4,0.9,1,1.8c-3.1,6.3-4.2,12.7-1.9,19.5c0.7,2.2,0.1,4.6-1.1,6.7c-0.9,1.1-2.3,2.1-0.1,3.3c4,1.1,6.8,3,9.4,6.9
		c3.7,5.7,6.7,5.4,12.3,1.3c0.2,3.6-7,9.7-10.7,8.5c-2.8-0.9-4-0.8-5.2,2.1c-0.7,1.8-3.2,2.1-4.9,3c-0.3-0.5-0.5-0.8-0.6-1.1
		c-0.5-1.5,1.4-4.3-1.2-4.3c-2.5,0-2.3,3.1-1.9,4.8c0.8,3.8-0.8,5.6-4.1,6.5c-6.4,1.6-11.8,6.1-18.7,6.2c-2.5-0.7-3.2,1.1-3.9,2.9
		c-0.8,1.3-1.8,2.2-3.2,2.9c-1.9,0.1-2.9,1.6-4.1,2.8c-0.5,0.8-3.3,1.7,0.1,2.4c4.8,1.1,8.4-3.3,13-3c2,0.6,3-0.7,3.9-2.2
		c2.1-3.1,4.2-6.1,7.7-1c-8.2,7.7-17.5,14.3-28.7,17.7c-1.1,0.3-1.7,0.5-2.4-0.5c-0.6-0.8-0.9-2.4-2.6-1.3c-1.4,0.9-1.9,2.2-2,3.8
		c-0.1,1.7,1.1,2,2.2,2.1c3.4,0.1,3.7,2.3,4.1,5c1.4,9.7,0.6,18.8-5.7,26.9c-1.2,1.6-1.4,3.9-2.1,6c-4.9-4.4-12.2-3.2-17-7.7
		c4.6,4.8,5,12.6,12.2,15.7c2,0.9,2.8,5,2.6,7.7c-0.5,6-0.4,12-4.2,17.6c-2,2.9-1.3,7.7-2,11.5c-0.5,2.7-0.5,6.9-3.8,6.6
		c-2.9-0.3-1.8-4.4-2-6.9c-0.2-2.9,1-5.5,1.4-8.3c0.2-1.5,3.9-5.2-1.9-4.9c-0.2,0-2.2-3-2-5.3c0.1-2.3-0.2-4.6-3.8-2.8
		c-3.2,1.5-4.9,0.1-5.2-3.8c-0.4-4.6,0.4-9.4-2.2-13.9c-1.5-2.7-1.4-5.8,1.6-7.9c2.1-1.6,1.2-3.2,0.2-5c-0.9,3-2.8,5-5,6.9
		c-0.2,0.2-0.4,0.6-0.4,0.9c0.4,6.7-2.6,14,2.3,19.9c2.4,2.9,2.5,6.6,4.9,9.7c-4.4-1.7-8.5-3.1-13-2.3c-0.3-0.6-0.6-1.2-0.9-1.8
		c-0.3-0.4-0.7-0.7-1.2-0.7c-1.6,0.1-3.1,2.2-4.7,0C901.2,301.4,903,300.1,903.6,298.5z"/>
	<path class="st0" d="M570.6,420.9c-16,6-32,12-47.9,18.1c-63.3,24.5-126.5,49-189.7,73.4c-0.5,0.2-1,0.3-1.4,0.4
		c-0.7,0.3-1.3,0.6-2,1c-0.6-0.7-0.5-1.3,0-2c42-16.3,83.9-32.6,125.9-48.8c115.1-44.5,230.1-89.1,345.2-133.6
		c5.9-2.3,11.8-4.5,17.7-6.7c0.7-1.4,2.1-1.4,3.4-1.5c24.1-9.3,48.1-18.5,72.2-27.8c0.8-0.3,1.6-0.5,2.4-0.7c1.1,0.3,1.6,1,1.3,2.2
		c-1.8-0.4-3.2,0.5-4.8,1.1c-106.1,41-212.2,82.1-318.3,123.1c-1.1,0.4-2.1,1-3.1,1.5C571.4,421.2,571.1,421.4,570.6,420.9z"/>
	<path class="st1" d="M114.8,597c9.6-3.7,19.2-7.3,28.7-11.2c2.8-1.2,3.8-0.6,4.2,2.4c0.4,3.1,1.5,6.2,1.7,9.3
		c0.3,4.3,2.9,4.1,5.4,2.6c2.1-1.3,2.5-0.9,4.1,0.9c2.6,3,6.8,4.4,9.5,7.6c1.6-1.5,3.1-2.7,3.5-5.2c0.6-3.7,2.6-3.5,5.7-1.5
		c7.8,5.1,14.4,11.3,20.9,18c1.8,1.8,4.5,1.5,6.9,2c4.1,0.9,7.3,6.7,5.8,10.7c-0.6,1.6-1.9,3.2-2.9,1c-1.3-3.1-2.7,0.2-3.8-0.6
		c-0.9-1.2-2.3-1.9-3.5-2.7c-2.4-1.6-5.3-2.7-5.1-6.5c0.1-1.6-1.9-2.1-2.8-3.3c-0.1-0.2-0.2-0.4-0.3-0.6c-3.4-0.9-3.6-4.8-6.1-6.4
		c-1.2,0.1-2.2-0.3-3-1.3c-3.4-0.2-7.1-1.7-10,1.5c-6-0.4-11.1-4.3-15.2-7.4c-3.3-2.5-4.8-0.2-6.9-0.8c-3-0.9-6-2.5-9.2-1.4
		c-6.2,2.2-11.3-1-16.1-3.8c-2.1-1.2-3.3-1.3-5.2-0.5c-2,0.9-1.5,2.2-1.3,3.9c0.3,2.1,0.6,4.5-3.2,4.4c-3.8-0.1-5.2,4.1-8.2,5.8
		c-1.7,1-2.9,1.9-4.9,1.3c2.1-3.3,0-7,1.7-10.6c1.1-2.4,1.8-4.3,4.4-5C111.4,598.9,113,597.8,114.8,597z"/>
	<path d="M329.2,628.8c5.4,3,10.1,4.5,14.6,6.5c2.2,1,4.9,2.4,4.7,5.8c-0.1,1.8,1.5,2.4,2.7,3.3c4.2,3.4,3.9,5.4-1.2,7.7
		c-3,1.3-6.4,1.7-9.2,3.8c-1.2,0.9-2.5,1.6-3.2,3c-1,2.2-2.1,3.4-5,2.1c-2.6-1.2-4.4-2.4-3.4-5.5c1.1-3.6-0.9-6.4-2.3-9.4
		c-1.1-2.3-1.5-4.1,0.9-6C331.1,637.3,330.5,633.5,329.2,628.8z"/>
	<path class="st2" d="M329.6,511.8c0,0.7,0,1.3,0,2c-59.3,22.9-118.5,45.9-177.8,68.8c-1.9,0.7-3.9,2.3-6,0.4c0.3-0.4,0.6-0.8,1-1.1
		c11.8-3.3,23-8.4,34.5-12.8c47.7-18.4,95.5-36.8,143.2-55.3c1.5-0.6,3-1.4,4.5-2.1C329.1,511.6,329.4,511.6,329.6,511.8z"/>
	<path class="st3" d="M998.5,148.8c-15.4,23.3-30.8,46.6-46.1,69.9c-0.4,1.8-0.6,3.6-2.7,4.2c-13.7,20.6-27.3,41.3-41,61.9
		c-1,0.1-1.5-0.1-1.1-1.3c11.1-17,22.2-34.1,33.4-51.1c9.5-14.5,19.1-29,28.7-43.6c0.5-1.1,0.4-2.6,2-3
		c8.6-12.7,17.1-25.4,25.7-38.1c0.5-0.4,0.9-0.4,1.3,0.1C998.5,148.2,998.5,148.5,998.5,148.8z"/>
	<path class="st4" d="M319.7,620.8c-2,0.3-3.3,0.1-3.4-1.4c-0.2-2.5-1.3-3.6-3.8-4.2c-1.3-0.3-2.6-1.7-1.2-3.5c1-1.4,1.9-1.1,3.2,0
		c2.4,2,6-0.8,8.5,1.9c1.1,1.2,3.9,0.8,3.4,3.5c-0.4,2.2-2.2,2.6-4.1,2.9C321.1,620.3,320.1,620.7,319.7,620.8z"/>
	<path class="st5" d="M94.3,636.8c-1.5-0.7-2.8-1.4-3.3-3.2s-0.1-2.9,1.4-3.7c2.5-1.4,5-2.5,5.9-5.7c0.3-0.9,1.8-2.7,3.5-1.1
		c2,1.9-0.3,2.2-1.2,2.6c-1.6,0.7-0.2,0.9,0,1.5C102,630.5,97.9,636.8,94.3,636.8z"/>
	<path class="st6" d="M184.7,620.8c0.2,2.5,2.4,4.4,2,7.6c-4.2-4-8.1-7.8-12-11.6c-1.1-1.8-0.6-3.5,1.3-3.9c2.4-0.5,5.1-0.6,6.7,1.9
		C183.7,616.6,184.9,618.5,184.7,620.8z"/>
	<path class="st7" d="M202.4,632.8c0.2,1.5,2.8,3.4,0.2,4.4c-1.6,0.6-4,1.8-6-1.1c-1.8-2.6-2.4-5.7-4.2-8.4c-1.7-2.5,1.2-1.6,2.2-2
		C197.7,627.5,200.8,629.3,202.4,632.8z"/>
	<path class="st8" d="M244.7,579.9c3.1-0.2,4.1,1.3,4,3.6c-0.1,2.5-1.3,5-3.9,4.6c-2.2-0.3-6-0.2-6.3-3.5
		C238.1,579.8,242.8,581.3,244.7,579.9z"/>
	<path class="st9" d="M280.4,602.9c-5.2,0-5.8-3.6-5.9-5.8c-0.1-1.8,3.6-2.4,5.3-2.8c2.6-0.6,2.8,2.7,3.1,4.6
		C283.2,601.3,282,603.1,280.4,602.9z"/>
	<path class="st10" d="M1018.6,111.2c-5.7,9.2-10.8,18.6-14.3,28.8c-0.6-0.6-1.1-1.3-1.7-1.9c3.7-7.6,7.5-15.2,11.2-22.8
		c0.9-1.8,2-3.5,1.9-5.6C1017.1,109.5,1018.1,109.9,1018.6,111.2z"/>
	<path class="st11" d="M184.7,620.8c-2.4-0.9-2.5-3.4-3-5.2c-0.8-3-3.3-1.6-4.8-2.1c-1.4-0.5-2.8,1.2-2.3,3.3c-1.5-0.7-0.9-2-1-3.1
		c1.5-1.7,0.8-3.2-0.7-4.9c3.4,2.7,6.3,3,9.7,0.5c1.3-0.9,1.9,1.2,1.9,2.5c-0.8,1.6-0.3,3.1,0.3,4.6
		C185.4,617.9,186,619.4,184.7,620.8L184.7,620.8z"/>
	<path class="st12" d="M998.5,147.9c-0.4,0-0.9,0-1.3-0.1c-0.3-0.9-0.6-1.9-0.9-2.8c-0.4-0.7-0.4-1.4,0.3-2c1.2-1.6,2.9-2.3,4.8-2.1
		c1.9,1.2,2.6,2.9,1.9,5C1002.6,148.4,1000.4,147.9,998.5,147.9z"/>
	<path class="st13" d="M194.6,624.4c-3.1-0.4-4.3,1.3-4.4,4.4c-1.1-2.2-3.6-3.8-2.6-6.5c0.8-2.2,2.7-3.1,5.1-2.4v-0.1
		C193.4,621.2,198.1,621.1,194.6,624.4z"/>
	<path class="st14" d="M194.6,624.4c1.9-2.6-1.6-2.9-1.9-4.6c2.5,1,5.3,1.1,4.4,5.4c-0.5,2.2,3.1,2.5,4.5,4.1c1,1.2,2.9,1.6,2.9,3.6
		c-0.7,0-1.4-0.1-2.1-0.1c-2.9-2.1-5.6-4.3-7.8-7.1C194.6,625.2,194.6,624.8,194.6,624.4z"/>
	<path class="st15" d="M94.6,41.9c4.4,4.4-2,6.5-1.9,10c-2.4-6.2-2.2-7.5,0.8-11.1C93.9,41.2,94.2,41.6,94.6,41.9z"/>
	<path class="st16" d="M27.6,280.9c0.3,0,0.7-0.1,1,0c1.7,0.5,3.2-3.6,4.5-0.9c1.4,2.9-2.3,3.1-3.9,3.9c-1.9,0.9-3.9,3-6.4,1.2
		C23.2,282.3,26.9,283.3,27.6,280.9z"/>
	<path class="st17" d="M114.8,597c-0.5,3.1-2.4,3.8-5.1,2.8c-0.4-1-0.8-2.1-1.2-3.1c0.9-2.9,2.6-3.7,5.2-1.8
		C114.1,595.5,114.4,596.2,114.8,597z"/>
	<path class="st18" d="M36,573.6c-2.8,1.2-4.9,1.3-6.3-1.5c-0.3-0.6-0.9-1-1.3-1.4c-1-1.1-3.7,1-3.6-2c0-0.4,0.6-1.1,0.8-1
		c2,0.5,4.6,0.5,5.6,1.8C32.5,571.1,34.2,571.9,36,573.6z"/>
	<path class="st19" d="M664,89.3c-0.8,4.4-4.5,5.9-7.6,8c-0.2,0.1-1-0.2-1.2-0.5c-0.4-0.8-0.1-1.7,0.7-2.2
		C658.6,92.9,661.3,91.1,664,89.3z"/>
	<path class="st20" d="M35.8,601.7c2.6-0.1,5.5-2.8,7.3,0.9c0.5,1.1-0.2,2.5-1.4,2.8C38.5,606.3,37.5,603.5,35.8,601.7z"/>
	<path class="st9" d="M184.6,620.9c0.6-1.9-0.4-3.4-1.2-4.9c-0.9-1.8-1.1-3.3,1.2-4.2c0.6,0.6,1.3,1.1,1.9,1.7
		c-1.6,1.6,0.7,2.2,0.8,3.3C187.5,618.7,187.5,620.8,184.6,620.9z"/>
	<path class="st21" d="M47.6,650.7c-2.2,3.2-6,1.2-8.6,3.1c0.6-4.2,3.4-4.6,6.5-4.7C46.2,649.5,48,648.7,47.6,650.7z"/>
	<path class="st22" d="M93.1,16.4c0.8,2.5,2.2,4.8-0.2,6.9c-1.1,1-2.5-0.1-2.9-0.9C88.5,19.3,91.4,18.3,93.1,16.4z"/>
	<path class="st23" d="M696.5,246.9c-2.6-0.4-5.4-0.6-2.1-4c1.6,0.3,3.9-0.6,4.6,1.6C699.5,246.2,697,245.7,696.5,246.9z"/>
	<path class="st24" d="M24.8,660.3c1.2-2.1,0.2-4.9,3.5-4.7c0.9,0.1,2.6,0,2,1.8C29.5,659.6,27.6,660,24.8,660.3z"/>
	<path class="st25" d="M47.6,650.7c-0.7-0.6-1.4-1.1-2.1-1.7c1.7-0.8,3.5-1.5,5.2-2.3c0.6,1,0.7,2.4,2,3
		C51.6,653.3,49.1,649.6,47.6,650.7z"/>
	<path class="st23" d="M959.4,222.6c0.2-1.4-0.6-3,0.9-4c1.6-1.1,2.2,0.7,3.2,1.3C961.9,220.5,963.6,225.8,959.4,222.6z"/>
	<path class="st26" d="M96.1,26c-0.5,2.4-0.5,4.3-2.4,5.1c-0.3,0.1-1.5-1-1.6-1.6C91.8,27,93.9,26.8,96.1,26z"/>
	<path class="st27" d="M966.7,217c0.2-1.5-1.2-3.3,0.4-4.5c1.7-1.2,2.4,0.9,3.5,1.6C969.3,215,968,216,966.7,217z"/>
	<path class="st28" d="M996.3,180.1c-1.3,0.6-2.8,1-3.2-0.8c-0.5-2.4,1.7-2.3,3.2-2.5C996.3,177.9,996.3,179,996.3,180.1z"/>
	<path class="st29" d="M52.6,379.9c2.5-0.7,4.9-1.5,6.1,1.9C56.5,381.9,54.3,381.7,52.6,379.9z"/>
	<path class="st30" d="M976.4,219.8c-0.1,1.4,0.2,3.2-1.7,3.7c-1.2,0.3-1.8-0.5-2.2-1.5C973.4,220.6,974.9,220.2,976.4,219.8z"/>
	<path class="st31" d="M16.5,661.9c-0.1-0.5-0.2-0.7-0.2-0.8c1.3-1.4,2.3-3.2,4.6-3c0.2,0,0.6,0.6,0.5,0.7
		C20.2,660.5,18.5,661.3,16.5,661.9z"/>
	<path class="st32" d="M302.6,605.9c-1.6,3-3.8,2.1-6.2,1.5C298,604.4,300.3,605.6,302.6,605.9z"/>
	<path class="st33" d="M807.5,238.9c-0.1,4.1-0.2,4.2-3,3C804.7,240,806.2,239.6,807.5,238.9z"/>
	<path class="st34" d="M709.3,281c-23.9-1.2-47.9-2.2-71.8-3.5c-28.6-1.5-57.2-3.1-85.8-4.6c-34.9-1.9-69.8-3.7-104.7-5.6
		c-27.9-1.5-55.9-2.9-83.8-4.4c-34.7-1.8-69.5-3.7-104.2-5.6c-5.2-0.3-10.3-0.4-15.5-0.6c-0.5-0.7-0.5-1.4,0.2-2.1
		c48.2,2.5,96.4,4.9,144.6,7.4c49.7,2.6,99.4,5.3,149.1,8c2.7,0.8,5.5-0.2,8.2,0.6c47.2,2.5,94.4,4.9,141.6,7.4
		c10.8,0.6,21.5,1.3,32.3,2C716.3,282.7,712.7,281.1,709.3,281z"/>
	<path class="st35" d="M879.4,290c-17.9-0.8-35.8-1.5-53.7-2.4c-22.6-1.1-45.2-2.4-67.7-3.7c-9.3-0.5-18.6-1.2-27.8-1.8
		c2.6-1.7,5.7,0.1,8.4-1c13.8,0.6,27.6,1.3,41.4,1.9c1.8,0.1,4,1.3,5.3-1.3c0.4-0.7,1.7-0.8,2.2-0.1c2.4,3.4,6,2.2,9.2,2.4
		c15.6,0.6,31.2,1.7,46.8,2.2c12,0.4,24.1,1.9,36.2,1.9C880.1,288.6,880,289.3,879.4,290z"/>
	<path class="st36" d="M907.5,283.6c0.4,0.4,0.7,0.8,1.1,1.3c4.4,6.7,2.6,11.4-5.1,13.3c-2.4-0.3-4.6-1.2-6-3.4
		c-0.4-0.7-0.9-1.5-1.3-2.2c-0.3-0.5-0.6-1.1-0.8-1.6c-0.7-1.2,0.6-1.6,1-2.2C898.2,283.1,902.7,283,907.5,283.6z"/>
	<path class="st10" d="M996.6,143c-0.1,0.7-0.2,1.3-0.3,2c-11.5-1.5-23-3.8-34.6-4.2c-5.2-0.2-9.9-2.8-15.1-1.8
		c-0.7-1.1,0-1.6,0.9-2.1c14.5,1.9,29.1,3.9,43.7,5.8C992.9,143,994.8,142.9,996.6,143z"/>
	<path class="st37" d="M243.8,254.7c-0.1,0.7-0.1,1.4-0.2,2.1c-1.1,1.6-2.6,2.7-4.6,2.1c-1.4-0.4-2.3-1.4-2.5-2.8
		c-0.3-1.9,0.4-3.4,2.2-4C241.2,251.2,242.8,252.4,243.8,254.7z"/>
	<path class="st38" d="M947.5,136.9c-0.3,0.7-0.6,1.4-0.9,2.1c-1.8,1.8-3.7,2.2-5.4-0.1c-1.2-1.6-0.7-3.2,0.8-4.2
		C944.9,132.9,946.3,134.9,947.5,136.9z"/>
	<path class="st39" d="M952.9,179.1c1,3.2-0.6,6.9,3.5,7.5c0.6,0.1,0.6,1.5,0,1.7c-5.5,2-2,6.7-3.6,11.3
		C952.9,192.2,952.9,186.1,952.9,179.1z"/>
	<path class="st0" d="M896.4,288.8c-0.3,0.7-0.7,1.5-1,2.2c-4-0.1-8-0.2-11.9-0.3c-0.5-1.3,0-2.2,1.1-2.9
		C888.4,289.5,892.5,288.8,896.4,288.8z"/>
	<path class="st40" d="M884.6,287.8c-0.4,1-0.7,1.9-1.1,2.9c-1.5,0.5-2.8,0.3-4-0.7c0-0.7,0-1.4,0.1-2.1
		C881.2,285.2,882.8,284.6,884.6,287.8z"/>
	<path class="st35" d="M709.3,281c3.4-0.6,6.9,0.8,10.2-0.9c3.5-0.1,7-0.3,10.4,0.7c-2.6,1.6-5.7-0.1-8.3,1
		C717.5,281.6,713.3,282.5,709.3,281z"/>
	<path class="st38" d="M1018.6,111.2c-1.2,0-2-0.7-2.8-1.4c-0.5-1.9,0.2-3.2,2.1-3.7c1.2-0.4,2.3,0.3,2.7,1.4
		C1021.2,109.3,1020.6,110.6,1018.6,111.2z"/>
	<path class="st41" d="M545.7,270.7c-2.8,0.3-5.5,0.3-8.2-0.6c0.2-0.9,2.8,0.7,1.6-1.5c-0.7-1.4-0.4-2.2,1-2.6
		c1.1-0.3,2.3,0.6,2.1,1.5C541.3,270.9,544.7,269.4,545.7,270.7z"/>
	<path class="st42" d="M87.4,396.6c-0.5,1.8-2.2,1.6-3.6,1.9c-1.3,0.2-2.3-0.5-2.1-2c0.3-1.8,1.8-1.6,3.1-1.6
		C85.9,394.9,87.1,395,87.4,396.6z"/>
	<path class="st34" d="M721.6,281.7c2.6-1.7,5.6-0.3,8.3-1c2.9,0.1,5.7,0.2,8.6,0.3c-2.6,1.7-5.6,0.3-8.4,1
		C727.3,282,724.4,281.9,721.6,281.7z"/>
	<path class="st43" d="M971.5,185.9c-0.2,1.3-0.9,2.3-2,3c-0.1-0.1-0.1-0.3-0.2-0.4c-0.9-1.3-4-1.8-2.1-4
		C969,182.4,970.1,185.2,971.5,185.9z"/>
	<path class="st44" d="M640.6,256.2c1,0.1,1.7,0.6,1.7,1.5c0,1.4-1,2.1-2.3,2c-1,0-1.4-0.7-1.3-1.7
		C638.9,257,639.5,256.3,640.6,256.2z"/>
	<path class="st45" d="M57.8,129.8c-1.5-0.3-2.1-1-2-2.1c0-1.2,0.7-1.8,1.9-1.7c1.1,0.1,1.8,0.8,1.8,2
		C59.4,129.2,58.4,129.5,57.8,129.8z"/>
	<path class="st44" d="M305.7,353.8c-0.1,1.1-0.5,1.9-1.8,1.8c-0.9-0.1-1.3-0.8-1.3-1.7c0-1.1,0.5-1.9,1.7-1.7
		C305.3,352.3,305.6,353,305.7,353.8z"/>
	<path class="st44" d="M158.3,358c-0.4,1.1-1,1.9-2.1,1.6c-0.8-0.2-1.4-0.8-1.3-1.8c0.2-1.2,1-1.7,2.1-1.5
		C157.7,356.5,158.3,357.1,158.3,358z"/>
	<path class="st46" d="M1004.3,124.1c1.1,0.1,1.8,0.8,1.8,1.9c0,0.9-0.7,1.5-1.6,1.5c-1.1,0-1.9-0.6-1.8-1.8
		C1002.7,124.8,1003.3,124.3,1004.3,124.1z"/>
	<path class="st47" d="M741.2,332.6c-0.1,1.1-0.6,1.9-1.8,2c-1,0-1.6-0.6-1.7-1.5c-0.2-1.2,0.7-1.8,1.7-2
		C740.5,331,740.9,331.8,741.2,332.6z"/>
	<path class="st44" d="M610.4,323.1c1.1,0.4,1.8,0.8,1.8,1.8c-0.1,1.1-0.8,1.8-1.9,1.7c-0.8-0.1-1.5-0.7-1.5-1.7
		C608.8,323.7,609.8,323.5,610.4,323.1z"/>
	<path class="st48" d="M821.7,321.1c-1.1,0.5-2.2,1-3.4,1.5c-0.4-1.3-1.7-2.8,0-3.8C820.6,317.5,820.4,320.5,821.7,321.1z"/>
	<path class="st49" d="M368.7,297.7c-0.1,1.3-0.6,2-1.6,2c-1.2,0-1.7-0.9-1.7-2c0-0.9,0.6-1.6,1.5-1.6
		C368.3,296,368.6,297,368.7,297.7z"/>
	<path class="st50" d="M767.3,226.7c-0.2,1.4-0.7,2.1-1.9,2.1c-0.9,0-1.6-0.6-1.7-1.4c-0.2-1.1,0.5-1.9,1.6-2.1
		C766.5,225,766.9,226,767.3,226.7z"/>
	<path class="st44" d="M733.2,230.5c0,1.1-0.5,1.8-1.3,2c-1.1,0.3-1.9-0.4-2.1-1.5c-0.2-0.9,0.5-1.6,1.3-1.8
		C732.3,228.9,732.9,229.7,733.2,230.5z"/>
	<path class="st44" d="M60.8,254.2c0.8,0.3,1.5,0.7,1.5,1.7c0,1.1-0.8,1.9-1.9,1.7c-1-0.2-1.7-1-1.4-2.1
		C59.2,254.6,59.9,254.1,60.8,254.2z"/>
	<path class="st41" d="M80.4,95.2c-0.2,1-0.8,1.7-1.9,1.6c-0.9-0.1-1.5-0.7-1.5-1.6c0.1-1.2,1-1.7,2-1.7
		C79.8,93.6,80.4,94.2,80.4,95.2z"/>
	<path class="st51" d="M323.8,412.2c-0.2,1.1-0.8,1.8-2,1.5c-0.9-0.2-1.3-1-1.2-1.8c0.2-1.1,0.8-1.8,2-1.5
		C323.5,410.5,323.8,411.3,323.8,412.2z"/>
	<path class="st41" d="M223.9,473.4c-1.3,0-1.9-0.5-2.1-1.3c-0.2-1.1,0.2-2,1.4-2.1c0.9,0,1.4,0.7,1.5,1.6
		C224.8,472.5,224.3,473,223.9,473.4z"/>
	<path class="st41" d="M844.1,262.9c-0.2,0.9-0.9,1.2-1.8,1.1c-0.9-0.1-1.6-0.6-1.6-1.5c0-1.2,0.9-1.7,2-1.5
		C843.6,261.2,844.1,261.8,844.1,262.9z"/>
	<path class="st52" d="M44,354.2c0,1-0.5,1.6-1.4,1.7s-1.7-0.2-1.8-1.2s0.4-1.6,1.4-1.7C43.1,352.8,43.8,353.2,44,354.2z"/>
	<path class="st53" d="M831.4,274.6c-0.2,0.9-0.8,1.4-1.8,1.4c-1-0.1-1.5-0.7-1.4-1.6s0.8-1.5,1.7-1.4
		C830.9,273,831.3,273.6,831.4,274.6z"/>
	<path class="st54" d="M361.6,257.3c-0.1,0.9-0.7,1.5-1.6,1.4c-1-0.1-1.4-0.8-1.3-1.8c0.1-0.9,0.7-1.5,1.6-1.4
		C361.1,255.6,361.6,256.3,361.6,257.3z"/>
	<path class="st44" d="M905.4,255.5c-0.2,0.8-0.7,1.4-1.6,1.4c-1.1,0-1.9-0.5-1.7-1.7c0.1-0.9,0.9-1.3,1.8-1.2
		C904.8,254,905.3,254.6,905.4,255.5z"/>
	<path class="st55" d="M527.5,278.8c-0.1,1-0.7,1.6-1.6,1.5c-0.9-0.1-1.4-0.8-1.3-1.7c0.1-0.9,0.6-1.5,1.6-1.5
		C527.1,277.2,527.5,277.9,527.5,278.8z"/>
	<path class="st54" d="M895.4,232.6c-0.2,0.9-0.8,1.4-1.8,1.3c-0.9-0.1-1.6-0.7-1.5-1.6c0.1-0.9,0.8-1.4,1.8-1.3
		C894.8,231.1,895.3,231.6,895.4,232.6z"/>
	<path class="st54" d="M205.4,438.8c-1,0-1.6-0.6-1.6-1.5s0.7-1.4,1.6-1.5c1,0,1.6,0.6,1.6,1.5C207,438.2,206.4,438.9,205.4,438.8z"
		/>
	<path class="st56" d="M118.3,410.6c-0.2,1-0.9,1.4-1.8,1.3s-1.6-0.6-1.5-1.6c0.1-0.9,0.8-1.5,1.8-1.4
		C117.7,409.1,118.2,409.7,118.3,410.6z"/>
	<path class="st44" d="M203.6,408.5c-0.1,1.2-0.7,1.9-1.5,1.8c-1.1-0.1-1.7-1-1.5-2.1c0.2-0.8,0.7-1.4,1.7-1.3
		C203.3,407.2,203.6,407.9,203.6,408.5z"/>
	<path class="st55" d="M369.6,321.2c-0.1,1-0.6,1.6-1.5,1.5c-0.9,0-1.4-0.7-1.4-1.6c0-1,0.6-1.6,1.5-1.5
		C369.1,319.6,369.6,320.2,369.6,321.2z"/>
	<path class="st41" d="M675.3,192.2c-0.2,0.9-0.7,1.5-1.6,1.6c-1,0.1-1.6-0.6-1.7-1.5c-0.1-1,0.6-1.5,1.6-1.5
		C674.5,190.8,675.1,191.2,675.3,192.2z"/>
	<path class="st57" d="M965.1,172.6c1,0.4,1.5,1,1.4,1.9c0,1-0.6,1.5-1.6,1.4s-1.4-0.7-1.3-1.7C963.7,173.2,964.3,172.7,965.1,172.6
		z"/>
	<path class="st58" d="M591,171c0.9,0.2,1.5,0.7,1.5,1.6c0,1-0.6,1.6-1.5,1.6s-1.5-0.6-1.5-1.6C589.6,171.7,590.1,171.2,591,171z"/>
	<path class="st55" d="M955.9,168.5c-0.2,0.9-0.7,1.5-1.7,1.5s-1.6-0.5-1.6-1.5c0-0.9,0.6-1.5,1.6-1.5
		C955.3,167,955.7,167.6,955.9,168.5z"/>
	<path class="st54" d="M927.8,144.9c-1,0-1.6-0.5-1.7-1.4c0-0.9,0.6-1.5,1.6-1.5c0.9,0,1.6,0.5,1.7,1.4
		C929.4,144.3,928.8,144.8,927.8,144.9z"/>
	<path class="st55" d="M264,109.5c-0.2,0.9-0.7,1.5-1.7,1.5s-1.6-0.5-1.6-1.5c0-0.9,0.6-1.5,1.6-1.5
		C263.4,108.1,263.8,108.7,264,109.5z"/>
	<path class="st48" d="M127.1,60.8c-0.9-0.2-1.4-0.7-1.4-1.7s0.7-1.6,1.5-1.5c0.9,0,1.4,0.7,1.4,1.7C128.6,60.3,128,60.8,127.1,60.8
		z"/>
	<path class="st55" d="M28.1,292c0.9,0.1,1.5,0.6,1.5,1.6s-0.5,1.6-1.4,1.7c-0.9,0-1.5-0.6-1.5-1.6C26.7,292.8,27.2,292.2,28.1,292z
		"/>
	<path class="st59" d="M903.6,298.5c0.3,2.1-3.3,7.8,3.6,4c0.7-0.4,1.4,0.6,1.4,1.6c-0.6,0.2-1.3,0.5-1.9,0.5
		c-1.5-0.2-3.3,2.6-4.6-0.2C901,302.1,901,300,903.6,298.5z"/>
	<path class="st60" d="M658.9,415c0.3,2.1,4.2,1.7,3.2,4.4c-0.3,0.8-1.3,1.4-2,0.9C657.7,419.1,659,416.9,658.9,415z"/>
	<path class="st57" d="M843,579.8c-0.1,1.1-0.6,1.8-1.8,1.9c-1.2,0.1-1.8-0.6-1.8-1.7c-0.1-1.1,0.4-1.9,1.6-2
		C842.2,578,842.8,578.7,843,579.8z"/>
	<path class="st61" d="M811.4,393.8c-1.2,0-1.8-0.6-1.8-1.8c0-1,0.6-1.7,1.4-1.8c1.1-0.2,2,0.5,2.1,1.6
		C813.2,392.9,812.5,393.6,811.4,393.8z"/>
	<path class="st57" d="M890.5,374.7c-0.2,1.1-0.8,1.8-2,1.7c-1.1-0.1-1.8-0.9-1.6-2.1c0.1-0.8,0.8-1.5,1.7-1.5
		C889.8,372.9,890.5,373.4,890.5,374.7z"/>
	<path class="st46" d="M668.4,548.1c1.1,0.4,1.8,0.9,1.7,1.8c-0.1,1.1-0.8,1.8-1.9,1.7c-0.8-0.1-1.5-0.7-1.5-1.6
		C666.8,548.8,667.8,548.5,668.4,548.1z"/>
	<path class="st44" d="M884.2,369.8c0,1-0.6,1.6-1.4,1.8c-1.1,0.2-1.9-0.5-2-1.6c-0.1-1,0.6-1.6,1.4-1.8
		C883.3,368.1,884,368.8,884.2,369.8z"/>
	<path class="st44" d="M887.4,395.4c-1.1-0.3-1.8-1-1.5-2.1c0.2-0.8,0.8-1.5,1.8-1.3c1.1,0.2,1.7,1,1.5,2.1
		C889,394.9,888.3,395.5,887.4,395.4z"/>
	<path class="st44" d="M522.4,475.2c1,0,1.6,0.6,1.8,1.3c0.2,1.1-0.4,1.9-1.5,2.1c-0.9,0.2-1.6-0.5-1.8-1.3
		C520.6,476.1,521.4,475.5,522.4,475.2z"/>
	<path class="st62" d="M792.5,527.8c-1.1-0.3-1.8-0.8-1.7-1.8c0-1.2,0.8-1.8,1.9-1.7c0.8,0.1,1.5,0.7,1.5,1.7
		C794.2,527.2,793.3,527.6,792.5,527.8z"/>
	<path class="st44" d="M503.2,545.7c-0.1,1-0.6,1.6-1.5,1.7c-1.1,0.1-1.9-0.5-1.9-1.7c0-0.9,0.6-1.6,1.5-1.7
		C502.4,543.9,503,544.7,503.2,545.7z"/>
	<path class="st52" d="M855.4,439.3c-0.2,0.9-0.7,1.5-1.6,1.5c-1,0-1.6-0.6-1.6-1.5s0.6-1.5,1.6-1.5
		C854.8,437.9,855.3,438.4,855.4,439.3z"/>
	<path class="st41" d="M916.4,373.7c0,1-0.5,1.6-1.4,1.8c-1,0.2-1.5-0.6-1.6-1.5s0.3-1.7,1.3-1.8
		C915.6,372.2,916.2,372.8,916.4,373.7z"/>
	<path class="st63" d="M856.9,372.5c-0.3,0.9-0.9,1.4-1.8,1.3c-0.9-0.1-1.5-0.7-1.4-1.7s0.9-1.4,1.8-1.3
		C856.4,370.9,856.9,371.5,856.9,372.5z"/>
	<path class="st51" d="M117.3,563.2c1.1,0,1.9,0.6,2,1.7c0,1.1-0.6,1.8-1.8,1.9c-1,0-1.6-0.5-1.7-1.4
		C115.5,564.2,116.1,563.5,117.3,563.2z"/>
	<path class="st52" d="M936.3,256.3c-0.1,1.3-0.4,2.5-1.8,2.5c-1.7,0-1.9-1.5-2-2.8c-0.1-1.2,0.1-2.5,1.6-2.4
		C935.7,253.7,936.2,255,936.3,256.3z"/>
	<path class="st64" d="M949.6,223c0.9-1.4,1.8-2.8,2.7-4.2C953.2,221.3,955,224.5,949.6,223z"/>
	<path class="st55" d="M969.8,200c1,0.1,1.5,0.6,1.5,1.5c0,1-0.7,1.4-1.6,1.4c-1,0-1.6-0.6-1.5-1.5C968.2,200.5,968.8,200,969.8,200
		z"/>
	<path class="st52" d="M982.3,183.9c1,0,1.6,0.7,1.5,1.5c0,0.9-0.7,1.5-1.7,1.4c-1,0-1.6-0.6-1.5-1.5
		C980.7,184.4,981.4,183.9,982.3,183.9z"/>
</g>
<text transform="matrix(1 0 0 1 1030.6276 148.7999)"><tspan x="0" y="0" class="st65 st66">Portland-South </tspan><tspan x="0" y="28.8" class="st65 st66">Portland, ME</tspan><tspan x="0" y="57.6" class="st67 st66">Office of moderate </tspan><tspan x="0" y="86.4" class="st67 st66">Republican senator</tspan><tspan x="0" y="115.2" class="st67 st66">Susan Collins</tspan></text>
<text transform="matrix(1 0 0 1 956.85 318.4769)"><tspan x="0" y="0" class="st65 st66">Washington, DC</tspan><tspan x="0" y="28.8" class="st67 st66">Site of Supreme Court </tspan><tspan x="0" y="57.6" class="st67 st66">confirmation hearings</tspan></text>
<text transform="matrix(1 0 0 1 100.6498 659.1687)"><tspan x="0" y="0" class="st65 st66">Anchorage, AK</tspan><tspan x="0" y="28.8" class="st67 st66">Office of moderate Republican </tspan><tspan x="0" y="57.6" class="st67 st66">senator Lisa Murkowski</tspan></text>
</svg>
