<?xml version="1.0" encoding="utf-8"?>
<!-- Generator: Adobe Illustrator 23.1.1, SVG Export Plug-In . SVG Version: 6.00 Build 0)  -->
<svg version="1.1" xmlns="http://www.w3.org/2000/svg" xmlns:xlink="http://www.w3.org/1999/xlink" x="0px" y="0px"
	 viewBox="0 0 567.19 330.7" style="enable-background:new 0 0 567.19 330.7;" xml:space="preserve">
<style type="text/css">
	.st0{fill:#6F7589;}
	.st1{fill:none;}
	.st2{fill:#B05DA5;}
	.st3{fill:#B41F71;}
	.st4{fill:#5C3D5E;}
	.st5{fill:#6C4199;}
	.st6{fill:#FFFFFF;}
	.st7{font-family:'MyriadPro-Regular';}
	.st8{font-size:8px;}
	.st9{fill:#E588B8;}
	.st10{fill:#010101;}
	.st11{fill:#95CF95;}
	.st12{fill:#5E9B63;}
	.st13{fill:#308FA5;}
	.st14{fill:#B9C4E4;}
	.st15{fill:#467ABE;}
	.st16{fill:#234D4E;}
	.st17{fill:#51C8ED;}
</style>
<g id="Layer_1">
</g>
<g id="other">
	<path id="other-stream" class="st0" d="M0.83,219.17l3.1-1.2c3.1-1.2,9.29-3.61,15.19-5.65c5.9-2.04,11.49-3.72,17.39-8.55
		c5.9-4.84,12.09-12.84,18.19-14.5c6.1-1.66,12.09,3.01,18.19,3.65c6.1,0.64,12.29-2.77,18.39-4.92s12.09-3.04,18.19,1.92
		c6.1,4.96,12.29,15.77,18.49,20.35s12.39,2.93,18.49-1.16c6.1-4.09,12.09-10.63,18.19-15.98c6.1-5.35,12.29-9.51,18.39-13.24
		c6.1-3.73,12.09-7.03,18.19-1.93c6.1,5.09,12.29,18.58,18.49,24.89c6.2,6.31,12.39,5.44,18.29,29.09
		c5.9,23.64,11.49,71.8,17.39,74.93c5.9,3.13,12.09-38.75,18.19-67.66c6.1-28.91,12.09-44.86,18.19-39.75
		c6.1,5.11,12.29,31.26,18.39,32.95c6.1,1.69,12.09-21.09,18.19-32.16c6.1-11.07,12.29-10.42,18.49-7.21
		c6.2,3.2,12.39,8.96,18.49,12.56c6.1,3.61,12.09,5.07,18.19,2.3c6.1-2.77,12.29-9.77,18.39-16.24c6.1-6.47,12.09-12.42,18.19-10.4
		c6.1,2.01,12.29,11.98,18.49,13.94c6.2,1.96,12.39-4.09,18.29-6.78c5.9-2.69,11.49-2.01,17.39-1.86c5.9,0.15,12.09-0.23,18.19,3.3
		s12.09,10.96,18.19,11.08c6.1,0.12,12.29-7.07,18.39-8.01c6.1-0.95,12.09,4.35,18.19,5.19c6.1,0.84,12.29-2.78,15.39-4.59l3.1-1.81
		v16.05l-3.1,2.13c-3.1,2.13-9.29,6.4-15.39,5.78c-6.1-0.62-12.09-6.13-18.19-4.92c-6.1,1.22-12.29,9.16-18.39,9.61
		c-6.1,0.45-12.09-6.61-18.19-10.13s-12.29-3.53-18.19-4.46c-5.9-0.93-11.49-2.8-17.39-1s-12.09,7.26-18.29,4.3
		c-6.2-2.96-12.39-14.33-18.49-16.73c-6.1-2.39-12.09,4.2-18.19,12c-6.1,7.8-12.29,16.79-18.39,19.29s-12.09-1.5-18.19-6.08
		c-6.1-4.58-12.29-9.74-18.49-12.4c-6.2-2.66-12.39-2.82-18.49,8.48c-6.1,11.31-12.09,34.09-18.19,34.1
		c-6.1,0.01-12.29-22.74-18.39-26.22c-6.1-3.49-12.09,12.29-18.19,39.8c-6.1,27.51-12.29,66.74-18.19,61.88
		c-5.9-4.86-11.49-53.83-17.39-78.61c-5.9-24.78-12.09-25.37-18.29-30.3c-6.2-4.93-12.39-14.2-18.49-17.7
		c-6.1-3.5-12.09-1.23-18.19,1.82c-6.1,3.05-12.29,6.89-18.39,11.62c-6.1,4.73-12.09,10.35-18.19,14.42
		c-6.1,4.07-12.29,6.58-18.49,2.05c-6.2-4.53-12.39-16.09-18.49-21.51c-6.1-5.42-12.09-4.69-18.19-2.84
		c-6.1,1.85-12.29,4.82-18.39,8.62c-6.1,3.8-12.09,8.42-18.19,10.81s-12.29,2.55-18.19,2.8c-5.9,0.24-11.49,0.57-17.39-0.18
		c-5.9-0.74-12.09-2.55-15.19-3.46l-3.1-0.91V219.17z"/>
	<path id="SVGID_x5F_1_x5F_" class="st1" d="M31.02,216.18c16.65,2.85,34.95-5.58,48.69-14.12"/>
	<text>	<textPath  xlink:href="#SVGID_x5F_1_x5F_" startOffset="12.346%">
<tspan  class="st6 st7 st8">for Science</tspan>	</textPath>
</text>
	<path id="SVGID_x5F_2_x5F_" class="st1" d="M28.21,207.08c16.65,2.85,34.95-5.58,48.69-14.12"/>
	<text>	<textPath  xlink:href="#SVGID_x5F_2_x5F_" startOffset="23.828%">
<tspan  class="st6 st7 st8">March</tspan>	</textPath>
</text>
	<g>
		<path id="SVGID_x5F_3_x5F_" class="st1" d="M178.35,192.95c23.13-10.08,32.64,9.07,32.96,9.22"/>
		<text>		<textPath  xlink:href="#SVGID_x5F_3_x5F_" startOffset="0.024%">
<tspan  class="st6 st7 st8">Tax reform</tspan>		</textPath>
</text>
	</g>
</g>
<g id="healthcare">
	<path id="healthcare-stream" class="st2" d="M0.83,218.52l3.1-2.39c3.1-2.39,9.29-7.17,15.19-11.21
		c5.9-4.04,11.49-7.34,17.39-11.25c5.9-3.92,12.09-8.46,18.19-10.12c6.1-1.66,12.09-0.45,18.19-1.24c6.1-0.8,12.29-3.61,18.39-6.7
		c6.1-3.09,12.09-6.47,18.19-0.16c6.1,6.31,12.29,22.31,18.49,29.4c6.2,7.09,12.39,5.28,18.49,1.49c6.1-3.8,12.09-9.58,18.19-14.55
		c6.1-4.97,12.29-9.13,18.39-12.89c6.1-3.76,12.09-7.11,18.19-2.07c6.1,5.04,12.29,18.47,18.49,24.64
		c6.2,6.17,12.39,5.09,18.29,28.71c5.9,23.62,11.49,71.93,17.39,75.2c5.9,3.27,12.09-38.51,18.19-67.82
		c6.1-29.32,12.09-46.18,18.19-41.15c6.1,5.03,12.29,31.94,18.39,34.2c6.1,2.26,12.09-20.14,18.19-31.24
		c6.1-11.09,12.29-10.88,18.49-8.05c6.2,2.82,12.39,8.26,18.49,12c6.1,3.74,12.09,5.8,18.19,3.32s12.29-9.47,18.39-15.86
		c6.1-6.39,12.09-12.17,18.19-10.16c6.1,2.01,12.29,11.82,18.49,13.51c6.2,1.69,12.39-4.74,18.29-7.62
		c5.9-2.88,11.49-2.2,17.39-1.86c5.9,0.34,12.09,0.34,18.19,3.73s12.09,10.17,18.19,10.21c6.1,0.04,12.29-6.66,18.39-7.34
		c6.1-0.68,12.09,4.67,18.19,5.46s12.29-3,15.39-4.89l3.1-1.89v1.78l-3.1,1.81c-3.1,1.81-9.29,5.43-15.39,4.59
		c-6.1-0.84-12.09-6.13-18.19-5.19c-6.1,0.95-12.29,8.13-18.39,8.01c-6.1-0.12-12.09-7.55-18.19-11.08s-12.29-3.15-18.19-3.3
		c-5.9-0.15-11.49-0.82-17.39,1.86c-5.9,2.69-12.09,8.74-18.29,6.78c-6.2-1.96-12.39-11.93-18.49-13.94
		c-6.1-2.01-12.09,3.93-18.19,10.4c-6.1,6.47-12.29,13.47-18.39,16.24c-6.1,2.77-12.09,1.31-18.19-2.3
		c-6.1-3.61-12.29-9.36-18.49-12.56c-6.2-3.2-12.39-3.85-18.49,7.21c-6.1,11.07-12.09,33.84-18.19,32.16
		c-6.1-1.69-12.29-27.85-18.39-32.95c-6.1-5.11-12.09,10.84-18.19,39.75c-6.1,28.91-12.29,70.8-18.19,67.66
		c-5.9-3.13-11.49-51.29-17.39-74.93c-5.9-23.64-12.09-22.78-18.29-29.09c-6.2-6.31-12.39-19.79-18.49-24.89
		c-6.1-5.09-12.09-1.8-18.19,1.93c-6.1,3.73-12.29,7.89-18.39,13.24c-6.1,5.35-12.09,11.89-18.19,15.98
		c-6.1,4.09-12.29,5.74-18.49,1.16s-12.39-15.39-18.49-20.35c-6.1-4.96-12.09-4.07-18.19-1.92s-12.29,5.55-18.39,4.92
		c-6.1-0.63-12.09-5.31-18.19-3.65c-6.1,1.66-12.29,9.66-18.19,14.5c-5.9,4.84-11.49,6.51-17.39,8.55
		c-5.9,2.04-12.09,4.45-15.19,5.65l-3.1,1.2V218.52z"/>
	<g>
		<path id="SVGID_x5F_4_x5F_" class="st1" d="M46.51,191.28c4.89-1.42,13.48-4.06,20.59-1.51s17.01-1.23,26.02-4.08
			c9-2.84,9.57-1.13,16.48,3.5s9.09,13.45,14.55,17.46"/>
		<text>		<textPath  xlink:href="#SVGID_x5F_4_x5F_" startOffset="0%">
<tspan  class="st6 st7 st8">Obamacare repeal effort</tspan>		</textPath>
</text>
	</g>
</g>
<g id="collective-bargaining">
	<path id="collective-bargaining-stream" class="st3" d="M0.83,217.22l3.1-3.39c3.1-3.39,9.29-10.17,15.19-15.94
		s11.49-10.52,17.39-16.39s12.09-12.84,18.19-14.33c6.1-1.5,12.09,2.47,18.19,3.54c6.1,1.07,12.29-0.77,18.39-3
		c6.1-2.23,12.09-4.85,18.19,1.38c6.1,6.23,12.29,21.31,18.49,27.78c6.2,6.47,12.39,4.34,18.49,0.41
		c6.1-3.93,12.09-9.66,18.19-14.47c6.1-4.81,12.29-8.7,18.39-11.94c6.1-3.24,12.09-5.84,18.19-0.09
		c6.1,5.74,12.29,19.82,18.49,24.37c6.2,4.55,12.39-0.42,18.29,22.41c5.9,22.83,11.49,73.47,17.39,77.96
		c5.9,4.49,12.09-37.18,18.19-66.53c6.1-29.35,12.09-46.37,18.19-41.59c6.1,4.78,12.29,31.37,18.39,33.49
		c6.1,2.12,12.09-20.23,18.19-31.64c6.1-11.42,12.29-11.9,18.49-10.11c6.2,1.8,12.39,5.88,18.49,8.67c6.1,2.8,12.09,4.31,18.19,3.62
		s12.29-3.58,18.39-8.35c6.1-4.77,12.09-11.42,18.19-9.73c6.1,1.69,12.29,11.71,18.49,13.75c6.2,2.04,12.39-3.9,18.29-9.48
		c5.9-5.58,11.49-10.8,17.39-11.81c5.9-1.01,12.09,2.18,18.19,6.46s12.09,9.66,18.19,9.48c6.1-0.18,12.29-5.9,18.39-5.66
		s12.09,6.46,18.19,7.76s12.29-2.32,15.39-4.13l3.1-1.81v7.3l-3.1,1.92c-3.1,1.92-9.29,5.76-15.39,4.86
		c-6.1-0.89-12.09-6.51-18.19-6.24s-12.29,6.43-18.39,6.07c-6.1-0.36-12.09-7.26-18.19-12.24c-6.1-4.99-12.29-8.07-18.19-7.51
		c-5.9,0.55-11.49,4.74-17.39,9.94c-5.9,5.2-12.09,11.42-18.29,9.57c-6.2-1.85-12.39-11.77-18.49-13.73
		c-6.1-1.96-12.09,4.04-18.19,10.43c-6.1,6.39-12.29,13.17-18.39,14.83c-6.1,1.66-12.09-1.8-18.19-5.67
		c-6.1-3.88-12.29-8.17-18.49-10.57c-6.2-2.39-12.39-2.88-18.49,8.19c-6.1,11.07-12.09,33.68-18.19,31.51s-12.29-29.14-18.39-34.25
		c-6.1-5.11-12.09,11.65-18.19,40.94c-6.1,29.29-12.29,71.12-18.19,67.61c-5.9-3.51-11.49-52.37-17.39-75.61
		c-5.9-23.24-12.09-20.86-18.29-26.52c-6.2-5.66-12.39-19.36-18.49-24.64c-6.1-5.28-12.09-2.15-18.19,1.18
		c-6.1,3.32-12.29,6.84-18.39,11.7c-6.1,4.86-12.09,11.08-18.19,15.01c-6.1,3.93-12.29,5.58-18.49-1.43
		c-6.2-7.01-12.39-22.68-18.49-28.94c-6.1-6.26-12.09-3.09-18.19-0.27c-6.1,2.82-12.29,5.31-18.39,4.3s-12.09-5.53-18.19-4.35
		s-12.29,8.04-18.19,13.31c-5.9,5.27-11.49,8.94-17.39,14.12c-5.9,5.17-12.09,11.85-15.19,15.19L0.83,217.22z"/>
</g>
<g id="environment">
	<path id="environment-stream" class="st4" d="M0.83,217.22l3.1-3.34c3.1-3.34,9.29-10.01,15.19-15.19
		c5.9-5.17,11.49-8.85,17.39-14.12c5.9-5.27,12.09-12.13,18.19-13.31s12.09,3.34,18.19,4.35s12.29-1.47,18.39-4.3
		c6.1-2.82,12.09-5.99,18.19,0.27c6.1,6.26,12.29,21.93,18.49,28.94c6.2,7.01,12.39,5.36,18.49,1.43
		c6.1-3.93,12.09-10.15,18.19-15.01c6.1-4.86,12.29-8.38,18.39-11.7c6.1-3.32,12.09-6.46,18.19-1.18
		c6.1,5.28,12.29,18.98,18.49,24.64c6.2,5.66,12.39,3.28,18.29,26.52c5.9,23.24,11.49,72.09,17.39,75.61
		c5.9,3.51,12.09-38.32,18.19-67.61c6.1-29.29,12.09-46.04,18.19-40.94c6.1,5.11,12.29,32.07,18.39,34.25s12.09-20.44,18.19-31.51
		c6.1-11.07,12.29-10.58,18.49-8.19c6.2,2.39,12.39,6.69,18.49,10.57c6.1,3.88,12.09,7.34,18.19,5.67
		c6.1-1.66,12.29-8.44,18.39-14.83c6.1-6.39,12.09-12.39,18.19-10.43c6.1,1.96,12.29,11.88,18.49,13.73
		c6.2,1.85,12.39-4.36,18.29-9.57c5.9-5.2,11.49-9.39,17.39-9.94c5.9-0.55,12.09,2.53,18.19,7.51c6.1,4.99,12.09,11.88,18.19,12.24
		c6.1,0.36,12.29-5.8,18.39-6.07s12.09,5.35,18.19,6.24c6.1,0.89,12.29-2.95,15.39-4.86l3.1-1.92v4.7l-3.1,1.89
		c-3.1,1.89-9.29,5.67-15.39,4.89s-12.09-6.13-18.19-5.46c-6.1,0.68-12.29,7.38-18.39,7.34c-6.1-0.04-12.09-6.82-18.19-10.21
		s-12.29-3.39-18.19-3.73c-5.9-0.34-11.49-1.01-17.39,1.86c-5.9,2.88-12.09,9.31-18.29,7.62c-6.2-1.69-12.39-11.5-18.49-13.51
		c-6.1-2.01-12.09,3.77-18.19,10.16c-6.1,6.39-12.29,13.39-18.39,15.86s-12.09,0.42-18.19-3.32c-6.1-3.74-12.29-9.17-18.49-12
		c-6.2-2.82-12.39-3.04-18.49,8.05c-6.1,11.09-12.09,33.49-18.19,31.24c-6.1-2.26-12.29-29.17-18.39-34.2
		c-6.1-5.03-12.09,11.84-18.19,41.15c-6.1,29.32-12.29,71.09-18.19,67.82c-5.9-3.27-11.49-51.58-17.39-75.2
		c-5.9-23.62-12.09-22.54-18.29-28.71c-6.2-6.17-12.39-19.6-18.49-24.64c-6.1-5.04-12.09-1.69-18.19,2.07
		c-6.1,3.76-12.29,7.92-18.39,12.89c-6.1,4.97-12.09,10.75-18.19,14.55c-6.1,3.8-12.29,5.61-18.49-1.49
		c-6.2-7.09-12.39-23.09-18.49-29.4c-6.1-6.31-12.09-2.93-18.19,0.16c-6.1,3.09-12.29,5.9-18.39,6.7c-6.1,0.8-12.09-0.42-18.19,1.24
		c-6.1,1.66-12.29,6.2-18.19,10.12c-5.9,3.92-11.49,7.21-17.39,11.25c-5.9,4.04-12.09,8.82-15.19,11.21l-3.1,2.39V217.22z"/>
</g>
<g id="women">
	<path id="women-stream" class="st5" d="M0.83,145.73l3.1,5.15c3.1,5.15,9.29,15.44,15.19,17.75c5.9,2.31,11.49-3.36,17.39-7.98
		s12.09-8.19,18.19-7.77s12.09,4.82,18.19,6.49s12.29,0.58,18.39-1.03s12.09-3.74,18.19-9.97c6.1-6.23,12.29-16.55,18.49-13.89
		c6.2,2.66,12.39,18.31,18.49,23.64s12.09,0.36,18.19-1.69c6.1-2.05,12.29-1.19,18.39-0.7c6.1,0.49,12.09,0.59,18.19-2.5
		c6.1-3.09,12.29-9.39,18.49-5.57c6.2,3.82,12.39,17.77,18.29,49.3c5.9,31.53,11.49,80.66,17.39,84.04
		c5.9,3.38,12.09-38.99,18.19-67.12c6.1-28.13,12.09-42.02,18.19-35.91c6.1,6.11,12.29,32.21,18.39,34.49s12.09-19.25,18.19-31.64
		c6.1-12.39,12.29-15.63,18.49-16.97c6.2-1.34,12.39-0.77,18.49-0.81c6.1-0.04,12.09-0.69,18.19,1.22s12.29,6.36,18.39,6.24
		c6.1-0.12,12.09-4.82,18.19-10.16c6.1-5.34,12.29-11.31,18.49-10.27c6.2,1.04,12.39,9.09,18.29,10.16
		c5.9,1.07,11.49-4.85,17.39-6.49c5.9-1.63,12.09,1.01,18.19-1.57c6.1-2.58,12.09-10.39,18.19-9.78c6.1,0.61,12.29,9.63,18.39,17.52
		c6.1,7.89,12.09,14.65,18.19,15.81c6.1,1.16,12.29-3.27,15.39-5.49l3.1-2.22v2.11l-3.1,2.13c-3.1,2.13-9.29,6.4-15.39,5.67
		c-6.1-0.73-12.09-6.46-18.19-7.05s-12.29,3.95-18.39,3.82c-6.1-0.12-12.09-4.9-18.19-8.92s-12.29-7.26-18.19-6.3
		c-5.9,0.96-11.49,6.12-17.39,9.43c-5.9,3.31-12.09,4.77-18.29,3.35c-6.2-1.42-12.39-5.72-18.49-5.08
		c-6.1,0.63-12.09,6.2-18.19,10.11c-6.1,3.9-12.29,6.15-18.39,6.4c-6.1,0.26-12.09-1.47-18.19-5.03s-12.29-8.93-18.49-10.27
		c-6.2-1.34-12.39,1.36-18.49,13.7c-6.1,12.34-12.09,34.3-18.19,32.16c-6.1-2.15-12.29-28.41-18.39-33.79
		c-6.1-5.38-12.09,10.13-18.19,39.15c-6.1,29.02-12.29,71.55-18.19,67.58c-5.9-3.97-11.49-54.45-17.39-78.9
		c-5.9-24.45-12.09-22.89-18.29-26.95c-6.2-4.07-12.39-13.77-18.49-18.67c-6.1-4.9-12.09-5.01-18.19-4.74
		c-6.1,0.27-12.29,0.92-18.39,3.22c-6.1,2.3-12.09,6.24-18.19,0.28s-12.29-21.82-18.49-24.59s-12.39,7.55-18.49,13.75
		c-6.1,6.2-12.09,8.28-18.19,9.84c-6.1,1.55-12.29,2.58-18.39,1.81s-12.09-3.34-18.19-1.24c-6.1,2.09-12.29,8.85-18.19,14.96
		c-5.9,6.11-11.49,11.57-17.39,18.17c-5.9,6.61-12.09,14.36-15.19,18.24l-3.1,3.88V145.73z"/>
	<rect x="3.29" y="169.78" class="st1" width="35.61" height="19.85"/>
	<text transform="matrix(1 0 0 1 3.29 175.4568)"><tspan x="0" y="0" class="st6 st7 st8">Women’s </tspan><tspan x="0" y="9.6" class="st6 st7 st8">March</tspan></text>

		<rect x="433.15" y="149.17" transform="matrix(0.3212 -0.947 0.947 0.3212 142.6182 532.9324)" class="st1" width="19.85" height="35.61"/>
	<text transform="matrix(0.947 0.3212 -0.3212 0.947 427.6089 157.2116)"><tspan x="0" y="0" class="st6 st7 st8">Women’s </tspan><tspan x="0" y="9.6" class="st6 st7 st8">March</tspan></text>

		<rect x="210.23" y="151.03" transform="matrix(0.5373 -0.8434 0.8434 0.5373 -40.527 263.8063)" class="st1" width="19.85" height="35.61"/>
	<text transform="matrix(0.8434 0.5373 -0.5373 0.8434 207.3784 155.7336)"><tspan x="0" y="0" class="st6 st7 st8">Women’s </tspan><tspan x="0" y="9.6" class="st6 st7 st8">March</tspan></text>
	<g>
		<rect x="485.95" y="145.93" class="st1" width="50.37" height="26.4"/>
		<text transform="matrix(1 0 0 1 502.584 151.611)"><tspan x="0" y="0" class="st6 st7 st8">State </tspan><tspan x="-5.83" y="9.6" class="st6 st7 st8">abortion     </tspan><tspan x="-9.96" y="19.2" class="st6 st7 st8">restrictions</tspan></text>
	</g>
</g>
<g id="race">
	<path id="race-stream" class="st9" d="M0.83,216.25l3.1-3.88c3.1-3.88,9.29-11.63,15.19-18.24c5.9-6.61,11.49-12.07,17.39-18.17
		c5.9-6.11,12.09-12.86,18.19-14.96c6.1-2.09,12.09,0.47,18.19,1.24s12.29-0.26,18.39-1.81c6.1-1.55,12.09-3.63,18.19-9.84
		c6.1-6.2,12.29-16.52,18.49-13.75s12.39,18.63,18.49,24.59s12.09,2.01,18.19-0.28c6.1-2.3,12.29-2.95,18.39-3.22
		c6.1-0.27,12.09-0.16,18.19,4.74c6.1,4.9,12.29,14.61,18.49,18.67c6.2,4.07,12.39,2.5,18.29,26.95
		c5.9,24.45,11.49,74.93,17.39,78.9c5.9,3.97,12.09-38.56,18.19-67.58c6.1-29.02,12.09-44.53,18.19-39.15
		c6.1,5.38,12.29,31.64,18.39,33.79c6.1,2.15,12.09-19.82,18.19-32.16c6.1-12.34,12.29-15.04,18.49-13.7
		c6.2,1.34,12.39,6.71,18.49,10.27s12.09,5.28,18.19,5.03c6.1-0.26,12.29-2.5,18.39-6.4c6.1-3.9,12.09-9.47,18.19-10.11
		c6.1-0.64,12.29,3.66,18.49,5.08c6.2,1.42,12.39-0.04,18.29-3.35c5.9-3.31,11.49-8.47,17.39-9.43c5.9-0.96,12.09,2.28,18.19,6.3
		s12.09,8.8,18.19,8.92c6.1,0.12,12.29-4.42,18.39-3.82s12.09,6.32,18.19,7.05c6.1,0.73,12.29-3.54,15.39-5.67l3.1-2.13v7.78
		l-3.1,1.81c-3.1,1.81-9.29,5.43-15.39,4.13s-12.09-7.51-18.19-7.76s-12.29,5.49-18.39,5.66c-6.1,0.18-12.09-5.2-18.19-9.48
		s-12.29-7.47-18.19-6.46c-5.9,1.01-11.49,6.23-17.39,11.81c-5.9,5.58-12.09,11.52-18.29,9.48c-6.2-2.04-12.39-12.07-18.49-13.75
		c-6.1-1.69-12.09,4.96-18.19,9.73c-6.1,4.77-12.29,7.66-18.39,8.35s-12.09-0.82-18.19-3.62c-6.1-2.8-12.29-6.88-18.49-8.67
		c-6.2-1.8-12.39-1.31-18.49,10.11c-6.1,11.42-12.09,33.76-18.19,31.64c-6.1-2.12-12.29-28.71-18.39-33.49
		c-6.1-4.78-12.09,12.24-18.19,41.59c-6.1,29.35-12.29,71.01-18.19,66.53c-5.9-4.49-11.49-55.12-17.39-77.96
		c-5.9-22.83-12.09-17.86-18.29-22.41c-6.2-4.55-12.39-18.63-18.49-24.37c-6.1-5.74-12.09-3.15-18.19,0.09
		c-6.1,3.24-12.29,7.13-18.39,11.94c-6.1,4.81-12.09,10.54-18.19,14.47c-6.1,3.93-12.29,6.07-18.49-0.41
		c-6.2-6.47-12.39-21.55-18.49-27.78c-6.1-6.23-12.09-3.61-18.19-1.38c-6.1,2.23-12.29,4.07-18.39,3
		c-6.1-1.07-12.09-5.04-18.19-3.54c-6.1,1.5-12.29,8.47-18.19,14.33s-11.49,10.62-17.39,16.39S7.03,210.44,3.93,213.83l-3.1,3.39
		V216.25z"/>
	<rect x="115.32" y="152.78" class="st1" width="60.61" height="26.4"/>
	<text transform="matrix(1 0 0 1 115.3161 158.4589)"><tspan x="0" y="0" class="st10 st7 st8">Unite </tspan><tspan x="0" y="9.6" class="st10 st7 st8">the Right </tspan><tspan x="0" y="19.2" class="st10 st7 st8">(Charlottesville)</tspan></text>
</g>
<g id="supreme-court">
	<path id="supreme-court-stream" class="st11" d="M0.83,113.79l3.1-0.91c3.1-0.91,9.29-2.72,15.19-3.46
		c5.9-0.74,11.49-0.42,17.39-0.18c5.9,0.24,12.09,0.41,18.19,2.8c6.1,2.39,12.09,7.01,18.19,10.81c6.1,3.8,12.29,6.77,18.39,8.62
		s12.09,2.58,18.19-2.84c6.1-5.42,12.29-16.98,18.49-21.51c6.2-4.53,12.39-2.01,18.49,2.05c6.1,4.07,12.09,9.69,18.19,14.42
		c6.1,4.73,12.29,8.57,18.39,11.62c6.1,3.05,12.09,5.32,18.19,1.82c6.1-3.5,12.29-12.77,18.49-17.7c6.2-4.93,12.39-5.53,18.29-30.3
		c5.9-24.78,11.49-73.74,17.39-78.61c5.9-4.86,12.09,34.37,18.19,61.88c6.1,27.51,12.09,43.29,18.19,39.8
		c6.1-3.49,12.29-26.24,18.39-26.22c6.1,0.01,12.09,22.79,18.19,34.1c6.1,11.31,12.29,11.15,18.49,8.48
		c6.2-2.66,12.39-7.82,18.49-12.4c6.1-4.58,12.09-8.58,18.19-6.08c6.1,2.5,12.29,11.5,18.39,19.29c6.1,7.8,12.09,14.39,18.19,12
		c6.1-2.39,12.29-13.77,18.49-16.73c6.2-2.96,12.39,2.5,18.29,4.3s11.49-0.07,17.39-1c5.9-0.93,12.09-0.93,18.19-4.46
		s12.09-10.58,18.19-10.13c6.1,0.45,12.29,8.39,18.39,9.61c6.1,1.22,12.09-4.3,18.19-4.92s12.29,3.65,15.39,5.78l3.1,2.13l0,0
		l-3.1-2.13c-3.1-2.13-9.29-6.4-15.39-5.78s-12.09,6.13-18.19,4.92c-6.1-1.22-12.29-9.16-18.39-9.61
		c-6.1-0.45-12.09,6.61-18.19,10.13s-12.29,3.53-18.19,4.46c-5.9,0.93-11.49,2.8-17.39,1s-12.09-7.26-18.29-4.3
		c-6.2,2.96-12.39,14.33-18.49,16.73c-6.1,2.39-12.09-4.2-18.19-8.59c-6.1-4.39-12.29-6.58-18.39-6.32
		c-6.1,0.26-12.09,2.96-18.19,4.7c-6.1,1.74-12.29,2.53-18.49,2.84c-6.2,0.31-12.39,0.15-18.49-11.7
		c-6.1-11.85-12.09-35.38-18.19-35.8c-6.1-0.42-12.29,22.28-18.39,25.74c-6.1,3.46-12.09-12.32-18.19-39.83
		c-6.1-27.51-12.29-66.74-18.19-61.88c-5.9,4.86-11.49,53.83-17.39,78.61c-5.9,24.78-12.09,25.37-18.29,30.3
		c-6.2,4.93-12.39,14.2-18.49,17.7c-6.1,3.5-12.09,1.23-18.19-1.82c-6.1-3.05-12.29-6.89-18.39-11.59
		c-6.1-4.7-12.09-10.27-18.19-14.33c-6.1-4.07-12.29-6.63-18.49-2.13c-6.2,4.5-12.39,16.06-18.49,21.48
		c-6.1,5.42-12.09,4.69-18.19,2.84s-12.29-4.82-18.39-8.59s-12.09-8.34-18.19-10.65c-6.1-2.31-12.29-2.36-18.19-2.61
		c-5.9-0.24-11.49-0.68-17.39-0.01s-12.09,2.42-15.19,3.3L0.83,113.79z"/>

		<rect x="334.8" y="84.72" transform="matrix(0.861 -0.5086 0.5086 0.861 -2.4051 199.3862)" class="st1" width="57.58" height="38.74"/>
	<text transform="matrix(0.861 -0.5086 0.5086 0.861 331.8375 106.9459)"><tspan x="0" y="0" class="st12 st7 st8">Supreme Court: </tspan><tspan x="0" y="9.6" class="st10 st7 st8">Kavanaugh </tspan><tspan x="0" y="19.2" class="st10 st7 st8">nomination</tspan></text>
</g>
<g id="executive">
	<path id="executive-stream" class="st13" d="M0.83,113.95l3.1-0.42c3.1-0.42,9.29-1.26,15.19-0.38c5.9,0.88,11.49,3.47,17.39,4.42
		c5.9,0.95,12.09,0.24,18.19,2.74c6.1,2.5,12.09,8.2,18.19,11.84s12.29,5.2,18.39,6.21s12.09,1.47,18.19-4
		c6.1-5.47,12.29-16.87,18.49-19.21c6.2-2.34,12.39,4.39,18.49,10.51s12.09,11.63,18.19,14.82c6.1,3.19,12.29,4.05,18.39,4.81
		c6.1,0.76,12.09,1.41,18.19-2.61c6.1-4.01,12.29-12.69,18.49-15.62c6.2-2.93,12.39-0.12,18.29-22.93
		c5.9-22.81,11.49-71.23,17.39-74.61c5.9-3.38,12.09,38.29,18.19,64.74c6.1,26.45,12.09,37.69,18.19,31.43
		c6.1-6.27,12.29-30.05,18.39-30.47c6.1-0.42,12.09,22.52,18.19,34.67c6.1,12.15,12.29,13.5,18.49,13.81
		c6.2,0.31,12.39-0.42,18.49-2.13s12.09-4.42,18.19-5.54c6.1-1.12,12.29-0.66,18.39,2.84c6.1,3.5,12.09,10.04,18.19,8.13
		c6.1-1.91,12.29-12.25,18.49-14.65c6.2-2.39,12.39,3.18,18.29,5.76c5.9,2.58,11.49,2.18,17.39,2.57c5.9,0.39,12.09,1.58,18.19-1.19
		c6.1-2.77,12.09-9.5,18.19-10.13c6.1-0.64,12.29,4.82,18.39,4.04s12.09-7.81,18.19-8.97s12.29,3.54,15.39,5.89l3.1,2.35V139
		l-3.1-2.05c-3.1-2.05-9.29-6.16-15.39-4.62c-6.1,1.54-12.09,8.73-18.19,8.48s-12.29-7.92-18.39-7.61
		c-6.1,0.31-12.09,8.61-18.19,11.48c-6.1,2.88-12.29,0.34-18.19-0.89c-5.9-1.23-11.49-1.15-17.39-2.13
		c-5.9-0.99-12.09-3.04-18.29-0.86c-6.2,2.18-12.39,8.58-18.49,14c-6.1,5.42-12.09,9.85-18.19,9.73c-6.1-0.12-12.29-4.8-18.39-6.54
		c-6.1-1.74-12.09-0.55-18.19-1.32c-6.1-0.77-12.29-3.5-18.49-4.97c-6.2-1.47-12.39-1.69-18.49-14.13
		c-6.1-12.44-12.09-37.11-18.19-37.91c-6.1-0.8-12.29,22.28-18.39,28.12c-6.1,5.84-12.09-5.57-18.19-31.86
		c-6.1-26.29-12.29-67.47-18.19-63.99c-5.9,3.49-11.49,51.64-17.39,74.8c-5.9,23.16-12.09,21.32-18.29,24.12
		c-6.2,2.8-12.39,10.23-18.49,14.29c-6.1,4.07-12.09,4.77-18.19,4.42c-6.1-0.35-12.29-1.76-18.39-5.3
		c-6.1-3.54-12.09-9.21-18.19-14.71c-6.1-5.5-12.29-10.82-18.49-7.86c-6.2,2.96-12.39,14.2-18.49,20.56
		c-6.1,6.36-12.09,7.85-18.19,6.59c-6.1-1.26-12.29-5.26-18.39-7.16c-6.1-1.91-12.09-1.72-18.19-0.57s-12.29,3.26-18.19,2.09
		c-5.9-1.16-11.49-5.59-17.39-10.12c-5.9-4.53-12.09-9.15-15.19-11.46l-3.1-2.31V113.95z"/>
	<g>
		<path id="SVGID_x5F_5_x5F_" class="st1" d="M354.84,153.06c4.73,0.16,27.8-3.01,35.52-2.35c14.53,1.24,19.99,7.21,32.61-1.42"/>
		<text>		<textPath  xlink:href="#SVGID_x5F_5_x5F_" startOffset="9.668%">
<tspan  class="st6 st7 st8">#ProtectMueller</tspan>		</textPath>
</text>
	</g>
	<g>
		<path id="SVGID_x5F_6_x5F_" class="st1" d="M37.03,138.34c2.82-0.51,31.49-2.63,37.84,2.7"/>
		<text>		<textPath  xlink:href="#SVGID_x5F_6_x5F_" startOffset="0.391%">
<tspan  class="st6 st7 st8">March</tspan>		</textPath>
</text>
	</g>
</g>
<g id="immigration">
	<path id="immigration-stream" class="st14" d="M0.83,119.3l3.1,2.31c3.1,2.31,9.29,6.93,15.19,11.46
		c5.9,4.53,11.49,8.96,17.39,10.12c5.9,1.16,12.09-0.95,18.19-2.09s12.09-1.34,18.19,0.57c6.1,1.9,12.29,5.9,18.39,7.16
		c6.1,1.26,12.09-0.23,18.19-6.59c6.1-6.36,12.29-17.6,18.49-20.56c6.2-2.96,12.39,2.36,18.49,7.86c6.1,5.5,12.09,11.17,18.19,14.71
		c6.1,3.54,12.29,4.94,18.39,5.3c6.1,0.35,12.09-0.35,18.19-4.42c6.1-4.07,12.29-11.5,18.49-14.29c6.2-2.8,12.39-0.96,18.29-24.12
		c5.9-23.16,11.49-71.31,17.39-74.8c5.9-3.49,12.09,37.69,18.19,63.99c6.1,26.29,12.09,37.69,18.19,31.86
		c6.1-5.84,12.29-28.91,18.39-28.12c6.1,0.8,12.09,25.47,18.19,37.91c6.1,12.44,12.29,12.66,18.49,14.13
		c6.2,1.47,12.39,4.2,18.49,4.97c6.1,0.77,12.09-0.42,18.19,1.32c6.1,1.74,12.29,6.42,18.39,6.54c6.1,0.12,12.09-4.31,18.19-9.73
		c6.1-5.42,12.29-11.82,18.49-14c6.2-2.18,12.39-0.12,18.29,0.86c5.9,0.99,11.49,0.91,17.39,2.13c5.9,1.23,12.09,3.77,18.19,0.89
		c6.1-2.88,12.09-11.17,18.19-11.48c6.1-0.31,12.29,7.36,18.39,7.61s12.09-6.94,18.19-8.48c6.1-1.54,12.29,2.57,15.39,4.62l3.1,2.05
		v9.73l-3.1,5.22c-3.1,5.22-9.29,15.65-15.39,16.65c-6.1,1-12.09-7.43-18.19-15.38c-6.1-7.94-12.29-15.4-18.39-15.47
		c-6.1-0.07-12.09,7.26-18.19,9.54c-6.1,2.28-12.29-0.47-18.19,1.35c-5.9,1.82-11.49,8.23-17.39,7.4
		c-5.9-0.82-12.09-8.88-18.29-9.78c-6.2-0.91-12.39,5.34-18.49,10.67c-6.1,5.34-12.09,9.77-18.19,9.75
		c-6.1-0.01-12.29-4.47-18.39-6.4c-6.1-1.93-12.09-1.34-18.19-1.76c-6.1-0.42-12.29-1.85-18.49-1.03
		c-6.2,0.82-12.39,3.9-18.49,15.48c-6.1,11.58-12.09,31.66-18.19,29.16c-6.1-2.5-12.29-27.58-18.39-45.79
		c-6.1-18.21-12.09-29.56-18.19-55.12c-6.1-25.56-12.29-65.34-18.19-61.93c-5.9,3.4-11.49,49.99-17.39,73.04
		c-5.9,23.05-12.09,22.56-18.29,25.52c-6.2,2.96-12.39,9.36-18.49,12.56c-6.1,3.2-12.09,3.2-18.19,2.36
		c-6.1-0.84-12.29-2.51-18.39-0.49c-6.1,2.03-12.09,7.76-18.19,2.8c-6.1-4.96-12.29-20.6-18.49-23.32s-12.39,7.5-18.49,13.48
		c-6.1,5.99-12.09,7.74-18.19,9.35s-12.29,3.07-18.39,1.57c-6.1-1.5-12.09-5.96-18.19-6.4c-6.1-0.45-12.29,3.12-18.19,7.93
		c-5.9,4.81-11.49,10.86-17.39,8.74S7.03,156.02,3.93,150.87l-3.1-5.15V119.3z"/>
	<rect x="294.51" y="139.53" class="st1" width="35.61" height="45.69"/>
	<text transform="matrix(1 0 0 1 294.7379 145.2071)"><tspan x="0" y="0" class="st10 st7 st8">Immigrant </tspan><tspan x="7.38" y="9.6" class="st10 st7 st8">family </tspan><tspan x="-0.12" y="19.2" class="st10 st7 st8">separation</tspan></text>

		<rect x="530.06" y="138.02" transform="matrix(0.9844 -0.1762 0.1762 0.9844 -19.1578 99.0044)" class="st1" width="35.61" height="38.69"/>
	<text transform="matrix(0.9843 -0.1762 0.1762 0.9843 527.878 147.0806)"><tspan x="0" y="0" class="st10 st7 st8">Family </tspan><tspan x="0" y="9.6" class="st10 st7 st8">separation</tspan></text>
	<path id="SVGID_x5F_7_x5F_" class="st1" d="M2.97,139.76c6.87,7.94,22.54,18.72,58.48,8.1"/>
	<text>	<textPath  xlink:href="#SVGID_x5F_7_x5F_" startOffset="2.000000e-03%">
<tspan  class="st7 st8">Muslim bans</tspan>	</textPath>
</text>
	<path id="SVGID_x5F_8_x5F_" class="st1" d="M124.18,127.91c7.87,0.46,21.44,26.01,44.78,23.76"/>
	<text>	<textPath  xlink:href="#SVGID_x5F_8_x5F_" startOffset="0%">
<tspan  class="st7 st8">#DefendDACA</tspan>	</textPath>
</text>
</g>
<g id="guns">
	<path id="gun-stream" class="st15" d="M0.83,145.73l3.1,5.15c3.1,5.15,9.29,15.44,15.19,17.56s11.49-3.93,17.39-8.74
		c5.9-4.81,12.09-8.38,18.19-7.93c6.1,0.45,12.09,4.9,18.19,6.4c6.1,1.5,12.29,0.04,18.39-1.57s12.09-3.36,18.19-9.35
		c6.1-5.99,12.29-16.2,18.49-13.48s12.39,18.36,18.49,23.32c6.1,4.96,12.09-0.77,18.19-2.8c6.1-2.03,12.29-0.35,18.39,0.49
		c6.1,0.84,12.09,0.84,18.19-2.36c6.1-3.2,12.29-9.61,18.49-12.56c6.2-2.96,12.39-2.47,18.29-25.52
		c5.9-23.05,11.49-69.63,17.39-73.04c5.9-3.4,12.09,36.37,18.19,61.93c6.1,25.56,12.09,36.91,18.19,55.12
		c6.1,18.21,12.29,43.29,18.39,45.79c6.1,2.5,12.09-17.58,18.19-29.16c6.1-11.58,12.29-14.66,18.49-15.48
		c6.2-0.82,12.39,0.61,18.49,1.03c6.1,0.42,12.09-0.18,18.19,1.76c6.1,1.93,12.29,6.39,18.39,6.4c6.1,0.01,12.09-4.42,18.19-9.75
		c6.1-5.34,12.29-11.58,18.49-10.67c6.2,0.91,12.39,8.96,18.29,9.78c5.9,0.82,11.49-5.58,17.39-7.4c5.9-1.82,12.09,0.93,18.19-1.35
		c6.1-2.28,12.09-9.61,18.19-9.54c6.1,0.07,12.29,7.53,18.39,15.47c6.1,7.94,12.09,16.37,18.19,15.38c6.1-1,12.29-11.43,15.39-16.65
		l3.1-5.22v19.29l-3.1,2.22c-3.1,2.22-9.29,6.65-15.39,5.49c-6.1-1.16-12.09-7.92-18.19-15.81c-6.1-7.89-12.29-16.92-18.39-17.52
		c-6.1-0.61-12.09,7.2-18.19,9.78c-6.1,2.58-12.29-0.07-18.19,1.57c-5.9,1.63-11.49,7.55-17.39,6.49
		c-5.9-1.07-12.09-9.12-18.29-10.16c-6.2-1.04-12.39,4.93-18.49,10.27c-6.1,5.34-12.09,10.04-18.19,10.16
		c-6.1,0.12-12.29-4.34-18.39-6.24s-12.09-1.26-18.19-1.22c-6.1,0.04-12.29-0.53-18.49,0.81c-6.2,1.34-12.39,4.58-18.49,16.97
		c-6.1,12.39-12.09,33.93-18.19,31.64s-12.29-28.39-18.39-34.49c-6.1-6.11-12.09,7.78-18.19,35.91
		c-6.1,28.13-12.29,70.5-18.19,67.12c-5.9-3.38-11.49-52.5-17.39-84.04c-5.9-31.53-12.09-45.48-18.29-49.3
		c-6.2-3.82-12.39,2.47-18.49,5.57c-6.1,3.09-12.09,2.99-18.19,2.5c-6.1-0.49-12.29-1.35-18.39,0.7c-6.1,2.05-12.09,7.03-18.19,1.69
		s-12.29-20.98-18.49-23.64c-6.2-2.66-12.39,7.66-18.49,13.89c-6.1,6.23-12.09,8.36-18.19,9.97s-12.29,2.69-18.39,1.03
		s-12.09-6.07-18.19-6.49s-12.29,3.15-18.19,7.77s-11.49,10.3-17.39,7.98c-5.9-2.31-12.09-12.61-15.19-17.75L0.83,145.73z"/>
	<g>
		<rect x="234.22" y="134.24" class="st1" width="45.59" height="55.23"/>
		<text transform="matrix(1 0 0 1 240.2486 139.9229)"><tspan x="0" y="0" class="st6 st7 st8">March For </tspan><tspan x="1.31" y="9.6" class="st6 st7 st8">Our Lives </tspan><tspan x="10.36" y="19.2" class="st6 st7 st8">and</tspan><tspan x="2.66" y="28.8" class="st6 st7 st8">National </tspan><tspan x="5.44" y="38.4" class="st6 st7 st8">School </tspan><tspan x="2.91" y="48" class="st6 st7 st8">Walkout</tspan></text>
	</g>
</g>
<g id="police">
	<path id="police-stream" class="st16" d="M0.83,113.79l3.1-0.88c3.1-0.88,9.29-2.63,15.19-3.3s11.49-0.23,17.39,0.01
		c5.9,0.24,12.09,0.3,18.19,2.61c6.1,2.31,12.09,6.88,18.19,10.65s12.29,6.74,18.39,8.59s12.09,2.58,18.19-2.84
		c6.1-5.42,12.29-16.98,18.49-21.48c6.2-4.5,12.39-1.93,18.49,2.13c6.1,4.07,12.09,9.63,18.19,14.33c6.1,4.7,12.29,8.54,18.39,11.59
		c6.1,3.05,12.09,5.32,18.19,1.82c6.1-3.5,12.29-12.77,18.49-17.7c6.2-4.93,12.39-5.53,18.29-30.3
		c5.9-24.78,11.49-73.74,17.39-78.61c5.9-4.86,12.09,34.37,18.19,61.88c6.1,27.51,12.09,43.29,18.19,39.83
		c6.1-3.46,12.29-26.16,18.39-25.74c6.1,0.42,12.09,23.95,18.19,35.8c6.1,11.85,12.29,12.01,18.49,11.7
		c6.2-0.31,12.39-1.09,18.49-2.84c6.1-1.74,12.09-4.45,18.19-4.7c6.1-0.26,12.29,1.93,18.39,6.32c6.1,4.39,12.09,10.98,18.19,8.59
		c6.1-2.39,12.29-13.77,18.49-16.73c6.2-2.96,12.39,2.5,18.29,4.3s11.49-0.07,17.39-1c5.9-0.93,12.09-0.93,18.19-4.46
		s12.09-10.58,18.19-10.13c6.1,0.45,12.29,8.39,18.39,9.61c6.1,1.22,12.09-4.3,18.19-4.92s12.29,3.65,15.39,5.78l3.1,2.13v5.19
		l-3.1-2.32c-3.1-2.32-9.29-6.97-15.39-6.4s-12.09,6.35-18.19,5.19c-6.1-1.16-12.29-9.27-18.39-9.69
		c-6.1-0.42-12.09,6.85-18.19,10.51c-6.1,3.66-12.29,3.72-18.19,4.49c-5.9,0.77-11.49,2.26-17.39,0.27
		c-5.9-1.99-12.09-7.44-18.29-4.76c-6.2,2.69-12.39,13.52-18.49,15.65c-6.1,2.12-12.09-4.47-18.19-8.4
		c-6.1-3.93-12.29-5.2-18.39-4.3s-12.09,3.99-18.19,6.03c-6.1,2.04-12.29,3.04-18.49,3.3c-6.2,0.26-12.39-0.23-18.49-12.16
		c-6.1-11.93-12.09-35.3-18.19-35.97c-6.1-0.66-12.29,21.39-18.39,24.87c-6.1,3.49-12.09-11.59-18.19-38.91
		c-6.1-27.32-12.29-66.88-18.19-62.45c-5.9,4.43-11.49,52.85-17.39,77.12c-5.9,24.27-12.09,24.37-18.29,29.09
		c-6.2,4.72-12.39,14.04-18.49,18.29c-6.1,4.26-12.09,3.45-18.19,2.26c-6.1-1.19-12.29-2.76-18.39-6.19
		c-6.1-3.43-12.09-8.73-18.19-14.36s-12.29-11.61-18.49-9.05c-6.2,2.55-12.39,13.63-18.49,18.89c-6.1,5.26-12.09,4.69-18.19,3.03
		s-12.29-4.42-18.39-8.32s-12.09-8.96-18.19-11.57c-6.1-2.61-12.29-2.77-18.19-3.31s-11.49-1.46-17.39-1.2
		c-5.9,0.26-12.09,1.69-15.19,2.4L0.83,113.79z"/>
</g>
<g id="education">
	<path id="education-stream" class="st17" d="M0.83,113.79l3.1-0.72c3.1-0.72,9.29-2.15,15.19-2.4c5.9-0.26,11.49,0.66,17.39,1.2
		s12.09,0.7,18.19,3.31c6.1,2.61,12.09,7.66,18.19,11.57s12.29,6.66,18.39,8.32s12.09,2.23,18.19-3.03
		c6.1-5.26,12.29-16.33,18.49-18.89c6.2-2.55,12.39,3.42,18.49,9.05s12.09,10.93,18.19,14.36c6.1,3.43,12.29,5,18.39,6.19
		c6.1,1.19,12.09,2,18.19-2.26c6.1-4.26,12.29-13.58,18.49-18.29c6.2-4.72,12.39-4.82,18.29-29.09
		c5.9-24.27,11.49-72.69,17.39-77.12c5.9-4.43,12.09,35.13,18.19,62.45c6.1,27.32,12.09,42.4,18.19,38.91
		c6.1-3.49,12.29-25.54,18.39-24.87c6.1,0.66,12.09,24.04,18.19,35.97c6.1,11.93,12.29,12.42,18.49,12.16
		c6.2-0.26,12.39-1.26,18.49-3.3c6.1-2.04,12.09-5.12,18.19-6.03s12.29,0.36,18.39,4.3c6.1,3.93,12.09,10.52,18.19,8.4
		c6.1-2.12,12.29-12.96,18.49-15.65c6.2-2.69,12.39,2.77,18.29,4.76c5.9,1.99,11.49,0.5,17.39-0.27c5.9-0.77,12.09-0.82,18.19-4.49
		c6.1-3.66,12.09-10.93,18.19-10.51c6.1,0.42,12.29,8.53,18.39,9.69c6.1,1.16,12.09-4.62,18.19-5.19s12.29,4.08,15.39,6.4l3.1,2.32
		v1.62l-3.1-2.35c-3.1-2.35-9.29-7.05-15.39-5.89s-12.09,8.19-18.19,8.97s-12.29-4.67-18.39-4.04c-6.1,0.63-12.09,7.36-18.19,10.13
		c-6.1,2.77-12.29,1.58-18.19,1.19c-5.9-0.39-11.49,0.01-17.39-2.57c-5.9-2.58-12.09-8.15-18.29-5.76
		c-6.2,2.39-12.39,12.74-18.49,14.65c-6.1,1.91-12.09-4.63-18.19-8.13c-6.1-3.5-12.29-3.96-18.39-2.84
		c-6.1,1.12-12.09,3.82-18.19,5.54s-12.29,2.45-18.49,2.13c-6.2-0.31-12.39-1.66-18.49-13.81c-6.1-12.15-12.09-35.09-18.19-34.67
		c-6.1,0.42-12.29,24.2-18.39,30.47c-6.1,6.27-12.09-4.97-18.19-31.43c-6.1-26.45-12.29-68.12-18.19-64.74
		c-5.9,3.38-11.49,51.8-17.39,74.61c-5.9,22.81-12.09,20-18.29,22.93c-6.2,2.93-12.39,11.61-18.49,15.62
		c-6.1,4.01-12.09,3.36-18.19,2.61c-6.1-0.76-12.29-1.62-18.39-4.81c-6.1-3.19-12.09-8.7-18.19-14.82s-12.29-12.85-18.49-10.51
		c-6.2,2.34-12.39,13.74-18.49,19.21c-6.1,5.47-12.09,5.01-18.19,4s-12.29-2.58-18.39-6.21s-12.09-9.34-18.19-11.84
		c-6.1-2.5-12.29-1.8-18.19-2.74c-5.9-0.95-11.49-3.54-17.39-4.42c-5.9-0.88-12.09-0.04-15.19,0.38l-3.1,0.42V113.79z"/>
</g>
</svg>
