<?xml version="1.0" encoding="utf-8"?>
<!-- Generator: Adobe Illustrator 23.1.1, SVG Export Plug-In . SVG Version: 6.00 Build 0)  -->
<svg version="1.1" xmlns="http://www.w3.org/2000/svg" xmlns:xlink="http://www.w3.org/1999/xlink" x="0px" y="0px"
	 viewBox="0 0 668.75 608.71" style="enable-background:new 0 0 668.75 608.71;" xml:space="preserve">
<style type="text/css">
	.st0{fill:#ABACB7;}
	.st1{fill:none;stroke:#FFFFFF;stroke-width:0.396;stroke-linejoin:round;stroke-miterlimit:10;}
	.st2{fill:none;stroke:#FFFFFF;stroke-width:0.9853;stroke-linejoin:round;stroke-miterlimit:10;}
	.st3{fill:#FFFFFF;}
	.st4{font-family:'Roboto';}
	.st5{font-size:8px;}
	.st6{opacity:0.3;fill:#FFFFFF;}
	.st7{opacity:0.3;fill:#2E8EA4;}
	.st8{fill:none;stroke:#2E8EA4;stroke-width:10.0401;stroke-miterlimit:10;}
	.st9{fill:none;stroke:#000000;stroke-width:10.0378;stroke-linejoin:round;stroke-miterlimit:10;}
	.st10{fill:none;stroke:#FFFFFF;stroke-width:0.4986;stroke-linejoin:round;stroke-miterlimit:10;}
	.st11{font-family:'Roboto';}
	.st12{fill:#237183;}
	.st13{fill:none;stroke:#FFFFFF;stroke-width:0.43;stroke-linejoin:round;stroke-miterlimit:10;}
	.st14{font-size:9px;}
	.st15{fill:none;stroke:#FFFFFF;stroke-width:1.07;stroke-linejoin:round;stroke-miterlimit:10;}
	.st16{fill:none;}
	.st17{font-size:10.0046px;}
	.st18{fill:#2E8EA4;}
	.st19{font-size:10px;}
	.st20{fill:none;stroke:#2E8EA4;stroke-miterlimit:10;}
	.st21{fill:#231F20;}
	.st22{font-size:24px;}
	.st23{font-size:17px;}
	.st24{fill:none;stroke:#000000;stroke-miterlimit:10;}
</style>
<g id="newscaffold">
	<rect class="st0" width="668.75" height="608.71"/>
	<line class="st1" x1="84.31" y1="310.29" x2="635.94" y2="310.29"/>
	<line class="st1" x1="100.87" y1="310.29" x2="100.87" y2="318.02"/>
	<line class="st2" x1="84.31" y1="310.29" x2="84.31" y2="330.23"/>
	<line class="st1" x1="115.82" y1="310.29" x2="115.82" y2="318.02"/>
	<line class="st1" x1="132.37" y1="310.29" x2="132.37" y2="318.02"/>
	<line class="st1" x1="148.4" y1="310.29" x2="148.4" y2="318.02"/>
	<line class="st1" x1="164.95" y1="310.29" x2="164.95" y2="318.02"/>
	<line class="st1" x1="180.97" y1="310.29" x2="180.97" y2="318.02"/>
	<line class="st1" x1="197.53" y1="310.29" x2="197.53" y2="318.02"/>
	<line class="st1" x1="214.08" y1="310.29" x2="214.08" y2="318.02"/>
	<line class="st1" x1="230.1" y1="310.29" x2="230.1" y2="318.02"/>
	<line class="st1" x1="246.65" y1="310.29" x2="246.65" y2="318.02"/>
	<line class="st1" x1="262.67" y1="310.29" x2="262.67" y2="318.02"/>
	<line class="st1" x1="279.22" y1="310.29" x2="279.22" y2="318.02"/>
	<line class="st1" x1="295.78" y1="310.29" x2="295.78" y2="318.02"/>
	<line class="st1" x1="310.73" y1="310.29" x2="310.73" y2="318.02"/>
	<line class="st1" x1="327.29" y1="310.29" x2="327.29" y2="318.02"/>
	<line class="st1" x1="343.31" y1="310.29" x2="343.31" y2="318.02"/>
	<line class="st1" x1="359.86" y1="310.29" x2="359.86" y2="318.02"/>
	<line class="st1" x1="375.88" y1="310.29" x2="375.88" y2="318.02"/>
	<line class="st1" x1="392.44" y1="310.29" x2="392.44" y2="318.02"/>
	<line class="st1" x1="408.99" y1="310.29" x2="408.99" y2="318.02"/>
	<line class="st1" x1="425.01" y1="310.29" x2="425.01" y2="318.02"/>
	<line class="st1" x1="441.57" y1="310.29" x2="441.57" y2="318.02"/>
	<line class="st1" x1="457.59" y1="310.29" x2="457.59" y2="318.02"/>
	<line class="st1" x1="474.14" y1="310.29" x2="474.14" y2="318.02"/>
	<line class="st1" x1="490.7" y1="310.29" x2="490.7" y2="318.02"/>
	<line class="st1" x1="505.65" y1="310.29" x2="505.65" y2="318.02"/>
	<line class="st1" x1="522.21" y1="310.29" x2="522.21" y2="318.02"/>
	<line class="st1" x1="538.23" y1="310.29" x2="538.23" y2="318.02"/>
	<line class="st1" x1="554.78" y1="310.29" x2="554.78" y2="318.02"/>
	<line class="st1" x1="570.8" y1="310.29" x2="570.8" y2="318.02"/>
	<line class="st1" x1="587.36" y1="310.29" x2="587.36" y2="318.02"/>
	<line class="st1" x1="603.9" y1="310.29" x2="603.9" y2="318.02"/>
	<line class="st1" x1="619.92" y1="310.29" x2="619.92" y2="318.02"/>
	<line class="st2" x1="279.22" y1="330.23" x2="279.22" y2="310.29"/>
	<line class="st2" x1="474.14" y1="330.23" x2="474.14" y2="310.29"/>
	<g>
		<text transform="matrix(1.0171 0 0 1 91.0353 323.3172)" class="st3 st4 st5">J</text>
		<text transform="matrix(1.0171 0 0 1 106.0993 323.3172)" class="st3 st4 st5">F</text>
		<text transform="matrix(1.0171 0 0 1 120.5988 323.3172)" class="st3 st4 st5">M</text>
		<text transform="matrix(1.0171 0 0 1 137.4664 323.3172)" class="st3 st4 st5">A</text>
		<text transform="matrix(1.0171 0 0 1 152.7765 323.3172)" class="st3 st4 st5">M</text>
		<text transform="matrix(1.0171 0 0 1 170.4625 323.3172)" class="st3 st4 st5">J</text>
		<text transform="matrix(1.0171 0 0 1 186.5514 323.3172)" class="st3 st4 st5">J</text>
		<text transform="matrix(1.0171 0 0 1 202.839 323.3172)" class="st3 st4 st5">A</text>
		<text transform="matrix(1.0171 0 0 1 219.4083 323.3172)" class="st3 st4 st5">S</text>
		<text transform="matrix(1.0171 0 0 1 235.7472 323.3172)" class="st3 st4 st5">O</text>
		<text transform="matrix(1.0171 0 0 1 251.63 323.3172)" class="st3 st4 st5">N</text>
		<text transform="matrix(1.0171 0 0 1 268.1832 323.3172)" class="st3 st4 st5">D</text>
		<text transform="matrix(1.0171 0 0 1 285.42 323.3172)" class="st3 st4 st5">J</text>
		<text transform="matrix(1.0171 0 0 1 300.4835 323.3172)" class="st3 st4 st5">F</text>
		<text transform="matrix(1.0171 0 0 1 314.9835 323.3172)" class="st3 st4 st5">M</text>
		<text transform="matrix(1.0171 0 0 1 331.8507 323.3172)" class="st3 st4 st5">A</text>
		<text transform="matrix(1.0171 0 0 1 347.1608 323.3172)" class="st3 st4 st5">M</text>
		<text transform="matrix(1.0171 0 0 1 364.8473 323.3172)" class="st3 st4 st5">J</text>
		<text transform="matrix(1.0171 0 0 1 380.9362 323.3172)" class="st3 st4 st5">J</text>
		<text transform="matrix(1.0171 0 0 1 397.2233 323.3172)" class="st3 st4 st5">A</text>
		<text transform="matrix(1.0171 0 0 1 413.7936 323.3172)" class="st3 st4 st5">S</text>
		<text transform="matrix(1.0171 0 0 1 430.1315 323.3172)" class="st3 st4 st5">O</text>
		<text transform="matrix(1.0171 0 0 1 446.0143 323.3172)" class="st3 st4 st5">N</text>
		<text transform="matrix(1.0171 0 0 1 462.568 323.3172)" class="st3 st4 st5">D</text>
		<text transform="matrix(1.0171 0 0 1 481.0455 323.3172)" class="st3 st4 st5">J</text>
		<text transform="matrix(1.0171 0 0 1 496.108 323.3172)" class="st3 st4 st5">F</text>
		<text transform="matrix(1.0171 0 0 1 510.608 323.3172)" class="st3 st4 st5">M</text>
		<text transform="matrix(1.0171 0 0 1 527.4752 323.3172)" class="st3 st4 st5">A</text>
		<text transform="matrix(1.0171 0 0 1 542.7858 323.3172)" class="st3 st4 st5">M</text>
		<text transform="matrix(1.0171 0 0 1 560.4723 323.3172)" class="st3 st4 st5">J</text>
		<text transform="matrix(1.0171 0 0 1 576.5612 323.3172)" class="st3 st4 st5">J</text>
		<text transform="matrix(1.0171 0 0 1 592.8483 323.3172)" class="st3 st4 st5">A</text>
		<text transform="matrix(1.0171 0 0 1 609.4186 323.3172)" class="st3 st4 st5">S</text>
		<text transform="matrix(1.0171 0 0 1 625.7565 323.3172)" class="st3 st4 st5">O</text>
	</g>
</g>
<g id="timeline">
	<rect x="305.69" y="60.12" class="st6" width="6.91" height="321.33"/>
	<rect x="497.88" y="60.12" class="st7" width="0.5" height="321.33"/>
	<rect x="326.45" y="60.12" class="st6" width="5.33" height="341.8"/>
	<rect x="326.45" y="60.12" class="st6" width="0.5" height="331.6"/>
	<rect x="349.86" y="60.12" class="st6" width="0.5" height="382.89"/>
	<rect x="486.52" y="60.12" class="st6" width="0.5" height="413.83"/>
	<rect x="494" y="60.12" class="st6" width="1.58" height="372.66"/>
	<rect x="536.03" y="60.12" class="st6" width="0.5" height="382.93"/>
	<rect x="536.05" y="60.12" class="st6" width="0.5" height="423.63"/>
	<rect x="537.09" y="60.12" class="st6" width="0.5" height="434.25"/>
	<rect x="539.75" y="60.12" class="st6" width="0.5" height="444.52"/>
	<rect x="335.48" y="60.12" class="st6" width="2.09" height="352.13"/>
	<rect x="339.16" y="60.12" class="st6" width="3.74" height="361.44"/>
	<rect x="339.71" y="60.12" class="st6" width="7.99" height="372.28"/>
	<rect x="479.1" y="60.12" class="st6" width="4.25" height="403.45"/>
	<rect x="499.05" y="60.12" class="st6" width="3.74" height="403.45"/>
	<rect x="625.91" y="60.12" class="st6" width="7.42" height="454.16"/>
	<rect x="382.84" y="60.12" class="st6" width="20.23" height="393.19"/>
	<line class="st8" x1="305.69" y1="376.32" x2="312.6" y2="376.32"/>
	<line class="st8" x1="498.25" y1="376.32" x2="498.78" y2="376.32"/>
	<line class="st9" x1="326.43" y1="386.58" x2="326.97" y2="386.58"/>
	<line class="st9" x1="326.43" y1="396.85" x2="331.75" y2="396.85"/>
	<line class="st9" x1="335.48" y1="407.11" x2="337.6" y2="407.11"/>
	<line class="st9" x1="339.2" y1="417.38" x2="342.92" y2="417.38"/>
	<line class="st9" x1="339.74" y1="427.64" x2="347.71" y2="427.64"/>
	<line class="st9" x1="493.99" y1="427.64" x2="495.59" y2="427.64"/>
	<line class="st9" x1="349.84" y1="437.91" x2="350.37" y2="437.91"/>
	<line class="st9" x1="536.02" y1="437.91" x2="536.54" y2="437.91"/>
	<line class="st9" x1="403.03" y1="448.18" x2="382.82" y2="448.18"/>
	<line class="st9" x1="479.09" y1="458.44" x2="483.35" y2="458.44"/>
	<line class="st9" x1="499.31" y1="458.44" x2="503.03" y2="458.44"/>
	<line class="st9" x1="525.37" y1="458.44" x2="525.37" y2="458.44"/>
	<line class="st9" x1="486.54" y1="468.71" x2="487.08" y2="468.71"/>
	<line class="st9" x1="536.02" y1="478.97" x2="536.54" y2="478.97"/>
	<line class="st9" x1="537.08" y1="489.23" x2="537.61" y2="489.23"/>
	<line class="st9" x1="539.74" y1="499.5" x2="540.27" y2="499.5"/>
	<line class="st9" x1="625.91" y1="509.76" x2="633.36" y2="509.76"/>
	<line class="st10" x1="304.98" y1="371.18" x2="635.62" y2="371.18"/>
	<line class="st10" x1="326.45" y1="381.45" x2="635.62" y2="381.45"/>
	<line class="st10" x1="326.45" y1="391.72" x2="635.62" y2="391.72"/>
	<line class="st10" x1="335.48" y1="401.98" x2="635.62" y2="401.98"/>
	<line class="st10" x1="339.2" y1="412.25" x2="635.62" y2="412.25"/>
	<line class="st10" x1="339.74" y1="422.51" x2="635.62" y2="422.51"/>
	<line class="st10" x1="350.37" y1="432.77" x2="635.62" y2="432.77"/>
	<line class="st10" x1="382.82" y1="443.04" x2="635.62" y2="443.04"/>
	<line class="st10" x1="478.44" y1="453.3" x2="635.62" y2="453.3"/>
	<line class="st10" x1="486.52" y1="463.57" x2="635.62" y2="463.57"/>
	<line class="st10" x1="536.08" y1="473.84" x2="635.62" y2="473.84"/>
	<line class="st10" x1="537.08" y1="484.1" x2="635.62" y2="484.1"/>
	<line class="st10" x1="539.52" y1="494.37" x2="635.62" y2="494.37"/>
	<line class="st10" x1="625.91" y1="504.63" x2="635.62" y2="504.63"/>
	<text transform="matrix(1.031 0 0 1 610.8456 512.4822)" class="st3 st11 st5">IL</text>
	<text transform="matrix(1.031 0 0 1 523.1525 502.2156)" class="st3 st11 st5">OR</text>
	<text transform="matrix(1.031 0 0 1 524.1068 491.951)" class="st3 st11 st5">TN</text>
	<text transform="matrix(1.031 0 0 1 520.3365 481.6932)" class="st3 st11 st5">SC</text>
	<text transform="matrix(1.031 0 0 1 473.5656 471.4266)" class="st3 st11 st5">VA</text>
	<text transform="matrix(1.031 0 0 1 460.1842 461.16)" class="st3 st11 st5">CA</text>
	<text transform="matrix(1.031 0 0 1 363.2385 450.8943)" class="st3 st11 st5">WA</text>
	<text transform="matrix(1.031 0 0 1 334.4154 440.6297)" class="st3 st11 st5">NC</text>
	<text transform="matrix(1.031 0 0 1 324.0903 430.3631)" class="st3 st11 st5">CO</text>
	<text transform="matrix(1.031 0 0 1 325.923 420.0955)" class="st3 st11 st5">AZ</text>
	<text transform="matrix(1.031 0 0 1 321.8575 409.8309)" class="st3 st11 st5">GA</text>
	<text transform="matrix(1.031 0 0 1 311.9538 399.5643)" class="st3 st11 st5">OK</text>
	<text transform="matrix(1.031 0 0 1 312.2218 389.3074)" class="st3 st11 st5">KY</text>
	<g>
		<text transform="matrix(1 0 0 1 285.571 379.0408)" class="st12 st4 st5">WV</text>
	</g>
</g>
<g id="Layer_1">
	<rect x="94.65" y="303.75" width="2.69" height="6.54"/>
	<rect x="98.39" y="297.22" width="2.69" height="13.07"/>
	<rect x="102.12" y="297.22" width="2.69" height="13.07"/>
	<rect x="105.86" y="277.61" width="2.69" height="32.68"/>
	<rect x="109.6" y="284.15" width="2.69" height="26.14"/>
	<rect x="113.33" y="271.08" width="2.69" height="39.21"/>
	<rect x="117.07" y="271.08" width="2.69" height="39.21"/>
	<rect x="120.8" y="212.26" width="2.69" height="98.03"/>
	<rect x="124.54" y="225.33" width="2.69" height="84.96"/>
	<rect x="128.28" y="290.68" width="2.69" height="19.61"/>
	<rect x="132.01" y="238.4" width="2.69" height="71.89"/>
	<rect x="135.75" y="271.08" width="2.69" height="39.21"/>
	<rect x="139.49" y="264.54" width="2.69" height="45.75"/>
	<rect x="143.22" y="290.68" width="2.69" height="19.61"/>
	<rect x="146.96" y="258.01" width="2.69" height="52.28"/>
	<rect x="150.69" y="205.73" width="2.69" height="104.56"/>
	<rect x="154.43" y="244.94" width="2.69" height="65.35"/>
	<rect x="158.17" y="284.15" width="2.69" height="26.14"/>
	<rect x="161.9" y="303.75" width="2.69" height="6.54"/>
	<rect x="165.64" y="264.54" width="2.69" height="45.75"/>
	<rect x="169.38" y="277.61" width="2.69" height="32.68"/>
	<rect x="173.11" y="297.22" width="2.69" height="13.07"/>
	<rect x="176.85" y="290.68" width="2.69" height="19.61"/>
	<rect x="184.32" y="303.75" width="2.69" height="6.54"/>
	<rect x="188.06" y="238.4" width="2.69" height="71.89"/>
	<rect x="191.79" y="290.68" width="2.69" height="19.61"/>
	<rect x="195.53" y="303.75" width="2.69" height="6.54"/>
	<rect x="199.27" y="297.22" width="2.69" height="13.07"/>
	<rect x="203" y="297.22" width="2.69" height="13.07"/>
	<rect x="206.74" y="297.22" width="2.69" height="13.07"/>
	<rect x="210.47" y="290.68" width="2.69" height="19.61"/>
	<rect x="217.95" y="258.01" width="2.69" height="52.28"/>
	<rect x="221.68" y="290.68" width="2.69" height="19.61"/>
	<rect x="225.42" y="231.87" width="2.69" height="78.42"/>
	<rect x="229.15" y="284.15" width="2.69" height="26.14"/>
	<rect x="232.89" y="244.94" width="2.69" height="65.35"/>
	<rect x="236.63" y="271.08" width="2.69" height="39.21"/>
	<rect x="240.36" y="271.08" width="2.69" height="39.21"/>
	<rect x="244.1" y="303.75" width="2.69" height="6.54"/>
	<rect x="247.84" y="297.22" width="2.69" height="13.07"/>
	<rect x="251.57" y="264.54" width="2.69" height="45.75"/>
	<rect x="259.04" y="284.15" width="2.69" height="26.14"/>
	<rect x="262.78" y="277.61" width="2.69" height="32.68"/>
	<rect x="266.52" y="284.15" width="2.69" height="26.14"/>
	<rect x="270.25" y="297.22" width="2.69" height="13.07"/>
	<rect x="277.73" y="297.22" width="2.69" height="13.07"/>
	<rect x="281.46" y="290.68" width="2.69" height="19.61"/>
	<rect x="285.2" y="297.22" width="2.69" height="13.07"/>
	<rect x="288.93" y="225.33" width="2.69" height="84.96"/>
	<rect x="292.67" y="212.26" width="2.69" height="98.03"/>
	<rect x="296.41" y="205.73" width="2.69" height="104.56"/>
	<rect x="300.14" y="173.05" width="2.69" height="137.24"/>
	<rect x="303.88" y="153.45" width="2.69" height="156.84"/>
	<rect x="307.62" y="212.26" width="2.69" height="98.03"/>
	<rect x="311.35" y="238.4" width="2.69" height="71.89"/>
	<rect x="315.09" y="212.26" width="2.69" height="98.03"/>
	<rect x="318.82" y="192.66" width="2.69" height="117.63"/>
	<rect x="322.56" y="166.52" width="2.69" height="143.77"/>
	<rect x="326.3" y="107.7" width="2.69" height="202.59"/>
	<rect x="330.03" y="75.03" width="2.69" height="235.26"/>
	<rect x="333.77" y="192.66" width="2.69" height="117.63"/>
	<rect x="337.51" y="114.24" width="2.69" height="196.05"/>
	<rect x="341.24" y="264.54" width="2.69" height="45.75"/>
	<rect x="344.98" y="199.19" width="2.69" height="111.1"/>
	<rect x="348.71" y="238.4" width="2.69" height="71.89"/>
	<rect x="352.45" y="271.08" width="2.69" height="39.21"/>
	<rect x="356.19" y="271.08" width="2.69" height="39.21"/>
	<rect x="359.92" y="297.22" width="2.69" height="13.07"/>
	<rect x="363.66" y="290.68" width="2.69" height="19.61"/>
	<rect x="367.39" y="271.08" width="2.69" height="39.21"/>
	<rect x="371.13" y="303.75" width="2.69" height="6.54"/>
	<rect x="382.34" y="297.22" width="2.69" height="13.07"/>
	<rect x="386.08" y="303.75" width="2.69" height="6.54"/>
	<rect x="389.81" y="297.22" width="2.69" height="13.07"/>
	<rect x="393.55" y="290.68" width="2.69" height="19.61"/>
	<rect x="397.28" y="297.22" width="2.69" height="13.07"/>
	<rect x="401.02" y="244.94" width="2.69" height="65.35"/>
	<rect x="404.76" y="271.08" width="2.69" height="39.21"/>
	<rect x="408.49" y="297.22" width="2.69" height="13.07"/>
	<rect x="412.23" y="238.4" width="2.69" height="71.89"/>
	<rect x="415.97" y="277.61" width="2.69" height="32.68"/>
	<rect x="419.7" y="258.01" width="2.69" height="52.28"/>
	<rect x="423.44" y="244.94" width="2.69" height="65.35"/>
	<rect x="427.17" y="277.61" width="2.69" height="32.68"/>
	<rect x="430.91" y="264.54" width="2.69" height="45.75"/>
	<rect x="434.65" y="251.47" width="2.69" height="58.82"/>
	<rect x="438.38" y="290.68" width="2.69" height="19.61"/>
	<rect x="442.12" y="290.68" width="2.69" height="19.61"/>
	<rect x="445.86" y="264.54" width="2.69" height="45.75"/>
	<rect x="449.59" y="297.22" width="2.69" height="13.07"/>
	<rect x="453.33" y="277.61" width="2.69" height="32.68"/>
	<rect x="457.06" y="264.54" width="2.69" height="45.75"/>
	<rect x="460.8" y="277.61" width="2.69" height="32.68"/>
	<rect x="464.54" y="284.15" width="2.69" height="26.14"/>
	<rect x="468.27" y="303.75" width="2.69" height="6.54"/>
	<rect x="472.01" y="303.75" width="2.69" height="6.54"/>
	<rect x="475.75" y="297.22" width="2.69" height="13.07"/>
	<rect x="479.48" y="271.08" width="2.69" height="39.21"/>
	<rect x="483.22" y="238.4" width="2.69" height="71.89"/>
	<rect x="486.95" y="271.08" width="2.69" height="39.21"/>
	<rect x="490.69" y="284.15" width="2.69" height="26.14"/>
	<rect x="494.43" y="277.61" width="2.69" height="32.68"/>
	<rect x="498.16" y="238.4" width="2.69" height="71.89"/>
	<rect x="501.9" y="251.47" width="2.69" height="58.82"/>
	<rect x="505.63" y="179.59" width="2.69" height="130.7"/>
	<rect x="509.37" y="251.47" width="2.69" height="58.82"/>
	<rect x="513.11" y="244.94" width="2.69" height="65.35"/>
	<rect x="516.84" y="258.01" width="2.69" height="52.28"/>
	<rect x="520.58" y="218.8" width="2.69" height="91.49"/>
	<rect x="524.32" y="199.19" width="2.69" height="111.1"/>
	<rect x="528.05" y="179.59" width="2.69" height="130.7"/>
	<rect x="531.79" y="205.73" width="2.69" height="104.56"/>
	<rect x="535.52" y="199.19" width="2.69" height="111.1"/>
	<rect x="539.26" y="159.98" width="2.69" height="150.31"/>
	<rect x="543" y="166.52" width="2.69" height="143.77"/>
	<rect x="546.73" y="199.19" width="2.69" height="111.1"/>
	<rect x="550.47" y="271.08" width="2.69" height="39.21"/>
	<rect x="554.21" y="284.15" width="2.69" height="26.14"/>
	<rect x="557.94" y="251.47" width="2.69" height="58.82"/>
	<rect x="561.68" y="238.4" width="2.69" height="71.89"/>
	<rect x="565.41" y="258.01" width="2.69" height="52.28"/>
	<rect x="569.15" y="303.75" width="2.69" height="6.54"/>
	<rect x="572.89" y="303.75" width="2.69" height="6.54"/>
	<rect x="576.62" y="284.15" width="2.69" height="26.14"/>
	<rect x="580.36" y="297.22" width="2.69" height="13.07"/>
	<rect x="584.1" y="297.22" width="2.69" height="13.07"/>
	<rect x="587.83" y="303.75" width="2.69" height="6.54"/>
	<rect x="591.57" y="303.75" width="2.69" height="6.54"/>
	<rect x="595.3" y="290.68" width="2.69" height="19.61"/>
	<rect x="599.04" y="284.15" width="2.69" height="26.14"/>
	<rect x="602.78" y="277.61" width="2.69" height="32.68"/>
	<rect x="606.51" y="231.87" width="2.69" height="78.42"/>
	<rect x="610.25" y="258.01" width="2.69" height="52.28"/>
	<rect x="613.98" y="271.08" width="2.69" height="39.21"/>
	<rect x="617.72" y="290.68" width="2.69" height="19.61"/>
	<rect x="621.46" y="303.75" width="2.69" height="6.54"/>
	<rect x="625.19" y="277.61" width="2.69" height="32.68"/>
	<rect x="628.93" y="231.87" width="2.69" height="78.42"/>
	<rect x="632.67" y="297.22" width="2.69" height="13.07"/>
	<line class="st13" x1="84.26" y1="310.29" x2="635.62" y2="310.29"/>
	<line class="st13" x1="84.26" y1="310.29" x2="635.62" y2="310.29"/>
	<line class="st13" x1="84.26" y1="310.29" x2="635.62" y2="310.29"/>
	<line class="st13" x1="84.26" y1="310.29" x2="635.62" y2="310.29"/>
	<line class="st13" x1="84.26" y1="310.29" x2="635.62" y2="310.29"/>
	<line class="st13" x1="84.26" y1="310.29" x2="635.62" y2="310.29"/>
	<line class="st13" x1="84.26" y1="310.29" x2="635.62" y2="310.29"/>
	<line class="st13" x1="84.26" y1="310.29" x2="635.62" y2="310.29"/>
	<line class="st13" x1="84.26" y1="310.29" x2="635.62" y2="310.29"/>
	<line class="st13" x1="84.26" y1="310.29" x2="635.62" y2="310.29"/>
	<line class="st13" x1="84.26" y1="310.29" x2="635.62" y2="310.29"/>
	<line class="st13" x1="84.26" y1="310.29" x2="635.62" y2="310.29"/>
	<line class="st13" x1="84.26" y1="310.29" x2="635.62" y2="310.29"/>
	<line class="st13" x1="84.26" y1="310.29" x2="635.62" y2="310.29"/>
	<line class="st13" x1="84.26" y1="310.29" x2="635.62" y2="310.29"/>
	<line class="st13" x1="84.26" y1="310.29" x2="635.62" y2="310.29"/>
	<line class="st13" x1="84.26" y1="310.29" x2="635.62" y2="310.29"/>
	<line class="st13" x1="84.26" y1="310.29" x2="635.62" y2="310.29"/>
	<line class="st13" x1="84.26" y1="310.29" x2="635.62" y2="310.29"/>
	<line class="st13" x1="84.26" y1="310.29" x2="635.62" y2="310.29"/>
	<line class="st13" x1="84.26" y1="310.29" x2="635.62" y2="310.29"/>
	<line class="st13" x1="84.26" y1="310.29" x2="635.62" y2="310.29"/>
	<line class="st13" x1="84.26" y1="310.29" x2="635.62" y2="310.29"/>
	<line class="st13" x1="84.26" y1="310.29" x2="635.62" y2="310.29"/>
	<line class="st13" x1="84.26" y1="310.29" x2="635.62" y2="310.29"/>
	<line class="st13" x1="84.26" y1="310.29" x2="635.62" y2="310.29"/>
	<line class="st13" x1="84.26" y1="310.29" x2="635.62" y2="310.29"/>
	<line class="st13" x1="84.26" y1="310.29" x2="635.62" y2="310.29"/>
	<line class="st13" x1="84.26" y1="310.29" x2="635.62" y2="310.29"/>
	<line class="st13" x1="84.26" y1="310.29" x2="635.62" y2="310.29"/>
	<line class="st13" x1="84.26" y1="310.29" x2="635.62" y2="310.29"/>
	<line class="st13" x1="84.26" y1="310.29" x2="635.62" y2="310.29"/>
	<line class="st13" x1="84.26" y1="310.29" x2="635.62" y2="310.29"/>
	<line class="st13" x1="84.26" y1="310.29" x2="635.62" y2="310.29"/>
	<line class="st13" x1="84.26" y1="310.29" x2="635.62" y2="310.29"/>
	<line class="st13" x1="84.26" y1="310.29" x2="635.62" y2="310.29"/>
	<line class="st13" x1="84.26" y1="310.29" x2="635.62" y2="310.29"/>
	<line class="st13" x1="84.26" y1="310.29" x2="635.62" y2="310.29"/>
	<line class="st13" x1="84.26" y1="310.29" x2="635.62" y2="310.29"/>
	<line class="st13" x1="84.26" y1="310.29" x2="635.62" y2="310.29"/>
	<line class="st13" x1="84.26" y1="310.29" x2="635.62" y2="310.29"/>
	<line class="st13" x1="84.26" y1="310.29" x2="635.62" y2="310.29"/>
	<line class="st13" x1="84.26" y1="310.29" x2="635.62" y2="310.29"/>
	<line class="st13" x1="84.26" y1="310.29" x2="635.62" y2="310.29"/>
	<line class="st13" x1="84.26" y1="310.29" x2="635.62" y2="310.29"/>
	<line class="st13" x1="84.26" y1="310.29" x2="635.62" y2="310.29"/>
	<line class="st13" x1="84.26" y1="310.29" x2="635.62" y2="310.29"/>
	<line class="st13" x1="84.26" y1="310.29" x2="635.62" y2="310.29"/>
	<line class="st13" x1="84.26" y1="310.29" x2="635.62" y2="310.29"/>
	<line class="st13" x1="84.26" y1="310.29" x2="635.62" y2="310.29"/>
	<line class="st13" x1="84.26" y1="310.29" x2="635.62" y2="310.29"/>
	<line class="st13" x1="84.26" y1="310.29" x2="635.62" y2="310.29"/>
	<line class="st13" x1="84.26" y1="310.29" x2="635.62" y2="310.29"/>
	<line class="st13" x1="84.26" y1="310.29" x2="635.62" y2="310.29"/>
	<line class="st13" x1="84.26" y1="310.29" x2="635.62" y2="310.29"/>
	<line class="st13" x1="84.26" y1="310.29" x2="635.62" y2="310.29"/>
	<line class="st13" x1="84.26" y1="310.29" x2="635.62" y2="310.29"/>
	<line class="st13" x1="84.26" y1="310.29" x2="635.62" y2="310.29"/>
	<line class="st13" x1="84.26" y1="310.29" x2="635.62" y2="310.29"/>
	<line class="st13" x1="84.26" y1="310.29" x2="635.62" y2="310.29"/>
	<line class="st13" x1="84.26" y1="310.29" x2="635.62" y2="310.29"/>
	<line class="st13" x1="84.26" y1="310.29" x2="635.62" y2="310.29"/>
	<line class="st13" x1="84.26" y1="310.29" x2="635.62" y2="310.29"/>
	<line class="st13" x1="84.26" y1="310.29" x2="635.62" y2="310.29"/>
	<line class="st13" x1="84.26" y1="310.29" x2="635.62" y2="310.29"/>
	<line class="st13" x1="84.26" y1="310.29" x2="635.62" y2="310.29"/>
	<line class="st13" x1="84.26" y1="310.29" x2="635.62" y2="310.29"/>
	<line class="st13" x1="84.26" y1="310.29" x2="635.62" y2="310.29"/>
	<line class="st13" x1="84.26" y1="310.29" x2="635.62" y2="310.29"/>
	<line class="st13" x1="84.26" y1="310.29" x2="635.62" y2="310.29"/>
	<line class="st13" x1="84.26" y1="310.29" x2="635.62" y2="310.29"/>
	<line class="st13" x1="84.26" y1="310.29" x2="635.62" y2="310.29"/>
	<line class="st13" x1="84.26" y1="310.29" x2="635.62" y2="310.29"/>
	<line class="st13" x1="84.26" y1="310.29" x2="635.62" y2="310.29"/>
	<line class="st13" x1="84.26" y1="310.29" x2="635.62" y2="310.29"/>
	<line class="st13" x1="84.26" y1="310.29" x2="635.62" y2="310.29"/>
	<line class="st13" x1="84.26" y1="310.29" x2="635.62" y2="310.29"/>
	<line class="st13" x1="84.26" y1="310.29" x2="635.62" y2="310.29"/>
	<line class="st13" x1="84.26" y1="310.29" x2="635.62" y2="310.29"/>
	<line class="st13" x1="84.26" y1="310.29" x2="635.62" y2="310.29"/>
	<line class="st13" x1="84.26" y1="310.29" x2="635.62" y2="310.29"/>
	<line class="st13" x1="84.26" y1="310.29" x2="635.62" y2="310.29"/>
	<line class="st13" x1="84.26" y1="310.29" x2="635.62" y2="310.29"/>
	<line class="st13" x1="84.26" y1="310.29" x2="635.62" y2="310.29"/>
	<line class="st13" x1="84.26" y1="310.29" x2="635.62" y2="310.29"/>
	<line class="st13" x1="84.26" y1="310.29" x2="635.62" y2="310.29"/>
	<line class="st13" x1="84.26" y1="310.29" x2="635.62" y2="310.29"/>
	<line class="st13" x1="84.26" y1="310.29" x2="635.62" y2="310.29"/>
	<line class="st13" x1="84.26" y1="310.29" x2="635.62" y2="310.29"/>
	<line class="st13" x1="84.26" y1="310.29" x2="635.62" y2="310.29"/>
	<line class="st13" x1="84.26" y1="310.29" x2="635.62" y2="310.29"/>
	<line class="st13" x1="84.26" y1="310.29" x2="635.62" y2="310.29"/>
	<line class="st13" x1="84.26" y1="310.29" x2="635.62" y2="310.29"/>
	<line class="st13" x1="84.26" y1="310.29" x2="635.62" y2="310.29"/>
	<line class="st13" x1="84.26" y1="310.29" x2="635.62" y2="310.29"/>
	<line class="st13" x1="84.26" y1="310.29" x2="635.62" y2="310.29"/>
	<line class="st13" x1="84.26" y1="310.29" x2="635.62" y2="310.29"/>
	<line class="st13" x1="84.26" y1="310.29" x2="635.62" y2="310.29"/>
	<line class="st13" x1="84.26" y1="310.29" x2="635.62" y2="310.29"/>
	<line class="st13" x1="84.26" y1="310.29" x2="635.62" y2="310.29"/>
	<line class="st13" x1="84.26" y1="310.29" x2="635.62" y2="310.29"/>
	<line class="st13" x1="84.26" y1="310.29" x2="635.62" y2="310.29"/>
	<line class="st13" x1="84.26" y1="310.29" x2="635.62" y2="310.29"/>
	<line class="st13" x1="84.26" y1="310.29" x2="635.62" y2="310.29"/>
	<line class="st13" x1="84.26" y1="310.29" x2="635.62" y2="310.29"/>
	<line class="st13" x1="84.26" y1="310.29" x2="635.62" y2="310.29"/>
	<line class="st13" x1="84.26" y1="310.29" x2="635.62" y2="310.29"/>
	<line class="st13" x1="84.26" y1="310.29" x2="635.62" y2="310.29"/>
	<line class="st13" x1="84.26" y1="310.29" x2="635.62" y2="310.29"/>
	<line class="st13" x1="84.26" y1="310.29" x2="635.62" y2="310.29"/>
	<line class="st13" x1="84.26" y1="310.29" x2="635.62" y2="310.29"/>
	<line class="st13" x1="84.26" y1="310.29" x2="635.62" y2="310.29"/>
	<line class="st13" x1="84.26" y1="310.29" x2="635.62" y2="310.29"/>
	<line class="st13" x1="84.26" y1="310.29" x2="635.62" y2="310.29"/>
	<line class="st13" x1="84.26" y1="310.29" x2="635.62" y2="310.29"/>
	<line class="st13" x1="84.26" y1="310.29" x2="635.62" y2="310.29"/>
	<line class="st13" x1="84.26" y1="310.29" x2="635.62" y2="310.29"/>
	<line class="st13" x1="84.26" y1="310.29" x2="635.62" y2="310.29"/>
	<line class="st13" x1="84.26" y1="310.29" x2="635.62" y2="310.29"/>
	<line class="st13" x1="84.26" y1="310.29" x2="635.62" y2="310.29"/>
	<line class="st13" x1="84.26" y1="310.29" x2="635.62" y2="310.29"/>
	<line class="st13" x1="84.26" y1="310.29" x2="635.62" y2="310.29"/>
	<line class="st13" x1="84.26" y1="310.29" x2="635.62" y2="310.29"/>
	<line class="st13" x1="84.26" y1="310.29" x2="635.62" y2="310.29"/>
	<line class="st13" x1="84.26" y1="310.29" x2="635.62" y2="310.29"/>
	<line class="st13" x1="84.26" y1="310.29" x2="635.62" y2="310.29"/>
	<line class="st13" x1="84.26" y1="310.29" x2="635.62" y2="310.29"/>
	<line class="st13" x1="84.26" y1="310.29" x2="635.62" y2="310.29"/>
	<line class="st13" x1="84.26" y1="310.29" x2="635.62" y2="310.29"/>
	<line class="st13" x1="84.26" y1="310.29" x2="635.62" y2="310.29"/>
	<line class="st13" x1="84.26" y1="310.29" x2="635.62" y2="310.29"/>
	<line class="st13" x1="84.26" y1="310.29" x2="635.62" y2="310.29"/>
	<line class="st13" x1="84.26" y1="310.29" x2="635.62" y2="310.29"/>
	<line class="st13" x1="84.26" y1="310.29" x2="635.62" y2="310.29"/>
	<line class="st13" x1="84.26" y1="310.29" x2="635.62" y2="310.29"/>
	<line class="st13" x1="84.26" y1="310.29" x2="635.62" y2="310.29"/>
	<line class="st13" x1="84.26" y1="310.29" x2="635.62" y2="310.29"/>
	<line class="st13" x1="84.26" y1="310.29" x2="635.62" y2="310.29"/>
	<line class="st13" x1="84.26" y1="310.29" x2="635.62" y2="310.29"/>
	<text transform="matrix(1 0 0 1 44.5084 313.5203)" class="st3 st11 st14">0</text>
	<text transform="matrix(1 0 0 1 39.5084 248.1707)" class="st3 st11 st14">10</text>
	<text transform="matrix(1 0 0 1 39.5084 182.8206)" class="st3 st11 st14">20</text>
	<text transform="matrix(1 0 0 1 39.5084 117.471)" class="st3 st11 st14">30</text>
	<line class="st15" x1="51.71" y1="310.29" x2="56.69" y2="310.29"/>
	<line class="st15" x1="51.71" y1="244.94" x2="56.69" y2="244.94"/>
	<line class="st15" x1="51.71" y1="179.59" x2="56.69" y2="179.59"/>
	<line class="st15" x1="51.71" y1="114.24" x2="56.69" y2="114.24"/>
	<text transform="matrix(1 0 0 1 174.9523 342.6004)" class="st3 st11 st14">2017</text>
	<text transform="matrix(1 0 0 1 367.7386 342.6004)" class="st3 st11 st14">2018</text>
	<text transform="matrix(1 0 0 1 548.0787 342.6004)" class="st3 st11 st14">2019</text>
	<path class="st13" d="M635.62,310.72"/>
	<line class="st13" x1="635.62" y1="310.72" x2="635.62" y2="318.02"/>
	<rect x="39.51" y="58.17" class="st16" width="84.24" height="48.89"/>
	<text transform="matrix(1 0 0 1 39.5085 65.6701)"><tspan x="0" y="0" class="st3 st4 st17">Education-related </tspan><tspan x="0" y="12.01" class="st3 st4 st17">protests per week</tspan></text>
	<rect x="207.08" y="68.38" class="st16" width="87.48" height="39.97"/>
	<text transform="matrix(1 0 0 1 219.7476 75.8872)"><tspan x="0" y="0" class="st3 st4 st17">Translucent bars </tspan><tspan x="-4.28" y="12.01" class="st3 st4 st17">indicate a teacher </tspan><tspan x="-4.36" y="24.01" class="st3 st4 st17">strike is occurring</tspan></text>
	<path class="st18" d="M94.29,309.84h3.36H94.29z"/>
	<path class="st18" d="M98.03,309.84h3.36H98.03z"/>
	<path class="st18" d="M101.76,309.84h3.36H101.76z"/>
	<path class="st18" d="M105.49,309.84h3.36H105.49z"/>
	<path class="st18" d="M109.23,309.84h3.36H109.23z"/>
	<path class="st18" d="M112.97,309.84h3.36H112.97z"/>
	<path class="st18" d="M116.7,309.84h3.36H116.7z"/>
	<path class="st18" d="M120.44,309.84h3.36H120.44z"/>
	<path class="st18" d="M124.18,309.84h3.36H124.18z"/>
	<path class="st18" d="M127.91,309.84h3.36H127.91z"/>
	<path class="st18" d="M131.64,309.84H135H131.64z"/>
	<path class="st18" d="M135.38,309.84h3.36H135.38z"/>
	<path class="st18" d="M139.12,309.84h3.36H139.12z"/>
	<path class="st18" d="M142.86,309.84h3.36H142.86z"/>
	<path class="st18" d="M146.6,309.84h3.36H146.6z"/>
	<path class="st18" d="M150.33,309.84h3.36H150.33z"/>
	<path class="st18" d="M154.06,309.84h3.36H154.06z"/>
	<path class="st18" d="M157.8,309.84h3.36H157.8z"/>
	<path class="st18" d="M161.54,309.84h3.36H161.54z"/>
	<path class="st18" d="M165.28,309.84h3.36H165.28z"/>
	<path class="st18" d="M169.01,309.84h3.36H169.01z"/>
	<path class="st18" d="M172.75,309.84h3.36H172.75z"/>
	<path class="st18" d="M176.48,309.84h3.36H176.48z"/>
	<path class="st18" d="M183.95,309.84h3.36H183.95z"/>
	<path class="st18" d="M187.69,309.84h3.36H187.69z"/>
	<path class="st18" d="M191.43,309.84h3.36H191.43z"/>
	<path class="st18" d="M195.17,309.84h3.36H195.17z"/>
	<path class="st18" d="M198.89,309.84h3.36H198.89z"/>
	<path class="st18" d="M202.63,309.84h3.36H202.63z"/>
	<path class="st18" d="M206.37,309.84h3.36H206.37z"/>
	<path class="st18" d="M210.11,309.84h3.36H210.11z"/>
	<path class="st18" d="M217.58,309.84h3.36H217.58z"/>
	<path class="st18" d="M221.31,309.84h3.36H221.31z"/>
	<path class="st18" d="M225.05,309.84h3.36H225.05z"/>
	<path class="st18" d="M228.79,309.84h3.36H228.79z"/>
	<path class="st18" d="M232.52,309.84h3.36H232.52z"/>
	<path class="st18" d="M236.26,309.84h3.36H236.26z"/>
	<path class="st18" d="M240,309.84h3.36H240z"/>
	<path class="st18" d="M243.74,309.84h3.36H243.74z"/>
	<path class="st18" d="M247.47,309.84h3.36H247.47z"/>
	<path class="st18" d="M251.2,309.84h3.36H251.2z"/>
	<path class="st18" d="M258.68,309.84h3.36H258.68z"/>
	<path class="st18" d="M262.42,309.84h3.36H262.42z"/>
	<path class="st18" d="M266.16,309.84h3.36H266.16z"/>
	<path class="st18" d="M269.88,309.84h3.36H269.88z"/>
	<path class="st18" d="M277.36,309.84h3.36H277.36z"/>
	<path class="st18" d="M281.1,309.84h3.36H281.1z"/>
	<path class="st18" d="M284.83,309.84h3.36H284.83z"/>
	<rect x="288.91" y="303.35" class="st12" width="2.69" height="6.5"/>
	<rect x="292.63" y="231.9" class="st12" width="2.69" height="77.94"/>
	<rect x="296.37" y="238.4" class="st12" width="2.69" height="71.45"/>
	<rect x="300.11" y="270.87" class="st12" width="2.69" height="38.97"/>
	<rect x="303.85" y="212.42" class="st12" width="2.69" height="97.43"/>
	<rect x="307.59" y="283.86" class="st12" width="2.69" height="25.98"/>
	<rect x="311.32" y="303.35" class="st12" width="2.69" height="6.5"/>
	<path class="st18" d="M314.72,309.84h3.36H314.72z"/>
	<path class="st18" d="M318.45,309.84h3.36H318.45z"/>
	<path class="st18" d="M322.19,309.84h3.36H322.19z"/>
	<path class="st18" d="M325.93,309.84h3.36H325.93z"/>
	<path class="st18" d="M329.67,309.84h3.36H329.67z"/>
	<path class="st18" d="M333.41,309.84h3.36H333.41z"/>
	<path class="st18" d="M337.14,309.84h3.36H337.14z"/>
	<path class="st18" d="M340.87,309.84h3.36H340.87z"/>
	<path class="st18" d="M344.61,309.84h3.36H344.61z"/>
	<path class="st18" d="M348.35,309.84h3.36H348.35z"/>
	<path class="st18" d="M352.08,309.84h3.36H352.08z"/>
	<path class="st18" d="M355.82,309.84h3.36H355.82z"/>
	<path class="st18" d="M359.56,309.84h3.36H359.56z"/>
	<path class="st18" d="M363.29,309.84h3.36H363.29z"/>
	<path class="st18" d="M367.02,309.84h3.36H367.02z"/>
	<path class="st18" d="M370.76,309.84h3.36H370.76z"/>
	<path class="st18" d="M381.98,309.84h3.36H381.98z"/>
	<path class="st18" d="M385.7,309.84h3.36H385.7z"/>
	<path class="st18" d="M389.44,309.84h3.36H389.44z"/>
	<path class="st18" d="M393.18,309.84h3.36H393.18z"/>
	<path class="st18" d="M396.92,309.84h3.36H396.92z"/>
	<path class="st18" d="M400.65,309.84h3.36H400.65z"/>
	<path class="st18" d="M404.39,309.84h3.36H404.39z"/>
	<path class="st18" d="M408.12,309.84h3.36H408.12z"/>
	<rect x="412.19" y="303.35" class="st12" width="2.69" height="6.5"/>
	<path class="st18" d="M415.6,309.84h3.36H415.6z"/>
	<path class="st18" d="M419.33,309.84h3.36H419.33z"/>
	<path class="st18" d="M423.07,309.84h3.36H423.07z"/>
	<path class="st18" d="M426.81,309.84h3.36H426.81z"/>
	<path class="st18" d="M430.55,309.84h3.36H430.55z"/>
	<rect x="434.61" y="303.35" class="st12" width="2.69" height="6.5"/>
	<path class="st18" d="M438.01,309.84h3.36H438.01z"/>
	<path class="st18" d="M441.75,309.84h3.36H441.75z"/>
	<path class="st18" d="M445.49,309.84h3.36H445.49z"/>
	<path class="st18" d="M449.23,309.84h3.36H449.23z"/>
	<path class="st18" d="M452.96,309.84h3.36H452.96z"/>
	<path class="st18" d="M456.69,309.84h3.36H456.69z"/>
	<path class="st18" d="M460.43,309.84h3.36H460.43z"/>
	<path class="st18" d="M464.17,309.84h3.36H464.17z"/>
	<path class="st18" d="M467.9,309.84h3.36H467.9z"/>
	<path class="st18" d="M471.64,309.84H475H471.64z"/>
	<path class="st18" d="M475.38,309.84h3.36H475.38z"/>
	<path class="st18" d="M479.11,309.84h3.36H479.11z"/>
	<rect x="483.18" y="303.35" class="st12" width="2.69" height="6.5"/>
	<rect x="486.92" y="303.35" class="st12" width="2.69" height="6.5"/>
	<rect x="490.66" y="303.35" class="st12" width="2.69" height="6.5"/>
	<path class="st18" d="M494.06,309.84h3.36H494.06z"/>
	<rect x="498.13" y="296.85" class="st12" width="2.69" height="12.99"/>
	<path class="st18" d="M501.52,309.84h3.36H501.52z"/>
	<path class="st18" d="M505.26,309.84h3.36H505.26z"/>
	<path class="st18" d="M509,309.84h3.36H509z"/>
	<path class="st18" d="M512.74,309.84h3.36H512.74z"/>
	<path class="st18" d="M516.48,309.84h3.36H516.48z"/>
	<path class="st18" d="M520.21,309.84h3.36H520.21z"/>
	<path class="st18" d="M523.95,309.84h3.36H523.95z"/>
	<path class="st18" d="M527.68,309.84h3.36H527.68z"/>
	<path class="st18" d="M531.42,309.84h3.36H531.42z"/>
	<path class="st18" d="M535.15,309.84h3.36H535.15z"/>
	<path class="st18" d="M538.89,309.84h3.36H538.89z"/>
	<path class="st18" d="M542.63,309.84h3.36H542.63z"/>
	<path class="st18" d="M546.37,309.84h3.36H546.37z"/>
	<path class="st18" d="M550.09,309.84h3.36H550.09z"/>
	<path class="st18" d="M553.83,309.84h3.36H553.83z"/>
	<path class="st18" d="M557.57,309.84h3.36H557.57z"/>
	<path class="st18" d="M561.31,309.84h3.36H561.31z"/>
	<path class="st18" d="M565.05,309.84h3.36H565.05z"/>
	<path class="st18" d="M568.78,309.84h3.36H568.78z"/>
	<path class="st18" d="M572.51,309.84h3.36H572.51z"/>
	<path class="st18" d="M576.25,309.84h3.36H576.25z"/>
	<path class="st18" d="M579.99,309.84h3.36H579.99z"/>
	<path class="st18" d="M583.73,309.84h3.36H583.73z"/>
	<path class="st18" d="M587.46,309.84h3.36H587.46z"/>
	<path class="st18" d="M591.2,309.84h3.36H591.2z"/>
	<path class="st18" d="M594.93,309.84h3.36H594.93z"/>
	<path class="st18" d="M598.67,309.84h3.36H598.67z"/>
	<rect x="206.58" y="195.95" class="st16" width="75.06" height="32.93"/>
	<text transform="matrix(1 0 0 1 214.6414 201.9492)"><tspan x="0" y="0" class="st4 st5">Education protests </tspan><tspan x="-0.01" y="12" class="st4 st5">in </tspan><tspan x="8.33" y="12" class="st12 st4 st19">West Virginia</tspan></text>
	<rect x="188.07" y="411.18" class="st16" width="69.84" height="32.93"/>
	<text transform="matrix(1 0 0 1 205.2606 417.1772)"><tspan x="0" y="0" class="st4 st5">West Virginia’s </tspan><tspan x="-16.88" y="9.6" class="st4 st5">initial teacher strike </tspan><tspan x="0.3" y="19.2" class="st4 st5">(Feb 22-Mar 7)</tspan></text>
	<g>
		<g>
			<path class="st20" d="M257.43,216.96c0.52,3.23,19.67,39.7,30.27,43.93"/>
			<g>
				<path class="st18" d="M287.46,260.77c-0.51-0.78-0.56-2.12-0.4-3.01c0.64,1.37,1.58,2.64,2.85,3.51c-1.5,0.27-2.83,1.14-4,2.1
					C286.18,262.44,286.65,261.34,287.46,260.77z"/>
			</g>
		</g>
	</g>
	<rect x="21.31" y="14.59" class="st16" width="647.43" height="36.39"/>
	<text transform="matrix(1 0 0 1 21.3136 32.5944)" class="st21 st4 st22">West Virginia leads wave of  strikes and education protests</text>
	<rect x="375.88" y="568.19" class="st16" width="259.5" height="36.3"/>
	<text transform="matrix(1 0 0 1 386.3775 574.1859)"><tspan x="0" y="0" class="st3 st4 st5">Includes multi-district teacher strikes or teacher strikes in major cities.</tspan><tspan x="153.65" y="9.6" class="st3 st4 st5">Data source: countlove.org</tspan><tspan x="153.52" y="19.2" class="st3 st4 st5">Graphics by Alyssa Fowers</tspan></text>
	<g>
		<rect x="89" y="367.53" class="st16" width="125.07" height="44.72"/>
		<text transform="matrix(1 0 0 1 89.0046 380.2784)"><tspan x="0" y="0" class="st3 st4 st23">Teacher Strikes </tspan><tspan x="0" y="20.4" class="st3 st4 st23">by State</tspan></text>
	</g>
	<g>
		<g>
			<path class="st24" d="M263.04,418.15c3.23-0.52,39.7-19.67,43.93-30.27"/>
			<g>
				<path d="M306.85,388.12c-0.78,0.51-2.12,0.56-3.01,0.4c1.37-0.64,2.64-1.58,3.51-2.85c0.27,1.5,1.14,2.83,2.1,4
					C308.52,389.4,307.42,388.94,306.85,388.12z"/>
			</g>
		</g>
	</g>
	<rect x="226.77" y="470.93" class="st16" width="114.77" height="39.38"/>
	<text transform="matrix(1 0 0 1 249.313 476.9336)"><tspan x="0" y="0" class="st4 st5">Washington state schools </tspan><tspan x="-14.85" y="9.6" class="st4 st5">missed their first day of scholl </tspan><tspan x="-21" y="19.2" class="st4 st5">due to a teacher strike lasting in </tspan><tspan x="35.17" y="28.8" class="st4 st5">July and August</tspan></text>
	<g>
		<g>
			<path class="st24" d="M348.35,481.69c3.21-0.52,37.95-11.59,42.22-21.06"/>
			<g>
				<path d="M390.43,460.87c-0.79,0.5-2.13,0.52-3.01,0.35c1.38-0.62,2.67-1.53,3.56-2.78c0.24,1.51,1.09,2.85,2.03,4.04
					C392.08,462.18,390.99,461.69,390.43,460.87z"/>
			</g>
		</g>
	</g>
</g>
</svg>
