<?xml version="1.0" encoding="utf-8"?>
<!-- Generator: Adobe Illustrator 23.1.1, SVG Export Plug-In . SVG Version: 6.00 Build 0)  -->
<svg version="1.1" xmlns="http://www.w3.org/2000/svg" xmlns:xlink="http://www.w3.org/1999/xlink" x="0px" y="0px"
	 viewBox="0 0 612 219.44" style="enable-background:new 0 0 612 219.44;" xml:space="preserve">
<style type="text/css">
	.st0{fill:#71758A;}
	.st1{fill:#ABACB7;}
	.st2{fill:url(#gradient_1_);}
	.st3{fill:#FFFFFF;}
	.st4{font-family:'Titillium Web';}
	.st5{font-size:34px;}
	.st6{font-size:19px;}
	.st7{opacity:0.5;fill:none;stroke:#BCBEC0;stroke-width:0.5;stroke-linejoin:round;stroke-miterlimit:10;}
	.st8{opacity:0.15;fill:#333333;}
	.st9{fill:none;stroke:#FFFFFF;stroke-width:0.7527;stroke-linecap:round;stroke-linejoin:round;stroke-miterlimit:10;}
	.st10{font-family:'MyriadPro-Regular';}
	.st11{font-size:0.5147px;}
	.st12{font-size:0.4292px;}
	.st13{font-size:0.7307px;}
	.st14{font-size:0.9117px;}
	.st15{font-size:1.1753px;}
	.st16{font-size:0.7728px;}
	.st17{font-size:0.6873px;}
	.st18{font-size:0.2202px;}
	.st19{font-size:1.3815px;}
	.st20{font-size:0.6382px;}
	.st21{font-size:0.8457px;}
	.st22{font-size:0.8107px;}
	.st23{font-size:0.5709px;}
	.st24{font-size:0.8262px;}
	.st25{font-size:1.2709px;}
	.st26{font-size:1.146px;}
	.st27{font-size:1.0773px;}
	.st28{font-size:1.3817px;}
	.st29{font-size:1.2105px;}
	.st30{font-size:0.7154px;}
	.st31{font-size:1.327px;}
	.st32{font-size:0.3843px;}
	.st33{font-size:0.7644px;}
	.st34{font-size:0.8766px;}
	.st35{font-size:1.1641px;}
	.st36{font-size:0.5049px;}
	.st37{font-size:0.453px;}
	.st38{font-size:1.0575px;}
	.st39{font-size:0.5877px;}
	.st40{font-size:0.8121px;}
	.st41{font-size:0.7125px;}
	.st42{font-size:0.7896px;}
	.st43{font-size:0.5484px;}
	.st44{font-size:0.6227px;}
	.st45{font-size:1.2328px;}
	.st46{font-size:0.9173px;}
	.st47{font-size:1.3703px;}
	.st48{font-size:0.655px;}
	.st49{fill:none;stroke:#BCBEC0;stroke-width:0.5301;stroke-linejoin:round;stroke-miterlimit:10;}
	.st50{font-size:1.0463px;}
	.st51{font-size:0.4418px;}
	.st52{font-size:0.5582px;}
	.st53{font-size:0.9748px;}
	.st54{font-size:0.6438px;}
	.st55{font-size:0.4011px;}
	.st56{font-size:0.3478px;}
	.st57{font-size:0.6031px;}
	.st58{font-size:0.4755px;}
	.st59{font-size:0.5807px;}
	.st60{font-size:0.6802px;}
	.st61{fill:none;stroke:#333333;stroke-width:0.265;stroke-miterlimit:10;}
	.st62{font-size:0.324px;}
	.st63{font-size:0.439px;}
	.st64{font-size:0.4839px;}
	.st65{font-size:0.3661px;}
	.st66{font-size:0.5119px;}
	.st67{font-size:0.4138px;}
	.st68{font-size:0.4516px;}
	.st69{font-size:0.7265px;}
	.st70{font-size:0.3464px;}
	.st71{font-size:0.2931px;}
	.st72{font-size:0.5217px;}
	.st73{font-size:0.3997px;}
	.st74{font-size:0.6648px;}
	.st75{font-size:0.6578px;}
	.st76{font-size:0.4628px;}
	.st77{font-size:0.742px;}
	.st78{font-size:0.4264px;}
	.st79{font-size:0.4727px;}
	.st80{font-size:0.6003px;}
	.st81{font-size:0.7574px;}
	.st82{font-size:0.6899px;}
	.st83{font-size:1.2473px;}
	.st84{font-size:0.5721px;}
	.st85{font-size:0.8886px;}
	.st86{font-size:1.6447px;}
	.st87{font-size:1.205px;}
	.st88{font-size:1.3651px;}
	.st89{font-size:1.0634px;}
	.st90{font-size:1.8121px;}
	.st91{font-size:0.7782px;}
	.st92{font-size:1.2271px;}
	.st93{font-size:0.4894px;}
	.st94{font-size:0.8555px;}
	.st95{font-size:0.6347px;}
	.st96{font-size:1.6594px;}
	.st97{font-size:1.1609px;}
	.st98{font-size:1.0376px;}
	.st99{font-size:0.2888px;}
	.st100{font-size:0.9217px;}
	.st101{font-size:0.7359px;}
	.st102{font-size:1.4883px;}
	.st103{font-size:1.6502px;}
	.st104{font-size:0.9695px;}
	.st105{font-size:1.2529px;}
	.st106{font-size:1.4681px;}
	.st107{font-size:0.7708px;}
	.st108{font-size:1.5638px;}
	.st109{font-size:1.1241px;}
</style>
<g id="Layer_1">
	<rect x="-291.52" y="556.98" class="st0" width="72.55" height="94.87"/>
	<rect x="-384.69" y="556.98" width="72.55" height="94.87"/>
	<rect x="-203.42" y="556.98" class="st1" width="72.55" height="94.87"/>
	<linearGradient id="gradient_1_" gradientUnits="userSpaceOnUse" x1="306" y1="238.9046" x2="306" y2="19.4598">
		<stop  offset="0" style="stop-color:#ABACB7"/>
		<stop  offset="0.1134" style="stop-color:#A7A8B4"/>
		<stop  offset="0.218" style="stop-color:#9C9DAB"/>
		<stop  offset="0.319" style="stop-color:#8C8D9E"/>
		<stop  offset="0.4174" style="stop-color:#777A8E"/>
		<stop  offset="0.4396" style="stop-color:#71758A"/>
		<stop  offset="0.5665" style="stop-color:#5B5F70"/>
		<stop  offset="0.8574" style="stop-color:#191A26"/>
		<stop  offset="0.929" style="stop-color:#000000"/>
	</linearGradient>
	<rect id="gradient" class="st2" width="612" height="219.44"/>
	<text id="title" transform="matrix(1 0 0 1 202.2492 94.5617)"><tspan x="0" y="0" class="st3 st4 st5">Constellations </tspan><tspan x="33.91" y="40.8" class="st3 st4 st5">of Protest</tspan></text>
	<text id="byline" transform="matrix(1 0 0 1 201.7082 187.9283)" class="st4 st6">a project by Alyssa Fowers</text>
</g>
<g id="constellations">
	<g id="guns">
		<g>
			<polyline class="st7" points="551.77,91.28 550.2,91.52 549.25,90.8 548.27,89.52 545.08,77.25 550.59,78.55 546.38,75.18
				547.64,74.81 548.47,74.02 549.28,73.23 550.09,72.44 550.84,71.6 551.59,70.76 552.32,69.91 553.05,69.06 552.52,68.09
				551.99,67.11 551.47,66.14 552.55,66.29 553.63,66.44 554.72,66.58 555.8,66.71 555.52,65.33 555.24,63.95 554.96,62.57
				555.54,61.25 556.11,59.92 557.65,60.98 558.03,59.89 558.4,58.8 558.76,57.71 559.11,56.63 558.19,55.99 557.18,56.55
				556.17,57.1 555.16,57.64 554.13,58.18 553.1,58.71 552.06,59.23 551.01,59.74 549.96,60.25 548.91,60.74 547.84,61.23
				546.77,61.71 545.69,62.19 546.25,63.19 545.35,63.96 544.44,64.74 543.52,65.5 542.59,66.27 542.59,67.36 542.58,68.46
				542.57,69.56 541.44,69.02 540.31,68.48 539.2,67.92 538.09,67.36 538.68,66.23 539.27,65.09 539.85,63.96 540.41,62.83
				540.97,61.69 539.87,61.92 538.76,62.15 537.66,62.37 536.55,62.58 535.44,62.78 534.33,62.97 533.21,63.16 532.1,63.33
				530.98,63.5 529.85,63.66 528.73,63.81 527.6,63.95 526.47,64.08 525.34,64.2 525.6,65.34 525.87,66.48 526.14,67.62
				526.42,68.76 525.34,69.52 524.25,70.28 523.15,71.03 523.9,72.04 524.65,73.05 525.42,74.05 524.39,73.5 523.37,72.94
				522.36,72.37 521.35,71.79 520.36,71.21 519.37,70.62 518.39,70.02 517.41,69.42 516.45,68.82 515.49,68.2 514.54,67.58
				513.59,66.96 512.66,66.33 511.73,65.69 511.71,64.61 512.59,63.9 513.46,63.19 514.32,62.47 515.17,61.75 516.02,61.02
				516.85,60.29 517.68,59.56 518.49,58.82 519.3,58.08 520.11,57.33 520.9,56.59 521.68,55.83 522.46,55.08 523.22,54.32
				523.98,53.56 522.84,53.58 521.7,53.58 520.57,53.58 519.43,53.57 518.29,53.55 517.15,53.51 516.01,53.47 514.87,53.42
				513.73,53.36 512.59,53.29 511.45,53.21 510.31,53.12 509.17,53.02 508.03,52.91 506.9,52.79 505.76,52.66 504.63,52.52
				503.49,52.37 502.36,52.21 501.22,52.04 500.09,51.87 498.96,51.68 497.83,51.48 496.7,51.27 495.57,51.06 494.45,50.83
				493.26,51.19 492.05,51.55 490.85,51.89 489.63,52.22 488.33,52.64 487.54,53.7 486.74,54.75 487.49,55.73 488.25,56.71
				488.25,57.8 488.26,58.88 488.27,59.97 489.37,60.29 490.48,60.6 491.58,60.9 490.87,61.82 490.15,62.73 489.42,63.65
				488.69,64.56 487.95,65.47 486.91,64.6 485.87,63.72 			"/>
			<circle class="st3" cx="551.78" cy="91.28" r="0.75"/>
			<circle class="st3" cx="550.23" cy="91.5" r="0.23"/>
			<circle class="st3" cx="549.27" cy="90.79" r="0.31"/>
			<circle class="st3" cx="548.26" cy="89.54" r="0.31"/>
			<circle class="st3" cx="550.7" cy="78.59" r="0.35"/>
			<circle class="st3" cx="545.13" cy="77.16" r="0.23"/>
			<circle class="st3" cx="546.44" cy="75.22" r="0.28"/>
			<circle class="st3" cx="550.1" cy="72.44" r="0.21"/>
			<circle class="st3" cx="553.08" cy="69.04" r="0.43"/>
			<circle class="st3" cx="555.84" cy="66.69" r="0.27"/>
			<circle class="st3" cx="554.91" cy="62.64" r="0.37"/>
			<circle id="shine17" class="st3" cx="545.74" cy="62.21" r="0.4"/>
			<circle class="st3" cx="525.37" cy="64.21" r="0.4"/>
			<circle class="st3" cx="526.48" cy="68.73" r="0.25"/>
			<circle class="st3" cx="511.75" cy="65.68" r="0.37"/>
			<circle class="st3" cx="494.45" cy="50.82" r="0.21"/>
			<circle class="st3" cx="489.72" cy="52.33" r="0.33"/>
			<circle class="st3" cx="488.3" cy="52.63" r="0.12"/>
			<circle class="st3" cx="486.78" cy="54.81" r="0.19"/>
			<circle class="st3" cx="488.25" cy="56.7" r="0.12"/>
			<circle id="shine9" class="st3" cx="488.26" cy="59.97" r="0.12"/>
			<circle class="st3" cx="491.6" cy="60.95" r="0.33"/>
			<circle class="st3" cx="487.95" cy="65.48" r="0.19"/>
			<circle class="st3" cx="485.93" cy="63.79" r="0.37"/>
			<circle class="st3" cx="523.95" cy="53.54" r="0.21"/>
			<circle class="st3" cx="511.71" cy="64.6" r="0.12"/>
			<circle class="st3" cx="523.16" cy="71.02" r="0.12"/>
			<circle class="st3" cx="525.44" cy="74.02" r="0.28"/>
			<circle class="st3" cx="546.25" cy="63.13" r="0.27"/>
			<circle class="st3" cx="542.61" cy="66.32" r="0.31"/>
			<circle class="st3" cx="538.09" cy="67.36" r="0.12"/>
			<circle class="st3" cx="540.96" cy="61.67" r="0.12"/>
			<circle class="st3" cx="542.55" cy="69.49" r="0.32"/>
			<circle class="st3" cx="557.67" cy="61" r="0.44"/>
			<circle class="st3" cx="559.12" cy="56.66" r="0.25"/>
			<circle class="st3" cx="558.13" cy="55.99" r="0.19"/>
			<circle class="st3" cx="556.11" cy="59.94" r="0.12"/>
			<circle class="st3" cx="551.5" cy="66.15" r="0.19"/>
		</g>
	</g>
	<g id="education">
		<g>
			<polygon class="st8" points="245.24,19.65 245.22,19.62 245.21,19.62 245.19,19.66 245.18,19.69 245.13,19.7 245.11,19.68
				245.09,19.61 245.06,19.59 245.02,19.61 245,19.62 244.99,19.62 244.99,19.58 244.98,19.57 244.95,19.59 244.89,19.68
				244.85,19.8 244.81,19.87 244.77,19.87 244.74,19.86 244.74,19.88 244.75,19.92 244.77,19.95 244.8,19.95 244.83,19.93
				244.87,19.89 244.87,19.86 244.91,19.85 244.95,19.83 245.04,19.81 245.11,19.8 245.18,19.75 245.24,19.74 245.25,19.7
				245.24,19.67 			"/>
			<polygon class="st8" points="245.84,19.74 245.8,19.75 245.74,19.74 245.71,19.75 245.67,19.77 245.63,19.79 245.63,19.8
				245.68,19.82 245.72,19.81 245.8,19.8 245.87,19.8 245.91,19.79 245.97,19.76 246,19.74 245.99,19.71 245.96,19.69 245.93,19.65
				245.93,19.65 245.9,19.59 245.86,19.55 245.84,19.53 245.81,19.54 245.81,19.56 245.85,19.6 245.83,19.65 245.85,19.66
				245.89,19.65 245.89,19.69 245.87,19.73 			"/>
			<polygon class="st8" points="240.63,21.88 240.61,21.85 240.61,21.83 240.6,21.82 240.58,21.83 240.57,21.91 240.54,21.98
				240.52,22.07 240.53,22.09 240.56,22.07 240.59,22.04 240.6,22.02 240.6,21.99 240.6,21.94 240.62,21.91 			"/>
			<polygon class="st8" points="240.26,22.58 240.32,22.56 240.38,22.51 240.4,22.46 240.44,22.41 240.49,22.33 240.52,22.28
				240.45,22.19 240.31,22.29 			"/>
			<polygon class="st8" points="242.61,21.26 242.66,21.31 242.61,21.35 242.54,21.37 242.56,21.32 242.54,21.28 242.5,21.27
				242.43,21.28 242.41,21.28 242.4,21.24 242.46,21.22 242.49,21.19 242.5,21.14 242.52,21.11 242.56,21.11 242.6,21.08
				242.62,21.02 242.66,20.99 242.64,20.92 242.67,20.89 242.71,20.85 242.73,20.79 242.8,20.78 242.83,20.75 242.83,20.73
				242.76,20.73 242.72,20.76 242.62,20.85 242.53,20.97 242.44,21.08 242.37,21.14 242.28,21.19 242.13,21.24 241.92,21.31
				241.74,21.35 241.68,21.33 241.64,21.36 241.64,21.42 241.61,21.45 241.56,21.48 241.39,21.47 241.36,21.48 241.34,21.52
				241.3,21.53 241.23,21.49 241.2,21.51 241.2,21.54 241.22,21.58 241.19,21.62 241.14,21.58 241.1,21.58 241.02,21.65
				240.98,21.71 240.99,21.74 241,21.77 240.99,21.78 240.96,21.74 240.93,21.74 240.91,21.76 240.92,21.82 240.9,21.83
				240.87,21.84 240.87,21.88 240.86,21.9 240.81,21.88 240.79,21.86 240.77,21.9 240.76,21.94 240.73,21.96 240.7,21.94
				240.66,21.94 240.64,22.04 240.61,22.09 240.59,22.13 240.56,22.15 240.55,22.18 240.56,22.2 240.58,22.24 240.6,22.27
				240.61,22.32 240.68,22.34 240.69,22.3 240.71,22.24 240.75,22.21 240.78,22.18 240.83,22.17 240.88,22.15 240.91,22.18
				240.91,22.2 240.9,22.23 240.86,22.25 240.81,22.29 240.76,22.32 240.75,22.34 240.79,22.35 240.83,22.33 240.88,22.29
				240.95,22.28 241.02,22.24 241.04,22.17 241.09,22.16 241.25,22.08 241.3,22.05 241.35,22.05 241.43,22.01 241.48,21.97
				241.49,21.94 241.57,21.92 241.61,21.91 241.62,21.86 241.72,21.85 241.75,21.82 241.75,21.79 241.8,21.79 241.85,21.78
				241.9,21.74 241.94,21.73 242,21.71 242.12,21.65 242.18,21.59 242.22,21.56 242.27,21.54 242.38,21.47 242.42,21.47
				242.42,21.5 242.4,21.52 242.28,21.59 242.05,21.76 241.81,21.94 241.76,21.95 241.7,21.97 241.69,22 241.72,22.01 241.78,22
				241.93,21.91 242.23,21.72 242.56,21.45 242.83,21.29 242.95,21.15 243.11,21.04 243.23,20.94 243.39,20.83 243.4,20.79
				243.4,20.74 243.38,20.74 243.33,20.75 243.26,20.8 243.23,20.84 243.19,20.89 243.11,20.93 243.05,20.94 243.01,20.89
				242.99,20.9 242.97,20.93 242.95,20.95 242.9,20.94 242.88,20.98 242.86,21 242.82,21.01 242.78,20.98 242.77,21.03
				242.73,21.03 242.71,21.07 242.72,21.12 242.7,21.15 242.67,21.17 242.66,21.23 			"/>
			<polygon class="st8" points="174.55,5.43 174.58,5.48 174.6,5.51 174.63,5.55 174.58,5.58 174.6,5.66 174.56,5.68 174.52,5.6
				174.48,5.58 174.45,5.56 174.43,5.53 174.42,5.46 174.43,5.4 174.47,5.38 174.48,5.33 174.53,5.33 			"/>
			<polygon class="st8" points="174.71,5.79 174.7,5.77 174.71,5.74 174.68,5.71 174.66,5.67 174.68,5.61 174.72,5.61 174.73,5.58
				174.77,5.55 174.78,5.58 174.76,5.66 174.77,5.71 174.8,5.72 174.82,5.76 174.79,5.8 174.75,5.79 			"/>
			<polygon class="st8" points="174.89,5.45 174.85,5.42 174.85,5.33 174.8,5.3 174.8,5.37 174.81,5.46 174.76,5.44 174.73,5.38
				174.66,5.4 174.68,5.32 174.72,5.29 174.77,5.28 174.8,5.21 174.86,5.24 174.93,5.32 174.97,5.34 174.98,5.38 174.93,5.4 			"/>
			<polygon class="st8" points="174.79,6.26 174.83,6.32 174.9,6.33 174.89,6.4 174.86,6.52 174.88,6.59 174.92,6.63 174.9,6.66
				174.92,6.7 174.97,6.68 175.02,6.7 175.02,6.74 175.01,6.81 175.06,6.86 175.11,6.82 175.12,6.79 175.15,6.72 175.13,6.66
				175.07,6.57 175.03,6.5 175,6.49 174.97,6.58 174.94,6.57 174.95,6.45 174.96,6.29 174.89,6.21 174.81,6.18 174.83,6.16
				174.9,6.16 174.92,6.1 174.96,6.13 175,6.1 175.04,6.13 175.11,6.13 175.09,6.04 175.06,6.01 175.03,5.99 175.04,5.94
				174.96,5.92 174.93,5.94 174.86,6.01 174.76,6.13 174.76,6.17 			"/>
			<polyline class="st7" points="233.41,45.84 233.3,44.67 233.18,43.5 233.07,42.33 232.95,41.16 232.84,39.99 232.72,38.82
				232.6,37.64 232.48,36.47 233.25,35.51 234.01,34.54 234.75,33.57 235.49,32.59 239.68,23.08 241.6,18.7 239.68,18.24
				237.76,21.62 230.46,28.46 229.32,28.39 228.06,28.68 226.79,28.97 225.52,29.23 224.76,28.38 224,27.52 223.25,26.66
				222.52,25.8 221.79,24.93 221.06,24.06 220.35,23.19 219.64,22.31 218.94,21.44 218.25,20.56 217.69,21.46 217.12,22.37
				216.54,23.28 215.96,24.18 215.36,25.08 214.76,25.98 214.16,26.88 213.54,27.78 212.91,28.67 212.28,29.57 211.64,30.46
				211,31.35 210.34,32.23 209.68,33.12 209.01,34 207.88,34.58 206.74,35.16 205.76,34.66 204.78,34.17 203.81,33.66 202.85,33.15
				201.89,32.63 200.94,32.11 200,31.58 199.07,31.05 198.13,30.51 197.21,29.96 196.29,29.41 195.75,30.38 195.21,31.35
				194.66,32.31 194.11,33.27 193.55,34.23 192.5,34.53 191.45,34.83 190.4,35.12 189.34,35.39 188.28,35.67 187.21,35.93
				186.14,36.19 185.07,36.44 183.99,36.68 182.9,36.92 183.24,38.15 183.58,39.37 184.67,39.54 185.77,39.7 186.87,39.86
				187.97,40.01 189.07,40.15 190.17,40.28 191.27,40.4 192.37,40.52 193.47,40.63 194.58,40.73 195.68,40.83 196.79,40.91
				197.89,40.99 199,41.07 200.1,41.13 201.21,41.19 202.32,41.24 203.42,41.28 204.53,41.31 205.64,41.34 206.75,41.36
				207.85,41.37 208.96,41.37 210.07,41.36 211.17,41.35 212.28,41.33 213.39,41.3 214.5,41.27 215.6,41.23 216.71,41.18
				217.81,41.12 233.32,45.86 			"/>
			<text transform="matrix(1 0 0 1 233.2092 46.0182)" class="st9 st10 st11">●</text>
			<text transform="matrix(1 0 0 1 232.3147 36.6217)" class="st9 st10 st12">●</text>
			<text transform="matrix(1 0 0 1 235.2014 32.8444)" class="st9 st10 st13">●</text>
			<text transform="matrix(1 0 0 1 230.0969 28.7751)" class="st9 st10 st14">●</text>
			<text transform="matrix(1 0 0 1 229.1145 28.5729)" class="st9 st10 st11">●</text>
			<text transform="matrix(1 0 0 1 225.0559 29.6442)" class="st9 st10 st15">●</text>
			<text transform="matrix(1 0 0 1 217.9494 20.8258)" class="st9 st10 st16">●</text>
			<text transform="matrix(1 0 0 1 208.7375 34.236)" class="st9 st10 st17">●</text>
			<text transform="matrix(1 0 0 1 206.3752 35.4743)" class="st9 st10 st14">●</text>
			<text transform="matrix(1 0 0 1 196.2063 29.4909)" class="st9 st10 st18">●</text>
			<text transform="matrix(1 0 0 1 193.4592 34.3102)" class="st9 st10 st18">●</text>
			<text transform="matrix(1 0 0 1 182.3557 37.401)" class="st9 st10 st19">●</text>
			<text transform="matrix(1 0 0 1 183.3254 39.5934)" class="st9 st10 st20">●</text>
			<text transform="matrix(1 0 0 1 217.7268 41.1989)" class="st9 st10 st18">●</text>
			<text transform="matrix(1 0 0 1 237.6584 21.6325)" class="st9 st10 st18">●</text>
			<text transform="matrix(1 0 0 1 239.6447 23.1618)" class="st9 st10 st18">●</text>
			<text transform="matrix(1 0 0 1 239.5149 18.694)" class="st9 st10 st21">●</text>
			<text transform="matrix(1 0 0 1 241.5002 19.0885)" class="st9 st10 st22">●</text>
			<circle id="shine16" class="st3" cx="241.73" cy="18.8" r="0.44"/>
			<circle id="shine8" class="st3" cx="239.71" cy="18.36" r="0.46"/>
			<circle class="st3" cx="225.31" cy="29.23" r="0.64"/>
			<circle class="st3" cx="182.77" cy="36.88" r="0.75"/>
			<circle class="st3" cx="206.65" cy="35.26" r="0.75"/>
			<circle class="st3" cx="230.23" cy="28.5" r="0.49"/>
		</g>
	</g>
	<g id="environment">
		<polygon class="st8" points="567.47,148.36 567.45,148.33 567.43,148.33 567.42,148.37 567.41,148.4 567.36,148.41 567.33,148.39
			567.31,148.32 567.28,148.3 567.25,148.32 567.22,148.33 567.21,148.33 567.21,148.29 567.2,148.28 567.17,148.3 567.11,148.39
			567.07,148.51 567.04,148.58 567,148.58 566.97,148.57 566.97,148.59 566.97,148.63 567,148.65 567.02,148.66 567.05,148.64
			567.09,148.6 567.1,148.57 567.14,148.56 567.17,148.54 567.26,148.52 567.33,148.5 567.41,148.46 567.46,148.45 567.47,148.41
			567.46,148.38 		"/>
		<polygon class="st8" points="568.07,148.45 568.03,148.46 567.96,148.45 567.93,148.46 567.89,148.47 567.86,148.5 567.86,148.51
			567.91,148.53 567.95,148.52 568.03,148.51 568.1,148.51 568.14,148.5 568.2,148.47 568.23,148.45 568.22,148.42 568.19,148.4
			568.15,148.36 568.15,148.35 568.13,148.3 568.08,148.26 568.06,148.24 568.04,148.25 568.04,148.27 568.07,148.31 568.06,148.36
			568.07,148.37 568.11,148.36 568.11,148.4 568.09,148.44 		"/>
		<polygon class="st8" points="562.85,150.59 562.84,150.56 562.84,150.54 562.83,150.53 562.81,150.54 562.79,150.62
			562.76,150.69 562.75,150.78 562.76,150.8 562.78,150.78 562.82,150.75 562.82,150.73 562.82,150.7 562.83,150.65 562.85,150.62
					"/>
		<polygon class="st8" points="562.48,151.29 562.54,151.27 562.6,151.22 562.63,151.17 562.67,151.12 562.72,151.04 562.74,150.99
			562.67,150.9 562.53,151 		"/>
		<polygon class="st8" points="564.83,149.97 564.88,150.02 564.83,150.06 564.77,150.08 564.78,150.03 564.77,149.99
			564.72,149.98 564.66,149.99 564.63,149.99 564.62,149.95 564.68,149.93 564.71,149.9 564.73,149.85 564.75,149.82 564.79,149.82
			564.82,149.79 564.84,149.72 564.89,149.7 564.86,149.63 564.9,149.6 564.94,149.56 564.95,149.5 565.02,149.49 565.05,149.46
			565.06,149.44 564.99,149.43 564.94,149.47 564.84,149.56 564.76,149.68 564.67,149.79 564.6,149.85 564.51,149.9 564.35,149.95
			564.15,150.02 563.97,150.06 563.91,150.04 563.86,150.07 563.87,150.13 563.83,150.16 563.79,150.18 563.62,150.18
			563.58,150.18 563.57,150.23 563.53,150.24 563.45,150.2 563.43,150.22 563.42,150.25 563.45,150.29 563.41,150.33 563.37,150.29
			563.33,150.29 563.24,150.36 563.2,150.42 563.22,150.45 563.22,150.48 563.22,150.49 563.18,150.45 563.15,150.45 563.13,150.47
			563.14,150.53 563.13,150.54 563.1,150.55 563.1,150.59 563.08,150.61 563.03,150.59 563.01,150.57 563,150.61 562.98,150.65
			562.96,150.67 562.92,150.65 562.89,150.65 562.86,150.75 562.84,150.8 562.81,150.84 562.78,150.86 562.77,150.88 562.78,150.91
			562.81,150.95 562.82,150.98 562.83,151.03 562.9,151.04 562.91,151.01 562.94,150.95 562.97,150.92 563.01,150.89 563.06,150.88
			563.1,150.86 563.13,150.88 563.14,150.91 563.13,150.94 563.08,150.96 563.03,151 562.99,151.03 562.98,151.05 563.02,151.05
			563.06,151.03 563.11,151 563.17,150.99 563.24,150.95 563.27,150.88 563.32,150.87 563.47,150.79 563.52,150.76 563.57,150.76
			563.66,150.72 563.7,150.68 563.72,150.65 563.79,150.63 563.83,150.62 563.85,150.57 563.95,150.56 563.97,150.53 563.97,150.5
			564.03,150.5 564.07,150.49 564.12,150.45 564.16,150.44 564.22,150.42 564.34,150.36 564.41,150.3 564.44,150.27 564.5,150.25
			564.61,150.18 564.64,150.18 564.65,150.2 564.63,150.23 564.51,150.3 564.27,150.47 564.03,150.64 563.98,150.65 563.92,150.68
			563.92,150.71 563.95,150.72 564,150.71 564.15,150.62 564.45,150.43 564.79,150.16 565.06,150 565.18,149.86 565.34,149.74
			565.45,149.65 565.61,149.54 565.63,149.5 565.62,149.45 565.61,149.45 565.55,149.46 565.49,149.51 565.45,149.55 565.41,149.6
			565.34,149.64 565.27,149.65 565.24,149.6 565.21,149.61 565.2,149.64 565.17,149.66 565.13,149.65 565.1,149.69 565.08,149.71
			565.04,149.72 565,149.69 565,149.73 564.96,149.74 564.94,149.78 564.94,149.83 564.92,149.86 564.89,149.88 564.88,149.94 		"/>
		<polygon class="st8" points="496.77,134.14 496.8,134.19 496.82,134.21 496.85,134.26 496.8,134.29 496.81,134.37 496.77,134.39
			496.74,134.3 496.69,134.29 496.67,134.27 496.65,134.23 496.64,134.16 496.65,134.11 496.68,134.09 496.7,134.04 496.75,134.04
					"/>
		<polygon class="st8" points="496.93,134.5 496.91,134.47 496.93,134.45 496.89,134.41 496.88,134.38 496.9,134.32 496.94,134.32
			496.94,134.28 496.99,134.25 497,134.29 496.98,134.37 496.99,134.42 497.01,134.43 497.03,134.46 497,134.51 496.97,134.5 		"/>
		<polygon class="st8" points="497.11,134.15 497.07,134.13 497.06,134.03 497.02,134.01 497.01,134.07 497.03,134.16
			496.98,134.15 496.95,134.09 496.88,134.11 496.89,134.03 496.93,134 496.99,133.99 497.02,133.92 497.07,133.95 497.14,134.02
			497.19,134.05 497.19,134.09 497.14,134.11 		"/>
		<polygon class="st8" points="497.01,134.96 497.04,135.03 497.12,135.04 497.11,135.11 497.08,135.23 497.09,135.3 497.13,135.34
			497.12,135.37 497.14,135.41 497.18,135.39 497.23,135.4 497.24,135.45 497.22,135.52 497.27,135.57 497.32,135.53 497.33,135.5
			497.37,135.43 497.35,135.37 497.29,135.27 497.25,135.21 497.21,135.2 497.19,135.29 497.16,135.28 497.16,135.16 497.18,135
			497.11,134.91 497.03,134.89 497.05,134.87 497.12,134.86 497.14,134.81 497.18,134.83 497.21,134.81 497.26,134.84
			497.32,134.83 497.31,134.75 497.28,134.72 497.24,134.7 497.26,134.65 497.17,134.63 497.14,134.65 497.08,134.72 496.98,134.83
			496.98,134.88 		"/>
		<polyline class="st7" points="557.41,177.94 556.24,178.71 555.07,179.46 554.08,178.18 554.14,177.06 554.19,175.94
			554.23,174.82 554.28,173.7 554.32,172.58 554.36,171.46 554.4,170.33 554.43,169.21 554.46,168.08 554.49,166.96 554.52,165.83
			554.54,164.71 554.56,163.58 554.58,162.46 554.6,161.33 554.61,160.21 554.62,159.09 554.34,158.41 555.31,158.83 553.99,158.01
			552.68,157.17 553.69,156.55 554.69,155.92 555.69,155.29 556.68,154.65 557.66,154.01 558.75,153.35 559.84,152.68
			560.03,153.84 560.22,155 560.42,156.16 560.61,157.33 560.8,158.49 561.07,157.39 561.34,156.28 561.6,155.18 561.85,154.07
			562.09,152.97 562.33,151.86 562.56,150.76 562.79,149.66 563,148.56 563.22,147.46 563.99,146.88 563.62,145.33 563.26,143.77
			564.51,143.39 565.75,143 567,142.59 565.87,142.68 564.74,142.75 563.62,142.82 562.49,142.88 561.37,142.92 560.25,142.96
			559.13,142.99 558.01,143.01 556.89,143.02 555.77,143.02 554.66,143.01 553.54,142.99 552.43,142.97 551.32,142.93
			550.21,142.89 549.11,142.83 548,142.77 546.9,142.7 545.8,142.62 544.7,142.53 543.61,142.43 542.51,142.32 541.42,142.2
			540.34,142.08 539.25,141.94 538.17,141.8 537.09,141.65 536.01,141.49 534.89,141.16 533.77,140.81 532.66,140.46 532.83,141.51
			533,142.56 533.18,143.62 533.36,144.67 533.54,145.73 533.73,146.79 533.91,147.85 534.11,148.92 534.3,149.99 534.49,151.05
			534.69,152.12 533.65,152.49 532.6,152.85 531.55,153.21 530.49,153.56 529.43,153.9 528.36,154.23 527.29,154.55 526.21,154.87
			525.13,155.18 524.04,155.48 522.95,155.77 521.85,156.06 520.75,156.33 519.64,156.6 518.53,156.86 517.48,156.41 516.44,155.94
			515.4,155.47 514.36,154.99 513.34,154.51 512.32,154.02 511.3,153.52 510.29,153.01 509.29,152.5 508.3,151.98 508.23,150.85
			508.16,149.72 508.1,148.6 508.05,147.48 508,146.36 507.95,145.24 507.9,144.13 507.86,143.01 507.82,141.9 507.78,140.8
			507.75,139.69 506.59,139.48 505.42,139.26 504.26,139.03 503.1,138.79 501.94,138.54 500.78,138.27 499.63,138 498.47,137.72
			497.32,137.42 496.18,137.12 495.93,138.37 495.68,139.62 495.44,140.87 495.31,142 495.19,143.13 495.07,144.26 494.95,145.4
			494.83,146.53 494.72,147.67 494.61,148.81 494.5,149.96 494.39,151.1 494.29,152.25 494.19,153.4 494.09,154.54 494,155.69
			493.91,156.84 493.82,158 493.73,159.15 		"/>
		<text transform="matrix(1 0 0 1 557.1809 178.1421)" class="st9 st10 st23">●</text>
		<text transform="matrix(1 0 0 1 554.842 179.6587)" class="st9 st10 st23">●</text>
		<text transform="matrix(1 0 0 1 553.7581 178.4643)" class="st9 st10 st24">●</text>
		<text transform="matrix(1 0 0 1 554.1194 159.5278)" class="st9 st10 st25">●</text>
		<text transform="matrix(1 0 0 1 554.2532 158.4897)" class="st9 st10 st18">●</text>
		<text transform="matrix(1 0 0 1 554.8547 159.2299)" class="st9 st10 st26">●</text>
		<text transform="matrix(1 0 0 1 552.593 157.2456)" class="st9 st10 st18">●</text>
		<text transform="matrix(1 0 0 1 557.5686 154.0835)" class="st9 st10 st18">●</text>
		<text transform="matrix(1 0 0 1 559.509 152.9663)" class="st9 st10 st24">●</text>
		<text transform="matrix(1 0 0 1 560.3782 158.8667)" class="st9 st10 st27">●</text>
		<text transform="matrix(1 0 0 1 562.6692 147.9399)" class="st9 st10 st28">●</text>
		<text transform="matrix(1 0 0 1 563.6604 147.1714)" class="st9 st10 st24">●</text>
		<text transform="matrix(1 0 0 1 562.7766 144.1958)" class="st9 st10 st29">●</text>
		<text transform="matrix(1 0 0 1 566.6711 142.8813)" class="st9 st10 st24">●</text>
		<text transform="matrix(1 0 0 1 535.512 141.9301)" class="st9 st10 st25">●</text>
		<text transform="matrix(1 0 0 1 532.4319 140.6587)" class="st9 st10 st23">●</text>
		<text transform="matrix(1 0 0 1 534.468 152.3198)" class="st9 st10 st23">●</text>
		<text id="shine7" transform="matrix(1 0 0 1 518.2512 157.1118)" class="st9 st10 st30">●</text>
		<text transform="matrix(1 0 0 1 507.7708 152.437)" class="st9 st10 st31">●</text>
		<text transform="matrix(1 0 0 1 507.47 139.9419)" class="st9 st10 st30">●</text>
		<text transform="matrix(1 0 0 1 495.8938 137.3696)" class="st9 st10 st30">●</text>
		<text transform="matrix(1 0 0 1 495.01 141.2466)" class="st9 st10 st27">●</text>
		<text transform="matrix(1 0 0 1 493.6448 159.2251)" class="st9 st10 st18">●</text>
		<circle class="st3" cx="495.27" cy="140.95" r="0.59"/>
		<circle class="st3" cx="508.08" cy="152" r="0.72"/>
		<circle class="st3" cx="535.9" cy="141.53" r="0.69"/>
		<circle class="st3" cx="554.39" cy="159.17" r="0.69"/>
		<circle class="st3" cx="555.27" cy="158.81" r="0.62"/>
		<circle class="st3" cx="560.68" cy="158.54" r="0.59"/>
		<circle id="shine15" class="st3" cx="559.71" cy="152.68" r="0.45"/>
		<circle class="st3" cx="563.03" cy="147.42" r="0.75"/>
		<circle class="st3" cx="563.1" cy="143.81" r="0.66"/>
		<circle class="st3" cx="553.93" cy="178.24" r="0.45"/>
	</g>
	<g id="collective_x5F_bargaining">
		<g>
			<polygon class="st8" points="105.93,43.91 105.91,43.88 105.9,43.88 105.88,43.92 105.87,43.94 105.82,43.95 105.79,43.94
				105.77,43.86 105.74,43.85 105.71,43.87 105.68,43.88 105.68,43.88 105.67,43.83 105.66,43.83 105.63,43.84 105.57,43.94
				105.53,44.06 105.5,44.12 105.46,44.12 105.43,44.12 105.43,44.14 105.44,44.17 105.46,44.2 105.49,44.21 105.52,44.19
				105.56,44.14 105.56,44.12 105.6,44.11 105.64,44.09 105.72,44.07 105.8,44.05 105.87,44.01 105.93,44 105.93,43.96
				105.93,43.93 			"/>
			<polygon class="st8" points="106.53,44 106.49,44.01 106.42,43.99 106.39,44 106.36,44.02 106.32,44.04 106.32,44.05
				106.37,44.08 106.41,44.07 106.49,44.06 106.56,44.06 106.6,44.05 106.66,44.01 106.69,43.99 106.68,43.96 106.65,43.95
				106.62,43.91 106.61,43.9 106.59,43.85 106.55,43.81 106.52,43.79 106.5,43.79 106.5,43.82 106.53,43.85 106.52,43.9
				106.53,43.92 106.57,43.91 106.57,43.94 106.56,43.98 			"/>
			<polygon class="st8" points="101.31,46.14 101.3,46.1 101.3,46.08 101.29,46.07 101.27,46.09 101.25,46.17 101.22,46.23
				101.21,46.32 101.22,46.34 101.24,46.33 101.28,46.3 101.28,46.28 101.28,46.24 101.29,46.2 101.31,46.17 			"/>
			<polygon class="st8" points="100.95,46.84 101.01,46.81 101.07,46.77 101.09,46.72 101.13,46.66 101.18,46.59 101.2,46.54
				101.13,46.45 100.99,46.55 			"/>
			<polygon class="st8" points="103.29,45.52 103.35,45.56 103.3,45.61 103.23,45.62 103.25,45.58 103.23,45.54 103.18,45.52
				103.12,45.54 103.09,45.53 103.09,45.5 103.15,45.47 103.17,45.45 103.19,45.4 103.21,45.37 103.25,45.36 103.28,45.33
				103.3,45.27 103.35,45.25 103.32,45.18 103.36,45.15 103.4,45.1 103.41,45.05 103.49,45.04 103.51,45.01 103.52,44.99
				103.45,44.98 103.41,45.01 103.31,45.1 103.22,45.23 103.13,45.33 103.06,45.39 102.97,45.45 102.81,45.49 102.61,45.56
				102.43,45.6 102.37,45.58 102.32,45.62 102.33,45.68 102.29,45.71 102.25,45.73 102.08,45.72 102.05,45.73 102.03,45.78
				101.99,45.79 101.91,45.75 101.89,45.77 101.88,45.8 101.91,45.84 101.88,45.88 101.83,45.83 101.79,45.83 101.7,45.91
				101.67,45.97 101.68,46 101.69,46.02 101.68,46.03 101.65,46 101.61,45.99 101.59,46.02 101.6,46.07 101.59,46.09 101.56,46.09
				101.56,46.14 101.55,46.15 101.49,46.14 101.48,46.11 101.46,46.16 101.44,46.2 101.42,46.21 101.39,46.2 101.35,46.19
				101.32,46.3 101.3,46.35 101.27,46.39 101.24,46.41 101.23,46.43 101.25,46.46 101.27,46.5 101.29,46.53 101.3,46.57
				101.37,46.59 101.38,46.56 101.4,46.5 101.43,46.47 101.47,46.44 101.52,46.43 101.57,46.4 101.6,46.43 101.6,46.45
				101.59,46.49 101.55,46.51 101.49,46.54 101.45,46.57 101.44,46.6 101.48,46.6 101.52,46.58 101.57,46.55 101.64,46.53
				101.7,46.5 101.73,46.42 101.78,46.41 101.93,46.34 101.98,46.3 102.04,46.3 102.12,46.26 102.16,46.23 102.18,46.19
				102.25,46.18 102.29,46.17 102.31,46.12 102.41,46.11 102.44,46.08 102.44,46.05 102.49,46.05 102.54,46.04 102.59,45.99
				102.63,45.98 102.68,45.97 102.81,45.91 102.87,45.85 102.9,45.82 102.96,45.8 103.07,45.73 103.1,45.73 103.11,45.75
				103.09,45.78 102.97,45.85 102.74,46.01 102.49,46.19 102.45,46.2 102.38,46.23 102.38,46.26 102.41,46.27 102.47,46.25
				102.62,46.16 102.91,45.97 103.25,45.71 103.52,45.55 103.64,45.41 103.8,45.29 103.91,45.2 104.07,45.08 104.09,45.05
				104.09,45 104.07,44.99 104.01,45.01 103.95,45.06 103.91,45.1 103.88,45.15 103.8,45.19 103.74,45.19 103.7,45.15 103.67,45.15
				103.66,45.19 103.64,45.21 103.59,45.19 103.57,45.23 103.55,45.26 103.51,45.27 103.46,45.24 103.46,45.28 103.42,45.29
				103.4,45.33 103.4,45.37 103.39,45.41 103.36,45.43 103.34,45.49 			"/>
			<polygon class="st8" points="35.24,29.68 35.27,29.74 35.29,29.76 35.32,29.81 35.27,29.84 35.28,29.92 35.25,29.94 35.21,29.85
				35.17,29.84 35.14,29.82 35.12,29.78 35.11,29.71 35.12,29.66 35.15,29.64 35.17,29.59 35.22,29.59 			"/>
			<polygon class="st8" points="35.4,30.05 35.38,30.02 35.4,29.99 35.36,29.96 35.35,29.92 35.37,29.86 35.41,29.86 35.42,29.83
				35.46,29.8 35.47,29.84 35.45,29.92 35.46,29.97 35.48,29.97 35.5,30.01 35.48,30.06 35.44,30.05 			"/>
			<polygon class="st8" points="35.58,29.7 35.54,29.68 35.53,29.58 35.49,29.56 35.48,29.62 35.5,29.71 35.45,29.7 35.42,29.64
				35.35,29.66 35.36,29.58 35.41,29.54 35.46,29.54 35.49,29.47 35.54,29.5 35.61,29.57 35.66,29.6 35.66,29.64 35.61,29.66 			"/>
			<polygon class="st8" points="35.48,30.51 35.51,30.58 35.59,30.59 35.58,30.66 35.55,30.78 35.56,30.85 35.6,30.89 35.59,30.92
				35.61,30.96 35.65,30.94 35.7,30.95 35.71,31 35.69,31.07 35.74,31.12 35.79,31.08 35.8,31.05 35.84,30.98 35.82,30.92
				35.76,30.82 35.72,30.76 35.68,30.75 35.66,30.84 35.63,30.83 35.63,30.71 35.65,30.55 35.58,30.46 35.5,30.44 35.52,30.41
				35.59,30.41 35.61,30.36 35.65,30.38 35.68,30.36 35.73,30.39 35.8,30.38 35.78,30.3 35.75,30.27 35.72,30.25 35.73,30.2
				35.64,30.17 35.61,30.2 35.55,30.27 35.45,30.38 35.45,30.43 			"/>
			<polyline class="st7" points="79.01,59.9 78.87,58.8 78.72,57.69 78.58,56.59 78.43,55.48 78.29,54.38 78.15,53.28 77.71,52.14
				77.27,51.01 76.84,49.87 76.41,48.73 76,47.6 74.58,47.64 73.16,47.67 73.22,46.4 73.28,45.14 73.34,43.88 73.39,42.62
				73.45,41.36 74.27,42.06 75.1,42.76 75.94,43.45 76.79,44.14 77.64,44.82 78.51,45.5 79.38,46.17 81.35,46.83 81.56,44.74
				82.68,44.85 83.81,44.94 84.94,45.04 86.06,45.12 86.89,45.7 87.63,45.3 86.92,44.23 86.91,45.47 86.91,46.72 86.9,47.96
				86.88,49.21 86.87,50.46 88.09,50.07 89.3,49.66 90.51,49.25 91.72,48.82 92.91,48.39 93.15,47.2 93.38,46.01 93.6,44.83
				93.82,43.64 94.96,44.2 96.11,44.74 97.26,45.28 98.43,45.81 99.8,45.49 101.17,45.16 102.54,44.81 102.51,43.06 102.45,42.43
				104.31,43.53 104.61,42.23 103.7,41.45 102.8,40.67 101.91,39.89 101.02,39.1 99.88,39.24 98.73,39.36 97.58,39.48 96.44,39.58
				95.29,39.68 94.14,39.77 93,39.84 91.85,39.91 90.71,39.97 89.56,40.01 88.42,40.05 87.27,40.08 86.13,40.1 84.99,40.11
				83.85,40.11 82.71,40.1 81.57,40.08 80.43,40.05 79.29,40.01 78.16,39.96 77.02,39.9 75.89,39.84 74.76,39.76 73.63,39.67
				72.5,39.58 71.38,39.47 70.25,39.36 69.13,39.23 68.01,39.1 66.89,38.96 65.77,38.81 64.66,38.65 63.55,38.48 62.44,38.3
				61.33,38.11 60.23,37.91 59.13,37.71 58.03,37.49 56.93,37.27 55.84,37.03 54.75,36.79 53.66,36.54 52.58,36.28 51.5,36.01
				50.42,35.73 49.34,35.44 48.27,35.15 47.2,34.84 46.14,34.53 45.08,34.21 44.02,33.88 42.97,33.54 41.92,33.19 40.87,33.81
				39.8,34.42 38.73,35.03 37.84,34.03 36.97,33.04 36.11,32.04 35.61,33.04 35.1,34.04 34.58,35.05 34.06,36.05 33.54,37.06
				33.01,38.07 32.75,39.21 32.49,40.36 32.22,41.51 31.96,42.67 31.7,43.82 31.44,44.98 31.18,46.13 30.92,47.29 30.66,48.45
				30.41,49.61 30.71,50.67 31.01,51.72 31.33,52.77 32.68,52.62 34.03,52.45 34.39,53.93 34.76,55.41 33.71,57.1 35.07,57.97
				35.9,59.2 36.75,60.42 37.42,59.53 38.09,58.64 38.75,57.74 39.41,56.84 40.06,55.93 40.7,55.03 			"/>
			<text transform="matrix(1 0 0 1 78.8624 60.0357)" class="st9 st10 st32">●</text>
			<text transform="matrix(1 0 0 1 77.8526 53.5445)" class="st9 st10 st33">●</text>
			<text transform="matrix(1 0 0 1 75.9082 47.6753)" class="st9 st10 st18">●</text>
			<text transform="matrix(1 0 0 1 73.0743 47.7437)" class="st9 st10 st18">●</text>
			<text transform="matrix(1 0 0 1 73.1006 41.6685)" class="st9 st10 st34">●</text>
			<text transform="matrix(1 0 0 1 79.295 46.2495)" class="st9 st10 st18">●</text>
			<text transform="matrix(1 0 0 1 80.8877 47.2388)" class="st9 st10 st35">●</text>
			<text transform="matrix(1 0 0 1 81.3643 44.9136)" class="st9 st10 st36">●</text>
			<text transform="matrix(1 0 0 1 85.8858 45.2749)" class="st9 st10 st37">●</text>
			<text transform="matrix(1 0 0 1 86.7374 45.8306)" class="st9 st10 st32">●</text>
			<text transform="matrix(1 0 0 1 87.212 45.6646)" class="st9 st10 st38">●</text>
			<text transform="matrix(1 0 0 1 86.834 44.3062)" class="st9 st10 st18">●</text>
			<text transform="matrix(1 0 0 1 86.6377 50.6685)" class="st9 st10 st39">●</text>
			<text transform="matrix(1 0 0 1 92.5918 48.6714)" class="st9 st10 st40">●</text>
			<text transform="matrix(1 0 0 1 93.5362 43.8912)" class="st9 st10 st41">●</text>
			<text transform="matrix(1 0 0 1 98.254 45.9683)" class="st9 st10 st37">●</text>
			<text transform="matrix(1 0 0 1 102.2256 45.0855)" class="st9 st10 st42">●</text>
			<text transform="matrix(1 0 0 1 102.2911 43.2525)" class="st9 st10 st43">●</text>
			<text transform="matrix(1 0 0 1 102.3624 42.5083)" class="st9 st10 st18">●</text>
			<text transform="matrix(1 0 0 1 104.0674 43.7456)" class="st9 st10 st44">●</text>
			<text transform="matrix(1 0 0 1 104.126 42.6568)" class="st9 st10 st45">●</text>
			<text transform="matrix(1 0 0 1 100.8243 39.2779)" class="st9 st10 st36">●</text>
			<text transform="matrix(1 0 0 1 41.7393 33.3492)" class="st9 st10 st37">●</text>
			<text transform="matrix(1 0 0 1 38.5508 35.187)" class="st9 st10 st37">●</text>
			<text transform="matrix(1 0 0 1 35.75 32.354)" class="st9 st10 st46">●</text>
			<text transform="matrix(1 0 0 1 32.8614 38.2017)" class="st9 st10 st32">●</text>
			<text transform="matrix(1 0 0 1 29.8584 50.0933)" class="st9 st10 st19">●</text>
			<text transform="matrix(1 0 0 1 31.1778 52.9078)" class="st9 st10 st32">●</text>
			<text transform="matrix(1 0 0 1 33.8799 52.5816)" class="st9 st10 st32">●</text>
			<text transform="matrix(1 0 0 1 34.6758 55.4869)" class="st9 st10 st18">●</text>
			<text transform="matrix(1 0 0 1 33.6202 57.1724)" class="st9 st10 st18">●</text>
			<text transform="matrix(1 0 0 1 34.5323 58.4468)" class="st9 st10 st47">●</text>
			<text transform="matrix(1 0 0 1 36.3887 60.7427)" class="st9 st10 st46">●</text>
			<text id="shine5" transform="matrix(1 0 0 1 40.4444 55.2574)" class="st9 st10 st48">●</text>
			<circle class="st3" cx="36.62" cy="60.46" r="0.5"/>
			<circle class="st3" cx="34.79" cy="57.92" r="0.75"/>
			<circle class="st3" cx="30.24" cy="49.63" r="0.75"/>
			<circle class="st3" cx="73.35" cy="41.34" r="0.47"/>
			<circle class="st3" cx="81.2" cy="46.82" r="0.63"/>
			<circle class="st3" cx="87.52" cy="45.26" r="0.58"/>
			<circle class="st3" cx="92.8" cy="48.41" r="0.44"/>
			<circle class="st3" cx="93.7" cy="43.67" r="0.39"/>
			<circle id="shine14" class="st3" cx="102.46" cy="44.79" r="0.43"/>
			<circle class="st3" cx="104.43" cy="42.19" r="0.67"/>
			<circle class="st3" cx="35.95" cy="32.06" r="0.5"/>
		</g>
	</g>
	<g id="executive">
		<g>
			<polygon class="st8" points="113.03,156.91 113.01,156.88 112.99,156.88 112.98,156.92 112.97,156.94 112.92,156.96
				112.89,156.94 112.87,156.87 112.84,156.85 112.81,156.87 112.78,156.88 112.77,156.88 112.77,156.83 112.76,156.83
				112.73,156.84 112.67,156.94 112.63,157.06 112.6,157.12 112.55,157.12 112.53,157.12 112.53,157.14 112.53,157.17 112.56,157.2
				112.58,157.21 112.61,157.19 112.65,157.14 112.66,157.12 112.7,157.11 112.73,157.09 112.82,157.07 112.89,157.05
				112.97,157.01 113.02,157 113.03,156.96 113.02,156.93 			"/>
			<polygon class="st8" points="113.62,157 113.59,157.01 113.52,156.99 113.49,157 113.45,157.02 113.42,157.04 113.42,157.05
				113.47,157.08 113.51,157.07 113.59,157.06 113.66,157.06 113.7,157.05 113.76,157.01 113.78,156.99 113.78,156.96
				113.75,156.95 113.71,156.91 113.71,156.9 113.69,156.85 113.64,156.81 113.62,156.79 113.6,156.8 113.6,156.82 113.63,156.85
				113.62,156.9 113.63,156.92 113.67,156.91 113.67,156.95 113.65,156.98 			"/>
			<polygon class="st8" points="108.41,159.14 108.4,159.11 108.4,159.08 108.39,159.07 108.37,159.09 108.35,159.17 108.32,159.23
				108.31,159.33 108.32,159.35 108.34,159.33 108.38,159.3 108.38,159.28 108.38,159.24 108.39,159.2 108.41,159.17 			"/>
			<polygon class="st8" points="108.04,159.84 108.1,159.81 108.16,159.77 108.19,159.72 108.23,159.66 108.28,159.59 108.3,159.54
				108.23,159.45 108.09,159.55 			"/>
			<polygon class="st8" points="110.39,158.52 110.44,158.56 110.39,158.61 110.33,158.62 110.34,158.58 110.33,158.54
				110.28,158.52 110.22,158.54 110.19,158.53 110.18,158.5 110.24,158.48 110.27,158.45 110.29,158.4 110.3,158.37 110.35,158.36
				110.38,158.33 110.4,158.27 110.45,158.25 110.42,158.18 110.46,158.15 110.5,158.11 110.51,158.05 110.58,158.04 110.61,158.01
				110.61,157.99 110.55,157.98 110.5,158.01 110.4,158.1 110.31,158.23 110.23,158.33 110.16,158.39 110.07,158.45 109.91,158.5
				109.71,158.56 109.53,158.6 109.46,158.58 109.42,158.62 109.43,158.68 109.39,158.71 109.35,158.73 109.18,158.73
				109.14,158.73 109.13,158.78 109.09,158.79 109.01,158.75 108.99,158.77 108.98,158.8 109.01,158.84 108.97,158.88
				108.93,158.83 108.89,158.83 108.8,158.91 108.76,158.97 108.78,159 108.78,159.02 108.78,159.04 108.74,159 108.71,158.99
				108.69,159.02 108.7,159.07 108.69,159.09 108.66,159.1 108.66,159.14 108.64,159.15 108.59,159.14 108.57,159.11 108.56,159.16
				108.54,159.2 108.52,159.21 108.48,159.2 108.45,159.19 108.42,159.3 108.4,159.35 108.37,159.39 108.34,159.41 108.33,159.43
				108.34,159.46 108.37,159.5 108.38,159.53 108.39,159.57 108.46,159.59 108.47,159.56 108.5,159.5 108.53,159.47 108.57,159.44
				108.62,159.43 108.66,159.41 108.69,159.43 108.7,159.45 108.69,159.49 108.64,159.51 108.59,159.54 108.55,159.58 108.53,159.6
				108.58,159.6 108.62,159.58 108.67,159.55 108.73,159.53 108.8,159.5 108.83,159.42 108.88,159.42 109.03,159.34 109.08,159.3
				109.13,159.3 109.22,159.26 109.26,159.23 109.28,159.19 109.35,159.18 109.39,159.17 109.41,159.12 109.51,159.11
				109.53,159.08 109.53,159.05 109.59,159.05 109.63,159.04 109.68,158.99 109.72,158.98 109.78,158.97 109.9,158.91
				109.97,158.85 110,158.82 110.06,158.8 110.17,158.73 110.2,158.73 110.21,158.75 110.19,158.78 110.07,158.85 109.83,159.02
				109.59,159.19 109.54,159.2 109.48,159.23 109.48,159.26 109.51,159.27 109.56,159.25 109.71,159.16 110.01,158.97
				110.35,158.71 110.62,158.55 110.74,158.41 110.9,158.29 111.01,158.2 111.17,158.08 111.19,158.05 111.18,158 111.17,157.99
				111.11,158.01 111.05,158.06 111.01,158.1 110.97,158.15 110.9,158.19 110.83,158.19 110.8,158.15 110.77,158.15 110.75,158.19
				110.73,158.21 110.69,158.19 110.66,158.23 110.64,158.26 110.6,158.27 110.56,158.24 110.56,158.28 110.52,158.29 110.5,158.33
				110.5,158.37 110.48,158.41 110.45,158.43 110.44,158.49 			"/>
			<polygon class="st8" points="42.34,142.69 42.37,142.74 42.39,142.76 42.41,142.81 42.36,142.84 42.38,142.92 42.34,142.94
				42.31,142.85 42.26,142.84 42.24,142.82 42.22,142.78 42.21,142.71 42.21,142.66 42.25,142.64 42.27,142.59 42.32,142.59 			"/>
			<polygon class="st8" points="42.5,143.05 42.48,143.02 42.5,143 42.46,142.96 42.45,142.93 42.46,142.86 42.5,142.86
				42.51,142.83 42.55,142.8 42.57,142.84 42.54,142.92 42.55,142.97 42.58,142.97 42.6,143.01 42.57,143.06 42.54,143.05 			"/>
			<polygon class="st8" points="42.67,142.7 42.63,142.68 42.63,142.58 42.58,142.56 42.58,142.62 42.59,142.71 42.54,142.7
				42.52,142.64 42.45,142.66 42.46,142.58 42.5,142.55 42.56,142.54 42.59,142.47 42.64,142.5 42.71,142.57 42.76,142.6
				42.76,142.64 42.71,142.66 			"/>
			<polygon id="shine4" class="st8" points="42.58,143.51 42.61,143.58 42.69,143.59 42.67,143.66 42.65,143.78 42.66,143.85
				42.7,143.89 42.69,143.92 42.71,143.96 42.75,143.94 42.8,143.95 42.81,144 42.79,144.07 42.84,144.12 42.89,144.08 42.9,144.05
				42.93,143.98 42.91,143.92 42.85,143.82 42.82,143.76 42.78,143.75 42.75,143.84 42.73,143.83 42.73,143.71 42.74,143.55
				42.67,143.46 42.6,143.44 42.62,143.41 42.69,143.41 42.7,143.36 42.74,143.38 42.78,143.36 42.83,143.39 42.89,143.38
				42.88,143.3 42.85,143.27 42.81,143.25 42.83,143.2 42.74,143.17 42.71,143.2 42.65,143.27 42.54,143.38 42.55,143.43 			"/>
			<polyline class="st49" points="103.15,188.48 101.97,187.9 100.8,187.32 99.64,186.72 99.92,185.6 100.2,184.48 100.47,183.36
				100.73,182.24 100.99,181.12 101.25,179.99 101.49,178.87 101.73,177.74 101.97,176.62 102.2,175.49 102.43,174.36
				102.65,173.23 102.86,172.1 103.07,170.97 103.27,169.85 103.55,168.59 103.82,167.33 104.07,166.07 104.33,164.81
				104.57,163.56 105.33,162.74 106.08,161.92 106.82,161.09 107.22,160.07 107.62,159.06 108.02,158.04 108.4,157.03
				108.78,156.01 110.58,155.87 111.08,154.77 111.57,153.67 112.06,152.57 112.56,151.14 111.45,151.4 110.34,151.64
				109.23,151.88 108.12,152.1 107.24,153.07 106.35,154.03 105.45,154.99 104.44,155.64 102.36,155.39 100.91,156.64
				100.19,157.83 99.45,159.02 98.7,160.2 97.71,161.08 96.72,161.96 95.71,162.83 95.13,164.14 94.55,165.45 93.95,166.76
				93.58,165.6 93.22,164.45 92.86,163.3 92.5,162.14 92.15,160.99 91.8,159.84 91.46,158.68 91.12,157.53 90.04,157.88
				88.95,158.22 87.86,158.55 86.77,158.88 85.67,159.19 84.56,159.5 83.46,159.8 82.34,160.08 81.23,160.36 80.1,160.64
				78.98,160.9 77.85,161.15 76.72,161.4 76.57,160.33 76.43,159.26 76.29,158.19 76.15,157.12 76.01,156.05 75.87,154.99
				75.74,153.93 75.61,152.87 75.48,151.81 75.36,150.76 74.7,151.58 74.03,152.4 73.35,153.22 72.67,154.04 71.98,154.85
				71.27,155.66 70.57,156.47 69.85,157.28 69.13,158.09 68.39,158.89 67.65,159.69 66.9,160.49 66.15,161.28 65.38,162.07
				64.61,162.86 63.83,163.64 64.1,165.41 63.04,165.64 61.97,165.86 60.9,166.07 59.83,166.28 58.75,166.48 57.67,166.67
				56.59,166.85 55.5,167.03 54.41,167.19 53.32,167.35 52.22,167.51 51.12,167.65 50.02,167.78 48.91,167.91 47.8,168.03
				46.63,168.26 45.45,168.47 44.28,168.68 43.09,168.88 41.9,169.07 40.71,169.25 39.51,169.42 39.86,168.29 40.21,167.16
				40.56,166.02 40.9,164.89 41.25,163.76 41.59,162.62 41.94,161.49 42.28,160.36 42.62,159.23 42.96,158.1 43.95,157.45
				44.94,156.8 45.91,156.14 46.88,155.48 47.84,154.81 48.79,154.13 47.69,153.78 46.6,153.42 45.51,153.05 44.42,152.67
				43.33,152.28 42.26,151.89 41.18,151.48 40.11,151.07 			"/>
			<text transform="matrix(1 0 0 1 102.7357 188.8431)" class="st9 st10 st50">●</text>
			<text transform="matrix(1 0 0 1 99.4721 186.8753)" class="st9 st10 st51">●</text>
			<text transform="matrix(1 0 0 1 103.0551 170.0403)" class="st9 st10 st52">●</text>
			<text transform="matrix(1 0 0 1 104.0238 164.0374)" class="st9 st10 st19">●</text>
			<text transform="matrix(1 0 0 1 106.433 161.43)" class="st9 st10 st53">●</text>
			<text transform="matrix(1 0 0 1 108.6898 156.0862)" class="st9 st10 st18">●</text>
			<text transform="matrix(1 0 0 1 110.4955 155.9485)" class="st9 st10 st18">●</text>
			<text transform="matrix(1 0 0 1 111.8021 152.7923)" class="st9 st10 st54">●</text>
			<text transform="matrix(1 0 0 1 112.4701 151.22)" class="st9 st10 st18">●</text>
			<text transform="matrix(1 0 0 1 107.9643 152.2444)" class="st9 st10 st55">●</text>
			<text transform="matrix(1 0 0 1 105.3119 155.1136)" class="st9 st10 st56">●</text>
			<text transform="matrix(1 0 0 1 104.348 155.72)" class="st9 st10 st18">●</text>
			<text transform="matrix(1 0 0 1 102.182 155.5472)" class="st9 st10 st51">●</text>
			<text transform="matrix(1 0 0 1 100.7133 156.8186)" class="st9 st10 st36">●</text>
			<text transform="matrix(1 0 0 1 98.5619 160.3196)" class="st9 st10 st56">●</text>
			<text transform="matrix(1 0 0 1 95.4662 163.0403)" class="st9 st10 st57">●</text>
			<text transform="matrix(1 0 0 1 93.8627 166.8353)" class="st9 st10 st18">●</text>
			<text transform="matrix(1 0 0 1 90.933 157.7005)" class="st9 st10 st58">●</text>
			<text transform="matrix(1 0 0 1 76.4896 161.6019)" class="st9 st10 st59">●</text>
			<text transform="matrix(1 0 0 1 75.2709 150.8343)" class="st9 st10 st18">●</text>
			<text transform="matrix(1 0 0 1 63.5629 163.8811)" class="st9 st10 st60">●</text>
			<text transform="matrix(1 0 0 1 63.9252 165.5638)" class="st9 st10 st51">●</text>
			<text transform="matrix(1 0 0 1 47.5629 168.2405)" class="st9 st10 st57">●</text>
			<text transform="matrix(1 0 0 1 39.3734 169.5442)" class="st9 st10 st56">●</text>
			<text transform="matrix(1 0 0 1 42.8246 158.22)" class="st9 st10 st56">●</text>
			<text transform="matrix(1 0 0 1 48.6342 154.2737)" class="st9 st10 st55">●</text>
			<text transform="matrix(1 0 0 1 39.9213 151.2356)" class="st9 st10 st58">●</text>
			<circle id="shine13" class="st3" cx="104.31" cy="163.63" r="0.75"/>
			<circle class="st3" cx="111.89" cy="152.77" r="0.35"/>
			<circle class="st3" cx="103.07" cy="188.52" r="0.57"/>
			<circle class="st3" cx="106.69" cy="161.13" r="0.53"/>
		</g>
	</g>
	<g id="immigration">
		<g>
			<polygon class="st61" points="412.78,20.89 412.77,20.86 412.77,20.84 412.76,20.83 412.74,20.85 412.72,20.93 412.7,20.99
				412.68,21.08 412.69,21.1 412.72,21.09 412.75,21.05 412.75,21.03 412.76,21 412.76,20.95 412.78,20.93 			"/>
			<polygon class="st61" points="412.42,21.59 412.48,21.57 412.54,21.52 412.56,21.47 412.6,21.42 412.65,21.34 412.67,21.29
				412.61,21.21 412.47,21.3 			"/>
			<polyline class="st7" points="400.87,36.1 401.18,35.03 401.47,33.97 401.76,32.9 402.94,32.66 404.12,32.41 405.3,32.15
				406.48,31.88 407.65,31.6 407.31,30.51 406.98,29.43 406.65,28.34 406.32,27.25 407.1,26.25 407.86,25.24 408.62,24.23
				409.37,23.21 410.1,22.2 411.41,21.53 412.71,20.86 412.29,19.87 411.86,18.87 413,18.8 414.13,18.73 414.96,17.63 417.48,17.82
				414.97,16.31 413.94,14.95 412.5,13.86 411.94,15.83 410.65,16.18 409.34,16.52 408.04,16.84 406.73,17.15 405.66,17.59
				404.58,18.02 403.49,18.44 402.4,18.86 401.31,19.26 400.21,19.66 399.1,20.05 397.53,20.39 395.96,20.71 395.63,21.97
				395.56,20.63 395.49,19.29 394.26,19.4 393.03,19.49 392.93,20.59 392.83,21.7 392.72,22.8 392.61,23.9 392.5,25.01
				393.78,25.85 395.08,26.68 394.01,26.29 392.94,25.89 391.88,25.48 390.83,25.06 389.78,24.64 388.74,24.21 387.7,23.78
				386.67,23.33 385.65,22.88 384.63,22.42 383.95,23.38 383.25,24.33 382.55,25.28 381.84,26.23 381.12,27.17 380.39,28.11
				379.65,29.05 378.9,29.98 378.85,31.08 378.79,32.17 378.74,33.26 378.68,34.35 378.62,35.45 378.57,36.54 378.51,37.63
				378.45,38.72 378.39,39.82 378.34,40.91 378.28,42 378.22,43.09 378.16,44.18 377.99,45.39 377.83,46.61 377.66,47.82
				377.49,49.03 377.31,50.24 377.14,51.45 378.33,52.04 377.41,51.34 376.49,50.64 375.59,49.93 374.68,49.22 373.79,48.51
				372.91,47.79 372.03,47.06 371.16,46.33 370.3,45.59 369.44,44.85 368.6,44.11 367.76,43.36 366.93,42.6 366.1,41.84
				365.29,41.08 364.48,40.31 363.66,39.1 363.87,37.81 364.09,36.52 364.3,35.22 364.51,33.93 363.56,34.45 362.6,34.96
				361.64,35.47 360.67,35.97 359.7,36.47 358.72,36.96 357.73,37.44 356.74,37.91 355.74,38.38 354.65,37.95 353.56,37.51
				352.49,37.06 351.41,36.6 350.34,36.13 349.28,35.66 348.22,35.18 347.45,34.35 346.68,33.52 345.93,32.69 345.18,31.85
				343.88,31.18 343.51,29.96 343.15,28.75 342.8,27.53 342.17,25.83 342.75,25.6 343.91,25.21 343.7,24.42 344.14,26 345.5,27.2
				344.73,26.15 343.96,25.08 343.21,24.02 342.47,22.95 342.76,21.87 343.04,20.79 343.32,19.7 343.6,18.62 343.88,17.54
				344.16,16.47 344.44,15.39 344.72,14.32 345,13.24 345.28,12.17 345.56,11.1 345.84,10.04 347.21,9.54 348.57,9.02 			"/>
			<text transform="matrix(1 0 0 1 400.7485 36.2093)" class="st9 st10 st62">●</text>
			<text transform="matrix(1 0 0 1 401.5844 33.056)" class="st9 st10 st63">●</text>
			<text transform="matrix(1 0 0 1 407.4565 31.7689)" class="st9 st10 st64">●</text>
			<text transform="matrix(1 0 0 1 406.1889 27.3665)" class="st9 st10 st62">●</text>
			<text transform="matrix(1 0 0 1 409.9546 22.3255)" class="st9 st10 st65">●</text>
			<text transform="matrix(1 0 0 1 411.7788 18.9486)" class="st9 st10 st18">●</text>
			<text transform="matrix(1 0 0 1 413.9292 18.9066)" class="st9 st10 st66">●</text>
			<text transform="matrix(1 0 0 1 414.8051 17.7591)" class="st9 st10 st32">●</text>
			<text transform="matrix(1 0 0 1 414.8852 16.3851)" class="st9 st10 st18">●</text>
			<text transform="matrix(1 0 0 1 413.854 15.0247)" class="st9 st10 st18">●</text>
			<text transform="matrix(1 0 0 1 412.3325 14.0033)" class="st9 st10 st67">●</text>
			<text id="shine3" transform="matrix(1 0 0 1 411.8569 15.9124)" class="st9 st10 st18">●</text>
			<text transform="matrix(1 0 0 1 406.5522 17.306)" class="st9 st10 st68">●</text>
			<text transform="matrix(1 0 0 1 398.8159 20.307)" class="st9 st10 st69">●</text>
			<text transform="matrix(1 0 0 1 395.8227 20.8314)" class="st9 st10 st70">●</text>
			<text transform="matrix(1 0 0 1 395.5141 22.0746)" class="st9 st10 st71">●</text>
			<text transform="matrix(1 0 0 1 395.2876 19.472)" class="st9 st10 st72">●</text>
			<text transform="matrix(1 0 0 1 392.8286 19.6761)" class="st9 st10 st72">●</text>
			<text transform="matrix(1 0 0 1 392.3813 25.1107)" class="st9 st10 st71">●</text>
			<text transform="matrix(1 0 0 1 394.9966 26.7572)" class="st9 st10 st18">●</text>
			<text transform="matrix(1 0 0 1 384.4741 22.5628)" class="st9 st10 st73">●</text>
			<text transform="matrix(1 0 0 1 378.7661 30.1058)" class="st9 st10 st70">●</text>
			<text transform="matrix(1 0 0 1 377.896 44.4076)" class="st9 st10 st74">●</text>
			<text transform="matrix(1 0 0 1 376.9633 51.6048)" class="st9 st10 st68">●</text>
			<text transform="matrix(1 0 0 1 378.2036 52.1497)" class="st9 st10 st62">●</text>
			<text transform="matrix(1 0 0 1 364.2221 40.5423)" class="st9 st10 st75">●</text>
			<text transform="matrix(1 0 0 1 363.479 39.2562)" class="st9 st10 st76">●</text>
			<text transform="matrix(1 0 0 1 364.3091 34.1117)" class="st9 st10 st66">●</text>
			<text transform="matrix(1 0 0 1 355.5327 38.5628)" class="st9 st10 st66">●</text>
			<text transform="matrix(1 0 0 1 347.9292 35.4388)" class="st9 st10 st77">●</text>
			<text transform="matrix(1 0 0 1 345.0102 32.0013)" class="st9 st10 st78">●</text>
			<text transform="matrix(1 0 0 1 343.6958 31.3431)" class="st9 st10 st79">●</text>
			<text transform="matrix(1 0 0 1 342.6489 27.6644)" class="st9 st10 st32">●</text>
			<text transform="matrix(1 0 0 1 342.0571 25.932)" class="st9 st10 st71">●</text>
			<text transform="matrix(1 0 0 1 342.5141 25.8089)" class="st9 st10 st80">●</text>
			<text transform="matrix(1 0 0 1 343.8237 25.2904)" class="st9 st10 st18">●</text>
			<text transform="matrix(1 0 0 1 343.6167 24.4974)" class="st9 st10 st18">●</text>
			<text transform="matrix(1 0 0 1 344.0532 26.0755)" class="st9 st10 st18">●</text>
			<text transform="matrix(1 0 0 1 345.3569 27.3314)" class="st9 st10 st65">●</text>
			<text transform="matrix(1 0 0 1 342.3882 23.0306)" class="st9 st10 st18">●</text>
			<text transform="matrix(1 0 0 1 345.5434 10.304)" class="st9 st10 st81">●</text>
			<text id="shine12" transform="matrix(1 0 0 1 348.4311 9.1439)" class="st9 st10 st70">●</text>
			<text transform="matrix(1 0 0 1 417.3794 17.9964)" class="st9 st10 st78">●</text>
			<circle class="st3" cx="412.6" cy="20.98" r="0.75"/>
		</g>
	</g>
	<g id="racial_x5F_justice">
		<g>
			<polygon class="st8" points="205.13,115.19 205.12,115.17 205.1,115.17 205.09,115.21 205.08,115.23 205.03,115.24 205,115.23
				204.98,115.15 204.95,115.14 204.91,115.16 204.89,115.17 204.88,115.17 204.88,115.12 204.87,115.12 204.84,115.13
				204.78,115.23 204.74,115.35 204.71,115.41 204.66,115.41 204.64,115.41 204.63,115.43 204.64,115.46 204.67,115.49
				204.69,115.49 204.72,115.48 204.76,115.43 204.77,115.41 204.81,115.4 204.84,115.38 204.93,115.36 205,115.34 205.08,115.3
				205.13,115.28 205.14,115.25 205.13,115.22 			"/>
			<polygon class="st8" points="205.73,115.29 205.69,115.3 205.63,115.28 205.6,115.29 205.56,115.31 205.52,115.33 205.53,115.34
				205.57,115.36 205.62,115.35 205.7,115.35 205.77,115.35 205.81,115.34 205.87,115.3 205.89,115.28 205.89,115.25 205.86,115.24
				205.82,115.2 205.82,115.19 205.8,115.14 205.75,115.1 205.73,115.08 205.71,115.08 205.71,115.11 205.74,115.14 205.73,115.19
				205.74,115.21 205.78,115.2 205.78,115.24 205.76,115.27 			"/>
			<polygon class="st8" points="200.52,117.42 200.5,117.39 200.51,117.37 200.5,117.36 200.48,117.38 200.46,117.46 200.43,117.52
				200.42,117.61 200.43,117.63 200.45,117.62 200.49,117.59 200.49,117.56 200.49,117.53 200.5,117.49 200.52,117.46 			"/>
			<polygon class="st8" points="200.15,118.13 200.21,118.1 200.27,118.06 200.3,118.01 200.34,117.95 200.39,117.88 200.41,117.83
				200.34,117.74 200.2,117.84 			"/>
			<polygon class="st8" points="202.5,116.81 202.55,116.85 202.5,116.9 202.44,116.91 202.45,116.87 202.43,116.82 202.39,116.81
				202.33,116.83 202.3,116.82 202.29,116.79 202.35,116.76 202.38,116.74 202.4,116.69 202.41,116.66 202.45,116.65 202.49,116.62
				202.51,116.56 202.56,116.54 202.53,116.47 202.57,116.44 202.61,116.39 202.62,116.34 202.69,116.33 202.72,116.3
				202.72,116.28 202.65,116.27 202.61,116.3 202.51,116.39 202.42,116.51 202.34,116.62 202.27,116.68 202.18,116.74
				202.02,116.78 201.81,116.85 201.64,116.89 201.58,116.87 201.53,116.9 201.54,116.97 201.5,117 201.46,117.02 201.28,117.01
				201.25,117.02 201.24,117.07 201.2,117.08 201.12,117.04 201.1,117.05 201.09,117.09 201.12,117.13 201.08,117.17 201.04,117.12
				201,117.12 200.91,117.2 200.87,117.26 200.89,117.29 200.89,117.31 200.89,117.32 200.85,117.29 200.82,117.28 200.8,117.31
				200.81,117.36 200.8,117.38 200.76,117.38 200.77,117.43 200.75,117.44 200.7,117.43 200.68,117.4 200.67,117.45 200.65,117.49
				200.63,117.5 200.59,117.49 200.56,117.48 200.53,117.59 200.51,117.64 200.48,117.68 200.45,117.7 200.44,117.72 200.45,117.75
				200.48,117.79 200.49,117.82 200.5,117.86 200.57,117.88 200.58,117.85 200.61,117.79 200.64,117.76 200.68,117.73
				200.73,117.72 200.77,117.69 200.8,117.72 200.81,117.74 200.8,117.78 200.75,117.8 200.7,117.83 200.66,117.86 200.64,117.89
				200.69,117.89 200.73,117.87 200.78,117.84 200.84,117.82 200.91,117.79 200.94,117.72 200.99,117.7 201.14,117.63
				201.19,117.59 201.24,117.59 201.33,117.55 201.37,117.52 201.39,117.48 201.46,117.47 201.5,117.46 201.52,117.41 201.62,117.4
				201.64,117.37 201.64,117.34 201.69,117.34 201.74,117.33 201.79,117.28 201.83,117.27 201.89,117.26 202.01,117.2
				202.07,117.14 202.11,117.11 202.16,117.09 202.28,117.02 202.31,117.02 202.31,117.04 202.3,117.07 202.18,117.14 201.94,117.3
				201.7,117.48 201.65,117.49 201.59,117.52 201.59,117.55 201.62,117.56 201.67,117.54 201.82,117.45 202.12,117.26 202.46,117
				202.72,116.84 202.85,116.7 203.01,116.58 203.12,116.49 203.28,116.37 203.3,116.34 203.29,116.29 203.27,116.28 203.22,116.3
				203.15,116.35 203.12,116.39 203.08,116.44 203.01,116.48 202.94,116.48 202.91,116.44 202.88,116.44 202.86,116.48
				202.84,116.5 202.8,116.48 202.77,116.52 202.75,116.55 202.71,116.56 202.67,116.52 202.66,116.57 202.62,116.58 202.61,116.62
				202.61,116.66 202.59,116.7 202.56,116.72 202.55,116.78 			"/>
			<polygon class="st8" points="134.45,100.97 134.48,101.03 134.49,101.05 134.52,101.09 134.47,101.12 134.49,101.21
				134.45,101.23 134.42,101.14 134.37,101.13 134.35,101.11 134.33,101.07 134.32,101 134.32,100.95 134.36,100.93 134.38,100.88
				134.43,100.88 			"/>
			<polygon class="st8" points="134.61,101.34 134.59,101.31 134.61,101.28 134.57,101.25 134.56,101.21 134.57,101.15
				134.61,101.15 134.62,101.12 134.66,101.09 134.68,101.13 134.65,101.21 134.66,101.26 134.69,101.26 134.71,101.3
				134.68,101.35 134.65,101.34 			"/>
			<polygon class="st8" points="134.78,100.99 134.74,100.97 134.74,100.87 134.69,100.85 134.69,100.91 134.7,101 134.65,100.99
				134.62,100.93 134.56,100.95 134.57,100.87 134.61,100.83 134.67,100.83 134.7,100.76 134.75,100.79 134.82,100.86
				134.87,100.89 134.87,100.93 134.82,100.95 			"/>
			<polygon class="st8" points="134.68,101.8 134.72,101.87 134.79,101.88 134.78,101.95 134.76,102.07 134.77,102.13
				134.81,102.18 134.79,102.21 134.81,102.25 134.86,102.23 134.91,102.24 134.91,102.29 134.9,102.36 134.95,102.41 135,102.37
				135.01,102.33 135.04,102.27 135.02,102.21 134.96,102.11 134.93,102.05 134.89,102.04 134.86,102.13 134.84,102.12 134.84,102
				134.85,101.84 134.78,101.75 134.7,101.73 134.73,101.7 134.8,101.7 134.81,101.65 134.85,101.67 134.89,101.65 134.94,101.67
				135,101.67 134.99,101.59 134.95,101.56 134.92,101.54 134.94,101.49 134.85,101.46 134.82,101.49 134.75,101.56 134.65,101.67
				134.65,101.72 			"/>
			<polyline class="st7" points="191.2,140.53 192.29,139.29 192.68,138.24 193.06,137.19 193.44,136.14 193.82,135.08
				194.18,134.03 193.66,132.95 193.15,131.87 192.65,130.79 192.14,129.7 192.78,127.89 194.75,127.74 198.4,125.38 196.33,124.47
				194.9,123.87 195.71,122.96 196.5,122.04 197.29,121.11 198.11,120.25 198.93,119.38 199.88,118.29 200.82,117.2 201.74,116.1
				201.44,114.96 201.14,113.81 200.83,112.67 200.53,111.53 200.23,110.39 199.54,111.25 198.84,112.11 198.13,112.96
				197.41,113.81 196.68,114.66 195.95,115.5 195.2,116.35 194.44,117.18 193.68,118.02 192.9,118.85 192.12,119.68 191.03,119.39
				189.94,119.1 188.86,118.8 187.78,118.49 186.71,118.17 186.1,116.98 184.99,117.51 183.88,118.02 182.76,118.53 183.57,119.34
				184.4,120.15 185.23,120.95 186.08,121.75 185,122.25 183.91,122.73 182.82,123.21 181.73,123.5 180.64,123.78 179.55,124.05
				178.46,124.31 177.36,124.57 177.5,125.67 177.64,126.77 177.78,127.88 177.93,128.98 178.07,130.09 178.22,131.19
				179.41,130.67 180.58,130.14 181.76,129.6 182.92,129.05 184.01,129.02 185.09,128.99 186.18,128.94 187.27,128.88
				188.57,129.79 189.88,130.68 189.25,131.65 188.61,132.63 186.95,133.12 185.68,133.4 184.41,133.67 183.13,133.93
				183.09,135.06 183.05,136.19 183,137.32 182.96,138.44 182.91,139.57 181.84,139.92 180.78,140.27 179.71,140.61 178.63,140.94
				176.75,140.09 173.56,113.22 172.65,112.65 171.51,112.64 170.38,112.61 169.24,112.58 168.1,112.54 166.97,112.48
				165.83,112.42 164.7,112.35 163.56,112.27 162.43,112.18 161.3,112.08 160.17,111.97 159.04,111.85 157.91,111.72 156.79,111.59
				155.66,111.44 154.54,111.28 153.42,111.12 152.3,110.94 151.18,110.76 150.06,110.57 148.95,110.37 147.83,110.15
				146.72,109.93 145.61,109.7 144.51,109.46 143.4,109.22 142.3,108.96 141.2,108.69 140.1,108.42 139.01,108.13 137.92,107.84
				136.83,107.53 135.74,107.22 134.66,106.9 133.58,106.57 132.9,107.96 132.22,109.36 132.14,110.51 132.07,111.68 132,112.84
				131.94,114 131.87,115.17 131.81,116.34 131.76,117.51 131.71,118.68 131.66,119.85 130.64,120.38 129.61,120.9 129.91,121.96
				130.22,123.01 130.54,124.06 			"/>
			<text transform="matrix(1 0 0 1 190.9298 140.7685)" class="st9 st10 st82">●</text>
			<text transform="matrix(1 0 0 1 191.797 139.7245)" class="st9 st10 st83">●</text>
			<text transform="matrix(1 0 0 1 193.9542 134.2294)" class="st9 st10 st84">●</text>
			<text transform="matrix(1 0 0 1 191.7921 130.0107)" class="st9 st10 st85">●</text>
			<text transform="matrix(1 0 0 1 192.5499 128.0917)" class="st9 st10 st84">●</text>
			<text transform="matrix(1 0 0 1 194.0987 128.3065)" class="st9 st10 st86">●</text>
			<text transform="matrix(1 0 0 1 196.0626 124.9657)" class="st9 st10 st87">●</text>
			<text transform="matrix(1 0 0 1 194.3634 124.3476)" class="st9 st10 st88">●</text>
			<text transform="matrix(1 0 0 1 196.8663 121.4862)" class="st9 st10 st89">●</text>
			<text transform="matrix(1 0 0 1 198.212 120.0097)" class="st9 st10 st90">●</text>
			<text transform="matrix(1 0 0 1 201.3917 116.4101)" class="st9 st10 st85">●</text>
			<text transform="matrix(1 0 0 1 199.9229 110.662)" class="st9 st10 st91">●</text>
			<text transform="matrix(1 0 0 1 191.6348 120.1044)" class="st9 st10 st92">●</text>
			<text transform="matrix(1 0 0 1 186.5177 118.3407)" class="st9 st10 st93">●</text>
			<text transform="matrix(1 0 0 1 185.7579 117.2841)" class="st9 st10 st94">●</text>
			<text transform="matrix(1 0 0 1 182.5645 118.6972)" class="st9 st10 st93">●</text>
			<text transform="matrix(1 0 0 1 185.8253 121.9745)" class="st9 st10 st95">●</text>
			<text transform="matrix(1 0 0 1 182.6251 123.3837)" class="st9 st10 st93">●</text>
			<text transform="matrix(1 0 0 1 176.7042 125.1444)" class="st9 st10 st96">●</text>
			<text transform="matrix(1 0 0 1 177.7618 131.5946)" class="st9 st10 st97">●</text>
			<text transform="matrix(1 0 0 1 182.5079 129.413)" class="st9 st10 st98">●</text>
			<text transform="matrix(1 0 0 1 186.9981 129.1239)" class="st9 st10 st82">●</text>
			<text transform="matrix(1 0 0 1 189.7716 130.7773)" class="st9 st10 st99">●</text>
			<text transform="matrix(1 0 0 1 188.3858 132.828)" class="st9 st10 st84">●</text>
			<text transform="matrix(1 0 0 1 186.4132 133.5888)" class="st9 st10 st88">●</text>
			<text transform="matrix(1 0 0 1 182.8829 134.1532)" class="st9 st10 st95">●</text>
			<text transform="matrix(1 0 0 1 182.7139 139.7372)" class="st9 st10 st93">●</text>
			<text transform="matrix(1 0 0 1 178.2657 141.2587)" class="st9 st10 st100">●</text>
			<text transform="matrix(1 0 0 1 176.6329 140.1913)" class="st9 st10 st99">●</text>
			<text transform="matrix(1 0 0 1 198.1837 125.5849)" class="st9 st10 st101">●</text>
			<text transform="matrix(1 0 0 1 131.9112 109.6288)" class="st9 st10 st91">●</text>
			<text transform="matrix(1 0 0 1 131.0733 120.373)" class="st9 st10 st102">●</text>
			<text transform="matrix(1 0 0 1 128.8956 121.5312)" class="st9 st10 st90">●</text>
			<text id="shine2" transform="matrix(1 0 0 1 130.421 124.163)" class="st9 st10 st99">●</text>
			<circle class="st3" cx="172.75" cy="112.76" r="0.85"/>
			<circle class="st3" cx="133.73" cy="106.68" r="0.89"/>
			<circle class="st3" cx="129.33" cy="120.96" r="0.99"/>
			<circle class="st3" cx="131.46" cy="119.84" r="0.81"/>
			<circle class="st3" cx="177.11" cy="124.59" r="0.89"/>
			<circle class="st3" cx="178.07" cy="131.21" r="0.63"/>
			<circle class="st3" cx="182.77" cy="129.05" r="0.56"/>
			<circle class="st3" cx="186.75" cy="133.14" r="0.74"/>
			<circle class="st3" cx="178.51" cy="140.91" r="0.5"/>
			<circle class="st3" cx="198.56" cy="119.32" r="0.89"/>
			<circle class="st3" cx="201.61" cy="116.14" r="0.48"/>
			<circle class="st3" cx="200.14" cy="110.42" r="0.42"/>
			<circle class="st3" cx="191.93" cy="119.63" r="0.67"/>
			<circle class="st3" cx="186.65" cy="118.14" r="0.26"/>
			<circle class="st3" cx="192.7" cy="127.91" r="0.31"/>
			<circle id="shine11" class="st3" cx="192.01" cy="129.7" r="0.48"/>
			<circle class="st3" cx="194.52" cy="127.65" r="0.89"/>
			<circle class="st3" cx="194.1" cy="134.02" r="0.31"/>
			<circle class="st3" cx="191.09" cy="140.53" r="0.38"/>
			<circle class="st3" cx="192.1" cy="139.29" r="0.68"/>
			<circle class="st3" cx="198.42" cy="125.33" r="0.4"/>
			<circle class="st3" cx="196.42" cy="124.58" r="0.66"/>
			<circle class="st3" cx="194.77" cy="123.94" r="0.74"/>
			<circle class="st3" cx="197.1" cy="121.11" r="0.58"/>
		</g>
	</g>
	<g id="women">
		<g>
			<polygon class="st8" points="492.44,118.51 492.42,118.48 492.41,118.49 492.39,118.52 492.38,118.55 492.33,118.56
				492.3,118.55 492.29,118.47 492.26,118.46 492.22,118.48 492.2,118.48 492.19,118.48 492.19,118.44 492.18,118.43 492.15,118.45
				492.09,118.54 492.05,118.67 492.01,118.73 491.97,118.73 491.94,118.72 491.94,118.75 491.95,118.78 491.97,118.81 492,118.81
				492.03,118.79 492.07,118.75 492.07,118.73 492.11,118.72 492.15,118.7 492.24,118.68 492.31,118.66 492.38,118.62 492.44,118.6
				492.45,118.57 492.44,118.54 			"/>
			<polygon class="st8" points="493.04,118.61 493,118.62 492.94,118.6 492.9,118.61 492.87,118.63 492.83,118.65 492.83,118.66
				492.88,118.68 492.92,118.67 493,118.66 493.07,118.67 493.11,118.66 493.17,118.62 493.2,118.6 493.19,118.57 493.16,118.55
				493.13,118.52 493.12,118.51 493.1,118.46 493.06,118.41 493.04,118.4 493.01,118.4 493.01,118.42 493.05,118.46 493.03,118.51
				493.05,118.53 493.08,118.52 493.08,118.55 493.07,118.59 			"/>
			<polygon class="st8" points="487.82,120.74 487.81,120.71 487.81,120.69 487.8,120.68 487.78,120.7 487.77,120.78 487.74,120.84
				487.72,120.93 487.73,120.95 487.76,120.93 487.79,120.9 487.8,120.88 487.8,120.85 487.8,120.8 487.82,120.78 			"/>
			<polygon class="st8" points="487.46,121.44 487.52,121.42 487.58,121.37 487.6,121.32 487.64,121.27 487.69,121.19
				487.72,121.14 487.65,121.06 487.51,121.16 			"/>
			<polygon class="st8" points="489.8,120.13 489.86,120.17 489.81,120.22 489.74,120.23 489.76,120.18 489.74,120.14 489.7,120.13
				489.63,120.14 489.6,120.14 489.6,120.11 489.66,120.08 489.69,120.05 489.7,120.01 489.72,119.98 489.76,119.97 489.79,119.94
				489.82,119.88 489.86,119.86 489.84,119.78 489.87,119.75 489.91,119.71 489.92,119.65 490,119.65 490.03,119.62 490.03,119.6
				489.96,119.59 489.92,119.62 489.82,119.71 489.73,119.83 489.64,119.94 489.57,120 489.48,120.05 489.33,120.1 489.12,120.17
				488.94,120.21 488.88,120.19 488.84,120.22 488.84,120.29 488.81,120.32 488.76,120.34 488.59,120.33 488.56,120.34
				488.54,120.39 488.5,120.4 488.43,120.36 488.4,120.37 488.39,120.41 488.42,120.45 488.39,120.49 488.34,120.44 488.3,120.44
				488.22,120.51 488.18,120.58 488.19,120.61 488.2,120.63 488.19,120.64 488.16,120.6 488.12,120.6 488.1,120.63 488.12,120.68
				488.1,120.69 488.07,120.7 488.07,120.74 488.06,120.76 488,120.75 487.99,120.72 487.97,120.77 487.96,120.8 487.93,120.82
				487.9,120.8 487.86,120.8 487.84,120.91 487.81,120.96 487.79,121 487.76,121.01 487.74,121.04 487.76,121.07 487.78,121.11
				487.8,121.14 487.81,121.18 487.88,121.2 487.89,121.16 487.91,121.1 487.95,121.07 487.98,121.04 488.03,121.03 488.08,121.01
				488.11,121.04 488.11,121.06 488.1,121.09 488.06,121.12 488,121.15 487.96,121.18 487.95,121.2 487.99,121.21 488.03,121.19
				488.08,121.16 488.15,121.14 488.22,121.1 488.24,121.03 488.29,121.02 488.44,120.94 488.5,120.91 488.55,120.91 488.63,120.87
				488.67,120.84 488.69,120.8 488.76,120.78 488.81,120.77 488.82,120.73 488.92,120.72 488.95,120.69 488.95,120.65 489,120.65
				489.05,120.64 489.1,120.6 489.14,120.59 489.2,120.58 489.32,120.52 489.38,120.46 489.42,120.43 489.47,120.4 489.58,120.33
				489.61,120.34 489.62,120.36 489.6,120.38 489.48,120.46 489.25,120.62 489.01,120.8 488.96,120.81 488.9,120.83 488.89,120.87
				488.92,120.87 488.98,120.86 489.13,120.77 489.43,120.58 489.76,120.31 490.03,120.15 490.15,120.01 490.31,119.9 490.43,119.8
				490.58,119.69 490.6,119.65 490.6,119.61 490.58,119.6 490.53,119.61 490.46,119.66 490.43,119.7 490.39,119.76 490.31,119.8
				490.25,119.8 490.21,119.75 490.19,119.76 490.17,119.8 490.15,119.81 490.1,119.8 490.08,119.84 490.06,119.87 490.02,119.88
				489.98,119.84 489.97,119.89 489.93,119.9 489.91,119.93 489.91,119.98 489.9,120.02 489.87,120.03 489.86,120.09 			"/>
			<polygon class="st8" points="421.75,104.29 421.78,104.34 421.8,104.37 421.83,104.41 421.78,104.44 421.79,104.52
				421.76,104.55 421.72,104.46 421.68,104.44 421.65,104.43 421.63,104.39 421.62,104.32 421.63,104.27 421.67,104.24
				421.68,104.19 421.73,104.2 			"/>
			<polygon class="st8" points="421.91,104.66 421.9,104.63 421.91,104.6 421.88,104.57 421.86,104.53 421.88,104.47 421.92,104.47
				421.93,104.44 421.97,104.41 421.98,104.44 421.96,104.53 421.97,104.57 422,104.58 422.02,104.62 421.99,104.67 421.95,104.66
							"/>
			<polygon class="st8" points="422.09,104.31 422.05,104.29 422.05,104.19 422,104.16 422,104.23 422.01,104.32 421.96,104.31
				421.93,104.24 421.86,104.27 421.88,104.18 421.92,104.15 421.97,104.15 422,104.08 422.05,104.1 422.13,104.18 422.17,104.2
				422.18,104.25 422.12,104.26 			"/>
			<polygon class="st8" points="421.99,105.12 422.03,105.18 422.1,105.19 422.09,105.27 422.06,105.38 422.07,105.45 422.12,105.5
				422.1,105.52 422.12,105.56 422.17,105.54 422.22,105.56 422.22,105.6 422.21,105.68 422.26,105.72 422.31,105.68 422.32,105.65
				422.35,105.58 422.33,105.52 422.27,105.43 422.23,105.36 422.2,105.35 422.17,105.45 422.14,105.44 422.14,105.32
				422.16,105.16 422.09,105.07 422.01,105.05 422.03,105.02 422.1,105.02 422.12,104.97 422.16,104.99 422.2,104.97 422.24,104.99
				422.31,104.99 422.29,104.91 422.26,104.88 422.23,104.86 422.24,104.8 422.16,104.78 422.13,104.81 422.06,104.87
				421.96,104.99 421.96,105.03 			"/>
			<polyline class="st7" points="492.51,117.71 489.95,116.18 488.12,113.86 476.62,125.45 474.73,124.41 471.89,122.68
				472.24,121.2 472.58,119.72 460.93,111.73 454.49,112.35 463.87,122.35 465.45,125.71 464.18,126.26 462.9,126.8 461.61,127.33
				461.68,128.26 460.92,129.46 460.15,130.67 459.41,129.72 458.69,128.76 457.97,127.8 457.27,126.84 456.57,125.88
				455.88,124.92 455.2,123.95 454.05,123.83 452.91,123.7 451.76,123.56 450.62,123.41 449.48,123.25 448.34,123.09 447.21,122.91
				446.07,122.73 444.94,122.53 443.81,122.33 443.33,121.31 442.85,120.29 442.38,119.27 441.91,118.25 441.46,117.23
				441.01,116.21 440.57,115.19 440.14,114.17 439.72,113.15 438.71,112.54 437.7,111.92 436.7,111.3 435.71,110.67 434.73,110.03
				433.55,110.02 432.37,110 431.18,109.96 430,109.92 428.81,109.86 427.62,109.8 426.43,109.72 425.24,109.63 424.21,109.06
				423.19,108.47 422.17,107.88 421.16,107.27 420.83,108.35 420.51,109.43 420.18,110.51 419.85,111.59 419.52,112.67
				419.45,113.77 419.37,114.87 419.3,115.97 419.24,117.07 419.17,118.18 419.11,119.28 419.06,120.39 419,121.5 418.95,122.61
				418.9,123.72 418.86,124.84 418.82,125.95 418.78,127.07 418.74,128.18 418.72,129.3 418.92,131.03 			"/>
			<text id="shine1" transform="matrix(1 0 0 1 476.5291 125.6035)" class="st3 st10 st99">●</text>
			<text transform="matrix(1 0 0 1 476.5291 125.6035)" class="st9 st10 st99">●</text>
			<text transform="matrix(1 0 0 1 474.4676 125.0108)" class="st3 st10 st103">●</text>
			<text transform="matrix(1 0 0 1 474.4676 125.0108)" class="st9 st10 st103">●</text>
			<text transform="matrix(1 0 0 1 471.5086 123.0137)" class="st3 st10 st104">●</text>
			<text transform="matrix(1 0 0 1 471.5086 123.0137)" class="st9 st10 st104">●</text>
			<text transform="matrix(1 0 0 1 472.037 120.1983)" class="st3 st10 st88">●</text>
			<text transform="matrix(1 0 0 1 472.037 120.1983)" class="st9 st10 st88">●</text>
			<text transform="matrix(1 0 0 1 463.8446 122.4434)" class="st3 st10 st99">●</text>
			<text transform="matrix(1 0 0 1 463.8446 122.4434)" class="st9 st10 st99">●</text>
			<text transform="matrix(1 0 0 1 464.952 126.1485)" class="st3 st10 st105">●</text>
			<text transform="matrix(1 0 0 1 464.952 126.1485)" class="st9 st10 st105">●</text>
			<text transform="matrix(1 0 0 1 461.2313 127.6651)" class="st3 st10 st104">●</text>
			<text transform="matrix(1 0 0 1 461.2313 127.6651)" class="st9 st10 st104">●</text>
			<text transform="matrix(1 0 0 1 461.5702 128.3555)" class="st3 st10 st99">●</text>
			<text transform="matrix(1 0 0 1 461.5702 128.3555)" class="st9 st10 st99">●</text>
			<text transform="matrix(1 0 0 1 459.5672 131.1768)" class="st3 st10 st106">●</text>
			<text transform="matrix(1 0 0 1 459.5672 131.1768)" class="st9 st10 st106">●</text>
			<text transform="matrix(1 0 0 1 454.4862 124.5762)" class="st3 st10 st90">●</text>
			<text transform="matrix(1 0 0 1 454.4862 124.5762)" class="st9 st10 st90">●</text>
			<text transform="matrix(1 0 0 1 443.6981 122.4356)" class="st3 st10 st99">●</text>
			<text transform="matrix(1 0 0 1 443.6981 122.4356)" class="st9 st10 st99">●</text>
			<text transform="matrix(1 0 0 1 439.6082 113.25)" class="st3 st10 st99">●</text>
			<text transform="matrix(1 0 0 1 439.6082 113.25)" class="st9 st10 st99">●</text>
			<text transform="matrix(1 0 0 1 434.4295 110.3018)" class="st3 st10 st107">●</text>
			<text transform="matrix(1 0 0 1 434.4295 110.3018)" class="st9 st10 st107">●</text>
			<text transform="matrix(1 0 0 1 425.1278 109.7344)" class="st3 st10 st99">●</text>
			<text transform="matrix(1 0 0 1 425.1278 109.7344)" class="st9 st10 st99">●</text>
			<text transform="matrix(1 0 0 1 418.9051 113.2168)" class="st3 st10 st108">●</text>
			<text transform="matrix(1 0 0 1 418.9051 113.2168)" class="st9 st10 st108">●</text>
			<text transform="matrix(1 0 0 1 418.2704 129.6905)" class="st3 st10 st109">●</text>
			<text transform="matrix(1 0 0 1 418.4813 131.417)" class="st3 st10 st109">●</text>
			<text transform="matrix(1 0 0 1 418.4813 131.417)" class="st9 st10 st109">●</text>
			<text transform="matrix(1 0 0 1 454.327 112.7539)" class="st3 st10 st109">●</text>
			<text transform="matrix(1 0 0 1 460.8778 111.7442)" class="st3 st10 st99">●</text>
			<text transform="matrix(1 0 0 1 460.8778 111.7442)" class="st9 st10 st99">●</text>
			<text transform="matrix(1 0 0 1 487.7352 114.3643)" class="st3 st10 st105">●</text>
			<text transform="matrix(1 0 0 1 487.7352 114.3643)" class="st9 st10 st105">●</text>
			<text transform="matrix(1 0 0 1 489.8993 116.2588)" class="st3 st10 st99">●</text>
			<text transform="matrix(1 0 0 1 489.8993 116.2588)" class="st9 st10 st99">●</text>
			<text transform="matrix(1 0 0 1 492.4745 117.7979)" class="st3 st10 st99">●</text>
			<text transform="matrix(1 0 0 1 492.4745 117.7979)" class="st9 st10 st99">●</text>
			<circle class="st3" cx="421.31" cy="107.43" r="0.68"/>
			<circle class="st3" cx="419.48" cy="112.6" r="0.85"/>
			<circle class="st3" cx="454.6" cy="112.39" r="0.61"/>
			<circle id="shine10" class="st3" cx="454.94" cy="123.9" r="0.99"/>
			<circle class="st3" cx="460.02" cy="130.66" r="0.79"/>
			<circle class="st3" cx="465.24" cy="125.78" r="0.68"/>
			<circle class="st3" cx="472.34" cy="119.75" r="0.74"/>
			<circle class="st3" cx="474.84" cy="124.39" r="0.89"/>
			<circle class="st3" cx="488.11" cy="113.9" r="0.68"/>
			<circle class="st3" cx="461.43" cy="127.32" r="0.53"/>
			<circle class="st3" cx="434.65" cy="110.02" r="0.42"/>
			<circle class="st3" cx="418.7" cy="129.39" r="0.61"/>
			<circle class="st3" cx="418.7" cy="131.07" r="0.61"/>
		</g>
	</g>
</g>
</svg>
